<?xml version="1.0" encoding="UTF-8" standalone="no"?>
<!DOCTYPE svg PUBLIC "-//W3C//DTD SVG 1.1//EN"
 "http://www.w3.org/Graphics/SVG/1.1/DTD/svg11.dtd">
<!-- Generated by graphviz version 2.36.0 (20140111.2315)
 -->
<!-- Title: /data/Software/DAQ/CDAQ/Core/Include/ADCManager1730.h Pages: 1 -->
<svg width="722pt" height="152pt"
 viewBox="0.00 0.00 722.00 152.00" xmlns="http://www.w3.org/2000/svg" xmlns:xlink="http://www.w3.org/1999/xlink">
<g id="graph0" class="graph" transform="scale(1 1) rotate(0) translate(4 148)">
<title>/data/Software/DAQ/CDAQ/Core/Include/ADCManager1730.h</title>
<polygon fill="white" stroke="none" points="-4,4 -4,-148 718,-148 718,4 -4,4"/>
<!-- Node1 -->
<g id="node1" class="node"><title>Node1</title>
<polygon fill="#bfbfbf" stroke="black" points="233.5,-113 233.5,-143 432.5,-143 432.5,-113 233.5,-113"/>
<text text-anchor="start" x="241.5" y="-131" font-family="Helvetica,sans-Serif" font-size="10.00">/data/Software/DAQ</text>
<text text-anchor="middle" x="333" y="-120" font-family="Helvetica,sans-Serif" font-size="10.00">/CDAQ/Core/Include/ADCManager1730.h</text>
</g>
<!-- Node2 -->
<g id="node2" class="node"><title>Node2</title>
<polygon fill="white" stroke="#bfbfbf" points="-0.5,-0.5 -0.5,-19.5 48.5,-19.5 48.5,-0.5 -0.5,-0.5"/>
<text text-anchor="middle" x="24" y="-7.5" font-family="Helvetica,sans-Serif" font-size="10.00">string.h</text>
</g>
<!-- Node1&#45;&gt;Node2 -->
<g id="edge1" class="edge"><title>Node1&#45;&gt;Node2</title>
<path fill="none" stroke="midnightblue" d="M288.486,-112.957C258.034,-103.132 216.845,-89.4153 181,-76 135.875,-59.1114 84.4254,-37.3155 53.088,-23.748"/>
<polygon fill="midnightblue" stroke="midnightblue" points="54.2202,-20.4239 43.6537,-19.6487 51.4305,-26.844 54.2202,-20.4239"/>
</g>
<!-- Node3 -->
<g id="node3" class="node"><title>Node3</title>
<polygon fill="white" stroke="#bfbfbf" points="67,-0.5 67,-19.5 113,-19.5 113,-0.5 67,-0.5"/>
<text text-anchor="middle" x="90" y="-7.5" font-family="Helvetica,sans-Serif" font-size="10.00">stdio.h</text>
</g>
<!-- Node1&#45;&gt;Node3 -->
<g id="edge2" class="edge"><title>Node1&#45;&gt;Node3</title>
<path fill="none" stroke="midnightblue" d="M303.175,-112.99C281.473,-102.777 251.39,-88.584 225,-76 187.568,-58.1507 144.403,-37.325 117.162,-24.152"/>
<polygon fill="midnightblue" stroke="midnightblue" points="118.412,-20.8689 107.886,-19.6647 115.364,-27.1703 118.412,-20.8689"/>
</g>
<!-- Node4 -->
<g id="node4" class="node"><title>Node4</title>
<polygon fill="white" stroke="#bfbfbf" points="131,-0.5 131,-19.5 179,-19.5 179,-0.5 131,-0.5"/>
<text text-anchor="middle" x="155" y="-7.5" font-family="Helvetica,sans-Serif" font-size="10.00">stdlib.h</text>
</g>
<!-- Node1&#45;&gt;Node4 -->
<g id="edge3" class="edge"><title>Node1&#45;&gt;Node4</title>
<path fill="none" stroke="midnightblue" d="M311.174,-112.776C277.061,-90.5457 211.473,-47.8025 177.158,-25.4399"/>
<polygon fill="midnightblue" stroke="midnightblue" points="178.65,-22.2345 168.361,-19.707 174.828,-28.0991 178.65,-22.2345"/>
</g>
<!-- Node5 -->
<g id="node5" class="node"><title>Node5</title>
<polygon fill="white" stroke="#bfbfbf" points="197,-0.5 197,-19.5 241,-19.5 241,-0.5 197,-0.5"/>
<text text-anchor="middle" x="219" y="-7.5" font-family="Helvetica,sans-Serif" font-size="10.00">time.h</text>
</g>
<!-- Node1&#45;&gt;Node5 -->
<g id="edge4" class="edge"><title>Node1&#45;&gt;Node5</title>
<path fill="none" stroke="midnightblue" d="M316.302,-112.998C304.675,-103.025 288.986,-89.1163 276,-76 260.408,-60.2512 243.839,-41.0456 232.608,-27.6101"/>
<polygon fill="midnightblue" stroke="midnightblue" points="235.137,-25.1766 226.062,-19.7087 229.747,-29.6423 235.137,-25.1766"/>
</g>
<!-- Node6 -->
<g id="node6" class="node"><title>Node6</title>
<polygon fill="white" stroke="#bfbfbf" points="259.5,-0.5 259.5,-19.5 344.5,-19.5 344.5,-0.5 259.5,-0.5"/>
<text text-anchor="middle" x="302" y="-7.5" font-family="Helvetica,sans-Serif" font-size="10.00">CAENVMElib.h</text>
</g>
<!-- Node1&#45;&gt;Node6 -->
<g id="edge5" class="edge"><title>Node1&#45;&gt;Node6</title>
<path fill="none" stroke="midnightblue" d="M312.363,-112.817C301.083,-103.757 288.181,-90.9234 282,-76 275.456,-60.2003 282.719,-41.4713 290.261,-28.1856"/>
<polygon fill="midnightblue" stroke="midnightblue" points="293.296,-29.9328 295.608,-19.5934 287.353,-26.2343 293.296,-29.9328"/>
</g>
<!-- Node7 -->
<g id="node7" class="node"><title>Node7</title>
<polygon fill="white" stroke="#bfbfbf" points="363,-0.5 363,-19.5 407,-19.5 407,-0.5 363,-0.5"/>
<text text-anchor="middle" x="385" y="-7.5" font-family="Helvetica,sans-Serif" font-size="10.00">vector</text>
</g>
<!-- Node1&#45;&gt;Node7 -->
<g id="edge6" class="edge"><title>Node1&#45;&gt;Node7</title>
<path fill="none" stroke="midnightblue" d="M352.818,-112.873C363.882,-103.747 376.676,-90.8272 383,-76 389.228,-61.3961 389.218,-43.2228 387.943,-29.8084"/>
<polygon fill="midnightblue" stroke="midnightblue" points="391.41,-29.3248 386.684,-19.8423 384.465,-30.2021 391.41,-29.3248"/>
</g>
<!-- Node8 -->
<g id="node8" class="node"><title>Node8</title>
<polygon fill="white" stroke="#bfbfbf" points="425,-0.5 425,-19.5 477,-19.5 477,-0.5 425,-0.5"/>
<text text-anchor="middle" x="451" y="-7.5" font-family="Helvetica,sans-Serif" font-size="10.00">memory</text>
</g>
<!-- Node1&#45;&gt;Node8 -->
<g id="edge7" class="edge"><title>Node1&#45;&gt;Node8</title>
<path fill="none" stroke="midnightblue" d="M354.334,-112.873C368.08,-103.277 385.943,-89.852 400,-76 415.108,-61.1121 429.779,-41.7356 439.477,-28.0237"/>
<polygon fill="midnightblue" stroke="midnightblue" points="442.522,-29.7737 445.34,-19.5605 436.768,-25.7871 442.522,-29.7737"/>
</g>
<!-- Node9 -->
<g id="node9" class="node"><title>Node9</title>
<polygon fill="white" stroke="#bfbfbf" points="495.5,-0.5 495.5,-19.5 546.5,-19.5 546.5,-0.5 495.5,-0.5"/>
<text text-anchor="middle" x="521" y="-7.5" font-family="Helvetica,sans-Serif" font-size="10.00">typeinfo</text>
</g>
<!-- Node1&#45;&gt;Node9 -->
<g id="edge8" class="edge"><title>Node1&#45;&gt;Node9</title>
<path fill="none" stroke="midnightblue" d="M358.882,-112.963C377.021,-102.974 401.726,-89.0608 423,-76 450.036,-59.4018 480.358,-39.0048 500.016,-25.5363"/>
<polygon fill="midnightblue" stroke="midnightblue" points="502.242,-28.2526 508.497,-19.7011 498.275,-22.4856 502.242,-28.2526"/>
</g>
<!-- Node10 -->
<g id="node10" class="node"><title>Node10</title>
<polygon fill="white" stroke="#bfbfbf" points="564.5,-0.5 564.5,-19.5 633.5,-19.5 633.5,-0.5 564.5,-0.5"/>
<text text-anchor="middle" x="599" y="-7.5" font-family="Helvetica,sans-Serif" font-size="10.00">xmlParser.h</text>
</g>
<!-- Node1&#45;&gt;Node10 -->
<g id="edge9" class="edge"><title>Node1&#45;&gt;Node10</title>
<path fill="none" stroke="midnightblue" d="M366.429,-112.972C390.538,-102.811 423.836,-88.6883 453,-76 494.145,-58.0993 541.569,-36.8758 570.92,-23.6711"/>
<polygon fill="midnightblue" stroke="midnightblue" points="572.465,-26.8141 580.146,-19.5168 569.59,-20.4314 572.465,-26.8141"/>
</g>
<!-- Node11 -->
<g id="node11" class="node"><title>Node11</title>
<g id="a_node11"><a xlink:href="_a_d_c_manager_8h.xhtml" target="_top" xlink:title="ADCManager.h">
<polygon fill="white" stroke="black" points="291,-56.5 291,-75.5 375,-75.5 375,-56.5 291,-56.5"/>
<text text-anchor="middle" x="333" y="-63.5" font-family="Helvetica,sans-Serif" font-size="10.00">ADCManager.h</text>
</a>
</g>
</g>
<!-- Node1&#45;&gt;Node11 -->
<g id="edge10" class="edge"><title>Node1&#45;&gt;Node11</title>
<path fill="none" stroke="midnightblue" d="M333,-112.781C333,-104.781 333,-94.6887 333,-86.0168"/>
<polygon fill="midnightblue" stroke="midnightblue" points="336.5,-85.7305 333,-75.7305 329.5,-85.7306 336.5,-85.7305"/>
</g>
<!-- Node12 -->
<g id="node12" class="node"><title>Node12</title>
<polygon fill="white" stroke="#bfbfbf" points="652,-0.5 652,-19.5 714,-19.5 714,-0.5 652,-0.5"/>
<text text-anchor="middle" x="683" y="-7.5" font-family="Helvetica,sans-Serif" font-size="10.00">common.h</text>
</g>
<!-- Node1&#45;&gt;Node12 -->
<g id="edge21" class="edge"><title>Node1&#45;&gt;Node12</title>
<path fill="none" stroke="midnightblue" d="M376.693,-112.946C408.214,-102.773 451.772,-88.6461 490,-76 545.465,-57.6521 609.734,-35.9103 648.336,-22.7995"/>
<polygon fill="midnightblue" stroke="midnightblue" points="649.703,-26.0316 658.045,-19.5001 647.451,-19.4039 649.703,-26.0316"/>
</g>
<!-- Node11&#45;&gt;Node2 -->
<g id="edge11" class="edge"><title>Node11&#45;&gt;Node2</title>
<path fill="none" stroke="midnightblue" d="M290.833,-59.3908C238.617,-52.1606 146.787,-38.5184 58.7038,-19.9714"/>
<polygon fill="midnightblue" stroke="midnightblue" points="59.3256,-16.5254 48.8158,-17.865 57.8671,-23.3718 59.3256,-16.5254"/>
</g>
<!-- Node11&#45;&gt;Node3 -->
<g id="edge12" class="edge"><title>Node11&#45;&gt;Node3</title>
<path fill="none" stroke="midnightblue" d="M290.783,-56.8241C250.144,-48.7692 186.749,-35.7228 122.865,-20.0931"/>
<polygon fill="midnightblue" stroke="midnightblue" points="123.573,-16.6629 113.025,-17.666 121.896,-23.4592 123.573,-16.6629"/>
</g>
<!-- Node11&#45;&gt;Node4 -->
<g id="edge13" class="edge"><title>Node11&#45;&gt;Node4</title>
<path fill="none" stroke="midnightblue" d="M304.795,-56.4435C273.346,-46.9028 222.497,-31.4766 188.907,-21.2863"/>
<polygon fill="midnightblue" stroke="midnightblue" points="189.662,-17.858 179.077,-18.3042 187.63,-24.5566 189.662,-17.858"/>
</g>
<!-- Node11&#45;&gt;Node5 -->
<g id="edge14" class="edge"><title>Node11&#45;&gt;Node5</title>
<path fill="none" stroke="midnightblue" d="M314.936,-56.4435C296.425,-47.6751 267.419,-33.9355 246.145,-23.8579"/>
<polygon fill="midnightblue" stroke="midnightblue" points="247.515,-20.6343 236.979,-19.5164 244.518,-26.9604 247.515,-20.6343"/>
</g>
<!-- Node11&#45;&gt;Node6 -->
<g id="edge15" class="edge"><title>Node11&#45;&gt;Node6</title>
<path fill="none" stroke="midnightblue" d="M327.881,-56.083C323.592,-48.6127 317.342,-37.7244 312.058,-28.5199"/>
<polygon fill="midnightblue" stroke="midnightblue" points="315.038,-26.6811 307.024,-19.7511 308.967,-30.1662 315.038,-26.6811"/>
</g>
<!-- Node11&#45;&gt;Node7 -->
<g id="edge16" class="edge"><title>Node11&#45;&gt;Node7</title>
<path fill="none" stroke="midnightblue" d="M341.587,-56.083C349.159,-48.2195 360.378,-36.5688 369.514,-27.0813"/>
<polygon fill="midnightblue" stroke="midnightblue" points="372.158,-29.3821 376.573,-19.7511 367.115,-24.5266 372.158,-29.3821"/>
</g>
<!-- Node11&#45;&gt;Node8 -->
<g id="edge17" class="edge"><title>Node11&#45;&gt;Node8</title>
<path fill="none" stroke="midnightblue" d="M351.697,-56.4435C370.944,-47.6356 401.152,-33.8116 423.2,-23.722"/>
<polygon fill="midnightblue" stroke="midnightblue" points="424.753,-26.8603 432.39,-19.5164 421.84,-20.4951 424.753,-26.8603"/>
</g>
<!-- Node11&#45;&gt;Node9 -->
<g id="edge18" class="edge"><title>Node11&#45;&gt;Node9</title>
<path fill="none" stroke="midnightblue" d="M362.789,-56.4435C396.054,-46.8887 449.869,-31.4312 485.345,-21.2413"/>
<polygon fill="midnightblue" stroke="midnightblue" points="486.632,-24.5132 495.277,-18.3884 484.7,-17.7852 486.632,-24.5132"/>
</g>
<!-- Node11&#45;&gt;Node10 -->
<g id="edge19" class="edge"><title>Node11&#45;&gt;Node10</title>
<path fill="none" stroke="midnightblue" d="M375.15,-56.4791C417.716,-47.8692 485.639,-34.1159 554.284,-20.143"/>
<polygon fill="midnightblue" stroke="midnightblue" points="555.313,-23.5053 564.414,-18.0804 553.917,-16.646 555.313,-23.5053"/>
</g>
<!-- Node11&#45;&gt;Node12 -->
<g id="edge20" class="edge"><title>Node11&#45;&gt;Node12</title>
<path fill="none" stroke="midnightblue" d="M375.138,-59.8337C432.841,-52.546 539.884,-38.2677 641.569,-19.9534"/>
<polygon fill="midnightblue" stroke="midnightblue" points="642.494,-23.3426 651.707,-18.1105 641.242,-16.4554 642.494,-23.3426"/>
</g>
</g>
</svg>
