<?xml version="1.0" encoding="UTF-8" standalone="no"?>
<!DOCTYPE svg PUBLIC "-//W3C//DTD SVG 1.1//EN"
 "http://www.w3.org/Graphics/SVG/1.1/DTD/svg11.dtd">
<!-- Generated by graphviz version 2.36.0 (20140111.2315)
 -->
<!-- Title: /data/Software/DAQ/CDAQ/Core/Source/ADCManager1720.cpp Pages: 1 -->
<!--zoomable 208 -->
<svg id="main" version="1.1" xmlns="http://www.w3.org/2000/svg" xmlns:xlink="http://www.w3.org/1999/xlink" xml:space="preserve" onload="init(evt)">
<style type="text/css"><![CDATA[
.edge:hover path { stroke: red; }
.edge:hover polygon { stroke: red; fill: red; }
]]></style>
<script type="text/javascript"><![CDATA[
var edges = document.getElementsByTagName('g');
if (edges && edges.length) {
  for (var i=0;i<edges.length;i++) {
    if (edges[i].id.substr(0,4)=='edge') {
      edges[i].setAttribute('class','edge');
    }
  }
}
]]></script>
        <defs>
                <circle id="rim" cx="0" cy="0" r="7"/>
                <circle id="rim2" cx="0" cy="0" r="3.5"/>
                <g id="zoomPlus">
                        <use xlink:href="#rim" fill="#404040">
                                <set attributeName="fill" to="#808080" begin="zoomplus.mouseover" end="zoomplus.mouseout"/>
                        </use>
                        <path d="M-4,0h8M0,-4v8" fill="none" stroke="white" stroke-width="1.5" pointer-events="none"/>
                </g>
                <g id="zoomMin">
                        <use xlink:href="#rim" fill="#404040">
                                <set attributeName="fill" to="#808080" begin="zoomminus.mouseover" end="zoomminus.mouseout"/>
                        </use>
                        <path d="M-4,0h8" fill="none" stroke="white" stroke-width="1.5" pointer-events="none"/>
                </g>
                <g id="dirArrow">
                        <path fill="none" stroke="white" stroke-width="1.5" d="M0,-3.0v7 M-2.5,-0.5L0,-3.0L2.5,-0.5"/>
                </g>
               <g id="resetDef">
                       <use xlink:href="#rim2" fill="#404040">
                               <set attributeName="fill" to="#808080" begin="reset.mouseover" end="reset.mouseout"/>
                       </use>
               </g>
        </defs>

<script type="text/javascript">
var viewWidth = 1653;
var viewHeight = 208;
var sectionId = 'dynsection-0';
</script>
<script xlink:href="svgpan.js"/>
<svg id="graph" class="graph">
<g id="viewport">
<title>/data/Software/DAQ/CDAQ/Core/Source/ADCManager1720.cpp</title>
<polygon fill="white" stroke="none" points="-4,4 -4,-204 1649,-204 1649,4 -4,4"/>
<!-- Node1 -->
<g id="node1" class="node"><title>Node1</title>
<polygon fill="#bfbfbf" stroke="black" points="693.5,-169 693.5,-199 902.5,-199 902.5,-169 693.5,-169"/>
<text text-anchor="start" x="701.5" y="-187" font-family="Helvetica,sans-Serif" font-size="10.00">/data/Software/DAQ</text>
<text text-anchor="middle" x="798" y="-176" font-family="Helvetica,sans-Serif" font-size="10.00">/CDAQ/Core/Source/ADCManager1720.cpp</text>
</g>
<!-- Node2 -->
<g id="node2" class="node"><title>Node2</title>
<polygon fill="white" stroke="#bfbfbf" points="0,-112.5 0,-131.5 54,-131.5 54,-112.5 0,-112.5"/>
<text text-anchor="middle" x="27" y="-119.5" font-family="Helvetica,sans-Serif" font-size="10.00">iostream</text>
</g>
<!-- Node1&#45;&gt;Node2 -->
<g id="edge1" class="edge"><title>Node1&#45;&gt;Node2</title>
<path fill="none" stroke="midnightblue" d="M693.28,-181.506C552.218,-178.203 293.388,-167.595 64.2222,-131.905"/>
<polygon fill="midnightblue" stroke="midnightblue" points="64.445,-128.397 54.0219,-130.297 63.3546,-135.311 64.445,-128.397"/>
</g>
<!-- Node3 -->
<g id="node3" class="node"><title>Node3</title>
<polygon fill="white" stroke="#bfbfbf" points="72.5,-112.5 72.5,-131.5 123.5,-131.5 123.5,-112.5 72.5,-112.5"/>
<text text-anchor="middle" x="98" y="-119.5" font-family="Helvetica,sans-Serif" font-size="10.00">unistd.h</text>
</g>
<!-- Node1&#45;&gt;Node3 -->
<g id="edge2" class="edge"><title>Node1&#45;&gt;Node3</title>
<path fill="none" stroke="midnightblue" d="M693.369,-180.631C563.916,-176.427 336.806,-164.895 133.474,-131.754"/>
<polygon fill="midnightblue" stroke="midnightblue" points="133.941,-128.284 123.504,-130.109 132.801,-135.19 133.941,-128.284"/>
</g>
<!-- Node4 -->
<g id="node4" class="node"><title>Node4</title>
<polygon fill="white" stroke="#bfbfbf" points="142,-112.5 142,-131.5 192,-131.5 192,-112.5 142,-112.5"/>
<text text-anchor="middle" x="167" y="-119.5" font-family="Helvetica,sans-Serif" font-size="10.00">fstream</text>
</g>
<!-- Node1&#45;&gt;Node4 -->
<g id="edge3" class="edge"><title>Node1&#45;&gt;Node4</title>
<path fill="none" stroke="midnightblue" d="M693.493,-179.563C575.981,-174.454 379.486,-162.176 202.178,-131.912"/>
<polygon fill="midnightblue" stroke="midnightblue" points="202.594,-128.432 192.143,-130.176 201.4,-135.329 202.594,-128.432"/>
</g>
<!-- Node5 -->
<g id="node5" class="node"><title>Node5</title>
<polygon fill="white" stroke="#bfbfbf" points="210,-112.5 210,-131.5 262,-131.5 262,-112.5 210,-112.5"/>
<text text-anchor="middle" x="236" y="-119.5" font-family="Helvetica,sans-Serif" font-size="10.00">sstream</text>
</g>
<!-- Node1&#45;&gt;Node5 -->
<g id="edge4" class="edge"><title>Node1&#45;&gt;Node5</title>
<path fill="none" stroke="midnightblue" d="M693.362,-177.671C588.852,-171.253 423.589,-158.133 272.227,-131.966"/>
<polygon fill="midnightblue" stroke="midnightblue" points="272.732,-128.501 262.278,-130.224 271.524,-135.396 272.732,-128.501"/>
</g>
<!-- Node6 -->
<g id="node6" class="node"><title>Node6</title>
<polygon fill="white" stroke="#bfbfbf" points="280,-112.5 280,-131.5 324,-131.5 324,-112.5 280,-112.5"/>
<text text-anchor="middle" x="302" y="-119.5" font-family="Helvetica,sans-Serif" font-size="10.00">cmath</text>
</g>
<!-- Node1&#45;&gt;Node6 -->
<g id="edge5" class="edge"><title>Node1&#45;&gt;Node6</title>
<path fill="none" stroke="midnightblue" d="M693.329,-176.723C600.971,-169.987 462.712,-156.986 334.256,-131.939"/>
<polygon fill="midnightblue" stroke="midnightblue" points="334.726,-128.464 324.237,-129.956 333.368,-135.331 334.726,-128.464"/>
</g>
<!-- Node7 -->
<g id="node7" class="node"><title>Node7</title>
<polygon fill="white" stroke="#bfbfbf" points="342.5,-112.5 342.5,-131.5 377.5,-131.5 377.5,-112.5 342.5,-112.5"/>
<text text-anchor="middle" x="360" y="-119.5" font-family="Helvetica,sans-Serif" font-size="10.00">map</text>
</g>
<!-- Node1&#45;&gt;Node7 -->
<g id="edge6" class="edge"><title>Node1&#45;&gt;Node7</title>
<path fill="none" stroke="midnightblue" d="M693.23,-176.136C611.779,-169.385 496.043,-156.699 387.559,-131.971"/>
<polygon fill="midnightblue" stroke="midnightblue" points="388.29,-128.547 377.758,-129.699 386.709,-135.366 388.29,-128.547"/>
</g>
<!-- Node8 -->
<g id="node8" class="node"><title>Node8</title>
<polygon fill="white" stroke="#bfbfbf" points="395.5,-112.5 395.5,-131.5 442.5,-131.5 442.5,-112.5 395.5,-112.5"/>
<text text-anchor="middle" x="419" y="-119.5" font-family="Helvetica,sans-Serif" font-size="10.00">math.h</text>
</g>
<!-- Node1&#45;&gt;Node8 -->
<g id="edge7" class="edge"><title>Node1&#45;&gt;Node8</title>
<path fill="none" stroke="midnightblue" d="M693.142,-169.64C625.499,-160.45 535.761,-147.189 457,-132 455.544,-131.719 454.059,-131.421 452.561,-131.109"/>
<polygon fill="midnightblue" stroke="midnightblue" points="453.169,-127.66 442.65,-128.926 451.663,-134.496 453.169,-127.66"/>
</g>
<!-- Node9 -->
<g id="node9" class="node"><title>Node9</title>
<polygon fill="white" stroke="#bfbfbf" points="334,-0.5 334,-19.5 378,-19.5 378,-0.5 334,-0.5"/>
<text text-anchor="middle" x="356" y="-7.5" font-family="Helvetica,sans-Serif" font-size="10.00">vector</text>
</g>
<!-- Node1&#45;&gt;Node9 -->
<g id="edge8" class="edge"><title>Node1&#45;&gt;Node9</title>
<path fill="none" stroke="midnightblue" d="M693.4,-180.135C631.892,-174.984 554.072,-162.288 491,-132 438.235,-106.661 390.887,-54.2793 368.932,-27.5191"/>
<polygon fill="midnightblue" stroke="midnightblue" points="371.482,-25.1044 362.489,-19.5022 366.026,-29.4895 371.482,-25.1044"/>
</g>
<!-- Node10 -->
<g id="node10" class="node"><title>Node10</title>
<polygon fill="white" stroke="#bfbfbf" points="623,-112.5 623,-131.5 685,-131.5 685,-112.5 623,-112.5"/>
<text text-anchor="middle" x="654" y="-119.5" font-family="Helvetica,sans-Serif" font-size="10.00">sys/time.h</text>
</g>
<!-- Node1&#45;&gt;Node10 -->
<g id="edge9" class="edge"><title>Node1&#45;&gt;Node10</title>
<path fill="none" stroke="midnightblue" d="M764.238,-168.933C739.944,-158.81 707.467,-145.278 684.064,-135.527"/>
<polygon fill="midnightblue" stroke="midnightblue" points="685.217,-132.215 674.64,-131.6 682.525,-138.677 685.217,-132.215"/>
</g>
<!-- Node11 -->
<g id="node11" class="node"><title>Node11</title>
<polygon fill="white" stroke="#bfbfbf" points="703.5,-112.5 703.5,-131.5 744.5,-131.5 744.5,-112.5 703.5,-112.5"/>
<text text-anchor="middle" x="724" y="-119.5" font-family="Helvetica,sans-Serif" font-size="10.00">string</text>
</g>
<!-- Node1&#45;&gt;Node11 -->
<g id="edge10" class="edge"><title>Node1&#45;&gt;Node11</title>
<path fill="none" stroke="midnightblue" d="M780.463,-168.781C769.045,-159.523 754.17,-147.462 742.554,-138.044"/>
<polygon fill="midnightblue" stroke="midnightblue" points="744.74,-135.31 734.768,-131.731 740.331,-140.747 744.74,-135.31"/>
</g>
<!-- Node12 -->
<g id="node12" class="node"><title>Node12</title>
<polygon fill="white" stroke="#bfbfbf" points="763,-112.5 763,-131.5 833,-131.5 833,-112.5 763,-112.5"/>
<text text-anchor="middle" x="798" y="-119.5" font-family="Helvetica,sans-Serif" font-size="10.00">Riostream.h</text>
</g>
<!-- Node1&#45;&gt;Node12 -->
<g id="edge11" class="edge"><title>Node1&#45;&gt;Node12</title>
<path fill="none" stroke="midnightblue" d="M798,-168.781C798,-160.781 798,-150.689 798,-142.017"/>
<polygon fill="midnightblue" stroke="midnightblue" points="801.5,-141.73 798,-131.731 794.5,-141.731 801.5,-141.73"/>
</g>
<!-- Node13 -->
<g id="node13" class="node"><title>Node13</title>
<polygon fill="white" stroke="#bfbfbf" points="851.5,-112.5 851.5,-131.5 898.5,-131.5 898.5,-112.5 851.5,-112.5"/>
<text text-anchor="middle" x="875" y="-119.5" font-family="Helvetica,sans-Serif" font-size="10.00">iterator</text>
</g>
<!-- Node1&#45;&gt;Node13 -->
<g id="edge12" class="edge"><title>Node1&#45;&gt;Node13</title>
<path fill="none" stroke="midnightblue" d="M816.248,-168.781C828.129,-159.523 843.607,-147.462 855.694,-138.044"/>
<polygon fill="midnightblue" stroke="midnightblue" points="858.059,-140.638 863.796,-131.731 853.757,-135.116 858.059,-140.638"/>
</g>
<!-- Node14 -->
<g id="node14" class="node"><title>Node14</title>
<polygon fill="white" stroke="#bfbfbf" points="917,-112.5 917,-131.5 973,-131.5 973,-112.5 917,-112.5"/>
<text text-anchor="middle" x="945" y="-119.5" font-family="Helvetica,sans-Serif" font-size="10.00">algorithm</text>
</g>
<!-- Node1&#45;&gt;Node14 -->
<g id="edge13" class="edge"><title>Node1&#45;&gt;Node14</title>
<path fill="none" stroke="midnightblue" d="M832.465,-168.933C857.376,-158.765 890.715,-145.157 914.629,-135.396"/>
<polygon fill="midnightblue" stroke="midnightblue" points="915.994,-138.62 923.93,-131.6 913.349,-132.139 915.994,-138.62"/>
</g>
<!-- Node15 -->
<g id="node15" class="node"><title>Node15</title>
<g id="a_node15"><a xlink:href="_a_d_c_manager1720_8h.xhtml" target="_top" xlink:title="ADCManager1720.h">
<polygon fill="white" stroke="black" points="499.5,-112.5 499.5,-131.5 604.5,-131.5 604.5,-112.5 499.5,-112.5"/>
<text text-anchor="middle" x="552" y="-119.5" font-family="Helvetica,sans-Serif" font-size="10.00">ADCManager1720.h</text>
</a>
</g>
</g>
<!-- Node1&#45;&gt;Node15 -->
<g id="edge14" class="edge"><title>Node1&#45;&gt;Node15</title>
<path fill="none" stroke="midnightblue" d="M740.324,-168.933C696.467,-158.236 637,-143.732 596.711,-133.905"/>
<polygon fill="midnightblue" stroke="midnightblue" points="597.447,-130.482 586.902,-131.513 595.788,-137.283 597.447,-130.482"/>
</g>
<!-- Node26 -->
<g id="node26" class="node"><title>Node26</title>
<polygon fill="white" stroke="#bfbfbf" points="991,-112.5 991,-131.5 1041,-131.5 1041,-112.5 991,-112.5"/>
<text text-anchor="middle" x="1016" y="-119.5" font-family="Helvetica,sans-Serif" font-size="10.00">global.h</text>
</g>
<!-- Node1&#45;&gt;Node26 -->
<g id="edge36" class="edge"><title>Node1&#45;&gt;Node26</title>
<path fill="none" stroke="midnightblue" d="M849.111,-168.933C889.659,-157.773 945.263,-142.469 980.916,-132.656"/>
<polygon fill="midnightblue" stroke="midnightblue" points="982.145,-135.948 990.858,-129.92 980.288,-129.199 982.145,-135.948"/>
</g>
<!-- Node27 -->
<g id="node27" class="node"><title>Node27</title>
<polygon fill="white" stroke="#bfbfbf" points="1059.5,-112.5 1059.5,-131.5 1110.5,-131.5 1110.5,-112.5 1059.5,-112.5"/>
<text text-anchor="middle" x="1085" y="-119.5" font-family="Helvetica,sans-Serif" font-size="10.00">TH1D.h</text>
</g>
<!-- Node1&#45;&gt;Node27 -->
<g id="edge37" class="edge"><title>Node1&#45;&gt;Node27</title>
<path fill="none" stroke="midnightblue" d="M872.648,-168.949C920.46,-159.703 984.046,-146.953 1049.35,-132.052"/>
<polygon fill="midnightblue" stroke="midnightblue" points="1050.46,-135.389 1059.42,-129.74 1048.89,-128.567 1050.46,-135.389"/>
</g>
<!-- Node28 -->
<g id="node28" class="node"><title>Node28</title>
<polygon fill="white" stroke="#bfbfbf" points="1128.5,-112.5 1128.5,-131.5 1207.5,-131.5 1207.5,-112.5 1128.5,-112.5"/>
<text text-anchor="middle" x="1168" y="-119.5" font-family="Helvetica,sans-Serif" font-size="10.00">TApplication.h</text>
</g>
<!-- Node1&#45;&gt;Node28 -->
<g id="edge38" class="edge"><title>Node1&#45;&gt;Node28</title>
<path fill="none" stroke="midnightblue" d="M890.111,-168.968C951.885,-159.415 1035.33,-146.241 1118.55,-132.043"/>
<polygon fill="midnightblue" stroke="midnightblue" points="1119.17,-135.488 1128.43,-130.352 1117.99,-128.588 1119.17,-135.488"/>
</g>
<!-- Node29 -->
<g id="node29" class="node"><title>Node29</title>
<polygon fill="white" stroke="#bfbfbf" points="1225.5,-112.5 1225.5,-131.5 1290.5,-131.5 1290.5,-112.5 1225.5,-112.5"/>
<text text-anchor="middle" x="1258" y="-119.5" font-family="Helvetica,sans-Serif" font-size="10.00">TCanvas.h</text>
</g>
<!-- Node1&#45;&gt;Node29 -->
<g id="edge39" class="edge"><title>Node1&#45;&gt;Node29</title>
<path fill="none" stroke="midnightblue" d="M902.732,-172.854C985.021,-164.268 1102.7,-150.642 1215.31,-131.971"/>
<polygon fill="midnightblue" stroke="midnightblue" points="1216.21,-135.369 1225.5,-130.266 1215.06,-128.465 1216.21,-135.369"/>
</g>
<!-- Node30 -->
<g id="node30" class="node"><title>Node30</title>
<polygon fill="white" stroke="#bfbfbf" points="1308.5,-112.5 1308.5,-131.5 1361.5,-131.5 1361.5,-112.5 1308.5,-112.5"/>
<text text-anchor="middle" x="1335" y="-119.5" font-family="Helvetica,sans-Serif" font-size="10.00">TStyle.h</text>
</g>
<!-- Node1&#45;&gt;Node30 -->
<g id="edge40" class="edge"><title>Node1&#45;&gt;Node30</title>
<path fill="none" stroke="midnightblue" d="M902.708,-176.734C1002.1,-169.778 1155.74,-156.415 1298.12,-131.898"/>
<polygon fill="midnightblue" stroke="midnightblue" points="1299.11,-135.28 1308.35,-130.114 1297.9,-128.384 1299.11,-135.28"/>
</g>
<!-- Node31 -->
<g id="node31" class="node"><title>Node31</title>
<polygon fill="white" stroke="#bfbfbf" points="1379.5,-112.5 1379.5,-131.5 1426.5,-131.5 1426.5,-112.5 1379.5,-112.5"/>
<text text-anchor="middle" x="1403" y="-119.5" font-family="Helvetica,sans-Serif" font-size="10.00">TFile.h</text>
</g>
<!-- Node1&#45;&gt;Node31 -->
<g id="edge41" class="edge"><title>Node1&#45;&gt;Node31</title>
<path fill="none" stroke="midnightblue" d="M902.592,-179.24C1015.59,-173.914 1200.92,-161.514 1369.28,-131.794"/>
<polygon fill="midnightblue" stroke="midnightblue" points="1370.09,-135.204 1379.32,-129.998 1368.86,-128.314 1370.09,-135.204"/>
</g>
<!-- Node32 -->
<g id="node32" class="node"><title>Node32</title>
<polygon fill="white" stroke="#bfbfbf" points="1444.5,-112.5 1444.5,-131.5 1499.5,-131.5 1499.5,-112.5 1444.5,-112.5"/>
<text text-anchor="middle" x="1472" y="-119.5" font-family="Helvetica,sans-Serif" font-size="10.00">TLatex.h</text>
</g>
<!-- Node1&#45;&gt;Node32 -->
<g id="edge42" class="edge"><title>Node1&#45;&gt;Node32</title>
<path fill="none" stroke="midnightblue" d="M902.597,-179.715C1027.14,-174.654 1241.44,-162.318 1434.18,-131.864"/>
<polygon fill="midnightblue" stroke="midnightblue" points="1434.89,-135.295 1444.22,-130.259 1433.79,-128.383 1434.89,-135.295"/>
</g>
<!-- Node33 -->
<g id="node33" class="node"><title>Node33</title>
<polygon fill="white" stroke="#bfbfbf" points="1518,-112.5 1518,-131.5 1568,-131.5 1568,-112.5 1518,-112.5"/>
<text text-anchor="middle" x="1543" y="-119.5" font-family="Helvetica,sans-Serif" font-size="10.00">TTree.h</text>
</g>
<!-- Node1&#45;&gt;Node33 -->
<g id="edge43" class="edge"><title>Node1&#45;&gt;Node33</title>
<path fill="none" stroke="midnightblue" d="M902.75,-181.356C1041.87,-177.834 1294.86,-166.768 1508,-132 1508.1,-131.984 1508.2,-131.967 1508.3,-131.95"/>
<polygon fill="midnightblue" stroke="midnightblue" points="1508.76,-135.428 1517.88,-130.036 1507.39,-128.564 1508.76,-135.428"/>
</g>
<!-- Node34 -->
<g id="node34" class="node"><title>Node34</title>
<polygon fill="white" stroke="#bfbfbf" points="1586.5,-112.5 1586.5,-131.5 1645.5,-131.5 1645.5,-112.5 1586.5,-112.5"/>
<text text-anchor="middle" x="1616" y="-119.5" font-family="Helvetica,sans-Serif" font-size="10.00">TROOT.h</text>
</g>
<!-- Node1&#45;&gt;Node34 -->
<g id="edge44" class="edge"><title>Node1&#45;&gt;Node34</title>
<path fill="none" stroke="midnightblue" d="M902.517,-181.505C1050.5,-178.194 1329.55,-167.562 1576.05,-131.877"/>
<polygon fill="midnightblue" stroke="midnightblue" points="1576.9,-135.29 1586.28,-130.378 1575.88,-128.364 1576.9,-135.29"/>
</g>
<!-- Node15&#45;&gt;Node9 -->
<g id="edge20" class="edge"><title>Node15&#45;&gt;Node9</title>
<path fill="none" stroke="midnightblue" d="M536.453,-112.407C520.132,-103.376 493.735,-88.7399 471,-76 439.525,-58.362 403.304,-37.8543 380.057,-24.6654"/>
<polygon fill="midnightblue" stroke="midnightblue" points="381.658,-21.5497 371.234,-19.6574 378.203,-27.6375 381.658,-21.5497"/>
</g>
<!-- Node16 -->
<g id="node16" class="node"><title>Node16</title>
<polygon fill="white" stroke="#bfbfbf" points="396.5,-0.5 396.5,-19.5 445.5,-19.5 445.5,-0.5 396.5,-0.5"/>
<text text-anchor="middle" x="421" y="-7.5" font-family="Helvetica,sans-Serif" font-size="10.00">string.h</text>
</g>
<!-- Node15&#45;&gt;Node16 -->
<g id="edge15" class="edge"><title>Node15&#45;&gt;Node16</title>
<path fill="none" stroke="midnightblue" d="M541.721,-112.368C519.528,-93.7334 466.889,-49.5324 439.023,-26.1338"/>
<polygon fill="midnightblue" stroke="midnightblue" points="441.141,-23.3416 431.232,-19.5914 436.639,-28.7024 441.141,-23.3416"/>
</g>
<!-- Node17 -->
<g id="node17" class="node"><title>Node17</title>
<polygon fill="white" stroke="#bfbfbf" points="464,-0.5 464,-19.5 510,-19.5 510,-0.5 464,-0.5"/>
<text text-anchor="middle" x="487" y="-7.5" font-family="Helvetica,sans-Serif" font-size="10.00">stdio.h</text>
</g>
<!-- Node15&#45;&gt;Node17 -->
<g id="edge16" class="edge"><title>Node15&#45;&gt;Node17</title>
<path fill="none" stroke="midnightblue" d="M546.9,-112.368C536.22,-94.2957 511.332,-52.1764 497.227,-28.3074"/>
<polygon fill="midnightblue" stroke="midnightblue" points="500.177,-26.4201 492.077,-19.5914 494.151,-29.9813 500.177,-26.4201"/>
</g>
<!-- Node18 -->
<g id="node18" class="node"><title>Node18</title>
<polygon fill="white" stroke="#bfbfbf" points="528,-0.5 528,-19.5 576,-19.5 576,-0.5 528,-0.5"/>
<text text-anchor="middle" x="552" y="-7.5" font-family="Helvetica,sans-Serif" font-size="10.00">stdlib.h</text>
</g>
<!-- Node15&#45;&gt;Node18 -->
<g id="edge17" class="edge"><title>Node15&#45;&gt;Node18</title>
<path fill="none" stroke="midnightblue" d="M552,-112.368C552,-94.617 552,-53.6664 552,-29.5974"/>
<polygon fill="midnightblue" stroke="midnightblue" points="555.5,-29.5914 552,-19.5914 548.5,-29.5915 555.5,-29.5914"/>
</g>
<!-- Node19 -->
<g id="node19" class="node"><title>Node19</title>
<polygon fill="white" stroke="#bfbfbf" points="594,-0.5 594,-19.5 638,-19.5 638,-0.5 594,-0.5"/>
<text text-anchor="middle" x="616" y="-7.5" font-family="Helvetica,sans-Serif" font-size="10.00">time.h</text>
</g>
<!-- Node15&#45;&gt;Node19 -->
<g id="edge18" class="edge"><title>Node15&#45;&gt;Node19</title>
<path fill="none" stroke="midnightblue" d="M557.022,-112.368C567.537,-94.2957 592.043,-52.1764 605.93,-28.3074"/>
<polygon fill="midnightblue" stroke="midnightblue" points="608.998,-29.9951 611.001,-19.5914 602.947,-26.4748 608.998,-29.9951"/>
</g>
<!-- Node20 -->
<g id="node20" class="node"><title>Node20</title>
<polygon fill="white" stroke="#bfbfbf" points="656.5,-0.5 656.5,-19.5 741.5,-19.5 741.5,-0.5 656.5,-0.5"/>
<text text-anchor="middle" x="699" y="-7.5" font-family="Helvetica,sans-Serif" font-size="10.00">CAENVMElib.h</text>
</g>
<!-- Node15&#45;&gt;Node20 -->
<g id="edge19" class="edge"><title>Node15&#45;&gt;Node20</title>
<path fill="none" stroke="midnightblue" d="M604.613,-112.95C645.428,-105.504 697.154,-93.0152 710,-76 720.21,-62.4754 714.93,-42.8521 708.663,-28.7087"/>
<polygon fill="midnightblue" stroke="midnightblue" points="711.701,-26.9573 704.132,-19.5442 705.426,-30.0597 711.701,-26.9573"/>
</g>
<!-- Node21 -->
<g id="node21" class="node"><title>Node21</title>
<polygon fill="white" stroke="#bfbfbf" points="760,-0.5 760,-19.5 812,-19.5 812,-0.5 760,-0.5"/>
<text text-anchor="middle" x="786" y="-7.5" font-family="Helvetica,sans-Serif" font-size="10.00">memory</text>
</g>
<!-- Node15&#45;&gt;Node21 -->
<g id="edge21" class="edge"><title>Node15&#45;&gt;Node21</title>
<path fill="none" stroke="midnightblue" d="M596.787,-112.42C640.789,-103.461 704.379,-88.9373 726,-76 746.299,-63.8537 763.892,-42.7923 774.687,-27.9412"/>
<polygon fill="midnightblue" stroke="midnightblue" points="777.634,-29.8339 780.493,-19.6321 771.896,-25.8244 777.634,-29.8339"/>
</g>
<!-- Node22 -->
<g id="node22" class="node"><title>Node22</title>
<polygon fill="white" stroke="#bfbfbf" points="830.5,-0.5 830.5,-19.5 881.5,-19.5 881.5,-0.5 830.5,-0.5"/>
<text text-anchor="middle" x="856" y="-7.5" font-family="Helvetica,sans-Serif" font-size="10.00">typeinfo</text>
</g>
<!-- Node15&#45;&gt;Node22 -->
<g id="edge22" class="edge"><title>Node15&#45;&gt;Node22</title>
<path fill="none" stroke="midnightblue" d="M598.195,-112.475C648.237,-102.911 724.595,-87.2634 752,-76 783.765,-62.9445 816.788,-40.5367 836.874,-25.7446"/>
<polygon fill="midnightblue" stroke="midnightblue" points="839.24,-28.3447 845.141,-19.5451 835.041,-22.7444 839.24,-28.3447"/>
</g>
<!-- Node23 -->
<g id="node23" class="node"><title>Node23</title>
<polygon fill="white" stroke="#bfbfbf" points="899.5,-0.5 899.5,-19.5 968.5,-19.5 968.5,-0.5 899.5,-0.5"/>
<text text-anchor="middle" x="934" y="-7.5" font-family="Helvetica,sans-Serif" font-size="10.00">xmlParser.h</text>
</g>
<!-- Node15&#45;&gt;Node23 -->
<g id="edge23" class="edge"><title>Node15&#45;&gt;Node23</title>
<path fill="none" stroke="midnightblue" d="M603.178,-112.474C661.128,-102.58 751.802,-86.3082 785,-76 829.799,-62.0897 879.235,-38.8421 908.402,-24.2457"/>
<polygon fill="midnightblue" stroke="midnightblue" points="910.137,-27.2903 917.481,-19.6532 906.977,-21.044 910.137,-27.2903"/>
</g>
<!-- Node24 -->
<g id="node24" class="node"><title>Node24</title>
<g id="a_node24"><a xlink:href="_a_d_c_manager_8h.xhtml" target="_top" xlink:title="ADCManager.h">
<polygon fill="white" stroke="black" points="618,-56.5 618,-75.5 702,-75.5 702,-56.5 618,-56.5"/>
<text text-anchor="middle" x="660" y="-63.5" font-family="Helvetica,sans-Serif" font-size="10.00">ADCManager.h</text>
</a>
</g>
</g>
<!-- Node15&#45;&gt;Node24 -->
<g id="edge24" class="edge"><title>Node15&#45;&gt;Node24</title>
<path fill="none" stroke="midnightblue" d="M569.352,-112.324C586.672,-103.664 613.515,-90.2424 633.502,-80.249"/>
<polygon fill="midnightblue" stroke="midnightblue" points="635.312,-83.2572 642.691,-75.6545 632.181,-76.9962 635.312,-83.2572"/>
</g>
<!-- Node25 -->
<g id="node25" class="node"><title>Node25</title>
<polygon fill="white" stroke="#bfbfbf" points="987,-0.5 987,-19.5 1049,-19.5 1049,-0.5 987,-0.5"/>
<text text-anchor="middle" x="1018" y="-7.5" font-family="Helvetica,sans-Serif" font-size="10.00">common.h</text>
</g>
<!-- Node15&#45;&gt;Node25 -->
<g id="edge35" class="edge"><title>Node15&#45;&gt;Node25</title>
<path fill="none" stroke="midnightblue" d="M604.54,-113.327C671.494,-103.372 783.414,-86.0883 824,-76 882.542,-61.4487 948.786,-37.599 986.751,-23.1911"/>
<polygon fill="midnightblue" stroke="midnightblue" points="988.136,-26.4089 996.226,-19.5681 985.636,-19.8706 988.136,-26.4089"/>
</g>
<!-- Node24&#45;&gt;Node9 -->
<g id="edge30" class="edge"><title>Node24&#45;&gt;Node9</title>
<path fill="none" stroke="midnightblue" d="M617.606,-59.6084C565.672,-52.6524 474.867,-39.3563 388.26,-20.0663"/>
<polygon fill="midnightblue" stroke="midnightblue" points="388.794,-16.5986 378.268,-17.8093 387.251,-23.4266 388.794,-16.5986"/>
</g>
<!-- Node24&#45;&gt;Node16 -->
<g id="edge25" class="edge"><title>Node24&#45;&gt;Node16</title>
<path fill="none" stroke="midnightblue" d="M618.653,-56.4651C579.272,-48.2154 518.096,-35.0881 455.848,-20.1259"/>
<polygon fill="midnightblue" stroke="midnightblue" points="456.394,-16.6571 445.851,-17.7092 454.749,-23.4611 456.394,-16.6571"/>
</g>
<!-- Node24&#45;&gt;Node17 -->
<g id="edge26" class="edge"><title>Node24&#45;&gt;Node17</title>
<path fill="none" stroke="midnightblue" d="M632.588,-56.4435C601.936,-46.8758 552.322,-31.3894 519.678,-21.2001"/>
<polygon fill="midnightblue" stroke="midnightblue" points="520.72,-17.859 510.132,-18.2203 518.635,-24.541 520.72,-17.859"/>
</g>
<!-- Node24&#45;&gt;Node18 -->
<g id="edge27" class="edge"><title>Node24&#45;&gt;Node18</title>
<path fill="none" stroke="midnightblue" d="M642.648,-56.324C625.328,-47.6641 598.485,-34.2424 578.498,-24.249"/>
<polygon fill="midnightblue" stroke="midnightblue" points="579.819,-20.9962 569.309,-19.6545 576.688,-27.2572 579.819,-20.9962"/>
</g>
<!-- Node24&#45;&gt;Node19 -->
<g id="edge28" class="edge"><title>Node24&#45;&gt;Node19</title>
<path fill="none" stroke="midnightblue" d="M652.734,-56.083C646.455,-48.3768 637.212,-37.0333 629.569,-27.6531"/>
<polygon fill="midnightblue" stroke="midnightblue" points="632.161,-25.2926 623.131,-19.7511 626.734,-29.7143 632.161,-25.2926"/>
</g>
<!-- Node24&#45;&gt;Node20 -->
<g id="edge29" class="edge"><title>Node24&#45;&gt;Node20</title>
<path fill="none" stroke="midnightblue" d="M666.44,-56.083C671.949,-48.4554 680.031,-37.2645 686.765,-27.9408"/>
<polygon fill="midnightblue" stroke="midnightblue" points="689.662,-29.9071 692.68,-19.7511 683.987,-25.8087 689.662,-29.9071"/>
</g>
<!-- Node24&#45;&gt;Node21 -->
<g id="edge31" class="edge"><title>Node24&#45;&gt;Node21</title>
<path fill="none" stroke="midnightblue" d="M679.965,-56.4435C700.609,-47.5961 733.063,-33.6875 756.632,-23.5865"/>
<polygon fill="midnightblue" stroke="midnightblue" points="758.316,-26.6727 766.128,-19.5164 755.558,-20.2387 758.316,-26.6727"/>
</g>
<!-- Node24&#45;&gt;Node22 -->
<g id="edge32" class="edge"><title>Node24&#45;&gt;Node22</title>
<path fill="none" stroke="midnightblue" d="M691.057,-56.4435C726.281,-46.739 783.606,-30.9452 820.553,-20.7661"/>
<polygon fill="midnightblue" stroke="midnightblue" points="821.687,-24.0842 830.398,-18.0537 819.827,-17.3356 821.687,-24.0842"/>
</g>
<!-- Node24&#45;&gt;Node23 -->
<g id="edge33" class="edge"><title>Node24&#45;&gt;Node23</title>
<path fill="none" stroke="midnightblue" d="M702.412,-56.8146C746.506,-48.2796 817.802,-34.409 889.327,-20.1209"/>
<polygon fill="midnightblue" stroke="midnightblue" points="890.299,-23.4959 899.418,-18.1026 888.926,-16.6319 890.299,-23.4959"/>
</g>
<!-- Node24&#45;&gt;Node25 -->
<g id="edge34" class="edge"><title>Node24&#45;&gt;Node25</title>
<path fill="none" stroke="midnightblue" d="M702.209,-60.0318C761.209,-52.8625 871.888,-38.599 976.597,-19.9413"/>
<polygon fill="midnightblue" stroke="midnightblue" points="977.487,-23.3375 986.709,-18.1221 976.248,-16.4481 977.487,-23.3375"/>
</g>
</g>
</svg>
        <g id="navigator" transform="translate(0 0)" fill="#404254">
                <rect fill="#f2f5e9" fill-opacity="0.5" stroke="#606060" stroke-width=".5" x="0" y="0" width="60" height="60"/>
                <use id="zoomplus" xlink:href="#zoomPlus" x="17" y="9" onmousedown="handleZoom(evt,'in')"/>
                <use id="zoomminus" xlink:href="#zoomMin" x="42" y="9" onmousedown="handleZoom(evt,'out')"/>
                <use id="reset" xlink:href="#resetDef" x="30" y="36" onmousedown="handleReset()"/>
                <g id="arrowUp" xlink:href="#dirArrow" transform="translate(30 24)" onmousedown="handlePan(0,-1)">
                  <use xlink:href="#rim" fill="#404040">
                        <set attributeName="fill" to="#808080" begin="arrowUp.mouseover" end="arrowUp.mouseout"/>
                  </use>
                  <path fill="none" stroke="white" stroke-width="1.5" d="M0,-3.0v7 M-2.5,-0.5L0,-3.0L2.5,-0.5"/>
                </g>
                <g id="arrowRight" xlink:href="#dirArrow" transform="rotate(90) translate(36 -43)" onmousedown="handlePan(1,0)">
                  <use xlink:href="#rim" fill="#404040">
                        <set attributeName="fill" to="#808080" begin="arrowRight.mouseover" end="arrowRight.mouseout"/>
                  </use>
                  <path fill="none" stroke="white" stroke-width="1.5" d="M0,-3.0v7 M-2.5,-0.5L0,-3.0L2.5,-0.5"/>
                </g>
                <g id="arrowDown" xlink:href="#dirArrow" transform="rotate(180) translate(-30 -48)" onmousedown="handlePan(0,1)">
                  <use xlink:href="#rim" fill="#404040">
                        <set attributeName="fill" to="#808080" begin="arrowDown.mouseover" end="arrowDown.mouseout"/>
                  </use>
                  <path fill="none" stroke="white" stroke-width="1.5" d="M0,-3.0v7 M-2.5,-0.5L0,-3.0L2.5,-0.5"/>
                </g>
                <g id="arrowLeft" xlink:href="#dirArrow" transform="rotate(270) translate(-36 17)" onmousedown="handlePan(-1,0)">
                  <use xlink:href="#rim" fill="#404040">
                        <set attributeName="fill" to="#808080" begin="arrowLeft.mouseover" end="arrowLeft.mouseout"/>
                  </use>
                  <path fill="none" stroke="white" stroke-width="1.5" d="M0,-3.0v7 M-2.5,-0.5L0,-3.0L2.5,-0.5"/>
                </g>
        </g>
        <svg viewBox="0 0 15 15" width="100%" height="30px" preserveAspectRatio="xMaxYMin meet">
         <g id="arrow_out" transform="scale(0.3 0.3)">
          <a xlink:href="_a_d_c_manager1720_8cpp__incl_org.svg" target="_base">
           <rect id="button" ry="5" rx="5" y="6" x="6" height="38" width="38"
                fill="#f2f5e9" fill-opacity="0.5" stroke="#606060" stroke-width="1.0"/>
           <path id="arrow"
             d="M 11.500037,31.436501 C 11.940474,20.09759 22.043105,11.32322 32.158766,21.979434 L 37.068811,17.246167 C 37.068811,17.246167 37.088388,32 37.088388,32 L 22.160133,31.978069 C 22.160133,31.978069 26.997745,27.140456 26.997745,27.140456 C 18.528582,18.264221 13.291696,25.230495 11.500037,31.436501 z"
             style="fill:#404040;"/>
          </a>
         </g>
        </svg>
</svg>
