<?xml version="1.0" encoding="UTF-8" standalone="no"?>
<!DOCTYPE svg PUBLIC "-//W3C//DTD SVG 1.1//EN"
 "http://www.w3.org/Graphics/SVG/1.1/DTD/svg11.dtd">
<!-- Generated by graphviz version 2.36.0 (20140111.2315)
 -->
<!-- Title: /data/Software/DAQ/CDAQ/Core/Include/ADCManager1720.h Pages: 1 -->
<svg width="587pt" height="108pt"
 viewBox="0.00 0.00 587.00 108.00" xmlns="http://www.w3.org/2000/svg" xmlns:xlink="http://www.w3.org/1999/xlink">
<g id="graph0" class="graph" transform="scale(1 1) rotate(0) translate(4 104)">
<title>/data/Software/DAQ/CDAQ/Core/Include/ADCManager1720.h</title>
<polygon fill="white" stroke="none" points="-4,4 -4,-104 583,-104 583,4 -4,4"/>
<!-- Node1 -->
<g id="node1" class="node"><title>Node1</title>
<polygon fill="#bfbfbf" stroke="black" points="167.5,-69 167.5,-99 366.5,-99 366.5,-69 167.5,-69"/>
<text text-anchor="start" x="175.5" y="-87" font-family="Helvetica,sans-Serif" font-size="10.00">/data/Software/DAQ</text>
<text text-anchor="middle" x="267" y="-76" font-family="Helvetica,sans-Serif" font-size="10.00">/CDAQ/Core/Include/ADCManager1720.h</text>
</g>
<!-- Node2 -->
<g id="node2" class="node"><title>Node2</title>
<g id="a_node2"><a xlink:href="_multi_d_a_q_8cpp.xhtml" target="_top" xlink:title="/data/Software/DAQ\l/CDAQ/Application/MultiDAQ.cpp">
<polygon fill="white" stroke="black" points="0,-1 0,-31 164,-31 164,-1 0,-1"/>
<text text-anchor="start" x="8" y="-19" font-family="Helvetica,sans-Serif" font-size="10.00">/data/Software/DAQ</text>
<text text-anchor="middle" x="82" y="-8" font-family="Helvetica,sans-Serif" font-size="10.00">/CDAQ/Application/MultiDAQ.cpp</text>
</a>
</g>
</g>
<!-- Node1&#45;&gt;Node2 -->
<g id="edge1" class="edge"><title>Node1&#45;&gt;Node2</title>
<path fill="none" stroke="midnightblue" d="M217.812,-65.4519C187.62,-54.6805 149.475,-41.0722 121.304,-31.0218"/>
<polygon fill="midnightblue" stroke="midnightblue" points="216.718,-68.7776 227.313,-68.8413 219.07,-62.1846 216.718,-68.7776"/>
</g>
<!-- Node3 -->
<g id="node3" class="node"><title>Node3</title>
<g id="a_node3"><a xlink:href="_single_d_a_q_8cpp.xhtml" target="_top" xlink:title="/data/Software/DAQ\l/CDAQ/Application/SingleDAQ.cpp">
<polygon fill="white" stroke="black" points="182,-1 182,-31 352,-31 352,-1 182,-1"/>
<text text-anchor="start" x="190" y="-19" font-family="Helvetica,sans-Serif" font-size="10.00">/data/Software/DAQ</text>
<text text-anchor="middle" x="267" y="-8" font-family="Helvetica,sans-Serif" font-size="10.00">/CDAQ/Application/SingleDAQ.cpp</text>
</a>
</g>
</g>
<!-- Node1&#45;&gt;Node3 -->
<g id="edge2" class="edge"><title>Node1&#45;&gt;Node3</title>
<path fill="none" stroke="midnightblue" d="M267,-58.5322C267,-49.3606 267,-39.2449 267,-31.2931"/>
<polygon fill="midnightblue" stroke="midnightblue" points="263.5,-58.6789 267,-68.679 270.5,-58.679 263.5,-58.6789"/>
</g>
<!-- Node4 -->
<g id="node4" class="node"><title>Node4</title>
<g id="a_node4"><a xlink:href="_a_d_c_manager1720_8cpp.xhtml" target="_top" xlink:title="/data/Software/DAQ\l/CDAQ/Core/Source/ADCManager1720.cpp">
<polygon fill="white" stroke="black" points="370.5,-1 370.5,-31 579.5,-31 579.5,-1 370.5,-1"/>
<text text-anchor="start" x="378.5" y="-19" font-family="Helvetica,sans-Serif" font-size="10.00">/data/Software/DAQ</text>
<text text-anchor="middle" x="475" y="-8" font-family="Helvetica,sans-Serif" font-size="10.00">/CDAQ/Core/Source/ADCManager1720.cpp</text>
</a>
</g>
</g>
<!-- Node1&#45;&gt;Node4 -->
<g id="edge3" class="edge"><title>Node1&#45;&gt;Node4</title>
<path fill="none" stroke="midnightblue" d="M321.166,-65.8127C355.249,-54.9979 398.684,-41.2157 430.702,-31.0561"/>
<polygon fill="midnightblue" stroke="midnightblue" points="319.839,-62.5617 311.366,-68.9223 321.956,-69.2338 319.839,-62.5617"/>
</g>
</g>
</svg>
