<?xml version="1.0" encoding="UTF-8" standalone="no"?>
<!DOCTYPE svg PUBLIC "-//W3C//DTD SVG 1.1//EN"
 "http://www.w3.org/Graphics/SVG/1.1/DTD/svg11.dtd">
<!-- Generated by graphviz version 2.36.0 (20140111.2315)
 -->
<!-- Title: /data/Software/DAQ/CDAQ/Core/Include/ADCManager.h Pages: 1 -->
<svg width="722pt" height="96pt"
 viewBox="0.00 0.00 722.00 96.00" xmlns="http://www.w3.org/2000/svg" xmlns:xlink="http://www.w3.org/1999/xlink">
<g id="graph0" class="graph" transform="scale(1 1) rotate(0) translate(4 92)">
<title>/data/Software/DAQ/CDAQ/Core/Include/ADCManager.h</title>
<polygon fill="white" stroke="none" points="-4,4 -4,-92 718,-92 718,4 -4,4"/>
<!-- Node1 -->
<g id="node1" class="node"><title>Node1</title>
<polygon fill="#bfbfbf" stroke="black" points="254,-57 254,-87 432,-87 432,-57 254,-57"/>
<text text-anchor="start" x="262" y="-75" font-family="Helvetica,sans-Serif" font-size="10.00">/data/Software/DAQ</text>
<text text-anchor="middle" x="343" y="-64" font-family="Helvetica,sans-Serif" font-size="10.00">/CDAQ/Core/Include/ADCManager.h</text>
</g>
<!-- Node2 -->
<g id="node2" class="node"><title>Node2</title>
<polygon fill="white" stroke="#bfbfbf" points="-0.5,-0.5 -0.5,-19.5 48.5,-19.5 48.5,-0.5 -0.5,-0.5"/>
<text text-anchor="middle" x="24" y="-7.5" font-family="Helvetica,sans-Serif" font-size="10.00">string.h</text>
</g>
<!-- Node1&#45;&gt;Node2 -->
<g id="edge1" class="edge"><title>Node1&#45;&gt;Node2</title>
<path fill="none" stroke="midnightblue" d="M253.731,-56.9505C199.899,-48.0248 129.781,-35.6027 58.8392,-20.0389"/>
<polygon fill="midnightblue" stroke="midnightblue" points="59.3453,-16.5662 48.8252,-17.8219 57.8322,-23.4008 59.3453,-16.5662"/>
</g>
<!-- Node3 -->
<g id="node3" class="node"><title>Node3</title>
<polygon fill="white" stroke="#bfbfbf" points="67,-0.5 67,-19.5 113,-19.5 113,-0.5 67,-0.5"/>
<text text-anchor="middle" x="90" y="-7.5" font-family="Helvetica,sans-Serif" font-size="10.00">stdio.h</text>
</g>
<!-- Node1&#45;&gt;Node3 -->
<g id="edge2" class="edge"><title>Node1&#45;&gt;Node3</title>
<path fill="none" stroke="midnightblue" d="M278.496,-56.9604C236.645,-47.6552 180.723,-34.8563 122.738,-20.1018"/>
<polygon fill="midnightblue" stroke="midnightblue" points="123.592,-16.7077 113.037,-17.6198 121.857,-23.4893 123.592,-16.7077"/>
</g>
<!-- Node4 -->
<g id="node4" class="node"><title>Node4</title>
<polygon fill="white" stroke="#bfbfbf" points="131,-0.5 131,-19.5 179,-19.5 179,-0.5 131,-0.5"/>
<text text-anchor="middle" x="155" y="-7.5" font-family="Helvetica,sans-Serif" font-size="10.00">stdlib.h</text>
</g>
<!-- Node1&#45;&gt;Node4 -->
<g id="edge3" class="edge"><title>Node1&#45;&gt;Node4</title>
<path fill="none" stroke="midnightblue" d="M298.922,-56.9327C265.38,-46.2276 219.89,-31.7097 189.099,-21.8827"/>
<polygon fill="midnightblue" stroke="midnightblue" points="189.85,-18.4483 179.259,-18.7422 187.721,-25.117 189.85,-18.4483"/>
</g>
<!-- Node5 -->
<g id="node5" class="node"><title>Node5</title>
<polygon fill="white" stroke="#bfbfbf" points="197,-0.5 197,-19.5 241,-19.5 241,-0.5 197,-0.5"/>
<text text-anchor="middle" x="219" y="-7.5" font-family="Helvetica,sans-Serif" font-size="10.00">time.h</text>
</g>
<!-- Node1&#45;&gt;Node5 -->
<g id="edge4" class="edge"><title>Node1&#45;&gt;Node5</title>
<path fill="none" stroke="midnightblue" d="M313.928,-56.9327C293.381,-46.9907 266.037,-33.7601 245.975,-24.0526"/>
<polygon fill="midnightblue" stroke="midnightblue" points="247.299,-20.8051 236.773,-19.6 244.251,-27.1063 247.299,-20.8051"/>
</g>
<!-- Node6 -->
<g id="node6" class="node"><title>Node6</title>
<polygon fill="white" stroke="#bfbfbf" points="259.5,-0.5 259.5,-19.5 344.5,-19.5 344.5,-0.5 259.5,-0.5"/>
<text text-anchor="middle" x="302" y="-7.5" font-family="Helvetica,sans-Serif" font-size="10.00">CAENVMElib.h</text>
</g>
<!-- Node1&#45;&gt;Node6 -->
<g id="edge5" class="edge"><title>Node1&#45;&gt;Node6</title>
<path fill="none" stroke="midnightblue" d="M333.284,-56.7808C327.387,-48.152 319.827,-37.0882 313.616,-27.9987"/>
<polygon fill="midnightblue" stroke="midnightblue" points="316.498,-26.0123 307.966,-19.7305 310.718,-29.9617 316.498,-26.0123"/>
</g>
<!-- Node7 -->
<g id="node7" class="node"><title>Node7</title>
<polygon fill="white" stroke="#bfbfbf" points="363,-0.5 363,-19.5 407,-19.5 407,-0.5 363,-0.5"/>
<text text-anchor="middle" x="385" y="-7.5" font-family="Helvetica,sans-Serif" font-size="10.00">vector</text>
</g>
<!-- Node1&#45;&gt;Node7 -->
<g id="edge6" class="edge"><title>Node1&#45;&gt;Node7</title>
<path fill="none" stroke="midnightblue" d="M352.953,-56.7808C358.994,-48.152 366.738,-37.0882 373.101,-27.9987"/>
<polygon fill="midnightblue" stroke="midnightblue" points="376.021,-29.93 378.889,-19.7305 370.287,-25.9157 376.021,-29.93"/>
</g>
<!-- Node8 -->
<g id="node8" class="node"><title>Node8</title>
<polygon fill="white" stroke="#bfbfbf" points="425,-0.5 425,-19.5 477,-19.5 477,-0.5 425,-0.5"/>
<text text-anchor="middle" x="451" y="-7.5" font-family="Helvetica,sans-Serif" font-size="10.00">memory</text>
</g>
<!-- Node1&#45;&gt;Node8 -->
<g id="edge7" class="edge"><title>Node1&#45;&gt;Node8</title>
<path fill="none" stroke="midnightblue" d="M368.321,-56.9327C385.891,-47.1715 409.168,-34.2401 426.546,-24.5856"/>
<polygon fill="midnightblue" stroke="midnightblue" points="428.478,-27.5161 435.52,-19.6 425.079,-21.397 428.478,-27.5161"/>
</g>
<!-- Node9 -->
<g id="node9" class="node"><title>Node9</title>
<polygon fill="white" stroke="#bfbfbf" points="495.5,-0.5 495.5,-19.5 546.5,-19.5 546.5,-0.5 495.5,-0.5"/>
<text text-anchor="middle" x="521" y="-7.5" font-family="Helvetica,sans-Serif" font-size="10.00">typeinfo</text>
</g>
<!-- Node1&#45;&gt;Node9 -->
<g id="edge8" class="edge"><title>Node1&#45;&gt;Node9</title>
<path fill="none" stroke="midnightblue" d="M384.733,-56.9327C415.526,-46.553 456.953,-32.5887 486.018,-22.7916"/>
<polygon fill="midnightblue" stroke="midnightblue" points="487.388,-26.0236 495.746,-19.5127 485.152,-19.3903 487.388,-26.0236"/>
</g>
<!-- Node10 -->
<g id="node10" class="node"><title>Node10</title>
<polygon fill="white" stroke="#bfbfbf" points="564.5,-0.5 564.5,-19.5 633.5,-19.5 633.5,-0.5 564.5,-0.5"/>
<text text-anchor="middle" x="599" y="-7.5" font-family="Helvetica,sans-Serif" font-size="10.00">xmlParser.h</text>
</g>
<!-- Node1&#45;&gt;Node10 -->
<g id="edge9" class="edge"><title>Node1&#45;&gt;Node10</title>
<path fill="none" stroke="midnightblue" d="M403.021,-56.9327C449.304,-46.0851 512.291,-31.3224 554.231,-21.4927"/>
<polygon fill="midnightblue" stroke="midnightblue" points="555.218,-24.8564 564.155,-19.1668 553.62,-18.0411 555.218,-24.8564"/>
</g>
<!-- Node11 -->
<g id="node11" class="node"><title>Node11</title>
<polygon fill="white" stroke="#bfbfbf" points="652,-0.5 652,-19.5 714,-19.5 714,-0.5 652,-0.5"/>
<text text-anchor="middle" x="683" y="-7.5" font-family="Helvetica,sans-Serif" font-size="10.00">common.h</text>
</g>
<!-- Node1&#45;&gt;Node11 -->
<g id="edge10" class="edge"><title>Node1&#45;&gt;Node11</title>
<path fill="none" stroke="midnightblue" d="M431.838,-56.9731C488.976,-47.6864 565.036,-34.8334 641.836,-19.952"/>
<polygon fill="midnightblue" stroke="midnightblue" points="642.546,-23.3795 651.692,-18.0316 641.208,-16.5087 642.546,-23.3795"/>
</g>
</g>
</svg>
