<?xml version="1.0" encoding="UTF-8" standalone="no"?>
<!DOCTYPE svg PUBLIC "-//W3C//DTD SVG 1.1//EN"
 "http://www.w3.org/Graphics/SVG/1.1/DTD/svg11.dtd">
<!-- Generated by graphviz version 2.36.0 (20140111.2315)
 -->
<!-- Title: /data/Software/DAQ/CDAQ/Core/Include/ADCManager.h Pages: 1 -->
<svg width="1138pt" height="176pt"
 viewBox="0.00 0.00 1138.00 176.00" xmlns="http://www.w3.org/2000/svg" xmlns:xlink="http://www.w3.org/1999/xlink">
<g id="graph0" class="graph" transform="scale(1 1) rotate(0) translate(4 172)">
<title>/data/Software/DAQ/CDAQ/Core/Include/ADCManager.h</title>
<polygon fill="white" stroke="none" points="-4,4 -4,-172 1134,-172 1134,4 -4,4"/>
<!-- Node1 -->
<g id="node1" class="node"><title>Node1</title>
<polygon fill="#bfbfbf" stroke="black" points="569,-137 569,-167 747,-167 747,-137 569,-137"/>
<text text-anchor="start" x="577" y="-155" font-family="Helvetica,sans-Serif" font-size="10.00">/data/Software/DAQ</text>
<text text-anchor="middle" x="658" y="-144" font-family="Helvetica,sans-Serif" font-size="10.00">/CDAQ/Core/Include/ADCManager.h</text>
</g>
<!-- Node2 -->
<g id="node2" class="node"><title>Node2</title>
<g id="a_node2"><a xlink:href="_multi_d_a_q_8cpp.xhtml" target="_top" xlink:title="/data/Software/DAQ\l/CDAQ/Application/MultiDAQ.cpp">
<polygon fill="white" stroke="black" points="227,-1 227,-31 391,-31 391,-1 227,-1"/>
<text text-anchor="start" x="235" y="-19" font-family="Helvetica,sans-Serif" font-size="10.00">/data/Software/DAQ</text>
<text text-anchor="middle" x="309" y="-8" font-family="Helvetica,sans-Serif" font-size="10.00">/CDAQ/Application/MultiDAQ.cpp</text>
</a>
</g>
</g>
<!-- Node1&#45;&gt;Node2 -->
<g id="edge1" class="edge"><title>Node1&#45;&gt;Node2</title>
<path fill="none" stroke="midnightblue" d="M558.805,-140.375C514.987,-133.015 463.816,-120.658 421,-100 400.806,-90.2568 399.87,-81.5417 382,-68 364.873,-55.021 344.823,-41.1009 330.074,-31.0879"/>
<polygon fill="midnightblue" stroke="midnightblue" points="558.473,-143.866 568.903,-142.005 559.589,-136.956 558.473,-143.866"/>
</g>
<!-- Node3 -->
<g id="node3" class="node"><title>Node3</title>
<g id="a_node3"><a xlink:href="_single_d_a_q_8cpp.xhtml" target="_top" xlink:title="/data/Software/DAQ\l/CDAQ/Application/SingleDAQ.cpp">
<polygon fill="white" stroke="black" points="637,-1 637,-31 807,-31 807,-1 637,-1"/>
<text text-anchor="start" x="645" y="-19" font-family="Helvetica,sans-Serif" font-size="10.00">/data/Software/DAQ</text>
<text text-anchor="middle" x="722" y="-8" font-family="Helvetica,sans-Serif" font-size="10.00">/CDAQ/Application/SingleDAQ.cpp</text>
</a>
</g>
</g>
<!-- Node1&#45;&gt;Node3 -->
<g id="edge2" class="edge"><title>Node1&#45;&gt;Node3</title>
<path fill="none" stroke="midnightblue" d="M660.378,-126.46C662.794,-109.33 667.59,-86.3417 677,-68 684.222,-53.9217 696.213,-40.6083 706.002,-31.1163"/>
<polygon fill="midnightblue" stroke="midnightblue" points="656.857,-126.41 659.108,-136.763 663.805,-127.266 656.857,-126.41"/>
</g>
<!-- Node4 -->
<g id="node4" class="node"><title>Node4</title>
<g id="a_node4"><a xlink:href="_a_d_c_manager1720_8h.xhtml" target="_top" xlink:title="/data/Software/DAQ\l/CDAQ/Core/Include/ADCManager1720.h">
<polygon fill="white" stroke="black" points="430.5,-69 430.5,-99 629.5,-99 629.5,-69 430.5,-69"/>
<text text-anchor="start" x="438.5" y="-87" font-family="Helvetica,sans-Serif" font-size="10.00">/data/Software/DAQ</text>
<text text-anchor="middle" x="530" y="-76" font-family="Helvetica,sans-Serif" font-size="10.00">/CDAQ/Core/Include/ADCManager1720.h</text>
</a>
</g>
</g>
<!-- Node1&#45;&gt;Node4 -->
<g id="edge3" class="edge"><title>Node1&#45;&gt;Node4</title>
<path fill="none" stroke="midnightblue" d="M621.533,-132.197C601.137,-121.68 576.132,-108.787 557.414,-99.1352"/>
<polygon fill="midnightblue" stroke="midnightblue" points="620.049,-135.369 630.541,-136.841 623.257,-129.148 620.049,-135.369"/>
</g>
<!-- Node6 -->
<g id="node6" class="node"><title>Node6</title>
<g id="a_node6"><a xlink:href="_a_d_c_manager1724_8h.xhtml" target="_top" xlink:title="/data/Software/DAQ\l/CDAQ/Core/Include/ADCManager1724.h">
<polygon fill="white" stroke="black" points="174.5,-69 174.5,-99 373.5,-99 373.5,-69 174.5,-69"/>
<text text-anchor="start" x="182.5" y="-87" font-family="Helvetica,sans-Serif" font-size="10.00">/data/Software/DAQ</text>
<text text-anchor="middle" x="274" y="-76" font-family="Helvetica,sans-Serif" font-size="10.00">/CDAQ/Core/Include/ADCManager1724.h</text>
</a>
</g>
</g>
<!-- Node1&#45;&gt;Node6 -->
<g id="edge7" class="edge"><title>Node1&#45;&gt;Node6</title>
<path fill="none" stroke="midnightblue" d="M566.004,-135.188C502,-124.188 417.429,-109.652 355.781,-99.0561"/>
<polygon fill="midnightblue" stroke="midnightblue" points="565.645,-138.678 576.093,-136.922 566.831,-131.779 565.645,-138.678"/>
</g>
<!-- Node8 -->
<g id="node8" class="node"><title>Node8</title>
<g id="a_node8"><a xlink:href="_a_d_c_manager1730_8h.xhtml" target="_top" xlink:title="/data/Software/DAQ\l/CDAQ/Core/Include/ADCManager1730.h">
<polygon fill="white" stroke="black" points="686.5,-69 686.5,-99 885.5,-99 885.5,-69 686.5,-69"/>
<text text-anchor="start" x="694.5" y="-87" font-family="Helvetica,sans-Serif" font-size="10.00">/data/Software/DAQ</text>
<text text-anchor="middle" x="786" y="-76" font-family="Helvetica,sans-Serif" font-size="10.00">/CDAQ/Core/Include/ADCManager1730.h</text>
</a>
</g>
</g>
<!-- Node1&#45;&gt;Node8 -->
<g id="edge11" class="edge"><title>Node1&#45;&gt;Node8</title>
<path fill="none" stroke="midnightblue" d="M694.467,-132.197C714.863,-121.68 739.868,-108.787 758.586,-99.1352"/>
<polygon fill="midnightblue" stroke="midnightblue" points="692.743,-129.148 685.459,-136.841 695.951,-135.369 692.743,-129.148"/>
</g>
<!-- Node9 -->
<g id="node9" class="node"><title>Node9</title>
<g id="a_node9"><a xlink:href="_a_d_c_manager1730_8cpp.xhtml" target="_top" xlink:title="/data/Software/DAQ\l/CDAQ/Core/Source/ADCManager1730.cpp">
<polygon fill="white" stroke="black" points="825.5,-1 825.5,-31 1034.5,-31 1034.5,-1 825.5,-1"/>
<text text-anchor="start" x="833.5" y="-19" font-family="Helvetica,sans-Serif" font-size="10.00">/data/Software/DAQ</text>
<text text-anchor="middle" x="930" y="-8" font-family="Helvetica,sans-Serif" font-size="10.00">/CDAQ/Core/Source/ADCManager1730.cpp</text>
</a>
</g>
</g>
<!-- Node1&#45;&gt;Node9 -->
<g id="edge16" class="edge"><title>Node1&#45;&gt;Node9</title>
<path fill="none" stroke="midnightblue" d="M757.148,-138.78C811.83,-130.289 872.837,-117.367 894,-100 915.37,-82.4636 924.372,-49.8093 927.911,-31.1129"/>
<polygon fill="midnightblue" stroke="midnightblue" points="756.385,-135.356 747.023,-140.314 757.434,-142.277 756.385,-135.356"/>
</g>
<!-- Node10 -->
<g id="node10" class="node"><title>Node10</title>
<g id="a_node10"><a xlink:href="_a_d_c_manager_8cpp.xhtml" target="_top" xlink:title="/data/Software/DAQ\l/CDAQ/Core/Source/ADCManager.cpp">
<polygon fill="white" stroke="black" points="942,-69 942,-99 1130,-99 1130,-69 942,-69"/>
<text text-anchor="start" x="950" y="-87" font-family="Helvetica,sans-Serif" font-size="10.00">/data/Software/DAQ</text>
<text text-anchor="middle" x="1036" y="-76" font-family="Helvetica,sans-Serif" font-size="10.00">/CDAQ/Core/Source/ADCManager.cpp</text>
</a>
</g>
</g>
<!-- Node1&#45;&gt;Node10 -->
<g id="edge15" class="edge"><title>Node1&#45;&gt;Node10</title>
<path fill="none" stroke="midnightblue" d="M748.558,-135.188C811.562,-124.188 894.812,-109.652 955.497,-99.0561"/>
<polygon fill="midnightblue" stroke="midnightblue" points="747.876,-131.754 738.627,-136.922 749.08,-138.65 747.876,-131.754"/>
</g>
<!-- Node4&#45;&gt;Node2 -->
<g id="edge4" class="edge"><title>Node4&#45;&gt;Node2</title>
<path fill="none" stroke="midnightblue" d="M472.914,-65.9518C436.632,-55.1162 390.232,-41.2594 356.067,-31.0561"/>
<polygon fill="midnightblue" stroke="midnightblue" points="472.278,-69.4143 482.861,-68.9223 474.281,-62.707 472.278,-69.4143"/>
</g>
<!-- Node4&#45;&gt;Node3 -->
<g id="edge5" class="edge"><title>Node4&#45;&gt;Node3</title>
<path fill="none" stroke="midnightblue" d="M581.049,-65.4519C612.384,-54.6805 651.972,-41.0722 681.209,-31.0218"/>
<polygon fill="midnightblue" stroke="midnightblue" points="579.508,-62.2806 571.189,-68.8413 581.783,-68.9004 579.508,-62.2806"/>
</g>
<!-- Node5 -->
<g id="node5" class="node"><title>Node5</title>
<g id="a_node5"><a xlink:href="_a_d_c_manager1720_8cpp.xhtml" target="_top" xlink:title="/data/Software/DAQ\l/CDAQ/Core/Source/ADCManager1720.cpp">
<polygon fill="white" stroke="black" points="409.5,-1 409.5,-31 618.5,-31 618.5,-1 409.5,-1"/>
<text text-anchor="start" x="417.5" y="-19" font-family="Helvetica,sans-Serif" font-size="10.00">/data/Software/DAQ</text>
<text text-anchor="middle" x="514" y="-8" font-family="Helvetica,sans-Serif" font-size="10.00">/CDAQ/Core/Source/ADCManager1720.cpp</text>
</a>
</g>
</g>
<!-- Node4&#45;&gt;Node5 -->
<g id="edge6" class="edge"><title>Node4&#45;&gt;Node5</title>
<path fill="none" stroke="midnightblue" d="M524.141,-58.8309C521.898,-49.5807 519.414,-39.3313 517.465,-31.2931"/>
<polygon fill="midnightblue" stroke="midnightblue" points="520.771,-59.7851 526.528,-68.679 527.574,-58.1359 520.771,-59.7851"/>
</g>
<!-- Node6&#45;&gt;Node2 -->
<g id="edge8" class="edge"><title>Node6&#45;&gt;Node2</title>
<path fill="none" stroke="midnightblue" d="M286.344,-59.7229C291.37,-50.2443 297.02,-39.5906 301.42,-31.2931"/>
<polygon fill="midnightblue" stroke="midnightblue" points="283.187,-58.2046 281.594,-68.679 289.372,-61.4841 283.187,-58.2046"/>
</g>
<!-- Node6&#45;&gt;Node3 -->
<g id="edge9" class="edge"><title>Node6&#45;&gt;Node3</title>
<path fill="none" stroke="midnightblue" d="M383.831,-67.5102C453.526,-57.5873 545.594,-44.3068 627,-32 630.219,-31.5133 633.5,-31.0137 636.813,-30.506"/>
<polygon fill="midnightblue" stroke="midnightblue" points="383.121,-64.0758 373.714,-68.9494 384.107,-71.006 383.121,-64.0758"/>
</g>
<!-- Node7 -->
<g id="node7" class="node"><title>Node7</title>
<g id="a_node7"><a xlink:href="_a_d_c_manager1724_8cpp.xhtml" target="_top" xlink:title="/data/Software/DAQ\l/CDAQ/Core/Source/ADCManager1724.cpp">
<polygon fill="white" stroke="black" points="-0.5,-1 -0.5,-31 208.5,-31 208.5,-1 -0.5,-1"/>
<text text-anchor="start" x="7.5" y="-19" font-family="Helvetica,sans-Serif" font-size="10.00">/data/Software/DAQ</text>
<text text-anchor="middle" x="104" y="-8" font-family="Helvetica,sans-Serif" font-size="10.00">/CDAQ/Core/Source/ADCManager1724.cpp</text>
</a>
</g>
</g>
<!-- Node6&#45;&gt;Node7 -->
<g id="edge10" class="edge"><title>Node6&#45;&gt;Node7</title>
<path fill="none" stroke="midnightblue" d="M228.078,-65.1715C200.45,-54.4451 165.78,-40.9852 140.117,-31.0218"/>
<polygon fill="midnightblue" stroke="midnightblue" points="226.942,-68.4849 237.531,-68.8413 229.475,-61.9594 226.942,-68.4849"/>
</g>
<!-- Node8&#45;&gt;Node2 -->
<g id="edge12" class="edge"><title>Node8&#45;&gt;Node2</title>
<path fill="none" stroke="midnightblue" d="M676.072,-69.426C598.765,-59.6479 492.946,-45.797 400,-32 397.149,-31.5768 394.249,-31.139 391.321,-30.6906"/>
<polygon fill="midnightblue" stroke="midnightblue" points="675.949,-72.9382 686.308,-70.7181 676.825,-65.9933 675.949,-72.9382"/>
</g>
<!-- Node8&#45;&gt;Node3 -->
<g id="edge13" class="edge"><title>Node8&#45;&gt;Node3</title>
<path fill="none" stroke="midnightblue" d="M765.137,-61.4855C755.537,-51.5852 744.409,-40.1092 735.86,-31.2931"/>
<polygon fill="midnightblue" stroke="midnightblue" points="762.639,-63.9365 772.113,-68.679 767.664,-59.0634 762.639,-63.9365"/>
</g>
<!-- Node8&#45;&gt;Node9 -->
<g id="edge14" class="edge"><title>Node8&#45;&gt;Node9</title>
<path fill="none" stroke="midnightblue" d="M826.098,-64.6218C849.209,-54.0292 877.817,-40.9173 899.159,-31.1352"/>
<polygon fill="midnightblue" stroke="midnightblue" points="824.524,-61.493 816.892,-68.8413 827.441,-67.8565 824.524,-61.493"/>
</g>
</g>
</svg>
