<?xml version="1.0" encoding="UTF-8" standalone="no"?>
<!DOCTYPE svg PUBLIC "-//W3C//DTD SVG 1.1//EN"
 "http://www.w3.org/Graphics/SVG/1.1/DTD/svg11.dtd">
<!-- Generated by graphviz version 2.36.0 (20140111.2315)
 -->
<!-- Title: /data/Software/DAQ/CDAQ/Core/Source/ADCManager1730.cpp Pages: 1 -->
<!--zoomable 208 -->
<svg id="main" version="1.1" xmlns="http://www.w3.org/2000/svg" xmlns:xlink="http://www.w3.org/1999/xlink" xml:space="preserve" onload="init(evt)">
<style type="text/css"><![CDATA[
.edge:hover path { stroke: red; }
.edge:hover polygon { stroke: red; fill: red; }
]]></style>
<script type="text/javascript"><![CDATA[
var edges = document.getElementsByTagName('g');
if (edges && edges.length) {
  for (var i=0;i<edges.length;i++) {
    if (edges[i].id.substr(0,4)=='edge') {
      edges[i].setAttribute('class','edge');
    }
  }
}
]]></script>
        <defs>
                <circle id="rim" cx="0" cy="0" r="7"/>
                <circle id="rim2" cx="0" cy="0" r="3.5"/>
                <g id="zoomPlus">
                        <use xlink:href="#rim" fill="#404040">
                                <set attributeName="fill" to="#808080" begin="zoomplus.mouseover" end="zoomplus.mouseout"/>
                        </use>
                        <path d="M-4,0h8M0,-4v8" fill="none" stroke="white" stroke-width="1.5" pointer-events="none"/>
                </g>
                <g id="zoomMin">
                        <use xlink:href="#rim" fill="#404040">
                                <set attributeName="fill" to="#808080" begin="zoomminus.mouseover" end="zoomminus.mouseout"/>
                        </use>
                        <path d="M-4,0h8" fill="none" stroke="white" stroke-width="1.5" pointer-events="none"/>
                </g>
                <g id="dirArrow">
                        <path fill="none" stroke="white" stroke-width="1.5" d="M0,-3.0v7 M-2.5,-0.5L0,-3.0L2.5,-0.5"/>
                </g>
               <g id="resetDef">
                       <use xlink:href="#rim2" fill="#404040">
                               <set attributeName="fill" to="#808080" begin="reset.mouseover" end="reset.mouseout"/>
                       </use>
               </g>
        </defs>

<script type="text/javascript">
var viewWidth = 1691;
var viewHeight = 208;
var sectionId = 'dynsection-0';
</script>
<script xlink:href="svgpan.js"/>
<svg id="graph" class="graph">
<g id="viewport">
<title>/data/Software/DAQ/CDAQ/Core/Source/ADCManager1730.cpp</title>
<polygon fill="white" stroke="none" points="-4,4 -4,-204 1687,-204 1687,4 -4,4"/>
<!-- Node1 -->
<g id="node1" class="node"><title>Node1</title>
<polygon fill="#bfbfbf" stroke="black" points="694.5,-169 694.5,-199 903.5,-199 903.5,-169 694.5,-169"/>
<text text-anchor="start" x="702.5" y="-187" font-family="Helvetica,sans-Serif" font-size="10.00">/data/Software/DAQ</text>
<text text-anchor="middle" x="799" y="-176" font-family="Helvetica,sans-Serif" font-size="10.00">/CDAQ/Core/Source/ADCManager1730.cpp</text>
</g>
<!-- Node2 -->
<g id="node2" class="node"><title>Node2</title>
<polygon fill="white" stroke="#bfbfbf" points="0,-112.5 0,-131.5 54,-131.5 54,-112.5 0,-112.5"/>
<text text-anchor="middle" x="27" y="-119.5" font-family="Helvetica,sans-Serif" font-size="10.00">iostream</text>
</g>
<!-- Node1&#45;&gt;Node2 -->
<g id="edge1" class="edge"><title>Node1&#45;&gt;Node2</title>
<path fill="none" stroke="midnightblue" d="M694.443,-181.524C553.189,-178.24 293.609,-167.646 63.9011,-131.855"/>
<polygon fill="midnightblue" stroke="midnightblue" points="64.445,-128.397 54.0218,-130.297 63.3545,-135.312 64.445,-128.397"/>
</g>
<!-- Node3 -->
<g id="node3" class="node"><title>Node3</title>
<polygon fill="white" stroke="#bfbfbf" points="72.5,-112.5 72.5,-131.5 123.5,-131.5 123.5,-112.5 72.5,-112.5"/>
<text text-anchor="middle" x="98" y="-119.5" font-family="Helvetica,sans-Serif" font-size="10.00">unistd.h</text>
</g>
<!-- Node1&#45;&gt;Node3 -->
<g id="edge2" class="edge"><title>Node1&#45;&gt;Node3</title>
<path fill="none" stroke="midnightblue" d="M694.499,-180.653C564.902,-176.469 337.262,-164.955 133.496,-131.757"/>
<polygon fill="midnightblue" stroke="midnightblue" points="133.94,-128.284 123.504,-130.109 132.801,-135.19 133.94,-128.284"/>
</g>
<!-- Node4 -->
<g id="node4" class="node"><title>Node4</title>
<polygon fill="white" stroke="#bfbfbf" points="142,-112.5 142,-131.5 192,-131.5 192,-112.5 142,-112.5"/>
<text text-anchor="middle" x="167" y="-119.5" font-family="Helvetica,sans-Serif" font-size="10.00">fstream</text>
</g>
<!-- Node1&#45;&gt;Node4 -->
<g id="edge3" class="edge"><title>Node1&#45;&gt;Node4</title>
<path fill="none" stroke="midnightblue" d="M694.318,-179.576C576.609,-174.479 379.785,-162.213 202.194,-131.914"/>
<polygon fill="midnightblue" stroke="midnightblue" points="202.593,-128.431 192.143,-130.176 201.401,-135.329 202.593,-128.431"/>
</g>
<!-- Node5 -->
<g id="node5" class="node"><title>Node5</title>
<polygon fill="white" stroke="#bfbfbf" points="210,-112.5 210,-131.5 262,-131.5 262,-112.5 210,-112.5"/>
<text text-anchor="middle" x="236" y="-119.5" font-family="Helvetica,sans-Serif" font-size="10.00">sstream</text>
</g>
<!-- Node1&#45;&gt;Node5 -->
<g id="edge4" class="edge"><title>Node1&#45;&gt;Node5</title>
<path fill="none" stroke="midnightblue" d="M694.164,-177.686C589.455,-171.278 423.878,-158.167 272.245,-131.969"/>
<polygon fill="midnightblue" stroke="midnightblue" points="272.731,-128.501 262.278,-130.224 271.524,-135.396 272.731,-128.501"/>
</g>
<!-- Node6 -->
<g id="node6" class="node"><title>Node6</title>
<polygon fill="white" stroke="#bfbfbf" points="280,-112.5 280,-131.5 324,-131.5 324,-112.5 280,-112.5"/>
<text text-anchor="middle" x="302" y="-119.5" font-family="Helvetica,sans-Serif" font-size="10.00">cmath</text>
</g>
<!-- Node1&#45;&gt;Node6 -->
<g id="edge5" class="edge"><title>Node1&#45;&gt;Node6</title>
<path fill="none" stroke="midnightblue" d="M694.377,-176.477C602.051,-169.58 463.812,-156.478 334.365,-131.727"/>
<polygon fill="midnightblue" stroke="midnightblue" points="334.75,-128.237 324.267,-129.769 333.418,-135.109 334.75,-128.237"/>
</g>
<!-- Node7 -->
<g id="node7" class="node"><title>Node7</title>
<polygon fill="white" stroke="#bfbfbf" points="342.5,-112.5 342.5,-131.5 377.5,-131.5 377.5,-112.5 342.5,-112.5"/>
<text text-anchor="middle" x="360" y="-119.5" font-family="Helvetica,sans-Serif" font-size="10.00">map</text>
</g>
<!-- Node1&#45;&gt;Node7 -->
<g id="edge6" class="edge"><title>Node1&#45;&gt;Node7</title>
<path fill="none" stroke="midnightblue" d="M694.304,-175.812C612.893,-168.885 497.178,-156.111 387.49,-131.662"/>
<polygon fill="midnightblue" stroke="midnightblue" points="388.103,-128.212 377.576,-129.416 386.556,-135.039 388.103,-128.212"/>
</g>
<!-- Node8 -->
<g id="node8" class="node"><title>Node8</title>
<polygon fill="white" stroke="#bfbfbf" points="395.5,-112.5 395.5,-131.5 442.5,-131.5 442.5,-112.5 395.5,-112.5"/>
<text text-anchor="middle" x="419" y="-119.5" font-family="Helvetica,sans-Serif" font-size="10.00">math.h</text>
</g>
<!-- Node1&#45;&gt;Node8 -->
<g id="edge7" class="edge"><title>Node1&#45;&gt;Node8</title>
<path fill="none" stroke="midnightblue" d="M694.213,-169.71C626.327,-160.525 536.138,-147.244 457,-132 455.544,-131.719 454.059,-131.421 452.561,-131.11"/>
<polygon fill="midnightblue" stroke="midnightblue" points="453.169,-127.66 442.65,-128.928 451.663,-134.496 453.169,-127.66"/>
</g>
<!-- Node9 -->
<g id="node9" class="node"><title>Node9</title>
<polygon fill="white" stroke="#bfbfbf" points="301,-0.5 301,-19.5 345,-19.5 345,-0.5 301,-0.5"/>
<text text-anchor="middle" x="323" y="-7.5" font-family="Helvetica,sans-Serif" font-size="10.00">vector</text>
</g>
<!-- Node1&#45;&gt;Node9 -->
<g id="edge8" class="edge"><title>Node1&#45;&gt;Node9</title>
<path fill="none" stroke="midnightblue" d="M694.2,-172.05C640.705,-164.438 575.226,-151.961 519,-132 470.264,-114.698 460.993,-103.187 417,-76 390.746,-59.7757 361.693,-39.2704 342.935,-25.6761"/>
<polygon fill="midnightblue" stroke="midnightblue" points="344.753,-22.6702 334.611,-19.6068 340.629,-28.3264 344.753,-22.6702"/>
</g>
<!-- Node10 -->
<g id="node10" class="node"><title>Node10</title>
<polygon fill="white" stroke="#bfbfbf" points="661,-112.5 661,-131.5 723,-131.5 723,-112.5 661,-112.5"/>
<text text-anchor="middle" x="692" y="-119.5" font-family="Helvetica,sans-Serif" font-size="10.00">sys/time.h</text>
</g>
<!-- Node1&#45;&gt;Node10 -->
<g id="edge9" class="edge"><title>Node1&#45;&gt;Node10</title>
<path fill="none" stroke="midnightblue" d="M773.913,-168.933C756.506,-159.171 733.445,-146.24 716.228,-136.586"/>
<polygon fill="midnightblue" stroke="midnightblue" points="717.771,-133.438 707.337,-131.6 714.347,-139.544 717.771,-133.438"/>
</g>
<!-- Node11 -->
<g id="node11" class="node"><title>Node11</title>
<polygon fill="white" stroke="#bfbfbf" points="741.5,-112.5 741.5,-131.5 782.5,-131.5 782.5,-112.5 741.5,-112.5"/>
<text text-anchor="middle" x="762" y="-119.5" font-family="Helvetica,sans-Serif" font-size="10.00">string</text>
</g>
<!-- Node1&#45;&gt;Node11 -->
<g id="edge10" class="edge"><title>Node1&#45;&gt;Node11</title>
<path fill="none" stroke="midnightblue" d="M790.232,-168.781C784.966,-160.242 778.23,-149.318 772.658,-140.283"/>
<polygon fill="midnightblue" stroke="midnightblue" points="775.612,-138.405 767.384,-131.731 769.654,-142.079 775.612,-138.405"/>
</g>
<!-- Node12 -->
<g id="node12" class="node"><title>Node12</title>
<polygon fill="white" stroke="#bfbfbf" points="801,-112.5 801,-131.5 871,-131.5 871,-112.5 801,-112.5"/>
<text text-anchor="middle" x="836" y="-119.5" font-family="Helvetica,sans-Serif" font-size="10.00">Riostream.h</text>
</g>
<!-- Node1&#45;&gt;Node12 -->
<g id="edge11" class="edge"><title>Node1&#45;&gt;Node12</title>
<path fill="none" stroke="midnightblue" d="M807.768,-168.781C813.034,-160.242 819.77,-149.318 825.342,-140.283"/>
<polygon fill="midnightblue" stroke="midnightblue" points="828.346,-142.079 830.616,-131.731 822.388,-138.405 828.346,-142.079"/>
</g>
<!-- Node13 -->
<g id="node13" class="node"><title>Node13</title>
<polygon fill="white" stroke="#bfbfbf" points="889.5,-112.5 889.5,-131.5 936.5,-131.5 936.5,-112.5 889.5,-112.5"/>
<text text-anchor="middle" x="913" y="-119.5" font-family="Helvetica,sans-Serif" font-size="10.00">iterator</text>
</g>
<!-- Node1&#45;&gt;Node13 -->
<g id="edge12" class="edge"><title>Node1&#45;&gt;Node13</title>
<path fill="none" stroke="midnightblue" d="M825.728,-168.933C844.446,-159.081 869.299,-146 887.695,-136.318"/>
<polygon fill="midnightblue" stroke="midnightblue" points="889.441,-139.355 896.66,-131.6 886.181,-133.16 889.441,-139.355"/>
</g>
<!-- Node14 -->
<g id="node14" class="node"><title>Node14</title>
<polygon fill="white" stroke="#bfbfbf" points="955,-112.5 955,-131.5 1011,-131.5 1011,-112.5 955,-112.5"/>
<text text-anchor="middle" x="983" y="-119.5" font-family="Helvetica,sans-Serif" font-size="10.00">algorithm</text>
</g>
<!-- Node1&#45;&gt;Node14 -->
<g id="edge13" class="edge"><title>Node1&#45;&gt;Node14</title>
<path fill="none" stroke="midnightblue" d="M842.14,-168.933C874.11,-158.508 917.169,-144.467 947.232,-134.663"/>
<polygon fill="midnightblue" stroke="midnightblue" points="948.472,-137.941 956.894,-131.513 946.302,-131.285 948.472,-137.941"/>
</g>
<!-- Node15 -->
<g id="node15" class="node"><title>Node15</title>
<g id="a_node15"><a xlink:href="_a_d_c_manager1730_8h.xhtml" target="_top" xlink:title="ADCManager1730.h">
<polygon fill="white" stroke="black" points="537.5,-112.5 537.5,-131.5 642.5,-131.5 642.5,-112.5 537.5,-112.5"/>
<text text-anchor="middle" x="590" y="-119.5" font-family="Helvetica,sans-Serif" font-size="10.00">ADCManager1730.h</text>
</a>
</g>
</g>
<!-- Node1&#45;&gt;Node15 -->
<g id="edge14" class="edge"><title>Node1&#45;&gt;Node15</title>
<path fill="none" stroke="midnightblue" d="M749.999,-168.933C713.212,-158.372 663.498,-144.1 629.299,-134.282"/>
<polygon fill="midnightblue" stroke="midnightblue" points="630.23,-130.908 619.653,-131.513 628.299,-137.636 630.23,-130.908"/>
</g>
<!-- Node24 -->
<g id="node24" class="node"><title>Node24</title>
<g id="a_node24"><a xlink:href="_a_d_c_manager_8h.xhtml" target="_top" xlink:title="ADCManager.h">
<polygon fill="white" stroke="black" points="583,-56.5 583,-75.5 667,-75.5 667,-56.5 583,-56.5"/>
<text text-anchor="middle" x="625" y="-63.5" font-family="Helvetica,sans-Serif" font-size="10.00">ADCManager.h</text>
</a>
</g>
</g>
<!-- Node1&#45;&gt;Node24 -->
<g id="edge36" class="edge"><title>Node1&#45;&gt;Node24</title>
<path fill="none" stroke="midnightblue" d="M694.257,-176.74C627.659,-170.322 550.118,-157.481 529,-132 509.361,-108.304 547.431,-89.7257 581.278,-78.6052"/>
<polygon fill="midnightblue" stroke="midnightblue" points="582.616,-81.8541 591.118,-75.5323 580.53,-75.1723 582.616,-81.8541"/>
</g>
<!-- Node26 -->
<g id="node26" class="node"><title>Node26</title>
<polygon fill="white" stroke="#bfbfbf" points="1029,-112.5 1029,-131.5 1079,-131.5 1079,-112.5 1029,-112.5"/>
<text text-anchor="middle" x="1054" y="-119.5" font-family="Helvetica,sans-Serif" font-size="10.00">global.h</text>
</g>
<!-- Node1&#45;&gt;Node26 -->
<g id="edge37" class="edge"><title>Node1&#45;&gt;Node26</title>
<path fill="none" stroke="midnightblue" d="M861.207,-168.996C905.317,-158.964 965.87,-144.987 1019,-132 1019.1,-131.976 1019.2,-131.952 1019.3,-131.927"/>
<polygon fill="midnightblue" stroke="midnightblue" points="1019.93,-135.377 1028.78,-129.561 1018.23,-128.586 1019.93,-135.377"/>
</g>
<!-- Node27 -->
<g id="node27" class="node"><title>Node27</title>
<polygon fill="white" stroke="#bfbfbf" points="1097.5,-112.5 1097.5,-131.5 1148.5,-131.5 1148.5,-112.5 1097.5,-112.5"/>
<text text-anchor="middle" x="1123" y="-119.5" font-family="Helvetica,sans-Serif" font-size="10.00">TH1D.h</text>
</g>
<!-- Node1&#45;&gt;Node27 -->
<g id="edge38" class="edge"><title>Node1&#45;&gt;Node27</title>
<path fill="none" stroke="midnightblue" d="M888.849,-168.975C943.5,-160.013 1014.89,-147.544 1087.23,-132.025"/>
<polygon fill="midnightblue" stroke="midnightblue" points="1088.41,-135.351 1097.44,-129.815 1086.93,-128.509 1088.41,-135.351"/>
</g>
<!-- Node28 -->
<g id="node28" class="node"><title>Node28</title>
<polygon fill="white" stroke="#bfbfbf" points="1166.5,-112.5 1166.5,-131.5 1245.5,-131.5 1245.5,-112.5 1166.5,-112.5"/>
<text text-anchor="middle" x="1206" y="-119.5" font-family="Helvetica,sans-Serif" font-size="10.00">TApplication.h</text>
</g>
<!-- Node1&#45;&gt;Node28 -->
<g id="edge39" class="edge"><title>Node1&#45;&gt;Node28</title>
<path fill="none" stroke="midnightblue" d="M903.733,-169.208C972.687,-159.86 1065.18,-146.817 1156.47,-132.03"/>
<polygon fill="midnightblue" stroke="midnightblue" points="1157.14,-135.468 1166.44,-130.406 1156.01,-128.558 1157.14,-135.468"/>
</g>
<!-- Node29 -->
<g id="node29" class="node"><title>Node29</title>
<polygon fill="white" stroke="#bfbfbf" points="1263.5,-112.5 1263.5,-131.5 1328.5,-131.5 1328.5,-112.5 1263.5,-112.5"/>
<text text-anchor="middle" x="1296" y="-119.5" font-family="Helvetica,sans-Serif" font-size="10.00">TCanvas.h</text>
</g>
<!-- Node1&#45;&gt;Node29 -->
<g id="edge40" class="edge"><title>Node1&#45;&gt;Node29</title>
<path fill="none" stroke="midnightblue" d="M903.766,-174.24C993.81,-166.021 1127.29,-152.196 1252.86,-132.038"/>
<polygon fill="midnightblue" stroke="midnightblue" points="1253.73,-135.442 1263.04,-130.386 1252.61,-128.532 1253.73,-135.442"/>
</g>
<!-- Node30 -->
<g id="node30" class="node"><title>Node30</title>
<polygon fill="white" stroke="#bfbfbf" points="1346.5,-112.5 1346.5,-131.5 1399.5,-131.5 1399.5,-112.5 1346.5,-112.5"/>
<text text-anchor="middle" x="1373" y="-119.5" font-family="Helvetica,sans-Serif" font-size="10.00">TStyle.h</text>
</g>
<!-- Node1&#45;&gt;Node30 -->
<g id="edge41" class="edge"><title>Node1&#45;&gt;Node30</title>
<path fill="none" stroke="midnightblue" d="M903.504,-177.761C1010.02,-171.357 1180.04,-158.198 1336.1,-131.887"/>
<polygon fill="midnightblue" stroke="midnightblue" points="1337.09,-135.269 1346.36,-130.135 1335.91,-128.369 1337.09,-135.269"/>
</g>
<!-- Node31 -->
<g id="node31" class="node"><title>Node31</title>
<polygon fill="white" stroke="#bfbfbf" points="1417.5,-112.5 1417.5,-131.5 1464.5,-131.5 1464.5,-112.5 1417.5,-112.5"/>
<text text-anchor="middle" x="1441" y="-119.5" font-family="Helvetica,sans-Serif" font-size="10.00">TFile.h</text>
</g>
<!-- Node1&#45;&gt;Node31 -->
<g id="edge42" class="edge"><title>Node1&#45;&gt;Node31</title>
<path fill="none" stroke="midnightblue" d="M903.733,-180.038C1023.46,-175.338 1225.28,-163.412 1407.3,-131.779"/>
<polygon fill="midnightblue" stroke="midnightblue" points="1408.08,-135.195 1417.32,-130.013 1406.87,-128.301 1408.08,-135.195"/>
</g>
<!-- Node32 -->
<g id="node32" class="node"><title>Node32</title>
<polygon fill="white" stroke="#bfbfbf" points="1482.5,-112.5 1482.5,-131.5 1537.5,-131.5 1537.5,-112.5 1482.5,-112.5"/>
<text text-anchor="middle" x="1510" y="-119.5" font-family="Helvetica,sans-Serif" font-size="10.00">TLatex.h</text>
</g>
<!-- Node1&#45;&gt;Node32 -->
<g id="edge43" class="edge"><title>Node1&#45;&gt;Node32</title>
<path fill="none" stroke="midnightblue" d="M903.528,-180.368C1034.4,-175.885 1265.47,-164.053 1472.09,-131.87"/>
<polygon fill="midnightblue" stroke="midnightblue" points="1472.89,-135.287 1482.22,-130.272 1471.79,-128.373 1472.89,-135.287"/>
</g>
<!-- Node33 -->
<g id="node33" class="node"><title>Node33</title>
<polygon fill="white" stroke="#bfbfbf" points="1556,-112.5 1556,-131.5 1606,-131.5 1606,-112.5 1556,-112.5"/>
<text text-anchor="middle" x="1581" y="-119.5" font-family="Helvetica,sans-Serif" font-size="10.00">TTree.h</text>
</g>
<!-- Node1&#45;&gt;Node33 -->
<g id="edge44" class="edge"><title>Node1&#45;&gt;Node33</title>
<path fill="none" stroke="midnightblue" d="M903.613,-181.895C1048.71,-178.994 1318.85,-168.64 1546,-132 1546.1,-131.984 1546.2,-131.967 1546.3,-131.951"/>
<polygon fill="midnightblue" stroke="midnightblue" points="1546.76,-135.429 1555.88,-130.047 1545.39,-128.564 1546.76,-135.429"/>
</g>
<!-- Node34 -->
<g id="node34" class="node"><title>Node34</title>
<polygon fill="white" stroke="#bfbfbf" points="1624.5,-112.5 1624.5,-131.5 1683.5,-131.5 1683.5,-112.5 1624.5,-112.5"/>
<text text-anchor="middle" x="1654" y="-119.5" font-family="Helvetica,sans-Serif" font-size="10.00">TROOT.h</text>
</g>
<!-- Node1&#45;&gt;Node34 -->
<g id="edge45" class="edge"><title>Node1&#45;&gt;Node34</title>
<path fill="none" stroke="midnightblue" d="M903.581,-181.949C1057.4,-179.181 1353.65,-169.204 1614.25,-131.842"/>
<polygon fill="midnightblue" stroke="midnightblue" points="1614.89,-135.286 1624.28,-130.387 1613.89,-128.358 1614.89,-135.286"/>
</g>
<!-- Node15&#45;&gt;Node9 -->
<g id="edge20" class="edge"><title>Node15&#45;&gt;Node9</title>
<path fill="none" stroke="midnightblue" d="M564.386,-112.481C538.951,-103.859 498.955,-89.855 465,-76 424.355,-59.4153 378.322,-37.8085 349.974,-24.1661"/>
<polygon fill="midnightblue" stroke="midnightblue" points="351.249,-20.8951 340.723,-19.6941 348.203,-27.1974 351.249,-20.8951"/>
</g>
<!-- Node16 -->
<g id="node16" class="node"><title>Node16</title>
<polygon fill="white" stroke="#bfbfbf" points="836.5,-0.5 836.5,-19.5 885.5,-19.5 885.5,-0.5 836.5,-0.5"/>
<text text-anchor="middle" x="861" y="-7.5" font-family="Helvetica,sans-Serif" font-size="10.00">string.h</text>
</g>
<!-- Node15&#45;&gt;Node16 -->
<g id="edge15" class="edge"><title>Node15&#45;&gt;Node16</title>
<path fill="none" stroke="midnightblue" d="M623.405,-112.428C653.175,-104.369 697.679,-91.2797 735,-76 771.963,-60.8667 812.692,-38.8023 837.561,-24.6739"/>
<polygon fill="midnightblue" stroke="midnightblue" points="839.34,-27.6885 846.275,-19.6786 835.859,-21.6155 839.34,-27.6885"/>
</g>
<!-- Node17 -->
<g id="node17" class="node"><title>Node17</title>
<polygon fill="white" stroke="#bfbfbf" points="904,-0.5 904,-19.5 950,-19.5 950,-0.5 904,-0.5"/>
<text text-anchor="middle" x="927" y="-7.5" font-family="Helvetica,sans-Serif" font-size="10.00">stdio.h</text>
</g>
<!-- Node15&#45;&gt;Node17 -->
<g id="edge16" class="edge"><title>Node15&#45;&gt;Node17</title>
<path fill="none" stroke="midnightblue" d="M631.601,-112.43C668.405,-104.417 723.352,-91.3943 770,-76 816.26,-60.7339 868.164,-38.1176 899.184,-23.9851"/>
<polygon fill="midnightblue" stroke="midnightblue" points="900.86,-27.0672 908.488,-19.7148 897.94,-20.7053 900.86,-27.0672"/>
</g>
<!-- Node18 -->
<g id="node18" class="node"><title>Node18</title>
<polygon fill="white" stroke="#bfbfbf" points="968,-0.5 968,-19.5 1016,-19.5 1016,-0.5 968,-0.5"/>
<text text-anchor="middle" x="992" y="-7.5" font-family="Helvetica,sans-Serif" font-size="10.00">stdlib.h</text>
</g>
<!-- Node15&#45;&gt;Node18 -->
<g id="edge17" class="edge"><title>Node15&#45;&gt;Node18</title>
<path fill="none" stroke="midnightblue" d="M642.056,-112.492C686.949,-104.648 753.303,-91.8376 810,-76 864.349,-60.8182 925.842,-37.5291 961.632,-23.3382"/>
<polygon fill="midnightblue" stroke="midnightblue" points="963.029,-26.5494 971.019,-19.5912 960.434,-20.0483 963.029,-26.5494"/>
</g>
<!-- Node19 -->
<g id="node19" class="node"><title>Node19</title>
<polygon fill="white" stroke="#bfbfbf" points="363,-0.5 363,-19.5 407,-19.5 407,-0.5 363,-0.5"/>
<text text-anchor="middle" x="385" y="-7.5" font-family="Helvetica,sans-Serif" font-size="10.00">time.h</text>
</g>
<!-- Node15&#45;&gt;Node19 -->
<g id="edge18" class="edge"><title>Node15&#45;&gt;Node19</title>
<path fill="none" stroke="midnightblue" d="M573.914,-112.368C538.287,-93.2515 452.518,-47.229 409.9,-24.361"/>
<polygon fill="midnightblue" stroke="midnightblue" points="411.478,-21.2356 401.011,-19.5914 408.168,-27.4037 411.478,-21.2356"/>
</g>
<!-- Node20 -->
<g id="node20" class="node"><title>Node20</title>
<polygon fill="white" stroke="#bfbfbf" points="425.5,-0.5 425.5,-19.5 510.5,-19.5 510.5,-0.5 425.5,-0.5"/>
<text text-anchor="middle" x="468" y="-7.5" font-family="Helvetica,sans-Serif" font-size="10.00">CAENVMElib.h</text>
</g>
<!-- Node15&#45;&gt;Node20 -->
<g id="edge19" class="edge"><title>Node15&#45;&gt;Node20</title>
<path fill="none" stroke="midnightblue" d="M580.427,-112.368C559.848,-93.8137 511.158,-49.9129 485.122,-26.4376"/>
<polygon fill="midnightblue" stroke="midnightblue" points="487.299,-23.6884 477.529,-19.5914 482.612,-28.8872 487.299,-23.6884"/>
</g>
<!-- Node21 -->
<g id="node21" class="node"><title>Node21</title>
<polygon fill="white" stroke="#bfbfbf" points="529,-0.5 529,-19.5 581,-19.5 581,-0.5 529,-0.5"/>
<text text-anchor="middle" x="555" y="-7.5" font-family="Helvetica,sans-Serif" font-size="10.00">memory</text>
</g>
<!-- Node15&#45;&gt;Node21 -->
<g id="edge21" class="edge"><title>Node15&#45;&gt;Node21</title>
<path fill="none" stroke="midnightblue" d="M586.785,-112.423C583.445,-103.406 578.136,-88.7798 574,-76 568.966,-60.4449 563.794,-42.609 560.12,-29.5603"/>
<polygon fill="midnightblue" stroke="midnightblue" points="563.479,-28.5734 557.422,-19.8804 556.736,-30.453 563.479,-28.5734"/>
</g>
<!-- Node22 -->
<g id="node22" class="node"><title>Node22</title>
<polygon fill="white" stroke="#bfbfbf" points="599.5,-0.5 599.5,-19.5 650.5,-19.5 650.5,-0.5 599.5,-0.5"/>
<text text-anchor="middle" x="625" y="-7.5" font-family="Helvetica,sans-Serif" font-size="10.00">typeinfo</text>
</g>
<!-- Node15&#45;&gt;Node22 -->
<g id="edge22" class="edge"><title>Node15&#45;&gt;Node22</title>
<path fill="none" stroke="midnightblue" d="M623.799,-112.388C642.393,-105.735 663.89,-94.4531 675,-76 686.17,-57.4471 666.414,-37.9936 648.539,-25.2598"/>
<polygon fill="midnightblue" stroke="midnightblue" points="650.316,-22.2373 640.059,-19.5818 646.421,-28.0538 650.316,-22.2373"/>
</g>
<!-- Node23 -->
<g id="node23" class="node"><title>Node23</title>
<polygon fill="white" stroke="#bfbfbf" points="668.5,-0.5 668.5,-19.5 737.5,-19.5 737.5,-0.5 668.5,-0.5"/>
<text text-anchor="middle" x="703" y="-7.5" font-family="Helvetica,sans-Serif" font-size="10.00">xmlParser.h</text>
</g>
<!-- Node15&#45;&gt;Node23 -->
<g id="edge23" class="edge"><title>Node15&#45;&gt;Node23</title>
<path fill="none" stroke="midnightblue" d="M629.609,-112.488C650.595,-105.957 675.054,-94.7623 690,-76 700.411,-62.9313 703.194,-43.7791 703.653,-29.6473"/>
<polygon fill="midnightblue" stroke="midnightblue" points="707.153,-29.5922 703.624,-19.6023 700.153,-29.6124 707.153,-29.5922"/>
</g>
<!-- Node15&#45;&gt;Node24 -->
<g id="edge24" class="edge"><title>Node15&#45;&gt;Node24</title>
<path fill="none" stroke="midnightblue" d="M595.78,-112.083C600.672,-104.534 607.827,-93.4948 613.833,-84.2298"/>
<polygon fill="midnightblue" stroke="midnightblue" points="616.826,-86.0463 619.328,-75.7511 610.952,-82.239 616.826,-86.0463"/>
</g>
<!-- Node25 -->
<g id="node25" class="node"><title>Node25</title>
<polygon fill="white" stroke="#bfbfbf" points="756,-0.5 756,-19.5 818,-19.5 818,-0.5 756,-0.5"/>
<text text-anchor="middle" x="787" y="-7.5" font-family="Helvetica,sans-Serif" font-size="10.00">common.h</text>
</g>
<!-- Node15&#45;&gt;Node25 -->
<g id="edge35" class="edge"><title>Node15&#45;&gt;Node25</title>
<path fill="none" stroke="midnightblue" d="M620.304,-112.436C644.889,-104.796 679.944,-92.3035 708,-76 731.841,-62.146 755.82,-41.19 771.001,-26.841"/>
<polygon fill="midnightblue" stroke="midnightblue" points="773.704,-29.0969 778.473,-19.6362 768.845,-24.0578 773.704,-29.0969"/>
</g>
<!-- Node24&#45;&gt;Node9 -->
<g id="edge30" class="edge"><title>Node24&#45;&gt;Node9</title>
<path fill="none" stroke="midnightblue" d="M582.919,-59.5819C531.366,-52.5991 441.228,-39.2753 355.195,-20.0546"/>
<polygon fill="midnightblue" stroke="midnightblue" points="355.795,-16.6019 345.269,-17.8061 354.249,-23.4289 355.795,-16.6019"/>
</g>
<!-- Node24&#45;&gt;Node16 -->
<g id="edge25" class="edge"><title>Node24&#45;&gt;Node16</title>
<path fill="none" stroke="midnightblue" d="M664.749,-56.4871C705.358,-47.6992 770.196,-33.418 826,-20 826.103,-19.9752 826.206,-19.9504 826.309,-19.9256"/>
<polygon fill="midnightblue" stroke="midnightblue" points="827.3,-23.286 836.168,-17.4881 825.62,-16.4906 827.3,-23.286"/>
</g>
<!-- Node24&#45;&gt;Node17 -->
<g id="edge26" class="edge"><title>Node24&#45;&gt;Node17</title>
<path fill="none" stroke="midnightblue" d="M667.186,-59.2826C720.364,-51.7687 814.45,-37.4553 894,-20 894.102,-19.9777 894.203,-19.9553 894.305,-19.9328"/>
<polygon fill="midnightblue" stroke="midnightblue" points="895.096,-23.3425 903.994,-17.5914 893.452,-16.5383 895.096,-23.3425"/>
</g>
<!-- Node24&#45;&gt;Node18 -->
<g id="edge27" class="edge"><title>Node24&#45;&gt;Node18</title>
<path fill="none" stroke="midnightblue" d="M667.216,-61.1218C729.013,-55.0498 847.842,-41.8794 957.99,-19.9658"/>
<polygon fill="midnightblue" stroke="midnightblue" points="958.828,-23.3673 967.938,-17.9577 957.443,-16.5057 958.828,-23.3673"/>
</g>
<!-- Node24&#45;&gt;Node19 -->
<g id="edge28" class="edge"><title>Node24&#45;&gt;Node19</title>
<path fill="none" stroke="midnightblue" d="M582.994,-56.6974C542.916,-48.6005 480.642,-35.5659 417.123,-19.9018"/>
<polygon fill="midnightblue" stroke="midnightblue" points="417.882,-16.4842 407.333,-17.469 416.194,-23.2776 417.882,-16.4842"/>
</g>
<!-- Node24&#45;&gt;Node20 -->
<g id="edge29" class="edge"><title>Node24&#45;&gt;Node20</title>
<path fill="none" stroke="midnightblue" d="M600.123,-56.4435C573.711,-47.3591 531.785,-32.9388 502.258,-22.7831"/>
<polygon fill="midnightblue" stroke="midnightblue" points="503.355,-19.4593 492.761,-19.5164 501.079,-26.0787 503.355,-19.4593"/>
</g>
<!-- Node24&#45;&gt;Node21 -->
<g id="edge31" class="edge"><title>Node24&#45;&gt;Node21</title>
<path fill="none" stroke="midnightblue" d="M613.753,-56.324C603.203,-48.1849 587.199,-35.8395 574.558,-26.0874"/>
<polygon fill="midnightblue" stroke="midnightblue" points="576.507,-23.1707 566.451,-19.8339 572.231,-28.7132 576.507,-23.1707"/>
</g>
<!-- Node24&#45;&gt;Node22 -->
<g id="edge32" class="edge"><title>Node24&#45;&gt;Node22</title>
<path fill="none" stroke="midnightblue" d="M625,-56.083C625,-49.0059 625,-38.8611 625,-29.9865"/>
<polygon fill="midnightblue" stroke="midnightblue" points="628.5,-29.751 625,-19.7511 621.5,-29.7511 628.5,-29.751"/>
</g>
<!-- Node24&#45;&gt;Node23 -->
<g id="edge33" class="edge"><title>Node24&#45;&gt;Node23</title>
<path fill="none" stroke="midnightblue" d="M637.532,-56.324C649.586,-47.979 668.027,-35.2122 682.269,-25.3524"/>
<polygon fill="midnightblue" stroke="midnightblue" points="684.269,-28.2243 690.499,-19.6545 680.285,-22.469 684.269,-28.2243"/>
</g>
<!-- Node24&#45;&gt;Node25 -->
<g id="edge34" class="edge"><title>Node24&#45;&gt;Node25</title>
<path fill="none" stroke="midnightblue" d="M650.669,-56.4435C677.923,-47.3591 721.184,-32.9388 751.651,-22.7831"/>
<polygon fill="midnightblue" stroke="midnightblue" points="753.071,-25.9992 761.451,-19.5164 750.857,-19.3584 753.071,-25.9992"/>
</g>
</g>
</svg>
        <g id="navigator" transform="translate(0 0)" fill="#404254">
                <rect fill="#f2f5e9" fill-opacity="0.5" stroke="#606060" stroke-width=".5" x="0" y="0" width="60" height="60"/>
                <use id="zoomplus" xlink:href="#zoomPlus" x="17" y="9" onmousedown="handleZoom(evt,'in')"/>
                <use id="zoomminus" xlink:href="#zoomMin" x="42" y="9" onmousedown="handleZoom(evt,'out')"/>
                <use id="reset" xlink:href="#resetDef" x="30" y="36" onmousedown="handleReset()"/>
                <g id="arrowUp" xlink:href="#dirArrow" transform="translate(30 24)" onmousedown="handlePan(0,-1)">
                  <use xlink:href="#rim" fill="#404040">
                        <set attributeName="fill" to="#808080" begin="arrowUp.mouseover" end="arrowUp.mouseout"/>
                  </use>
                  <path fill="none" stroke="white" stroke-width="1.5" d="M0,-3.0v7 M-2.5,-0.5L0,-3.0L2.5,-0.5"/>
                </g>
                <g id="arrowRight" xlink:href="#dirArrow" transform="rotate(90) translate(36 -43)" onmousedown="handlePan(1,0)">
                  <use xlink:href="#rim" fill="#404040">
                        <set attributeName="fill" to="#808080" begin="arrowRight.mouseover" end="arrowRight.mouseout"/>
                  </use>
                  <path fill="none" stroke="white" stroke-width="1.5" d="M0,-3.0v7 M-2.5,-0.5L0,-3.0L2.5,-0.5"/>
                </g>
                <g id="arrowDown" xlink:href="#dirArrow" transform="rotate(180) translate(-30 -48)" onmousedown="handlePan(0,1)">
                  <use xlink:href="#rim" fill="#404040">
                        <set attributeName="fill" to="#808080" begin="arrowDown.mouseover" end="arrowDown.mouseout"/>
                  </use>
                  <path fill="none" stroke="white" stroke-width="1.5" d="M0,-3.0v7 M-2.5,-0.5L0,-3.0L2.5,-0.5"/>
                </g>
                <g id="arrowLeft" xlink:href="#dirArrow" transform="rotate(270) translate(-36 17)" onmousedown="handlePan(-1,0)">
                  <use xlink:href="#rim" fill="#404040">
                        <set attributeName="fill" to="#808080" begin="arrowLeft.mouseover" end="arrowLeft.mouseout"/>
                  </use>
                  <path fill="none" stroke="white" stroke-width="1.5" d="M0,-3.0v7 M-2.5,-0.5L0,-3.0L2.5,-0.5"/>
                </g>
        </g>
        <svg viewBox="0 0 15 15" width="100%" height="30px" preserveAspectRatio="xMaxYMin meet">
         <g id="arrow_out" transform="scale(0.3 0.3)">
          <a xlink:href="_a_d_c_manager1730_8cpp__incl_org.svg" target="_base">
           <rect id="button" ry="5" rx="5" y="6" x="6" height="38" width="38"
                fill="#f2f5e9" fill-opacity="0.5" stroke="#606060" stroke-width="1.0"/>
           <path id="arrow"
             d="M 11.500037,31.436501 C 11.940474,20.09759 22.043105,11.32322 32.158766,21.979434 L 37.068811,17.246167 C 37.068811,17.246167 37.088388,32 37.088388,32 L 22.160133,31.978069 C 22.160133,31.978069 26.997745,27.140456 26.997745,27.140456 C 18.528582,18.264221 13.291696,25.230495 11.500037,31.436501 z"
             style="fill:#404040;"/>
          </a>
         </g>
        </svg>
</svg>
