<?xml version="1.0" encoding="UTF-8" standalone="no"?>
<!DOCTYPE svg PUBLIC "-//W3C//DTD SVG 1.1//EN"
 "http://www.w3.org/Graphics/SVG/1.1/DTD/svg11.dtd">
<!-- Generated by graphviz version 2.36.0 (20140111.2315)
 -->
<!-- Title: lengthXMLString Pages: 1 -->
<svg width="388pt" height="104pt"
 viewBox="0.00 0.00 388.00 104.00" xmlns="http://www.w3.org/2000/svg" xmlns:xlink="http://www.w3.org/1999/xlink">
<g id="graph0" class="graph" transform="scale(1 1) rotate(0) translate(4 100)">
<title>lengthXMLString</title>
<polygon fill="white" stroke="none" points="-4,4 -4,-100 384,-100 384,4 -4,4"/>
<!-- Node1 -->
<g id="node1" class="node"><title>Node1</title>
<polygon fill="#bfbfbf" stroke="black" points="0.5,-38.5 0.5,-57.5 89.5,-57.5 89.5,-38.5 0.5,-38.5"/>
<text text-anchor="middle" x="45" y="-45.5" font-family="Helvetica,sans-Serif" font-size="10.00">lengthXMLString</text>
</g>
<!-- Node2 -->
<g id="node2" class="node"><title>Node2</title>
<g id="a_node2"><a xlink:href="_c_d_a_q_2_plugins_2_source_2xml_parser_8cpp.xhtml#a9a625f17c09a36e3ad532cdf16072609" target="_top" xlink:title="charmemset">
<polygon fill="white" stroke="black" points="154.5,-76.5 154.5,-95.5 225.5,-95.5 225.5,-76.5 154.5,-76.5"/>
<text text-anchor="middle" x="190" y="-83.5" font-family="Helvetica,sans-Serif" font-size="10.00">charmemset</text>
</a>
</g>
</g>
<!-- Node1&#45;&gt;Node2 -->
<g id="edge1" class="edge"><title>Node1&#45;&gt;Node2</title>
<path fill="none" stroke="midnightblue" d="M91.7658,-60.1615C112.08,-65.5596 135.592,-71.8076 154.406,-76.8073"/>
<polygon fill="midnightblue" stroke="midnightblue" points="92.6484,-56.7747 82.0849,-57.589 90.8506,-63.5399 92.6484,-56.7747"/>
</g>
<!-- Node3 -->
<g id="node3" class="node"><title>Node3</title>
<g id="a_node3"><a xlink:href="_p_d_a_q_2_core_2_source_2xml_parser_8cpp.xhtml#ae1b2fd77551f439e58967a80d09c59d1" target="_top" xlink:title="lengthXMLString">
<polygon fill="white" stroke="black" points="290.5,-19.5 290.5,-38.5 379.5,-38.5 379.5,-19.5 290.5,-19.5"/>
<text text-anchor="middle" x="335" y="-26.5" font-family="Helvetica,sans-Serif" font-size="10.00">lengthXMLString</text>
</a>
</g>
</g>
<!-- Node1&#45;&gt;Node3 -->
<g id="edge2" class="edge"><title>Node1&#45;&gt;Node3</title>
<path fill="none" stroke="midnightblue" d="M100,-44.4375C155.035,-40.8067 239.345,-35.2446 290.32,-31.8817"/>
<polygon fill="midnightblue" stroke="midnightblue" points="99.4889,-40.9635 89.741,-45.1143 99.9497,-47.9483 99.4889,-40.9635"/>
</g>
<!-- Node4 -->
<g id="node4" class="node"><title>Node4</title>
<g id="a_node4"><a xlink:href="struct_to_x_m_l_string_tool.xhtml#a3e0bb98fc6bf2c8b855fa4ea573177c2" target="_top" xlink:title="ToXMLStringTool::toXML">
<polygon fill="white" stroke="black" points="126.5,-0.5 126.5,-19.5 253.5,-19.5 253.5,-0.5 126.5,-0.5"/>
<text text-anchor="middle" x="190" y="-7.5" font-family="Helvetica,sans-Serif" font-size="10.00">ToXMLStringTool::toXML</text>
</a>
</g>
</g>
<!-- Node1&#45;&gt;Node4 -->
<g id="edge3" class="edge"><title>Node1&#45;&gt;Node4</title>
<path fill="none" stroke="midnightblue" d="M91.8133,-35.8258C111.587,-30.5713 134.384,-24.5134 152.927,-19.5859"/>
<polygon fill="midnightblue" stroke="midnightblue" points="90.8506,-32.4601 82.0849,-38.411 92.6484,-39.2253 90.8506,-32.4601"/>
</g>
<!-- Node4&#45;&gt;Node3 -->
<g id="edge4" class="edge"><title>Node4&#45;&gt;Node3</title>
<path fill="none" stroke="midnightblue" d="M263.866,-19.6815C272.867,-20.8775 281.839,-22.0696 290.212,-23.182"/>
<polygon fill="midnightblue" stroke="midnightblue" points="264.096,-16.1813 253.722,-18.3337 263.174,-23.1204 264.096,-16.1813"/>
</g>
</g>
</svg>
