<?xml version="1.0" encoding="UTF-8" standalone="no"?>
<!DOCTYPE svg PUBLIC "-//W3C//DTD SVG 1.1//EN"
 "http://www.w3.org/Graphics/SVG/1.1/DTD/svg11.dtd">
<!-- Generated by graphviz version 2.36.0 (20140111.2315)
 -->
<!-- Title: xstricmp Pages: 1 -->
<!--zoomable 545 -->
<svg id="main" version="1.1" xmlns="http://www.w3.org/2000/svg" xmlns:xlink="http://www.w3.org/1999/xlink" xml:space="preserve" onload="init(evt)">
<style type="text/css"><![CDATA[
.edge:hover path { stroke: red; }
.edge:hover polygon { stroke: red; fill: red; }
]]></style>
<script type="text/javascript"><![CDATA[
var edges = document.getElementsByTagName('g');
if (edges && edges.length) {
  for (var i=0;i<edges.length;i++) {
    if (edges[i].id.substr(0,4)=='edge') {
      edges[i].setAttribute('class','edge');
    }
  }
}
]]></script>
        <defs>
                <circle id="rim" cx="0" cy="0" r="7"/>
                <circle id="rim2" cx="0" cy="0" r="3.5"/>
                <g id="zoomPlus">
                        <use xlink:href="#rim" fill="#404040">
                                <set attributeName="fill" to="#808080" begin="zoomplus.mouseover" end="zoomplus.mouseout"/>
                        </use>
                        <path d="M-4,0h8M0,-4v8" fill="none" stroke="white" stroke-width="1.5" pointer-events="none"/>
                </g>
                <g id="zoomMin">
                        <use xlink:href="#rim" fill="#404040">
                                <set attributeName="fill" to="#808080" begin="zoomminus.mouseover" end="zoomminus.mouseout"/>
                        </use>
                        <path d="M-4,0h8" fill="none" stroke="white" stroke-width="1.5" pointer-events="none"/>
                </g>
                <g id="dirArrow">
                        <path fill="none" stroke="white" stroke-width="1.5" d="M0,-3.0v7 M-2.5,-0.5L0,-3.0L2.5,-0.5"/>
                </g>
               <g id="resetDef">
                       <use xlink:href="#rim2" fill="#404040">
                               <set attributeName="fill" to="#808080" begin="reset.mouseover" end="reset.mouseout"/>
                       </use>
               </g>
        </defs>

<script type="text/javascript">
var viewWidth = 1096;
var viewHeight = 545;
var sectionId = 'dynsection-25';
</script>
<script xlink:href="svgpan.js"/>
<svg id="graph" class="graph">
<g id="viewport">
<title>xstricmp</title>
<polygon fill="white" stroke="none" points="-4,4 -4,-540.954 1092,-540.954 1092,4 -4,4"/>
<!-- Node1 -->
<g id="node1" class="node"><title>Node1</title>
<polygon fill="#bfbfbf" stroke="black" points="0,-297.5 0,-316.5 54,-316.5 54,-297.5 0,-297.5"/>
<text text-anchor="middle" x="27" y="-304.5" font-family="Helvetica,sans-Serif" font-size="10.00">xstricmp</text>
</g>
<!-- Node2 -->
<g id="node2" class="node"><title>Node2</title>
<g id="a_node2"><a xlink:href="struct_x_m_l_node.xhtml#a23af0b5c771a9a5e7503a7dd2de72fc8" target="_top" xlink:title="XMLNode::getAttribute">
<polygon fill="white" stroke="black" points="95,-430.5 95,-449.5 211,-449.5 211,-430.5 95,-430.5"/>
<text text-anchor="middle" x="153" y="-437.5" font-family="Helvetica,sans-Serif" font-size="10.00">XMLNode::getAttribute</text>
</a>
</g>
</g>
<!-- Node1&#45;&gt;Node2 -->
<g id="edge1" class="edge"><title>Node1&#45;&gt;Node2</title>
<path fill="none" stroke="midnightblue" d="M33.4012,-326.145C41.5291,-351.501 59.3154,-395.931 90,-421 94.795,-424.918 100.391,-428.029 106.224,-430.499"/>
<polygon fill="midnightblue" stroke="midnightblue" points="36.7464,-325.115 30.4997,-316.558 30.0465,-327.143 36.7464,-325.115"/>
</g>
<!-- Node3 -->
<g id="node3" class="node"><title>Node3</title>
<g id="a_node3"><a xlink:href="struct_x_m_l_node.xhtml#ac2e8c96fc51b59b6667ee02785cb6943" target="_top" xlink:title="XMLNode::getChildNode">
<polygon fill="white" stroke="black" points="90.5,-392.5 90.5,-411.5 215.5,-411.5 215.5,-392.5 90.5,-392.5"/>
<text text-anchor="middle" x="153" y="-399.5" font-family="Helvetica,sans-Serif" font-size="10.00">XMLNode::getChildNode</text>
</a>
</g>
</g>
<!-- Node1&#45;&gt;Node3 -->
<g id="edge2" class="edge"><title>Node1&#45;&gt;Node3</title>
<path fill="none" stroke="midnightblue" d="M39.8959,-325.003C51.1607,-340.839 69.3853,-363.557 90,-378 98.6022,-384.027 108.923,-388.802 118.654,-392.453"/>
<polygon fill="midnightblue" stroke="midnightblue" points="42.6563,-322.841 34.1022,-316.589 36.891,-326.811 42.6563,-322.841"/>
</g>
<!-- Node4 -->
<g id="node4" class="node"><title>Node4</title>
<g id="a_node4"><a xlink:href="struct_x_m_l_node.xhtml#a5d2775ee0704a2c028d76d267db7960a" target="_top" xlink:title="XMLNode::getChildNodeWith\lAttribute">
<polygon fill="white" stroke="black" points="252,-504 252,-534 398,-534 398,-504 252,-504"/>
<text text-anchor="start" x="260" y="-522" font-family="Helvetica,sans-Serif" font-size="10.00">XMLNode::getChildNodeWith</text>
<text text-anchor="middle" x="325" y="-511" font-family="Helvetica,sans-Serif" font-size="10.00">Attribute</text>
</a>
</g>
</g>
<!-- Node1&#45;&gt;Node4 -->
<g id="edge3" class="edge"><title>Node1&#45;&gt;Node4</title>
<path fill="none" stroke="midnightblue" d="M49.7636,-322.248C61.3224,-329.845 76.0009,-338.725 90,-345 143.375,-368.924 173.933,-342.36 216,-383 251.783,-417.569 218.024,-452.653 252,-489 257.733,-495.133 264.913,-500.056 272.502,-503.993"/>
<polygon fill="midnightblue" stroke="midnightblue" points="51.4845,-319.187 41.2351,-316.503 47.574,-324.993 51.4845,-319.187"/>
</g>
<!-- Node6 -->
<g id="node6" class="node"><title>Node6</title>
<g id="a_node6"><a xlink:href="struct_x_m_l_node.xhtml#a8059888e8dd5d9caf04f765059c1b934" target="_top" xlink:title="XMLNode::isAttributeSet">
<polygon fill="white" stroke="black" points="90.5,-316.5 90.5,-335.5 215.5,-335.5 215.5,-316.5 90.5,-316.5"/>
<text text-anchor="middle" x="153" y="-323.5" font-family="Helvetica,sans-Serif" font-size="10.00">XMLNode::isAttributeSet</text>
</a>
</g>
</g>
<!-- Node1&#45;&gt;Node6 -->
<g id="edge5" class="edge"><title>Node1&#45;&gt;Node6</title>
<path fill="none" stroke="midnightblue" d="M64.2334,-312.552C72.4303,-313.808 81.358,-315.176 90.2781,-316.543"/>
<polygon fill="midnightblue" stroke="midnightblue" points="64.712,-309.084 54.2972,-311.029 63.6517,-316.004 64.712,-309.084"/>
</g>
<!-- Node7 -->
<g id="node7" class="node"><title>Node7</title>
<g id="a_node7"><a xlink:href="_c_d_a_q_2_plugins_2_source_2xml_parser_8cpp.xhtml#ad9a5c911a8e21bb89427d29d33e2797e" target="_top" xlink:title="myIsTextWideChar">
<polygon fill="white" stroke="black" points="274.5,-278.5 274.5,-297.5 375.5,-297.5 375.5,-278.5 274.5,-278.5"/>
<text text-anchor="middle" x="325" y="-285.5" font-family="Helvetica,sans-Serif" font-size="10.00">myIsTextWideChar</text>
</a>
</g>
</g>
<!-- Node1&#45;&gt;Node7 -->
<g id="edge8" class="edge"><title>Node1&#45;&gt;Node7</title>
<path fill="none" stroke="midnightblue" d="M64.228,-304.675C116.925,-301.292 214.897,-295.003 274.3,-291.19"/>
<polygon fill="midnightblue" stroke="midnightblue" points="63.7638,-301.197 54.0086,-305.331 64.2123,-308.183 63.7638,-301.197"/>
</g>
<!-- Node24 -->
<g id="node24" class="node"><title>Node24</title>
<g id="a_node24"><a xlink:href="_c_d_a_q_2_plugins_2_source_2xml_parser_8cpp.xhtml#ad7ec02a171e7641c1d364d5d367199a3" target="_top" xlink:title="myWideCharToMultiByte">
<polygon fill="white" stroke="black" points="90,-240.5 90,-259.5 216,-259.5 216,-240.5 90,-240.5"/>
<text text-anchor="middle" x="153" y="-247.5" font-family="Helvetica,sans-Serif" font-size="10.00">myWideCharToMultiByte</text>
</a>
</g>
</g>
<!-- Node1&#45;&gt;Node24 -->
<g id="edge37" class="edge"><title>Node1&#45;&gt;Node24</title>
<path fill="none" stroke="midnightblue" d="M53.647,-292.461C64.6826,-286.438 77.8228,-279.573 90,-274 101.335,-268.812 114.141,-263.73 125.159,-259.588"/>
<polygon fill="midnightblue" stroke="midnightblue" points="51.6243,-289.58 44.5679,-297.483 55.0126,-295.705 51.6243,-289.58"/>
</g>
<!-- Node26 -->
<g id="node26" class="node"><title>Node26</title>
<g id="a_node26"><a xlink:href="struct_x_m_l_node.xhtml#a8e52198f258167cd796dae21f1ffc352" target="_top" xlink:title="XMLNode::nChildNode">
<polygon fill="white" stroke="black" points="94.5,-107.5 94.5,-126.5 211.5,-126.5 211.5,-107.5 94.5,-107.5"/>
<text text-anchor="middle" x="153" y="-114.5" font-family="Helvetica,sans-Serif" font-size="10.00">XMLNode::nChildNode</text>
</a>
</g>
</g>
<!-- Node1&#45;&gt;Node26 -->
<g id="edge42" class="edge"><title>Node1&#45;&gt;Node26</title>
<path fill="none" stroke="midnightblue" d="M32.4995,-287.393C40.1672,-257.349 58.1171,-199.284 90,-160 101.639,-145.659 119.265,-134.071 132.753,-126.554"/>
<polygon fill="midnightblue" stroke="midnightblue" points="29.0189,-286.894 30.0566,-297.438 35.8207,-288.548 29.0189,-286.894"/>
</g>
<!-- Node27 -->
<g id="node27" class="node"><title>Node27</title>
<g id="a_node27"><a xlink:href="struct_x_m_l_node.xhtml#acb95f4f00e4cf3756aac0e3a53765248" target="_top" xlink:title="XMLNode::parseString">
<polygon fill="white" stroke="black" points="267,-126.5 267,-145.5 383,-145.5 383,-126.5 267,-126.5"/>
<text text-anchor="middle" x="325" y="-133.5" font-family="Helvetica,sans-Serif" font-size="10.00">XMLNode::parseString</text>
</a>
</g>
</g>
<!-- Node1&#45;&gt;Node27 -->
<g id="edge48" class="edge"><title>Node1&#45;&gt;Node27</title>
<path fill="none" stroke="midnightblue" d="M39.1083,-288.93C50.2322,-272.075 68.7224,-247.168 90,-231 149.522,-185.772 233.556,-158.649 283.048,-145.577"/>
<polygon fill="midnightblue" stroke="midnightblue" points="36.1566,-287.049 33.7153,-297.359 42.053,-290.822 36.1566,-287.049"/>
</g>
<!-- Node5 -->
<g id="node5" class="node"><title>Node5</title>
<g id="a_node5"><a xlink:href="_p_d_a_q_2_core_2_source_2xml_parser_8cpp.xhtml#a9a625f17c09a36e3ad532cdf16072609" target="_top" xlink:title="charmemset">
<polygon fill="white" stroke="black" points="1001.5,-430.5 1001.5,-449.5 1072.5,-449.5 1072.5,-430.5 1001.5,-430.5"/>
<text text-anchor="middle" x="1037" y="-437.5" font-family="Helvetica,sans-Serif" font-size="10.00">charmemset</text>
</a>
</g>
</g>
<!-- Node4&#45;&gt;Node5 -->
<g id="edge4" class="edge"><title>Node4&#45;&gt;Node5</title>
<path fill="none" stroke="midnightblue" d="M408.069,-528.13C529.466,-538.834 762.722,-548.608 950,-492 979.227,-483.165 1008.68,-462.11 1024.4,-449.67"/>
<polygon fill="midnightblue" stroke="midnightblue" points="408.375,-524.643 398.1,-527.226 407.743,-531.615 408.375,-524.643"/>
</g>
<!-- Node6&#45;&gt;Node4 -->
<g id="edge6" class="edge"><title>Node6&#45;&gt;Node4</title>
<path fill="none" stroke="midnightblue" d="M204.042,-340.224C208.486,-342.938 212.586,-346.165 216,-350 258.435,-397.663 210.175,-440.801 252,-489 257.325,-495.137 264.109,-500.045 271.376,-503.963"/>
<polygon fill="midnightblue" stroke="midnightblue" points="205.649,-337.115 195.162,-335.611 202.422,-343.327 205.649,-337.115"/>
</g>
<!-- Node6&#45;&gt;Node5 -->
<g id="edge7" class="edge"><title>Node6&#45;&gt;Node5</title>
<path fill="none" stroke="midnightblue" d="M205.9,-338.089C209.33,-339.032 212.721,-340.005 216,-341 314.762,-370.961 334.588,-393.27 434,-421 588.362,-464.057 631.771,-461.14 792,-464 862.211,-465.253 880.427,-473.526 950,-464 970.119,-461.245 992.167,-455.025 1008.9,-449.608"/>
<polygon fill="midnightblue" stroke="midnightblue" points="206.76,-334.697 196.197,-335.522 204.969,-341.464 206.76,-334.697"/>
</g>
<!-- Node7&#45;&gt;Node5 -->
<g id="edge9" class="edge"><title>Node7&#45;&gt;Node5</title>
<path fill="none" stroke="midnightblue" d="M339.963,-305.57C358.731,-327.787 394.354,-365.272 434,-383 633.339,-472.137 906.166,-454.055 1001.47,-444.141"/>
<polygon fill="midnightblue" stroke="midnightblue" points="342.468,-303.107 333.409,-297.612 337.064,-307.557 342.468,-303.107"/>
</g>
<!-- Node8 -->
<g id="node8" class="node"><title>Node8</title>
<g id="a_node8"><a xlink:href="_p_d_a_q_2_core_2_source_2xml_parser_8cpp.xhtml#ae6aa5a367ab3cc92b47fd92f81add72a" target="_top" xlink:title="CountLinesAndColumns">
<polygon fill="white" stroke="black" points="629,-164.5 629,-183.5 751,-183.5 751,-164.5 629,-164.5"/>
<text text-anchor="middle" x="690" y="-171.5" font-family="Helvetica,sans-Serif" font-size="10.00">CountLinesAndColumns</text>
</a>
</g>
</g>
<!-- Node7&#45;&gt;Node8 -->
<g id="edge10" class="edge"><title>Node7&#45;&gt;Node8</title>
<path fill="none" stroke="midnightblue" d="M385.396,-276.997C457.149,-263.408 570.475,-240.879 588,-231 608.266,-219.576 604.147,-205.128 624,-193 630.321,-189.139 637.467,-186.027 644.65,-183.53"/>
<polygon fill="midnightblue" stroke="midnightblue" points="384.739,-273.559 375.562,-278.853 386.037,-280.438 384.739,-273.559"/>
</g>
<!-- Node9 -->
<g id="node9" class="node"><title>Node9</title>
<g id="a_node9"><a xlink:href="struct_x_m_l_node.xhtml#a4496629c7a268db5435946c7bdd4eb28" target="_top" xlink:title="XMLNode::getError">
<polygon fill="white" stroke="black" points="460.5,-278.5 460.5,-297.5 561.5,-297.5 561.5,-278.5 460.5,-278.5"/>
<text text-anchor="middle" x="511" y="-285.5" font-family="Helvetica,sans-Serif" font-size="10.00">XMLNode::getError</text>
</a>
</g>
</g>
<!-- Node7&#45;&gt;Node9 -->
<g id="edge11" class="edge"><title>Node7&#45;&gt;Node9</title>
<path fill="none" stroke="midnightblue" d="M385.903,-288C410.029,-288 437.52,-288 460.486,-288"/>
<polygon fill="midnightblue" stroke="midnightblue" points="385.793,-284.5 375.793,-288 385.793,-291.5 385.793,-284.5"/>
</g>
<!-- Node19 -->
<g id="node19" class="node"><title>Node19</title>
<g id="a_node19"><a xlink:href="_p_d_a_q_2_core_2_source_2xml_parser_8cpp.xhtml#ad9a5c911a8e21bb89427d29d33e2797e" target="_top" xlink:title="myIsTextWideChar">
<polygon fill="white" stroke="black" points="986.5,-297.5 986.5,-316.5 1087.5,-316.5 1087.5,-297.5 986.5,-297.5"/>
<text text-anchor="middle" x="1037" y="-304.5" font-family="Helvetica,sans-Serif" font-size="10.00">myIsTextWideChar</text>
</a>
</g>
</g>
<!-- Node7&#45;&gt;Node19 -->
<g id="edge32" class="edge"><title>Node7&#45;&gt;Node19</title>
<path fill="none" stroke="midnightblue" d="M379.799,-299.364C397.029,-302.492 416.243,-305.45 434,-307 638.331,-324.837 883.163,-315.326 986.319,-309.915"/>
<polygon fill="midnightblue" stroke="midnightblue" points="380.383,-295.913 369.909,-297.512 379.094,-302.793 380.383,-295.913"/>
</g>
<!-- Node22 -->
<g id="node22" class="node"><title>Node22</title>
<g id="a_node22"><a xlink:href="struct_x_m_l_node.xhtml#ac7af7e3bab8d21722dd4f191a4aa7c1d" target="_top" xlink:title="XMLNode::guessCharEncoding">
<polygon fill="white" stroke="black" points="434,-354.5 434,-373.5 588,-373.5 588,-354.5 434,-354.5"/>
<text text-anchor="middle" x="511" y="-361.5" font-family="Helvetica,sans-Serif" font-size="10.00">XMLNode::guessCharEncoding</text>
</a>
</g>
</g>
<!-- Node7&#45;&gt;Node22 -->
<g id="edge28" class="edge"><title>Node7&#45;&gt;Node22</title>
<path fill="none" stroke="midnightblue" d="M352.887,-302.273C374.452,-313.395 405.688,-328.78 434,-340 447.507,-345.353 462.719,-350.352 475.966,-354.387"/>
<polygon fill="midnightblue" stroke="midnightblue" points="354.476,-299.155 343.99,-297.643 351.245,-305.364 354.476,-299.155"/>
</g>
<!-- Node23 -->
<g id="node23" class="node"><title>Node23</title>
<g id="a_node23"><a xlink:href="struct_x_m_l_node.xhtml#a5e5968e052d58350918cd91e3535624b" target="_top" xlink:title="XMLNode::parseFile">
<polygon fill="white" stroke="black" points="458,-202.5 458,-221.5 564,-221.5 564,-202.5 458,-202.5"/>
<text text-anchor="middle" x="511" y="-209.5" font-family="Helvetica,sans-Serif" font-size="10.00">XMLNode::parseFile</text>
</a>
</g>
</g>
<!-- Node7&#45;&gt;Node23 -->
<g id="edge33" class="edge"><title>Node7&#45;&gt;Node23</title>
<path fill="none" stroke="midnightblue" d="M372.005,-275.262C380.861,-272.093 389.895,-268.338 398,-264 415.871,-254.436 416.053,-245.422 434,-236 445.393,-230.018 458.539,-225.215 470.659,-221.524"/>
<polygon fill="midnightblue" stroke="midnightblue" points="370.87,-271.951 362.518,-278.471 373.112,-278.583 370.87,-271.951"/>
</g>
<!-- Node10 -->
<g id="node10" class="node"><title>Node10</title>
<g id="a_node10"><a xlink:href="struct_x_m_l_node.xhtml#acc044148e2b9b8264a320b7b6e398158" target="_top" xlink:title="XMLNode::openFileHelper">
<polygon fill="white" stroke="black" points="624.5,-202.5 624.5,-221.5 755.5,-221.5 755.5,-202.5 624.5,-202.5"/>
<text text-anchor="middle" x="690" y="-209.5" font-family="Helvetica,sans-Serif" font-size="10.00">XMLNode::openFileHelper</text>
</a>
</g>
</g>
<!-- Node9&#45;&gt;Node10 -->
<g id="edge12" class="edge"><title>Node9&#45;&gt;Node10</title>
<path fill="none" stroke="midnightblue" d="M556.334,-275.392C566.839,-272.023 577.917,-268.153 588,-264 618.819,-251.307 652.964,-232.711 672.612,-221.537"/>
<polygon fill="midnightblue" stroke="midnightblue" points="554.995,-272.143 546.49,-278.46 557.078,-278.826 554.995,-272.143"/>
</g>
<!-- Node18 -->
<g id="node18" class="node"><title>Node18</title>
<g id="a_node18"><a xlink:href="_p_d_a_q_2_core_2_source_2xml_parser_8cpp.xhtml#af77e3e2685487b9c492b20c36f3b864a" target="_top" xlink:title="_strnicmp">
<polygon fill="white" stroke="black" points="841.5,-278.5 841.5,-297.5 900.5,-297.5 900.5,-278.5 841.5,-278.5"/>
<text text-anchor="middle" x="871" y="-285.5" font-family="Helvetica,sans-Serif" font-size="10.00">_strnicmp</text>
</a>
</g>
</g>
<!-- Node9&#45;&gt;Node18 -->
<g id="edge27" class="edge"><title>Node9&#45;&gt;Node18</title>
<path fill="none" stroke="midnightblue" d="M571.943,-288C649.978,-288 783.245,-288 841.421,-288"/>
<polygon fill="midnightblue" stroke="midnightblue" points="571.778,-284.5 561.778,-288 571.778,-291.5 571.778,-284.5"/>
</g>
<!-- Node11 -->
<g id="node11" class="node"><title>Node11</title>
<g id="a_node11"><a xlink:href="class_a_d_c_manager1720.xhtml#aae342ccd8bf1c253c455e195bfd82dfe" target="_top" xlink:title="ADCManager1720::Init">
<polygon fill="white" stroke="black" points="813,-202.5 813,-221.5 929,-221.5 929,-202.5 813,-202.5"/>
<text text-anchor="middle" x="871" y="-209.5" font-family="Helvetica,sans-Serif" font-size="10.00">ADCManager1720::Init</text>
</a>
</g>
</g>
<!-- Node10&#45;&gt;Node11 -->
<g id="edge13" class="edge"><title>Node10&#45;&gt;Node11</title>
<path fill="none" stroke="midnightblue" d="M765.85,-212C781.58,-212 797.93,-212 812.887,-212"/>
<polygon fill="midnightblue" stroke="midnightblue" points="765.623,-208.5 755.623,-212 765.623,-215.5 765.623,-208.5"/>
</g>
<!-- Node12 -->
<g id="node12" class="node"><title>Node12</title>
<g id="a_node12"><a xlink:href="class_a_d_c_manager1724.xhtml#a6de2521b9c793edcf14aeaeefeb62787" target="_top" xlink:title="ADCManager1724::Init">
<polygon fill="white" stroke="black" points="813,-164.5 813,-183.5 929,-183.5 929,-164.5 813,-164.5"/>
<text text-anchor="middle" x="871" y="-171.5" font-family="Helvetica,sans-Serif" font-size="10.00">ADCManager1724::Init</text>
</a>
</g>
</g>
<!-- Node10&#45;&gt;Node12 -->
<g id="edge14" class="edge"><title>Node10&#45;&gt;Node12</title>
<path fill="none" stroke="midnightblue" d="M746.024,-200.319C771.408,-194.93 801.161,-188.614 825.156,-183.52"/>
<polygon fill="midnightblue" stroke="midnightblue" points="745.224,-196.911 736.169,-202.411 746.678,-203.758 745.224,-196.911"/>
</g>
<!-- Node13 -->
<g id="node13" class="node"><title>Node13</title>
<g id="a_node13"><a xlink:href="class_a_d_c_manager1730.xhtml#adb6d45f2024f4a52d366a88d1c7f229d" target="_top" xlink:title="ADCManager1730::Init">
<polygon fill="white" stroke="black" points="813,-88.5 813,-107.5 929,-107.5 929,-88.5 813,-88.5"/>
<text text-anchor="middle" x="871" y="-95.5" font-family="Helvetica,sans-Serif" font-size="10.00">ADCManager1730::Init</text>
</a>
</g>
</g>
<!-- Node10&#45;&gt;Node13 -->
<g id="edge15" class="edge"><title>Node10&#45;&gt;Node13</title>
<path fill="none" stroke="midnightblue" d="M749.616,-197.664C751.863,-196.253 754.004,-194.703 756,-193 784.432,-168.739 763.024,-140.608 792,-117 798.051,-112.07 805.187,-108.388 812.644,-105.643"/>
<polygon fill="midnightblue" stroke="midnightblue" points="747.737,-194.698 740.514,-202.449 750.994,-200.894 747.737,-194.698"/>
</g>
<!-- Node14 -->
<g id="node14" class="node"><title>Node14</title>
<g id="a_node14"><a xlink:href="class_scope_manager.xhtml#abe246d1b817d85a9cba7af3441a4df04" target="_top" xlink:title="ScopeManager::ShowEvent">
<polygon fill="white" stroke="black" points="802,-126.5 802,-145.5 940,-145.5 940,-126.5 802,-126.5"/>
<text text-anchor="middle" x="871" y="-133.5" font-family="Helvetica,sans-Serif" font-size="10.00">ScopeManager::ShowEvent</text>
</a>
</g>
</g>
<!-- Node10&#45;&gt;Node14 -->
<g id="edge16" class="edge"><title>Node10&#45;&gt;Node14</title>
<path fill="none" stroke="midnightblue" d="M744.691,-198.828C748.628,-197.107 752.445,-195.172 756,-193 775.853,-180.872 771.877,-166.674 792,-155 798.631,-151.153 806.013,-148.083 813.517,-145.632"/>
<polygon fill="midnightblue" stroke="midnightblue" points="743.396,-195.576 735.35,-202.47 745.939,-202.098 743.396,-195.576"/>
</g>
<!-- Node16 -->
<g id="node16" class="node"><title>Node16</title>
<g id="a_node16"><a xlink:href="class_slowcontrol_manager.xhtml#a36ab5157f5a740b9058517b77d1ce38f" target="_top" xlink:title="SlowcontrolManager\l::ShowStatus">
<polygon fill="white" stroke="black" points="818.5,-39 818.5,-69 923.5,-69 923.5,-39 818.5,-39"/>
<text text-anchor="start" x="826.5" y="-57" font-family="Helvetica,sans-Serif" font-size="10.00">SlowcontrolManager</text>
<text text-anchor="middle" x="871" y="-46" font-family="Helvetica,sans-Serif" font-size="10.00">::ShowStatus</text>
</a>
</g>
</g>
<!-- Node10&#45;&gt;Node16 -->
<g id="edge18" class="edge"><title>Node10&#45;&gt;Node16</title>
<path fill="none" stroke="midnightblue" d="M751.266,-197.028C752.934,-195.789 754.519,-194.449 756,-193 793.972,-155.835 754.51,-116.651 792,-79 799.224,-71.7447 808.555,-66.593 818.235,-62.9355"/>
<polygon fill="midnightblue" stroke="midnightblue" points="749.091,-194.253 742.335,-202.415 752.706,-200.247 749.091,-194.253"/>
</g>
<!-- Node17 -->
<g id="node17" class="node"><title>Node17</title>
<g id="a_node17"><a xlink:href="class_storage_manager.xhtml#ab16a945d003852d02556daf3610a9aac" target="_top" xlink:title="StorageManager::SaveContainer">
<polygon fill="white" stroke="black" points="792,-240.5 792,-259.5 950,-259.5 950,-240.5 792,-240.5"/>
<text text-anchor="middle" x="871" y="-247.5" font-family="Helvetica,sans-Serif" font-size="10.00">StorageManager::SaveContainer</text>
</a>
</g>
</g>
<!-- Node10&#45;&gt;Node17 -->
<g id="edge20" class="edge"><title>Node10&#45;&gt;Node17</title>
<path fill="none" stroke="midnightblue" d="M746.024,-223.681C771.408,-229.07 801.161,-235.386 825.156,-240.48"/>
<polygon fill="midnightblue" stroke="midnightblue" points="746.678,-220.242 736.169,-221.589 745.224,-227.089 746.678,-220.242"/>
</g>
<!-- Node10&#45;&gt;Node18 -->
<g id="edge22" class="edge"><title>Node10&#45;&gt;Node18</title>
<path fill="none" stroke="midnightblue" d="M734.034,-225.19C741.598,-228.257 749.213,-231.859 756,-236 774.529,-247.305 772.853,-258.777 792,-269 807.245,-277.14 826.022,-281.853 841.332,-284.548"/>
<polygon fill="midnightblue" stroke="midnightblue" points="735.139,-221.866 724.548,-221.594 732.658,-228.412 735.139,-221.866"/>
</g>
<!-- Node20 -->
<g id="node20" class="node"><title>Node20</title>
<g id="a_node20"><a xlink:href="_p_d_a_q_2_core_2_source_2xml_8cpp.xhtml#a8251b051736c5146c1985edc6cb357e6" target="_top" xlink:title="xml_readsettings">
<polygon fill="white" stroke="black" points="825.5,-0.5 825.5,-19.5 916.5,-19.5 916.5,-0.5 825.5,-0.5"/>
<text text-anchor="middle" x="871" y="-7.5" font-family="Helvetica,sans-Serif" font-size="10.00">xml_readsettings</text>
</a>
</g>
</g>
<!-- Node10&#45;&gt;Node20 -->
<g id="edge25" class="edge"><title>Node10&#45;&gt;Node20</title>
<path fill="none" stroke="midnightblue" d="M752.029,-196.72C753.43,-195.567 754.759,-194.329 756,-193 806.935,-138.462 739.839,-82.3668 792,-29 800.768,-20.0294 813.011,-15.0179 825.203,-12.2905"/>
<polygon fill="midnightblue" stroke="midnightblue" points="749.761,-194.022 743.321,-202.435 753.602,-199.874 749.761,-194.022"/>
</g>
<!-- Node15 -->
<g id="node15" class="node"><title>Node15</title>
<g id="a_node15"><a xlink:href="_multi_d_a_q_8cpp.xhtml#adedb285b02c41bde2158ded9cc9fd7ac" target="_top" xlink:title="main">
<polygon fill="white" stroke="black" points="1018,-126.5 1018,-145.5 1056,-145.5 1056,-126.5 1018,-126.5"/>
<text text-anchor="middle" x="1037" y="-133.5" font-family="Helvetica,sans-Serif" font-size="10.00">main</text>
</a>
</g>
</g>
<!-- Node14&#45;&gt;Node15 -->
<g id="edge17" class="edge"><title>Node14&#45;&gt;Node15</title>
<path fill="none" stroke="midnightblue" d="M950.16,-136C975.477,-136 1001.28,-136 1017.9,-136"/>
<polygon fill="midnightblue" stroke="midnightblue" points="950.126,-132.5 940.126,-136 950.126,-139.5 950.126,-132.5"/>
</g>
<!-- Node16&#45;&gt;Node15 -->
<g id="edge19" class="edge"><title>Node16&#45;&gt;Node15</title>
<path fill="none" stroke="midnightblue" d="M933.253,-71.8386C938.997,-74.0454 944.662,-76.4364 950,-79 978.095,-92.4933 1007.73,-113.977 1023.83,-126.355"/>
<polygon fill="midnightblue" stroke="midnightblue" points="934.148,-68.4395 923.554,-68.3007 931.749,-75.0157 934.148,-68.4395"/>
</g>
<!-- Node17&#45;&gt;Node15 -->
<g id="edge21" class="edge"><title>Node17&#45;&gt;Node15</title>
<path fill="none" stroke="midnightblue" d="M938.489,-236.786C942.49,-235.085 946.362,-233.166 950,-231 987.467,-208.693 1017.97,-164.856 1030.22,-145.533"/>
<polygon fill="midnightblue" stroke="midnightblue" points="937.097,-233.57 928.973,-240.371 939.565,-240.121 937.097,-233.57"/>
</g>
<!-- Node18&#45;&gt;Node5 -->
<g id="edge24" class="edge"><title>Node18&#45;&gt;Node5</title>
<path fill="none" stroke="midnightblue" d="M889.683,-304.389C923.963,-336.161 998.483,-405.228 1025.74,-430.495"/>
<polygon fill="midnightblue" stroke="midnightblue" points="891.972,-301.739 882.259,-297.508 887.214,-306.873 891.972,-301.739"/>
</g>
<!-- Node18&#45;&gt;Node19 -->
<g id="edge23" class="edge"><title>Node18&#45;&gt;Node19</title>
<path fill="none" stroke="midnightblue" d="M910.784,-292.493C933.346,-295.107 962.018,-298.429 986.231,-301.234"/>
<polygon fill="midnightblue" stroke="midnightblue" points="910.903,-288.984 900.567,-291.31 910.097,-295.937 910.903,-288.984"/>
</g>
<!-- Node21 -->
<g id="node21" class="node"><title>Node21</title>
<g id="a_node21"><a xlink:href="_z_d_a_q_8cpp.xhtml#a0ddf1224851353fc92bfbff6f499fa97" target="_top" xlink:title="main">
<polygon fill="white" stroke="black" points="1018,-0.5 1018,-19.5 1056,-19.5 1056,-0.5 1018,-0.5"/>
<text text-anchor="middle" x="1037" y="-7.5" font-family="Helvetica,sans-Serif" font-size="10.00">main</text>
</a>
</g>
</g>
<!-- Node20&#45;&gt;Node21 -->
<g id="edge26" class="edge"><title>Node20&#45;&gt;Node21</title>
<path fill="none" stroke="midnightblue" d="M927.216,-10C958.646,-10 995.974,-10 1017.72,-10"/>
<polygon fill="midnightblue" stroke="midnightblue" points="926.814,-6.5001 916.814,-10 926.814,-13.5001 926.814,-6.5001"/>
</g>
<!-- Node22&#45;&gt;Node5 -->
<g id="edge31" class="edge"><title>Node22&#45;&gt;Node5</title>
<path fill="none" stroke="midnightblue" d="M592.79,-374.925C680.736,-386.936 825.477,-407.053 950,-426 966.899,-428.571 985.636,-431.6 1001.29,-434.182"/>
<polygon fill="midnightblue" stroke="midnightblue" points="592.997,-371.421 582.616,-373.537 592.051,-378.356 592.997,-371.421"/>
</g>
<!-- Node22&#45;&gt;Node10 -->
<g id="edge29" class="edge"><title>Node22&#45;&gt;Node10</title>
<path fill="none" stroke="midnightblue" d="M534.196,-348.354C549.626,-337.238 570.483,-321.729 588,-307 623.192,-277.41 662.093,-239.091 679.579,-221.54"/>
<polygon fill="midnightblue" stroke="midnightblue" points="531.905,-345.689 525.805,-354.352 535.976,-351.384 531.905,-345.689"/>
</g>
<!-- Node22&#45;&gt;Node18 -->
<g id="edge30" class="edge"><title>Node22&#45;&gt;Node18</title>
<path fill="none" stroke="midnightblue" d="M567.005,-352.323C644.255,-335.924 782.076,-306.665 841.472,-294.056"/>
<polygon fill="midnightblue" stroke="midnightblue" points="566.034,-348.951 556.978,-354.452 567.487,-355.799 566.034,-348.951"/>
</g>
<!-- Node23&#45;&gt;Node8 -->
<g id="edge36" class="edge"><title>Node23&#45;&gt;Node8</title>
<path fill="none" stroke="midnightblue" d="M566.742,-200.247C591.77,-194.874 621.035,-188.591 644.657,-183.52"/>
<polygon fill="midnightblue" stroke="midnightblue" points="565.707,-196.89 556.665,-202.411 567.176,-203.734 565.707,-196.89"/>
</g>
<!-- Node23&#45;&gt;Node10 -->
<g id="edge34" class="edge"><title>Node23&#45;&gt;Node10</title>
<path fill="none" stroke="midnightblue" d="M574.551,-212C590.696,-212 608.106,-212 624.355,-212"/>
<polygon fill="midnightblue" stroke="midnightblue" points="574.149,-208.5 564.149,-212 574.148,-215.5 574.149,-208.5"/>
</g>
<!-- Node23&#45;&gt;Node18 -->
<g id="edge35" class="edge"><title>Node23&#45;&gt;Node18</title>
<path fill="none" stroke="midnightblue" d="M567.005,-223.677C644.255,-240.076 782.076,-269.335 841.472,-281.944"/>
<polygon fill="midnightblue" stroke="midnightblue" points="567.487,-220.201 556.978,-221.548 566.034,-227.049 567.487,-220.201"/>
</g>
<!-- Node24&#45;&gt;Node7 -->
<g id="edge39" class="edge"><title>Node24&#45;&gt;Node7</title>
<path fill="none" stroke="midnightblue" d="M206.898,-261.824C230.865,-267.182 258.824,-273.431 281.41,-278.48"/>
<polygon fill="midnightblue" stroke="midnightblue" points="207.421,-258.355 196.898,-259.589 205.894,-265.186 207.421,-258.355"/>
</g>
<!-- Node24&#45;&gt;Node8 -->
<g id="edge38" class="edge"><title>Node24&#45;&gt;Node8</title>
<path fill="none" stroke="midnightblue" d="M179.43,-235.249C190.645,-228.74 203.982,-220.994 216,-214 232.009,-204.683 234.228,-198.222 252,-193 382.055,-154.789 543.205,-160.627 628.856,-167.664"/>
<polygon fill="midnightblue" stroke="midnightblue" points="177.477,-232.336 170.584,-240.383 180.99,-238.391 177.477,-232.336"/>
</g>
<!-- Node24&#45;&gt;Node23 -->
<g id="edge41" class="edge"><title>Node24&#45;&gt;Node23</title>
<path fill="none" stroke="midnightblue" d="M226.198,-246.094C274.855,-243.041 340.423,-238.111 398,-231 418.259,-228.498 440.443,-224.914 459.685,-221.531"/>
<polygon fill="midnightblue" stroke="midnightblue" points="225.846,-242.609 216.08,-246.718 226.277,-249.596 225.846,-242.609"/>
</g>
<!-- Node25 -->
<g id="node25" class="node"><title>Node25</title>
<g id="a_node25"><a xlink:href="_p_d_a_q_2_core_2_source_2xml_parser_8cpp.xhtml#ad7ec02a171e7641c1d364d5d367199a3" target="_top" xlink:title="myWideCharToMultiByte">
<polygon fill="white" stroke="black" points="262,-202.5 262,-221.5 388,-221.5 388,-202.5 262,-202.5"/>
<text text-anchor="middle" x="325" y="-209.5" font-family="Helvetica,sans-Serif" font-size="10.00">myWideCharToMultiByte</text>
</a>
</g>
</g>
<!-- Node24&#45;&gt;Node25 -->
<g id="edge40" class="edge"><title>Node24&#45;&gt;Node25</title>
<path fill="none" stroke="midnightblue" d="M206.898,-238.176C230.865,-232.818 258.824,-226.569 281.41,-221.52"/>
<polygon fill="midnightblue" stroke="midnightblue" points="205.894,-234.814 196.898,-240.411 207.421,-241.645 205.894,-234.814"/>
</g>
<!-- Node26&#45;&gt;Node8 -->
<g id="edge46" class="edge"><title>Node26&#45;&gt;Node8</title>
<path fill="none" stroke="midnightblue" d="M181.605,-103.122C200.807,-94.2699 227.295,-83.622 252,-79 414.934,-48.5164 610.046,-134.954 670.338,-164.494"/>
<polygon fill="midnightblue" stroke="midnightblue" points="180.078,-99.9721 172.54,-107.417 183.076,-106.298 180.078,-99.9721"/>
</g>
<!-- Node26&#45;&gt;Node27 -->
<g id="edge43" class="edge"><title>Node26&#45;&gt;Node27</title>
<path fill="none" stroke="midnightblue" d="M221.744,-124.571C236.669,-126.239 252.334,-127.99 266.794,-129.606"/>
<polygon fill="midnightblue" stroke="midnightblue" points="221.881,-121.065 211.554,-123.433 221.104,-128.022 221.881,-121.065"/>
</g>
<!-- Node28 -->
<g id="node28" class="node"><title>Node28</title>
<g id="a_node28"><a xlink:href="_x_d_a_q_2_core_2_source_2xml_8cpp.xhtml#a529bbf1c65c6dd055ba0620b7e7000ed" target="_top" xlink:title="xml_readsettings">
<polygon fill="white" stroke="black" points="279.5,-88.5 279.5,-107.5 370.5,-107.5 370.5,-88.5 279.5,-88.5"/>
<text text-anchor="middle" x="325" y="-95.5" font-family="Helvetica,sans-Serif" font-size="10.00">xml_readsettings</text>
</a>
</g>
</g>
<!-- Node26&#45;&gt;Node28 -->
<g id="edge47" class="edge"><title>Node26&#45;&gt;Node28</title>
<path fill="none" stroke="midnightblue" d="M221.581,-109.447C241.021,-107.274 261.731,-104.959 279.404,-102.984"/>
<polygon fill="midnightblue" stroke="midnightblue" points="221.104,-105.978 211.554,-110.567 221.881,-112.935 221.104,-105.978"/>
</g>
<!-- Node27&#45;&gt;Node8 -->
<g id="edge45" class="edge"><title>Node27&#45;&gt;Node8</title>
<path fill="none" stroke="midnightblue" d="M393.348,-141.305C446.32,-145.686 521.955,-152.402 588,-160 601.278,-161.528 615.509,-163.372 628.975,-165.213"/>
<polygon fill="midnightblue" stroke="midnightblue" points="393.318,-137.79 383.065,-140.46 392.745,-144.767 393.318,-137.79"/>
</g>
<!-- Node27&#45;&gt;Node23 -->
<g id="edge44" class="edge"><title>Node27&#45;&gt;Node23</title>
<path fill="none" stroke="midnightblue" d="M358.615,-149.471C395.461,-164.691 454.499,-189.076 486.885,-202.453"/>
<polygon fill="midnightblue" stroke="midnightblue" points="359.883,-146.208 349.304,-145.625 357.21,-152.678 359.883,-146.208"/>
</g>
</g>
</svg>
        <g id="navigator" transform="translate(0 0)" fill="#404254">
                <rect fill="#f2f5e9" fill-opacity="0.5" stroke="#606060" stroke-width=".5" x="0" y="0" width="60" height="60"/>
                <use id="zoomplus" xlink:href="#zoomPlus" x="17" y="9" onmousedown="handleZoom(evt,'in')"/>
                <use id="zoomminus" xlink:href="#zoomMin" x="42" y="9" onmousedown="handleZoom(evt,'out')"/>
                <use id="reset" xlink:href="#resetDef" x="30" y="36" onmousedown="handleReset()"/>
                <g id="arrowUp" xlink:href="#dirArrow" transform="translate(30 24)" onmousedown="handlePan(0,-1)">
                  <use xlink:href="#rim" fill="#404040">
                        <set attributeName="fill" to="#808080" begin="arrowUp.mouseover" end="arrowUp.mouseout"/>
                  </use>
                  <path fill="none" stroke="white" stroke-width="1.5" d="M0,-3.0v7 M-2.5,-0.5L0,-3.0L2.5,-0.5"/>
                </g>
                <g id="arrowRight" xlink:href="#dirArrow" transform="rotate(90) translate(36 -43)" onmousedown="handlePan(1,0)">
                  <use xlink:href="#rim" fill="#404040">
                        <set attributeName="fill" to="#808080" begin="arrowRight.mouseover" end="arrowRight.mouseout"/>
                  </use>
                  <path fill="none" stroke="white" stroke-width="1.5" d="M0,-3.0v7 M-2.5,-0.5L0,-3.0L2.5,-0.5"/>
                </g>
                <g id="arrowDown" xlink:href="#dirArrow" transform="rotate(180) translate(-30 -48)" onmousedown="handlePan(0,1)">
                  <use xlink:href="#rim" fill="#404040">
                        <set attributeName="fill" to="#808080" begin="arrowDown.mouseover" end="arrowDown.mouseout"/>
                  </use>
                  <path fill="none" stroke="white" stroke-width="1.5" d="M0,-3.0v7 M-2.5,-0.5L0,-3.0L2.5,-0.5"/>
                </g>
                <g id="arrowLeft" xlink:href="#dirArrow" transform="rotate(270) translate(-36 17)" onmousedown="handlePan(-1,0)">
                  <use xlink:href="#rim" fill="#404040">
                        <set attributeName="fill" to="#808080" begin="arrowLeft.mouseover" end="arrowLeft.mouseout"/>
                  </use>
                  <path fill="none" stroke="white" stroke-width="1.5" d="M0,-3.0v7 M-2.5,-0.5L0,-3.0L2.5,-0.5"/>
                </g>
        </g>
        <svg viewBox="0 0 15 15" width="100%" height="30px" preserveAspectRatio="xMaxYMin meet">
         <g id="arrow_out" transform="scale(0.3 0.3)">
          <a xlink:href="_c_d_a_q_2_plugins_2_source_2xml_parser_8cpp_a2e64ea95685df2d289c31a50419b532d_icgraph_org.svg" target="_base">
           <rect id="button" ry="5" rx="5" y="6" x="6" height="38" width="38"
                fill="#f2f5e9" fill-opacity="0.5" stroke="#606060" stroke-width="1.0"/>
           <path id="arrow"
             d="M 11.500037,31.436501 C 11.940474,20.09759 22.043105,11.32322 32.158766,21.979434 L 37.068811,17.246167 C 37.068811,17.246167 37.088388,32 37.088388,32 L 22.160133,31.978069 C 22.160133,31.978069 26.997745,27.140456 26.997745,27.140456 C 18.528582,18.264221 13.291696,25.230495 11.500037,31.436501 z"
             style="fill:#404040;"/>
          </a>
         </g>
        </svg>
</svg>
