<?xml version="1.0" encoding="UTF-8" standalone="no"?>
<!DOCTYPE svg PUBLIC "-//W3C//DTD SVG 1.1//EN"
 "http://www.w3.org/Graphics/SVG/1.1/DTD/svg11.dtd">
<!-- Generated by graphviz version 2.36.0 (20140111.2315)
 -->
<!-- Title: mmin Pages: 1 -->
<svg width="878pt" height="458pt"
 viewBox="0.00 0.00 878.00 457.92" xmlns="http://www.w3.org/2000/svg" xmlns:xlink="http://www.w3.org/1999/xlink">
<g id="graph0" class="graph" transform="scale(1 1) rotate(0) translate(4 453.922)">
<title>mmin</title>
<polygon fill="white" stroke="none" points="-4,4 -4,-453.922 874,-453.922 874,4 -4,4"/>
<!-- Node1 -->
<g id="node1" class="node"><title>Node1</title>
<polygon fill="#bfbfbf" stroke="black" points="0.5,-181.422 0.5,-200.422 41.5,-200.422 41.5,-181.422 0.5,-181.422"/>
<text text-anchor="middle" x="21" y="-188.422" font-family="Helvetica,sans-Serif" font-size="10.00">mmin</text>
</g>
<!-- Node2 -->
<g id="node2" class="node"><title>Node2</title>
<g id="a_node2"><a xlink:href="_p_d_a_q_2_core_2_source_2xml_parser_8cpp.xhtml#a9a625f17c09a36e3ad532cdf16072609" target="_top" xlink:title="charmemset">
<polygon fill="white" stroke="black" points="783.5,-383.422 783.5,-402.422 854.5,-402.422 854.5,-383.422 783.5,-383.422"/>
<text text-anchor="middle" x="819" y="-390.422" font-family="Helvetica,sans-Serif" font-size="10.00">charmemset</text>
</a>
</g>
</g>
<!-- Node1&#45;&gt;Node2 -->
<g id="edge1" class="edge"><title>Node1&#45;&gt;Node2</title>
<path fill="none" stroke="midnightblue" d="M30.3207,-209.823C58.0089,-269.491 153.21,-449.922 292,-449.922 292,-449.922 292,-449.922 473,-449.922 588.041,-449.922 721.809,-418.689 783.543,-402.462"/>
<polygon fill="midnightblue" stroke="midnightblue" points="33.3863,-208.109 26.0687,-200.447 27.0112,-211 33.3863,-208.109"/>
</g>
<!-- Node3 -->
<g id="node3" class="node"><title>Node3</title>
<g id="a_node3"><a xlink:href="struct_x_m_l_node.xhtml#ac7af7e3bab8d21722dd4f191a4aa7c1d" target="_top" xlink:title="XMLNode::guessCharEncoding">
<polygon fill="white" stroke="black" points="216,-181.422 216,-200.422 370,-200.422 370,-181.422 216,-181.422"/>
<text text-anchor="middle" x="293" y="-188.422" font-family="Helvetica,sans-Serif" font-size="10.00">XMLNode::guessCharEncoding</text>
</a>
</g>
</g>
<!-- Node1&#45;&gt;Node3 -->
<g id="edge2" class="edge"><title>Node1&#45;&gt;Node3</title>
<path fill="none" stroke="midnightblue" d="M52.0751,-190.922C91.355,-190.922 161.511,-190.922 215.851,-190.922"/>
<polygon fill="midnightblue" stroke="midnightblue" points="51.8538,-187.422 41.8537,-190.922 51.8537,-194.422 51.8538,-187.422"/>
</g>
<!-- Node16 -->
<g id="node16" class="node"><title>Node16</title>
<g id="a_node16"><a xlink:href="_c_d_a_q_2_plugins_2_source_2xml_parser_8cpp.xhtml#ad9a5c911a8e21bb89427d29d33e2797e" target="_top" xlink:title="myIsTextWideChar">
<polygon fill="white" stroke="black" points="78.5,-143.422 78.5,-162.422 179.5,-162.422 179.5,-143.422 78.5,-143.422"/>
<text text-anchor="middle" x="129" y="-150.422" font-family="Helvetica,sans-Serif" font-size="10.00">myIsTextWideChar</text>
</a>
</g>
</g>
<!-- Node1&#45;&gt;Node16 -->
<g id="edge20" class="edge"><title>Node1&#45;&gt;Node16</title>
<path fill="none" stroke="midnightblue" d="M51.628,-180.3C67.2296,-174.707 86.21,-167.903 101.346,-162.477"/>
<polygon fill="midnightblue" stroke="midnightblue" points="50.1701,-177.105 41.9378,-183.774 52.5323,-183.694 50.1701,-177.105"/>
</g>
<!-- Node3&#45;&gt;Node2 -->
<g id="edge19" class="edge"><title>Node3&#45;&gt;Node2</title>
<path fill="none" stroke="midnightblue" d="M314.513,-206.665C359.035,-239.96 468.992,-317.52 574,-354.922 645.686,-380.455 735.266,-388.849 783.463,-391.596"/>
<polygon fill="midnightblue" stroke="midnightblue" points="316.356,-203.671 306.266,-200.441 312.14,-209.259 316.356,-203.671"/>
</g>
<!-- Node4 -->
<g id="node4" class="node"><title>Node4</title>
<g id="a_node4"><a xlink:href="struct_x_m_l_node.xhtml#acc044148e2b9b8264a320b7b6e398158" target="_top" xlink:title="XMLNode::openFileHelper">
<polygon fill="white" stroke="black" points="406.5,-200.422 406.5,-219.422 537.5,-219.422 537.5,-200.422 406.5,-200.422"/>
<text text-anchor="middle" x="472" y="-207.422" font-family="Helvetica,sans-Serif" font-size="10.00">XMLNode::openFileHelper</text>
</a>
</g>
</g>
<!-- Node3&#45;&gt;Node4 -->
<g id="edge3" class="edge"><title>Node3&#45;&gt;Node4</title>
<path fill="none" stroke="midnightblue" d="M380.058,-200.16C388.915,-201.11 397.804,-202.065 406.371,-202.984"/>
<polygon fill="midnightblue" stroke="midnightblue" points="380.408,-196.677 370.091,-199.09 379.66,-203.637 380.408,-196.677"/>
</g>
<!-- Node12 -->
<g id="node12" class="node"><title>Node12</title>
<g id="a_node12"><a xlink:href="_p_d_a_q_2_core_2_source_2xml_parser_8cpp.xhtml#af77e3e2685487b9c492b20c36f3b864a" target="_top" xlink:title="_strnicmp">
<polygon fill="white" stroke="black" points="623.5,-48.4218 623.5,-67.4218 682.5,-67.4218 682.5,-48.4218 623.5,-48.4218"/>
<text text-anchor="middle" x="653" y="-55.4218" font-family="Helvetica,sans-Serif" font-size="10.00">_strnicmp</text>
</a>
</g>
</g>
<!-- Node3&#45;&gt;Node12 -->
<g id="edge18" class="edge"><title>Node3&#45;&gt;Node12</title>
<path fill="none" stroke="midnightblue" d="M380.419,-186.827C430.354,-180.753 492.158,-166.544 538,-133.922 562.413,-116.549 549.67,-94.4095 574,-76.9218 588.373,-66.5908 607.682,-61.8341 623.492,-59.6634"/>
<polygon fill="midnightblue" stroke="midnightblue" points="379.822,-183.372 370.277,-187.969 380.606,-190.328 379.822,-183.372"/>
</g>
<!-- Node5 -->
<g id="node5" class="node"><title>Node5</title>
<g id="a_node5"><a xlink:href="class_a_d_c_manager1720.xhtml#aae342ccd8bf1c253c455e195bfd82dfe" target="_top" xlink:title="ADCManager1720::Init">
<polygon fill="white" stroke="black" points="595,-162.422 595,-181.422 711,-181.422 711,-162.422 595,-162.422"/>
<text text-anchor="middle" x="653" y="-169.422" font-family="Helvetica,sans-Serif" font-size="10.00">ADCManager1720::Init</text>
</a>
</g>
</g>
<!-- Node4&#45;&gt;Node5 -->
<g id="edge4" class="edge"><title>Node4&#45;&gt;Node5</title>
<path fill="none" stroke="midnightblue" d="M528.024,-198.241C553.408,-192.852 583.161,-186.536 607.156,-181.442"/>
<polygon fill="midnightblue" stroke="midnightblue" points="527.224,-194.832 518.169,-200.333 528.678,-201.68 527.224,-194.832"/>
</g>
<!-- Node6 -->
<g id="node6" class="node"><title>Node6</title>
<g id="a_node6"><a xlink:href="class_a_d_c_manager1724.xhtml#a6de2521b9c793edcf14aeaeefeb62787" target="_top" xlink:title="ADCManager1724::Init">
<polygon fill="white" stroke="black" points="595,-124.422 595,-143.422 711,-143.422 711,-124.422 595,-124.422"/>
<text text-anchor="middle" x="653" y="-131.422" font-family="Helvetica,sans-Serif" font-size="10.00">ADCManager1724::Init</text>
</a>
</g>
</g>
<!-- Node4&#45;&gt;Node6 -->
<g id="edge5" class="edge"><title>Node4&#45;&gt;Node6</title>
<path fill="none" stroke="midnightblue" d="M516.034,-196.731C523.598,-193.665 531.213,-190.063 538,-185.922 556.529,-174.617 554.853,-163.145 574,-152.922 581.254,-149.049 589.307,-145.951 597.406,-143.478"/>
<polygon fill="midnightblue" stroke="midnightblue" points="514.658,-193.51 506.548,-200.328 517.139,-200.055 514.658,-193.51"/>
</g>
<!-- Node7 -->
<g id="node7" class="node"><title>Node7</title>
<g id="a_node7"><a xlink:href="class_a_d_c_manager1730.xhtml#adb6d45f2024f4a52d366a88d1c7f229d" target="_top" xlink:title="ADCManager1730::Init">
<polygon fill="white" stroke="black" points="595,-238.422 595,-257.422 711,-257.422 711,-238.422 595,-238.422"/>
<text text-anchor="middle" x="653" y="-245.422" font-family="Helvetica,sans-Serif" font-size="10.00">ADCManager1730::Init</text>
</a>
</g>
</g>
<!-- Node4&#45;&gt;Node7 -->
<g id="edge6" class="edge"><title>Node4&#45;&gt;Node7</title>
<path fill="none" stroke="midnightblue" d="M528.024,-221.603C553.408,-226.992 583.161,-233.308 607.156,-238.402"/>
<polygon fill="midnightblue" stroke="midnightblue" points="528.678,-218.164 518.169,-219.511 527.224,-225.011 528.678,-218.164"/>
</g>
<!-- Node8 -->
<g id="node8" class="node"><title>Node8</title>
<g id="a_node8"><a xlink:href="class_scope_manager.xhtml#abe246d1b817d85a9cba7af3441a4df04" target="_top" xlink:title="ScopeManager::ShowEvent">
<polygon fill="white" stroke="black" points="584,-326.422 584,-345.422 722,-345.422 722,-326.422 584,-326.422"/>
<text text-anchor="middle" x="653" y="-333.422" font-family="Helvetica,sans-Serif" font-size="10.00">ScopeManager::ShowEvent</text>
</a>
</g>
</g>
<!-- Node4&#45;&gt;Node8 -->
<g id="edge7" class="edge"><title>Node4&#45;&gt;Node8</title>
<path fill="none" stroke="midnightblue" d="M485.212,-228.008C502.262,-251.83 535.477,-293.336 574,-315.922 581.357,-320.235 589.636,-323.628 597.981,-326.295"/>
<polygon fill="midnightblue" stroke="midnightblue" points="487.896,-225.738 479.302,-219.542 482.156,-229.745 487.896,-225.738"/>
</g>
<!-- Node10 -->
<g id="node10" class="node"><title>Node10</title>
<g id="a_node10"><a xlink:href="class_slowcontrol_manager.xhtml#a36ab5157f5a740b9058517b77d1ce38f" target="_top" xlink:title="SlowcontrolManager\l::ShowStatus">
<polygon fill="white" stroke="black" points="600.5,-276.922 600.5,-306.922 705.5,-306.922 705.5,-276.922 600.5,-276.922"/>
<text text-anchor="start" x="608.5" y="-294.922" font-family="Helvetica,sans-Serif" font-size="10.00">SlowcontrolManager</text>
<text text-anchor="middle" x="653" y="-283.922" font-family="Helvetica,sans-Serif" font-size="10.00">::ShowStatus</text>
</a>
</g>
</g>
<!-- Node4&#45;&gt;Node10 -->
<g id="edge9" class="edge"><title>Node4&#45;&gt;Node10</title>
<path fill="none" stroke="midnightblue" d="M496.636,-225.088C516.667,-237.489 546.446,-254.881 574,-266.922 582.339,-270.566 591.384,-273.951 600.26,-276.978"/>
<polygon fill="midnightblue" stroke="midnightblue" points="498.233,-221.958 487.901,-219.613 494.515,-227.89 498.233,-221.958"/>
</g>
<!-- Node11 -->
<g id="node11" class="node"><title>Node11</title>
<g id="a_node11"><a xlink:href="class_storage_manager.xhtml#ab16a945d003852d02556daf3610a9aac" target="_top" xlink:title="StorageManager::SaveContainer">
<polygon fill="white" stroke="black" points="574,-200.422 574,-219.422 732,-219.422 732,-200.422 574,-200.422"/>
<text text-anchor="middle" x="653" y="-207.422" font-family="Helvetica,sans-Serif" font-size="10.00">StorageManager::SaveContainer</text>
</a>
</g>
</g>
<!-- Node4&#45;&gt;Node11 -->
<g id="edge11" class="edge"><title>Node4&#45;&gt;Node11</title>
<path fill="none" stroke="midnightblue" d="M547.636,-209.922C556.256,-209.922 565.065,-209.922 573.732,-209.922"/>
<polygon fill="midnightblue" stroke="midnightblue" points="547.623,-206.422 537.623,-209.922 547.623,-213.422 547.623,-206.422"/>
</g>
<!-- Node4&#45;&gt;Node12 -->
<g id="edge13" class="edge"><title>Node4&#45;&gt;Node12</title>
<path fill="none" stroke="midnightblue" d="M524.817,-195.935C529.669,-193.172 534.187,-189.869 538,-185.922 573.444,-149.226 536.51,-111.525 574,-76.9218 587.212,-64.7273 606.915,-59.9981 623.212,-58.3069"/>
<polygon fill="midnightblue" stroke="midnightblue" points="523.248,-192.806 515.806,-200.346 526.326,-199.093 523.248,-192.806"/>
</g>
<!-- Node14 -->
<g id="node14" class="node"><title>Node14</title>
<g id="a_node14"><a xlink:href="_p_d_a_q_2_core_2_source_2xml_8cpp.xhtml#a8251b051736c5146c1985edc6cb357e6" target="_top" xlink:title="xml_readsettings">
<polygon fill="white" stroke="black" points="607.5,-86.4218 607.5,-105.422 698.5,-105.422 698.5,-86.4218 607.5,-86.4218"/>
<text text-anchor="middle" x="653" y="-93.4218" font-family="Helvetica,sans-Serif" font-size="10.00">xml_readsettings</text>
</a>
</g>
</g>
<!-- Node4&#45;&gt;Node14 -->
<g id="edge16" class="edge"><title>Node4&#45;&gt;Node14</title>
<path fill="none" stroke="midnightblue" d="M522.815,-196.076C528.298,-193.271 533.511,-189.92 538,-185.922 564.421,-162.391 546.273,-136.899 574,-114.922 583.503,-107.39 595.555,-102.783 607.327,-99.9825"/>
<polygon fill="midnightblue" stroke="midnightblue" points="521.1,-193.01 513.412,-200.299 523.968,-199.395 521.1,-193.01"/>
</g>
<!-- Node9 -->
<g id="node9" class="node"><title>Node9</title>
<g id="a_node9"><a xlink:href="_multi_d_a_q_8cpp.xhtml#adedb285b02c41bde2158ded9cc9fd7ac" target="_top" xlink:title="main">
<polygon fill="white" stroke="black" points="800,-282.422 800,-301.422 838,-301.422 838,-282.422 800,-282.422"/>
<text text-anchor="middle" x="819" y="-289.422" font-family="Helvetica,sans-Serif" font-size="10.00">main</text>
</a>
</g>
</g>
<!-- Node8&#45;&gt;Node9 -->
<g id="edge8" class="edge"><title>Node8&#45;&gt;Node9</title>
<path fill="none" stroke="midnightblue" d="M701.581,-323.892C711.636,-321.302 722.176,-318.552 732,-315.922 755.509,-309.628 782.528,-302.027 799.911,-297.09"/>
<polygon fill="midnightblue" stroke="midnightblue" points="700.549,-320.544 691.732,-326.418 702.288,-327.324 700.549,-320.544"/>
</g>
<!-- Node10&#45;&gt;Node9 -->
<g id="edge10" class="edge"><title>Node10&#45;&gt;Node9</title>
<path fill="none" stroke="midnightblue" d="M716.256,-291.922C746.076,-291.922 779.599,-291.922 799.744,-291.922"/>
<polygon fill="midnightblue" stroke="midnightblue" points="715.891,-288.422 705.891,-291.922 715.891,-295.422 715.891,-288.422"/>
</g>
<!-- Node11&#45;&gt;Node9 -->
<g id="edge12" class="edge"><title>Node11&#45;&gt;Node9</title>
<path fill="none" stroke="midnightblue" d="M715.413,-222.426C721.124,-224.318 726.738,-226.473 732,-228.922 762.204,-242.979 792.451,-268.414 807.748,-282.278"/>
<polygon fill="midnightblue" stroke="midnightblue" points="716.338,-219.049 705.752,-219.485 714.299,-225.746 716.338,-219.049"/>
</g>
<!-- Node12&#45;&gt;Node2 -->
<g id="edge15" class="edge"><title>Node12&#45;&gt;Node2</title>
<path fill="none" stroke="midnightblue" d="M692.906,-58.671C707.091,-60.9623 722.069,-66.0944 732,-76.9218 803.126,-154.466 731.909,-212.081 768,-310.922 778.294,-339.114 798.832,-368.201 810.118,-382.986"/>
<polygon fill="midnightblue" stroke="midnightblue" points="693.146,-55.1748 682.802,-57.4638 692.316,-62.1254 693.146,-55.1748"/>
</g>
<!-- Node13 -->
<g id="node13" class="node"><title>Node13</title>
<g id="a_node13"><a xlink:href="_p_d_a_q_2_core_2_source_2xml_parser_8cpp.xhtml#ad9a5c911a8e21bb89427d29d33e2797e" target="_top" xlink:title="myIsTextWideChar">
<polygon fill="white" stroke="black" points="768.5,-29.4218 768.5,-48.4218 869.5,-48.4218 869.5,-29.4218 768.5,-29.4218"/>
<text text-anchor="middle" x="819" y="-36.4218" font-family="Helvetica,sans-Serif" font-size="10.00">myIsTextWideChar</text>
</a>
</g>
</g>
<!-- Node12&#45;&gt;Node13 -->
<g id="edge14" class="edge"><title>Node12&#45;&gt;Node13</title>
<path fill="none" stroke="midnightblue" d="M692.784,-53.4285C715.346,-50.8147 744.018,-47.4929 768.231,-44.6877"/>
<polygon fill="midnightblue" stroke="midnightblue" points="692.097,-49.9846 682.567,-54.6122 692.903,-56.9381 692.097,-49.9846"/>
</g>
<!-- Node15 -->
<g id="node15" class="node"><title>Node15</title>
<g id="a_node15"><a xlink:href="_z_d_a_q_8cpp.xhtml#a0ddf1224851353fc92bfbff6f499fa97" target="_top" xlink:title="main">
<polygon fill="white" stroke="black" points="800,-86.4218 800,-105.422 838,-105.422 838,-86.4218 800,-86.4218"/>
<text text-anchor="middle" x="819" y="-93.4218" font-family="Helvetica,sans-Serif" font-size="10.00">main</text>
</a>
</g>
</g>
<!-- Node14&#45;&gt;Node15 -->
<g id="edge17" class="edge"><title>Node14&#45;&gt;Node15</title>
<path fill="none" stroke="midnightblue" d="M709.216,-95.9218C740.646,-95.9218 777.974,-95.9218 799.724,-95.9218"/>
<polygon fill="midnightblue" stroke="midnightblue" points="708.814,-92.4219 698.814,-95.9218 708.814,-99.4219 708.814,-92.4219"/>
</g>
<!-- Node16&#45;&gt;Node2 -->
<g id="edge31" class="edge"><title>Node16&#45;&gt;Node2</title>
<path fill="none" stroke="midnightblue" d="M149.966,-168.774C209.769,-215.006 394.437,-348.759 574,-385.922 647.246,-401.081 735.477,-398.664 783.213,-395.702"/>
<polygon fill="midnightblue" stroke="midnightblue" points="152.102,-166.001 142.064,-162.61 147.796,-171.521 152.102,-166.001"/>
</g>
<!-- Node16&#45;&gt;Node3 -->
<g id="edge28" class="edge"><title>Node16&#45;&gt;Node3</title>
<path fill="none" stroke="midnightblue" d="M180.715,-164.818C203.486,-170.159 229.987,-176.375 251.415,-181.402"/>
<polygon fill="midnightblue" stroke="midnightblue" points="181.415,-161.387 170.879,-162.511 179.816,-168.202 181.415,-161.387"/>
</g>
<!-- Node16&#45;&gt;Node13 -->
<g id="edge29" class="edge"><title>Node16&#45;&gt;Node13</title>
<path fill="none" stroke="midnightblue" d="M141.11,-134.472C155.418,-112.554 182.479,-76.835 216,-59.9218 406.701,36.2965 676.313,-7.65313 777.524,-29.3537"/>
<polygon fill="midnightblue" stroke="midnightblue" points="137.987,-132.864 135.616,-143.19 143.909,-136.596 137.987,-132.864"/>
</g>
<!-- Node17 -->
<g id="node17" class="node"><title>Node17</title>
<g id="a_node17"><a xlink:href="struct_x_m_l_node.xhtml#a4496629c7a268db5435946c7bdd4eb28" target="_top" xlink:title="XMLNode::getError">
<polygon fill="white" stroke="black" points="242.5,-143.422 242.5,-162.422 343.5,-162.422 343.5,-143.422 242.5,-143.422"/>
<text text-anchor="middle" x="293" y="-150.422" font-family="Helvetica,sans-Serif" font-size="10.00">XMLNode::getError</text>
</a>
</g>
</g>
<!-- Node16&#45;&gt;Node17 -->
<g id="edge21" class="edge"><title>Node16&#45;&gt;Node17</title>
<path fill="none" stroke="midnightblue" d="M190.367,-152.922C207.453,-152.922 225.852,-152.922 242.238,-152.922"/>
<polygon fill="midnightblue" stroke="midnightblue" points="189.927,-149.422 179.927,-152.922 189.927,-156.422 189.927,-149.422"/>
</g>
<!-- Node18 -->
<g id="node18" class="node"><title>Node18</title>
<g id="a_node18"><a xlink:href="struct_x_m_l_node.xhtml#a5e5968e052d58350918cd91e3535624b" target="_top" xlink:title="XMLNode::parseFile">
<polygon fill="white" stroke="black" points="240,-105.422 240,-124.422 346,-124.422 346,-105.422 240,-105.422"/>
<text text-anchor="middle" x="293" y="-112.422" font-family="Helvetica,sans-Serif" font-size="10.00">XMLNode::parseFile</text>
</a>
</g>
</g>
<!-- Node16&#45;&gt;Node18 -->
<g id="edge24" class="edge"><title>Node16&#45;&gt;Node18</title>
<path fill="none" stroke="midnightblue" d="M180.715,-141.026C203.486,-135.684 229.987,-129.468 251.415,-124.442"/>
<polygon fill="midnightblue" stroke="midnightblue" points="179.816,-137.642 170.879,-143.333 181.415,-144.457 179.816,-137.642"/>
</g>
<!-- Node19 -->
<g id="node19" class="node"><title>Node19</title>
<g id="a_node19"><a xlink:href="_p_d_a_q_2_core_2_source_2xml_parser_8cpp.xhtml#ae6aa5a367ab3cc92b47fd92f81add72a" target="_top" xlink:title="CountLinesAndColumns">
<polygon fill="white" stroke="black" points="411,-48.4218 411,-67.4218 533,-67.4218 533,-48.4218 411,-48.4218"/>
<text text-anchor="middle" x="472" y="-55.4218" font-family="Helvetica,sans-Serif" font-size="10.00">CountLinesAndColumns</text>
</a>
</g>
</g>
<!-- Node16&#45;&gt;Node19 -->
<g id="edge30" class="edge"><title>Node16&#45;&gt;Node19</title>
<path fill="none" stroke="midnightblue" d="M148.882,-136.842C165.458,-123.641 190.796,-105.6 216,-95.9218 279.722,-71.4535 358.015,-62.6521 410.907,-59.5349"/>
<polygon fill="midnightblue" stroke="midnightblue" points="146.588,-134.197 141.059,-143.234 151.017,-139.617 146.588,-134.197"/>
</g>
<!-- Node17&#45;&gt;Node4 -->
<g id="edge22" class="edge"><title>Node17&#45;&gt;Node4</title>
<path fill="none" stroke="midnightblue" d="M345.848,-165.036C353.975,-167.178 362.247,-169.503 370,-171.922 397.184,-180.403 427.694,-192.209 447.996,-200.402"/>
<polygon fill="midnightblue" stroke="midnightblue" points="346.609,-161.618 336.053,-162.519 344.867,-168.398 346.609,-161.618"/>
</g>
<!-- Node17&#45;&gt;Node12 -->
<g id="edge23" class="edge"><title>Node17&#45;&gt;Node12</title>
<path fill="none" stroke="midnightblue" d="M353.908,-146.562C404.501,-139.704 478.072,-126.187 538,-100.922 555.719,-93.4514 556.391,-84.648 574,-76.9218 589.699,-70.0338 608.318,-65.3786 623.428,-62.4007"/>
<polygon fill="midnightblue" stroke="midnightblue" points="353.252,-143.118 343.791,-147.886 354.16,-150.059 353.252,-143.118"/>
</g>
<!-- Node18&#45;&gt;Node4 -->
<g id="edge25" class="edge"><title>Node18&#45;&gt;Node4</title>
<path fill="none" stroke="midnightblue" d="M354.276,-127.588C359.695,-129.441 365.013,-131.543 370,-133.922 407.039,-151.587 443.858,-183.997 461.016,-200.185"/>
<polygon fill="midnightblue" stroke="midnightblue" points="355.053,-124.163 344.464,-124.514 352.961,-130.843 355.053,-124.163"/>
</g>
<!-- Node18&#45;&gt;Node12 -->
<g id="edge26" class="edge"><title>Node18&#45;&gt;Node12</title>
<path fill="none" stroke="midnightblue" d="M356.572,-105.365C405.88,-97.788 476.357,-86.8585 538,-76.9218 567.119,-72.2279 600.386,-66.6598 623.435,-62.7692"/>
<polygon fill="midnightblue" stroke="midnightblue" points="355.735,-101.952 346.382,-106.929 356.798,-108.871 355.735,-101.952"/>
</g>
<!-- Node18&#45;&gt;Node19 -->
<g id="edge27" class="edge"><title>Node18&#45;&gt;Node19</title>
<path fill="none" stroke="midnightblue" d="M334.187,-102.313C345.755,-98.6614 358.385,-94.6533 370,-90.9218 394.237,-83.1357 421.693,-74.1545 441.854,-67.5293"/>
<polygon fill="midnightblue" stroke="midnightblue" points="332.833,-99.07 324.347,-105.414 334.937,-105.746 332.833,-99.07"/>
</g>
</g>
</svg>
