<?xml version="1.0" encoding="UTF-8" standalone="no"?>
<!DOCTYPE svg PUBLIC "-//W3C//DTD SVG 1.1//EN"
 "http://www.w3.org/Graphics/SVG/1.1/DTD/svg11.dtd">
<!-- Generated by graphviz version 2.36.0 (20140111.2315)
 -->
<!-- Title: xstrstr Pages: 1 -->
<svg width="1066pt" height="437pt"
 viewBox="0.00 0.00 1066.00 436.92" xmlns="http://www.w3.org/2000/svg" xmlns:xlink="http://www.w3.org/1999/xlink">
<g id="graph0" class="graph" transform="scale(1 1) rotate(0) translate(4 432.918)">
<title>xstrstr</title>
<polygon fill="white" stroke="none" points="-4,4 -4,-432.918 1062,-432.918 1062,4 -4,4"/>
<!-- Node1 -->
<g id="node1" class="node"><title>Node1</title>
<polygon fill="#bfbfbf" stroke="black" points="0,-259.5 0,-278.5 44,-278.5 44,-259.5 0,-259.5"/>
<text text-anchor="middle" x="22" y="-266.5" font-family="Helvetica,sans-Serif" font-size="10.00">xstrstr</text>
</g>
<!-- Node2 -->
<g id="node2" class="node"><title>Node2</title>
<g id="a_node2"><a xlink:href="_c_d_a_q_2_plugins_2_source_2xml_parser_8cpp.xhtml#ad9a5c911a8e21bb89427d29d33e2797e" target="_top" xlink:title="myIsTextWideChar">
<polygon fill="white" stroke="black" points="254.5,-297.5 254.5,-316.5 355.5,-316.5 355.5,-297.5 254.5,-297.5"/>
<text text-anchor="middle" x="305" y="-304.5" font-family="Helvetica,sans-Serif" font-size="10.00">myIsTextWideChar</text>
</a>
</g>
</g>
<!-- Node1&#45;&gt;Node2 -->
<g id="edge1" class="edge"><title>Node1&#45;&gt;Node2</title>
<path fill="none" stroke="midnightblue" d="M53.5393,-280.66C61.9996,-283.481 71.2617,-286.2 80,-288 139.059,-300.168 208.419,-304.569 254.136,-306.146"/>
<polygon fill="midnightblue" stroke="midnightblue" points="54.6501,-277.34 44.0553,-277.348 52.3426,-283.949 54.6501,-277.34"/>
</g>
<!-- Node20 -->
<g id="node20" class="node"><title>Node20</title>
<g id="a_node20"><a xlink:href="_c_d_a_q_2_plugins_2_source_2xml_parser_8cpp.xhtml#a8415cb910267a0487e1003a34069d012" target="_top" xlink:title="myRealloc">
<polygon fill="white" stroke="black" points="111.5,-259.5 111.5,-278.5 174.5,-278.5 174.5,-259.5 111.5,-259.5"/>
<text text-anchor="middle" x="143" y="-266.5" font-family="Helvetica,sans-Serif" font-size="10.00">myRealloc</text>
</a>
</g>
</g>
<!-- Node1&#45;&gt;Node20 -->
<g id="edge30" class="edge"><title>Node1&#45;&gt;Node20</title>
<path fill="none" stroke="midnightblue" d="M54.343,-269C71.9667,-269 93.8739,-269 111.379,-269"/>
<polygon fill="midnightblue" stroke="midnightblue" points="54.0009,-265.5 44.0009,-269 54.0008,-272.5 54.0009,-265.5"/>
</g>
<!-- Node21 -->
<g id="node21" class="node"><title>Node21</title>
<g id="a_node21"><a xlink:href="_c_d_a_q_2_plugins_2_source_2xml_parser_8cpp.xhtml#ad7ec02a171e7641c1d364d5d367199a3" target="_top" xlink:title="myWideCharToMultiByte">
<polygon fill="white" stroke="black" points="80,-221.5 80,-240.5 206,-240.5 206,-221.5 80,-221.5"/>
<text text-anchor="middle" x="143" y="-228.5" font-family="Helvetica,sans-Serif" font-size="10.00">myWideCharToMultiByte</text>
</a>
</g>
</g>
<!-- Node1&#45;&gt;Node21 -->
<g id="edge31" class="edge"><title>Node1&#45;&gt;Node21</title>
<path fill="none" stroke="midnightblue" d="M53.6462,-258.632C62.1656,-255.791 71.4308,-252.741 80,-250 89.865,-246.845 100.647,-243.503 110.413,-240.517"/>
<polygon fill="midnightblue" stroke="midnightblue" points="52.444,-255.344 44.074,-261.839 54.6678,-261.981 52.444,-255.344"/>
</g>
<!-- Node3 -->
<g id="node3" class="node"><title>Node3</title>
<g id="a_node3"><a xlink:href="_p_d_a_q_2_core_2_source_2xml_parser_8cpp.xhtml#a9a625f17c09a36e3ad532cdf16072609" target="_top" xlink:title="charmemset">
<polygon fill="white" stroke="black" points="971.5,-316.5 971.5,-335.5 1042.5,-335.5 1042.5,-316.5 971.5,-316.5"/>
<text text-anchor="middle" x="1007" y="-323.5" font-family="Helvetica,sans-Serif" font-size="10.00">charmemset</text>
</a>
</g>
</g>
<!-- Node2&#45;&gt;Node3 -->
<g id="edge2" class="edge"><title>Node2&#45;&gt;Node3</title>
<path fill="none" stroke="midnightblue" d="M365.719,-308.621C507.178,-312.461 859.212,-322.016 971.205,-325.056"/>
<polygon fill="midnightblue" stroke="midnightblue" points="365.593,-305.116 355.502,-308.344 365.403,-312.114 365.593,-305.116"/>
</g>
<!-- Node4 -->
<g id="node4" class="node"><title>Node4</title>
<g id="a_node4"><a xlink:href="_p_d_a_q_2_core_2_source_2xml_parser_8cpp.xhtml#ae6aa5a367ab3cc92b47fd92f81add72a" target="_top" xlink:title="CountLinesAndColumns">
<polygon fill="white" stroke="black" points="599,-164.5 599,-183.5 721,-183.5 721,-164.5 599,-164.5"/>
<text text-anchor="middle" x="660" y="-171.5" font-family="Helvetica,sans-Serif" font-size="10.00">CountLinesAndColumns</text>
</a>
</g>
</g>
<!-- Node2&#45;&gt;Node4 -->
<g id="edge3" class="edge"><title>Node2&#45;&gt;Node4</title>
<path fill="none" stroke="midnightblue" d="M360.095,-293.121C362.872,-291.588 365.53,-289.887 368,-288 391.809,-269.809 379.505,-248.255 404,-231 434.92,-209.219 533.751,-191.629 598.904,-182.011"/>
<polygon fill="midnightblue" stroke="midnightblue" points="358.447,-290.029 350.904,-297.469 361.44,-296.356 358.447,-290.029"/>
</g>
<!-- Node5 -->
<g id="node5" class="node"><title>Node5</title>
<g id="a_node5"><a xlink:href="struct_x_m_l_node.xhtml#a4496629c7a268db5435946c7bdd4eb28" target="_top" xlink:title="XMLNode::getError">
<polygon fill="white" stroke="black" points="430.5,-278.5 430.5,-297.5 531.5,-297.5 531.5,-278.5 430.5,-278.5"/>
<text text-anchor="middle" x="481" y="-285.5" font-family="Helvetica,sans-Serif" font-size="10.00">XMLNode::getError</text>
</a>
</g>
</g>
<!-- Node2&#45;&gt;Node5 -->
<g id="edge4" class="edge"><title>Node2&#45;&gt;Node5</title>
<path fill="none" stroke="midnightblue" d="M365.97,-300.452C386.994,-298.156 410.356,-295.605 430.432,-293.413"/>
<polygon fill="midnightblue" stroke="midnightblue" points="365.422,-296.99 355.861,-301.555 366.182,-303.949 365.422,-296.99"/>
</g>
<!-- Node15 -->
<g id="node15" class="node"><title>Node15</title>
<g id="a_node15"><a xlink:href="_p_d_a_q_2_core_2_source_2xml_parser_8cpp.xhtml#ad9a5c911a8e21bb89427d29d33e2797e" target="_top" xlink:title="myIsTextWideChar">
<polygon fill="white" stroke="black" points="956.5,-392.5 956.5,-411.5 1057.5,-411.5 1057.5,-392.5 956.5,-392.5"/>
<text text-anchor="middle" x="1007" y="-399.5" font-family="Helvetica,sans-Serif" font-size="10.00">myIsTextWideChar</text>
</a>
</g>
</g>
<!-- Node2&#45;&gt;Node15 -->
<g id="edge25" class="edge"><title>Node2&#45;&gt;Node15</title>
<path fill="none" stroke="midnightblue" d="M321.23,-323.96C339.007,-342.402 370.296,-370.865 404,-383 598.308,-452.958 851.108,-426.282 956.499,-410.436"/>
<polygon fill="midnightblue" stroke="midnightblue" points="323.651,-321.425 314.262,-316.516 318.541,-326.209 323.651,-321.425"/>
</g>
<!-- Node18 -->
<g id="node18" class="node"><title>Node18</title>
<g id="a_node18"><a xlink:href="struct_x_m_l_node.xhtml#ac7af7e3bab8d21722dd4f191a4aa7c1d" target="_top" xlink:title="XMLNode::guessCharEncoding">
<polygon fill="white" stroke="black" points="404,-354.5 404,-373.5 558,-373.5 558,-354.5 404,-354.5"/>
<text text-anchor="middle" x="481" y="-361.5" font-family="Helvetica,sans-Serif" font-size="10.00">XMLNode::guessCharEncoding</text>
</a>
</g>
</g>
<!-- Node2&#45;&gt;Node18 -->
<g id="edge21" class="edge"><title>Node2&#45;&gt;Node18</title>
<path fill="none" stroke="midnightblue" d="M343.508,-319.816C361.738,-325.997 383.983,-333.47 404,-340 418.864,-344.849 435.414,-350.094 449.265,-354.44"/>
<polygon fill="midnightblue" stroke="midnightblue" points="344.428,-316.431 333.833,-316.529 342.176,-323.059 344.428,-316.431"/>
</g>
<!-- Node19 -->
<g id="node19" class="node"><title>Node19</title>
<g id="a_node19"><a xlink:href="struct_x_m_l_node.xhtml#a5e5968e052d58350918cd91e3535624b" target="_top" xlink:title="XMLNode::parseFile">
<polygon fill="white" stroke="black" points="428,-240.5 428,-259.5 534,-259.5 534,-240.5 428,-240.5"/>
<text text-anchor="middle" x="481" y="-247.5" font-family="Helvetica,sans-Serif" font-size="10.00">XMLNode::parseFile</text>
</a>
</g>
</g>
<!-- Node2&#45;&gt;Node19 -->
<g id="edge26" class="edge"><title>Node2&#45;&gt;Node19</title>
<path fill="none" stroke="midnightblue" d="M350.88,-294.348C356.7,-292.387 362.533,-290.257 368,-288 384.723,-281.097 387.102,-275.463 404,-269 413.527,-265.356 423.995,-262.217 434.035,-259.599"/>
<polygon fill="midnightblue" stroke="midnightblue" points="349.608,-291.081 341.165,-297.481 351.757,-297.743 349.608,-291.081"/>
</g>
<!-- Node6 -->
<g id="node6" class="node"><title>Node6</title>
<g id="a_node6"><a xlink:href="struct_x_m_l_node.xhtml#acc044148e2b9b8264a320b7b6e398158" target="_top" xlink:title="XMLNode::openFileHelper">
<polygon fill="white" stroke="black" points="594.5,-202.5 594.5,-221.5 725.5,-221.5 725.5,-202.5 594.5,-202.5"/>
<text text-anchor="middle" x="660" y="-209.5" font-family="Helvetica,sans-Serif" font-size="10.00">XMLNode::openFileHelper</text>
</a>
</g>
</g>
<!-- Node5&#45;&gt;Node6 -->
<g id="edge5" class="edge"><title>Node5&#45;&gt;Node6</title>
<path fill="none" stroke="midnightblue" d="M538.279,-275.75C545.011,-273.753 551.719,-271.504 558,-269 590.73,-255.951 625.909,-234.106 644.894,-221.589"/>
<polygon fill="midnightblue" stroke="midnightblue" points="537.134,-272.435 528.445,-278.497 539.018,-279.177 537.134,-272.435"/>
</g>
<!-- Node14 -->
<g id="node14" class="node"><title>Node14</title>
<g id="a_node14"><a xlink:href="_p_d_a_q_2_core_2_source_2xml_parser_8cpp.xhtml#af77e3e2685487b9c492b20c36f3b864a" target="_top" xlink:title="_strnicmp">
<polygon fill="white" stroke="black" points="811.5,-278.5 811.5,-297.5 870.5,-297.5 870.5,-278.5 811.5,-278.5"/>
<text text-anchor="middle" x="841" y="-285.5" font-family="Helvetica,sans-Serif" font-size="10.00">_strnicmp</text>
</a>
</g>
</g>
<!-- Node5&#45;&gt;Node14 -->
<g id="edge20" class="edge"><title>Node5&#45;&gt;Node14</title>
<path fill="none" stroke="midnightblue" d="M541.943,-288C619.978,-288 753.245,-288 811.421,-288"/>
<polygon fill="midnightblue" stroke="midnightblue" points="541.778,-284.5 531.778,-288 541.778,-291.5 541.778,-284.5"/>
</g>
<!-- Node7 -->
<g id="node7" class="node"><title>Node7</title>
<g id="a_node7"><a xlink:href="class_a_d_c_manager1720.xhtml#aae342ccd8bf1c253c455e195bfd82dfe" target="_top" xlink:title="ADCManager1720::Init">
<polygon fill="white" stroke="black" points="783,-202.5 783,-221.5 899,-221.5 899,-202.5 783,-202.5"/>
<text text-anchor="middle" x="841" y="-209.5" font-family="Helvetica,sans-Serif" font-size="10.00">ADCManager1720::Init</text>
</a>
</g>
</g>
<!-- Node6&#45;&gt;Node7 -->
<g id="edge6" class="edge"><title>Node6&#45;&gt;Node7</title>
<path fill="none" stroke="midnightblue" d="M735.85,-212C751.58,-212 767.93,-212 782.887,-212"/>
<polygon fill="midnightblue" stroke="midnightblue" points="735.623,-208.5 725.623,-212 735.623,-215.5 735.623,-208.5"/>
</g>
<!-- Node8 -->
<g id="node8" class="node"><title>Node8</title>
<g id="a_node8"><a xlink:href="class_a_d_c_manager1724.xhtml#a6de2521b9c793edcf14aeaeefeb62787" target="_top" xlink:title="ADCManager1724::Init">
<polygon fill="white" stroke="black" points="783,-164.5 783,-183.5 899,-183.5 899,-164.5 783,-164.5"/>
<text text-anchor="middle" x="841" y="-171.5" font-family="Helvetica,sans-Serif" font-size="10.00">ADCManager1724::Init</text>
</a>
</g>
</g>
<!-- Node6&#45;&gt;Node8 -->
<g id="edge7" class="edge"><title>Node6&#45;&gt;Node8</title>
<path fill="none" stroke="midnightblue" d="M716.024,-200.319C741.408,-194.93 771.161,-188.614 795.156,-183.52"/>
<polygon fill="midnightblue" stroke="midnightblue" points="715.224,-196.911 706.169,-202.411 716.678,-203.758 715.224,-196.911"/>
</g>
<!-- Node9 -->
<g id="node9" class="node"><title>Node9</title>
<g id="a_node9"><a xlink:href="class_a_d_c_manager1730.xhtml#adb6d45f2024f4a52d366a88d1c7f229d" target="_top" xlink:title="ADCManager1730::Init">
<polygon fill="white" stroke="black" points="783,-126.5 783,-145.5 899,-145.5 899,-126.5 783,-126.5"/>
<text text-anchor="middle" x="841" y="-133.5" font-family="Helvetica,sans-Serif" font-size="10.00">ADCManager1730::Init</text>
</a>
</g>
</g>
<!-- Node6&#45;&gt;Node9 -->
<g id="edge8" class="edge"><title>Node6&#45;&gt;Node9</title>
<path fill="none" stroke="midnightblue" d="M714.691,-198.828C718.628,-197.107 722.445,-195.172 726,-193 745.853,-180.872 741.877,-166.674 762,-155 768.631,-151.153 776.013,-148.083 783.517,-145.632"/>
<polygon fill="midnightblue" stroke="midnightblue" points="713.396,-195.576 705.35,-202.47 715.939,-202.098 713.396,-195.576"/>
</g>
<!-- Node10 -->
<g id="node10" class="node"><title>Node10</title>
<g id="a_node10"><a xlink:href="class_scope_manager.xhtml#abe246d1b817d85a9cba7af3441a4df04" target="_top" xlink:title="ScopeManager::ShowEvent">
<polygon fill="white" stroke="black" points="772,-88.5 772,-107.5 910,-107.5 910,-88.5 772,-88.5"/>
<text text-anchor="middle" x="841" y="-95.5" font-family="Helvetica,sans-Serif" font-size="10.00">ScopeManager::ShowEvent</text>
</a>
</g>
</g>
<!-- Node6&#45;&gt;Node10 -->
<g id="edge9" class="edge"><title>Node6&#45;&gt;Node10</title>
<path fill="none" stroke="midnightblue" d="M719.616,-197.664C721.863,-196.253 724.004,-194.703 726,-193 754.432,-168.739 733.024,-140.608 762,-117 766.754,-113.126 772.178,-110.023 777.902,-107.54"/>
<polygon fill="midnightblue" stroke="midnightblue" points="717.737,-194.698 710.514,-202.449 720.994,-200.894 717.737,-194.698"/>
</g>
<!-- Node12 -->
<g id="node12" class="node"><title>Node12</title>
<g id="a_node12"><a xlink:href="class_slowcontrol_manager.xhtml#a36ab5157f5a740b9058517b77d1ce38f" target="_top" xlink:title="SlowcontrolManager\l::ShowStatus">
<polygon fill="white" stroke="black" points="788.5,-39 788.5,-69 893.5,-69 893.5,-39 788.5,-39"/>
<text text-anchor="start" x="796.5" y="-57" font-family="Helvetica,sans-Serif" font-size="10.00">SlowcontrolManager</text>
<text text-anchor="middle" x="841" y="-46" font-family="Helvetica,sans-Serif" font-size="10.00">::ShowStatus</text>
</a>
</g>
</g>
<!-- Node6&#45;&gt;Node12 -->
<g id="edge11" class="edge"><title>Node6&#45;&gt;Node12</title>
<path fill="none" stroke="midnightblue" d="M721.266,-197.028C722.934,-195.789 724.519,-194.449 726,-193 763.972,-155.835 724.51,-116.651 762,-79 769.224,-71.7447 778.555,-66.593 788.235,-62.9355"/>
<polygon fill="midnightblue" stroke="midnightblue" points="719.091,-194.253 712.335,-202.415 722.706,-200.247 719.091,-194.253"/>
</g>
<!-- Node13 -->
<g id="node13" class="node"><title>Node13</title>
<g id="a_node13"><a xlink:href="class_storage_manager.xhtml#ab16a945d003852d02556daf3610a9aac" target="_top" xlink:title="StorageManager::SaveContainer">
<polygon fill="white" stroke="black" points="762,-0.5 762,-19.5 920,-19.5 920,-0.5 762,-0.5"/>
<text text-anchor="middle" x="841" y="-7.5" font-family="Helvetica,sans-Serif" font-size="10.00">StorageManager::SaveContainer</text>
</a>
</g>
</g>
<!-- Node6&#45;&gt;Node13 -->
<g id="edge13" class="edge"><title>Node6&#45;&gt;Node13</title>
<path fill="none" stroke="midnightblue" d="M722.029,-196.72C723.43,-195.567 724.759,-194.329 726,-193 776.935,-138.462 709.839,-82.3668 762,-29 765.702,-25.2124 770.024,-22.1306 774.699,-19.6285"/>
<polygon fill="midnightblue" stroke="midnightblue" points="719.761,-194.022 713.321,-202.435 723.602,-199.874 719.761,-194.022"/>
</g>
<!-- Node6&#45;&gt;Node14 -->
<g id="edge15" class="edge"><title>Node6&#45;&gt;Node14</title>
<path fill="none" stroke="midnightblue" d="M704.034,-225.19C711.598,-228.257 719.213,-231.859 726,-236 744.529,-247.305 742.853,-258.777 762,-269 777.245,-277.14 796.022,-281.853 811.332,-284.548"/>
<polygon fill="midnightblue" stroke="midnightblue" points="705.139,-221.866 694.548,-221.594 702.658,-228.412 705.139,-221.866"/>
</g>
<!-- Node16 -->
<g id="node16" class="node"><title>Node16</title>
<g id="a_node16"><a xlink:href="_p_d_a_q_2_core_2_source_2xml_8cpp.xhtml#a8251b051736c5146c1985edc6cb357e6" target="_top" xlink:title="xml_readsettings">
<polygon fill="white" stroke="black" points="795.5,-240.5 795.5,-259.5 886.5,-259.5 886.5,-240.5 795.5,-240.5"/>
<text text-anchor="middle" x="841" y="-247.5" font-family="Helvetica,sans-Serif" font-size="10.00">xml_readsettings</text>
</a>
</g>
</g>
<!-- Node6&#45;&gt;Node16 -->
<g id="edge18" class="edge"><title>Node6&#45;&gt;Node16</title>
<path fill="none" stroke="midnightblue" d="M716.062,-223.689C741.548,-229.099 771.429,-235.443 795.465,-240.546"/>
<polygon fill="midnightblue" stroke="midnightblue" points="716.678,-220.242 706.169,-221.589 715.224,-227.089 716.678,-220.242"/>
</g>
<!-- Node11 -->
<g id="node11" class="node"><title>Node11</title>
<g id="a_node11"><a xlink:href="_multi_d_a_q_8cpp.xhtml#adedb285b02c41bde2158ded9cc9fd7ac" target="_top" xlink:title="main">
<polygon fill="white" stroke="black" points="988,-44.5 988,-63.5 1026,-63.5 1026,-44.5 988,-44.5"/>
<text text-anchor="middle" x="1007" y="-51.5" font-family="Helvetica,sans-Serif" font-size="10.00">main</text>
</a>
</g>
</g>
<!-- Node10&#45;&gt;Node11 -->
<g id="edge10" class="edge"><title>Node10&#45;&gt;Node11</title>
<path fill="none" stroke="midnightblue" d="M889.581,-85.9704C899.636,-83.3804 910.176,-80.63 920,-78 943.509,-71.7065 970.528,-64.1056 987.911,-59.168"/>
<polygon fill="midnightblue" stroke="midnightblue" points="888.549,-82.6218 879.732,-88.4965 890.288,-89.4023 888.549,-82.6218"/>
</g>
<!-- Node12&#45;&gt;Node11 -->
<g id="edge12" class="edge"><title>Node12&#45;&gt;Node11</title>
<path fill="none" stroke="midnightblue" d="M904.256,-54C934.076,-54 967.599,-54 987.744,-54"/>
<polygon fill="midnightblue" stroke="midnightblue" points="903.891,-50.5001 893.891,-54 903.891,-57.5001 903.891,-50.5001"/>
</g>
<!-- Node13&#45;&gt;Node11 -->
<g id="edge14" class="edge"><title>Node13&#45;&gt;Node11</title>
<path fill="none" stroke="midnightblue" d="M892.394,-21.9314C901.596,-24.2078 911.1,-26.6236 920,-29 943.585,-35.2973 970.587,-43.2735 987.945,-48.5007"/>
<polygon fill="midnightblue" stroke="midnightblue" points="893.115,-18.5047 882.57,-19.5244 891.449,-25.3036 893.115,-18.5047"/>
</g>
<!-- Node14&#45;&gt;Node3 -->
<g id="edge17" class="edge"><title>Node14&#45;&gt;Node3</title>
<path fill="none" stroke="midnightblue" d="M880.605,-296.945C908.068,-303.308 944.653,-311.785 971.214,-317.94"/>
<polygon fill="midnightblue" stroke="midnightblue" points="881.099,-293.467 870.567,-294.619 879.518,-300.286 881.099,-293.467"/>
</g>
<!-- Node14&#45;&gt;Node15 -->
<g id="edge16" class="edge"><title>Node14&#45;&gt;Node15</title>
<path fill="none" stroke="midnightblue" d="M864.111,-303.37C898.411,-327.213 963.458,-372.428 991.991,-392.262"/>
<polygon fill="midnightblue" stroke="midnightblue" points="865.909,-300.357 855.7,-297.523 861.914,-306.105 865.909,-300.357"/>
</g>
<!-- Node17 -->
<g id="node17" class="node"><title>Node17</title>
<g id="a_node17"><a xlink:href="_z_d_a_q_8cpp.xhtml#a0ddf1224851353fc92bfbff6f499fa97" target="_top" xlink:title="main">
<polygon fill="white" stroke="black" points="988,-240.5 988,-259.5 1026,-259.5 1026,-240.5 988,-240.5"/>
<text text-anchor="middle" x="1007" y="-247.5" font-family="Helvetica,sans-Serif" font-size="10.00">main</text>
</a>
</g>
</g>
<!-- Node16&#45;&gt;Node17 -->
<g id="edge19" class="edge"><title>Node16&#45;&gt;Node17</title>
<path fill="none" stroke="midnightblue" d="M897.216,-250C928.646,-250 965.974,-250 987.724,-250"/>
<polygon fill="midnightblue" stroke="midnightblue" points="896.814,-246.5 886.814,-250 896.814,-253.5 896.814,-246.5"/>
</g>
<!-- Node18&#45;&gt;Node3 -->
<g id="edge24" class="edge"><title>Node18&#45;&gt;Node3</title>
<path fill="none" stroke="midnightblue" d="M568.421,-361.983C656.926,-359.279 798.377,-353.194 920,-340 936.994,-338.156 955.742,-335.213 971.384,-332.499"/>
<polygon fill="midnightblue" stroke="midnightblue" points="568.053,-358.492 558.162,-362.288 568.261,-365.489 568.053,-358.492"/>
</g>
<!-- Node18&#45;&gt;Node6 -->
<g id="edge22" class="edge"><title>Node18&#45;&gt;Node6</title>
<path fill="none" stroke="midnightblue" d="M504.196,-348.354C519.626,-337.238 540.483,-321.729 558,-307 593.192,-277.41 632.093,-239.091 649.579,-221.54"/>
<polygon fill="midnightblue" stroke="midnightblue" points="501.905,-345.689 495.805,-354.352 505.976,-351.384 501.905,-345.689"/>
</g>
<!-- Node18&#45;&gt;Node14 -->
<g id="edge23" class="edge"><title>Node18&#45;&gt;Node14</title>
<path fill="none" stroke="midnightblue" d="M537.005,-352.323C614.255,-335.924 752.076,-306.665 811.472,-294.056"/>
<polygon fill="midnightblue" stroke="midnightblue" points="536.034,-348.951 526.978,-354.452 537.487,-355.799 536.034,-348.951"/>
</g>
<!-- Node19&#45;&gt;Node4 -->
<g id="edge29" class="edge"><title>Node19&#45;&gt;Node4</title>
<path fill="none" stroke="midnightblue" d="M533.211,-237.217C541.765,-234.138 550.34,-230.426 558,-226 576.794,-215.142 575.091,-203.656 594,-193 600.76,-189.191 608.355,-186.082 615.905,-183.567"/>
<polygon fill="midnightblue" stroke="midnightblue" points="531.984,-233.937 523.611,-240.428 534.205,-240.575 531.984,-233.937"/>
</g>
<!-- Node19&#45;&gt;Node6 -->
<g id="edge27" class="edge"><title>Node19&#45;&gt;Node6</title>
<path fill="none" stroke="midnightblue" d="M536.742,-238.247C561.77,-232.874 591.035,-226.591 614.657,-221.52"/>
<polygon fill="midnightblue" stroke="midnightblue" points="535.707,-234.89 526.665,-240.411 537.176,-241.734 535.707,-234.89"/>
</g>
<!-- Node19&#45;&gt;Node14 -->
<g id="edge28" class="edge"><title>Node19&#45;&gt;Node14</title>
<path fill="none" stroke="midnightblue" d="M544.273,-256.61C622.583,-264.922 753.747,-278.845 811.373,-284.961"/>
<polygon fill="midnightblue" stroke="midnightblue" points="544.37,-253.101 534.056,-255.526 543.631,-260.062 544.37,-253.101"/>
</g>
<!-- Node21&#45;&gt;Node2 -->
<g id="edge33" class="edge"><title>Node21&#45;&gt;Node2</title>
<path fill="none" stroke="midnightblue" d="M195.179,-244.312C198.946,-246.002 202.599,-247.892 206,-250 225.774,-262.257 222.226,-275.743 242,-288 248.22,-291.855 255.278,-294.978 262.348,-297.491"/>
<polygon fill="midnightblue" stroke="midnightblue" points="196.237,-240.966 185.652,-240.509 193.642,-247.467 196.237,-240.966"/>
</g>
<!-- Node21&#45;&gt;Node4 -->
<g id="edge32" class="edge"><title>Node21&#45;&gt;Node4</title>
<path fill="none" stroke="midnightblue" d="M202.317,-219.484C254.846,-209.559 334.29,-195.655 404,-188 470.439,-180.704 547.056,-177.146 598.825,-175.454"/>
<polygon fill="midnightblue" stroke="midnightblue" points="201.35,-216.105 192.181,-221.413 202.659,-222.982 201.35,-216.105"/>
</g>
<!-- Node21&#45;&gt;Node19 -->
<g id="edge35" class="edge"><title>Node21&#45;&gt;Node19</title>
<path fill="none" stroke="midnightblue" d="M216.391,-235.094C280.085,-238.695 371.265,-243.851 427.986,-247.059"/>
<polygon fill="midnightblue" stroke="midnightblue" points="216.201,-231.577 206.019,-234.507 215.806,-238.566 216.201,-231.577"/>
</g>
<!-- Node22 -->
<g id="node22" class="node"><title>Node22</title>
<g id="a_node22"><a xlink:href="_p_d_a_q_2_core_2_source_2xml_parser_8cpp.xhtml#ad7ec02a171e7641c1d364d5d367199a3" target="_top" xlink:title="myWideCharToMultiByte">
<polygon fill="white" stroke="black" points="242,-259.5 242,-278.5 368,-278.5 368,-259.5 242,-259.5"/>
<text text-anchor="middle" x="305" y="-266.5" font-family="Helvetica,sans-Serif" font-size="10.00">myWideCharToMultiByte</text>
</a>
</g>
</g>
<!-- Node21&#45;&gt;Node22 -->
<g id="edge34" class="edge"><title>Node21&#45;&gt;Node22</title>
<path fill="none" stroke="midnightblue" d="M194.392,-242.968C216.813,-248.293 242.847,-254.476 263.916,-259.48"/>
<polygon fill="midnightblue" stroke="midnightblue" points="194.913,-239.495 184.375,-240.589 193.295,-246.305 194.913,-239.495"/>
</g>
</g>
</svg>
