<?xml version="1.0" encoding="UTF-8" standalone="no"?>
<!DOCTYPE svg PUBLIC "-//W3C//DTD SVG 1.1//EN"
 "http://www.w3.org/Graphics/SVG/1.1/DTD/svg11.dtd">
<!-- Generated by graphviz version 2.36.0 (20140111.2315)
 -->
<!-- Title: xstrcpy Pages: 1 -->
<!--zoomable 472 -->
<svg id="main" version="1.1" xmlns="http://www.w3.org/2000/svg" xmlns:xlink="http://www.w3.org/1999/xlink" xml:space="preserve" onload="init(evt)">
<style type="text/css"><![CDATA[
.edge:hover path { stroke: red; }
.edge:hover polygon { stroke: red; fill: red; }
]]></style>
<script type="text/javascript"><![CDATA[
var edges = document.getElementsByTagName('g');
if (edges && edges.length) {
  for (var i=0;i<edges.length;i++) {
    if (edges[i].id.substr(0,4)=='edge') {
      edges[i].setAttribute('class','edge');
    }
  }
}
]]></script>
        <defs>
                <circle id="rim" cx="0" cy="0" r="7"/>
                <circle id="rim2" cx="0" cy="0" r="3.5"/>
                <g id="zoomPlus">
                        <use xlink:href="#rim" fill="#404040">
                                <set attributeName="fill" to="#808080" begin="zoomplus.mouseover" end="zoomplus.mouseout"/>
                        </use>
                        <path d="M-4,0h8M0,-4v8" fill="none" stroke="white" stroke-width="1.5" pointer-events="none"/>
                </g>
                <g id="zoomMin">
                        <use xlink:href="#rim" fill="#404040">
                                <set attributeName="fill" to="#808080" begin="zoomminus.mouseover" end="zoomminus.mouseout"/>
                        </use>
                        <path d="M-4,0h8" fill="none" stroke="white" stroke-width="1.5" pointer-events="none"/>
                </g>
                <g id="dirArrow">
                        <path fill="none" stroke="white" stroke-width="1.5" d="M0,-3.0v7 M-2.5,-0.5L0,-3.0L2.5,-0.5"/>
                </g>
               <g id="resetDef">
                       <use xlink:href="#rim2" fill="#404040">
                               <set attributeName="fill" to="#808080" begin="reset.mouseover" end="reset.mouseout"/>
                       </use>
               </g>
        </defs>

<script type="text/javascript">
var viewWidth = 1074;
var viewHeight = 472;
var sectionId = 'dynsection-24';
</script>
<script xlink:href="svgpan.js"/>
<svg id="graph" class="graph">
<g id="viewport">
<title>xstrcpy</title>
<polygon fill="white" stroke="none" points="-4,4 -4,-468 1070,-468 1070,4 -4,4"/>
<!-- Node1 -->
<g id="node1" class="node"><title>Node1</title>
<polygon fill="#bfbfbf" stroke="black" points="0.5,-339.5 0.5,-358.5 49.5,-358.5 49.5,-339.5 0.5,-339.5"/>
<text text-anchor="middle" x="25" y="-346.5" font-family="Helvetica,sans-Serif" font-size="10.00">xstrcpy</text>
</g>
<!-- Node2 -->
<g id="node2" class="node"><title>Node2</title>
<g id="a_node2"><a xlink:href="_c_d_a_q_2_plugins_2_source_2xml_parser_8cpp.xhtml#a9a625f17c09a36e3ad532cdf16072609" target="_top" xlink:title="charmemset">
<polygon fill="white" stroke="black" points="276.5,-444.5 276.5,-463.5 347.5,-463.5 347.5,-444.5 276.5,-444.5"/>
<text text-anchor="middle" x="312" y="-451.5" font-family="Helvetica,sans-Serif" font-size="10.00">charmemset</text>
</a>
</g>
</g>
<!-- Node1&#45;&gt;Node2 -->
<g id="edge1" class="edge"><title>Node1&#45;&gt;Node2</title>
<path fill="none" stroke="midnightblue" d="M39.8072,-366.545C50.9128,-379.438 67.6484,-396.33 86,-406 147.838,-438.585 230.274,-449.051 276.25,-452.411"/>
<polygon fill="midnightblue" stroke="midnightblue" points="42.4373,-364.234 33.3619,-358.767 37.0472,-368.7 42.4373,-364.234"/>
</g>
<!-- Node3 -->
<g id="node3" class="node"><title>Node3</title>
<g id="a_node3"><a xlink:href="_c_d_a_q_2_plugins_2_source_2xml_parser_8cpp.xhtml#ad9a5c911a8e21bb89427d29d33e2797e" target="_top" xlink:title="myIsTextWideChar">
<polygon fill="white" stroke="black" points="261.5,-278.5 261.5,-297.5 362.5,-297.5 362.5,-278.5 261.5,-278.5"/>
<text text-anchor="middle" x="312" y="-285.5" font-family="Helvetica,sans-Serif" font-size="10.00">myIsTextWideChar</text>
</a>
</g>
</g>
<!-- Node1&#45;&gt;Node3 -->
<g id="edge2" class="edge"><title>Node1&#45;&gt;Node3</title>
<path fill="none" stroke="midnightblue" d="M59.7525,-341.776C111.218,-330.76 209.35,-309.757 266.555,-297.513"/>
<polygon fill="midnightblue" stroke="midnightblue" points="58.8547,-338.389 49.8087,-343.904 60.3198,-345.234 58.8547,-338.389"/>
</g>
<!-- Node21 -->
<g id="node21" class="node"><title>Node21</title>
<g id="a_node21"><a xlink:href="_c_d_a_q_2_plugins_2_source_2xml_parser_8cpp.xhtml#ad7ec02a171e7641c1d364d5d367199a3" target="_top" xlink:title="myWideCharToMultiByte">
<polygon fill="white" stroke="black" points="86,-240.5 86,-259.5 212,-259.5 212,-240.5 86,-240.5"/>
<text text-anchor="middle" x="149" y="-247.5" font-family="Helvetica,sans-Serif" font-size="10.00">myWideCharToMultiByte</text>
</a>
</g>
</g>
<!-- Node1&#45;&gt;Node21 -->
<g id="edge31" class="edge"><title>Node1&#45;&gt;Node21</title>
<path fill="none" stroke="midnightblue" d="M44.6552,-332.277C56.3643,-321.921 71.8708,-308.458 86,-297 102.366,-283.728 121.809,-269.179 134.501,-259.837"/>
<polygon fill="midnightblue" stroke="midnightblue" points="42.0215,-329.936 36.8744,-339.196 46.673,-335.167 42.0215,-329.936"/>
</g>
<!-- Node23 -->
<g id="node23" class="node"><title>Node23</title>
<g id="a_node23"><a xlink:href="_c_d_a_q_2_plugins_2_source_2xml_parser_8cpp.xhtml#a454fce17a610e83316f0df2534cd4e08" target="_top" xlink:title="toXMLStringUnSafe">
<polygon fill="white" stroke="black" points="97,-377.5 97,-396.5 201,-396.5 201,-377.5 97,-377.5"/>
<text text-anchor="middle" x="149" y="-384.5" font-family="Helvetica,sans-Serif" font-size="10.00">toXMLStringUnSafe</text>
</a>
</g>
</g>
<!-- Node1&#45;&gt;Node23 -->
<g id="edge36" class="edge"><title>Node1&#45;&gt;Node23</title>
<path fill="none" stroke="midnightblue" d="M59.086,-359.305C77.1722,-364.939 99.4324,-371.872 117.155,-377.393"/>
<polygon fill="midnightblue" stroke="midnightblue" points="60.1113,-355.959 49.5228,-356.327 58.0295,-362.642 60.1113,-355.959"/>
</g>
<!-- Node4 -->
<g id="node4" class="node"><title>Node4</title>
<g id="a_node4"><a xlink:href="_p_d_a_q_2_core_2_source_2xml_parser_8cpp.xhtml#a9a625f17c09a36e3ad532cdf16072609" target="_top" xlink:title="charmemset">
<polygon fill="white" stroke="black" points="979.5,-316.5 979.5,-335.5 1050.5,-335.5 1050.5,-316.5 979.5,-316.5"/>
<text text-anchor="middle" x="1015" y="-323.5" font-family="Helvetica,sans-Serif" font-size="10.00">charmemset</text>
</a>
</g>
</g>
<!-- Node3&#45;&gt;Node4 -->
<g id="edge3" class="edge"><title>Node3&#45;&gt;Node4</title>
<path fill="none" stroke="midnightblue" d="M367.03,-299.492C381.578,-302.279 397.344,-305.021 412,-307 639.56,-337.723 698.565,-342.322 928,-333 944.913,-332.313 963.652,-330.868 979.308,-329.469"/>
<polygon fill="midnightblue" stroke="midnightblue" points="367.668,-296.051 357.182,-297.565 366.323,-302.921 367.668,-296.051"/>
</g>
<!-- Node5 -->
<g id="node5" class="node"><title>Node5</title>
<g id="a_node5"><a xlink:href="_p_d_a_q_2_core_2_source_2xml_parser_8cpp.xhtml#ae6aa5a367ab3cc92b47fd92f81add72a" target="_top" xlink:title="CountLinesAndColumns">
<polygon fill="white" stroke="black" points="607,-126.5 607,-145.5 729,-145.5 729,-126.5 607,-126.5"/>
<text text-anchor="middle" x="668" y="-133.5" font-family="Helvetica,sans-Serif" font-size="10.00">CountLinesAndColumns</text>
</a>
</g>
</g>
<!-- Node3&#45;&gt;Node5 -->
<g id="edge4" class="edge"><title>Node3&#45;&gt;Node5</title>
<path fill="none" stroke="midnightblue" d="M369.69,-273.646C371.913,-272.24 374.03,-270.695 376,-269 404.328,-244.618 382.801,-216.332 412,-193 427.615,-180.522 542.599,-158.208 612.724,-145.516"/>
<polygon fill="midnightblue" stroke="midnightblue" points="367.881,-270.643 360.681,-278.416 371.156,-276.83 367.881,-270.643"/>
</g>
<!-- Node6 -->
<g id="node6" class="node"><title>Node6</title>
<g id="a_node6"><a xlink:href="struct_x_m_l_node.xhtml#a4496629c7a268db5435946c7bdd4eb28" target="_top" xlink:title="XMLNode::getError">
<polygon fill="white" stroke="black" points="438.5,-240.5 438.5,-259.5 539.5,-259.5 539.5,-240.5 438.5,-240.5"/>
<text text-anchor="middle" x="489" y="-247.5" font-family="Helvetica,sans-Serif" font-size="10.00">XMLNode::getError</text>
</a>
</g>
</g>
<!-- Node3&#45;&gt;Node6 -->
<g id="edge5" class="edge"><title>Node3&#45;&gt;Node6</title>
<path fill="none" stroke="midnightblue" d="M367.124,-276.247C391.869,-270.874 420.803,-264.591 444.158,-259.52"/>
<polygon fill="midnightblue" stroke="midnightblue" points="366.189,-272.869 357.16,-278.411 367.675,-279.709 366.189,-272.869"/>
</g>
<!-- Node16 -->
<g id="node16" class="node"><title>Node16</title>
<g id="a_node16"><a xlink:href="_p_d_a_q_2_core_2_source_2xml_parser_8cpp.xhtml#ad9a5c911a8e21bb89427d29d33e2797e" target="_top" xlink:title="myIsTextWideChar">
<polygon fill="white" stroke="black" points="964.5,-373.5 964.5,-392.5 1065.5,-392.5 1065.5,-373.5 964.5,-373.5"/>
<text text-anchor="middle" x="1015" y="-380.5" font-family="Helvetica,sans-Serif" font-size="10.00">myIsTextWideChar</text>
</a>
</g>
</g>
<!-- Node3&#45;&gt;Node16 -->
<g id="edge26" class="edge"><title>Node3&#45;&gt;Node16</title>
<path fill="none" stroke="midnightblue" d="M339.422,-302.255C358.905,-312.067 386.369,-324.469 412,-331 612.006,-381.963 860.168,-385.305 964.326,-384.123"/>
<polygon fill="midnightblue" stroke="midnightblue" points="340.77,-299.012 330.277,-297.543 337.564,-305.235 340.77,-299.012"/>
</g>
<!-- Node19 -->
<g id="node19" class="node"><title>Node19</title>
<g id="a_node19"><a xlink:href="struct_x_m_l_node.xhtml#ac7af7e3bab8d21722dd4f191a4aa7c1d" target="_top" xlink:title="XMLNode::guessCharEncoding">
<polygon fill="white" stroke="black" points="412,-278.5 412,-297.5 566,-297.5 566,-278.5 412,-278.5"/>
<text text-anchor="middle" x="489" y="-285.5" font-family="Helvetica,sans-Serif" font-size="10.00">XMLNode::guessCharEncoding</text>
</a>
</g>
</g>
<!-- Node3&#45;&gt;Node19 -->
<g id="edge22" class="edge"><title>Node3&#45;&gt;Node19</title>
<path fill="none" stroke="midnightblue" d="M372.94,-288C385.419,-288 398.731,-288 411.708,-288"/>
<polygon fill="midnightblue" stroke="midnightblue" points="372.68,-284.5 362.68,-288 372.68,-291.5 372.68,-284.5"/>
</g>
<!-- Node20 -->
<g id="node20" class="node"><title>Node20</title>
<g id="a_node20"><a xlink:href="struct_x_m_l_node.xhtml#a5e5968e052d58350918cd91e3535624b" target="_top" xlink:title="XMLNode::parseFile">
<polygon fill="white" stroke="black" points="436,-202.5 436,-221.5 542,-221.5 542,-202.5 436,-202.5"/>
<text text-anchor="middle" x="489" y="-209.5" font-family="Helvetica,sans-Serif" font-size="10.00">XMLNode::parseFile</text>
</a>
</g>
</g>
<!-- Node3&#45;&gt;Node20 -->
<g id="edge27" class="edge"><title>Node3&#45;&gt;Node20</title>
<path fill="none" stroke="midnightblue" d="M365.181,-274.661C368.947,-272.979 372.597,-271.099 376,-269 395.801,-256.787 391.912,-242.735 412,-231 419.281,-226.747 427.493,-223.439 435.758,-220.869"/>
<polygon fill="midnightblue" stroke="midnightblue" points="363.656,-271.501 355.655,-278.446 366.241,-278.006 363.656,-271.501"/>
</g>
<!-- Node7 -->
<g id="node7" class="node"><title>Node7</title>
<g id="a_node7"><a xlink:href="struct_x_m_l_node.xhtml#acc044148e2b9b8264a320b7b6e398158" target="_top" xlink:title="XMLNode::openFileHelper">
<polygon fill="white" stroke="black" points="602.5,-164.5 602.5,-183.5 733.5,-183.5 733.5,-164.5 602.5,-164.5"/>
<text text-anchor="middle" x="668" y="-171.5" font-family="Helvetica,sans-Serif" font-size="10.00">XMLNode::openFileHelper</text>
</a>
</g>
</g>
<!-- Node6&#45;&gt;Node7 -->
<g id="edge6" class="edge"><title>Node6&#45;&gt;Node7</title>
<path fill="none" stroke="midnightblue" d="M546.279,-237.75C553.011,-235.753 559.719,-233.504 566,-231 598.73,-217.951 633.909,-196.106 652.894,-183.589"/>
<polygon fill="midnightblue" stroke="midnightblue" points="545.134,-234.435 536.445,-240.497 547.018,-241.177 545.134,-234.435"/>
</g>
<!-- Node15 -->
<g id="node15" class="node"><title>Node15</title>
<g id="a_node15"><a xlink:href="_p_d_a_q_2_core_2_source_2xml_parser_8cpp.xhtml#af77e3e2685487b9c492b20c36f3b864a" target="_top" xlink:title="_strnicmp">
<polygon fill="white" stroke="black" points="819.5,-278.5 819.5,-297.5 878.5,-297.5 878.5,-278.5 819.5,-278.5"/>
<text text-anchor="middle" x="849" y="-285.5" font-family="Helvetica,sans-Serif" font-size="10.00">_strnicmp</text>
</a>
</g>
</g>
<!-- Node6&#45;&gt;Node15 -->
<g id="edge21" class="edge"><title>Node6&#45;&gt;Node15</title>
<path fill="none" stroke="midnightblue" d="M549.943,-256.363C627.978,-264.646 761.245,-278.791 819.421,-284.967"/>
<polygon fill="midnightblue" stroke="midnightblue" points="550.092,-252.859 539.778,-255.284 549.353,-259.82 550.092,-252.859"/>
</g>
<!-- Node8 -->
<g id="node8" class="node"><title>Node8</title>
<g id="a_node8"><a xlink:href="class_a_d_c_manager1720.xhtml#aae342ccd8bf1c253c455e195bfd82dfe" target="_top" xlink:title="ADCManager1720::Init">
<polygon fill="white" stroke="black" points="791,-38.5 791,-57.5 907,-57.5 907,-38.5 791,-38.5"/>
<text text-anchor="middle" x="849" y="-45.5" font-family="Helvetica,sans-Serif" font-size="10.00">ADCManager1720::Init</text>
</a>
</g>
</g>
<!-- Node7&#45;&gt;Node8 -->
<g id="edge7" class="edge"><title>Node7&#45;&gt;Node8</title>
<path fill="none" stroke="midnightblue" d="M728.446,-159.324C730.4,-158.005 732.261,-156.567 734,-155 765.392,-126.712 737.973,-94.5674 770,-67 776.021,-61.8173 783.228,-58.0006 790.794,-55.1985"/>
<polygon fill="midnightblue" stroke="midnightblue" points="726.401,-156.457 719.373,-164.386 729.811,-162.57 726.401,-156.457"/>
</g>
<!-- Node9 -->
<g id="node9" class="node"><title>Node9</title>
<g id="a_node9"><a xlink:href="class_a_d_c_manager1724.xhtml#a6de2521b9c793edcf14aeaeefeb62787" target="_top" xlink:title="ADCManager1724::Init">
<polygon fill="white" stroke="black" points="791,-0.5 791,-19.5 907,-19.5 907,-0.5 791,-0.5"/>
<text text-anchor="middle" x="849" y="-7.5" font-family="Helvetica,sans-Serif" font-size="10.00">ADCManager1724::Init</text>
</a>
</g>
</g>
<!-- Node7&#45;&gt;Node9 -->
<g id="edge8" class="edge"><title>Node7&#45;&gt;Node9</title>
<path fill="none" stroke="midnightblue" d="M729.424,-159C731.038,-157.769 732.57,-156.438 734,-155 775.057,-113.692 728.015,-69.3641 770,-29 775.828,-23.3975 783.018,-19.3583 790.655,-16.4617"/>
<polygon fill="midnightblue" stroke="midnightblue" points="727.422,-156.124 720.762,-164.363 731.106,-162.075 727.422,-156.124"/>
</g>
<!-- Node10 -->
<g id="node10" class="node"><title>Node10</title>
<g id="a_node10"><a xlink:href="class_a_d_c_manager1730.xhtml#adb6d45f2024f4a52d366a88d1c7f229d" target="_top" xlink:title="ADCManager1730::Init">
<polygon fill="white" stroke="black" points="791,-240.5 791,-259.5 907,-259.5 907,-240.5 791,-240.5"/>
<text text-anchor="middle" x="849" y="-247.5" font-family="Helvetica,sans-Serif" font-size="10.00">ADCManager1730::Init</text>
</a>
</g>
</g>
<!-- Node7&#45;&gt;Node10 -->
<g id="edge9" class="edge"><title>Node7&#45;&gt;Node10</title>
<path fill="none" stroke="midnightblue" d="M712.034,-187.19C719.598,-190.257 727.213,-193.859 734,-198 752.529,-209.305 750.853,-220.777 770,-231 777.254,-234.873 785.307,-237.97 793.406,-240.443"/>
<polygon fill="midnightblue" stroke="midnightblue" points="713.139,-183.866 702.548,-183.594 710.658,-190.412 713.139,-183.866"/>
</g>
<!-- Node11 -->
<g id="node11" class="node"><title>Node11</title>
<g id="a_node11"><a xlink:href="class_scope_manager.xhtml#abe246d1b817d85a9cba7af3441a4df04" target="_top" xlink:title="ScopeManager::ShowEvent">
<polygon fill="white" stroke="black" points="780,-164.5 780,-183.5 918,-183.5 918,-164.5 780,-164.5"/>
<text text-anchor="middle" x="849" y="-171.5" font-family="Helvetica,sans-Serif" font-size="10.00">ScopeManager::ShowEvent</text>
</a>
</g>
</g>
<!-- Node7&#45;&gt;Node11 -->
<g id="edge10" class="edge"><title>Node7&#45;&gt;Node11</title>
<path fill="none" stroke="midnightblue" d="M743.967,-174C755.866,-174 768.118,-174 779.849,-174"/>
<polygon fill="midnightblue" stroke="midnightblue" points="743.623,-170.5 733.623,-174 743.623,-177.5 743.623,-170.5"/>
</g>
<!-- Node13 -->
<g id="node13" class="node"><title>Node13</title>
<g id="a_node13"><a xlink:href="class_slowcontrol_manager.xhtml#a36ab5157f5a740b9058517b77d1ce38f" target="_top" xlink:title="SlowcontrolManager\l::ShowStatus">
<polygon fill="white" stroke="black" points="796.5,-115 796.5,-145 901.5,-145 901.5,-115 796.5,-115"/>
<text text-anchor="start" x="804.5" y="-133" font-family="Helvetica,sans-Serif" font-size="10.00">SlowcontrolManager</text>
<text text-anchor="middle" x="849" y="-122" font-family="Helvetica,sans-Serif" font-size="10.00">::ShowStatus</text>
</a>
</g>
</g>
<!-- Node7&#45;&gt;Node13 -->
<g id="edge12" class="edge"><title>Node7&#45;&gt;Node13</title>
<path fill="none" stroke="midnightblue" d="M717.599,-162.054C741.983,-156.06 771.527,-148.798 796.323,-142.703"/>
<polygon fill="midnightblue" stroke="midnightblue" points="716.716,-158.667 707.84,-164.453 718.387,-165.464 716.716,-158.667"/>
</g>
<!-- Node14 -->
<g id="node14" class="node"><title>Node14</title>
<g id="a_node14"><a xlink:href="class_storage_manager.xhtml#ab16a945d003852d02556daf3610a9aac" target="_top" xlink:title="StorageManager::SaveContainer">
<polygon fill="white" stroke="black" points="770,-76.5 770,-95.5 928,-95.5 928,-76.5 770,-76.5"/>
<text text-anchor="middle" x="849" y="-83.5" font-family="Helvetica,sans-Serif" font-size="10.00">StorageManager::SaveContainer</text>
</a>
</g>
</g>
<!-- Node7&#45;&gt;Node14 -->
<g id="edge14" class="edge"><title>Node7&#45;&gt;Node14</title>
<path fill="none" stroke="midnightblue" d="M725.281,-160.238C728.332,-158.674 731.264,-156.935 734,-155 756.357,-139.188 747.29,-120.3 770,-105 775.78,-101.106 782.277,-98.0088 788.991,-95.545"/>
<polygon fill="midnightblue" stroke="midnightblue" points="723.572,-157.167 715.849,-164.421 726.41,-163.566 723.572,-157.167"/>
</g>
<!-- Node7&#45;&gt;Node15 -->
<g id="edge16" class="edge"><title>Node7&#45;&gt;Node15</title>
<path fill="none" stroke="midnightblue" d="M718.815,-187.845C724.298,-190.651 729.511,-194.002 734,-198 760.421,-221.531 742.273,-247.023 770,-269 783.981,-280.082 803.481,-284.832 819.486,-286.811"/>
<polygon fill="midnightblue" stroke="midnightblue" points="719.968,-184.527 709.412,-183.623 717.1,-190.912 719.968,-184.527"/>
</g>
<!-- Node17 -->
<g id="node17" class="node"><title>Node17</title>
<g id="a_node17"><a xlink:href="_p_d_a_q_2_core_2_source_2xml_8cpp.xhtml#a8251b051736c5146c1985edc6cb357e6" target="_top" xlink:title="xml_readsettings">
<polygon fill="white" stroke="black" points="803.5,-202.5 803.5,-221.5 894.5,-221.5 894.5,-202.5 803.5,-202.5"/>
<text text-anchor="middle" x="849" y="-209.5" font-family="Helvetica,sans-Serif" font-size="10.00">xml_readsettings</text>
</a>
</g>
</g>
<!-- Node7&#45;&gt;Node17 -->
<g id="edge19" class="edge"><title>Node7&#45;&gt;Node17</title>
<path fill="none" stroke="midnightblue" d="M724.062,-185.689C749.548,-191.099 779.429,-197.443 803.465,-202.546"/>
<polygon fill="midnightblue" stroke="midnightblue" points="724.678,-182.242 714.169,-183.589 723.224,-189.089 724.678,-182.242"/>
</g>
<!-- Node12 -->
<g id="node12" class="node"><title>Node12</title>
<g id="a_node12"><a xlink:href="_multi_d_a_q_8cpp.xhtml#adedb285b02c41bde2158ded9cc9fd7ac" target="_top" xlink:title="main">
<polygon fill="white" stroke="black" points="996,-120.5 996,-139.5 1034,-139.5 1034,-120.5 996,-120.5"/>
<text text-anchor="middle" x="1015" y="-127.5" font-family="Helvetica,sans-Serif" font-size="10.00">main</text>
</a>
</g>
</g>
<!-- Node11&#45;&gt;Node12 -->
<g id="edge11" class="edge"><title>Node11&#45;&gt;Node12</title>
<path fill="none" stroke="midnightblue" d="M897.581,-161.97C907.636,-159.38 918.176,-156.63 928,-154 951.509,-147.707 978.528,-140.106 995.911,-135.168"/>
<polygon fill="midnightblue" stroke="midnightblue" points="896.549,-158.622 887.732,-164.496 898.288,-165.402 896.549,-158.622"/>
</g>
<!-- Node13&#45;&gt;Node12 -->
<g id="edge13" class="edge"><title>Node13&#45;&gt;Node12</title>
<path fill="none" stroke="midnightblue" d="M912.256,-130C942.076,-130 975.599,-130 995.744,-130"/>
<polygon fill="midnightblue" stroke="midnightblue" points="911.891,-126.5 901.891,-130 911.891,-133.5 911.891,-126.5"/>
</g>
<!-- Node14&#45;&gt;Node12 -->
<g id="edge15" class="edge"><title>Node14&#45;&gt;Node12</title>
<path fill="none" stroke="midnightblue" d="M900.394,-97.9314C909.596,-100.208 919.1,-102.624 928,-105 951.585,-111.297 978.587,-119.273 995.945,-124.501"/>
<polygon fill="midnightblue" stroke="midnightblue" points="901.115,-94.5047 890.57,-95.5244 899.449,-101.304 901.115,-94.5047"/>
</g>
<!-- Node15&#45;&gt;Node4 -->
<g id="edge18" class="edge"><title>Node15&#45;&gt;Node4</title>
<path fill="none" stroke="midnightblue" d="M888.605,-296.945C916.068,-303.308 952.653,-311.785 979.214,-317.94"/>
<polygon fill="midnightblue" stroke="midnightblue" points="889.099,-293.467 878.567,-294.619 887.518,-300.286 889.099,-293.467"/>
</g>
<!-- Node15&#45;&gt;Node16 -->
<g id="edge17" class="edge"><title>Node15&#45;&gt;Node16</title>
<path fill="none" stroke="midnightblue" d="M875.491,-302.766C909.446,-322.435 968.566,-356.681 997.328,-373.343"/>
<polygon fill="midnightblue" stroke="midnightblue" points="877.035,-299.616 866.628,-297.632 873.526,-305.673 877.035,-299.616"/>
</g>
<!-- Node18 -->
<g id="node18" class="node"><title>Node18</title>
<g id="a_node18"><a xlink:href="_z_d_a_q_8cpp.xhtml#a0ddf1224851353fc92bfbff6f499fa97" target="_top" xlink:title="main">
<polygon fill="white" stroke="black" points="996,-202.5 996,-221.5 1034,-221.5 1034,-202.5 996,-202.5"/>
<text text-anchor="middle" x="1015" y="-209.5" font-family="Helvetica,sans-Serif" font-size="10.00">main</text>
</a>
</g>
</g>
<!-- Node17&#45;&gt;Node18 -->
<g id="edge20" class="edge"><title>Node17&#45;&gt;Node18</title>
<path fill="none" stroke="midnightblue" d="M905.216,-212C936.646,-212 973.974,-212 995.724,-212"/>
<polygon fill="midnightblue" stroke="midnightblue" points="904.814,-208.5 894.814,-212 904.814,-215.5 904.814,-208.5"/>
</g>
<!-- Node19&#45;&gt;Node4 -->
<g id="edge25" class="edge"><title>Node19&#45;&gt;Node4</title>
<path fill="none" stroke="midnightblue" d="M570.507,-298.712C581.088,-299.93 591.796,-301.066 602,-302 741.669,-314.783 908.634,-322.05 979.488,-324.762"/>
<polygon fill="midnightblue" stroke="midnightblue" points="570.764,-295.218 560.423,-297.524 569.945,-302.17 570.764,-295.218"/>
</g>
<!-- Node19&#45;&gt;Node7 -->
<g id="edge23" class="edge"><title>Node19&#45;&gt;Node7</title>
<path fill="none" stroke="midnightblue" d="M552.774,-275.074C557.358,-273.298 561.819,-271.284 566,-269 607.198,-246.5 644.235,-203.157 659.547,-183.779"/>
<polygon fill="midnightblue" stroke="midnightblue" points="551.531,-271.801 543.239,-278.395 553.834,-278.411 551.531,-271.801"/>
</g>
<!-- Node19&#45;&gt;Node15 -->
<g id="edge24" class="edge"><title>Node19&#45;&gt;Node15</title>
<path fill="none" stroke="midnightblue" d="M576.767,-288C655.563,-288 767.167,-288 819.204,-288"/>
<polygon fill="midnightblue" stroke="midnightblue" points="576.361,-284.5 566.361,-288 576.361,-291.5 576.361,-284.5"/>
</g>
<!-- Node20&#45;&gt;Node5 -->
<g id="edge30" class="edge"><title>Node20&#45;&gt;Node5</title>
<path fill="none" stroke="midnightblue" d="M541.211,-199.217C549.765,-196.138 558.34,-192.426 566,-188 584.794,-177.142 583.091,-165.656 602,-155 608.76,-151.191 616.355,-148.082 623.905,-145.567"/>
<polygon fill="midnightblue" stroke="midnightblue" points="539.984,-195.937 531.611,-202.428 542.205,-202.575 539.984,-195.937"/>
</g>
<!-- Node20&#45;&gt;Node7 -->
<g id="edge28" class="edge"><title>Node20&#45;&gt;Node7</title>
<path fill="none" stroke="midnightblue" d="M544.742,-200.247C569.77,-194.874 599.035,-188.591 622.657,-183.52"/>
<polygon fill="midnightblue" stroke="midnightblue" points="543.707,-196.89 534.665,-202.411 545.176,-203.734 543.707,-196.89"/>
</g>
<!-- Node20&#45;&gt;Node15 -->
<g id="edge29" class="edge"><title>Node20&#45;&gt;Node15</title>
<path fill="none" stroke="midnightblue" d="M552.053,-222.527C601.543,-231.266 672.51,-244.562 734,-259 750.166,-262.796 753.931,-264.812 770,-269 786.319,-273.253 804.637,-277.73 819.419,-281.27"/>
<polygon fill="midnightblue" stroke="midnightblue" points="552.595,-219.069 542.14,-220.787 551.384,-225.963 552.595,-219.069"/>
</g>
<!-- Node21&#45;&gt;Node3 -->
<g id="edge33" class="edge"><title>Node21&#45;&gt;Node3</title>
<path fill="none" stroke="midnightblue" d="M200.402,-261.896C223.032,-267.237 249.37,-273.454 270.665,-278.48"/>
<polygon fill="midnightblue" stroke="midnightblue" points="201.164,-258.48 190.627,-259.589 199.556,-265.293 201.164,-258.48"/>
</g>
<!-- Node21&#45;&gt;Node5 -->
<g id="edge32" class="edge"><title>Node21&#45;&gt;Node5</title>
<path fill="none" stroke="midnightblue" d="M178.377,-235.993C225.545,-213.472 323.647,-169.833 412,-151 477.602,-137.016 554.698,-134.32 606.807,-134.455"/>
<polygon fill="midnightblue" stroke="midnightblue" points="176.595,-232.967 169.107,-240.462 179.635,-239.272 176.595,-232.967"/>
</g>
<!-- Node21&#45;&gt;Node20 -->
<g id="edge35" class="edge"><title>Node21&#45;&gt;Node20</title>
<path fill="none" stroke="midnightblue" d="M203.896,-238.422C218.181,-235.663 233.629,-232.956 248,-231 312.401,-222.236 387.115,-217.109 435.853,-214.434"/>
<polygon fill="midnightblue" stroke="midnightblue" points="202.864,-235.058 193.731,-240.43 204.22,-241.925 202.864,-235.058"/>
</g>
<!-- Node22 -->
<g id="node22" class="node"><title>Node22</title>
<g id="a_node22"><a xlink:href="_p_d_a_q_2_core_2_source_2xml_parser_8cpp.xhtml#ad7ec02a171e7641c1d364d5d367199a3" target="_top" xlink:title="myWideCharToMultiByte">
<polygon fill="white" stroke="black" points="249,-240.5 249,-259.5 375,-259.5 375,-240.5 249,-240.5"/>
<text text-anchor="middle" x="312" y="-247.5" font-family="Helvetica,sans-Serif" font-size="10.00">myWideCharToMultiByte</text>
</a>
</g>
</g>
<!-- Node21&#45;&gt;Node22 -->
<g id="edge34" class="edge"><title>Node21&#45;&gt;Node22</title>
<path fill="none" stroke="midnightblue" d="M222.511,-250C231.328,-250 240.273,-250 248.919,-250"/>
<polygon fill="midnightblue" stroke="midnightblue" points="222.247,-246.5 212.247,-250 222.247,-253.5 222.247,-246.5"/>
</g>
<!-- Node23&#45;&gt;Node2 -->
<g id="edge37" class="edge"><title>Node23&#45;&gt;Node2</title>
<path fill="none" stroke="midnightblue" d="M180.097,-400.666C199.4,-409.317 225.055,-420.602 248,-430 260.131,-434.968 273.706,-440.183 285.139,-444.478"/>
<polygon fill="midnightblue" stroke="midnightblue" points="181.456,-397.44 170.9,-396.529 178.584,-403.824 181.456,-397.44"/>
</g>
<!-- Node24 -->
<g id="node24" class="node"><title>Node24</title>
<g id="a_node24"><a xlink:href="_p_d_a_q_2_core_2_source_2xml_parser_8cpp.xhtml#ae1b2fd77551f439e58967a80d09c59d1" target="_top" xlink:title="lengthXMLString">
<polygon fill="white" stroke="black" points="444.5,-430.5 444.5,-449.5 533.5,-449.5 533.5,-430.5 444.5,-430.5"/>
<text text-anchor="middle" x="489" y="-437.5" font-family="Helvetica,sans-Serif" font-size="10.00">lengthXMLString</text>
</a>
</g>
</g>
<!-- Node23&#45;&gt;Node24 -->
<g id="edge38" class="edge"><title>Node23&#45;&gt;Node24</title>
<path fill="none" stroke="midnightblue" d="M211.378,-396.624C278.668,-407.176 384.941,-423.84 444.264,-433.142"/>
<polygon fill="midnightblue" stroke="midnightblue" points="211.756,-393.141 201.335,-395.05 210.672,-400.057 211.756,-393.141"/>
</g>
<!-- Node25 -->
<g id="node25" class="node"><title>Node25</title>
<g id="a_node25"><a xlink:href="struct_to_x_m_l_string_tool.xhtml#a3e0bb98fc6bf2c8b855fa4ea573177c2" target="_top" xlink:title="ToXMLStringTool::toXML">
<polygon fill="white" stroke="black" points="248.5,-368.5 248.5,-387.5 375.5,-387.5 375.5,-368.5 248.5,-368.5"/>
<text text-anchor="middle" x="312" y="-375.5" font-family="Helvetica,sans-Serif" font-size="10.00">ToXMLStringTool::toXML</text>
</a>
</g>
</g>
<!-- Node23&#45;&gt;Node25 -->
<g id="edge39" class="edge"><title>Node23&#45;&gt;Node25</title>
<path fill="none" stroke="midnightblue" d="M211.726,-383.55C223.698,-382.88 236.257,-382.178 248.262,-381.507"/>
<polygon fill="midnightblue" stroke="midnightblue" points="211.173,-380.075 201.384,-384.128 211.564,-387.064 211.173,-380.075"/>
</g>
<!-- Node25&#45;&gt;Node24 -->
<g id="edge40" class="edge"><title>Node25&#45;&gt;Node24</title>
<path fill="none" stroke="midnightblue" d="M347.769,-391.196C356.954,-394.696 366.855,-398.48 376,-402 392.021,-408.167 395.806,-410.301 412,-416 426.357,-421.053 442.408,-426.194 456.047,-430.416"/>
<polygon fill="midnightblue" stroke="midnightblue" points="348.744,-387.822 338.153,-387.537 346.255,-394.365 348.744,-387.822"/>
</g>
</g>
</svg>
        <g id="navigator" transform="translate(0 0)" fill="#404254">
                <rect fill="#f2f5e9" fill-opacity="0.5" stroke="#606060" stroke-width=".5" x="0" y="0" width="60" height="60"/>
                <use id="zoomplus" xlink:href="#zoomPlus" x="17" y="9" onmousedown="handleZoom(evt,'in')"/>
                <use id="zoomminus" xlink:href="#zoomMin" x="42" y="9" onmousedown="handleZoom(evt,'out')"/>
                <use id="reset" xlink:href="#resetDef" x="30" y="36" onmousedown="handleReset()"/>
                <g id="arrowUp" xlink:href="#dirArrow" transform="translate(30 24)" onmousedown="handlePan(0,-1)">
                  <use xlink:href="#rim" fill="#404040">
                        <set attributeName="fill" to="#808080" begin="arrowUp.mouseover" end="arrowUp.mouseout"/>
                  </use>
                  <path fill="none" stroke="white" stroke-width="1.5" d="M0,-3.0v7 M-2.5,-0.5L0,-3.0L2.5,-0.5"/>
                </g>
                <g id="arrowRight" xlink:href="#dirArrow" transform="rotate(90) translate(36 -43)" onmousedown="handlePan(1,0)">
                  <use xlink:href="#rim" fill="#404040">
                        <set attributeName="fill" to="#808080" begin="arrowRight.mouseover" end="arrowRight.mouseout"/>
                  </use>
                  <path fill="none" stroke="white" stroke-width="1.5" d="M0,-3.0v7 M-2.5,-0.5L0,-3.0L2.5,-0.5"/>
                </g>
                <g id="arrowDown" xlink:href="#dirArrow" transform="rotate(180) translate(-30 -48)" onmousedown="handlePan(0,1)">
                  <use xlink:href="#rim" fill="#404040">
                        <set attributeName="fill" to="#808080" begin="arrowDown.mouseover" end="arrowDown.mouseout"/>
                  </use>
                  <path fill="none" stroke="white" stroke-width="1.5" d="M0,-3.0v7 M-2.5,-0.5L0,-3.0L2.5,-0.5"/>
                </g>
                <g id="arrowLeft" xlink:href="#dirArrow" transform="rotate(270) translate(-36 17)" onmousedown="handlePan(-1,0)">
                  <use xlink:href="#rim" fill="#404040">
                        <set attributeName="fill" to="#808080" begin="arrowLeft.mouseover" end="arrowLeft.mouseout"/>
                  </use>
                  <path fill="none" stroke="white" stroke-width="1.5" d="M0,-3.0v7 M-2.5,-0.5L0,-3.0L2.5,-0.5"/>
                </g>
        </g>
        <svg viewBox="0 0 15 15" width="100%" height="30px" preserveAspectRatio="xMaxYMin meet">
         <g id="arrow_out" transform="scale(0.3 0.3)">
          <a xlink:href="_c_d_a_q_2_plugins_2_source_2xml_parser_8cpp_a73c2349b2f386ee50130a3961bd2dbab_icgraph_org.svg" target="_base">
           <rect id="button" ry="5" rx="5" y="6" x="6" height="38" width="38"
                fill="#f2f5e9" fill-opacity="0.5" stroke="#606060" stroke-width="1.0"/>
           <path id="arrow"
             d="M 11.500037,31.436501 C 11.940474,20.09759 22.043105,11.32322 32.158766,21.979434 L 37.068811,17.246167 C 37.068811,17.246167 37.088388,32 37.088388,32 L 22.160133,31.978069 C 22.160133,31.978069 26.997745,27.140456 26.997745,27.140456 C 18.528582,18.264221 13.291696,25.230495 11.500037,31.436501 z"
             style="fill:#404040;"/>
          </a>
         </g>
        </svg>
</svg>
