<?xml version="1.0" encoding="UTF-8" standalone="no"?>
<!DOCTYPE svg PUBLIC "-//W3C//DTD SVG 1.1//EN"
 "http://www.w3.org/Graphics/SVG/1.1/DTD/svg11.dtd">
<!-- Generated by graphviz version 2.36.0 (20140111.2315)
 -->
<!-- Title: myFree Pages: 1 -->
<svg width="352pt" height="66pt"
 viewBox="0.00 0.00 352.00 66.00" xmlns="http://www.w3.org/2000/svg" xmlns:xlink="http://www.w3.org/1999/xlink">
<g id="graph0" class="graph" transform="scale(1 1) rotate(0) translate(4 62)">
<title>myFree</title>
<polygon fill="white" stroke="none" points="-4,4 -4,-62 348,-62 348,4 -4,4"/>
<!-- Node1 -->
<g id="node1" class="node"><title>Node1</title>
<polygon fill="#bfbfbf" stroke="black" points="0,-19.5 0,-38.5 50,-38.5 50,-19.5 0,-19.5"/>
<text text-anchor="middle" x="25" y="-26.5" font-family="Helvetica,sans-Serif" font-size="10.00">myFree</text>
</g>
<!-- Node2 -->
<g id="node2" class="node"><title>Node2</title>
<g id="a_node2"><a xlink:href="struct_x_m_l_node.xhtml#aa4d133999da220e916bdf3a969d493c4" target="_top" xlink:title="XMLNode::deleteNodeContent">
<polygon fill="white" stroke="black" points="86,-38.5 86,-57.5 236,-57.5 236,-38.5 86,-38.5"/>
<text text-anchor="middle" x="161" y="-45.5" font-family="Helvetica,sans-Serif" font-size="10.00">XMLNode::deleteNodeContent</text>
</a>
</g>
</g>
<!-- Node1&#45;&gt;Node2 -->
<g id="edge1" class="edge"><title>Node1&#45;&gt;Node2</title>
<path fill="none" stroke="midnightblue" d="M60.1784,-33.8462C70.1932,-35.2662 81.5075,-36.8705 92.8282,-38.4756"/>
<polygon fill="midnightblue" stroke="midnightblue" points="60.6587,-30.3794 50.2664,-32.4408 59.676,-37.31 60.6587,-30.3794"/>
</g>
<!-- Node4 -->
<g id="node4" class="node"><title>Node4</title>
<g id="a_node4"><a xlink:href="_c_d_a_q_2_plugins_2_source_2xml_parser_8cpp.xhtml#a8415cb910267a0487e1003a34069d012" target="_top" xlink:title="myRealloc">
<polygon fill="white" stroke="black" points="129.5,-0.5 129.5,-19.5 192.5,-19.5 192.5,-0.5 129.5,-0.5"/>
<text text-anchor="middle" x="161" y="-7.5" font-family="Helvetica,sans-Serif" font-size="10.00">myRealloc</text>
</a>
</g>
</g>
<!-- Node1&#45;&gt;Node4 -->
<g id="edge3" class="edge"><title>Node1&#45;&gt;Node4</title>
<path fill="none" stroke="midnightblue" d="M60.2021,-24.1504C81.5144,-21.1286 108.704,-17.2733 129.319,-14.3502"/>
<polygon fill="midnightblue" stroke="midnightblue" points="59.676,-20.69 50.2664,-25.5592 60.6587,-27.6206 59.676,-20.69"/>
</g>
<!-- Node3 -->
<g id="node3" class="node"><title>Node3</title>
<g id="a_node3"><a xlink:href="_p_d_a_q_2_core_2_source_2xml_parser_8cpp.xhtml#a9a625f17c09a36e3ad532cdf16072609" target="_top" xlink:title="charmemset">
<polygon fill="white" stroke="black" points="272.5,-38.5 272.5,-57.5 343.5,-57.5 343.5,-38.5 272.5,-38.5"/>
<text text-anchor="middle" x="308" y="-45.5" font-family="Helvetica,sans-Serif" font-size="10.00">charmemset</text>
</a>
</g>
</g>
<!-- Node2&#45;&gt;Node3 -->
<g id="edge2" class="edge"><title>Node2&#45;&gt;Node3</title>
<path fill="none" stroke="midnightblue" d="M246.261,-48C255.466,-48 264.411,-48 272.482,-48"/>
<polygon fill="midnightblue" stroke="midnightblue" points="246.199,-44.5001 236.199,-48 246.199,-51.5001 246.199,-44.5001"/>
</g>
</g>
</svg>
