<?xml version="1.0" encoding="UTF-8" standalone="no"?>
<!DOCTYPE svg PUBLIC "-//W3C//DTD SVG 1.1//EN"
 "http://www.w3.org/Graphics/SVG/1.1/DTD/svg11.dtd">
<!-- Generated by graphviz version 2.36.0 (20140111.2315)
 -->
<!-- Title: myIsTextWideChar Pages: 1 -->
<svg width="368pt" height="370pt"
 viewBox="0.00 0.00 368.00 370.00" xmlns="http://www.w3.org/2000/svg" xmlns:xlink="http://www.w3.org/1999/xlink">
<g id="graph0" class="graph" transform="scale(1 1) rotate(0) translate(4 366)">
<title>myIsTextWideChar</title>
<polygon fill="white" stroke="none" points="-4,4 -4,-366 364,-366 364,4 -4,4"/>
<!-- Node1 -->
<g id="node1" class="node"><title>Node1</title>
<polygon fill="#bfbfbf" stroke="black" points="0.5,-171.5 0.5,-190.5 101.5,-190.5 101.5,-171.5 0.5,-171.5"/>
<text text-anchor="middle" x="51" y="-178.5" font-family="Helvetica,sans-Serif" font-size="10.00">myIsTextWideChar</text>
</g>
<!-- Node2 -->
<g id="node2" class="node"><title>Node2</title>
<g id="a_node2"><a xlink:href="_c_d_a_q_2_plugins_2_source_2xml_parser_8cpp.xhtml#af77e3e2685487b9c492b20c36f3b864a" target="_top" xlink:title="_strnicmp">
<polygon fill="white" stroke="black" points="171.5,-342.5 171.5,-361.5 230.5,-361.5 230.5,-342.5 171.5,-342.5"/>
<text text-anchor="middle" x="201" y="-349.5" font-family="Helvetica,sans-Serif" font-size="10.00">_strnicmp</text>
</a>
</g>
</g>
<!-- Node1&#45;&gt;Node2 -->
<g id="edge1" class="edge"><title>Node1&#45;&gt;Node2</title>
<path fill="none" stroke="midnightblue" d="M54.7505,-190.862C62.7875,-217.848 88.8291,-293.51 138,-333 144.814,-338.472 153.196,-342.373 161.569,-345.152"/>
<polygon fill="midnightblue" stroke="midnightblue" points="160.722,-348.55 171.299,-347.925 162.642,-341.818 160.722,-348.55"/>
</g>
<!-- Node3 -->
<g id="node3" class="node"><title>Node3</title>
<g id="a_node3"><a xlink:href="_c_d_a_q_2_plugins_2_source_2xml_parser_8cpp.xhtml#ae4635e3ac4b32772021240a9c16864ee" target="_top" xlink:title="mmin">
<polygon fill="white" stroke="black" points="180.5,-304.5 180.5,-323.5 221.5,-323.5 221.5,-304.5 180.5,-304.5"/>
<text text-anchor="middle" x="201" y="-311.5" font-family="Helvetica,sans-Serif" font-size="10.00">mmin</text>
</a>
</g>
</g>
<!-- Node1&#45;&gt;Node3 -->
<g id="edge2" class="edge"><title>Node1&#45;&gt;Node3</title>
<path fill="none" stroke="midnightblue" d="M57.153,-190.567C68.85,-211.446 99.4129,-261.505 138,-290 147.668,-297.139 159.728,-302.441 170.635,-306.22"/>
<polygon fill="midnightblue" stroke="midnightblue" points="169.636,-309.575 180.226,-309.27 171.758,-302.904 169.636,-309.575"/>
</g>
<!-- Node4 -->
<g id="node4" class="node"><title>Node4</title>
<g id="a_node4"><a xlink:href="_c_d_a_q_2_plugins_2_source_2xml_parser_8cpp.xhtml#ad7ec02a171e7641c1d364d5d367199a3" target="_top" xlink:title="myWideCharToMultiByte">
<polygon fill="white" stroke="black" points="138,-152.5 138,-171.5 264,-171.5 264,-152.5 138,-152.5"/>
<text text-anchor="middle" x="201" y="-159.5" font-family="Helvetica,sans-Serif" font-size="10.00">myWideCharToMultiByte</text>
</a>
</g>
</g>
<!-- Node1&#45;&gt;Node4 -->
<g id="edge3" class="edge"><title>Node1&#45;&gt;Node4</title>
<path fill="none" stroke="midnightblue" d="M101.694,-174.62C110.113,-173.539 119.006,-172.398 127.862,-171.261"/>
<polygon fill="midnightblue" stroke="midnightblue" points="128.346,-174.728 137.819,-169.983 127.455,-167.785 128.346,-174.728"/>
</g>
<!-- Node5 -->
<g id="node5" class="node"><title>Node5</title>
<g id="a_node5"><a xlink:href="_c_d_a_q_2_plugins_2_source_2xml_parser_8cpp.xhtml#a49fa66f65d2d28ce7b7e0b1752425915" target="_top" xlink:title="xstrlen">
<polygon fill="white" stroke="black" points="307,-264.5 307,-283.5 353,-283.5 353,-264.5 307,-264.5"/>
<text text-anchor="middle" x="330" y="-271.5" font-family="Helvetica,sans-Serif" font-size="10.00">xstrlen</text>
</a>
</g>
</g>
<!-- Node1&#45;&gt;Node5 -->
<g id="edge14" class="edge"><title>Node1&#45;&gt;Node5</title>
<path fill="none" stroke="midnightblue" d="M70.7862,-190.51C87.9841,-198.976 114.289,-211.328 138,-220 192.726,-240.016 258.492,-257.151 296.835,-266.477"/>
<polygon fill="midnightblue" stroke="midnightblue" points="296.349,-269.96 306.89,-268.896 297.986,-263.154 296.349,-269.96"/>
</g>
<!-- Node6 -->
<g id="node6" class="node"><title>Node6</title>
<g id="a_node6"><a xlink:href="_c_d_a_q_2_plugins_2_source_2xml_parser_8cpp.xhtml#a17c9570640aed10b61deec9047cb0940" target="_top" xlink:title="xstrnicmp">
<polygon fill="white" stroke="black" points="300.5,-217.5 300.5,-236.5 359.5,-236.5 359.5,-217.5 300.5,-217.5"/>
<text text-anchor="middle" x="330" y="-224.5" font-family="Helvetica,sans-Serif" font-size="10.00">xstrnicmp</text>
</a>
</g>
</g>
<!-- Node1&#45;&gt;Node6 -->
<g id="edge16" class="edge"><title>Node1&#45;&gt;Node6</title>
<path fill="none" stroke="midnightblue" d="M101.552,-189.746C113.483,-191.823 126.193,-194.012 138,-196 190.537,-204.845 251.281,-214.628 289.902,-220.792"/>
<polygon fill="midnightblue" stroke="midnightblue" points="289.757,-224.313 300.184,-222.431 290.859,-217.401 289.757,-224.313"/>
</g>
<!-- Node7 -->
<g id="node7" class="node"><title>Node7</title>
<g id="a_node7"><a xlink:href="_c_d_a_q_2_plugins_2_source_2xml_parser_8cpp.xhtml#a3165858f70cd74ffab31ebc2ddc9e104" target="_top" xlink:title="xstrncmp">
<polygon fill="white" stroke="black" points="301.5,-160.5 301.5,-179.5 358.5,-179.5 358.5,-160.5 301.5,-160.5"/>
<text text-anchor="middle" x="330" y="-167.5" font-family="Helvetica,sans-Serif" font-size="10.00">xstrncmp</text>
</a>
</g>
</g>
<!-- Node1&#45;&gt;Node7 -->
<g id="edge15" class="edge"><title>Node1&#45;&gt;Node7</title>
<path fill="none" stroke="midnightblue" d="M101.787,-183.348C144.812,-184.817 208.619,-185.653 264,-181 272.853,-180.256 282.314,-178.952 291.199,-177.496"/>
<polygon fill="midnightblue" stroke="midnightblue" points="292.042,-180.902 301.295,-175.741 290.844,-174.005 292.042,-180.902"/>
</g>
<!-- Node8 -->
<g id="node8" class="node"><title>Node8</title>
<g id="a_node8"><a xlink:href="_c_d_a_q_2_plugins_2_source_2xml_parser_8cpp.xhtml#a2e64ea95685df2d289c31a50419b532d" target="_top" xlink:title="xstricmp">
<polygon fill="white" stroke="black" points="303,-117.5 303,-136.5 357,-136.5 357,-117.5 303,-117.5"/>
<text text-anchor="middle" x="330" y="-124.5" font-family="Helvetica,sans-Serif" font-size="10.00">xstricmp</text>
</a>
</g>
</g>
<!-- Node1&#45;&gt;Node8 -->
<g id="edge13" class="edge"><title>Node1&#45;&gt;Node8</title>
<path fill="none" stroke="midnightblue" d="M69.1731,-171.361C86.1079,-162.357 113.01,-149.376 138,-143 190.608,-129.577 253.743,-126.765 292.616,-126.491"/>
<polygon fill="midnightblue" stroke="midnightblue" points="292.914,-129.99 302.908,-126.474 292.903,-122.99 292.914,-129.99"/>
</g>
<!-- Node9 -->
<g id="node9" class="node"><title>Node9</title>
<g id="a_node9"><a xlink:href="_c_d_a_q_2_plugins_2_source_2xml_parser_8cpp.xhtml#a696ca59a310359980c57de039f137697" target="_top" xlink:title="xstrstr">
<polygon fill="white" stroke="black" points="308,-77.5 308,-96.5 352,-96.5 352,-77.5 308,-77.5"/>
<text text-anchor="middle" x="330" y="-84.5" font-family="Helvetica,sans-Serif" font-size="10.00">xstrstr</text>
</a>
</g>
</g>
<!-- Node1&#45;&gt;Node9 -->
<g id="edge17" class="edge"><title>Node1&#45;&gt;Node9</title>
<path fill="none" stroke="midnightblue" d="M63.0914,-171.3C78.6911,-158.203 108.516,-135.113 138,-123 191.493,-101.022 258.968,-92.3366 297.728,-88.9959"/>
<polygon fill="midnightblue" stroke="midnightblue" points="298.172,-92.4716 307.863,-88.1887 297.617,-85.4937 298.172,-92.4716"/>
</g>
<!-- Node10 -->
<g id="node10" class="node"><title>Node10</title>
<g id="a_node10"><a xlink:href="_c_d_a_q_2_plugins_2_source_2xml_parser_8cpp.xhtml#a73c2349b2f386ee50130a3961bd2dbab" target="_top" xlink:title="xstrcpy">
<polygon fill="white" stroke="black" points="305.5,-38.5 305.5,-57.5 354.5,-57.5 354.5,-38.5 305.5,-38.5"/>
<text text-anchor="middle" x="330" y="-45.5" font-family="Helvetica,sans-Serif" font-size="10.00">xstrcpy</text>
</a>
</g>
</g>
<!-- Node1&#45;&gt;Node10 -->
<g id="edge12" class="edge"><title>Node1&#45;&gt;Node10</title>
<path fill="none" stroke="midnightblue" d="M57.9664,-171.276C70.3206,-152.034 100.689,-109.138 138,-88 187.924,-59.7156 255.389,-51.3484 295.335,-48.9246"/>
<polygon fill="midnightblue" stroke="midnightblue" points="295.546,-52.4185 305.352,-48.4072 295.185,-45.4278 295.546,-52.4185"/>
</g>
<!-- Node11 -->
<g id="node11" class="node"><title>Node11</title>
<g id="a_node11"><a xlink:href="_c_d_a_q_2_plugins_2_source_2xml_parser_8cpp.xhtml#a8dd6e6cada28ea03e5cacd075b1be7f6" target="_top" xlink:title="xfopen">
<polygon fill="white" stroke="black" points="307,-0.5 307,-19.5 353,-19.5 353,-0.5 307,-0.5"/>
<text text-anchor="middle" x="330" y="-7.5" font-family="Helvetica,sans-Serif" font-size="10.00">xfopen</text>
</a>
</g>
</g>
<!-- Node1&#45;&gt;Node11 -->
<g id="edge11" class="edge"><title>Node1&#45;&gt;Node11</title>
<path fill="none" stroke="midnightblue" d="M55.1664,-171.319C63.9016,-146.25 90.8665,-78.9546 138,-47 186.248,-14.2901 256.246,-8.86702 296.742,-8.80603"/>
<polygon fill="midnightblue" stroke="midnightblue" points="296.823,-12.3069 306.855,-8.9025 296.889,-5.30718 296.823,-12.3069"/>
</g>
<!-- Node4&#45;&gt;Node5 -->
<g id="edge4" class="edge"><title>Node4&#45;&gt;Node5</title>
<path fill="none" stroke="midnightblue" d="M212.828,-171.549C234.572,-190.725 283.761,-234.104 310.632,-257.801"/>
<polygon fill="midnightblue" stroke="midnightblue" points="308.384,-260.486 318.199,-264.475 313.014,-255.236 308.384,-260.486"/>
</g>
<!-- Node4&#45;&gt;Node6 -->
<g id="edge5" class="edge"><title>Node4&#45;&gt;Node6</title>
<path fill="none" stroke="midnightblue" d="M220.739,-171.591C241.937,-182.44 276.674,-200.219 301.071,-212.706"/>
<polygon fill="midnightblue" stroke="midnightblue" points="299.687,-215.929 310.184,-217.37 302.877,-209.698 299.687,-215.929"/>
</g>
<!-- Node4&#45;&gt;Node7 -->
<g id="edge6" class="edge"><title>Node4&#45;&gt;Node7</title>
<path fill="none" stroke="midnightblue" d="M264.012,-165.906C273.323,-166.493 282.677,-167.082 291.272,-167.623"/>
<polygon fill="midnightblue" stroke="midnightblue" points="291.125,-171.121 301.325,-168.257 291.565,-164.135 291.125,-171.121"/>
</g>
<!-- Node4&#45;&gt;Node8 -->
<g id="edge7" class="edge"><title>Node4&#45;&gt;Node8</title>
<path fill="none" stroke="midnightblue" d="M236.703,-152.436C254.139,-147.631 275.249,-141.813 292.878,-136.955"/>
<polygon fill="midnightblue" stroke="midnightblue" points="294.09,-140.251 302.801,-134.22 292.231,-133.503 294.09,-140.251"/>
</g>
<!-- Node4&#45;&gt;Node9 -->
<g id="edge8" class="edge"><title>Node4&#45;&gt;Node9</title>
<path fill="none" stroke="midnightblue" d="M218.343,-152.349C240.061,-139.523 278.641,-116.74 304.022,-101.751"/>
<polygon fill="midnightblue" stroke="midnightblue" points="305.889,-104.713 312.72,-96.6144 302.329,-98.6857 305.889,-104.713"/>
</g>
<!-- Node4&#45;&gt;Node10 -->
<g id="edge9" class="edge"><title>Node4&#45;&gt;Node10</title>
<path fill="none" stroke="midnightblue" d="M210.996,-152.401C227.728,-134.778 265.105,-96.4592 300,-68 301.81,-66.5239 303.725,-65.0431 305.674,-63.592"/>
<polygon fill="midnightblue" stroke="midnightblue" points="308.087,-66.1712 314.211,-57.5256 304.032,-60.4652 308.087,-66.1712"/>
</g>
<!-- Node4&#45;&gt;Node11 -->
<g id="edge10" class="edge"><title>Node4&#45;&gt;Node11</title>
<path fill="none" stroke="midnightblue" d="M207.425,-152.405C220.868,-129.202 257.713,-69.0222 300,-29 301.232,-27.8338 302.545,-26.694 303.905,-25.589"/>
<polygon fill="midnightblue" stroke="midnightblue" points="305.968,-28.4166 311.988,-19.6986 301.845,-22.7593 305.968,-28.4166"/>
</g>
</g>
</svg>
