<?xml version="1.0" encoding="UTF-8" standalone="no"?>
<!DOCTYPE svg PUBLIC "-//W3C//DTD SVG 1.1//EN"
 "http://www.w3.org/Graphics/SVG/1.1/DTD/svg11.dtd">
<!-- Generated by graphviz version 2.36.0 (20140111.2315)
 -->
<!-- Title: CountLinesAndColumns Pages: 1 -->
<!--zoomable 325 -->
<svg id="main" version="1.1" xmlns="http://www.w3.org/2000/svg" xmlns:xlink="http://www.w3.org/1999/xlink" xml:space="preserve" onload="init(evt)">
<style type="text/css"><![CDATA[
.edge:hover path { stroke: red; }
.edge:hover polygon { stroke: red; fill: red; }
]]></style>
<script type="text/javascript"><![CDATA[
var edges = document.getElementsByTagName('g');
if (edges && edges.length) {
  for (var i=0;i<edges.length;i++) {
    if (edges[i].id.substr(0,4)=='edge') {
      edges[i].setAttribute('class','edge');
    }
  }
}
]]></script>
        <defs>
                <circle id="rim" cx="0" cy="0" r="7"/>
                <circle id="rim2" cx="0" cy="0" r="3.5"/>
                <g id="zoomPlus">
                        <use xlink:href="#rim" fill="#404040">
                                <set attributeName="fill" to="#808080" begin="zoomplus.mouseover" end="zoomplus.mouseout"/>
                        </use>
                        <path d="M-4,0h8M0,-4v8" fill="none" stroke="white" stroke-width="1.5" pointer-events="none"/>
                </g>
                <g id="zoomMin">
                        <use xlink:href="#rim" fill="#404040">
                                <set attributeName="fill" to="#808080" begin="zoomminus.mouseover" end="zoomminus.mouseout"/>
                        </use>
                        <path d="M-4,0h8" fill="none" stroke="white" stroke-width="1.5" pointer-events="none"/>
                </g>
                <g id="dirArrow">
                        <path fill="none" stroke="white" stroke-width="1.5" d="M0,-3.0v7 M-2.5,-0.5L0,-3.0L2.5,-0.5"/>
                </g>
               <g id="resetDef">
                       <use xlink:href="#rim2" fill="#404040">
                               <set attributeName="fill" to="#808080" begin="reset.mouseover" end="reset.mouseout"/>
                       </use>
               </g>
        </defs>

<script type="text/javascript">
var viewWidth = 924;
var viewHeight = 325;
var sectionId = 'dynsection-4';
</script>
<script xlink:href="svgpan.js"/>
<svg id="graph" class="graph">
<g id="viewport">
<title>CountLinesAndColumns</title>
<polygon fill="white" stroke="none" points="-4,4 -4,-321 920,-321 920,4 -4,4"/>
<!-- Node1 -->
<g id="node1" class="node"><title>Node1</title>
<polygon fill="#bfbfbf" stroke="black" points="0,-145.5 0,-164.5 122,-164.5 122,-145.5 0,-145.5"/>
<text text-anchor="middle" x="61" y="-152.5" font-family="Helvetica,sans-Serif" font-size="10.00">CountLinesAndColumns</text>
</g>
<!-- Node2 -->
<g id="node2" class="node"><title>Node2</title>
<g id="a_node2"><a xlink:href="struct_x_m_l_node.xhtml#acb95f4f00e4cf3756aac0e3a53765248" target="_top" xlink:title="XMLNode::parseString">
<polygon fill="white" stroke="black" points="158,-145.5 158,-164.5 274,-164.5 274,-145.5 158,-145.5"/>
<text text-anchor="middle" x="216" y="-152.5" font-family="Helvetica,sans-Serif" font-size="10.00">XMLNode::parseString</text>
</a>
</g>
</g>
<!-- Node1&#45;&gt;Node2 -->
<g id="edge1" class="edge"><title>Node1&#45;&gt;Node2</title>
<path fill="none" stroke="midnightblue" d="M132.302,-155C140.787,-155 149.375,-155 157.644,-155"/>
<polygon fill="midnightblue" stroke="midnightblue" points="132.031,-151.5 122.031,-155 132.03,-158.5 132.031,-151.5"/>
</g>
<!-- Node3 -->
<g id="node3" class="node"><title>Node3</title>
<g id="a_node3"><a xlink:href="struct_x_m_l_node.xhtml#a5e5968e052d58350918cd91e3535624b" target="_top" xlink:title="XMLNode::parseFile">
<polygon fill="white" stroke="black" points="310,-164.5 310,-183.5 416,-183.5 416,-164.5 310,-164.5"/>
<text text-anchor="middle" x="363" y="-171.5" font-family="Helvetica,sans-Serif" font-size="10.00">XMLNode::parseFile</text>
</a>
</g>
</g>
<!-- Node2&#45;&gt;Node3 -->
<g id="edge2" class="edge"><title>Node2&#45;&gt;Node3</title>
<path fill="none" stroke="midnightblue" d="M284.296,-163.818C292.866,-164.941 301.535,-166.077 309.818,-167.162"/>
<polygon fill="midnightblue" stroke="midnightblue" points="284.678,-160.338 274.308,-162.509 283.768,-167.279 284.678,-160.338"/>
</g>
<!-- Node17 -->
<g id="node17" class="node"><title>Node17</title>
<g id="a_node17"><a xlink:href="_p_d_a_q_2_core_2_source_2xml_parser_8cpp.xhtml#ae6aa5a367ab3cc92b47fd92f81add72a" target="_top" xlink:title="CountLinesAndColumns">
<polygon fill="white" stroke="black" points="457,-126.5 457,-145.5 579,-145.5 579,-126.5 457,-126.5"/>
<text text-anchor="middle" x="518" y="-133.5" font-family="Helvetica,sans-Serif" font-size="10.00">CountLinesAndColumns</text>
</a>
</g>
</g>
<!-- Node2&#45;&gt;Node17 -->
<g id="edge20" class="edge"><title>Node2&#45;&gt;Node17</title>
<path fill="none" stroke="midnightblue" d="M284.231,-150.742C336.058,-147.46 407.075,-142.962 456.995,-139.8"/>
<polygon fill="midnightblue" stroke="midnightblue" points="283.893,-147.256 274.134,-151.382 284.335,-154.242 283.893,-147.256"/>
</g>
<!-- Node4 -->
<g id="node4" class="node"><title>Node4</title>
<g id="a_node4"><a xlink:href="struct_x_m_l_node.xhtml#acc044148e2b9b8264a320b7b6e398158" target="_top" xlink:title="XMLNode::openFileHelper">
<polygon fill="white" stroke="black" points="452.5,-164.5 452.5,-183.5 583.5,-183.5 583.5,-164.5 452.5,-164.5"/>
<text text-anchor="middle" x="518" y="-171.5" font-family="Helvetica,sans-Serif" font-size="10.00">XMLNode::openFileHelper</text>
</a>
</g>
</g>
<!-- Node3&#45;&gt;Node4 -->
<g id="edge3" class="edge"><title>Node3&#45;&gt;Node4</title>
<path fill="none" stroke="midnightblue" d="M426.464,-174C434.979,-174 443.735,-174 452.289,-174"/>
<polygon fill="midnightblue" stroke="midnightblue" points="426.226,-170.5 416.226,-174 426.226,-177.5 426.226,-170.5"/>
</g>
<!-- Node12 -->
<g id="node12" class="node"><title>Node12</title>
<g id="a_node12"><a xlink:href="_p_d_a_q_2_core_2_source_2xml_parser_8cpp.xhtml#af77e3e2685487b9c492b20c36f3b864a" target="_top" xlink:title="_strnicmp">
<polygon fill="white" stroke="black" points="669.5,-278.5 669.5,-297.5 728.5,-297.5 728.5,-278.5 669.5,-278.5"/>
<text text-anchor="middle" x="699" y="-285.5" font-family="Helvetica,sans-Serif" font-size="10.00">_strnicmp</text>
</a>
</g>
</g>
<!-- Node3&#45;&gt;Node12 -->
<g id="edge18" class="edge"><title>Node3&#45;&gt;Node12</title>
<path fill="none" stroke="midnightblue" d="M396.268,-187.358C444.411,-206.97 538.154,-243.939 620,-269 636.125,-273.938 654.433,-278.452 669.257,-281.841"/>
<polygon fill="midnightblue" stroke="midnightblue" points="397.567,-184.108 386.986,-183.561 394.917,-190.587 397.567,-184.108"/>
</g>
<!-- Node3&#45;&gt;Node17 -->
<g id="edge19" class="edge"><title>Node3&#45;&gt;Node17</title>
<path fill="none" stroke="midnightblue" d="M412.477,-161.96C433.852,-156.651 458.613,-150.501 478.669,-145.52"/>
<polygon fill="midnightblue" stroke="midnightblue" points="411.47,-158.604 402.608,-164.411 413.157,-165.397 411.47,-158.604"/>
</g>
<!-- Node5 -->
<g id="node5" class="node"><title>Node5</title>
<g id="a_node5"><a xlink:href="class_a_d_c_manager1720.xhtml#aae342ccd8bf1c253c455e195bfd82dfe" target="_top" xlink:title="ADCManager1720::Init">
<polygon fill="white" stroke="black" points="641,-240.5 641,-259.5 757,-259.5 757,-240.5 641,-240.5"/>
<text text-anchor="middle" x="699" y="-247.5" font-family="Helvetica,sans-Serif" font-size="10.00">ADCManager1720::Init</text>
</a>
</g>
</g>
<!-- Node4&#45;&gt;Node5 -->
<g id="edge4" class="edge"><title>Node4&#45;&gt;Node5</title>
<path fill="none" stroke="midnightblue" d="M541.736,-189.243C561.637,-201.985 591.711,-219.82 620,-231 629.462,-234.74 639.871,-237.891 649.916,-240.487"/>
<polygon fill="midnightblue" stroke="midnightblue" points="543.384,-186.14 533.094,-183.619 539.566,-192.007 543.384,-186.14"/>
</g>
<!-- Node6 -->
<g id="node6" class="node"><title>Node6</title>
<g id="a_node6"><a xlink:href="class_a_d_c_manager1724.xhtml#a6de2521b9c793edcf14aeaeefeb62787" target="_top" xlink:title="ADCManager1724::Init">
<polygon fill="white" stroke="black" points="641,-202.5 641,-221.5 757,-221.5 757,-202.5 641,-202.5"/>
<text text-anchor="middle" x="699" y="-209.5" font-family="Helvetica,sans-Serif" font-size="10.00">ADCManager1724::Init</text>
</a>
</g>
</g>
<!-- Node4&#45;&gt;Node6 -->
<g id="edge5" class="edge"><title>Node4&#45;&gt;Node6</title>
<path fill="none" stroke="midnightblue" d="M574.024,-185.681C599.408,-191.07 629.161,-197.386 653.156,-202.48"/>
<polygon fill="midnightblue" stroke="midnightblue" points="574.678,-182.242 564.169,-183.589 573.224,-189.089 574.678,-182.242"/>
</g>
<!-- Node7 -->
<g id="node7" class="node"><title>Node7</title>
<g id="a_node7"><a xlink:href="class_a_d_c_manager1730.xhtml#adb6d45f2024f4a52d366a88d1c7f229d" target="_top" xlink:title="ADCManager1730::Init">
<polygon fill="white" stroke="black" points="641,-164.5 641,-183.5 757,-183.5 757,-164.5 641,-164.5"/>
<text text-anchor="middle" x="699" y="-171.5" font-family="Helvetica,sans-Serif" font-size="10.00">ADCManager1730::Init</text>
</a>
</g>
</g>
<!-- Node4&#45;&gt;Node7 -->
<g id="edge6" class="edge"><title>Node4&#45;&gt;Node7</title>
<path fill="none" stroke="midnightblue" d="M593.85,-174C609.58,-174 625.93,-174 640.887,-174"/>
<polygon fill="midnightblue" stroke="midnightblue" points="593.623,-170.5 583.623,-174 593.623,-177.5 593.623,-170.5"/>
</g>
<!-- Node8 -->
<g id="node8" class="node"><title>Node8</title>
<g id="a_node8"><a xlink:href="class_scope_manager.xhtml#abe246d1b817d85a9cba7af3441a4df04" target="_top" xlink:title="ScopeManager::ShowEvent">
<polygon fill="white" stroke="black" points="630,-126.5 630,-145.5 768,-145.5 768,-126.5 630,-126.5"/>
<text text-anchor="middle" x="699" y="-133.5" font-family="Helvetica,sans-Serif" font-size="10.00">ScopeManager::ShowEvent</text>
</a>
</g>
</g>
<!-- Node4&#45;&gt;Node8 -->
<g id="edge7" class="edge"><title>Node4&#45;&gt;Node8</title>
<path fill="none" stroke="midnightblue" d="M574.024,-162.319C599.408,-156.93 629.161,-150.614 653.156,-145.52"/>
<polygon fill="midnightblue" stroke="midnightblue" points="573.224,-158.911 564.169,-164.411 574.678,-165.758 573.224,-158.911"/>
</g>
<!-- Node10 -->
<g id="node10" class="node"><title>Node10</title>
<g id="a_node10"><a xlink:href="class_slowcontrol_manager.xhtml#a36ab5157f5a740b9058517b77d1ce38f" target="_top" xlink:title="SlowcontrolManager\l::ShowStatus">
<polygon fill="white" stroke="black" points="646.5,-77 646.5,-107 751.5,-107 751.5,-77 646.5,-77"/>
<text text-anchor="start" x="654.5" y="-95" font-family="Helvetica,sans-Serif" font-size="10.00">SlowcontrolManager</text>
<text text-anchor="middle" x="699" y="-84" font-family="Helvetica,sans-Serif" font-size="10.00">::ShowStatus</text>
</a>
</g>
</g>
<!-- Node4&#45;&gt;Node10 -->
<g id="edge9" class="edge"><title>Node4&#45;&gt;Node10</title>
<path fill="none" stroke="midnightblue" d="M572.691,-160.828C576.628,-159.107 580.445,-157.172 584,-155 603.853,-142.872 600.305,-129.383 620,-117 628.066,-111.929 637.252,-107.799 646.421,-104.467"/>
<polygon fill="midnightblue" stroke="midnightblue" points="571.396,-157.576 563.35,-164.47 573.939,-164.098 571.396,-157.576"/>
</g>
<!-- Node11 -->
<g id="node11" class="node"><title>Node11</title>
<g id="a_node11"><a xlink:href="class_storage_manager.xhtml#ab16a945d003852d02556daf3610a9aac" target="_top" xlink:title="StorageManager::SaveContainer">
<polygon fill="white" stroke="black" points="620,-38.5 620,-57.5 778,-57.5 778,-38.5 620,-38.5"/>
<text text-anchor="middle" x="699" y="-45.5" font-family="Helvetica,sans-Serif" font-size="10.00">StorageManager::SaveContainer</text>
</a>
</g>
</g>
<!-- Node4&#45;&gt;Node11 -->
<g id="edge11" class="edge"><title>Node4&#45;&gt;Node11</title>
<path fill="none" stroke="midnightblue" d="M578.446,-159.324C580.4,-158.005 582.261,-156.567 584,-155 615.392,-126.712 587.973,-94.5674 620,-67 624.437,-63.1812 629.517,-60.104 634.91,-57.6278"/>
<polygon fill="midnightblue" stroke="midnightblue" points="576.401,-156.457 569.373,-164.386 579.811,-162.57 576.401,-156.457"/>
</g>
<!-- Node4&#45;&gt;Node12 -->
<g id="edge13" class="edge"><title>Node4&#45;&gt;Node12</title>
<path fill="none" stroke="midnightblue" d="M536.708,-190.872C565.01,-217.81 617.532,-267.662 620,-269 635.193,-277.238 653.968,-281.953 669.29,-284.626"/>
<polygon fill="midnightblue" stroke="midnightblue" points="538.761,-187.995 529.106,-183.634 533.934,-193.064 538.761,-187.995"/>
</g>
<!-- Node15 -->
<g id="node15" class="node"><title>Node15</title>
<g id="a_node15"><a xlink:href="_p_d_a_q_2_core_2_source_2xml_8cpp.xhtml#a8251b051736c5146c1985edc6cb357e6" target="_top" xlink:title="xml_readsettings">
<polygon fill="white" stroke="black" points="653.5,-0.5 653.5,-19.5 744.5,-19.5 744.5,-0.5 653.5,-0.5"/>
<text text-anchor="middle" x="699" y="-7.5" font-family="Helvetica,sans-Serif" font-size="10.00">xml_readsettings</text>
</a>
</g>
</g>
<!-- Node4&#45;&gt;Node15 -->
<g id="edge16" class="edge"><title>Node4&#45;&gt;Node15</title>
<path fill="none" stroke="midnightblue" d="M579.424,-159C581.038,-157.769 582.57,-156.438 584,-155 625.057,-113.692 578.015,-69.3641 620,-29 628.942,-20.403 641.094,-15.4872 653.144,-12.732"/>
<polygon fill="midnightblue" stroke="midnightblue" points="577.422,-156.124 570.762,-164.363 581.106,-162.075 577.422,-156.124"/>
</g>
<!-- Node9 -->
<g id="node9" class="node"><title>Node9</title>
<g id="a_node9"><a xlink:href="_multi_d_a_q_8cpp.xhtml#adedb285b02c41bde2158ded9cc9fd7ac" target="_top" xlink:title="main">
<polygon fill="white" stroke="black" points="846,-82.5 846,-101.5 884,-101.5 884,-82.5 846,-82.5"/>
<text text-anchor="middle" x="865" y="-89.5" font-family="Helvetica,sans-Serif" font-size="10.00">main</text>
</a>
</g>
</g>
<!-- Node8&#45;&gt;Node9 -->
<g id="edge8" class="edge"><title>Node8&#45;&gt;Node9</title>
<path fill="none" stroke="midnightblue" d="M747.581,-123.97C757.636,-121.38 768.176,-118.63 778,-116 801.509,-109.707 828.528,-102.106 845.911,-97.168"/>
<polygon fill="midnightblue" stroke="midnightblue" points="746.549,-120.622 737.732,-126.496 748.288,-127.402 746.549,-120.622"/>
</g>
<!-- Node10&#45;&gt;Node9 -->
<g id="edge10" class="edge"><title>Node10&#45;&gt;Node9</title>
<path fill="none" stroke="midnightblue" d="M762.256,-92C792.076,-92 825.599,-92 845.744,-92"/>
<polygon fill="midnightblue" stroke="midnightblue" points="761.891,-88.5001 751.891,-92 761.891,-95.5001 761.891,-88.5001"/>
</g>
<!-- Node11&#45;&gt;Node9 -->
<g id="edge12" class="edge"><title>Node11&#45;&gt;Node9</title>
<path fill="none" stroke="midnightblue" d="M750.394,-59.9314C759.596,-62.2078 769.1,-64.6236 778,-67 801.585,-73.2973 828.587,-81.2735 845.945,-86.5007"/>
<polygon fill="midnightblue" stroke="midnightblue" points="751.115,-56.5047 740.57,-57.5244 749.449,-63.3036 751.115,-56.5047"/>
</g>
<!-- Node13 -->
<g id="node13" class="node"><title>Node13</title>
<g id="a_node13"><a xlink:href="_p_d_a_q_2_core_2_source_2xml_parser_8cpp.xhtml#ad9a5c911a8e21bb89427d29d33e2797e" target="_top" xlink:title="myIsTextWideChar">
<polygon fill="white" stroke="black" points="814.5,-297.5 814.5,-316.5 915.5,-316.5 915.5,-297.5 814.5,-297.5"/>
<text text-anchor="middle" x="865" y="-304.5" font-family="Helvetica,sans-Serif" font-size="10.00">myIsTextWideChar</text>
</a>
</g>
</g>
<!-- Node12&#45;&gt;Node13 -->
<g id="edge14" class="edge"><title>Node12&#45;&gt;Node13</title>
<path fill="none" stroke="midnightblue" d="M738.784,-292.493C761.346,-295.107 790.018,-298.429 814.231,-301.234"/>
<polygon fill="midnightblue" stroke="midnightblue" points="738.903,-288.984 728.567,-291.31 738.097,-295.937 738.903,-288.984"/>
</g>
<!-- Node14 -->
<g id="node14" class="node"><title>Node14</title>
<g id="a_node14"><a xlink:href="_p_d_a_q_2_core_2_source_2xml_parser_8cpp.xhtml#a9a625f17c09a36e3ad532cdf16072609" target="_top" xlink:title="charmemset">
<polygon fill="white" stroke="black" points="829.5,-259.5 829.5,-278.5 900.5,-278.5 900.5,-259.5 829.5,-259.5"/>
<text text-anchor="middle" x="865" y="-266.5" font-family="Helvetica,sans-Serif" font-size="10.00">charmemset</text>
</a>
</g>
</g>
<!-- Node12&#45;&gt;Node14 -->
<g id="edge15" class="edge"><title>Node12&#45;&gt;Node14</title>
<path fill="none" stroke="midnightblue" d="M738.605,-283.527C766.068,-280.346 802.653,-276.107 829.214,-273.03"/>
<polygon fill="midnightblue" stroke="midnightblue" points="738.097,-280.063 728.567,-284.69 738.903,-287.016 738.097,-280.063"/>
</g>
<!-- Node16 -->
<g id="node16" class="node"><title>Node16</title>
<g id="a_node16"><a xlink:href="_z_d_a_q_8cpp.xhtml#a0ddf1224851353fc92bfbff6f499fa97" target="_top" xlink:title="main">
<polygon fill="white" stroke="black" points="846,-0.5 846,-19.5 884,-19.5 884,-0.5 846,-0.5"/>
<text text-anchor="middle" x="865" y="-7.5" font-family="Helvetica,sans-Serif" font-size="10.00">main</text>
</a>
</g>
</g>
<!-- Node15&#45;&gt;Node16 -->
<g id="edge17" class="edge"><title>Node15&#45;&gt;Node16</title>
<path fill="none" stroke="midnightblue" d="M755.216,-10C786.646,-10 823.974,-10 845.724,-10"/>
<polygon fill="midnightblue" stroke="midnightblue" points="754.814,-6.5001 744.814,-10 754.814,-13.5001 754.814,-6.5001"/>
</g>
</g>
</svg>
        <g id="navigator" transform="translate(0 0)" fill="#404254">
                <rect fill="#f2f5e9" fill-opacity="0.5" stroke="#606060" stroke-width=".5" x="0" y="0" width="60" height="60"/>
                <use id="zoomplus" xlink:href="#zoomPlus" x="17" y="9" onmousedown="handleZoom(evt,'in')"/>
                <use id="zoomminus" xlink:href="#zoomMin" x="42" y="9" onmousedown="handleZoom(evt,'out')"/>
                <use id="reset" xlink:href="#resetDef" x="30" y="36" onmousedown="handleReset()"/>
                <g id="arrowUp" xlink:href="#dirArrow" transform="translate(30 24)" onmousedown="handlePan(0,-1)">
                  <use xlink:href="#rim" fill="#404040">
                        <set attributeName="fill" to="#808080" begin="arrowUp.mouseover" end="arrowUp.mouseout"/>
                  </use>
                  <path fill="none" stroke="white" stroke-width="1.5" d="M0,-3.0v7 M-2.5,-0.5L0,-3.0L2.5,-0.5"/>
                </g>
                <g id="arrowRight" xlink:href="#dirArrow" transform="rotate(90) translate(36 -43)" onmousedown="handlePan(1,0)">
                  <use xlink:href="#rim" fill="#404040">
                        <set attributeName="fill" to="#808080" begin="arrowRight.mouseover" end="arrowRight.mouseout"/>
                  </use>
                  <path fill="none" stroke="white" stroke-width="1.5" d="M0,-3.0v7 M-2.5,-0.5L0,-3.0L2.5,-0.5"/>
                </g>
                <g id="arrowDown" xlink:href="#dirArrow" transform="rotate(180) translate(-30 -48)" onmousedown="handlePan(0,1)">
                  <use xlink:href="#rim" fill="#404040">
                        <set attributeName="fill" to="#808080" begin="arrowDown.mouseover" end="arrowDown.mouseout"/>
                  </use>
                  <path fill="none" stroke="white" stroke-width="1.5" d="M0,-3.0v7 M-2.5,-0.5L0,-3.0L2.5,-0.5"/>
                </g>
                <g id="arrowLeft" xlink:href="#dirArrow" transform="rotate(270) translate(-36 17)" onmousedown="handlePan(-1,0)">
                  <use xlink:href="#rim" fill="#404040">
                        <set attributeName="fill" to="#808080" begin="arrowLeft.mouseover" end="arrowLeft.mouseout"/>
                  </use>
                  <path fill="none" stroke="white" stroke-width="1.5" d="M0,-3.0v7 M-2.5,-0.5L0,-3.0L2.5,-0.5"/>
                </g>
        </g>
        <svg viewBox="0 0 15 15" width="100%" height="30px" preserveAspectRatio="xMaxYMin meet">
         <g id="arrow_out" transform="scale(0.3 0.3)">
          <a xlink:href="_c_d_a_q_2_plugins_2_source_2xml_parser_8cpp_ae6aa5a367ab3cc92b47fd92f81add72a_icgraph_org.svg" target="_base">
           <rect id="button" ry="5" rx="5" y="6" x="6" height="38" width="38"
                fill="#f2f5e9" fill-opacity="0.5" stroke="#606060" stroke-width="1.0"/>
           <path id="arrow"
             d="M 11.500037,31.436501 C 11.940474,20.09759 22.043105,11.32322 32.158766,21.979434 L 37.068811,17.246167 C 37.068811,17.246167 37.088388,32 37.088388,32 L 22.160133,31.978069 C 22.160133,31.978069 26.997745,27.140456 26.997745,27.140456 C 18.528582,18.264221 13.291696,25.230495 11.500037,31.436501 z"
             style="fill:#404040;"/>
          </a>
         </g>
        </svg>
</svg>
