<?xml version="1.0" encoding="UTF-8" standalone="no"?>
<!DOCTYPE svg PUBLIC "-//W3C//DTD SVG 1.1//EN"
 "http://www.w3.org/Graphics/SVG/1.1/DTD/svg11.dtd">
<!-- Generated by graphviz version 2.36.0 (20140111.2315)
 -->
<!-- Title: /data/Software/DAQ/CDAQ/Plugins/Source/common.cpp Pages: 1 -->
<svg width="662pt" height="106pt"
 viewBox="0.00 0.00 662.00 106.00" xmlns="http://www.w3.org/2000/svg" xmlns:xlink="http://www.w3.org/1999/xlink">
<g id="graph0" class="graph" transform="scale(1 1) rotate(0) translate(4 102)">
<title>/data/Software/DAQ/CDAQ/Plugins/Source/common.cpp</title>
<polygon fill="white" stroke="none" points="-4,4 -4,-102 658,-102 658,4 -4,4"/>
<!-- Node1 -->
<g id="node1" class="node"><title>Node1</title>
<polygon fill="#bfbfbf" stroke="black" points="238,-56.5 238,-97.5 356,-97.5 356,-56.5 238,-56.5"/>
<text text-anchor="start" x="246" y="-85.5" font-family="Helvetica,sans-Serif" font-size="10.00">/data/Software/DAQ</text>
<text text-anchor="start" x="246" y="-74.5" font-family="Helvetica,sans-Serif" font-size="10.00">/CDAQ/Plugins/Source</text>
<text text-anchor="middle" x="297" y="-63.5" font-family="Helvetica,sans-Serif" font-size="10.00">/common.cpp</text>
</g>
<!-- Node2 -->
<g id="node2" class="node"><title>Node2</title>
<polygon fill="white" stroke="#bfbfbf" points="0,-0.5 0,-19.5 52,-19.5 52,-0.5 0,-0.5"/>
<text text-anchor="middle" x="26" y="-7.5" font-family="Helvetica,sans-Serif" font-size="10.00">sstream</text>
</g>
<!-- Node1&#45;&gt;Node2 -->
<g id="edge1" class="edge"><title>Node1&#45;&gt;Node2</title>
<path fill="none" stroke="midnightblue" d="M237.763,-62.2675C192.321,-51.6588 127.771,-36.4302 62.4269,-20.3218"/>
<polygon fill="midnightblue" stroke="midnightblue" points="62.9075,-16.8353 52.3599,-17.8345 61.2285,-23.631 62.9075,-16.8353"/>
</g>
<!-- Node3 -->
<g id="node3" class="node"><title>Node3</title>
<polygon fill="white" stroke="#bfbfbf" points="70,-0.5 70,-19.5 124,-19.5 124,-0.5 70,-0.5"/>
<text text-anchor="middle" x="97" y="-7.5" font-family="Helvetica,sans-Serif" font-size="10.00">iostream</text>
</g>
<!-- Node1&#45;&gt;Node3 -->
<g id="edge2" class="edge"><title>Node1&#45;&gt;Node3</title>
<path fill="none" stroke="midnightblue" d="M237.805,-56.7617C203.803,-45.7109 162.203,-32.1911 133.07,-22.7227"/>
<polygon fill="midnightblue" stroke="midnightblue" points="133.91,-19.3155 123.318,-19.5532 131.746,-25.9728 133.91,-19.3155"/>
</g>
<!-- Node4 -->
<g id="node4" class="node"><title>Node4</title>
<polygon fill="white" stroke="#bfbfbf" points="142,-0.5 142,-19.5 190,-19.5 190,-0.5 142,-0.5"/>
<text text-anchor="middle" x="166" y="-7.5" font-family="Helvetica,sans-Serif" font-size="10.00">stdlib.h</text>
</g>
<!-- Node1&#45;&gt;Node4 -->
<g id="edge3" class="edge"><title>Node1&#45;&gt;Node4</title>
<path fill="none" stroke="midnightblue" d="M257.696,-56.4979C236.645,-46.053 211.273,-33.4638 192.559,-24.1782"/>
<polygon fill="midnightblue" stroke="midnightblue" points="193.952,-20.962 183.438,-19.6525 190.84,-27.2326 193.952,-20.962"/>
</g>
<!-- Node5 -->
<g id="node5" class="node"><title>Node5</title>
<polygon fill="white" stroke="#bfbfbf" points="208,-0.5 208,-19.5 254,-19.5 254,-0.5 208,-0.5"/>
<text text-anchor="middle" x="231" y="-7.5" font-family="Helvetica,sans-Serif" font-size="10.00">stdio.h</text>
</g>
<!-- Node1&#45;&gt;Node5 -->
<g id="edge4" class="edge"><title>Node1&#45;&gt;Node5</title>
<path fill="none" stroke="midnightblue" d="M277.198,-56.4979C267.565,-47.0113 256.137,-35.7557 247.056,-26.8131"/>
<polygon fill="midnightblue" stroke="midnightblue" points="249.366,-24.1757 239.786,-19.6525 244.455,-29.1631 249.366,-24.1757"/>
</g>
<!-- Node6 -->
<g id="node6" class="node"><title>Node6</title>
<polygon fill="white" stroke="#bfbfbf" points="272.5,-0.5 272.5,-19.5 321.5,-19.5 321.5,-0.5 272.5,-0.5"/>
<text text-anchor="middle" x="297" y="-7.5" font-family="Helvetica,sans-Serif" font-size="10.00">string.h</text>
</g>
<!-- Node1&#45;&gt;Node6 -->
<g id="edge5" class="edge"><title>Node1&#45;&gt;Node6</title>
<path fill="none" stroke="midnightblue" d="M297,-56.4979C297,-48.0653 297,-38.2351 297,-29.874"/>
<polygon fill="midnightblue" stroke="midnightblue" points="300.5,-29.6525 297,-19.6525 293.5,-29.6525 300.5,-29.6525"/>
</g>
<!-- Node7 -->
<g id="node7" class="node"><title>Node7</title>
<polygon fill="white" stroke="#bfbfbf" points="340,-0.5 340,-19.5 390,-19.5 390,-0.5 340,-0.5"/>
<text text-anchor="middle" x="365" y="-7.5" font-family="Helvetica,sans-Serif" font-size="10.00">fstream</text>
</g>
<!-- Node1&#45;&gt;Node7 -->
<g id="edge6" class="edge"><title>Node1&#45;&gt;Node7</title>
<path fill="none" stroke="midnightblue" d="M317.402,-56.4979C327.327,-47.0113 339.102,-35.7557 348.457,-26.8131"/>
<polygon fill="midnightblue" stroke="midnightblue" points="351.138,-29.0924 355.948,-19.6525 346.301,-24.0323 351.138,-29.0924"/>
</g>
<!-- Node8 -->
<g id="node8" class="node"><title>Node8</title>
<polygon fill="white" stroke="#bfbfbf" points="408.5,-0.5 408.5,-19.5 493.5,-19.5 493.5,-0.5 408.5,-0.5"/>
<text text-anchor="middle" x="451" y="-7.5" font-family="Helvetica,sans-Serif" font-size="10.00">CAENVMElib.h</text>
</g>
<!-- Node1&#45;&gt;Node8 -->
<g id="edge7" class="edge"><title>Node1&#45;&gt;Node8</title>
<path fill="none" stroke="midnightblue" d="M343.205,-56.4979C368.519,-45.8135 399.149,-32.8851 421.279,-23.5446"/>
<polygon fill="midnightblue" stroke="midnightblue" points="422.648,-26.7657 430.5,-19.6525 419.926,-20.3166 422.648,-26.7657"/>
</g>
<!-- Node9 -->
<g id="node9" class="node"><title>Node9</title>
<polygon fill="white" stroke="#bfbfbf" points="512,-0.5 512,-19.5 574,-19.5 574,-0.5 512,-0.5"/>
<text text-anchor="middle" x="543" y="-7.5" font-family="Helvetica,sans-Serif" font-size="10.00">common.h</text>
</g>
<!-- Node1&#45;&gt;Node9 -->
<g id="edge8" class="edge"><title>Node1&#45;&gt;Node9</title>
<path fill="none" stroke="midnightblue" d="M356.236,-60.3482C401.226,-48.4605 461.948,-32.416 501.769,-21.8944"/>
<polygon fill="midnightblue" stroke="midnightblue" points="502.894,-25.2172 511.668,-19.2787 501.106,-18.4495 502.894,-25.2172"/>
</g>
<!-- Node10 -->
<g id="node10" class="node"><title>Node10</title>
<polygon fill="white" stroke="#bfbfbf" points="592,-0.5 592,-19.5 654,-19.5 654,-0.5 592,-0.5"/>
<text text-anchor="middle" x="623" y="-7.5" font-family="Helvetica,sans-Serif" font-size="10.00">sys/time.h</text>
</g>
<!-- Node1&#45;&gt;Node10 -->
<g id="edge9" class="edge"><title>Node1&#45;&gt;Node10</title>
<path fill="none" stroke="midnightblue" d="M356.027,-64.7956C411.52,-54.1726 497.168,-37.5485 581.649,-20.0347"/>
<polygon fill="midnightblue" stroke="midnightblue" points="582.598,-23.4124 591.676,-17.9505 581.173,-16.5588 582.598,-23.4124"/>
</g>
</g>
</svg>
