<?xml version="1.0" encoding="UTF-8" standalone="no"?>
<!DOCTYPE svg PUBLIC "-//W3C//DTD SVG 1.1//EN"
 "http://www.w3.org/Graphics/SVG/1.1/DTD/svg11.dtd">
<!-- Generated by graphviz version 2.36.0 (20140111.2315)
 -->
<!-- Title: myRealloc Pages: 1 -->
<svg width="340pt" height="389pt"
 viewBox="0.00 0.00 340.00 389.00" xmlns="http://www.w3.org/2000/svg" xmlns:xlink="http://www.w3.org/1999/xlink">
<g id="graph0" class="graph" transform="scale(1 1) rotate(0) translate(4 385)">
<title>myRealloc</title>
<polygon fill="white" stroke="none" points="-4,4 -4,-385 336,-385 336,4 -4,4"/>
<!-- Node1 -->
<g id="node1" class="node"><title>Node1</title>
<polygon fill="#bfbfbf" stroke="black" points="0.5,-171.5 0.5,-190.5 63.5,-190.5 63.5,-171.5 0.5,-171.5"/>
<text text-anchor="middle" x="32" y="-178.5" font-family="Helvetica,sans-Serif" font-size="10.00">myRealloc</text>
</g>
<!-- Node2 -->
<g id="node2" class="node"><title>Node2</title>
<g id="a_node2"><a xlink:href="_c_d_a_q_2_plugins_2_source_2xml_parser_8cpp.xhtml#a36502225dcdc2b09467919e6c9647e9d" target="_top" xlink:title="fromXMLString">
<polygon fill="white" stroke="black" points="121,-304.5 121,-323.5 203,-323.5 203,-304.5 121,-304.5"/>
<text text-anchor="middle" x="162" y="-311.5" font-family="Helvetica,sans-Serif" font-size="10.00">fromXMLString</text>
</a>
</g>
</g>
<!-- Node1&#45;&gt;Node2 -->
<g id="edge1" class="edge"><title>Node1&#45;&gt;Node2</title>
<path fill="none" stroke="midnightblue" d="M35.9434,-190.554C43.1642,-212.399 63.8522,-266.32 100,-295 103.516,-297.79 107.446,-300.173 111.569,-302.207"/>
<polygon fill="midnightblue" stroke="midnightblue" points="110.248,-305.449 120.821,-306.128 112.979,-299.003 110.248,-305.449"/>
</g>
<!-- Node4 -->
<g id="node4" class="node"><title>Node4</title>
<g id="a_node4"><a xlink:href="_c_d_a_q_2_plugins_2_source_2xml_parser_8cpp.xhtml#acf103e2756ced6c7d3f14f38f198c920" target="_top" xlink:title="GetNextToken">
<polygon fill="white" stroke="black" points="122,-342.5 122,-361.5 202,-361.5 202,-342.5 122,-342.5"/>
<text text-anchor="middle" x="162" y="-349.5" font-family="Helvetica,sans-Serif" font-size="10.00">GetNextToken</text>
</a>
</g>
</g>
<!-- Node1&#45;&gt;Node4 -->
<g id="edge3" class="edge"><title>Node1&#45;&gt;Node4</title>
<path fill="none" stroke="midnightblue" d="M34.4637,-190.814C38.9892,-217.676 55.2526,-293.052 100,-333 103.685,-336.29 107.933,-339.01 112.438,-341.259"/>
<polygon fill="midnightblue" stroke="midnightblue" points="111.371,-344.606 121.946,-345.245 114.077,-338.151 111.371,-344.606"/>
</g>
<!-- Node7 -->
<g id="node7" class="node"><title>Node7</title>
<g id="a_node7"><a xlink:href="struct_x_m_l_node.xhtml#a71df27d54a2dc09b0a456406a7e8c6d3" target="_top" xlink:title="XMLNode::isDeclaration">
<polygon fill="white" stroke="black" points="100.5,-266.5 100.5,-285.5 223.5,-285.5 223.5,-266.5 100.5,-266.5"/>
<text text-anchor="middle" x="162" y="-273.5" font-family="Helvetica,sans-Serif" font-size="10.00">XMLNode::isDeclaration</text>
</a>
</g>
</g>
<!-- Node1&#45;&gt;Node7 -->
<g id="edge6" class="edge"><title>Node1&#45;&gt;Node7</title>
<path fill="none" stroke="midnightblue" d="M38.9628,-190.688C49.3709,-206.803 72.3986,-239.109 100,-257 103.165,-259.051 106.565,-260.893 110.082,-262.544"/>
<polygon fill="midnightblue" stroke="midnightblue" points="109.006,-265.887 119.584,-266.485 111.687,-259.421 109.006,-265.887"/>
</g>
<!-- Node8 -->
<g id="node8" class="node"><title>Node8</title>
<g id="a_node8"><a xlink:href="struct_x_m_l_node.xhtml#a764ce0ff117af3e30ab0959114d36f9c" target="_top" xlink:title="XMLNode::isEmpty">
<polygon fill="white" stroke="black" points="111,-228.5 111,-247.5 213,-247.5 213,-228.5 111,-228.5"/>
<text text-anchor="middle" x="162" y="-235.5" font-family="Helvetica,sans-Serif" font-size="10.00">XMLNode::isEmpty</text>
</a>
</g>
</g>
<!-- Node1&#45;&gt;Node8 -->
<g id="edge7" class="edge"><title>Node1&#45;&gt;Node8</title>
<path fill="none" stroke="midnightblue" d="M47.6934,-190.553C60.9617,-198.88 81.227,-210.864 100,-219 105.089,-221.205 110.517,-223.274 115.957,-225.175"/>
<polygon fill="midnightblue" stroke="midnightblue" points="115.1,-228.578 125.693,-228.41 117.307,-221.935 115.1,-228.578"/>
</g>
<!-- Node9 -->
<g id="node9" class="node"><title>Node9</title>
<g id="a_node9"><a xlink:href="_c_d_a_q_2_plugins_2_source_2xml_parser_8cpp.xhtml#afb8a3dc2a8f2bfeed032e25b2257fddf" target="_top" xlink:title="myFree">
<polygon fill="white" stroke="black" points="137,-190.5 137,-209.5 187,-209.5 187,-190.5 137,-190.5"/>
<text text-anchor="middle" x="162" y="-197.5" font-family="Helvetica,sans-Serif" font-size="10.00">myFree</text>
</a>
</g>
</g>
<!-- Node1&#45;&gt;Node9 -->
<g id="edge8" class="edge"><title>Node1&#45;&gt;Node9</title>
<path fill="none" stroke="midnightblue" d="M63.6592,-185.551C82.7178,-188.38 107.249,-192.021 126.917,-194.941"/>
<polygon fill="midnightblue" stroke="midnightblue" points="126.584,-198.43 136.99,-196.436 127.612,-191.506 126.584,-198.43"/>
</g>
<!-- Node10 -->
<g id="node10" class="node"><title>Node10</title>
<g id="a_node10"><a xlink:href="_c_d_a_q_2_plugins_2_source_2xml_parser_8cpp.xhtml#aead5c47bfd6039cbcc995ac39d52283e" target="_top" xlink:title="myTagCompare">
<polygon fill="white" stroke="black" points="119,-152.5 119,-171.5 205,-171.5 205,-152.5 119,-152.5"/>
<text text-anchor="middle" x="162" y="-159.5" font-family="Helvetica,sans-Serif" font-size="10.00">myTagCompare</text>
</a>
</g>
</g>
<!-- Node1&#45;&gt;Node10 -->
<g id="edge9" class="edge"><title>Node1&#45;&gt;Node10</title>
<path fill="none" stroke="midnightblue" d="M63.6592,-176.449C77.2494,-174.432 93.6224,-172.001 109.03,-169.714"/>
<polygon fill="midnightblue" stroke="midnightblue" points="109.6,-173.168 118.977,-168.238 108.572,-166.244 109.6,-173.168"/>
</g>
<!-- Node11 -->
<g id="node11" class="node"><title>Node11</title>
<g id="a_node11"><a xlink:href="_c_d_a_q_2_plugins_2_source_2xml_parser_8cpp.xhtml#a49fa66f65d2d28ce7b7e0b1752425915" target="_top" xlink:title="xstrlen">
<polygon fill="white" stroke="black" points="273,-133.5 273,-152.5 319,-152.5 319,-133.5 273,-133.5"/>
<text text-anchor="middle" x="296" y="-140.5" font-family="Helvetica,sans-Serif" font-size="10.00">xstrlen</text>
</a>
</g>
</g>
<!-- Node1&#45;&gt;Node11 -->
<g id="edge14" class="edge"><title>Node1&#45;&gt;Node11</title>
<path fill="none" stroke="midnightblue" d="M45.4714,-171.279C58.312,-161.938 79.3119,-148.458 100,-143 155.772,-128.285 223.681,-133.157 262.868,-138.062"/>
<polygon fill="midnightblue" stroke="midnightblue" points="262.516,-141.546 272.891,-139.397 263.44,-134.607 262.516,-141.546"/>
</g>
<!-- Node12 -->
<g id="node12" class="node"><title>Node12</title>
<g id="a_node12"><a xlink:href="_c_d_a_q_2_plugins_2_source_2xml_parser_8cpp.xhtml#a5ba11fcf2496bd498e46fc958dba3d06" target="_top" xlink:title="stringDup">
<polygon fill="white" stroke="black" points="132.5,-76.5 132.5,-95.5 191.5,-95.5 191.5,-76.5 132.5,-76.5"/>
<text text-anchor="middle" x="162" y="-83.5" font-family="Helvetica,sans-Serif" font-size="10.00">stringDup</text>
</a>
</g>
</g>
<!-- Node1&#45;&gt;Node12 -->
<g id="edge12" class="edge"><title>Node1&#45;&gt;Node12</title>
<path fill="none" stroke="midnightblue" d="M39.7881,-171.456C50.857,-156.505 74.1676,-127.469 100,-110 106.97,-105.286 115.003,-101.294 122.902,-97.9983"/>
<polygon fill="midnightblue" stroke="midnightblue" points="124.33,-101.199 132.392,-94.3233 121.802,-94.6709 124.33,-101.199"/>
</g>
<!-- Node13 -->
<g id="node13" class="node"><title>Node13</title>
<g id="a_node13"><a xlink:href="struct_x_m_l_node.xhtml#a719b115adfb642594107854189559ff2" target="_top" xlink:title="XMLNode::XMLNode">
<polygon fill="white" stroke="black" points="107,-38.5 107,-57.5 217,-57.5 217,-38.5 107,-38.5"/>
<text text-anchor="middle" x="162" y="-45.5" font-family="Helvetica,sans-Serif" font-size="10.00">XMLNode::XMLNode</text>
</a>
</g>
</g>
<!-- Node1&#45;&gt;Node13 -->
<g id="edge13" class="edge"><title>Node1&#45;&gt;Node13</title>
<path fill="none" stroke="midnightblue" d="M35.9434,-171.446C43.1642,-149.601 63.8522,-95.6796 100,-67 102.281,-65.1903 104.736,-63.5519 107.304,-62.0688"/>
<polygon fill="midnightblue" stroke="midnightblue" points="108.961,-65.1546 116.39,-57.601 105.872,-58.873 108.961,-65.1546"/>
</g>
<!-- Node14 -->
<g id="node14" class="node"><title>Node14</title>
<g id="a_node14"><a xlink:href="_c_d_a_q_2_plugins_2_source_2xml_parser_8cpp.xhtml#a696ca59a310359980c57de039f137697" target="_top" xlink:title="xstrstr">
<polygon fill="white" stroke="black" points="140,-0.5 140,-19.5 184,-19.5 184,-0.5 140,-0.5"/>
<text text-anchor="middle" x="162" y="-7.5" font-family="Helvetica,sans-Serif" font-size="10.00">xstrstr</text>
</a>
</g>
</g>
<!-- Node1&#45;&gt;Node14 -->
<g id="edge15" class="edge"><title>Node1&#45;&gt;Node14</title>
<path fill="none" stroke="midnightblue" d="M34.4637,-171.186C38.9892,-144.324 55.2526,-68.9478 100,-29 108.34,-21.5547 119.568,-17.0269 130.118,-14.2733"/>
<polygon fill="midnightblue" stroke="midnightblue" points="130.882,-17.6888 139.908,-12.1396 129.392,-10.8494 130.882,-17.6888"/>
</g>
<!-- Node3 -->
<g id="node3" class="node"><title>Node3</title>
<g id="a_node3"><a xlink:href="_c_d_a_q_2_plugins_2_source_2xml_parser_8cpp.xhtml#a17c9570640aed10b61deec9047cb0940" target="_top" xlink:title="xstrnicmp">
<polygon fill="white" stroke="black" points="266.5,-237.5 266.5,-256.5 325.5,-256.5 325.5,-237.5 266.5,-237.5"/>
<text text-anchor="middle" x="296" y="-244.5" font-family="Helvetica,sans-Serif" font-size="10.00">xstrnicmp</text>
</a>
</g>
</g>
<!-- Node2&#45;&gt;Node3 -->
<g id="edge2" class="edge"><title>Node2&#45;&gt;Node3</title>
<path fill="none" stroke="midnightblue" d="M199.795,-304.448C207.94,-301.812 216.403,-298.653 224,-295 242.26,-286.22 261.183,-273.199 274.897,-262.934"/>
<polygon fill="midnightblue" stroke="midnightblue" points="277.283,-265.515 283.098,-256.658 273.029,-259.956 277.283,-265.515"/>
</g>
<!-- Node5 -->
<g id="node5" class="node"><title>Node5</title>
<g id="a_node5"><a xlink:href="_c_d_a_q_2_plugins_2_source_2xml_parser_8cpp.xhtml#af03c1c87ed4ddb95f7b49d53d9117c53" target="_top" xlink:title="getNextChar">
<polygon fill="white" stroke="black" points="260,-361.5 260,-380.5 332,-380.5 332,-361.5 260,-361.5"/>
<text text-anchor="middle" x="296" y="-368.5" font-family="Helvetica,sans-Serif" font-size="10.00">getNextChar</text>
</a>
</g>
</g>
<!-- Node4&#45;&gt;Node5 -->
<g id="edge4" class="edge"><title>Node4&#45;&gt;Node5</title>
<path fill="none" stroke="midnightblue" d="M202.247,-357.649C217.066,-359.782 234.052,-362.227 249.403,-364.437"/>
<polygon fill="midnightblue" stroke="midnightblue" points="249.327,-367.962 259.724,-365.922 250.325,-361.033 249.327,-367.962"/>
</g>
<!-- Node6 -->
<g id="node6" class="node"><title>Node6</title>
<g id="a_node6"><a xlink:href="_c_d_a_q_2_plugins_2_source_2xml_parser_8cpp.xhtml#a3165858f70cd74ffab31ebc2ddc9e104" target="_top" xlink:title="xstrncmp">
<polygon fill="white" stroke="black" points="267.5,-323.5 267.5,-342.5 324.5,-342.5 324.5,-323.5 267.5,-323.5"/>
<text text-anchor="middle" x="296" y="-330.5" font-family="Helvetica,sans-Serif" font-size="10.00">xstrncmp</text>
</a>
</g>
</g>
<!-- Node4&#45;&gt;Node6 -->
<g id="edge5" class="edge"><title>Node4&#45;&gt;Node6</title>
<path fill="none" stroke="midnightblue" d="M202.247,-346.351C219.617,-343.851 239.963,-340.922 257.166,-338.446"/>
<polygon fill="midnightblue" stroke="midnightblue" points="258.017,-341.859 267.416,-336.97 257.02,-334.931 258.017,-341.859"/>
</g>
<!-- Node10&#45;&gt;Node3 -->
<g id="edge11" class="edge"><title>Node10&#45;&gt;Node3</title>
<path fill="none" stroke="midnightblue" d="M202.817,-171.569C210.112,-174.103 217.475,-177.217 224,-181 246.151,-193.843 267.05,-214.731 280.361,-229.567"/>
<polygon fill="midnightblue" stroke="midnightblue" points="278.064,-232.258 287.274,-237.495 283.341,-227.658 278.064,-232.258"/>
</g>
<!-- Node10&#45;&gt;Node11 -->
<g id="edge10" class="edge"><title>Node10&#45;&gt;Node11</title>
<path fill="none" stroke="midnightblue" d="M205.129,-155.936C223.748,-153.256 245.298,-150.154 262.627,-147.66"/>
<polygon fill="midnightblue" stroke="midnightblue" points="263.408,-151.083 272.807,-146.194 262.411,-144.155 263.408,-151.083"/>
</g>
</g>
</svg>
