<?xml version="1.0" encoding="UTF-8" standalone="no"?>
<!DOCTYPE svg PUBLIC "-//W3C//DTD SVG 1.1//EN"
 "http://www.w3.org/Graphics/SVG/1.1/DTD/svg11.dtd">
<!-- Generated by graphviz version 2.36.0 (20140111.2315)
 -->
<!-- Title: xstrncmp Pages: 1 -->
<!--zoomable 448 -->
<svg id="main" version="1.1" xmlns="http://www.w3.org/2000/svg" xmlns:xlink="http://www.w3.org/1999/xlink" xml:space="preserve" onload="init(evt)">
<style type="text/css"><![CDATA[
.edge:hover path { stroke: red; }
.edge:hover polygon { stroke: red; fill: red; }
]]></style>
<script type="text/javascript"><![CDATA[
var edges = document.getElementsByTagName('g');
if (edges && edges.length) {
  for (var i=0;i<edges.length;i++) {
    if (edges[i].id.substr(0,4)=='edge') {
      edges[i].setAttribute('class','edge');
    }
  }
}
]]></script>
        <defs>
                <circle id="rim" cx="0" cy="0" r="7"/>
                <circle id="rim2" cx="0" cy="0" r="3.5"/>
                <g id="zoomPlus">
                        <use xlink:href="#rim" fill="#404040">
                                <set attributeName="fill" to="#808080" begin="zoomplus.mouseover" end="zoomplus.mouseout"/>
                        </use>
                        <path d="M-4,0h8M0,-4v8" fill="none" stroke="white" stroke-width="1.5" pointer-events="none"/>
                </g>
                <g id="zoomMin">
                        <use xlink:href="#rim" fill="#404040">
                                <set attributeName="fill" to="#808080" begin="zoomminus.mouseover" end="zoomminus.mouseout"/>
                        </use>
                        <path d="M-4,0h8" fill="none" stroke="white" stroke-width="1.5" pointer-events="none"/>
                </g>
                <g id="dirArrow">
                        <path fill="none" stroke="white" stroke-width="1.5" d="M0,-3.0v7 M-2.5,-0.5L0,-3.0L2.5,-0.5"/>
                </g>
               <g id="resetDef">
                       <use xlink:href="#rim2" fill="#404040">
                               <set attributeName="fill" to="#808080" begin="reset.mouseover" end="reset.mouseout"/>
                       </use>
               </g>
        </defs>

<script type="text/javascript">
var viewWidth = 1080;
var viewHeight = 448;
var sectionId = 'dynsection-27';
</script>
<script xlink:href="svgpan.js"/>
<svg id="graph" class="graph">
<g id="viewport">
<title>xstrncmp</title>
<polygon fill="white" stroke="none" points="-4,4 -4,-444.079 1076,-444.079 1076,4 -4,4"/>
<!-- Node1 -->
<g id="node1" class="node"><title>Node1</title>
<polygon fill="#bfbfbf" stroke="black" points="0.5,-240.5 0.5,-259.5 57.5,-259.5 57.5,-240.5 0.5,-240.5"/>
<text text-anchor="middle" x="29" y="-247.5" font-family="Helvetica,sans-Serif" font-size="10.00">xstrncmp</text>
</g>
<!-- Node2 -->
<g id="node2" class="node"><title>Node2</title>
<g id="a_node2"><a xlink:href="_c_d_a_q_2_plugins_2_source_2xml_parser_8cpp.xhtml#acf103e2756ced6c7d3f14f38f198c920" target="_top" xlink:title="GetNextToken">
<polygon fill="white" stroke="black" points="117,-278.5 117,-297.5 197,-297.5 197,-278.5 117,-278.5"/>
<text text-anchor="middle" x="157" y="-285.5" font-family="Helvetica,sans-Serif" font-size="10.00">GetNextToken</text>
</a>
</g>
</g>
<!-- Node1&#45;&gt;Node2 -->
<g id="edge1" class="edge"><title>Node1&#45;&gt;Node2</title>
<path fill="none" stroke="midnightblue" d="M67.3383,-261.261C85.4983,-266.738 107.09,-273.249 124.418,-278.475"/>
<polygon fill="midnightblue" stroke="midnightblue" points="68.2359,-257.876 57.6512,-258.339 66.2147,-264.578 68.2359,-257.876"/>
</g>
<!-- Node4 -->
<g id="node4" class="node"><title>Node4</title>
<g id="a_node4"><a xlink:href="_c_d_a_q_2_plugins_2_source_2xml_parser_8cpp.xhtml#ad9a5c911a8e21bb89427d29d33e2797e" target="_top" xlink:title="myIsTextWideChar">
<polygon fill="white" stroke="black" points="268.5,-240.5 268.5,-259.5 369.5,-259.5 369.5,-240.5 268.5,-240.5"/>
<text text-anchor="middle" x="319" y="-247.5" font-family="Helvetica,sans-Serif" font-size="10.00">myIsTextWideChar</text>
</a>
</g>
</g>
<!-- Node1&#45;&gt;Node4 -->
<g id="edge3" class="edge"><title>Node1&#45;&gt;Node4</title>
<path fill="none" stroke="midnightblue" d="M67.6392,-250C119.082,-250 211.455,-250 268.468,-250"/>
<polygon fill="midnightblue" stroke="midnightblue" points="67.6147,-246.5 57.6147,-250 67.6146,-253.5 67.6147,-246.5"/>
</g>
<!-- Node22 -->
<g id="node22" class="node"><title>Node22</title>
<g id="a_node22"><a xlink:href="_c_d_a_q_2_plugins_2_source_2xml_parser_8cpp.xhtml#ad7ec02a171e7641c1d364d5d367199a3" target="_top" xlink:title="myWideCharToMultiByte">
<polygon fill="white" stroke="black" points="94,-202.5 94,-221.5 220,-221.5 220,-202.5 94,-202.5"/>
<text text-anchor="middle" x="157" y="-209.5" font-family="Helvetica,sans-Serif" font-size="10.00">myWideCharToMultiByte</text>
</a>
</g>
</g>
<!-- Node1&#45;&gt;Node22 -->
<g id="edge32" class="edge"><title>Node1&#45;&gt;Node22</title>
<path fill="none" stroke="midnightblue" d="M67.3383,-238.739C85.4983,-233.262 107.09,-226.751 124.418,-221.525"/>
<polygon fill="midnightblue" stroke="midnightblue" points="66.2147,-235.422 57.6512,-241.661 68.2359,-242.124 66.2147,-235.422"/>
</g>
<!-- Node3 -->
<g id="node3" class="node"><title>Node3</title>
<g id="a_node3"><a xlink:href="_c_d_a_q_2_plugins_2_source_2xml_parser_8cpp.xhtml#a8415cb910267a0487e1003a34069d012" target="_top" xlink:title="myRealloc">
<polygon fill="white" stroke="black" points="287.5,-278.5 287.5,-297.5 350.5,-297.5 350.5,-278.5 287.5,-278.5"/>
<text text-anchor="middle" x="319" y="-285.5" font-family="Helvetica,sans-Serif" font-size="10.00">myRealloc</text>
</a>
</g>
</g>
<!-- Node2&#45;&gt;Node3 -->
<g id="edge2" class="edge"><title>Node2&#45;&gt;Node3</title>
<path fill="none" stroke="midnightblue" d="M207.235,-288C233.35,-288 264.625,-288 287.272,-288"/>
<polygon fill="midnightblue" stroke="midnightblue" points="207.14,-284.5 197.14,-288 207.14,-291.5 207.14,-284.5"/>
</g>
<!-- Node5 -->
<g id="node5" class="node"><title>Node5</title>
<g id="a_node5"><a xlink:href="_p_d_a_q_2_core_2_source_2xml_parser_8cpp.xhtml#a9a625f17c09a36e3ad532cdf16072609" target="_top" xlink:title="charmemset">
<polygon fill="white" stroke="black" points="985.5,-316.5 985.5,-335.5 1056.5,-335.5 1056.5,-316.5 985.5,-316.5"/>
<text text-anchor="middle" x="1021" y="-323.5" font-family="Helvetica,sans-Serif" font-size="10.00">charmemset</text>
</a>
</g>
</g>
<!-- Node4&#45;&gt;Node5 -->
<g id="edge4" class="edge"><title>Node4&#45;&gt;Node5</title>
<path fill="none" stroke="midnightblue" d="M379.951,-252.187C490.29,-256.915 732.672,-270.584 934,-305 951.119,-307.926 969.881,-312.361 985.501,-316.402"/>
<polygon fill="midnightblue" stroke="midnightblue" points="379.829,-248.678 369.691,-251.756 379.535,-255.672 379.829,-248.678"/>
</g>
<!-- Node6 -->
<g id="node6" class="node"><title>Node6</title>
<g id="a_node6"><a xlink:href="_p_d_a_q_2_core_2_source_2xml_parser_8cpp.xhtml#ae6aa5a367ab3cc92b47fd92f81add72a" target="_top" xlink:title="CountLinesAndColumns">
<polygon fill="white" stroke="black" points="613,-164.5 613,-183.5 735,-183.5 735,-164.5 613,-164.5"/>
<text text-anchor="middle" x="674" y="-171.5" font-family="Helvetica,sans-Serif" font-size="10.00">CountLinesAndColumns</text>
</a>
</g>
</g>
<!-- Node4&#45;&gt;Node6 -->
<g id="edge5" class="edge"><title>Node4&#45;&gt;Node6</title>
<path fill="none" stroke="midnightblue" d="M340.292,-234.477C359.262,-220.908 388.949,-202.005 418,-193 482.453,-173.021 560.265,-170.069 612.851,-170.967"/>
<polygon fill="midnightblue" stroke="midnightblue" points="338.125,-231.727 332.131,-240.463 342.265,-237.371 338.125,-231.727"/>
</g>
<!-- Node7 -->
<g id="node7" class="node"><title>Node7</title>
<g id="a_node7"><a xlink:href="struct_x_m_l_node.xhtml#a4496629c7a268db5435946c7bdd4eb28" target="_top" xlink:title="XMLNode::getError">
<polygon fill="white" stroke="black" points="444.5,-316.5 444.5,-335.5 545.5,-335.5 545.5,-316.5 444.5,-316.5"/>
<text text-anchor="middle" x="495" y="-323.5" font-family="Helvetica,sans-Serif" font-size="10.00">XMLNode::getError</text>
</a>
</g>
</g>
<!-- Node4&#45;&gt;Node7 -->
<g id="edge6" class="edge"><title>Node4&#45;&gt;Node7</title>
<path fill="none" stroke="midnightblue" d="M371.179,-263.312C374.946,-265.002 378.599,-266.892 382,-269 401.774,-281.257 397.912,-295.265 418,-307 425.986,-311.665 435.091,-315.192 444.158,-317.857"/>
<polygon fill="midnightblue" stroke="midnightblue" points="372.237,-259.966 361.652,-259.509 369.642,-266.467 372.237,-259.966"/>
</g>
<!-- Node17 -->
<g id="node17" class="node"><title>Node17</title>
<g id="a_node17"><a xlink:href="_p_d_a_q_2_core_2_source_2xml_parser_8cpp.xhtml#ad9a5c911a8e21bb89427d29d33e2797e" target="_top" xlink:title="myIsTextWideChar">
<polygon fill="white" stroke="black" points="970.5,-392.5 970.5,-411.5 1071.5,-411.5 1071.5,-392.5 970.5,-392.5"/>
<text text-anchor="middle" x="1021" y="-399.5" font-family="Helvetica,sans-Serif" font-size="10.00">myIsTextWideChar</text>
</a>
</g>
</g>
<!-- Node4&#45;&gt;Node17 -->
<g id="edge27" class="edge"><title>Node4&#45;&gt;Node17</title>
<path fill="none" stroke="midnightblue" d="M375.667,-264.325C377.9,-265.739 380.025,-267.293 382,-269 410.274,-293.445 389.301,-321.056 418,-345 585.465,-484.723 877.586,-435.207 981.753,-411.579"/>
<polygon fill="midnightblue" stroke="midnightblue" points="377.089,-261.117 366.613,-259.533 373.814,-267.304 377.089,-261.117"/>
</g>
<!-- Node20 -->
<g id="node20" class="node"><title>Node20</title>
<g id="a_node20"><a xlink:href="struct_x_m_l_node.xhtml#ac7af7e3bab8d21722dd4f191a4aa7c1d" target="_top" xlink:title="XMLNode::guessCharEncoding">
<polygon fill="white" stroke="black" points="418,-278.5 418,-297.5 572,-297.5 572,-278.5 418,-278.5"/>
<text text-anchor="middle" x="495" y="-285.5" font-family="Helvetica,sans-Serif" font-size="10.00">XMLNode::guessCharEncoding</text>
</a>
</g>
</g>
<!-- Node4&#45;&gt;Node20 -->
<g id="edge23" class="edge"><title>Node4&#45;&gt;Node20</title>
<path fill="none" stroke="midnightblue" d="M373.814,-261.753C398.418,-267.126 427.187,-273.409 450.408,-278.48"/>
<polygon fill="midnightblue" stroke="midnightblue" points="374.424,-258.303 363.908,-259.589 372.93,-265.142 374.424,-258.303"/>
</g>
<!-- Node21 -->
<g id="node21" class="node"><title>Node21</title>
<g id="a_node21"><a xlink:href="struct_x_m_l_node.xhtml#a5e5968e052d58350918cd91e3535624b" target="_top" xlink:title="XMLNode::parseFile">
<polygon fill="white" stroke="black" points="442,-202.5 442,-221.5 548,-221.5 548,-202.5 442,-202.5"/>
<text text-anchor="middle" x="495" y="-209.5" font-family="Helvetica,sans-Serif" font-size="10.00">XMLNode::parseFile</text>
</a>
</g>
</g>
<!-- Node4&#45;&gt;Node21 -->
<g id="edge28" class="edge"><title>Node4&#45;&gt;Node21</title>
<path fill="none" stroke="midnightblue" d="M373.814,-238.247C398.418,-232.874 427.187,-226.591 450.408,-221.52"/>
<polygon fill="midnightblue" stroke="midnightblue" points="372.93,-234.858 363.908,-240.411 374.424,-241.697 372.93,-234.858"/>
</g>
<!-- Node8 -->
<g id="node8" class="node"><title>Node8</title>
<g id="a_node8"><a xlink:href="struct_x_m_l_node.xhtml#acc044148e2b9b8264a320b7b6e398158" target="_top" xlink:title="XMLNode::openFileHelper">
<polygon fill="white" stroke="black" points="608.5,-202.5 608.5,-221.5 739.5,-221.5 739.5,-202.5 608.5,-202.5"/>
<text text-anchor="middle" x="674" y="-209.5" font-family="Helvetica,sans-Serif" font-size="10.00">XMLNode::openFileHelper</text>
</a>
</g>
</g>
<!-- Node7&#45;&gt;Node8 -->
<g id="edge7" class="edge"><title>Node7&#45;&gt;Node8</title>
<path fill="none" stroke="midnightblue" d="M555.405,-314.33C561.169,-312.263 566.8,-309.84 572,-307 613.198,-284.5 650.235,-241.157 665.547,-221.779"/>
<polygon fill="midnightblue" stroke="midnightblue" points="554.073,-311.082 545.63,-317.482 556.221,-317.744 554.073,-311.082"/>
</g>
<!-- Node16 -->
<g id="node16" class="node"><title>Node16</title>
<g id="a_node16"><a xlink:href="_p_d_a_q_2_core_2_source_2xml_parser_8cpp.xhtml#af77e3e2685487b9c492b20c36f3b864a" target="_top" xlink:title="_strnicmp">
<polygon fill="white" stroke="black" points="825.5,-354.5 825.5,-373.5 884.5,-373.5 884.5,-354.5 825.5,-354.5"/>
<text text-anchor="middle" x="855" y="-361.5" font-family="Helvetica,sans-Serif" font-size="10.00">_strnicmp</text>
</a>
</g>
</g>
<!-- Node7&#45;&gt;Node16 -->
<g id="edge22" class="edge"><title>Node7&#45;&gt;Node16</title>
<path fill="none" stroke="midnightblue" d="M519.819,-340.797C541.78,-353.51 575.762,-370.881 608,-378 685.068,-395.018 778.825,-380.235 825.186,-370.649"/>
<polygon fill="midnightblue" stroke="midnightblue" points="521.57,-337.766 511.183,-335.677 518,-343.787 521.57,-337.766"/>
</g>
<!-- Node9 -->
<g id="node9" class="node"><title>Node9</title>
<g id="a_node9"><a xlink:href="class_a_d_c_manager1720.xhtml#aae342ccd8bf1c253c455e195bfd82dfe" target="_top" xlink:title="ADCManager1720::Init">
<polygon fill="white" stroke="black" points="797,-240.5 797,-259.5 913,-259.5 913,-240.5 797,-240.5"/>
<text text-anchor="middle" x="855" y="-247.5" font-family="Helvetica,sans-Serif" font-size="10.00">ADCManager1720::Init</text>
</a>
</g>
</g>
<!-- Node8&#45;&gt;Node9 -->
<g id="edge8" class="edge"><title>Node8&#45;&gt;Node9</title>
<path fill="none" stroke="midnightblue" d="M730.024,-223.681C755.408,-229.07 785.161,-235.386 809.156,-240.48"/>
<polygon fill="midnightblue" stroke="midnightblue" points="730.678,-220.242 720.169,-221.589 729.224,-227.089 730.678,-220.242"/>
</g>
<!-- Node10 -->
<g id="node10" class="node"><title>Node10</title>
<g id="a_node10"><a xlink:href="class_a_d_c_manager1724.xhtml#a6de2521b9c793edcf14aeaeefeb62787" target="_top" xlink:title="ADCManager1724::Init">
<polygon fill="white" stroke="black" points="797,-202.5 797,-221.5 913,-221.5 913,-202.5 797,-202.5"/>
<text text-anchor="middle" x="855" y="-209.5" font-family="Helvetica,sans-Serif" font-size="10.00">ADCManager1724::Init</text>
</a>
</g>
</g>
<!-- Node8&#45;&gt;Node10 -->
<g id="edge9" class="edge"><title>Node8&#45;&gt;Node10</title>
<path fill="none" stroke="midnightblue" d="M749.85,-212C765.58,-212 781.93,-212 796.887,-212"/>
<polygon fill="midnightblue" stroke="midnightblue" points="749.623,-208.5 739.623,-212 749.623,-215.5 749.623,-208.5"/>
</g>
<!-- Node11 -->
<g id="node11" class="node"><title>Node11</title>
<g id="a_node11"><a xlink:href="class_a_d_c_manager1730.xhtml#adb6d45f2024f4a52d366a88d1c7f229d" target="_top" xlink:title="ADCManager1730::Init">
<polygon fill="white" stroke="black" points="797,-164.5 797,-183.5 913,-183.5 913,-164.5 797,-164.5"/>
<text text-anchor="middle" x="855" y="-171.5" font-family="Helvetica,sans-Serif" font-size="10.00">ADCManager1730::Init</text>
</a>
</g>
</g>
<!-- Node8&#45;&gt;Node11 -->
<g id="edge10" class="edge"><title>Node8&#45;&gt;Node11</title>
<path fill="none" stroke="midnightblue" d="M730.024,-200.319C755.408,-194.93 785.161,-188.614 809.156,-183.52"/>
<polygon fill="midnightblue" stroke="midnightblue" points="729.224,-196.911 720.169,-202.411 730.678,-203.758 729.224,-196.911"/>
</g>
<!-- Node12 -->
<g id="node12" class="node"><title>Node12</title>
<g id="a_node12"><a xlink:href="class_scope_manager.xhtml#abe246d1b817d85a9cba7af3441a4df04" target="_top" xlink:title="ScopeManager::ShowEvent">
<polygon fill="white" stroke="black" points="786,-0.5 786,-19.5 924,-19.5 924,-0.5 786,-0.5"/>
<text text-anchor="middle" x="855" y="-7.5" font-family="Helvetica,sans-Serif" font-size="10.00">ScopeManager::ShowEvent</text>
</a>
</g>
</g>
<!-- Node8&#45;&gt;Node12 -->
<g id="edge11" class="edge"><title>Node8&#45;&gt;Node12</title>
<path fill="none" stroke="midnightblue" d="M736.029,-196.72C737.43,-195.567 738.759,-194.329 740,-193 790.935,-138.462 723.839,-82.3668 776,-29 779.702,-25.2124 784.024,-22.1306 788.699,-19.6285"/>
<polygon fill="midnightblue" stroke="midnightblue" points="733.761,-194.022 727.321,-202.435 737.602,-199.874 733.761,-194.022"/>
</g>
<!-- Node14 -->
<g id="node14" class="node"><title>Node14</title>
<g id="a_node14"><a xlink:href="class_slowcontrol_manager.xhtml#a36ab5157f5a740b9058517b77d1ce38f" target="_top" xlink:title="SlowcontrolManager\l::ShowStatus">
<polygon fill="white" stroke="black" points="802.5,-77 802.5,-107 907.5,-107 907.5,-77 802.5,-77"/>
<text text-anchor="start" x="810.5" y="-95" font-family="Helvetica,sans-Serif" font-size="10.00">SlowcontrolManager</text>
<text text-anchor="middle" x="855" y="-84" font-family="Helvetica,sans-Serif" font-size="10.00">::ShowStatus</text>
</a>
</g>
</g>
<!-- Node8&#45;&gt;Node14 -->
<g id="edge13" class="edge"><title>Node8&#45;&gt;Node14</title>
<path fill="none" stroke="midnightblue" d="M733.616,-197.664C735.863,-196.253 738.004,-194.703 740,-193 768.432,-168.739 747.883,-141.625 776,-117 783.488,-110.442 792.713,-105.601 802.165,-102.028"/>
<polygon fill="midnightblue" stroke="midnightblue" points="731.737,-194.698 724.514,-202.449 734.994,-200.894 731.737,-194.698"/>
</g>
<!-- Node15 -->
<g id="node15" class="node"><title>Node15</title>
<g id="a_node15"><a xlink:href="class_storage_manager.xhtml#ab16a945d003852d02556daf3610a9aac" target="_top" xlink:title="StorageManager::SaveContainer">
<polygon fill="white" stroke="black" points="776,-38.5 776,-57.5 934,-57.5 934,-38.5 776,-38.5"/>
<text text-anchor="middle" x="855" y="-45.5" font-family="Helvetica,sans-Serif" font-size="10.00">StorageManager::SaveContainer</text>
</a>
</g>
</g>
<!-- Node8&#45;&gt;Node15 -->
<g id="edge15" class="edge"><title>Node8&#45;&gt;Node15</title>
<path fill="none" stroke="midnightblue" d="M735.424,-197C737.038,-195.769 738.57,-194.438 740,-193 781.057,-151.692 734.015,-107.364 776,-67 780.019,-63.1362 784.686,-60.016 789.701,-57.5013"/>
<polygon fill="midnightblue" stroke="midnightblue" points="733.422,-194.124 726.762,-202.363 737.106,-200.075 733.422,-194.124"/>
</g>
<!-- Node8&#45;&gt;Node16 -->
<g id="edge17" class="edge"><title>Node8&#45;&gt;Node16</title>
<path fill="none" stroke="midnightblue" d="M693.829,-227.989C731.029,-259.577 812.926,-329.122 842.807,-354.495"/>
<polygon fill="midnightblue" stroke="midnightblue" points="696.085,-225.313 686.197,-221.508 691.554,-230.649 696.085,-225.313"/>
</g>
<!-- Node18 -->
<g id="node18" class="node"><title>Node18</title>
<g id="a_node18"><a xlink:href="_p_d_a_q_2_core_2_source_2xml_8cpp.xhtml#a8251b051736c5146c1985edc6cb357e6" target="_top" xlink:title="xml_readsettings">
<polygon fill="white" stroke="black" points="809.5,-126.5 809.5,-145.5 900.5,-145.5 900.5,-126.5 809.5,-126.5"/>
<text text-anchor="middle" x="855" y="-133.5" font-family="Helvetica,sans-Serif" font-size="10.00">xml_readsettings</text>
</a>
</g>
</g>
<!-- Node8&#45;&gt;Node18 -->
<g id="edge20" class="edge"><title>Node8&#45;&gt;Node18</title>
<path fill="none" stroke="midnightblue" d="M728.691,-198.828C732.628,-197.107 736.445,-195.172 740,-193 759.853,-180.872 755.877,-166.674 776,-155 786.127,-149.125 798.006,-145.06 809.397,-142.249"/>
<polygon fill="midnightblue" stroke="midnightblue" points="727.396,-195.576 719.35,-202.47 729.939,-202.098 727.396,-195.576"/>
</g>
<!-- Node13 -->
<g id="node13" class="node"><title>Node13</title>
<g id="a_node13"><a xlink:href="_multi_d_a_q_8cpp.xhtml#adedb285b02c41bde2158ded9cc9fd7ac" target="_top" xlink:title="main">
<polygon fill="white" stroke="black" points="1002,-38.5 1002,-57.5 1040,-57.5 1040,-38.5 1002,-38.5"/>
<text text-anchor="middle" x="1021" y="-45.5" font-family="Helvetica,sans-Serif" font-size="10.00">main</text>
</a>
</g>
</g>
<!-- Node12&#45;&gt;Node13 -->
<g id="edge12" class="edge"><title>Node12&#45;&gt;Node13</title>
<path fill="none" stroke="midnightblue" d="M907.543,-21.9428C939.714,-29.3972 979.177,-38.5411 1001.77,-43.7767"/>
<polygon fill="midnightblue" stroke="midnightblue" points="907.916,-18.4367 897.384,-19.589 906.336,-25.256 907.916,-18.4367"/>
</g>
<!-- Node14&#45;&gt;Node13 -->
<g id="edge14" class="edge"><title>Node14&#45;&gt;Node13</title>
<path fill="none" stroke="midnightblue" d="M917.865,-75.402C947.783,-67.3754 981.511,-58.3262 1001.74,-52.8981"/>
<polygon fill="midnightblue" stroke="midnightblue" points="916.642,-72.1063 907.891,-78.0781 918.456,-78.8672 916.642,-72.1063"/>
</g>
<!-- Node15&#45;&gt;Node13 -->
<g id="edge16" class="edge"><title>Node15&#45;&gt;Node13</title>
<path fill="none" stroke="midnightblue" d="M944.219,-48C966.077,-48 987.341,-48 1001.75,-48"/>
<polygon fill="midnightblue" stroke="midnightblue" points="944.158,-44.5001 934.158,-48 944.157,-51.5001 944.158,-44.5001"/>
</g>
<!-- Node16&#45;&gt;Node5 -->
<g id="edge19" class="edge"><title>Node16&#45;&gt;Node5</title>
<path fill="none" stroke="midnightblue" d="M894.605,-355.055C922.068,-348.692 958.653,-340.215 985.214,-334.06"/>
<polygon fill="midnightblue" stroke="midnightblue" points="893.518,-351.714 884.567,-357.381 895.099,-358.533 893.518,-351.714"/>
</g>
<!-- Node16&#45;&gt;Node17 -->
<g id="edge18" class="edge"><title>Node16&#45;&gt;Node17</title>
<path fill="none" stroke="midnightblue" d="M894.557,-372.934C919.893,-378.805 953.01,-386.478 978.854,-392.466"/>
<polygon fill="midnightblue" stroke="midnightblue" points="895.099,-369.467 884.567,-370.619 893.518,-376.286 895.099,-369.467"/>
</g>
<!-- Node19 -->
<g id="node19" class="node"><title>Node19</title>
<g id="a_node19"><a xlink:href="_z_d_a_q_8cpp.xhtml#a0ddf1224851353fc92bfbff6f499fa97" target="_top" xlink:title="main">
<polygon fill="white" stroke="black" points="1002,-126.5 1002,-145.5 1040,-145.5 1040,-126.5 1002,-126.5"/>
<text text-anchor="middle" x="1021" y="-133.5" font-family="Helvetica,sans-Serif" font-size="10.00">main</text>
</a>
</g>
</g>
<!-- Node18&#45;&gt;Node19 -->
<g id="edge21" class="edge"><title>Node18&#45;&gt;Node19</title>
<path fill="none" stroke="midnightblue" d="M911.216,-136C942.646,-136 979.974,-136 1001.72,-136"/>
<polygon fill="midnightblue" stroke="midnightblue" points="910.814,-132.5 900.814,-136 910.814,-139.5 910.814,-132.5"/>
</g>
<!-- Node20&#45;&gt;Node5 -->
<g id="edge26" class="edge"><title>Node20&#45;&gt;Node5</title>
<path fill="none" stroke="midnightblue" d="M582.23,-294.253C699.619,-302.766 904.383,-317.616 985.493,-323.498"/>
<polygon fill="midnightblue" stroke="midnightblue" points="582.421,-290.758 572.194,-293.526 581.915,-297.74 582.421,-290.758"/>
</g>
<!-- Node20&#45;&gt;Node8 -->
<g id="edge24" class="edge"><title>Node20&#45;&gt;Node8</title>
<path fill="none" stroke="midnightblue" d="M527.828,-274.334C563.302,-259.102 619.743,-234.867 650.765,-221.547"/>
<polygon fill="midnightblue" stroke="midnightblue" points="526.225,-271.213 518.417,-278.375 528.987,-277.645 526.225,-271.213"/>
</g>
<!-- Node20&#45;&gt;Node16 -->
<g id="edge25" class="edge"><title>Node20&#45;&gt;Node16</title>
<path fill="none" stroke="midnightblue" d="M558.508,-300.896C563.182,-302.681 567.733,-304.705 572,-307 591.116,-317.281 588.178,-331.157 608,-340 680.891,-372.516 777.724,-370.452 825.23,-366.892"/>
<polygon fill="midnightblue" stroke="midnightblue" points="559.389,-297.498 548.794,-297.561 557.115,-304.119 559.389,-297.498"/>
</g>
<!-- Node21&#45;&gt;Node6 -->
<g id="edge31" class="edge"><title>Node21&#45;&gt;Node6</title>
<path fill="none" stroke="midnightblue" d="M550.742,-200.247C575.77,-194.874 605.035,-188.591 628.657,-183.52"/>
<polygon fill="midnightblue" stroke="midnightblue" points="549.707,-196.89 540.665,-202.411 551.176,-203.734 549.707,-196.89"/>
</g>
<!-- Node21&#45;&gt;Node8 -->
<g id="edge29" class="edge"><title>Node21&#45;&gt;Node8</title>
<path fill="none" stroke="midnightblue" d="M558.551,-212C574.696,-212 592.106,-212 608.355,-212"/>
<polygon fill="midnightblue" stroke="midnightblue" points="558.149,-208.5 548.149,-212 558.148,-215.5 558.149,-208.5"/>
</g>
<!-- Node21&#45;&gt;Node16 -->
<g id="edge30" class="edge"><title>Node21&#45;&gt;Node16</title>
<path fill="none" stroke="midnightblue" d="M527.766,-225.487C599.033,-255.746 770.22,-328.429 831.614,-354.495"/>
<polygon fill="midnightblue" stroke="midnightblue" points="528.967,-222.195 518.395,-221.508 526.231,-228.638 528.967,-222.195"/>
</g>
<!-- Node22&#45;&gt;Node4 -->
<g id="edge34" class="edge"><title>Node22&#45;&gt;Node4</title>
<path fill="none" stroke="midnightblue" d="M208.392,-223.968C230.813,-229.293 256.847,-235.476 277.916,-240.48"/>
<polygon fill="midnightblue" stroke="midnightblue" points="208.913,-220.495 198.375,-221.589 207.295,-227.305 208.913,-220.495"/>
</g>
<!-- Node22&#45;&gt;Node6 -->
<g id="edge33" class="edge"><title>Node22&#45;&gt;Node6</title>
<path fill="none" stroke="midnightblue" d="M177.829,-196.198C196.682,-182.26 226.47,-162.963 256,-155 391.045,-118.583 559.48,-147.875 634.202,-164.498"/>
<polygon fill="midnightblue" stroke="midnightblue" points="175.58,-193.511 169.739,-202.351 179.817,-199.083 175.58,-193.511"/>
</g>
<!-- Node22&#45;&gt;Node21 -->
<g id="edge36" class="edge"><title>Node22&#45;&gt;Node21</title>
<path fill="none" stroke="midnightblue" d="M230.391,-212C294.085,-212 385.265,-212 441.986,-212"/>
<polygon fill="midnightblue" stroke="midnightblue" points="230.019,-208.5 220.019,-212 230.019,-215.5 230.019,-208.5"/>
</g>
<!-- Node23 -->
<g id="node23" class="node"><title>Node23</title>
<g id="a_node23"><a xlink:href="_p_d_a_q_2_core_2_source_2xml_parser_8cpp.xhtml#ad7ec02a171e7641c1d364d5d367199a3" target="_top" xlink:title="myWideCharToMultiByte">
<polygon fill="white" stroke="black" points="256,-164.5 256,-183.5 382,-183.5 382,-164.5 256,-164.5"/>
<text text-anchor="middle" x="319" y="-171.5" font-family="Helvetica,sans-Serif" font-size="10.00">myWideCharToMultiByte</text>
</a>
</g>
</g>
<!-- Node22&#45;&gt;Node23 -->
<g id="edge35" class="edge"><title>Node22&#45;&gt;Node23</title>
<path fill="none" stroke="midnightblue" d="M208.392,-200.032C230.813,-194.707 256.847,-188.524 277.916,-183.52"/>
<polygon fill="midnightblue" stroke="midnightblue" points="207.295,-196.695 198.375,-202.411 208.913,-203.505 207.295,-196.695"/>
</g>
</g>
</svg>
        <g id="navigator" transform="translate(0 0)" fill="#404254">
                <rect fill="#f2f5e9" fill-opacity="0.5" stroke="#606060" stroke-width=".5" x="0" y="0" width="60" height="60"/>
                <use id="zoomplus" xlink:href="#zoomPlus" x="17" y="9" onmousedown="handleZoom(evt,'in')"/>
                <use id="zoomminus" xlink:href="#zoomMin" x="42" y="9" onmousedown="handleZoom(evt,'out')"/>
                <use id="reset" xlink:href="#resetDef" x="30" y="36" onmousedown="handleReset()"/>
                <g id="arrowUp" xlink:href="#dirArrow" transform="translate(30 24)" onmousedown="handlePan(0,-1)">
                  <use xlink:href="#rim" fill="#404040">
                        <set attributeName="fill" to="#808080" begin="arrowUp.mouseover" end="arrowUp.mouseout"/>
                  </use>
                  <path fill="none" stroke="white" stroke-width="1.5" d="M0,-3.0v7 M-2.5,-0.5L0,-3.0L2.5,-0.5"/>
                </g>
                <g id="arrowRight" xlink:href="#dirArrow" transform="rotate(90) translate(36 -43)" onmousedown="handlePan(1,0)">
                  <use xlink:href="#rim" fill="#404040">
                        <set attributeName="fill" to="#808080" begin="arrowRight.mouseover" end="arrowRight.mouseout"/>
                  </use>
                  <path fill="none" stroke="white" stroke-width="1.5" d="M0,-3.0v7 M-2.5,-0.5L0,-3.0L2.5,-0.5"/>
                </g>
                <g id="arrowDown" xlink:href="#dirArrow" transform="rotate(180) translate(-30 -48)" onmousedown="handlePan(0,1)">
                  <use xlink:href="#rim" fill="#404040">
                        <set attributeName="fill" to="#808080" begin="arrowDown.mouseover" end="arrowDown.mouseout"/>
                  </use>
                  <path fill="none" stroke="white" stroke-width="1.5" d="M0,-3.0v7 M-2.5,-0.5L0,-3.0L2.5,-0.5"/>
                </g>
                <g id="arrowLeft" xlink:href="#dirArrow" transform="rotate(270) translate(-36 17)" onmousedown="handlePan(-1,0)">
                  <use xlink:href="#rim" fill="#404040">
                        <set attributeName="fill" to="#808080" begin="arrowLeft.mouseover" end="arrowLeft.mouseout"/>
                  </use>
                  <path fill="none" stroke="white" stroke-width="1.5" d="M0,-3.0v7 M-2.5,-0.5L0,-3.0L2.5,-0.5"/>
                </g>
        </g>
        <svg viewBox="0 0 15 15" width="100%" height="30px" preserveAspectRatio="xMaxYMin meet">
         <g id="arrow_out" transform="scale(0.3 0.3)">
          <a xlink:href="_c_d_a_q_2_plugins_2_source_2xml_parser_8cpp_a3165858f70cd74ffab31ebc2ddc9e104_icgraph_org.svg" target="_base">
           <rect id="button" ry="5" rx="5" y="6" x="6" height="38" width="38"
                fill="#f2f5e9" fill-opacity="0.5" stroke="#606060" stroke-width="1.0"/>
           <path id="arrow"
             d="M 11.500037,31.436501 C 11.940474,20.09759 22.043105,11.32322 32.158766,21.979434 L 37.068811,17.246167 C 37.068811,17.246167 37.088388,32 37.088388,32 L 22.160133,31.978069 C 22.160133,31.978069 26.997745,27.140456 26.997745,27.140456 C 18.528582,18.264221 13.291696,25.230495 11.500037,31.436501 z"
             style="fill:#404040;"/>
          </a>
         </g>
        </svg>
</svg>
