<?xml version="1.0" encoding="UTF-8" standalone="no"?>
<!DOCTYPE svg PUBLIC "-//W3C//DTD SVG 1.1//EN"
 "http://www.w3.org/Graphics/SVG/1.1/DTD/svg11.dtd">
<!-- Generated by graphviz version 2.36.0 (20140111.2315)
 -->
<!-- Title: myIsTextWideChar Pages: 1 -->
<!--zoomable 382 -->
<svg id="main" version="1.1" xmlns="http://www.w3.org/2000/svg" xmlns:xlink="http://www.w3.org/1999/xlink" xml:space="preserve" onload="init(evt)">
<style type="text/css"><![CDATA[
.edge:hover path { stroke: red; }
.edge:hover polygon { stroke: red; fill: red; }
]]></style>
<script type="text/javascript"><![CDATA[
var edges = document.getElementsByTagName('g');
if (edges && edges.length) {
  for (var i=0;i<edges.length;i++) {
    if (edges[i].id.substr(0,4)=='edge') {
      edges[i].setAttribute('class','edge');
    }
  }
}
]]></script>
        <defs>
                <circle id="rim" cx="0" cy="0" r="7"/>
                <circle id="rim2" cx="0" cy="0" r="3.5"/>
                <g id="zoomPlus">
                        <use xlink:href="#rim" fill="#404040">
                                <set attributeName="fill" to="#808080" begin="zoomplus.mouseover" end="zoomplus.mouseout"/>
                        </use>
                        <path d="M-4,0h8M0,-4v8" fill="none" stroke="white" stroke-width="1.5" pointer-events="none"/>
                </g>
                <g id="zoomMin">
                        <use xlink:href="#rim" fill="#404040">
                                <set attributeName="fill" to="#808080" begin="zoomminus.mouseover" end="zoomminus.mouseout"/>
                        </use>
                        <path d="M-4,0h8" fill="none" stroke="white" stroke-width="1.5" pointer-events="none"/>
                </g>
                <g id="dirArrow">
                        <path fill="none" stroke="white" stroke-width="1.5" d="M0,-3.0v7 M-2.5,-0.5L0,-3.0L2.5,-0.5"/>
                </g>
               <g id="resetDef">
                       <use xlink:href="#rim2" fill="#404040">
                               <set attributeName="fill" to="#808080" begin="reset.mouseover" end="reset.mouseout"/>
                       </use>
               </g>
        </defs>

<script type="text/javascript">
var viewWidth = 800;
var viewHeight = 382;
var sectionId = 'dynsection-14';
</script>
<script xlink:href="svgpan.js"/>
<svg id="graph" class="graph">
<g id="viewport">
<title>myIsTextWideChar</title>
<polygon fill="white" stroke="none" points="-4,4 -4,-377.866 796,-377.866 796,4 -4,4"/>
<!-- Node1 -->
<g id="node1" class="node"><title>Node1</title>
<polygon fill="#bfbfbf" stroke="black" points="0.5,-259.5 0.5,-278.5 101.5,-278.5 101.5,-259.5 0.5,-259.5"/>
<text text-anchor="middle" x="51" y="-266.5" font-family="Helvetica,sans-Serif" font-size="10.00">myIsTextWideChar</text>
</g>
<!-- Node2 -->
<g id="node2" class="node"><title>Node2</title>
<g id="a_node2"><a xlink:href="_p_d_a_q_2_core_2_source_2xml_parser_8cpp.xhtml#a9a625f17c09a36e3ad532cdf16072609" target="_top" xlink:title="charmemset">
<polygon fill="white" stroke="black" points="705.5,-316.5 705.5,-335.5 776.5,-335.5 776.5,-316.5 705.5,-316.5"/>
<text text-anchor="middle" x="741" y="-323.5" font-family="Helvetica,sans-Serif" font-size="10.00">charmemset</text>
</a>
</g>
</g>
<!-- Node1&#45;&gt;Node2 -->
<g id="edge1" class="edge"><title>Node1&#45;&gt;Node2</title>
<path fill="none" stroke="midnightblue" d="M68.3847,-286.121C84.4711,-301.682 110.532,-323.731 138,-334 341.153,-409.949 610.482,-357.522 705.24,-334.931"/>
<polygon fill="midnightblue" stroke="midnightblue" points="70.4756,-283.262 60.9272,-278.671 65.5284,-288.215 70.4756,-283.262"/>
</g>
<!-- Node3 -->
<g id="node3" class="node"><title>Node3</title>
<g id="a_node3"><a xlink:href="_p_d_a_q_2_core_2_source_2xml_parser_8cpp.xhtml#ae6aa5a367ab3cc92b47fd92f81add72a" target="_top" xlink:title="CountLinesAndColumns">
<polygon fill="white" stroke="black" points="333,-126.5 333,-145.5 455,-145.5 455,-126.5 333,-126.5"/>
<text text-anchor="middle" x="394" y="-133.5" font-family="Helvetica,sans-Serif" font-size="10.00">CountLinesAndColumns</text>
</a>
</g>
</g>
<!-- Node1&#45;&gt;Node3 -->
<g id="edge2" class="edge"><title>Node1&#45;&gt;Node3</title>
<path fill="none" stroke="midnightblue" d="M64.8332,-251.047C79.9753,-231.302 107.043,-200.227 138,-184 199.345,-151.844 278.983,-140.999 332.814,-137.466"/>
<polygon fill="midnightblue" stroke="midnightblue" points="61.9074,-249.116 58.744,-259.227 67.5226,-253.295 61.9074,-249.116"/>
</g>
<!-- Node4 -->
<g id="node4" class="node"><title>Node4</title>
<g id="a_node4"><a xlink:href="struct_x_m_l_node.xhtml#a4496629c7a268db5435946c7bdd4eb28" target="_top" xlink:title="XMLNode::getError">
<polygon fill="white" stroke="black" points="164.5,-240.5 164.5,-259.5 265.5,-259.5 265.5,-240.5 164.5,-240.5"/>
<text text-anchor="middle" x="215" y="-247.5" font-family="Helvetica,sans-Serif" font-size="10.00">XMLNode::getError</text>
</a>
</g>
</g>
<!-- Node1&#45;&gt;Node4 -->
<g id="edge3" class="edge"><title>Node1&#45;&gt;Node4</title>
<path fill="none" stroke="midnightblue" d="M111.884,-261.977C129.106,-259.957 147.698,-257.776 164.238,-255.836"/>
<polygon fill="midnightblue" stroke="midnightblue" points="111.451,-258.503 101.927,-263.144 112.267,-265.456 111.451,-258.503"/>
</g>
<!-- Node14 -->
<g id="node14" class="node"><title>Node14</title>
<g id="a_node14"><a xlink:href="_p_d_a_q_2_core_2_source_2xml_parser_8cpp.xhtml#ad9a5c911a8e21bb89427d29d33e2797e" target="_top" xlink:title="myIsTextWideChar">
<polygon fill="white" stroke="black" points="690.5,-278.5 690.5,-297.5 791.5,-297.5 791.5,-278.5 690.5,-278.5"/>
<text text-anchor="middle" x="741" y="-285.5" font-family="Helvetica,sans-Serif" font-size="10.00">myIsTextWideChar</text>
</a>
</g>
</g>
<!-- Node1&#45;&gt;Node14 -->
<g id="edge24" class="edge"><title>Node1&#45;&gt;Node14</title>
<path fill="none" stroke="midnightblue" d="M77.1793,-283.473C93.8416,-292.193 116.505,-302.463 138,-307 362.389,-354.365 426.021,-331.884 654,-307 671.024,-305.142 689.613,-301.273 705.139,-297.508"/>
<polygon fill="midnightblue" stroke="midnightblue" points="78.5776,-280.25 68.1164,-278.573 75.2481,-286.408 78.5776,-280.25"/>
</g>
<!-- Node17 -->
<g id="node17" class="node"><title>Node17</title>
<g id="a_node17"><a xlink:href="struct_x_m_l_node.xhtml#ac7af7e3bab8d21722dd4f191a4aa7c1d" target="_top" xlink:title="XMLNode::guessCharEncoding">
<polygon fill="white" stroke="black" points="138,-278.5 138,-297.5 292,-297.5 292,-278.5 138,-278.5"/>
<text text-anchor="middle" x="215" y="-285.5" font-family="Helvetica,sans-Serif" font-size="10.00">XMLNode::guessCharEncoding</text>
</a>
</g>
</g>
<!-- Node1&#45;&gt;Node17 -->
<g id="edge20" class="edge"><title>Node1&#45;&gt;Node17</title>
<path fill="none" stroke="midnightblue" d="M111.976,-276.034C120.368,-277.019 129.084,-278.041 137.727,-279.054"/>
<polygon fill="midnightblue" stroke="midnightblue" points="112.267,-272.544 101.927,-274.856 111.451,-279.497 112.267,-272.544"/>
</g>
<!-- Node18 -->
<g id="node18" class="node"><title>Node18</title>
<g id="a_node18"><a xlink:href="struct_x_m_l_node.xhtml#a5e5968e052d58350918cd91e3535624b" target="_top" xlink:title="XMLNode::parseFile">
<polygon fill="white" stroke="black" points="162,-193.5 162,-212.5 268,-212.5 268,-193.5 162,-193.5"/>
<text text-anchor="middle" x="215" y="-200.5" font-family="Helvetica,sans-Serif" font-size="10.00">XMLNode::parseFile</text>
</a>
</g>
</g>
<!-- Node1&#45;&gt;Node18 -->
<g id="edge25" class="edge"><title>Node1&#45;&gt;Node18</title>
<path fill="none" stroke="midnightblue" d="M81.8296,-255.265C98.288,-247.827 119.153,-238.627 138,-231 154.033,-224.512 172.203,-217.795 186.757,-212.566"/>
<polygon fill="midnightblue" stroke="midnightblue" points="80.353,-252.092 72.697,-259.415 83.2491,-258.464 80.353,-252.092"/>
</g>
<!-- Node5 -->
<g id="node5" class="node"><title>Node5</title>
<g id="a_node5"><a xlink:href="struct_x_m_l_node.xhtml#acc044148e2b9b8264a320b7b6e398158" target="_top" xlink:title="XMLNode::openFileHelper">
<polygon fill="white" stroke="black" points="328.5,-164.5 328.5,-183.5 459.5,-183.5 459.5,-164.5 328.5,-164.5"/>
<text text-anchor="middle" x="394" y="-171.5" font-family="Helvetica,sans-Serif" font-size="10.00">XMLNode::openFileHelper</text>
</a>
</g>
</g>
<!-- Node4&#45;&gt;Node5 -->
<g id="edge4" class="edge"><title>Node4&#45;&gt;Node5</title>
<path fill="none" stroke="midnightblue" d="M253.27,-237.033C265.683,-232.511 279.523,-227.25 292,-222 321.168,-209.726 354.139,-193.622 374.245,-183.542"/>
<polygon fill="midnightblue" stroke="midnightblue" points="251.898,-233.807 243.673,-240.486 254.268,-240.393 251.898,-233.807"/>
</g>
<!-- Node13 -->
<g id="node13" class="node"><title>Node13</title>
<g id="a_node13"><a xlink:href="_p_d_a_q_2_core_2_source_2xml_parser_8cpp.xhtml#af77e3e2685487b9c492b20c36f3b864a" target="_top" xlink:title="_strnicmp">
<polygon fill="white" stroke="black" points="545.5,-278.5 545.5,-297.5 604.5,-297.5 604.5,-278.5 545.5,-278.5"/>
<text text-anchor="middle" x="575" y="-285.5" font-family="Helvetica,sans-Serif" font-size="10.00">_strnicmp</text>
</a>
</g>
</g>
<!-- Node4&#45;&gt;Node13 -->
<g id="edge19" class="edge"><title>Node4&#45;&gt;Node13</title>
<path fill="none" stroke="midnightblue" d="M275.943,-256.363C353.978,-264.646 487.245,-278.791 545.421,-284.967"/>
<polygon fill="midnightblue" stroke="midnightblue" points="276.092,-252.859 265.778,-255.284 275.353,-259.82 276.092,-252.859"/>
</g>
<!-- Node6 -->
<g id="node6" class="node"><title>Node6</title>
<g id="a_node6"><a xlink:href="class_a_d_c_manager1720.xhtml#aae342ccd8bf1c253c455e195bfd82dfe" target="_top" xlink:title="ADCManager1720::Init">
<polygon fill="white" stroke="black" points="517,-0.5 517,-19.5 633,-19.5 633,-0.5 517,-0.5"/>
<text text-anchor="middle" x="575" y="-7.5" font-family="Helvetica,sans-Serif" font-size="10.00">ADCManager1720::Init</text>
</a>
</g>
</g>
<!-- Node5&#45;&gt;Node6 -->
<g id="edge5" class="edge"><title>Node5&#45;&gt;Node6</title>
<path fill="none" stroke="midnightblue" d="M455.424,-159C457.038,-157.769 458.57,-156.438 460,-155 501.057,-113.692 454.015,-69.3641 496,-29 501.828,-23.3975 509.018,-19.3583 516.655,-16.4617"/>
<polygon fill="midnightblue" stroke="midnightblue" points="453.422,-156.124 446.762,-164.363 457.106,-162.075 453.422,-156.124"/>
</g>
<!-- Node7 -->
<g id="node7" class="node"><title>Node7</title>
<g id="a_node7"><a xlink:href="class_a_d_c_manager1724.xhtml#a6de2521b9c793edcf14aeaeefeb62787" target="_top" xlink:title="ADCManager1724::Init">
<polygon fill="white" stroke="black" points="517,-240.5 517,-259.5 633,-259.5 633,-240.5 517,-240.5"/>
<text text-anchor="middle" x="575" y="-247.5" font-family="Helvetica,sans-Serif" font-size="10.00">ADCManager1724::Init</text>
</a>
</g>
</g>
<!-- Node5&#45;&gt;Node7 -->
<g id="edge6" class="edge"><title>Node5&#45;&gt;Node7</title>
<path fill="none" stroke="midnightblue" d="M438.034,-187.19C445.598,-190.257 453.213,-193.859 460,-198 478.529,-209.305 476.853,-220.777 496,-231 503.254,-234.873 511.307,-237.97 519.406,-240.443"/>
<polygon fill="midnightblue" stroke="midnightblue" points="439.139,-183.866 428.548,-183.594 436.658,-190.412 439.139,-183.866"/>
</g>
<!-- Node8 -->
<g id="node8" class="node"><title>Node8</title>
<g id="a_node8"><a xlink:href="class_a_d_c_manager1730.xhtml#adb6d45f2024f4a52d366a88d1c7f229d" target="_top" xlink:title="ADCManager1730::Init">
<polygon fill="white" stroke="black" points="517,-202.5 517,-221.5 633,-221.5 633,-202.5 517,-202.5"/>
<text text-anchor="middle" x="575" y="-209.5" font-family="Helvetica,sans-Serif" font-size="10.00">ADCManager1730::Init</text>
</a>
</g>
</g>
<!-- Node5&#45;&gt;Node8 -->
<g id="edge7" class="edge"><title>Node5&#45;&gt;Node8</title>
<path fill="none" stroke="midnightblue" d="M450.024,-185.681C475.408,-191.07 505.161,-197.386 529.156,-202.48"/>
<polygon fill="midnightblue" stroke="midnightblue" points="450.678,-182.242 440.169,-183.589 449.224,-189.089 450.678,-182.242"/>
</g>
<!-- Node9 -->
<g id="node9" class="node"><title>Node9</title>
<g id="a_node9"><a xlink:href="class_scope_manager.xhtml#abe246d1b817d85a9cba7af3441a4df04" target="_top" xlink:title="ScopeManager::ShowEvent">
<polygon fill="white" stroke="black" points="506,-126.5 506,-145.5 644,-145.5 644,-126.5 506,-126.5"/>
<text text-anchor="middle" x="575" y="-133.5" font-family="Helvetica,sans-Serif" font-size="10.00">ScopeManager::ShowEvent</text>
</a>
</g>
</g>
<!-- Node5&#45;&gt;Node9 -->
<g id="edge8" class="edge"><title>Node5&#45;&gt;Node9</title>
<path fill="none" stroke="midnightblue" d="M450.024,-162.319C475.408,-156.93 505.161,-150.614 529.156,-145.52"/>
<polygon fill="midnightblue" stroke="midnightblue" points="449.224,-158.911 440.169,-164.411 450.678,-165.758 449.224,-158.911"/>
</g>
<!-- Node11 -->
<g id="node11" class="node"><title>Node11</title>
<g id="a_node11"><a xlink:href="class_slowcontrol_manager.xhtml#a36ab5157f5a740b9058517b77d1ce38f" target="_top" xlink:title="SlowcontrolManager\l::ShowStatus">
<polygon fill="white" stroke="black" points="522.5,-77 522.5,-107 627.5,-107 627.5,-77 522.5,-77"/>
<text text-anchor="start" x="530.5" y="-95" font-family="Helvetica,sans-Serif" font-size="10.00">SlowcontrolManager</text>
<text text-anchor="middle" x="575" y="-84" font-family="Helvetica,sans-Serif" font-size="10.00">::ShowStatus</text>
</a>
</g>
</g>
<!-- Node5&#45;&gt;Node11 -->
<g id="edge10" class="edge"><title>Node5&#45;&gt;Node11</title>
<path fill="none" stroke="midnightblue" d="M448.691,-160.828C452.628,-159.107 456.445,-157.172 460,-155 479.853,-142.872 476.305,-129.383 496,-117 504.066,-111.929 513.252,-107.799 522.421,-104.467"/>
<polygon fill="midnightblue" stroke="midnightblue" points="447.396,-157.576 439.35,-164.47 449.939,-164.098 447.396,-157.576"/>
</g>
<!-- Node12 -->
<g id="node12" class="node"><title>Node12</title>
<g id="a_node12"><a xlink:href="class_storage_manager.xhtml#ab16a945d003852d02556daf3610a9aac" target="_top" xlink:title="StorageManager::SaveContainer">
<polygon fill="white" stroke="black" points="496,-38.5 496,-57.5 654,-57.5 654,-38.5 496,-38.5"/>
<text text-anchor="middle" x="575" y="-45.5" font-family="Helvetica,sans-Serif" font-size="10.00">StorageManager::SaveContainer</text>
</a>
</g>
</g>
<!-- Node5&#45;&gt;Node12 -->
<g id="edge12" class="edge"><title>Node5&#45;&gt;Node12</title>
<path fill="none" stroke="midnightblue" d="M454.446,-159.324C456.4,-158.005 458.261,-156.567 460,-155 491.392,-126.712 463.973,-94.5674 496,-67 500.437,-63.1812 505.517,-60.104 510.91,-57.6278"/>
<polygon fill="midnightblue" stroke="midnightblue" points="452.401,-156.457 445.373,-164.386 455.811,-162.57 452.401,-156.457"/>
</g>
<!-- Node5&#45;&gt;Node13 -->
<g id="edge14" class="edge"><title>Node5&#45;&gt;Node13</title>
<path fill="none" stroke="midnightblue" d="M444.815,-187.845C450.298,-190.651 455.511,-194.002 460,-198 486.421,-221.531 468.273,-247.023 496,-269 509.981,-280.082 529.481,-284.832 545.486,-286.811"/>
<polygon fill="midnightblue" stroke="midnightblue" points="445.968,-184.527 435.412,-183.623 443.1,-190.912 445.968,-184.527"/>
</g>
<!-- Node15 -->
<g id="node15" class="node"><title>Node15</title>
<g id="a_node15"><a xlink:href="_p_d_a_q_2_core_2_source_2xml_8cpp.xhtml#a8251b051736c5146c1985edc6cb357e6" target="_top" xlink:title="xml_readsettings">
<polygon fill="white" stroke="black" points="529.5,-164.5 529.5,-183.5 620.5,-183.5 620.5,-164.5 529.5,-164.5"/>
<text text-anchor="middle" x="575" y="-171.5" font-family="Helvetica,sans-Serif" font-size="10.00">xml_readsettings</text>
</a>
</g>
</g>
<!-- Node5&#45;&gt;Node15 -->
<g id="edge17" class="edge"><title>Node5&#45;&gt;Node15</title>
<path fill="none" stroke="midnightblue" d="M469.783,-174C490.045,-174 511.342,-174 529.365,-174"/>
<polygon fill="midnightblue" stroke="midnightblue" points="469.623,-170.5 459.623,-174 469.623,-177.5 469.623,-170.5"/>
</g>
<!-- Node10 -->
<g id="node10" class="node"><title>Node10</title>
<g id="a_node10"><a xlink:href="_multi_d_a_q_8cpp.xhtml#adedb285b02c41bde2158ded9cc9fd7ac" target="_top" xlink:title="main">
<polygon fill="white" stroke="black" points="722,-82.5 722,-101.5 760,-101.5 760,-82.5 722,-82.5"/>
<text text-anchor="middle" x="741" y="-89.5" font-family="Helvetica,sans-Serif" font-size="10.00">main</text>
</a>
</g>
</g>
<!-- Node9&#45;&gt;Node10 -->
<g id="edge9" class="edge"><title>Node9&#45;&gt;Node10</title>
<path fill="none" stroke="midnightblue" d="M623.581,-123.97C633.636,-121.38 644.176,-118.63 654,-116 677.509,-109.707 704.528,-102.106 721.911,-97.168"/>
<polygon fill="midnightblue" stroke="midnightblue" points="622.549,-120.622 613.732,-126.496 624.288,-127.402 622.549,-120.622"/>
</g>
<!-- Node11&#45;&gt;Node10 -->
<g id="edge11" class="edge"><title>Node11&#45;&gt;Node10</title>
<path fill="none" stroke="midnightblue" d="M638.256,-92C668.076,-92 701.599,-92 721.744,-92"/>
<polygon fill="midnightblue" stroke="midnightblue" points="637.891,-88.5001 627.891,-92 637.891,-95.5001 637.891,-88.5001"/>
</g>
<!-- Node12&#45;&gt;Node10 -->
<g id="edge13" class="edge"><title>Node12&#45;&gt;Node10</title>
<path fill="none" stroke="midnightblue" d="M626.394,-59.9314C635.596,-62.2078 645.1,-64.6236 654,-67 677.585,-73.2973 704.587,-81.2735 721.945,-86.5007"/>
<polygon fill="midnightblue" stroke="midnightblue" points="627.115,-56.5047 616.57,-57.5244 625.449,-63.3036 627.115,-56.5047"/>
</g>
<!-- Node13&#45;&gt;Node2 -->
<g id="edge16" class="edge"><title>Node13&#45;&gt;Node2</title>
<path fill="none" stroke="midnightblue" d="M614.605,-296.945C642.068,-303.308 678.653,-311.785 705.214,-317.94"/>
<polygon fill="midnightblue" stroke="midnightblue" points="615.099,-293.467 604.567,-294.619 613.518,-300.286 615.099,-293.467"/>
</g>
<!-- Node13&#45;&gt;Node14 -->
<g id="edge15" class="edge"><title>Node13&#45;&gt;Node14</title>
<path fill="none" stroke="midnightblue" d="M614.784,-288C637.346,-288 666.018,-288 690.231,-288"/>
<polygon fill="midnightblue" stroke="midnightblue" points="614.567,-284.5 604.567,-288 614.567,-291.5 614.567,-284.5"/>
</g>
<!-- Node16 -->
<g id="node16" class="node"><title>Node16</title>
<g id="a_node16"><a xlink:href="_z_d_a_q_8cpp.xhtml#a0ddf1224851353fc92bfbff6f499fa97" target="_top" xlink:title="main">
<polygon fill="white" stroke="black" points="722,-164.5 722,-183.5 760,-183.5 760,-164.5 722,-164.5"/>
<text text-anchor="middle" x="741" y="-171.5" font-family="Helvetica,sans-Serif" font-size="10.00">main</text>
</a>
</g>
</g>
<!-- Node15&#45;&gt;Node16 -->
<g id="edge18" class="edge"><title>Node15&#45;&gt;Node16</title>
<path fill="none" stroke="midnightblue" d="M631.216,-174C662.646,-174 699.974,-174 721.724,-174"/>
<polygon fill="midnightblue" stroke="midnightblue" points="630.814,-170.5 620.814,-174 630.814,-177.5 630.814,-170.5"/>
</g>
<!-- Node17&#45;&gt;Node2 -->
<g id="edge23" class="edge"><title>Node17&#45;&gt;Node2</title>
<path fill="none" stroke="midnightblue" d="M296.507,-298.712C307.088,-299.93 317.796,-301.066 328,-302 467.669,-314.783 634.634,-322.05 705.488,-324.762"/>
<polygon fill="midnightblue" stroke="midnightblue" points="296.764,-295.218 286.423,-297.524 295.945,-302.17 296.764,-295.218"/>
</g>
<!-- Node17&#45;&gt;Node5 -->
<g id="edge21" class="edge"><title>Node17&#45;&gt;Node5</title>
<path fill="none" stroke="midnightblue" d="M278.774,-275.074C283.358,-273.298 287.819,-271.284 292,-269 333.198,-246.5 370.235,-203.157 385.547,-183.779"/>
<polygon fill="midnightblue" stroke="midnightblue" points="277.531,-271.801 269.239,-278.395 279.834,-278.411 277.531,-271.801"/>
</g>
<!-- Node17&#45;&gt;Node13 -->
<g id="edge22" class="edge"><title>Node17&#45;&gt;Node13</title>
<path fill="none" stroke="midnightblue" d="M302.767,-288C381.563,-288 493.167,-288 545.204,-288"/>
<polygon fill="midnightblue" stroke="midnightblue" points="302.361,-284.5 292.361,-288 302.361,-291.5 302.361,-284.5"/>
</g>
<!-- Node18&#45;&gt;Node3 -->
<g id="edge28" class="edge"><title>Node18&#45;&gt;Node3</title>
<path fill="none" stroke="midnightblue" d="M245.624,-189.144C267.979,-178.973 299.555,-165.211 328,-155 337.406,-151.624 347.731,-148.395 357.329,-145.588"/>
<polygon fill="midnightblue" stroke="midnightblue" points="243.976,-186.049 236.346,-193.4 246.895,-192.412 243.976,-186.049"/>
</g>
<!-- Node18&#45;&gt;Node5 -->
<g id="edge26" class="edge"><title>Node18&#45;&gt;Node5</title>
<path fill="none" stroke="midnightblue" d="M278.165,-192.815C296.543,-189.804 316.589,-186.519 334.714,-183.55"/>
<polygon fill="midnightblue" stroke="midnightblue" points="277.451,-189.385 268.149,-194.456 278.583,-196.293 277.451,-189.385"/>
</g>
<!-- Node18&#45;&gt;Node13 -->
<g id="edge27" class="edge"><title>Node18&#45;&gt;Node13</title>
<path fill="none" stroke="midnightblue" d="M270.088,-214.676C319.644,-225.548 394.966,-242.514 460,-259 476.097,-263.081 479.931,-264.812 496,-269 512.319,-273.253 530.637,-277.73 545.419,-281.27"/>
<polygon fill="midnightblue" stroke="midnightblue" points="270.741,-211.236 260.224,-212.517 269.245,-218.074 270.741,-211.236"/>
</g>
</g>
</svg>
        <g id="navigator" transform="translate(0 0)" fill="#404254">
                <rect fill="#f2f5e9" fill-opacity="0.5" stroke="#606060" stroke-width=".5" x="0" y="0" width="60" height="60"/>
                <use id="zoomplus" xlink:href="#zoomPlus" x="17" y="9" onmousedown="handleZoom(evt,'in')"/>
                <use id="zoomminus" xlink:href="#zoomMin" x="42" y="9" onmousedown="handleZoom(evt,'out')"/>
                <use id="reset" xlink:href="#resetDef" x="30" y="36" onmousedown="handleReset()"/>
                <g id="arrowUp" xlink:href="#dirArrow" transform="translate(30 24)" onmousedown="handlePan(0,-1)">
                  <use xlink:href="#rim" fill="#404040">
                        <set attributeName="fill" to="#808080" begin="arrowUp.mouseover" end="arrowUp.mouseout"/>
                  </use>
                  <path fill="none" stroke="white" stroke-width="1.5" d="M0,-3.0v7 M-2.5,-0.5L0,-3.0L2.5,-0.5"/>
                </g>
                <g id="arrowRight" xlink:href="#dirArrow" transform="rotate(90) translate(36 -43)" onmousedown="handlePan(1,0)">
                  <use xlink:href="#rim" fill="#404040">
                        <set attributeName="fill" to="#808080" begin="arrowRight.mouseover" end="arrowRight.mouseout"/>
                  </use>
                  <path fill="none" stroke="white" stroke-width="1.5" d="M0,-3.0v7 M-2.5,-0.5L0,-3.0L2.5,-0.5"/>
                </g>
                <g id="arrowDown" xlink:href="#dirArrow" transform="rotate(180) translate(-30 -48)" onmousedown="handlePan(0,1)">
                  <use xlink:href="#rim" fill="#404040">
                        <set attributeName="fill" to="#808080" begin="arrowDown.mouseover" end="arrowDown.mouseout"/>
                  </use>
                  <path fill="none" stroke="white" stroke-width="1.5" d="M0,-3.0v7 M-2.5,-0.5L0,-3.0L2.5,-0.5"/>
                </g>
                <g id="arrowLeft" xlink:href="#dirArrow" transform="rotate(270) translate(-36 17)" onmousedown="handlePan(-1,0)">
                  <use xlink:href="#rim" fill="#404040">
                        <set attributeName="fill" to="#808080" begin="arrowLeft.mouseover" end="arrowLeft.mouseout"/>
                  </use>
                  <path fill="none" stroke="white" stroke-width="1.5" d="M0,-3.0v7 M-2.5,-0.5L0,-3.0L2.5,-0.5"/>
                </g>
        </g>
        <svg viewBox="0 0 15 15" width="100%" height="30px" preserveAspectRatio="xMaxYMin meet">
         <g id="arrow_out" transform="scale(0.3 0.3)">
          <a xlink:href="_c_d_a_q_2_plugins_2_source_2xml_parser_8cpp_ad9a5c911a8e21bb89427d29d33e2797e_icgraph_org.svg" target="_base">
           <rect id="button" ry="5" rx="5" y="6" x="6" height="38" width="38"
                fill="#f2f5e9" fill-opacity="0.5" stroke="#606060" stroke-width="1.0"/>
           <path id="arrow"
             d="M 11.500037,31.436501 C 11.940474,20.09759 22.043105,11.32322 32.158766,21.979434 L 37.068811,17.246167 C 37.068811,17.246167 37.088388,32 37.088388,32 L 22.160133,31.978069 C 22.160133,31.978069 26.997745,27.140456 26.997745,27.140456 C 18.528582,18.264221 13.291696,25.230495 11.500037,31.436501 z"
             style="fill:#404040;"/>
          </a>
         </g>
        </svg>
</svg>
