<?xml version="1.0" encoding="UTF-8" standalone="no"?>
<!DOCTYPE svg PUBLIC "-//W3C//DTD SVG 1.1//EN"
 "http://www.w3.org/Graphics/SVG/1.1/DTD/svg11.dtd">
<!-- Generated by graphviz version 2.36.0 (20140111.2315)
 -->
<!-- Title: GetNextToken Pages: 1 -->
<svg width="196pt" height="66pt"
 viewBox="0.00 0.00 196.00 66.00" xmlns="http://www.w3.org/2000/svg" xmlns:xlink="http://www.w3.org/1999/xlink">
<g id="graph0" class="graph" transform="scale(1 1) rotate(0) translate(4 62)">
<title>GetNextToken</title>
<polygon fill="white" stroke="none" points="-4,4 -4,-62 192,-62 192,4 -4,4"/>
<!-- Node1 -->
<g id="node1" class="node"><title>Node1</title>
<polygon fill="#bfbfbf" stroke="black" points="0,-19.5 0,-38.5 80,-38.5 80,-19.5 0,-19.5"/>
<text text-anchor="middle" x="40" y="-26.5" font-family="Helvetica,sans-Serif" font-size="10.00">GetNextToken</text>
</g>
<!-- Node2 -->
<g id="node2" class="node"><title>Node2</title>
<g id="a_node2"><a xlink:href="_c_d_a_q_2_plugins_2_source_2xml_parser_8cpp.xhtml#af03c1c87ed4ddb95f7b49d53d9117c53" target="_top" xlink:title="getNextChar">
<polygon fill="white" stroke="black" points="116,-38.5 116,-57.5 188,-57.5 188,-38.5 116,-38.5"/>
<text text-anchor="middle" x="152" y="-45.5" font-family="Helvetica,sans-Serif" font-size="10.00">getNextChar</text>
</a>
</g>
</g>
<!-- Node1&#45;&gt;Node2 -->
<g id="edge1" class="edge"><title>Node1&#45;&gt;Node2</title>
<path fill="none" stroke="midnightblue" d="M80.0916,-35.7522C88.3452,-37.1778 97.1217,-38.6938 105.586,-40.1557"/>
<polygon fill="midnightblue" stroke="midnightblue" points="105.249,-43.6493 115.699,-41.9025 106.44,-36.7514 105.249,-43.6493"/>
</g>
<!-- Node3 -->
<g id="node3" class="node"><title>Node3</title>
<g id="a_node3"><a xlink:href="_c_d_a_q_2_plugins_2_source_2xml_parser_8cpp.xhtml#a3165858f70cd74ffab31ebc2ddc9e104" target="_top" xlink:title="xstrncmp">
<polygon fill="white" stroke="black" points="123.5,-0.5 123.5,-19.5 180.5,-19.5 180.5,-0.5 123.5,-0.5"/>
<text text-anchor="middle" x="152" y="-7.5" font-family="Helvetica,sans-Serif" font-size="10.00">xstrncmp</text>
</a>
</g>
</g>
<!-- Node1&#45;&gt;Node3 -->
<g id="edge2" class="edge"><title>Node1&#45;&gt;Node3</title>
<path fill="none" stroke="midnightblue" d="M80.0916,-22.2478C90.9484,-20.3725 102.71,-18.341 113.475,-16.4816"/>
<polygon fill="midnightblue" stroke="midnightblue" points="114.17,-19.9134 123.429,-14.7623 112.979,-13.0155 114.17,-19.9134"/>
</g>
</g>
</svg>
