<?xml version="1.0" encoding="UTF-8" standalone="no"?>
<!DOCTYPE svg PUBLIC "-//W3C//DTD SVG 1.1//EN"
 "http://www.w3.org/Graphics/SVG/1.1/DTD/svg11.dtd">
<!-- Generated by graphviz version 2.36.0 (20140111.2315)
 -->
<!-- Title: xstrnicmp Pages: 1 -->
<!--zoomable 443 -->
<svg id="main" version="1.1" xmlns="http://www.w3.org/2000/svg" xmlns:xlink="http://www.w3.org/1999/xlink" xml:space="preserve" onload="init(evt)">
<style type="text/css"><![CDATA[
.edge:hover path { stroke: red; }
.edge:hover polygon { stroke: red; fill: red; }
]]></style>
<script type="text/javascript"><![CDATA[
var edges = document.getElementsByTagName('g');
if (edges && edges.length) {
  for (var i=0;i<edges.length;i++) {
    if (edges[i].id.substr(0,4)=='edge') {
      edges[i].setAttribute('class','edge');
    }
  }
}
]]></script>
        <defs>
                <circle id="rim" cx="0" cy="0" r="7"/>
                <circle id="rim2" cx="0" cy="0" r="3.5"/>
                <g id="zoomPlus">
                        <use xlink:href="#rim" fill="#404040">
                                <set attributeName="fill" to="#808080" begin="zoomplus.mouseover" end="zoomplus.mouseout"/>
                        </use>
                        <path d="M-4,0h8M0,-4v8" fill="none" stroke="white" stroke-width="1.5" pointer-events="none"/>
                </g>
                <g id="zoomMin">
                        <use xlink:href="#rim" fill="#404040">
                                <set attributeName="fill" to="#808080" begin="zoomminus.mouseover" end="zoomminus.mouseout"/>
                        </use>
                        <path d="M-4,0h8" fill="none" stroke="white" stroke-width="1.5" pointer-events="none"/>
                </g>
                <g id="dirArrow">
                        <path fill="none" stroke="white" stroke-width="1.5" d="M0,-3.0v7 M-2.5,-0.5L0,-3.0L2.5,-0.5"/>
                </g>
               <g id="resetDef">
                       <use xlink:href="#rim2" fill="#404040">
                               <set attributeName="fill" to="#808080" begin="reset.mouseover" end="reset.mouseout"/>
                       </use>
               </g>
        </defs>

<script type="text/javascript">
var viewWidth = 1082;
var viewHeight = 443;
var sectionId = 'dynsection-28';
</script>
<script xlink:href="svgpan.js"/>
<svg id="graph" class="graph">
<g id="viewport">
<title>xstrnicmp</title>
<polygon fill="white" stroke="none" points="-4,4 -4,-438.738 1078,-438.738 1078,4 -4,4"/>
<!-- Node1 -->
<g id="node1" class="node"><title>Node1</title>
<polygon fill="#bfbfbf" stroke="black" points="0.5,-259.5 0.5,-278.5 59.5,-278.5 59.5,-259.5 0.5,-259.5"/>
<text text-anchor="middle" x="30" y="-266.5" font-family="Helvetica,sans-Serif" font-size="10.00">xstrnicmp</text>
</g>
<!-- Node2 -->
<g id="node2" class="node"><title>Node2</title>
<g id="a_node2"><a xlink:href="_c_d_a_q_2_plugins_2_source_2xml_parser_8cpp.xhtml#a36502225dcdc2b09467919e6c9647e9d" target="_top" xlink:title="fromXMLString">
<polygon fill="white" stroke="black" points="118,-316.5 118,-335.5 200,-335.5 200,-316.5 118,-316.5"/>
<text text-anchor="middle" x="159" y="-323.5" font-family="Helvetica,sans-Serif" font-size="10.00">fromXMLString</text>
</a>
</g>
</g>
<!-- Node1&#45;&gt;Node2 -->
<g id="edge1" class="edge"><title>Node1&#45;&gt;Node2</title>
<path fill="none" stroke="midnightblue" d="M54.0408,-284.235C66.1693,-291.794 81.4994,-300.642 96,-307 104.145,-310.571 113.168,-313.748 121.75,-316.433"/>
<polygon fill="midnightblue" stroke="midnightblue" points="55.7719,-281.188 45.457,-278.769 52.0118,-287.092 55.7719,-281.188"/>
</g>
<!-- Node4 -->
<g id="node4" class="node"><title>Node4</title>
<g id="a_node4"><a xlink:href="_c_d_a_q_2_plugins_2_source_2xml_parser_8cpp.xhtml#ad9a5c911a8e21bb89427d29d33e2797e" target="_top" xlink:title="myIsTextWideChar">
<polygon fill="white" stroke="black" points="270.5,-240.5 270.5,-259.5 371.5,-259.5 371.5,-240.5 270.5,-240.5"/>
<text text-anchor="middle" x="321" y="-247.5" font-family="Helvetica,sans-Serif" font-size="10.00">myIsTextWideChar</text>
</a>
</g>
</g>
<!-- Node1&#45;&gt;Node4 -->
<g id="edge3" class="edge"><title>Node1&#45;&gt;Node4</title>
<path fill="none" stroke="midnightblue" d="M69.6095,-266.462C121.409,-263.056 213.455,-257.005 270.353,-253.264"/>
<polygon fill="midnightblue" stroke="midnightblue" points="69.2502,-262.978 59.5014,-267.126 69.7095,-269.963 69.2502,-262.978"/>
</g>
<!-- Node22 -->
<g id="node22" class="node"><title>Node22</title>
<g id="a_node22"><a xlink:href="_c_d_a_q_2_plugins_2_source_2xml_parser_8cpp.xhtml#aead5c47bfd6039cbcc995ac39d52283e" target="_top" xlink:title="myTagCompare">
<polygon fill="white" stroke="black" points="116,-278.5 116,-297.5 202,-297.5 202,-278.5 116,-278.5"/>
<text text-anchor="middle" x="159" y="-285.5" font-family="Helvetica,sans-Serif" font-size="10.00">myTagCompare</text>
</a>
</g>
</g>
<!-- Node1&#45;&gt;Node22 -->
<g id="edge32" class="edge"><title>Node1&#45;&gt;Node22</title>
<path fill="none" stroke="midnightblue" d="M69.6578,-274.783C84.1802,-276.956 100.76,-279.437 115.605,-281.657"/>
<polygon fill="midnightblue" stroke="midnightblue" points="69.9091,-271.282 59.5013,-273.264 68.8733,-278.205 69.9091,-271.282"/>
</g>
<!-- Node23 -->
<g id="node23" class="node"><title>Node23</title>
<g id="a_node23"><a xlink:href="_c_d_a_q_2_plugins_2_source_2xml_parser_8cpp.xhtml#ad7ec02a171e7641c1d364d5d367199a3" target="_top" xlink:title="myWideCharToMultiByte">
<polygon fill="white" stroke="black" points="96,-202.5 96,-221.5 222,-221.5 222,-202.5 96,-202.5"/>
<text text-anchor="middle" x="159" y="-209.5" font-family="Helvetica,sans-Serif" font-size="10.00">myWideCharToMultiByte</text>
</a>
</g>
</g>
<!-- Node1&#45;&gt;Node23 -->
<g id="edge34" class="edge"><title>Node1&#45;&gt;Node23</title>
<path fill="none" stroke="midnightblue" d="M57.855,-254.602C69.458,-248.581 83.268,-241.679 96,-236 107.49,-230.875 120.435,-225.763 131.514,-221.583"/>
<polygon fill="midnightblue" stroke="midnightblue" points="55.9285,-251.66 48.6998,-259.406 59.1811,-257.858 55.9285,-251.66"/>
</g>
<!-- Node3 -->
<g id="node3" class="node"><title>Node3</title>
<g id="a_node3"><a xlink:href="_c_d_a_q_2_plugins_2_source_2xml_parser_8cpp.xhtml#a8415cb910267a0487e1003a34069d012" target="_top" xlink:title="myRealloc">
<polygon fill="white" stroke="black" points="289.5,-297.5 289.5,-316.5 352.5,-316.5 352.5,-297.5 289.5,-297.5"/>
<text text-anchor="middle" x="321" y="-304.5" font-family="Helvetica,sans-Serif" font-size="10.00">myRealloc</text>
</a>
</g>
</g>
<!-- Node2&#45;&gt;Node3 -->
<g id="edge2" class="edge"><title>Node2&#45;&gt;Node3</title>
<path fill="none" stroke="midnightblue" d="M210.424,-320.012C236.378,-316.93 267.165,-313.274 289.487,-310.623"/>
<polygon fill="midnightblue" stroke="midnightblue" points="209.892,-316.551 200.375,-321.205 210.718,-323.502 209.892,-316.551"/>
</g>
<!-- Node5 -->
<g id="node5" class="node"><title>Node5</title>
<g id="a_node5"><a xlink:href="_p_d_a_q_2_core_2_source_2xml_parser_8cpp.xhtml#a9a625f17c09a36e3ad532cdf16072609" target="_top" xlink:title="charmemset">
<polygon fill="white" stroke="black" points="987.5,-316.5 987.5,-335.5 1058.5,-335.5 1058.5,-316.5 987.5,-316.5"/>
<text text-anchor="middle" x="1023" y="-323.5" font-family="Helvetica,sans-Serif" font-size="10.00">charmemset</text>
</a>
</g>
</g>
<!-- Node4&#45;&gt;Node5 -->
<g id="edge4" class="edge"><title>Node4&#45;&gt;Node5</title>
<path fill="none" stroke="midnightblue" d="M381.951,-252.187C492.29,-256.915 734.672,-270.584 936,-305 953.119,-307.926 971.881,-312.361 987.501,-316.402"/>
<polygon fill="midnightblue" stroke="midnightblue" points="381.829,-248.678 371.691,-251.756 381.535,-255.672 381.829,-248.678"/>
</g>
<!-- Node6 -->
<g id="node6" class="node"><title>Node6</title>
<g id="a_node6"><a xlink:href="_p_d_a_q_2_core_2_source_2xml_parser_8cpp.xhtml#ae6aa5a367ab3cc92b47fd92f81add72a" target="_top" xlink:title="CountLinesAndColumns">
<polygon fill="white" stroke="black" points="615,-164.5 615,-183.5 737,-183.5 737,-164.5 615,-164.5"/>
<text text-anchor="middle" x="676" y="-171.5" font-family="Helvetica,sans-Serif" font-size="10.00">CountLinesAndColumns</text>
</a>
</g>
</g>
<!-- Node4&#45;&gt;Node6 -->
<g id="edge5" class="edge"><title>Node4&#45;&gt;Node6</title>
<path fill="none" stroke="midnightblue" d="M342.292,-234.477C361.262,-220.908 390.949,-202.005 420,-193 484.453,-173.021 562.265,-170.069 614.851,-170.967"/>
<polygon fill="midnightblue" stroke="midnightblue" points="340.125,-231.727 334.131,-240.463 344.265,-237.371 340.125,-231.727"/>
</g>
<!-- Node7 -->
<g id="node7" class="node"><title>Node7</title>
<g id="a_node7"><a xlink:href="struct_x_m_l_node.xhtml#a4496629c7a268db5435946c7bdd4eb28" target="_top" xlink:title="XMLNode::getError">
<polygon fill="white" stroke="black" points="446.5,-316.5 446.5,-335.5 547.5,-335.5 547.5,-316.5 446.5,-316.5"/>
<text text-anchor="middle" x="497" y="-323.5" font-family="Helvetica,sans-Serif" font-size="10.00">XMLNode::getError</text>
</a>
</g>
</g>
<!-- Node4&#45;&gt;Node7 -->
<g id="edge6" class="edge"><title>Node4&#45;&gt;Node7</title>
<path fill="none" stroke="midnightblue" d="M345.842,-264.911C369.791,-279.697 405.205,-300.989 420,-307 429.198,-310.737 439.331,-313.888 449.116,-316.482"/>
<polygon fill="midnightblue" stroke="midnightblue" points="347.634,-261.904 337.291,-259.608 343.945,-267.853 347.634,-261.904"/>
</g>
<!-- Node17 -->
<g id="node17" class="node"><title>Node17</title>
<g id="a_node17"><a xlink:href="_p_d_a_q_2_core_2_source_2xml_parser_8cpp.xhtml#ad9a5c911a8e21bb89427d29d33e2797e" target="_top" xlink:title="myIsTextWideChar">
<polygon fill="white" stroke="black" points="972.5,-392.5 972.5,-411.5 1073.5,-411.5 1073.5,-392.5 972.5,-392.5"/>
<text text-anchor="middle" x="1023" y="-399.5" font-family="Helvetica,sans-Serif" font-size="10.00">myIsTextWideChar</text>
</a>
</g>
</g>
<!-- Node4&#45;&gt;Node17 -->
<g id="edge27" class="edge"><title>Node4&#45;&gt;Node17</title>
<path fill="none" stroke="midnightblue" d="M351.515,-264.405C362.51,-270.672 374.592,-278.718 384,-288 405.329,-309.044 395.875,-327.23 420,-345 592.645,-472.168 873.013,-432.698 979.31,-411.544"/>
<polygon fill="midnightblue" stroke="midnightblue" points="353.075,-261.269 342.617,-259.57 349.733,-267.42 353.075,-261.269"/>
</g>
<!-- Node20 -->
<g id="node20" class="node"><title>Node20</title>
<g id="a_node20"><a xlink:href="struct_x_m_l_node.xhtml#ac7af7e3bab8d21722dd4f191a4aa7c1d" target="_top" xlink:title="XMLNode::guessCharEncoding">
<polygon fill="white" stroke="black" points="420,-278.5 420,-297.5 574,-297.5 574,-278.5 420,-278.5"/>
<text text-anchor="middle" x="497" y="-285.5" font-family="Helvetica,sans-Serif" font-size="10.00">XMLNode::guessCharEncoding</text>
</a>
</g>
</g>
<!-- Node4&#45;&gt;Node20 -->
<g id="edge23" class="edge"><title>Node4&#45;&gt;Node20</title>
<path fill="none" stroke="midnightblue" d="M375.814,-261.753C400.418,-267.126 429.187,-273.409 452.408,-278.48"/>
<polygon fill="midnightblue" stroke="midnightblue" points="376.424,-258.303 365.908,-259.589 374.93,-265.142 376.424,-258.303"/>
</g>
<!-- Node21 -->
<g id="node21" class="node"><title>Node21</title>
<g id="a_node21"><a xlink:href="struct_x_m_l_node.xhtml#a5e5968e052d58350918cd91e3535624b" target="_top" xlink:title="XMLNode::parseFile">
<polygon fill="white" stroke="black" points="444,-202.5 444,-221.5 550,-221.5 550,-202.5 444,-202.5"/>
<text text-anchor="middle" x="497" y="-209.5" font-family="Helvetica,sans-Serif" font-size="10.00">XMLNode::parseFile</text>
</a>
</g>
</g>
<!-- Node4&#45;&gt;Node21 -->
<g id="edge28" class="edge"><title>Node4&#45;&gt;Node21</title>
<path fill="none" stroke="midnightblue" d="M375.814,-238.247C400.418,-232.874 429.187,-226.591 452.408,-221.52"/>
<polygon fill="midnightblue" stroke="midnightblue" points="374.93,-234.858 365.908,-240.411 376.424,-241.697 374.93,-234.858"/>
</g>
<!-- Node8 -->
<g id="node8" class="node"><title>Node8</title>
<g id="a_node8"><a xlink:href="struct_x_m_l_node.xhtml#acc044148e2b9b8264a320b7b6e398158" target="_top" xlink:title="XMLNode::openFileHelper">
<polygon fill="white" stroke="black" points="610.5,-202.5 610.5,-221.5 741.5,-221.5 741.5,-202.5 610.5,-202.5"/>
<text text-anchor="middle" x="676" y="-209.5" font-family="Helvetica,sans-Serif" font-size="10.00">XMLNode::openFileHelper</text>
</a>
</g>
</g>
<!-- Node7&#45;&gt;Node8 -->
<g id="edge7" class="edge"><title>Node7&#45;&gt;Node8</title>
<path fill="none" stroke="midnightblue" d="M557.405,-314.33C563.169,-312.263 568.8,-309.84 574,-307 615.198,-284.5 652.235,-241.157 667.547,-221.779"/>
<polygon fill="midnightblue" stroke="midnightblue" points="556.073,-311.082 547.63,-317.482 558.221,-317.744 556.073,-311.082"/>
</g>
<!-- Node16 -->
<g id="node16" class="node"><title>Node16</title>
<g id="a_node16"><a xlink:href="_p_d_a_q_2_core_2_source_2xml_parser_8cpp.xhtml#af77e3e2685487b9c492b20c36f3b864a" target="_top" xlink:title="_strnicmp">
<polygon fill="white" stroke="black" points="827.5,-354.5 827.5,-373.5 886.5,-373.5 886.5,-354.5 827.5,-354.5"/>
<text text-anchor="middle" x="857" y="-361.5" font-family="Helvetica,sans-Serif" font-size="10.00">_strnicmp</text>
</a>
</g>
</g>
<!-- Node7&#45;&gt;Node16 -->
<g id="edge22" class="edge"><title>Node7&#45;&gt;Node16</title>
<path fill="none" stroke="midnightblue" d="M521.819,-340.797C543.78,-353.51 577.762,-370.881 610,-378 687.068,-395.018 780.825,-380.235 827.186,-370.649"/>
<polygon fill="midnightblue" stroke="midnightblue" points="523.57,-337.766 513.183,-335.677 520,-343.787 523.57,-337.766"/>
</g>
<!-- Node9 -->
<g id="node9" class="node"><title>Node9</title>
<g id="a_node9"><a xlink:href="class_a_d_c_manager1720.xhtml#aae342ccd8bf1c253c455e195bfd82dfe" target="_top" xlink:title="ADCManager1720::Init">
<polygon fill="white" stroke="black" points="799,-240.5 799,-259.5 915,-259.5 915,-240.5 799,-240.5"/>
<text text-anchor="middle" x="857" y="-247.5" font-family="Helvetica,sans-Serif" font-size="10.00">ADCManager1720::Init</text>
</a>
</g>
</g>
<!-- Node8&#45;&gt;Node9 -->
<g id="edge8" class="edge"><title>Node8&#45;&gt;Node9</title>
<path fill="none" stroke="midnightblue" d="M732.024,-223.681C757.408,-229.07 787.161,-235.386 811.156,-240.48"/>
<polygon fill="midnightblue" stroke="midnightblue" points="732.678,-220.242 722.169,-221.589 731.224,-227.089 732.678,-220.242"/>
</g>
<!-- Node10 -->
<g id="node10" class="node"><title>Node10</title>
<g id="a_node10"><a xlink:href="class_a_d_c_manager1724.xhtml#a6de2521b9c793edcf14aeaeefeb62787" target="_top" xlink:title="ADCManager1724::Init">
<polygon fill="white" stroke="black" points="799,-202.5 799,-221.5 915,-221.5 915,-202.5 799,-202.5"/>
<text text-anchor="middle" x="857" y="-209.5" font-family="Helvetica,sans-Serif" font-size="10.00">ADCManager1724::Init</text>
</a>
</g>
</g>
<!-- Node8&#45;&gt;Node10 -->
<g id="edge9" class="edge"><title>Node8&#45;&gt;Node10</title>
<path fill="none" stroke="midnightblue" d="M751.85,-212C767.58,-212 783.93,-212 798.887,-212"/>
<polygon fill="midnightblue" stroke="midnightblue" points="751.623,-208.5 741.623,-212 751.623,-215.5 751.623,-208.5"/>
</g>
<!-- Node11 -->
<g id="node11" class="node"><title>Node11</title>
<g id="a_node11"><a xlink:href="class_a_d_c_manager1730.xhtml#adb6d45f2024f4a52d366a88d1c7f229d" target="_top" xlink:title="ADCManager1730::Init">
<polygon fill="white" stroke="black" points="799,-164.5 799,-183.5 915,-183.5 915,-164.5 799,-164.5"/>
<text text-anchor="middle" x="857" y="-171.5" font-family="Helvetica,sans-Serif" font-size="10.00">ADCManager1730::Init</text>
</a>
</g>
</g>
<!-- Node8&#45;&gt;Node11 -->
<g id="edge10" class="edge"><title>Node8&#45;&gt;Node11</title>
<path fill="none" stroke="midnightblue" d="M732.024,-200.319C757.408,-194.93 787.161,-188.614 811.156,-183.52"/>
<polygon fill="midnightblue" stroke="midnightblue" points="731.224,-196.911 722.169,-202.411 732.678,-203.758 731.224,-196.911"/>
</g>
<!-- Node12 -->
<g id="node12" class="node"><title>Node12</title>
<g id="a_node12"><a xlink:href="class_scope_manager.xhtml#abe246d1b817d85a9cba7af3441a4df04" target="_top" xlink:title="ScopeManager::ShowEvent">
<polygon fill="white" stroke="black" points="788,-0.5 788,-19.5 926,-19.5 926,-0.5 788,-0.5"/>
<text text-anchor="middle" x="857" y="-7.5" font-family="Helvetica,sans-Serif" font-size="10.00">ScopeManager::ShowEvent</text>
</a>
</g>
</g>
<!-- Node8&#45;&gt;Node12 -->
<g id="edge11" class="edge"><title>Node8&#45;&gt;Node12</title>
<path fill="none" stroke="midnightblue" d="M738.029,-196.72C739.43,-195.567 740.759,-194.329 742,-193 792.935,-138.462 725.839,-82.3668 778,-29 781.702,-25.2124 786.024,-22.1306 790.699,-19.6285"/>
<polygon fill="midnightblue" stroke="midnightblue" points="735.761,-194.022 729.321,-202.435 739.602,-199.874 735.761,-194.022"/>
</g>
<!-- Node14 -->
<g id="node14" class="node"><title>Node14</title>
<g id="a_node14"><a xlink:href="class_slowcontrol_manager.xhtml#a36ab5157f5a740b9058517b77d1ce38f" target="_top" xlink:title="SlowcontrolManager\l::ShowStatus">
<polygon fill="white" stroke="black" points="804.5,-77 804.5,-107 909.5,-107 909.5,-77 804.5,-77"/>
<text text-anchor="start" x="812.5" y="-95" font-family="Helvetica,sans-Serif" font-size="10.00">SlowcontrolManager</text>
<text text-anchor="middle" x="857" y="-84" font-family="Helvetica,sans-Serif" font-size="10.00">::ShowStatus</text>
</a>
</g>
</g>
<!-- Node8&#45;&gt;Node14 -->
<g id="edge13" class="edge"><title>Node8&#45;&gt;Node14</title>
<path fill="none" stroke="midnightblue" d="M735.616,-197.664C737.863,-196.253 740.004,-194.703 742,-193 770.432,-168.739 749.883,-141.625 778,-117 785.488,-110.442 794.713,-105.601 804.165,-102.028"/>
<polygon fill="midnightblue" stroke="midnightblue" points="733.737,-194.698 726.514,-202.449 736.994,-200.894 733.737,-194.698"/>
</g>
<!-- Node15 -->
<g id="node15" class="node"><title>Node15</title>
<g id="a_node15"><a xlink:href="class_storage_manager.xhtml#ab16a945d003852d02556daf3610a9aac" target="_top" xlink:title="StorageManager::SaveContainer">
<polygon fill="white" stroke="black" points="778,-38.5 778,-57.5 936,-57.5 936,-38.5 778,-38.5"/>
<text text-anchor="middle" x="857" y="-45.5" font-family="Helvetica,sans-Serif" font-size="10.00">StorageManager::SaveContainer</text>
</a>
</g>
</g>
<!-- Node8&#45;&gt;Node15 -->
<g id="edge15" class="edge"><title>Node8&#45;&gt;Node15</title>
<path fill="none" stroke="midnightblue" d="M737.424,-197C739.038,-195.769 740.57,-194.438 742,-193 783.057,-151.692 736.015,-107.364 778,-67 782.019,-63.1362 786.686,-60.016 791.701,-57.5013"/>
<polygon fill="midnightblue" stroke="midnightblue" points="735.422,-194.124 728.762,-202.363 739.106,-200.075 735.422,-194.124"/>
</g>
<!-- Node8&#45;&gt;Node16 -->
<g id="edge17" class="edge"><title>Node8&#45;&gt;Node16</title>
<path fill="none" stroke="midnightblue" d="M695.829,-227.989C733.029,-259.577 814.926,-329.122 844.807,-354.495"/>
<polygon fill="midnightblue" stroke="midnightblue" points="698.085,-225.313 688.197,-221.508 693.554,-230.649 698.085,-225.313"/>
</g>
<!-- Node18 -->
<g id="node18" class="node"><title>Node18</title>
<g id="a_node18"><a xlink:href="_p_d_a_q_2_core_2_source_2xml_8cpp.xhtml#a8251b051736c5146c1985edc6cb357e6" target="_top" xlink:title="xml_readsettings">
<polygon fill="white" stroke="black" points="811.5,-126.5 811.5,-145.5 902.5,-145.5 902.5,-126.5 811.5,-126.5"/>
<text text-anchor="middle" x="857" y="-133.5" font-family="Helvetica,sans-Serif" font-size="10.00">xml_readsettings</text>
</a>
</g>
</g>
<!-- Node8&#45;&gt;Node18 -->
<g id="edge20" class="edge"><title>Node8&#45;&gt;Node18</title>
<path fill="none" stroke="midnightblue" d="M730.691,-198.828C734.628,-197.107 738.445,-195.172 742,-193 761.853,-180.872 757.877,-166.674 778,-155 788.127,-149.125 800.006,-145.06 811.397,-142.249"/>
<polygon fill="midnightblue" stroke="midnightblue" points="729.396,-195.576 721.35,-202.47 731.939,-202.098 729.396,-195.576"/>
</g>
<!-- Node13 -->
<g id="node13" class="node"><title>Node13</title>
<g id="a_node13"><a xlink:href="_multi_d_a_q_8cpp.xhtml#adedb285b02c41bde2158ded9cc9fd7ac" target="_top" xlink:title="main">
<polygon fill="white" stroke="black" points="1004,-38.5 1004,-57.5 1042,-57.5 1042,-38.5 1004,-38.5"/>
<text text-anchor="middle" x="1023" y="-45.5" font-family="Helvetica,sans-Serif" font-size="10.00">main</text>
</a>
</g>
</g>
<!-- Node12&#45;&gt;Node13 -->
<g id="edge12" class="edge"><title>Node12&#45;&gt;Node13</title>
<path fill="none" stroke="midnightblue" d="M909.543,-21.9428C941.714,-29.3972 981.177,-38.5411 1003.77,-43.7767"/>
<polygon fill="midnightblue" stroke="midnightblue" points="909.916,-18.4367 899.384,-19.589 908.336,-25.256 909.916,-18.4367"/>
</g>
<!-- Node14&#45;&gt;Node13 -->
<g id="edge14" class="edge"><title>Node14&#45;&gt;Node13</title>
<path fill="none" stroke="midnightblue" d="M919.865,-75.402C949.783,-67.3754 983.511,-58.3262 1003.74,-52.8981"/>
<polygon fill="midnightblue" stroke="midnightblue" points="918.642,-72.1063 909.891,-78.0781 920.456,-78.8672 918.642,-72.1063"/>
</g>
<!-- Node15&#45;&gt;Node13 -->
<g id="edge16" class="edge"><title>Node15&#45;&gt;Node13</title>
<path fill="none" stroke="midnightblue" d="M946.219,-48C968.077,-48 989.341,-48 1003.75,-48"/>
<polygon fill="midnightblue" stroke="midnightblue" points="946.158,-44.5001 936.158,-48 946.157,-51.5001 946.158,-44.5001"/>
</g>
<!-- Node16&#45;&gt;Node5 -->
<g id="edge19" class="edge"><title>Node16&#45;&gt;Node5</title>
<path fill="none" stroke="midnightblue" d="M896.605,-355.055C924.068,-348.692 960.653,-340.215 987.214,-334.06"/>
<polygon fill="midnightblue" stroke="midnightblue" points="895.518,-351.714 886.567,-357.381 897.099,-358.533 895.518,-351.714"/>
</g>
<!-- Node16&#45;&gt;Node17 -->
<g id="edge18" class="edge"><title>Node16&#45;&gt;Node17</title>
<path fill="none" stroke="midnightblue" d="M896.557,-372.934C921.893,-378.805 955.01,-386.478 980.854,-392.466"/>
<polygon fill="midnightblue" stroke="midnightblue" points="897.099,-369.467 886.567,-370.619 895.518,-376.286 897.099,-369.467"/>
</g>
<!-- Node19 -->
<g id="node19" class="node"><title>Node19</title>
<g id="a_node19"><a xlink:href="_z_d_a_q_8cpp.xhtml#a0ddf1224851353fc92bfbff6f499fa97" target="_top" xlink:title="main">
<polygon fill="white" stroke="black" points="1004,-126.5 1004,-145.5 1042,-145.5 1042,-126.5 1004,-126.5"/>
<text text-anchor="middle" x="1023" y="-133.5" font-family="Helvetica,sans-Serif" font-size="10.00">main</text>
</a>
</g>
</g>
<!-- Node18&#45;&gt;Node19 -->
<g id="edge21" class="edge"><title>Node18&#45;&gt;Node19</title>
<path fill="none" stroke="midnightblue" d="M913.216,-136C944.646,-136 981.974,-136 1003.72,-136"/>
<polygon fill="midnightblue" stroke="midnightblue" points="912.814,-132.5 902.814,-136 912.814,-139.5 912.814,-132.5"/>
</g>
<!-- Node20&#45;&gt;Node5 -->
<g id="edge26" class="edge"><title>Node20&#45;&gt;Node5</title>
<path fill="none" stroke="midnightblue" d="M584.23,-294.253C701.619,-302.766 906.383,-317.616 987.493,-323.498"/>
<polygon fill="midnightblue" stroke="midnightblue" points="584.421,-290.758 574.194,-293.526 583.915,-297.74 584.421,-290.758"/>
</g>
<!-- Node20&#45;&gt;Node8 -->
<g id="edge24" class="edge"><title>Node20&#45;&gt;Node8</title>
<path fill="none" stroke="midnightblue" d="M529.828,-274.334C565.302,-259.102 621.743,-234.867 652.765,-221.547"/>
<polygon fill="midnightblue" stroke="midnightblue" points="528.225,-271.213 520.417,-278.375 530.987,-277.645 528.225,-271.213"/>
</g>
<!-- Node20&#45;&gt;Node16 -->
<g id="edge25" class="edge"><title>Node20&#45;&gt;Node16</title>
<path fill="none" stroke="midnightblue" d="M560.508,-300.896C565.182,-302.681 569.733,-304.705 574,-307 593.116,-317.281 590.178,-331.157 610,-340 682.891,-372.516 779.724,-370.452 827.23,-366.892"/>
<polygon fill="midnightblue" stroke="midnightblue" points="561.389,-297.498 550.794,-297.561 559.115,-304.119 561.389,-297.498"/>
</g>
<!-- Node21&#45;&gt;Node6 -->
<g id="edge31" class="edge"><title>Node21&#45;&gt;Node6</title>
<path fill="none" stroke="midnightblue" d="M552.742,-200.247C577.77,-194.874 607.035,-188.591 630.657,-183.52"/>
<polygon fill="midnightblue" stroke="midnightblue" points="551.707,-196.89 542.665,-202.411 553.176,-203.734 551.707,-196.89"/>
</g>
<!-- Node21&#45;&gt;Node8 -->
<g id="edge29" class="edge"><title>Node21&#45;&gt;Node8</title>
<path fill="none" stroke="midnightblue" d="M560.551,-212C576.696,-212 594.106,-212 610.355,-212"/>
<polygon fill="midnightblue" stroke="midnightblue" points="560.149,-208.5 550.149,-212 560.148,-215.5 560.149,-208.5"/>
</g>
<!-- Node21&#45;&gt;Node16 -->
<g id="edge30" class="edge"><title>Node21&#45;&gt;Node16</title>
<path fill="none" stroke="midnightblue" d="M529.766,-225.487C601.033,-255.746 772.22,-328.429 833.614,-354.495"/>
<polygon fill="midnightblue" stroke="midnightblue" points="530.967,-222.195 520.395,-221.508 528.231,-228.638 530.967,-222.195"/>
</g>
<!-- Node22&#45;&gt;Node3 -->
<g id="edge33" class="edge"><title>Node22&#45;&gt;Node3</title>
<path fill="none" stroke="midnightblue" d="M212.303,-294.211C237.804,-297.239 267.588,-300.776 289.363,-303.362"/>
<polygon fill="midnightblue" stroke="midnightblue" points="212.381,-290.696 202.038,-292.992 211.556,-297.647 212.381,-290.696"/>
</g>
<!-- Node23&#45;&gt;Node4 -->
<g id="edge36" class="edge"><title>Node23&#45;&gt;Node4</title>
<path fill="none" stroke="midnightblue" d="M210.392,-223.968C232.813,-229.293 258.847,-235.476 279.916,-240.48"/>
<polygon fill="midnightblue" stroke="midnightblue" points="210.913,-220.495 200.375,-221.589 209.295,-227.305 210.913,-220.495"/>
</g>
<!-- Node23&#45;&gt;Node6 -->
<g id="edge35" class="edge"><title>Node23&#45;&gt;Node6</title>
<path fill="none" stroke="midnightblue" d="M179.829,-196.198C198.682,-182.26 228.47,-162.963 258,-155 393.045,-118.583 561.48,-147.875 636.202,-164.498"/>
<polygon fill="midnightblue" stroke="midnightblue" points="177.58,-193.511 171.739,-202.351 181.817,-199.083 177.58,-193.511"/>
</g>
<!-- Node23&#45;&gt;Node21 -->
<g id="edge38" class="edge"><title>Node23&#45;&gt;Node21</title>
<path fill="none" stroke="midnightblue" d="M232.391,-212C296.085,-212 387.265,-212 443.986,-212"/>
<polygon fill="midnightblue" stroke="midnightblue" points="232.019,-208.5 222.019,-212 232.019,-215.5 232.019,-208.5"/>
</g>
<!-- Node24 -->
<g id="node24" class="node"><title>Node24</title>
<g id="a_node24"><a xlink:href="_p_d_a_q_2_core_2_source_2xml_parser_8cpp.xhtml#ad7ec02a171e7641c1d364d5d367199a3" target="_top" xlink:title="myWideCharToMultiByte">
<polygon fill="white" stroke="black" points="258,-164.5 258,-183.5 384,-183.5 384,-164.5 258,-164.5"/>
<text text-anchor="middle" x="321" y="-171.5" font-family="Helvetica,sans-Serif" font-size="10.00">myWideCharToMultiByte</text>
</a>
</g>
</g>
<!-- Node23&#45;&gt;Node24 -->
<g id="edge37" class="edge"><title>Node23&#45;&gt;Node24</title>
<path fill="none" stroke="midnightblue" d="M210.392,-200.032C232.813,-194.707 258.847,-188.524 279.916,-183.52"/>
<polygon fill="midnightblue" stroke="midnightblue" points="209.295,-196.695 200.375,-202.411 210.913,-203.505 209.295,-196.695"/>
</g>
</g>
</svg>
        <g id="navigator" transform="translate(0 0)" fill="#404254">
                <rect fill="#f2f5e9" fill-opacity="0.5" stroke="#606060" stroke-width=".5" x="0" y="0" width="60" height="60"/>
                <use id="zoomplus" xlink:href="#zoomPlus" x="17" y="9" onmousedown="handleZoom(evt,'in')"/>
                <use id="zoomminus" xlink:href="#zoomMin" x="42" y="9" onmousedown="handleZoom(evt,'out')"/>
                <use id="reset" xlink:href="#resetDef" x="30" y="36" onmousedown="handleReset()"/>
                <g id="arrowUp" xlink:href="#dirArrow" transform="translate(30 24)" onmousedown="handlePan(0,-1)">
                  <use xlink:href="#rim" fill="#404040">
                        <set attributeName="fill" to="#808080" begin="arrowUp.mouseover" end="arrowUp.mouseout"/>
                  </use>
                  <path fill="none" stroke="white" stroke-width="1.5" d="M0,-3.0v7 M-2.5,-0.5L0,-3.0L2.5,-0.5"/>
                </g>
                <g id="arrowRight" xlink:href="#dirArrow" transform="rotate(90) translate(36 -43)" onmousedown="handlePan(1,0)">
                  <use xlink:href="#rim" fill="#404040">
                        <set attributeName="fill" to="#808080" begin="arrowRight.mouseover" end="arrowRight.mouseout"/>
                  </use>
                  <path fill="none" stroke="white" stroke-width="1.5" d="M0,-3.0v7 M-2.5,-0.5L0,-3.0L2.5,-0.5"/>
                </g>
                <g id="arrowDown" xlink:href="#dirArrow" transform="rotate(180) translate(-30 -48)" onmousedown="handlePan(0,1)">
                  <use xlink:href="#rim" fill="#404040">
                        <set attributeName="fill" to="#808080" begin="arrowDown.mouseover" end="arrowDown.mouseout"/>
                  </use>
                  <path fill="none" stroke="white" stroke-width="1.5" d="M0,-3.0v7 M-2.5,-0.5L0,-3.0L2.5,-0.5"/>
                </g>
                <g id="arrowLeft" xlink:href="#dirArrow" transform="rotate(270) translate(-36 17)" onmousedown="handlePan(-1,0)">
                  <use xlink:href="#rim" fill="#404040">
                        <set attributeName="fill" to="#808080" begin="arrowLeft.mouseover" end="arrowLeft.mouseout"/>
                  </use>
                  <path fill="none" stroke="white" stroke-width="1.5" d="M0,-3.0v7 M-2.5,-0.5L0,-3.0L2.5,-0.5"/>
                </g>
        </g>
        <svg viewBox="0 0 15 15" width="100%" height="30px" preserveAspectRatio="xMaxYMin meet">
         <g id="arrow_out" transform="scale(0.3 0.3)">
          <a xlink:href="_c_d_a_q_2_plugins_2_source_2xml_parser_8cpp_a17c9570640aed10b61deec9047cb0940_icgraph_org.svg" target="_base">
           <rect id="button" ry="5" rx="5" y="6" x="6" height="38" width="38"
                fill="#f2f5e9" fill-opacity="0.5" stroke="#606060" stroke-width="1.0"/>
           <path id="arrow"
             d="M 11.500037,31.436501 C 11.940474,20.09759 22.043105,11.32322 32.158766,21.979434 L 37.068811,17.246167 C 37.068811,17.246167 37.088388,32 37.088388,32 L 22.160133,31.978069 C 22.160133,31.978069 26.997745,27.140456 26.997745,27.140456 C 18.528582,18.264221 13.291696,25.230495 11.500037,31.436501 z"
             style="fill:#404040;"/>
          </a>
         </g>
        </svg>
</svg>
