<?xml version="1.0" encoding="UTF-8" standalone="no"?>
<!DOCTYPE svg PUBLIC "-//W3C//DTD SVG 1.1//EN"
 "http://www.w3.org/Graphics/SVG/1.1/DTD/svg11.dtd">
<!-- Generated by graphviz version 2.36.0 (20140111.2315)
 -->
<!-- Title: myWideCharToMultiByte Pages: 1 -->
<svg width="230pt" height="256pt"
 viewBox="0.00 0.00 230.00 256.00" xmlns="http://www.w3.org/2000/svg" xmlns:xlink="http://www.w3.org/1999/xlink">
<g id="graph0" class="graph" transform="scale(1 1) rotate(0) translate(4 252)">
<title>myWideCharToMultiByte</title>
<polygon fill="white" stroke="none" points="-4,4 -4,-252 226,-252 226,4 -4,4"/>
<!-- Node1 -->
<g id="node1" class="node"><title>Node1</title>
<polygon fill="#bfbfbf" stroke="black" points="0,-114.5 0,-133.5 126,-133.5 126,-114.5 0,-114.5"/>
<text text-anchor="middle" x="63" y="-121.5" font-family="Helvetica,sans-Serif" font-size="10.00">myWideCharToMultiByte</text>
</g>
<!-- Node2 -->
<g id="node2" class="node"><title>Node2</title>
<g id="a_node2"><a xlink:href="_c_d_a_q_2_plugins_2_source_2xml_parser_8cpp.xhtml#a8dd6e6cada28ea03e5cacd075b1be7f6" target="_top" xlink:title="xfopen">
<polygon fill="white" stroke="black" points="169,-228.5 169,-247.5 215,-247.5 215,-228.5 169,-228.5"/>
<text text-anchor="middle" x="192" y="-235.5" font-family="Helvetica,sans-Serif" font-size="10.00">xfopen</text>
</a>
</g>
</g>
<!-- Node1&#45;&gt;Node2 -->
<g id="edge1" class="edge"><title>Node1&#45;&gt;Node2</title>
<path fill="none" stroke="midnightblue" d="M72.6523,-133.514C89.1145,-151.349 126.479,-190.572 162,-219 163.551,-220.241 165.184,-221.478 166.852,-222.691"/>
<polygon fill="midnightblue" stroke="midnightblue" points="165.042,-225.694 175.267,-228.468 169.004,-219.923 165.042,-225.694"/>
</g>
<!-- Node3 -->
<g id="node3" class="node"><title>Node3</title>
<g id="a_node3"><a xlink:href="_c_d_a_q_2_plugins_2_source_2xml_parser_8cpp.xhtml#a73c2349b2f386ee50130a3961bd2dbab" target="_top" xlink:title="xstrcpy">
<polygon fill="white" stroke="black" points="167.5,-190.5 167.5,-209.5 216.5,-209.5 216.5,-190.5 167.5,-190.5"/>
<text text-anchor="middle" x="192" y="-197.5" font-family="Helvetica,sans-Serif" font-size="10.00">xstrcpy</text>
</a>
</g>
</g>
<!-- Node1&#45;&gt;Node3 -->
<g id="edge2" class="edge"><title>Node1&#45;&gt;Node3</title>
<path fill="none" stroke="midnightblue" d="M80.0846,-133.625C101.842,-146.645 140.853,-169.991 166.329,-185.236"/>
<polygon fill="midnightblue" stroke="midnightblue" points="164.668,-188.321 175.046,-190.453 168.262,-182.314 164.668,-188.321"/>
</g>
<!-- Node4 -->
<g id="node4" class="node"><title>Node4</title>
<g id="a_node4"><a xlink:href="_c_d_a_q_2_plugins_2_source_2xml_parser_8cpp.xhtml#a2e64ea95685df2d289c31a50419b532d" target="_top" xlink:title="xstricmp">
<polygon fill="white" stroke="black" points="165,-152.5 165,-171.5 219,-171.5 219,-152.5 165,-152.5"/>
<text text-anchor="middle" x="192" y="-159.5" font-family="Helvetica,sans-Serif" font-size="10.00">xstricmp</text>
</a>
</g>
</g>
<!-- Node1&#45;&gt;Node4 -->
<g id="edge3" class="edge"><title>Node1&#45;&gt;Node4</title>
<path fill="none" stroke="midnightblue" d="M96.0475,-133.589C114.111,-138.994 136.717,-145.758 155.34,-151.33"/>
<polygon fill="midnightblue" stroke="midnightblue" points="154.362,-154.691 164.945,-154.204 156.368,-147.984 154.362,-154.691"/>
</g>
<!-- Node5 -->
<g id="node5" class="node"><title>Node5</title>
<g id="a_node5"><a xlink:href="_c_d_a_q_2_plugins_2_source_2xml_parser_8cpp.xhtml#a49fa66f65d2d28ce7b7e0b1752425915" target="_top" xlink:title="xstrlen">
<polygon fill="white" stroke="black" points="169,-114.5 169,-133.5 215,-133.5 215,-114.5 169,-114.5"/>
<text text-anchor="middle" x="192" y="-121.5" font-family="Helvetica,sans-Serif" font-size="10.00">xstrlen</text>
</a>
</g>
</g>
<!-- Node1&#45;&gt;Node5 -->
<g id="edge4" class="edge"><title>Node1&#45;&gt;Node5</title>
<path fill="none" stroke="midnightblue" d="M126.012,-124C137.294,-124 148.64,-124 158.622,-124"/>
<polygon fill="midnightblue" stroke="midnightblue" points="158.851,-127.5 168.851,-124 158.851,-120.5 158.851,-127.5"/>
</g>
<!-- Node6 -->
<g id="node6" class="node"><title>Node6</title>
<g id="a_node6"><a xlink:href="_c_d_a_q_2_plugins_2_source_2xml_parser_8cpp.xhtml#a3165858f70cd74ffab31ebc2ddc9e104" target="_top" xlink:title="xstrncmp">
<polygon fill="white" stroke="black" points="163.5,-76.5 163.5,-95.5 220.5,-95.5 220.5,-76.5 163.5,-76.5"/>
<text text-anchor="middle" x="192" y="-83.5" font-family="Helvetica,sans-Serif" font-size="10.00">xstrncmp</text>
</a>
</g>
</g>
<!-- Node1&#45;&gt;Node6 -->
<g id="edge5" class="edge"><title>Node1&#45;&gt;Node6</title>
<path fill="none" stroke="midnightblue" d="M96.0475,-114.411C113.532,-109.18 135.272,-102.675 153.536,-97.2096"/>
<polygon fill="midnightblue" stroke="midnightblue" points="154.699,-100.515 163.276,-94.2952 152.693,-93.8087 154.699,-100.515"/>
</g>
<!-- Node7 -->
<g id="node7" class="node"><title>Node7</title>
<g id="a_node7"><a xlink:href="_c_d_a_q_2_plugins_2_source_2xml_parser_8cpp.xhtml#a17c9570640aed10b61deec9047cb0940" target="_top" xlink:title="xstrnicmp">
<polygon fill="white" stroke="black" points="162.5,-38.5 162.5,-57.5 221.5,-57.5 221.5,-38.5 162.5,-38.5"/>
<text text-anchor="middle" x="192" y="-45.5" font-family="Helvetica,sans-Serif" font-size="10.00">xstrnicmp</text>
</a>
</g>
</g>
<!-- Node1&#45;&gt;Node7 -->
<g id="edge6" class="edge"><title>Node1&#45;&gt;Node7</title>
<path fill="none" stroke="midnightblue" d="M80.0846,-114.375C101.842,-101.355 140.853,-78.0093 166.329,-62.7636"/>
<polygon fill="midnightblue" stroke="midnightblue" points="168.262,-65.6857 175.046,-57.5473 164.668,-59.679 168.262,-65.6857"/>
</g>
<!-- Node8 -->
<g id="node8" class="node"><title>Node8</title>
<g id="a_node8"><a xlink:href="_c_d_a_q_2_plugins_2_source_2xml_parser_8cpp.xhtml#a696ca59a310359980c57de039f137697" target="_top" xlink:title="xstrstr">
<polygon fill="white" stroke="black" points="170,-0.5 170,-19.5 214,-19.5 214,-0.5 170,-0.5"/>
<text text-anchor="middle" x="192" y="-7.5" font-family="Helvetica,sans-Serif" font-size="10.00">xstrstr</text>
</a>
</g>
</g>
<!-- Node1&#45;&gt;Node8 -->
<g id="edge7" class="edge"><title>Node1&#45;&gt;Node8</title>
<path fill="none" stroke="midnightblue" d="M72.6523,-114.486C89.1145,-96.6514 126.479,-57.4278 162,-29 163.551,-27.7589 165.184,-26.522 166.852,-25.3089"/>
<polygon fill="midnightblue" stroke="midnightblue" points="169.004,-28.0771 175.267,-19.5321 165.042,-22.3059 169.004,-28.0771"/>
</g>
</g>
</svg>
