<?xml version="1.0" encoding="UTF-8" standalone="no"?>
<!DOCTYPE svg PUBLIC "-//W3C//DTD SVG 1.1//EN"
 "http://www.w3.org/Graphics/SVG/1.1/DTD/svg11.dtd">
<!-- Generated by graphviz version 2.36.0 (20140111.2315)
 -->
<!-- Title: getNextChar Pages: 1 -->
<!--zoomable 325 -->
<svg id="main" version="1.1" xmlns="http://www.w3.org/2000/svg" xmlns:xlink="http://www.w3.org/1999/xlink" xml:space="preserve" onload="init(evt)">
<style type="text/css"><![CDATA[
.edge:hover path { stroke: red; }
.edge:hover polygon { stroke: red; fill: red; }
]]></style>
<script type="text/javascript"><![CDATA[
var edges = document.getElementsByTagName('g');
if (edges && edges.length) {
  for (var i=0;i<edges.length;i++) {
    if (edges[i].id.substr(0,4)=='edge') {
      edges[i].setAttribute('class','edge');
    }
  }
}
]]></script>
        <defs>
                <circle id="rim" cx="0" cy="0" r="7"/>
                <circle id="rim2" cx="0" cy="0" r="3.5"/>
                <g id="zoomPlus">
                        <use xlink:href="#rim" fill="#404040">
                                <set attributeName="fill" to="#808080" begin="zoomplus.mouseover" end="zoomplus.mouseout"/>
                        </use>
                        <path d="M-4,0h8M0,-4v8" fill="none" stroke="white" stroke-width="1.5" pointer-events="none"/>
                </g>
                <g id="zoomMin">
                        <use xlink:href="#rim" fill="#404040">
                                <set attributeName="fill" to="#808080" begin="zoomminus.mouseover" end="zoomminus.mouseout"/>
                        </use>
                        <path d="M-4,0h8" fill="none" stroke="white" stroke-width="1.5" pointer-events="none"/>
                </g>
                <g id="dirArrow">
                        <path fill="none" stroke="white" stroke-width="1.5" d="M0,-3.0v7 M-2.5,-0.5L0,-3.0L2.5,-0.5"/>
                </g>
               <g id="resetDef">
                       <use xlink:href="#rim2" fill="#404040">
                               <set attributeName="fill" to="#808080" begin="reset.mouseover" end="reset.mouseout"/>
                       </use>
               </g>
        </defs>

<script type="text/javascript">
var viewWidth = 1032;
var viewHeight = 325;
var sectionId = 'dynsection-7';
</script>
<script xlink:href="svgpan.js"/>
<svg id="graph" class="graph">
<g id="viewport">
<title>getNextChar</title>
<polygon fill="white" stroke="none" points="-4,4 -4,-321 1028,-321 1028,4 -4,4"/>
<!-- Node1 -->
<g id="node1" class="node"><title>Node1</title>
<polygon fill="#bfbfbf" stroke="black" points="0,-126.5 0,-145.5 72,-145.5 72,-126.5 0,-126.5"/>
<text text-anchor="middle" x="36" y="-133.5" font-family="Helvetica,sans-Serif" font-size="10.00">getNextChar</text>
</g>
<!-- Node2 -->
<g id="node2" class="node"><title>Node2</title>
<g id="a_node2"><a xlink:href="_c_d_a_q_2_plugins_2_source_2xml_parser_8cpp.xhtml#ae6aa5a367ab3cc92b47fd92f81add72a" target="_top" xlink:title="CountLinesAndColumns">
<polygon fill="white" stroke="black" points="108,-145.5 108,-164.5 230,-164.5 230,-145.5 108,-145.5"/>
<text text-anchor="middle" x="169" y="-152.5" font-family="Helvetica,sans-Serif" font-size="10.00">CountLinesAndColumns</text>
</a>
</g>
</g>
<!-- Node1&#45;&gt;Node2 -->
<g id="edge1" class="edge"><title>Node1&#45;&gt;Node2</title>
<path fill="none" stroke="midnightblue" d="M82.236,-142.561C90.4691,-143.755 99.176,-145.018 107.762,-146.263"/>
<polygon fill="midnightblue" stroke="midnightblue" points="82.5045,-139.063 72.1056,-141.092 81.4996,-145.991 82.5045,-139.063"/>
</g>
<!-- Node19 -->
<g id="node19" class="node"><title>Node19</title>
<g id="a_node19"><a xlink:href="_c_d_a_q_2_plugins_2_source_2xml_parser_8cpp.xhtml#acf103e2756ced6c7d3f14f38f198c920" target="_top" xlink:title="GetNextToken">
<polygon fill="white" stroke="black" points="129,-107.5 129,-126.5 209,-126.5 209,-107.5 129,-107.5"/>
<text text-anchor="middle" x="169" y="-114.5" font-family="Helvetica,sans-Serif" font-size="10.00">GetNextToken</text>
</a>
</g>
</g>
<!-- Node1&#45;&gt;Node19 -->
<g id="edge22" class="edge"><title>Node1&#45;&gt;Node19</title>
<path fill="none" stroke="midnightblue" d="M82.2549,-129.436C97.3471,-127.247 114.03,-124.828 128.637,-122.709"/>
<polygon fill="midnightblue" stroke="midnightblue" points="81.4996,-126.009 72.1056,-130.908 82.5045,-132.937 81.4996,-126.009"/>
</g>
<!-- Node3 -->
<g id="node3" class="node"><title>Node3</title>
<g id="a_node3"><a xlink:href="struct_x_m_l_node.xhtml#acb95f4f00e4cf3756aac0e3a53765248" target="_top" xlink:title="XMLNode::parseString">
<polygon fill="white" stroke="black" points="266,-145.5 266,-164.5 382,-164.5 382,-145.5 266,-145.5"/>
<text text-anchor="middle" x="324" y="-152.5" font-family="Helvetica,sans-Serif" font-size="10.00">XMLNode::parseString</text>
</a>
</g>
</g>
<!-- Node2&#45;&gt;Node3 -->
<g id="edge2" class="edge"><title>Node2&#45;&gt;Node3</title>
<path fill="none" stroke="midnightblue" d="M240.302,-155C248.787,-155 257.375,-155 265.644,-155"/>
<polygon fill="midnightblue" stroke="midnightblue" points="240.031,-151.5 230.031,-155 240.03,-158.5 240.031,-151.5"/>
</g>
<!-- Node4 -->
<g id="node4" class="node"><title>Node4</title>
<g id="a_node4"><a xlink:href="struct_x_m_l_node.xhtml#a5e5968e052d58350918cd91e3535624b" target="_top" xlink:title="XMLNode::parseFile">
<polygon fill="white" stroke="black" points="418,-164.5 418,-183.5 524,-183.5 524,-164.5 418,-164.5"/>
<text text-anchor="middle" x="471" y="-171.5" font-family="Helvetica,sans-Serif" font-size="10.00">XMLNode::parseFile</text>
</a>
</g>
</g>
<!-- Node3&#45;&gt;Node4 -->
<g id="edge3" class="edge"><title>Node3&#45;&gt;Node4</title>
<path fill="none" stroke="midnightblue" d="M392.296,-163.818C400.866,-164.941 409.535,-166.077 417.818,-167.162"/>
<polygon fill="midnightblue" stroke="midnightblue" points="392.678,-160.338 382.308,-162.509 391.768,-167.279 392.678,-160.338"/>
</g>
<!-- Node18 -->
<g id="node18" class="node"><title>Node18</title>
<g id="a_node18"><a xlink:href="_p_d_a_q_2_core_2_source_2xml_parser_8cpp.xhtml#ae6aa5a367ab3cc92b47fd92f81add72a" target="_top" xlink:title="CountLinesAndColumns">
<polygon fill="white" stroke="black" points="565,-126.5 565,-145.5 687,-145.5 687,-126.5 565,-126.5"/>
<text text-anchor="middle" x="626" y="-133.5" font-family="Helvetica,sans-Serif" font-size="10.00">CountLinesAndColumns</text>
</a>
</g>
</g>
<!-- Node3&#45;&gt;Node18 -->
<g id="edge21" class="edge"><title>Node3&#45;&gt;Node18</title>
<path fill="none" stroke="midnightblue" d="M392.231,-150.742C444.058,-147.46 515.075,-142.962 564.995,-139.8"/>
<polygon fill="midnightblue" stroke="midnightblue" points="391.893,-147.256 382.134,-151.382 392.335,-154.242 391.893,-147.256"/>
</g>
<!-- Node5 -->
<g id="node5" class="node"><title>Node5</title>
<g id="a_node5"><a xlink:href="struct_x_m_l_node.xhtml#acc044148e2b9b8264a320b7b6e398158" target="_top" xlink:title="XMLNode::openFileHelper">
<polygon fill="white" stroke="black" points="560.5,-164.5 560.5,-183.5 691.5,-183.5 691.5,-164.5 560.5,-164.5"/>
<text text-anchor="middle" x="626" y="-171.5" font-family="Helvetica,sans-Serif" font-size="10.00">XMLNode::openFileHelper</text>
</a>
</g>
</g>
<!-- Node4&#45;&gt;Node5 -->
<g id="edge4" class="edge"><title>Node4&#45;&gt;Node5</title>
<path fill="none" stroke="midnightblue" d="M534.464,-174C542.979,-174 551.735,-174 560.289,-174"/>
<polygon fill="midnightblue" stroke="midnightblue" points="534.226,-170.5 524.226,-174 534.226,-177.5 534.226,-170.5"/>
</g>
<!-- Node13 -->
<g id="node13" class="node"><title>Node13</title>
<g id="a_node13"><a xlink:href="_p_d_a_q_2_core_2_source_2xml_parser_8cpp.xhtml#af77e3e2685487b9c492b20c36f3b864a" target="_top" xlink:title="_strnicmp">
<polygon fill="white" stroke="black" points="777.5,-278.5 777.5,-297.5 836.5,-297.5 836.5,-278.5 777.5,-278.5"/>
<text text-anchor="middle" x="807" y="-285.5" font-family="Helvetica,sans-Serif" font-size="10.00">_strnicmp</text>
</a>
</g>
</g>
<!-- Node4&#45;&gt;Node13 -->
<g id="edge19" class="edge"><title>Node4&#45;&gt;Node13</title>
<path fill="none" stroke="midnightblue" d="M504.268,-187.358C552.411,-206.97 646.154,-243.939 728,-269 744.125,-273.938 762.433,-278.452 777.257,-281.841"/>
<polygon fill="midnightblue" stroke="midnightblue" points="505.567,-184.108 494.986,-183.561 502.917,-190.587 505.567,-184.108"/>
</g>
<!-- Node4&#45;&gt;Node18 -->
<g id="edge20" class="edge"><title>Node4&#45;&gt;Node18</title>
<path fill="none" stroke="midnightblue" d="M520.477,-161.96C541.852,-156.651 566.613,-150.501 586.669,-145.52"/>
<polygon fill="midnightblue" stroke="midnightblue" points="519.47,-158.604 510.608,-164.411 521.157,-165.397 519.47,-158.604"/>
</g>
<!-- Node6 -->
<g id="node6" class="node"><title>Node6</title>
<g id="a_node6"><a xlink:href="class_a_d_c_manager1720.xhtml#aae342ccd8bf1c253c455e195bfd82dfe" target="_top" xlink:title="ADCManager1720::Init">
<polygon fill="white" stroke="black" points="749,-240.5 749,-259.5 865,-259.5 865,-240.5 749,-240.5"/>
<text text-anchor="middle" x="807" y="-247.5" font-family="Helvetica,sans-Serif" font-size="10.00">ADCManager1720::Init</text>
</a>
</g>
</g>
<!-- Node5&#45;&gt;Node6 -->
<g id="edge5" class="edge"><title>Node5&#45;&gt;Node6</title>
<path fill="none" stroke="midnightblue" d="M649.736,-189.243C669.637,-201.985 699.711,-219.82 728,-231 737.462,-234.74 747.871,-237.891 757.916,-240.487"/>
<polygon fill="midnightblue" stroke="midnightblue" points="651.384,-186.14 641.094,-183.619 647.566,-192.007 651.384,-186.14"/>
</g>
<!-- Node7 -->
<g id="node7" class="node"><title>Node7</title>
<g id="a_node7"><a xlink:href="class_a_d_c_manager1724.xhtml#a6de2521b9c793edcf14aeaeefeb62787" target="_top" xlink:title="ADCManager1724::Init">
<polygon fill="white" stroke="black" points="749,-202.5 749,-221.5 865,-221.5 865,-202.5 749,-202.5"/>
<text text-anchor="middle" x="807" y="-209.5" font-family="Helvetica,sans-Serif" font-size="10.00">ADCManager1724::Init</text>
</a>
</g>
</g>
<!-- Node5&#45;&gt;Node7 -->
<g id="edge6" class="edge"><title>Node5&#45;&gt;Node7</title>
<path fill="none" stroke="midnightblue" d="M682.024,-185.681C707.408,-191.07 737.161,-197.386 761.156,-202.48"/>
<polygon fill="midnightblue" stroke="midnightblue" points="682.678,-182.242 672.169,-183.589 681.224,-189.089 682.678,-182.242"/>
</g>
<!-- Node8 -->
<g id="node8" class="node"><title>Node8</title>
<g id="a_node8"><a xlink:href="class_a_d_c_manager1730.xhtml#adb6d45f2024f4a52d366a88d1c7f229d" target="_top" xlink:title="ADCManager1730::Init">
<polygon fill="white" stroke="black" points="749,-164.5 749,-183.5 865,-183.5 865,-164.5 749,-164.5"/>
<text text-anchor="middle" x="807" y="-171.5" font-family="Helvetica,sans-Serif" font-size="10.00">ADCManager1730::Init</text>
</a>
</g>
</g>
<!-- Node5&#45;&gt;Node8 -->
<g id="edge7" class="edge"><title>Node5&#45;&gt;Node8</title>
<path fill="none" stroke="midnightblue" d="M701.85,-174C717.58,-174 733.93,-174 748.887,-174"/>
<polygon fill="midnightblue" stroke="midnightblue" points="701.623,-170.5 691.623,-174 701.623,-177.5 701.623,-170.5"/>
</g>
<!-- Node9 -->
<g id="node9" class="node"><title>Node9</title>
<g id="a_node9"><a xlink:href="class_scope_manager.xhtml#abe246d1b817d85a9cba7af3441a4df04" target="_top" xlink:title="ScopeManager::ShowEvent">
<polygon fill="white" stroke="black" points="738,-126.5 738,-145.5 876,-145.5 876,-126.5 738,-126.5"/>
<text text-anchor="middle" x="807" y="-133.5" font-family="Helvetica,sans-Serif" font-size="10.00">ScopeManager::ShowEvent</text>
</a>
</g>
</g>
<!-- Node5&#45;&gt;Node9 -->
<g id="edge8" class="edge"><title>Node5&#45;&gt;Node9</title>
<path fill="none" stroke="midnightblue" d="M682.024,-162.319C707.408,-156.93 737.161,-150.614 761.156,-145.52"/>
<polygon fill="midnightblue" stroke="midnightblue" points="681.224,-158.911 672.169,-164.411 682.678,-165.758 681.224,-158.911"/>
</g>
<!-- Node11 -->
<g id="node11" class="node"><title>Node11</title>
<g id="a_node11"><a xlink:href="class_slowcontrol_manager.xhtml#a36ab5157f5a740b9058517b77d1ce38f" target="_top" xlink:title="SlowcontrolManager\l::ShowStatus">
<polygon fill="white" stroke="black" points="754.5,-77 754.5,-107 859.5,-107 859.5,-77 754.5,-77"/>
<text text-anchor="start" x="762.5" y="-95" font-family="Helvetica,sans-Serif" font-size="10.00">SlowcontrolManager</text>
<text text-anchor="middle" x="807" y="-84" font-family="Helvetica,sans-Serif" font-size="10.00">::ShowStatus</text>
</a>
</g>
</g>
<!-- Node5&#45;&gt;Node11 -->
<g id="edge10" class="edge"><title>Node5&#45;&gt;Node11</title>
<path fill="none" stroke="midnightblue" d="M680.691,-160.828C684.628,-159.107 688.445,-157.172 692,-155 711.853,-142.872 708.305,-129.383 728,-117 736.066,-111.929 745.252,-107.799 754.421,-104.467"/>
<polygon fill="midnightblue" stroke="midnightblue" points="679.396,-157.576 671.35,-164.47 681.939,-164.098 679.396,-157.576"/>
</g>
<!-- Node12 -->
<g id="node12" class="node"><title>Node12</title>
<g id="a_node12"><a xlink:href="class_storage_manager.xhtml#ab16a945d003852d02556daf3610a9aac" target="_top" xlink:title="StorageManager::SaveContainer">
<polygon fill="white" stroke="black" points="728,-38.5 728,-57.5 886,-57.5 886,-38.5 728,-38.5"/>
<text text-anchor="middle" x="807" y="-45.5" font-family="Helvetica,sans-Serif" font-size="10.00">StorageManager::SaveContainer</text>
</a>
</g>
</g>
<!-- Node5&#45;&gt;Node12 -->
<g id="edge12" class="edge"><title>Node5&#45;&gt;Node12</title>
<path fill="none" stroke="midnightblue" d="M686.446,-159.324C688.4,-158.005 690.261,-156.567 692,-155 723.392,-126.712 695.973,-94.5674 728,-67 732.437,-63.1812 737.517,-60.104 742.91,-57.6278"/>
<polygon fill="midnightblue" stroke="midnightblue" points="684.401,-156.457 677.373,-164.386 687.811,-162.57 684.401,-156.457"/>
</g>
<!-- Node5&#45;&gt;Node13 -->
<g id="edge14" class="edge"><title>Node5&#45;&gt;Node13</title>
<path fill="none" stroke="midnightblue" d="M644.708,-190.872C673.01,-217.81 725.532,-267.662 728,-269 743.193,-277.238 761.968,-281.953 777.29,-284.626"/>
<polygon fill="midnightblue" stroke="midnightblue" points="646.761,-187.995 637.106,-183.634 641.934,-193.064 646.761,-187.995"/>
</g>
<!-- Node16 -->
<g id="node16" class="node"><title>Node16</title>
<g id="a_node16"><a xlink:href="_p_d_a_q_2_core_2_source_2xml_8cpp.xhtml#a8251b051736c5146c1985edc6cb357e6" target="_top" xlink:title="xml_readsettings">
<polygon fill="white" stroke="black" points="761.5,-0.5 761.5,-19.5 852.5,-19.5 852.5,-0.5 761.5,-0.5"/>
<text text-anchor="middle" x="807" y="-7.5" font-family="Helvetica,sans-Serif" font-size="10.00">xml_readsettings</text>
</a>
</g>
</g>
<!-- Node5&#45;&gt;Node16 -->
<g id="edge17" class="edge"><title>Node5&#45;&gt;Node16</title>
<path fill="none" stroke="midnightblue" d="M687.424,-159C689.038,-157.769 690.57,-156.438 692,-155 733.057,-113.692 686.015,-69.3641 728,-29 736.942,-20.403 749.094,-15.4872 761.144,-12.732"/>
<polygon fill="midnightblue" stroke="midnightblue" points="685.422,-156.124 678.762,-164.363 689.106,-162.075 685.422,-156.124"/>
</g>
<!-- Node10 -->
<g id="node10" class="node"><title>Node10</title>
<g id="a_node10"><a xlink:href="_multi_d_a_q_8cpp.xhtml#adedb285b02c41bde2158ded9cc9fd7ac" target="_top" xlink:title="main">
<polygon fill="white" stroke="black" points="954,-82.5 954,-101.5 992,-101.5 992,-82.5 954,-82.5"/>
<text text-anchor="middle" x="973" y="-89.5" font-family="Helvetica,sans-Serif" font-size="10.00">main</text>
</a>
</g>
</g>
<!-- Node9&#45;&gt;Node10 -->
<g id="edge9" class="edge"><title>Node9&#45;&gt;Node10</title>
<path fill="none" stroke="midnightblue" d="M855.581,-123.97C865.636,-121.38 876.176,-118.63 886,-116 909.509,-109.707 936.528,-102.106 953.911,-97.168"/>
<polygon fill="midnightblue" stroke="midnightblue" points="854.549,-120.622 845.732,-126.496 856.288,-127.402 854.549,-120.622"/>
</g>
<!-- Node11&#45;&gt;Node10 -->
<g id="edge11" class="edge"><title>Node11&#45;&gt;Node10</title>
<path fill="none" stroke="midnightblue" d="M870.256,-92C900.076,-92 933.599,-92 953.744,-92"/>
<polygon fill="midnightblue" stroke="midnightblue" points="869.891,-88.5001 859.891,-92 869.891,-95.5001 869.891,-88.5001"/>
</g>
<!-- Node12&#45;&gt;Node10 -->
<g id="edge13" class="edge"><title>Node12&#45;&gt;Node10</title>
<path fill="none" stroke="midnightblue" d="M858.394,-59.9314C867.596,-62.2078 877.1,-64.6236 886,-67 909.585,-73.2973 936.587,-81.2735 953.945,-86.5007"/>
<polygon fill="midnightblue" stroke="midnightblue" points="859.115,-56.5047 848.57,-57.5244 857.449,-63.3036 859.115,-56.5047"/>
</g>
<!-- Node14 -->
<g id="node14" class="node"><title>Node14</title>
<g id="a_node14"><a xlink:href="_p_d_a_q_2_core_2_source_2xml_parser_8cpp.xhtml#ad9a5c911a8e21bb89427d29d33e2797e" target="_top" xlink:title="myIsTextWideChar">
<polygon fill="white" stroke="black" points="922.5,-297.5 922.5,-316.5 1023.5,-316.5 1023.5,-297.5 922.5,-297.5"/>
<text text-anchor="middle" x="973" y="-304.5" font-family="Helvetica,sans-Serif" font-size="10.00">myIsTextWideChar</text>
</a>
</g>
</g>
<!-- Node13&#45;&gt;Node14 -->
<g id="edge15" class="edge"><title>Node13&#45;&gt;Node14</title>
<path fill="none" stroke="midnightblue" d="M846.784,-292.493C869.346,-295.107 898.018,-298.429 922.231,-301.234"/>
<polygon fill="midnightblue" stroke="midnightblue" points="846.903,-288.984 836.567,-291.31 846.097,-295.937 846.903,-288.984"/>
</g>
<!-- Node15 -->
<g id="node15" class="node"><title>Node15</title>
<g id="a_node15"><a xlink:href="_p_d_a_q_2_core_2_source_2xml_parser_8cpp.xhtml#a9a625f17c09a36e3ad532cdf16072609" target="_top" xlink:title="charmemset">
<polygon fill="white" stroke="black" points="937.5,-259.5 937.5,-278.5 1008.5,-278.5 1008.5,-259.5 937.5,-259.5"/>
<text text-anchor="middle" x="973" y="-266.5" font-family="Helvetica,sans-Serif" font-size="10.00">charmemset</text>
</a>
</g>
</g>
<!-- Node13&#45;&gt;Node15 -->
<g id="edge16" class="edge"><title>Node13&#45;&gt;Node15</title>
<path fill="none" stroke="midnightblue" d="M846.605,-283.527C874.068,-280.346 910.653,-276.107 937.214,-273.03"/>
<polygon fill="midnightblue" stroke="midnightblue" points="846.097,-280.063 836.567,-284.69 846.903,-287.016 846.097,-280.063"/>
</g>
<!-- Node17 -->
<g id="node17" class="node"><title>Node17</title>
<g id="a_node17"><a xlink:href="_z_d_a_q_8cpp.xhtml#a0ddf1224851353fc92bfbff6f499fa97" target="_top" xlink:title="main">
<polygon fill="white" stroke="black" points="954,-0.5 954,-19.5 992,-19.5 992,-0.5 954,-0.5"/>
<text text-anchor="middle" x="973" y="-7.5" font-family="Helvetica,sans-Serif" font-size="10.00">main</text>
</a>
</g>
</g>
<!-- Node16&#45;&gt;Node17 -->
<g id="edge18" class="edge"><title>Node16&#45;&gt;Node17</title>
<path fill="none" stroke="midnightblue" d="M863.216,-10C894.646,-10 931.974,-10 953.724,-10"/>
<polygon fill="midnightblue" stroke="midnightblue" points="862.814,-6.5001 852.814,-10 862.814,-13.5001 862.814,-6.5001"/>
</g>
<!-- Node20 -->
<g id="node20" class="node"><title>Node20</title>
<g id="a_node20"><a xlink:href="_c_d_a_q_2_plugins_2_source_2xml_parser_8cpp.xhtml#a8415cb910267a0487e1003a34069d012" target="_top" xlink:title="myRealloc">
<polygon fill="white" stroke="black" points="292.5,-107.5 292.5,-126.5 355.5,-126.5 355.5,-107.5 292.5,-107.5"/>
<text text-anchor="middle" x="324" y="-114.5" font-family="Helvetica,sans-Serif" font-size="10.00">myRealloc</text>
</a>
</g>
</g>
<!-- Node19&#45;&gt;Node20 -->
<g id="edge23" class="edge"><title>Node19&#45;&gt;Node20</title>
<path fill="none" stroke="midnightblue" d="M219.021,-117C243.069,-117 271.295,-117 292.265,-117"/>
<polygon fill="midnightblue" stroke="midnightblue" points="219.004,-113.5 209.004,-117 219.004,-120.5 219.004,-113.5"/>
</g>
</g>
</svg>
        <g id="navigator" transform="translate(0 0)" fill="#404254">
                <rect fill="#f2f5e9" fill-opacity="0.5" stroke="#606060" stroke-width=".5" x="0" y="0" width="60" height="60"/>
                <use id="zoomplus" xlink:href="#zoomPlus" x="17" y="9" onmousedown="handleZoom(evt,'in')"/>
                <use id="zoomminus" xlink:href="#zoomMin" x="42" y="9" onmousedown="handleZoom(evt,'out')"/>
                <use id="reset" xlink:href="#resetDef" x="30" y="36" onmousedown="handleReset()"/>
                <g id="arrowUp" xlink:href="#dirArrow" transform="translate(30 24)" onmousedown="handlePan(0,-1)">
                  <use xlink:href="#rim" fill="#404040">
                        <set attributeName="fill" to="#808080" begin="arrowUp.mouseover" end="arrowUp.mouseout"/>
                  </use>
                  <path fill="none" stroke="white" stroke-width="1.5" d="M0,-3.0v7 M-2.5,-0.5L0,-3.0L2.5,-0.5"/>
                </g>
                <g id="arrowRight" xlink:href="#dirArrow" transform="rotate(90) translate(36 -43)" onmousedown="handlePan(1,0)">
                  <use xlink:href="#rim" fill="#404040">
                        <set attributeName="fill" to="#808080" begin="arrowRight.mouseover" end="arrowRight.mouseout"/>
                  </use>
                  <path fill="none" stroke="white" stroke-width="1.5" d="M0,-3.0v7 M-2.5,-0.5L0,-3.0L2.5,-0.5"/>
                </g>
                <g id="arrowDown" xlink:href="#dirArrow" transform="rotate(180) translate(-30 -48)" onmousedown="handlePan(0,1)">
                  <use xlink:href="#rim" fill="#404040">
                        <set attributeName="fill" to="#808080" begin="arrowDown.mouseover" end="arrowDown.mouseout"/>
                  </use>
                  <path fill="none" stroke="white" stroke-width="1.5" d="M0,-3.0v7 M-2.5,-0.5L0,-3.0L2.5,-0.5"/>
                </g>
                <g id="arrowLeft" xlink:href="#dirArrow" transform="rotate(270) translate(-36 17)" onmousedown="handlePan(-1,0)">
                  <use xlink:href="#rim" fill="#404040">
                        <set attributeName="fill" to="#808080" begin="arrowLeft.mouseover" end="arrowLeft.mouseout"/>
                  </use>
                  <path fill="none" stroke="white" stroke-width="1.5" d="M0,-3.0v7 M-2.5,-0.5L0,-3.0L2.5,-0.5"/>
                </g>
        </g>
        <svg viewBox="0 0 15 15" width="100%" height="30px" preserveAspectRatio="xMaxYMin meet">
         <g id="arrow_out" transform="scale(0.3 0.3)">
          <a xlink:href="_c_d_a_q_2_plugins_2_source_2xml_parser_8cpp_af03c1c87ed4ddb95f7b49d53d9117c53_icgraph_org.svg" target="_base">
           <rect id="button" ry="5" rx="5" y="6" x="6" height="38" width="38"
                fill="#f2f5e9" fill-opacity="0.5" stroke="#606060" stroke-width="1.0"/>
           <path id="arrow"
             d="M 11.500037,31.436501 C 11.940474,20.09759 22.043105,11.32322 32.158766,21.979434 L 37.068811,17.246167 C 37.068811,17.246167 37.088388,32 37.088388,32 L 22.160133,31.978069 C 22.160133,31.978069 26.997745,27.140456 26.997745,27.140456 C 18.528582,18.264221 13.291696,25.230495 11.500037,31.436501 z"
             style="fill:#404040;"/>
          </a>
         </g>
        </svg>
</svg>
