<?xml version="1.0" encoding="UTF-8" standalone="no"?>
<!DOCTYPE svg PUBLIC "-//W3C//DTD SVG 1.1//EN"
 "http://www.w3.org/Graphics/SVG/1.1/DTD/svg11.dtd">
<!-- Generated by graphviz version 2.36.0 (20140111.2315)
 -->
<!-- Title: xfopen Pages: 1 -->
<svg width="1068pt" height="541pt"
 viewBox="0.00 0.00 1068.00 540.67" xmlns="http://www.w3.org/2000/svg" xmlns:xlink="http://www.w3.org/1999/xlink">
<g id="graph0" class="graph" transform="scale(1 1) rotate(0) translate(4 536.675)">
<title>xfopen</title>
<polygon fill="white" stroke="none" points="-4,4 -4,-536.675 1064,-536.675 1064,4 -4,4"/>
<!-- Node1 -->
<g id="node1" class="node"><title>Node1</title>
<polygon fill="#bfbfbf" stroke="black" points="0,-114.5 0,-133.5 46,-133.5 46,-114.5 0,-114.5"/>
<text text-anchor="middle" x="23" y="-121.5" font-family="Helvetica,sans-Serif" font-size="10.00">xfopen</text>
</g>
<!-- Node2 -->
<g id="node2" class="node"><title>Node2</title>
<g id="a_node2"><a xlink:href="_c_d_a_q_2_plugins_2_source_2xml_parser_8cpp.xhtml#ad9a5c911a8e21bb89427d29d33e2797e" target="_top" xlink:title="myIsTextWideChar">
<polygon fill="white" stroke="black" points="256.5,-152.5 256.5,-171.5 357.5,-171.5 357.5,-152.5 256.5,-152.5"/>
<text text-anchor="middle" x="307" y="-159.5" font-family="Helvetica,sans-Serif" font-size="10.00">myIsTextWideChar</text>
</a>
</g>
</g>
<!-- Node1&#45;&gt;Node2 -->
<g id="edge1" class="edge"><title>Node1&#45;&gt;Node2</title>
<path fill="none" stroke="midnightblue" d="M56.0026,-132.513C64.4146,-134.533 73.5106,-136.527 82,-138 141.538,-148.33 210.799,-154.933 256.362,-158.545"/>
<polygon fill="midnightblue" stroke="midnightblue" points="56.7168,-129.084 46.1677,-130.068 55.028,-135.877 56.7168,-129.084"/>
</g>
<!-- Node6 -->
<g id="node6" class="node"><title>Node6</title>
<g id="a_node6"><a xlink:href="struct_x_m_l_node.xhtml#acc044148e2b9b8264a320b7b6e398158" target="_top" xlink:title="XMLNode::openFileHelper">
<polygon fill="white" stroke="black" points="596.5,-266.5 596.5,-285.5 727.5,-285.5 727.5,-266.5 596.5,-266.5"/>
<text text-anchor="middle" x="662" y="-273.5" font-family="Helvetica,sans-Serif" font-size="10.00">XMLNode::openFileHelper</text>
</a>
</g>
</g>
<!-- Node1&#45;&gt;Node6 -->
<g id="edge35" class="edge"><title>Node1&#45;&gt;Node6</title>
<path fill="none" stroke="midnightblue" d="M45.8154,-139.456C56.3778,-146.431 69.4634,-154.353 82,-160 219.055,-221.73 258.185,-229.7 406,-257 470.064,-268.832 544.474,-273.342 596.317,-275.037"/>
<polygon fill="midnightblue" stroke="midnightblue" points="47.5002,-136.369 37.2601,-133.65 43.5696,-142.161 47.5002,-136.369"/>
</g>
<!-- Node19 -->
<g id="node19" class="node"><title>Node19</title>
<g id="a_node19"><a xlink:href="struct_x_m_l_node.xhtml#a5e5968e052d58350918cd91e3535624b" target="_top" xlink:title="XMLNode::parseFile">
<polygon fill="white" stroke="black" points="430,-114.5 430,-133.5 536,-133.5 536,-114.5 430,-114.5"/>
<text text-anchor="middle" x="483" y="-121.5" font-family="Helvetica,sans-Serif" font-size="10.00">XMLNode::parseFile</text>
</a>
</g>
</g>
<!-- Node1&#45;&gt;Node19 -->
<g id="edge36" class="edge"><title>Node1&#45;&gt;Node19</title>
<path fill="none" stroke="midnightblue" d="M56.2894,-124C134.468,-124 334.493,-124 429.88,-124"/>
<polygon fill="midnightblue" stroke="midnightblue" points="56.0903,-120.5 46.0903,-124 56.0903,-127.5 56.0903,-120.5"/>
</g>
<!-- Node20 -->
<g id="node20" class="node"><title>Node20</title>
<g id="a_node20"><a xlink:href="_c_d_a_q_2_plugins_2_source_2xml_parser_8cpp.xhtml#ad7ec02a171e7641c1d364d5d367199a3" target="_top" xlink:title="myWideCharToMultiByte">
<polygon fill="white" stroke="black" points="82,-76.5 82,-95.5 208,-95.5 208,-76.5 82,-76.5"/>
<text text-anchor="middle" x="145" y="-83.5" font-family="Helvetica,sans-Serif" font-size="10.00">myWideCharToMultiByte</text>
</a>
</g>
</g>
<!-- Node1&#45;&gt;Node20 -->
<g id="edge30" class="edge"><title>Node1&#45;&gt;Node20</title>
<path fill="none" stroke="midnightblue" d="M55.7844,-113.935C73.8204,-108.224 96.2608,-101.117 113.995,-95.5017"/>
<polygon fill="midnightblue" stroke="midnightblue" points="54.4866,-110.675 46.0098,-117.03 56.5999,-117.348 54.4866,-110.675"/>
</g>
<!-- Node22 -->
<g id="node22" class="node"><title>Node22</title>
<g id="a_node22"><a xlink:href="struct_x_m_l_node.xhtml#ab8d92d057c0072cc195b1935b2f53d80" target="_top" xlink:title="XMLNode::writeToFile">
<polygon fill="white" stroke="black" points="88,-38.5 88,-57.5 202,-57.5 202,-38.5 88,-38.5"/>
<text text-anchor="middle" x="145" y="-45.5" font-family="Helvetica,sans-Serif" font-size="10.00">XMLNode::writeToFile</text>
</a>
</g>
</g>
<!-- Node1&#45;&gt;Node22 -->
<g id="edge37" class="edge"><title>Node1&#45;&gt;Node22</title>
<path fill="none" stroke="midnightblue" d="M38.1564,-106.092C48.9536,-93.5277 64.8502,-77.2111 82,-67 88.3843,-63.1988 95.5977,-60.0946 102.788,-57.5809"/>
<polygon fill="midnightblue" stroke="midnightblue" points="35.2305,-104.138 31.5433,-114.07 40.6197,-108.605 35.2305,-104.138"/>
</g>
<!-- Node3 -->
<g id="node3" class="node"><title>Node3</title>
<g id="a_node3"><a xlink:href="_p_d_a_q_2_core_2_source_2xml_parser_8cpp.xhtml#a9a625f17c09a36e3ad532cdf16072609" target="_top" xlink:title="charmemset">
<polygon fill="white" stroke="black" points="973.5,-506.5 973.5,-525.5 1044.5,-525.5 1044.5,-506.5 973.5,-506.5"/>
<text text-anchor="middle" x="1009" y="-513.5" font-family="Helvetica,sans-Serif" font-size="10.00">charmemset</text>
</a>
</g>
</g>
<!-- Node2&#45;&gt;Node3 -->
<g id="edge2" class="edge"><title>Node2&#45;&gt;Node3</title>
<path fill="none" stroke="midnightblue" d="M320.833,-179.978C369.304,-245.866 549.418,-472.884 764,-523 836.838,-540.011 925.224,-530.238 973.095,-522.528"/>
<polygon fill="midnightblue" stroke="midnightblue" points="323.589,-177.816 314.878,-171.786 317.927,-181.932 323.589,-177.816"/>
</g>
<!-- Node4 -->
<g id="node4" class="node"><title>Node4</title>
<g id="a_node4"><a xlink:href="_p_d_a_q_2_core_2_source_2xml_parser_8cpp.xhtml#ae6aa5a367ab3cc92b47fd92f81add72a" target="_top" xlink:title="CountLinesAndColumns">
<polygon fill="white" stroke="black" points="601,-76.5 601,-95.5 723,-95.5 723,-76.5 601,-76.5"/>
<text text-anchor="middle" x="662" y="-83.5" font-family="Helvetica,sans-Serif" font-size="10.00">CountLinesAndColumns</text>
</a>
</g>
</g>
<!-- Node2&#45;&gt;Node4 -->
<g id="edge3" class="edge"><title>Node2&#45;&gt;Node4</title>
<path fill="none" stroke="midnightblue" d="M328.292,-146.477C347.262,-132.908 376.949,-114.005 406,-105 470.453,-85.0209 548.265,-82.0687 600.851,-82.9674"/>
<polygon fill="midnightblue" stroke="midnightblue" points="326.125,-143.727 320.131,-152.463 330.265,-149.371 326.125,-143.727"/>
</g>
<!-- Node5 -->
<g id="node5" class="node"><title>Node5</title>
<g id="a_node5"><a xlink:href="struct_x_m_l_node.xhtml#a4496629c7a268db5435946c7bdd4eb28" target="_top" xlink:title="XMLNode::getError">
<polygon fill="white" stroke="black" points="432.5,-190.5 432.5,-209.5 533.5,-209.5 533.5,-190.5 432.5,-190.5"/>
<text text-anchor="middle" x="483" y="-197.5" font-family="Helvetica,sans-Serif" font-size="10.00">XMLNode::getError</text>
</a>
</g>
</g>
<!-- Node2&#45;&gt;Node5 -->
<g id="edge4" class="edge"><title>Node2&#45;&gt;Node5</title>
<path fill="none" stroke="midnightblue" d="M361.814,-173.753C386.418,-179.126 415.187,-185.409 438.408,-190.48"/>
<polygon fill="midnightblue" stroke="midnightblue" points="362.424,-170.303 351.908,-171.589 360.93,-177.142 362.424,-170.303"/>
</g>
<!-- Node15 -->
<g id="node15" class="node"><title>Node15</title>
<g id="a_node15"><a xlink:href="_p_d_a_q_2_core_2_source_2xml_parser_8cpp.xhtml#ad9a5c911a8e21bb89427d29d33e2797e" target="_top" xlink:title="myIsTextWideChar">
<polygon fill="white" stroke="black" points="958.5,-171.5 958.5,-190.5 1059.5,-190.5 1059.5,-171.5 958.5,-171.5"/>
<text text-anchor="middle" x="1009" y="-178.5" font-family="Helvetica,sans-Serif" font-size="10.00">myIsTextWideChar</text>
</a>
</g>
</g>
<!-- Node2&#45;&gt;Node15 -->
<g id="edge25" class="edge"><title>Node2&#45;&gt;Node15</title>
<path fill="none" stroke="midnightblue" d="M367.707,-163.621C503.419,-167.304 832.99,-176.25 958.419,-179.654"/>
<polygon fill="midnightblue" stroke="midnightblue" points="367.593,-160.116 357.502,-163.344 367.403,-167.114 367.593,-160.116"/>
</g>
<!-- Node18 -->
<g id="node18" class="node"><title>Node18</title>
<g id="a_node18"><a xlink:href="struct_x_m_l_node.xhtml#ac7af7e3bab8d21722dd4f191a4aa7c1d" target="_top" xlink:title="XMLNode::guessCharEncoding">
<polygon fill="white" stroke="black" points="406,-228.5 406,-247.5 560,-247.5 560,-228.5 406,-228.5"/>
<text text-anchor="middle" x="483" y="-235.5" font-family="Helvetica,sans-Serif" font-size="10.00">XMLNode::guessCharEncoding</text>
</a>
</g>
</g>
<!-- Node2&#45;&gt;Node18 -->
<g id="edge21" class="edge"><title>Node2&#45;&gt;Node18</title>
<path fill="none" stroke="midnightblue" d="M330.01,-177.237C349.288,-189.975 378.451,-207.808 406,-219 415.198,-222.737 425.331,-225.888 435.116,-228.482"/>
<polygon fill="midnightblue" stroke="midnightblue" points="331.893,-174.285 321.64,-171.615 327.99,-180.096 331.893,-174.285"/>
</g>
<!-- Node2&#45;&gt;Node19 -->
<g id="edge26" class="edge"><title>Node2&#45;&gt;Node19</title>
<path fill="none" stroke="midnightblue" d="M361.814,-150.247C386.418,-144.874 415.187,-138.591 438.408,-133.52"/>
<polygon fill="midnightblue" stroke="midnightblue" points="360.93,-146.858 351.908,-152.411 362.424,-153.697 360.93,-146.858"/>
</g>
<!-- Node5&#45;&gt;Node6 -->
<g id="edge5" class="edge"><title>Node5&#45;&gt;Node6</title>
<path fill="none" stroke="midnightblue" d="M540.279,-212.25C547.011,-214.247 553.719,-216.496 560,-219 592.73,-232.049 627.909,-253.894 646.894,-266.411"/>
<polygon fill="midnightblue" stroke="midnightblue" points="541.018,-208.823 530.445,-209.503 539.134,-215.565 541.018,-208.823"/>
</g>
<!-- Node14 -->
<g id="node14" class="node"><title>Node14</title>
<g id="a_node14"><a xlink:href="_p_d_a_q_2_core_2_source_2xml_parser_8cpp.xhtml#af77e3e2685487b9c492b20c36f3b864a" target="_top" xlink:title="_strnicmp">
<polygon fill="white" stroke="black" points="813.5,-190.5 813.5,-209.5 872.5,-209.5 872.5,-190.5 813.5,-190.5"/>
<text text-anchor="middle" x="843" y="-197.5" font-family="Helvetica,sans-Serif" font-size="10.00">_strnicmp</text>
</a>
</g>
</g>
<!-- Node5&#45;&gt;Node14 -->
<g id="edge20" class="edge"><title>Node5&#45;&gt;Node14</title>
<path fill="none" stroke="midnightblue" d="M543.943,-200C621.978,-200 755.245,-200 813.421,-200"/>
<polygon fill="midnightblue" stroke="midnightblue" points="543.778,-196.5 533.778,-200 543.778,-203.5 543.778,-196.5"/>
</g>
<!-- Node7 -->
<g id="node7" class="node"><title>Node7</title>
<g id="a_node7"><a xlink:href="class_a_d_c_manager1720.xhtml#aae342ccd8bf1c253c455e195bfd82dfe" target="_top" xlink:title="ADCManager1720::Init">
<polygon fill="white" stroke="black" points="785,-468.5 785,-487.5 901,-487.5 901,-468.5 785,-468.5"/>
<text text-anchor="middle" x="843" y="-475.5" font-family="Helvetica,sans-Serif" font-size="10.00">ADCManager1720::Init</text>
</a>
</g>
</g>
<!-- Node6&#45;&gt;Node7 -->
<g id="edge6" class="edge"><title>Node6&#45;&gt;Node7</title>
<path fill="none" stroke="midnightblue" d="M668.084,-295.558C678.949,-333.314 708.111,-416.273 764,-459 770.201,-463.74 777.421,-467.316 784.918,-470.01"/>
<polygon fill="midnightblue" stroke="midnightblue" points="671.422,-294.494 665.394,-285.781 664.673,-296.352 671.422,-294.494"/>
</g>
<!-- Node8 -->
<g id="node8" class="node"><title>Node8</title>
<g id="a_node8"><a xlink:href="class_a_d_c_manager1724.xhtml#a6de2521b9c793edcf14aeaeefeb62787" target="_top" xlink:title="ADCManager1724::Init">
<polygon fill="white" stroke="black" points="785,-392.5 785,-411.5 901,-411.5 901,-392.5 785,-392.5"/>
<text text-anchor="middle" x="843" y="-399.5" font-family="Helvetica,sans-Serif" font-size="10.00">ADCManager1724::Init</text>
</a>
</g>
</g>
<!-- Node6&#45;&gt;Node8 -->
<g id="edge7" class="edge"><title>Node6&#45;&gt;Node8</title>
<path fill="none" stroke="midnightblue" d="M674.906,-294.01C691.797,-318.085 725.031,-360.345 764,-383 770.627,-386.853 778.007,-389.927 785.51,-392.379"/>
<polygon fill="midnightblue" stroke="midnightblue" points="677.791,-292.028 669.255,-285.752 672.015,-295.981 677.791,-292.028"/>
</g>
<!-- Node9 -->
<g id="node9" class="node"><title>Node9</title>
<g id="a_node9"><a xlink:href="class_a_d_c_manager1730.xhtml#adb6d45f2024f4a52d366a88d1c7f229d" target="_top" xlink:title="ADCManager1730::Init">
<polygon fill="white" stroke="black" points="785,-354.5 785,-373.5 901,-373.5 901,-354.5 785,-354.5"/>
<text text-anchor="middle" x="843" y="-361.5" font-family="Helvetica,sans-Serif" font-size="10.00">ADCManager1730::Init</text>
</a>
</g>
</g>
<!-- Node6&#45;&gt;Node9 -->
<g id="edge8" class="edge"><title>Node6&#45;&gt;Node9</title>
<path fill="none" stroke="midnightblue" d="M682.155,-291.845C701.638,-307.223 733.256,-330.205 764,-344 773.438,-348.235 783.938,-351.693 794.096,-354.469"/>
<polygon fill="midnightblue" stroke="midnightblue" points="684.333,-289.105 674.345,-285.571 679.949,-294.563 684.333,-289.105"/>
</g>
<!-- Node10 -->
<g id="node10" class="node"><title>Node10</title>
<g id="a_node10"><a xlink:href="class_scope_manager.xhtml#abe246d1b817d85a9cba7af3441a4df04" target="_top" xlink:title="ScopeManager::ShowEvent">
<polygon fill="white" stroke="black" points="774,-228.5 774,-247.5 912,-247.5 912,-228.5 774,-228.5"/>
<text text-anchor="middle" x="843" y="-235.5" font-family="Helvetica,sans-Serif" font-size="10.00">ScopeManager::ShowEvent</text>
</a>
</g>
</g>
<!-- Node6&#45;&gt;Node10 -->
<g id="edge9" class="edge"><title>Node6&#45;&gt;Node10</title>
<path fill="none" stroke="midnightblue" d="M718.024,-264.319C743.408,-258.93 773.161,-252.614 797.156,-247.52"/>
<polygon fill="midnightblue" stroke="midnightblue" points="717.224,-260.911 708.169,-266.411 718.678,-267.758 717.224,-260.911"/>
</g>
<!-- Node12 -->
<g id="node12" class="node"><title>Node12</title>
<g id="a_node12"><a xlink:href="class_slowcontrol_manager.xhtml#a36ab5157f5a740b9058517b77d1ce38f" target="_top" xlink:title="SlowcontrolManager\l::ShowStatus">
<polygon fill="white" stroke="black" points="790.5,-305 790.5,-335 895.5,-335 895.5,-305 790.5,-305"/>
<text text-anchor="start" x="798.5" y="-323" font-family="Helvetica,sans-Serif" font-size="10.00">SlowcontrolManager</text>
<text text-anchor="middle" x="843" y="-312" font-family="Helvetica,sans-Serif" font-size="10.00">::ShowStatus</text>
</a>
</g>
</g>
<!-- Node6&#45;&gt;Node12 -->
<g id="edge11" class="edge"><title>Node6&#45;&gt;Node12</title>
<path fill="none" stroke="midnightblue" d="M711.599,-287.946C735.983,-293.94 765.527,-301.202 790.323,-307.297"/>
<polygon fill="midnightblue" stroke="midnightblue" points="712.387,-284.536 701.84,-285.547 710.716,-291.333 712.387,-284.536"/>
</g>
<!-- Node13 -->
<g id="node13" class="node"><title>Node13</title>
<g id="a_node13"><a xlink:href="class_storage_manager.xhtml#ab16a945d003852d02556daf3610a9aac" target="_top" xlink:title="StorageManager::SaveContainer">
<polygon fill="white" stroke="black" points="764,-266.5 764,-285.5 922,-285.5 922,-266.5 764,-266.5"/>
<text text-anchor="middle" x="843" y="-273.5" font-family="Helvetica,sans-Serif" font-size="10.00">StorageManager::SaveContainer</text>
</a>
</g>
</g>
<!-- Node6&#45;&gt;Node13 -->
<g id="edge13" class="edge"><title>Node6&#45;&gt;Node13</title>
<path fill="none" stroke="midnightblue" d="M737.636,-276C746.256,-276 755.065,-276 763.732,-276"/>
<polygon fill="midnightblue" stroke="midnightblue" points="737.623,-272.5 727.623,-276 737.623,-279.5 737.623,-272.5"/>
</g>
<!-- Node6&#45;&gt;Node14 -->
<g id="edge15" class="edge"><title>Node6&#45;&gt;Node14</title>
<path fill="none" stroke="midnightblue" d="M706.034,-262.81C713.598,-259.743 721.213,-256.141 728,-252 746.529,-240.695 744.853,-229.223 764,-219 779.245,-210.86 798.022,-206.147 813.332,-203.452"/>
<polygon fill="midnightblue" stroke="midnightblue" points="704.658,-259.588 696.548,-266.406 707.139,-266.134 704.658,-259.588"/>
</g>
<!-- Node16 -->
<g id="node16" class="node"><title>Node16</title>
<g id="a_node16"><a xlink:href="_p_d_a_q_2_core_2_source_2xml_8cpp.xhtml#a8251b051736c5146c1985edc6cb357e6" target="_top" xlink:title="xml_readsettings">
<polygon fill="white" stroke="black" points="797.5,-430.5 797.5,-449.5 888.5,-449.5 888.5,-430.5 797.5,-430.5"/>
<text text-anchor="middle" x="843" y="-437.5" font-family="Helvetica,sans-Serif" font-size="10.00">xml_readsettings</text>
</a>
</g>
</g>
<!-- Node6&#45;&gt;Node16 -->
<g id="edge18" class="edge"><title>Node6&#45;&gt;Node16</title>
<path fill="none" stroke="midnightblue" d="M670.77,-294.919C684.639,-326.235 716.704,-388.597 764,-421 773.773,-427.696 785.656,-432.04 797.169,-434.856"/>
<polygon fill="midnightblue" stroke="midnightblue" points="673.923,-293.392 666.769,-285.578 667.489,-296.148 673.923,-293.392"/>
</g>
<!-- Node11 -->
<g id="node11" class="node"><title>Node11</title>
<g id="a_node11"><a xlink:href="_multi_d_a_q_8cpp.xhtml#adedb285b02c41bde2158ded9cc9fd7ac" target="_top" xlink:title="main">
<polygon fill="white" stroke="black" points="990,-266.5 990,-285.5 1028,-285.5 1028,-266.5 990,-266.5"/>
<text text-anchor="middle" x="1009" y="-273.5" font-family="Helvetica,sans-Serif" font-size="10.00">main</text>
</a>
</g>
</g>
<!-- Node10&#45;&gt;Node11 -->
<g id="edge10" class="edge"><title>Node10&#45;&gt;Node11</title>
<path fill="none" stroke="midnightblue" d="M895.543,-249.943C927.714,-257.397 967.177,-266.541 989.773,-271.777"/>
<polygon fill="midnightblue" stroke="midnightblue" points="895.916,-246.437 885.384,-247.589 894.336,-253.256 895.916,-246.437"/>
</g>
<!-- Node12&#45;&gt;Node11 -->
<g id="edge12" class="edge"><title>Node12&#45;&gt;Node11</title>
<path fill="none" stroke="midnightblue" d="M905.865,-303.402C935.783,-295.375 969.511,-286.326 989.744,-280.898"/>
<polygon fill="midnightblue" stroke="midnightblue" points="904.642,-300.106 895.891,-306.078 906.456,-306.867 904.642,-300.106"/>
</g>
<!-- Node13&#45;&gt;Node11 -->
<g id="edge14" class="edge"><title>Node13&#45;&gt;Node11</title>
<path fill="none" stroke="midnightblue" d="M932.219,-276C954.077,-276 975.341,-276 989.753,-276"/>
<polygon fill="midnightblue" stroke="midnightblue" points="932.158,-272.5 922.158,-276 932.157,-279.5 932.158,-272.5"/>
</g>
<!-- Node14&#45;&gt;Node3 -->
<g id="edge17" class="edge"><title>Node14&#45;&gt;Node3</title>
<path fill="none" stroke="midnightblue" d="M882.928,-200.73C897.115,-203.019 912.089,-208.154 922,-219 994.759,-298.624 912.598,-361.161 958,-459 966.977,-478.344 984.615,-496.031 996.357,-506.413"/>
<polygon fill="midnightblue" stroke="midnightblue" points="883.164,-197.233 872.82,-199.525 882.335,-204.184 883.164,-197.233"/>
</g>
<!-- Node14&#45;&gt;Node15 -->
<g id="edge16" class="edge"><title>Node14&#45;&gt;Node15</title>
<path fill="none" stroke="midnightblue" d="M882.784,-195.507C905.346,-192.893 934.018,-189.571 958.231,-186.766"/>
<polygon fill="midnightblue" stroke="midnightblue" points="882.097,-192.063 872.567,-196.69 882.903,-199.016 882.097,-192.063"/>
</g>
<!-- Node17 -->
<g id="node17" class="node"><title>Node17</title>
<g id="a_node17"><a xlink:href="_z_d_a_q_8cpp.xhtml#a0ddf1224851353fc92bfbff6f499fa97" target="_top" xlink:title="main">
<polygon fill="white" stroke="black" points="990,-430.5 990,-449.5 1028,-449.5 1028,-430.5 990,-430.5"/>
<text text-anchor="middle" x="1009" y="-437.5" font-family="Helvetica,sans-Serif" font-size="10.00">main</text>
</a>
</g>
</g>
<!-- Node16&#45;&gt;Node17 -->
<g id="edge19" class="edge"><title>Node16&#45;&gt;Node17</title>
<path fill="none" stroke="midnightblue" d="M899.216,-440C930.646,-440 967.974,-440 989.724,-440"/>
<polygon fill="midnightblue" stroke="midnightblue" points="898.814,-436.5 888.814,-440 898.814,-443.5 898.814,-436.5"/>
</g>
<!-- Node18&#45;&gt;Node3 -->
<g id="edge24" class="edge"><title>Node18&#45;&gt;Node3</title>
<path fill="none" stroke="midnightblue" d="M496.484,-256.021C531.739,-305.216 637.741,-441.811 764,-497 833.3,-527.292 924.194,-524.645 973.149,-520.22"/>
<polygon fill="midnightblue" stroke="midnightblue" points="499.193,-253.789 490.563,-247.643 493.476,-257.829 499.193,-253.789"/>
</g>
<!-- Node18&#45;&gt;Node6 -->
<g id="edge22" class="edge"><title>Node18&#45;&gt;Node6</title>
<path fill="none" stroke="midnightblue" d="M538.742,-249.753C563.77,-255.126 593.035,-261.409 616.657,-266.48"/>
<polygon fill="midnightblue" stroke="midnightblue" points="539.176,-246.266 528.665,-247.589 537.707,-253.11 539.176,-246.266"/>
</g>
<!-- Node18&#45;&gt;Node14 -->
<g id="edge23" class="edge"><title>Node18&#45;&gt;Node14</title>
<path fill="none" stroke="midnightblue" d="M570.241,-230.029C616.96,-225.582 675.676,-219.785 728,-214 757.135,-210.779 790.399,-206.641 813.444,-203.701"/>
<polygon fill="midnightblue" stroke="midnightblue" points="569.782,-226.557 560.158,-230.986 570.444,-233.526 569.782,-226.557"/>
</g>
<!-- Node19&#45;&gt;Node4 -->
<g id="edge29" class="edge"><title>Node19&#45;&gt;Node4</title>
<path fill="none" stroke="midnightblue" d="M538.742,-112.247C563.77,-106.874 593.035,-100.591 616.657,-95.5201"/>
<polygon fill="midnightblue" stroke="midnightblue" points="537.707,-108.89 528.665,-114.411 539.176,-115.734 537.707,-108.89"/>
</g>
<!-- Node19&#45;&gt;Node6 -->
<g id="edge27" class="edge"><title>Node19&#45;&gt;Node6</title>
<path fill="none" stroke="midnightblue" d="M506.196,-139.646C521.626,-150.762 542.483,-166.271 560,-181 595.192,-210.59 634.093,-248.909 651.579,-266.46"/>
<polygon fill="midnightblue" stroke="midnightblue" points="507.976,-136.616 497.805,-133.648 503.905,-142.311 507.976,-136.616"/>
</g>
<!-- Node19&#45;&gt;Node14 -->
<g id="edge28" class="edge"><title>Node19&#45;&gt;Node14</title>
<path fill="none" stroke="midnightblue" d="M539.005,-135.677C616.255,-152.076 754.076,-181.335 813.472,-193.944"/>
<polygon fill="midnightblue" stroke="midnightblue" points="539.487,-132.201 528.978,-133.548 538.034,-139.049 539.487,-132.201"/>
</g>
<!-- Node20&#45;&gt;Node2 -->
<g id="edge32" class="edge"><title>Node20&#45;&gt;Node2</title>
<path fill="none" stroke="midnightblue" d="M175.597,-100.059C207.708,-115.311 258.098,-139.246 285.9,-152.453"/>
<polygon fill="midnightblue" stroke="midnightblue" points="176.799,-96.7546 166.264,-95.6255 173.795,-103.078 176.799,-96.7546"/>
</g>
<!-- Node20&#45;&gt;Node4 -->
<g id="edge31" class="edge"><title>Node20&#45;&gt;Node4</title>
<path fill="none" stroke="midnightblue" d="M218.121,-83.0265C300.736,-80.0683 440.158,-76.4435 560,-80 573.256,-80.3934 587.478,-81.0766 600.943,-81.8445"/>
<polygon fill="midnightblue" stroke="midnightblue" points="217.951,-79.5302 208.086,-83.3926 218.207,-86.5256 217.951,-79.5302"/>
</g>
<!-- Node20&#45;&gt;Node19 -->
<g id="edge34" class="edge"><title>Node20&#45;&gt;Node19</title>
<path fill="none" stroke="midnightblue" d="M218.32,-93.4221C262.216,-98.0083 319.359,-104.123 370,-110 389.562,-112.27 411.026,-114.916 429.884,-117.292"/>
<polygon fill="midnightblue" stroke="midnightblue" points="218.621,-89.9347 208.312,-92.379 217.896,-96.8969 218.621,-89.9347"/>
</g>
<!-- Node21 -->
<g id="node21" class="node"><title>Node21</title>
<g id="a_node21"><a xlink:href="_p_d_a_q_2_core_2_source_2xml_parser_8cpp.xhtml#ad7ec02a171e7641c1d364d5d367199a3" target="_top" xlink:title="myWideCharToMultiByte">
<polygon fill="white" stroke="black" points="244,-0.5 244,-19.5 370,-19.5 370,-0.5 244,-0.5"/>
<text text-anchor="middle" x="307" y="-7.5" font-family="Helvetica,sans-Serif" font-size="10.00">myWideCharToMultiByte</text>
</a>
</g>
</g>
<!-- Node20&#45;&gt;Node21 -->
<g id="edge33" class="edge"><title>Node20&#45;&gt;Node21</title>
<path fill="none" stroke="midnightblue" d="M196.149,-72.7871C200.257,-71.0619 204.262,-69.1384 208,-67 226.84,-56.2216 225.56,-45.4492 244,-34 253.414,-28.1552 264.486,-23.319 274.649,-19.5568"/>
<polygon fill="midnightblue" stroke="midnightblue" points="194.562,-69.6453 186.45,-76.4601 197.041,-76.1916 194.562,-69.6453"/>
</g>
</g>
</svg>
