<?xml version="1.0" encoding="UTF-8" standalone="no"?>
<!DOCTYPE svg PUBLIC "-//W3C//DTD SVG 1.1//EN"
 "http://www.w3.org/Graphics/SVG/1.1/DTD/svg11.dtd">
<!-- Generated by graphviz version 2.36.0 (20140111.2315)
 -->
<!-- Title: _strnicmp Pages: 1 -->
<svg width="896pt" height="471pt"
 viewBox="0.00 0.00 896.00 471.43" xmlns="http://www.w3.org/2000/svg" xmlns:xlink="http://www.w3.org/1999/xlink">
<g id="graph0" class="graph" transform="scale(1 1) rotate(0) translate(4 467.427)">
<title>_strnicmp</title>
<polygon fill="white" stroke="none" points="-4,4 -4,-467.427 892,-467.427 892,4 -4,4"/>
<!-- Node1 -->
<g id="node1" class="node"><title>Node1</title>
<polygon fill="#bfbfbf" stroke="black" points="0.5,-372.5 0.5,-391.5 59.5,-391.5 59.5,-372.5 0.5,-372.5"/>
<text text-anchor="middle" x="30" y="-379.5" font-family="Helvetica,sans-Serif" font-size="10.00">_strnicmp</text>
</g>
<!-- Node2 -->
<g id="node2" class="node"><title>Node2</title>
<g id="a_node2"><a xlink:href="struct_x_m_l_node.xhtml#ac7af7e3bab8d21722dd4f191a4aa7c1d" target="_top" xlink:title="XMLNode::guessCharEncoding">
<polygon fill="white" stroke="black" points="234,-391.5 234,-410.5 388,-410.5 388,-391.5 234,-391.5"/>
<text text-anchor="middle" x="311" y="-398.5" font-family="Helvetica,sans-Serif" font-size="10.00">XMLNode::guessCharEncoding</text>
</a>
</g>
</g>
<!-- Node1&#45;&gt;Node2 -->
<g id="edge1" class="edge"><title>Node1&#45;&gt;Node2</title>
<path fill="none" stroke="midnightblue" d="M69.689,-384.635C111.925,-387.511 180.623,-392.189 233.772,-395.809"/>
<polygon fill="midnightblue" stroke="midnightblue" points="69.7615,-381.132 59.5467,-383.944 69.2858,-388.115 69.7615,-381.132"/>
</g>
<!-- Node16 -->
<g id="node16" class="node"><title>Node16</title>
<g id="a_node16"><a xlink:href="_c_d_a_q_2_plugins_2_source_2xml_parser_8cpp.xhtml#ad9a5c911a8e21bb89427d29d33e2797e" target="_top" xlink:title="myIsTextWideChar">
<polygon fill="white" stroke="black" points="96.5,-353.5 96.5,-372.5 197.5,-372.5 197.5,-353.5 96.5,-353.5"/>
<text text-anchor="middle" x="147" y="-360.5" font-family="Helvetica,sans-Serif" font-size="10.00">myIsTextWideChar</text>
</a>
</g>
</g>
<!-- Node1&#45;&gt;Node16 -->
<g id="edge19" class="edge"><title>Node1&#45;&gt;Node16</title>
<path fill="none" stroke="midnightblue" d="M69.72,-375.603C78.2131,-374.2 87.3203,-372.695 96.1799,-371.231"/>
<polygon fill="midnightblue" stroke="midnightblue" points="69.0184,-372.171 59.7227,-377.255 70.1595,-379.078 69.0184,-372.171"/>
</g>
<!-- Node3 -->
<g id="node3" class="node"><title>Node3</title>
<g id="a_node3"><a xlink:href="struct_x_m_l_node.xhtml#acc044148e2b9b8264a320b7b6e398158" target="_top" xlink:title="XMLNode::openFileHelper">
<polygon fill="white" stroke="black" points="424.5,-201.5 424.5,-220.5 555.5,-220.5 555.5,-201.5 424.5,-201.5"/>
<text text-anchor="middle" x="490" y="-208.5" font-family="Helvetica,sans-Serif" font-size="10.00">XMLNode::openFileHelper</text>
</a>
</g>
</g>
<!-- Node2&#45;&gt;Node3 -->
<g id="edge2" class="edge"><title>Node2&#45;&gt;Node3</title>
<path fill="none" stroke="midnightblue" d="M335.867,-385.653C351.559,-374.969 372.062,-359.843 388,-344 429.537,-302.711 468.408,-243.773 482.959,-220.745"/>
<polygon fill="midnightblue" stroke="midnightblue" points="333.628,-382.939 327.254,-391.402 337.514,-388.761 333.628,-382.939"/>
</g>
<!-- Node11 -->
<g id="node11" class="node"><title>Node11</title>
<g id="a_node11"><a xlink:href="_p_d_a_q_2_core_2_source_2xml_parser_8cpp.xhtml#af77e3e2685487b9c492b20c36f3b864a" target="_top" xlink:title="_strnicmp">
<polygon fill="white" stroke="black" points="641.5,-315.5 641.5,-334.5 700.5,-334.5 700.5,-315.5 641.5,-315.5"/>
<text text-anchor="middle" x="671" y="-322.5" font-family="Helvetica,sans-Serif" font-size="10.00">_strnicmp</text>
</a>
</g>
</g>
<!-- Node2&#45;&gt;Node11 -->
<g id="edge17" class="edge"><title>Node2&#45;&gt;Node11</title>
<path fill="none" stroke="midnightblue" d="M398.267,-402.317C445.601,-401.052 504.888,-396.183 556,-382 593.953,-371.468 634.242,-348.025 655.27,-334.717"/>
<polygon fill="midnightblue" stroke="midnightblue" points="397.97,-398.823 388.048,-402.54 398.122,-405.821 397.97,-398.823"/>
</g>
<!-- Node13 -->
<g id="node13" class="node"><title>Node13</title>
<g id="a_node13"><a xlink:href="_p_d_a_q_2_core_2_source_2xml_parser_8cpp.xhtml#a9a625f17c09a36e3ad532cdf16072609" target="_top" xlink:title="charmemset">
<polygon fill="white" stroke="black" points="801.5,-429.5 801.5,-448.5 872.5,-448.5 872.5,-429.5 801.5,-429.5"/>
<text text-anchor="middle" x="837" y="-436.5" font-family="Helvetica,sans-Serif" font-size="10.00">charmemset</text>
</a>
</g>
</g>
<!-- Node2&#45;&gt;Node13 -->
<g id="edge18" class="edge"><title>Node2&#45;&gt;Node13</title>
<path fill="none" stroke="midnightblue" d="M398.23,-407.253C515.619,-415.766 720.383,-430.616 801.493,-436.498"/>
<polygon fill="midnightblue" stroke="midnightblue" points="398.421,-403.758 388.194,-406.526 397.915,-410.74 398.421,-403.758"/>
</g>
<!-- Node4 -->
<g id="node4" class="node"><title>Node4</title>
<g id="a_node4"><a xlink:href="class_a_d_c_manager1720.xhtml#aae342ccd8bf1c253c455e195bfd82dfe" target="_top" xlink:title="ADCManager1720::Init">
<polygon fill="white" stroke="black" points="613,-87.5 613,-106.5 729,-106.5 729,-87.5 613,-87.5"/>
<text text-anchor="middle" x="671" y="-94.5" font-family="Helvetica,sans-Serif" font-size="10.00">ADCManager1720::Init</text>
</a>
</g>
</g>
<!-- Node3&#45;&gt;Node4 -->
<g id="edge3" class="edge"><title>Node3&#45;&gt;Node4</title>
<path fill="none" stroke="midnightblue" d="M504.648,-193.502C522.419,-171.948 555.546,-135.767 592,-116 599.106,-112.147 606.996,-109.064 614.95,-106.601"/>
<polygon fill="midnightblue" stroke="midnightblue" points="501.755,-191.513 498.208,-201.497 507.207,-195.904 501.755,-191.513"/>
</g>
<!-- Node5 -->
<g id="node5" class="node"><title>Node5</title>
<g id="a_node5"><a xlink:href="class_a_d_c_manager1724.xhtml#a6de2521b9c793edcf14aeaeefeb62787" target="_top" xlink:title="ADCManager1724::Init">
<polygon fill="white" stroke="black" points="613,-239.5 613,-258.5 729,-258.5 729,-239.5 613,-239.5"/>
<text text-anchor="middle" x="671" y="-246.5" font-family="Helvetica,sans-Serif" font-size="10.00">ADCManager1724::Init</text>
</a>
</g>
</g>
<!-- Node3&#45;&gt;Node5 -->
<g id="edge4" class="edge"><title>Node3&#45;&gt;Node5</title>
<path fill="none" stroke="midnightblue" d="M546.024,-222.681C571.408,-228.07 601.161,-234.386 625.156,-239.48"/>
<polygon fill="midnightblue" stroke="midnightblue" points="546.678,-219.242 536.169,-220.589 545.224,-226.089 546.678,-219.242"/>
</g>
<!-- Node6 -->
<g id="node6" class="node"><title>Node6</title>
<g id="a_node6"><a xlink:href="class_a_d_c_manager1730.xhtml#adb6d45f2024f4a52d366a88d1c7f229d" target="_top" xlink:title="ADCManager1730::Init">
<polygon fill="white" stroke="black" points="613,-201.5 613,-220.5 729,-220.5 729,-201.5 613,-201.5"/>
<text text-anchor="middle" x="671" y="-208.5" font-family="Helvetica,sans-Serif" font-size="10.00">ADCManager1730::Init</text>
</a>
</g>
</g>
<!-- Node3&#45;&gt;Node6 -->
<g id="edge5" class="edge"><title>Node3&#45;&gt;Node6</title>
<path fill="none" stroke="midnightblue" d="M565.85,-211C581.58,-211 597.93,-211 612.887,-211"/>
<polygon fill="midnightblue" stroke="midnightblue" points="565.623,-207.5 555.623,-211 565.623,-214.5 565.623,-207.5"/>
</g>
<!-- Node7 -->
<g id="node7" class="node"><title>Node7</title>
<g id="a_node7"><a xlink:href="class_scope_manager.xhtml#abe246d1b817d85a9cba7af3441a4df04" target="_top" xlink:title="ScopeManager::ShowEvent">
<polygon fill="white" stroke="black" points="602,-49.5 602,-68.5 740,-68.5 740,-49.5 602,-49.5"/>
<text text-anchor="middle" x="671" y="-56.5" font-family="Helvetica,sans-Serif" font-size="10.00">ScopeManager::ShowEvent</text>
</a>
</g>
</g>
<!-- Node3&#45;&gt;Node7 -->
<g id="edge6" class="edge"><title>Node3&#45;&gt;Node7</title>
<path fill="none" stroke="midnightblue" d="M500.036,-191.999C514.945,-162.779 547.53,-107.143 592,-78 597.945,-74.1038 604.617,-71.0059 611.491,-68.5429"/>
<polygon fill="midnightblue" stroke="midnightblue" points="496.808,-190.632 495.509,-201.147 503.082,-193.736 496.808,-190.632"/>
</g>
<!-- Node9 -->
<g id="node9" class="node"><title>Node9</title>
<g id="a_node9"><a xlink:href="class_slowcontrol_manager.xhtml#a36ab5157f5a740b9058517b77d1ce38f" target="_top" xlink:title="SlowcontrolManager\l::ShowStatus">
<polygon fill="white" stroke="black" points="618.5,-0 618.5,-30 723.5,-30 723.5,-0 618.5,-0"/>
<text text-anchor="start" x="626.5" y="-18" font-family="Helvetica,sans-Serif" font-size="10.00">SlowcontrolManager</text>
<text text-anchor="middle" x="671" y="-7" font-family="Helvetica,sans-Serif" font-size="10.00">::ShowStatus</text>
</a>
</g>
</g>
<!-- Node3&#45;&gt;Node9 -->
<g id="edge8" class="edge"><title>Node3&#45;&gt;Node9</title>
<path fill="none" stroke="midnightblue" d="M497.231,-191.594C509.572,-156.225 540.475,-81.1343 592,-40 599.668,-33.8783 608.869,-29.2404 618.22,-25.7312"/>
<polygon fill="midnightblue" stroke="midnightblue" points="493.866,-190.62 493.995,-201.214 500.501,-192.852 493.866,-190.62"/>
</g>
<!-- Node10 -->
<g id="node10" class="node"><title>Node10</title>
<g id="a_node10"><a xlink:href="class_storage_manager.xhtml#ab16a945d003852d02556daf3610a9aac" target="_top" xlink:title="StorageManager::SaveContainer">
<polygon fill="white" stroke="black" points="592,-125.5 592,-144.5 750,-144.5 750,-125.5 592,-125.5"/>
<text text-anchor="middle" x="671" y="-132.5" font-family="Helvetica,sans-Serif" font-size="10.00">StorageManager::SaveContainer</text>
</a>
</g>
</g>
<!-- Node3&#45;&gt;Node10 -->
<g id="edge10" class="edge"><title>Node3&#45;&gt;Node10</title>
<path fill="none" stroke="midnightblue" d="M513.736,-195.757C533.637,-183.015 563.711,-165.18 592,-154 601.462,-150.26 611.871,-147.109 621.916,-144.513"/>
<polygon fill="midnightblue" stroke="midnightblue" points="511.566,-192.993 505.094,-201.381 515.384,-198.86 511.566,-192.993"/>
</g>
<!-- Node3&#45;&gt;Node11 -->
<g id="edge12" class="edge"><title>Node3&#45;&gt;Node11</title>
<path fill="none" stroke="midnightblue" d="M514.657,-226.067C551.966,-249.827 623.434,-295.344 654.71,-315.262"/>
<polygon fill="midnightblue" stroke="midnightblue" points="516.268,-222.943 505.954,-220.523 512.508,-228.847 516.268,-222.943"/>
</g>
<!-- Node14 -->
<g id="node14" class="node"><title>Node14</title>
<g id="a_node14"><a xlink:href="_p_d_a_q_2_core_2_source_2xml_8cpp.xhtml#a8251b051736c5146c1985edc6cb357e6" target="_top" xlink:title="xml_readsettings">
<polygon fill="white" stroke="black" points="625.5,-163.5 625.5,-182.5 716.5,-182.5 716.5,-163.5 625.5,-163.5"/>
<text text-anchor="middle" x="671" y="-170.5" font-family="Helvetica,sans-Serif" font-size="10.00">xml_readsettings</text>
</a>
</g>
</g>
<!-- Node3&#45;&gt;Node14 -->
<g id="edge15" class="edge"><title>Node3&#45;&gt;Node14</title>
<path fill="none" stroke="midnightblue" d="M546.062,-199.311C571.548,-193.901 601.429,-187.557 625.465,-182.454"/>
<polygon fill="midnightblue" stroke="midnightblue" points="545.224,-195.911 536.169,-201.411 546.678,-202.758 545.224,-195.911"/>
</g>
<!-- Node8 -->
<g id="node8" class="node"><title>Node8</title>
<g id="a_node8"><a xlink:href="_multi_d_a_q_8cpp.xhtml#adedb285b02c41bde2158ded9cc9fd7ac" target="_top" xlink:title="main">
<polygon fill="white" stroke="black" points="818,-49.5 818,-68.5 856,-68.5 856,-49.5 818,-49.5"/>
<text text-anchor="middle" x="837" y="-56.5" font-family="Helvetica,sans-Serif" font-size="10.00">main</text>
</a>
</g>
</g>
<!-- Node7&#45;&gt;Node8 -->
<g id="edge7" class="edge"><title>Node7&#45;&gt;Node8</title>
<path fill="none" stroke="midnightblue" d="M750.16,-59C775.477,-59 801.284,-59 817.898,-59"/>
<polygon fill="midnightblue" stroke="midnightblue" points="750.126,-55.5001 740.126,-59 750.126,-62.5001 750.126,-55.5001"/>
</g>
<!-- Node9&#45;&gt;Node8 -->
<g id="edge9" class="edge"><title>Node9&#45;&gt;Node8</title>
<path fill="none" stroke="midnightblue" d="M733.865,-31.598C763.783,-39.6246 797.511,-48.6738 817.744,-54.1019"/>
<polygon fill="midnightblue" stroke="midnightblue" points="734.456,-28.1328 723.891,-28.9219 732.642,-34.8937 734.456,-28.1328"/>
</g>
<!-- Node10&#45;&gt;Node8 -->
<g id="edge11" class="edge"><title>Node10&#45;&gt;Node8</title>
<path fill="none" stroke="midnightblue" d="M732.06,-122.626C738.219,-120.691 744.301,-118.491 750,-116 778.886,-103.372 808.702,-81.1662 824.516,-68.5207"/>
<polygon fill="midnightblue" stroke="midnightblue" points="730.985,-119.294 722.363,-125.452 732.943,-126.014 730.985,-119.294"/>
</g>
<!-- Node12 -->
<g id="node12" class="node"><title>Node12</title>
<g id="a_node12"><a xlink:href="_p_d_a_q_2_core_2_source_2xml_parser_8cpp.xhtml#ad9a5c911a8e21bb89427d29d33e2797e" target="_top" xlink:title="myIsTextWideChar">
<polygon fill="white" stroke="black" points="786.5,-296.5 786.5,-315.5 887.5,-315.5 887.5,-296.5 786.5,-296.5"/>
<text text-anchor="middle" x="837" y="-303.5" font-family="Helvetica,sans-Serif" font-size="10.00">myIsTextWideChar</text>
</a>
</g>
</g>
<!-- Node11&#45;&gt;Node12 -->
<g id="edge13" class="edge"><title>Node11&#45;&gt;Node12</title>
<path fill="none" stroke="midnightblue" d="M710.784,-320.507C733.346,-317.893 762.018,-314.571 786.231,-311.766"/>
<polygon fill="midnightblue" stroke="midnightblue" points="710.097,-317.063 700.567,-321.69 710.903,-324.016 710.097,-317.063"/>
</g>
<!-- Node11&#45;&gt;Node13 -->
<g id="edge14" class="edge"><title>Node11&#45;&gt;Node13</title>
<path fill="none" stroke="midnightblue" d="M694.111,-340.37C728.411,-364.213 793.458,-409.428 821.991,-429.262"/>
<polygon fill="midnightblue" stroke="midnightblue" points="695.909,-337.357 685.7,-334.523 691.914,-343.105 695.909,-337.357"/>
</g>
<!-- Node15 -->
<g id="node15" class="node"><title>Node15</title>
<g id="a_node15"><a xlink:href="_z_d_a_q_8cpp.xhtml#a0ddf1224851353fc92bfbff6f499fa97" target="_top" xlink:title="main">
<polygon fill="white" stroke="black" points="818,-163.5 818,-182.5 856,-182.5 856,-163.5 818,-163.5"/>
<text text-anchor="middle" x="837" y="-170.5" font-family="Helvetica,sans-Serif" font-size="10.00">main</text>
</a>
</g>
</g>
<!-- Node14&#45;&gt;Node15 -->
<g id="edge16" class="edge"><title>Node14&#45;&gt;Node15</title>
<path fill="none" stroke="midnightblue" d="M727.216,-173C758.646,-173 795.974,-173 817.724,-173"/>
<polygon fill="midnightblue" stroke="midnightblue" points="726.814,-169.5 716.814,-173 726.814,-176.5 726.814,-169.5"/>
</g>
<!-- Node16&#45;&gt;Node2 -->
<g id="edge27" class="edge"><title>Node16&#45;&gt;Node2</title>
<path fill="none" stroke="midnightblue" d="M198.715,-374.896C221.486,-380.237 247.987,-386.454 269.415,-391.48"/>
<polygon fill="midnightblue" stroke="midnightblue" points="199.415,-371.465 188.879,-372.589 197.816,-378.28 199.415,-371.465"/>
</g>
<!-- Node16&#45;&gt;Node12 -->
<g id="edge28" class="edge"><title>Node16&#45;&gt;Node12</title>
<path fill="none" stroke="midnightblue" d="M165.729,-346.66C182.072,-332.791 207.711,-313.921 234,-306 431.138,-246.601 681.36,-278.621 786.225,-296.535"/>
<polygon fill="midnightblue" stroke="midnightblue" points="163.287,-344.146 158.076,-353.371 167.902,-349.409 163.287,-344.146"/>
</g>
<!-- Node16&#45;&gt;Node13 -->
<g id="edge30" class="edge"><title>Node16&#45;&gt;Node13</title>
<path fill="none" stroke="midnightblue" d="M166.121,-379.198C182.553,-392.801 208.099,-411.361 234,-420 439.578,-488.572 706.85,-458.569 801.187,-444.655"/>
<polygon fill="midnightblue" stroke="midnightblue" points="168.285,-376.443 158.406,-372.615 163.741,-381.768 168.285,-376.443"/>
</g>
<!-- Node17 -->
<g id="node17" class="node"><title>Node17</title>
<g id="a_node17"><a xlink:href="struct_x_m_l_node.xhtml#a4496629c7a268db5435946c7bdd4eb28" target="_top" xlink:title="XMLNode::getError">
<polygon fill="white" stroke="black" points="260.5,-201.5 260.5,-220.5 361.5,-220.5 361.5,-201.5 260.5,-201.5"/>
<text text-anchor="middle" x="311" y="-208.5" font-family="Helvetica,sans-Serif" font-size="10.00">XMLNode::getError</text>
</a>
</g>
</g>
<!-- Node16&#45;&gt;Node17 -->
<g id="edge20" class="edge"><title>Node16&#45;&gt;Node17</title>
<path fill="none" stroke="midnightblue" d="M155.853,-343.904C168.311,-315.938 195.229,-264.02 234,-235 242.419,-228.699 252.537,-224.023 262.604,-220.564"/>
<polygon fill="midnightblue" stroke="midnightblue" points="152.525,-342.783 151.791,-353.353 158.956,-345.548 152.525,-342.783"/>
</g>
<!-- Node18 -->
<g id="node18" class="node"><title>Node18</title>
<g id="a_node18"><a xlink:href="struct_x_m_l_node.xhtml#a5e5968e052d58350918cd91e3535624b" target="_top" xlink:title="XMLNode::parseFile">
<polygon fill="white" stroke="black" points="258,-315.5 258,-334.5 364,-334.5 364,-315.5 258,-315.5"/>
<text text-anchor="middle" x="311" y="-322.5" font-family="Helvetica,sans-Serif" font-size="10.00">XMLNode::parseFile</text>
</a>
</g>
</g>
<!-- Node16&#45;&gt;Node18 -->
<g id="edge23" class="edge"><title>Node16&#45;&gt;Node18</title>
<path fill="none" stroke="midnightblue" d="M198.715,-351.104C221.486,-345.763 247.987,-339.546 269.415,-334.52"/>
<polygon fill="midnightblue" stroke="midnightblue" points="197.816,-347.72 188.879,-353.411 199.415,-354.535 197.816,-347.72"/>
</g>
<!-- Node19 -->
<g id="node19" class="node"><title>Node19</title>
<g id="a_node19"><a xlink:href="_p_d_a_q_2_core_2_source_2xml_parser_8cpp.xhtml#ae6aa5a367ab3cc92b47fd92f81add72a" target="_top" xlink:title="CountLinesAndColumns">
<polygon fill="white" stroke="black" points="429,-353.5 429,-372.5 551,-372.5 551,-353.5 429,-353.5"/>
<text text-anchor="middle" x="490" y="-360.5" font-family="Helvetica,sans-Serif" font-size="10.00">CountLinesAndColumns</text>
</a>
</g>
</g>
<!-- Node16&#45;&gt;Node19 -->
<g id="edge29" class="edge"><title>Node16&#45;&gt;Node19</title>
<path fill="none" stroke="midnightblue" d="M207.617,-363C269.691,-363 366.392,-363 428.713,-363"/>
<polygon fill="midnightblue" stroke="midnightblue" points="207.584,-359.5 197.584,-363 207.584,-366.5 207.584,-359.5"/>
</g>
<!-- Node17&#45;&gt;Node3 -->
<g id="edge21" class="edge"><title>Node17&#45;&gt;Node3</title>
<path fill="none" stroke="midnightblue" d="M372.042,-211C388.892,-211 407.282,-211 424.385,-211"/>
<polygon fill="midnightblue" stroke="midnightblue" points="371.775,-207.5 361.775,-211 371.775,-214.5 371.775,-207.5"/>
</g>
<!-- Node17&#45;&gt;Node11 -->
<g id="edge22" class="edge"><title>Node17&#45;&gt;Node11</title>
<path fill="none" stroke="midnightblue" d="M351.627,-223.619C424.427,-246.801 577.818,-295.646 641.426,-315.901"/>
<polygon fill="midnightblue" stroke="midnightblue" points="352.498,-220.223 341.907,-220.523 350.374,-226.893 352.498,-220.223"/>
</g>
<!-- Node18&#45;&gt;Node3 -->
<g id="edge24" class="edge"><title>Node18&#45;&gt;Node3</title>
<path fill="none" stroke="midnightblue" d="M335.393,-309.933C372.284,-286.173 442.955,-240.656 473.88,-220.738"/>
<polygon fill="midnightblue" stroke="midnightblue" points="333.298,-307.119 326.786,-315.477 337.089,-313.004 333.298,-307.119"/>
</g>
<!-- Node18&#45;&gt;Node11 -->
<g id="edge25" class="edge"><title>Node18&#45;&gt;Node11</title>
<path fill="none" stroke="midnightblue" d="M374.273,-325C452.583,-325 583.747,-325 641.373,-325"/>
<polygon fill="midnightblue" stroke="midnightblue" points="374.056,-321.5 364.056,-325 374.056,-328.5 374.056,-321.5"/>
</g>
<!-- Node18&#45;&gt;Node19 -->
<g id="edge26" class="edge"><title>Node18&#45;&gt;Node19</title>
<path fill="none" stroke="midnightblue" d="M366.742,-336.753C391.77,-342.126 421.035,-348.409 444.657,-353.48"/>
<polygon fill="midnightblue" stroke="midnightblue" points="367.176,-333.266 356.665,-334.589 365.707,-340.11 367.176,-333.266"/>
</g>
</g>
</svg>
