<?xml version="1.0" encoding="UTF-8" standalone="no"?>
<!DOCTYPE svg PUBLIC "-//W3C//DTD SVG 1.1//EN"
 "http://www.w3.org/Graphics/SVG/1.1/DTD/svg11.dtd">
<!-- Generated by graphviz version 2.36.0 (20140111.2315)
 -->
<!-- Title: /data/Software/DAQ/CDAQ/Core/Include/VMEManager.h Pages: 1 -->
<svg width="554pt" height="96pt"
 viewBox="0.00 0.00 554.00 96.00" xmlns="http://www.w3.org/2000/svg" xmlns:xlink="http://www.w3.org/1999/xlink">
<g id="graph0" class="graph" transform="scale(1 1) rotate(0) translate(4 92)">
<title>/data/Software/DAQ/CDAQ/Core/Include/VMEManager.h</title>
<polygon fill="white" stroke="none" points="-4,4 -4,-92 550,-92 550,4 -4,4"/>
<!-- Node1 -->
<g id="node1" class="node"><title>Node1</title>
<polygon fill="#bfbfbf" stroke="black" points="171,-57 171,-87 349,-87 349,-57 171,-57"/>
<text text-anchor="start" x="179" y="-75" font-family="Helvetica,sans-Serif" font-size="10.00">/data/Software/DAQ</text>
<text text-anchor="middle" x="260" y="-64" font-family="Helvetica,sans-Serif" font-size="10.00">/CDAQ/Core/Include/VMEManager.h</text>
</g>
<!-- Node2 -->
<g id="node2" class="node"><title>Node2</title>
<polygon fill="white" stroke="#bfbfbf" points="-0.5,-0.5 -0.5,-19.5 48.5,-19.5 48.5,-0.5 -0.5,-0.5"/>
<text text-anchor="middle" x="24" y="-7.5" font-family="Helvetica,sans-Serif" font-size="10.00">string.h</text>
</g>
<!-- Node1&#45;&gt;Node2 -->
<g id="edge1" class="edge"><title>Node1&#45;&gt;Node2</title>
<path fill="none" stroke="midnightblue" d="M203.793,-56.9926C165.538,-47.4167 113.499,-34.3091 58.451,-20.0944"/>
<polygon fill="midnightblue" stroke="midnightblue" points="59.0631,-16.6376 48.5052,-17.5225 57.3105,-23.4147 59.0631,-16.6376"/>
</g>
<!-- Node3 -->
<g id="node3" class="node"><title>Node3</title>
<polygon fill="white" stroke="#bfbfbf" points="67,-0.5 67,-19.5 113,-19.5 113,-0.5 67,-0.5"/>
<text text-anchor="middle" x="90" y="-7.5" font-family="Helvetica,sans-Serif" font-size="10.00">stdio.h</text>
</g>
<!-- Node1&#45;&gt;Node3 -->
<g id="edge2" class="edge"><title>Node1&#45;&gt;Node3</title>
<path fill="none" stroke="midnightblue" d="M220.143,-56.9327C190.6,-46.5058 150.808,-32.4616 123.031,-22.6581"/>
<polygon fill="midnightblue" stroke="midnightblue" points="123.978,-19.2805 113.383,-19.2527 121.648,-25.8815 123.978,-19.2805"/>
</g>
<!-- Node4 -->
<g id="node4" class="node"><title>Node4</title>
<polygon fill="white" stroke="#bfbfbf" points="131,-0.5 131,-19.5 179,-19.5 179,-0.5 131,-0.5"/>
<text text-anchor="middle" x="155" y="-7.5" font-family="Helvetica,sans-Serif" font-size="10.00">stdlib.h</text>
</g>
<!-- Node1&#45;&gt;Node4 -->
<g id="edge3" class="edge"><title>Node1&#45;&gt;Node4</title>
<path fill="none" stroke="midnightblue" d="M235.382,-56.9327C218.3,-47.1715 195.67,-34.2401 178.775,-24.5856"/>
<polygon fill="midnightblue" stroke="midnightblue" points="180.469,-21.5226 170.05,-19.6 176.996,-27.6003 180.469,-21.5226"/>
</g>
<!-- Node5 -->
<g id="node5" class="node"><title>Node5</title>
<polygon fill="white" stroke="#bfbfbf" points="197,-0.5 197,-19.5 241,-19.5 241,-0.5 197,-0.5"/>
<text text-anchor="middle" x="219" y="-7.5" font-family="Helvetica,sans-Serif" font-size="10.00">time.h</text>
</g>
<!-- Node1&#45;&gt;Node5 -->
<g id="edge4" class="edge"><title>Node1&#45;&gt;Node5</title>
<path fill="none" stroke="midnightblue" d="M250.284,-56.7808C244.387,-48.152 236.827,-37.0882 230.616,-27.9987"/>
<polygon fill="midnightblue" stroke="midnightblue" points="233.498,-26.0123 224.966,-19.7305 227.718,-29.9617 233.498,-26.0123"/>
</g>
<!-- Node6 -->
<g id="node6" class="node"><title>Node6</title>
<polygon fill="white" stroke="#bfbfbf" points="259.5,-0.5 259.5,-19.5 344.5,-19.5 344.5,-0.5 259.5,-0.5"/>
<text text-anchor="middle" x="302" y="-7.5" font-family="Helvetica,sans-Serif" font-size="10.00">CAENVMElib.h</text>
</g>
<!-- Node1&#45;&gt;Node6 -->
<g id="edge5" class="edge"><title>Node1&#45;&gt;Node6</title>
<path fill="none" stroke="midnightblue" d="M269.953,-56.7808C275.994,-48.152 283.738,-37.0882 290.101,-27.9987"/>
<polygon fill="midnightblue" stroke="midnightblue" points="293.021,-29.93 295.889,-19.7305 287.287,-25.9157 293.021,-29.93"/>
</g>
<!-- Node7 -->
<g id="node7" class="node"><title>Node7</title>
<polygon fill="white" stroke="#bfbfbf" points="363,-0.5 363,-19.5 407,-19.5 407,-0.5 363,-0.5"/>
<text text-anchor="middle" x="385" y="-7.5" font-family="Helvetica,sans-Serif" font-size="10.00">vector</text>
</g>
<!-- Node1&#45;&gt;Node7 -->
<g id="edge6" class="edge"><title>Node1&#45;&gt;Node7</title>
<path fill="none" stroke="midnightblue" d="M289.307,-56.9327C310.019,-46.9907 337.583,-33.7601 357.807,-24.0526"/>
<polygon fill="midnightblue" stroke="midnightblue" points="359.583,-27.0827 367.083,-19.6 356.553,-20.7721 359.583,-27.0827"/>
</g>
<!-- Node8 -->
<g id="node8" class="node"><title>Node8</title>
<polygon fill="white" stroke="#bfbfbf" points="425,-0.5 425,-19.5 477,-19.5 477,-0.5 425,-0.5"/>
<text text-anchor="middle" x="451" y="-7.5" font-family="Helvetica,sans-Serif" font-size="10.00">memory</text>
</g>
<!-- Node1&#45;&gt;Node8 -->
<g id="edge7" class="edge"><title>Node1&#45;&gt;Node8</title>
<path fill="none" stroke="midnightblue" d="M304.781,-56.9327C338.41,-46.3686 383.859,-32.0914 415.113,-22.2734"/>
<polygon fill="midnightblue" stroke="midnightblue" points="416.237,-25.5889 424.729,-19.2527 414.139,-18.9107 416.237,-25.5889"/>
</g>
<!-- Node9 -->
<g id="node9" class="node"><title>Node9</title>
<polygon fill="white" stroke="#bfbfbf" points="495.5,-0.5 495.5,-19.5 546.5,-19.5 546.5,-0.5 495.5,-0.5"/>
<text text-anchor="middle" x="521" y="-7.5" font-family="Helvetica,sans-Serif" font-size="10.00">typeinfo</text>
</g>
<!-- Node1&#45;&gt;Node9 -->
<g id="edge8" class="edge"><title>Node1&#45;&gt;Node9</title>
<path fill="none" stroke="midnightblue" d="M324.413,-56.9986C367.305,-47.5512 425.163,-34.5729 485.338,-20.1044"/>
<polygon fill="midnightblue" stroke="midnightblue" points="486.508,-23.4227 495.408,-17.6744 484.866,-16.618 486.508,-23.4227"/>
</g>
</g>
</svg>
