<?xml version="1.0" encoding="UTF-8" standalone="no"?>
<!DOCTYPE svg PUBLIC "-//W3C//DTD SVG 1.1//EN"
 "http://www.w3.org/Graphics/SVG/1.1/DTD/svg11.dtd">
<!-- Generated by graphviz version 2.36.0 (20140111.2315)
 -->
<!-- Title: charmemset Pages: 1 -->
<svg width="306pt" height="85pt"
 viewBox="0.00 0.00 306.00 85.00" xmlns="http://www.w3.org/2000/svg" xmlns:xlink="http://www.w3.org/1999/xlink">
<g id="graph0" class="graph" transform="scale(1 1) rotate(0) translate(4 81)">
<title>charmemset</title>
<polygon fill="white" stroke="none" points="-4,4 -4,-81 302,-81 302,4 -4,4"/>
<!-- Node1 -->
<g id="node1" class="node"><title>Node1</title>
<polygon fill="#bfbfbf" stroke="black" points="0.5,-19.5 0.5,-38.5 71.5,-38.5 71.5,-19.5 0.5,-19.5"/>
<text text-anchor="middle" x="36" y="-26.5" font-family="Helvetica,sans-Serif" font-size="10.00">charmemset</text>
</g>
<!-- Node2 -->
<g id="node2" class="node"><title>Node2</title>
<g id="a_node2"><a xlink:href="_c_d_a_q_2_plugins_2_source_2xml_parser_8cpp.xhtml#ae1b2fd77551f439e58967a80d09c59d1" target="_top" xlink:title="lengthXMLString">
<polygon fill="white" stroke="black" points="115.5,-57.5 115.5,-76.5 204.5,-76.5 204.5,-57.5 115.5,-57.5"/>
<text text-anchor="middle" x="160" y="-64.5" font-family="Helvetica,sans-Serif" font-size="10.00">lengthXMLString</text>
</a>
</g>
</g>
<!-- Node1&#45;&gt;Node2 -->
<g id="edge1" class="edge"><title>Node1&#45;&gt;Node2</title>
<path fill="none" stroke="midnightblue" d="M67.7858,-38.589C83.1013,-43.3594 101.817,-49.1888 118.3,-54.3229"/>
<polygon fill="midnightblue" stroke="midnightblue" points="117.636,-57.7818 128.224,-57.4141 119.717,-51.0985 117.636,-57.7818"/>
</g>
<!-- Node3 -->
<g id="node3" class="node"><title>Node3</title>
<g id="a_node3"><a xlink:href="_c_d_a_q_2_plugins_2_source_2xml_parser_8cpp.xhtml#a454fce17a610e83316f0df2534cd4e08" target="_top" xlink:title="toXMLStringUnSafe">
<polygon fill="white" stroke="black" points="108,-19.5 108,-38.5 212,-38.5 212,-19.5 108,-19.5"/>
<text text-anchor="middle" x="160" y="-26.5" font-family="Helvetica,sans-Serif" font-size="10.00">toXMLStringUnSafe</text>
</a>
</g>
</g>
<!-- Node1&#45;&gt;Node3 -->
<g id="edge2" class="edge"><title>Node1&#45;&gt;Node3</title>
<path fill="none" stroke="midnightblue" d="M71.634,-29C79.8234,-29 88.7978,-29 97.7787,-29"/>
<polygon fill="midnightblue" stroke="midnightblue" points="97.8796,-32.5001 107.88,-29 97.8796,-25.5001 97.8796,-32.5001"/>
</g>
<!-- Node4 -->
<g id="node4" class="node"><title>Node4</title>
<g id="a_node4"><a xlink:href="_c_d_a_q_2_plugins_2_source_2xml_parser_8cpp.xhtml#a73c2349b2f386ee50130a3961bd2dbab" target="_top" xlink:title="xstrcpy">
<polygon fill="white" stroke="black" points="248.5,-0.5 248.5,-19.5 297.5,-19.5 297.5,-0.5 248.5,-0.5"/>
<text text-anchor="middle" x="273" y="-7.5" font-family="Helvetica,sans-Serif" font-size="10.00">xstrcpy</text>
</a>
</g>
</g>
<!-- Node1&#45;&gt;Node4 -->
<g id="edge4" class="edge"><title>Node1&#45;&gt;Node4</title>
<path fill="none" stroke="midnightblue" d="M65.6717,-19.4965C78.4696,-15.7327 93.8306,-11.8631 108,-10 152.704,-4.12187 204.857,-5.51615 238.137,-7.43478"/>
<polygon fill="midnightblue" stroke="midnightblue" points="238.046,-10.9359 248.246,-8.06759 238.484,-3.94955 238.046,-10.9359"/>
</g>
<!-- Node3&#45;&gt;Node4 -->
<g id="edge3" class="edge"><title>Node3&#45;&gt;Node4</title>
<path fill="none" stroke="midnightblue" d="M212.276,-20.223C221.143,-18.7053 230.154,-17.1628 238.398,-15.7517"/>
<polygon fill="midnightblue" stroke="midnightblue" points="239.095,-19.1834 248.361,-14.0463 237.914,-12.2837 239.095,-19.1834"/>
</g>
</g>
</svg>
