<?xml version="1.0" encoding="UTF-8" standalone="no"?>
<!DOCTYPE svg PUBLIC "-//W3C//DTD SVG 1.1//EN"
 "http://www.w3.org/Graphics/SVG/1.1/DTD/svg11.dtd">
<!-- Generated by graphviz version 2.36.0 (20140111.2315)
 -->
<!-- Title: /data/Software/DAQ/CDAQ/Core/Source/VMEManager.cpp Pages: 1 -->
<svg width="632pt" height="96pt"
 viewBox="0.00 0.00 632.00 96.00" xmlns="http://www.w3.org/2000/svg" xmlns:xlink="http://www.w3.org/1999/xlink">
<g id="graph0" class="graph" transform="scale(1 1) rotate(0) translate(4 92)">
<title>/data/Software/DAQ/CDAQ/Core/Source/VMEManager.cpp</title>
<polygon fill="white" stroke="none" points="-4,4 -4,-92 628,-92 628,4 -4,4"/>
<!-- Node1 -->
<g id="node1" class="node"><title>Node1</title>
<polygon fill="#bfbfbf" stroke="black" points="200,-57 200,-87 388,-87 388,-57 200,-57"/>
<text text-anchor="start" x="208" y="-75" font-family="Helvetica,sans-Serif" font-size="10.00">/data/Software/DAQ</text>
<text text-anchor="middle" x="294" y="-64" font-family="Helvetica,sans-Serif" font-size="10.00">/CDAQ/Core/Source/VMEManager.cpp</text>
</g>
<!-- Node2 -->
<g id="node2" class="node"><title>Node2</title>
<polygon fill="white" stroke="#bfbfbf" points="0,-0.5 0,-19.5 50,-19.5 50,-0.5 0,-0.5"/>
<text text-anchor="middle" x="25" y="-7.5" font-family="Helvetica,sans-Serif" font-size="10.00">fstream</text>
</g>
<!-- Node1&#45;&gt;Node2 -->
<g id="edge1" class="edge"><title>Node1&#45;&gt;Node2</title>
<path fill="none" stroke="midnightblue" d="M225.432,-56.9699C180.847,-47.6496 121.231,-34.8182 60.0496,-20.1761"/>
<polygon fill="midnightblue" stroke="midnightblue" points="60.7602,-16.7473 50.2189,-17.8109 59.1227,-23.5531 60.7602,-16.7473"/>
</g>
<!-- Node3 -->
<g id="node3" class="node"><title>Node3</title>
<polygon fill="white" stroke="#bfbfbf" points="68,-0.5 68,-19.5 120,-19.5 120,-0.5 68,-0.5"/>
<text text-anchor="middle" x="94" y="-7.5" font-family="Helvetica,sans-Serif" font-size="10.00">sstream</text>
</g>
<!-- Node1&#45;&gt;Node3 -->
<g id="edge2" class="edge"><title>Node1&#45;&gt;Node3</title>
<path fill="none" stroke="midnightblue" d="M247.109,-56.9327C211.22,-46.1659 162.474,-31.5422 129.711,-21.7132"/>
<polygon fill="midnightblue" stroke="midnightblue" points="130.672,-18.3475 120.088,-18.8264 128.661,-25.0523 130.672,-18.3475"/>
</g>
<!-- Node4 -->
<g id="node4" class="node"><title>Node4</title>
<polygon fill="white" stroke="#bfbfbf" points="138,-0.5 138,-19.5 182,-19.5 182,-0.5 138,-0.5"/>
<text text-anchor="middle" x="160" y="-7.5" font-family="Helvetica,sans-Serif" font-size="10.00">vector</text>
</g>
<!-- Node1&#45;&gt;Node4 -->
<g id="edge3" class="edge"><title>Node1&#45;&gt;Node4</title>
<path fill="none" stroke="midnightblue" d="M262.583,-56.9327C240.177,-46.9004 210.293,-33.5193 188.562,-23.7888"/>
<polygon fill="midnightblue" stroke="midnightblue" points="189.764,-20.4923 179.207,-19.6 186.903,-26.8811 189.764,-20.4923"/>
</g>
<!-- Node5 -->
<g id="node5" class="node"><title>Node5</title>
<polygon fill="white" stroke="#bfbfbf" points="200.5,-0.5 200.5,-19.5 247.5,-19.5 247.5,-0.5 200.5,-0.5"/>
<text text-anchor="middle" x="224" y="-7.5" font-family="Helvetica,sans-Serif" font-size="10.00">iterator</text>
</g>
<!-- Node1&#45;&gt;Node5 -->
<g id="edge4" class="edge"><title>Node1&#45;&gt;Node5</title>
<path fill="none" stroke="midnightblue" d="M277.411,-56.7808C266.715,-47.6127 252.812,-35.6957 241.872,-26.3186"/>
<polygon fill="midnightblue" stroke="midnightblue" points="244.056,-23.5811 234.186,-19.7305 239.5,-28.8959 244.056,-23.5811"/>
</g>
<!-- Node6 -->
<g id="node6" class="node"><title>Node6</title>
<polygon fill="white" stroke="#bfbfbf" points="266,-0.5 266,-19.5 322,-19.5 322,-0.5 266,-0.5"/>
<text text-anchor="middle" x="294" y="-7.5" font-family="Helvetica,sans-Serif" font-size="10.00">algorithm</text>
</g>
<!-- Node1&#45;&gt;Node6 -->
<g id="edge5" class="edge"><title>Node1&#45;&gt;Node6</title>
<path fill="none" stroke="midnightblue" d="M294,-56.7808C294,-48.7812 294,-38.6887 294,-30.0168"/>
<polygon fill="midnightblue" stroke="midnightblue" points="297.5,-29.7305 294,-19.7305 290.5,-29.7306 297.5,-29.7305"/>
</g>
<!-- Node7 -->
<g id="node7" class="node"><title>Node7</title>
<polygon fill="white" stroke="#bfbfbf" points="340,-0.5 340,-19.5 394,-19.5 394,-0.5 340,-0.5"/>
<text text-anchor="middle" x="367" y="-7.5" font-family="Helvetica,sans-Serif" font-size="10.00">iostream</text>
</g>
<!-- Node1&#45;&gt;Node7 -->
<g id="edge6" class="edge"><title>Node1&#45;&gt;Node7</title>
<path fill="none" stroke="midnightblue" d="M311.3,-56.7808C322.455,-47.6127 336.954,-35.6957 348.362,-26.3186"/>
<polygon fill="midnightblue" stroke="midnightblue" points="350.875,-28.7841 356.378,-19.7305 346.43,-23.3763 350.875,-28.7841"/>
</g>
<!-- Node8 -->
<g id="node8" class="node"><title>Node8</title>
<polygon fill="white" stroke="#bfbfbf" points="412.5,-0.5 412.5,-19.5 453.5,-19.5 453.5,-0.5 412.5,-0.5"/>
<text text-anchor="middle" x="433" y="-7.5" font-family="Helvetica,sans-Serif" font-size="10.00">string</text>
</g>
<!-- Node1&#45;&gt;Node8 -->
<g id="edge7" class="edge"><title>Node1&#45;&gt;Node8</title>
<path fill="none" stroke="midnightblue" d="M326.589,-56.9327C349.936,-46.8552 381.11,-33.3986 403.677,-23.6575"/>
<polygon fill="midnightblue" stroke="midnightblue" points="405.283,-26.7766 413.077,-19.6 402.508,-20.3498 405.283,-26.7766"/>
</g>
<!-- Node9 -->
<g id="node9" class="node"><title>Node9</title>
<polygon fill="white" stroke="#bfbfbf" points="472,-0.5 472,-19.5 556,-19.5 556,-0.5 472,-0.5"/>
<text text-anchor="middle" x="514" y="-7.5" font-family="Helvetica,sans-Serif" font-size="10.00">VMEManager.h</text>
</g>
<!-- Node1&#45;&gt;Node9 -->
<g id="edge8" class="edge"><title>Node1&#45;&gt;Node9</title>
<path fill="none" stroke="midnightblue" d="M345.58,-56.9327C384.47,-46.3264 437.083,-31.9772 473.095,-22.1559"/>
<polygon fill="midnightblue" stroke="midnightblue" points="474.06,-25.5206 482.787,-19.5127 472.218,-18.7673 474.06,-25.5206"/>
</g>
<!-- Node10 -->
<g id="node10" class="node"><title>Node10</title>
<polygon fill="white" stroke="#bfbfbf" points="574,-0.5 574,-19.5 624,-19.5 624,-0.5 574,-0.5"/>
<text text-anchor="middle" x="599" y="-7.5" font-family="Helvetica,sans-Serif" font-size="10.00">global.h</text>
</g>
<!-- Node1&#45;&gt;Node10 -->
<g id="edge9" class="edge"><title>Node1&#45;&gt;Node10</title>
<path fill="none" stroke="midnightblue" d="M375.808,-56.9748C429.494,-47.42 501.141,-34.0031 564,-20 564.1,-19.9778 564.199,-19.9556 564.299,-19.9333"/>
<polygon fill="midnightblue" stroke="midnightblue" points="564.885,-23.3913 573.812,-17.6854 563.275,-16.5788 564.885,-23.3913"/>
</g>
</g>
</svg>
