<?xml version="1.0" encoding="UTF-8" standalone="no"?>
<!DOCTYPE svg PUBLIC "-//W3C//DTD SVG 1.1//EN"
 "http://www.w3.org/Graphics/SVG/1.1/DTD/svg11.dtd">
<!-- Generated by graphviz version 2.36.0 (20140111.2315)
 -->
<!-- Title: xstrlen Pages: 1 -->
<svg width="1180pt" height="933pt"
 viewBox="0.00 0.00 1180.00 933.00" xmlns="http://www.w3.org/2000/svg" xmlns:xlink="http://www.w3.org/1999/xlink">
<g id="graph0" class="graph" transform="scale(1 1) rotate(0) translate(4 929)">
<title>xstrlen</title>
<polygon fill="white" stroke="none" points="-4,4 -4,-929 1176,-929 1176,4 -4,4"/>
<!-- Node1 -->
<g id="node1" class="node"><title>Node1</title>
<polygon fill="#bfbfbf" stroke="black" points="0,-337.5 0,-356.5 46,-356.5 46,-337.5 0,-337.5"/>
<text text-anchor="middle" x="23" y="-344.5" font-family="Helvetica,sans-Serif" font-size="10.00">xstrlen</text>
</g>
<!-- Node2 -->
<g id="node2" class="node"><title>Node2</title>
<g id="a_node2"><a xlink:href="_c_d_a_q_2_plugins_2_source_2xml_parser_8cpp.xhtml#ad9a5c911a8e21bb89427d29d33e2797e" target="_top" xlink:title="myIsTextWideChar">
<polygon fill="white" stroke="black" points="256.5,-532.5 256.5,-551.5 357.5,-551.5 357.5,-532.5 256.5,-532.5"/>
<text text-anchor="middle" x="307" y="-539.5" font-family="Helvetica,sans-Serif" font-size="10.00">myIsTextWideChar</text>
</a>
</g>
</g>
<!-- Node1&#45;&gt;Node2 -->
<g id="edge1" class="edge"><title>Node1&#45;&gt;Node2</title>
<path fill="none" stroke="midnightblue" d="M26.6971,-366.859C31.8632,-396.99 46.032,-454.019 82,-485 130.799,-527.033 206.456,-538.766 256.113,-541.67"/>
<polygon fill="midnightblue" stroke="midnightblue" points="30.1191,-366.085 25.1312,-356.738 23.2014,-367.156 30.1191,-366.085"/>
</g>
<!-- Node20 -->
<g id="node20" class="node"><title>Node20</title>
<g id="a_node20"><a xlink:href="_c_d_a_q_2_plugins_2_source_2xml_parser_8cpp.xhtml#a8415cb910267a0487e1003a34069d012" target="_top" xlink:title="myRealloc">
<polygon fill="white" stroke="black" points="817.5,-0.5 817.5,-19.5 880.5,-19.5 880.5,-0.5 817.5,-0.5"/>
<text text-anchor="middle" x="849" y="-7.5" font-family="Helvetica,sans-Serif" font-size="10.00">myRealloc</text>
</a>
</g>
</g>
<!-- Node1&#45;&gt;Node20 -->
<g id="edge30" class="edge"><title>Node1&#45;&gt;Node20</title>
<path fill="none" stroke="midnightblue" d="M26.8173,-327.124C32.3179,-294.491 47.1462,-228.906 82,-186 155.727,-95.2396 189.068,-48 306,-48 306,-48 306,-48 484,-48 608.217,-48 754.995,-25.8386 817.433,-15.3639"/>
<polygon fill="midnightblue" stroke="midnightblue" points="23.3286,-326.781 25.2431,-337.201 30.2447,-327.861 23.3286,-326.781"/>
</g>
<!-- Node21 -->
<g id="node21" class="node"><title>Node21</title>
<g id="a_node21"><a xlink:href="_c_d_a_q_2_plugins_2_source_2xml_parser_8cpp.xhtml#aead5c47bfd6039cbcc995ac39d52283e" target="_top" xlink:title="myTagCompare">
<polygon fill="white" stroke="black" points="102,-195.5 102,-214.5 188,-214.5 188,-195.5 102,-195.5"/>
<text text-anchor="middle" x="145" y="-202.5" font-family="Helvetica,sans-Serif" font-size="10.00">myTagCompare</text>
</a>
</g>
</g>
<!-- Node1&#45;&gt;Node21 -->
<g id="edge31" class="edge"><title>Node1&#45;&gt;Node21</title>
<path fill="none" stroke="midnightblue" d="M38.2827,-329.187C49.9257,-314.746 66.8604,-293.923 82,-276 100.797,-253.747 123.429,-228.114 135.475,-214.56"/>
<polygon fill="midnightblue" stroke="midnightblue" points="35.321,-327.285 31.7805,-337.271 40.7755,-331.672 35.321,-327.285"/>
</g>
<!-- Node22 -->
<g id="node22" class="node"><title>Node22</title>
<g id="a_node22"><a xlink:href="_c_d_a_q_2_plugins_2_source_2xml_parser_8cpp.xhtml#ad7ec02a171e7641c1d364d5d367199a3" target="_top" xlink:title="myWideCharToMultiByte">
<polygon fill="white" stroke="black" points="82,-456.5 82,-475.5 208,-475.5 208,-456.5 82,-456.5"/>
<text text-anchor="middle" x="145" y="-463.5" font-family="Helvetica,sans-Serif" font-size="10.00">myWideCharToMultiByte</text>
</a>
</g>
</g>
<!-- Node1&#45;&gt;Node22 -->
<g id="edge33" class="edge"><title>Node1&#45;&gt;Node22</title>
<path fill="none" stroke="midnightblue" d="M40.9937,-363.852C66.5545,-389.2 114.062,-436.312 134.38,-456.46"/>
<polygon fill="midnightblue" stroke="midnightblue" points="43.3852,-361.295 33.8201,-356.738 38.4562,-366.265 43.3852,-361.295"/>
</g>
<!-- Node24 -->
<g id="node24" class="node"><title>Node24</title>
<g id="a_node24"><a xlink:href="struct_x_m_l_node.xhtml#acb95f4f00e4cf3756aac0e3a53765248" target="_top" xlink:title="XMLNode::parseString">
<polygon fill="white" stroke="black" points="249,-380.5 249,-399.5 365,-399.5 365,-380.5 249,-380.5"/>
<text text-anchor="middle" x="307" y="-387.5" font-family="Helvetica,sans-Serif" font-size="10.00">XMLNode::parseString</text>
</a>
</g>
</g>
<!-- Node1&#45;&gt;Node24 -->
<g id="edge38" class="edge"><title>Node1&#45;&gt;Node24</title>
<path fill="none" stroke="midnightblue" d="M56.014,-351.882C102.825,-359.019 190.682,-372.416 248.774,-381.274"/>
<polygon fill="midnightblue" stroke="midnightblue" points="56.5414,-348.422 46.1281,-350.374 55.4862,-355.342 56.5414,-348.422"/>
</g>
<!-- Node25 -->
<g id="node25" class="node"><title>Node25</title>
<g id="a_node25"><a xlink:href="_x_d_a_q_2_plugins_2_include_2xml_parser_8h.xhtml#aad53ec351482a517bd0aa7d2370dc909" target="_top" xlink:title="stringDup">
<polygon fill="white" stroke="black" points="632.5,-266.5 632.5,-285.5 691.5,-285.5 691.5,-266.5 632.5,-266.5"/>
<text text-anchor="middle" x="662" y="-273.5" font-family="Helvetica,sans-Serif" font-size="10.00">stringDup</text>
</a>
</g>
</g>
<!-- Node1&#45;&gt;Node25 -->
<g id="edge41" class="edge"><title>Node1&#45;&gt;Node25</title>
<path fill="none" stroke="midnightblue" d="M56.4911,-343.379C167.038,-331.057 527.52,-290.878 632.234,-279.206"/>
<polygon fill="midnightblue" stroke="midnightblue" points="55.8484,-339.928 46.2977,-344.515 56.6239,-346.885 55.8484,-339.928"/>
</g>
<!-- Node3 -->
<g id="node3" class="node"><title>Node3</title>
<g id="a_node3"><a xlink:href="_p_d_a_q_2_core_2_source_2xml_parser_8cpp.xhtml#a9a625f17c09a36e3ad532cdf16072609" target="_top" xlink:title="charmemset">
<polygon fill="white" stroke="black" points="985.5,-380.5 985.5,-399.5 1056.5,-399.5 1056.5,-380.5 985.5,-380.5"/>
<text text-anchor="middle" x="1021" y="-387.5" font-family="Helvetica,sans-Serif" font-size="10.00">charmemset</text>
</a>
</g>
</g>
<!-- Node2&#45;&gt;Node3 -->
<g id="edge2" class="edge"><title>Node2&#45;&gt;Node3</title>
<path fill="none" stroke="midnightblue" d="M367.738,-543.315C514.727,-546.109 885.561,-550.322 934,-523 983.576,-495.036 1009.21,-425.337 1017.2,-399.679"/>
<polygon fill="midnightblue" stroke="midnightblue" points="367.615,-539.812 357.549,-543.116 367.479,-546.81 367.615,-539.812"/>
</g>
<!-- Node4 -->
<g id="node4" class="node"><title>Node4</title>
<g id="a_node4"><a xlink:href="_p_d_a_q_2_core_2_source_2xml_parser_8cpp.xhtml#ae6aa5a367ab3cc92b47fd92f81add72a" target="_top" xlink:title="CountLinesAndColumns">
<polygon fill="white" stroke="black" points="601,-437.5 601,-456.5 723,-456.5 723,-437.5 601,-437.5"/>
<text text-anchor="middle" x="662" y="-444.5" font-family="Helvetica,sans-Serif" font-size="10.00">CountLinesAndColumns</text>
</a>
</g>
</g>
<!-- Node2&#45;&gt;Node4 -->
<g id="edge3" class="edge"><title>Node2&#45;&gt;Node4</title>
<path fill="none" stroke="midnightblue" d="M367.724,-530.899C419.166,-520.767 495.146,-504.435 560,-485 587.458,-476.772 618.171,-464.806 638.441,-456.508"/>
<polygon fill="midnightblue" stroke="midnightblue" points="366.918,-527.49 357.774,-532.842 368.259,-534.36 366.918,-527.49"/>
</g>
<!-- Node5 -->
<g id="node5" class="node"><title>Node5</title>
<g id="a_node5"><a xlink:href="struct_x_m_l_node.xhtml#a4496629c7a268db5435946c7bdd4eb28" target="_top" xlink:title="XMLNode::getError">
<polygon fill="white" stroke="black" points="432.5,-689.5 432.5,-708.5 533.5,-708.5 533.5,-689.5 432.5,-689.5"/>
<text text-anchor="middle" x="483" y="-696.5" font-family="Helvetica,sans-Serif" font-size="10.00">XMLNode::getError</text>
</a>
</g>
</g>
<!-- Node2&#45;&gt;Node5 -->
<g id="edge4" class="edge"><title>Node2&#45;&gt;Node5</title>
<path fill="none" stroke="midnightblue" d="M323.348,-559.189C342.046,-579.759 374.987,-614.827 406,-642 426.468,-659.934 452.124,-678.429 467.777,-689.312"/>
<polygon fill="midnightblue" stroke="midnightblue" points="325.771,-556.65 316.473,-551.571 320.574,-561.339 325.771,-556.65"/>
</g>
<!-- Node15 -->
<g id="node15" class="node"><title>Node15</title>
<g id="a_node15"><a xlink:href="_p_d_a_q_2_core_2_source_2xml_parser_8cpp.xhtml#ad9a5c911a8e21bb89427d29d33e2797e" target="_top" xlink:title="myIsTextWideChar">
<polygon fill="white" stroke="black" points="970.5,-905.5 970.5,-924.5 1071.5,-924.5 1071.5,-905.5 970.5,-905.5"/>
<text text-anchor="middle" x="1021" y="-912.5" font-family="Helvetica,sans-Serif" font-size="10.00">myIsTextWideChar</text>
</a>
</g>
</g>
<!-- Node2&#45;&gt;Node15 -->
<g id="edge25" class="edge"><title>Node2&#45;&gt;Node15</title>
<path fill="none" stroke="midnightblue" d="M315.607,-561.334C329.726,-595.572 362.543,-667.966 406,-718 475.48,-797.996 501.874,-813.347 596,-862 665.552,-897.951 686.618,-903.083 764,-915 834.942,-925.925 918.259,-923.066 970.103,-919.466"/>
<polygon fill="midnightblue" stroke="midnightblue" points="318.68,-559.597 311.691,-551.635 312.19,-562.218 318.68,-559.597"/>
</g>
<!-- Node18 -->
<g id="node18" class="node"><title>Node18</title>
<g id="a_node18"><a xlink:href="struct_x_m_l_node.xhtml#ac7af7e3bab8d21722dd4f191a4aa7c1d" target="_top" xlink:title="XMLNode::guessCharEncoding">
<polygon fill="white" stroke="black" points="406,-613.5 406,-632.5 560,-632.5 560,-613.5 406,-613.5"/>
<text text-anchor="middle" x="483" y="-620.5" font-family="Helvetica,sans-Serif" font-size="10.00">XMLNode::guessCharEncoding</text>
</a>
</g>
</g>
<!-- Node2&#45;&gt;Node18 -->
<g id="edge21" class="edge"><title>Node2&#45;&gt;Node18</title>
<path fill="none" stroke="midnightblue" d="M337.951,-555.943C373.199,-572.351 430.789,-599.161 461.383,-613.403"/>
<polygon fill="midnightblue" stroke="midnightblue" points="339.186,-552.657 328.643,-551.61 336.232,-559.003 339.186,-552.657"/>
</g>
<!-- Node19 -->
<g id="node19" class="node"><title>Node19</title>
<g id="a_node19"><a xlink:href="struct_x_m_l_node.xhtml#a5e5968e052d58350918cd91e3535624b" target="_top" xlink:title="XMLNode::parseFile">
<polygon fill="white" stroke="black" points="430,-456.5 430,-475.5 536,-475.5 536,-456.5 430,-456.5"/>
<text text-anchor="middle" x="483" y="-463.5" font-family="Helvetica,sans-Serif" font-size="10.00">XMLNode::parseFile</text>
</a>
</g>
</g>
<!-- Node2&#45;&gt;Node19 -->
<g id="edge26" class="edge"><title>Node2&#45;&gt;Node19</title>
<path fill="none" stroke="midnightblue" d="M347.391,-528.748C355.078,-525.611 362.938,-521.999 370,-518 387.639,-508.013 388.053,-499.422 406,-490 417.393,-484.018 430.539,-479.215 442.659,-475.524"/>
<polygon fill="midnightblue" stroke="midnightblue" points="345.878,-525.581 337.82,-532.461 348.409,-532.107 345.878,-525.581"/>
</g>
<!-- Node6 -->
<g id="node6" class="node"><title>Node6</title>
<g id="a_node6"><a xlink:href="struct_x_m_l_node.xhtml#acc044148e2b9b8264a320b7b6e398158" target="_top" xlink:title="XMLNode::openFileHelper">
<polygon fill="white" stroke="black" points="596.5,-689.5 596.5,-708.5 727.5,-708.5 727.5,-689.5 596.5,-689.5"/>
<text text-anchor="middle" x="662" y="-696.5" font-family="Helvetica,sans-Serif" font-size="10.00">XMLNode::openFileHelper</text>
</a>
</g>
</g>
<!-- Node5&#45;&gt;Node6 -->
<g id="edge5" class="edge"><title>Node5&#45;&gt;Node6</title>
<path fill="none" stroke="midnightblue" d="M544.042,-699C560.892,-699 579.282,-699 596.385,-699"/>
<polygon fill="midnightblue" stroke="midnightblue" points="543.775,-695.5 533.775,-699 543.775,-702.5 543.775,-695.5"/>
</g>
<!-- Node14 -->
<g id="node14" class="node"><title>Node14</title>
<g id="a_node14"><a xlink:href="_p_d_a_q_2_core_2_source_2xml_parser_8cpp.xhtml#af77e3e2685487b9c492b20c36f3b864a" target="_top" xlink:title="_strnicmp">
<polygon fill="white" stroke="black" points="819.5,-886.5 819.5,-905.5 878.5,-905.5 878.5,-886.5 819.5,-886.5"/>
<text text-anchor="middle" x="849" y="-893.5" font-family="Helvetica,sans-Serif" font-size="10.00">_strnicmp</text>
</a>
</g>
</g>
<!-- Node5&#45;&gt;Node14 -->
<g id="edge20" class="edge"><title>Node5&#45;&gt;Node14</title>
<path fill="none" stroke="midnightblue" d="M495.707,-716.944C514.005,-743.619 551.892,-793.629 596,-822 668.097,-868.373 770.207,-886.544 819.366,-892.926"/>
<polygon fill="midnightblue" stroke="midnightblue" points="498.554,-714.905 490.074,-708.555 492.743,-718.808 498.554,-714.905"/>
</g>
<!-- Node7 -->
<g id="node7" class="node"><title>Node7</title>
<g id="a_node7"><a xlink:href="class_a_d_c_manager1720.xhtml#aae342ccd8bf1c253c455e195bfd82dfe" target="_top" xlink:title="ADCManager1720::Init">
<polygon fill="white" stroke="black" points="791,-684.5 791,-703.5 907,-703.5 907,-684.5 791,-684.5"/>
<text text-anchor="middle" x="849" y="-691.5" font-family="Helvetica,sans-Serif" font-size="10.00">ADCManager1720::Init</text>
</a>
</g>
</g>
<!-- Node6&#45;&gt;Node7 -->
<g id="edge6" class="edge"><title>Node6&#45;&gt;Node7</title>
<path fill="none" stroke="midnightblue" d="M737.949,-696.974C755.557,-696.498 774.046,-695.999 790.736,-695.548"/>
<polygon fill="midnightblue" stroke="midnightblue" points="737.606,-693.482 727.704,-697.251 737.795,-700.48 737.606,-693.482"/>
</g>
<!-- Node8 -->
<g id="node8" class="node"><title>Node8</title>
<g id="a_node8"><a xlink:href="class_a_d_c_manager1724.xhtml#a6de2521b9c793edcf14aeaeefeb62787" target="_top" xlink:title="ADCManager1724::Init">
<polygon fill="white" stroke="black" points="791,-646.5 791,-665.5 907,-665.5 907,-646.5 791,-646.5"/>
<text text-anchor="middle" x="849" y="-653.5" font-family="Helvetica,sans-Serif" font-size="10.00">ADCManager1724::Init</text>
</a>
</g>
</g>
<!-- Node6&#45;&gt;Node8 -->
<g id="edge7" class="edge"><title>Node6&#45;&gt;Node8</title>
<path fill="none" stroke="midnightblue" d="M712.685,-687.08C729.022,-683.191 747.28,-678.877 764,-675 777.4,-671.893 792.017,-668.565 805.247,-665.576"/>
<polygon fill="midnightblue" stroke="midnightblue" points="711.707,-683.715 702.792,-689.439 713.331,-690.524 711.707,-683.715"/>
</g>
<!-- Node9 -->
<g id="node9" class="node"><title>Node9</title>
<g id="a_node9"><a xlink:href="class_a_d_c_manager1730.xhtml#adb6d45f2024f4a52d366a88d1c7f229d" target="_top" xlink:title="ADCManager1730::Init">
<polygon fill="white" stroke="black" points="791,-608.5 791,-627.5 907,-627.5 907,-608.5 791,-608.5"/>
<text text-anchor="middle" x="849" y="-615.5" font-family="Helvetica,sans-Serif" font-size="10.00">ADCManager1730::Init</text>
</a>
</g>
</g>
<!-- Node6&#45;&gt;Node9 -->
<g id="edge8" class="edge"><title>Node6&#45;&gt;Node9</title>
<path fill="none" stroke="midnightblue" d="M683.879,-683.338C703.576,-669.273 734.418,-649.039 764,-637 773.279,-633.224 783.454,-630.123 793.422,-627.602"/>
<polygon fill="midnightblue" stroke="midnightblue" points="681.688,-680.604 675.657,-689.315 685.804,-686.266 681.688,-680.604"/>
</g>
<!-- Node10 -->
<g id="node10" class="node"><title>Node10</title>
<g id="a_node10"><a xlink:href="class_scope_manager.xhtml#abe246d1b817d85a9cba7af3441a4df04" target="_top" xlink:title="ScopeManager::ShowEvent">
<polygon fill="white" stroke="black" points="780,-760.5 780,-779.5 918,-779.5 918,-760.5 780,-760.5"/>
<text text-anchor="middle" x="849" y="-767.5" font-family="Helvetica,sans-Serif" font-size="10.00">ScopeManager::ShowEvent</text>
</a>
</g>
</g>
<!-- Node6&#45;&gt;Node10 -->
<g id="edge9" class="edge"><title>Node6&#45;&gt;Node10</title>
<path fill="none" stroke="midnightblue" d="M689.963,-713.329C717.232,-727.747 756.415,-748.24 764,-751 774.257,-754.732 785.495,-757.88 796.32,-760.475"/>
<polygon fill="midnightblue" stroke="midnightblue" points="691.361,-710.109 680.886,-708.521 688.085,-716.294 691.361,-710.109"/>
</g>
<!-- Node12 -->
<g id="node12" class="node"><title>Node12</title>
<g id="a_node12"><a xlink:href="class_slowcontrol_manager.xhtml#a36ab5157f5a740b9058517b77d1ce38f" target="_top" xlink:title="SlowcontrolManager\l::ShowStatus">
<polygon fill="white" stroke="black" points="796.5,-837 796.5,-867 901.5,-867 901.5,-837 796.5,-837"/>
<text text-anchor="start" x="804.5" y="-855" font-family="Helvetica,sans-Serif" font-size="10.00">SlowcontrolManager</text>
<text text-anchor="middle" x="849" y="-844" font-family="Helvetica,sans-Serif" font-size="10.00">::ShowStatus</text>
</a>
</g>
</g>
<!-- Node6&#45;&gt;Node12 -->
<g id="edge11" class="edge"><title>Node6&#45;&gt;Node12</title>
<path fill="none" stroke="midnightblue" d="M699.544,-712.959C709.813,-718.288 720.273,-725.245 728,-734 757.328,-767.231 731.43,-796.939 764,-827 772.945,-835.256 784.502,-840.793 796.166,-844.505"/>
<polygon fill="midnightblue" stroke="midnightblue" points="700.783,-709.672 690.251,-708.518 697.764,-715.988 700.783,-709.672"/>
</g>
<!-- Node13 -->
<g id="node13" class="node"><title>Node13</title>
<g id="a_node13"><a xlink:href="class_storage_manager.xhtml#ab16a945d003852d02556daf3610a9aac" target="_top" xlink:title="StorageManager::SaveContainer">
<polygon fill="white" stroke="black" points="770,-798.5 770,-817.5 928,-817.5 928,-798.5 770,-798.5"/>
<text text-anchor="middle" x="849" y="-805.5" font-family="Helvetica,sans-Serif" font-size="10.00">StorageManager::SaveContainer</text>
</a>
</g>
</g>
<!-- Node6&#45;&gt;Node13 -->
<g id="edge13" class="edge"><title>Node6&#45;&gt;Node13</title>
<path fill="none" stroke="midnightblue" d="M696.583,-713.059C707.367,-718.579 718.871,-725.621 728,-734 749.524,-753.755 740.001,-772.339 764,-789 769.527,-792.837 775.706,-795.912 782.138,-798.375"/>
<polygon fill="midnightblue" stroke="midnightblue" points="697.897,-709.807 687.37,-708.605 694.85,-716.109 697.897,-709.807"/>
</g>
<!-- Node6&#45;&gt;Node14 -->
<g id="edge15" class="edge"><title>Node6&#45;&gt;Node14</title>
<path fill="none" stroke="midnightblue" d="M701.259,-712.939C711.203,-718.186 721.058,-725.103 728,-734 768.051,-785.332 717.628,-830.298 764,-876 778.414,-890.206 800.985,-894.991 819.102,-896.34"/>
<polygon fill="midnightblue" stroke="midnightblue" points="702.712,-709.754 692.183,-708.581 699.682,-716.065 702.712,-709.754"/>
</g>
<!-- Node16 -->
<g id="node16" class="node"><title>Node16</title>
<g id="a_node16"><a xlink:href="_p_d_a_q_2_core_2_source_2xml_8cpp.xhtml#a8251b051736c5146c1985edc6cb357e6" target="_top" xlink:title="xml_readsettings">
<polygon fill="white" stroke="black" points="803.5,-722.5 803.5,-741.5 894.5,-741.5 894.5,-722.5 803.5,-722.5"/>
<text text-anchor="middle" x="849" y="-729.5" font-family="Helvetica,sans-Serif" font-size="10.00">xml_readsettings</text>
</a>
</g>
</g>
<!-- Node6&#45;&gt;Node16 -->
<g id="edge18" class="edge"><title>Node6&#45;&gt;Node16</title>
<path fill="none" stroke="midnightblue" d="M726.401,-710.309C751.72,-714.826 780.278,-719.92 803.353,-724.036"/>
<polygon fill="midnightblue" stroke="midnightblue" points="726.969,-706.856 716.51,-708.545 725.74,-713.747 726.969,-706.856"/>
</g>
<!-- Node11 -->
<g id="node11" class="node"><title>Node11</title>
<g id="a_node11"><a xlink:href="_multi_d_a_q_8cpp.xhtml#adedb285b02c41bde2158ded9cc9fd7ac" target="_top" xlink:title="main">
<polygon fill="white" stroke="black" points="1002,-798.5 1002,-817.5 1040,-817.5 1040,-798.5 1002,-798.5"/>
<text text-anchor="middle" x="1021" y="-805.5" font-family="Helvetica,sans-Serif" font-size="10.00">main</text>
</a>
</g>
</g>
<!-- Node10&#45;&gt;Node11 -->
<g id="edge10" class="edge"><title>Node10&#45;&gt;Node11</title>
<path fill="none" stroke="midnightblue" d="M902.676,-781.775C936.576,-789.352 978.536,-798.732 1001.98,-803.972"/>
<polygon fill="midnightblue" stroke="midnightblue" points="903.421,-778.355 892.898,-779.589 901.894,-785.186 903.421,-778.355"/>
</g>
<!-- Node12&#45;&gt;Node11 -->
<g id="edge12" class="edge"><title>Node12&#45;&gt;Node11</title>
<path fill="none" stroke="midnightblue" d="M911.684,-836.035C943.683,-827.753 980.459,-818.234 1001.88,-812.691"/>
<polygon fill="midnightblue" stroke="midnightblue" points="910.733,-832.665 901.929,-838.559 912.487,-839.442 910.733,-832.665"/>
</g>
<!-- Node13&#45;&gt;Node11 -->
<g id="edge14" class="edge"><title>Node13&#45;&gt;Node11</title>
<path fill="none" stroke="midnightblue" d="M938.335,-808C962.372,-808 986.053,-808 1001.67,-808"/>
<polygon fill="midnightblue" stroke="midnightblue" points="938.034,-804.5 928.034,-808 938.034,-811.5 938.034,-804.5"/>
</g>
<!-- Node14&#45;&gt;Node3 -->
<g id="edge17" class="edge"><title>Node14&#45;&gt;Node3</title>
<path fill="none" stroke="midnightblue" d="M889.088,-895.704C905.099,-893.528 922.526,-888.167 934,-876 951.195,-857.766 1008.81,-466.808 1018.58,-399.747"/>
<polygon fill="midnightblue" stroke="midnightblue" points="888.456,-892.249 878.847,-896.714 889.142,-899.216 888.456,-892.249"/>
</g>
<!-- Node14&#45;&gt;Node15 -->
<g id="edge16" class="edge"><title>Node14&#45;&gt;Node15</title>
<path fill="none" stroke="midnightblue" d="M889.055,-900.365C913.205,-903.064 944.429,-906.554 970.329,-909.449"/>
<polygon fill="midnightblue" stroke="midnightblue" points="889.165,-896.856 878.838,-899.223 888.388,-903.812 889.165,-896.856"/>
</g>
<!-- Node17 -->
<g id="node17" class="node"><title>Node17</title>
<g id="a_node17"><a xlink:href="_z_d_a_q_8cpp.xhtml#a0ddf1224851353fc92bfbff6f499fa97" target="_top" xlink:title="main">
<polygon fill="white" stroke="black" points="1002,-722.5 1002,-741.5 1040,-741.5 1040,-722.5 1002,-722.5"/>
<text text-anchor="middle" x="1021" y="-729.5" font-family="Helvetica,sans-Serif" font-size="10.00">main</text>
</a>
</g>
</g>
<!-- Node16&#45;&gt;Node17 -->
<g id="edge19" class="edge"><title>Node16&#45;&gt;Node17</title>
<path fill="none" stroke="midnightblue" d="M904.801,-732C938.294,-732 978.976,-732 1001.94,-732"/>
<polygon fill="midnightblue" stroke="midnightblue" points="904.666,-728.5 894.665,-732 904.665,-735.5 904.666,-728.5"/>
</g>
<!-- Node18&#45;&gt;Node3 -->
<g id="edge24" class="edge"><title>Node18&#45;&gt;Node3</title>
<path fill="none" stroke="midnightblue" d="M570.419,-614.397C692.781,-601.576 904.97,-576.738 934,-556 989.727,-516.191 1012.01,-429.235 1018.13,-399.894"/>
<polygon fill="midnightblue" stroke="midnightblue" points="569.902,-610.932 560.319,-615.45 570.628,-617.894 569.902,-610.932"/>
</g>
<!-- Node18&#45;&gt;Node6 -->
<g id="edge22" class="edge"><title>Node18&#45;&gt;Node6</title>
<path fill="none" stroke="midnightblue" d="M515.828,-636.666C551.302,-651.898 607.743,-676.133 638.765,-689.453"/>
<polygon fill="midnightblue" stroke="midnightblue" points="516.987,-633.355 506.417,-632.625 514.225,-639.787 516.987,-633.355"/>
</g>
<!-- Node18&#45;&gt;Node14 -->
<g id="edge23" class="edge"><title>Node18&#45;&gt;Node14</title>
<path fill="none" stroke="midnightblue" d="M510.669,-638.14C526.665,-648.303 546.464,-662.932 560,-680 584.732,-711.185 568.038,-733.674 596,-762 641.272,-807.862 678.907,-780.253 728,-822 749.974,-840.686 740.329,-859.517 764,-876 780.239,-887.308 802.064,-892.272 819.398,-894.428"/>
<polygon fill="midnightblue" stroke="midnightblue" points="512.122,-634.926 501.767,-632.688 508.466,-640.895 512.122,-634.926"/>
</g>
<!-- Node19&#45;&gt;Node4 -->
<g id="edge29" class="edge"><title>Node19&#45;&gt;Node4</title>
<path fill="none" stroke="midnightblue" d="M546.361,-459.306C564.049,-457.407 583.266,-455.344 600.821,-453.46"/>
<polygon fill="midnightblue" stroke="midnightblue" points="545.718,-455.855 536.149,-460.402 546.465,-462.815 545.718,-455.855"/>
</g>
<!-- Node19&#45;&gt;Node6 -->
<g id="edge27" class="edge"><title>Node19&#45;&gt;Node6</title>
<path fill="none" stroke="midnightblue" d="M497.629,-483.941C532.944,-530.43 626.548,-653.648 653.588,-689.243"/>
<polygon fill="midnightblue" stroke="midnightblue" points="500.216,-481.561 491.38,-475.715 494.642,-485.795 500.216,-481.561"/>
</g>
<!-- Node19&#45;&gt;Node14 -->
<g id="edge28" class="edge"><title>Node19&#45;&gt;Node14</title>
<path fill="none" stroke="midnightblue" d="M495.707,-484.449C511.793,-510.374 540.904,-559.411 560,-604 580.918,-652.842 558.729,-680.132 596,-718 639.379,-762.073 684.621,-717.927 728,-762 765.271,-799.868 725.099,-839.809 764,-876 778.817,-889.785 801.366,-894.593 819.372,-896.058"/>
<polygon fill="midnightblue" stroke="midnightblue" points="498.502,-482.319 490.228,-475.703 492.57,-486.035 498.502,-482.319"/>
</g>
<!-- Node21&#45;&gt;Node20 -->
<g id="edge32" class="edge"><title>Node21&#45;&gt;Node20</title>
<path fill="none" stroke="midnightblue" d="M198.119,-200.897C303.839,-190.763 548.67,-157.984 728,-62 747.136,-51.7575 744.77,-39.0652 764,-29 780.426,-20.4024 800.647,-15.676 817.134,-13.0877"/>
<polygon fill="midnightblue" stroke="midnightblue" points="197.661,-197.424 188.028,-201.835 198.309,-204.394 197.661,-197.424"/>
</g>
<!-- Node22&#45;&gt;Node2 -->
<g id="edge35" class="edge"><title>Node22&#45;&gt;Node2</title>
<path fill="none" stroke="midnightblue" d="M171.572,-480.642C191.106,-491.562 218.858,-506.512 244,-518 255.338,-523.18 268.144,-528.261 279.162,-532.405"/>
<polygon fill="midnightblue" stroke="midnightblue" points="173.121,-477.497 162.69,-475.638 169.685,-483.596 173.121,-477.497"/>
</g>
<!-- Node22&#45;&gt;Node4 -->
<g id="edge34" class="edge"><title>Node22&#45;&gt;Node4</title>
<path fill="none" stroke="midnightblue" d="M195.649,-454.462C211.055,-451.399 228.15,-448.522 244,-447 370.473,-434.853 519.519,-439.361 600.749,-443.397"/>
<polygon fill="midnightblue" stroke="midnightblue" points="194.888,-451.045 185.799,-456.49 196.3,-457.902 194.888,-451.045"/>
</g>
<!-- Node22&#45;&gt;Node19 -->
<g id="edge37" class="edge"><title>Node22&#45;&gt;Node19</title>
<path fill="none" stroke="midnightblue" d="M195.649,-477.538C211.055,-480.601 228.15,-483.478 244,-485 299.743,-490.354 314.198,-489.7 370,-485 392.011,-483.146 416.2,-479.278 436.448,-475.512"/>
<polygon fill="midnightblue" stroke="midnightblue" points="196.3,-474.098 185.799,-475.51 194.888,-480.955 196.3,-474.098"/>
</g>
<!-- Node23 -->
<g id="node23" class="node"><title>Node23</title>
<g id="a_node23"><a xlink:href="_p_d_a_q_2_core_2_source_2xml_parser_8cpp.xhtml#ad7ec02a171e7641c1d364d5d367199a3" target="_top" xlink:title="myWideCharToMultiByte">
<polygon fill="white" stroke="black" points="244,-456.5 244,-475.5 370,-475.5 370,-456.5 244,-456.5"/>
<text text-anchor="middle" x="307" y="-463.5" font-family="Helvetica,sans-Serif" font-size="10.00">myWideCharToMultiByte</text>
</a>
</g>
</g>
<!-- Node22&#45;&gt;Node23 -->
<g id="edge36" class="edge"><title>Node22&#45;&gt;Node23</title>
<path fill="none" stroke="midnightblue" d="M218.545,-466C226.996,-466 235.559,-466 243.852,-466"/>
<polygon fill="midnightblue" stroke="midnightblue" points="218.318,-462.5 208.318,-466 218.318,-469.5 218.318,-462.5"/>
</g>
<!-- Node24&#45;&gt;Node4 -->
<g id="edge40" class="edge"><title>Node24&#45;&gt;Node4</title>
<path fill="none" stroke="midnightblue" d="M375.342,-392.374C426.448,-395.146 498.214,-401.129 560,-414 586.908,-419.605 616.708,-429.865 636.919,-437.462"/>
<polygon fill="midnightblue" stroke="midnightblue" points="375.25,-388.864 365.083,-391.845 374.89,-395.855 375.25,-388.864"/>
</g>
<!-- Node24&#45;&gt;Node19 -->
<g id="edge39" class="edge"><title>Node24&#45;&gt;Node19</title>
<path fill="none" stroke="midnightblue" d="M339.289,-403.666C374.161,-418.898 429.646,-443.133 460.142,-456.453"/>
<polygon fill="midnightblue" stroke="midnightblue" points="340.602,-400.421 330.037,-399.625 337.8,-406.836 340.602,-400.421"/>
</g>
<!-- Node25&#45;&gt;Node3 -->
<g id="edge50" class="edge"><title>Node25&#45;&gt;Node3</title>
<path fill="none" stroke="midnightblue" d="M683.253,-260.381C702.724,-246.424 733.603,-226.985 764,-219 837.076,-199.803 869.682,-179.353 934,-219 994.253,-256.141 1013.78,-349.856 1018.64,-380.291"/>
<polygon fill="midnightblue" stroke="midnightblue" points="681.128,-257.598 675.151,-266.347 685.279,-263.235 681.128,-257.598"/>
</g>
<!-- Node25&#45;&gt;Node20 -->
<g id="edge57" class="edge"><title>Node25&#45;&gt;Node20</title>
<path fill="none" stroke="midnightblue" d="M680.751,-258.878C695.616,-243.523 716.238,-219.67 728,-195 760.49,-126.856 710.856,-82.6181 764,-29 777.788,-15.0887 799.461,-10.4394 817.338,-9.21591"/>
<polygon fill="midnightblue" stroke="midnightblue" points="678.147,-256.532 673.579,-266.092 683.111,-261.467 678.147,-256.532"/>
</g>
<!-- Node26 -->
<g id="node26" class="node"><title>Node26</title>
<g id="a_node26"><a xlink:href="struct_x_m_l_node.xhtml#a7938c43648ce7ed32efc9f0a5e3b5d2c" target="_top" xlink:title="XMLNode::addAttribute">
<polygon fill="white" stroke="black" points="789.5,-152.5 789.5,-171.5 908.5,-171.5 908.5,-152.5 789.5,-152.5"/>
<text text-anchor="middle" x="849" y="-159.5" font-family="Helvetica,sans-Serif" font-size="10.00">XMLNode::addAttribute</text>
</a>
</g>
</g>
<!-- Node25&#45;&gt;Node26 -->
<g id="edge42" class="edge"><title>Node25&#45;&gt;Node26</title>
<path fill="none" stroke="midnightblue" d="M677.814,-258.738C696.103,-238.476 729.097,-205.208 764,-186 775.162,-179.858 788.042,-175.162 800.312,-171.625"/>
<polygon fill="midnightblue" stroke="midnightblue" points="675.128,-256.492 671.125,-266.302 680.371,-261.129 675.128,-256.492"/>
</g>
<!-- Node27 -->
<g id="node27" class="node"><title>Node27</title>
<g id="a_node27"><a xlink:href="struct_x_m_l_node.xhtml#a51baa56a48f69cdea6f41ed38a2cbadd" target="_top" xlink:title="XMLNode::addChild">
<polygon fill="white" stroke="black" points="797,-114.5 797,-133.5 901,-133.5 901,-114.5 797,-114.5"/>
<text text-anchor="middle" x="849" y="-121.5" font-family="Helvetica,sans-Serif" font-size="10.00">XMLNode::addChild</text>
</a>
</g>
</g>
<!-- Node25&#45;&gt;Node27 -->
<g id="edge44" class="edge"><title>Node25&#45;&gt;Node27</title>
<path fill="none" stroke="midnightblue" d="M677.721,-258.398C691.142,-242.179 711.354,-217.316 728,-195 744.807,-172.469 740.703,-158.729 764,-143 773.666,-136.474 785.239,-132.161 796.661,-129.318"/>
<polygon fill="midnightblue" stroke="midnightblue" points="674.73,-256.521 671.029,-266.449 680.113,-260.996 674.73,-256.521"/>
</g>
<!-- Node28 -->
<g id="node28" class="node"><title>Node28</title>
<g id="a_node28"><a xlink:href="struct_x_m_l_node.xhtml#ab933d009523f94a4fd1dee09e1a3c931" target="_top" xlink:title="XMLNode::addClear">
<polygon fill="white" stroke="black" points="796.5,-494.5 796.5,-513.5 901.5,-513.5 901.5,-494.5 796.5,-494.5"/>
<text text-anchor="middle" x="849" y="-501.5" font-family="Helvetica,sans-Serif" font-size="10.00">XMLNode::addClear</text>
</a>
</g>
</g>
<!-- Node25&#45;&gt;Node28 -->
<g id="edge46" class="edge"><title>Node25&#45;&gt;Node28</title>
<path fill="none" stroke="midnightblue" d="M671.085,-295.069C692.06,-344.18 747.724,-472.064 764,-485 773.247,-492.349 784.786,-496.972 796.322,-499.851"/>
<polygon fill="midnightblue" stroke="midnightblue" points="674.194,-293.438 667.057,-285.608 667.753,-296.18 674.194,-293.438"/>
</g>
<!-- Node29 -->
<g id="node29" class="node"><title>Node29</title>
<g id="a_node29"><a xlink:href="struct_x_m_l_node.xhtml#a1de718e237befa215381d294fc644f11" target="_top" xlink:title="XMLNode::addText">
<polygon fill="white" stroke="black" points="798.5,-456.5 798.5,-475.5 899.5,-475.5 899.5,-456.5 798.5,-456.5"/>
<text text-anchor="middle" x="849" y="-463.5" font-family="Helvetica,sans-Serif" font-size="10.00">XMLNode::addText</text>
</a>
</g>
</g>
<!-- Node25&#45;&gt;Node29 -->
<g id="edge48" class="edge"><title>Node25&#45;&gt;Node29</title>
<path fill="none" stroke="midnightblue" d="M668.728,-295.337C680.4,-331.216 710.469,-407.98 764,-447 773.908,-454.222 786.087,-458.767 798.065,-461.608"/>
<polygon fill="midnightblue" stroke="midnightblue" points="672.01,-294.106 665.69,-285.602 665.328,-296.191 672.01,-294.106"/>
</g>
<!-- Node30 -->
<g id="node30" class="node"><title>Node30</title>
<g id="a_node30"><a xlink:href="struct_x_m_l_node.xhtml#a6fe7676c3f08c3dab3faec106264d50d" target="_top" xlink:title="XMLNode::createXMLTopNode">
<polygon fill="white" stroke="black" points="772.5,-38.5 772.5,-57.5 925.5,-57.5 925.5,-38.5 772.5,-38.5"/>
<text text-anchor="middle" x="849" y="-45.5" font-family="Helvetica,sans-Serif" font-size="10.00">XMLNode::createXMLTopNode</text>
</a>
</g>
</g>
<!-- Node25&#45;&gt;Node30 -->
<g id="edge51" class="edge"><title>Node25&#45;&gt;Node30</title>
<path fill="none" stroke="midnightblue" d="M679.827,-259.18C694.446,-243.707 715.226,-219.508 728,-195 754.328,-144.49 723.594,-112.147 764,-72 770.348,-65.6929 778.231,-61.0181 786.606,-57.5584"/>
<polygon fill="midnightblue" stroke="midnightblue" points="677.251,-256.808 672.818,-266.432 682.285,-261.673 677.251,-256.808"/>
</g>
<!-- Node31 -->
<g id="node31" class="node"><title>Node31</title>
<g id="a_node31"><a xlink:href="_p_d_a_q_2_core_2_source_2xml_parser_8cpp.xhtml#acf103e2756ced6c7d3f14f38f198c920" target="_top" xlink:title="GetNextToken">
<polygon fill="white" stroke="black" points="981,-57.5 981,-76.5 1061,-76.5 1061,-57.5 981,-57.5"/>
<text text-anchor="middle" x="1021" y="-64.5" font-family="Helvetica,sans-Serif" font-size="10.00">GetNextToken</text>
</a>
</g>
</g>
<!-- Node25&#45;&gt;Node31 -->
<g id="edge56" class="edge"><title>Node25&#45;&gt;Node31</title>
<path fill="none" stroke="midnightblue" d="M679.267,-258.871C693.516,-243.193 714.067,-218.868 728,-195 749.719,-157.794 730.201,-131.713 764,-105 796.872,-79.0202 917.716,-70.7258 980.909,-68.1371"/>
<polygon fill="midnightblue" stroke="midnightblue" points="676.679,-256.515 672.459,-266.233 681.818,-261.268 676.679,-256.515"/>
</g>
<!-- Node33 -->
<g id="node33" class="node"><title>Node33</title>
<g id="a_node33"><a xlink:href="struct_x_m_l_node.xhtml#adb69f8d2db5997d84590ce3380e210f1" target="_top" xlink:title="XMLNode::deepCopy">
<polygon fill="white" stroke="black" points="794,-418.5 794,-437.5 904,-437.5 904,-418.5 794,-418.5"/>
<text text-anchor="middle" x="849" y="-425.5" font-family="Helvetica,sans-Serif" font-size="10.00">XMLNode::deepCopy</text>
</a>
</g>
</g>
<!-- Node25&#45;&gt;Node33 -->
<g id="edge54" class="edge"><title>Node25&#45;&gt;Node33</title>
<path fill="none" stroke="midnightblue" d="M671.763,-294.662C686.493,-323.884 719.074,-380.084 764,-409 772.927,-414.745 783.363,-418.765 793.785,-421.575"/>
<polygon fill="midnightblue" stroke="midnightblue" points="674.84,-292.988 667.306,-285.54 668.551,-296.061 674.84,-292.988"/>
</g>
<!-- Node34 -->
<g id="node34" class="node"><title>Node34</title>
<g id="a_node34"><a xlink:href="struct_x_m_l_node.xhtml#adfbd017929a40d6584350e7f3652fcbd" target="_top" xlink:title="XMLNode::updateAttribute">
<polygon fill="white" stroke="black" points="783,-380.5 783,-399.5 915,-399.5 915,-380.5 783,-380.5"/>
<text text-anchor="middle" x="849" y="-387.5" font-family="Helvetica,sans-Serif" font-size="10.00">XMLNode::updateAttribute</text>
</a>
</g>
</g>
<!-- Node25&#45;&gt;Node34 -->
<g id="edge58" class="edge"><title>Node25&#45;&gt;Node34</title>
<path fill="none" stroke="midnightblue" d="M676.596,-293.595C694.313,-315.249 727.384,-351.534 764,-371 771.261,-374.86 779.28,-377.939 787.395,-380.393"/>
<polygon fill="midnightblue" stroke="midnightblue" points="679.154,-291.189 670.178,-285.56 673.684,-295.557 679.154,-291.189"/>
</g>
<!-- Node35 -->
<g id="node35" class="node"><title>Node35</title>
<g id="a_node35"><a xlink:href="struct_x_m_l_node.xhtml#a4e1f2b9413ef0b87a073c861b1400d68" target="_top" xlink:title="XMLNode::updateAttribute_WOSD">
<polygon fill="white" stroke="black" points="764.5,-304.5 764.5,-323.5 933.5,-323.5 933.5,-304.5 764.5,-304.5"/>
<text text-anchor="middle" x="849" y="-311.5" font-family="Helvetica,sans-Serif" font-size="10.00">XMLNode::updateAttribute_WOSD</text>
</a>
</g>
</g>
<!-- Node25&#45;&gt;Node35 -->
<g id="edge60" class="edge"><title>Node25&#45;&gt;Node35</title>
<path fill="none" stroke="midnightblue" d="M701.678,-283.945C730.736,-289.913 770.662,-298.114 801.467,-304.442"/>
<polygon fill="midnightblue" stroke="midnightblue" points="702.001,-280.438 691.501,-281.854 700.592,-287.295 702.001,-280.438"/>
</g>
<!-- Node36 -->
<g id="node36" class="node"><title>Node36</title>
<g id="a_node36"><a xlink:href="struct_x_m_l_node.xhtml#a6b48e123943ea53272f6d4be33ca6d04" target="_top" xlink:title="XMLNode::updateClear">
<polygon fill="white" stroke="black" points="789.5,-342.5 789.5,-361.5 908.5,-361.5 908.5,-342.5 789.5,-342.5"/>
<text text-anchor="middle" x="849" y="-349.5" font-family="Helvetica,sans-Serif" font-size="10.00">XMLNode::updateClear</text>
</a>
</g>
</g>
<!-- Node25&#45;&gt;Node36 -->
<g id="edge61" class="edge"><title>Node25&#45;&gt;Node36</title>
<path fill="none" stroke="midnightblue" d="M685.69,-291.36C705.562,-304.176 735.62,-322.054 764,-333 773.765,-336.766 784.47,-339.894 794.872,-342.45"/>
<polygon fill="midnightblue" stroke="midnightblue" points="687.343,-288.259 677.062,-285.7 683.503,-294.112 687.343,-288.259"/>
</g>
<!-- Node37 -->
<g id="node37" class="node"><title>Node37</title>
<g id="a_node37"><a xlink:href="struct_x_m_l_node.xhtml#ae08b643a2b87a77bad3c70eb57ea3043" target="_top" xlink:title="XMLNode::updateName">
<polygon fill="white" stroke="black" points="788,-266.5 788,-285.5 910,-285.5 910,-266.5 788,-266.5"/>
<text text-anchor="middle" x="849" y="-273.5" font-family="Helvetica,sans-Serif" font-size="10.00">XMLNode::updateName</text>
</a>
</g>
</g>
<!-- Node25&#45;&gt;Node37 -->
<g id="edge63" class="edge"><title>Node25&#45;&gt;Node37</title>
<path fill="none" stroke="midnightblue" d="M701.641,-276C726.527,-276 759.394,-276 787.676,-276"/>
<polygon fill="midnightblue" stroke="midnightblue" points="701.501,-272.5 691.501,-276 701.501,-279.5 701.501,-272.5"/>
</g>
<!-- Node38 -->
<g id="node38" class="node"><title>Node38</title>
<g id="a_node38"><a xlink:href="struct_x_m_l_node.xhtml#aad04ffd86ca67253bbc81f941608f8d2" target="_top" xlink:title="XMLNode::updateText">
<polygon fill="white" stroke="black" points="791.5,-228.5 791.5,-247.5 906.5,-247.5 906.5,-228.5 791.5,-228.5"/>
<text text-anchor="middle" x="849" y="-235.5" font-family="Helvetica,sans-Serif" font-size="10.00">XMLNode::updateText</text>
</a>
</g>
</g>
<!-- Node25&#45;&gt;Node38 -->
<g id="edge65" class="edge"><title>Node25&#45;&gt;Node38</title>
<path fill="none" stroke="midnightblue" d="M701.678,-268.055C730.736,-262.087 770.662,-253.886 801.467,-247.558"/>
<polygon fill="midnightblue" stroke="midnightblue" points="700.592,-264.705 691.501,-270.146 702.001,-271.562 700.592,-264.705"/>
</g>
<!-- Node26&#45;&gt;Node3 -->
<g id="edge43" class="edge"><title>Node26&#45;&gt;Node3</title>
<path fill="none" stroke="midnightblue" d="M917.964,-175.418C923.768,-178.291 929.232,-181.775 934,-186 995.849,-240.803 1014.47,-347.443 1018.85,-380.195"/>
<polygon fill="midnightblue" stroke="midnightblue" points="919.184,-172.132 908.615,-171.387 916.412,-178.56 919.184,-172.132"/>
</g>
<!-- Node27&#45;&gt;Node3 -->
<g id="edge45" class="edge"><title>Node27&#45;&gt;Node3</title>
<path fill="none" stroke="midnightblue" d="M911.047,-130.019C919.453,-132.967 927.438,-137.138 934,-143 1008.33,-209.398 1018.42,-343.521 1019.79,-380.418"/>
<polygon fill="midnightblue" stroke="midnightblue" points="912.013,-126.655 901.431,-127.186 910.034,-133.37 912.013,-126.655"/>
</g>
<!-- Node28&#45;&gt;Node3 -->
<g id="edge47" class="edge"><title>Node28&#45;&gt;Node3</title>
<path fill="none" stroke="midnightblue" d="M911.329,-494.792C919.252,-492.277 927.025,-489.075 934,-485 971.65,-463.003 1002.06,-419.002 1014.25,-399.584"/>
<polygon fill="midnightblue" stroke="midnightblue" points="910.305,-491.444 901.634,-497.531 912.209,-498.18 910.305,-491.444"/>
</g>
<!-- Node29&#45;&gt;Node3 -->
<g id="edge49" class="edge"><title>Node29&#45;&gt;Node3</title>
<path fill="none" stroke="midnightblue" d="M909.574,-455.363C917.932,-453.057 926.292,-450.294 934,-447 962.989,-434.611 992.767,-412.315 1008.55,-399.591"/>
<polygon fill="midnightblue" stroke="midnightblue" points="908.623,-451.993 899.804,-457.864 910.359,-458.774 908.623,-451.993"/>
</g>
<!-- Node30&#45;&gt;Node31 -->
<g id="edge52" class="edge"><title>Node30&#45;&gt;Node31</title>
<path fill="none" stroke="midnightblue" d="M935.824,-57.592C951.476,-59.3415 967.092,-61.0867 980.546,-62.5905"/>
<polygon fill="midnightblue" stroke="midnightblue" points="935.881,-54.0768 925.554,-56.4443 935.104,-61.0335 935.881,-54.0768"/>
</g>
<!-- Node32 -->
<g id="node32" class="node"><title>Node32</title>
<g id="a_node32"><a xlink:href="_p_d_a_q_2_core_2_source_2xml_parser_8cpp.xhtml#a8415cb910267a0487e1003a34069d012" target="_top" xlink:title="myRealloc">
<polygon fill="white" stroke="black" points="1108.5,-57.5 1108.5,-76.5 1171.5,-76.5 1171.5,-57.5 1108.5,-57.5"/>
<text text-anchor="middle" x="1140" y="-64.5" font-family="Helvetica,sans-Serif" font-size="10.00">myRealloc</text>
</a>
</g>
</g>
<!-- Node31&#45;&gt;Node32 -->
<g id="edge53" class="edge"><title>Node31&#45;&gt;Node32</title>
<path fill="none" stroke="midnightblue" d="M1071.54,-67C1083.96,-67 1096.93,-67 1108.14,-67"/>
<polygon fill="midnightblue" stroke="midnightblue" points="1071.28,-63.5001 1061.28,-67 1071.28,-70.5001 1071.28,-63.5001"/>
</g>
<!-- Node33&#45;&gt;Node3 -->
<g id="edge55" class="edge"><title>Node33&#45;&gt;Node3</title>
<path fill="none" stroke="midnightblue" d="M902.926,-416.169C929.803,-410.162 961.694,-403.033 985.399,-397.734"/>
<polygon fill="midnightblue" stroke="midnightblue" points="901.894,-412.814 892.898,-418.411 903.421,-419.645 901.894,-412.814"/>
</g>
<!-- Node34&#45;&gt;Node3 -->
<g id="edge59" class="edge"><title>Node34&#45;&gt;Node3</title>
<path fill="none" stroke="midnightblue" d="M925.381,-390C946.212,-390 967.823,-390 985.123,-390"/>
<polygon fill="midnightblue" stroke="midnightblue" points="925.24,-386.5 915.24,-390 925.24,-393.5 925.24,-386.5"/>
</g>
<!-- Node36&#45;&gt;Node3 -->
<g id="edge62" class="edge"><title>Node36&#45;&gt;Node3</title>
<path fill="none" stroke="midnightblue" d="M902.926,-363.831C929.803,-369.838 961.694,-376.967 985.399,-382.266"/>
<polygon fill="midnightblue" stroke="midnightblue" points="903.421,-360.355 892.898,-361.589 901.894,-367.186 903.421,-360.355"/>
</g>
<!-- Node37&#45;&gt;Node3 -->
<g id="edge64" class="edge"><title>Node37&#45;&gt;Node3</title>
<path fill="none" stroke="midnightblue" d="M919.731,-288.174C924.702,-290.121 929.516,-292.38 934,-295 971.65,-316.997 1002.06,-360.998 1014.25,-380.416"/>
<polygon fill="midnightblue" stroke="midnightblue" points="920.617,-284.777 910.022,-284.8 918.319,-291.389 920.617,-284.777"/>
</g>
<!-- Node38&#45;&gt;Node3 -->
<g id="edge66" class="edge"><title>Node38&#45;&gt;Node3</title>
<path fill="none" stroke="midnightblue" d="M916.606,-247.874C922.773,-250.295 928.691,-253.292 934,-257 980.44,-289.432 1007.83,-355.789 1016.75,-380.473"/>
<polygon fill="midnightblue" stroke="midnightblue" points="917.354,-244.432 906.759,-244.526 915.1,-251.059 917.354,-244.432"/>
</g>
</g>
</svg>
