<?xml version="1.0" encoding="UTF-8" standalone="no"?>
<!DOCTYPE svg PUBLIC "-//W3C//DTD SVG 1.1//EN"
 "http://www.w3.org/Graphics/SVG/1.1/DTD/svg11.dtd">
<!-- Generated by graphviz version 2.36.0 (20140111.2315)
 -->
<!-- Title: myWideCharToMultiByte Pages: 1 -->
<!--zoomable 428 -->
<svg id="main" version="1.1" xmlns="http://www.w3.org/2000/svg" xmlns:xlink="http://www.w3.org/1999/xlink" xml:space="preserve" onload="init(evt)">
<style type="text/css"><![CDATA[
.edge:hover path { stroke: red; }
.edge:hover polygon { stroke: red; fill: red; }
]]></style>
<script type="text/javascript"><![CDATA[
var edges = document.getElementsByTagName('g');
if (edges && edges.length) {
  for (var i=0;i<edges.length;i++) {
    if (edges[i].id.substr(0,4)=='edge') {
      edges[i].setAttribute('class','edge');
    }
  }
}
]]></script>
        <defs>
                <circle id="rim" cx="0" cy="0" r="7"/>
                <circle id="rim2" cx="0" cy="0" r="3.5"/>
                <g id="zoomPlus">
                        <use xlink:href="#rim" fill="#404040">
                                <set attributeName="fill" to="#808080" begin="zoomplus.mouseover" end="zoomplus.mouseout"/>
                        </use>
                        <path d="M-4,0h8M0,-4v8" fill="none" stroke="white" stroke-width="1.5" pointer-events="none"/>
                </g>
                <g id="zoomMin">
                        <use xlink:href="#rim" fill="#404040">
                                <set attributeName="fill" to="#808080" begin="zoomminus.mouseover" end="zoomminus.mouseout"/>
                        </use>
                        <path d="M-4,0h8" fill="none" stroke="white" stroke-width="1.5" pointer-events="none"/>
                </g>
                <g id="dirArrow">
                        <path fill="none" stroke="white" stroke-width="1.5" d="M0,-3.0v7 M-2.5,-0.5L0,-3.0L2.5,-0.5"/>
                </g>
               <g id="resetDef">
                       <use xlink:href="#rim2" fill="#404040">
                               <set attributeName="fill" to="#808080" begin="reset.mouseover" end="reset.mouseout"/>
                       </use>
               </g>
        </defs>

<script type="text/javascript">
var viewWidth = 986;
var viewHeight = 428;
var sectionId = 'dynsection-19';
</script>
<script xlink:href="svgpan.js"/>
<svg id="graph" class="graph">
<g id="viewport">
<title>myWideCharToMultiByte</title>
<polygon fill="white" stroke="none" points="-4,4 -4,-423.981 982,-423.981 982,4 -4,4"/>
<!-- Node1 -->
<g id="node1" class="node"><title>Node1</title>
<polygon fill="#bfbfbf" stroke="black" points="0,-180.481 0,-199.481 126,-199.481 126,-180.481 0,-180.481"/>
<text text-anchor="middle" x="63" y="-187.481" font-family="Helvetica,sans-Serif" font-size="10.00">myWideCharToMultiByte</text>
</g>
<!-- Node2 -->
<g id="node2" class="node"><title>Node2</title>
<g id="a_node2"><a xlink:href="_p_d_a_q_2_core_2_source_2xml_parser_8cpp.xhtml#ae6aa5a367ab3cc92b47fd92f81add72a" target="_top" xlink:title="CountLinesAndColumns">
<polygon fill="white" stroke="black" points="519,-275.481 519,-294.481 641,-294.481 641,-275.481 519,-275.481"/>
<text text-anchor="middle" x="580" y="-282.481" font-family="Helvetica,sans-Serif" font-size="10.00">CountLinesAndColumns</text>
</a>
</g>
</g>
<!-- Node1&#45;&gt;Node2 -->
<g id="edge1" class="edge"><title>Node1&#45;&gt;Node2</title>
<path fill="none" stroke="midnightblue" d="M101.845,-202.782C152.018,-219.215 243.599,-247.346 324,-261.981 390.035,-274.001 466.888,-279.843 518.822,-282.614"/>
<polygon fill="midnightblue" stroke="midnightblue" points="102.675,-199.371 92.0817,-199.561 100.481,-206.018 102.675,-199.371"/>
</g>
<!-- Node3 -->
<g id="node3" class="node"><title>Node3</title>
<g id="a_node3"><a xlink:href="_c_d_a_q_2_plugins_2_source_2xml_parser_8cpp.xhtml#ad9a5c911a8e21bb89427d29d33e2797e" target="_top" xlink:title="myIsTextWideChar">
<polygon fill="white" stroke="black" points="174.5,-161.481 174.5,-180.481 275.5,-180.481 275.5,-161.481 174.5,-161.481"/>
<text text-anchor="middle" x="225" y="-168.481" font-family="Helvetica,sans-Serif" font-size="10.00">myIsTextWideChar</text>
</a>
</g>
</g>
<!-- Node1&#45;&gt;Node3 -->
<g id="edge2" class="edge"><title>Node1&#45;&gt;Node3</title>
<path fill="none" stroke="midnightblue" d="M136.531,-181.368C149.365,-179.844 162.459,-178.289 174.474,-176.862"/>
<polygon fill="midnightblue" stroke="midnightblue" points="135.836,-177.926 126.318,-182.581 136.661,-184.877 135.836,-177.926"/>
</g>
<!-- Node19 -->
<g id="node19" class="node"><title>Node19</title>
<g id="a_node19"><a xlink:href="struct_x_m_l_node.xhtml#a5e5968e052d58350918cd91e3535624b" target="_top" xlink:title="XMLNode::parseFile">
<polygon fill="white" stroke="black" points="348,-199.481 348,-218.481 454,-218.481 454,-199.481 348,-199.481"/>
<text text-anchor="middle" x="401" y="-206.481" font-family="Helvetica,sans-Serif" font-size="10.00">XMLNode::parseFile</text>
</a>
</g>
</g>
<!-- Node1&#45;&gt;Node19 -->
<g id="edge32" class="edge"><title>Node1&#45;&gt;Node19</title>
<path fill="none" stroke="midnightblue" d="M136.391,-194.075C200.085,-197.677 291.265,-202.833 347.986,-206.04"/>
<polygon fill="midnightblue" stroke="midnightblue" points="136.201,-190.559 126.019,-193.488 135.806,-197.547 136.201,-190.559"/>
</g>
<!-- Node20 -->
<g id="node20" class="node"><title>Node20</title>
<g id="a_node20"><a xlink:href="_p_d_a_q_2_core_2_source_2xml_parser_8cpp.xhtml#ad7ec02a171e7641c1d364d5d367199a3" target="_top" xlink:title="myWideCharToMultiByte">
<polygon fill="white" stroke="black" points="162,-123.481 162,-142.481 288,-142.481 288,-123.481 162,-123.481"/>
<text text-anchor="middle" x="225" y="-130.481" font-family="Helvetica,sans-Serif" font-size="10.00">myWideCharToMultiByte</text>
</a>
</g>
</g>
<!-- Node1&#45;&gt;Node20 -->
<g id="edge31" class="edge"><title>Node1&#45;&gt;Node20</title>
<path fill="none" stroke="midnightblue" d="M96.566,-176.671C115.532,-169.091 139.976,-159.615 162,-151.981 171.467,-148.7 181.845,-145.404 191.357,-142.5"/>
<polygon fill="midnightblue" stroke="midnightblue" points="95.161,-173.463 87.1892,-180.442 97.773,-179.958 95.161,-173.463"/>
</g>
<!-- Node3&#45;&gt;Node2 -->
<g id="edge4" class="edge"><title>Node3&#45;&gt;Node2</title>
<path fill="none" stroke="midnightblue" d="M247.612,-186.173C266.842,-199.035 296.155,-217.073 324,-227.981 388.308,-253.173 466.318,-268.561 518.986,-276.896"/>
<polygon fill="midnightblue" stroke="midnightblue" points="249.516,-183.235 239.28,-180.5 245.576,-189.021 249.516,-183.235"/>
</g>
<!-- Node4 -->
<g id="node4" class="node"><title>Node4</title>
<g id="a_node4"><a xlink:href="_p_d_a_q_2_core_2_source_2xml_parser_8cpp.xhtml#a9a625f17c09a36e3ad532cdf16072609" target="_top" xlink:title="charmemset">
<polygon fill="white" stroke="black" points="891.5,-47.4812 891.5,-66.4812 962.5,-66.4812 962.5,-47.4812 891.5,-47.4812"/>
<text text-anchor="middle" x="927" y="-54.4812" font-family="Helvetica,sans-Serif" font-size="10.00">charmemset</text>
</a>
</g>
</g>
<!-- Node3&#45;&gt;Node4 -->
<g id="edge3" class="edge"><title>Node3&#45;&gt;Node4</title>
<path fill="none" stroke="midnightblue" d="M281.844,-156.634C284.017,-155.226 286.083,-153.68 288,-151.981 317.488,-125.858 291.368,-93.0529 324,-70.9812 508.445,53.7744 802.712,-19.3793 896.364,-47.4741"/>
<polygon fill="midnightblue" stroke="midnightblue" points="280.147,-153.573 273.017,-161.41 283.478,-159.73 280.147,-153.573"/>
</g>
<!-- Node5 -->
<g id="node5" class="node"><title>Node5</title>
<g id="a_node5"><a xlink:href="struct_x_m_l_node.xhtml#a4496629c7a268db5435946c7bdd4eb28" target="_top" xlink:title="XMLNode::getError">
<polygon fill="white" stroke="black" points="350.5,-161.481 350.5,-180.481 451.5,-180.481 451.5,-161.481 350.5,-161.481"/>
<text text-anchor="middle" x="401" y="-168.481" font-family="Helvetica,sans-Serif" font-size="10.00">XMLNode::getError</text>
</a>
</g>
</g>
<!-- Node3&#45;&gt;Node5 -->
<g id="edge5" class="edge"><title>Node3&#45;&gt;Node5</title>
<path fill="none" stroke="midnightblue" d="M285.97,-170.981C306.994,-170.981 330.356,-170.981 350.432,-170.981"/>
<polygon fill="midnightblue" stroke="midnightblue" points="285.861,-167.481 275.861,-170.981 285.861,-174.481 285.861,-167.481"/>
</g>
<!-- Node15 -->
<g id="node15" class="node"><title>Node15</title>
<g id="a_node15"><a xlink:href="_p_d_a_q_2_core_2_source_2xml_parser_8cpp.xhtml#ad9a5c911a8e21bb89427d29d33e2797e" target="_top" xlink:title="myIsTextWideChar">
<polygon fill="white" stroke="black" points="876.5,-104.481 876.5,-123.481 977.5,-123.481 977.5,-104.481 876.5,-104.481"/>
<text text-anchor="middle" x="927" y="-111.481" font-family="Helvetica,sans-Serif" font-size="10.00">myIsTextWideChar</text>
</a>
</g>
</g>
<!-- Node3&#45;&gt;Node15 -->
<g id="edge26" class="edge"><title>Node3&#45;&gt;Node15</title>
<path fill="none" stroke="midnightblue" d="M277.179,-157.669C280.946,-155.979 284.599,-154.09 288,-151.981 307.774,-139.724 302.629,-123.174 324,-113.981 522.259,-28.7038 792.373,-81.0029 889.419,-104.416"/>
<polygon fill="midnightblue" stroke="midnightblue" points="275.642,-154.514 267.652,-161.472 278.237,-161.015 275.642,-154.514"/>
</g>
<!-- Node18 -->
<g id="node18" class="node"><title>Node18</title>
<g id="a_node18"><a xlink:href="struct_x_m_l_node.xhtml#ac7af7e3bab8d21722dd4f191a4aa7c1d" target="_top" xlink:title="XMLNode::guessCharEncoding">
<polygon fill="white" stroke="black" points="324,-123.481 324,-142.481 478,-142.481 478,-123.481 324,-123.481"/>
<text text-anchor="middle" x="401" y="-130.481" font-family="Helvetica,sans-Serif" font-size="10.00">XMLNode::guessCharEncoding</text>
</a>
</g>
</g>
<!-- Node3&#45;&gt;Node18 -->
<g id="edge22" class="edge"><title>Node3&#45;&gt;Node18</title>
<path fill="none" stroke="midnightblue" d="M279.814,-159.229C304.418,-153.855 333.187,-147.573 356.408,-142.501"/>
<polygon fill="midnightblue" stroke="midnightblue" points="278.93,-155.839 269.908,-161.392 280.424,-162.678 278.93,-155.839"/>
</g>
<!-- Node3&#45;&gt;Node19 -->
<g id="edge27" class="edge"><title>Node3&#45;&gt;Node19</title>
<path fill="none" stroke="midnightblue" d="M279.814,-182.734C304.418,-188.107 333.187,-194.39 356.408,-199.461"/>
<polygon fill="midnightblue" stroke="midnightblue" points="280.424,-179.285 269.908,-180.57 278.93,-186.123 280.424,-179.285"/>
</g>
<!-- Node6 -->
<g id="node6" class="node"><title>Node6</title>
<g id="a_node6"><a xlink:href="struct_x_m_l_node.xhtml#acc044148e2b9b8264a320b7b6e398158" target="_top" xlink:title="XMLNode::openFileHelper">
<polygon fill="white" stroke="black" points="514.5,-237.481 514.5,-256.481 645.5,-256.481 645.5,-237.481 514.5,-237.481"/>
<text text-anchor="middle" x="580" y="-244.481" font-family="Helvetica,sans-Serif" font-size="10.00">XMLNode::openFileHelper</text>
</a>
</g>
</g>
<!-- Node5&#45;&gt;Node6 -->
<g id="edge6" class="edge"><title>Node5&#45;&gt;Node6</title>
<path fill="none" stroke="midnightblue" d="M458.279,-183.232C465.011,-185.229 471.719,-187.477 478,-189.981 510.73,-203.031 545.909,-224.875 564.894,-237.392"/>
<polygon fill="midnightblue" stroke="midnightblue" points="459.018,-179.804 448.445,-180.484 457.134,-186.546 459.018,-179.804"/>
</g>
<!-- Node14 -->
<g id="node14" class="node"><title>Node14</title>
<g id="a_node14"><a xlink:href="_p_d_a_q_2_core_2_source_2xml_parser_8cpp.xhtml#af77e3e2685487b9c492b20c36f3b864a" target="_top" xlink:title="_strnicmp">
<polygon fill="white" stroke="black" points="731.5,-123.481 731.5,-142.481 790.5,-142.481 790.5,-123.481 731.5,-123.481"/>
<text text-anchor="middle" x="761" y="-130.481" font-family="Helvetica,sans-Serif" font-size="10.00">_strnicmp</text>
</a>
</g>
</g>
<!-- Node5&#45;&gt;Node14 -->
<g id="edge21" class="edge"><title>Node5&#45;&gt;Node14</title>
<path fill="none" stroke="midnightblue" d="M461.765,-165.509C511.188,-160.886 583.198,-153.925 646,-146.981 675.135,-143.76 708.399,-139.622 731.444,-136.682"/>
<polygon fill="midnightblue" stroke="midnightblue" points="461.205,-162.046 451.573,-166.459 461.854,-169.015 461.205,-162.046"/>
</g>
<!-- Node7 -->
<g id="node7" class="node"><title>Node7</title>
<g id="a_node7"><a xlink:href="class_a_d_c_manager1720.xhtml#aae342ccd8bf1c253c455e195bfd82dfe" target="_top" xlink:title="ADCManager1720::Init">
<polygon fill="white" stroke="black" points="703,-237.481 703,-256.481 819,-256.481 819,-237.481 703,-237.481"/>
<text text-anchor="middle" x="761" y="-244.481" font-family="Helvetica,sans-Serif" font-size="10.00">ADCManager1720::Init</text>
</a>
</g>
</g>
<!-- Node6&#45;&gt;Node7 -->
<g id="edge7" class="edge"><title>Node6&#45;&gt;Node7</title>
<path fill="none" stroke="midnightblue" d="M655.85,-246.981C671.58,-246.981 687.93,-246.981 702.887,-246.981"/>
<polygon fill="midnightblue" stroke="midnightblue" points="655.623,-243.481 645.623,-246.981 655.623,-250.481 655.623,-243.481"/>
</g>
<!-- Node8 -->
<g id="node8" class="node"><title>Node8</title>
<g id="a_node8"><a xlink:href="class_a_d_c_manager1724.xhtml#a6de2521b9c793edcf14aeaeefeb62787" target="_top" xlink:title="ADCManager1724::Init">
<polygon fill="white" stroke="black" points="703,-199.481 703,-218.481 819,-218.481 819,-199.481 703,-199.481"/>
<text text-anchor="middle" x="761" y="-206.481" font-family="Helvetica,sans-Serif" font-size="10.00">ADCManager1724::Init</text>
</a>
</g>
</g>
<!-- Node6&#45;&gt;Node8 -->
<g id="edge8" class="edge"><title>Node6&#45;&gt;Node8</title>
<path fill="none" stroke="midnightblue" d="M636.024,-235.3C661.408,-229.911 691.161,-223.595 715.156,-218.501"/>
<polygon fill="midnightblue" stroke="midnightblue" points="635.224,-231.892 626.169,-237.392 636.678,-238.739 635.224,-231.892"/>
</g>
<!-- Node9 -->
<g id="node9" class="node"><title>Node9</title>
<g id="a_node9"><a xlink:href="class_a_d_c_manager1730.xhtml#adb6d45f2024f4a52d366a88d1c7f229d" target="_top" xlink:title="ADCManager1730::Init">
<polygon fill="white" stroke="black" points="703,-161.481 703,-180.481 819,-180.481 819,-161.481 703,-161.481"/>
<text text-anchor="middle" x="761" y="-168.481" font-family="Helvetica,sans-Serif" font-size="10.00">ADCManager1730::Init</text>
</a>
</g>
</g>
<!-- Node6&#45;&gt;Node9 -->
<g id="edge9" class="edge"><title>Node6&#45;&gt;Node9</title>
<path fill="none" stroke="midnightblue" d="M624.034,-233.791C631.598,-230.725 639.213,-227.122 646,-222.981 664.529,-211.677 662.853,-200.205 682,-189.981 689.254,-186.108 697.307,-183.011 705.406,-180.538"/>
<polygon fill="midnightblue" stroke="midnightblue" points="622.658,-230.57 614.548,-237.388 625.139,-237.115 622.658,-230.57"/>
</g>
<!-- Node10 -->
<g id="node10" class="node"><title>Node10</title>
<g id="a_node10"><a xlink:href="class_scope_manager.xhtml#abe246d1b817d85a9cba7af3441a4df04" target="_top" xlink:title="ScopeManager::ShowEvent">
<polygon fill="white" stroke="black" points="692,-313.481 692,-332.481 830,-332.481 830,-313.481 692,-313.481"/>
<text text-anchor="middle" x="761" y="-320.481" font-family="Helvetica,sans-Serif" font-size="10.00">ScopeManager::ShowEvent</text>
</a>
</g>
</g>
<!-- Node6&#45;&gt;Node10 -->
<g id="edge10" class="edge"><title>Node6&#45;&gt;Node10</title>
<path fill="none" stroke="midnightblue" d="M634.691,-260.153C638.628,-261.874 642.445,-263.809 646,-265.981 665.853,-278.11 661.877,-292.307 682,-303.981 688.631,-307.828 696.013,-310.899 703.517,-313.349"/>
<polygon fill="midnightblue" stroke="midnightblue" points="635.939,-256.883 625.35,-256.511 633.396,-263.405 635.939,-256.883"/>
</g>
<!-- Node12 -->
<g id="node12" class="node"><title>Node12</title>
<g id="a_node12"><a xlink:href="class_slowcontrol_manager.xhtml#a36ab5157f5a740b9058517b77d1ce38f" target="_top" xlink:title="SlowcontrolManager\l::ShowStatus">
<polygon fill="white" stroke="black" points="708.5,-389.981 708.5,-419.981 813.5,-419.981 813.5,-389.981 708.5,-389.981"/>
<text text-anchor="start" x="716.5" y="-407.981" font-family="Helvetica,sans-Serif" font-size="10.00">SlowcontrolManager</text>
<text text-anchor="middle" x="761" y="-396.981" font-family="Helvetica,sans-Serif" font-size="10.00">::ShowStatus</text>
</a>
</g>
</g>
<!-- Node6&#45;&gt;Node12 -->
<g id="edge12" class="edge"><title>Node6&#45;&gt;Node12</title>
<path fill="none" stroke="midnightblue" d="M641.266,-261.953C642.934,-263.192 644.519,-264.532 646,-265.981 683.972,-303.146 644.51,-342.33 682,-379.981 689.224,-387.236 698.555,-392.388 708.235,-396.046"/>
<polygon fill="midnightblue" stroke="midnightblue" points="642.706,-258.734 632.335,-256.567 639.091,-264.729 642.706,-258.734"/>
</g>
<!-- Node13 -->
<g id="node13" class="node"><title>Node13</title>
<g id="a_node13"><a xlink:href="class_storage_manager.xhtml#ab16a945d003852d02556daf3610a9aac" target="_top" xlink:title="StorageManager::SaveContainer">
<polygon fill="white" stroke="black" points="682,-351.481 682,-370.481 840,-370.481 840,-351.481 682,-351.481"/>
<text text-anchor="middle" x="761" y="-358.481" font-family="Helvetica,sans-Serif" font-size="10.00">StorageManager::SaveContainer</text>
</a>
</g>
</g>
<!-- Node6&#45;&gt;Node13 -->
<g id="edge14" class="edge"><title>Node6&#45;&gt;Node13</title>
<path fill="none" stroke="midnightblue" d="M639.616,-261.317C641.863,-262.728 644.004,-264.278 646,-265.981 674.432,-290.242 653.024,-318.373 682,-341.981 686.754,-345.855 692.178,-348.958 697.902,-351.442"/>
<polygon fill="midnightblue" stroke="midnightblue" points="640.994,-258.087 630.514,-256.532 637.737,-264.283 640.994,-258.087"/>
</g>
<!-- Node6&#45;&gt;Node14 -->
<g id="edge16" class="edge"><title>Node6&#45;&gt;Node14</title>
<path fill="none" stroke="midnightblue" d="M630.815,-233.136C636.298,-230.331 641.511,-226.979 646,-222.981 672.421,-199.45 654.273,-173.958 682,-151.981 695.981,-140.899 715.481,-136.149 731.486,-134.17"/>
<polygon fill="midnightblue" stroke="midnightblue" points="629.1,-230.069 621.412,-237.359 631.968,-236.455 629.1,-230.069"/>
</g>
<!-- Node16 -->
<g id="node16" class="node"><title>Node16</title>
<g id="a_node16"><a xlink:href="_p_d_a_q_2_core_2_source_2xml_8cpp.xhtml#a8251b051736c5146c1985edc6cb357e6" target="_top" xlink:title="xml_readsettings">
<polygon fill="white" stroke="black" points="715.5,-275.481 715.5,-294.481 806.5,-294.481 806.5,-275.481 715.5,-275.481"/>
<text text-anchor="middle" x="761" y="-282.481" font-family="Helvetica,sans-Serif" font-size="10.00">xml_readsettings</text>
</a>
</g>
</g>
<!-- Node6&#45;&gt;Node16 -->
<g id="edge19" class="edge"><title>Node6&#45;&gt;Node16</title>
<path fill="none" stroke="midnightblue" d="M636.062,-258.67C661.548,-264.081 691.429,-270.424 715.465,-275.527"/>
<polygon fill="midnightblue" stroke="midnightblue" points="636.678,-255.223 626.169,-256.57 635.224,-262.071 636.678,-255.223"/>
</g>
<!-- Node11 -->
<g id="node11" class="node"><title>Node11</title>
<g id="a_node11"><a xlink:href="_multi_d_a_q_8cpp.xhtml#adedb285b02c41bde2158ded9cc9fd7ac" target="_top" xlink:title="main">
<polygon fill="white" stroke="black" points="908,-351.481 908,-370.481 946,-370.481 946,-351.481 908,-351.481"/>
<text text-anchor="middle" x="927" y="-358.481" font-family="Helvetica,sans-Serif" font-size="10.00">main</text>
</a>
</g>
</g>
<!-- Node10&#45;&gt;Node11 -->
<g id="edge11" class="edge"><title>Node10&#45;&gt;Node11</title>
<path fill="none" stroke="midnightblue" d="M813.543,-334.924C845.714,-342.378 885.177,-351.522 907.773,-356.758"/>
<polygon fill="midnightblue" stroke="midnightblue" points="813.916,-331.418 803.384,-332.57 812.336,-338.237 813.916,-331.418"/>
</g>
<!-- Node12&#45;&gt;Node11 -->
<g id="edge13" class="edge"><title>Node12&#45;&gt;Node11</title>
<path fill="none" stroke="midnightblue" d="M823.865,-388.383C853.783,-380.357 887.511,-371.307 907.744,-365.879"/>
<polygon fill="midnightblue" stroke="midnightblue" points="822.642,-385.088 813.891,-391.059 824.456,-391.848 822.642,-385.088"/>
</g>
<!-- Node13&#45;&gt;Node11 -->
<g id="edge15" class="edge"><title>Node13&#45;&gt;Node11</title>
<path fill="none" stroke="midnightblue" d="M850.219,-360.981C872.077,-360.981 893.341,-360.981 907.753,-360.981"/>
<polygon fill="midnightblue" stroke="midnightblue" points="850.158,-357.481 840.158,-360.981 850.157,-364.481 850.158,-357.481"/>
</g>
<!-- Node14&#45;&gt;Node4 -->
<g id="edge18" class="edge"><title>Node14&#45;&gt;Node4</title>
<path fill="none" stroke="midnightblue" d="M791.913,-119.119C824.805,-103.876 876.777,-79.7917 905.398,-66.5285"/>
<polygon fill="midnightblue" stroke="midnightblue" points="790.372,-115.976 782.771,-123.356 793.315,-122.327 790.372,-115.976"/>
</g>
<!-- Node14&#45;&gt;Node15 -->
<g id="edge17" class="edge"><title>Node14&#45;&gt;Node15</title>
<path fill="none" stroke="midnightblue" d="M800.784,-128.488C823.346,-125.874 852.018,-122.552 876.231,-119.747"/>
<polygon fill="midnightblue" stroke="midnightblue" points="800.097,-125.044 790.567,-129.672 800.903,-131.998 800.097,-125.044"/>
</g>
<!-- Node17 -->
<g id="node17" class="node"><title>Node17</title>
<g id="a_node17"><a xlink:href="_z_d_a_q_8cpp.xhtml#a0ddf1224851353fc92bfbff6f499fa97" target="_top" xlink:title="main">
<polygon fill="white" stroke="black" points="908,-275.481 908,-294.481 946,-294.481 946,-275.481 908,-275.481"/>
<text text-anchor="middle" x="927" y="-282.481" font-family="Helvetica,sans-Serif" font-size="10.00">main</text>
</a>
</g>
</g>
<!-- Node16&#45;&gt;Node17 -->
<g id="edge20" class="edge"><title>Node16&#45;&gt;Node17</title>
<path fill="none" stroke="midnightblue" d="M817.216,-284.981C848.646,-284.981 885.974,-284.981 907.724,-284.981"/>
<polygon fill="midnightblue" stroke="midnightblue" points="816.814,-281.481 806.814,-284.981 816.814,-288.481 816.814,-281.481"/>
</g>
<!-- Node18&#45;&gt;Node4 -->
<g id="edge25" class="edge"><title>Node18&#45;&gt;Node4</title>
<path fill="none" stroke="midnightblue" d="M477.726,-121.998C592.974,-105.283 807.82,-74.1219 891.443,-61.9933"/>
<polygon fill="midnightblue" stroke="midnightblue" points="476.964,-118.572 467.57,-123.471 477.969,-125.499 476.964,-118.572"/>
</g>
<!-- Node18&#45;&gt;Node6 -->
<g id="edge23" class="edge"><title>Node18&#45;&gt;Node6</title>
<path fill="none" stroke="midnightblue" d="M464.774,-145.907C469.358,-147.683 473.819,-149.698 478,-151.981 519.198,-174.482 556.235,-217.824 571.547,-237.203"/>
<polygon fill="midnightblue" stroke="midnightblue" points="465.834,-142.57 455.239,-142.586 463.531,-149.18 465.834,-142.57"/>
</g>
<!-- Node18&#45;&gt;Node14 -->
<g id="edge24" class="edge"><title>Node18&#45;&gt;Node14</title>
<path fill="none" stroke="midnightblue" d="M488.767,-132.981C567.563,-132.981 679.167,-132.981 731.204,-132.981"/>
<polygon fill="midnightblue" stroke="midnightblue" points="488.361,-129.481 478.361,-132.981 488.361,-136.481 488.361,-129.481"/>
</g>
<!-- Node19&#45;&gt;Node2 -->
<g id="edge30" class="edge"><title>Node19&#45;&gt;Node2</title>
<path fill="none" stroke="midnightblue" d="M453.211,-221.764C461.765,-224.843 470.34,-228.555 478,-232.981 496.794,-243.84 495.091,-255.325 514,-265.981 520.76,-269.791 528.355,-272.899 535.905,-275.414"/>
<polygon fill="midnightblue" stroke="midnightblue" points="454.205,-218.406 443.611,-218.553 451.984,-225.045 454.205,-218.406"/>
</g>
<!-- Node19&#45;&gt;Node6 -->
<g id="edge28" class="edge"><title>Node19&#45;&gt;Node6</title>
<path fill="none" stroke="midnightblue" d="M456.742,-220.734C481.77,-226.107 511.035,-232.39 534.657,-237.461"/>
<polygon fill="midnightblue" stroke="midnightblue" points="457.176,-217.247 446.665,-218.57 455.707,-224.091 457.176,-217.247"/>
</g>
<!-- Node19&#45;&gt;Node14 -->
<g id="edge29" class="edge"><title>Node19&#45;&gt;Node14</title>
<path fill="none" stroke="midnightblue" d="M464.272,-202.895C514.173,-196.98 585.584,-186.165 646,-167.981 662.766,-162.935 665.428,-157.631 682,-151.981 698.094,-146.494 716.563,-141.922 731.489,-138.638"/>
<polygon fill="midnightblue" stroke="midnightblue" points="463.808,-199.425 454.275,-204.049 464.611,-206.379 463.808,-199.425"/>
</g>
</g>
</svg>
        <g id="navigator" transform="translate(0 0)" fill="#404254">
                <rect fill="#f2f5e9" fill-opacity="0.5" stroke="#606060" stroke-width=".5" x="0" y="0" width="60" height="60"/>
                <use id="zoomplus" xlink:href="#zoomPlus" x="17" y="9" onmousedown="handleZoom(evt,'in')"/>
                <use id="zoomminus" xlink:href="#zoomMin" x="42" y="9" onmousedown="handleZoom(evt,'out')"/>
                <use id="reset" xlink:href="#resetDef" x="30" y="36" onmousedown="handleReset()"/>
                <g id="arrowUp" xlink:href="#dirArrow" transform="translate(30 24)" onmousedown="handlePan(0,-1)">
                  <use xlink:href="#rim" fill="#404040">
                        <set attributeName="fill" to="#808080" begin="arrowUp.mouseover" end="arrowUp.mouseout"/>
                  </use>
                  <path fill="none" stroke="white" stroke-width="1.5" d="M0,-3.0v7 M-2.5,-0.5L0,-3.0L2.5,-0.5"/>
                </g>
                <g id="arrowRight" xlink:href="#dirArrow" transform="rotate(90) translate(36 -43)" onmousedown="handlePan(1,0)">
                  <use xlink:href="#rim" fill="#404040">
                        <set attributeName="fill" to="#808080" begin="arrowRight.mouseover" end="arrowRight.mouseout"/>
                  </use>
                  <path fill="none" stroke="white" stroke-width="1.5" d="M0,-3.0v7 M-2.5,-0.5L0,-3.0L2.5,-0.5"/>
                </g>
                <g id="arrowDown" xlink:href="#dirArrow" transform="rotate(180) translate(-30 -48)" onmousedown="handlePan(0,1)">
                  <use xlink:href="#rim" fill="#404040">
                        <set attributeName="fill" to="#808080" begin="arrowDown.mouseover" end="arrowDown.mouseout"/>
                  </use>
                  <path fill="none" stroke="white" stroke-width="1.5" d="M0,-3.0v7 M-2.5,-0.5L0,-3.0L2.5,-0.5"/>
                </g>
                <g id="arrowLeft" xlink:href="#dirArrow" transform="rotate(270) translate(-36 17)" onmousedown="handlePan(-1,0)">
                  <use xlink:href="#rim" fill="#404040">
                        <set attributeName="fill" to="#808080" begin="arrowLeft.mouseover" end="arrowLeft.mouseout"/>
                  </use>
                  <path fill="none" stroke="white" stroke-width="1.5" d="M0,-3.0v7 M-2.5,-0.5L0,-3.0L2.5,-0.5"/>
                </g>
        </g>
        <svg viewBox="0 0 15 15" width="100%" height="30px" preserveAspectRatio="xMaxYMin meet">
         <g id="arrow_out" transform="scale(0.3 0.3)">
          <a xlink:href="_c_d_a_q_2_plugins_2_source_2xml_parser_8cpp_ad7ec02a171e7641c1d364d5d367199a3_icgraph_org.svg" target="_base">
           <rect id="button" ry="5" rx="5" y="6" x="6" height="38" width="38"
                fill="#f2f5e9" fill-opacity="0.5" stroke="#606060" stroke-width="1.0"/>
           <path id="arrow"
             d="M 11.500037,31.436501 C 11.940474,20.09759 22.043105,11.32322 32.158766,21.979434 L 37.068811,17.246167 C 37.068811,17.246167 37.088388,32 37.088388,32 L 22.160133,31.978069 C 22.160133,31.978069 26.997745,27.140456 26.997745,27.140456 C 18.528582,18.264221 13.291696,25.230495 11.500037,31.436501 z"
             style="fill:#404040;"/>
          </a>
         </g>
        </svg>
</svg>
