<?xml version="1.0" encoding="UTF-8" standalone="no"?>
<!DOCTYPE svg PUBLIC "-//W3C//DTD SVG 1.1//EN"
 "http://www.w3.org/Graphics/SVG/1.1/DTD/svg11.dtd">
<!-- Generated by graphviz version 2.36.0 (20140111.2315)
 -->
<!-- Title: /data/Software/DAQ/CDAQ/Plugins/Source/xmlParser.cpp Pages: 1 -->
<svg width="423pt" height="106pt"
 viewBox="0.00 0.00 423.00 106.00" xmlns="http://www.w3.org/2000/svg" xmlns:xlink="http://www.w3.org/1999/xlink">
<g id="graph0" class="graph" transform="scale(1 1) rotate(0) translate(4 102)">
<title>/data/Software/DAQ/CDAQ/Plugins/Source/xmlParser.cpp</title>
<polygon fill="white" stroke="none" points="-4,4 -4,-102 419,-102 419,4 -4,4"/>
<!-- Node1 -->
<g id="node1" class="node"><title>Node1</title>
<polygon fill="#bfbfbf" stroke="black" points="165,-56.5 165,-97.5 283,-97.5 283,-56.5 165,-56.5"/>
<text text-anchor="start" x="173" y="-85.5" font-family="Helvetica,sans-Serif" font-size="10.00">/data/Software/DAQ</text>
<text text-anchor="start" x="173" y="-74.5" font-family="Helvetica,sans-Serif" font-size="10.00">/CDAQ/Plugins/Source</text>
<text text-anchor="middle" x="224" y="-63.5" font-family="Helvetica,sans-Serif" font-size="10.00">/xmlParser.cpp</text>
</g>
<!-- Node2 -->
<g id="node2" class="node"><title>Node2</title>
<polygon fill="white" stroke="#bfbfbf" points="-0.5,-0.5 -0.5,-19.5 68.5,-19.5 68.5,-0.5 -0.5,-0.5"/>
<text text-anchor="middle" x="34" y="-7.5" font-family="Helvetica,sans-Serif" font-size="10.00">xmlParser.h</text>
</g>
<!-- Node1&#45;&gt;Node2 -->
<g id="edge1" class="edge"><title>Node1&#45;&gt;Node2</title>
<path fill="none" stroke="midnightblue" d="M166.994,-56.4979C135.062,-45.5739 96.274,-32.3043 68.8483,-22.9218"/>
<polygon fill="midnightblue" stroke="midnightblue" points="69.8865,-19.5779 59.2919,-19.6525 67.6206,-26.201 69.8865,-19.5779"/>
</g>
<!-- Node3 -->
<g id="node3" class="node"><title>Node3</title>
<polygon fill="white" stroke="#bfbfbf" points="87,-0.5 87,-19.5 147,-19.5 147,-0.5 87,-0.5"/>
<text text-anchor="middle" x="117" y="-7.5" font-family="Helvetica,sans-Serif" font-size="10.00">memory.h</text>
</g>
<!-- Node1&#45;&gt;Node3 -->
<g id="edge2" class="edge"><title>Node1&#45;&gt;Node3</title>
<path fill="none" stroke="midnightblue" d="M191.896,-56.4979C175.176,-46.3405 155.117,-34.1551 139.968,-24.9523"/>
<polygon fill="midnightblue" stroke="midnightblue" points="141.607,-21.8531 131.243,-19.6525 137.973,-27.8357 141.607,-21.8531"/>
</g>
<!-- Node4 -->
<g id="node4" class="node"><title>Node4</title>
<polygon fill="white" stroke="#bfbfbf" points="165,-0.5 165,-19.5 217,-19.5 217,-0.5 165,-0.5"/>
<text text-anchor="middle" x="191" y="-7.5" font-family="Helvetica,sans-Serif" font-size="10.00">assert.h</text>
</g>
<!-- Node1&#45;&gt;Node4 -->
<g id="edge3" class="edge"><title>Node1&#45;&gt;Node4</title>
<path fill="none" stroke="midnightblue" d="M214.099,-56.4979C209.623,-47.682 204.372,-37.3385 200.008,-28.7432"/>
<polygon fill="midnightblue" stroke="midnightblue" points="203.041,-26.9847 195.393,-19.6525 196.799,-30.1536 203.041,-26.9847"/>
</g>
<!-- Node5 -->
<g id="node5" class="node"><title>Node5</title>
<polygon fill="white" stroke="#bfbfbf" points="235,-0.5 235,-19.5 281,-19.5 281,-0.5 235,-0.5"/>
<text text-anchor="middle" x="258" y="-7.5" font-family="Helvetica,sans-Serif" font-size="10.00">stdio.h</text>
</g>
<!-- Node1&#45;&gt;Node5 -->
<g id="edge4" class="edge"><title>Node1&#45;&gt;Node5</title>
<path fill="none" stroke="midnightblue" d="M234.201,-56.4979C238.812,-47.682 244.223,-37.3385 248.719,-28.7432"/>
<polygon fill="midnightblue" stroke="midnightblue" points="251.94,-30.1357 253.474,-19.6525 245.738,-26.8912 251.94,-30.1357"/>
</g>
<!-- Node6 -->
<g id="node6" class="node"><title>Node6</title>
<polygon fill="white" stroke="#bfbfbf" points="299.5,-0.5 299.5,-19.5 348.5,-19.5 348.5,-0.5 299.5,-0.5"/>
<text text-anchor="middle" x="324" y="-7.5" font-family="Helvetica,sans-Serif" font-size="10.00">string.h</text>
</g>
<!-- Node1&#45;&gt;Node6 -->
<g id="edge5" class="edge"><title>Node1&#45;&gt;Node6</title>
<path fill="none" stroke="midnightblue" d="M254.003,-56.4979C269.483,-46.4363 288.023,-34.3849 302.133,-25.2136"/>
<polygon fill="midnightblue" stroke="midnightblue" points="304.211,-28.037 310.688,-19.6525 300.397,-22.1679 304.211,-28.037"/>
</g>
<!-- Node7 -->
<g id="node7" class="node"><title>Node7</title>
<polygon fill="white" stroke="#bfbfbf" points="367,-0.5 367,-19.5 415,-19.5 415,-0.5 367,-0.5"/>
<text text-anchor="middle" x="391" y="-7.5" font-family="Helvetica,sans-Serif" font-size="10.00">stdlib.h</text>
</g>
<!-- Node1&#45;&gt;Node7 -->
<g id="edge6" class="edge"><title>Node1&#45;&gt;Node7</title>
<path fill="none" stroke="midnightblue" d="M274.106,-56.4979C301.802,-45.7176 335.368,-32.6531 359.414,-23.2941"/>
<polygon fill="midnightblue" stroke="midnightblue" points="360.72,-26.5414 368.77,-19.6525 358.181,-20.0181 360.72,-26.5414"/>
</g>
</g>
</svg>
