<?xml version="1.0" encoding="UTF-8" standalone="no"?>
<!DOCTYPE svg PUBLIC "-//W3C//DTD SVG 1.1//EN"
 "http://www.w3.org/Graphics/SVG/1.1/DTD/svg11.dtd">
<!-- Generated by graphviz version 2.36.0 (20140111.2315)
 -->
<!-- Title: errormsg Pages: 1 -->
<svg width="512pt" height="611pt"
 viewBox="0.00 0.00 512.00 610.53" xmlns="http://www.w3.org/2000/svg" xmlns:xlink="http://www.w3.org/1999/xlink">
<g id="graph0" class="graph" transform="scale(1 1) rotate(0) translate(4 606.53)">
<title>errormsg</title>
<polygon fill="white" stroke="none" points="-4,4 -4,-606.53 508,-606.53 508,4 -4,4"/>
<!-- Node1 -->
<g id="node1" class="node"><title>Node1</title>
<polygon fill="#bfbfbf" stroke="black" points="0.5,-228.5 0.5,-247.5 55.5,-247.5 55.5,-228.5 0.5,-228.5"/>
<text text-anchor="middle" x="28" y="-235.5" font-family="Helvetica,sans-Serif" font-size="10.00">errormsg</text>
</g>
<!-- Node2 -->
<g id="node2" class="node"><title>Node2</title>
<g id="a_node2"><a xlink:href="_g_u_i_2_include_2adc_8h.xhtml#a99fcc8dfc3bb71a3cd06f7e6968c12c3" target="_top" xlink:title="adc_analyzebaseline">
<polygon fill="white" stroke="black" points="396.5,-516.5 396.5,-535.5 503.5,-535.5 503.5,-516.5 396.5,-516.5"/>
<text text-anchor="middle" x="450" y="-523.5" font-family="Helvetica,sans-Serif" font-size="10.00">adc_analyzebaseline</text>
</a>
</g>
</g>
<!-- Node1&#45;&gt;Node2 -->
<g id="edge1" class="edge"><title>Node1&#45;&gt;Node2</title>
<path fill="none" stroke="midnightblue" d="M28.2231,-257.895C27.3436,-306.732 31.387,-434.334 92,-514 166.475,-611.885 241.96,-617.559 360,-583 391.697,-573.72 422.82,-549.31 438.506,-535.635"/>
<polygon fill="midnightblue" stroke="midnightblue" points="31.7262,-257.826 28.5029,-247.734 24.7289,-257.634 31.7262,-257.826"/>
</g>
<!-- Node3 -->
<g id="node3" class="node"><title>Node3</title>
<g id="a_node3"><a xlink:href="_g_u_i_2_include_2adc_8h.xhtml#a2c682c155ee56ca76245bbcb94f54db2" target="_top" xlink:title="adc_closecrates">
<polygon fill="white" stroke="black" points="94,-266.5 94,-285.5 182,-285.5 182,-266.5 94,-266.5"/>
<text text-anchor="middle" x="138" y="-273.5" font-family="Helvetica,sans-Serif" font-size="10.00">adc_closecrates</text>
</a>
</g>
</g>
<!-- Node1&#45;&gt;Node3 -->
<g id="edge2" class="edge"><title>Node1&#45;&gt;Node3</title>
<path fill="none" stroke="midnightblue" d="M65.3986,-250.807C79.9409,-255.924 96.3953,-261.713 109.86,-266.451"/>
<polygon fill="midnightblue" stroke="midnightblue" points="66.2915,-247.411 55.6966,-247.393 63.9681,-254.014 66.2915,-247.411"/>
</g>
<!-- Node4 -->
<g id="node4" class="node"><title>Node4</title>
<g id="a_node4"><a xlink:href="_g_u_i_2_include_2adc_8h.xhtml#a25f6f40f42d10a2ecc7b970155d9eb53" target="_top" xlink:title="adc_getbaseline">
<polygon fill="white" stroke="black" points="406.5,-421.5 406.5,-440.5 493.5,-440.5 493.5,-421.5 406.5,-421.5"/>
<text text-anchor="middle" x="450" y="-428.5" font-family="Helvetica,sans-Serif" font-size="10.00">adc_getbaseline</text>
</a>
</g>
</g>
<!-- Node1&#45;&gt;Node4 -->
<g id="edge3" class="edge"><title>Node1&#45;&gt;Node4</title>
<path fill="none" stroke="midnightblue" d="M43.5464,-255.788C55.2331,-268.808 72.8165,-285.755 92,-295 200.737,-347.403 253.066,-283.009 360,-339 398.391,-359.101 429.935,-401.959 442.788,-421.243"/>
<polygon fill="midnightblue" stroke="midnightblue" points="45.9417,-253.206 36.7606,-247.918 40.6405,-257.777 45.9417,-253.206"/>
</g>
<!-- Node5 -->
<g id="node5" class="node"><title>Node5</title>
<g id="a_node5"><a xlink:href="_g_u_i_2_include_2adc_8h.xhtml#aa357272f6eac8b5f8104ea1237f2e65c" target="_top" xlink:title="adc_mblt">
<polygon fill="white" stroke="black" points="262,-554.5 262,-573.5 318,-573.5 318,-554.5 262,-554.5"/>
<text text-anchor="middle" x="290" y="-561.5" font-family="Helvetica,sans-Serif" font-size="10.00">adc_mblt</text>
</a>
</g>
</g>
<!-- Node1&#45;&gt;Node5 -->
<g id="edge4" class="edge"><title>Node1&#45;&gt;Node5</title>
<path fill="none" stroke="midnightblue" d="M29.1073,-257.668C30.3563,-300.886 39.0456,-405.341 92,-469 136.801,-522.858 219.35,-548.429 261.966,-558.511"/>
<polygon fill="midnightblue" stroke="midnightblue" points="32.606,-257.556 28.9245,-247.622 25.6071,-257.684 32.606,-257.556"/>
</g>
<!-- Node6 -->
<g id="node6" class="node"><title>Node6</title>
<g id="a_node6"><a xlink:href="_g_u_i_2_include_2adc_8h.xhtml#a3e167d474fe419a8fe9a69bd27388ccc" target="_top" xlink:title="adc_readreg">
<polygon fill="white" stroke="black" points="103,-364.5 103,-383.5 173,-383.5 173,-364.5 103,-364.5"/>
<text text-anchor="middle" x="138" y="-371.5" font-family="Helvetica,sans-Serif" font-size="10.00">adc_readreg</text>
</a>
</g>
</g>
<!-- Node1&#45;&gt;Node6 -->
<g id="edge7" class="edge"><title>Node1&#45;&gt;Node6</title>
<path fill="none" stroke="midnightblue" d="M40.5003,-256.239C52.5435,-274.883 72.3997,-304.376 92,-328 102.986,-341.241 117.039,-355.198 126.493,-364.218"/>
<polygon fill="midnightblue" stroke="midnightblue" points="43.2919,-254.108 34.9574,-247.566 37.3937,-257.877 43.2919,-254.108"/>
</g>
<!-- Node10 -->
<g id="node10" class="node"><title>Node10</title>
<g id="a_node10"><a xlink:href="_g_u_i_2_include_2adc_8h.xhtml#ab2c5b38244f3ea85067f83b5d94409f7" target="_top" xlink:title="adc_writereg">
<polygon fill="white" stroke="black" points="102,-440.5 102,-459.5 174,-459.5 174,-440.5 102,-440.5"/>
<text text-anchor="middle" x="138" y="-447.5" font-family="Helvetica,sans-Serif" font-size="10.00">adc_writereg</text>
</a>
</g>
</g>
<!-- Node1&#45;&gt;Node10 -->
<g id="edge16" class="edge"><title>Node1&#45;&gt;Node10</title>
<path fill="none" stroke="midnightblue" d="M34.8493,-257.185C44.4491,-287.29 65.1886,-346.942 92,-393 102.403,-410.87 117.945,-429.237 127.772,-440.13"/>
<polygon fill="midnightblue" stroke="midnightblue" points="38.1495,-256.011 31.8259,-247.51 31.4681,-258.099 38.1495,-256.011"/>
</g>
<!-- Node11 -->
<g id="node11" class="node"><title>Node11</title>
<g id="a_node11"><a xlink:href="graph_8cpp.xhtml#a47ba0a65658fc0ac6b76a02e4bb0918e" target="_top" xlink:title="graph_checkkey">
<polygon fill="white" stroke="black" points="94,-228.5 94,-247.5 182,-247.5 182,-228.5 94,-228.5"/>
<text text-anchor="middle" x="138" y="-235.5" font-family="Helvetica,sans-Serif" font-size="10.00">graph_checkkey</text>
</a>
</g>
</g>
<!-- Node1&#45;&gt;Node11 -->
<g id="edge21" class="edge"><title>Node1&#45;&gt;Node11</title>
<path fill="none" stroke="midnightblue" d="M65.8569,-238C74.8473,-238 84.5451,-238 93.8014,-238"/>
<polygon fill="midnightblue" stroke="midnightblue" points="65.6967,-234.5 55.6966,-238 65.6966,-241.5 65.6967,-234.5"/>
</g>
<!-- Node14 -->
<g id="node14" class="node"><title>Node14</title>
<g id="a_node14"><a xlink:href="mini_d_a_x_8cpp.xhtml#adedb285b02c41bde2158ded9cc9fd7ac" target="_top" xlink:title="main">
<polygon fill="white" stroke="black" points="271,-168.5 271,-187.5 309,-187.5 309,-168.5 271,-168.5"/>
<text text-anchor="middle" x="290" y="-175.5" font-family="Helvetica,sans-Serif" font-size="10.00">main</text>
</a>
</g>
</g>
<!-- Node1&#45;&gt;Node14 -->
<g id="edge27" class="edge"><title>Node1&#45;&gt;Node14</title>
<path fill="none" stroke="midnightblue" d="M65.0958,-226.521C73.8594,-223.899 83.2318,-221.23 92,-219 157.343,-202.381 236.131,-187.517 270.952,-181.208"/>
<polygon fill="midnightblue" stroke="midnightblue" points="64.0709,-223.174 55.5247,-229.436 66.1106,-229.871 64.0709,-223.174"/>
</g>
<!-- Node15 -->
<g id="node15" class="node"><title>Node15</title>
<g id="a_node15"><a xlink:href="graph_8cpp.xhtml#a9d8410ccb8c9da421a55cc7cb556533b" target="_top" xlink:title="graph_display">
<polygon fill="white" stroke="black" points="99.5,-152.5 99.5,-171.5 176.5,-171.5 176.5,-152.5 99.5,-152.5"/>
<text text-anchor="middle" x="138" y="-159.5" font-family="Helvetica,sans-Serif" font-size="10.00">graph_display</text>
</a>
</g>
</g>
<!-- Node1&#45;&gt;Node15 -->
<g id="edge25" class="edge"><title>Node1&#45;&gt;Node15</title>
<path fill="none" stroke="midnightblue" d="M46.8517,-221.627C59.0712,-210.839 75.9142,-196.77 92,-186 99.7987,-180.778 108.854,-175.766 116.789,-171.685"/>
<polygon fill="midnightblue" stroke="midnightblue" points="44.3059,-219.208 39.1968,-228.49 48.9789,-224.42 44.3059,-219.208"/>
</g>
<!-- Node16 -->
<g id="node16" class="node"><title>Node16</title>
<g id="a_node16"><a xlink:href="mini_d_a_x_8cpp.xhtml#a273bf08d28499853f9fd74863447d6ac" target="_top" xlink:title="sigproc">
<polygon fill="white" stroke="black" points="114,-114.5 114,-133.5 162,-133.5 162,-114.5 114,-114.5"/>
<text text-anchor="middle" x="138" y="-121.5" font-family="Helvetica,sans-Serif" font-size="10.00">sigproc</text>
</a>
</g>
</g>
<!-- Node1&#45;&gt;Node16 -->
<g id="edge28" class="edge"><title>Node1&#45;&gt;Node16</title>
<path fill="none" stroke="midnightblue" d="M37.3763,-219.08C47.5661,-197.982 66.6035,-164.062 92,-143 98.2665,-137.803 106.161,-133.832 113.582,-130.898"/>
<polygon fill="midnightblue" stroke="midnightblue" points="34.1346,-217.751 33.0957,-228.295 40.483,-220.7 34.1346,-217.751"/>
</g>
<!-- Node17 -->
<g id="node17" class="node"><title>Node17</title>
<g id="a_node17"><a xlink:href="_x_d_a_q_2_core_2_source_2xml_8cpp.xhtml#a294ca441881dbf9ed73205366e498465" target="_top" xlink:title="xml_error">
<polygon fill="white" stroke="black" points="109.5,-76.5 109.5,-95.5 166.5,-95.5 166.5,-76.5 109.5,-76.5"/>
<text text-anchor="middle" x="138" y="-83.5" font-family="Helvetica,sans-Serif" font-size="10.00">xml_error</text>
</a>
</g>
</g>
<!-- Node1&#45;&gt;Node17 -->
<g id="edge30" class="edge"><title>Node1&#45;&gt;Node17</title>
<path fill="none" stroke="midnightblue" d="M33.5683,-218.251C41.1176,-189.699 58.7738,-136.832 92,-105 96.8989,-100.307 103.131,-96.6912 109.383,-93.9383"/>
<polygon fill="midnightblue" stroke="midnightblue" points="30.1035,-217.68 31.0835,-228.23 36.8961,-219.372 30.1035,-217.68"/>
</g>
<!-- Node18 -->
<g id="node18" class="node"><title>Node18</title>
<g id="a_node18"><a xlink:href="_x_d_a_q_2_core_2_source_2xml_8cpp.xhtml#a529bbf1c65c6dd055ba0620b7e7000ed" target="_top" xlink:title="xml_readsettings">
<polygon fill="white" stroke="black" points="92.5,-38.5 92.5,-57.5 183.5,-57.5 183.5,-38.5 92.5,-38.5"/>
<text text-anchor="middle" x="138" y="-45.5" font-family="Helvetica,sans-Serif" font-size="10.00">xml_readsettings</text>
</a>
</g>
</g>
<!-- Node1&#45;&gt;Node18 -->
<g id="edge31" class="edge"><title>Node1&#45;&gt;Node18</title>
<path fill="none" stroke="midnightblue" d="M31.1593,-218.197C35.9617,-183.284 50.588,-110.385 92,-67 95.6303,-63.1967 100.142,-60.1212 104.894,-57.644"/>
<polygon fill="midnightblue" stroke="midnightblue" points="27.6411,-218.128 29.8828,-228.483 34.5878,-218.99 27.6411,-218.128"/>
</g>
<!-- Node19 -->
<g id="node19" class="node"><title>Node19</title>
<g id="a_node19"><a xlink:href="_x_d_a_q_2_g_u_i_2_include_2xml_8h.xhtml#a187b952bef7db4d0c253dfee5f8dda6b" target="_top" xlink:title="xml_storefile">
<polygon fill="white" stroke="black" points="102,-0.5 102,-19.5 174,-19.5 174,-0.5 102,-0.5"/>
<text text-anchor="middle" x="138" y="-7.5" font-family="Helvetica,sans-Serif" font-size="10.00">xml_storefile</text>
</a>
</g>
</g>
<!-- Node1&#45;&gt;Node19 -->
<g id="edge32" class="edge"><title>Node1&#45;&gt;Node19</title>
<path fill="none" stroke="midnightblue" d="M29.5749,-218.109C31.7877,-177.509 42.3274,-84.2793 92,-29 95.4008,-25.2153 99.6795,-22.161 104.238,-19.7026"/>
<polygon fill="midnightblue" stroke="midnightblue" points="26.0697,-218.158 29.1396,-228.298 33.0633,-218.457 26.0697,-218.158"/>
</g>
<!-- Node5&#45;&gt;Node2 -->
<g id="edge5" class="edge"><title>Node5&#45;&gt;Node2</title>
<path fill="none" stroke="midnightblue" d="M328.136,-555.068C352.586,-549.188 384.559,-541.499 409.478,-535.505"/>
<polygon fill="midnightblue" stroke="midnightblue" points="327.065,-551.726 318.161,-557.468 328.702,-558.532 327.065,-551.726"/>
</g>
<!-- Node5&#45;&gt;Node4 -->
<g id="edge6" class="edge"><title>Node5&#45;&gt;Node4</title>
<path fill="none" stroke="midnightblue" d="M310.41,-547.661C343.62,-519.706 410.361,-463.525 437.314,-440.837"/>
<polygon fill="midnightblue" stroke="midnightblue" points="307.759,-545.317 302.363,-554.435 312.267,-550.673 307.759,-545.317"/>
</g>
<!-- Node6&#45;&gt;Node4 -->
<g id="edge14" class="edge"><title>Node6&#45;&gt;Node4</title>
<path fill="none" stroke="midnightblue" d="M175.797,-361.476C220.733,-348.268 298.363,-332.264 360,-355 396.41,-368.431 428.032,-404.126 441.743,-421.387"/>
<polygon fill="midnightblue" stroke="midnightblue" points="174.728,-358.143 166.183,-364.407 176.77,-364.839 174.728,-358.143"/>
</g>
<!-- Node7 -->
<g id="node7" class="node"><title>Node7</title>
<g id="a_node7"><a xlink:href="_g_u_i_2_include_2adc_8h.xhtml#a8e0f9bdd9b130dd38116dfaba6e94795" target="_top" xlink:title="adc_disable">
<polygon fill="white" stroke="black" points="256,-402.5 256,-421.5 324,-421.5 324,-402.5 256,-402.5"/>
<text text-anchor="middle" x="290" y="-409.5" font-family="Helvetica,sans-Serif" font-size="10.00">adc_disable</text>
</a>
</g>
</g>
<!-- Node6&#45;&gt;Node7 -->
<g id="edge8" class="edge"><title>Node6&#45;&gt;Node7</title>
<path fill="none" stroke="midnightblue" d="M183.023,-385.153C206.318,-391.054 234.448,-398.18 255.871,-403.607"/>
<polygon fill="midnightblue" stroke="midnightblue" points="183.591,-381.686 173.037,-382.623 181.872,-388.471 183.591,-381.686"/>
</g>
<!-- Node8 -->
<g id="node8" class="node"><title>Node8</title>
<g id="a_node8"><a xlink:href="_g_u_i_2_include_2adc_8h.xhtml#a94f95e39919b3b5969d4231bf5103079" target="_top" xlink:title="adc_enable">
<polygon fill="white" stroke="black" points="257,-440.5 257,-459.5 323,-459.5 323,-440.5 257,-440.5"/>
<text text-anchor="middle" x="290" y="-447.5" font-family="Helvetica,sans-Serif" font-size="10.00">adc_enable</text>
</a>
</g>
</g>
<!-- Node6&#45;&gt;Node8 -->
<g id="edge11" class="edge"><title>Node6&#45;&gt;Node8</title>
<path fill="none" stroke="midnightblue" d="M157.906,-390.164C173.618,-402.865 197.039,-420.163 220,-431 231.574,-436.462 245.004,-440.605 256.923,-443.605"/>
<polygon fill="midnightblue" stroke="midnightblue" points="159.961,-387.322 150.023,-383.651 155.503,-392.718 159.961,-387.322"/>
</g>
<!-- Node9 -->
<g id="node9" class="node"><title>Node9</title>
<g id="a_node9"><a xlink:href="_g_u_i_2_include_2adc_8h.xhtml#ad4af88f42a1f3b3bc615ab5543f614a3" target="_top" xlink:title="adc_init">
<polygon fill="white" stroke="black" points="265,-364.5 265,-383.5 315,-383.5 315,-364.5 265,-364.5"/>
<text text-anchor="middle" x="290" y="-371.5" font-family="Helvetica,sans-Serif" font-size="10.00">adc_init</text>
</a>
</g>
</g>
<!-- Node6&#45;&gt;Node9 -->
<g id="edge15" class="edge"><title>Node6&#45;&gt;Node9</title>
<path fill="none" stroke="midnightblue" d="M183.296,-374C209.989,-374 242.955,-374 264.905,-374"/>
<polygon fill="midnightblue" stroke="midnightblue" points="183.037,-370.5 173.037,-374 183.037,-377.5 183.037,-370.5"/>
</g>
<!-- Node7&#45;&gt;Node2 -->
<g id="edge9" class="edge"><title>Node7&#45;&gt;Node2</title>
<path fill="none" stroke="midnightblue" d="M333.775,-419.848C342.821,-422.566 352.033,-426.188 360,-431 397.723,-453.785 429.617,-496.979 442.674,-516.27"/>
<polygon fill="midnightblue" stroke="midnightblue" points="334.656,-416.461 324.09,-417.241 332.836,-423.22 334.656,-416.461"/>
</g>
<!-- Node7&#45;&gt;Node4 -->
<g id="edge10" class="edge"><title>Node7&#45;&gt;Node4</title>
<path fill="none" stroke="midnightblue" d="M334.058,-417.178C356.515,-419.878 383.897,-423.171 406.301,-425.865"/>
<polygon fill="midnightblue" stroke="midnightblue" points="334.468,-413.702 324.122,-415.983 333.633,-420.652 334.468,-413.702"/>
</g>
<!-- Node8&#45;&gt;Node2 -->
<g id="edge12" class="edge"><title>Node8&#45;&gt;Node2</title>
<path fill="none" stroke="midnightblue" d="M320.227,-464.059C351.937,-479.311 401.697,-503.246 429.152,-516.453"/>
<polygon fill="midnightblue" stroke="midnightblue" points="321.54,-460.806 311.011,-459.625 318.505,-467.114 321.54,-460.806"/>
</g>
<!-- Node8&#45;&gt;Node4 -->
<g id="edge13" class="edge"><title>Node8&#45;&gt;Node4</title>
<path fill="none" stroke="midnightblue" d="M333.361,-444.906C356.009,-442.182 383.817,-438.838 406.488,-436.112"/>
<polygon fill="midnightblue" stroke="midnightblue" points="332.865,-441.44 323.355,-446.109 333.701,-448.39 332.865,-441.44"/>
</g>
<!-- Node10&#45;&gt;Node2 -->
<g id="edge17" class="edge"><title>Node10&#45;&gt;Node2</title>
<path fill="none" stroke="midnightblue" d="M166.145,-464.075C181.578,-471.56 201.469,-480.357 220,-486 279.071,-503.987 349.331,-514.762 396.306,-520.52"/>
<polygon fill="midnightblue" stroke="midnightblue" points="167.678,-460.928 157.164,-459.623 164.569,-467.2 167.678,-460.928"/>
</g>
<!-- Node10&#45;&gt;Node4 -->
<g id="edge20" class="edge"><title>Node10&#45;&gt;Node4</title>
<path fill="none" stroke="midnightblue" d="M181.763,-461.97C194.01,-464.868 207.445,-467.547 220,-469 281.81,-476.152 299.04,-481.469 360,-469 386.501,-463.579 414.87,-449.947 432.276,-440.576"/>
<polygon fill="midnightblue" stroke="midnightblue" points="182.348,-458.509 171.8,-459.507 180.668,-465.305 182.348,-458.509"/>
</g>
<!-- Node10&#45;&gt;Node7 -->
<g id="edge18" class="edge"><title>Node10&#45;&gt;Node7</title>
<path fill="none" stroke="midnightblue" d="M184.081,-438.58C207.157,-432.733 234.754,-425.742 255.852,-420.398"/>
<polygon fill="midnightblue" stroke="midnightblue" points="183.003,-435.242 174.168,-441.091 184.722,-442.028 183.003,-435.242"/>
</g>
<!-- Node10&#45;&gt;Node8 -->
<g id="edge19" class="edge"><title>Node10&#45;&gt;Node8</title>
<path fill="none" stroke="midnightblue" d="M184.224,-450C207.644,-450 235.688,-450 256.867,-450"/>
<polygon fill="midnightblue" stroke="midnightblue" points="184.168,-446.5 174.168,-450 184.168,-453.5 184.168,-446.5"/>
</g>
<!-- Node12 -->
<g id="node12" class="node"><title>Node12</title>
<g id="a_node12"><a xlink:href="class_scope_manager.xhtml#adc3b57b668f590969c5379fe27567bba" target="_top" xlink:title="ScopeManager::SetChannel\lTresh">
<polygon fill="white" stroke="black" points="220.5,-223 220.5,-253 359.5,-253 359.5,-223 220.5,-223"/>
<text text-anchor="start" x="228.5" y="-241" font-family="Helvetica,sans-Serif" font-size="10.00">ScopeManager::SetChannel</text>
<text text-anchor="middle" x="290" y="-230" font-family="Helvetica,sans-Serif" font-size="10.00">Tresh</text>
</a>
</g>
</g>
<!-- Node11&#45;&gt;Node12 -->
<g id="edge22" class="edge"><title>Node11&#45;&gt;Node12</title>
<path fill="none" stroke="midnightblue" d="M192.66,-238C201.614,-238 211.01,-238 220.278,-238"/>
<polygon fill="midnightblue" stroke="midnightblue" points="192.386,-234.5 182.386,-238 192.386,-241.5 192.386,-234.5"/>
</g>
<!-- Node11&#45;&gt;Node14 -->
<g id="edge24" class="edge"><title>Node11&#45;&gt;Node14</title>
<path fill="none" stroke="midnightblue" d="M172.138,-224.745C202.592,-212.563 246.594,-194.962 270.993,-185.203"/>
<polygon fill="midnightblue" stroke="midnightblue" points="170.753,-221.529 162.768,-228.493 173.353,-228.029 170.753,-221.529"/>
</g>
<!-- Node13 -->
<g id="node13" class="node"><title>Node13</title>
<g id="a_node13"><a xlink:href="_multi_d_a_q_8cpp.xhtml#adedb285b02c41bde2158ded9cc9fd7ac" target="_top" xlink:title="main">
<polygon fill="white" stroke="black" points="431,-228.5 431,-247.5 469,-247.5 469,-228.5 431,-228.5"/>
<text text-anchor="middle" x="450" y="-235.5" font-family="Helvetica,sans-Serif" font-size="10.00">main</text>
</a>
</g>
</g>
<!-- Node12&#45;&gt;Node13 -->
<g id="edge23" class="edge"><title>Node12&#45;&gt;Node13</title>
<path fill="none" stroke="midnightblue" d="M369.925,-238C392.694,-238 415.472,-238 430.692,-238"/>
<polygon fill="midnightblue" stroke="midnightblue" points="369.842,-234.5 359.841,-238 369.841,-241.5 369.842,-234.5"/>
</g>
<!-- Node15&#45;&gt;Node14 -->
<g id="edge26" class="edge"><title>Node15&#45;&gt;Node14</title>
<path fill="none" stroke="midnightblue" d="M187.049,-167.125C215.566,-170.167 250.078,-173.848 270.748,-176.053"/>
<polygon fill="midnightblue" stroke="midnightblue" points="187.166,-163.618 176.851,-166.037 186.424,-170.578 187.166,-163.618"/>
</g>
<!-- Node16&#45;&gt;Node14 -->
<g id="edge29" class="edge"><title>Node16&#45;&gt;Node14</title>
<path fill="none" stroke="midnightblue" d="M171.843,-135.824C202.236,-146.765 246.308,-162.631 270.82,-171.455"/>
<polygon fill="midnightblue" stroke="midnightblue" points="172.703,-132.413 162.109,-132.319 170.332,-139 172.703,-132.413"/>
</g>
</g>
</svg>
