<?xml version="1.0" encoding="UTF-8" standalone="no"?>
<!DOCTYPE svg PUBLIC "-//W3C//DTD SVG 1.1//EN"
 "http://www.w3.org/Graphics/SVG/1.1/DTD/svg11.dtd">
<!-- Generated by graphviz version 2.36.0 (20140111.2315)
 -->
<!-- Title: control_getadc Pages: 1 -->
<svg width="482pt" height="142pt"
 viewBox="0.00 0.00 482.00 142.00" xmlns="http://www.w3.org/2000/svg" xmlns:xlink="http://www.w3.org/1999/xlink">
<g id="graph0" class="graph" transform="scale(1 1) rotate(0) translate(4 138)">
<title>control_getadc</title>
<polygon fill="white" stroke="none" points="-4,4 -4,-138 478,-138 478,4 -4,4"/>
<!-- Node1 -->
<g id="node1" class="node"><title>Node1</title>
<polygon fill="#bfbfbf" stroke="black" points="0,-57.5 0,-76.5 80,-76.5 80,-57.5 0,-57.5"/>
<text text-anchor="middle" x="40" y="-64.5" font-family="Helvetica,sans-Serif" font-size="10.00">control_getadc</text>
</g>
<!-- Node2 -->
<g id="node2" class="node"><title>Node2</title>
<g id="a_node2"><a xlink:href="_g_u_i_2_include_2adc_8h.xhtml#a99fcc8dfc3bb71a3cd06f7e6968c12c3" target="_top" xlink:title="adc_analyzebaseline">
<polygon fill="white" stroke="black" points="116.5,-114.5 116.5,-133.5 223.5,-133.5 223.5,-114.5 116.5,-114.5"/>
<text text-anchor="middle" x="170" y="-121.5" font-family="Helvetica,sans-Serif" font-size="10.00">adc_analyzebaseline</text>
</a>
</g>
</g>
<!-- Node1&#45;&gt;Node2 -->
<g id="edge1" class="edge"><title>Node1&#45;&gt;Node2</title>
<path fill="none" stroke="midnightblue" d="M67.4517,-81.4203C81.643,-88.8958 99.5516,-97.9175 116,-105 123.811,-108.363 132.434,-111.635 140.415,-114.489"/>
<polygon fill="midnightblue" stroke="midnightblue" points="68.7556,-78.1492 58.2844,-76.5348 65.4633,-84.3267 68.7556,-78.1492"/>
</g>
<!-- Node3 -->
<g id="node3" class="node"><title>Node3</title>
<g id="a_node3"><a xlink:href="graph_8cpp.xhtml#a47ba0a65658fc0ac6b76a02e4bb0918e" target="_top" xlink:title="graph_checkkey">
<polygon fill="white" stroke="black" points="126,-76.5 126,-95.5 214,-95.5 214,-76.5 126,-76.5"/>
<text text-anchor="middle" x="170" y="-83.5" font-family="Helvetica,sans-Serif" font-size="10.00">graph_checkkey</text>
</a>
</g>
</g>
<!-- Node1&#45;&gt;Node3 -->
<g id="edge2" class="edge"><title>Node1&#45;&gt;Node3</title>
<path fill="none" stroke="midnightblue" d="M90.159,-74.297C101.859,-76.0338 114.259,-77.8744 125.676,-79.5691"/>
<polygon fill="midnightblue" stroke="midnightblue" points="90.5053,-70.8102 80.0997,-72.8039 89.4774,-77.7343 90.5053,-70.8102"/>
</g>
<!-- Node6 -->
<g id="node6" class="node"><title>Node6</title>
<g id="a_node6"><a xlink:href="mini_d_a_x_8cpp.xhtml#adedb285b02c41bde2158ded9cc9fd7ac" target="_top" xlink:title="main">
<polygon fill="white" stroke="black" points="311,-38.5 311,-57.5 349,-57.5 349,-38.5 311,-38.5"/>
<text text-anchor="middle" x="330" y="-45.5" font-family="Helvetica,sans-Serif" font-size="10.00">main</text>
</a>
</g>
</g>
<!-- Node1&#45;&gt;Node6 -->
<g id="edge6" class="edge"><title>Node1&#45;&gt;Node6</title>
<path fill="none" stroke="midnightblue" d="M90.1827,-63.7553C155.358,-59.4556 267.18,-52.0784 310.813,-49.1998"/>
<polygon fill="midnightblue" stroke="midnightblue" points="89.8886,-60.267 80.1407,-64.4178 90.3494,-67.2518 89.8886,-60.267"/>
</g>
<!-- Node7 -->
<g id="node7" class="node"><title>Node7</title>
<g id="a_node7"><a xlink:href="_x_d_a_q_2_core_2_source_2xml_8cpp.xhtml#a529bbf1c65c6dd055ba0620b7e7000ed" target="_top" xlink:title="xml_readsettings">
<polygon fill="white" stroke="black" points="124.5,-0.5 124.5,-19.5 215.5,-19.5 215.5,-0.5 124.5,-0.5"/>
<text text-anchor="middle" x="170" y="-7.5" font-family="Helvetica,sans-Serif" font-size="10.00">xml_readsettings</text>
</a>
</g>
</g>
<!-- Node1&#45;&gt;Node7 -->
<g id="edge7" class="edge"><title>Node1&#45;&gt;Node7</title>
<path fill="none" stroke="midnightblue" d="M71.581,-53.3819C94.9991,-42.9535 126.714,-28.8303 147.506,-19.5716"/>
<polygon fill="midnightblue" stroke="midnightblue" points="70.1357,-50.1941 62.4243,-57.4595 72.9833,-56.5887 70.1357,-50.1941"/>
</g>
<!-- Node4 -->
<g id="node4" class="node"><title>Node4</title>
<g id="a_node4"><a xlink:href="class_scope_manager.xhtml#adc3b57b668f590969c5379fe27567bba" target="_top" xlink:title="ScopeManager::SetChannel\lTresh">
<polygon fill="white" stroke="black" points="260.5,-77 260.5,-107 399.5,-107 399.5,-77 260.5,-77"/>
<text text-anchor="start" x="268.5" y="-95" font-family="Helvetica,sans-Serif" font-size="10.00">ScopeManager::SetChannel</text>
<text text-anchor="middle" x="330" y="-84" font-family="Helvetica,sans-Serif" font-size="10.00">Tresh</text>
</a>
</g>
</g>
<!-- Node3&#45;&gt;Node4 -->
<g id="edge3" class="edge"><title>Node3&#45;&gt;Node4</title>
<path fill="none" stroke="midnightblue" d="M224.489,-88.0312C236.004,-88.4685 248.329,-88.9366 260.331,-89.3923"/>
<polygon fill="midnightblue" stroke="midnightblue" points="224.3,-84.5216 214.174,-87.6395 224.034,-91.5166 224.3,-84.5216"/>
</g>
<!-- Node3&#45;&gt;Node6 -->
<g id="edge5" class="edge"><title>Node3&#45;&gt;Node6</title>
<path fill="none" stroke="midnightblue" d="M220.941,-73.9888C251.495,-66.6404 288.787,-57.6714 310.615,-52.4218"/>
<polygon fill="midnightblue" stroke="midnightblue" points="219.774,-70.6696 210.87,-76.411 221.411,-77.4755 219.774,-70.6696"/>
</g>
<!-- Node5 -->
<g id="node5" class="node"><title>Node5</title>
<g id="a_node5"><a xlink:href="_multi_d_a_q_8cpp.xhtml#adedb285b02c41bde2158ded9cc9fd7ac" target="_top" xlink:title="main">
<polygon fill="white" stroke="black" points="436,-82.5 436,-101.5 474,-101.5 474,-82.5 436,-82.5"/>
<text text-anchor="middle" x="455" y="-89.5" font-family="Helvetica,sans-Serif" font-size="10.00">main</text>
</a>
</g>
</g>
<!-- Node4&#45;&gt;Node5 -->
<g id="edge4" class="edge"><title>Node4&#45;&gt;Node5</title>
<path fill="none" stroke="midnightblue" d="M409.94,-92C419.599,-92 428.633,-92 435.975,-92"/>
<polygon fill="midnightblue" stroke="midnightblue" points="409.692,-88.5001 399.692,-92 409.692,-95.5001 409.692,-88.5001"/>
</g>
</g>
</svg>
