<?xml version="1.0" encoding="UTF-8" standalone="no"?>
<!DOCTYPE svg PUBLIC "-//W3C//DTD SVG 1.1//EN"
 "http://www.w3.org/Graphics/SVG/1.1/DTD/svg11.dtd">
<!-- Generated by graphviz version 2.36.0 (20140111.2315)
 -->
<!-- Title: control_generatefilename Pages: 1 -->
<svg width="590pt" height="47pt"
 viewBox="0.00 0.00 590.00 47.00" xmlns="http://www.w3.org/2000/svg" xmlns:xlink="http://www.w3.org/1999/xlink">
<g id="graph0" class="graph" transform="scale(1 1) rotate(0) translate(4 43)">
<title>control_generatefilename</title>
<polygon fill="white" stroke="none" points="-4,4 -4,-43 586,-43 586,4 -4,4"/>
<!-- Node1 -->
<g id="node1" class="node"><title>Node1</title>
<polygon fill="#bfbfbf" stroke="black" points="0.5,-19.5 0.5,-38.5 125.5,-38.5 125.5,-19.5 0.5,-19.5"/>
<text text-anchor="middle" x="63" y="-26.5" font-family="Helvetica,sans-Serif" font-size="10.00">control_generatefilename</text>
</g>
<!-- Node2 -->
<g id="node2" class="node"><title>Node2</title>
<g id="a_node2"><a xlink:href="control_8cpp.xhtml#a03b1d46384ed092ca3bc35eeb9c47e02" target="_top" xlink:title="control_gettimestring">
<polygon fill="white" stroke="black" points="474.5,-19.5 474.5,-38.5 581.5,-38.5 581.5,-19.5 474.5,-19.5"/>
<text text-anchor="middle" x="528" y="-26.5" font-family="Helvetica,sans-Serif" font-size="10.00">control_gettimestring</text>
</a>
</g>
</g>
<!-- Node1&#45;&gt;Node2 -->
<g id="edge1" class="edge"><title>Node1&#45;&gt;Node2</title>
<path fill="none" stroke="midnightblue" d="M125.962,-29C214.255,-29 375.381,-29 464.156,-29"/>
<polygon fill="midnightblue" stroke="midnightblue" points="464.352,-32.5001 474.352,-29 464.351,-25.5001 464.352,-32.5001"/>
</g>
<!-- Node3 -->
<g id="node3" class="node"><title>Node3</title>
<g id="a_node3"><a xlink:href="control_8cpp.xhtml#a48a6baefa46edb93b59bb0f76385052a" target="_top" xlink:title="errormsg">
<polygon fill="white" stroke="black" points="162.5,-0.5 162.5,-19.5 217.5,-19.5 217.5,-0.5 162.5,-0.5"/>
<text text-anchor="middle" x="190" y="-7.5" font-family="Helvetica,sans-Serif" font-size="10.00">errormsg</text>
</a>
</g>
</g>
<!-- Node1&#45;&gt;Node3 -->
<g id="edge2" class="edge"><title>Node1&#45;&gt;Node3</title>
<path fill="none" stroke="midnightblue" d="M125.768,-19.6113C134.85,-18.2309 143.952,-16.8472 152.308,-15.5771"/>
<polygon fill="midnightblue" stroke="midnightblue" points="153.075,-19.0008 162.436,-14.0378 152.023,-12.0803 153.075,-19.0008"/>
</g>
<!-- Node4 -->
<g id="node4" class="node"><title>Node4</title>
<g id="a_node4"><a xlink:href="control_8cpp.xhtml#a42c6ce88a95e362f9f257d90bbf8de32" target="_top" xlink:title="control_log">
<polygon fill="white" stroke="black" points="254,-0.5 254,-19.5 318,-19.5 318,-0.5 254,-0.5"/>
<text text-anchor="middle" x="286" y="-7.5" font-family="Helvetica,sans-Serif" font-size="10.00">control_log</text>
</a>
</g>
</g>
<!-- Node3&#45;&gt;Node4 -->
<g id="edge3" class="edge"><title>Node3&#45;&gt;Node4</title>
<path fill="none" stroke="midnightblue" d="M217.685,-10C225.8,-10 234.915,-10 243.754,-10"/>
<polygon fill="midnightblue" stroke="midnightblue" points="243.928,-13.5001 253.928,-10 243.928,-6.5001 243.928,-13.5001"/>
</g>
<!-- Node5 -->
<g id="node5" class="node"><title>Node5</title>
<g id="a_node5"><a xlink:href="control_8cpp.xhtml#a6d31350db95da2e061ef2ef9ad11402e" target="_top" xlink:title="control_printlog">
<polygon fill="white" stroke="black" points="354.5,-0.5 354.5,-19.5 437.5,-19.5 437.5,-0.5 354.5,-0.5"/>
<text text-anchor="middle" x="396" y="-7.5" font-family="Helvetica,sans-Serif" font-size="10.00">control_printlog</text>
</a>
</g>
</g>
<!-- Node4&#45;&gt;Node5 -->
<g id="edge4" class="edge"><title>Node4&#45;&gt;Node5</title>
<path fill="none" stroke="midnightblue" d="M318.238,-10C326.298,-10 335.186,-10 343.969,-10"/>
<polygon fill="midnightblue" stroke="midnightblue" points="344.175,-13.5001 354.175,-10 344.175,-6.5001 344.175,-13.5001"/>
</g>
<!-- Node5&#45;&gt;Node2 -->
<g id="edge5" class="edge"><title>Node5&#45;&gt;Node2</title>
<path fill="none" stroke="midnightblue" d="M437.776,-15.9596C446.216,-17.1931 455.292,-18.5195 464.308,-19.8373"/>
<polygon fill="midnightblue" stroke="midnightblue" points="464.025,-23.333 474.426,-21.316 465.037,-16.4066 464.025,-23.333"/>
</g>
</g>
</svg>
