<?xml version="1.0" encoding="UTF-8" standalone="no"?>
<!DOCTYPE svg PUBLIC "-//W3C//DTD SVG 1.1//EN"
 "http://www.w3.org/Graphics/SVG/1.1/DTD/svg11.dtd">
<!-- Generated by graphviz version 2.36.0 (20140111.2315)
 -->
<!-- Title: col Pages: 1 -->
<svg width="412pt" height="173pt"
 viewBox="0.00 0.00 412.00 173.00" xmlns="http://www.w3.org/2000/svg" xmlns:xlink="http://www.w3.org/1999/xlink">
<g id="graph0" class="graph" transform="scale(1 1) rotate(0) translate(4 169)">
<title>col</title>
<polygon fill="white" stroke="none" points="-4,4 -4,-169 408,-169 408,4 -4,4"/>
<!-- Node1 -->
<g id="node1" class="node"><title>Node1</title>
<polygon fill="#bfbfbf" stroke="black" points="0.5,-76.5 0.5,-95.5 29.5,-95.5 29.5,-76.5 0.5,-76.5"/>
<text text-anchor="middle" x="15" y="-83.5" font-family="Helvetica,sans-Serif" font-size="10.00">col</text>
</g>
<!-- Node2 -->
<g id="node2" class="node"><title>Node2</title>
<g id="a_node2"><a xlink:href="_g_u_i_2_include_2adc_8h.xhtml#a99fcc8dfc3bb71a3cd06f7e6968c12c3" target="_top" xlink:title="adc_analyzebaseline">
<polygon fill="white" stroke="black" points="206.5,-145.5 206.5,-164.5 313.5,-164.5 313.5,-145.5 206.5,-145.5"/>
<text text-anchor="middle" x="260" y="-152.5" font-family="Helvetica,sans-Serif" font-size="10.00">adc_analyzebaseline</text>
</a>
</g>
</g>
<!-- Node1&#45;&gt;Node2 -->
<g id="edge1" class="edge"><title>Node1&#45;&gt;Node2</title>
<path fill="none" stroke="midnightblue" d="M26.706,-104.599C35.437,-117.835 49.0752,-134.69 66,-143 109.696,-164.454 165.81,-165.455 206.257,-162.289"/>
<polygon fill="midnightblue" stroke="midnightblue" points="29.4807,-102.432 21.2389,-95.7741 23.5301,-106.118 29.4807,-102.432"/>
</g>
<!-- Node3 -->
<g id="node3" class="node"><title>Node3</title>
<g id="a_node3"><a xlink:href="_g_u_i_2_include_2adc_8h.xhtml#a25f6f40f42d10a2ecc7b970155d9eb53" target="_top" xlink:title="adc_getbaseline">
<polygon fill="white" stroke="black" points="216.5,-101.5 216.5,-120.5 303.5,-120.5 303.5,-101.5 216.5,-101.5"/>
<text text-anchor="middle" x="260" y="-108.5" font-family="Helvetica,sans-Serif" font-size="10.00">adc_getbaseline</text>
</a>
</g>
</g>
<!-- Node1&#45;&gt;Node3 -->
<g id="edge2" class="edge"><title>Node1&#45;&gt;Node3</title>
<path fill="none" stroke="midnightblue" d="M39.8712,-88.4559C80.7997,-92.6666 164.902,-101.319 216.186,-106.595"/>
<polygon fill="midnightblue" stroke="midnightblue" points="40.0667,-84.9576 29.761,-87.4157 39.3503,-91.9209 40.0667,-84.9576"/>
</g>
<!-- Node4 -->
<g id="node4" class="node"><title>Node4</title>
<g id="a_node4"><a xlink:href="_g_u_i_2_include_2adc_8h.xhtml#aa357272f6eac8b5f8104ea1237f2e65c" target="_top" xlink:title="adc_mblt">
<polygon fill="white" stroke="black" points="82,-114.5 82,-133.5 138,-133.5 138,-114.5 82,-114.5"/>
<text text-anchor="middle" x="110" y="-121.5" font-family="Helvetica,sans-Serif" font-size="10.00">adc_mblt</text>
</a>
</g>
</g>
<!-- Node1&#45;&gt;Node4 -->
<g id="edge3" class="edge"><title>Node1&#45;&gt;Node4</title>
<path fill="none" stroke="midnightblue" d="M39.2095,-95.4834C53.3258,-101.251 71.3027,-108.597 85.4758,-114.388"/>
<polygon fill="midnightblue" stroke="midnightblue" points="40.3034,-92.1496 29.7225,-91.607 37.6557,-98.6295 40.3034,-92.1496"/>
</g>
<!-- Node5 -->
<g id="node5" class="node"><title>Node5</title>
<g id="a_node5"><a xlink:href="graph_8cpp.xhtml#a47ba0a65658fc0ac6b76a02e4bb0918e" target="_top" xlink:title="graph_checkkey">
<polygon fill="white" stroke="black" points="66,-38.5 66,-57.5 154,-57.5 154,-38.5 66,-38.5"/>
<text text-anchor="middle" x="110" y="-45.5" font-family="Helvetica,sans-Serif" font-size="10.00">graph_checkkey</text>
</a>
</g>
</g>
<!-- Node1&#45;&gt;Node5 -->
<g id="edge6" class="edge"><title>Node1&#45;&gt;Node5</title>
<path fill="none" stroke="midnightblue" d="M39.2095,-76.5166C53.3258,-70.7486 71.3027,-63.4032 85.4758,-57.612"/>
<polygon fill="midnightblue" stroke="midnightblue" points="37.6557,-73.3705 29.7225,-80.393 40.3034,-79.8504 37.6557,-73.3705"/>
</g>
<!-- Node8 -->
<g id="node8" class="node"><title>Node8</title>
<g id="a_node8"><a xlink:href="mini_d_a_x_8cpp.xhtml#adedb285b02c41bde2158ded9cc9fd7ac" target="_top" xlink:title="main">
<polygon fill="white" stroke="black" points="241,-0.5 241,-19.5 279,-19.5 279,-0.5 241,-0.5"/>
<text text-anchor="middle" x="260" y="-7.5" font-family="Helvetica,sans-Serif" font-size="10.00">main</text>
</a>
</g>
</g>
<!-- Node1&#45;&gt;Node8 -->
<g id="edge10" class="edge"><title>Node1&#45;&gt;Node8</title>
<path fill="none" stroke="midnightblue" d="M26.7948,-67.5778C35.5714,-54.4321 49.2277,-37.6134 66,-29 124.104,0.839039 204.98,-3.6354 240.746,-7.55291"/>
<polygon fill="midnightblue" stroke="midnightblue" points="23.6512,-66.0022 21.2917,-76.331 29.5773,-69.728 23.6512,-66.0022"/>
</g>
<!-- Node4&#45;&gt;Node2 -->
<g id="edge4" class="edge"><title>Node4&#45;&gt;Node2</title>
<path fill="none" stroke="midnightblue" d="M148.033,-131.757C167.855,-135.909 192.439,-141.058 213.425,-145.454"/>
<polygon fill="midnightblue" stroke="midnightblue" points="148.651,-128.31 138.145,-129.686 147.216,-135.162 148.651,-128.31"/>
</g>
<!-- Node4&#45;&gt;Node3 -->
<g id="edge5" class="edge"><title>Node4&#45;&gt;Node3</title>
<path fill="none" stroke="midnightblue" d="M148.161,-120.736C168.885,-118.916 194.784,-116.641 216.335,-114.748"/>
<polygon fill="midnightblue" stroke="midnightblue" points="147.801,-117.254 138.145,-121.616 148.413,-124.227 147.801,-117.254"/>
</g>
<!-- Node6 -->
<g id="node6" class="node"><title>Node6</title>
<g id="a_node6"><a xlink:href="class_scope_manager.xhtml#adc3b57b668f590969c5379fe27567bba" target="_top" xlink:title="ScopeManager::SetChannel\lTresh">
<polygon fill="white" stroke="black" points="190.5,-39 190.5,-69 329.5,-69 329.5,-39 190.5,-39"/>
<text text-anchor="start" x="198.5" y="-57" font-family="Helvetica,sans-Serif" font-size="10.00">ScopeManager::SetChannel</text>
<text text-anchor="middle" x="260" y="-46" font-family="Helvetica,sans-Serif" font-size="10.00">Tresh</text>
</a>
</g>
</g>
<!-- Node5&#45;&gt;Node6 -->
<g id="edge7" class="edge"><title>Node5&#45;&gt;Node6</title>
<path fill="none" stroke="midnightblue" d="M164.308,-50.1611C172.777,-50.5045 181.639,-50.8637 190.4,-51.2189"/>
<polygon fill="midnightblue" stroke="midnightblue" points="164.339,-46.6596 154.206,-49.7516 164.056,-53.6539 164.339,-46.6596"/>
</g>
<!-- Node5&#45;&gt;Node8 -->
<g id="edge9" class="edge"><title>Node5&#45;&gt;Node8</title>
<path fill="none" stroke="midnightblue" d="M158.039,-35.9224C186.246,-28.6801 220.507,-19.8832 240.991,-14.6239"/>
<polygon fill="midnightblue" stroke="midnightblue" points="157.162,-32.534 148.347,-38.411 158.903,-39.3141 157.162,-32.534"/>
</g>
<!-- Node7 -->
<g id="node7" class="node"><title>Node7</title>
<g id="a_node7"><a xlink:href="_multi_d_a_q_8cpp.xhtml#adedb285b02c41bde2158ded9cc9fd7ac" target="_top" xlink:title="main">
<polygon fill="white" stroke="black" points="366,-44.5 366,-63.5 404,-63.5 404,-44.5 366,-44.5"/>
<text text-anchor="middle" x="385" y="-51.5" font-family="Helvetica,sans-Serif" font-size="10.00">main</text>
</a>
</g>
</g>
<!-- Node6&#45;&gt;Node7 -->
<g id="edge8" class="edge"><title>Node6&#45;&gt;Node7</title>
<path fill="none" stroke="midnightblue" d="M339.94,-54C349.599,-54 358.633,-54 365.975,-54"/>
<polygon fill="midnightblue" stroke="midnightblue" points="339.692,-50.5001 329.692,-54 339.692,-57.5001 339.692,-50.5001"/>
</g>
</g>
</svg>
