<?xml version="1.0" encoding="UTF-8" standalone="no"?>
<!DOCTYPE svg PUBLIC "-//W3C//DTD SVG 1.1//EN"
 "http://www.w3.org/Graphics/SVG/1.1/DTD/svg11.dtd">
<!-- Generated by graphviz version 2.36.0 (20140111.2315)
 -->
<!-- Title: adc_readreg Pages: 1 -->
<svg width="312pt" height="28pt"
 viewBox="0.00 0.00 312.00 28.00" xmlns="http://www.w3.org/2000/svg" xmlns:xlink="http://www.w3.org/1999/xlink">
<g id="graph0" class="graph" transform="scale(1 1) rotate(0) translate(4 24)">
<title>adc_readreg</title>
<polygon fill="white" stroke="none" points="-4,4 -4,-24 308,-24 308,4 -4,4"/>
<!-- Node1 -->
<g id="node1" class="node"><title>Node1</title>
<polygon fill="#bfbfbf" stroke="black" points="0,-0.5 0,-19.5 70,-19.5 70,-0.5 0,-0.5"/>
<text text-anchor="middle" x="35" y="-7.5" font-family="Helvetica,sans-Serif" font-size="10.00">adc_readreg</text>
</g>
<!-- Node2 -->
<g id="node2" class="node"><title>Node2</title>
<g id="a_node2"><a xlink:href="class_a_d_c_manager.xhtml#a8900454c77298be0c3c81d61c92604a4" target="_top" xlink:title="ADCManager::GetBuffer">
<polygon fill="white" stroke="black" points="106,-0.5 106,-19.5 230,-19.5 230,-0.5 106,-0.5"/>
<text text-anchor="middle" x="168" y="-7.5" font-family="Helvetica,sans-Serif" font-size="10.00">ADCManager::GetBuffer</text>
</a>
</g>
</g>
<!-- Node1&#45;&gt;Node2 -->
<g id="edge1" class="edge"><title>Node1&#45;&gt;Node2</title>
<path fill="none" stroke="midnightblue" d="M80.23,-10C88.4962,-10 97.2693,-10 105.938,-10"/>
<polygon fill="midnightblue" stroke="midnightblue" points="80.0768,-6.5001 70.0767,-10 80.0767,-13.5001 80.0768,-6.5001"/>
</g>
<!-- Node3 -->
<g id="node3" class="node"><title>Node3</title>
<g id="a_node3"><a xlink:href="_multi_d_a_q_8cpp.xhtml#adedb285b02c41bde2158ded9cc9fd7ac" target="_top" xlink:title="main">
<polygon fill="white" stroke="black" points="266,-0.5 266,-19.5 304,-19.5 304,-0.5 266,-0.5"/>
<text text-anchor="middle" x="285" y="-7.5" font-family="Helvetica,sans-Serif" font-size="10.00">main</text>
</a>
</g>
</g>
<!-- Node2&#45;&gt;Node3 -->
<g id="edge2" class="edge"><title>Node2&#45;&gt;Node3</title>
<path fill="none" stroke="midnightblue" d="M240.229,-10C249.71,-10 258.662,-10 265.97,-10"/>
<polygon fill="midnightblue" stroke="midnightblue" points="240.204,-6.5001 230.204,-10 240.204,-13.5001 240.204,-6.5001"/>
</g>
</g>
</svg>
