<?xml version="1.0" encoding="UTF-8" standalone="no"?>
<!DOCTYPE svg PUBLIC "-//W3C//DTD SVG 1.1//EN"
 "http://www.w3.org/Graphics/SVG/1.1/DTD/svg11.dtd">
<!-- Generated by graphviz version 2.36.0 (20140111.2315)
 -->
<!-- Title: adc_writereg Pages: 1 -->
<svg width="314pt" height="142pt"
 viewBox="0.00 0.00 314.00 142.00" xmlns="http://www.w3.org/2000/svg" xmlns:xlink="http://www.w3.org/1999/xlink">
<g id="graph0" class="graph" transform="scale(1 1) rotate(0) translate(4 138)">
<title>adc_writereg</title>
<polygon fill="white" stroke="none" points="-4,4 -4,-138 310,-138 310,4 -4,4"/>
<!-- Node1 -->
<g id="node1" class="node"><title>Node1</title>
<polygon fill="#bfbfbf" stroke="black" points="0,-57.5 0,-76.5 72,-76.5 72,-57.5 0,-57.5"/>
<text text-anchor="middle" x="36" y="-64.5" font-family="Helvetica,sans-Serif" font-size="10.00">adc_writereg</text>
</g>
<!-- Node2 -->
<g id="node2" class="node"><title>Node2</title>
<g id="a_node2"><a xlink:href="_g_u_i_2_include_2control_8h.xhtml#af7203d6482025349821e2764d08e103c" target="_top" xlink:title="control_configbaseline">
<polygon fill="white" stroke="black" points="113.5,-114.5 113.5,-133.5 226.5,-133.5 226.5,-114.5 113.5,-114.5"/>
<text text-anchor="middle" x="170" y="-121.5" font-family="Helvetica,sans-Serif" font-size="10.00">control_configbaseline</text>
</a>
</g>
</g>
<!-- Node1&#45;&gt;Node2 -->
<g id="edge1" class="edge"><title>Node1&#45;&gt;Node2</title>
<path fill="none" stroke="midnightblue" d="M61.9606,-81.8602C75.3191,-89.425 92.2276,-98.3931 108,-105 116.389,-108.514 125.663,-111.726 134.393,-114.47"/>
<polygon fill="midnightblue" stroke="midnightblue" points="63.3397,-78.6153 52.928,-76.6537 59.8439,-84.68 63.3397,-78.6153"/>
</g>
<!-- Node3 -->
<g id="node3" class="node"><title>Node3</title>
<g id="a_node3"><a xlink:href="_g_u_i_2_include_2control_8h.xhtml#aeab8b16e95a01d21a60fdf5490f781d2" target="_top" xlink:title="control_configfile">
<polygon fill="white" stroke="black" points="125,-76.5 125,-95.5 215,-95.5 215,-76.5 125,-76.5"/>
<text text-anchor="middle" x="170" y="-83.5" font-family="Helvetica,sans-Serif" font-size="10.00">control_configfile</text>
</a>
</g>
</g>
<!-- Node1&#45;&gt;Node3 -->
<g id="edge2" class="edge"><title>Node1&#45;&gt;Node3</title>
<path fill="none" stroke="midnightblue" d="M82.2467,-73.5128C96.0123,-75.4942 111.119,-77.6686 124.814,-79.6398"/>
<polygon fill="midnightblue" stroke="midnightblue" points="82.4237,-70.0023 72.027,-72.0418 81.4263,-76.9309 82.4237,-70.0023"/>
</g>
<!-- Node4 -->
<g id="node4" class="node"><title>Node4</title>
<g id="a_node4"><a xlink:href="class_a_d_c_manager.xhtml#a8900454c77298be0c3c81d61c92604a4" target="_top" xlink:title="ADCManager::GetBuffer">
<polygon fill="white" stroke="black" points="108,-38.5 108,-57.5 232,-57.5 232,-38.5 108,-38.5"/>
<text text-anchor="middle" x="170" y="-45.5" font-family="Helvetica,sans-Serif" font-size="10.00">ADCManager::GetBuffer</text>
</a>
</g>
</g>
<!-- Node1&#45;&gt;Node4 -->
<g id="edge3" class="edge"><title>Node1&#45;&gt;Node4</title>
<path fill="none" stroke="midnightblue" d="M82.1703,-60.4982C90.4175,-59.3111 99.1483,-58.0544 107.77,-56.8134"/>
<polygon fill="midnightblue" stroke="midnightblue" points="81.4263,-57.0691 72.027,-61.9582 82.4237,-63.9977 81.4263,-57.0691"/>
</g>
<!-- Node6 -->
<g id="node6" class="node"><title>Node6</title>
<g id="a_node6"><a xlink:href="_x_d_a_q_2_core_2_source_2xml_8cpp.xhtml#a529bbf1c65c6dd055ba0620b7e7000ed" target="_top" xlink:title="xml_readsettings">
<polygon fill="white" stroke="black" points="124.5,-0.5 124.5,-19.5 215.5,-19.5 215.5,-0.5 124.5,-0.5"/>
<text text-anchor="middle" x="170" y="-7.5" font-family="Helvetica,sans-Serif" font-size="10.00">xml_readsettings</text>
</a>
</g>
</g>
<!-- Node1&#45;&gt;Node6 -->
<g id="edge5" class="edge"><title>Node1&#45;&gt;Node6</title>
<path fill="none" stroke="midnightblue" d="M61.9606,-52.1398C75.3191,-44.575 92.2276,-35.6069 108,-29 116.389,-25.4858 125.663,-22.2735 134.393,-19.5303"/>
<polygon fill="midnightblue" stroke="midnightblue" points="59.8439,-49.32 52.928,-57.3463 63.3397,-55.3847 59.8439,-49.32"/>
</g>
<!-- Node5 -->
<g id="node5" class="node"><title>Node5</title>
<g id="a_node5"><a xlink:href="_multi_d_a_q_8cpp.xhtml#adedb285b02c41bde2158ded9cc9fd7ac" target="_top" xlink:title="main">
<polygon fill="white" stroke="black" points="268,-38.5 268,-57.5 306,-57.5 306,-38.5 268,-38.5"/>
<text text-anchor="middle" x="287" y="-45.5" font-family="Helvetica,sans-Serif" font-size="10.00">main</text>
</a>
</g>
</g>
<!-- Node4&#45;&gt;Node5 -->
<g id="edge4" class="edge"><title>Node4&#45;&gt;Node5</title>
<path fill="none" stroke="midnightblue" d="M242.229,-48C251.71,-48 260.662,-48 267.97,-48"/>
<polygon fill="midnightblue" stroke="midnightblue" points="242.204,-44.5001 232.204,-48 242.204,-51.5001 242.204,-44.5001"/>
</g>
</g>
</svg>
