<?xml version="1.0" encoding="UTF-8" standalone="no"?>
<!DOCTYPE svg PUBLIC "-//W3C//DTD SVG 1.1//EN"
 "http://www.w3.org/Graphics/SVG/1.1/DTD/svg11.dtd">
<!-- Generated by graphviz version 2.36.0 (20140111.2315)
 -->
<!-- Title: /data/Software/DAQ/PDAQ/Core/Source/DAQContainer.cpp Pages: 1 -->
<svg width="230pt" height="152pt"
 viewBox="0.00 0.00 230.00 152.00" xmlns="http://www.w3.org/2000/svg" xmlns:xlink="http://www.w3.org/1999/xlink">
<g id="graph0" class="graph" transform="scale(1 1) rotate(0) translate(4 148)">
<title>/data/Software/DAQ/PDAQ/Core/Source/DAQContainer.cpp</title>
<polygon fill="white" stroke="none" points="-4,4 -4,-148 226,-148 226,4 -4,4"/>
<!-- Node1 -->
<g id="node1" class="node"><title>Node1</title>
<polygon fill="#bfbfbf" stroke="black" points="-0.5,-113 -0.5,-143 190.5,-143 190.5,-113 -0.5,-113"/>
<text text-anchor="start" x="7.5" y="-131" font-family="Helvetica,sans-Serif" font-size="10.00">/data/Software/DAQ</text>
<text text-anchor="middle" x="95" y="-120" font-family="Helvetica,sans-Serif" font-size="10.00">/PDAQ/Core/Source/DAQContainer.cpp</text>
</g>
<!-- Node2 -->
<g id="node2" class="node"><title>Node2</title>
<polygon fill="white" stroke="#bfbfbf" points="4,-56.5 4,-75.5 56,-75.5 56,-56.5 4,-56.5"/>
<text text-anchor="middle" x="30" y="-63.5" font-family="Helvetica,sans-Serif" font-size="10.00">sstream</text>
</g>
<!-- Node1&#45;&gt;Node2 -->
<g id="edge1" class="edge"><title>Node1&#45;&gt;Node2</title>
<path fill="none" stroke="midnightblue" d="M79.5959,-112.781C69.7611,-103.703 57.0065,-91.9291 46.8947,-82.5951"/>
<polygon fill="midnightblue" stroke="midnightblue" points="49.1801,-79.9415 39.4581,-75.7305 44.4321,-85.0852 49.1801,-79.9415"/>
</g>
<!-- Node3 -->
<g id="node3" class="node"><title>Node3</title>
<polygon fill="white" stroke="#bfbfbf" points="74.5,-56.5 74.5,-75.5 115.5,-75.5 115.5,-56.5 74.5,-56.5"/>
<text text-anchor="middle" x="95" y="-63.5" font-family="Helvetica,sans-Serif" font-size="10.00">string</text>
</g>
<!-- Node1&#45;&gt;Node3 -->
<g id="edge2" class="edge"><title>Node1&#45;&gt;Node3</title>
<path fill="none" stroke="midnightblue" d="M95,-112.781C95,-104.781 95,-94.6887 95,-86.0168"/>
<polygon fill="midnightblue" stroke="midnightblue" points="98.5001,-85.7305 95,-75.7305 91.5001,-85.7306 98.5001,-85.7305"/>
</g>
<!-- Node4 -->
<g id="node4" class="node"><title>Node4</title>
<g id="a_node4"><a xlink:href="_d_a_q_container_8h.xhtml" target="_top" xlink:title="DAQContainer.h">
<polygon fill="white" stroke="black" points="133.5,-56.5 133.5,-75.5 222.5,-75.5 222.5,-56.5 133.5,-56.5"/>
<text text-anchor="middle" x="178" y="-63.5" font-family="Helvetica,sans-Serif" font-size="10.00">DAQContainer.h</text>
</a>
</g>
</g>
<!-- Node1&#45;&gt;Node4 -->
<g id="edge3" class="edge"><title>Node1&#45;&gt;Node4</title>
<path fill="none" stroke="midnightblue" d="M114.67,-112.781C127.601,-103.433 144.486,-91.2273 157.568,-81.77"/>
<polygon fill="midnightblue" stroke="midnightblue" points="159.869,-84.4255 165.923,-75.7305 155.768,-78.7526 159.869,-84.4255"/>
</g>
<!-- Node5 -->
<g id="node5" class="node"><title>Node5</title>
<polygon fill="white" stroke="#bfbfbf" points="151.5,-0.5 151.5,-19.5 204.5,-19.5 204.5,-0.5 151.5,-0.5"/>
<text text-anchor="middle" x="178" y="-7.5" font-family="Helvetica,sans-Serif" font-size="10.00">complex</text>
</g>
<!-- Node4&#45;&gt;Node5 -->
<g id="edge4" class="edge"><title>Node4&#45;&gt;Node5</title>
<path fill="none" stroke="midnightblue" d="M178,-56.083C178,-49.0059 178,-38.8611 178,-29.9865"/>
<polygon fill="midnightblue" stroke="midnightblue" points="181.5,-29.751 178,-19.7511 174.5,-29.7511 181.5,-29.751"/>
</g>
</g>
</svg>
