<?xml version="1.0" encoding="UTF-8" standalone="no"?>
<!DOCTYPE svg PUBLIC "-//W3C//DTD SVG 1.1//EN"
 "http://www.w3.org/Graphics/SVG/1.1/DTD/svg11.dtd">
<!-- Generated by graphviz version 2.36.0 (20140111.2315)
 -->
<!-- Title: /data/Software/DAQ/PDAQ/Core/Include/DAQContainer.h Pages: 1 -->
<svg width="679pt" height="108pt"
 viewBox="0.00 0.00 679.00 108.00" xmlns="http://www.w3.org/2000/svg" xmlns:xlink="http://www.w3.org/1999/xlink">
<g id="graph0" class="graph" transform="scale(1 1) rotate(0) translate(4 104)">
<title>/data/Software/DAQ/PDAQ/Core/Include/DAQContainer.h</title>
<polygon fill="white" stroke="none" points="-4,4 -4,-104 675,-104 675,4 -4,4"/>
<!-- Node1 -->
<g id="node1" class="node"><title>Node1</title>
<polygon fill="#bfbfbf" stroke="black" points="233,-69 233,-99 415,-99 415,-69 233,-69"/>
<text text-anchor="start" x="241" y="-87" font-family="Helvetica,sans-Serif" font-size="10.00">/data/Software/DAQ</text>
<text text-anchor="middle" x="324" y="-76" font-family="Helvetica,sans-Serif" font-size="10.00">/PDAQ/Core/Include/DAQContainer.h</text>
</g>
<!-- Node2 -->
<g id="node2" class="node"><title>Node2</title>
<g id="a_node2"><a xlink:href="_z_d_a_q_8cpp.xhtml" target="_top" xlink:title="/data/Software/DAQ\l/PDAQ/Application/ZDAQ.cpp">
<polygon fill="white" stroke="black" points="-0.5,-1 -0.5,-31 148.5,-31 148.5,-1 -0.5,-1"/>
<text text-anchor="start" x="7.5" y="-19" font-family="Helvetica,sans-Serif" font-size="10.00">/data/Software/DAQ</text>
<text text-anchor="middle" x="74" y="-8" font-family="Helvetica,sans-Serif" font-size="10.00">/PDAQ/Application/ZDAQ.cpp</text>
</a>
</g>
</g>
<!-- Node1&#45;&gt;Node2 -->
<g id="edge1" class="edge"><title>Node1&#45;&gt;Node2</title>
<path fill="none" stroke="midnightblue" d="M260.996,-66.367C219.728,-55.4721 166.387,-41.3902 127.243,-31.0561"/>
<polygon fill="midnightblue" stroke="midnightblue" points="260.113,-69.7537 270.675,-68.9223 261.9,-62.9856 260.113,-69.7537"/>
</g>
<!-- Node3 -->
<g id="node3" class="node"><title>Node3</title>
<g id="a_node3"><a xlink:href="_p_d_a_q_2_core_2_include_2xml_8h.xhtml" target="_top" xlink:title="/data/Software/DAQ\l/PDAQ/Core/Include/xml.h">
<polygon fill="white" stroke="black" points="167,-1 167,-31 301,-31 301,-1 167,-1"/>
<text text-anchor="start" x="175" y="-19" font-family="Helvetica,sans-Serif" font-size="10.00">/data/Software/DAQ</text>
<text text-anchor="middle" x="234" y="-8" font-family="Helvetica,sans-Serif" font-size="10.00">/PDAQ/Core/Include/xml.h</text>
</a>
</g>
</g>
<!-- Node1&#45;&gt;Node3 -->
<g id="edge2" class="edge"><title>Node1&#45;&gt;Node3</title>
<path fill="none" stroke="midnightblue" d="M296.181,-62.5994C282.233,-52.3712 265.695,-40.2428 253.181,-31.0663"/>
<polygon fill="midnightblue" stroke="midnightblue" points="294.337,-65.5877 304.471,-68.679 298.477,-59.9429 294.337,-65.5877"/>
</g>
<!-- Node4 -->
<g id="node4" class="node"><title>Node4</title>
<g id="a_node4"><a xlink:href="_d_a_q_container_8cpp.xhtml" target="_top" xlink:title="/data/Software/DAQ\l/PDAQ/Core/Source/DAQContainer.cpp">
<polygon fill="white" stroke="black" points="319.5,-1 319.5,-31 510.5,-31 510.5,-1 319.5,-1"/>
<text text-anchor="start" x="327.5" y="-19" font-family="Helvetica,sans-Serif" font-size="10.00">/data/Software/DAQ</text>
<text text-anchor="middle" x="415" y="-8" font-family="Helvetica,sans-Serif" font-size="10.00">/PDAQ/Core/Source/DAQContainer.cpp</text>
</a>
</g>
</g>
<!-- Node1&#45;&gt;Node4 -->
<g id="edge3" class="edge"><title>Node1&#45;&gt;Node4</title>
<path fill="none" stroke="midnightblue" d="M352.128,-62.5994C366.231,-52.3712 382.953,-40.2428 395.606,-31.0663"/>
<polygon fill="midnightblue" stroke="midnightblue" points="349.786,-59.9745 343.746,-68.679 353.896,-65.6411 349.786,-59.9745"/>
</g>
<!-- Node5 -->
<g id="node5" class="node"><title>Node5</title>
<g id="a_node5"><a xlink:href="_p_d_a_q_2_core_2_source_2xml_8cpp.xhtml" target="_top" xlink:title="/data/Software/DAQ\l/PDAQ/Core/Source/xml.cpp">
<polygon fill="white" stroke="black" points="528.5,-1 528.5,-31 671.5,-31 671.5,-1 528.5,-1"/>
<text text-anchor="start" x="536.5" y="-19" font-family="Helvetica,sans-Serif" font-size="10.00">/data/Software/DAQ</text>
<text text-anchor="middle" x="600" y="-8" font-family="Helvetica,sans-Serif" font-size="10.00">/PDAQ/Core/Source/xml.cpp</text>
</a>
</g>
</g>
<!-- Node1&#45;&gt;Node5 -->
<g id="edge4" class="edge"><title>Node1&#45;&gt;Node5</title>
<path fill="none" stroke="midnightblue" d="M392.693,-66.5735C438.371,-55.6505 497.731,-41.4556 541.22,-31.0561"/>
<polygon fill="midnightblue" stroke="midnightblue" points="391.782,-63.1925 382.87,-68.9223 393.41,-70.0005 391.782,-63.1925"/>
</g>
</g>
</svg>
