<?xml version="1.0" encoding="UTF-8" standalone="no"?>
<!DOCTYPE svg PUBLIC "-//W3C//DTD SVG 1.1//EN"
 "http://www.w3.org/Graphics/SVG/1.1/DTD/svg11.dtd">
<!-- Generated by graphviz version 2.36.0 (20140111.2315)
 -->
<!-- Title: /data/Software/DAQ/PDAQ/Core/Include/DRS.h Pages: 1 -->
<svg width="202pt" height="96pt"
 viewBox="0.00 0.00 202.00 96.00" xmlns="http://www.w3.org/2000/svg" xmlns:xlink="http://www.w3.org/1999/xlink">
<g id="graph0" class="graph" transform="scale(1 1) rotate(0) translate(4 92)">
<title>/data/Software/DAQ/PDAQ/Core/Include/DRS.h</title>
<polygon fill="white" stroke="none" points="-4,4 -4,-92 198,-92 198,4 -4,4"/>
<!-- Node1 -->
<g id="node1" class="node"><title>Node1</title>
<polygon fill="#bfbfbf" stroke="black" points="19,-57 19,-87 159,-87 159,-57 19,-57"/>
<text text-anchor="start" x="27" y="-75" font-family="Helvetica,sans-Serif" font-size="10.00">/data/Software/DAQ</text>
<text text-anchor="middle" x="89" y="-64" font-family="Helvetica,sans-Serif" font-size="10.00">/PDAQ/Core/Include/DRS.h</text>
</g>
<!-- Node2 -->
<g id="node2" class="node"><title>Node2</title>
<polygon fill="white" stroke="#bfbfbf" points="0,-0.5 0,-19.5 46,-19.5 46,-0.5 0,-0.5"/>
<text text-anchor="middle" x="23" y="-7.5" font-family="Helvetica,sans-Serif" font-size="10.00">stdio.h</text>
</g>
<!-- Node1&#45;&gt;Node2 -->
<g id="edge1" class="edge"><title>Node1&#45;&gt;Node2</title>
<path fill="none" stroke="midnightblue" d="M73.3589,-56.7808C63.3728,-47.7026 50.422,-35.9291 40.1546,-26.5951"/>
<polygon fill="midnightblue" stroke="midnightblue" points="42.3574,-23.8675 32.6036,-19.7305 37.6486,-29.0471 42.3574,-23.8675"/>
</g>
<!-- Node3 -->
<g id="node3" class="node"><title>Node3</title>
<polygon fill="white" stroke="#bfbfbf" points="64.5,-0.5 64.5,-19.5 113.5,-19.5 113.5,-0.5 64.5,-0.5"/>
<text text-anchor="middle" x="89" y="-7.5" font-family="Helvetica,sans-Serif" font-size="10.00">string.h</text>
</g>
<!-- Node1&#45;&gt;Node3 -->
<g id="edge2" class="edge"><title>Node1&#45;&gt;Node3</title>
<path fill="none" stroke="midnightblue" d="M89,-56.7808C89,-48.7812 89,-38.6887 89,-30.0168"/>
<polygon fill="midnightblue" stroke="midnightblue" points="92.5001,-29.7305 89,-19.7305 85.5001,-29.7306 92.5001,-29.7305"/>
</g>
<!-- Node4 -->
<g id="node4" class="node"><title>Node4</title>
<g id="a_node4"><a xlink:href="averager_8h.xhtml" target="_top" xlink:title="averager.h">
<polygon fill="white" stroke="black" points="132,-0.5 132,-19.5 194,-19.5 194,-0.5 132,-0.5"/>
<text text-anchor="middle" x="163" y="-7.5" font-family="Helvetica,sans-Serif" font-size="10.00">averager.h</text>
</a>
</g>
</g>
<!-- Node1&#45;&gt;Node4 -->
<g id="edge3" class="edge"><title>Node1&#45;&gt;Node4</title>
<path fill="none" stroke="midnightblue" d="M106.537,-56.7808C117.955,-47.5228 132.83,-35.4618 144.446,-26.0435"/>
<polygon fill="midnightblue" stroke="midnightblue" points="146.669,-28.7472 152.232,-19.7305 142.26,-23.3099 146.669,-28.7472"/>
</g>
</g>
</svg>
