<?xml version="1.0" encoding="UTF-8" standalone="no"?>
<!DOCTYPE svg PUBLIC "-//W3C//DTD SVG 1.1//EN"
 "http://www.w3.org/Graphics/SVG/1.1/DTD/svg11.dtd">
<!-- Generated by graphviz version 2.36.0 (20140111.2315)
 -->
<!-- Title: getch Pages: 1 -->
<svg width="306pt" height="115pt"
 viewBox="0.00 0.00 306.00 115.00" xmlns="http://www.w3.org/2000/svg" xmlns:xlink="http://www.w3.org/1999/xlink">
<g id="graph0" class="graph" transform="scale(1 1) rotate(0) translate(4 111)">
<title>getch</title>
<polygon fill="white" stroke="none" points="-4,4 -4,-111 302,-111 302,4 -4,4"/>
<!-- Node1 -->
<g id="node1" class="node"><title>Node1</title>
<polygon fill="#bfbfbf" stroke="black" points="0.5,-49.5 0.5,-68.5 41.5,-68.5 41.5,-49.5 0.5,-49.5"/>
<text text-anchor="middle" x="21" y="-56.5" font-family="Helvetica,sans-Serif" font-size="10.00">getch</text>
</g>
<!-- Node2 -->
<g id="node2" class="node"><title>Node2</title>
<g id="a_node2"><a xlink:href="_multi_d_a_q_8cpp.xhtml#adedb285b02c41bde2158ded9cc9fd7ac" target="_top" xlink:title="main">
<polygon fill="white" stroke="black" points="132,-87.5 132,-106.5 170,-106.5 170,-87.5 132,-87.5"/>
<text text-anchor="middle" x="151" y="-94.5" font-family="Helvetica,sans-Serif" font-size="10.00">main</text>
</a>
</g>
</g>
<!-- Node1&#45;&gt;Node2 -->
<g id="edge1" class="edge"><title>Node1&#45;&gt;Node2</title>
<path fill="none" stroke="midnightblue" d="M51.1952,-69.3309C59.7903,-72.2568 69.2387,-75.3611 78,-78 96.1966,-83.4807 117.236,-88.932 131.853,-92.5805"/>
<polygon fill="midnightblue" stroke="midnightblue" points="52.1843,-65.9698 41.5895,-66.0168 49.9011,-72.587 52.1843,-65.9698"/>
</g>
<!-- Node3 -->
<g id="node3" class="node"><title>Node3</title>
<g id="a_node3"><a xlink:href="class_d_r_s_board.xhtml#a9bab9ef266966813402a833f96810245" target="_top" xlink:title="DRSBoard::RAMTest">
<polygon fill="white" stroke="black" points="95,-49.5 95,-68.5 207,-68.5 207,-49.5 95,-49.5"/>
<text text-anchor="middle" x="151" y="-56.5" font-family="Helvetica,sans-Serif" font-size="10.00">DRSBoard::RAMTest</text>
</a>
</g>
</g>
<!-- Node1&#45;&gt;Node3 -->
<g id="edge2" class="edge"><title>Node1&#45;&gt;Node3</title>
<path fill="none" stroke="midnightblue" d="M51.8137,-59C64.6414,-59 80.0625,-59 94.8422,-59"/>
<polygon fill="midnightblue" stroke="midnightblue" points="51.7195,-55.5001 41.7195,-59 51.7194,-62.5001 51.7195,-55.5001"/>
</g>
<!-- Node4 -->
<g id="node4" class="node"><title>Node4</title>
<g id="a_node4"><a xlink:href="class_scaler_manager.xhtml#ac7e2293e35ac55984d223eff9c6d4b6c" target="_top" xlink:title="ScalerManager::ReadMultiple\lCycles">
<polygon fill="white" stroke="black" points="78.5,-0 78.5,-30 223.5,-30 223.5,-0 78.5,-0"/>
<text text-anchor="start" x="86.5" y="-18" font-family="Helvetica,sans-Serif" font-size="10.00">ScalerManager::ReadMultiple</text>
<text text-anchor="middle" x="151" y="-7" font-family="Helvetica,sans-Serif" font-size="10.00">Cycles</text>
</a>
</g>
</g>
<!-- Node1&#45;&gt;Node4 -->
<g id="edge3" class="edge"><title>Node1&#45;&gt;Node4</title>
<path fill="none" stroke="midnightblue" d="M51.2166,-48.9568C67.4563,-43.3744 87.9877,-36.3167 106.12,-30.0836"/>
<polygon fill="midnightblue" stroke="midnightblue" points="50.0386,-45.6607 41.7195,-52.2214 52.3142,-52.2805 50.0386,-45.6607"/>
</g>
<!-- Node5 -->
<g id="node5" class="node"><title>Node5</title>
<g id="a_node5"><a xlink:href="scaler_8cpp.xhtml#a0ddf1224851353fc92bfbff6f499fa97" target="_top" xlink:title="main">
<polygon fill="white" stroke="black" points="260,-5.5 260,-24.5 298,-24.5 298,-5.5 260,-5.5"/>
<text text-anchor="middle" x="279" y="-12.5" font-family="Helvetica,sans-Serif" font-size="10.00">main</text>
</a>
</g>
</g>
<!-- Node4&#45;&gt;Node5 -->
<g id="edge4" class="edge"><title>Node4&#45;&gt;Node5</title>
<path fill="none" stroke="midnightblue" d="M233.944,-15C243.466,-15 252.35,-15 259.611,-15"/>
<polygon fill="midnightblue" stroke="midnightblue" points="233.833,-11.5001 223.833,-15 233.833,-18.5001 233.833,-11.5001"/>
</g>
</g>
</svg>
