<?xml version="1.0" encoding="UTF-8" standalone="no"?>
<!DOCTYPE svg PUBLIC "-//W3C//DTD SVG 1.1//EN"
 "http://www.w3.org/Graphics/SVG/1.1/DTD/svg11.dtd">
<!-- Generated by graphviz version 2.36.0 (20140111.2315)
 -->
<!-- Title: drs_kbhit Pages: 1 -->
<svg width="248pt" height="66pt"
 viewBox="0.00 0.00 248.00 66.00" xmlns="http://www.w3.org/2000/svg" xmlns:xlink="http://www.w3.org/1999/xlink">
<g id="graph0" class="graph" transform="scale(1 1) rotate(0) translate(4 62)">
<title>drs_kbhit</title>
<polygon fill="white" stroke="none" points="-4,4 -4,-62 244,-62 244,4 -4,4"/>
<!-- Node1 -->
<g id="node1" class="node"><title>Node1</title>
<polygon fill="#bfbfbf" stroke="black" points="0,-19.5 0,-38.5 56,-38.5 56,-19.5 0,-19.5"/>
<text text-anchor="middle" x="28" y="-26.5" font-family="Helvetica,sans-Serif" font-size="10.00">drs_kbhit</text>
</g>
<!-- Node2 -->
<g id="node2" class="node"><title>Node2</title>
<g id="a_node2"><a xlink:href="class_d_r_s_board.xhtml#ad47a75a951a6334ef8859a66a0c3cf70" target="_top" xlink:title="DRSBoard::MonitorFrequency">
<polygon fill="white" stroke="black" points="92,-38.5 92,-57.5 240,-57.5 240,-38.5 92,-38.5"/>
<text text-anchor="middle" x="166" y="-45.5" font-family="Helvetica,sans-Serif" font-size="10.00">DRSBoard::MonitorFrequency</text>
</a>
</g>
</g>
<!-- Node1&#45;&gt;Node2 -->
<g id="edge1" class="edge"><title>Node1&#45;&gt;Node2</title>
<path fill="none" stroke="midnightblue" d="M66.3891,-34.2235C75.8403,-35.5439 86.2885,-37.0035 96.7448,-38.4643"/>
<polygon fill="midnightblue" stroke="midnightblue" points="66.5829,-30.7166 56.1948,-32.7993 65.6143,-37.6493 66.5829,-30.7166"/>
</g>
<!-- Node3 -->
<g id="node3" class="node"><title>Node3</title>
<g id="a_node3"><a xlink:href="class_d_r_s_board.xhtml#a9bab9ef266966813402a833f96810245" target="_top" xlink:title="DRSBoard::RAMTest">
<polygon fill="white" stroke="black" points="110,-0.5 110,-19.5 222,-19.5 222,-0.5 110,-0.5"/>
<text text-anchor="middle" x="166" y="-7.5" font-family="Helvetica,sans-Serif" font-size="10.00">DRSBoard::RAMTest</text>
</a>
</g>
</g>
<!-- Node1&#45;&gt;Node3 -->
<g id="edge2" class="edge"><title>Node1&#45;&gt;Node3</title>
<path fill="none" stroke="midnightblue" d="M66.4413,-23.7692C79.8169,-21.9006 95.1843,-19.7537 109.743,-17.7197"/>
<polygon fill="midnightblue" stroke="midnightblue" points="65.6143,-20.3507 56.1948,-25.2007 66.5829,-27.2834 65.6143,-20.3507"/>
</g>
</g>
</svg>
