<?xml version="1.0" encoding="UTF-8" standalone="no"?>
<!DOCTYPE svg PUBLIC "-//W3C//DTD SVG 1.1//EN"
 "http://www.w3.org/Graphics/SVG/1.1/DTD/svg11.dtd">
<!-- Generated by graphviz version 2.36.0 (20140111.2315)
 -->
<!-- Title: /data/Software/DAQ/PDAQ/Core/Source/DRS.cpp Pages: 1 -->
<svg width="1084pt" height="152pt"
 viewBox="0.00 0.00 1084.00 152.00" xmlns="http://www.w3.org/2000/svg" xmlns:xlink="http://www.w3.org/1999/xlink">
<g id="graph0" class="graph" transform="scale(1 1) rotate(0) translate(4 148)">
<title>/data/Software/DAQ/PDAQ/Core/Source/DRS.cpp</title>
<polygon fill="white" stroke="none" points="-4,4 -4,-148 1080,-148 1080,4 -4,4"/>
<!-- Node1 -->
<g id="node1" class="node"><title>Node1</title>
<polygon fill="#bfbfbf" stroke="black" points="430.5,-113 430.5,-143 579.5,-143 579.5,-113 430.5,-113"/>
<text text-anchor="start" x="438.5" y="-131" font-family="Helvetica,sans-Serif" font-size="10.00">/data/Software/DAQ</text>
<text text-anchor="middle" x="505" y="-120" font-family="Helvetica,sans-Serif" font-size="10.00">/PDAQ/Core/Source/DRS.cpp</text>
</g>
<!-- Node2 -->
<g id="node2" class="node"><title>Node2</title>
<polygon fill="white" stroke="#bfbfbf" points="0,-0.5 0,-19.5 46,-19.5 46,-0.5 0,-0.5"/>
<text text-anchor="middle" x="23" y="-7.5" font-family="Helvetica,sans-Serif" font-size="10.00">stdio.h</text>
</g>
<!-- Node1&#45;&gt;Node2 -->
<g id="edge1" class="edge"><title>Node1&#45;&gt;Node2</title>
<path fill="none" stroke="midnightblue" d="M430.196,-126.246C320.141,-123.841 121.217,-114.165 62,-76 45.4437,-65.3295 34.9158,-44.9177 29.0265,-29.8026"/>
<polygon fill="midnightblue" stroke="midnightblue" points="32.1745,-28.2066 25.5382,-19.9476 25.5756,-30.5424 32.1745,-28.2066"/>
</g>
<!-- Node3 -->
<g id="node3" class="node"><title>Node3</title>
<polygon fill="white" stroke="#bfbfbf" points="175.5,-56.5 175.5,-75.5 222.5,-75.5 222.5,-56.5 175.5,-56.5"/>
<text text-anchor="middle" x="199" y="-63.5" font-family="Helvetica,sans-Serif" font-size="10.00">math.h</text>
</g>
<!-- Node1&#45;&gt;Node3 -->
<g id="edge2" class="edge"><title>Node1&#45;&gt;Node3</title>
<path fill="none" stroke="midnightblue" d="M430.215,-114.723C377.526,-105.681 305.154,-92.4739 232.518,-75.9652"/>
<polygon fill="midnightblue" stroke="midnightblue" points="233.264,-72.5455 222.735,-73.7217 231.699,-79.3684 233.264,-72.5455"/>
</g>
<!-- Node4 -->
<g id="node4" class="node"><title>Node4</title>
<polygon fill="white" stroke="#bfbfbf" points="144.5,-0.5 144.5,-19.5 193.5,-19.5 193.5,-0.5 144.5,-0.5"/>
<text text-anchor="middle" x="169" y="-7.5" font-family="Helvetica,sans-Serif" font-size="10.00">string.h</text>
</g>
<!-- Node1&#45;&gt;Node4 -->
<g id="edge3" class="edge"><title>Node1&#45;&gt;Node4</title>
<path fill="none" stroke="midnightblue" d="M430.46,-126.626C341.423,-124.41 200.287,-114.687 167,-76 156.203,-63.4516 158.43,-43.9545 162.304,-29.5849"/>
<polygon fill="midnightblue" stroke="midnightblue" points="165.722,-30.3858 165.399,-19.7958 159.047,-28.2755 165.722,-30.3858"/>
</g>
<!-- Node5 -->
<g id="node5" class="node"><title>Node5</title>
<polygon fill="white" stroke="#bfbfbf" points="241,-56.5 241,-75.5 289,-75.5 289,-56.5 241,-56.5"/>
<text text-anchor="middle" x="265" y="-63.5" font-family="Helvetica,sans-Serif" font-size="10.00">stdlib.h</text>
</g>
<!-- Node1&#45;&gt;Node5 -->
<g id="edge4" class="edge"><title>Node1&#45;&gt;Node5</title>
<path fill="none" stroke="midnightblue" d="M446.461,-112.985C407.304,-103.517 354.381,-90.5403 299.111,-76.2442"/>
<polygon fill="midnightblue" stroke="midnightblue" points="299.691,-72.7789 289.132,-73.6553 297.933,-79.5545 299.691,-72.7789"/>
</g>
<!-- Node6 -->
<g id="node6" class="node"><title>Node6</title>
<polygon fill="white" stroke="#bfbfbf" points="307,-56.5 307,-75.5 351,-75.5 351,-56.5 307,-56.5"/>
<text text-anchor="middle" x="329" y="-63.5" font-family="Helvetica,sans-Serif" font-size="10.00">time.h</text>
</g>
<!-- Node1&#45;&gt;Node6 -->
<g id="edge5" class="edge"><title>Node1&#45;&gt;Node6</title>
<path fill="none" stroke="midnightblue" d="M463.736,-112.933C432.289,-102.212 389.626,-87.6678 360.798,-77.8402"/>
<polygon fill="midnightblue" stroke="midnightblue" points="361.814,-74.4888 351.219,-74.5748 359.555,-81.1144 361.814,-74.4888"/>
</g>
<!-- Node7 -->
<g id="node7" class="node"><title>Node7</title>
<polygon fill="white" stroke="#bfbfbf" points="369,-56.5 369,-75.5 421,-75.5 421,-56.5 369,-56.5"/>
<text text-anchor="middle" x="395" y="-63.5" font-family="Helvetica,sans-Serif" font-size="10.00">assert.h</text>
</g>
<!-- Node1&#45;&gt;Node7 -->
<g id="edge6" class="edge"><title>Node1&#45;&gt;Node7</title>
<path fill="none" stroke="midnightblue" d="M479.21,-112.933C461.314,-103.171 437.607,-90.2401 419.907,-80.5856"/>
<polygon fill="midnightblue" stroke="midnightblue" points="421.222,-77.316 410.767,-75.6 417.87,-83.4612 421.222,-77.316"/>
</g>
<!-- Node8 -->
<g id="node8" class="node"><title>Node8</title>
<polygon fill="white" stroke="#bfbfbf" points="439,-56.5 439,-75.5 495,-75.5 495,-56.5 439,-56.5"/>
<text text-anchor="middle" x="467" y="-63.5" font-family="Helvetica,sans-Serif" font-size="10.00">algorithm</text>
</g>
<!-- Node1&#45;&gt;Node8 -->
<g id="edge7" class="edge"><title>Node1&#45;&gt;Node8</title>
<path fill="none" stroke="midnightblue" d="M495.995,-112.781C490.587,-104.242 483.668,-93.3184 477.946,-84.2834"/>
<polygon fill="midnightblue" stroke="midnightblue" points="480.837,-82.306 472.529,-75.7305 474.923,-86.0514 480.837,-82.306"/>
</g>
<!-- Node9 -->
<g id="node9" class="node"><title>Node9</title>
<polygon fill="white" stroke="#bfbfbf" points="513,-56.5 513,-75.5 573,-75.5 573,-56.5 513,-56.5"/>
<text text-anchor="middle" x="543" y="-63.5" font-family="Helvetica,sans-Serif" font-size="10.00">sys/stat.h</text>
</g>
<!-- Node1&#45;&gt;Node9 -->
<g id="edge8" class="edge"><title>Node1&#45;&gt;Node9</title>
<path fill="none" stroke="midnightblue" d="M514.005,-112.781C519.413,-104.242 526.332,-93.3184 532.054,-84.2834"/>
<polygon fill="midnightblue" stroke="midnightblue" points="535.077,-86.0514 537.471,-75.7305 529.163,-82.306 535.077,-86.0514"/>
</g>
<!-- Node10 -->
<g id="node10" class="node"><title>Node10</title>
<polygon fill="white" stroke="#bfbfbf" points="591,-56.5 591,-75.5 635,-75.5 635,-56.5 591,-56.5"/>
<text text-anchor="middle" x="613" y="-63.5" font-family="Helvetica,sans-Serif" font-size="10.00">fcntl.h</text>
</g>
<!-- Node1&#45;&gt;Node10 -->
<g id="edge9" class="edge"><title>Node1&#45;&gt;Node10</title>
<path fill="none" stroke="midnightblue" d="M530.321,-112.933C547.891,-103.171 571.168,-90.2401 588.546,-80.5856"/>
<polygon fill="midnightblue" stroke="midnightblue" points="590.478,-83.5161 597.52,-75.6 587.079,-77.397 590.478,-83.5161"/>
</g>
<!-- Node11 -->
<g id="node11" class="node"><title>Node11</title>
<g id="a_node11"><a xlink:href="strlcpy_8h.xhtml" target="_top" xlink:title="strlcpy.h">
<polygon fill="white" stroke="black" points="653,-56.5 653,-75.5 707,-75.5 707,-56.5 653,-56.5"/>
<text text-anchor="middle" x="680" y="-63.5" font-family="Helvetica,sans-Serif" font-size="10.00">strlcpy.h</text>
</a>
</g>
</g>
<!-- Node1&#45;&gt;Node11 -->
<g id="edge10" class="edge"><title>Node1&#45;&gt;Node11</title>
<path fill="none" stroke="midnightblue" d="M546.03,-112.933C576.304,-102.553 617.033,-88.5887 645.608,-78.7916"/>
<polygon fill="midnightblue" stroke="midnightblue" points="646.847,-82.0668 655.171,-75.5127 644.577,-75.4452 646.847,-82.0668"/>
</g>
<!-- Node12 -->
<g id="node12" class="node"><title>Node12</title>
<g id="a_node12"><a xlink:href="_d_r_s_8h.xhtml" target="_top" xlink:title="DRS.h">
<polygon fill="white" stroke="black" points="71.5,-56.5 71.5,-75.5 118.5,-75.5 118.5,-56.5 71.5,-56.5"/>
<text text-anchor="middle" x="95" y="-63.5" font-family="Helvetica,sans-Serif" font-size="10.00">DRS.h</text>
</a>
</g>
</g>
<!-- Node1&#45;&gt;Node12 -->
<g id="edge11" class="edge"><title>Node1&#45;&gt;Node12</title>
<path fill="none" stroke="midnightblue" d="M430.199,-118.891C354.837,-110.218 235.371,-95.0944 133,-76 131.542,-75.7281 130.056,-75.4369 128.557,-75.1318"/>
<polygon fill="midnightblue" stroke="midnightblue" points="129.158,-71.6806 118.642,-72.9712 127.667,-78.5201 129.158,-71.6806"/>
</g>
<!-- Node14 -->
<g id="node14" class="node"><title>Node14</title>
<polygon fill="white" stroke="#bfbfbf" points="725,-56.5 725,-75.5 779,-75.5 779,-56.5 725,-56.5"/>
<text text-anchor="middle" x="752" y="-63.5" font-family="Helvetica,sans-Serif" font-size="10.00">iostream</text>
</g>
<!-- Node1&#45;&gt;Node14 -->
<g id="edge15" class="edge"><title>Node1&#45;&gt;Node14</title>
<path fill="none" stroke="midnightblue" d="M563.695,-112.943C603.731,-103.325 658.227,-90.1746 715.004,-76.2317"/>
<polygon fill="midnightblue" stroke="midnightblue" points="716.003,-79.5904 724.879,-73.8044 714.332,-72.7927 716.003,-79.5904"/>
</g>
<!-- Node15 -->
<g id="node15" class="node"><title>Node15</title>
<polygon fill="white" stroke="#bfbfbf" points="797.5,-56.5 797.5,-75.5 848.5,-75.5 848.5,-56.5 797.5,-56.5"/>
<text text-anchor="middle" x="823" y="-63.5" font-family="Helvetica,sans-Serif" font-size="10.00">unistd.h</text>
</g>
<!-- Node1&#45;&gt;Node15 -->
<g id="edge16" class="edge"><title>Node1&#45;&gt;Node15</title>
<path fill="none" stroke="midnightblue" d="M579.777,-115.063C634.655,-105.947 711.18,-92.4956 787.63,-75.9446"/>
<polygon fill="midnightblue" stroke="midnightblue" points="788.414,-79.3561 797.437,-73.8041 786.921,-72.5171 788.414,-79.3561"/>
</g>
<!-- Node16 -->
<g id="node16" class="node"><title>Node16</title>
<polygon fill="white" stroke="#bfbfbf" points="867,-56.5 867,-75.5 929,-75.5 929,-56.5 867,-56.5"/>
<text text-anchor="middle" x="898" y="-63.5" font-family="Helvetica,sans-Serif" font-size="10.00">sys/time.h</text>
</g>
<!-- Node1&#45;&gt;Node16 -->
<g id="edge17" class="edge"><title>Node1&#45;&gt;Node16</title>
<path fill="none" stroke="midnightblue" d="M579.76,-117.76C648.958,-108.844 754.899,-94.2731 856.855,-75.9024"/>
<polygon fill="midnightblue" stroke="midnightblue" points="857.494,-79.3436 866.708,-74.1128 856.243,-72.4563 857.494,-79.3436"/>
</g>
<!-- Node17 -->
<g id="node17" class="node"><title>Node17</title>
<polygon fill="white" stroke="#bfbfbf" points="947,-56.5 947,-75.5 1009,-75.5 1009,-56.5 947,-56.5"/>
<text text-anchor="middle" x="978" y="-63.5" font-family="Helvetica,sans-Serif" font-size="10.00">sys/ioctl.h</text>
</g>
<!-- Node1&#45;&gt;Node17 -->
<g id="edge18" class="edge"><title>Node1&#45;&gt;Node17</title>
<path fill="none" stroke="midnightblue" d="M579.853,-120.423C664.055,-112.514 805.059,-97.7447 936.473,-75.9187"/>
<polygon fill="midnightblue" stroke="midnightblue" points="937.44,-79.3054 946.723,-74.1985 936.281,-72.402 937.44,-79.3054"/>
</g>
<!-- Node18 -->
<g id="node18" class="node"><title>Node18</title>
<g id="a_node18"><a xlink:href="mxml_8h.xhtml" target="_top" xlink:title="mxml.h">
<polygon fill="white" stroke="black" points="1027.5,-56.5 1027.5,-75.5 1076.5,-75.5 1076.5,-56.5 1027.5,-56.5"/>
<text text-anchor="middle" x="1052" y="-63.5" font-family="Helvetica,sans-Serif" font-size="10.00">mxml.h</text>
</a>
</g>
</g>
<!-- Node1&#45;&gt;Node18 -->
<g id="edge19" class="edge"><title>Node1&#45;&gt;Node18</title>
<path fill="none" stroke="midnightblue" d="M579.678,-123.136C679.815,-117.143 862.856,-103.331 1017,-76 1017.1,-75.9815 1017.21,-75.9629 1017.31,-75.9441"/>
<polygon fill="midnightblue" stroke="midnightblue" points="1018.18,-79.3393 1027.25,-73.8627 1016.74,-72.4881 1018.18,-79.3393"/>
</g>
<!-- Node12&#45;&gt;Node2 -->
<g id="edge12" class="edge"><title>Node12&#45;&gt;Node2</title>
<path fill="none" stroke="midnightblue" d="M83.432,-56.324C72.5798,-48.1849 56.1193,-35.8395 43.1166,-26.0874"/>
<polygon fill="midnightblue" stroke="midnightblue" points="44.8786,-23.0339 34.7785,-19.8339 40.6785,-28.6339 44.8786,-23.0339"/>
</g>
<!-- Node12&#45;&gt;Node4 -->
<g id="edge13" class="edge"><title>Node12&#45;&gt;Node4</title>
<path fill="none" stroke="midnightblue" d="M106.889,-56.324C118.15,-48.1066 135.287,-35.6017 148.709,-25.8069"/>
<polygon fill="midnightblue" stroke="midnightblue" points="150.88,-28.5559 156.894,-19.8339 146.753,-22.9014 150.88,-28.5559"/>
</g>
<!-- Node13 -->
<g id="node13" class="node"><title>Node13</title>
<g id="a_node13"><a xlink:href="averager_8h.xhtml" target="_top" xlink:title="averager.h">
<polygon fill="white" stroke="black" points="64,-0.5 64,-19.5 126,-19.5 126,-0.5 64,-0.5"/>
<text text-anchor="middle" x="95" y="-7.5" font-family="Helvetica,sans-Serif" font-size="10.00">averager.h</text>
</a>
</g>
</g>
<!-- Node12&#45;&gt;Node13 -->
<g id="edge14" class="edge"><title>Node12&#45;&gt;Node13</title>
<path fill="none" stroke="midnightblue" d="M95,-56.083C95,-49.0059 95,-38.8611 95,-29.9865"/>
<polygon fill="midnightblue" stroke="midnightblue" points="98.5001,-29.751 95,-19.7511 91.5001,-29.7511 98.5001,-29.751"/>
</g>
</g>
</svg>
