<?xml version="1.0" encoding="UTF-8" standalone="no"?>
<!DOCTYPE svg PUBLIC "-//W3C//DTD SVG 1.1//EN"
 "http://www.w3.org/Graphics/SVG/1.1/DTD/svg11.dtd">
<!-- Generated by graphviz version 2.36.0 (20140111.2315)
 -->
<!-- Title: /data/Software/DAQ/Scaler/Core/Include/DiscriminatorManager.h Pages: 1 -->
<svg width="539pt" height="128pt"
 viewBox="0.00 0.00 539.00 128.00" xmlns="http://www.w3.org/2000/svg" xmlns:xlink="http://www.w3.org/1999/xlink">
<g id="graph0" class="graph" transform="scale(1 1) rotate(0) translate(4 124)">
<title>/data/Software/DAQ/Scaler/Core/Include/DiscriminatorManager.h</title>
<polygon fill="white" stroke="none" points="-4,4 -4,-124 535,-124 535,4 -4,4"/>
<!-- Node1 -->
<g id="node1" class="node"><title>Node1</title>
<polygon fill="#bfbfbf" stroke="black" points="203.5,-78.5 203.5,-119.5 326.5,-119.5 326.5,-78.5 203.5,-78.5"/>
<text text-anchor="start" x="211.5" y="-107.5" font-family="Helvetica,sans-Serif" font-size="10.00">/data/Software/DAQ</text>
<text text-anchor="start" x="211.5" y="-96.5" font-family="Helvetica,sans-Serif" font-size="10.00">/Scaler/Core/Include</text>
<text text-anchor="middle" x="265" y="-85.5" font-family="Helvetica,sans-Serif" font-size="10.00">/DiscriminatorManager.h</text>
</g>
<!-- Node2 -->
<g id="node2" class="node"><title>Node2</title>
<g id="a_node2"><a xlink:href="scaler_8cpp.xhtml" target="_top" xlink:title="/data/Software/DAQ\l/Scaler/Application\l/scaler.cpp">
<polygon fill="white" stroke="black" points="-0.5,-0.5 -0.5,-41.5 104.5,-41.5 104.5,-0.5 -0.5,-0.5"/>
<text text-anchor="start" x="7.5" y="-29.5" font-family="Helvetica,sans-Serif" font-size="10.00">/data/Software/DAQ</text>
<text text-anchor="start" x="7.5" y="-18.5" font-family="Helvetica,sans-Serif" font-size="10.00">/Scaler/Application</text>
<text text-anchor="middle" x="52" y="-7.5" font-family="Helvetica,sans-Serif" font-size="10.00">/scaler.cpp</text>
</a>
</g>
</g>
<!-- Node1&#45;&gt;Node2 -->
<g id="edge1" class="edge"><title>Node1&#45;&gt;Node2</title>
<path fill="none" stroke="midnightblue" d="M200.425,-74.9591C169.836,-64.0448 133.756,-51.1713 104.829,-40.8498"/>
<polygon fill="midnightblue" stroke="midnightblue" points="199.553,-78.3639 210.147,-78.4281 201.905,-71.771 199.553,-78.3639"/>
</g>
<!-- Node3 -->
<g id="node3" class="node"><title>Node3</title>
<g id="a_node3"><a xlink:href="_scaler_2_core_2_include_2xml_8h.xhtml" target="_top" xlink:title="/data/Software/DAQ\l/Scaler/Core/Include/xml.h">
<polygon fill="white" stroke="black" points="122.5,-6 122.5,-36 255.5,-36 255.5,-6 122.5,-6"/>
<text text-anchor="start" x="130.5" y="-24" font-family="Helvetica,sans-Serif" font-size="10.00">/data/Software/DAQ</text>
<text text-anchor="middle" x="189" y="-13" font-family="Helvetica,sans-Serif" font-size="10.00">/Scaler/Core/Include/xml.h</text>
</a>
</g>
</g>
<!-- Node1&#45;&gt;Node3 -->
<g id="edge2" class="edge"><title>Node1&#45;&gt;Node3</title>
<path fill="none" stroke="midnightblue" d="M238.324,-71.3245C226.508,-59.5076 213.083,-46.0827 203.225,-36.2254"/>
<polygon fill="midnightblue" stroke="midnightblue" points="235.882,-73.8319 245.428,-78.4281 240.832,-68.8821 235.882,-73.8319"/>
</g>
<!-- Node4 -->
<g id="node4" class="node"><title>Node4</title>
<g id="a_node4"><a xlink:href="_discriminator_manager_8cpp.xhtml" target="_top" xlink:title="/data/Software/DAQ\l/Scaler/Core/Source\l/DiscriminatorManager.cpp">
<polygon fill="white" stroke="black" points="274,-0.5 274,-41.5 408,-41.5 408,-0.5 274,-0.5"/>
<text text-anchor="start" x="282" y="-29.5" font-family="Helvetica,sans-Serif" font-size="10.00">/data/Software/DAQ</text>
<text text-anchor="start" x="282" y="-18.5" font-family="Helvetica,sans-Serif" font-size="10.00">/Scaler/Core/Source</text>
<text text-anchor="middle" x="341" y="-7.5" font-family="Helvetica,sans-Serif" font-size="10.00">/DiscriminatorManager.cpp</text>
</a>
</g>
</g>
<!-- Node1&#45;&gt;Node4 -->
<g id="edge3" class="edge"><title>Node1&#45;&gt;Node4</title>
<path fill="none" stroke="midnightblue" d="M291.796,-71.204C301.584,-61.416 312.461,-50.5388 321.494,-41.5056"/>
<polygon fill="midnightblue" stroke="midnightblue" points="289.168,-68.8821 284.572,-78.4281 294.118,-73.8319 289.168,-68.8821"/>
</g>
<!-- Node5 -->
<g id="node5" class="node"><title>Node5</title>
<g id="a_node5"><a xlink:href="_scaler_2_core_2_source_2xml_8cpp.xhtml" target="_top" xlink:title="/data/Software/DAQ\l/Scaler/Core/Source\l/xml.cpp">
<polygon fill="white" stroke="black" points="426.5,-0.5 426.5,-41.5 531.5,-41.5 531.5,-0.5 426.5,-0.5"/>
<text text-anchor="start" x="434.5" y="-29.5" font-family="Helvetica,sans-Serif" font-size="10.00">/data/Software/DAQ</text>
<text text-anchor="start" x="434.5" y="-18.5" font-family="Helvetica,sans-Serif" font-size="10.00">/Scaler/Core/Source</text>
<text text-anchor="middle" x="479" y="-7.5" font-family="Helvetica,sans-Serif" font-size="10.00">/xml.cpp</text>
</a>
</g>
</g>
<!-- Node1&#45;&gt;Node5 -->
<g id="edge4" class="edge"><title>Node1&#45;&gt;Node5</title>
<path fill="none" stroke="midnightblue" d="M329.916,-74.9456C360.77,-63.9882 397.177,-51.0585 426.29,-40.7195"/>
<polygon fill="midnightblue" stroke="midnightblue" points="328.362,-71.7832 320.11,-78.4281 330.705,-78.3796 328.362,-71.7832"/>
</g>
</g>
</svg>
