<?xml version="1.0" encoding="UTF-8" standalone="no"?>
<!DOCTYPE svg PUBLIC "-//W3C//DTD SVG 1.1//EN"
 "http://www.w3.org/Graphics/SVG/1.1/DTD/svg11.dtd">
<!-- Generated by graphviz version 2.36.0 (20140111.2315)
 -->
<!-- Title: /data/Software/DAQ/Scaler/Core/Source/DiscriminatorManager.cpp Pages: 1 -->
<svg width="781pt" height="162pt"
 viewBox="0.00 0.00 781.00 162.00" xmlns="http://www.w3.org/2000/svg" xmlns:xlink="http://www.w3.org/1999/xlink">
<g id="graph0" class="graph" transform="scale(1 1) rotate(0) translate(4 158)">
<title>/data/Software/DAQ/Scaler/Core/Source/DiscriminatorManager.cpp</title>
<polygon fill="white" stroke="none" points="-4,4 -4,-158 777,-158 777,4 -4,4"/>
<!-- Node1 -->
<g id="node1" class="node"><title>Node1</title>
<polygon fill="#bfbfbf" stroke="black" points="203,-112.5 203,-153.5 337,-153.5 337,-112.5 203,-112.5"/>
<text text-anchor="start" x="211" y="-141.5" font-family="Helvetica,sans-Serif" font-size="10.00">/data/Software/DAQ</text>
<text text-anchor="start" x="211" y="-130.5" font-family="Helvetica,sans-Serif" font-size="10.00">/Scaler/Core/Source</text>
<text text-anchor="middle" x="270" y="-119.5" font-family="Helvetica,sans-Serif" font-size="10.00">/DiscriminatorManager.cpp</text>
</g>
<!-- Node2 -->
<g id="node2" class="node"><title>Node2</title>
<polygon fill="white" stroke="#bfbfbf" points="0,-56.5 0,-75.5 50,-75.5 50,-56.5 0,-56.5"/>
<text text-anchor="middle" x="25" y="-63.5" font-family="Helvetica,sans-Serif" font-size="10.00">fstream</text>
</g>
<!-- Node1&#45;&gt;Node2 -->
<g id="edge1" class="edge"><title>Node1&#45;&gt;Node2</title>
<path fill="none" stroke="midnightblue" d="M202.729,-114.152C156.502,-101.888 97.0053,-86.1035 59.9312,-76.2675"/>
<polygon fill="midnightblue" stroke="midnightblue" points="60.6619,-72.8403 50.0987,-73.6588 58.8668,-79.6062 60.6619,-72.8403"/>
</g>
<!-- Node3 -->
<g id="node3" class="node"><title>Node3</title>
<polygon fill="white" stroke="#bfbfbf" points="68,-56.5 68,-75.5 120,-75.5 120,-56.5 68,-56.5"/>
<text text-anchor="middle" x="94" y="-63.5" font-family="Helvetica,sans-Serif" font-size="10.00">sstream</text>
</g>
<!-- Node1&#45;&gt;Node3 -->
<g id="edge2" class="edge"><title>Node1&#45;&gt;Node3</title>
<path fill="none" stroke="midnightblue" d="M217.194,-112.498C187.875,-101.67 152.315,-88.5369 126.951,-79.1696"/>
<polygon fill="midnightblue" stroke="midnightblue" points="128.022,-75.8338 117.428,-75.6525 125.596,-82.4003 128.022,-75.8338"/>
</g>
<!-- Node4 -->
<g id="node4" class="node"><title>Node4</title>
<polygon fill="white" stroke="#bfbfbf" points="176,-0.5 176,-19.5 220,-19.5 220,-0.5 176,-0.5"/>
<text text-anchor="middle" x="198" y="-7.5" font-family="Helvetica,sans-Serif" font-size="10.00">vector</text>
</g>
<!-- Node1&#45;&gt;Node4 -->
<g id="edge3" class="edge"><title>Node1&#45;&gt;Node4</title>
<path fill="none" stroke="midnightblue" d="M210.241,-112.467C193.646,-103.98 177.568,-92.1685 168,-76 158.565,-60.0561 170.289,-40.6418 181.73,-27.2042"/>
<polygon fill="midnightblue" stroke="midnightblue" points="184.44,-29.4275 188.625,-19.6943 179.284,-24.6931 184.44,-29.4275"/>
</g>
<!-- Node5 -->
<g id="node5" class="node"><title>Node5</title>
<polygon fill="white" stroke="#bfbfbf" points="176.5,-56.5 176.5,-75.5 223.5,-75.5 223.5,-56.5 176.5,-56.5"/>
<text text-anchor="middle" x="200" y="-63.5" font-family="Helvetica,sans-Serif" font-size="10.00">iterator</text>
</g>
<!-- Node1&#45;&gt;Node5 -->
<g id="edge4" class="edge"><title>Node1&#45;&gt;Node5</title>
<path fill="none" stroke="midnightblue" d="M248.998,-112.498C238.678,-102.915 226.415,-91.5281 216.738,-82.5428"/>
<polygon fill="midnightblue" stroke="midnightblue" points="219.028,-79.8922 209.318,-75.6525 214.264,-85.0218 219.028,-79.8922"/>
</g>
<!-- Node6 -->
<g id="node6" class="node"><title>Node6</title>
<polygon fill="white" stroke="#bfbfbf" points="242,-56.5 242,-75.5 298,-75.5 298,-56.5 242,-56.5"/>
<text text-anchor="middle" x="270" y="-63.5" font-family="Helvetica,sans-Serif" font-size="10.00">algorithm</text>
</g>
<!-- Node1&#45;&gt;Node6 -->
<g id="edge5" class="edge"><title>Node1&#45;&gt;Node6</title>
<path fill="none" stroke="midnightblue" d="M270,-112.498C270,-104.065 270,-94.2351 270,-85.874"/>
<polygon fill="midnightblue" stroke="midnightblue" points="273.5,-85.6525 270,-75.6525 266.5,-85.6525 273.5,-85.6525"/>
</g>
<!-- Node7 -->
<g id="node7" class="node"><title>Node7</title>
<polygon fill="white" stroke="#bfbfbf" points="316,-56.5 316,-75.5 370,-75.5 370,-56.5 316,-56.5"/>
<text text-anchor="middle" x="343" y="-63.5" font-family="Helvetica,sans-Serif" font-size="10.00">iostream</text>
</g>
<!-- Node1&#45;&gt;Node7 -->
<g id="edge6" class="edge"><title>Node1&#45;&gt;Node7</title>
<path fill="none" stroke="midnightblue" d="M291.902,-112.498C302.664,-102.915 315.453,-91.5281 325.544,-82.5428"/>
<polygon fill="midnightblue" stroke="midnightblue" points="328.142,-84.9165 333.283,-75.6525 323.487,-79.6885 328.142,-84.9165"/>
</g>
<!-- Node8 -->
<g id="node8" class="node"><title>Node8</title>
<polygon fill="white" stroke="#bfbfbf" points="388.5,-56.5 388.5,-75.5 429.5,-75.5 429.5,-56.5 388.5,-56.5"/>
<text text-anchor="middle" x="409" y="-63.5" font-family="Helvetica,sans-Serif" font-size="10.00">string</text>
</g>
<!-- Node1&#45;&gt;Node8 -->
<g id="edge7" class="edge"><title>Node1&#45;&gt;Node8</title>
<path fill="none" stroke="midnightblue" d="M311.705,-112.498C334.245,-101.957 361.456,-89.2326 381.364,-79.9235"/>
<polygon fill="midnightblue" stroke="midnightblue" points="382.921,-83.059 390.497,-75.6525 379.956,-76.7181 382.921,-83.059"/>
</g>
<!-- Node9 -->
<g id="node9" class="node"><title>Node9</title>
<g id="a_node9"><a xlink:href="_discriminator_manager_8h.xhtml" target="_top" xlink:title="DiscriminatorManager.h">
<polygon fill="white" stroke="black" points="448,-56.5 448,-75.5 568,-75.5 568,-56.5 448,-56.5"/>
<text text-anchor="middle" x="508" y="-63.5" font-family="Helvetica,sans-Serif" font-size="10.00">DiscriminatorManager.h</text>
</a>
</g>
</g>
<!-- Node1&#45;&gt;Node9 -->
<g id="edge8" class="edge"><title>Node1&#45;&gt;Node9</title>
<path fill="none" stroke="midnightblue" d="M337.247,-113.634C378.908,-102.256 431.08,-88.0074 466.721,-78.2738"/>
<polygon fill="midnightblue" stroke="midnightblue" points="468.041,-81.5414 476.766,-75.5304 466.197,-74.7887 468.041,-81.5414"/>
</g>
<!-- Node17 -->
<g id="node17" class="node"><title>Node17</title>
<polygon fill="white" stroke="#bfbfbf" points="586,-56.5 586,-75.5 636,-75.5 636,-56.5 586,-56.5"/>
<text text-anchor="middle" x="611" y="-63.5" font-family="Helvetica,sans-Serif" font-size="10.00">global.h</text>
</g>
<!-- Node1&#45;&gt;Node17 -->
<g id="edge17" class="edge"><title>Node1&#45;&gt;Node17</title>
<path fill="none" stroke="midnightblue" d="M337.129,-121.119C399.309,-110.708 494.24,-93.9697 576,-76 576.1,-75.9781 576.199,-75.9561 576.299,-75.9341"/>
<polygon fill="midnightblue" stroke="midnightblue" points="576.879,-79.3932 585.816,-73.7027 575.281,-72.578 576.879,-79.3932"/>
</g>
<!-- Node9&#45;&gt;Node4 -->
<g id="edge14" class="edge"><title>Node9&#45;&gt;Node4</title>
<path fill="none" stroke="midnightblue" d="M458.88,-56.4435C394.857,-45.2913 284.671,-26.0975 230.288,-16.6243"/>
<polygon fill="midnightblue" stroke="midnightblue" points="230.638,-13.1327 220.186,-14.8646 229.437,-20.0288 230.638,-13.1327"/>
</g>
<!-- Node10 -->
<g id="node10" class="node"><title>Node10</title>
<polygon fill="white" stroke="#bfbfbf" points="288.5,-0.5 288.5,-19.5 337.5,-19.5 337.5,-0.5 288.5,-0.5"/>
<text text-anchor="middle" x="313" y="-7.5" font-family="Helvetica,sans-Serif" font-size="10.00">string.h</text>
</g>
<!-- Node9&#45;&gt;Node10 -->
<g id="edge9" class="edge"><title>Node9&#45;&gt;Node10</title>
<path fill="none" stroke="midnightblue" d="M477.102,-56.4435C441.763,-46.6574 384.064,-30.6793 347.344,-20.5107"/>
<polygon fill="midnightblue" stroke="midnightblue" points="348.151,-17.1025 337.58,-17.8067 346.283,-23.8486 348.151,-17.1025"/>
</g>
<!-- Node11 -->
<g id="node11" class="node"><title>Node11</title>
<polygon fill="white" stroke="#bfbfbf" points="356,-0.5 356,-19.5 402,-19.5 402,-0.5 356,-0.5"/>
<text text-anchor="middle" x="379" y="-7.5" font-family="Helvetica,sans-Serif" font-size="10.00">stdio.h</text>
</g>
<!-- Node9&#45;&gt;Node11 -->
<g id="edge10" class="edge"><title>Node9&#45;&gt;Node11</title>
<path fill="none" stroke="midnightblue" d="M487.56,-56.4435C466.33,-47.5566 432.901,-33.5632 408.745,-23.4514"/>
<polygon fill="midnightblue" stroke="midnightblue" points="409.921,-20.1493 399.345,-19.5164 407.218,-26.6064 409.921,-20.1493"/>
</g>
<!-- Node12 -->
<g id="node12" class="node"><title>Node12</title>
<polygon fill="white" stroke="#bfbfbf" points="420,-0.5 420,-19.5 468,-19.5 468,-0.5 420,-0.5"/>
<text text-anchor="middle" x="444" y="-7.5" font-family="Helvetica,sans-Serif" font-size="10.00">stdlib.h</text>
</g>
<!-- Node9&#45;&gt;Node12 -->
<g id="edge11" class="edge"><title>Node9&#45;&gt;Node12</title>
<path fill="none" stroke="midnightblue" d="M497.717,-56.324C488.164,-48.2631 473.72,-36.0765 462.216,-26.3695"/>
<polygon fill="midnightblue" stroke="midnightblue" points="464.37,-23.6076 454.47,-19.8339 459.856,-28.9577 464.37,-23.6076"/>
</g>
<!-- Node13 -->
<g id="node13" class="node"><title>Node13</title>
<polygon fill="white" stroke="#bfbfbf" points="486,-0.5 486,-19.5 530,-19.5 530,-0.5 486,-0.5"/>
<text text-anchor="middle" x="508" y="-7.5" font-family="Helvetica,sans-Serif" font-size="10.00">time.h</text>
</g>
<!-- Node9&#45;&gt;Node13 -->
<g id="edge12" class="edge"><title>Node9&#45;&gt;Node13</title>
<path fill="none" stroke="midnightblue" d="M508,-56.083C508,-49.0059 508,-38.8611 508,-29.9865"/>
<polygon fill="midnightblue" stroke="midnightblue" points="511.5,-29.751 508,-19.7511 504.5,-29.7511 511.5,-29.751"/>
</g>
<!-- Node14 -->
<g id="node14" class="node"><title>Node14</title>
<polygon fill="white" stroke="#bfbfbf" points="548.5,-0.5 548.5,-19.5 633.5,-19.5 633.5,-0.5 548.5,-0.5"/>
<text text-anchor="middle" x="591" y="-7.5" font-family="Helvetica,sans-Serif" font-size="10.00">CAENVMElib.h</text>
</g>
<!-- Node9&#45;&gt;Node14 -->
<g id="edge13" class="edge"><title>Node9&#45;&gt;Node14</title>
<path fill="none" stroke="midnightblue" d="M521.335,-56.324C534.162,-47.979 553.785,-35.2122 568.94,-25.3524"/>
<polygon fill="midnightblue" stroke="midnightblue" points="571.224,-28.0417 577.698,-19.6545 567.407,-22.1742 571.224,-28.0417"/>
</g>
<!-- Node15 -->
<g id="node15" class="node"><title>Node15</title>
<polygon fill="white" stroke="#bfbfbf" points="652,-0.5 652,-19.5 704,-19.5 704,-0.5 652,-0.5"/>
<text text-anchor="middle" x="678" y="-7.5" font-family="Helvetica,sans-Serif" font-size="10.00">memory</text>
</g>
<!-- Node9&#45;&gt;Node15 -->
<g id="edge15" class="edge"><title>Node9&#45;&gt;Node15</title>
<path fill="none" stroke="midnightblue" d="M534.937,-56.4435C563.829,-47.2659 609.866,-32.6424 641.884,-22.472"/>
<polygon fill="midnightblue" stroke="midnightblue" points="643.277,-25.7022 651.748,-19.339 641.157,-19.0307 643.277,-25.7022"/>
</g>
<!-- Node16 -->
<g id="node16" class="node"><title>Node16</title>
<polygon fill="white" stroke="#bfbfbf" points="722.5,-0.5 722.5,-19.5 773.5,-19.5 773.5,-0.5 722.5,-0.5"/>
<text text-anchor="middle" x="748" y="-7.5" font-family="Helvetica,sans-Serif" font-size="10.00">typeinfo</text>
</g>
<!-- Node9&#45;&gt;Node16 -->
<g id="edge16" class="edge"><title>Node9&#45;&gt;Node16</title>
<path fill="none" stroke="midnightblue" d="M548.938,-56.462C588.282,-48.1563 649.657,-34.9399 712.343,-20.0888"/>
<polygon fill="midnightblue" stroke="midnightblue" points="713.494,-23.4127 722.412,-17.6918 711.873,-16.603 713.494,-23.4127"/>
</g>
</g>
</svg>
