<?xml version="1.0" encoding="UTF-8" standalone="no"?>
<!DOCTYPE svg PUBLIC "-//W3C//DTD SVG 1.1//EN"
 "http://www.w3.org/Graphics/SVG/1.1/DTD/svg11.dtd">
<!-- Generated by graphviz version 2.36.0 (20140111.2315)
 -->
<!-- Title: col Pages: 1 -->
<svg width="292pt" height="28pt"
 viewBox="0.00 0.00 292.00 28.00" xmlns="http://www.w3.org/2000/svg" xmlns:xlink="http://www.w3.org/1999/xlink">
<g id="graph0" class="graph" transform="scale(1 1) rotate(0) translate(4 24)">
<title>col</title>
<polygon fill="white" stroke="none" points="-4,4 -4,-24 288,-24 288,4 -4,4"/>
<!-- Node1 -->
<g id="node1" class="node"><title>Node1</title>
<polygon fill="#bfbfbf" stroke="black" points="0.5,-0.5 0.5,-19.5 29.5,-19.5 29.5,-0.5 0.5,-0.5"/>
<text text-anchor="middle" x="15" y="-7.5" font-family="Helvetica,sans-Serif" font-size="10.00">col</text>
</g>
<!-- Node2 -->
<g id="node2" class="node"><title>Node2</title>
<g id="a_node2"><a xlink:href="_g_u_i_2_include_2control_8h.xhtml#a1a91b66f68a4ba6cdf2ed9f75c6df947" target="_top" xlink:title="control_scopehelp">
<polygon fill="white" stroke="black" points="66.5,-0.5 66.5,-19.5 161.5,-19.5 161.5,-0.5 66.5,-0.5"/>
<text text-anchor="middle" x="114" y="-7.5" font-family="Helvetica,sans-Serif" font-size="10.00">control_scopehelp</text>
</a>
</g>
</g>
<!-- Node1&#45;&gt;Node2 -->
<g id="edge1" class="edge"><title>Node1&#45;&gt;Node2</title>
<path fill="none" stroke="midnightblue" d="M39.9274,-10C47.9219,-10 57.1268,-10 66.2491,-10"/>
<polygon fill="midnightblue" stroke="midnightblue" points="39.8978,-6.5001 29.8977,-10 39.8977,-13.5001 39.8978,-6.5001"/>
</g>
<!-- Node3 -->
<g id="node3" class="node"><title>Node3</title>
<g id="a_node3"><a xlink:href="_g_u_i_2_include_2control_8h.xhtml#ac97643773a87a0ab2f3310730174824f" target="_top" xlink:title="control_cmdline">
<polygon fill="white" stroke="black" points="198.5,-0.5 198.5,-19.5 283.5,-19.5 283.5,-0.5 198.5,-0.5"/>
<text text-anchor="middle" x="241" y="-7.5" font-family="Helvetica,sans-Serif" font-size="10.00">control_cmdline</text>
</a>
</g>
</g>
<!-- Node2&#45;&gt;Node3 -->
<g id="edge2" class="edge"><title>Node2&#45;&gt;Node3</title>
<path fill="none" stroke="midnightblue" d="M171.604,-10C180.61,-10 189.782,-10 198.361,-10"/>
<polygon fill="midnightblue" stroke="midnightblue" points="171.545,-6.5001 161.545,-10 171.545,-13.5001 171.545,-6.5001"/>
</g>
</g>
</svg>
