<?xml version="1.0" encoding="UTF-8" standalone="no"?>
<!DOCTYPE svg PUBLIC "-//W3C//DTD SVG 1.1//EN"
 "http://www.w3.org/Graphics/SVG/1.1/DTD/svg11.dtd">
<!-- Generated by graphviz version 2.36.0 (20140111.2315)
 -->
<!-- Title: adc_mblt Pages: 1 -->
<svg width="208pt" height="66pt"
 viewBox="0.00 0.00 208.00 66.00" xmlns="http://www.w3.org/2000/svg" xmlns:xlink="http://www.w3.org/1999/xlink">
<g id="graph0" class="graph" transform="scale(1 1) rotate(0) translate(4 62)">
<title>adc_mblt</title>
<polygon fill="white" stroke="none" points="-4,4 -4,-62 204,-62 204,4 -4,4"/>
<!-- Node1 -->
<g id="node1" class="node"><title>Node1</title>
<polygon fill="#bfbfbf" stroke="black" points="0,-19.5 0,-38.5 56,-38.5 56,-19.5 0,-19.5"/>
<text text-anchor="middle" x="28" y="-26.5" font-family="Helvetica,sans-Serif" font-size="10.00">adc_mblt</text>
</g>
<!-- Node2 -->
<g id="node2" class="node"><title>Node2</title>
<g id="a_node2"><a xlink:href="_g_u_i_2_include_2adc_8h.xhtml#a99fcc8dfc3bb71a3cd06f7e6968c12c3" target="_top" xlink:title="adc_analyzebaseline">
<polygon fill="white" stroke="black" points="92.5,-38.5 92.5,-57.5 199.5,-57.5 199.5,-38.5 92.5,-38.5"/>
<text text-anchor="middle" x="146" y="-45.5" font-family="Helvetica,sans-Serif" font-size="10.00">adc_analyzebaseline</text>
</a>
</g>
</g>
<!-- Node1&#45;&gt;Node2 -->
<g id="edge1" class="edge"><title>Node1&#45;&gt;Node2</title>
<path fill="none" stroke="midnightblue" d="M66.3322,-35.1148C74.6588,-36.4786 83.6391,-37.9495 92.4503,-39.3927"/>
<polygon fill="midnightblue" stroke="midnightblue" points="66.6311,-31.6172 56.1968,-33.4547 65.4996,-38.5251 66.6311,-31.6172"/>
</g>
<!-- Node3 -->
<g id="node3" class="node"><title>Node3</title>
<g id="a_node3"><a xlink:href="_g_u_i_2_include_2adc_8h.xhtml#a25f6f40f42d10a2ecc7b970155d9eb53" target="_top" xlink:title="adc_getbaseline">
<polygon fill="white" stroke="black" points="102.5,-0.5 102.5,-19.5 189.5,-19.5 189.5,-0.5 102.5,-0.5"/>
<text text-anchor="middle" x="146" y="-7.5" font-family="Helvetica,sans-Serif" font-size="10.00">adc_getbaseline</text>
</a>
</g>
</g>
<!-- Node1&#45;&gt;Node3 -->
<g id="edge2" class="edge"><title>Node1&#45;&gt;Node3</title>
<path fill="none" stroke="midnightblue" d="M66.2705,-22.8953C77.6834,-21.026 90.3294,-18.9547 102.087,-17.0289"/>
<polygon fill="midnightblue" stroke="midnightblue" points="65.4996,-19.4749 56.1968,-24.5453 66.6311,-26.3828 65.4996,-19.4749"/>
</g>
</g>
</svg>
