<?xml version="1.0" encoding="UTF-8" standalone="no"?>
<!DOCTYPE svg PUBLIC "-//W3C//DTD SVG 1.1//EN"
 "http://www.w3.org/Graphics/SVG/1.1/DTD/svg11.dtd">
<!-- Generated by graphviz version 2.36.0 (20140111.2315)
 -->
<!-- Title: control_openfile Pages: 1 -->
<svg width="550pt" height="47pt"
 viewBox="0.00 0.00 550.00 47.00" xmlns="http://www.w3.org/2000/svg" xmlns:xlink="http://www.w3.org/1999/xlink">
<g id="graph0" class="graph" transform="scale(1 1) rotate(0) translate(4 43)">
<title>control_openfile</title>
<polygon fill="white" stroke="none" points="-4,4 -4,-43 546,-43 546,4 -4,4"/>
<!-- Node1 -->
<g id="node1" class="node"><title>Node1</title>
<polygon fill="#bfbfbf" stroke="black" points="0.5,-19.5 0.5,-38.5 85.5,-38.5 85.5,-19.5 0.5,-19.5"/>
<text text-anchor="middle" x="43" y="-26.5" font-family="Helvetica,sans-Serif" font-size="10.00">control_openfile</text>
</g>
<!-- Node2 -->
<g id="node2" class="node"><title>Node2</title>
<g id="a_node2"><a xlink:href="control_8cpp.xhtml#a6d31350db95da2e061ef2ef9ad11402e" target="_top" xlink:title="control_printlog">
<polygon fill="white" stroke="black" points="314.5,-19.5 314.5,-38.5 397.5,-38.5 397.5,-19.5 314.5,-19.5"/>
<text text-anchor="middle" x="356" y="-26.5" font-family="Helvetica,sans-Serif" font-size="10.00">control_printlog</text>
</a>
</g>
</g>
<!-- Node1&#45;&gt;Node2 -->
<g id="edge1" class="edge"><title>Node1&#45;&gt;Node2</title>
<path fill="none" stroke="midnightblue" d="M85.6201,-29C142.104,-29 242.964,-29 303.952,-29"/>
<polygon fill="midnightblue" stroke="midnightblue" points="304.121,-32.5001 314.121,-29 304.121,-25.5001 304.121,-32.5001"/>
</g>
<!-- Node4 -->
<g id="node4" class="node"><title>Node4</title>
<g id="a_node4"><a xlink:href="control_8cpp.xhtml#a48a6baefa46edb93b59bb0f76385052a" target="_top" xlink:title="errormsg">
<polygon fill="white" stroke="black" points="122.5,-0.5 122.5,-19.5 177.5,-19.5 177.5,-0.5 122.5,-0.5"/>
<text text-anchor="middle" x="150" y="-7.5" font-family="Helvetica,sans-Serif" font-size="10.00">errormsg</text>
</a>
</g>
</g>
<!-- Node1&#45;&gt;Node4 -->
<g id="edge3" class="edge"><title>Node1&#45;&gt;Node4</title>
<path fill="none" stroke="midnightblue" d="M85.8005,-21.4361C94.5827,-19.8469 103.782,-18.1823 112.358,-16.6304"/>
<polygon fill="midnightblue" stroke="midnightblue" points="113.224,-20.0308 122.44,-14.806 111.977,-13.1426 113.224,-20.0308"/>
</g>
<!-- Node3 -->
<g id="node3" class="node"><title>Node3</title>
<g id="a_node3"><a xlink:href="control_8cpp.xhtml#a03b1d46384ed092ca3bc35eeb9c47e02" target="_top" xlink:title="control_gettimestring">
<polygon fill="white" stroke="black" points="434.5,-19.5 434.5,-38.5 541.5,-38.5 541.5,-19.5 434.5,-19.5"/>
<text text-anchor="middle" x="488" y="-26.5" font-family="Helvetica,sans-Serif" font-size="10.00">control_gettimestring</text>
</a>
</g>
</g>
<!-- Node2&#45;&gt;Node3 -->
<g id="edge2" class="edge"><title>Node2&#45;&gt;Node3</title>
<path fill="none" stroke="midnightblue" d="M397.776,-29C406.216,-29 415.292,-29 424.308,-29"/>
<polygon fill="midnightblue" stroke="midnightblue" points="424.426,-32.5001 434.426,-29 424.426,-25.5001 424.426,-32.5001"/>
</g>
<!-- Node5 -->
<g id="node5" class="node"><title>Node5</title>
<g id="a_node5"><a xlink:href="control_8cpp.xhtml#a42c6ce88a95e362f9f257d90bbf8de32" target="_top" xlink:title="control_log">
<polygon fill="white" stroke="black" points="214,-0.5 214,-19.5 278,-19.5 278,-0.5 214,-0.5"/>
<text text-anchor="middle" x="246" y="-7.5" font-family="Helvetica,sans-Serif" font-size="10.00">control_log</text>
</a>
</g>
</g>
<!-- Node4&#45;&gt;Node5 -->
<g id="edge4" class="edge"><title>Node4&#45;&gt;Node5</title>
<path fill="none" stroke="midnightblue" d="M177.685,-10C185.8,-10 194.915,-10 203.754,-10"/>
<polygon fill="midnightblue" stroke="midnightblue" points="203.928,-13.5001 213.928,-10 203.928,-6.5001 203.928,-13.5001"/>
</g>
<!-- Node5&#45;&gt;Node2 -->
<g id="edge5" class="edge"><title>Node5&#45;&gt;Node2</title>
<path fill="none" stroke="midnightblue" d="M278.238,-15.4956C286.385,-16.9289 295.379,-18.5111 304.255,-20.0726"/>
<polygon fill="midnightblue" stroke="midnightblue" points="303.719,-23.5321 314.175,-21.8178 304.932,-16.638 303.719,-23.5321"/>
</g>
</g>
</svg>
