<?xml version="1.0" encoding="UTF-8" standalone="no"?>
<!DOCTYPE svg PUBLIC "-//W3C//DTD SVG 1.1//EN"
 "http://www.w3.org/Graphics/SVG/1.1/DTD/svg11.dtd">
<!-- Generated by graphviz version 2.36.0 (20140111.2315)
 -->
<!-- Title: control_log Pages: 1 -->
<svg width="554pt" height="294pt"
 viewBox="0.00 0.00 554.00 294.00" xmlns="http://www.w3.org/2000/svg" xmlns:xlink="http://www.w3.org/1999/xlink">
<g id="graph0" class="graph" transform="scale(1 1) rotate(0) translate(4 290)">
<title>control_log</title>
<polygon fill="white" stroke="none" points="-4,4 -4,-290 550,-290 550,4 -4,4"/>
<!-- Node1 -->
<g id="node1" class="node"><title>Node1</title>
<polygon fill="#bfbfbf" stroke="black" points="0,-133.5 0,-152.5 64,-152.5 64,-133.5 0,-133.5"/>
<text text-anchor="middle" x="32" y="-140.5" font-family="Helvetica,sans-Serif" font-size="10.00">control_log</text>
</g>
<!-- Node2 -->
<g id="node2" class="node"><title>Node2</title>
<g id="a_node2"><a xlink:href="_g_u_i_2_include_2control_8h.xhtml#a48a6baefa46edb93b59bb0f76385052a" target="_top" xlink:title="errormsg">
<polygon fill="white" stroke="black" points="100.5,-133.5 100.5,-152.5 155.5,-152.5 155.5,-133.5 100.5,-133.5"/>
<text text-anchor="middle" x="128" y="-140.5" font-family="Helvetica,sans-Serif" font-size="10.00">errormsg</text>
</a>
</g>
</g>
<!-- Node1&#45;&gt;Node2 -->
<g id="edge1" class="edge"><title>Node1&#45;&gt;Node2</title>
<path fill="none" stroke="midnightblue" d="M74.2483,-143C83.1189,-143 92.2671,-143 100.403,-143"/>
<polygon fill="midnightblue" stroke="midnightblue" points="74.0397,-139.5 64.0396,-143 74.0396,-146.5 74.0397,-139.5"/>
</g>
<!-- Node3 -->
<g id="node3" class="node"><title>Node3</title>
<g id="a_node3"><a xlink:href="_g_u_i_2_include_2control_8h.xhtml#a3ea9dadf648f70197ec522fb6fedc393" target="_top" xlink:title="control_openlog">
<polygon fill="white" stroke="black" points="208.5,-266.5 208.5,-285.5 293.5,-285.5 293.5,-266.5 208.5,-266.5"/>
<text text-anchor="middle" x="251" y="-273.5" font-family="Helvetica,sans-Serif" font-size="10.00">control_openlog</text>
</a>
</g>
</g>
<!-- Node2&#45;&gt;Node3 -->
<g id="edge2" class="edge"><title>Node2&#45;&gt;Node3</title>
<path fill="none" stroke="midnightblue" d="M134.647,-162.061C143.084,-187.323 161.359,-231.646 192,-257 196.817,-260.985 202.494,-264.143 208.379,-266.643"/>
<polygon fill="midnightblue" stroke="midnightblue" points="137.979,-160.991 131.625,-152.513 131.305,-163.103 137.979,-160.991"/>
</g>
<!-- Node4 -->
<g id="node4" class="node"><title>Node4</title>
<g id="a_node4"><a xlink:href="_g_u_i_2_include_2control_8h.xhtml#ac97643773a87a0ab2f3310730174824f" target="_top" xlink:title="control_cmdline">
<polygon fill="white" stroke="black" points="208.5,-228.5 208.5,-247.5 293.5,-247.5 293.5,-228.5 208.5,-228.5"/>
<text text-anchor="middle" x="251" y="-235.5" font-family="Helvetica,sans-Serif" font-size="10.00">control_cmdline</text>
</a>
</g>
</g>
<!-- Node2&#45;&gt;Node4 -->
<g id="edge3" class="edge"><title>Node2&#45;&gt;Node4</title>
<path fill="none" stroke="midnightblue" d="M139.833,-161.258C150.915,-178.455 169.646,-203.785 192,-219 197.606,-222.816 204.034,-225.911 210.523,-228.408"/>
<polygon fill="midnightblue" stroke="midnightblue" points="142.74,-159.304 134.489,-152.657 136.794,-162.998 142.74,-159.304"/>
</g>
<!-- Node5 -->
<g id="node5" class="node"><title>Node5</title>
<g id="a_node5"><a xlink:href="_g_u_i_2_include_2control_8h.xhtml#aeab8b16e95a01d21a60fdf5490f781d2" target="_top" xlink:title="control_configfile">
<polygon fill="white" stroke="black" points="206,-190.5 206,-209.5 296,-209.5 296,-190.5 206,-190.5"/>
<text text-anchor="middle" x="251" y="-197.5" font-family="Helvetica,sans-Serif" font-size="10.00">control_configfile</text>
</a>
</g>
</g>
<!-- Node2&#45;&gt;Node5 -->
<g id="edge4" class="edge"><title>Node2&#45;&gt;Node5</title>
<path fill="none" stroke="midnightblue" d="M151.669,-158.385C163.367,-165.876 178.073,-174.618 192,-181 199.706,-184.531 208.26,-187.711 216.379,-190.414"/>
<polygon fill="midnightblue" stroke="midnightblue" points="153.289,-155.262 143.005,-152.715 149.456,-161.119 153.289,-155.262"/>
</g>
<!-- Node6 -->
<g id="node6" class="node"><title>Node6</title>
<g id="a_node6"><a xlink:href="_g_u_i_2_include_2control_8h.xhtml#ab54cec1fc7617fbb69ba6258f0a9f827" target="_top" xlink:title="control_openfile">
<polygon fill="white" stroke="black" points="208.5,-152.5 208.5,-171.5 293.5,-171.5 293.5,-152.5 208.5,-152.5"/>
<text text-anchor="middle" x="251" y="-159.5" font-family="Helvetica,sans-Serif" font-size="10.00">control_openfile</text>
</a>
</g>
</g>
<!-- Node2&#45;&gt;Node6 -->
<g id="edge5" class="edge"><title>Node2&#45;&gt;Node6</title>
<path fill="none" stroke="midnightblue" d="M165.449,-148.723C178.949,-150.843 194.356,-153.263 208.289,-155.45"/>
<polygon fill="midnightblue" stroke="midnightblue" points="165.976,-145.263 155.554,-147.17 164.89,-152.179 165.976,-145.263"/>
</g>
<!-- Node7 -->
<g id="node7" class="node"><title>Node7</title>
<g id="a_node7"><a xlink:href="control_8cpp.xhtml#a9ed3ffa0b795893db43aac7d83f9cd87" target="_top" xlink:title="control_openrawrootfile">
<polygon fill="white" stroke="black" points="192.5,-114.5 192.5,-133.5 309.5,-133.5 309.5,-114.5 192.5,-114.5"/>
<text text-anchor="middle" x="251" y="-121.5" font-family="Helvetica,sans-Serif" font-size="10.00">control_openrawrootfile</text>
</a>
</g>
</g>
<!-- Node2&#45;&gt;Node7 -->
<g id="edge6" class="edge"><title>Node2&#45;&gt;Node7</title>
<path fill="none" stroke="midnightblue" d="M165.449,-137.277C173.912,-135.948 183.125,-134.501 192.255,-133.067"/>
<polygon fill="midnightblue" stroke="midnightblue" points="164.89,-133.821 155.554,-138.83 165.976,-140.737 164.89,-133.821"/>
</g>
<!-- Node8 -->
<g id="node8" class="node"><title>Node8</title>
<g id="a_node8"><a xlink:href="_g_u_i_2_include_2control_8h.xhtml#ab5bd42385627821b5bbe8f172adc9d10" target="_top" xlink:title="control_scfile">
<polygon fill="white" stroke="black" points="214,-76.5 214,-95.5 288,-95.5 288,-76.5 214,-76.5"/>
<text text-anchor="middle" x="251" y="-83.5" font-family="Helvetica,sans-Serif" font-size="10.00">control_scfile</text>
</a>
</g>
</g>
<!-- Node2&#45;&gt;Node8 -->
<g id="edge7" class="edge"><title>Node2&#45;&gt;Node8</title>
<path fill="none" stroke="midnightblue" d="M151.669,-127.615C163.367,-120.124 178.073,-111.382 192,-105 199.706,-101.469 208.26,-98.2893 216.379,-95.5863"/>
<polygon fill="midnightblue" stroke="midnightblue" points="149.456,-124.881 143.005,-133.285 153.289,-130.738 149.456,-124.881"/>
</g>
<!-- Node9 -->
<g id="node9" class="node"><title>Node9</title>
<g id="a_node9"><a xlink:href="control_8cpp.xhtml#a05821af400d34bbf265b0eb929f4cee8" target="_top" xlink:title="control_calcrate">
<polygon fill="white" stroke="black" points="366,-38.5 366,-57.5 452,-57.5 452,-38.5 366,-38.5"/>
<text text-anchor="middle" x="409" y="-45.5" font-family="Helvetica,sans-Serif" font-size="10.00">control_calcrate</text>
</a>
</g>
</g>
<!-- Node2&#45;&gt;Node9 -->
<g id="edge10" class="edge"><title>Node2&#45;&gt;Node9</title>
<path fill="none" stroke="midnightblue" d="M138.628,-124.434C149.107,-106.346 167.671,-79.7651 192,-67 246.836,-38.2287 320.387,-38.5878 365.959,-42.52"/>
<polygon fill="midnightblue" stroke="midnightblue" points="135.412,-123.019 133.653,-133.467 141.543,-126.396 135.412,-123.019"/>
</g>
<!-- Node11 -->
<g id="node11" class="node"><title>Node11</title>
<g id="a_node11"><a xlink:href="control_8cpp.xhtml#aa8ca64af815f670c76cdb23c3d1af7b4" target="_top" xlink:title="control_generatefilename">
<polygon fill="white" stroke="black" points="346.5,-0.5 346.5,-19.5 471.5,-19.5 471.5,-0.5 346.5,-0.5"/>
<text text-anchor="middle" x="409" y="-7.5" font-family="Helvetica,sans-Serif" font-size="10.00">control_generatefilename</text>
</a>
</g>
</g>
<!-- Node2&#45;&gt;Node11 -->
<g id="edge11" class="edge"><title>Node2&#45;&gt;Node11</title>
<path fill="none" stroke="midnightblue" d="M134.557,-123.512C142.741,-98.6903 160.569,-56.5577 192,-36 237.518,-6.22818 300.172,-1.72309 346.282,-3.47966"/>
<polygon fill="midnightblue" stroke="midnightblue" points="131.151,-122.68 131.545,-133.268 137.84,-124.745 131.151,-122.68"/>
</g>
<!-- Node8&#45;&gt;Node9 -->
<g id="edge8" class="edge"><title>Node8&#45;&gt;Node9</title>
<path fill="none" stroke="midnightblue" d="M298.16,-74.756C320.601,-69.2896 347.287,-62.7892 368.735,-57.5645"/>
<polygon fill="midnightblue" stroke="midnightblue" points="297.069,-71.4192 288.182,-77.1865 298.726,-78.2203 297.069,-71.4192"/>
</g>
<!-- Node10 -->
<g id="node10" class="node"><title>Node10</title>
<g id="a_node10"><a xlink:href="mini_d_a_x_8cpp.xhtml#adedb285b02c41bde2158ded9cc9fd7ac" target="_top" xlink:title="main">
<polygon fill="white" stroke="black" points="508,-19.5 508,-38.5 546,-38.5 546,-19.5 508,-19.5"/>
<text text-anchor="middle" x="527" y="-26.5" font-family="Helvetica,sans-Serif" font-size="10.00">main</text>
</a>
</g>
</g>
<!-- Node9&#45;&gt;Node10 -->
<g id="edge9" class="edge"><title>Node9&#45;&gt;Node10</title>
<path fill="none" stroke="midnightblue" d="M462.268,-39.4389C478.629,-36.759 495.605,-33.9785 507.919,-31.9616"/>
<polygon fill="midnightblue" stroke="midnightblue" points="461.51,-36.0164 452.207,-41.0868 462.641,-42.9243 461.51,-36.0164"/>
</g>
<!-- Node11&#45;&gt;Node10 -->
<g id="edge12" class="edge"><title>Node11&#45;&gt;Node10</title>
<path fill="none" stroke="midnightblue" d="M478.366,-21.1979C489.181,-22.9693 499.498,-24.6592 507.748,-26.0105"/>
<polygon fill="midnightblue" stroke="midnightblue" points="478.774,-17.7182 468.34,-19.5557 477.643,-24.6261 478.774,-17.7182"/>
</g>
</g>
</svg>
