<?xml version="1.0" encoding="UTF-8" standalone="no"?>
<!DOCTYPE svg PUBLIC "-//W3C//DTD SVG 1.1//EN"
 "http://www.w3.org/Graphics/SVG/1.1/DTD/svg11.dtd">
<!-- Generated by graphviz version 2.36.0 (20140111.2315)
 -->
<!-- Title: adc_disable Pages: 1 -->
<svg width="276pt" height="66pt"
 viewBox="0.00 0.00 276.00 66.00" xmlns="http://www.w3.org/2000/svg" xmlns:xlink="http://www.w3.org/1999/xlink">
<g id="graph0" class="graph" transform="scale(1 1) rotate(0) translate(4 62)">
<title>adc_disable</title>
<polygon fill="white" stroke="none" points="-4,4 -4,-62 272,-62 272,4 -4,4"/>
<!-- Node1 -->
<g id="node1" class="node"><title>Node1</title>
<polygon fill="#bfbfbf" stroke="black" points="0,-19.5 0,-38.5 68,-38.5 68,-19.5 0,-19.5"/>
<text text-anchor="middle" x="34" y="-26.5" font-family="Helvetica,sans-Serif" font-size="10.00">adc_disable</text>
</g>
<!-- Node2 -->
<g id="node2" class="node"><title>Node2</title>
<g id="a_node2"><a xlink:href="adc_8cpp.xhtml#a3e167d474fe419a8fe9a69bd27388ccc" target="_top" xlink:title="adc_readreg">
<polygon fill="white" stroke="black" points="105,-38.5 105,-57.5 175,-57.5 175,-38.5 105,-38.5"/>
<text text-anchor="middle" x="140" y="-45.5" font-family="Helvetica,sans-Serif" font-size="10.00">adc_readreg</text>
</a>
</g>
</g>
<!-- Node1&#45;&gt;Node2 -->
<g id="edge1" class="edge"><title>Node1&#45;&gt;Node2</title>
<path fill="none" stroke="midnightblue" d="M68.1922,-35.064C76.6577,-36.6105 85.8917,-38.2975 94.8119,-39.9272"/>
<polygon fill="midnightblue" stroke="midnightblue" points="94.2259,-43.378 104.692,-41.7322 95.4839,-36.4919 94.2259,-43.378"/>
</g>
<!-- Node4 -->
<g id="node4" class="node"><title>Node4</title>
<g id="a_node4"><a xlink:href="adc_8cpp.xhtml#ab2c5b38244f3ea85067f83b5d94409f7" target="_top" xlink:title="adc_writereg">
<polygon fill="white" stroke="black" points="104,-0.5 104,-19.5 176,-19.5 176,-0.5 104,-0.5"/>
<text text-anchor="middle" x="140" y="-7.5" font-family="Helvetica,sans-Serif" font-size="10.00">adc_writereg</text>
</a>
</g>
</g>
<!-- Node1&#45;&gt;Node4 -->
<g id="edge3" class="edge"><title>Node1&#45;&gt;Node4</title>
<path fill="none" stroke="midnightblue" d="M68.1922,-22.936C76.3957,-21.4373 85.321,-19.8067 93.9831,-18.2242"/>
<polygon fill="midnightblue" stroke="midnightblue" points="94.7634,-21.6397 103.972,-16.3994 93.5053,-14.7537 94.7634,-21.6397"/>
</g>
<!-- Node3 -->
<g id="node3" class="node"><title>Node3</title>
<g id="a_node3"><a xlink:href="_core_2_include_2control_8h.xhtml#a48a6baefa46edb93b59bb0f76385052a" target="_top" xlink:title="errormsg">
<polygon fill="white" stroke="black" points="212.5,-19.5 212.5,-38.5 267.5,-38.5 267.5,-19.5 212.5,-19.5"/>
<text text-anchor="middle" x="240" y="-26.5" font-family="Helvetica,sans-Serif" font-size="10.00">errormsg</text>
</a>
</g>
</g>
<!-- Node2&#45;&gt;Node3 -->
<g id="edge2" class="edge"><title>Node2&#45;&gt;Node3</title>
<path fill="none" stroke="midnightblue" d="M175.001,-41.408C183.918,-39.6793 193.568,-37.8083 202.605,-36.0563"/>
<polygon fill="midnightblue" stroke="midnightblue" points="203.324,-39.4821 212.475,-34.1427 201.991,-32.61 203.324,-39.4821"/>
</g>
<!-- Node4&#45;&gt;Node3 -->
<g id="edge4" class="edge"><title>Node4&#45;&gt;Node3</title>
<path fill="none" stroke="midnightblue" d="M176.103,-16.8058C184.709,-18.4742 193.938,-20.2635 202.603,-21.9434"/>
<polygon fill="midnightblue" stroke="midnightblue" points="201.961,-25.3841 212.444,-23.8515 203.293,-18.512 201.961,-25.3841"/>
</g>
</g>
</svg>
