<?xml version="1.0" encoding="UTF-8" standalone="no"?>
<!DOCTYPE svg PUBLIC "-//W3C//DTD SVG 1.1//EN"
 "http://www.w3.org/Graphics/SVG/1.1/DTD/svg11.dtd">
<!-- Generated by graphviz version 2.36.0 (20140111.2315)
 -->
<!-- Title: control_printlog Pages: 1 -->
<!--zoomable 294 -->
<svg id="main" version="1.1" xmlns="http://www.w3.org/2000/svg" xmlns:xlink="http://www.w3.org/1999/xlink" xml:space="preserve" onload="init(evt)">
<style type="text/css"><![CDATA[
.edge:hover path { stroke: red; }
.edge:hover polygon { stroke: red; fill: red; }
]]></style>
<script type="text/javascript"><![CDATA[
var edges = document.getElementsByTagName('g');
if (edges && edges.length) {
  for (var i=0;i<edges.length;i++) {
    if (edges[i].id.substr(0,4)=='edge') {
      edges[i].setAttribute('class','edge');
    }
  }
}
]]></script>
        <defs>
                <circle id="rim" cx="0" cy="0" r="7"/>
                <circle id="rim2" cx="0" cy="0" r="3.5"/>
                <g id="zoomPlus">
                        <use xlink:href="#rim" fill="#404040">
                                <set attributeName="fill" to="#808080" begin="zoomplus.mouseover" end="zoomplus.mouseout"/>
                        </use>
                        <path d="M-4,0h8M0,-4v8" fill="none" stroke="white" stroke-width="1.5" pointer-events="none"/>
                </g>
                <g id="zoomMin">
                        <use xlink:href="#rim" fill="#404040">
                                <set attributeName="fill" to="#808080" begin="zoomminus.mouseover" end="zoomminus.mouseout"/>
                        </use>
                        <path d="M-4,0h8" fill="none" stroke="white" stroke-width="1.5" pointer-events="none"/>
                </g>
                <g id="dirArrow">
                        <path fill="none" stroke="white" stroke-width="1.5" d="M0,-3.0v7 M-2.5,-0.5L0,-3.0L2.5,-0.5"/>
                </g>
               <g id="resetDef">
                       <use xlink:href="#rim2" fill="#404040">
                               <set attributeName="fill" to="#808080" begin="reset.mouseover" end="reset.mouseout"/>
                       </use>
               </g>
        </defs>

<script type="text/javascript">
var viewWidth = 698;
var viewHeight = 294;
var sectionId = 'dynsection-13';
</script>
<script xlink:href="svgpan.js"/>
<svg id="graph" class="graph">
<g id="viewport">
<title>control_printlog</title>
<polygon fill="white" stroke="none" points="-4,4 -4,-290 694,-290 694,4 -4,4"/>
<!-- Node1 -->
<g id="node1" class="node"><title>Node1</title>
<polygon fill="#bfbfbf" stroke="black" points="0.5,-57.5 0.5,-76.5 83.5,-76.5 83.5,-57.5 0.5,-57.5"/>
<text text-anchor="middle" x="42" y="-64.5" font-family="Helvetica,sans-Serif" font-size="10.00">control_printlog</text>
</g>
<!-- Node2 -->
<g id="node2" class="node"><title>Node2</title>
<g id="a_node2"><a xlink:href="_g_u_i_2_include_2control_8h.xhtml#a11fd8ef2164efa9242cf82c35c240992" target="_top" xlink:title="control_cnts2log">
<polygon fill="white" stroke="black" points="120,-114.5 120,-133.5 208,-133.5 208,-114.5 120,-114.5"/>
<text text-anchor="middle" x="164" y="-121.5" font-family="Helvetica,sans-Serif" font-size="10.00">control_cnts2log</text>
</a>
</g>
</g>
<!-- Node1&#45;&gt;Node2 -->
<g id="edge1" class="edge"><title>Node1&#45;&gt;Node2</title>
<path fill="none" stroke="midnightblue" d="M70.876,-81.1115C85.4419,-88.395 103.604,-97.3362 120,-105 126.654,-108.11 133.944,-111.382 140.601,-114.317"/>
<polygon fill="midnightblue" stroke="midnightblue" points="72.3856,-77.9531 61.8782,-76.5948 69.2451,-84.2092 72.3856,-77.9531"/>
</g>
<!-- Node3 -->
<g id="node3" class="node"><title>Node3</title>
<g id="a_node3"><a xlink:href="_g_u_i_2_include_2control_8h.xhtml#a42c6ce88a95e362f9f257d90bbf8de32" target="_top" xlink:title="control_log">
<polygon fill="white" stroke="black" points="132,-76.5 132,-95.5 196,-95.5 196,-76.5 132,-76.5"/>
<text text-anchor="middle" x="164" y="-83.5" font-family="Helvetica,sans-Serif" font-size="10.00">control_log</text>
</a>
</g>
</g>
<!-- Node1&#45;&gt;Node3 -->
<g id="edge2" class="edge"><title>Node1&#45;&gt;Node3</title>
<path fill="none" stroke="midnightblue" d="M93.8286,-75.0479C106.765,-77.0961 120.283,-79.2365 131.902,-81.0761"/>
<polygon fill="midnightblue" stroke="midnightblue" points="94.0509,-71.5395 83.6265,-73.4325 92.9561,-78.4534 94.0509,-71.5395"/>
</g>
<!-- Node8 -->
<g id="node8" class="node"><title>Node8</title>
<g id="a_node8"><a xlink:href="_g_u_i_2_include_2control_8h.xhtml#ab54cec1fc7617fbb69ba6258f0a9f827" target="_top" xlink:title="control_openfile">
<polygon fill="white" stroke="black" points="352.5,-38.5 352.5,-57.5 437.5,-57.5 437.5,-38.5 352.5,-38.5"/>
<text text-anchor="middle" x="395" y="-45.5" font-family="Helvetica,sans-Serif" font-size="10.00">control_openfile</text>
</a>
</g>
</g>
<!-- Node1&#45;&gt;Node8 -->
<g id="edge15" class="edge"><title>Node1&#45;&gt;Node8</title>
<path fill="none" stroke="midnightblue" d="M93.9139,-64.244C163.727,-60.4649 287.846,-53.7462 352.4,-50.2518"/>
<polygon fill="midnightblue" stroke="midnightblue" points="93.4032,-60.7664 83.6071,-64.8019 93.7817,-67.7562 93.4032,-60.7664"/>
</g>
<!-- Node9 -->
<g id="node9" class="node"><title>Node9</title>
<g id="a_node9"><a xlink:href="control_8cpp.xhtml#a9ed3ffa0b795893db43aac7d83f9cd87" target="_top" xlink:title="control_openrawrootfile">
<polygon fill="white" stroke="black" points="336.5,-0.5 336.5,-19.5 453.5,-19.5 453.5,-0.5 336.5,-0.5"/>
<text text-anchor="middle" x="395" y="-7.5" font-family="Helvetica,sans-Serif" font-size="10.00">control_openrawrootfile</text>
</a>
</g>
</g>
<!-- Node1&#45;&gt;Node9 -->
<g id="edge16" class="edge"><title>Node1&#45;&gt;Node9</title>
<path fill="none" stroke="midnightblue" d="M93.8319,-58.3586C102.559,-56.8921 111.539,-55.3936 120,-54 194.635,-41.7072 280.781,-27.9433 336.247,-19.1362"/>
<polygon fill="midnightblue" stroke="midnightblue" points="93.0298,-54.9443 83.7504,-60.0573 94.1929,-61.847 93.0298,-54.9443"/>
</g>
<!-- Node4 -->
<g id="node4" class="node"><title>Node4</title>
<g id="a_node4"><a xlink:href="_g_u_i_2_include_2control_8h.xhtml#a48a6baefa46edb93b59bb0f76385052a" target="_top" xlink:title="errormsg">
<polygon fill="white" stroke="black" points="244.5,-114.5 244.5,-133.5 299.5,-133.5 299.5,-114.5 244.5,-114.5"/>
<text text-anchor="middle" x="272" y="-121.5" font-family="Helvetica,sans-Serif" font-size="10.00">errormsg</text>
</a>
</g>
</g>
<!-- Node3&#45;&gt;Node4 -->
<g id="edge3" class="edge"><title>Node3&#45;&gt;Node4</title>
<path fill="none" stroke="midnightblue" d="M201.184,-98.9718C215.307,-104.034 231.206,-109.734 244.26,-114.414"/>
<polygon fill="midnightblue" stroke="midnightblue" points="202.343,-95.669 191.748,-95.589 199.981,-102.258 202.343,-95.669"/>
</g>
<!-- Node5 -->
<g id="node5" class="node"><title>Node5</title>
<g id="a_node5"><a xlink:href="_g_u_i_2_include_2control_8h.xhtml#a3ea9dadf648f70197ec522fb6fedc393" target="_top" xlink:title="control_openlog">
<polygon fill="white" stroke="black" points="352.5,-266.5 352.5,-285.5 437.5,-285.5 437.5,-266.5 352.5,-266.5"/>
<text text-anchor="middle" x="395" y="-273.5" font-family="Helvetica,sans-Serif" font-size="10.00">control_openlog</text>
</a>
</g>
</g>
<!-- Node4&#45;&gt;Node5 -->
<g id="edge4" class="edge"><title>Node4&#45;&gt;Node5</title>
<path fill="none" stroke="midnightblue" d="M277.124,-143.695C284.184,-172.61 301.313,-226.424 336,-257 340.769,-261.204 346.489,-264.481 352.451,-267.035"/>
<polygon fill="midnightblue" stroke="midnightblue" points="280.46,-142.582 274.827,-133.609 273.635,-144.136 280.46,-142.582"/>
</g>
<!-- Node6 -->
<g id="node6" class="node"><title>Node6</title>
<g id="a_node6"><a xlink:href="_g_u_i_2_include_2control_8h.xhtml#ac97643773a87a0ab2f3310730174824f" target="_top" xlink:title="control_cmdline">
<polygon fill="white" stroke="black" points="352.5,-228.5 352.5,-247.5 437.5,-247.5 437.5,-228.5 352.5,-228.5"/>
<text text-anchor="middle" x="395" y="-235.5" font-family="Helvetica,sans-Serif" font-size="10.00">control_cmdline</text>
</a>
</g>
</g>
<!-- Node4&#45;&gt;Node6 -->
<g id="edge5" class="edge"><title>Node4&#45;&gt;Node6</title>
<path fill="none" stroke="midnightblue" d="M280.913,-142.98C290.779,-164.411 309.617,-198.906 336,-219 341.058,-222.852 346.931,-225.942 352.959,-228.416"/>
<polygon fill="midnightblue" stroke="midnightblue" points="284.029,-141.371 276.797,-133.628 277.622,-144.191 284.029,-141.371"/>
</g>
<!-- Node7 -->
<g id="node7" class="node"><title>Node7</title>
<g id="a_node7"><a xlink:href="_g_u_i_2_include_2control_8h.xhtml#aeab8b16e95a01d21a60fdf5490f781d2" target="_top" xlink:title="control_configfile">
<polygon fill="white" stroke="black" points="350,-190.5 350,-209.5 440,-209.5 440,-190.5 350,-190.5"/>
<text text-anchor="middle" x="395" y="-197.5" font-family="Helvetica,sans-Serif" font-size="10.00">control_configfile</text>
</a>
</g>
</g>
<!-- Node4&#45;&gt;Node7 -->
<g id="edge6" class="edge"><title>Node4&#45;&gt;Node7</title>
<path fill="none" stroke="midnightblue" d="M290.521,-140.895C302.598,-151.906 319.408,-166.027 336,-176 345.434,-181.67 356.451,-186.602 366.335,-190.495"/>
<polygon fill="midnightblue" stroke="midnightblue" points="292.676,-138.119 282.976,-133.858 287.902,-143.238 292.676,-138.119"/>
</g>
<!-- Node4&#45;&gt;Node8 -->
<g id="edge7" class="edge"><title>Node4&#45;&gt;Node8</title>
<path fill="none" stroke="midnightblue" d="M288.393,-106.607C300.304,-94.0731 317.793,-77.5703 336,-67 342.506,-63.2228 349.865,-60.0792 357.103,-57.5085"/>
<polygon fill="midnightblue" stroke="midnightblue" points="285.626,-104.444 281.419,-114.168 290.771,-109.19 285.626,-104.444"/>
</g>
<!-- Node4&#45;&gt;Node9 -->
<g id="edge8" class="edge"><title>Node4&#45;&gt;Node9</title>
<path fill="none" stroke="midnightblue" d="M280.913,-105.02C290.779,-83.5888 309.617,-49.0941 336,-29 341.058,-25.1479 346.931,-22.0578 352.959,-19.5841"/>
<polygon fill="midnightblue" stroke="midnightblue" points="277.622,-103.809 276.797,-114.372 284.029,-106.629 277.622,-103.809"/>
</g>
<!-- Node10 -->
<g id="node10" class="node"><title>Node10</title>
<g id="a_node10"><a xlink:href="_g_u_i_2_include_2control_8h.xhtml#ab5bd42385627821b5bbe8f172adc9d10" target="_top" xlink:title="control_scfile">
<polygon fill="white" stroke="black" points="358,-76.5 358,-95.5 432,-95.5 432,-76.5 358,-76.5"/>
<text text-anchor="middle" x="395" y="-83.5" font-family="Helvetica,sans-Serif" font-size="10.00">control_scfile</text>
</a>
</g>
</g>
<!-- Node4&#45;&gt;Node10 -->
<g id="edge9" class="edge"><title>Node4&#45;&gt;Node10</title>
<path fill="none" stroke="midnightblue" d="M309.342,-112.587C326.68,-107.142 347.185,-100.702 363.672,-95.5246"/>
<polygon fill="midnightblue" stroke="midnightblue" points="308.046,-109.325 299.554,-115.661 310.143,-116.004 308.046,-109.325"/>
</g>
<!-- Node11 -->
<g id="node11" class="node"><title>Node11</title>
<g id="a_node11"><a xlink:href="control_8cpp.xhtml#a05821af400d34bbf265b0eb929f4cee8" target="_top" xlink:title="control_calcrate">
<polygon fill="white" stroke="black" points="510,-114.5 510,-133.5 596,-133.5 596,-114.5 510,-114.5"/>
<text text-anchor="middle" x="553" y="-121.5" font-family="Helvetica,sans-Serif" font-size="10.00">control_calcrate</text>
</a>
</g>
</g>
<!-- Node4&#45;&gt;Node11 -->
<g id="edge12" class="edge"><title>Node4&#45;&gt;Node11</title>
<path fill="none" stroke="midnightblue" d="M309.792,-124C361.396,-124 455.046,-124 509.541,-124"/>
<polygon fill="midnightblue" stroke="midnightblue" points="309.752,-120.5 299.752,-124 309.752,-127.5 309.752,-120.5"/>
</g>
<!-- Node13 -->
<g id="node13" class="node"><title>Node13</title>
<g id="a_node13"><a xlink:href="control_8cpp.xhtml#aa8ca64af815f670c76cdb23c3d1af7b4" target="_top" xlink:title="control_generatefilename">
<polygon fill="white" stroke="black" points="490.5,-152.5 490.5,-171.5 615.5,-171.5 615.5,-152.5 490.5,-152.5"/>
<text text-anchor="middle" x="553" y="-159.5" font-family="Helvetica,sans-Serif" font-size="10.00">control_generatefilename</text>
</a>
</g>
</g>
<!-- Node4&#45;&gt;Node13 -->
<g id="edge13" class="edge"><title>Node4&#45;&gt;Node13</title>
<path fill="none" stroke="midnightblue" d="M309.4,-132.79C318.081,-134.692 327.341,-136.561 336,-138 387.736,-146.597 446.97,-152.934 490.307,-156.93"/>
<polygon fill="midnightblue" stroke="midnightblue" points="310.07,-129.353 299.545,-130.567 308.53,-136.182 310.07,-129.353"/>
</g>
<!-- Node10&#45;&gt;Node11 -->
<g id="edge10" class="edge"><title>Node10&#45;&gt;Node11</title>
<path fill="none" stroke="midnightblue" d="M442.16,-97.244C464.601,-102.71 491.287,-109.211 512.735,-114.436"/>
<polygon fill="midnightblue" stroke="midnightblue" points="442.726,-93.7797 432.182,-94.8135 441.069,-100.581 442.726,-93.7797"/>
</g>
<!-- Node12 -->
<g id="node12" class="node"><title>Node12</title>
<g id="a_node12"><a xlink:href="mini_d_a_x_8cpp.xhtml#adedb285b02c41bde2158ded9cc9fd7ac" target="_top" xlink:title="main">
<polygon fill="white" stroke="black" points="652,-133.5 652,-152.5 690,-152.5 690,-133.5 652,-133.5"/>
<text text-anchor="middle" x="671" y="-140.5" font-family="Helvetica,sans-Serif" font-size="10.00">main</text>
</a>
</g>
</g>
<!-- Node11&#45;&gt;Node12 -->
<g id="edge11" class="edge"><title>Node11&#45;&gt;Node12</title>
<path fill="none" stroke="midnightblue" d="M606.268,-132.561C622.629,-135.241 639.605,-138.022 651.919,-140.038"/>
<polygon fill="midnightblue" stroke="midnightblue" points="606.641,-129.076 596.207,-130.913 605.51,-135.984 606.641,-129.076"/>
</g>
<!-- Node13&#45;&gt;Node12 -->
<g id="edge14" class="edge"><title>Node13&#45;&gt;Node12</title>
<path fill="none" stroke="midnightblue" d="M622.366,-150.802C633.181,-149.031 643.498,-147.341 651.748,-145.989"/>
<polygon fill="midnightblue" stroke="midnightblue" points="621.643,-147.374 612.34,-152.444 622.774,-154.282 621.643,-147.374"/>
</g>
</g>
</svg>
        <g id="navigator" transform="translate(0 0)" fill="#404254">
                <rect fill="#f2f5e9" fill-opacity="0.5" stroke="#606060" stroke-width=".5" x="0" y="0" width="60" height="60"/>
                <use id="zoomplus" xlink:href="#zoomPlus" x="17" y="9" onmousedown="handleZoom(evt,'in')"/>
                <use id="zoomminus" xlink:href="#zoomMin" x="42" y="9" onmousedown="handleZoom(evt,'out')"/>
                <use id="reset" xlink:href="#resetDef" x="30" y="36" onmousedown="handleReset()"/>
                <g id="arrowUp" xlink:href="#dirArrow" transform="translate(30 24)" onmousedown="handlePan(0,-1)">
                  <use xlink:href="#rim" fill="#404040">
                        <set attributeName="fill" to="#808080" begin="arrowUp.mouseover" end="arrowUp.mouseout"/>
                  </use>
                  <path fill="none" stroke="white" stroke-width="1.5" d="M0,-3.0v7 M-2.5,-0.5L0,-3.0L2.5,-0.5"/>
                </g>
                <g id="arrowRight" xlink:href="#dirArrow" transform="rotate(90) translate(36 -43)" onmousedown="handlePan(1,0)">
                  <use xlink:href="#rim" fill="#404040">
                        <set attributeName="fill" to="#808080" begin="arrowRight.mouseover" end="arrowRight.mouseout"/>
                  </use>
                  <path fill="none" stroke="white" stroke-width="1.5" d="M0,-3.0v7 M-2.5,-0.5L0,-3.0L2.5,-0.5"/>
                </g>
                <g id="arrowDown" xlink:href="#dirArrow" transform="rotate(180) translate(-30 -48)" onmousedown="handlePan(0,1)">
                  <use xlink:href="#rim" fill="#404040">
                        <set attributeName="fill" to="#808080" begin="arrowDown.mouseover" end="arrowDown.mouseout"/>
                  </use>
                  <path fill="none" stroke="white" stroke-width="1.5" d="M0,-3.0v7 M-2.5,-0.5L0,-3.0L2.5,-0.5"/>
                </g>
                <g id="arrowLeft" xlink:href="#dirArrow" transform="rotate(270) translate(-36 17)" onmousedown="handlePan(-1,0)">
                  <use xlink:href="#rim" fill="#404040">
                        <set attributeName="fill" to="#808080" begin="arrowLeft.mouseover" end="arrowLeft.mouseout"/>
                  </use>
                  <path fill="none" stroke="white" stroke-width="1.5" d="M0,-3.0v7 M-2.5,-0.5L0,-3.0L2.5,-0.5"/>
                </g>
        </g>
        <svg viewBox="0 0 15 15" width="100%" height="30px" preserveAspectRatio="xMaxYMin meet">
         <g id="arrow_out" transform="scale(0.3 0.3)">
          <a xlink:href="_g_u_i_2_include_2control_8h_a6d31350db95da2e061ef2ef9ad11402e_icgraph_org.svg" target="_base">
           <rect id="button" ry="5" rx="5" y="6" x="6" height="38" width="38"
                fill="#f2f5e9" fill-opacity="0.5" stroke="#606060" stroke-width="1.0"/>
           <path id="arrow"
             d="M 11.500037,31.436501 C 11.940474,20.09759 22.043105,11.32322 32.158766,21.979434 L 37.068811,17.246167 C 37.068811,17.246167 37.088388,32 37.088388,32 L 22.160133,31.978069 C 22.160133,31.978069 26.997745,27.140456 26.997745,27.140456 C 18.528582,18.264221 13.291696,25.230495 11.500037,31.436501 z"
             style="fill:#404040;"/>
          </a>
         </g>
        </svg>
</svg>
