<?xml version="1.0" encoding="UTF-8" standalone="no"?>
<!DOCTYPE svg PUBLIC "-//W3C//DTD SVG 1.1//EN"
 "http://www.w3.org/Graphics/SVG/1.1/DTD/svg11.dtd">
<!-- Generated by graphviz version 2.36.0 (20140111.2315)
 -->
<!-- Title: adc_mblt Pages: 1 -->
<svg width="156pt" height="66pt"
 viewBox="0.00 0.00 156.00 66.00" xmlns="http://www.w3.org/2000/svg" xmlns:xlink="http://www.w3.org/1999/xlink">
<g id="graph0" class="graph" transform="scale(1 1) rotate(0) translate(4 62)">
<title>adc_mblt</title>
<polygon fill="white" stroke="none" points="-4,4 -4,-62 152,-62 152,4 -4,4"/>
<!-- Node1 -->
<g id="node1" class="node"><title>Node1</title>
<polygon fill="#bfbfbf" stroke="black" points="0,-19.5 0,-38.5 56,-38.5 56,-19.5 0,-19.5"/>
<text text-anchor="middle" x="28" y="-26.5" font-family="Helvetica,sans-Serif" font-size="10.00">adc_mblt</text>
</g>
<!-- Node2 -->
<g id="node2" class="node"><title>Node2</title>
<g id="a_node2"><a xlink:href="_core_2_include_2control_8h.xhtml#a3a545ba21c1d05570512e20917c021cf" target="_top" xlink:title="col">
<polygon fill="white" stroke="black" points="105.5,-38.5 105.5,-57.5 134.5,-57.5 134.5,-38.5 105.5,-38.5"/>
<text text-anchor="middle" x="120" y="-45.5" font-family="Helvetica,sans-Serif" font-size="10.00">col</text>
</a>
</g>
</g>
<!-- Node1&#45;&gt;Node2 -->
<g id="edge1" class="edge"><title>Node1&#45;&gt;Node2</title>
<path fill="none" stroke="midnightblue" d="M56.003,-34.7006C68.4975,-37.3384 83.2083,-40.444 95.2707,-42.9905"/>
<polygon fill="midnightblue" stroke="midnightblue" points="94.5597,-46.4175 105.067,-45.0586 96.0057,-39.5684 94.5597,-46.4175"/>
</g>
<!-- Node3 -->
<g id="node3" class="node"><title>Node3</title>
<g id="a_node3"><a xlink:href="_core_2_include_2control_8h.xhtml#a48a6baefa46edb93b59bb0f76385052a" target="_top" xlink:title="errormsg">
<polygon fill="white" stroke="black" points="92.5,-0.5 92.5,-19.5 147.5,-19.5 147.5,-0.5 92.5,-0.5"/>
<text text-anchor="middle" x="120" y="-7.5" font-family="Helvetica,sans-Serif" font-size="10.00">errormsg</text>
</a>
</g>
</g>
<!-- Node1&#45;&gt;Node3 -->
<g id="edge2" class="edge"><title>Node1&#45;&gt;Node3</title>
<path fill="none" stroke="midnightblue" d="M56.003,-23.2994C64.2647,-21.5552 73.4954,-19.6065 82.2888,-17.7501"/>
<polygon fill="midnightblue" stroke="midnightblue" points="83.2649,-21.1213 92.3262,-15.6311 81.8189,-14.2723 83.2649,-21.1213"/>
</g>
</g>
</svg>
