<?xml version="1.0" encoding="UTF-8" standalone="no"?>
<!DOCTYPE svg PUBLIC "-//W3C//DTD SVG 1.1//EN"
 "http://www.w3.org/Graphics/SVG/1.1/DTD/svg11.dtd">
<!-- Generated by graphviz version 2.36.0 (20140111.2315)
 -->
<!-- Title: /data/Software/DAQ/XDAQ/GUI/Include/control.h Pages: 1 -->
<svg width="657pt" height="108pt"
 viewBox="0.00 0.00 657.00 108.00" xmlns="http://www.w3.org/2000/svg" xmlns:xlink="http://www.w3.org/1999/xlink">
<g id="graph0" class="graph" transform="scale(1 1) rotate(0) translate(4 104)">
<title>/data/Software/DAQ/XDAQ/GUI/Include/control.h</title>
<polygon fill="white" stroke="none" points="-4,4 -4,-104 653,-104 653,4 -4,4"/>
<!-- Node1 -->
<g id="node1" class="node"><title>Node1</title>
<polygon fill="#bfbfbf" stroke="black" points="258,-69 258,-99 402,-99 402,-69 258,-69"/>
<text text-anchor="start" x="266" y="-87" font-family="Helvetica,sans-Serif" font-size="10.00">/data/Software/DAQ</text>
<text text-anchor="middle" x="330" y="-76" font-family="Helvetica,sans-Serif" font-size="10.00">/XDAQ/GUI/Include/control.h</text>
</g>
<!-- Node2 -->
<g id="node2" class="node"><title>Node2</title>
<g id="a_node2"><a xlink:href="mini_d_a_x_8cpp.xhtml" target="_top" xlink:title="/data/Software/DAQ\l/XDAQ/Application/miniDAX.cpp">
<polygon fill="white" stroke="black" points="0,-1 0,-31 160,-31 160,-1 0,-1"/>
<text text-anchor="start" x="8" y="-19" font-family="Helvetica,sans-Serif" font-size="10.00">/data/Software/DAQ</text>
<text text-anchor="middle" x="80" y="-8" font-family="Helvetica,sans-Serif" font-size="10.00">/XDAQ/Application/miniDAX.cpp</text>
</a>
</g>
</g>
<!-- Node1&#45;&gt;Node2 -->
<g id="edge1" class="edge"><title>Node1&#45;&gt;Node2</title>
<path fill="none" stroke="midnightblue" d="M266.996,-66.367C225.728,-55.4721 172.387,-41.3902 133.243,-31.0561"/>
<polygon fill="midnightblue" stroke="midnightblue" points="266.113,-69.7537 276.675,-68.9223 267.9,-62.9856 266.113,-69.7537"/>
</g>
<!-- Node3 -->
<g id="node3" class="node"><title>Node3</title>
<g id="a_node3"><a xlink:href="adc_8cpp.xhtml" target="_top" xlink:title="/data/Software/DAQ\l/XDAQ/Core/Source/adc.cpp">
<polygon fill="white" stroke="black" points="178.5,-1 178.5,-31 321.5,-31 321.5,-1 178.5,-1"/>
<text text-anchor="start" x="186.5" y="-19" font-family="Helvetica,sans-Serif" font-size="10.00">/data/Software/DAQ</text>
<text text-anchor="middle" x="250" y="-8" font-family="Helvetica,sans-Serif" font-size="10.00">/XDAQ/Core/Source/adc.cpp</text>
</a>
</g>
</g>
<!-- Node1&#45;&gt;Node3 -->
<g id="edge2" class="edge"><title>Node1&#45;&gt;Node3</title>
<path fill="none" stroke="midnightblue" d="M304.92,-62.3094C292.597,-52.1426 278.068,-40.1562 267.05,-31.0663"/>
<polygon fill="midnightblue" stroke="midnightblue" points="302.7,-65.0149 312.641,-68.679 307.155,-59.6153 302.7,-65.0149"/>
</g>
<!-- Node4 -->
<g id="node4" class="node"><title>Node4</title>
<g id="a_node4"><a xlink:href="_x_d_a_q_2_core_2_source_2xml_8cpp.xhtml" target="_top" xlink:title="/data/Software/DAQ\l/XDAQ/Core/Source/xml.cpp">
<polygon fill="white" stroke="black" points="339.5,-1 339.5,-31 482.5,-31 482.5,-1 339.5,-1"/>
<text text-anchor="start" x="347.5" y="-19" font-family="Helvetica,sans-Serif" font-size="10.00">/data/Software/DAQ</text>
<text text-anchor="middle" x="411" y="-8" font-family="Helvetica,sans-Serif" font-size="10.00">/XDAQ/Core/Source/xml.cpp</text>
</a>
</g>
</g>
<!-- Node1&#45;&gt;Node4 -->
<g id="edge3" class="edge"><title>Node1&#45;&gt;Node4</title>
<path fill="none" stroke="midnightblue" d="M355.393,-62.3094C367.87,-52.1426 382.581,-40.1562 393.737,-31.0663"/>
<polygon fill="midnightblue" stroke="midnightblue" points="353.117,-59.6489 347.576,-68.679 357.539,-65.0755 353.117,-59.6489"/>
</g>
<!-- Node5 -->
<g id="node5" class="node"><title>Node5</title>
<g id="a_node5"><a xlink:href="graph_8cpp.xhtml" target="_top" xlink:title="/data/Software/DAQ\l/XDAQ/GUI/Source/graph.cpp">
<polygon fill="white" stroke="black" points="500.5,-1 500.5,-31 649.5,-31 649.5,-1 500.5,-1"/>
<text text-anchor="start" x="508.5" y="-19" font-family="Helvetica,sans-Serif" font-size="10.00">/data/Software/DAQ</text>
<text text-anchor="middle" x="575" y="-8" font-family="Helvetica,sans-Serif" font-size="10.00">/XDAQ/GUI/Source/graph.cpp</text>
</a>
</g>
</g>
<!-- Node1&#45;&gt;Node5 -->
<g id="edge4" class="edge"><title>Node1&#45;&gt;Node5</title>
<path fill="none" stroke="midnightblue" d="M392,-66.298C432.407,-55.4127 484.542,-41.3684 522.822,-31.0561"/>
<polygon fill="midnightblue" stroke="midnightblue" points="391.003,-62.9416 382.258,-68.9223 392.824,-69.7006 391.003,-62.9416"/>
</g>
</g>
</svg>
