<?xml version="1.0" encoding="UTF-8" standalone="no"?>
<!DOCTYPE svg PUBLIC "-//W3C//DTD SVG 1.1//EN"
 "http://www.w3.org/Graphics/SVG/1.1/DTD/svg11.dtd">
<!-- Generated by graphviz version 2.36.0 (20140111.2315)
 -->
<!-- Title: adc_readreg Pages: 1 -->
<svg width="326pt" height="142pt"
 viewBox="0.00 0.00 326.00 142.00" xmlns="http://www.w3.org/2000/svg" xmlns:xlink="http://www.w3.org/1999/xlink">
<g id="graph0" class="graph" transform="scale(1 1) rotate(0) translate(4 138)">
<title>adc_readreg</title>
<polygon fill="white" stroke="none" points="-4,4 -4,-138 322,-138 322,4 -4,4"/>
<!-- Node1 -->
<g id="node1" class="node"><title>Node1</title>
<polygon fill="#bfbfbf" stroke="black" points="0,-57.5 0,-76.5 70,-76.5 70,-57.5 0,-57.5"/>
<text text-anchor="middle" x="35" y="-64.5" font-family="Helvetica,sans-Serif" font-size="10.00">adc_readreg</text>
</g>
<!-- Node2 -->
<g id="node2" class="node"><title>Node2</title>
<g id="a_node2"><a xlink:href="_g_u_i_2_include_2adc_8h.xhtml#a8e0f9bdd9b130dd38116dfaba6e94795" target="_top" xlink:title="adc_disable">
<polygon fill="white" stroke="black" points="106,-114.5 106,-133.5 174,-133.5 174,-114.5 106,-114.5"/>
<text text-anchor="middle" x="140" y="-121.5" font-family="Helvetica,sans-Serif" font-size="10.00">adc_disable</text>
</a>
</g>
</g>
<!-- Node1&#45;&gt;Node2 -->
<g id="edge1" class="edge"><title>Node1&#45;&gt;Node2</title>
<path fill="none" stroke="midnightblue" d="M62.3715,-81.5939C81.0506,-91.9309 105.572,-105.501 121.785,-114.474"/>
<polygon fill="midnightblue" stroke="midnightblue" points="63.9168,-78.449 53.4725,-76.6693 60.5274,-84.5737 63.9168,-78.449"/>
</g>
<!-- Node4 -->
<g id="node4" class="node"><title>Node4</title>
<g id="a_node4"><a xlink:href="_g_u_i_2_include_2adc_8h.xhtml#a25f6f40f42d10a2ecc7b970155d9eb53" target="_top" xlink:title="adc_getbaseline">
<polygon fill="white" stroke="black" points="220.5,-76.5 220.5,-95.5 307.5,-95.5 307.5,-76.5 220.5,-76.5"/>
<text text-anchor="middle" x="264" y="-83.5" font-family="Helvetica,sans-Serif" font-size="10.00">adc_getbaseline</text>
</a>
</g>
</g>
<!-- Node1&#45;&gt;Node4 -->
<g id="edge7" class="edge"><title>Node1&#45;&gt;Node4</title>
<path fill="none" stroke="midnightblue" d="M80.4638,-64.6368C107.569,-63.7823 142.87,-63.7141 174,-67 191.598,-68.8575 210.833,-72.7264 226.904,-76.4912"/>
<polygon fill="midnightblue" stroke="midnightblue" points="79.998,-61.1514 70.1319,-65.0127 80.2525,-68.1467 79.998,-61.1514"/>
</g>
<!-- Node5 -->
<g id="node5" class="node"><title>Node5</title>
<g id="a_node5"><a xlink:href="_g_u_i_2_include_2adc_8h.xhtml#a94f95e39919b3b5969d4231bf5103079" target="_top" xlink:title="adc_enable">
<polygon fill="white" stroke="black" points="107,-76.5 107,-95.5 173,-95.5 173,-76.5 107,-76.5"/>
<text text-anchor="middle" x="140" y="-83.5" font-family="Helvetica,sans-Serif" font-size="10.00">adc_enable</text>
</a>
</g>
</g>
<!-- Node1&#45;&gt;Node5 -->
<g id="edge4" class="edge"><title>Node1&#45;&gt;Node5</title>
<path fill="none" stroke="midnightblue" d="M79.9747,-75.1118C88.9704,-76.7712 98.2791,-78.4884 106.771,-80.0549"/>
<polygon fill="midnightblue" stroke="midnightblue" points="80.4805,-71.6462 70.0115,-73.274 79.2106,-78.53 80.4805,-71.6462"/>
</g>
<!-- Node6 -->
<g id="node6" class="node"><title>Node6</title>
<g id="a_node6"><a xlink:href="_g_u_i_2_include_2adc_8h.xhtml#ad4af88f42a1f3b3bc615ab5543f614a3" target="_top" xlink:title="adc_init">
<polygon fill="white" stroke="black" points="115,-0.5 115,-19.5 165,-19.5 165,-0.5 115,-0.5"/>
<text text-anchor="middle" x="140" y="-7.5" font-family="Helvetica,sans-Serif" font-size="10.00">adc_init</text>
</a>
</g>
</g>
<!-- Node1&#45;&gt;Node6 -->
<g id="edge8" class="edge"><title>Node1&#45;&gt;Node6</title>
<path fill="none" stroke="midnightblue" d="M62.3715,-52.4061C81.0506,-42.0691 105.572,-28.4991 121.785,-19.5265"/>
<polygon fill="midnightblue" stroke="midnightblue" points="60.5274,-49.4263 53.4725,-57.3307 63.9168,-55.551 60.5274,-49.4263"/>
</g>
<!-- Node3 -->
<g id="node3" class="node"><title>Node3</title>
<g id="a_node3"><a xlink:href="_g_u_i_2_include_2adc_8h.xhtml#a99fcc8dfc3bb71a3cd06f7e6968c12c3" target="_top" xlink:title="adc_analyzebaseline">
<polygon fill="white" stroke="black" points="210.5,-114.5 210.5,-133.5 317.5,-133.5 317.5,-114.5 210.5,-114.5"/>
<text text-anchor="middle" x="264" y="-121.5" font-family="Helvetica,sans-Serif" font-size="10.00">adc_analyzebaseline</text>
</a>
</g>
</g>
<!-- Node2&#45;&gt;Node3 -->
<g id="edge2" class="edge"><title>Node2&#45;&gt;Node3</title>
<path fill="none" stroke="midnightblue" d="M184.034,-124C192.494,-124 201.46,-124 210.197,-124"/>
<polygon fill="midnightblue" stroke="midnightblue" points="184.015,-120.5 174.015,-124 184.015,-127.5 184.015,-120.5"/>
</g>
<!-- Node2&#45;&gt;Node4 -->
<g id="edge3" class="edge"><title>Node2&#45;&gt;Node4</title>
<path fill="none" stroke="midnightblue" d="M181.711,-111.32C198.195,-106.185 216.91,-100.356 232.224,-95.5859"/>
<polygon fill="midnightblue" stroke="midnightblue" points="180.292,-108.095 171.786,-114.411 182.374,-114.779 180.292,-108.095"/>
</g>
<!-- Node5&#45;&gt;Node3 -->
<g id="edge5" class="edge"><title>Node5&#45;&gt;Node3</title>
<path fill="none" stroke="midnightblue" d="M181.711,-98.6804C198.195,-103.815 216.91,-109.644 232.224,-114.414"/>
<polygon fill="midnightblue" stroke="midnightblue" points="182.374,-95.2213 171.786,-95.589 180.292,-101.905 182.374,-95.2213"/>
</g>
<!-- Node5&#45;&gt;Node4 -->
<g id="edge6" class="edge"><title>Node5&#45;&gt;Node4</title>
<path fill="none" stroke="midnightblue" d="M183.222,-86C195.164,-86 208.17,-86 220.148,-86"/>
<polygon fill="midnightblue" stroke="midnightblue" points="183.054,-82.5001 173.054,-86 183.054,-89.5001 183.054,-82.5001"/>
</g>
</g>
</svg>
