<?xml version="1.0" encoding="UTF-8" standalone="no"?>
<!DOCTYPE svg PUBLIC "-//W3C//DTD SVG 1.1//EN"
 "http://www.w3.org/Graphics/SVG/1.1/DTD/svg11.dtd">
<!-- Generated by graphviz version 2.36.0 (20140111.2315)
 -->
<!-- Title: adc_writereg Pages: 1 -->
<svg width="328pt" height="94pt"
 viewBox="0.00 0.00 328.00 93.72" xmlns="http://www.w3.org/2000/svg" xmlns:xlink="http://www.w3.org/1999/xlink">
<g id="graph0" class="graph" transform="scale(1 1) rotate(0) translate(4 89.7151)">
<title>adc_writereg</title>
<polygon fill="white" stroke="none" points="-4,4 -4,-89.7151 324,-89.7151 324,4 -4,4"/>
<!-- Node1 -->
<g id="node1" class="node"><title>Node1</title>
<polygon fill="#bfbfbf" stroke="black" points="0,-33.3575 0,-52.3575 72,-52.3575 72,-33.3575 0,-33.3575"/>
<text text-anchor="middle" x="36" y="-40.3575" font-family="Helvetica,sans-Serif" font-size="10.00">adc_writereg</text>
</g>
<!-- Node2 -->
<g id="node2" class="node"><title>Node2</title>
<g id="a_node2"><a xlink:href="_g_u_i_2_include_2adc_8h.xhtml#a99fcc8dfc3bb71a3cd06f7e6968c12c3" target="_top" xlink:title="adc_analyzebaseline">
<polygon fill="white" stroke="black" points="212.5,-52.3575 212.5,-71.3575 319.5,-71.3575 319.5,-52.3575 212.5,-52.3575"/>
<text text-anchor="middle" x="266" y="-59.3575" font-family="Helvetica,sans-Serif" font-size="10.00">adc_analyzebaseline</text>
</a>
</g>
</g>
<!-- Node1&#45;&gt;Node2 -->
<g id="edge1" class="edge"><title>Node1&#45;&gt;Node2</title>
<path fill="none" stroke="midnightblue" d="M58.6039,-58.04C72.1118,-66.5846 90.2606,-76.4089 108,-80.8575 152.208,-91.9438 205.098,-80.6636 236.822,-71.362"/>
<polygon fill="midnightblue" stroke="midnightblue" points="60.3324,-54.9875 50.0557,-52.4107 56.4825,-60.8337 60.3324,-54.9875"/>
</g>
<!-- Node3 -->
<g id="node3" class="node"><title>Node3</title>
<g id="a_node3"><a xlink:href="_g_u_i_2_include_2adc_8h.xhtml#a8e0f9bdd9b130dd38116dfaba6e94795" target="_top" xlink:title="adc_disable">
<polygon fill="white" stroke="black" points="108,-52.3575 108,-71.3575 176,-71.3575 176,-52.3575 108,-52.3575"/>
<text text-anchor="middle" x="142" y="-59.3575" font-family="Helvetica,sans-Serif" font-size="10.00">adc_disable</text>
</a>
</g>
</g>
<!-- Node1&#45;&gt;Node3 -->
<g id="edge2" class="edge"><title>Node1&#45;&gt;Node3</title>
<path fill="none" stroke="midnightblue" d="M82.1899,-51.1134C90.8418,-52.694 99.7497,-54.3214 107.933,-55.8164"/>
<polygon fill="midnightblue" stroke="midnightblue" points="82.6759,-47.6443 72.2097,-49.2901 81.4178,-54.5303 82.6759,-47.6443"/>
</g>
<!-- Node4 -->
<g id="node4" class="node"><title>Node4</title>
<g id="a_node4"><a xlink:href="_g_u_i_2_include_2adc_8h.xhtml#a25f6f40f42d10a2ecc7b970155d9eb53" target="_top" xlink:title="adc_getbaseline">
<polygon fill="white" stroke="black" points="222.5,-14.3575 222.5,-33.3575 309.5,-33.3575 309.5,-14.3575 222.5,-14.3575"/>
<text text-anchor="middle" x="266" y="-21.3575" font-family="Helvetica,sans-Serif" font-size="10.00">adc_getbaseline</text>
</a>
</g>
</g>
<!-- Node1&#45;&gt;Node4 -->
<g id="edge8" class="edge"><title>Node1&#45;&gt;Node4</title>
<path fill="none" stroke="midnightblue" d="M58.6039,-27.6751C72.1118,-19.1305 90.2606,-9.30614 108,-4.85753 152.208,6.22873 205.098,-5.05145 236.822,-14.3531"/>
<polygon fill="midnightblue" stroke="midnightblue" points="56.4825,-24.8813 50.0557,-33.3044 60.3324,-30.7275 56.4825,-24.8813"/>
</g>
<!-- Node5 -->
<g id="node5" class="node"><title>Node5</title>
<g id="a_node5"><a xlink:href="_g_u_i_2_include_2adc_8h.xhtml#a94f95e39919b3b5969d4231bf5103079" target="_top" xlink:title="adc_enable">
<polygon fill="white" stroke="black" points="109,-14.3575 109,-33.3575 175,-33.3575 175,-14.3575 109,-14.3575"/>
<text text-anchor="middle" x="142" y="-21.3575" font-family="Helvetica,sans-Serif" font-size="10.00">adc_enable</text>
</a>
</g>
</g>
<!-- Node1&#45;&gt;Node5 -->
<g id="edge5" class="edge"><title>Node1&#45;&gt;Node5</title>
<path fill="none" stroke="midnightblue" d="M82.2101,-34.598C91.2242,-32.9512 100.515,-31.2538 108.975,-29.7083"/>
<polygon fill="midnightblue" stroke="midnightblue" points="81.4178,-31.1847 72.2097,-36.425 82.6759,-38.0707 81.4178,-31.1847"/>
</g>
<!-- Node3&#45;&gt;Node2 -->
<g id="edge3" class="edge"><title>Node3&#45;&gt;Node2</title>
<path fill="none" stroke="midnightblue" d="M186.034,-61.8575C194.494,-61.8575 203.46,-61.8575 212.197,-61.8575"/>
<polygon fill="midnightblue" stroke="midnightblue" points="186.015,-58.3576 176.015,-61.8575 186.015,-65.3576 186.015,-58.3576"/>
</g>
<!-- Node3&#45;&gt;Node4 -->
<g id="edge4" class="edge"><title>Node3&#45;&gt;Node4</title>
<path fill="none" stroke="midnightblue" d="M183.711,-49.1771C200.195,-44.0427 218.91,-38.2134 234.224,-33.4435"/>
<polygon fill="midnightblue" stroke="midnightblue" points="182.292,-45.953 173.786,-52.2685 184.374,-52.6363 182.292,-45.953"/>
</g>
<!-- Node5&#45;&gt;Node2 -->
<g id="edge6" class="edge"><title>Node5&#45;&gt;Node2</title>
<path fill="none" stroke="midnightblue" d="M183.711,-36.538C200.195,-41.6724 218.91,-47.5016 234.224,-52.2716"/>
<polygon fill="midnightblue" stroke="midnightblue" points="184.374,-33.0788 173.786,-33.4465 182.292,-39.7621 184.374,-33.0788"/>
</g>
<!-- Node5&#45;&gt;Node4 -->
<g id="edge7" class="edge"><title>Node5&#45;&gt;Node4</title>
<path fill="none" stroke="midnightblue" d="M185.222,-23.8575C197.164,-23.8575 210.17,-23.8575 222.148,-23.8575"/>
<polygon fill="midnightblue" stroke="midnightblue" points="185.054,-20.3576 175.054,-23.8575 185.054,-27.3576 185.054,-20.3576"/>
</g>
</g>
</svg>
