<?xml version="1.0" encoding="UTF-8" standalone="no"?>
<!DOCTYPE svg PUBLIC "-//W3C//DTD SVG 1.1//EN"
 "http://www.w3.org/Graphics/SVG/1.1/DTD/svg11.dtd">
<!-- Generated by graphviz version 2.36.0 (20140111.2315)
 -->
<!-- Title: control_scfile Pages: 1 -->
<svg width="538pt" height="47pt"
 viewBox="0.00 0.00 538.00 47.00" xmlns="http://www.w3.org/2000/svg" xmlns:xlink="http://www.w3.org/1999/xlink">
<g id="graph0" class="graph" transform="scale(1 1) rotate(0) translate(4 43)">
<title>control_scfile</title>
<polygon fill="white" stroke="none" points="-4,4 -4,-43 534,-43 534,4 -4,4"/>
<!-- Node1 -->
<g id="node1" class="node"><title>Node1</title>
<polygon fill="#bfbfbf" stroke="black" points="0,-19.5 0,-38.5 74,-38.5 74,-19.5 0,-19.5"/>
<text text-anchor="middle" x="37" y="-26.5" font-family="Helvetica,sans-Serif" font-size="10.00">control_scfile</text>
</g>
<!-- Node2 -->
<g id="node2" class="node"><title>Node2</title>
<g id="a_node2"><a xlink:href="control_8cpp.xhtml#a03b1d46384ed092ca3bc35eeb9c47e02" target="_top" xlink:title="control_gettimestring">
<polygon fill="white" stroke="black" points="422.5,-19.5 422.5,-38.5 529.5,-38.5 529.5,-19.5 422.5,-19.5"/>
<text text-anchor="middle" x="476" y="-26.5" font-family="Helvetica,sans-Serif" font-size="10.00">control_gettimestring</text>
</a>
</g>
</g>
<!-- Node1&#45;&gt;Node2 -->
<g id="edge1" class="edge"><title>Node1&#45;&gt;Node2</title>
<path fill="none" stroke="midnightblue" d="M74.1333,-29C148.441,-29 319.192,-29 412.061,-29"/>
<polygon fill="midnightblue" stroke="midnightblue" points="412.168,-32.5001 422.168,-29 412.168,-25.5001 412.168,-32.5001"/>
</g>
<!-- Node3 -->
<g id="node3" class="node"><title>Node3</title>
<g id="a_node3"><a xlink:href="control_8cpp.xhtml#a48a6baefa46edb93b59bb0f76385052a" target="_top" xlink:title="errormsg">
<polygon fill="white" stroke="black" points="110.5,-0.5 110.5,-19.5 165.5,-19.5 165.5,-0.5 110.5,-0.5"/>
<text text-anchor="middle" x="138" y="-7.5" font-family="Helvetica,sans-Serif" font-size="10.00">errormsg</text>
</a>
</g>
</g>
<!-- Node1&#45;&gt;Node3 -->
<g id="edge2" class="edge"><title>Node1&#45;&gt;Node3</title>
<path fill="none" stroke="midnightblue" d="M74.0213,-22.0868C82.684,-20.4243 91.9428,-18.6473 100.622,-16.9817"/>
<polygon fill="midnightblue" stroke="midnightblue" points="101.312,-20.4132 110.473,-15.0911 99.9924,-13.5387 101.312,-20.4132"/>
</g>
<!-- Node4 -->
<g id="node4" class="node"><title>Node4</title>
<g id="a_node4"><a xlink:href="control_8cpp.xhtml#a42c6ce88a95e362f9f257d90bbf8de32" target="_top" xlink:title="control_log">
<polygon fill="white" stroke="black" points="202,-0.5 202,-19.5 266,-19.5 266,-0.5 202,-0.5"/>
<text text-anchor="middle" x="234" y="-7.5" font-family="Helvetica,sans-Serif" font-size="10.00">control_log</text>
</a>
</g>
</g>
<!-- Node3&#45;&gt;Node4 -->
<g id="edge3" class="edge"><title>Node3&#45;&gt;Node4</title>
<path fill="none" stroke="midnightblue" d="M165.685,-10C173.8,-10 182.915,-10 191.754,-10"/>
<polygon fill="midnightblue" stroke="midnightblue" points="191.928,-13.5001 201.928,-10 191.928,-6.5001 191.928,-13.5001"/>
</g>
<!-- Node5 -->
<g id="node5" class="node"><title>Node5</title>
<g id="a_node5"><a xlink:href="control_8cpp.xhtml#a6d31350db95da2e061ef2ef9ad11402e" target="_top" xlink:title="control_printlog">
<polygon fill="white" stroke="black" points="302.5,-0.5 302.5,-19.5 385.5,-19.5 385.5,-0.5 302.5,-0.5"/>
<text text-anchor="middle" x="344" y="-7.5" font-family="Helvetica,sans-Serif" font-size="10.00">control_printlog</text>
</a>
</g>
</g>
<!-- Node4&#45;&gt;Node5 -->
<g id="edge4" class="edge"><title>Node4&#45;&gt;Node5</title>
<path fill="none" stroke="midnightblue" d="M266.238,-10C274.298,-10 283.186,-10 291.969,-10"/>
<polygon fill="midnightblue" stroke="midnightblue" points="292.175,-13.5001 302.175,-10 292.175,-6.5001 292.175,-13.5001"/>
</g>
<!-- Node5&#45;&gt;Node2 -->
<g id="edge5" class="edge"><title>Node5&#45;&gt;Node2</title>
<path fill="none" stroke="midnightblue" d="M385.776,-15.9596C394.216,-17.1931 403.292,-18.5195 412.308,-19.8373"/>
<polygon fill="midnightblue" stroke="midnightblue" points="412.025,-23.333 422.426,-21.316 413.037,-16.4066 412.025,-23.333"/>
</g>
</g>
</svg>
