<?xml version="1.0" encoding="UTF-8" standalone="no"?>
<!DOCTYPE svg PUBLIC "-//W3C//DTD SVG 1.1//EN"
 "http://www.w3.org/Graphics/SVG/1.1/DTD/svg11.dtd">
<!-- Generated by graphviz version 2.36.0 (20140111.2315)
 -->
<!-- Title: adc_analyzebaseline Pages: 1 -->
<svg width="460pt" height="291pt"
 viewBox="0.00 0.00 460.00 290.95" xmlns="http://www.w3.org/2000/svg" xmlns:xlink="http://www.w3.org/1999/xlink">
<g id="graph0" class="graph" transform="scale(1 1) rotate(0) translate(4 286.949)">
<title>adc_analyzebaseline</title>
<polygon fill="white" stroke="none" points="-4,4 -4,-286.949 456,-286.949 456,4 -4,4"/>
<!-- Node1 -->
<g id="node1" class="node"><title>Node1</title>
<polygon fill="#bfbfbf" stroke="black" points="0.5,-133.5 0.5,-152.5 107.5,-152.5 107.5,-133.5 0.5,-133.5"/>
<text text-anchor="middle" x="54" y="-140.5" font-family="Helvetica,sans-Serif" font-size="10.00">adc_analyzebaseline</text>
</g>
<!-- Node2 -->
<g id="node2" class="node"><title>Node2</title>
<g id="a_node2"><a xlink:href="adc_8cpp.xhtml#a8e0f9bdd9b130dd38116dfaba6e94795" target="_top" xlink:title="adc_disable">
<polygon fill="white" stroke="black" points="164,-228.5 164,-247.5 232,-247.5 232,-228.5 164,-228.5"/>
<text text-anchor="middle" x="198" y="-235.5" font-family="Helvetica,sans-Serif" font-size="10.00">adc_disable</text>
</a>
</g>
</g>
<!-- Node1&#45;&gt;Node2 -->
<g id="edge1" class="edge"><title>Node1&#45;&gt;Node2</title>
<path fill="none" stroke="midnightblue" d="M63.9908,-152.687C79.1384,-168.512 111.307,-200.042 144,-219 147.468,-221.011 151.186,-222.866 154.983,-224.562"/>
<polygon fill="midnightblue" stroke="midnightblue" points="153.912,-227.905 164.493,-228.452 156.562,-221.426 153.912,-227.905"/>
</g>
<!-- Node4 -->
<g id="node4" class="node"><title>Node4</title>
<g id="a_node4"><a xlink:href="_core_2_include_2control_8h.xhtml#a48a6baefa46edb93b59bb0f76385052a" target="_top" xlink:title="errormsg">
<polygon fill="white" stroke="black" points="396.5,-209.5 396.5,-228.5 451.5,-228.5 451.5,-209.5 396.5,-209.5"/>
<text text-anchor="middle" x="424" y="-216.5" font-family="Helvetica,sans-Serif" font-size="10.00">errormsg</text>
</a>
</g>
</g>
<!-- Node1&#45;&gt;Node4 -->
<g id="edge16" class="edge"><title>Node1&#45;&gt;Node4</title>
<path fill="none" stroke="midnightblue" d="M58.9743,-152.761C69.0693,-176.062 98.1916,-234.647 144,-257 230.277,-299.099 267.513,-282.733 360,-257 375.69,-252.635 391.378,-243.192 403.175,-234.812"/>
<polygon fill="midnightblue" stroke="midnightblue" points="405.439,-237.49 411.373,-228.712 401.26,-231.873 405.439,-237.49"/>
</g>
<!-- Node5 -->
<g id="node5" class="node"><title>Node5</title>
<g id="a_node5"><a xlink:href="adc_8cpp.xhtml#ab2c5b38244f3ea85067f83b5d94409f7" target="_top" xlink:title="adc_writereg">
<polygon fill="white" stroke="black" points="288,-190.5 288,-209.5 360,-209.5 360,-190.5 288,-190.5"/>
<text text-anchor="middle" x="324" y="-197.5" font-family="Helvetica,sans-Serif" font-size="10.00">adc_writereg</text>
</a>
</g>
</g>
<!-- Node1&#45;&gt;Node5 -->
<g id="edge12" class="edge"><title>Node1&#45;&gt;Node5</title>
<path fill="none" stroke="midnightblue" d="M107.891,-152.151C147.677,-159.289 203.457,-169.838 252,-181 260.855,-183.036 270.276,-185.409 279.264,-187.775"/>
<polygon fill="midnightblue" stroke="midnightblue" points="278.61,-191.223 289.175,-190.424 280.418,-184.46 278.61,-191.223"/>
</g>
<!-- Node6 -->
<g id="node6" class="node"><title>Node6</title>
<g id="a_node6"><a xlink:href="adc_8cpp.xhtml#a94f95e39919b3b5969d4231bf5103079" target="_top" xlink:title="adc_enable">
<polygon fill="white" stroke="black" points="165,-190.5 165,-209.5 231,-209.5 231,-190.5 165,-190.5"/>
<text text-anchor="middle" x="198" y="-197.5" font-family="Helvetica,sans-Serif" font-size="10.00">adc_enable</text>
</a>
</g>
</g>
<!-- Node1&#45;&gt;Node6 -->
<g id="edge6" class="edge"><title>Node1&#45;&gt;Node6</title>
<path fill="none" stroke="midnightblue" d="M78.7676,-152.541C102.011,-161.87 137.613,-176.162 163.678,-186.624"/>
<polygon fill="midnightblue" stroke="midnightblue" points="162.571,-189.951 173.155,-190.428 165.178,-183.455 162.571,-189.951"/>
</g>
<!-- Node7 -->
<g id="node7" class="node"><title>Node7</title>
<g id="a_node7"><a xlink:href="adc_8cpp.xhtml#aa357272f6eac8b5f8104ea1237f2e65c" target="_top" xlink:title="adc_mblt">
<polygon fill="white" stroke="black" points="170,-114.5 170,-133.5 226,-133.5 226,-114.5 170,-114.5"/>
<text text-anchor="middle" x="198" y="-121.5" font-family="Helvetica,sans-Serif" font-size="10.00">adc_mblt</text>
</a>
</g>
</g>
<!-- Node1&#45;&gt;Node7 -->
<g id="edge9" class="edge"><title>Node1&#45;&gt;Node7</title>
<path fill="none" stroke="midnightblue" d="M107.876,-135.925C125.211,-133.606 144.091,-131.079 159.993,-128.952"/>
<polygon fill="midnightblue" stroke="midnightblue" points="160.52,-132.412 169.967,-127.617 159.591,-125.474 160.52,-132.412"/>
</g>
<!-- Node8 -->
<g id="node8" class="node"><title>Node8</title>
<g id="a_node8"><a xlink:href="_core_2_include_2control_8h.xhtml#a3a545ba21c1d05570512e20917c021cf" target="_top" xlink:title="col">
<polygon fill="white" stroke="black" points="309.5,-86.5 309.5,-105.5 338.5,-105.5 338.5,-86.5 309.5,-86.5"/>
<text text-anchor="middle" x="324" y="-93.5" font-family="Helvetica,sans-Serif" font-size="10.00">col</text>
</a>
</g>
</g>
<!-- Node1&#45;&gt;Node8 -->
<g id="edge13" class="edge"><title>Node1&#45;&gt;Node8</title>
<path fill="none" stroke="midnightblue" d="M72.4392,-133.356C89.9427,-124.212 117.971,-111.009 144,-105 198.441,-92.4316 264.578,-93.0669 299.218,-94.5666"/>
<polygon fill="midnightblue" stroke="midnightblue" points="299.141,-98.0671 309.303,-95.0683 299.489,-91.0757 299.141,-98.0671"/>
</g>
<!-- Node9 -->
<g id="node9" class="node"><title>Node9</title>
<g id="a_node9"><a xlink:href="_core_2_include_2control_8h.xhtml#a870a5f7c8f98fa5b52edfc9210ac20ac" target="_top" xlink:title="control_getadc">
<polygon fill="white" stroke="black" points="158,-38.5 158,-57.5 238,-57.5 238,-38.5 158,-38.5"/>
<text text-anchor="middle" x="198" y="-45.5" font-family="Helvetica,sans-Serif" font-size="10.00">control_getadc</text>
</a>
</g>
</g>
<!-- Node1&#45;&gt;Node9 -->
<g id="edge14" class="edge"><title>Node1&#45;&gt;Node9</title>
<path fill="none" stroke="midnightblue" d="M65.3194,-133.34C81.2786,-118.744 113.318,-90.7811 144,-72 150.02,-68.3152 156.702,-64.8539 163.236,-61.7686"/>
<polygon fill="midnightblue" stroke="midnightblue" points="164.937,-64.841 172.61,-57.5351 162.056,-58.4614 164.937,-64.841"/>
</g>
<!-- Node10 -->
<g id="node10" class="node"><title>Node10</title>
<g id="a_node10"><a xlink:href="_core_2_include_2control_8h.xhtml#a03b1d46384ed092ca3bc35eeb9c47e02" target="_top" xlink:title="control_gettimestring">
<polygon fill="white" stroke="black" points="144.5,-0.5 144.5,-19.5 251.5,-19.5 251.5,-0.5 144.5,-0.5"/>
<text text-anchor="middle" x="198" y="-7.5" font-family="Helvetica,sans-Serif" font-size="10.00">control_gettimestring</text>
</a>
</g>
</g>
<!-- Node1&#45;&gt;Node10 -->
<g id="edge15" class="edge"><title>Node1&#45;&gt;Node10</title>
<path fill="none" stroke="midnightblue" d="M60.0715,-133.246C71.8755,-111.454 103.307,-58.4261 144,-29 146.653,-27.0812 149.52,-25.3392 152.499,-23.7607"/>
<polygon fill="midnightblue" stroke="midnightblue" points="154.073,-26.8885 161.669,-19.5018 151.125,-20.5398 154.073,-26.8885"/>
</g>
<!-- Node3 -->
<g id="node3" class="node"><title>Node3</title>
<g id="a_node3"><a xlink:href="adc_8cpp.xhtml#a3e167d474fe419a8fe9a69bd27388ccc" target="_top" xlink:title="adc_readreg">
<polygon fill="white" stroke="black" points="289,-228.5 289,-247.5 359,-247.5 359,-228.5 289,-228.5"/>
<text text-anchor="middle" x="324" y="-235.5" font-family="Helvetica,sans-Serif" font-size="10.00">adc_readreg</text>
</a>
</g>
</g>
<!-- Node2&#45;&gt;Node3 -->
<g id="edge2" class="edge"><title>Node2&#45;&gt;Node3</title>
<path fill="none" stroke="midnightblue" d="M232.23,-238C246.452,-238 263.269,-238 278.54,-238"/>
<polygon fill="midnightblue" stroke="midnightblue" points="278.814,-241.5 288.814,-238 278.814,-234.5 278.814,-241.5"/>
</g>
<!-- Node2&#45;&gt;Node5 -->
<g id="edge4" class="edge"><title>Node2&#45;&gt;Node5</title>
<path fill="none" stroke="midnightblue" d="M230.29,-228.411C246.004,-223.596 265.238,-217.701 282.106,-212.532"/>
<polygon fill="midnightblue" stroke="midnightblue" points="283.184,-215.862 291.72,-209.586 281.133,-209.17 283.184,-215.862"/>
</g>
<!-- Node3&#45;&gt;Node4 -->
<g id="edge3" class="edge"><title>Node3&#45;&gt;Node4</title>
<path fill="none" stroke="midnightblue" d="M359.001,-231.408C367.918,-229.679 377.568,-227.808 386.605,-226.056"/>
<polygon fill="midnightblue" stroke="midnightblue" points="387.324,-229.482 396.475,-224.143 385.991,-222.61 387.324,-229.482"/>
</g>
<!-- Node5&#45;&gt;Node4 -->
<g id="edge5" class="edge"><title>Node5&#45;&gt;Node4</title>
<path fill="none" stroke="midnightblue" d="M360.103,-206.806C368.709,-208.474 377.938,-210.263 386.603,-211.943"/>
<polygon fill="midnightblue" stroke="midnightblue" points="385.961,-215.384 396.444,-213.851 387.293,-208.512 385.961,-215.384"/>
</g>
<!-- Node6&#45;&gt;Node3 -->
<g id="edge7" class="edge"><title>Node6&#45;&gt;Node3</title>
<path fill="none" stroke="midnightblue" d="M230.29,-209.589C246.004,-214.404 265.238,-220.299 282.106,-225.468"/>
<polygon fill="midnightblue" stroke="midnightblue" points="281.133,-228.83 291.72,-228.414 283.184,-222.138 281.133,-228.83"/>
</g>
<!-- Node6&#45;&gt;Node5 -->
<g id="edge8" class="edge"><title>Node6&#45;&gt;Node5</title>
<path fill="none" stroke="midnightblue" d="M231.256,-200C245.365,-200 262.169,-200 277.515,-200"/>
<polygon fill="midnightblue" stroke="midnightblue" points="277.857,-203.5 287.856,-200 277.856,-196.5 277.857,-203.5"/>
</g>
<!-- Node7&#45;&gt;Node4 -->
<g id="edge10" class="edge"><title>Node7&#45;&gt;Node4</title>
<path fill="none" stroke="midnightblue" d="M226.159,-131.77C258.712,-141.499 314.56,-159.524 360,-181 373.851,-187.546 388.551,-196.299 400.266,-203.755"/>
<polygon fill="midnightblue" stroke="midnightblue" points="398.653,-206.881 408.947,-209.389 402.464,-201.009 398.653,-206.881"/>
</g>
<!-- Node7&#45;&gt;Node8 -->
<g id="edge11" class="edge"><title>Node7&#45;&gt;Node8</title>
<path fill="none" stroke="midnightblue" d="M226.212,-117.855C248.068,-112.92 278.45,-106.06 299.313,-101.349"/>
<polygon fill="midnightblue" stroke="midnightblue" points="300.276,-104.719 309.26,-99.1026 298.734,-97.8913 300.276,-104.719"/>
</g>
</g>
</svg>
