<?xml version="1.0" encoding="UTF-8" standalone="no"?>
<!DOCTYPE svg PUBLIC "-//W3C//DTD SVG 1.1//EN"
 "http://www.w3.org/Graphics/SVG/1.1/DTD/svg11.dtd">
<!-- Generated by graphviz version 2.36.0 (20140111.2315)
 -->
<!-- Title: /data/Software/DAQ/XDAQ/GUI/Include/adc.h Pages: 1 -->
<svg width="504pt" height="108pt"
 viewBox="0.00 0.00 504.00 108.00" xmlns="http://www.w3.org/2000/svg" xmlns:xlink="http://www.w3.org/1999/xlink">
<g id="graph0" class="graph" transform="scale(1 1) rotate(0) translate(4 104)">
<title>/data/Software/DAQ/XDAQ/GUI/Include/adc.h</title>
<polygon fill="white" stroke="none" points="-4,4 -4,-104 500,-104 500,4 -4,4"/>
<!-- Node1 -->
<g id="node1" class="node"><title>Node1</title>
<polygon fill="#bfbfbf" stroke="black" points="191.5,-69 191.5,-99 322.5,-99 322.5,-69 191.5,-69"/>
<text text-anchor="start" x="199.5" y="-87" font-family="Helvetica,sans-Serif" font-size="10.00">/data/Software/DAQ</text>
<text text-anchor="middle" x="257" y="-76" font-family="Helvetica,sans-Serif" font-size="10.00">/XDAQ/GUI/Include/adc.h</text>
</g>
<!-- Node2 -->
<g id="node2" class="node"><title>Node2</title>
<g id="a_node2"><a xlink:href="mini_d_a_x_8cpp.xhtml" target="_top" xlink:title="/data/Software/DAQ\l/XDAQ/Application/miniDAX.cpp">
<polygon fill="white" stroke="black" points="0,-1 0,-31 160,-31 160,-1 0,-1"/>
<text text-anchor="start" x="8" y="-19" font-family="Helvetica,sans-Serif" font-size="10.00">/data/Software/DAQ</text>
<text text-anchor="middle" x="80" y="-8" font-family="Helvetica,sans-Serif" font-size="10.00">/XDAQ/Application/miniDAX.cpp</text>
</a>
</g>
</g>
<!-- Node1&#45;&gt;Node2 -->
<g id="edge1" class="edge"><title>Node1&#45;&gt;Node2</title>
<path fill="none" stroke="midnightblue" d="M209.564,-65.3119C180.736,-54.5627 144.441,-41.0287 117.604,-31.0218"/>
<polygon fill="midnightblue" stroke="midnightblue" points="208.436,-68.6269 219.029,-68.8413 210.882,-62.068 208.436,-68.6269"/>
</g>
<!-- Node3 -->
<g id="node3" class="node"><title>Node3</title>
<g id="a_node3"><a xlink:href="control_8cpp.xhtml" target="_top" xlink:title="/data/Software/DAQ\l/XDAQ/Core/Source/control.cpp">
<polygon fill="white" stroke="black" points="178.5,-1 178.5,-31 335.5,-31 335.5,-1 178.5,-1"/>
<text text-anchor="start" x="186.5" y="-19" font-family="Helvetica,sans-Serif" font-size="10.00">/data/Software/DAQ</text>
<text text-anchor="middle" x="257" y="-8" font-family="Helvetica,sans-Serif" font-size="10.00">/XDAQ/Core/Source/control.cpp</text>
</a>
</g>
</g>
<!-- Node1&#45;&gt;Node3 -->
<g id="edge2" class="edge"><title>Node1&#45;&gt;Node3</title>
<path fill="none" stroke="midnightblue" d="M257,-58.5322C257,-49.3606 257,-39.2449 257,-31.2931"/>
<polygon fill="midnightblue" stroke="midnightblue" points="253.5,-58.6789 257,-68.679 260.5,-58.679 253.5,-58.6789"/>
</g>
<!-- Node4 -->
<g id="node4" class="node"><title>Node4</title>
<g id="a_node4"><a xlink:href="_x_d_a_q_2_core_2_source_2xml_8cpp.xhtml" target="_top" xlink:title="/data/Software/DAQ\l/XDAQ/Core/Source/xml.cpp">
<polygon fill="white" stroke="black" points="353.5,-1 353.5,-31 496.5,-31 496.5,-1 353.5,-1"/>
<text text-anchor="start" x="361.5" y="-19" font-family="Helvetica,sans-Serif" font-size="10.00">/data/Software/DAQ</text>
<text text-anchor="middle" x="425" y="-8" font-family="Helvetica,sans-Serif" font-size="10.00">/XDAQ/Core/Source/xml.cpp</text>
</a>
</g>
</g>
<!-- Node1&#45;&gt;Node4 -->
<g id="edge3" class="edge"><title>Node1&#45;&gt;Node4</title>
<path fill="none" stroke="midnightblue" d="M302.382,-65.1715C329.685,-54.4451 363.947,-40.9852 389.308,-31.0218"/>
<polygon fill="midnightblue" stroke="midnightblue" points="301.068,-61.9271 293.04,-68.8413 303.628,-68.4424 301.068,-61.9271"/>
</g>
</g>
</svg>
