<?xml version="1.0" encoding="UTF-8" standalone="no"?>
<!DOCTYPE svg PUBLIC "-//W3C//DTD SVG 1.1//EN"
 "http://www.w3.org/Graphics/SVG/1.1/DTD/svg11.dtd">
<!-- Generated by graphviz version 2.36.0 (20140111.2315)
 -->
<!-- Title: control_gettimestring Pages: 1 -->
<!--zoomable 294 -->
<svg id="main" version="1.1" xmlns="http://www.w3.org/2000/svg" xmlns:xlink="http://www.w3.org/1999/xlink" xml:space="preserve" onload="init(evt)">
<style type="text/css"><![CDATA[
.edge:hover path { stroke: red; }
.edge:hover polygon { stroke: red; fill: red; }
]]></style>
<script type="text/javascript"><![CDATA[
var edges = document.getElementsByTagName('g');
if (edges && edges.length) {
  for (var i=0;i<edges.length;i++) {
    if (edges[i].id.substr(0,4)=='edge') {
      edges[i].setAttribute('class','edge');
    }
  }
}
]]></script>
        <defs>
                <circle id="rim" cx="0" cy="0" r="7"/>
                <circle id="rim2" cx="0" cy="0" r="3.5"/>
                <g id="zoomPlus">
                        <use xlink:href="#rim" fill="#404040">
                                <set attributeName="fill" to="#808080" begin="zoomplus.mouseover" end="zoomplus.mouseout"/>
                        </use>
                        <path d="M-4,0h8M0,-4v8" fill="none" stroke="white" stroke-width="1.5" pointer-events="none"/>
                </g>
                <g id="zoomMin">
                        <use xlink:href="#rim" fill="#404040">
                                <set attributeName="fill" to="#808080" begin="zoomminus.mouseover" end="zoomminus.mouseout"/>
                        </use>
                        <path d="M-4,0h8" fill="none" stroke="white" stroke-width="1.5" pointer-events="none"/>
                </g>
                <g id="dirArrow">
                        <path fill="none" stroke="white" stroke-width="1.5" d="M0,-3.0v7 M-2.5,-0.5L0,-3.0L2.5,-0.5"/>
                </g>
               <g id="resetDef">
                       <use xlink:href="#rim2" fill="#404040">
                               <set attributeName="fill" to="#808080" begin="reset.mouseover" end="reset.mouseout"/>
                       </use>
               </g>
        </defs>

<script type="text/javascript">
var viewWidth = 810;
var viewHeight = 294;
var sectionId = 'dynsection-7';
</script>
<script xlink:href="svgpan.js"/>
<svg id="graph" class="graph">
<g id="viewport">
<title>control_gettimestring</title>
<polygon fill="white" stroke="none" points="-4,4 -4,-290 806,-290 806,4 -4,4"/>
<!-- Node1 -->
<g id="node1" class="node"><title>Node1</title>
<polygon fill="#bfbfbf" stroke="black" points="0.5,-171.5 0.5,-190.5 107.5,-190.5 107.5,-171.5 0.5,-171.5"/>
<text text-anchor="middle" x="54" y="-178.5" font-family="Helvetica,sans-Serif" font-size="10.00">control_gettimestring</text>
</g>
<!-- Node2 -->
<g id="node2" class="node"><title>Node2</title>
<g id="a_node2"><a xlink:href="_g_u_i_2_include_2control_8h.xhtml#ac97643773a87a0ab2f3310730174824f" target="_top" xlink:title="control_cmdline">
<polygon fill="white" stroke="black" points="500.5,-266.5 500.5,-285.5 585.5,-285.5 585.5,-266.5 500.5,-266.5"/>
<text text-anchor="middle" x="543" y="-273.5" font-family="Helvetica,sans-Serif" font-size="10.00">control_cmdline</text>
</a>
</g>
</g>
<!-- Node1&#45;&gt;Node2 -->
<g id="edge1" class="edge"><title>Node1&#45;&gt;Node2</title>
<path fill="none" stroke="midnightblue" d="M81.8232,-195.058C99.1268,-203.541 122.364,-213.863 144,-220 270.707,-255.941 426.931,-269.326 500.265,-273.878"/>
<polygon fill="midnightblue" stroke="midnightblue" points="83.3771,-191.922 72.8685,-190.572 80.2419,-198.18 83.3771,-191.922"/>
</g>
<!-- Node3 -->
<g id="node3" class="node"><title>Node3</title>
<g id="a_node3"><a xlink:href="_g_u_i_2_include_2control_8h.xhtml#a11fd8ef2164efa9242cf82c35c240992" target="_top" xlink:title="control_cnts2log">
<polygon fill="white" stroke="black" points="264,-0.5 264,-19.5 352,-19.5 352,-0.5 264,-0.5"/>
<text text-anchor="middle" x="308" y="-7.5" font-family="Helvetica,sans-Serif" font-size="10.00">control_cnts2log</text>
</a>
</g>
</g>
<!-- Node1&#45;&gt;Node3 -->
<g id="edge2" class="edge"><title>Node1&#45;&gt;Node3</title>
<path fill="none" stroke="midnightblue" d="M64.984,-162.345C79.3066,-137.262 107.974,-92.8371 144,-67 180.055,-41.1419 228.901,-26.1312 263.697,-18.0681"/>
<polygon fill="midnightblue" stroke="midnightblue" points="61.8493,-160.781 60.055,-171.223 67.9692,-164.179 61.8493,-160.781"/>
</g>
<!-- Node4 -->
<g id="node4" class="node"><title>Node4</title>
<g id="a_node4"><a xlink:href="control_8cpp.xhtml#aa8ca64af815f670c76cdb23c3d1af7b4" target="_top" xlink:title="control_generatefilename">
<polygon fill="white" stroke="black" points="480.5,-228.5 480.5,-247.5 605.5,-247.5 605.5,-228.5 480.5,-228.5"/>
<text text-anchor="middle" x="543" y="-235.5" font-family="Helvetica,sans-Serif" font-size="10.00">control_generatefilename</text>
</a>
</g>
</g>
<!-- Node1&#45;&gt;Node4 -->
<g id="edge3" class="edge"><title>Node1&#45;&gt;Node4</title>
<path fill="none" stroke="midnightblue" d="M102.422,-192.841C115.801,-195.858 130.413,-198.851 144,-201 262.237,-219.702 401.841,-230 480.331,-234.728"/>
<polygon fill="midnightblue" stroke="midnightblue" points="103.001,-189.382 92.4698,-190.543 101.426,-196.203 103.001,-189.382"/>
</g>
<!-- Node6 -->
<g id="node6" class="node"><title>Node6</title>
<g id="a_node6"><a xlink:href="_g_u_i_2_include_2control_8h.xhtml#a3ea9dadf648f70197ec522fb6fedc393" target="_top" xlink:title="control_openlog">
<polygon fill="white" stroke="black" points="500.5,-152.5 500.5,-171.5 585.5,-171.5 585.5,-152.5 500.5,-152.5"/>
<text text-anchor="middle" x="543" y="-159.5" font-family="Helvetica,sans-Serif" font-size="10.00">control_openlog</text>
</a>
</g>
</g>
<!-- Node1&#45;&gt;Node6 -->
<g id="edge5" class="edge"><title>Node1&#45;&gt;Node6</title>
<path fill="none" stroke="midnightblue" d="M117.635,-178.556C218.567,-174.619 414.528,-166.973 500.206,-163.631"/>
<polygon fill="midnightblue" stroke="midnightblue" points="117.436,-175.061 107.58,-178.949 117.709,-182.056 117.436,-175.061"/>
</g>
<!-- Node7 -->
<g id="node7" class="node"><title>Node7</title>
<g id="a_node7"><a xlink:href="_g_u_i_2_include_2control_8h.xhtml#a6d31350db95da2e061ef2ef9ad11402e" target="_top" xlink:title="control_printlog">
<polygon fill="white" stroke="black" points="144.5,-76.5 144.5,-95.5 227.5,-95.5 227.5,-76.5 144.5,-76.5"/>
<text text-anchor="middle" x="186" y="-83.5" font-family="Helvetica,sans-Serif" font-size="10.00">control_printlog</text>
</a>
</g>
</g>
<!-- Node1&#45;&gt;Node7 -->
<g id="edge6" class="edge"><title>Node1&#45;&gt;Node7</title>
<path fill="none" stroke="midnightblue" d="M76.521,-165.273C103.647,-145.45 149.433,-111.992 171.844,-95.614"/>
<polygon fill="midnightblue" stroke="midnightblue" points="74.4315,-162.465 68.4226,-171.191 78.5616,-168.117 74.4315,-162.465"/>
</g>
<!-- Node13 -->
<g id="node13" class="node"><title>Node13</title>
<g id="a_node13"><a xlink:href="_g_u_i_2_include_2control_8h.xhtml#ab5bd42385627821b5bbe8f172adc9d10" target="_top" xlink:title="control_scfile">
<polygon fill="white" stroke="black" points="506,-190.5 506,-209.5 580,-209.5 580,-190.5 506,-190.5"/>
<text text-anchor="middle" x="543" y="-197.5" font-family="Helvetica,sans-Serif" font-size="10.00">control_scfile</text>
</a>
</g>
</g>
<!-- Node1&#45;&gt;Node13 -->
<g id="edge22" class="edge"><title>Node1&#45;&gt;Node13</title>
<path fill="none" stroke="midnightblue" d="M117.896,-184.698C126.662,-185.166 135.555,-185.614 144,-186 277.301,-192.088 435.822,-196.954 505.771,-198.98"/>
<polygon fill="midnightblue" stroke="midnightblue" points="117.875,-181.192 107.699,-184.144 117.495,-188.182 117.875,-181.192"/>
</g>
<!-- Node5 -->
<g id="node5" class="node"><title>Node5</title>
<g id="a_node5"><a xlink:href="mini_d_a_x_8cpp.xhtml#adedb285b02c41bde2158ded9cc9fd7ac" target="_top" xlink:title="main">
<polygon fill="white" stroke="black" points="764,-209.5 764,-228.5 802,-228.5 802,-209.5 764,-209.5"/>
<text text-anchor="middle" x="783" y="-216.5" font-family="Helvetica,sans-Serif" font-size="10.00">main</text>
</a>
</g>
</g>
<!-- Node4&#45;&gt;Node5 -->
<g id="edge4" class="edge"><title>Node4&#45;&gt;Node5</title>
<path fill="none" stroke="midnightblue" d="M615.682,-232.278C667.099,-228.173 732.595,-222.944 763.834,-220.45"/>
<polygon fill="midnightblue" stroke="midnightblue" points="615.29,-228.798 605.6,-233.082 615.847,-235.775 615.29,-228.798"/>
</g>
<!-- Node7&#45;&gt;Node3 -->
<g id="edge19" class="edge"><title>Node7&#45;&gt;Node3</title>
<path fill="none" stroke="midnightblue" d="M208.66,-70.6516C223.914,-60.0212 244.935,-45.7289 264,-34 272.01,-29.0723 281.075,-23.9482 288.811,-19.7063"/>
<polygon fill="midnightblue" stroke="midnightblue" points="206.582,-67.834 200.403,-76.4405 210.6,-73.5657 206.582,-67.834"/>
</g>
<!-- Node8 -->
<g id="node8" class="node"><title>Node8</title>
<g id="a_node8"><a xlink:href="_g_u_i_2_include_2control_8h.xhtml#a42c6ce88a95e362f9f257d90bbf8de32" target="_top" xlink:title="control_log">
<polygon fill="white" stroke="black" points="276,-114.5 276,-133.5 340,-133.5 340,-114.5 276,-114.5"/>
<text text-anchor="middle" x="308" y="-121.5" font-family="Helvetica,sans-Serif" font-size="10.00">control_log</text>
</a>
</g>
</g>
<!-- Node7&#45;&gt;Node8 -->
<g id="edge7" class="edge"><title>Node7&#45;&gt;Node8</title>
<path fill="none" stroke="midnightblue" d="M227.043,-98.6804C243.257,-103.815 261.666,-109.644 276.729,-114.414"/>
<polygon fill="midnightblue" stroke="midnightblue" points="227.871,-95.2713 217.281,-95.589 225.758,-101.945 227.871,-95.2713"/>
</g>
<!-- Node11 -->
<g id="node11" class="node"><title>Node11</title>
<g id="a_node11"><a xlink:href="_g_u_i_2_include_2control_8h.xhtml#ab54cec1fc7617fbb69ba6258f0a9f827" target="_top" xlink:title="control_openfile">
<polygon fill="white" stroke="black" points="500.5,-38.5 500.5,-57.5 585.5,-57.5 585.5,-38.5 500.5,-38.5"/>
<text text-anchor="middle" x="543" y="-45.5" font-family="Helvetica,sans-Serif" font-size="10.00">control_openfile</text>
</a>
</g>
</g>
<!-- Node7&#45;&gt;Node11 -->
<g id="edge20" class="edge"><title>Node7&#45;&gt;Node11</title>
<path fill="none" stroke="midnightblue" d="M237.843,-81.9881C289.745,-77.7199 372.596,-70.4292 444,-62 462.434,-59.8239 482.756,-56.9922 500.092,-54.4453"/>
<polygon fill="midnightblue" stroke="midnightblue" points="237.252,-78.5246 227.57,-82.8266 237.822,-85.5014 237.252,-78.5246"/>
</g>
<!-- Node12 -->
<g id="node12" class="node"><title>Node12</title>
<g id="a_node12"><a xlink:href="control_8cpp.xhtml#a9ed3ffa0b795893db43aac7d83f9cd87" target="_top" xlink:title="control_openrawrootfile">
<polygon fill="white" stroke="black" points="484.5,-0.5 484.5,-19.5 601.5,-19.5 601.5,-0.5 484.5,-0.5"/>
<text text-anchor="middle" x="543" y="-7.5" font-family="Helvetica,sans-Serif" font-size="10.00">control_openrawrootfile</text>
</a>
</g>
</g>
<!-- Node7&#45;&gt;Node12 -->
<g id="edge21" class="edge"><title>Node7&#45;&gt;Node12</title>
<path fill="none" stroke="midnightblue" d="M237.544,-74.7791C246.36,-72.8395 255.445,-70.8521 264,-69 345.736,-51.3041 441.108,-31.1765 496.226,-19.595"/>
<polygon fill="midnightblue" stroke="midnightblue" points="236.759,-71.3681 227.747,-76.9388 238.266,-78.2039 236.759,-71.3681"/>
</g>
<!-- Node9 -->
<g id="node9" class="node"><title>Node9</title>
<g id="a_node9"><a xlink:href="_g_u_i_2_include_2control_8h.xhtml#a48a6baefa46edb93b59bb0f76385052a" target="_top" xlink:title="errormsg">
<polygon fill="white" stroke="black" points="388.5,-114.5 388.5,-133.5 443.5,-133.5 443.5,-114.5 388.5,-114.5"/>
<text text-anchor="middle" x="416" y="-121.5" font-family="Helvetica,sans-Serif" font-size="10.00">errormsg</text>
</a>
</g>
</g>
<!-- Node8&#45;&gt;Node9 -->
<g id="edge8" class="edge"><title>Node8&#45;&gt;Node9</title>
<path fill="none" stroke="midnightblue" d="M350.6,-124C363.282,-124 376.878,-124 388.295,-124"/>
<polygon fill="midnightblue" stroke="midnightblue" points="350.23,-120.5 340.23,-124 350.23,-127.5 350.23,-120.5"/>
</g>
<!-- Node9&#45;&gt;Node2 -->
<g id="edge10" class="edge"><title>Node9&#45;&gt;Node2</title>
<path fill="none" stroke="midnightblue" d="M421.048,-143.781C428.013,-172.806 445.021,-226.758 480,-257 485.876,-262.08 493.089,-265.803 500.491,-268.529"/>
<polygon fill="midnightblue" stroke="midnightblue" points="424.382,-142.651 418.787,-133.654 417.551,-144.176 424.382,-142.651"/>
</g>
<!-- Node9&#45;&gt;Node4 -->
<g id="edge18" class="edge"><title>Node9&#45;&gt;Node4</title>
<path fill="none" stroke="midnightblue" d="M424.845,-143.071C434.646,-164.587 453.425,-199.16 480,-219 485.232,-222.906 491.276,-226.018 497.495,-228.494"/>
<polygon fill="midnightblue" stroke="midnightblue" points="427.958,-141.453 420.759,-133.679 421.539,-144.245 427.958,-141.453"/>
</g>
<!-- Node9&#45;&gt;Node6 -->
<g id="edge9" class="edge"><title>Node9&#45;&gt;Node6</title>
<path fill="none" stroke="midnightblue" d="M453.19,-135.002C471.379,-140.531 493.206,-147.167 510.669,-152.475"/>
<polygon fill="midnightblue" stroke="midnightblue" points="454.095,-131.619 443.509,-132.059 452.059,-138.316 454.095,-131.619"/>
</g>
<!-- Node10 -->
<g id="node10" class="node"><title>Node10</title>
<g id="a_node10"><a xlink:href="_g_u_i_2_include_2control_8h.xhtml#aeab8b16e95a01d21a60fdf5490f781d2" target="_top" xlink:title="control_configfile">
<polygon fill="white" stroke="black" points="498,-76.5 498,-95.5 588,-95.5 588,-76.5 498,-76.5"/>
<text text-anchor="middle" x="543" y="-83.5" font-family="Helvetica,sans-Serif" font-size="10.00">control_configfile</text>
</a>
</g>
</g>
<!-- Node9&#45;&gt;Node10 -->
<g id="edge11" class="edge"><title>Node9&#45;&gt;Node10</title>
<path fill="none" stroke="midnightblue" d="M453.19,-112.998C471.379,-107.469 493.206,-100.833 510.669,-95.5246"/>
<polygon fill="midnightblue" stroke="midnightblue" points="452.059,-109.684 443.509,-115.941 454.095,-116.381 452.059,-109.684"/>
</g>
<!-- Node9&#45;&gt;Node11 -->
<g id="edge12" class="edge"><title>Node9&#45;&gt;Node11</title>
<path fill="none" stroke="midnightblue" d="M435.511,-107.613C438.36,-105.071 441.263,-102.47 444,-100 460.112,-85.4562 461.16,-77.7784 480,-67 486.645,-63.1985 494.134,-60.0759 501.55,-57.5399"/>
<polygon fill="midnightblue" stroke="midnightblue" points="432.956,-105.201 427.807,-114.461 437.607,-110.433 432.956,-105.201"/>
</g>
<!-- Node9&#45;&gt;Node12 -->
<g id="edge13" class="edge"><title>Node9&#45;&gt;Node12</title>
<path fill="none" stroke="midnightblue" d="M424.845,-104.929C434.646,-83.4131 453.425,-48.8398 480,-29 485.232,-25.0938 491.276,-21.9822 497.495,-19.5059"/>
<polygon fill="midnightblue" stroke="midnightblue" points="421.539,-103.755 420.759,-114.321 427.958,-106.547 421.539,-103.755"/>
</g>
<!-- Node9&#45;&gt;Node13 -->
<g id="edge14" class="edge"><title>Node9&#45;&gt;Node13</title>
<path fill="none" stroke="midnightblue" d="M432.333,-141.496C444.215,-154.082 461.692,-170.605 480,-181 487.93,-185.503 497.049,-189.058 505.81,-191.815"/>
<polygon fill="midnightblue" stroke="midnightblue" points="434.714,-138.913 425.381,-133.898 429.549,-143.638 434.714,-138.913"/>
</g>
<!-- Node14 -->
<g id="node14" class="node"><title>Node14</title>
<g id="a_node14"><a xlink:href="control_8cpp.xhtml#a05821af400d34bbf265b0eb929f4cee8" target="_top" xlink:title="control_calcrate">
<polygon fill="white" stroke="black" points="642,-190.5 642,-209.5 728,-209.5 728,-190.5 642,-190.5"/>
<text text-anchor="middle" x="685" y="-197.5" font-family="Helvetica,sans-Serif" font-size="10.00">control_calcrate</text>
</a>
</g>
</g>
<!-- Node9&#45;&gt;Node14 -->
<g id="edge17" class="edge"><title>Node9&#45;&gt;Node14</title>
<path fill="none" stroke="midnightblue" d="M454.045,-122.087C493.133,-121.342 555.891,-123.816 606,-143 633.881,-153.674 660.7,-177.062 674.454,-190.323"/>
<polygon fill="midnightblue" stroke="midnightblue" points="453.578,-118.599 443.678,-122.371 453.77,-125.596 453.578,-118.599"/>
</g>
<!-- Node13&#45;&gt;Node14 -->
<g id="edge15" class="edge"><title>Node13&#45;&gt;Node14</title>
<path fill="none" stroke="midnightblue" d="M590.132,-200C606.809,-200 625.54,-200 641.857,-200"/>
<polygon fill="midnightblue" stroke="midnightblue" points="590.054,-196.5 580.053,-200 590.053,-203.5 590.054,-196.5"/>
</g>
<!-- Node14&#45;&gt;Node5 -->
<g id="edge16" class="edge"><title>Node14&#45;&gt;Node5</title>
<path fill="none" stroke="midnightblue" d="M738.113,-210.314C747.32,-212.136 756.324,-213.918 763.756,-215.389"/>
<polygon fill="midnightblue" stroke="midnightblue" points="738.596,-206.842 728.107,-208.334 737.237,-213.709 738.596,-206.842"/>
</g>
</g>
</svg>
        <g id="navigator" transform="translate(0 0)" fill="#404254">
                <rect fill="#f2f5e9" fill-opacity="0.5" stroke="#606060" stroke-width=".5" x="0" y="0" width="60" height="60"/>
                <use id="zoomplus" xlink:href="#zoomPlus" x="17" y="9" onmousedown="handleZoom(evt,'in')"/>
                <use id="zoomminus" xlink:href="#zoomMin" x="42" y="9" onmousedown="handleZoom(evt,'out')"/>
                <use id="reset" xlink:href="#resetDef" x="30" y="36" onmousedown="handleReset()"/>
                <g id="arrowUp" xlink:href="#dirArrow" transform="translate(30 24)" onmousedown="handlePan(0,-1)">
                  <use xlink:href="#rim" fill="#404040">
                        <set attributeName="fill" to="#808080" begin="arrowUp.mouseover" end="arrowUp.mouseout"/>
                  </use>
                  <path fill="none" stroke="white" stroke-width="1.5" d="M0,-3.0v7 M-2.5,-0.5L0,-3.0L2.5,-0.5"/>
                </g>
                <g id="arrowRight" xlink:href="#dirArrow" transform="rotate(90) translate(36 -43)" onmousedown="handlePan(1,0)">
                  <use xlink:href="#rim" fill="#404040">
                        <set attributeName="fill" to="#808080" begin="arrowRight.mouseover" end="arrowRight.mouseout"/>
                  </use>
                  <path fill="none" stroke="white" stroke-width="1.5" d="M0,-3.0v7 M-2.5,-0.5L0,-3.0L2.5,-0.5"/>
                </g>
                <g id="arrowDown" xlink:href="#dirArrow" transform="rotate(180) translate(-30 -48)" onmousedown="handlePan(0,1)">
                  <use xlink:href="#rim" fill="#404040">
                        <set attributeName="fill" to="#808080" begin="arrowDown.mouseover" end="arrowDown.mouseout"/>
                  </use>
                  <path fill="none" stroke="white" stroke-width="1.5" d="M0,-3.0v7 M-2.5,-0.5L0,-3.0L2.5,-0.5"/>
                </g>
                <g id="arrowLeft" xlink:href="#dirArrow" transform="rotate(270) translate(-36 17)" onmousedown="handlePan(-1,0)">
                  <use xlink:href="#rim" fill="#404040">
                        <set attributeName="fill" to="#808080" begin="arrowLeft.mouseover" end="arrowLeft.mouseout"/>
                  </use>
                  <path fill="none" stroke="white" stroke-width="1.5" d="M0,-3.0v7 M-2.5,-0.5L0,-3.0L2.5,-0.5"/>
                </g>
        </g>
        <svg viewBox="0 0 15 15" width="100%" height="30px" preserveAspectRatio="xMaxYMin meet">
         <g id="arrow_out" transform="scale(0.3 0.3)">
          <a xlink:href="_g_u_i_2_include_2control_8h_a03b1d46384ed092ca3bc35eeb9c47e02_icgraph_org.svg" target="_base">
           <rect id="button" ry="5" rx="5" y="6" x="6" height="38" width="38"
                fill="#f2f5e9" fill-opacity="0.5" stroke="#606060" stroke-width="1.0"/>
           <path id="arrow"
             d="M 11.500037,31.436501 C 11.940474,20.09759 22.043105,11.32322 32.158766,21.979434 L 37.068811,17.246167 C 37.068811,17.246167 37.088388,32 37.088388,32 L 22.160133,31.978069 C 22.160133,31.978069 26.997745,27.140456 26.997745,27.140456 C 18.528582,18.264221 13.291696,25.230495 11.500037,31.436501 z"
             style="fill:#404040;"/>
          </a>
         </g>
        </svg>
</svg>
