<?xml version="1.0" encoding="UTF-8" standalone="no"?>
<!DOCTYPE svg PUBLIC "-//W3C//DTD SVG 1.1//EN"
 "http://www.w3.org/Graphics/SVG/1.1/DTD/svg11.dtd">
<!-- Generated by graphviz version 2.36.0 (20140111.2315)
 -->
<!-- Title: errormsg Pages: 1 -->
<svg width="454pt" height="273pt"
 viewBox="0.00 0.00 454.00 272.94" xmlns="http://www.w3.org/2000/svg" xmlns:xlink="http://www.w3.org/1999/xlink">
<g id="graph0" class="graph" transform="scale(1 1) rotate(0) translate(4 268.942)">
<title>errormsg</title>
<polygon fill="white" stroke="none" points="-4,4 -4,-268.942 450,-268.942 450,4 -4,4"/>
<!-- Node1 -->
<g id="node1" class="node"><title>Node1</title>
<polygon fill="#bfbfbf" stroke="black" points="0.5,-123.549 0.5,-142.549 55.5,-142.549 55.5,-123.549 0.5,-123.549"/>
<text text-anchor="middle" x="28" y="-130.549" font-family="Helvetica,sans-Serif" font-size="10.00">errormsg</text>
</g>
<!-- Node2 -->
<g id="node2" class="node"><title>Node2</title>
<g id="a_node2"><a xlink:href="control_8cpp.xhtml#a05821af400d34bbf265b0eb929f4cee8" target="_top" xlink:title="control_calcrate">
<polygon fill="white" stroke="black" points="266,-142.549 266,-161.549 352,-161.549 352,-142.549 266,-142.549"/>
<text text-anchor="middle" x="309" y="-149.549" font-family="Helvetica,sans-Serif" font-size="10.00">control_calcrate</text>
</a>
</g>
</g>
<!-- Node1&#45;&gt;Node2 -->
<g id="edge1" class="edge"><title>Node1&#45;&gt;Node2</title>
<path fill="none" stroke="midnightblue" d="M33.2768,-113.633C40.3368,-86.8475 57.2505,-39.5484 92,-19.0493 137.171,7.59732 163.192,4.60316 210,-19.0493 262.99,-45.8255 294.36,-116.258 304.427,-142.24"/>
<polygon fill="midnightblue" stroke="midnightblue" points="29.8607,-112.869 30.8989,-123.413 36.6625,-114.523 29.8607,-112.869"/>
</g>
<!-- Node4 -->
<g id="node4" class="node"><title>Node4</title>
<g id="a_node4"><a xlink:href="_g_u_i_2_include_2control_8h.xhtml#ac97643773a87a0ab2f3310730174824f" target="_top" xlink:title="control_cmdline">
<polygon fill="white" stroke="black" points="108.5,-218.549 108.5,-237.549 193.5,-237.549 193.5,-218.549 108.5,-218.549"/>
<text text-anchor="middle" x="151" y="-225.549" font-family="Helvetica,sans-Serif" font-size="10.00">control_cmdline</text>
</a>
</g>
</g>
<!-- Node1&#45;&gt;Node4 -->
<g id="edge3" class="edge"><title>Node1&#45;&gt;Node4</title>
<path fill="none" stroke="midnightblue" d="M39.8332,-151.308C50.9151,-168.504 69.6456,-193.834 92,-209.049 97.6061,-212.865 104.034,-215.96 110.523,-218.457"/>
<polygon fill="midnightblue" stroke="midnightblue" points="42.7395,-149.353 34.489,-142.706 36.7938,-153.048 42.7395,-149.353"/>
</g>
<!-- Node5 -->
<g id="node5" class="node"><title>Node5</title>
<g id="a_node5"><a xlink:href="_g_u_i_2_include_2control_8h.xhtml#aeab8b16e95a01d21a60fdf5490f781d2" target="_top" xlink:title="control_configfile">
<polygon fill="white" stroke="black" points="106,-180.549 106,-199.549 196,-199.549 196,-180.549 106,-180.549"/>
<text text-anchor="middle" x="151" y="-187.549" font-family="Helvetica,sans-Serif" font-size="10.00">control_configfile</text>
</a>
</g>
</g>
<!-- Node1&#45;&gt;Node5 -->
<g id="edge4" class="edge"><title>Node1&#45;&gt;Node5</title>
<path fill="none" stroke="midnightblue" d="M51.6695,-148.434C63.3671,-155.925 78.0727,-164.668 92,-171.049 99.7063,-174.58 108.26,-177.76 116.379,-180.463"/>
<polygon fill="midnightblue" stroke="midnightblue" points="53.2895,-145.311 43.0054,-142.764 49.4563,-151.168 53.2895,-145.311"/>
</g>
<!-- Node6 -->
<g id="node6" class="node"><title>Node6</title>
<g id="a_node6"><a xlink:href="control_8cpp.xhtml#aa8ca64af815f670c76cdb23c3d1af7b4" target="_top" xlink:title="control_generatefilename">
<polygon fill="white" stroke="black" points="246.5,-218.549 246.5,-237.549 371.5,-237.549 371.5,-218.549 246.5,-218.549"/>
<text text-anchor="middle" x="309" y="-225.549" font-family="Helvetica,sans-Serif" font-size="10.00">control_generatefilename</text>
</a>
</g>
</g>
<!-- Node1&#45;&gt;Node6 -->
<g id="edge5" class="edge"><title>Node1&#45;&gt;Node6</title>
<path fill="none" stroke="midnightblue" d="M33.2768,-152.465C40.3368,-179.251 57.2505,-226.55 92,-247.049 154.578,-283.964 245.569,-254.419 286.564,-237.642"/>
<polygon fill="midnightblue" stroke="midnightblue" points="36.6625,-151.576 30.8989,-142.686 29.8607,-153.23 36.6625,-151.576"/>
</g>
<!-- Node7 -->
<g id="node7" class="node"><title>Node7</title>
<g id="a_node7"><a xlink:href="_g_u_i_2_include_2control_8h.xhtml#ab54cec1fc7617fbb69ba6258f0a9f827" target="_top" xlink:title="control_openfile">
<polygon fill="white" stroke="black" points="108.5,-104.549 108.5,-123.549 193.5,-123.549 193.5,-104.549 108.5,-104.549"/>
<text text-anchor="middle" x="151" y="-111.549" font-family="Helvetica,sans-Serif" font-size="10.00">control_openfile</text>
</a>
</g>
</g>
<!-- Node1&#45;&gt;Node7 -->
<g id="edge7" class="edge"><title>Node1&#45;&gt;Node7</title>
<path fill="none" stroke="midnightblue" d="M65.4491,-127.326C78.9487,-125.206 94.3565,-122.787 108.289,-120.599"/>
<polygon fill="midnightblue" stroke="midnightblue" points="64.89,-123.871 55.554,-128.88 65.9759,-130.786 64.89,-123.871"/>
</g>
<!-- Node8 -->
<g id="node8" class="node"><title>Node8</title>
<g id="a_node8"><a xlink:href="_g_u_i_2_include_2control_8h.xhtml#a3ea9dadf648f70197ec522fb6fedc393" target="_top" xlink:title="control_openlog">
<polygon fill="white" stroke="black" points="108.5,-66.5493 108.5,-85.5493 193.5,-85.5493 193.5,-66.5493 108.5,-66.5493"/>
<text text-anchor="middle" x="151" y="-73.5493" font-family="Helvetica,sans-Serif" font-size="10.00">control_openlog</text>
</a>
</g>
</g>
<!-- Node1&#45;&gt;Node8 -->
<g id="edge8" class="edge"><title>Node1&#45;&gt;Node8</title>
<path fill="none" stroke="midnightblue" d="M51.6695,-117.665C63.3671,-110.174 78.0727,-101.431 92,-95.0493 99.7063,-91.5182 108.26,-88.3385 116.379,-85.6355"/>
<polygon fill="midnightblue" stroke="midnightblue" points="49.4563,-114.93 43.0054,-123.335 53.2895,-120.787 49.4563,-114.93"/>
</g>
<!-- Node9 -->
<g id="node9" class="node"><title>Node9</title>
<g id="a_node9"><a xlink:href="control_8cpp.xhtml#a9ed3ffa0b795893db43aac7d83f9cd87" target="_top" xlink:title="control_openrawrootfile">
<polygon fill="white" stroke="black" points="92.5,-28.5493 92.5,-47.5493 209.5,-47.5493 209.5,-28.5493 92.5,-28.5493"/>
<text text-anchor="middle" x="151" y="-35.5493" font-family="Helvetica,sans-Serif" font-size="10.00">control_openrawrootfile</text>
</a>
</g>
</g>
<!-- Node1&#45;&gt;Node9 -->
<g id="edge9" class="edge"><title>Node1&#45;&gt;Node9</title>
<path fill="none" stroke="midnightblue" d="M39.8332,-114.791C50.9151,-97.5942 69.6456,-72.2644 92,-57.0493 97.6061,-53.2336 104.034,-50.1382 110.523,-47.6415"/>
<polygon fill="midnightblue" stroke="midnightblue" points="36.7938,-113.051 34.489,-123.392 42.7395,-116.745 36.7938,-113.051"/>
</g>
<!-- Node10 -->
<g id="node10" class="node"><title>Node10</title>
<g id="a_node10"><a xlink:href="_g_u_i_2_include_2control_8h.xhtml#ab5bd42385627821b5bbe8f172adc9d10" target="_top" xlink:title="control_scfile">
<polygon fill="white" stroke="black" points="114,-142.549 114,-161.549 188,-161.549 188,-142.549 114,-142.549"/>
<text text-anchor="middle" x="151" y="-149.549" font-family="Helvetica,sans-Serif" font-size="10.00">control_scfile</text>
</a>
</g>
</g>
<!-- Node1&#45;&gt;Node10 -->
<g id="edge10" class="edge"><title>Node1&#45;&gt;Node10</title>
<path fill="none" stroke="midnightblue" d="M65.6854,-138.81C80.9627,-141.209 98.6507,-143.986 113.869,-146.376"/>
<polygon fill="midnightblue" stroke="midnightblue" points="65.9759,-135.313 55.554,-137.219 64.89,-142.228 65.9759,-135.313"/>
</g>
<!-- Node3 -->
<g id="node3" class="node"><title>Node3</title>
<g id="a_node3"><a xlink:href="mini_d_a_x_8cpp.xhtml#adedb285b02c41bde2158ded9cc9fd7ac" target="_top" xlink:title="main">
<polygon fill="white" stroke="black" points="408,-180.549 408,-199.549 446,-199.549 446,-180.549 408,-180.549"/>
<text text-anchor="middle" x="427" y="-187.549" font-family="Helvetica,sans-Serif" font-size="10.00">main</text>
</a>
</g>
</g>
<!-- Node2&#45;&gt;Node3 -->
<g id="edge2" class="edge"><title>Node2&#45;&gt;Node3</title>
<path fill="none" stroke="midnightblue" d="M349.036,-164.837C368.972,-171.368 392.267,-178.999 407.963,-184.14"/>
<polygon fill="midnightblue" stroke="midnightblue" points="349.864,-161.425 339.272,-161.638 347.685,-168.077 349.864,-161.425"/>
</g>
<!-- Node6&#45;&gt;Node3 -->
<g id="edge6" class="edge"><title>Node6&#45;&gt;Node3</title>
<path fill="none" stroke="midnightblue" d="M349.036,-215.262C368.972,-208.731 392.267,-201.1 407.963,-195.958"/>
<polygon fill="midnightblue" stroke="midnightblue" points="347.685,-212.021 339.272,-218.46 349.864,-218.673 347.685,-212.021"/>
</g>
<!-- Node10&#45;&gt;Node2 -->
<g id="edge11" class="edge"><title>Node10&#45;&gt;Node2</title>
<path fill="none" stroke="midnightblue" d="M198.359,-152.049C219.792,-152.049 245.063,-152.049 265.938,-152.049"/>
<polygon fill="midnightblue" stroke="midnightblue" points="198.182,-148.549 188.182,-152.049 198.182,-155.549 198.182,-148.549"/>
</g>
</g>
</svg>
