<?xml version="1.0" encoding="UTF-8" standalone="no"?>
<!DOCTYPE svg PUBLIC "-//W3C//DTD SVG 1.1//EN"
 "http://www.w3.org/Graphics/SVG/1.1/DTD/svg11.dtd">
<!-- Generated by graphviz version 2.36.0 (20140111.2315)
 -->
<!-- Title: control_scfile Pages: 1 -->
<svg width="278pt" height="28pt"
 viewBox="0.00 0.00 278.00 28.00" xmlns="http://www.w3.org/2000/svg" xmlns:xlink="http://www.w3.org/1999/xlink">
<g id="graph0" class="graph" transform="scale(1 1) rotate(0) translate(4 24)">
<title>control_scfile</title>
<polygon fill="white" stroke="none" points="-4,4 -4,-24 274,-24 274,4 -4,4"/>
<!-- Node1 -->
<g id="node1" class="node"><title>Node1</title>
<polygon fill="#bfbfbf" stroke="black" points="0,-0.5 0,-19.5 74,-19.5 74,-0.5 0,-0.5"/>
<text text-anchor="middle" x="37" y="-7.5" font-family="Helvetica,sans-Serif" font-size="10.00">control_scfile</text>
</g>
<!-- Node2 -->
<g id="node2" class="node"><title>Node2</title>
<g id="a_node2"><a xlink:href="control_8cpp.xhtml#a05821af400d34bbf265b0eb929f4cee8" target="_top" xlink:title="control_calcrate">
<polygon fill="white" stroke="black" points="110,-0.5 110,-19.5 196,-19.5 196,-0.5 110,-0.5"/>
<text text-anchor="middle" x="153" y="-7.5" font-family="Helvetica,sans-Serif" font-size="10.00">control_calcrate</text>
</a>
</g>
</g>
<!-- Node1&#45;&gt;Node2 -->
<g id="edge1" class="edge"><title>Node1&#45;&gt;Node2</title>
<path fill="none" stroke="midnightblue" d="M84.1826,-10C92.6506,-10 101.449,-10 109.794,-10"/>
<polygon fill="midnightblue" stroke="midnightblue" points="84.0703,-6.5001 74.0703,-10 84.0703,-13.5001 84.0703,-6.5001"/>
</g>
<!-- Node3 -->
<g id="node3" class="node"><title>Node3</title>
<g id="a_node3"><a xlink:href="mini_d_a_x_8cpp.xhtml#adedb285b02c41bde2158ded9cc9fd7ac" target="_top" xlink:title="main">
<polygon fill="white" stroke="black" points="232,-0.5 232,-19.5 270,-19.5 270,-0.5 232,-0.5"/>
<text text-anchor="middle" x="251" y="-7.5" font-family="Helvetica,sans-Serif" font-size="10.00">main</text>
</a>
</g>
</g>
<!-- Node2&#45;&gt;Node3 -->
<g id="edge2" class="edge"><title>Node2&#45;&gt;Node3</title>
<path fill="none" stroke="midnightblue" d="M206.113,-10C215.32,-10 224.324,-10 231.756,-10"/>
<polygon fill="midnightblue" stroke="midnightblue" points="206.107,-6.5001 196.107,-10 206.107,-13.5001 206.107,-6.5001"/>
</g>
</g>
</svg>
