<?xml version="1.0" encoding="UTF-8" standalone="no"?>
<!DOCTYPE svg PUBLIC "-//W3C//DTD SVG 1.1//EN"
 "http://www.w3.org/Graphics/SVG/1.1/DTD/svg11.dtd">
<!-- Generated by graphviz version 2.36.0 (20140111.2315)
 -->
<!-- Title: /data/Software/DAQ/XDAQ/GUI/Include/control.h Pages: 1 -->
<svg width="280pt" height="96pt"
 viewBox="0.00 0.00 280.00 96.00" xmlns="http://www.w3.org/2000/svg" xmlns:xlink="http://www.w3.org/1999/xlink">
<g id="graph0" class="graph" transform="scale(1 1) rotate(0) translate(4 92)">
<title>/data/Software/DAQ/XDAQ/GUI/Include/control.h</title>
<polygon fill="white" stroke="none" points="-4,4 -4,-92 276,-92 276,4 -4,4"/>
<!-- Node1 -->
<g id="node1" class="node"><title>Node1</title>
<polygon fill="#bfbfbf" stroke="black" points="55,-57 55,-87 199,-87 199,-57 55,-57"/>
<text text-anchor="start" x="63" y="-75" font-family="Helvetica,sans-Serif" font-size="10.00">/data/Software/DAQ</text>
<text text-anchor="middle" x="127" y="-64" font-family="Helvetica,sans-Serif" font-size="10.00">/XDAQ/GUI/Include/control.h</text>
</g>
<!-- Node2 -->
<g id="node2" class="node"><title>Node2</title>
<polygon fill="white" stroke="#bfbfbf" points="-0.5,-0.5 -0.5,-19.5 46.5,-19.5 46.5,-0.5 -0.5,-0.5"/>
<text text-anchor="middle" x="23" y="-7.5" font-family="Helvetica,sans-Serif" font-size="10.00">TFile.h</text>
</g>
<!-- Node1&#45;&gt;Node2 -->
<g id="edge1" class="edge"><title>Node1&#45;&gt;Node2</title>
<path fill="none" stroke="midnightblue" d="M102.617,-56.9327C85.8539,-47.2619 63.6975,-34.4793 47.0146,-24.8546"/>
<polygon fill="midnightblue" stroke="midnightblue" points="48.3176,-21.5656 37.9067,-19.6 44.8195,-27.629 48.3176,-21.5656"/>
</g>
<!-- Node3 -->
<g id="node3" class="node"><title>Node3</title>
<polygon fill="white" stroke="#bfbfbf" points="65,-0.5 65,-19.5 115,-19.5 115,-0.5 65,-0.5"/>
<text text-anchor="middle" x="90" y="-7.5" font-family="Helvetica,sans-Serif" font-size="10.00">TTree.h</text>
</g>
<!-- Node1&#45;&gt;Node3 -->
<g id="edge2" class="edge"><title>Node1&#45;&gt;Node3</title>
<path fill="none" stroke="midnightblue" d="M118.232,-56.7808C112.966,-48.2419 106.23,-37.3184 100.658,-28.2834"/>
<polygon fill="midnightblue" stroke="midnightblue" points="103.612,-26.4051 95.3838,-19.7305 97.6537,-30.0794 103.612,-26.4051"/>
</g>
<!-- Node4 -->
<g id="node4" class="node"><title>Node4</title>
<polygon fill="white" stroke="#bfbfbf" points="133,-0.5 133,-19.5 195,-19.5 195,-0.5 133,-0.5"/>
<text text-anchor="middle" x="164" y="-7.5" font-family="Helvetica,sans-Serif" font-size="10.00">TBranch.h</text>
</g>
<!-- Node1&#45;&gt;Node4 -->
<g id="edge3" class="edge"><title>Node1&#45;&gt;Node4</title>
<path fill="none" stroke="midnightblue" d="M135.768,-56.7808C141.034,-48.2419 147.77,-37.3184 153.342,-28.2834"/>
<polygon fill="midnightblue" stroke="midnightblue" points="156.346,-30.0794 158.616,-19.7305 150.388,-26.4051 156.346,-30.0794"/>
</g>
<!-- Node5 -->
<g id="node5" class="node"><title>Node5</title>
<polygon fill="white" stroke="#bfbfbf" points="213.5,-0.5 213.5,-19.5 272.5,-19.5 272.5,-0.5 213.5,-0.5"/>
<text text-anchor="middle" x="243" y="-7.5" font-family="Helvetica,sans-Serif" font-size="10.00">TROOT.h</text>
</g>
<!-- Node1&#45;&gt;Node5 -->
<g id="edge4" class="edge"><title>Node1&#45;&gt;Node5</title>
<path fill="none" stroke="midnightblue" d="M154.197,-56.9327C173.243,-47.0811 198.533,-34.0004 217.251,-24.3182"/>
<polygon fill="midnightblue" stroke="midnightblue" points="219.099,-27.3031 226.373,-19.6 215.883,-21.0855 219.099,-27.3031"/>
</g>
</g>
</svg>
