<?xml version="1.0" encoding="UTF-8" standalone="no"?>
<!DOCTYPE svg PUBLIC "-//W3C//DTD SVG 1.1//EN"
 "http://www.w3.org/Graphics/SVG/1.1/DTD/svg11.dtd">
<!-- Generated by graphviz version 2.36.0 (20140111.2315)
 -->
<!-- Title: /data/Software/DAQ/Scaler/IO/Include/IOManager.h Pages: 1 -->
<svg width="1066pt" height="96pt"
 viewBox="0.00 0.00 1066.00 96.00" xmlns="http://www.w3.org/2000/svg" xmlns:xlink="http://www.w3.org/1999/xlink">
<g id="graph0" class="graph" transform="scale(1 1) rotate(0) translate(4 92)">
<title>/data/Software/DAQ/Scaler/IO/Include/IOManager.h</title>
<polygon fill="white" stroke="none" points="-4,4 -4,-92 1062,-92 1062,4 -4,4"/>
<!-- Node1 -->
<g id="node1" class="node"><title>Node1</title>
<polygon fill="#bfbfbf" stroke="black" points="414.5,-57 414.5,-87 569.5,-87 569.5,-57 414.5,-57"/>
<text text-anchor="start" x="422.5" y="-75" font-family="Helvetica,sans-Serif" font-size="10.00">/data/Software/DAQ</text>
<text text-anchor="middle" x="492" y="-64" font-family="Helvetica,sans-Serif" font-size="10.00">/Scaler/IO/Include/IOManager.h</text>
</g>
<!-- Node2 -->
<g id="node2" class="node"><title>Node2</title>
<polygon fill="white" stroke="#bfbfbf" points="-0.5,-0.5 -0.5,-19.5 48.5,-19.5 48.5,-0.5 -0.5,-0.5"/>
<text text-anchor="middle" x="24" y="-7.5" font-family="Helvetica,sans-Serif" font-size="10.00">string.h</text>
</g>
<!-- Node1&#45;&gt;Node2 -->
<g id="edge1" class="edge"><title>Node1&#45;&gt;Node2</title>
<path fill="none" stroke="midnightblue" d="M414.274,-65.2104C329.252,-58.1234 188.886,-44.2151 58.9243,-19.9168"/>
<polygon fill="midnightblue" stroke="midnightblue" points="59.2661,-16.4193 48.7893,-17.9965 57.9629,-23.297 59.2661,-16.4193"/>
</g>
<!-- Node3 -->
<g id="node3" class="node"><title>Node3</title>
<polygon fill="white" stroke="#bfbfbf" points="67,-0.5 67,-19.5 113,-19.5 113,-0.5 67,-0.5"/>
<text text-anchor="middle" x="90" y="-7.5" font-family="Helvetica,sans-Serif" font-size="10.00">stdio.h</text>
</g>
<!-- Node1&#45;&gt;Node3 -->
<g id="edge2" class="edge"><title>Node1&#45;&gt;Node3</title>
<path fill="none" stroke="midnightblue" d="M414.226,-63.4182C341.264,-55.591 229.024,-41.7191 123.217,-20.0156"/>
<polygon fill="midnightblue" stroke="midnightblue" points="123.83,-16.5684 113.327,-17.9599 122.406,-23.4219 123.83,-16.5684"/>
</g>
<!-- Node4 -->
<g id="node4" class="node"><title>Node4</title>
<polygon fill="white" stroke="#bfbfbf" points="131,-0.5 131,-19.5 179,-19.5 179,-0.5 131,-0.5"/>
<text text-anchor="middle" x="155" y="-7.5" font-family="Helvetica,sans-Serif" font-size="10.00">stdlib.h</text>
</g>
<!-- Node1&#45;&gt;Node4 -->
<g id="edge3" class="edge"><title>Node1&#45;&gt;Node4</title>
<path fill="none" stroke="midnightblue" d="M414.437,-60.1755C355.17,-51.3997 271.303,-37.8977 189.097,-20.063"/>
<polygon fill="midnightblue" stroke="midnightblue" points="189.599,-16.5901 179.082,-17.8666 188.1,-23.4276 189.599,-16.5901"/>
</g>
<!-- Node5 -->
<g id="node5" class="node"><title>Node5</title>
<polygon fill="white" stroke="#bfbfbf" points="197,-0.5 197,-19.5 241,-19.5 241,-0.5 197,-0.5"/>
<text text-anchor="middle" x="219" y="-7.5" font-family="Helvetica,sans-Serif" font-size="10.00">time.h</text>
</g>
<!-- Node1&#45;&gt;Node5 -->
<g id="edge4" class="edge"><title>Node1&#45;&gt;Node5</title>
<path fill="none" stroke="midnightblue" d="M418.335,-56.9645C372.66,-47.9148 312.596,-35.3909 251.166,-20.1576"/>
<polygon fill="midnightblue" stroke="midnightblue" points="251.847,-16.7203 241.297,-17.6896 250.149,-23.5112 251.847,-16.7203"/>
</g>
<!-- Node6 -->
<g id="node6" class="node"><title>Node6</title>
<polygon fill="white" stroke="#bfbfbf" points="259,-0.5 259,-19.5 303,-19.5 303,-0.5 259,-0.5"/>
<text text-anchor="middle" x="281" y="-7.5" font-family="Helvetica,sans-Serif" font-size="10.00">vector</text>
</g>
<!-- Node1&#45;&gt;Node6 -->
<g id="edge5" class="edge"><title>Node1&#45;&gt;Node6</title>
<path fill="none" stroke="midnightblue" d="M441.929,-56.9068C408.058,-47.3519 362.054,-34.3331 312.884,-20.2411"/>
<polygon fill="midnightblue" stroke="midnightblue" points="313.588,-16.8019 303.01,-17.4091 311.658,-23.5306 313.588,-16.8019"/>
</g>
<!-- Node7 -->
<g id="node7" class="node"><title>Node7</title>
<polygon fill="white" stroke="#bfbfbf" points="321,-0.5 321,-19.5 373,-19.5 373,-0.5 321,-0.5"/>
<text text-anchor="middle" x="347" y="-7.5" font-family="Helvetica,sans-Serif" font-size="10.00">memory</text>
</g>
<!-- Node1&#45;&gt;Node7 -->
<g id="edge6" class="edge"><title>Node1&#45;&gt;Node7</title>
<path fill="none" stroke="midnightblue" d="M458.004,-56.9327C433.541,-46.81 400.838,-33.2779 377.273,-23.5267"/>
<polygon fill="midnightblue" stroke="midnightblue" points="378.362,-20.1895 367.783,-19.6 375.685,-26.6577 378.362,-20.1895"/>
</g>
<!-- Node8 -->
<g id="node8" class="node"><title>Node8</title>
<polygon fill="white" stroke="#bfbfbf" points="391.5,-0.5 391.5,-19.5 442.5,-19.5 442.5,-0.5 391.5,-0.5"/>
<text text-anchor="middle" x="417" y="-7.5" font-family="Helvetica,sans-Serif" font-size="10.00">typeinfo</text>
</g>
<!-- Node1&#45;&gt;Node8 -->
<g id="edge7" class="edge"><title>Node1&#45;&gt;Node8</title>
<path fill="none" stroke="midnightblue" d="M474.226,-56.7808C462.654,-47.5228 447.577,-35.4618 435.804,-26.0435"/>
<polygon fill="midnightblue" stroke="midnightblue" points="437.908,-23.2445 427.913,-19.7305 433.535,-28.7106 437.908,-23.2445"/>
</g>
<!-- Node9 -->
<g id="node9" class="node"><title>Node9</title>
<polygon fill="white" stroke="#bfbfbf" points="461,-0.5 461,-19.5 523,-19.5 523,-0.5 461,-0.5"/>
<text text-anchor="middle" x="492" y="-7.5" font-family="Helvetica,sans-Serif" font-size="10.00">common.h</text>
</g>
<!-- Node1&#45;&gt;Node9 -->
<g id="edge8" class="edge"><title>Node1&#45;&gt;Node9</title>
<path fill="none" stroke="midnightblue" d="M492,-56.7808C492,-48.7812 492,-38.6887 492,-30.0168"/>
<polygon fill="midnightblue" stroke="midnightblue" points="495.5,-29.7305 492,-19.7305 488.5,-29.7306 495.5,-29.7305"/>
</g>
<!-- Node10 -->
<g id="node10" class="node"><title>Node10</title>
<polygon fill="white" stroke="#bfbfbf" points="541.5,-0.5 541.5,-19.5 600.5,-19.5 600.5,-0.5 541.5,-0.5"/>
<text text-anchor="middle" x="571" y="-7.5" font-family="Helvetica,sans-Serif" font-size="10.00">TROOT.h</text>
</g>
<!-- Node1&#45;&gt;Node10 -->
<g id="edge9" class="edge"><title>Node1&#45;&gt;Node10</title>
<path fill="none" stroke="midnightblue" d="M510.722,-56.7808C522.912,-47.5228 538.792,-35.4618 551.193,-26.0435"/>
<polygon fill="midnightblue" stroke="midnightblue" points="553.658,-28.5661 559.505,-19.7305 549.424,-22.9916 553.658,-28.5661"/>
</g>
<!-- Node11 -->
<g id="node11" class="node"><title>Node11</title>
<polygon fill="white" stroke="#bfbfbf" points="618.5,-0.5 618.5,-19.5 697.5,-19.5 697.5,-0.5 618.5,-0.5"/>
<text text-anchor="middle" x="658" y="-7.5" font-family="Helvetica,sans-Serif" font-size="10.00">TApplication.h</text>
</g>
<!-- Node1&#45;&gt;Node11 -->
<g id="edge10" class="edge"><title>Node1&#45;&gt;Node11</title>
<path fill="none" stroke="midnightblue" d="M530.92,-56.9327C559.426,-46.6292 597.705,-32.7935 624.778,-23.0079"/>
<polygon fill="midnightblue" stroke="midnightblue" points="625.992,-26.2909 634.207,-19.6 623.612,-19.7077 625.992,-26.2909"/>
</g>
<!-- Node12 -->
<g id="node12" class="node"><title>Node12</title>
<polygon fill="white" stroke="#bfbfbf" points="715.5,-0.5 715.5,-19.5 780.5,-19.5 780.5,-0.5 715.5,-0.5"/>
<text text-anchor="middle" x="748" y="-7.5" font-family="Helvetica,sans-Serif" font-size="10.00">TSystem.h</text>
</g>
<!-- Node1&#45;&gt;Node12 -->
<g id="edge11" class="edge"><title>Node1&#45;&gt;Node12</title>
<path fill="none" stroke="midnightblue" d="M552.021,-56.9327C599.123,-45.8931 663.526,-30.7986 705.438,-20.9754"/>
<polygon fill="midnightblue" stroke="midnightblue" points="706.387,-24.348 715.325,-18.6583 704.79,-17.5326 706.387,-24.348"/>
</g>
<!-- Node13 -->
<g id="node13" class="node"><title>Node13</title>
<polygon fill="white" stroke="#bfbfbf" points="799,-0.5 799,-19.5 849,-19.5 849,-0.5 799,-0.5"/>
<text text-anchor="middle" x="824" y="-7.5" font-family="Helvetica,sans-Serif" font-size="10.00">TTree.h</text>
</g>
<!-- Node1&#45;&gt;Node13 -->
<g id="edge12" class="edge"><title>Node1&#45;&gt;Node13</title>
<path fill="none" stroke="midnightblue" d="M569.563,-59.4574C629.685,-50.0822 714.948,-35.8512 789,-20 789.1,-19.9787 789.2,-19.9572 789.3,-19.9357"/>
<polygon fill="midnightblue" stroke="midnightblue" points="789.867,-23.3968 798.823,-17.7359 788.292,-16.5764 789.867,-23.3968"/>
</g>
<!-- Node14 -->
<g id="node14" class="node"><title>Node14</title>
<polygon fill="white" stroke="#bfbfbf" points="867.5,-0.5 867.5,-19.5 926.5,-19.5 926.5,-0.5 867.5,-0.5"/>
<text text-anchor="middle" x="897" y="-7.5" font-family="Helvetica,sans-Serif" font-size="10.00">TNtuple.h</text>
</g>
<!-- Node1&#45;&gt;Node14 -->
<g id="edge13" class="edge"><title>Node1&#45;&gt;Node14</title>
<path fill="none" stroke="midnightblue" d="M569.789,-62.1823C641.851,-53.5517 752.182,-39.1674 857.407,-19.9639"/>
<polygon fill="midnightblue" stroke="midnightblue" points="858.046,-23.4053 867.246,-18.1514 856.777,-16.5212 858.046,-23.4053"/>
</g>
<!-- Node15 -->
<g id="node15" class="node"><title>Node15</title>
<polygon fill="white" stroke="#bfbfbf" points="944.5,-0.5 944.5,-19.5 991.5,-19.5 991.5,-0.5 944.5,-0.5"/>
<text text-anchor="middle" x="968" y="-7.5" font-family="Helvetica,sans-Serif" font-size="10.00">TFile.h</text>
</g>
<!-- Node1&#45;&gt;Node15 -->
<g id="edge14" class="edge"><title>Node1&#45;&gt;Node15</title>
<path fill="none" stroke="midnightblue" d="M569.768,-65.636C656.489,-58.8464 800.972,-45.1268 934.319,-19.8433"/>
<polygon fill="midnightblue" stroke="midnightblue" points="935.148,-23.248 944.308,-17.9233 933.827,-16.3738 935.148,-23.248"/>
</g>
<!-- Node16 -->
<g id="node16" class="node"><title>Node16</title>
<polygon fill="white" stroke="#bfbfbf" points="1009.5,-0.5 1009.5,-19.5 1058.5,-19.5 1058.5,-0.5 1009.5,-0.5"/>
<text text-anchor="middle" x="1034" y="-7.5" font-family="Helvetica,sans-Serif" font-size="10.00">TRint.h</text>
</g>
<!-- Node1&#45;&gt;Node16 -->
<g id="edge15" class="edge"><title>Node1&#45;&gt;Node16</title>
<path fill="none" stroke="midnightblue" d="M569.558,-67.0487C667.599,-61.197 841.581,-47.9617 999.333,-19.8323"/>
<polygon fill="midnightblue" stroke="midnightblue" points="1000,-23.2683 1009.22,-18.0458 998.757,-16.3799 1000,-23.2683"/>
</g>
</g>
</svg>
