<?xml version="1.0" encoding="UTF-8" standalone="no"?>
<!DOCTYPE svg PUBLIC "-//W3C//DTD SVG 1.1//EN"
 "http://www.w3.org/Graphics/SVG/1.1/DTD/svg11.dtd">
<!-- Generated by graphviz version 2.36.0 (20140111.2315)
 -->
<!-- Title: /data/Software/DAQ/Scaler/IO/Source/IOManager.cpp Pages: 1 -->
<svg width="1278pt" height="152pt"
 viewBox="0.00 0.00 1278.00 152.00" xmlns="http://www.w3.org/2000/svg" xmlns:xlink="http://www.w3.org/1999/xlink">
<g id="graph0" class="graph" transform="scale(1 1) rotate(0) translate(4 148)">
<title>/data/Software/DAQ/Scaler/IO/Source/IOManager.cpp</title>
<polygon fill="white" stroke="none" points="-4,4 -4,-148 1274,-148 1274,4 -4,4"/>
<!-- Node1 -->
<g id="node1" class="node"><title>Node1</title>
<polygon fill="#bfbfbf" stroke="black" points="679,-113 679,-143 843,-143 843,-113 679,-113"/>
<text text-anchor="start" x="687" y="-131" font-family="Helvetica,sans-Serif" font-size="10.00">/data/Software/DAQ</text>
<text text-anchor="middle" x="761" y="-120" font-family="Helvetica,sans-Serif" font-size="10.00">/Scaler/IO/Source/IOManager.cpp</text>
</g>
<!-- Node2 -->
<g id="node2" class="node"><title>Node2</title>
<polygon fill="white" stroke="#bfbfbf" points="312,-56.5 312,-75.5 362,-75.5 362,-56.5 312,-56.5"/>
<text text-anchor="middle" x="337" y="-63.5" font-family="Helvetica,sans-Serif" font-size="10.00">fstream</text>
</g>
<!-- Node1&#45;&gt;Node2 -->
<g id="edge1" class="edge"><title>Node1&#45;&gt;Node2</title>
<path fill="none" stroke="midnightblue" d="M678.707,-119.348C601.754,-111.483 483.529,-97.5874 372.225,-76.0217"/>
<polygon fill="midnightblue" stroke="midnightblue" points="372.654,-72.5393 362.167,-74.0481 371.306,-79.4083 372.654,-72.5393"/>
</g>
<!-- Node3 -->
<g id="node3" class="node"><title>Node3</title>
<polygon fill="white" stroke="#bfbfbf" points="380,-56.5 380,-75.5 432,-75.5 432,-56.5 380,-56.5"/>
<text text-anchor="middle" x="406" y="-63.5" font-family="Helvetica,sans-Serif" font-size="10.00">sstream</text>
</g>
<!-- Node1&#45;&gt;Node3 -->
<g id="edge2" class="edge"><title>Node1&#45;&gt;Node3</title>
<path fill="none" stroke="midnightblue" d="M678.846,-115.098C615.14,-105.531 524.734,-91.2167 446,-76 444.742,-75.7569 443.463,-75.5034 442.173,-75.2424"/>
<polygon fill="midnightblue" stroke="midnightblue" points="442.71,-71.7786 432.202,-73.135 441.262,-78.6273 442.71,-71.7786"/>
</g>
<!-- Node4 -->
<g id="node4" class="node"><title>Node4</title>
<polygon fill="white" stroke="#bfbfbf" points="0,-0.5 0,-19.5 44,-19.5 44,-0.5 0,-0.5"/>
<text text-anchor="middle" x="22" y="-7.5" font-family="Helvetica,sans-Serif" font-size="10.00">vector</text>
</g>
<!-- Node1&#45;&gt;Node4 -->
<g id="edge3" class="edge"><title>Node1&#45;&gt;Node4</title>
<path fill="none" stroke="midnightblue" d="M678.772,-120.499C620.202,-113.939 540.417,-101.027 474,-76 457.952,-69.9526 457.286,-61.3735 441,-56 279.667,-2.77028 225.222,-50.4012 54.3148,-19.8696"/>
<polygon fill="midnightblue" stroke="midnightblue" points="54.6984,-16.3812 44.2282,-18.0018 53.4238,-23.2642 54.6984,-16.3812"/>
</g>
<!-- Node5 -->
<g id="node5" class="node"><title>Node5</title>
<polygon fill="white" stroke="#bfbfbf" points="884.5,-56.5 884.5,-75.5 931.5,-75.5 931.5,-56.5 884.5,-56.5"/>
<text text-anchor="middle" x="908" y="-63.5" font-family="Helvetica,sans-Serif" font-size="10.00">iterator</text>
</g>
<!-- Node1&#45;&gt;Node5 -->
<g id="edge4" class="edge"><title>Node1&#45;&gt;Node5</title>
<path fill="none" stroke="midnightblue" d="M795.465,-112.933C820.376,-102.765 853.715,-89.157 877.629,-79.3963"/>
<polygon fill="midnightblue" stroke="midnightblue" points="878.994,-82.6195 886.93,-75.6 876.349,-76.1386 878.994,-82.6195"/>
</g>
<!-- Node6 -->
<g id="node6" class="node"><title>Node6</title>
<polygon fill="white" stroke="#bfbfbf" points="950,-56.5 950,-75.5 1006,-75.5 1006,-56.5 950,-56.5"/>
<text text-anchor="middle" x="978" y="-63.5" font-family="Helvetica,sans-Serif" font-size="10.00">algorithm</text>
</g>
<!-- Node1&#45;&gt;Node6 -->
<g id="edge5" class="edge"><title>Node1&#45;&gt;Node6</title>
<path fill="none" stroke="midnightblue" d="M811.877,-112.933C851.098,-102.088 904.472,-87.3303 940.023,-77.5006"/>
<polygon fill="midnightblue" stroke="midnightblue" points="941.294,-80.7807 949.999,-74.7422 939.428,-74.0338 941.294,-80.7807"/>
</g>
<!-- Node7 -->
<g id="node7" class="node"><title>Node7</title>
<polygon fill="white" stroke="#bfbfbf" points="1024,-56.5 1024,-75.5 1078,-75.5 1078,-56.5 1024,-56.5"/>
<text text-anchor="middle" x="1051" y="-63.5" font-family="Helvetica,sans-Serif" font-size="10.00">iostream</text>
</g>
<!-- Node1&#45;&gt;Node7 -->
<g id="edge6" class="edge"><title>Node1&#45;&gt;Node7</title>
<path fill="none" stroke="midnightblue" d="M834.508,-112.982C885.086,-103.141 953.749,-89.395 1014,-76 1014.1,-75.9776 1014.2,-75.9551 1014.3,-75.9326"/>
<polygon fill="midnightblue" stroke="midnightblue" points="1014.99,-79.3657 1023.95,-73.7106 1013.42,-72.5442 1014.99,-79.3657"/>
</g>
<!-- Node8 -->
<g id="node8" class="node"><title>Node8</title>
<polygon fill="white" stroke="#bfbfbf" points="1096.5,-56.5 1096.5,-75.5 1137.5,-75.5 1137.5,-56.5 1096.5,-56.5"/>
<text text-anchor="middle" x="1117" y="-63.5" font-family="Helvetica,sans-Serif" font-size="10.00">string</text>
</g>
<!-- Node1&#45;&gt;Node8 -->
<g id="edge7" class="edge"><title>Node1&#45;&gt;Node8</title>
<path fill="none" stroke="midnightblue" d="M843.312,-117.279C907.185,-109.008 998.032,-95.6579 1086.5,-75.8275"/>
<polygon fill="midnightblue" stroke="midnightblue" points="1087.47,-79.1982 1096.44,-73.5699 1085.91,-72.3721 1087.47,-79.1982"/>
</g>
<!-- Node9 -->
<g id="node9" class="node"><title>Node9</title>
<g id="a_node9"><a xlink:href="_i_o_manager_8h.xhtml" target="_top" xlink:title="IOManager.h">
<polygon fill="white" stroke="black" points="526.5,-56.5 526.5,-75.5 599.5,-75.5 599.5,-56.5 526.5,-56.5"/>
<text text-anchor="middle" x="563" y="-63.5" font-family="Helvetica,sans-Serif" font-size="10.00">IOManager.h</text>
</a>
</g>
</g>
<!-- Node1&#45;&gt;Node9 -->
<g id="edge8" class="edge"><title>Node1&#45;&gt;Node9</title>
<path fill="none" stroke="midnightblue" d="M714.578,-112.933C680.026,-102.462 633.437,-88.3445 601.068,-78.5358"/>
<polygon fill="midnightblue" stroke="midnightblue" points="601.677,-75.0632 591.092,-75.5127 599.647,-81.7624 601.677,-75.0632"/>
</g>
<!-- Node16 -->
<g id="node16" class="node"><title>Node16</title>
<polygon fill="white" stroke="#bfbfbf" points="62,-0.5 62,-19.5 124,-19.5 124,-0.5 62,-0.5"/>
<text text-anchor="middle" x="93" y="-7.5" font-family="Helvetica,sans-Serif" font-size="10.00">common.h</text>
</g>
<!-- Node1&#45;&gt;Node16 -->
<g id="edge25" class="edge"><title>Node1&#45;&gt;Node16</title>
<path fill="none" stroke="midnightblue" d="M678.988,-114.695C631.046,-106.312 569.775,-93.5302 517,-76 496.997,-69.3558 494.312,-61.6274 474,-56 330.29,-16.1856 285.3,-43.535 134.466,-20.0433"/>
<polygon fill="midnightblue" stroke="midnightblue" points="134.804,-16.5529 124.375,-18.4212 133.693,-23.4641 134.804,-16.5529"/>
</g>
<!-- Node17 -->
<g id="node17" class="node"><title>Node17</title>
<polygon fill="white" stroke="#bfbfbf" points="541.5,-0.5 541.5,-19.5 600.5,-19.5 600.5,-0.5 541.5,-0.5"/>
<text text-anchor="middle" x="571" y="-7.5" font-family="Helvetica,sans-Serif" font-size="10.00">TROOT.h</text>
</g>
<!-- Node1&#45;&gt;Node17 -->
<g id="edge26" class="edge"><title>Node1&#45;&gt;Node17</title>
<path fill="none" stroke="midnightblue" d="M737.702,-112.776C701.135,-90.4507 630.681,-47.4368 594.184,-25.1544"/>
<polygon fill="midnightblue" stroke="midnightblue" points="595.62,-21.9306 585.261,-19.707 591.973,-27.9052 595.62,-21.9306"/>
</g>
<!-- Node18 -->
<g id="node18" class="node"><title>Node18</title>
<polygon fill="white" stroke="#bfbfbf" points="618.5,-0.5 618.5,-19.5 697.5,-19.5 697.5,-0.5 618.5,-0.5"/>
<text text-anchor="middle" x="658" y="-7.5" font-family="Helvetica,sans-Serif" font-size="10.00">TApplication.h</text>
</g>
<!-- Node1&#45;&gt;Node18 -->
<g id="edge27" class="edge"><title>Node1&#45;&gt;Node18</title>
<path fill="none" stroke="midnightblue" d="M748.37,-112.776C729.137,-91.1157 692.612,-49.9809 672.384,-27.1996"/>
<polygon fill="midnightblue" stroke="midnightblue" points="674.988,-24.8608 665.731,-19.707 669.754,-29.5085 674.988,-24.8608"/>
</g>
<!-- Node19 -->
<g id="node19" class="node"><title>Node19</title>
<polygon fill="white" stroke="#bfbfbf" points="715.5,-0.5 715.5,-19.5 780.5,-19.5 780.5,-0.5 715.5,-0.5"/>
<text text-anchor="middle" x="748" y="-7.5" font-family="Helvetica,sans-Serif" font-size="10.00">TSystem.h</text>
</g>
<!-- Node1&#45;&gt;Node19 -->
<g id="edge28" class="edge"><title>Node1&#45;&gt;Node19</title>
<path fill="none" stroke="midnightblue" d="M748.723,-112.955C741.122,-103.289 732.062,-89.7554 728,-76 723.257,-59.9385 729.91,-41.7205 736.786,-28.6667"/>
<polygon fill="midnightblue" stroke="midnightblue" points="739.93,-30.2216 741.904,-19.8122 733.87,-26.719 739.93,-30.2216"/>
</g>
<!-- Node20 -->
<g id="node20" class="node"><title>Node20</title>
<polygon fill="white" stroke="#bfbfbf" points="799,-0.5 799,-19.5 849,-19.5 849,-0.5 799,-0.5"/>
<text text-anchor="middle" x="824" y="-7.5" font-family="Helvetica,sans-Serif" font-size="10.00">TTree.h</text>
</g>
<!-- Node1&#45;&gt;Node20 -->
<g id="edge29" class="edge"><title>Node1&#45;&gt;Node20</title>
<path fill="none" stroke="midnightblue" d="M758.743,-112.731C757.078,-97.6921 756.51,-73.7658 766,-56 773.034,-42.8318 785.775,-32.2925 797.527,-24.7335"/>
<polygon fill="midnightblue" stroke="midnightblue" points="799.425,-27.6766 806.211,-19.5397 795.832,-21.6692 799.425,-27.6766"/>
</g>
<!-- Node21 -->
<g id="node21" class="node"><title>Node21</title>
<polygon fill="white" stroke="#bfbfbf" points="867.5,-0.5 867.5,-19.5 926.5,-19.5 926.5,-0.5 867.5,-0.5"/>
<text text-anchor="middle" x="897" y="-7.5" font-family="Helvetica,sans-Serif" font-size="10.00">TNtuple.h</text>
</g>
<!-- Node1&#45;&gt;Node21 -->
<g id="edge30" class="edge"><title>Node1&#45;&gt;Node21</title>
<path fill="none" stroke="midnightblue" d="M766.648,-112.815C773.481,-97.1758 786.31,-72.1029 804,-56 819.966,-41.4669 841.478,-30.652 859.791,-23.2717"/>
<polygon fill="midnightblue" stroke="midnightblue" points="861.22,-26.4722 869.304,-19.6236 858.714,-19.9363 861.22,-26.4722"/>
</g>
<!-- Node22 -->
<g id="node22" class="node"><title>Node22</title>
<polygon fill="white" stroke="#bfbfbf" points="944.5,-0.5 944.5,-19.5 991.5,-19.5 991.5,-0.5 944.5,-0.5"/>
<text text-anchor="middle" x="968" y="-7.5" font-family="Helvetica,sans-Serif" font-size="10.00">TFile.h</text>
</g>
<!-- Node1&#45;&gt;Node22 -->
<g id="edge31" class="edge"><title>Node1&#45;&gt;Node22</title>
<path fill="none" stroke="midnightblue" d="M773.801,-112.96C788.81,-97.2169 815.077,-71.8241 842,-56 857.992,-46.6008 903.073,-31.4141 934.722,-21.3199"/>
<polygon fill="midnightblue" stroke="midnightblue" points="935.993,-24.5888 944.472,-18.2353 933.882,-17.9148 935.993,-24.5888"/>
</g>
<!-- Node23 -->
<g id="node23" class="node"><title>Node23</title>
<polygon fill="white" stroke="#bfbfbf" points="1009.5,-0.5 1009.5,-19.5 1058.5,-19.5 1058.5,-0.5 1009.5,-0.5"/>
<text text-anchor="middle" x="1034" y="-7.5" font-family="Helvetica,sans-Serif" font-size="10.00">TRint.h</text>
</g>
<!-- Node1&#45;&gt;Node23 -->
<g id="edge32" class="edge"><title>Node1&#45;&gt;Node23</title>
<path fill="none" stroke="midnightblue" d="M783.577,-112.84C815.666,-92.7474 871.143,-58.1418 876,-56 887.386,-50.9798 956.669,-31.893 999.624,-20.2503"/>
<polygon fill="midnightblue" stroke="midnightblue" points="1000.66,-23.5946 1009.4,-17.6048 998.837,-16.8375 1000.66,-23.5946"/>
</g>
<!-- Node24 -->
<g id="node24" class="node"><title>Node24</title>
<polygon fill="white" stroke="#bfbfbf" points="1156,-56.5 1156,-75.5 1206,-75.5 1206,-56.5 1156,-56.5"/>
<text text-anchor="middle" x="1181" y="-63.5" font-family="Helvetica,sans-Serif" font-size="10.00">global.h</text>
</g>
<!-- Node1&#45;&gt;Node24 -->
<g id="edge24" class="edge"><title>Node1&#45;&gt;Node24</title>
<path fill="none" stroke="midnightblue" d="M843.326,-118.987C921.595,-110.687 1042.41,-96.1038 1146,-76 1146.1,-75.9806 1146.2,-75.961 1146.3,-75.9414"/>
<polygon fill="midnightblue" stroke="midnightblue" points="1146.83,-79.4093 1155.85,-73.8527 1145.33,-72.5711 1146.83,-79.4093"/>
</g>
<!-- Node25 -->
<g id="node25" class="node"><title>Node25</title>
<polygon fill="white" stroke="#bfbfbf" points="1224,-56.5 1224,-75.5 1270,-75.5 1270,-56.5 1224,-56.5"/>
<text text-anchor="middle" x="1247" y="-63.5" font-family="Helvetica,sans-Serif" font-size="10.00">keyb.h</text>
</g>
<!-- Node1&#45;&gt;Node25 -->
<g id="edge33" class="edge"><title>Node1&#45;&gt;Node25</title>
<path fill="none" stroke="midnightblue" d="M843.212,-121.795C932.396,-115.24 1078.99,-101.818 1213.6,-75.9912"/>
<polygon fill="midnightblue" stroke="midnightblue" points="1214.54,-79.375 1223.69,-74.0289 1213.2,-72.5039 1214.54,-79.375"/>
</g>
<!-- Node9&#45;&gt;Node4 -->
<g id="edge13" class="edge"><title>Node9&#45;&gt;Node4</title>
<path fill="none" stroke="midnightblue" d="M526.206,-61.1502C510.176,-59.5063 491.164,-57.6016 474,-56 290.305,-38.8592 239.405,-53.8014 54.2915,-19.8892"/>
<polygon fill="midnightblue" stroke="midnightblue" points="54.6952,-16.4045 44.2245,-18.0215 53.4182,-23.287 54.6952,-16.4045"/>
</g>
<!-- Node10 -->
<g id="node10" class="node"><title>Node10</title>
<polygon fill="white" stroke="#bfbfbf" points="343.5,-0.5 343.5,-19.5 392.5,-19.5 392.5,-0.5 343.5,-0.5"/>
<text text-anchor="middle" x="368" y="-7.5" font-family="Helvetica,sans-Serif" font-size="10.00">string.h</text>
</g>
<!-- Node9&#45;&gt;Node10 -->
<g id="edge9" class="edge"><title>Node9&#45;&gt;Node10</title>
<path fill="none" stroke="midnightblue" d="M532.102,-56.4435C496.763,-46.6574 439.064,-30.6793 402.344,-20.5107"/>
<polygon fill="midnightblue" stroke="midnightblue" points="403.151,-17.1025 392.58,-17.8067 401.283,-23.8486 403.151,-17.1025"/>
</g>
<!-- Node11 -->
<g id="node11" class="node"><title>Node11</title>
<polygon fill="white" stroke="#bfbfbf" points="411,-0.5 411,-19.5 457,-19.5 457,-0.5 411,-0.5"/>
<text text-anchor="middle" x="434" y="-7.5" font-family="Helvetica,sans-Serif" font-size="10.00">stdio.h</text>
</g>
<!-- Node9&#45;&gt;Node11 -->
<g id="edge10" class="edge"><title>Node9&#45;&gt;Node11</title>
<path fill="none" stroke="midnightblue" d="M542.56,-56.4435C521.33,-47.5566 487.901,-33.5632 463.745,-23.4514"/>
<polygon fill="midnightblue" stroke="midnightblue" points="464.921,-20.1493 454.345,-19.5164 462.218,-26.6064 464.921,-20.1493"/>
</g>
<!-- Node12 -->
<g id="node12" class="node"><title>Node12</title>
<polygon fill="white" stroke="#bfbfbf" points="475,-0.5 475,-19.5 523,-19.5 523,-0.5 475,-0.5"/>
<text text-anchor="middle" x="499" y="-7.5" font-family="Helvetica,sans-Serif" font-size="10.00">stdlib.h</text>
</g>
<!-- Node9&#45;&gt;Node12 -->
<g id="edge11" class="edge"><title>Node9&#45;&gt;Node12</title>
<path fill="none" stroke="midnightblue" d="M552.717,-56.324C543.164,-48.2631 528.72,-36.0765 517.216,-26.3695"/>
<polygon fill="midnightblue" stroke="midnightblue" points="519.37,-23.6076 509.47,-19.8339 514.856,-28.9577 519.37,-23.6076"/>
</g>
<!-- Node13 -->
<g id="node13" class="node"><title>Node13</title>
<polygon fill="white" stroke="#bfbfbf" points="142,-0.5 142,-19.5 186,-19.5 186,-0.5 142,-0.5"/>
<text text-anchor="middle" x="164" y="-7.5" font-family="Helvetica,sans-Serif" font-size="10.00">time.h</text>
</g>
<!-- Node9&#45;&gt;Node13 -->
<g id="edge12" class="edge"><title>Node9&#45;&gt;Node13</title>
<path fill="none" stroke="midnightblue" d="M526.272,-58.2402C521.479,-57.4397 516.627,-56.6703 512,-56 374.96,-36.146 335.85,-47.313 196.452,-19.9812"/>
<polygon fill="midnightblue" stroke="midnightblue" points="196.73,-16.4679 186.239,-17.9458 195.362,-23.3329 196.73,-16.4679"/>
</g>
<!-- Node14 -->
<g id="node14" class="node"><title>Node14</title>
<polygon fill="white" stroke="#bfbfbf" points="204,-0.5 204,-19.5 256,-19.5 256,-0.5 204,-0.5"/>
<text text-anchor="middle" x="230" y="-7.5" font-family="Helvetica,sans-Serif" font-size="10.00">memory</text>
</g>
<!-- Node9&#45;&gt;Node14 -->
<g id="edge14" class="edge"><title>Node9&#45;&gt;Node14</title>
<path fill="none" stroke="midnightblue" d="M526.251,-58.3795C521.461,-57.5563 516.616,-56.7435 512,-56 405.683,-38.8752 375.517,-41.6591 266.403,-20.1047"/>
<polygon fill="midnightblue" stroke="midnightblue" points="266.796,-16.614 256.304,-18.0854 265.423,-23.4782 266.796,-16.614"/>
</g>
<!-- Node15 -->
<g id="node15" class="node"><title>Node15</title>
<polygon fill="white" stroke="#bfbfbf" points="274.5,-0.5 274.5,-19.5 325.5,-19.5 325.5,-0.5 274.5,-0.5"/>
<text text-anchor="middle" x="300" y="-7.5" font-family="Helvetica,sans-Serif" font-size="10.00">typeinfo</text>
</g>
<!-- Node9&#45;&gt;Node15 -->
<g id="edge15" class="edge"><title>Node9&#45;&gt;Node15</title>
<path fill="none" stroke="midnightblue" d="M526.357,-58.5551C482.959,-50.7562 408.285,-36.8166 335.382,-20.2122"/>
<polygon fill="midnightblue" stroke="midnightblue" points="336.105,-16.7874 325.576,-17.9599 334.538,-23.6097 336.105,-16.7874"/>
</g>
<!-- Node9&#45;&gt;Node16 -->
<g id="edge16" class="edge"><title>Node9&#45;&gt;Node16</title>
<path fill="none" stroke="midnightblue" d="M526.284,-58.1591C521.488,-57.3719 516.633,-56.6278 512,-56 347.523,-33.712 301.824,-46.1292 134.268,-20.0174"/>
<polygon fill="midnightblue" stroke="midnightblue" points="134.794,-16.5572 124.37,-18.4526 133.701,-23.4714 134.794,-16.5572"/>
</g>
<!-- Node9&#45;&gt;Node17 -->
<g id="edge17" class="edge"><title>Node9&#45;&gt;Node17</title>
<path fill="none" stroke="midnightblue" d="M564.321,-56.083C565.381,-48.9272 566.906,-38.6353 568.231,-29.6911"/>
<polygon fill="midnightblue" stroke="midnightblue" points="571.7,-30.1561 569.704,-19.7511 564.776,-29.1302 571.7,-30.1561"/>
</g>
<!-- Node9&#45;&gt;Node18 -->
<g id="edge18" class="edge"><title>Node9&#45;&gt;Node18</title>
<path fill="none" stroke="midnightblue" d="M578.263,-56.324C593.221,-47.8215 616.255,-34.7288 633.727,-24.7975"/>
<polygon fill="midnightblue" stroke="midnightblue" points="635.81,-27.639 642.774,-19.6545 632.351,-21.5534 635.81,-27.639"/>
</g>
<!-- Node9&#45;&gt;Node19 -->
<g id="edge19" class="edge"><title>Node9&#45;&gt;Node19</title>
<path fill="none" stroke="midnightblue" d="M592.314,-56.4435C623.842,-47.2406 674.131,-32.5617 708.986,-22.3879"/>
<polygon fill="midnightblue" stroke="midnightblue" points="710.205,-25.6783 718.823,-19.5164 708.243,-18.9587 710.205,-25.6783"/>
</g>
<!-- Node9&#45;&gt;Node20 -->
<g id="edge20" class="edge"><title>Node9&#45;&gt;Node20</title>
<path fill="none" stroke="midnightblue" d="M599.534,-58.3672C644.328,-50.0871 722.495,-35.1596 789,-20 789.099,-19.9773 789.199,-19.9546 789.299,-19.9318"/>
<polygon fill="midnightblue" stroke="midnightblue" points="789.895,-23.388 798.805,-17.6555 788.265,-16.5804 789.895,-23.388"/>
</g>
<!-- Node9&#45;&gt;Node21 -->
<g id="edge21" class="edge"><title>Node9&#45;&gt;Node21</title>
<path fill="none" stroke="midnightblue" d="M599.945,-60.2755C654.157,-53.1441 758.631,-38.6479 857.393,-19.9892"/>
<polygon fill="midnightblue" stroke="midnightblue" points="858.071,-23.423 867.238,-18.1114 856.76,-16.547 858.071,-23.423"/>
</g>
<!-- Node9&#45;&gt;Node22 -->
<g id="edge22" class="edge"><title>Node9&#45;&gt;Node22</title>
<path fill="none" stroke="midnightblue" d="M599.711,-62.3456C665.069,-57.235 805.987,-44.4784 934.303,-19.8554"/>
<polygon fill="midnightblue" stroke="midnightblue" points="935.159,-23.2546 944.305,-17.9067 933.82,-16.3838 935.159,-23.2546"/>
</g>
<!-- Node9&#45;&gt;Node23 -->
<g id="edge23" class="edge"><title>Node9&#45;&gt;Node23</title>
<path fill="none" stroke="midnightblue" d="M599.529,-63.1701C673.288,-59.0611 845.343,-47.381 999.117,-19.8732"/>
<polygon fill="midnightblue" stroke="midnightblue" points="1000.01,-23.2693 1009.22,-18.0383 998.754,-16.382 1000.01,-23.2693"/>
</g>
</g>
</svg>
