<?xml version="1.0" encoding="UTF-8" standalone="no"?>
<!DOCTYPE svg PUBLIC "-//W3C//DTD SVG 1.1//EN"
 "http://www.w3.org/Graphics/SVG/1.1/DTD/svg11.dtd">
<!-- Generated by graphviz version 2.36.0 (20140111.2315)
 -->
<!-- Title: /data/Software/DAQ/PDAQ/Core/Include/xmlParser.h Pages: 1 -->
<svg width="170pt" height="96pt"
 viewBox="0.00 0.00 170.00 96.00" xmlns="http://www.w3.org/2000/svg" xmlns:xlink="http://www.w3.org/1999/xlink">
<g id="graph0" class="graph" transform="scale(1 1) rotate(0) translate(4 92)">
<title>/data/Software/DAQ/PDAQ/Core/Include/xmlParser.h</title>
<polygon fill="white" stroke="none" points="-4,4 -4,-92 166,-92 166,4 -4,4"/>
<!-- Node1 -->
<g id="node1" class="node"><title>Node1</title>
<polygon fill="#bfbfbf" stroke="black" points="0,-57 0,-87 162,-87 162,-57 0,-57"/>
<text text-anchor="start" x="8" y="-75" font-family="Helvetica,sans-Serif" font-size="10.00">/data/Software/DAQ</text>
<text text-anchor="middle" x="81" y="-64" font-family="Helvetica,sans-Serif" font-size="10.00">/PDAQ/Core/Include/xmlParser.h</text>
</g>
<!-- Node2 -->
<g id="node2" class="node"><title>Node2</title>
<polygon fill="white" stroke="#bfbfbf" points="23,-0.5 23,-19.5 71,-19.5 71,-0.5 23,-0.5"/>
<text text-anchor="middle" x="47" y="-7.5" font-family="Helvetica,sans-Serif" font-size="10.00">stdlib.h</text>
</g>
<!-- Node1&#45;&gt;Node2 -->
<g id="edge1" class="edge"><title>Node1&#45;&gt;Node2</title>
<path fill="none" stroke="midnightblue" d="M72.9425,-56.7808C68.1547,-48.3318 62.0439,-37.5481 56.9559,-28.5693"/>
<polygon fill="midnightblue" stroke="midnightblue" points="59.9226,-26.7052 51.9473,-19.7305 53.8324,-30.1563 59.9226,-26.7052"/>
</g>
<!-- Node3 -->
<g id="node3" class="node"><title>Node3</title>
<polygon fill="white" stroke="#bfbfbf" points="89.5,-0.5 89.5,-19.5 140.5,-19.5 140.5,-0.5 89.5,-0.5"/>
<text text-anchor="middle" x="115" y="-7.5" font-family="Helvetica,sans-Serif" font-size="10.00">wchar.h</text>
</g>
<!-- Node1&#45;&gt;Node3 -->
<g id="edge2" class="edge"><title>Node1&#45;&gt;Node3</title>
<path fill="none" stroke="midnightblue" d="M89.0575,-56.7808C93.8453,-48.3318 99.9561,-37.5481 105.044,-28.5693"/>
<polygon fill="midnightblue" stroke="midnightblue" points="108.168,-30.1563 110.053,-19.7305 102.077,-26.7052 108.168,-30.1563"/>
</g>
</g>
</svg>
