<?xml version="1.0" encoding="UTF-8" standalone="no"?>
<!DOCTYPE svg PUBLIC "-//W3C//DTD SVG 1.1//EN"
 "http://www.w3.org/Graphics/SVG/1.1/DTD/svg11.dtd">
<!-- Generated by graphviz version 2.36.0 (20140111.2315)
 -->
<!-- Title: xstrncmp Pages: 1 -->
<svg width="328pt" height="104pt"
 viewBox="0.00 0.00 328.00 104.00" xmlns="http://www.w3.org/2000/svg" xmlns:xlink="http://www.w3.org/1999/xlink">
<g id="graph0" class="graph" transform="scale(1 1) rotate(0) translate(4 100)">
<title>xstrncmp</title>
<polygon fill="white" stroke="none" points="-4,4 -4,-100 324,-100 324,4 -4,4"/>
<!-- Node1 -->
<g id="node1" class="node"><title>Node1</title>
<polygon fill="#bfbfbf" stroke="black" points="0.5,-38.5 0.5,-57.5 57.5,-57.5 57.5,-38.5 0.5,-38.5"/>
<text text-anchor="middle" x="29" y="-45.5" font-family="Helvetica,sans-Serif" font-size="10.00">xstrncmp</text>
</g>
<!-- Node2 -->
<g id="node2" class="node"><title>Node2</title>
<g id="a_node2"><a xlink:href="_p_d_a_q_2_core_2_source_2xml_parser_8cpp.xhtml#acf103e2756ced6c7d3f14f38f198c920" target="_top" xlink:title="GetNextToken">
<polygon fill="white" stroke="black" points="117,-76.5 117,-95.5 197,-95.5 197,-76.5 117,-76.5"/>
<text text-anchor="middle" x="157" y="-83.5" font-family="Helvetica,sans-Serif" font-size="10.00">GetNextToken</text>
</a>
</g>
</g>
<!-- Node1&#45;&gt;Node2 -->
<g id="edge1" class="edge"><title>Node1&#45;&gt;Node2</title>
<path fill="none" stroke="midnightblue" d="M67.3383,-59.2608C85.4983,-64.7376 107.09,-71.2492 124.418,-76.4754"/>
<polygon fill="midnightblue" stroke="midnightblue" points="68.2359,-55.8758 57.6512,-56.3393 66.2147,-62.5777 68.2359,-55.8758"/>
</g>
<!-- Node4 -->
<g id="node4" class="node"><title>Node4</title>
<g id="a_node4"><a xlink:href="_p_d_a_q_2_core_2_source_2xml_parser_8cpp.xhtml#ad9a5c911a8e21bb89427d29d33e2797e" target="_top" xlink:title="myIsTextWideChar">
<polygon fill="white" stroke="black" points="106.5,-38.5 106.5,-57.5 207.5,-57.5 207.5,-38.5 106.5,-38.5"/>
<text text-anchor="middle" x="157" y="-45.5" font-family="Helvetica,sans-Serif" font-size="10.00">myIsTextWideChar</text>
</a>
</g>
</g>
<!-- Node1&#45;&gt;Node4 -->
<g id="edge3" class="edge"><title>Node1&#45;&gt;Node4</title>
<path fill="none" stroke="midnightblue" d="M67.8455,-48C79.944,-48 93.5234,-48 106.332,-48"/>
<polygon fill="midnightblue" stroke="midnightblue" points="67.6513,-44.5001 57.6512,-48 67.6512,-51.5001 67.6513,-44.5001"/>
</g>
<!-- Node5 -->
<g id="node5" class="node"><title>Node5</title>
<g id="a_node5"><a xlink:href="_p_d_a_q_2_core_2_source_2xml_parser_8cpp.xhtml#ad7ec02a171e7641c1d364d5d367199a3" target="_top" xlink:title="myWideCharToMultiByte">
<polygon fill="white" stroke="black" points="94,-0.5 94,-19.5 220,-19.5 220,-0.5 94,-0.5"/>
<text text-anchor="middle" x="157" y="-7.5" font-family="Helvetica,sans-Serif" font-size="10.00">myWideCharToMultiByte</text>
</a>
</g>
</g>
<!-- Node1&#45;&gt;Node5 -->
<g id="edge4" class="edge"><title>Node1&#45;&gt;Node5</title>
<path fill="none" stroke="midnightblue" d="M67.3383,-36.7392C85.4983,-31.2624 107.09,-24.7508 124.418,-19.5246"/>
<polygon fill="midnightblue" stroke="midnightblue" points="66.2147,-33.4223 57.6512,-39.6607 68.2359,-40.1242 66.2147,-33.4223"/>
</g>
<!-- Node3 -->
<g id="node3" class="node"><title>Node3</title>
<g id="a_node3"><a xlink:href="_p_d_a_q_2_core_2_source_2xml_parser_8cpp.xhtml#a8415cb910267a0487e1003a34069d012" target="_top" xlink:title="myRealloc">
<polygon fill="white" stroke="black" points="256.5,-76.5 256.5,-95.5 319.5,-95.5 319.5,-76.5 256.5,-76.5"/>
<text text-anchor="middle" x="288" y="-83.5" font-family="Helvetica,sans-Serif" font-size="10.00">myRealloc</text>
</a>
</g>
</g>
<!-- Node2&#45;&gt;Node3 -->
<g id="edge2" class="edge"><title>Node2&#45;&gt;Node3</title>
<path fill="none" stroke="midnightblue" d="M207.111,-86C223.628,-86 241.574,-86 256.265,-86"/>
<polygon fill="midnightblue" stroke="midnightblue" points="207.054,-82.5001 197.054,-86 207.054,-89.5001 207.054,-82.5001"/>
</g>
</g>
</svg>
