<?xml version="1.0" encoding="UTF-8" standalone="no"?>
<!DOCTYPE svg PUBLIC "-//W3C//DTD SVG 1.1//EN"
 "http://www.w3.org/Graphics/SVG/1.1/DTD/svg11.dtd">
<!-- Generated by graphviz version 2.36.0 (20140111.2315)
 -->
<!-- Title: xstrcpy Pages: 1 -->
<svg width="220pt" height="142pt"
 viewBox="0.00 0.00 220.00 142.00" xmlns="http://www.w3.org/2000/svg" xmlns:xlink="http://www.w3.org/1999/xlink">
<g id="graph0" class="graph" transform="scale(1 1) rotate(0) translate(4 138)">
<title>xstrcpy</title>
<polygon fill="white" stroke="none" points="-4,4 -4,-138 216,-138 216,4 -4,4"/>
<!-- Node1 -->
<g id="node1" class="node"><title>Node1</title>
<polygon fill="#bfbfbf" stroke="black" points="0.5,-57.5 0.5,-76.5 49.5,-76.5 49.5,-57.5 0.5,-57.5"/>
<text text-anchor="middle" x="25" y="-64.5" font-family="Helvetica,sans-Serif" font-size="10.00">xstrcpy</text>
</g>
<!-- Node2 -->
<g id="node2" class="node"><title>Node2</title>
<g id="a_node2"><a xlink:href="_p_d_a_q_2_core_2_source_2xml_parser_8cpp.xhtml#a9a625f17c09a36e3ad532cdf16072609" target="_top" xlink:title="charmemset">
<polygon fill="white" stroke="black" points="113.5,-114.5 113.5,-133.5 184.5,-133.5 184.5,-114.5 113.5,-114.5"/>
<text text-anchor="middle" x="149" y="-121.5" font-family="Helvetica,sans-Serif" font-size="10.00">charmemset</text>
</a>
</g>
</g>
<!-- Node1&#45;&gt;Node2 -->
<g id="edge1" class="edge"><title>Node1&#45;&gt;Node2</title>
<path fill="none" stroke="midnightblue" d="M47.0074,-82.2605C58.1787,-89.8619 72.3871,-98.7409 86,-105 94.592,-108.951 104.221,-112.354 113.281,-115.145"/>
<polygon fill="midnightblue" stroke="midnightblue" points="48.9726,-79.364 38.7687,-76.5127 44.9674,-85.105 48.9726,-79.364"/>
</g>
<!-- Node3 -->
<g id="node3" class="node"><title>Node3</title>
<g id="a_node3"><a xlink:href="_p_d_a_q_2_core_2_source_2xml_parser_8cpp.xhtml#ad9a5c911a8e21bb89427d29d33e2797e" target="_top" xlink:title="myIsTextWideChar">
<polygon fill="white" stroke="black" points="98.5,-76.5 98.5,-95.5 199.5,-95.5 199.5,-76.5 98.5,-76.5"/>
<text text-anchor="middle" x="149" y="-83.5" font-family="Helvetica,sans-Serif" font-size="10.00">myIsTextWideChar</text>
</a>
</g>
</g>
<!-- Node1&#45;&gt;Node3 -->
<g id="edge2" class="edge"><title>Node1&#45;&gt;Node3</title>
<path fill="none" stroke="midnightblue" d="M59.5205,-72.2204C71.4915,-74.0847 85.2475,-76.2271 98.29,-78.2583"/>
<polygon fill="midnightblue" stroke="midnightblue" points="59.9423,-68.744 49.5228,-70.6634 58.8651,-75.6606 59.9423,-68.744"/>
</g>
<!-- Node4 -->
<g id="node4" class="node"><title>Node4</title>
<g id="a_node4"><a xlink:href="_p_d_a_q_2_core_2_source_2xml_parser_8cpp.xhtml#ad7ec02a171e7641c1d364d5d367199a3" target="_top" xlink:title="myWideCharToMultiByte">
<polygon fill="white" stroke="black" points="86,-38.5 86,-57.5 212,-57.5 212,-38.5 86,-38.5"/>
<text text-anchor="middle" x="149" y="-45.5" font-family="Helvetica,sans-Serif" font-size="10.00">myWideCharToMultiByte</text>
</a>
</g>
</g>
<!-- Node1&#45;&gt;Node4 -->
<g id="edge3" class="edge"><title>Node1&#45;&gt;Node4</title>
<path fill="none" stroke="midnightblue" d="M59.6838,-61.7542C68.1293,-60.4389 77.4552,-58.9865 86.7878,-57.5331"/>
<polygon fill="midnightblue" stroke="midnightblue" points="58.8651,-58.3394 49.5228,-63.3366 59.9423,-65.256 58.8651,-58.3394"/>
</g>
<!-- Node5 -->
<g id="node5" class="node"><title>Node5</title>
<g id="a_node5"><a xlink:href="_p_d_a_q_2_core_2_source_2xml_parser_8cpp.xhtml#a454fce17a610e83316f0df2534cd4e08" target="_top" xlink:title="toXMLStringUnSafe">
<polygon fill="white" stroke="black" points="97,-0.5 97,-19.5 201,-19.5 201,-0.5 97,-0.5"/>
<text text-anchor="middle" x="149" y="-7.5" font-family="Helvetica,sans-Serif" font-size="10.00">toXMLStringUnSafe</text>
</a>
</g>
</g>
<!-- Node1&#45;&gt;Node5 -->
<g id="edge4" class="edge"><title>Node1&#45;&gt;Node5</title>
<path fill="none" stroke="midnightblue" d="M47.0074,-51.7395C58.1787,-44.1381 72.3871,-35.2591 86,-29 93.876,-25.3787 102.623,-22.2169 111.005,-19.5658"/>
<polygon fill="midnightblue" stroke="midnightblue" points="44.9674,-48.895 38.7687,-57.4873 48.9726,-54.636 44.9674,-48.895"/>
</g>
</g>
</svg>
