<?xml version="1.0" encoding="UTF-8" standalone="no"?>
<!DOCTYPE svg PUBLIC "-//W3C//DTD SVG 1.1//EN"
 "http://www.w3.org/Graphics/SVG/1.1/DTD/svg11.dtd">
<!-- Generated by graphviz version 2.36.0 (20140111.2315)
 -->
<!-- Title: _strnicmp Pages: 1 -->
<!--zoomable 750 -->
<svg id="main" version="1.1" xmlns="http://www.w3.org/2000/svg" xmlns:xlink="http://www.w3.org/1999/xlink" xml:space="preserve" onload="init(evt)">
<style type="text/css"><![CDATA[
.edge:hover path { stroke: red; }
.edge:hover polygon { stroke: red; fill: red; }
]]></style>
<script type="text/javascript"><![CDATA[
var edges = document.getElementsByTagName('g');
if (edges && edges.length) {
  for (var i=0;i<edges.length;i++) {
    if (edges[i].id.substr(0,4)=='edge') {
      edges[i].setAttribute('class','edge');
    }
  }
}
]]></script>
        <defs>
                <circle id="rim" cx="0" cy="0" r="7"/>
                <circle id="rim2" cx="0" cy="0" r="3.5"/>
                <g id="zoomPlus">
                        <use xlink:href="#rim" fill="#404040">
                                <set attributeName="fill" to="#808080" begin="zoomplus.mouseover" end="zoomplus.mouseout"/>
                        </use>
                        <path d="M-4,0h8M0,-4v8" fill="none" stroke="white" stroke-width="1.5" pointer-events="none"/>
                </g>
                <g id="zoomMin">
                        <use xlink:href="#rim" fill="#404040">
                                <set attributeName="fill" to="#808080" begin="zoomminus.mouseover" end="zoomminus.mouseout"/>
                        </use>
                        <path d="M-4,0h8" fill="none" stroke="white" stroke-width="1.5" pointer-events="none"/>
                </g>
                <g id="dirArrow">
                        <path fill="none" stroke="white" stroke-width="1.5" d="M0,-3.0v7 M-2.5,-0.5L0,-3.0L2.5,-0.5"/>
                </g>
               <g id="resetDef">
                       <use xlink:href="#rim2" fill="#404040">
                               <set attributeName="fill" to="#808080" begin="reset.mouseover" end="reset.mouseout"/>
                       </use>
               </g>
        </defs>

<script type="text/javascript">
var viewWidth = 848;
var viewHeight = 750;
var sectionId = 'dynsection-1';
</script>
<script xlink:href="svgpan.js"/>
<svg id="graph" class="graph">
<g id="viewport">
<title>_strnicmp</title>
<polygon fill="white" stroke="none" points="-4,4 -4,-746 844,-746 844,4 -4,4"/>
<!-- Node1 -->
<g id="node1" class="node"><title>Node1</title>
<polygon fill="#bfbfbf" stroke="black" points="0.5,-323.5 0.5,-342.5 59.5,-342.5 59.5,-323.5 0.5,-323.5"/>
<text text-anchor="middle" x="30" y="-330.5" font-family="Helvetica,sans-Serif" font-size="10.00">_strnicmp</text>
</g>
<!-- Node2 -->
<g id="node2" class="node"><title>Node2</title>
<g id="a_node2"><a xlink:href="struct_x_m_l_node.xhtml#a4496629c7a268db5435946c7bdd4eb28" target="_top" xlink:title="XMLNode::getError">
<polygon fill="white" stroke="black" points="290.5,-380.5 290.5,-399.5 391.5,-399.5 391.5,-380.5 290.5,-380.5"/>
<text text-anchor="middle" x="341" y="-387.5" font-family="Helvetica,sans-Serif" font-size="10.00">XMLNode::getError</text>
</a>
</g>
</g>
<!-- Node1&#45;&gt;Node2 -->
<g id="edge1" class="edge"><title>Node1&#45;&gt;Node2</title>
<path fill="none" stroke="midnightblue" d="M43.6182,-342.73C56.1496,-351.801 76.2899,-364.83 96,-371 156.697,-390 229.835,-393.277 280.113,-392.722"/>
<polygon fill="midnightblue" stroke="midnightblue" points="280.226,-396.22 290.167,-392.556 280.111,-389.221 280.226,-396.22"/>
</g>
<!-- Node14 -->
<g id="node14" class="node"><title>Node14</title>
<g id="a_node14"><a xlink:href="struct_x_m_l_node.xhtml#ac7af7e3bab8d21722dd4f191a4aa7c1d" target="_top" xlink:title="XMLNode::guessCharEncoding">
<polygon fill="white" stroke="black" points="264,-513.5 264,-532.5 418,-532.5 418,-513.5 264,-513.5"/>
<text text-anchor="middle" x="341" y="-520.5" font-family="Helvetica,sans-Serif" font-size="10.00">XMLNode::guessCharEncoding</text>
</a>
</g>
</g>
<!-- Node1&#45;&gt;Node14 -->
<g id="edge20" class="edge"><title>Node1&#45;&gt;Node14</title>
<path fill="none" stroke="midnightblue" d="M39.5426,-342.692C51.3401,-355.694 73.7004,-378.997 96,-395 166.356,-445.489 259.221,-488.578 307.579,-509.487"/>
<polygon fill="midnightblue" stroke="midnightblue" points="306.348,-512.767 316.918,-513.487 309.104,-506.332 306.348,-512.767"/>
</g>
<!-- Node15 -->
<g id="node15" class="node"><title>Node15</title>
<g id="a_node15"><a xlink:href="struct_x_m_l_node.xhtml#acc044148e2b9b8264a320b7b6e398158" target="_top" xlink:title="XMLNode::openFileHelper">
<polygon fill="white" stroke="black" points="96.5,-342.5 96.5,-361.5 227.5,-361.5 227.5,-342.5 96.5,-342.5"/>
<text text-anchor="middle" x="162" y="-349.5" font-family="Helvetica,sans-Serif" font-size="10.00">XMLNode::openFileHelper</text>
</a>
</g>
</g>
<!-- Node1&#45;&gt;Node15 -->
<g id="edge24" class="edge"><title>Node1&#45;&gt;Node15</title>
<path fill="none" stroke="midnightblue" d="M59.5291,-337.17C67.628,-338.353 76.8438,-339.7 86.341,-341.088"/>
<polygon fill="midnightblue" stroke="midnightblue" points="85.9039,-344.562 96.305,-342.545 86.9163,-337.635 85.9039,-344.562"/>
</g>
<!-- Node16 -->
<g id="node16" class="node"><title>Node16</title>
<g id="a_node16"><a xlink:href="struct_x_m_l_node.xhtml#a006cabe59176e05bc5a3f06c0cf6d8c1" target="_top" xlink:title="XMLNode::setGlobalOptions">
<polygon fill="white" stroke="black" points="270.5,-266.5 270.5,-285.5 411.5,-285.5 411.5,-266.5 270.5,-266.5"/>
<text text-anchor="middle" x="341" y="-273.5" font-family="Helvetica,sans-Serif" font-size="10.00">XMLNode::setGlobalOptions</text>
</a>
</g>
</g>
<!-- Node1&#45;&gt;Node16 -->
<g id="edge45" class="edge"><title>Node1&#45;&gt;Node16</title>
<path fill="none" stroke="midnightblue" d="M59.6929,-325.446C70.9681,-322.607 84.0502,-319.471 96,-317 152.453,-305.326 216.773,-294.624 265.198,-287.083"/>
<polygon fill="midnightblue" stroke="midnightblue" points="265.934,-290.511 275.281,-285.523 264.864,-283.594 265.934,-290.511"/>
</g>
<!-- Node17 -->
<g id="node17" class="node"><title>Node17</title>
<g id="a_node17"><a xlink:href="struct_x_m_l_node.xhtml#a5e5968e052d58350918cd91e3535624b" target="_top" xlink:title="XMLNode::parseFile">
<polygon fill="white" stroke="black" points="288,-304.5 288,-323.5 394,-323.5 394,-304.5 288,-304.5"/>
<text text-anchor="middle" x="341" y="-311.5" font-family="Helvetica,sans-Serif" font-size="10.00">XMLNode::parseFile</text>
</a>
</g>
</g>
<!-- Node1&#45;&gt;Node17 -->
<g id="edge44" class="edge"><title>Node1&#45;&gt;Node17</title>
<path fill="none" stroke="midnightblue" d="M59.5161,-331.247C108.798,-328.216 210.996,-321.932 277.474,-317.845"/>
<polygon fill="midnightblue" stroke="midnightblue" points="278.056,-321.316 287.823,-317.208 277.627,-314.329 278.056,-321.316"/>
</g>
<!-- Node26 -->
<g id="node26" class="node"><title>Node26</title>
<g id="a_node26"><a xlink:href="_p_d_a_q_2_core_2_source_2xml_parser_8cpp.xhtml#a8dd6e6cada28ea03e5cacd075b1be7f6" target="_top" xlink:title="xfopen">
<polygon fill="white" stroke="black" points="139,-228.5 139,-247.5 185,-247.5 185,-228.5 139,-228.5"/>
<text text-anchor="middle" x="162" y="-235.5" font-family="Helvetica,sans-Serif" font-size="10.00">xfopen</text>
</a>
</g>
</g>
<!-- Node1&#45;&gt;Node26 -->
<g id="edge46" class="edge"><title>Node1&#45;&gt;Node26</title>
<path fill="none" stroke="midnightblue" d="M37.4757,-323.38C48.0637,-308.325 70.4761,-279.149 96,-262 106.015,-255.271 118.159,-250.131 129.228,-246.368"/>
<polygon fill="midnightblue" stroke="midnightblue" points="130.51,-249.633 138.998,-243.292 128.409,-242.956 130.51,-249.633"/>
</g>
<!-- Node3 -->
<g id="node3" class="node"><title>Node3</title>
<g id="a_node3"><a xlink:href="_c_d_a_q_2_plugins_2_source_2xml_parser_8cpp.xhtml#ad9a5c911a8e21bb89427d29d33e2797e" target="_top" xlink:title="myIsTextWideChar">
<polygon fill="white" stroke="black" points="461.5,-513.5 461.5,-532.5 562.5,-532.5 562.5,-513.5 461.5,-513.5"/>
<text text-anchor="middle" x="512" y="-520.5" font-family="Helvetica,sans-Serif" font-size="10.00">myIsTextWideChar</text>
</a>
</g>
</g>
<!-- Node2&#45;&gt;Node3 -->
<g id="edge2" class="edge"><title>Node2&#45;&gt;Node3</title>
<path fill="none" stroke="midnightblue" d="M354.154,-399.565C382.76,-422.078 454.607,-478.62 490.263,-506.68"/>
<polygon fill="midnightblue" stroke="midnightblue" points="488.477,-509.729 498.5,-513.163 492.806,-504.228 488.477,-509.729"/>
</g>
<!-- Node4 -->
<g id="node4" class="node"><title>Node4</title>
<g id="a_node4"><a xlink:href="_c_d_a_q_2_plugins_2_source_2xml_parser_8cpp.xhtml#af77e3e2685487b9c492b20c36f3b864a" target="_top" xlink:title="_strnicmp">
<polygon fill="white" stroke="black" points="639.5,-684.5 639.5,-703.5 698.5,-703.5 698.5,-684.5 639.5,-684.5"/>
<text text-anchor="middle" x="669" y="-691.5" font-family="Helvetica,sans-Serif" font-size="10.00">_strnicmp</text>
</a>
</g>
</g>
<!-- Node3&#45;&gt;Node4 -->
<g id="edge3" class="edge"><title>Node3&#45;&gt;Node4</title>
<path fill="none" stroke="midnightblue" d="M518.68,-532.743C536.917,-563.911 593.519,-659.74 606,-670 612.997,-675.751 621.529,-680.232 629.999,-683.68"/>
<polygon fill="midnightblue" stroke="midnightblue" points="628.855,-686.989 639.449,-687.147 631.267,-680.417 628.855,-686.989"/>
</g>
<!-- Node5 -->
<g id="node5" class="node"><title>Node5</title>
<g id="a_node5"><a xlink:href="_c_d_a_q_2_plugins_2_source_2xml_parser_8cpp.xhtml#ae4635e3ac4b32772021240a9c16864ee" target="_top" xlink:title="mmin">
<polygon fill="white" stroke="black" points="648.5,-722.5 648.5,-741.5 689.5,-741.5 689.5,-722.5 648.5,-722.5"/>
<text text-anchor="middle" x="669" y="-729.5" font-family="Helvetica,sans-Serif" font-size="10.00">mmin</text>
</a>
</g>
</g>
<!-- Node3&#45;&gt;Node5 -->
<g id="edge4" class="edge"><title>Node3&#45;&gt;Node5</title>
<path fill="none" stroke="midnightblue" d="M514.861,-532.545C521.397,-563.489 546.218,-661.98 606,-713 615.113,-720.778 627.364,-725.372 638.569,-728.086"/>
<polygon fill="midnightblue" stroke="midnightblue" points="637.949,-731.532 648.445,-730.087 639.339,-724.671 637.949,-731.532"/>
</g>
<!-- Node6 -->
<g id="node6" class="node"><title>Node6</title>
<g id="a_node6"><a xlink:href="_c_d_a_q_2_plugins_2_source_2xml_parser_8cpp.xhtml#ad7ec02a171e7641c1d364d5d367199a3" target="_top" xlink:title="myWideCharToMultiByte">
<polygon fill="white" stroke="black" points="606,-494.5 606,-513.5 732,-513.5 732,-494.5 606,-494.5"/>
<text text-anchor="middle" x="669" y="-501.5" font-family="Helvetica,sans-Serif" font-size="10.00">myWideCharToMultiByte</text>
</a>
</g>
</g>
<!-- Node3&#45;&gt;Node6 -->
<g id="edge5" class="edge"><title>Node3&#45;&gt;Node6</title>
<path fill="none" stroke="midnightblue" d="M562.896,-516.884C573.398,-515.596 584.679,-514.214 595.812,-512.849"/>
<polygon fill="midnightblue" stroke="midnightblue" points="596.469,-516.295 605.969,-511.604 595.617,-509.347 596.469,-516.295"/>
</g>
<!-- Node7 -->
<g id="node7" class="node"><title>Node7</title>
<g id="a_node7"><a xlink:href="_c_d_a_q_2_plugins_2_source_2xml_parser_8cpp.xhtml#a8dd6e6cada28ea03e5cacd075b1be7f6" target="_top" xlink:title="xfopen">
<polygon fill="white" stroke="black" points="781,-361.5 781,-380.5 827,-380.5 827,-361.5 781,-361.5"/>
<text text-anchor="middle" x="804" y="-368.5" font-family="Helvetica,sans-Serif" font-size="10.00">xfopen</text>
</a>
</g>
</g>
<!-- Node3&#45;&gt;Node7 -->
<g id="edge13" class="edge"><title>Node3&#45;&gt;Node7</title>
<path fill="none" stroke="midnightblue" d="M526.506,-513.454C544.291,-501.08 576.739,-479.173 606,-463 662.8,-431.605 732.162,-400.884 771.594,-384.091"/>
<polygon fill="midnightblue" stroke="midnightblue" points="773.104,-387.253 780.948,-380.13 770.375,-380.807 773.104,-387.253"/>
</g>
<!-- Node8 -->
<g id="node8" class="node"><title>Node8</title>
<g id="a_node8"><a xlink:href="_c_d_a_q_2_plugins_2_source_2xml_parser_8cpp.xhtml#a73c2349b2f386ee50130a3961bd2dbab" target="_top" xlink:title="xstrcpy">
<polygon fill="white" stroke="black" points="779.5,-553.5 779.5,-572.5 828.5,-572.5 828.5,-553.5 779.5,-553.5"/>
<text text-anchor="middle" x="804" y="-560.5" font-family="Helvetica,sans-Serif" font-size="10.00">xstrcpy</text>
</a>
</g>
</g>
<!-- Node3&#45;&gt;Node8 -->
<g id="edge14" class="edge"><title>Node3&#45;&gt;Node8</title>
<path fill="none" stroke="midnightblue" d="M562.64,-532.005C576.64,-534.418 591.898,-536.929 606,-539 663.143,-547.391 729.919,-555.084 769.211,-559.395"/>
<polygon fill="midnightblue" stroke="midnightblue" points="768.977,-562.89 779.297,-560.493 769.735,-555.931 768.977,-562.89"/>
</g>
<!-- Node9 -->
<g id="node9" class="node"><title>Node9</title>
<g id="a_node9"><a xlink:href="_c_d_a_q_2_plugins_2_source_2xml_parser_8cpp.xhtml#a2e64ea95685df2d289c31a50419b532d" target="_top" xlink:title="xstricmp">
<polygon fill="white" stroke="black" points="777,-256.5 777,-275.5 831,-275.5 831,-256.5 777,-256.5"/>
<text text-anchor="middle" x="804" y="-263.5" font-family="Helvetica,sans-Serif" font-size="10.00">xstricmp</text>
</a>
</g>
</g>
<!-- Node3&#45;&gt;Node9 -->
<g id="edge15" class="edge"><title>Node3&#45;&gt;Node9</title>
<path fill="none" stroke="midnightblue" d="M518.553,-513.27C531.662,-490.868 566.422,-434.684 606,-397 659.562,-346.001 735.239,-301.934 775.421,-280.279"/>
<polygon fill="midnightblue" stroke="midnightblue" points="777.191,-283.302 784.371,-275.511 773.9,-277.124 777.191,-283.302"/>
</g>
<!-- Node10 -->
<g id="node10" class="node"><title>Node10</title>
<g id="a_node10"><a xlink:href="_c_d_a_q_2_plugins_2_source_2xml_parser_8cpp.xhtml#a49fa66f65d2d28ce7b7e0b1752425915" target="_top" xlink:title="xstrlen">
<polygon fill="white" stroke="black" points="781,-456.5 781,-475.5 827,-475.5 827,-456.5 781,-456.5"/>
<text text-anchor="middle" x="804" y="-463.5" font-family="Helvetica,sans-Serif" font-size="10.00">xstrlen</text>
</a>
</g>
</g>
<!-- Node3&#45;&gt;Node10 -->
<g id="edge16" class="edge"><title>Node3&#45;&gt;Node10</title>
<path fill="none" stroke="midnightblue" d="M531.689,-513.461C550.09,-504.532 579.245,-491.605 606,-485 662.836,-470.969 731.279,-467.199 770.704,-466.246"/>
<polygon fill="midnightblue" stroke="midnightblue" points="770.855,-469.744 780.785,-466.049 770.718,-462.745 770.855,-469.744"/>
</g>
<!-- Node11 -->
<g id="node11" class="node"><title>Node11</title>
<g id="a_node11"><a xlink:href="_c_d_a_q_2_plugins_2_source_2xml_parser_8cpp.xhtml#a3165858f70cd74ffab31ebc2ddc9e104" target="_top" xlink:title="xstrncmp">
<polygon fill="white" stroke="black" points="775.5,-496.5 775.5,-515.5 832.5,-515.5 832.5,-496.5 775.5,-496.5"/>
<text text-anchor="middle" x="804" y="-503.5" font-family="Helvetica,sans-Serif" font-size="10.00">xstrncmp</text>
</a>
</g>
</g>
<!-- Node3&#45;&gt;Node11 -->
<g id="edge17" class="edge"><title>Node3&#45;&gt;Node11</title>
<path fill="none" stroke="midnightblue" d="M562.772,-526.312C607.287,-528.488 674.229,-529.82 732,-523 742.97,-521.705 754.699,-519.322 765.399,-516.741"/>
<polygon fill="midnightblue" stroke="midnightblue" points="766.451,-520.085 775.284,-514.235 764.731,-513.3 766.451,-520.085"/>
</g>
<!-- Node12 -->
<g id="node12" class="node"><title>Node12</title>
<g id="a_node12"><a xlink:href="_c_d_a_q_2_plugins_2_source_2xml_parser_8cpp.xhtml#a17c9570640aed10b61deec9047cb0940" target="_top" xlink:title="xstrnicmp">
<polygon fill="white" stroke="black" points="774.5,-643.5 774.5,-662.5 833.5,-662.5 833.5,-643.5 774.5,-643.5"/>
<text text-anchor="middle" x="804" y="-650.5" font-family="Helvetica,sans-Serif" font-size="10.00">xstrnicmp</text>
</a>
</g>
</g>
<!-- Node3&#45;&gt;Node12 -->
<g id="edge18" class="edge"><title>Node3&#45;&gt;Node12</title>
<path fill="none" stroke="midnightblue" d="M523.988,-532.708C540.665,-547.007 573.837,-573.787 606,-590 658.172,-616.299 723.607,-634.618 764.369,-644.476"/>
<polygon fill="midnightblue" stroke="midnightblue" points="763.64,-647.9 774.178,-646.8 765.254,-641.089 763.64,-647.9"/>
</g>
<!-- Node13 -->
<g id="node13" class="node"><title>Node13</title>
<g id="a_node13"><a xlink:href="_c_d_a_q_2_plugins_2_source_2xml_parser_8cpp.xhtml#a696ca59a310359980c57de039f137697" target="_top" xlink:title="xstrstr">
<polygon fill="white" stroke="black" points="782,-600.5 782,-619.5 826,-619.5 826,-600.5 782,-600.5"/>
<text text-anchor="middle" x="804" y="-607.5" font-family="Helvetica,sans-Serif" font-size="10.00">xstrstr</text>
</a>
</g>
</g>
<!-- Node3&#45;&gt;Node13 -->
<g id="edge19" class="edge"><title>Node3&#45;&gt;Node13</title>
<path fill="none" stroke="midnightblue" d="M534.877,-532.642C553.539,-540.638 581.206,-551.959 606,-560 663.649,-578.696 732.617,-594.811 771.767,-603.393"/>
<polygon fill="midnightblue" stroke="midnightblue" points="771.237,-606.86 781.752,-605.56 772.721,-600.019 771.237,-606.86"/>
</g>
<!-- Node6&#45;&gt;Node7 -->
<g id="edge6" class="edge"><title>Node6&#45;&gt;Node7</title>
<path fill="none" stroke="midnightblue" d="M679.565,-494.435C701.887,-472.113 757.664,-416.336 785.961,-388.039"/>
<polygon fill="midnightblue" stroke="midnightblue" points="788.567,-390.383 793.163,-380.837 783.617,-385.433 788.567,-390.383"/>
</g>
<!-- Node6&#45;&gt;Node8 -->
<g id="edge7" class="edge"><title>Node6&#45;&gt;Node8</title>
<path fill="none" stroke="midnightblue" d="M691.665,-513.611C713.499,-523.296 747.403,-538.336 772.063,-549.276"/>
<polygon fill="midnightblue" stroke="midnightblue" points="770.784,-552.538 781.345,-553.393 773.623,-546.139 770.784,-552.538"/>
</g>
<!-- Node6&#45;&gt;Node9 -->
<g id="edge8" class="edge"><title>Node6&#45;&gt;Node9</title>
<path fill="none" stroke="midnightblue" d="M675.378,-494.375C695.387,-458.571 765.74,-332.676 792.532,-284.732"/>
<polygon fill="midnightblue" stroke="midnightblue" points="795.732,-286.181 797.555,-275.744 789.621,-282.766 795.732,-286.181"/>
</g>
<!-- Node6&#45;&gt;Node10 -->
<g id="edge9" class="edge"><title>Node6&#45;&gt;Node10</title>
<path fill="none" stroke="midnightblue" d="M703.562,-494.411C724.233,-488.505 750.584,-480.976 770.966,-475.153"/>
<polygon fill="midnightblue" stroke="midnightblue" points="772.076,-478.476 780.729,-472.363 770.153,-471.745 772.076,-478.476"/>
</g>
<!-- Node6&#45;&gt;Node11 -->
<g id="edge10" class="edge"><title>Node6&#45;&gt;Node11</title>
<path fill="none" stroke="midnightblue" d="M732.217,-504.936C743.456,-505.105 754.86,-505.276 765.136,-505.431"/>
<polygon fill="midnightblue" stroke="midnightblue" points="765.33,-508.934 775.382,-505.585 765.436,-501.935 765.33,-508.934"/>
</g>
<!-- Node6&#45;&gt;Node12 -->
<g id="edge11" class="edge"><title>Node6&#45;&gt;Node12</title>
<path fill="none" stroke="midnightblue" d="M676.029,-513.579C690.216,-535.646 727.576,-591.078 768,-629 771.204,-632.006 774.814,-634.913 778.467,-637.605"/>
<polygon fill="midnightblue" stroke="midnightblue" points="776.684,-640.628 786.899,-643.44 780.668,-634.872 776.684,-640.628"/>
</g>
<!-- Node6&#45;&gt;Node13 -->
<g id="edge12" class="edge"><title>Node6&#45;&gt;Node13</title>
<path fill="none" stroke="midnightblue" d="M682.274,-513.782C705.236,-532.083 754.886,-571.653 782.833,-593.927"/>
<polygon fill="midnightblue" stroke="midnightblue" points="780.754,-596.746 790.756,-600.241 785.117,-591.272 780.754,-596.746"/>
</g>
<!-- Node14&#45;&gt;Node3 -->
<g id="edge21" class="edge"><title>Node14&#45;&gt;Node3</title>
<path fill="none" stroke="midnightblue" d="M418.095,-523C429.249,-523 440.601,-523 451.361,-523"/>
<polygon fill="midnightblue" stroke="midnightblue" points="451.472,-526.5 461.472,-523 451.472,-519.5 451.472,-526.5"/>
</g>
<!-- Node14&#45;&gt;Node4 -->
<g id="edge23" class="edge"><title>Node14&#45;&gt;Node4</title>
<path fill="none" stroke="midnightblue" d="M360.461,-532.684C415.039,-561.312 575.849,-645.663 640.562,-679.608"/>
<polygon fill="midnightblue" stroke="midnightblue" points="639.26,-682.877 649.741,-684.423 642.511,-676.678 639.26,-682.877"/>
</g>
<!-- Node14&#45;&gt;Node5 -->
<g id="edge22" class="edge"><title>Node14&#45;&gt;Node5</title>
<path fill="none" stroke="midnightblue" d="M351.313,-532.624C369.826,-551.468 413.009,-594.002 454,-624 517.175,-670.232 534.315,-681.541 606,-713 616.283,-717.513 627.966,-721.393 638.396,-724.449"/>
<polygon fill="midnightblue" stroke="midnightblue" points="637.738,-727.899 648.311,-727.223 639.624,-721.158 637.738,-727.899"/>
</g>
<!-- Node15&#45;&gt;Node2 -->
<g id="edge43" class="edge"><title>Node15&#45;&gt;Node2</title>
<path fill="none" stroke="midnightblue" d="M207.665,-361.589C231.337,-366.671 260.608,-372.955 285.597,-378.32"/>
<polygon fill="midnightblue" stroke="midnightblue" points="285.145,-381.803 295.657,-380.48 286.614,-374.959 285.145,-381.803"/>
</g>
<!-- Node15&#45;&gt;Node7 -->
<g id="edge25" class="edge"><title>Node15&#45;&gt;Node7</title>
<path fill="none" stroke="midnightblue" d="M227.592,-353.918C362.638,-357.927 670.624,-367.07 770.84,-370.045"/>
<polygon fill="midnightblue" stroke="midnightblue" points="770.849,-373.547 780.948,-370.345 771.057,-366.55 770.849,-373.547"/>
</g>
<!-- Node15&#45;&gt;Node14 -->
<g id="edge27" class="edge"><title>Node15&#45;&gt;Node14</title>
<path fill="none" stroke="midnightblue" d="M173.023,-361.684C201.987,-389.665 286.052,-470.881 322.643,-506.232"/>
<polygon fill="midnightblue" stroke="midnightblue" points="320.463,-508.992 330.087,-513.423 325.326,-503.957 320.463,-508.992"/>
</g>
<!-- Node15&#45;&gt;Node16 -->
<g id="edge26" class="edge"><title>Node15&#45;&gt;Node16</title>
<path fill="none" stroke="midnightblue" d="M177.106,-342.411C196.091,-329.894 231.27,-308.049 264,-295 270.281,-292.496 276.989,-290.247 283.721,-288.25"/>
<polygon fill="midnightblue" stroke="midnightblue" points="284.866,-291.565 293.555,-285.503 282.982,-284.823 284.866,-291.565"/>
</g>
<!-- Node15&#45;&gt;Node17 -->
<g id="edge28" class="edge"><title>Node15&#45;&gt;Node17</title>
<path fill="none" stroke="midnightblue" d="M207.665,-342.411C231.337,-337.329 260.608,-331.045 285.597,-325.68"/>
<polygon fill="midnightblue" stroke="midnightblue" points="286.614,-329.041 295.657,-323.52 285.145,-322.197 286.614,-329.041"/>
</g>
<!-- Node17&#45;&gt;Node3 -->
<g id="edge30" class="edge"><title>Node17&#45;&gt;Node3</title>
<path fill="none" stroke="midnightblue" d="M358.248,-323.608C374.678,-333.877 400.131,-351.358 418,-371 456.363,-413.168 487.684,-473.386 502.224,-503.82"/>
<polygon fill="midnightblue" stroke="midnightblue" points="499.237,-505.696 506.651,-513.265 505.575,-502.725 499.237,-505.696"/>
</g>
<!-- Node17&#45;&gt;Node6 -->
<g id="edge31" class="edge"><title>Node17&#45;&gt;Node6</title>
<path fill="none" stroke="midnightblue" d="M358.615,-323.683C411.916,-354.748 578.851,-452.042 642.763,-489.291"/>
<polygon fill="midnightblue" stroke="midnightblue" points="641.017,-492.325 651.419,-494.336 644.542,-486.277 641.017,-492.325"/>
</g>
<!-- Node17&#45;&gt;Node7 -->
<g id="edge29" class="edge"><title>Node17&#45;&gt;Node7</title>
<path fill="none" stroke="midnightblue" d="M394.181,-306.823C486.02,-295.063 672.457,-275.336 732,-300 757.547,-310.582 778.694,-335.31 791.086,-352.59"/>
<polygon fill="midnightblue" stroke="midnightblue" points="788.504,-355.014 797.042,-361.287 794.279,-351.059 788.504,-355.014"/>
</g>
<!-- Node18 -->
<g id="node18" class="node"><title>Node18</title>
<g id="a_node18"><a xlink:href="struct_x_m_l_node.xhtml#acb95f4f00e4cf3756aac0e3a53765248" target="_top" xlink:title="XMLNode::parseString">
<polygon fill="white" stroke="black" points="454,-152.5 454,-171.5 570,-171.5 570,-152.5 454,-152.5"/>
<text text-anchor="middle" x="512" y="-159.5" font-family="Helvetica,sans-Serif" font-size="10.00">XMLNode::parseString</text>
</a>
</g>
</g>
<!-- Node17&#45;&gt;Node18 -->
<g id="edge32" class="edge"><title>Node17&#45;&gt;Node18</title>
<path fill="none" stroke="midnightblue" d="M394.025,-306.296C402.495,-303.59 410.83,-299.935 418,-295 460.376,-265.836 489.612,-210.621 502.896,-181.348"/>
<polygon fill="midnightblue" stroke="midnightblue" points="506.257,-182.398 507.063,-171.834 499.845,-179.589 506.257,-182.398"/>
</g>
<!-- Node18&#45;&gt;Node9 -->
<g id="edge39" class="edge"><title>Node18&#45;&gt;Node9</title>
<path fill="none" stroke="midnightblue" d="M570.305,-155.346C616.548,-152.612 681.919,-154.882 732,-181 760.423,-195.823 781.938,-227.39 793.488,-247.605"/>
<polygon fill="midnightblue" stroke="midnightblue" points="790.478,-249.395 798.344,-256.493 796.621,-246.039 790.478,-249.395"/>
</g>
<!-- Node18&#45;&gt;Node10 -->
<g id="edge38" class="edge"><title>Node18&#45;&gt;Node10</title>
<path fill="none" stroke="midnightblue" d="M522.32,-171.77C563.995,-215.457 733.537,-393.183 786.863,-449.084"/>
<polygon fill="midnightblue" stroke="midnightblue" points="784.424,-451.598 793.859,-456.418 789.489,-446.766 784.424,-451.598"/>
</g>
<!-- Node19 -->
<g id="node19" class="node"><title>Node19</title>
<g id="a_node19"><a xlink:href="struct_x_m_l_node.xhtml#a8e52198f258167cd796dae21f1ffc352" target="_top" xlink:title="XMLNode::nChildNode">
<polygon fill="white" stroke="black" points="610.5,-190.5 610.5,-209.5 727.5,-209.5 727.5,-190.5 610.5,-190.5"/>
<text text-anchor="middle" x="669" y="-197.5" font-family="Helvetica,sans-Serif" font-size="10.00">XMLNode::nChildNode</text>
</a>
</g>
</g>
<!-- Node18&#45;&gt;Node19 -->
<g id="edge33" class="edge"><title>Node18&#45;&gt;Node19</title>
<path fill="none" stroke="midnightblue" d="M552.113,-171.589C572.475,-176.581 597.566,-182.732 619.189,-188.033"/>
<polygon fill="midnightblue" stroke="midnightblue" points="618.622,-191.498 629.168,-190.48 620.289,-184.699 618.622,-191.498"/>
</g>
<!-- Node20 -->
<g id="node20" class="node"><title>Node20</title>
<g id="a_node20"><a xlink:href="struct_x_m_l_node.xhtml#a8e9538deb9144dcab39b3a510a8202f1" target="_top" xlink:title="XMLNode::nElement">
<polygon fill="white" stroke="black" points="615.5,-114.5 615.5,-133.5 722.5,-133.5 722.5,-114.5 615.5,-114.5"/>
<text text-anchor="middle" x="669" y="-121.5" font-family="Helvetica,sans-Serif" font-size="10.00">XMLNode::nElement</text>
</a>
</g>
</g>
<!-- Node18&#45;&gt;Node20 -->
<g id="edge35" class="edge"><title>Node18&#45;&gt;Node20</title>
<path fill="none" stroke="midnightblue" d="M552.113,-152.411C572.475,-147.419 597.566,-141.268 619.189,-135.967"/>
<polygon fill="midnightblue" stroke="midnightblue" points="620.289,-139.301 629.168,-133.52 618.622,-132.502 620.289,-139.301"/>
</g>
<!-- Node21 -->
<g id="node21" class="node"><title>Node21</title>
<g id="a_node21"><a xlink:href="struct_x_m_l_node.xhtml#a77a21438b6d48a52cf8a1270f82f4475" target="_top" xlink:title="XMLNode::getChildNode">
<polygon fill="white" stroke="black" points="606.5,-76.5 606.5,-95.5 731.5,-95.5 731.5,-76.5 606.5,-76.5"/>
<text text-anchor="middle" x="669" y="-83.5" font-family="Helvetica,sans-Serif" font-size="10.00">XMLNode::getChildNode</text>
</a>
</g>
</g>
<!-- Node18&#45;&gt;Node21 -->
<g id="edge36" class="edge"><title>Node18&#45;&gt;Node21</title>
<path fill="none" stroke="midnightblue" d="M526.267,-152.371C543.793,-140.01 575.962,-118.544 606,-105 611.003,-102.744 616.349,-100.658 621.726,-98.7597"/>
<polygon fill="midnightblue" stroke="midnightblue" points="622.988,-102.028 631.37,-95.5481 620.777,-95.3869 622.988,-102.028"/>
</g>
<!-- Node22 -->
<g id="node22" class="node"><title>Node22</title>
<g id="a_node22"><a xlink:href="struct_x_m_l_node.xhtml#a7e07715aa0ed894da96bd66c90d423f0" target="_top" xlink:title="XMLNode::getName">
<polygon fill="white" stroke="black" points="616,-38.5 616,-57.5 722,-57.5 722,-38.5 616,-38.5"/>
<text text-anchor="middle" x="669" y="-45.5" font-family="Helvetica,sans-Serif" font-size="10.00">XMLNode::getName</text>
</a>
</g>
</g>
<!-- Node18&#45;&gt;Node22 -->
<g id="edge37" class="edge"><title>Node18&#45;&gt;Node22</title>
<path fill="none" stroke="midnightblue" d="M519.776,-152.374C533.718,-133.271 567.553,-90.3978 606,-67 609.419,-64.9195 613.083,-63.0505 616.86,-61.3743"/>
<polygon fill="midnightblue" stroke="midnightblue" points="618.393,-64.5317 626.4,-57.5943 615.814,-58.0238 618.393,-64.5317"/>
</g>
<!-- Node23 -->
<g id="node23" class="node"><title>Node23</title>
<g id="a_node23"><a xlink:href="struct_x_m_l_node.xhtml#a71df27d54a2dc09b0a456406a7e8c6d3" target="_top" xlink:title="XMLNode::isDeclaration">
<polygon fill="white" stroke="black" points="607.5,-228.5 607.5,-247.5 730.5,-247.5 730.5,-228.5 607.5,-228.5"/>
<text text-anchor="middle" x="669" y="-235.5" font-family="Helvetica,sans-Serif" font-size="10.00">XMLNode::isDeclaration</text>
</a>
</g>
</g>
<!-- Node18&#45;&gt;Node23 -->
<g id="edge40" class="edge"><title>Node18&#45;&gt;Node23</title>
<path fill="none" stroke="midnightblue" d="M526.267,-171.629C543.793,-183.99 575.962,-205.456 606,-219 611.003,-221.256 616.349,-223.342 621.726,-225.24"/>
<polygon fill="midnightblue" stroke="midnightblue" points="620.777,-228.613 631.37,-228.452 622.988,-221.972 620.777,-228.613"/>
</g>
<!-- Node24 -->
<g id="node24" class="node"><title>Node24</title>
<g id="a_node24"><a xlink:href="_c_d_a_q_2_plugins_2_source_2xml_parser_8cpp.xhtml#ae6aa5a367ab3cc92b47fd92f81add72a" target="_top" xlink:title="CountLinesAndColumns">
<polygon fill="white" stroke="black" points="608,-0.5 608,-19.5 730,-19.5 730,-0.5 608,-0.5"/>
<text text-anchor="middle" x="669" y="-7.5" font-family="Helvetica,sans-Serif" font-size="10.00">CountLinesAndColumns</text>
</a>
</g>
</g>
<!-- Node18&#45;&gt;Node24 -->
<g id="edge41" class="edge"><title>Node18&#45;&gt;Node24</title>
<path fill="none" stroke="midnightblue" d="M517.041,-152.313C527.754,-127.825 559.294,-62.9806 606,-29 608.64,-27.0793 611.478,-25.3499 614.434,-23.7931"/>
<polygon fill="midnightblue" stroke="midnightblue" points="615.935,-26.9557 623.581,-19.6221 613.03,-20.5866 615.935,-26.9557"/>
</g>
<!-- Node19&#45;&gt;Node9 -->
<g id="edge34" class="edge"><title>Node19&#45;&gt;Node9</title>
<path fill="none" stroke="midnightblue" d="M707.376,-209.553C715.655,-212.189 724.263,-215.347 732,-219 749.984,-227.49 768.674,-240.036 782.361,-250.031"/>
<polygon fill="midnightblue" stroke="midnightblue" points="780.468,-252.986 790.576,-256.162 784.656,-247.376 780.468,-252.986"/>
</g>
<!-- Node25 -->
<g id="node25" class="node"><title>Node25</title>
<g id="a_node25"><a xlink:href="_c_d_a_q_2_plugins_2_source_2xml_parser_8cpp.xhtml#af03c1c87ed4ddb95f7b49d53d9117c53" target="_top" xlink:title="getNextChar">
<polygon fill="white" stroke="black" points="768,-0.5 768,-19.5 840,-19.5 840,-0.5 768,-0.5"/>
<text text-anchor="middle" x="804" y="-7.5" font-family="Helvetica,sans-Serif" font-size="10.00">getNextChar</text>
</a>
</g>
</g>
<!-- Node24&#45;&gt;Node25 -->
<g id="edge42" class="edge"><title>Node24&#45;&gt;Node25</title>
<path fill="none" stroke="midnightblue" d="M730.274,-10C739.462,-10 748.811,-10 757.609,-10"/>
<polygon fill="midnightblue" stroke="midnightblue" points="757.642,-13.5001 767.642,-10 757.642,-6.5001 757.642,-13.5001"/>
</g>
</g>
</svg>
        <g id="navigator" transform="translate(0 0)" fill="#404254">
                <rect fill="#f2f5e9" fill-opacity="0.5" stroke="#606060" stroke-width=".5" x="0" y="0" width="60" height="60"/>
                <use id="zoomplus" xlink:href="#zoomPlus" x="17" y="9" onmousedown="handleZoom(evt,'in')"/>
                <use id="zoomminus" xlink:href="#zoomMin" x="42" y="9" onmousedown="handleZoom(evt,'out')"/>
                <use id="reset" xlink:href="#resetDef" x="30" y="36" onmousedown="handleReset()"/>
                <g id="arrowUp" xlink:href="#dirArrow" transform="translate(30 24)" onmousedown="handlePan(0,-1)">
                  <use xlink:href="#rim" fill="#404040">
                        <set attributeName="fill" to="#808080" begin="arrowUp.mouseover" end="arrowUp.mouseout"/>
                  </use>
                  <path fill="none" stroke="white" stroke-width="1.5" d="M0,-3.0v7 M-2.5,-0.5L0,-3.0L2.5,-0.5"/>
                </g>
                <g id="arrowRight" xlink:href="#dirArrow" transform="rotate(90) translate(36 -43)" onmousedown="handlePan(1,0)">
                  <use xlink:href="#rim" fill="#404040">
                        <set attributeName="fill" to="#808080" begin="arrowRight.mouseover" end="arrowRight.mouseout"/>
                  </use>
                  <path fill="none" stroke="white" stroke-width="1.5" d="M0,-3.0v7 M-2.5,-0.5L0,-3.0L2.5,-0.5"/>
                </g>
                <g id="arrowDown" xlink:href="#dirArrow" transform="rotate(180) translate(-30 -48)" onmousedown="handlePan(0,1)">
                  <use xlink:href="#rim" fill="#404040">
                        <set attributeName="fill" to="#808080" begin="arrowDown.mouseover" end="arrowDown.mouseout"/>
                  </use>
                  <path fill="none" stroke="white" stroke-width="1.5" d="M0,-3.0v7 M-2.5,-0.5L0,-3.0L2.5,-0.5"/>
                </g>
                <g id="arrowLeft" xlink:href="#dirArrow" transform="rotate(270) translate(-36 17)" onmousedown="handlePan(-1,0)">
                  <use xlink:href="#rim" fill="#404040">
                        <set attributeName="fill" to="#808080" begin="arrowLeft.mouseover" end="arrowLeft.mouseout"/>
                  </use>
                  <path fill="none" stroke="white" stroke-width="1.5" d="M0,-3.0v7 M-2.5,-0.5L0,-3.0L2.5,-0.5"/>
                </g>
        </g>
        <svg viewBox="0 0 15 15" width="100%" height="30px" preserveAspectRatio="xMaxYMin meet">
         <g id="arrow_out" transform="scale(0.3 0.3)">
          <a xlink:href="_p_d_a_q_2_core_2_source_2xml_parser_8cpp_af77e3e2685487b9c492b20c36f3b864a_cgraph_org.svg" target="_base">
           <rect id="button" ry="5" rx="5" y="6" x="6" height="38" width="38"
                fill="#f2f5e9" fill-opacity="0.5" stroke="#606060" stroke-width="1.0"/>
           <path id="arrow"
             d="M 11.500037,31.436501 C 11.940474,20.09759 22.043105,11.32322 32.158766,21.979434 L 37.068811,17.246167 C 37.068811,17.246167 37.088388,32 37.088388,32 L 22.160133,31.978069 C 22.160133,31.978069 26.997745,27.140456 26.997745,27.140456 C 18.528582,18.264221 13.291696,25.230495 11.500037,31.436501 z"
             style="fill:#404040;"/>
          </a>
         </g>
        </svg>
</svg>
