<?xml version="1.0" encoding="UTF-8" standalone="no"?>
<!DOCTYPE svg PUBLIC "-//W3C//DTD SVG 1.1//EN"
 "http://www.w3.org/Graphics/SVG/1.1/DTD/svg11.dtd">
<!-- Generated by graphviz version 2.36.0 (20140111.2315)
 -->
<!-- Title: CountLinesAndColumns Pages: 1 -->
<!--zoomable 712 -->
<svg id="main" version="1.1" xmlns="http://www.w3.org/2000/svg" xmlns:xlink="http://www.w3.org/1999/xlink" xml:space="preserve" onload="init(evt)">
<style type="text/css"><![CDATA[
.edge:hover path { stroke: red; }
.edge:hover polygon { stroke: red; fill: red; }
]]></style>
<script type="text/javascript"><![CDATA[
var edges = document.getElementsByTagName('g');
if (edges && edges.length) {
  for (var i=0;i<edges.length;i++) {
    if (edges[i].id.substr(0,4)=='edge') {
      edges[i].setAttribute('class','edge');
    }
  }
}
]]></script>
        <defs>
                <circle id="rim" cx="0" cy="0" r="7"/>
                <circle id="rim2" cx="0" cy="0" r="3.5"/>
                <g id="zoomPlus">
                        <use xlink:href="#rim" fill="#404040">
                                <set attributeName="fill" to="#808080" begin="zoomplus.mouseover" end="zoomplus.mouseout"/>
                        </use>
                        <path d="M-4,0h8M0,-4v8" fill="none" stroke="white" stroke-width="1.5" pointer-events="none"/>
                </g>
                <g id="zoomMin">
                        <use xlink:href="#rim" fill="#404040">
                                <set attributeName="fill" to="#808080" begin="zoomminus.mouseover" end="zoomminus.mouseout"/>
                        </use>
                        <path d="M-4,0h8" fill="none" stroke="white" stroke-width="1.5" pointer-events="none"/>
                </g>
                <g id="dirArrow">
                        <path fill="none" stroke="white" stroke-width="1.5" d="M0,-3.0v7 M-2.5,-0.5L0,-3.0L2.5,-0.5"/>
                </g>
               <g id="resetDef">
                       <use xlink:href="#rim2" fill="#404040">
                               <set attributeName="fill" to="#808080" begin="reset.mouseover" end="reset.mouseout"/>
                       </use>
               </g>
        </defs>

<script type="text/javascript">
var viewWidth = 694;
var viewHeight = 712;
var sectionId = 'dynsection-3';
</script>
<script xlink:href="svgpan.js"/>
<svg id="graph" class="graph">
<g id="viewport">
<title>CountLinesAndColumns</title>
<polygon fill="white" stroke="none" points="-4,4 -4,-708 690,-708 690,4 -4,4"/>
<!-- Node1 -->
<g id="node1" class="node"><title>Node1</title>
<polygon fill="#bfbfbf" stroke="black" points="0,-380.5 0,-399.5 122,-399.5 122,-380.5 0,-380.5"/>
<text text-anchor="middle" x="61" y="-387.5" font-family="Helvetica,sans-Serif" font-size="10.00">CountLinesAndColumns</text>
</g>
<!-- Node2 -->
<g id="node2" class="node"><title>Node2</title>
<g id="a_node2"><a xlink:href="struct_x_m_l_node.xhtml#a77a21438b6d48a52cf8a1270f82f4475" target="_top" xlink:title="XMLNode::getChildNode">
<polygon fill="white" stroke="black" points="452.5,-684.5 452.5,-703.5 577.5,-703.5 577.5,-684.5 452.5,-684.5"/>
<text text-anchor="middle" x="515" y="-691.5" font-family="Helvetica,sans-Serif" font-size="10.00">XMLNode::getChildNode</text>
</a>
</g>
</g>
<!-- Node1&#45;&gt;Node2 -->
<g id="edge1" class="edge"><title>Node1&#45;&gt;Node2</title>
<path fill="none" stroke="midnightblue" d="M64.0456,-399.835C71.1738,-431.758 97.8331,-533.667 158,-590 236.046,-663.072 362.617,-685.106 441.932,-691.568"/>
<polygon fill="midnightblue" stroke="midnightblue" points="442.087,-695.09 452.321,-692.348 442.611,-688.109 442.087,-695.09"/>
</g>
<!-- Node3 -->
<g id="node3" class="node"><title>Node3</title>
<g id="a_node3"><a xlink:href="struct_x_m_l_node.xhtml#a7e07715aa0ed894da96bd66c90d423f0" target="_top" xlink:title="XMLNode::getName">
<polygon fill="white" stroke="black" points="462,-646.5 462,-665.5 568,-665.5 568,-646.5 462,-646.5"/>
<text text-anchor="middle" x="515" y="-653.5" font-family="Helvetica,sans-Serif" font-size="10.00">XMLNode::getName</text>
</a>
</g>
</g>
<!-- Node1&#45;&gt;Node3 -->
<g id="edge2" class="edge"><title>Node1&#45;&gt;Node3</title>
<path fill="none" stroke="midnightblue" d="M65.3546,-399.543C75.2598,-426.407 106.924,-503.472 158,-546 243.518,-617.206 374.857,-642.386 451.819,-651.242"/>
<polygon fill="midnightblue" stroke="midnightblue" points="451.527,-654.731 461.848,-652.339 452.288,-647.773 451.527,-654.731"/>
</g>
<!-- Node4 -->
<g id="node4" class="node"><title>Node4</title>
<g id="a_node4"><a xlink:href="_p_d_a_q_2_core_2_source_2xml_parser_8cpp.xhtml#af03c1c87ed4ddb95f7b49d53d9117c53" target="_top" xlink:title="getNextChar">
<polygon fill="white" stroke="black" points="175,-266.5 175,-285.5 247,-285.5 247,-266.5 175,-266.5"/>
<text text-anchor="middle" x="211" y="-273.5" font-family="Helvetica,sans-Serif" font-size="10.00">getNextChar</text>
</a>
</g>
</g>
<!-- Node1&#45;&gt;Node4 -->
<g id="edge3" class="edge"><title>Node1&#45;&gt;Node4</title>
<path fill="none" stroke="midnightblue" d="M70.4246,-380.255C86.1831,-362.478 121.81,-324.377 158,-300 163.466,-296.318 169.587,-292.934 175.658,-289.94"/>
<polygon fill="midnightblue" stroke="midnightblue" points="177.464,-292.961 185.056,-285.57 174.512,-286.613 177.464,-292.961"/>
</g>
<!-- Node5 -->
<g id="node5" class="node"><title>Node5</title>
<g id="a_node5"><a xlink:href="struct_x_m_l_node.xhtml#a71df27d54a2dc09b0a456406a7e8c6d3" target="_top" xlink:title="XMLNode::isDeclaration">
<polygon fill="white" stroke="black" points="453.5,-608.5 453.5,-627.5 576.5,-627.5 576.5,-608.5 453.5,-608.5"/>
<text text-anchor="middle" x="515" y="-615.5" font-family="Helvetica,sans-Serif" font-size="10.00">XMLNode::isDeclaration</text>
</a>
</g>
</g>
<!-- Node1&#45;&gt;Node5 -->
<g id="edge4" class="edge"><title>Node1&#45;&gt;Node5</title>
<path fill="none" stroke="midnightblue" d="M67.3554,-399.697C80.0952,-421.874 114.425,-476.64 158,-506 246.193,-565.423 367.634,-594.688 443.438,-608.039"/>
<polygon fill="midnightblue" stroke="midnightblue" points="442.918,-611.501 453.365,-609.743 444.101,-604.602 442.918,-611.501"/>
</g>
<!-- Node6 -->
<g id="node6" class="node"><title>Node6</title>
<g id="a_node6"><a xlink:href="_c_d_a_q_2_plugins_2_source_2xml_parser_8cpp.xhtml#ad9a5c911a8e21bb89427d29d33e2797e" target="_top" xlink:title="myIsTextWideChar">
<polygon fill="white" stroke="black" points="307.5,-209.5 307.5,-228.5 408.5,-228.5 408.5,-209.5 307.5,-209.5"/>
<text text-anchor="middle" x="358" y="-216.5" font-family="Helvetica,sans-Serif" font-size="10.00">myIsTextWideChar</text>
</a>
</g>
</g>
<!-- Node1&#45;&gt;Node6 -->
<g id="edge5" class="edge"><title>Node1&#45;&gt;Node6</title>
<path fill="none" stroke="midnightblue" d="M78.3613,-380.413C97.2422,-369.521 129.373,-351.509 158,-338 203.978,-316.304 220.271,-320.932 264,-295 292.929,-277.845 322.323,-252.137 340.112,-235.464"/>
<polygon fill="midnightblue" stroke="midnightblue" points="342.595,-237.932 347.425,-228.502 337.769,-232.862 342.595,-237.932"/>
</g>
<!-- Node9 -->
<g id="node9" class="node"><title>Node9</title>
<g id="a_node9"><a xlink:href="_c_d_a_q_2_plugins_2_source_2xml_parser_8cpp.xhtml#ad7ec02a171e7641c1d364d5d367199a3" target="_top" xlink:title="myWideCharToMultiByte">
<polygon fill="white" stroke="black" points="452,-266.5 452,-285.5 578,-285.5 578,-266.5 452,-266.5"/>
<text text-anchor="middle" x="515" y="-273.5" font-family="Helvetica,sans-Serif" font-size="10.00">myWideCharToMultiByte</text>
</a>
</g>
</g>
<!-- Node1&#45;&gt;Node9 -->
<g id="edge23" class="edge"><title>Node1&#45;&gt;Node9</title>
<path fill="none" stroke="midnightblue" d="M97.8383,-380.468C144.377,-368.134 228.159,-346.084 300,-328 356.068,-313.886 420.569,-298.302 463.975,-287.909"/>
<polygon fill="midnightblue" stroke="midnightblue" points="464.809,-291.309 473.721,-285.578 463.181,-284.501 464.809,-291.309"/>
</g>
<!-- Node17 -->
<g id="node17" class="node"><title>Node17</title>
<g id="a_node17"><a xlink:href="struct_x_m_l_node.xhtml#a8e52198f258167cd796dae21f1ffc352" target="_top" xlink:title="XMLNode::nChildNode">
<polygon fill="white" stroke="black" points="456.5,-494.5 456.5,-513.5 573.5,-513.5 573.5,-494.5 456.5,-494.5"/>
<text text-anchor="middle" x="515" y="-501.5" font-family="Helvetica,sans-Serif" font-size="10.00">XMLNode::nChildNode</text>
</a>
</g>
</g>
<!-- Node1&#45;&gt;Node17 -->
<g id="edge24" class="edge"><title>Node1&#45;&gt;Node17</title>
<path fill="none" stroke="midnightblue" d="M83.3676,-399.65C102.585,-408.04 131.749,-420.063 158,-428 212.771,-444.56 368.178,-475.719 454.448,-492.537"/>
<polygon fill="midnightblue" stroke="midnightblue" points="453.875,-495.992 464.36,-494.466 455.212,-489.12 453.875,-495.992"/>
</g>
<!-- Node18 -->
<g id="node18" class="node"><title>Node18</title>
<g id="a_node18"><a xlink:href="struct_x_m_l_node.xhtml#a8e9538deb9144dcab39b3a510a8202f1" target="_top" xlink:title="XMLNode::nElement">
<polygon fill="white" stroke="black" points="461.5,-418.5 461.5,-437.5 568.5,-437.5 568.5,-418.5 461.5,-418.5"/>
<text text-anchor="middle" x="515" y="-425.5" font-family="Helvetica,sans-Serif" font-size="10.00">XMLNode::nElement</text>
</a>
</g>
</g>
<!-- Node1&#45;&gt;Node18 -->
<g id="edge26" class="edge"><title>Node1&#45;&gt;Node18</title>
<path fill="none" stroke="midnightblue" d="M103.374,-399.525C120.231,-403.056 139.961,-406.745 158,-409 260.147,-421.768 379.832,-425.966 451.151,-427.339"/>
<polygon fill="midnightblue" stroke="midnightblue" points="451.254,-430.842 461.315,-427.522 451.38,-423.843 451.254,-430.842"/>
</g>
<!-- Node19 -->
<g id="node19" class="node"><title>Node19</title>
<g id="a_node19"><a xlink:href="struct_x_m_l_node.xhtml#a5e5968e052d58350918cd91e3535624b" target="_top" xlink:title="XMLNode::parseFile">
<polygon fill="white" stroke="black" points="158,-380.5 158,-399.5 264,-399.5 264,-380.5 158,-380.5"/>
<text text-anchor="middle" x="211" y="-387.5" font-family="Helvetica,sans-Serif" font-size="10.00">XMLNode::parseFile</text>
</a>
</g>
</g>
<!-- Node1&#45;&gt;Node19 -->
<g id="edge27" class="edge"><title>Node1&#45;&gt;Node19</title>
<path fill="none" stroke="midnightblue" d="M122.197,-390C130.618,-390 139.285,-390 147.743,-390"/>
<polygon fill="midnightblue" stroke="midnightblue" points="147.925,-393.5 157.925,-390 147.925,-386.5 147.925,-393.5"/>
</g>
<!-- Node20 -->
<g id="node20" class="node"><title>Node20</title>
<g id="a_node20"><a xlink:href="struct_x_m_l_node.xhtml#acb95f4f00e4cf3756aac0e3a53765248" target="_top" xlink:title="XMLNode::parseString">
<polygon fill="white" stroke="black" points="300,-494.5 300,-513.5 416,-513.5 416,-494.5 300,-494.5"/>
<text text-anchor="middle" x="358" y="-501.5" font-family="Helvetica,sans-Serif" font-size="10.00">XMLNode::parseString</text>
</a>
</g>
</g>
<!-- Node1&#45;&gt;Node20 -->
<g id="edge41" class="edge"><title>Node1&#45;&gt;Node20</title>
<path fill="none" stroke="midnightblue" d="M68.8781,-399.686C83.0604,-418.803 117.63,-461.163 158,-480 199.049,-499.154 249.803,-505.034 289.781,-506.188"/>
<polygon fill="midnightblue" stroke="midnightblue" points="289.896,-509.691 299.962,-506.387 290.033,-502.692 289.896,-509.691"/>
</g>
<!-- Node23 -->
<g id="node23" class="node"><title>Node23</title>
<g id="a_node23"><a xlink:href="_p_d_a_q_2_core_2_source_2xml_parser_8cpp.xhtml#a8dd6e6cada28ea03e5cacd075b1be7f6" target="_top" xlink:title="xfopen">
<polygon fill="white" stroke="black" points="188,-228.5 188,-247.5 234,-247.5 234,-228.5 188,-228.5"/>
<text text-anchor="middle" x="211" y="-235.5" font-family="Helvetica,sans-Serif" font-size="10.00">xfopen</text>
</a>
</g>
</g>
<!-- Node1&#45;&gt;Node23 -->
<g id="edge42" class="edge"><title>Node1&#45;&gt;Node23</title>
<path fill="none" stroke="midnightblue" d="M66.3701,-380.463C77.8943,-356.325 111.454,-292.234 158,-257 164.006,-252.453 171.209,-248.91 178.312,-246.181"/>
<polygon fill="midnightblue" stroke="midnightblue" points="179.476,-249.483 187.815,-242.948 177.221,-242.856 179.476,-249.483"/>
</g>
<!-- Node24 -->
<g id="node24" class="node"><title>Node24</title>
<g id="a_node24"><a xlink:href="_p_d_a_q_2_core_2_source_2xml_parser_8cpp.xhtml#a2e64ea95685df2d289c31a50419b532d" target="_top" xlink:title="xstricmp">
<polygon fill="white" stroke="black" points="184,-190.5 184,-209.5 238,-209.5 238,-190.5 184,-190.5"/>
<text text-anchor="middle" x="211" y="-197.5" font-family="Helvetica,sans-Serif" font-size="10.00">xstricmp</text>
</a>
</g>
</g>
<!-- Node1&#45;&gt;Node24 -->
<g id="edge43" class="edge"><title>Node1&#45;&gt;Node24</title>
<path fill="none" stroke="midnightblue" d="M64.7835,-380.321C73.5454,-351.528 103.278,-265.541 158,-219 162.69,-215.011 168.29,-211.828 174.049,-209.299"/>
<polygon fill="midnightblue" stroke="midnightblue" points="175.643,-212.438 183.761,-205.631 173.17,-205.89 175.643,-212.438"/>
</g>
<!-- Node25 -->
<g id="node25" class="node"><title>Node25</title>
<g id="a_node25"><a xlink:href="_p_d_a_q_2_core_2_source_2xml_parser_8cpp.xhtml#a49fa66f65d2d28ce7b7e0b1752425915" target="_top" xlink:title="xstrlen">
<polygon fill="white" stroke="black" points="188,-152.5 188,-171.5 234,-171.5 234,-152.5 188,-152.5"/>
<text text-anchor="middle" x="211" y="-159.5" font-family="Helvetica,sans-Serif" font-size="10.00">xstrlen</text>
</a>
</g>
</g>
<!-- Node1&#45;&gt;Node25 -->
<g id="edge44" class="edge"><title>Node1&#45;&gt;Node25</title>
<path fill="none" stroke="midnightblue" d="M63.7436,-380.115C70.0788,-347.064 94.9093,-239.219 158,-181 163.682,-175.757 170.927,-171.933 178.192,-169.154"/>
<polygon fill="midnightblue" stroke="midnightblue" points="179.538,-172.397 187.966,-165.977 177.374,-165.739 179.538,-172.397"/>
</g>
<!-- Node7 -->
<g id="node7" class="node"><title>Node7</title>
<g id="a_node7"><a xlink:href="_c_d_a_q_2_plugins_2_source_2xml_parser_8cpp.xhtml#af77e3e2685487b9c492b20c36f3b864a" target="_top" xlink:title="_strnicmp">
<polygon fill="white" stroke="black" points="485.5,-152.5 485.5,-171.5 544.5,-171.5 544.5,-152.5 485.5,-152.5"/>
<text text-anchor="middle" x="515" y="-159.5" font-family="Helvetica,sans-Serif" font-size="10.00">_strnicmp</text>
</a>
</g>
</g>
<!-- Node6&#45;&gt;Node7 -->
<g id="edge6" class="edge"><title>Node6&#45;&gt;Node7</title>
<path fill="none" stroke="midnightblue" d="M384.944,-209.459C410.538,-200.047 449.862,-185.586 478.377,-175.1"/>
<polygon fill="midnightblue" stroke="midnightblue" points="479.794,-178.308 487.972,-171.572 477.378,-171.738 479.794,-178.308"/>
</g>
<!-- Node8 -->
<g id="node8" class="node"><title>Node8</title>
<g id="a_node8"><a xlink:href="_c_d_a_q_2_plugins_2_source_2xml_parser_8cpp.xhtml#ae4635e3ac4b32772021240a9c16864ee" target="_top" xlink:title="mmin">
<polygon fill="white" stroke="black" points="494.5,-114.5 494.5,-133.5 535.5,-133.5 535.5,-114.5 494.5,-114.5"/>
<text text-anchor="middle" x="515" y="-121.5" font-family="Helvetica,sans-Serif" font-size="10.00">mmin</text>
</a>
</g>
</g>
<!-- Node6&#45;&gt;Node8 -->
<g id="edge7" class="edge"><title>Node6&#45;&gt;Node8</title>
<path fill="none" stroke="midnightblue" d="M368.133,-209.422C383.843,-193.468 417.619,-161.394 452,-143 462.08,-137.607 473.919,-133.503 484.535,-130.514"/>
<polygon fill="midnightblue" stroke="midnightblue" points="485.447,-133.893 494.241,-127.984 483.681,-127.119 485.447,-133.893"/>
</g>
<!-- Node6&#45;&gt;Node9 -->
<g id="edge8" class="edge"><title>Node6&#45;&gt;Node9</title>
<path fill="none" stroke="midnightblue" d="M384.944,-228.541C410.538,-237.953 449.862,-252.414 478.377,-262.9"/>
<polygon fill="midnightblue" stroke="midnightblue" points="477.378,-266.262 487.972,-266.428 479.794,-259.692 477.378,-266.262"/>
</g>
<!-- Node10 -->
<g id="node10" class="node"><title>Node10</title>
<g id="a_node10"><a xlink:href="_c_d_a_q_2_plugins_2_source_2xml_parser_8cpp.xhtml#a8dd6e6cada28ea03e5cacd075b1be7f6" target="_top" xlink:title="xfopen">
<polygon fill="white" stroke="black" points="627,-266.5 627,-285.5 673,-285.5 673,-266.5 627,-266.5"/>
<text text-anchor="middle" x="650" y="-273.5" font-family="Helvetica,sans-Serif" font-size="10.00">xfopen</text>
</a>
</g>
</g>
<!-- Node6&#45;&gt;Node10 -->
<g id="edge16" class="edge"><title>Node6&#45;&gt;Node10</title>
<path fill="none" stroke="midnightblue" d="M408.825,-226.341C453.376,-233.214 520.339,-244.309 578,-257 590.851,-259.829 604.87,-263.461 617.031,-266.792"/>
<polygon fill="midnightblue" stroke="midnightblue" points="616.169,-270.185 626.742,-269.493 618.046,-263.441 616.169,-270.185"/>
</g>
<!-- Node11 -->
<g id="node11" class="node"><title>Node11</title>
<g id="a_node11"><a xlink:href="_c_d_a_q_2_plugins_2_source_2xml_parser_8cpp.xhtml#a73c2349b2f386ee50130a3961bd2dbab" target="_top" xlink:title="xstrcpy">
<polygon fill="white" stroke="black" points="625.5,-147.5 625.5,-166.5 674.5,-166.5 674.5,-147.5 625.5,-147.5"/>
<text text-anchor="middle" x="650" y="-154.5" font-family="Helvetica,sans-Serif" font-size="10.00">xstrcpy</text>
</a>
</g>
</g>
<!-- Node6&#45;&gt;Node11 -->
<g id="edge17" class="edge"><title>Node6&#45;&gt;Node11</title>
<path fill="none" stroke="midnightblue" d="M363.285,-209.224C374.127,-185.891 405.16,-127.238 452,-105 502.588,-80.9828 524.774,-87.5934 578,-105 599.166,-111.922 619.245,-127.817 632.614,-140.225"/>
<polygon fill="midnightblue" stroke="midnightblue" points="630.399,-142.952 640.021,-147.388 635.266,-137.92 630.399,-142.952"/>
</g>
<!-- Node12 -->
<g id="node12" class="node"><title>Node12</title>
<g id="a_node12"><a xlink:href="_c_d_a_q_2_plugins_2_source_2xml_parser_8cpp.xhtml#a2e64ea95685df2d289c31a50419b532d" target="_top" xlink:title="xstricmp">
<polygon fill="white" stroke="black" points="623,-418.5 623,-437.5 677,-437.5 677,-418.5 623,-418.5"/>
<text text-anchor="middle" x="650" y="-425.5" font-family="Helvetica,sans-Serif" font-size="10.00">xstricmp</text>
</a>
</g>
</g>
<!-- Node6&#45;&gt;Node12 -->
<g id="edge18" class="edge"><title>Node6&#45;&gt;Node12</title>
<path fill="none" stroke="midnightblue" d="M366.346,-228.771C381.04,-247.851 415.764,-290.672 452,-319 505.342,-360.7 576.691,-395.872 617.257,-414.259"/>
<polygon fill="midnightblue" stroke="midnightblue" points="616.079,-417.567 626.636,-418.459 618.94,-411.178 616.079,-417.567"/>
</g>
<!-- Node13 -->
<g id="node13" class="node"><title>Node13</title>
<g id="a_node13"><a xlink:href="_c_d_a_q_2_plugins_2_source_2xml_parser_8cpp.xhtml#a49fa66f65d2d28ce7b7e0b1752425915" target="_top" xlink:title="xstrlen">
<polygon fill="white" stroke="black" points="627,-304.5 627,-323.5 673,-323.5 673,-304.5 627,-304.5"/>
<text text-anchor="middle" x="650" y="-311.5" font-family="Helvetica,sans-Serif" font-size="10.00">xstrlen</text>
</a>
</g>
</g>
<!-- Node6&#45;&gt;Node13 -->
<g id="edge19" class="edge"><title>Node6&#45;&gt;Node13</title>
<path fill="none" stroke="midnightblue" d="M367.052,-228.542C381.883,-245.357 415.367,-279.914 452,-295 506.539,-317.46 576.514,-318.342 616.701,-316.485"/>
<polygon fill="midnightblue" stroke="midnightblue" points="616.936,-319.978 626.729,-315.936 616.552,-312.988 616.936,-319.978"/>
</g>
<!-- Node14 -->
<g id="node14" class="node"><title>Node14</title>
<g id="a_node14"><a xlink:href="_c_d_a_q_2_plugins_2_source_2xml_parser_8cpp.xhtml#a3165858f70cd74ffab31ebc2ddc9e104" target="_top" xlink:title="xstrncmp">
<polygon fill="white" stroke="black" points="621.5,-0.5 621.5,-19.5 678.5,-19.5 678.5,-0.5 621.5,-0.5"/>
<text text-anchor="middle" x="650" y="-7.5" font-family="Helvetica,sans-Serif" font-size="10.00">xstrncmp</text>
</a>
</g>
</g>
<!-- Node6&#45;&gt;Node14 -->
<g id="edge20" class="edge"><title>Node6&#45;&gt;Node14</title>
<path fill="none" stroke="midnightblue" d="M361.703,-209.283C370.029,-181.225 398.044,-99.5115 452,-59 499.027,-23.6909 568.443,-13.5934 611.083,-10.8425"/>
<polygon fill="midnightblue" stroke="midnightblue" points="611.52,-14.3241 621.317,-10.2905 611.143,-7.33425 611.52,-14.3241"/>
</g>
<!-- Node15 -->
<g id="node15" class="node"><title>Node15</title>
<g id="a_node15"><a xlink:href="_c_d_a_q_2_plugins_2_source_2xml_parser_8cpp.xhtml#a17c9570640aed10b61deec9047cb0940" target="_top" xlink:title="xstrnicmp">
<polygon fill="white" stroke="black" points="620.5,-209.5 620.5,-228.5 679.5,-228.5 679.5,-209.5 620.5,-209.5"/>
<text text-anchor="middle" x="650" y="-216.5" font-family="Helvetica,sans-Serif" font-size="10.00">xstrnicmp</text>
</a>
</g>
</g>
<!-- Node6&#45;&gt;Node15 -->
<g id="edge21" class="edge"><title>Node6&#45;&gt;Node15</title>
<path fill="none" stroke="midnightblue" d="M408.523,-219C465.581,-219 558.144,-219 610.219,-219"/>
<polygon fill="midnightblue" stroke="midnightblue" points="610.381,-222.5 620.381,-219 610.381,-215.5 610.381,-222.5"/>
</g>
<!-- Node16 -->
<g id="node16" class="node"><title>Node16</title>
<g id="a_node16"><a xlink:href="_c_d_a_q_2_plugins_2_source_2xml_parser_8cpp.xhtml#a696ca59a310359980c57de039f137697" target="_top" xlink:title="xstrstr">
<polygon fill="white" stroke="black" points="628,-62.5 628,-81.5 672,-81.5 672,-62.5 628,-62.5"/>
<text text-anchor="middle" x="650" y="-69.5" font-family="Helvetica,sans-Serif" font-size="10.00">xstrstr</text>
</a>
</g>
</g>
<!-- Node6&#45;&gt;Node16 -->
<g id="edge22" class="edge"><title>Node6&#45;&gt;Node16</title>
<path fill="none" stroke="midnightblue" d="M362.341,-209.409C371.772,-183.97 401.264,-114.765 452,-86 504.134,-56.4428 576.911,-60.7201 617.84,-66.4088"/>
<polygon fill="midnightblue" stroke="midnightblue" points="617.36,-69.8759 627.77,-67.905 618.403,-62.954 617.36,-69.8759"/>
</g>
<!-- Node9&#45;&gt;Node10 -->
<g id="edge9" class="edge"><title>Node9&#45;&gt;Node10</title>
<path fill="none" stroke="midnightblue" d="M578.217,-276C591.571,-276 605.157,-276 616.808,-276"/>
<polygon fill="midnightblue" stroke="midnightblue" points="616.901,-279.5 626.901,-276 616.901,-272.5 616.901,-279.5"/>
</g>
<!-- Node9&#45;&gt;Node11 -->
<g id="edge10" class="edge"><title>Node9&#45;&gt;Node11</title>
<path fill="none" stroke="midnightblue" d="M526.884,-266.262C549.696,-245.851 602.726,-198.403 630.805,-173.28"/>
<polygon fill="midnightblue" stroke="midnightblue" points="633.219,-175.817 638.337,-166.54 628.551,-170.6 633.219,-175.817"/>
</g>
<!-- Node9&#45;&gt;Node12 -->
<g id="edge11" class="edge"><title>Node9&#45;&gt;Node12</title>
<path fill="none" stroke="midnightblue" d="M526.469,-285.742C539.108,-297.664 560.807,-318.659 578,-338 599.362,-362.032 622.04,-391.577 635.864,-410.104"/>
<polygon fill="midnightblue" stroke="midnightblue" points="633.128,-412.292 641.894,-418.242 638.753,-408.124 633.128,-412.292"/>
</g>
<!-- Node9&#45;&gt;Node13 -->
<g id="edge12" class="edge"><title>Node9&#45;&gt;Node13</title>
<path fill="none" stroke="midnightblue" d="M549.562,-285.589C570.233,-291.495 596.584,-299.024 616.966,-304.847"/>
<polygon fill="midnightblue" stroke="midnightblue" points="616.153,-308.255 626.729,-307.637 618.076,-301.524 616.153,-308.255"/>
</g>
<!-- Node9&#45;&gt;Node14 -->
<g id="edge13" class="edge"><title>Node9&#45;&gt;Node14</title>
<path fill="none" stroke="midnightblue" d="M523.766,-266.324C536.71,-249.768 562.774,-214.535 578,-181 602.431,-127.19 586.78,-105.454 614,-53 618.716,-43.9116 625.556,-34.9516 631.941,-27.5826"/>
<polygon fill="midnightblue" stroke="midnightblue" points="634.927,-29.5011 639.072,-19.7505 629.751,-24.7884 634.927,-29.5011"/>
</g>
<!-- Node9&#45;&gt;Node15 -->
<g id="edge14" class="edge"><title>Node9&#45;&gt;Node15</title>
<path fill="none" stroke="midnightblue" d="M538.261,-266.459C559.935,-257.171 593.084,-242.964 617.467,-232.514"/>
<polygon fill="midnightblue" stroke="midnightblue" points="618.853,-235.728 626.666,-228.572 616.096,-229.294 618.853,-235.728"/>
</g>
<!-- Node9&#45;&gt;Node16 -->
<g id="edge15" class="edge"><title>Node9&#45;&gt;Node16</title>
<path fill="none" stroke="midnightblue" d="M522.34,-266.292C533.565,-249.102 557.67,-212.181 578,-181 598.845,-149.03 623.109,-111.77 637.194,-90.1354"/>
<polygon fill="midnightblue" stroke="midnightblue" points="640.212,-91.9153 642.734,-81.6252 634.345,-88.0961 640.212,-91.9153"/>
</g>
<!-- Node17&#45;&gt;Node12 -->
<g id="edge25" class="edge"><title>Node17&#45;&gt;Node12</title>
<path fill="none" stroke="midnightblue" d="M545.416,-494.414C555.966,-490.513 567.774,-485.596 578,-480 596.647,-469.795 615.996,-455.324 629.776,-444.238"/>
<polygon fill="midnightblue" stroke="midnightblue" points="632.066,-446.887 637.581,-437.841 627.628,-441.473 632.066,-446.887"/>
</g>
<!-- Node19&#45;&gt;Node6 -->
<g id="edge29" class="edge"><title>Node19&#45;&gt;Node6</title>
<path fill="none" stroke="midnightblue" d="M220.211,-380.316C243.839,-352.452 312.228,-271.801 342.401,-236.216"/>
<polygon fill="midnightblue" stroke="midnightblue" points="345.081,-238.468 348.879,-228.577 339.742,-233.941 345.081,-238.468"/>
</g>
<!-- Node19&#45;&gt;Node9 -->
<g id="edge30" class="edge"><title>Node19&#45;&gt;Node9</title>
<path fill="none" stroke="midnightblue" d="M251.509,-380.414C293.188,-369.745 360.399,-350.949 416,-328 441.857,-317.328 469.917,-302.028 489.359,-290.787"/>
<polygon fill="midnightblue" stroke="midnightblue" points="491.301,-293.705 498.163,-285.632 487.765,-287.664 491.301,-293.705"/>
</g>
<!-- Node19&#45;&gt;Node10 -->
<g id="edge28" class="edge"><title>Node19&#45;&gt;Node10</title>
<path fill="none" stroke="midnightblue" d="M264.139,-385.613C305.704,-381.394 365.164,-373.737 416,-361 490.556,-342.319 574.421,-308.364 618.366,-289.517"/>
<polygon fill="midnightblue" stroke="midnightblue" points="619.839,-292.694 627.63,-285.514 617.062,-286.268 619.839,-292.694"/>
</g>
<!-- Node19&#45;&gt;Node20 -->
<g id="edge31" class="edge"><title>Node19&#45;&gt;Node20</title>
<path fill="none" stroke="midnightblue" d="M224.363,-399.72C249.296,-419.322 305.833,-463.772 336.424,-487.823"/>
<polygon fill="midnightblue" stroke="midnightblue" points="334.644,-490.876 344.669,-494.305 338.971,-485.373 334.644,-490.876"/>
</g>
<!-- Node20&#45;&gt;Node2 -->
<g id="edge34" class="edge"><title>Node20&#45;&gt;Node2</title>
<path fill="none" stroke="midnightblue" d="M361.492,-513.812C369.409,-542.973 396.781,-629.886 452,-675 454.248,-676.836 456.671,-678.496 459.213,-679.995"/>
<polygon fill="midnightblue" stroke="midnightblue" points="457.714,-683.158 468.224,-684.499 460.844,-676.897 457.714,-683.158"/>
</g>
<!-- Node20&#45;&gt;Node3 -->
<g id="edge35" class="edge"><title>Node20&#45;&gt;Node3</title>
<path fill="none" stroke="midnightblue" d="M363.041,-513.687C373.754,-538.175 405.294,-603.019 452,-637 454.64,-638.921 457.478,-640.65 460.434,-642.207"/>
<polygon fill="midnightblue" stroke="midnightblue" points="459.03,-645.413 469.581,-646.378 461.935,-639.044 459.03,-645.413"/>
</g>
<!-- Node20&#45;&gt;Node5 -->
<g id="edge38" class="edge"><title>Node20&#45;&gt;Node5</title>
<path fill="none" stroke="midnightblue" d="M381.389,-513.556C392.721,-519.185 406.129,-527.142 416,-537 438.545,-559.517 427.045,-579.187 452,-599 454.273,-600.805 456.717,-602.439 459.275,-603.918"/>
<polygon fill="midnightblue" stroke="midnightblue" points="457.807,-607.096 468.324,-608.375 460.899,-600.817 457.807,-607.096"/>
</g>
<!-- Node20&#45;&gt;Node12 -->
<g id="edge37" class="edge"><title>Node20&#45;&gt;Node12</title>
<path fill="none" stroke="midnightblue" d="M382.236,-513.615C423.938,-529.283 513.172,-555.483 578,-523 609.608,-507.162 630.756,-469.833 641.256,-446.967"/>
<polygon fill="midnightblue" stroke="midnightblue" points="644.548,-448.173 645.331,-437.607 638.13,-445.379 644.548,-448.173"/>
</g>
<!-- Node20&#45;&gt;Node13 -->
<g id="edge36" class="edge"><title>Node20&#45;&gt;Node13</title>
<path fill="none" stroke="midnightblue" d="M403.275,-494.475C463.19,-481.284 564.231,-457.853 578,-447 615.366,-417.546 635.465,-362.863 643.979,-333.63"/>
<polygon fill="midnightblue" stroke="midnightblue" points="647.411,-334.347 646.687,-323.777 640.662,-332.492 647.411,-334.347"/>
</g>
<!-- Node20&#45;&gt;Node17 -->
<g id="edge32" class="edge"><title>Node20&#45;&gt;Node17</title>
<path fill="none" stroke="midnightblue" d="M416.276,-504C426.005,-504 436.19,-504 446.16,-504"/>
<polygon fill="midnightblue" stroke="midnightblue" points="446.442,-507.5 456.442,-504 446.442,-500.5 446.442,-507.5"/>
</g>
<!-- Node20&#45;&gt;Node18 -->
<g id="edge33" class="edge"><title>Node20&#45;&gt;Node18</title>
<path fill="none" stroke="midnightblue" d="M374.443,-494.479C392.614,-483.487 423.877,-465.225 452,-452 460.033,-448.222 468.835,-444.549 477.219,-441.257"/>
<polygon fill="midnightblue" stroke="midnightblue" points="478.713,-444.433 486.798,-437.585 476.207,-437.896 478.713,-444.433"/>
</g>
<!-- Node21 -->
<g id="node21" class="node"><title>Node21</title>
<g id="a_node21"><a xlink:href="_c_d_a_q_2_plugins_2_source_2xml_parser_8cpp.xhtml#ae6aa5a367ab3cc92b47fd92f81add72a" target="_top" xlink:title="CountLinesAndColumns">
<polygon fill="white" stroke="black" points="454,-570.5 454,-589.5 576,-589.5 576,-570.5 454,-570.5"/>
<text text-anchor="middle" x="515" y="-577.5" font-family="Helvetica,sans-Serif" font-size="10.00">CountLinesAndColumns</text>
</a>
</g>
</g>
<!-- Node20&#45;&gt;Node21 -->
<g id="edge39" class="edge"><title>Node20&#45;&gt;Node21</title>
<path fill="none" stroke="midnightblue" d="M375.49,-513.589C397.96,-526.591 437.102,-548.994 452,-556 460.033,-559.778 468.835,-563.451 477.219,-566.743"/>
<polygon fill="midnightblue" stroke="midnightblue" points="476.207,-570.104 486.798,-570.415 478.713,-563.567 476.207,-570.104"/>
</g>
<!-- Node22 -->
<g id="node22" class="node"><title>Node22</title>
<g id="a_node22"><a xlink:href="_c_d_a_q_2_plugins_2_source_2xml_parser_8cpp.xhtml#af03c1c87ed4ddb95f7b49d53d9117c53" target="_top" xlink:title="getNextChar">
<polygon fill="white" stroke="black" points="614,-570.5 614,-589.5 686,-589.5 686,-570.5 614,-570.5"/>
<text text-anchor="middle" x="650" y="-577.5" font-family="Helvetica,sans-Serif" font-size="10.00">getNextChar</text>
</a>
</g>
</g>
<!-- Node21&#45;&gt;Node22 -->
<g id="edge40" class="edge"><title>Node21&#45;&gt;Node22</title>
<path fill="none" stroke="midnightblue" d="M576.274,-580C585.462,-580 594.811,-580 603.609,-580"/>
<polygon fill="midnightblue" stroke="midnightblue" points="603.642,-583.5 613.642,-580 603.642,-576.5 603.642,-583.5"/>
</g>
</g>
</svg>
        <g id="navigator" transform="translate(0 0)" fill="#404254">
                <rect fill="#f2f5e9" fill-opacity="0.5" stroke="#606060" stroke-width=".5" x="0" y="0" width="60" height="60"/>
                <use id="zoomplus" xlink:href="#zoomPlus" x="17" y="9" onmousedown="handleZoom(evt,'in')"/>
                <use id="zoomminus" xlink:href="#zoomMin" x="42" y="9" onmousedown="handleZoom(evt,'out')"/>
                <use id="reset" xlink:href="#resetDef" x="30" y="36" onmousedown="handleReset()"/>
                <g id="arrowUp" xlink:href="#dirArrow" transform="translate(30 24)" onmousedown="handlePan(0,-1)">
                  <use xlink:href="#rim" fill="#404040">
                        <set attributeName="fill" to="#808080" begin="arrowUp.mouseover" end="arrowUp.mouseout"/>
                  </use>
                  <path fill="none" stroke="white" stroke-width="1.5" d="M0,-3.0v7 M-2.5,-0.5L0,-3.0L2.5,-0.5"/>
                </g>
                <g id="arrowRight" xlink:href="#dirArrow" transform="rotate(90) translate(36 -43)" onmousedown="handlePan(1,0)">
                  <use xlink:href="#rim" fill="#404040">
                        <set attributeName="fill" to="#808080" begin="arrowRight.mouseover" end="arrowRight.mouseout"/>
                  </use>
                  <path fill="none" stroke="white" stroke-width="1.5" d="M0,-3.0v7 M-2.5,-0.5L0,-3.0L2.5,-0.5"/>
                </g>
                <g id="arrowDown" xlink:href="#dirArrow" transform="rotate(180) translate(-30 -48)" onmousedown="handlePan(0,1)">
                  <use xlink:href="#rim" fill="#404040">
                        <set attributeName="fill" to="#808080" begin="arrowDown.mouseover" end="arrowDown.mouseout"/>
                  </use>
                  <path fill="none" stroke="white" stroke-width="1.5" d="M0,-3.0v7 M-2.5,-0.5L0,-3.0L2.5,-0.5"/>
                </g>
                <g id="arrowLeft" xlink:href="#dirArrow" transform="rotate(270) translate(-36 17)" onmousedown="handlePan(-1,0)">
                  <use xlink:href="#rim" fill="#404040">
                        <set attributeName="fill" to="#808080" begin="arrowLeft.mouseover" end="arrowLeft.mouseout"/>
                  </use>
                  <path fill="none" stroke="white" stroke-width="1.5" d="M0,-3.0v7 M-2.5,-0.5L0,-3.0L2.5,-0.5"/>
                </g>
        </g>
        <svg viewBox="0 0 15 15" width="100%" height="30px" preserveAspectRatio="xMaxYMin meet">
         <g id="arrow_out" transform="scale(0.3 0.3)">
          <a xlink:href="_p_d_a_q_2_core_2_source_2xml_parser_8cpp_ae6aa5a367ab3cc92b47fd92f81add72a_cgraph_org.svg" target="_base">
           <rect id="button" ry="5" rx="5" y="6" x="6" height="38" width="38"
                fill="#f2f5e9" fill-opacity="0.5" stroke="#606060" stroke-width="1.0"/>
           <path id="arrow"
             d="M 11.500037,31.436501 C 11.940474,20.09759 22.043105,11.32322 32.158766,21.979434 L 37.068811,17.246167 C 37.068811,17.246167 37.088388,32 37.088388,32 L 22.160133,31.978069 C 22.160133,31.978069 26.997745,27.140456 26.997745,27.140456 C 18.528582,18.264221 13.291696,25.230495 11.500037,31.436501 z"
             style="fill:#404040;"/>
          </a>
         </g>
        </svg>
</svg>
