<?xml version="1.0" encoding="UTF-8" standalone="no"?>
<!DOCTYPE svg PUBLIC "-//W3C//DTD SVG 1.1//EN"
 "http://www.w3.org/Graphics/SVG/1.1/DTD/svg11.dtd">
<!-- Generated by graphviz version 2.36.0 (20140111.2315)
 -->
<!-- Title: /data/Software/DAQ/PDAQ/Core/Include/xml.h Pages: 1 -->
<svg width="142pt" height="152pt"
 viewBox="0.00 0.00 142.00 152.00" xmlns="http://www.w3.org/2000/svg" xmlns:xlink="http://www.w3.org/1999/xlink">
<g id="graph0" class="graph" transform="scale(1 1) rotate(0) translate(4 148)">
<title>/data/Software/DAQ/PDAQ/Core/Include/xml.h</title>
<polygon fill="white" stroke="none" points="-4,4 -4,-148 138,-148 138,4 -4,4"/>
<!-- Node1 -->
<g id="node1" class="node"><title>Node1</title>
<polygon fill="#bfbfbf" stroke="black" points="0,-113 0,-143 134,-143 134,-113 0,-113"/>
<text text-anchor="start" x="8" y="-131" font-family="Helvetica,sans-Serif" font-size="10.00">/data/Software/DAQ</text>
<text text-anchor="middle" x="67" y="-120" font-family="Helvetica,sans-Serif" font-size="10.00">/PDAQ/Core/Include/xml.h</text>
</g>
<!-- Node2 -->
<g id="node2" class="node"><title>Node2</title>
<g id="a_node2"><a xlink:href="_d_a_q_container_8h.xhtml" target="_top" xlink:title="DAQContainer.h">
<polygon fill="white" stroke="black" points="22.5,-56.5 22.5,-75.5 111.5,-75.5 111.5,-56.5 22.5,-56.5"/>
<text text-anchor="middle" x="67" y="-63.5" font-family="Helvetica,sans-Serif" font-size="10.00">DAQContainer.h</text>
</a>
</g>
</g>
<!-- Node1&#45;&gt;Node2 -->
<g id="edge1" class="edge"><title>Node1&#45;&gt;Node2</title>
<path fill="none" stroke="midnightblue" d="M67,-112.781C67,-104.781 67,-94.6887 67,-86.0168"/>
<polygon fill="midnightblue" stroke="midnightblue" points="70.5001,-85.7305 67,-75.7305 63.5001,-85.7306 70.5001,-85.7305"/>
</g>
<!-- Node3 -->
<g id="node3" class="node"><title>Node3</title>
<polygon fill="white" stroke="#bfbfbf" points="40.5,-0.5 40.5,-19.5 93.5,-19.5 93.5,-0.5 40.5,-0.5"/>
<text text-anchor="middle" x="67" y="-7.5" font-family="Helvetica,sans-Serif" font-size="10.00">complex</text>
</g>
<!-- Node2&#45;&gt;Node3 -->
<g id="edge2" class="edge"><title>Node2&#45;&gt;Node3</title>
<path fill="none" stroke="midnightblue" d="M67,-56.083C67,-49.0059 67,-38.8611 67,-29.9865"/>
<polygon fill="midnightblue" stroke="midnightblue" points="70.5001,-29.751 67,-19.7511 63.5001,-29.7511 70.5001,-29.751"/>
</g>
</g>
</svg>
