<?xml version="1.0" encoding="UTF-8" standalone="no"?>
<!DOCTYPE svg PUBLIC "-//W3C//DTD SVG 1.1//EN"
 "http://www.w3.org/Graphics/SVG/1.1/DTD/svg11.dtd">
<!-- Generated by graphviz version 2.36.0 (20140111.2315)
 -->
<!-- Title: lengthXMLString Pages: 1 -->
<svg width="540pt" height="180pt"
 viewBox="0.00 0.00 540.00 180.00" xmlns="http://www.w3.org/2000/svg" xmlns:xlink="http://www.w3.org/1999/xlink">
<g id="graph0" class="graph" transform="scale(1 1) rotate(0) translate(4 176)">
<title>lengthXMLString</title>
<polygon fill="white" stroke="none" points="-4,4 -4,-176 536,-176 536,4 -4,4"/>
<!-- Node1 -->
<g id="node1" class="node"><title>Node1</title>
<polygon fill="#bfbfbf" stroke="black" points="0.5,-76.5 0.5,-95.5 89.5,-95.5 89.5,-76.5 0.5,-76.5"/>
<text text-anchor="middle" x="45" y="-83.5" font-family="Helvetica,sans-Serif" font-size="10.00">lengthXMLString</text>
</g>
<!-- Node2 -->
<g id="node2" class="node"><title>Node2</title>
<g id="a_node2"><a xlink:href="struct_to_x_m_l_string_tool.xhtml#a0572044b9caffb4436b48c7b380fc70f" target="_top" xlink:title="ToXMLStringTool::freeBuffer">
<polygon fill="white" stroke="black" points="145.5,-152.5 145.5,-171.5 286.5,-171.5 286.5,-152.5 145.5,-152.5"/>
<text text-anchor="middle" x="216" y="-159.5" font-family="Helvetica,sans-Serif" font-size="10.00">ToXMLStringTool::freeBuffer</text>
</a>
</g>
</g>
<!-- Node1&#45;&gt;Node2 -->
<g id="edge1" class="edge"><title>Node1&#45;&gt;Node2</title>
<path fill="none" stroke="midnightblue" d="M58.0473,-95.5722C73.129,-107.13 100.134,-126.453 126,-138 136.398,-142.642 147.892,-146.558 159.069,-149.792"/>
<polygon fill="midnightblue" stroke="midnightblue" points="158.204,-153.184 168.774,-152.461 160.06,-146.435 158.204,-153.184"/>
</g>
<!-- Node3 -->
<g id="node3" class="node"><title>Node3</title>
<g id="a_node3"><a xlink:href="_c_d_a_q_2_plugins_2_source_2xml_parser_8cpp.xhtml#ae1b2fd77551f439e58967a80d09c59d1" target="_top" xlink:title="lengthXMLString">
<polygon fill="white" stroke="black" points="349.5,-95.5 349.5,-114.5 438.5,-114.5 438.5,-95.5 349.5,-95.5"/>
<text text-anchor="middle" x="394" y="-102.5" font-family="Helvetica,sans-Serif" font-size="10.00">lengthXMLString</text>
</a>
</g>
</g>
<!-- Node1&#45;&gt;Node3 -->
<g id="edge2" class="edge"><title>Node1&#45;&gt;Node3</title>
<path fill="none" stroke="midnightblue" d="M78.3876,-95.5066C92.8228,-99.271 110.12,-103.14 126,-105 199.528,-113.612 285.23,-111.478 339.299,-108.655"/>
<polygon fill="midnightblue" stroke="midnightblue" points="339.554,-112.147 349.347,-108.104 339.17,-105.157 339.554,-112.147"/>
</g>
<!-- Node4 -->
<g id="node4" class="node"><title>Node4</title>
<g id="a_node4"><a xlink:href="struct_to_x_m_l_string_tool.xhtml#a3e0bb98fc6bf2c8b855fa4ea573177c2" target="_top" xlink:title="ToXMLStringTool::toXML">
<polygon fill="white" stroke="black" points="152.5,-76.5 152.5,-95.5 279.5,-95.5 279.5,-76.5 152.5,-76.5"/>
<text text-anchor="middle" x="216" y="-83.5" font-family="Helvetica,sans-Serif" font-size="10.00">ToXMLStringTool::toXML</text>
</a>
</g>
</g>
<!-- Node1&#45;&gt;Node4 -->
<g id="edge3" class="edge"><title>Node1&#45;&gt;Node4</title>
<path fill="none" stroke="midnightblue" d="M89.5217,-86C105.464,-86 123.974,-86 141.8,-86"/>
<polygon fill="midnightblue" stroke="midnightblue" points="142.193,-89.5001 152.193,-86 142.193,-82.5001 142.193,-89.5001"/>
</g>
<!-- Node5 -->
<g id="node5" class="node"><title>Node5</title>
<g id="a_node5"><a xlink:href="_c_d_a_q_2_plugins_2_source_2xml_parser_8cpp.xhtml#a454fce17a610e83316f0df2534cd4e08" target="_top" xlink:title="toXMLStringUnSafe">
<polygon fill="white" stroke="black" points="342,-48.5 342,-67.5 446,-67.5 446,-48.5 342,-48.5"/>
<text text-anchor="middle" x="394" y="-55.5" font-family="Helvetica,sans-Serif" font-size="10.00">toXMLStringUnSafe</text>
</a>
</g>
</g>
<!-- Node1&#45;&gt;Node5 -->
<g id="edge7" class="edge"><title>Node1&#45;&gt;Node5</title>
<path fill="none" stroke="midnightblue" d="M79.586,-76.448C93.786,-72.8219 110.578,-69.0701 126,-67 195.96,-57.609 277.103,-56.203 331.407,-56.6069"/>
<polygon fill="midnightblue" stroke="midnightblue" points="331.528,-60.1082 341.561,-56.7059 331.596,-53.1085 331.528,-60.1082"/>
</g>
<!-- Node7 -->
<g id="node7" class="node"><title>Node7</title>
<g id="a_node7"><a xlink:href="struct_to_x_m_l_string_tool.xhtml#a4e0f6022d6b58f323b2c41df83926ca9" target="_top" xlink:title="ToXMLStringTool::~ToXMLStringTool">
<polygon fill="white" stroke="black" points="126,-0.5 126,-19.5 306,-19.5 306,-0.5 126,-0.5"/>
<text text-anchor="middle" x="216" y="-7.5" font-family="Helvetica,sans-Serif" font-size="10.00">ToXMLStringTool::~ToXMLStringTool</text>
</a>
</g>
</g>
<!-- Node1&#45;&gt;Node7 -->
<g id="edge8" class="edge"><title>Node1&#45;&gt;Node7</title>
<path fill="none" stroke="midnightblue" d="M58.0473,-76.4278C73.129,-64.8697 100.134,-45.5474 126,-34 136.398,-29.3579 147.892,-25.4421 159.069,-22.2076"/>
<polygon fill="midnightblue" stroke="midnightblue" points="160.06,-25.5652 168.774,-19.5394 158.204,-18.8156 160.06,-25.5652"/>
</g>
<!-- Node4&#45;&gt;Node3 -->
<g id="edge4" class="edge"><title>Node4&#45;&gt;Node3</title>
<path fill="none" stroke="midnightblue" d="M279.547,-92.7522C299.054,-94.8581 320.388,-97.1612 339.238,-99.1961"/>
<polygon fill="midnightblue" stroke="midnightblue" points="339.109,-102.703 349.427,-100.296 339.861,-95.7429 339.109,-102.703"/>
</g>
<!-- Node4&#45;&gt;Node5 -->
<g id="edge5" class="edge"><title>Node4&#45;&gt;Node5</title>
<path fill="none" stroke="midnightblue" d="M277.077,-76.4423C294.725,-73.6347 314.044,-70.5612 331.763,-67.7422"/>
<polygon fill="midnightblue" stroke="midnightblue" points="332.661,-71.1436 341.986,-66.1158 331.561,-64.2305 332.661,-71.1436"/>
</g>
<!-- Node6 -->
<g id="node6" class="node"><title>Node6</title>
<g id="a_node6"><a xlink:href="_c_d_a_q_2_plugins_2_source_2xml_parser_8cpp.xhtml#a73c2349b2f386ee50130a3961bd2dbab" target="_top" xlink:title="xstrcpy">
<polygon fill="white" stroke="black" points="482.5,-48.5 482.5,-67.5 531.5,-67.5 531.5,-48.5 482.5,-48.5"/>
<text text-anchor="middle" x="507" y="-55.5" font-family="Helvetica,sans-Serif" font-size="10.00">xstrcpy</text>
</a>
</g>
</g>
<!-- Node5&#45;&gt;Node6 -->
<g id="edge6" class="edge"><title>Node5&#45;&gt;Node6</title>
<path fill="none" stroke="midnightblue" d="M446.276,-58C455.044,-58 463.954,-58 472.123,-58"/>
<polygon fill="midnightblue" stroke="midnightblue" points="472.361,-61.5001 482.361,-58 472.361,-54.5001 472.361,-61.5001"/>
</g>
</g>
</svg>
