<?xml version="1.0" encoding="UTF-8" standalone="no"?>
<!DOCTYPE svg PUBLIC "-//W3C//DTD SVG 1.1//EN"
 "http://www.w3.org/Graphics/SVG/1.1/DTD/svg11.dtd">
<!-- Generated by graphviz version 2.36.0 (20140111.2315)
 -->
<!-- Title: /data/Software/DAQ/PDAQ/Core/Source/xml.cpp Pages: 1 -->
<svg width="853pt" height="152pt"
 viewBox="0.00 0.00 853.00 152.00" xmlns="http://www.w3.org/2000/svg" xmlns:xlink="http://www.w3.org/1999/xlink">
<g id="graph0" class="graph" transform="scale(1 1) rotate(0) translate(4 148)">
<title>/data/Software/DAQ/PDAQ/Core/Source/xml.cpp</title>
<polygon fill="white" stroke="none" points="-4,4 -4,-148 849,-148 849,4 -4,4"/>
<!-- Node1 -->
<g id="node1" class="node"><title>Node1</title>
<polygon fill="#bfbfbf" stroke="black" points="291.5,-113 291.5,-143 434.5,-143 434.5,-113 291.5,-113"/>
<text text-anchor="start" x="299.5" y="-131" font-family="Helvetica,sans-Serif" font-size="10.00">/data/Software/DAQ</text>
<text text-anchor="middle" x="363" y="-120" font-family="Helvetica,sans-Serif" font-size="10.00">/PDAQ/Core/Source/xml.cpp</text>
</g>
<!-- Node2 -->
<g id="node2" class="node"><title>Node2</title>
<polygon fill="white" stroke="#bfbfbf" points="0,-0.5 0,-19.5 46,-19.5 46,-0.5 0,-0.5"/>
<text text-anchor="middle" x="23" y="-7.5" font-family="Helvetica,sans-Serif" font-size="10.00">stdio.h</text>
</g>
<!-- Node1&#45;&gt;Node2 -->
<g id="edge1" class="edge"><title>Node1&#45;&gt;Node2</title>
<path fill="none" stroke="midnightblue" d="M291.369,-121.751C214.455,-114.929 98.3845,-100.844 62,-76 45.7334,-64.8927 35.1565,-44.5549 29.1765,-29.5766"/>
<polygon fill="midnightblue" stroke="midnightblue" points="32.3345,-28.0205 25.6189,-19.8259 25.7585,-30.4198 32.3345,-28.0205"/>
</g>
<!-- Node3 -->
<g id="node3" class="node"><title>Node3</title>
<polygon fill="white" stroke="#bfbfbf" points="144.5,-0.5 144.5,-19.5 193.5,-19.5 193.5,-0.5 144.5,-0.5"/>
<text text-anchor="middle" x="169" y="-7.5" font-family="Helvetica,sans-Serif" font-size="10.00">string.h</text>
</g>
<!-- Node1&#45;&gt;Node3 -->
<g id="edge2" class="edge"><title>Node1&#45;&gt;Node3</title>
<path fill="none" stroke="midnightblue" d="M291.294,-117.722C241.537,-109.642 181.516,-96.0447 166,-76 155.861,-62.9019 158.32,-43.4847 162.273,-29.2838"/>
<polygon fill="midnightblue" stroke="midnightblue" points="165.647,-30.2241 165.402,-19.6321 158.988,-28.065 165.647,-30.2241"/>
</g>
<!-- Node4 -->
<g id="node4" class="node"><title>Node4</title>
<polygon fill="white" stroke="#bfbfbf" points="175,-56.5 175,-75.5 223,-75.5 223,-56.5 175,-56.5"/>
<text text-anchor="middle" x="199" y="-63.5" font-family="Helvetica,sans-Serif" font-size="10.00">stdlib.h</text>
</g>
<!-- Node1&#45;&gt;Node4 -->
<g id="edge3" class="edge"><title>Node1&#45;&gt;Node4</title>
<path fill="none" stroke="midnightblue" d="M324.549,-112.933C296.51,-102.674 258.9,-88.9148 232.174,-79.1369"/>
<polygon fill="midnightblue" stroke="midnightblue" points="233.101,-75.749 222.507,-75.6 230.695,-82.3228 233.101,-75.749"/>
</g>
<!-- Node5 -->
<g id="node5" class="node"><title>Node5</title>
<polygon fill="white" stroke="#bfbfbf" points="241,-56.5 241,-75.5 285,-75.5 285,-56.5 241,-56.5"/>
<text text-anchor="middle" x="263" y="-63.5" font-family="Helvetica,sans-Serif" font-size="10.00">time.h</text>
</g>
<!-- Node1&#45;&gt;Node5 -->
<g id="edge4" class="edge"><title>Node1&#45;&gt;Node5</title>
<path fill="none" stroke="midnightblue" d="M339.554,-112.933C323.436,-103.262 302.132,-90.4793 286.091,-80.8546"/>
<polygon fill="midnightblue" stroke="midnightblue" points="287.709,-77.7438 277.333,-75.6 284.108,-83.7463 287.709,-77.7438"/>
</g>
<!-- Node6 -->
<g id="node6" class="node"><title>Node6</title>
<polygon fill="white" stroke="#bfbfbf" points="303.5,-56.5 303.5,-75.5 350.5,-75.5 350.5,-56.5 303.5,-56.5"/>
<text text-anchor="middle" x="327" y="-63.5" font-family="Helvetica,sans-Serif" font-size="10.00">math.h</text>
</g>
<!-- Node1&#45;&gt;Node6 -->
<g id="edge5" class="edge"><title>Node1&#45;&gt;Node6</title>
<path fill="none" stroke="midnightblue" d="M354.469,-112.781C349.399,-104.332 342.929,-93.5481 337.542,-84.5693"/>
<polygon fill="midnightblue" stroke="midnightblue" points="340.385,-82.5047 332.238,-75.7305 334.382,-86.1062 340.385,-82.5047"/>
</g>
<!-- Node7 -->
<g id="node7" class="node"><title>Node7</title>
<polygon fill="white" stroke="#bfbfbf" points="369,-56.5 369,-75.5 429,-75.5 429,-56.5 369,-56.5"/>
<text text-anchor="middle" x="399" y="-63.5" font-family="Helvetica,sans-Serif" font-size="10.00">sys/stat.h</text>
</g>
<!-- Node1&#45;&gt;Node7 -->
<g id="edge6" class="edge"><title>Node1&#45;&gt;Node7</title>
<path fill="none" stroke="midnightblue" d="M371.531,-112.781C376.601,-104.332 383.071,-93.5481 388.458,-84.5693"/>
<polygon fill="midnightblue" stroke="midnightblue" points="391.618,-86.1062 393.762,-75.7305 385.615,-82.5047 391.618,-86.1062"/>
</g>
<!-- Node8 -->
<g id="node8" class="node"><title>Node8</title>
<polygon fill="white" stroke="#bfbfbf" points="447.5,-56.5 447.5,-75.5 498.5,-75.5 498.5,-56.5 447.5,-56.5"/>
<text text-anchor="middle" x="473" y="-63.5" font-family="Helvetica,sans-Serif" font-size="10.00">unistd.h</text>
</g>
<!-- Node1&#45;&gt;Node8 -->
<g id="edge7" class="edge"><title>Node1&#45;&gt;Node8</title>
<path fill="none" stroke="midnightblue" d="M388.79,-112.933C406.686,-103.171 430.393,-90.2401 448.093,-80.5856"/>
<polygon fill="midnightblue" stroke="midnightblue" points="450.13,-83.4612 457.233,-75.6 446.778,-77.316 450.13,-83.4612"/>
</g>
<!-- Node9 -->
<g id="node9" class="node"><title>Node9</title>
<polygon fill="white" stroke="#bfbfbf" points="517,-56.5 517,-75.5 571,-75.5 571,-56.5 517,-56.5"/>
<text text-anchor="middle" x="544" y="-63.5" font-family="Helvetica,sans-Serif" font-size="10.00">iostream</text>
</g>
<!-- Node1&#45;&gt;Node9 -->
<g id="edge8" class="edge"><title>Node1&#45;&gt;Node9</title>
<path fill="none" stroke="midnightblue" d="M405.436,-112.933C436.885,-102.508 479.242,-88.4667 508.815,-78.6635"/>
<polygon fill="midnightblue" stroke="midnightblue" points="509.929,-81.9815 518.32,-75.5127 507.727,-75.3371 509.929,-81.9815"/>
</g>
<!-- Node10 -->
<g id="node10" class="node"><title>Node10</title>
<polygon fill="white" stroke="#bfbfbf" points="589,-56.5 589,-75.5 651,-75.5 651,-56.5 589,-56.5"/>
<text text-anchor="middle" x="620" y="-63.5" font-family="Helvetica,sans-Serif" font-size="10.00">sys/time.h</text>
</g>
<!-- Node1&#45;&gt;Node10 -->
<g id="edge9" class="edge"><title>Node1&#45;&gt;Node10</title>
<path fill="none" stroke="midnightblue" d="M423.255,-112.933C471.227,-101.733 537.074,-86.3602 579.087,-76.5517"/>
<polygon fill="midnightblue" stroke="midnightblue" points="580.027,-79.9263 588.97,-74.2444 578.436,-73.1096 580.027,-79.9263"/>
</g>
<!-- Node11 -->
<g id="node11" class="node"><title>Node11</title>
<g id="a_node11"><a xlink:href="_d_r_s_8h.xhtml" target="_top" xlink:title="DRS.h">
<polygon fill="white" stroke="black" points="71.5,-56.5 71.5,-75.5 118.5,-75.5 118.5,-56.5 71.5,-56.5"/>
<text text-anchor="middle" x="95" y="-63.5" font-family="Helvetica,sans-Serif" font-size="10.00">DRS.h</text>
</a>
</g>
</g>
<!-- Node1&#45;&gt;Node11 -->
<g id="edge10" class="edge"><title>Node1&#45;&gt;Node11</title>
<path fill="none" stroke="midnightblue" d="M298.503,-112.958C252.367,-102.85 188.812,-88.7966 133,-76 131.554,-75.6686 130.078,-75.3281 128.588,-74.9824"/>
<polygon fill="midnightblue" stroke="midnightblue" points="129.239,-71.5403 118.704,-72.6696 127.644,-78.3562 129.239,-71.5403"/>
</g>
<!-- Node13 -->
<g id="node13" class="node"><title>Node13</title>
<polygon fill="white" stroke="#bfbfbf" points="669.5,-56.5 669.5,-75.5 738.5,-75.5 738.5,-56.5 669.5,-56.5"/>
<text text-anchor="middle" x="704" y="-63.5" font-family="Helvetica,sans-Serif" font-size="10.00">xmlParser.h</text>
</g>
<!-- Node1&#45;&gt;Node13 -->
<g id="edge14" class="edge"><title>Node1&#45;&gt;Node13</title>
<path fill="none" stroke="midnightblue" d="M434.57,-115.22C494.579,-105.211 582.486,-90.2404 659,-76 659.103,-75.9809 659.206,-75.9617 659.309,-75.9425"/>
<polygon fill="midnightblue" stroke="midnightblue" points="659.965,-79.3804 669.133,-74.0692 658.654,-72.5043 659.965,-79.3804"/>
</g>
<!-- Node14 -->
<g id="node14" class="node"><title>Node14</title>
<g id="a_node14"><a xlink:href="_d_a_q_container_8h.xhtml" target="_top" xlink:title="DAQContainer.h">
<polygon fill="white" stroke="black" points="756.5,-56.5 756.5,-75.5 845.5,-75.5 845.5,-56.5 756.5,-56.5"/>
<text text-anchor="middle" x="801" y="-63.5" font-family="Helvetica,sans-Serif" font-size="10.00">DAQContainer.h</text>
</a>
</g>
</g>
<!-- Node1&#45;&gt;Node14 -->
<g id="edge15" class="edge"><title>Node1&#45;&gt;Node14</title>
<path fill="none" stroke="midnightblue" d="M434.58,-118.212C509.594,-108.84 631.131,-93.1962 746.187,-76.0793"/>
<polygon fill="midnightblue" stroke="midnightblue" points="746.856,-79.5183 756.229,-74.5791 745.822,-72.5951 746.856,-79.5183"/>
</g>
<!-- Node11&#45;&gt;Node2 -->
<g id="edge11" class="edge"><title>Node11&#45;&gt;Node2</title>
<path fill="none" stroke="midnightblue" d="M83.432,-56.324C72.5798,-48.1849 56.1193,-35.8395 43.1166,-26.0874"/>
<polygon fill="midnightblue" stroke="midnightblue" points="44.8786,-23.0339 34.7785,-19.8339 40.6785,-28.6339 44.8786,-23.0339"/>
</g>
<!-- Node11&#45;&gt;Node3 -->
<g id="edge12" class="edge"><title>Node11&#45;&gt;Node3</title>
<path fill="none" stroke="midnightblue" d="M106.889,-56.324C118.15,-48.1066 135.287,-35.6017 148.709,-25.8069"/>
<polygon fill="midnightblue" stroke="midnightblue" points="150.88,-28.5559 156.894,-19.8339 146.753,-22.9014 150.88,-28.5559"/>
</g>
<!-- Node12 -->
<g id="node12" class="node"><title>Node12</title>
<g id="a_node12"><a xlink:href="averager_8h.xhtml" target="_top" xlink:title="averager.h">
<polygon fill="white" stroke="black" points="64,-0.5 64,-19.5 126,-19.5 126,-0.5 64,-0.5"/>
<text text-anchor="middle" x="95" y="-7.5" font-family="Helvetica,sans-Serif" font-size="10.00">averager.h</text>
</a>
</g>
</g>
<!-- Node11&#45;&gt;Node12 -->
<g id="edge13" class="edge"><title>Node11&#45;&gt;Node12</title>
<path fill="none" stroke="midnightblue" d="M95,-56.083C95,-49.0059 95,-38.8611 95,-29.9865"/>
<polygon fill="midnightblue" stroke="midnightblue" points="98.5001,-29.751 95,-19.7511 91.5001,-29.7511 98.5001,-29.751"/>
</g>
<!-- Node15 -->
<g id="node15" class="node"><title>Node15</title>
<polygon fill="white" stroke="#bfbfbf" points="774.5,-0.5 774.5,-19.5 827.5,-19.5 827.5,-0.5 774.5,-0.5"/>
<text text-anchor="middle" x="801" y="-7.5" font-family="Helvetica,sans-Serif" font-size="10.00">complex</text>
</g>
<!-- Node14&#45;&gt;Node15 -->
<g id="edge16" class="edge"><title>Node14&#45;&gt;Node15</title>
<path fill="none" stroke="midnightblue" d="M801,-56.083C801,-49.0059 801,-38.8611 801,-29.9865"/>
<polygon fill="midnightblue" stroke="midnightblue" points="804.5,-29.751 801,-19.7511 797.5,-29.7511 804.5,-29.751"/>
</g>
</g>
</svg>
