<?xml version="1.0" encoding="UTF-8" standalone="no"?>
<!DOCTYPE svg PUBLIC "-//W3C//DTD SVG 1.1//EN"
 "http://www.w3.org/Graphics/SVG/1.1/DTD/svg11.dtd">
<!-- Generated by graphviz version 2.36.0 (20140111.2315)
 -->
<!-- Title: /data/Software/DAQ/Scaler/Core/Source/ScalerManager.cpp Pages: 1 -->
<svg width="1353pt" height="162pt"
 viewBox="0.00 0.00 1353.00 162.00" xmlns="http://www.w3.org/2000/svg" xmlns:xlink="http://www.w3.org/1999/xlink">
<g id="graph0" class="graph" transform="scale(1 1) rotate(0) translate(4 158)">
<title>/data/Software/DAQ/Scaler/Core/Source/ScalerManager.cpp</title>
<polygon fill="white" stroke="none" points="-4,4 -4,-158 1349,-158 1349,4 -4,4"/>
<!-- Node1 -->
<g id="node1" class="node"><title>Node1</title>
<polygon fill="#bfbfbf" stroke="black" points="356.5,-112.5 356.5,-153.5 461.5,-153.5 461.5,-112.5 356.5,-112.5"/>
<text text-anchor="start" x="364.5" y="-141.5" font-family="Helvetica,sans-Serif" font-size="10.00">/data/Software/DAQ</text>
<text text-anchor="start" x="364.5" y="-130.5" font-family="Helvetica,sans-Serif" font-size="10.00">/Scaler/Core/Source</text>
<text text-anchor="middle" x="409" y="-119.5" font-family="Helvetica,sans-Serif" font-size="10.00">/ScalerManager.cpp</text>
</g>
<!-- Node2 -->
<g id="node2" class="node"><title>Node2</title>
<polygon fill="white" stroke="#bfbfbf" points="0,-56.5 0,-75.5 50,-75.5 50,-56.5 0,-56.5"/>
<text text-anchor="middle" x="25" y="-63.5" font-family="Helvetica,sans-Serif" font-size="10.00">fstream</text>
</g>
<!-- Node1&#45;&gt;Node2 -->
<g id="edge1" class="edge"><title>Node1&#45;&gt;Node2</title>
<path fill="none" stroke="midnightblue" d="M356.22,-125.233C289.456,-116.302 170.809,-99.1941 60.1771,-76.0762"/>
<polygon fill="midnightblue" stroke="midnightblue" points="60.691,-72.6077 50.1837,-73.9667 59.2451,-79.4567 60.691,-72.6077"/>
</g>
<!-- Node3 -->
<g id="node3" class="node"><title>Node3</title>
<polygon fill="white" stroke="#bfbfbf" points="68,-56.5 68,-75.5 120,-75.5 120,-56.5 68,-56.5"/>
<text text-anchor="middle" x="94" y="-63.5" font-family="Helvetica,sans-Serif" font-size="10.00">sstream</text>
</g>
<!-- Node1&#45;&gt;Node3 -->
<g id="edge2" class="edge"><title>Node1&#45;&gt;Node3</title>
<path fill="none" stroke="midnightblue" d="M356.47,-121.635C301.079,-110.627 211.298,-92.5646 134,-76 132.747,-75.7315 131.473,-75.4563 130.186,-75.1766"/>
<polygon fill="midnightblue" stroke="midnightblue" points="130.752,-71.7175 120.233,-72.9829 129.245,-78.5534 130.752,-71.7175"/>
</g>
<!-- Node4 -->
<g id="node4" class="node"><title>Node4</title>
<polygon fill="white" stroke="#bfbfbf" points="287,-0.5 287,-19.5 331,-19.5 331,-0.5 287,-0.5"/>
<text text-anchor="middle" x="309" y="-7.5" font-family="Helvetica,sans-Serif" font-size="10.00">vector</text>
</g>
<!-- Node1&#45;&gt;Node4 -->
<g id="edge3" class="edge"><title>Node1&#45;&gt;Node4</title>
<path fill="none" stroke="midnightblue" d="M426.35,-112.259C438.362,-96.0867 450.185,-73.1555 438,-56 435.058,-51.8572 378.237,-33.0923 340.997,-21.1405"/>
<polygon fill="midnightblue" stroke="midnightblue" points="341.665,-17.6796 331.074,-17.968 339.533,-24.3471 341.665,-17.6796"/>
</g>
<!-- Node5 -->
<g id="node5" class="node"><title>Node5</title>
<polygon fill="white" stroke="#bfbfbf" points="176.5,-56.5 176.5,-75.5 223.5,-75.5 223.5,-56.5 176.5,-56.5"/>
<text text-anchor="middle" x="200" y="-63.5" font-family="Helvetica,sans-Serif" font-size="10.00">iterator</text>
</g>
<!-- Node1&#45;&gt;Node5 -->
<g id="edge4" class="edge"><title>Node1&#45;&gt;Node5</title>
<path fill="none" stroke="midnightblue" d="M356.26,-115.598C317.685,-103.601 266.52,-87.6879 233.427,-77.3961"/>
<polygon fill="midnightblue" stroke="midnightblue" points="234.36,-74.0208 223.771,-74.393 232.281,-80.705 234.36,-74.0208"/>
</g>
<!-- Node6 -->
<g id="node6" class="node"><title>Node6</title>
<polygon fill="white" stroke="#bfbfbf" points="242,-56.5 242,-75.5 298,-75.5 298,-56.5 242,-56.5"/>
<text text-anchor="middle" x="270" y="-63.5" font-family="Helvetica,sans-Serif" font-size="10.00">algorithm</text>
</g>
<!-- Node1&#45;&gt;Node6 -->
<g id="edge5" class="edge"><title>Node1&#45;&gt;Node6</title>
<path fill="none" stroke="midnightblue" d="M367.295,-112.498C344.755,-101.957 317.544,-89.2326 297.636,-79.9235"/>
<polygon fill="midnightblue" stroke="midnightblue" points="299.044,-76.7181 288.503,-75.6525 296.079,-83.059 299.044,-76.7181"/>
</g>
<!-- Node7 -->
<g id="node7" class="node"><title>Node7</title>
<polygon fill="white" stroke="#bfbfbf" points="316,-56.5 316,-75.5 370,-75.5 370,-56.5 316,-56.5"/>
<text text-anchor="middle" x="343" y="-63.5" font-family="Helvetica,sans-Serif" font-size="10.00">iostream</text>
</g>
<!-- Node1&#45;&gt;Node7 -->
<g id="edge6" class="edge"><title>Node1&#45;&gt;Node7</title>
<path fill="none" stroke="midnightblue" d="M389.198,-112.498C379.565,-103.011 368.137,-91.7557 359.056,-82.8131"/>
<polygon fill="midnightblue" stroke="midnightblue" points="361.366,-80.1757 351.786,-75.6525 356.455,-85.1631 361.366,-80.1757"/>
</g>
<!-- Node8 -->
<g id="node8" class="node"><title>Node8</title>
<polygon fill="white" stroke="#bfbfbf" points="388.5,-56.5 388.5,-75.5 429.5,-75.5 429.5,-56.5 388.5,-56.5"/>
<text text-anchor="middle" x="409" y="-63.5" font-family="Helvetica,sans-Serif" font-size="10.00">string</text>
</g>
<!-- Node1&#45;&gt;Node8 -->
<g id="edge7" class="edge"><title>Node1&#45;&gt;Node8</title>
<path fill="none" stroke="midnightblue" d="M409,-112.498C409,-104.065 409,-94.2351 409,-85.874"/>
<polygon fill="midnightblue" stroke="midnightblue" points="412.5,-85.6525 409,-75.6525 405.5,-85.6525 412.5,-85.6525"/>
</g>
<!-- Node9 -->
<g id="node9" class="node"><title>Node9</title>
<g id="a_node9"><a xlink:href="_scaler_manager_8h.xhtml" target="_top" xlink:title="ScalerManager.h">
<polygon fill="white" stroke="black" points="486,-56.5 486,-75.5 576,-75.5 576,-56.5 486,-56.5"/>
<text text-anchor="middle" x="531" y="-63.5" font-family="Helvetica,sans-Serif" font-size="10.00">ScalerManager.h</text>
</a>
</g>
</g>
<!-- Node1&#45;&gt;Node9 -->
<g id="edge8" class="edge"><title>Node1&#45;&gt;Node9</title>
<path fill="none" stroke="midnightblue" d="M445.604,-112.498C465.028,-102.149 488.404,-89.6946 505.784,-80.4346"/>
<polygon fill="midnightblue" stroke="midnightblue" points="507.58,-83.4436 514.76,-75.6525 504.289,-77.2657 507.58,-83.4436"/>
</g>
<!-- Node17 -->
<g id="node17" class="node"><title>Node17</title>
<polygon fill="white" stroke="#bfbfbf" points="119,-0.5 119,-19.5 165,-19.5 165,-0.5 119,-0.5"/>
<text text-anchor="middle" x="142" y="-7.5" font-family="Helvetica,sans-Serif" font-size="10.00">keyb.h</text>
</g>
<!-- Node1&#45;&gt;Node17 -->
<g id="edge38" class="edge"><title>Node1&#45;&gt;Node17</title>
<path fill="none" stroke="midnightblue" d="M356.43,-125.653C294.033,-117.147 194.91,-100.258 167,-76 153.474,-64.244 147.23,-44.3119 144.37,-29.612"/>
<polygon fill="midnightblue" stroke="midnightblue" points="147.807,-28.9381 142.778,-19.6129 140.894,-30.0389 147.807,-28.9381"/>
</g>
<!-- Node19 -->
<g id="node19" class="node"><title>Node19</title>
<g id="a_node19"><a xlink:href="_i_o_manager_8h.xhtml" target="_top" xlink:title="IOManager.h">
<polygon fill="white" stroke="black" points="600.5,-56.5 600.5,-75.5 673.5,-75.5 673.5,-56.5 600.5,-56.5"/>
<text text-anchor="middle" x="637" y="-63.5" font-family="Helvetica,sans-Serif" font-size="10.00">IOManager.h</text>
</a>
</g>
</g>
<!-- Node1&#45;&gt;Node19 -->
<g id="edge19" class="edge"><title>Node1&#45;&gt;Node19</title>
<path fill="none" stroke="midnightblue" d="M461.594,-117.006C502.826,-105.251 559.334,-89.1417 596.948,-78.4183"/>
<polygon fill="midnightblue" stroke="midnightblue" points="598.371,-81.6523 607.028,-75.5447 596.451,-74.9205 598.371,-81.6523"/>
</g>
<!-- Node27 -->
<g id="node27" class="node"><title>Node27</title>
<polygon fill="white" stroke="#bfbfbf" points="692,-56.5 692,-75.5 742,-75.5 742,-56.5 692,-56.5"/>
<text text-anchor="middle" x="717" y="-63.5" font-family="Helvetica,sans-Serif" font-size="10.00">global.h</text>
</g>
<!-- Node1&#45;&gt;Node27 -->
<g id="edge35" class="edge"><title>Node1&#45;&gt;Node27</title>
<path fill="none" stroke="midnightblue" d="M461.503,-122.029C516.593,-111.38 605.631,-93.6403 682,-76 682.099,-75.9771 682.199,-75.954 682.298,-75.931"/>
<polygon fill="midnightblue" stroke="midnightblue" points="682.901,-79.386 691.801,-73.638 681.259,-72.5813 682.901,-79.386"/>
</g>
<!-- Node28 -->
<g id="node28" class="node"><title>Node28</title>
<polygon fill="white" stroke="#bfbfbf" points="760,-56.5 760,-75.5 822,-75.5 822,-56.5 760,-56.5"/>
<text text-anchor="middle" x="791" y="-63.5" font-family="Helvetica,sans-Serif" font-size="10.00">sys/time.h</text>
</g>
<!-- Node1&#45;&gt;Node28 -->
<g id="edge36" class="edge"><title>Node1&#45;&gt;Node28</title>
<path fill="none" stroke="midnightblue" d="M461.609,-124.371C526.87,-114.689 641.749,-96.9305 749.523,-76.2003"/>
<polygon fill="midnightblue" stroke="midnightblue" points="750.442,-79.5875 759.594,-74.2502 749.111,-72.7151 750.442,-79.5875"/>
</g>
<!-- Node29 -->
<g id="node29" class="node"><title>Node29</title>
<polygon fill="white" stroke="#bfbfbf" points="840.5,-56.5 840.5,-75.5 891.5,-75.5 891.5,-56.5 840.5,-56.5"/>
<text text-anchor="middle" x="866" y="-63.5" font-family="Helvetica,sans-Serif" font-size="10.00">unistd.h</text>
</g>
<!-- Node1&#45;&gt;Node29 -->
<g id="edge37" class="edge"><title>Node1&#45;&gt;Node29</title>
<path fill="none" stroke="midnightblue" d="M461.813,-126.907C541.87,-118.753 698.546,-101.092 830,-76 830.103,-75.9804 830.206,-75.9606 830.309,-75.9408"/>
<polygon fill="midnightblue" stroke="midnightblue" points="831.076,-79.3561 840.121,-73.8403 829.61,-72.5111 831.076,-79.3561"/>
</g>
<!-- Node9&#45;&gt;Node4 -->
<g id="edge14" class="edge"><title>Node9&#45;&gt;Node4</title>
<path fill="none" stroke="midnightblue" d="M492.079,-56.4435C455.497,-48.2648 398.993,-35.2846 341.329,-20.2545"/>
<polygon fill="midnightblue" stroke="midnightblue" points="341.874,-16.7791 331.313,-17.6259 340.097,-23.5498 341.874,-16.7791"/>
</g>
<!-- Node10 -->
<g id="node10" class="node"><title>Node10</title>
<polygon fill="white" stroke="#bfbfbf" points="761.5,-0.5 761.5,-19.5 810.5,-19.5 810.5,-0.5 761.5,-0.5"/>
<text text-anchor="middle" x="786" y="-7.5" font-family="Helvetica,sans-Serif" font-size="10.00">string.h</text>
</g>
<!-- Node9&#45;&gt;Node10 -->
<g id="edge9" class="edge"><title>Node9&#45;&gt;Node10</title>
<path fill="none" stroke="midnightblue" d="M576.227,-56.4342C620.803,-47.8304 690.79,-33.8901 751,-20 751.103,-19.9762 751.206,-19.9523 751.31,-19.9284"/>
<polygon fill="midnightblue" stroke="midnightblue" points="752.282,-23.2943 761.181,-17.5451 750.639,-16.4898 752.282,-23.2943"/>
</g>
<!-- Node11 -->
<g id="node11" class="node"><title>Node11</title>
<polygon fill="white" stroke="#bfbfbf" points="349,-0.5 349,-19.5 395,-19.5 395,-0.5 349,-0.5"/>
<text text-anchor="middle" x="372" y="-7.5" font-family="Helvetica,sans-Serif" font-size="10.00">stdio.h</text>
</g>
<!-- Node9&#45;&gt;Node11 -->
<g id="edge10" class="edge"><title>Node9&#45;&gt;Node11</title>
<path fill="none" stroke="midnightblue" d="M505.806,-56.4435C478.428,-47.1454 434.591,-32.2572 404.605,-22.0735"/>
<polygon fill="midnightblue" stroke="midnightblue" points="405.606,-18.7169 395.011,-18.8151 403.354,-25.3451 405.606,-18.7169"/>
</g>
<!-- Node12 -->
<g id="node12" class="node"><title>Node12</title>
<polygon fill="white" stroke="#bfbfbf" points="413,-0.5 413,-19.5 461,-19.5 461,-0.5 413,-0.5"/>
<text text-anchor="middle" x="437" y="-7.5" font-family="Helvetica,sans-Serif" font-size="10.00">stdlib.h</text>
</g>
<!-- Node9&#45;&gt;Node12 -->
<g id="edge11" class="edge"><title>Node9&#45;&gt;Node12</title>
<path fill="none" stroke="midnightblue" d="M515.897,-56.324C501.097,-47.8215 478.306,-34.7288 461.018,-24.7975"/>
<polygon fill="midnightblue" stroke="midnightblue" points="462.48,-21.6009 452.065,-19.6545 458.993,-27.6707 462.48,-21.6009"/>
</g>
<!-- Node13 -->
<g id="node13" class="node"><title>Node13</title>
<polygon fill="white" stroke="#bfbfbf" points="479,-0.5 479,-19.5 523,-19.5 523,-0.5 479,-0.5"/>
<text text-anchor="middle" x="501" y="-7.5" font-family="Helvetica,sans-Serif" font-size="10.00">time.h</text>
</g>
<!-- Node9&#45;&gt;Node13 -->
<g id="edge12" class="edge"><title>Node9&#45;&gt;Node13</title>
<path fill="none" stroke="midnightblue" d="M526.046,-56.083C521.896,-48.6127 515.847,-37.7244 510.733,-28.5199"/>
<polygon fill="midnightblue" stroke="midnightblue" points="513.778,-26.7929 505.862,-19.7511 507.659,-30.1924 513.778,-26.7929"/>
</g>
<!-- Node14 -->
<g id="node14" class="node"><title>Node14</title>
<polygon fill="white" stroke="#bfbfbf" points="183.5,-0.5 183.5,-19.5 268.5,-19.5 268.5,-0.5 183.5,-0.5"/>
<text text-anchor="middle" x="226" y="-7.5" font-family="Helvetica,sans-Serif" font-size="10.00">CAENVMElib.h</text>
</g>
<!-- Node9&#45;&gt;Node14 -->
<g id="edge13" class="edge"><title>Node9&#45;&gt;Node14</title>
<path fill="none" stroke="midnightblue" d="M485.996,-57.0321C430.816,-47.2624 337.43,-30.7285 278.879,-20.3622"/>
<polygon fill="midnightblue" stroke="midnightblue" points="279.182,-16.8615 268.725,-18.5644 277.962,-23.7543 279.182,-16.8615"/>
</g>
<!-- Node15 -->
<g id="node15" class="node"><title>Node15</title>
<polygon fill="white" stroke="#bfbfbf" points="541,-0.5 541,-19.5 593,-19.5 593,-0.5 541,-0.5"/>
<text text-anchor="middle" x="567" y="-7.5" font-family="Helvetica,sans-Serif" font-size="10.00">memory</text>
</g>
<!-- Node9&#45;&gt;Node15 -->
<g id="edge15" class="edge"><title>Node9&#45;&gt;Node15</title>
<path fill="none" stroke="midnightblue" d="M536.945,-56.083C541.977,-48.5341 549.337,-37.4948 555.513,-28.2298"/>
<polygon fill="midnightblue" stroke="midnightblue" points="558.531,-30.0131 561.166,-19.7511 552.707,-26.1301 558.531,-30.0131"/>
</g>
<!-- Node16 -->
<g id="node16" class="node"><title>Node16</title>
<polygon fill="white" stroke="#bfbfbf" points="611.5,-0.5 611.5,-19.5 662.5,-19.5 662.5,-0.5 611.5,-0.5"/>
<text text-anchor="middle" x="637" y="-7.5" font-family="Helvetica,sans-Serif" font-size="10.00">typeinfo</text>
</g>
<!-- Node9&#45;&gt;Node16 -->
<g id="edge16" class="edge"><title>Node9&#45;&gt;Node16</title>
<path fill="none" stroke="midnightblue" d="M548.031,-56.324C565.03,-47.6641 591.376,-34.2424 610.993,-24.249"/>
<polygon fill="midnightblue" stroke="midnightblue" points="612.69,-27.3125 620.012,-19.6545 609.512,-21.0752 612.69,-27.3125"/>
</g>
<!-- Node9&#45;&gt;Node17 -->
<g id="edge17" class="edge"><title>Node9&#45;&gt;Node17</title>
<path fill="none" stroke="midnightblue" d="M485.919,-60.1653C407.607,-51.6324 248.542,-33.6749 175.46,-19.9798"/>
<polygon fill="midnightblue" stroke="midnightblue" points="175.807,-16.4814 165.321,-17.9917 174.461,-23.3506 175.807,-16.4814"/>
</g>
<!-- Node18 -->
<g id="node18" class="node"><title>Node18</title>
<polygon fill="white" stroke="#bfbfbf" points="681,-0.5 681,-19.5 743,-19.5 743,-0.5 681,-0.5"/>
<text text-anchor="middle" x="712" y="-7.5" font-family="Helvetica,sans-Serif" font-size="10.00">common.h</text>
</g>
<!-- Node9&#45;&gt;Node18 -->
<g id="edge18" class="edge"><title>Node9&#45;&gt;Node18</title>
<path fill="none" stroke="midnightblue" d="M559.68,-56.4435C590.527,-47.2406 639.728,-32.5617 673.829,-22.3879"/>
<polygon fill="midnightblue" stroke="midnightblue" points="674.872,-25.7293 683.454,-19.5164 672.871,-19.0215 674.872,-25.7293"/>
</g>
<!-- Node19&#45;&gt;Node4 -->
<g id="edge24" class="edge"><title>Node19&#45;&gt;Node4</title>
<path fill="none" stroke="midnightblue" d="M600.372,-58.54C595.214,-57.6654 589.976,-56.796 585,-56 479.508,-39.1232 449.297,-43.136 341.257,-20.0247"/>
<polygon fill="midnightblue" stroke="midnightblue" points="341.772,-16.5551 331.258,-17.8566 340.289,-23.3962 341.772,-16.5551"/>
</g>
<!-- Node19&#45;&gt;Node10 -->
<g id="edge20" class="edge"><title>Node19&#45;&gt;Node10</title>
<path fill="none" stroke="midnightblue" d="M660.609,-56.4435C685.458,-47.4381 724.774,-33.1891 752.754,-23.049"/>
<polygon fill="midnightblue" stroke="midnightblue" points="754.292,-26.2144 762.501,-19.5164 751.907,-19.6332 754.292,-26.2144"/>
</g>
<!-- Node19&#45;&gt;Node11 -->
<g id="edge21" class="edge"><title>Node19&#45;&gt;Node11</title>
<path fill="none" stroke="midnightblue" d="M600.373,-58.3121C548.256,-48.7348 454.353,-31.2378 404.867,-20.0144"/>
<polygon fill="midnightblue" stroke="midnightblue" points="405.546,-16.5788 395.012,-17.7197 403.958,-23.3964 405.546,-16.5788"/>
</g>
<!-- Node19&#45;&gt;Node12 -->
<g id="edge22" class="edge"><title>Node19&#45;&gt;Node12</title>
<path fill="none" stroke="midnightblue" d="M605.288,-56.4856C573.658,-47.9866 523.42,-34.4691 470.965,-20.2559"/>
<polygon fill="midnightblue" stroke="midnightblue" points="471.716,-16.8333 461.148,-17.595 469.884,-23.5894 471.716,-16.8333"/>
</g>
<!-- Node19&#45;&gt;Node13 -->
<g id="edge23" class="edge"><title>Node19&#45;&gt;Node13</title>
<path fill="none" stroke="midnightblue" d="M615.45,-56.4435C592.969,-47.5171 557.512,-33.4387 532.02,-23.3168"/>
<polygon fill="midnightblue" stroke="midnightblue" points="533.035,-19.9539 522.449,-19.5164 530.451,-26.4598 533.035,-19.9539"/>
</g>
<!-- Node19&#45;&gt;Node15 -->
<g id="edge25" class="edge"><title>Node19&#45;&gt;Node15</title>
<path fill="none" stroke="midnightblue" d="M625.753,-56.324C615.203,-48.1849 599.199,-35.8395 586.558,-26.0874"/>
<polygon fill="midnightblue" stroke="midnightblue" points="588.507,-23.1707 578.451,-19.8339 584.231,-28.7132 588.507,-23.1707"/>
</g>
<!-- Node19&#45;&gt;Node16 -->
<g id="edge26" class="edge"><title>Node19&#45;&gt;Node16</title>
<path fill="none" stroke="midnightblue" d="M637,-56.083C637,-49.0059 637,-38.8611 637,-29.9865"/>
<polygon fill="midnightblue" stroke="midnightblue" points="640.5,-29.751 637,-19.7511 633.5,-29.7511 640.5,-29.751"/>
</g>
<!-- Node19&#45;&gt;Node18 -->
<g id="edge27" class="edge"><title>Node19&#45;&gt;Node18</title>
<path fill="none" stroke="midnightblue" d="M649.05,-56.324C660.463,-48.1066 677.831,-35.6017 691.435,-25.8069"/>
<polygon fill="midnightblue" stroke="midnightblue" points="693.66,-28.5174 699.731,-19.8339 689.57,-22.8366 693.66,-28.5174"/>
</g>
<!-- Node20 -->
<g id="node20" class="node"><title>Node20</title>
<polygon fill="white" stroke="#bfbfbf" points="1189.5,-0.5 1189.5,-19.5 1248.5,-19.5 1248.5,-0.5 1189.5,-0.5"/>
<text text-anchor="middle" x="1219" y="-7.5" font-family="Helvetica,sans-Serif" font-size="10.00">TROOT.h</text>
</g>
<!-- Node19&#45;&gt;Node20 -->
<g id="edge28" class="edge"><title>Node19&#45;&gt;Node20</title>
<path fill="none" stroke="midnightblue" d="M673.592,-57.4265C676.766,-56.8954 679.935,-56.4093 683,-56 899.303,-27.1137 959.256,-52.239 1179.36,-19.84"/>
<polygon fill="midnightblue" stroke="midnightblue" points="1179.91,-23.2966 1189.28,-18.3565 1178.87,-16.3736 1179.91,-23.2966"/>
</g>
<!-- Node21 -->
<g id="node21" class="node"><title>Node21</title>
<polygon fill="white" stroke="#bfbfbf" points="1266.5,-0.5 1266.5,-19.5 1345.5,-19.5 1345.5,-0.5 1266.5,-0.5"/>
<text text-anchor="middle" x="1306" y="-7.5" font-family="Helvetica,sans-Serif" font-size="10.00">TApplication.h</text>
</g>
<!-- Node19&#45;&gt;Node21 -->
<g id="edge29" class="edge"><title>Node19&#45;&gt;Node21</title>
<path fill="none" stroke="midnightblue" d="M673.588,-57.3943C676.763,-56.8702 679.933,-56.3945 683,-56 933.305,-23.8042 1001.57,-50.4486 1256.55,-19.8833"/>
<polygon fill="midnightblue" stroke="midnightblue" points="1256.98,-23.3574 1266.48,-18.6756 1256.13,-16.4086 1256.98,-23.3574"/>
</g>
<!-- Node22 -->
<g id="node22" class="node"><title>Node22</title>
<polygon fill="white" stroke="#bfbfbf" points="828.5,-0.5 828.5,-19.5 893.5,-19.5 893.5,-0.5 828.5,-0.5"/>
<text text-anchor="middle" x="861" y="-7.5" font-family="Helvetica,sans-Serif" font-size="10.00">TSystem.h</text>
</g>
<!-- Node19&#45;&gt;Node22 -->
<g id="edge30" class="edge"><title>Node19&#45;&gt;Node22</title>
<path fill="none" stroke="midnightblue" d="M672.493,-56.4435C712.04,-46.9101 775.963,-31.5001 818.234,-21.3096"/>
<polygon fill="midnightblue" stroke="midnightblue" points="819.322,-24.6477 828.223,-18.9015 817.682,-17.8427 819.322,-24.6477"/>
</g>
<!-- Node23 -->
<g id="node23" class="node"><title>Node23</title>
<polygon fill="white" stroke="#bfbfbf" points="912,-0.5 912,-19.5 962,-19.5 962,-0.5 912,-0.5"/>
<text text-anchor="middle" x="937" y="-7.5" font-family="Helvetica,sans-Serif" font-size="10.00">TTree.h</text>
</g>
<!-- Node19&#45;&gt;Node23 -->
<g id="edge31" class="edge"><title>Node19&#45;&gt;Node23</title>
<path fill="none" stroke="midnightblue" d="M673.639,-57.7276C676.803,-57.1312 679.957,-56.5477 683,-56 780.08,-38.528 805.472,-40.3027 902,-20 902.1,-19.979 902.2,-19.9579 902.3,-19.9368"/>
<polygon fill="midnightblue" stroke="midnightblue" points="902.86,-23.3991 911.828,-17.7576 901.299,-16.5753 902.86,-23.3991"/>
</g>
<!-- Node24 -->
<g id="node24" class="node"><title>Node24</title>
<polygon fill="white" stroke="#bfbfbf" points="980.5,-0.5 980.5,-19.5 1039.5,-19.5 1039.5,-0.5 980.5,-0.5"/>
<text text-anchor="middle" x="1010" y="-7.5" font-family="Helvetica,sans-Serif" font-size="10.00">TNtuple.h</text>
</g>
<!-- Node19&#45;&gt;Node24 -->
<g id="edge32" class="edge"><title>Node19&#45;&gt;Node24</title>
<path fill="none" stroke="midnightblue" d="M673.618,-57.5997C676.786,-57.031 679.947,-56.4889 683,-56 807.139,-36.1214 842.22,-42.1983 970.07,-19.9893"/>
<polygon fill="midnightblue" stroke="midnightblue" points="971.013,-23.3771 980.254,-18.195 969.798,-16.4833 971.013,-23.3771"/>
</g>
<!-- Node25 -->
<g id="node25" class="node"><title>Node25</title>
<polygon fill="white" stroke="#bfbfbf" points="1057.5,-0.5 1057.5,-19.5 1104.5,-19.5 1104.5,-0.5 1057.5,-0.5"/>
<text text-anchor="middle" x="1081" y="-7.5" font-family="Helvetica,sans-Serif" font-size="10.00">TFile.h</text>
</g>
<!-- Node19&#45;&gt;Node25 -->
<g id="edge33" class="edge"><title>Node19&#45;&gt;Node25</title>
<path fill="none" stroke="midnightblue" d="M673.604,-57.5131C676.776,-56.9632 679.941,-56.4491 683,-56 840.973,-32.8091 885.861,-48.8601 1047.04,-19.8525"/>
<polygon fill="midnightblue" stroke="midnightblue" points="1048.11,-23.2144 1057.32,-17.9705 1046.85,-16.3288 1048.11,-23.2144"/>
</g>
<!-- Node26 -->
<g id="node26" class="node"><title>Node26</title>
<polygon fill="white" stroke="#bfbfbf" points="1122.5,-0.5 1122.5,-19.5 1171.5,-19.5 1171.5,-0.5 1122.5,-0.5"/>
<text text-anchor="middle" x="1147" y="-7.5" font-family="Helvetica,sans-Serif" font-size="10.00">TRint.h</text>
</g>
<!-- Node19&#45;&gt;Node26 -->
<g id="edge34" class="edge"><title>Node19&#45;&gt;Node26</title>
<path fill="none" stroke="midnightblue" d="M673.597,-57.4639C676.77,-56.9247 679.937,-56.4265 683,-56 869.701,-30.0003 922.236,-51.8872 1112.19,-19.8164"/>
<polygon fill="midnightblue" stroke="midnightblue" points="1112.96,-23.2354 1122.23,-18.0941 1111.78,-16.3362 1112.96,-23.2354"/>
</g>
</g>
</svg>
