<?xml version="1.0" encoding="UTF-8" standalone="no"?>
<!DOCTYPE svg PUBLIC "-//W3C//DTD SVG 1.1//EN"
 "http://www.w3.org/Graphics/SVG/1.1/DTD/svg11.dtd">
<!-- Generated by graphviz version 2.36.0 (20140111.2315)
 -->
<!-- Title: /data/Software/DAQ/Scaler/Core/Source/VMEManager.cpp Pages: 1 -->
<svg width="632pt" height="106pt"
 viewBox="0.00 0.00 632.00 106.00" xmlns="http://www.w3.org/2000/svg" xmlns:xlink="http://www.w3.org/1999/xlink">
<g id="graph0" class="graph" transform="scale(1 1) rotate(0) translate(4 102)">
<title>/data/Software/DAQ/Scaler/Core/Source/VMEManager.cpp</title>
<polygon fill="white" stroke="none" points="-4,4 -4,-102 628,-102 628,4 -4,4"/>
<!-- Node1 -->
<g id="node1" class="node"><title>Node1</title>
<polygon fill="#bfbfbf" stroke="black" points="241.5,-56.5 241.5,-97.5 346.5,-97.5 346.5,-56.5 241.5,-56.5"/>
<text text-anchor="start" x="249.5" y="-85.5" font-family="Helvetica,sans-Serif" font-size="10.00">/data/Software/DAQ</text>
<text text-anchor="start" x="249.5" y="-74.5" font-family="Helvetica,sans-Serif" font-size="10.00">/Scaler/Core/Source</text>
<text text-anchor="middle" x="294" y="-63.5" font-family="Helvetica,sans-Serif" font-size="10.00">/VMEManager.cpp</text>
</g>
<!-- Node2 -->
<g id="node2" class="node"><title>Node2</title>
<polygon fill="white" stroke="#bfbfbf" points="0,-0.5 0,-19.5 50,-19.5 50,-0.5 0,-0.5"/>
<text text-anchor="middle" x="25" y="-7.5" font-family="Helvetica,sans-Serif" font-size="10.00">fstream</text>
</g>
<!-- Node1&#45;&gt;Node2 -->
<g id="edge1" class="edge"><title>Node1&#45;&gt;Node2</title>
<path fill="none" stroke="midnightblue" d="M241.176,-63.8073C195.723,-53.2265 128.137,-37.2815 60.2489,-20.2709"/>
<polygon fill="midnightblue" stroke="midnightblue" points="60.7845,-16.7967 50.233,-17.7539 59.0784,-23.5856 60.7845,-16.7967"/>
</g>
<!-- Node3 -->
<g id="node3" class="node"><title>Node3</title>
<polygon fill="white" stroke="#bfbfbf" points="68,-0.5 68,-19.5 120,-19.5 120,-0.5 68,-0.5"/>
<text text-anchor="middle" x="94" y="-7.5" font-family="Helvetica,sans-Serif" font-size="10.00">sstream</text>
</g>
<!-- Node1&#45;&gt;Node3 -->
<g id="edge2" class="edge"><title>Node1&#45;&gt;Node3</title>
<path fill="none" stroke="midnightblue" d="M241.452,-58.922C206.258,-47.484 160.856,-32.7283 129.786,-22.6305"/>
<polygon fill="midnightblue" stroke="midnightblue" points="130.825,-19.2881 120.233,-19.5258 128.662,-25.9453 130.825,-19.2881"/>
</g>
<!-- Node4 -->
<g id="node4" class="node"><title>Node4</title>
<polygon fill="white" stroke="#bfbfbf" points="138,-0.5 138,-19.5 182,-19.5 182,-0.5 138,-0.5"/>
<text text-anchor="middle" x="160" y="-7.5" font-family="Helvetica,sans-Serif" font-size="10.00">vector</text>
</g>
<!-- Node1&#45;&gt;Node4 -->
<g id="edge3" class="edge"><title>Node1&#45;&gt;Node4</title>
<path fill="none" stroke="midnightblue" d="M253.796,-56.4979C232.164,-46.0051 206.072,-33.3482 186.904,-24.0507"/>
<polygon fill="midnightblue" stroke="midnightblue" points="188.362,-20.8679 177.837,-19.6525 185.307,-27.166 188.362,-20.8679"/>
</g>
<!-- Node5 -->
<g id="node5" class="node"><title>Node5</title>
<polygon fill="white" stroke="#bfbfbf" points="200.5,-0.5 200.5,-19.5 247.5,-19.5 247.5,-0.5 200.5,-0.5"/>
<text text-anchor="middle" x="224" y="-7.5" font-family="Helvetica,sans-Serif" font-size="10.00">iterator</text>
</g>
<!-- Node1&#45;&gt;Node5 -->
<g id="edge4" class="edge"><title>Node1&#45;&gt;Node5</title>
<path fill="none" stroke="midnightblue" d="M272.998,-56.4979C262.678,-46.9154 250.415,-35.5281 240.738,-26.5428"/>
<polygon fill="midnightblue" stroke="midnightblue" points="243.028,-23.8922 233.318,-19.6525 238.264,-29.0218 243.028,-23.8922"/>
</g>
<!-- Node6 -->
<g id="node6" class="node"><title>Node6</title>
<polygon fill="white" stroke="#bfbfbf" points="266,-0.5 266,-19.5 322,-19.5 322,-0.5 266,-0.5"/>
<text text-anchor="middle" x="294" y="-7.5" font-family="Helvetica,sans-Serif" font-size="10.00">algorithm</text>
</g>
<!-- Node1&#45;&gt;Node6 -->
<g id="edge5" class="edge"><title>Node1&#45;&gt;Node6</title>
<path fill="none" stroke="midnightblue" d="M294,-56.4979C294,-48.0653 294,-38.2351 294,-29.874"/>
<polygon fill="midnightblue" stroke="midnightblue" points="297.5,-29.6525 294,-19.6525 290.5,-29.6525 297.5,-29.6525"/>
</g>
<!-- Node7 -->
<g id="node7" class="node"><title>Node7</title>
<polygon fill="white" stroke="#bfbfbf" points="340,-0.5 340,-19.5 394,-19.5 394,-0.5 340,-0.5"/>
<text text-anchor="middle" x="367" y="-7.5" font-family="Helvetica,sans-Serif" font-size="10.00">iostream</text>
</g>
<!-- Node1&#45;&gt;Node7 -->
<g id="edge6" class="edge"><title>Node1&#45;&gt;Node7</title>
<path fill="none" stroke="midnightblue" d="M315.902,-56.4979C326.664,-46.9154 339.453,-35.5281 349.544,-26.5428"/>
<polygon fill="midnightblue" stroke="midnightblue" points="352.142,-28.9165 357.283,-19.6525 347.487,-23.6885 352.142,-28.9165"/>
</g>
<!-- Node8 -->
<g id="node8" class="node"><title>Node8</title>
<polygon fill="white" stroke="#bfbfbf" points="412.5,-0.5 412.5,-19.5 453.5,-19.5 453.5,-0.5 412.5,-0.5"/>
<text text-anchor="middle" x="433" y="-7.5" font-family="Helvetica,sans-Serif" font-size="10.00">string</text>
</g>
<!-- Node1&#45;&gt;Node8 -->
<g id="edge7" class="edge"><title>Node1&#45;&gt;Node8</title>
<path fill="none" stroke="midnightblue" d="M335.705,-56.4979C358.245,-45.9572 385.456,-33.2326 405.364,-23.9235"/>
<polygon fill="midnightblue" stroke="midnightblue" points="406.921,-27.059 414.497,-19.6525 403.956,-20.7181 406.921,-27.059"/>
</g>
<!-- Node9 -->
<g id="node9" class="node"><title>Node9</title>
<polygon fill="white" stroke="#bfbfbf" points="472,-0.5 472,-19.5 556,-19.5 556,-0.5 472,-0.5"/>
<text text-anchor="middle" x="514" y="-7.5" font-family="Helvetica,sans-Serif" font-size="10.00">VMEManager.h</text>
</g>
<!-- Node1&#45;&gt;Node9 -->
<g id="edge8" class="edge"><title>Node1&#45;&gt;Node9</title>
<path fill="none" stroke="midnightblue" d="M346.695,-60.4309C386.149,-48.7743 439.247,-33.0861 474.95,-22.5374"/>
<polygon fill="midnightblue" stroke="midnightblue" points="476.387,-25.7627 484.985,-19.5726 474.403,-19.0495 476.387,-25.7627"/>
</g>
<!-- Node10 -->
<g id="node10" class="node"><title>Node10</title>
<polygon fill="white" stroke="#bfbfbf" points="574,-0.5 574,-19.5 624,-19.5 624,-0.5 574,-0.5"/>
<text text-anchor="middle" x="599" y="-7.5" font-family="Helvetica,sans-Serif" font-size="10.00">global.h</text>
</g>
<!-- Node1&#45;&gt;Node10 -->
<g id="edge9" class="edge"><title>Node1&#45;&gt;Node10</title>
<path fill="none" stroke="midnightblue" d="M346.678,-65.8384C401.215,-55.1394 488.805,-37.4557 564,-20 564.099,-19.9769 564.199,-19.9538 564.298,-19.9306"/>
<polygon fill="midnightblue" stroke="midnightblue" points="564.904,-23.3853 573.8,-17.6314 563.257,-16.5817 564.904,-23.3853"/>
</g>
</g>
</svg>
