<?xml version="1.0" encoding="UTF-8" standalone="no"?>
<!DOCTYPE svg PUBLIC "-//W3C//DTD SVG 1.1//EN"
 "http://www.w3.org/Graphics/SVG/1.1/DTD/svg11.dtd">
<!-- Generated by graphviz version 2.36.0 (20140111.2315)
 -->
<!-- Title: /data/Software/DAQ/Scaler/Core/Include/xml.h Pages: 1 -->
<!--zoomable 152 -->
<svg id="main" version="1.1" xmlns="http://www.w3.org/2000/svg" xmlns:xlink="http://www.w3.org/1999/xlink" xml:space="preserve" onload="init(evt)">
<style type="text/css"><![CDATA[
.edge:hover path { stroke: red; }
.edge:hover polygon { stroke: red; fill: red; }
]]></style>
<script type="text/javascript"><![CDATA[
var edges = document.getElementsByTagName('g');
if (edges && edges.length) {
  for (var i=0;i<edges.length;i++) {
    if (edges[i].id.substr(0,4)=='edge') {
      edges[i].setAttribute('class','edge');
    }
  }
}
]]></script>
        <defs>
                <circle id="rim" cx="0" cy="0" r="7"/>
                <circle id="rim2" cx="0" cy="0" r="3.5"/>
                <g id="zoomPlus">
                        <use xlink:href="#rim" fill="#404040">
                                <set attributeName="fill" to="#808080" begin="zoomplus.mouseover" end="zoomplus.mouseout"/>
                        </use>
                        <path d="M-4,0h8M0,-4v8" fill="none" stroke="white" stroke-width="1.5" pointer-events="none"/>
                </g>
                <g id="zoomMin">
                        <use xlink:href="#rim" fill="#404040">
                                <set attributeName="fill" to="#808080" begin="zoomminus.mouseover" end="zoomminus.mouseout"/>
                        </use>
                        <path d="M-4,0h8" fill="none" stroke="white" stroke-width="1.5" pointer-events="none"/>
                </g>
                <g id="dirArrow">
                        <path fill="none" stroke="white" stroke-width="1.5" d="M0,-3.0v7 M-2.5,-0.5L0,-3.0L2.5,-0.5"/>
                </g>
               <g id="resetDef">
                       <use xlink:href="#rim2" fill="#404040">
                               <set attributeName="fill" to="#808080" begin="reset.mouseover" end="reset.mouseout"/>
                       </use>
               </g>
        </defs>

<script type="text/javascript">
var viewWidth = 698;
var viewHeight = 152;
var sectionId = 'dynsection-0';
</script>
<script xlink:href="svgpan.js"/>
<svg id="graph" class="graph">
<g id="viewport">
<title>/data/Software/DAQ/Scaler/Core/Include/xml.h</title>
<polygon fill="white" stroke="none" points="-4,4 -4,-148 694,-148 694,4 -4,4"/>
<!-- Node1 -->
<g id="node1" class="node"><title>Node1</title>
<polygon fill="#bfbfbf" stroke="black" points="253.5,-113 253.5,-143 386.5,-143 386.5,-113 253.5,-113"/>
<text text-anchor="start" x="261.5" y="-131" font-family="Helvetica,sans-Serif" font-size="10.00">/data/Software/DAQ</text>
<text text-anchor="middle" x="320" y="-120" font-family="Helvetica,sans-Serif" font-size="10.00">/Scaler/Core/Include/xml.h</text>
</g>
<!-- Node2 -->
<g id="node2" class="node"><title>Node2</title>
<g id="a_node2"><a xlink:href="_scaler_2_core_2_include_2_v_m_e_manager_8h.xhtml" target="_top" xlink:title="VMEManager.h">
<polygon fill="white" stroke="black" points="278,-56.5 278,-75.5 362,-75.5 362,-56.5 278,-56.5"/>
<text text-anchor="middle" x="320" y="-63.5" font-family="Helvetica,sans-Serif" font-size="10.00">VMEManager.h</text>
</a>
</g>
</g>
<!-- Node1&#45;&gt;Node2 -->
<g id="edge1" class="edge"><title>Node1&#45;&gt;Node2</title>
<path fill="none" stroke="midnightblue" d="M320,-112.781C320,-104.781 320,-94.6887 320,-86.0168"/>
<polygon fill="midnightblue" stroke="midnightblue" points="323.5,-85.7305 320,-75.7305 316.5,-85.7306 323.5,-85.7305"/>
</g>
<!-- Node11 -->
<g id="node11" class="node"><title>Node11</title>
<g id="a_node11"><a xlink:href="_discriminator_manager_8h.xhtml" target="_top" xlink:title="DiscriminatorManager.h">
<polygon fill="white" stroke="black" points="140,-56.5 140,-75.5 260,-75.5 260,-56.5 140,-56.5"/>
<text text-anchor="middle" x="200" y="-63.5" font-family="Helvetica,sans-Serif" font-size="10.00">DiscriminatorManager.h</text>
</a>
</g>
</g>
<!-- Node1&#45;&gt;Node11 -->
<g id="edge10" class="edge"><title>Node1&#45;&gt;Node11</title>
<path fill="none" stroke="midnightblue" d="M291.865,-112.933C272.072,-103.036 245.761,-89.8803 226.37,-80.1852"/>
<polygon fill="midnightblue" stroke="midnightblue" points="227.71,-76.9417 217.2,-75.6 224.579,-83.2027 227.71,-76.9417"/>
</g>
<!-- Node12 -->
<g id="node12" class="node"><title>Node12</title>
<g id="a_node12"><a xlink:href="_scaler_manager_8h.xhtml" target="_top" xlink:title="ScalerManager.h">
<polygon fill="white" stroke="black" points="380,-56.5 380,-75.5 470,-75.5 470,-56.5 380,-56.5"/>
<text text-anchor="middle" x="425" y="-63.5" font-family="Helvetica,sans-Serif" font-size="10.00">ScalerManager.h</text>
</a>
</g>
</g>
<!-- Node1&#45;&gt;Node12 -->
<g id="edge19" class="edge"><title>Node1&#45;&gt;Node12</title>
<path fill="none" stroke="midnightblue" d="M344.618,-112.933C361.7,-103.171 384.33,-90.2401 401.225,-80.5856"/>
<polygon fill="midnightblue" stroke="midnightblue" points="403.004,-83.6003 409.95,-75.6 399.531,-77.5226 403.004,-83.6003"/>
</g>
<!-- Node3 -->
<g id="node3" class="node"><title>Node3</title>
<polygon fill="white" stroke="#bfbfbf" points="304.5,-0.5 304.5,-19.5 353.5,-19.5 353.5,-0.5 304.5,-0.5"/>
<text text-anchor="middle" x="329" y="-7.5" font-family="Helvetica,sans-Serif" font-size="10.00">string.h</text>
</g>
<!-- Node2&#45;&gt;Node3 -->
<g id="edge2" class="edge"><title>Node2&#45;&gt;Node3</title>
<path fill="none" stroke="midnightblue" d="M321.486,-56.083C322.679,-48.9272 324.394,-38.6353 325.885,-29.6911"/>
<polygon fill="midnightblue" stroke="midnightblue" points="329.35,-30.1904 327.541,-19.7511 322.445,-29.0396 329.35,-30.1904"/>
</g>
<!-- Node4 -->
<g id="node4" class="node"><title>Node4</title>
<polygon fill="white" stroke="#bfbfbf" points="372,-0.5 372,-19.5 418,-19.5 418,-0.5 372,-0.5"/>
<text text-anchor="middle" x="395" y="-7.5" font-family="Helvetica,sans-Serif" font-size="10.00">stdio.h</text>
</g>
<!-- Node2&#45;&gt;Node4 -->
<g id="edge3" class="edge"><title>Node2&#45;&gt;Node4</title>
<path fill="none" stroke="midnightblue" d="M332.05,-56.324C343.463,-48.1066 360.831,-35.6017 374.435,-25.8069"/>
<polygon fill="midnightblue" stroke="midnightblue" points="376.66,-28.5174 382.731,-19.8339 372.57,-22.8366 376.66,-28.5174"/>
</g>
<!-- Node5 -->
<g id="node5" class="node"><title>Node5</title>
<polygon fill="white" stroke="#bfbfbf" points="436,-0.5 436,-19.5 484,-19.5 484,-0.5 436,-0.5"/>
<text text-anchor="middle" x="460" y="-7.5" font-family="Helvetica,sans-Serif" font-size="10.00">stdlib.h</text>
</g>
<!-- Node2&#45;&gt;Node5 -->
<g id="edge4" class="edge"><title>Node2&#45;&gt;Node5</title>
<path fill="none" stroke="midnightblue" d="M342.183,-56.4435C365.428,-47.4776 402.149,-33.314 428.415,-23.1827"/>
<polygon fill="midnightblue" stroke="midnightblue" points="429.85,-26.3807 437.92,-19.5164 427.331,-19.8497 429.85,-26.3807"/>
</g>
<!-- Node6 -->
<g id="node6" class="node"><title>Node6</title>
<polygon fill="white" stroke="#bfbfbf" points="502,-0.5 502,-19.5 546,-19.5 546,-0.5 502,-0.5"/>
<text text-anchor="middle" x="524" y="-7.5" font-family="Helvetica,sans-Serif" font-size="10.00">time.h</text>
</g>
<!-- Node2&#45;&gt;Node6 -->
<g id="edge5" class="edge"><title>Node2&#45;&gt;Node6</title>
<path fill="none" stroke="midnightblue" d="M353.888,-56.4848C386.841,-48.1379 438.549,-34.8671 492.023,-20.217"/>
<polygon fill="midnightblue" stroke="midnightblue" points="492.956,-23.5903 501.67,-17.564 491.1,-16.8409 492.956,-23.5903"/>
</g>
<!-- Node7 -->
<g id="node7" class="node"><title>Node7</title>
<polygon fill="white" stroke="#bfbfbf" points="-0.5,-0.5 -0.5,-19.5 84.5,-19.5 84.5,-0.5 -0.5,-0.5"/>
<text text-anchor="middle" x="42" y="-7.5" font-family="Helvetica,sans-Serif" font-size="10.00">CAENVMElib.h</text>
</g>
<!-- Node2&#45;&gt;Node7 -->
<g id="edge6" class="edge"><title>Node2&#45;&gt;Node7</title>
<path fill="none" stroke="midnightblue" d="M277.778,-56.7986C228.69,-47.2635 147.635,-31.5189 94.5241,-21.2025"/>
<polygon fill="midnightblue" stroke="midnightblue" points="95.1035,-17.7497 84.6196,-19.2786 93.7687,-24.6213 95.1035,-17.7497"/>
</g>
<!-- Node8 -->
<g id="node8" class="node"><title>Node8</title>
<polygon fill="white" stroke="#bfbfbf" points="103,-0.5 103,-19.5 147,-19.5 147,-0.5 103,-0.5"/>
<text text-anchor="middle" x="125" y="-7.5" font-family="Helvetica,sans-Serif" font-size="10.00">vector</text>
</g>
<!-- Node2&#45;&gt;Node8 -->
<g id="edge7" class="edge"><title>Node2&#45;&gt;Node8</title>
<path fill="none" stroke="midnightblue" d="M288.215,-56.4277C257.085,-47.9991 208.06,-34.6384 156.631,-20.1493"/>
<polygon fill="midnightblue" stroke="midnightblue" points="157.579,-16.7801 147.004,-17.4317 155.677,-23.5168 157.579,-16.7801"/>
</g>
<!-- Node9 -->
<g id="node9" class="node"><title>Node9</title>
<polygon fill="white" stroke="#bfbfbf" points="165,-0.5 165,-19.5 217,-19.5 217,-0.5 165,-0.5"/>
<text text-anchor="middle" x="191" y="-7.5" font-family="Helvetica,sans-Serif" font-size="10.00">memory</text>
</g>
<!-- Node2&#45;&gt;Node9 -->
<g id="edge8" class="edge"><title>Node2&#45;&gt;Node9</title>
<path fill="none" stroke="midnightblue" d="M299.56,-56.4435C278.33,-47.5566 244.901,-33.5632 220.745,-23.4514"/>
<polygon fill="midnightblue" stroke="midnightblue" points="221.921,-20.1493 211.345,-19.5164 219.218,-26.6064 221.921,-20.1493"/>
</g>
<!-- Node10 -->
<g id="node10" class="node"><title>Node10</title>
<polygon fill="white" stroke="#bfbfbf" points="235.5,-0.5 235.5,-19.5 286.5,-19.5 286.5,-0.5 235.5,-0.5"/>
<text text-anchor="middle" x="261" y="-7.5" font-family="Helvetica,sans-Serif" font-size="10.00">typeinfo</text>
</g>
<!-- Node2&#45;&gt;Node10 -->
<g id="edge9" class="edge"><title>Node2&#45;&gt;Node10</title>
<path fill="none" stroke="midnightblue" d="M310.521,-56.324C301.799,-48.3414 288.657,-36.3128 278.102,-26.6529"/>
<polygon fill="midnightblue" stroke="midnightblue" points="280.392,-24.0036 270.652,-19.8339 275.666,-29.1674 280.392,-24.0036"/>
</g>
<!-- Node11&#45;&gt;Node3 -->
<g id="edge11" class="edge"><title>Node11&#45;&gt;Node3</title>
<path fill="none" stroke="midnightblue" d="M220.44,-56.4435C241.67,-47.5566 275.099,-33.5632 299.255,-23.4514"/>
<polygon fill="midnightblue" stroke="midnightblue" points="300.782,-26.6064 308.655,-19.5164 298.079,-20.1493 300.782,-26.6064"/>
</g>
<!-- Node11&#45;&gt;Node4 -->
<g id="edge12" class="edge"><title>Node11&#45;&gt;Node4</title>
<path fill="none" stroke="midnightblue" d="M230.898,-56.4435C266.728,-46.5215 325.543,-30.2343 362.174,-20.0904"/>
<polygon fill="midnightblue" stroke="midnightblue" points="363.176,-23.4445 371.879,-17.4026 361.308,-16.6984 363.176,-23.4445"/>
</g>
<!-- Node11&#45;&gt;Node5 -->
<g id="edge13" class="edge"><title>Node11&#45;&gt;Node5</title>
<path fill="none" stroke="midnightblue" d="M248.039,-56.4943C291.971,-48.4875 358.954,-35.7086 426.008,-20.106"/>
<polygon fill="midnightblue" stroke="midnightblue" points="426.964,-23.4768 435.9,-17.7837 425.364,-16.6621 426.964,-23.4768"/>
</g>
<!-- Node11&#45;&gt;Node6 -->
<g id="edge14" class="edge"><title>Node11&#45;&gt;Node6</title>
<path fill="none" stroke="midnightblue" d="M260.293,-56.6848C328.33,-47.1459 435.826,-31.5687 491.619,-20.0192"/>
<polygon fill="midnightblue" stroke="midnightblue" points="492.7,-23.3668 501.738,-17.839 491.225,-16.5238 492.7,-23.3668"/>
</g>
<!-- Node11&#45;&gt;Node7 -->
<g id="edge15" class="edge"><title>Node11&#45;&gt;Node7</title>
<path fill="none" stroke="midnightblue" d="M174.964,-56.4435C148.384,-47.3591 106.191,-32.9388 76.4766,-22.7831"/>
<polygon fill="midnightblue" stroke="midnightblue" points="77.513,-19.4386 66.9184,-19.5164 75.2491,-26.0625 77.513,-19.4386"/>
</g>
<!-- Node11&#45;&gt;Node8 -->
<g id="edge16" class="edge"><title>Node11&#45;&gt;Node8</title>
<path fill="none" stroke="midnightblue" d="M187.95,-56.324C176.537,-48.1066 159.169,-35.6017 145.565,-25.8069"/>
<polygon fill="midnightblue" stroke="midnightblue" points="147.43,-22.8366 137.269,-19.8339 143.34,-28.5174 147.43,-22.8366"/>
</g>
<!-- Node11&#45;&gt;Node9 -->
<g id="edge17" class="edge"><title>Node11&#45;&gt;Node9</title>
<path fill="none" stroke="midnightblue" d="M198.514,-56.083C197.321,-48.9272 195.606,-38.6353 194.115,-29.6911"/>
<polygon fill="midnightblue" stroke="midnightblue" points="197.555,-29.0396 192.459,-19.7511 190.65,-30.1904 197.555,-29.0396"/>
</g>
<!-- Node11&#45;&gt;Node10 -->
<g id="edge18" class="edge"><title>Node11&#45;&gt;Node10</title>
<path fill="none" stroke="midnightblue" d="M209.801,-56.324C218.818,-48.3414 232.406,-36.3128 243.318,-26.6529"/>
<polygon fill="midnightblue" stroke="midnightblue" points="245.853,-29.083 251.021,-19.8339 241.213,-23.8416 245.853,-29.083"/>
</g>
<!-- Node12&#45;&gt;Node3 -->
<g id="edge20" class="edge"><title>Node12&#45;&gt;Node3</title>
<path fill="none" stroke="midnightblue" d="M409.576,-56.324C394.46,-47.8215 371.185,-34.7288 353.529,-24.7975"/>
<polygon fill="midnightblue" stroke="midnightblue" points="354.817,-21.5066 344.386,-19.6545 351.386,-27.6077 354.817,-21.5066"/>
</g>
<!-- Node12&#45;&gt;Node4 -->
<g id="edge21" class="edge"><title>Node12&#45;&gt;Node4</title>
<path fill="none" stroke="midnightblue" d="M420.046,-56.083C415.896,-48.6127 409.847,-37.7244 404.733,-28.5199"/>
<polygon fill="midnightblue" stroke="midnightblue" points="407.778,-26.7929 399.862,-19.7511 401.659,-30.1924 407.778,-26.7929"/>
</g>
<!-- Node12&#45;&gt;Node5 -->
<g id="edge22" class="edge"><title>Node12&#45;&gt;Node5</title>
<path fill="none" stroke="midnightblue" d="M430.78,-56.083C435.672,-48.5341 442.827,-37.4948 448.833,-28.2298"/>
<polygon fill="midnightblue" stroke="midnightblue" points="451.826,-30.0463 454.328,-19.7511 445.952,-26.239 451.826,-30.0463"/>
</g>
<!-- Node12&#45;&gt;Node6 -->
<g id="edge23" class="edge"><title>Node12&#45;&gt;Node6</title>
<path fill="none" stroke="midnightblue" d="M440.906,-56.324C456.638,-47.7428 480.942,-34.486 499.209,-24.5224"/>
<polygon fill="midnightblue" stroke="midnightblue" points="501.03,-27.5157 508.133,-19.6545 497.678,-21.3704 501.03,-27.5157"/>
</g>
<!-- Node12&#45;&gt;Node7 -->
<g id="edge24" class="edge"><title>Node12&#45;&gt;Node7</title>
<path fill="none" stroke="midnightblue" d="M379.996,-57.5135C376.615,-56.9885 373.255,-56.4784 370,-56 250.837,-38.4835 218.021,-38.5367 94.7603,-20.055"/>
<polygon fill="midnightblue" stroke="midnightblue" points="94.9542,-16.5446 84.5437,-18.5119 93.9088,-23.4661 94.9542,-16.5446"/>
</g>
<!-- Node12&#45;&gt;Node8 -->
<g id="edge25" class="edge"><title>Node12&#45;&gt;Node8</title>
<path fill="none" stroke="midnightblue" d="M379.852,-57.5883C313.872,-46.7392 195.469,-27.1961 157.234,-19.856"/>
<polygon fill="midnightblue" stroke="midnightblue" points="157.77,-16.3931 147.27,-17.8028 156.358,-23.2491 157.77,-16.3931"/>
</g>
<!-- Node12&#45;&gt;Node9 -->
<g id="edge26" class="edge"><title>Node12&#45;&gt;Node9</title>
<path fill="none" stroke="midnightblue" d="M385.652,-56.4587C347.492,-48.0959 287.718,-34.7881 227.088,-20.2139"/>
<polygon fill="midnightblue" stroke="midnightblue" points="227.895,-16.8082 217.353,-17.8645 226.252,-23.6129 227.895,-16.8082"/>
</g>
<!-- Node12&#45;&gt;Node10 -->
<g id="edge27" class="edge"><title>Node12&#45;&gt;Node10</title>
<path fill="none" stroke="midnightblue" d="M399.014,-56.4435C371.222,-47.2928 326.988,-32.7279 296.112,-22.5614"/>
<polygon fill="midnightblue" stroke="midnightblue" points="297.188,-19.2307 286.595,-19.4275 294.998,-25.8795 297.188,-19.2307"/>
</g>
<!-- Node13 -->
<g id="node13" class="node"><title>Node13</title>
<polygon fill="white" stroke="#bfbfbf" points="564,-0.5 564,-19.5 610,-19.5 610,-0.5 564,-0.5"/>
<text text-anchor="middle" x="587" y="-7.5" font-family="Helvetica,sans-Serif" font-size="10.00">keyb.h</text>
</g>
<!-- Node12&#45;&gt;Node13 -->
<g id="edge28" class="edge"><title>Node12&#45;&gt;Node13</title>
<path fill="none" stroke="midnightblue" d="M450.669,-56.4435C478.644,-47.1186 523.485,-32.1716 554.043,-21.9858"/>
<polygon fill="midnightblue" stroke="midnightblue" points="555.433,-25.2118 563.813,-18.729 553.219,-18.571 555.433,-25.2118"/>
</g>
<!-- Node14 -->
<g id="node14" class="node"><title>Node14</title>
<polygon fill="white" stroke="#bfbfbf" points="628,-0.5 628,-19.5 690,-19.5 690,-0.5 628,-0.5"/>
<text text-anchor="middle" x="659" y="-7.5" font-family="Helvetica,sans-Serif" font-size="10.00">common.h</text>
</g>
<!-- Node12&#45;&gt;Node14 -->
<g id="edge29" class="edge"><title>Node12&#45;&gt;Node14</title>
<path fill="none" stroke="midnightblue" d="M462.078,-56.4435C504.521,-46.649 573.842,-30.6518 617.901,-20.4845"/>
<polygon fill="midnightblue" stroke="midnightblue" points="618.755,-23.8794 627.712,-18.2203 617.181,-17.0586 618.755,-23.8794"/>
</g>
</g>
</svg>
        <g id="navigator" transform="translate(0 0)" fill="#404254">
                <rect fill="#f2f5e9" fill-opacity="0.5" stroke="#606060" stroke-width=".5" x="0" y="0" width="60" height="60"/>
                <use id="zoomplus" xlink:href="#zoomPlus" x="17" y="9" onmousedown="handleZoom(evt,'in')"/>
                <use id="zoomminus" xlink:href="#zoomMin" x="42" y="9" onmousedown="handleZoom(evt,'out')"/>
                <use id="reset" xlink:href="#resetDef" x="30" y="36" onmousedown="handleReset()"/>
                <g id="arrowUp" xlink:href="#dirArrow" transform="translate(30 24)" onmousedown="handlePan(0,-1)">
                  <use xlink:href="#rim" fill="#404040">
                        <set attributeName="fill" to="#808080" begin="arrowUp.mouseover" end="arrowUp.mouseout"/>
                  </use>
                  <path fill="none" stroke="white" stroke-width="1.5" d="M0,-3.0v7 M-2.5,-0.5L0,-3.0L2.5,-0.5"/>
                </g>
                <g id="arrowRight" xlink:href="#dirArrow" transform="rotate(90) translate(36 -43)" onmousedown="handlePan(1,0)">
                  <use xlink:href="#rim" fill="#404040">
                        <set attributeName="fill" to="#808080" begin="arrowRight.mouseover" end="arrowRight.mouseout"/>
                  </use>
                  <path fill="none" stroke="white" stroke-width="1.5" d="M0,-3.0v7 M-2.5,-0.5L0,-3.0L2.5,-0.5"/>
                </g>
                <g id="arrowDown" xlink:href="#dirArrow" transform="rotate(180) translate(-30 -48)" onmousedown="handlePan(0,1)">
                  <use xlink:href="#rim" fill="#404040">
                        <set attributeName="fill" to="#808080" begin="arrowDown.mouseover" end="arrowDown.mouseout"/>
                  </use>
                  <path fill="none" stroke="white" stroke-width="1.5" d="M0,-3.0v7 M-2.5,-0.5L0,-3.0L2.5,-0.5"/>
                </g>
                <g id="arrowLeft" xlink:href="#dirArrow" transform="rotate(270) translate(-36 17)" onmousedown="handlePan(-1,0)">
                  <use xlink:href="#rim" fill="#404040">
                        <set attributeName="fill" to="#808080" begin="arrowLeft.mouseover" end="arrowLeft.mouseout"/>
                  </use>
                  <path fill="none" stroke="white" stroke-width="1.5" d="M0,-3.0v7 M-2.5,-0.5L0,-3.0L2.5,-0.5"/>
                </g>
        </g>
        <svg viewBox="0 0 15 15" width="100%" height="30px" preserveAspectRatio="xMaxYMin meet">
         <g id="arrow_out" transform="scale(0.3 0.3)">
          <a xlink:href="_scaler_2_core_2_include_2xml_8h__incl_org.svg" target="_base">
           <rect id="button" ry="5" rx="5" y="6" x="6" height="38" width="38"
                fill="#f2f5e9" fill-opacity="0.5" stroke="#606060" stroke-width="1.0"/>
           <path id="arrow"
             d="M 11.500037,31.436501 C 11.940474,20.09759 22.043105,11.32322 32.158766,21.979434 L 37.068811,17.246167 C 37.068811,17.246167 37.088388,32 37.088388,32 L 22.160133,31.978069 C 22.160133,31.978069 26.997745,27.140456 26.997745,27.140456 C 18.528582,18.264221 13.291696,25.230495 11.500037,31.436501 z"
             style="fill:#404040;"/>
          </a>
         </g>
        </svg>
</svg>
