<?xml version="1.0" encoding="UTF-8" standalone="no"?>
<!DOCTYPE svg PUBLIC "-//W3C//DTD SVG 1.1//EN"
 "http://www.w3.org/Graphics/SVG/1.1/DTD/svg11.dtd">
<!-- Generated by graphviz version 2.36.0 (20140111.2315)
 -->
<!-- Title: GetNextToken Pages: 1 -->
<svg width="474pt" height="285pt"
 viewBox="0.00 0.00 474.00 285.14" xmlns="http://www.w3.org/2000/svg" xmlns:xlink="http://www.w3.org/1999/xlink">
<g id="graph0" class="graph" transform="scale(1 1) rotate(0) translate(4 281.136)">
<title>GetNextToken</title>
<polygon fill="white" stroke="none" points="-4,4 -4,-281.136 470,-281.136 470,4 -4,4"/>
<!-- Node1 -->
<g id="node1" class="node"><title>Node1</title>
<polygon fill="#bfbfbf" stroke="black" points="0,-133.5 0,-152.5 80,-152.5 80,-133.5 0,-133.5"/>
<text text-anchor="middle" x="40" y="-140.5" font-family="Helvetica,sans-Serif" font-size="10.00">GetNextToken</text>
</g>
<!-- Node2 -->
<g id="node2" class="node"><title>Node2</title>
<g id="a_node2"><a xlink:href="struct_x_m_l_node.xhtml#a6fe7676c3f08c3dab3faec106264d50d" target="_top" xlink:title="XMLNode::createXMLTopNode">
<polygon fill="white" stroke="black" points="134.5,-152.5 134.5,-171.5 287.5,-171.5 287.5,-152.5 134.5,-152.5"/>
<text text-anchor="middle" x="211" y="-159.5" font-family="Helvetica,sans-Serif" font-size="10.00">XMLNode::createXMLTopNode</text>
</a>
</g>
</g>
<!-- Node1&#45;&gt;Node2 -->
<g id="edge1" class="edge"><title>Node1&#45;&gt;Node2</title>
<path fill="none" stroke="midnightblue" d="M80.1968,-147.407C93.4747,-148.9 108.871,-150.631 124.321,-152.367"/>
<polygon fill="midnightblue" stroke="midnightblue" points="124.131,-155.868 134.459,-153.507 124.913,-148.912 124.131,-155.868"/>
</g>
<!-- Node3 -->
<g id="node3" class="node"><title>Node3</title>
<g id="a_node3"><a xlink:href="struct_x_m_l_node.xhtml#a719b115adfb642594107854189559ff2" target="_top" xlink:title="XMLNode::XMLNode">
<polygon fill="white" stroke="black" points="349,-209.5 349,-228.5 459,-228.5 459,-209.5 349,-209.5"/>
<text text-anchor="middle" x="404" y="-216.5" font-family="Helvetica,sans-Serif" font-size="10.00">XMLNode::XMLNode</text>
</a>
</g>
</g>
<!-- Node1&#45;&gt;Node3 -->
<g id="edge12" class="edge"><title>Node1&#45;&gt;Node3</title>
<path fill="none" stroke="midnightblue" d="M43.8695,-152.701C51.3118,-175.867 73.6677,-234.178 116,-257 201.589,-303.142 321.719,-257.844 375.307,-232.957"/>
<polygon fill="midnightblue" stroke="midnightblue" points="376.99,-236.033 384.515,-228.575 373.982,-229.712 376.99,-236.033"/>
</g>
<!-- Node4 -->
<g id="node4" class="node"><title>Node4</title>
<g id="a_node4"><a xlink:href="_c_d_a_q_2_plugins_2_source_2xml_parser_8cpp.xhtml#a5ba11fcf2496bd498e46fc958dba3d06" target="_top" xlink:title="stringDup">
<polygon fill="white" stroke="black" points="374.5,-95.5 374.5,-114.5 433.5,-114.5 433.5,-95.5 374.5,-95.5"/>
<text text-anchor="middle" x="404" y="-102.5" font-family="Helvetica,sans-Serif" font-size="10.00">stringDup</text>
</a>
</g>
</g>
<!-- Node1&#45;&gt;Node4 -->
<g id="edge8" class="edge"><title>Node1&#45;&gt;Node4</title>
<path fill="none" stroke="midnightblue" d="M80.0843,-138.897C149.817,-131.577 294.861,-116.352 364.309,-109.062"/>
<polygon fill="midnightblue" stroke="midnightblue" points="364.806,-112.529 374.386,-108.004 364.075,-105.567 364.806,-112.529"/>
</g>
<!-- Node5 -->
<g id="node5" class="node"><title>Node5</title>
<g id="a_node5"><a xlink:href="struct_x_m_l_node.xhtml#ab80f3739b26ae3f826f99769158e7bea" target="_top" xlink:title="XMLNode::createXMLTopNode_WOSD">
<polygon fill="white" stroke="black" points="116,-228.5 116,-247.5 306,-247.5 306,-228.5 116,-228.5"/>
<text text-anchor="middle" x="211" y="-235.5" font-family="Helvetica,sans-Serif" font-size="10.00">XMLNode::createXMLTopNode_WOSD</text>
</a>
</g>
</g>
<!-- Node1&#45;&gt;Node5 -->
<g id="edge4" class="edge"><title>Node1&#45;&gt;Node5</title>
<path fill="none" stroke="midnightblue" d="M47.5752,-152.729C59.2665,-169.206 85.3449,-202.423 116,-219 120.261,-221.304 124.767,-223.33 129.409,-225.111"/>
<polygon fill="midnightblue" stroke="midnightblue" points="128.494,-228.498 139.089,-228.434 130.767,-221.877 128.494,-228.498"/>
</g>
<!-- Node6 -->
<g id="node6" class="node"><title>Node6</title>
<g id="a_node6"><a xlink:href="_scaler_2_plugins_2_source_2xml_parser_8cpp.xhtml#af03c1c87ed4ddb95f7b49d53d9117c53" target="_top" xlink:title="getNextChar">
<polygon fill="white" stroke="black" points="175,-38.5 175,-57.5 247,-57.5 247,-38.5 175,-38.5"/>
<text text-anchor="middle" x="211" y="-45.5" font-family="Helvetica,sans-Serif" font-size="10.00">getNextChar</text>
</a>
</g>
</g>
<!-- Node1&#45;&gt;Node6 -->
<g id="edge6" class="edge"><title>Node1&#45;&gt;Node6</title>
<path fill="none" stroke="midnightblue" d="M48.6053,-133.091C61.0048,-117.641 87.111,-87.9322 116,-72 130.881,-63.793 148.634,-58.3271 164.684,-54.7165"/>
<polygon fill="midnightblue" stroke="midnightblue" points="165.85,-58.0496 174.937,-52.6016 164.436,-51.194 165.85,-58.0496"/>
</g>
<!-- Node7 -->
<g id="node7" class="node"><title>Node7</title>
<g id="a_node7"><a xlink:href="struct_x_m_l_node.xhtml#a71df27d54a2dc09b0a456406a7e8c6d3" target="_top" xlink:title="XMLNode::isDeclaration">
<polygon fill="white" stroke="black" points="342.5,-133.5 342.5,-152.5 465.5,-152.5 465.5,-133.5 342.5,-133.5"/>
<text text-anchor="middle" x="404" y="-140.5" font-family="Helvetica,sans-Serif" font-size="10.00">XMLNode::isDeclaration</text>
</a>
</g>
</g>
<!-- Node1&#45;&gt;Node7 -->
<g id="edge7" class="edge"><title>Node1&#45;&gt;Node7</title>
<path fill="none" stroke="midnightblue" d="M80.0843,-143C140.325,-143 256.77,-143 332.128,-143"/>
<polygon fill="midnightblue" stroke="midnightblue" points="332.479,-146.5 342.479,-143 332.479,-139.5 332.479,-146.5"/>
</g>
<!-- Node8 -->
<g id="node8" class="node"><title>Node8</title>
<g id="a_node8"><a xlink:href="struct_x_m_l_node.xhtml#a5f35571651c6b629f5c8e5d02942a1c7" target="_top" xlink:title="XMLNode::updateName_WOSD">
<polygon fill="white" stroke="black" points="132,-190.5 132,-209.5 290,-209.5 290,-190.5 132,-190.5"/>
<text text-anchor="middle" x="211" y="-197.5" font-family="Helvetica,sans-Serif" font-size="10.00">XMLNode::updateName_WOSD</text>
</a>
</g>
</g>
<!-- Node1&#45;&gt;Node8 -->
<g id="edge9" class="edge"><title>Node1&#45;&gt;Node8</title>
<path fill="none" stroke="midnightblue" d="M56.8302,-152.612C71.6408,-161.214 94.6268,-173.579 116,-181 123.8,-183.708 132.106,-186.081 140.429,-188.145"/>
<polygon fill="midnightblue" stroke="midnightblue" points="139.643,-191.556 150.178,-190.429 141.24,-184.74 139.643,-191.556"/>
</g>
<!-- Node9 -->
<g id="node9" class="node"><title>Node9</title>
<g id="a_node9"><a xlink:href="_scaler_2_plugins_2_source_2xml_parser_8cpp.xhtml#a3165858f70cd74ffab31ebc2ddc9e104" target="_top" xlink:title="xstrncmp">
<polygon fill="white" stroke="black" points="182.5,-0.5 182.5,-19.5 239.5,-19.5 239.5,-0.5 182.5,-0.5"/>
<text text-anchor="middle" x="211" y="-7.5" font-family="Helvetica,sans-Serif" font-size="10.00">xstrncmp</text>
</a>
</g>
</g>
<!-- Node1&#45;&gt;Node9 -->
<g id="edge13" class="edge"><title>Node1&#45;&gt;Node9</title>
<path fill="none" stroke="midnightblue" d="M44.3103,-133.499C52.5746,-111.281 76.3463,-55.7903 116,-29 132.453,-17.8844 153.976,-13.0019 172.275,-10.9574"/>
<polygon fill="midnightblue" stroke="midnightblue" points="172.679,-14.4354 182.335,-10.0738 172.067,-7.46228 172.679,-14.4354"/>
</g>
<!-- Node2&#45;&gt;Node3 -->
<g id="edge2" class="edge"><title>Node2&#45;&gt;Node3</title>
<path fill="none" stroke="midnightblue" d="M267.566,-171.565C280.298,-174.216 293.702,-177.378 306,-181 328.752,-187.701 353.649,-197.508 372.522,-205.481"/>
<polygon fill="midnightblue" stroke="midnightblue" points="371.229,-208.735 381.799,-209.457 373.986,-202.301 371.229,-208.735"/>
</g>
<!-- Node2&#45;&gt;Node4 -->
<g id="edge3" class="edge"><title>Node2&#45;&gt;Node4</title>
<path fill="none" stroke="midnightblue" d="M243.969,-152.459C277.122,-142.566 328.97,-127.093 364.389,-116.523"/>
<polygon fill="midnightblue" stroke="midnightblue" points="365.783,-119.759 374.364,-113.546 363.781,-113.052 365.783,-119.759"/>
</g>
<!-- Node5&#45;&gt;Node3 -->
<g id="edge5" class="edge"><title>Node5&#45;&gt;Node3</title>
<path fill="none" stroke="midnightblue" d="M306.101,-228.639C317.118,-227.543 328.16,-226.445 338.64,-225.402"/>
<polygon fill="midnightblue" stroke="midnightblue" points="339.307,-228.853 348.911,-224.381 338.614,-221.888 339.307,-228.853"/>
</g>
<!-- Node8&#45;&gt;Node3 -->
<g id="edge10" class="edge"><title>Node8&#45;&gt;Node3</title>
<path fill="none" stroke="midnightblue" d="M290.238,-207.783C306.38,-209.389 323.202,-211.062 338.776,-212.611"/>
<polygon fill="midnightblue" stroke="midnightblue" points="338.513,-216.102 348.811,-213.609 339.206,-209.137 338.513,-216.102"/>
</g>
<!-- Node8&#45;&gt;Node7 -->
<g id="edge11" class="edge"><title>Node8&#45;&gt;Node7</title>
<path fill="none" stroke="midnightblue" d="M267.566,-190.435C280.298,-187.784 293.702,-184.622 306,-181 328.752,-174.299 353.649,-164.492 372.522,-156.519"/>
<polygon fill="midnightblue" stroke="midnightblue" points="373.986,-159.699 381.799,-152.543 371.229,-153.265 373.986,-159.699"/>
</g>
</g>
</svg>
