<?xml version="1.0" encoding="UTF-8" standalone="no"?>
<!DOCTYPE svg PUBLIC "-//W3C//DTD SVG 1.1//EN"
 "http://www.w3.org/Graphics/SVG/1.1/DTD/svg11.dtd">
<!-- Generated by graphviz version 2.36.0 (20140111.2315)
 -->
<!-- Title: xstrnicmp Pages: 1 -->
<svg width="230pt" height="142pt"
 viewBox="0.00 0.00 230.00 142.00" xmlns="http://www.w3.org/2000/svg" xmlns:xlink="http://www.w3.org/1999/xlink">
<g id="graph0" class="graph" transform="scale(1 1) rotate(0) translate(4 138)">
<title>xstrnicmp</title>
<polygon fill="white" stroke="none" points="-4,4 -4,-138 226,-138 226,4 -4,4"/>
<!-- Node1 -->
<g id="node1" class="node"><title>Node1</title>
<polygon fill="#bfbfbf" stroke="black" points="0.5,-57.5 0.5,-76.5 59.5,-76.5 59.5,-57.5 0.5,-57.5"/>
<text text-anchor="middle" x="30" y="-64.5" font-family="Helvetica,sans-Serif" font-size="10.00">xstrnicmp</text>
</g>
<!-- Node2 -->
<g id="node2" class="node"><title>Node2</title>
<g id="a_node2"><a xlink:href="_scaler_2_plugins_2_source_2xml_parser_8cpp.xhtml#a36502225dcdc2b09467919e6c9647e9d" target="_top" xlink:title="fromXMLString">
<polygon fill="white" stroke="black" points="118,-114.5 118,-133.5 200,-133.5 200,-114.5 118,-114.5"/>
<text text-anchor="middle" x="159" y="-121.5" font-family="Helvetica,sans-Serif" font-size="10.00">fromXMLString</text>
</a>
</g>
</g>
<!-- Node1&#45;&gt;Node2 -->
<g id="edge1" class="edge"><title>Node1&#45;&gt;Node2</title>
<path fill="none" stroke="midnightblue" d="M54.0408,-82.2351C66.1693,-89.794 81.4994,-98.6424 96,-105 104.145,-108.571 113.168,-111.748 121.75,-114.433"/>
<polygon fill="midnightblue" stroke="midnightblue" points="55.7719,-79.1881 45.457,-76.7687 52.0118,-85.0925 55.7719,-79.1881"/>
</g>
<!-- Node3 -->
<g id="node3" class="node"><title>Node3</title>
<g id="a_node3"><a xlink:href="_scaler_2_plugins_2_source_2xml_parser_8cpp.xhtml#ad9a5c911a8e21bb89427d29d33e2797e" target="_top" xlink:title="myIsTextWideChar">
<polygon fill="white" stroke="black" points="108.5,-76.5 108.5,-95.5 209.5,-95.5 209.5,-76.5 108.5,-76.5"/>
<text text-anchor="middle" x="159" y="-83.5" font-family="Helvetica,sans-Serif" font-size="10.00">myIsTextWideChar</text>
</a>
</g>
</g>
<!-- Node1&#45;&gt;Node3 -->
<g id="edge2" class="edge"><title>Node1&#45;&gt;Node3</title>
<path fill="none" stroke="midnightblue" d="M69.4072,-72.746C81.6772,-74.5816 95.4368,-76.6402 108.386,-78.5775"/>
<polygon fill="midnightblue" stroke="midnightblue" points="69.9091,-69.2822 59.5013,-71.264 68.8733,-76.2051 69.9091,-69.2822"/>
</g>
<!-- Node4 -->
<g id="node4" class="node"><title>Node4</title>
<g id="a_node4"><a xlink:href="_scaler_2_plugins_2_source_2xml_parser_8cpp.xhtml#aead5c47bfd6039cbcc995ac39d52283e" target="_top" xlink:title="myTagCompare">
<polygon fill="white" stroke="black" points="116,-38.5 116,-57.5 202,-57.5 202,-38.5 116,-38.5"/>
<text text-anchor="middle" x="159" y="-45.5" font-family="Helvetica,sans-Serif" font-size="10.00">myTagCompare</text>
</a>
</g>
</g>
<!-- Node1&#45;&gt;Node4 -->
<g id="edge3" class="edge"><title>Node1&#45;&gt;Node4</title>
<path fill="none" stroke="midnightblue" d="M69.6578,-61.2165C84.1802,-59.0439 100.76,-56.5634 115.605,-54.3426"/>
<polygon fill="midnightblue" stroke="midnightblue" points="68.8733,-57.7949 59.5013,-62.736 69.9091,-64.7178 68.8733,-57.7949"/>
</g>
<!-- Node5 -->
<g id="node5" class="node"><title>Node5</title>
<g id="a_node5"><a xlink:href="_scaler_2_plugins_2_source_2xml_parser_8cpp.xhtml#ad7ec02a171e7641c1d364d5d367199a3" target="_top" xlink:title="myWideCharToMultiByte">
<polygon fill="white" stroke="black" points="96,-0.5 96,-19.5 222,-19.5 222,-0.5 96,-0.5"/>
<text text-anchor="middle" x="159" y="-7.5" font-family="Helvetica,sans-Serif" font-size="10.00">myWideCharToMultiByte</text>
</a>
</g>
</g>
<!-- Node1&#45;&gt;Node5 -->
<g id="edge4" class="edge"><title>Node1&#45;&gt;Node5</title>
<path fill="none" stroke="midnightblue" d="M54.0408,-51.7649C66.1693,-44.206 81.4994,-35.3576 96,-29 104.145,-25.4288 113.168,-22.2523 121.75,-19.567"/>
<polygon fill="midnightblue" stroke="midnightblue" points="52.0118,-48.9075 45.457,-57.2313 55.7719,-54.8119 52.0118,-48.9075"/>
</g>
</g>
</svg>
