<?xml version="1.0" encoding="UTF-8" standalone="no"?>
<!DOCTYPE svg PUBLIC "-//W3C//DTD SVG 1.1//EN"
 "http://www.w3.org/Graphics/SVG/1.1/DTD/svg11.dtd">
<!-- Generated by graphviz version 2.36.0 (20140111.2315)
 -->
<!-- Title: xml_readsettings Pages: 1 -->
<!--zoomable 750 -->
<svg id="main" version="1.1" xmlns="http://www.w3.org/2000/svg" xmlns:xlink="http://www.w3.org/1999/xlink" xml:space="preserve" onload="init(evt)">
<style type="text/css"><![CDATA[
.edge:hover path { stroke: red; }
.edge:hover polygon { stroke: red; fill: red; }
]]></style>
<script type="text/javascript"><![CDATA[
var edges = document.getElementsByTagName('g');
if (edges && edges.length) {
  for (var i=0;i<edges.length;i++) {
    if (edges[i].id.substr(0,4)=='edge') {
      edges[i].setAttribute('class','edge');
    }
  }
}
]]></script>
        <defs>
                <circle id="rim" cx="0" cy="0" r="7"/>
                <circle id="rim2" cx="0" cy="0" r="3.5"/>
                <g id="zoomPlus">
                        <use xlink:href="#rim" fill="#404040">
                                <set attributeName="fill" to="#808080" begin="zoomplus.mouseover" end="zoomplus.mouseout"/>
                        </use>
                        <path d="M-4,0h8M0,-4v8" fill="none" stroke="white" stroke-width="1.5" pointer-events="none"/>
                </g>
                <g id="zoomMin">
                        <use xlink:href="#rim" fill="#404040">
                                <set attributeName="fill" to="#808080" begin="zoomminus.mouseover" end="zoomminus.mouseout"/>
                        </use>
                        <path d="M-4,0h8" fill="none" stroke="white" stroke-width="1.5" pointer-events="none"/>
                </g>
                <g id="dirArrow">
                        <path fill="none" stroke="white" stroke-width="1.5" d="M0,-3.0v7 M-2.5,-0.5L0,-3.0L2.5,-0.5"/>
                </g>
               <g id="resetDef">
                       <use xlink:href="#rim2" fill="#404040">
                               <set attributeName="fill" to="#808080" begin="reset.mouseover" end="reset.mouseout"/>
                       </use>
               </g>
        </defs>

<script type="text/javascript">
var viewWidth = 908;
var viewHeight = 750;
var sectionId = 'dynsection-1';
</script>
<script xlink:href="svgpan.js"/>
<svg id="graph" class="graph">
<g id="viewport">
<title>xml_readsettings</title>
<polygon fill="white" stroke="none" points="-4,4 -4,-746 904,-746 904,4 -4,4"/>
<!-- Node1 -->
<g id="node1" class="node"><title>Node1</title>
<polygon fill="#bfbfbf" stroke="black" points="0.5,-323.5 0.5,-342.5 91.5,-342.5 91.5,-323.5 0.5,-323.5"/>
<text text-anchor="middle" x="46" y="-330.5" font-family="Helvetica,sans-Serif" font-size="10.00">xml_readsettings</text>
</g>
<!-- Node2 -->
<g id="node2" class="node"><title>Node2</title>
<g id="a_node2"><a xlink:href="class_discriminator_manager.xhtml#a5cc6195b1cd65494391da60a5cba16bc" target="_top" xlink:title="DiscriminatorManager\l::FillThresholds">
<polygon fill="white" stroke="black" points="152,-647 152,-677 264,-677 264,-647 152,-647"/>
<text text-anchor="start" x="160" y="-665" font-family="Helvetica,sans-Serif" font-size="10.00">DiscriminatorManager</text>
<text text-anchor="middle" x="208" y="-654" font-family="Helvetica,sans-Serif" font-size="10.00">::FillThresholds</text>
</a>
</g>
</g>
<!-- Node1&#45;&gt;Node2 -->
<g id="edge1" class="edge"><title>Node1&#45;&gt;Node2</title>
<path fill="none" stroke="midnightblue" d="M46.4865,-342.74C44.8461,-384.354 44.0699,-549.11 128,-637 132.201,-641.399 137.169,-645.027 142.536,-648.018"/>
<polygon fill="midnightblue" stroke="midnightblue" points="141.348,-651.329 151.881,-652.475 144.362,-645.011 141.348,-651.329"/>
</g>
<!-- Node3 -->
<g id="node3" class="node"><title>Node3</title>
<g id="a_node3"><a xlink:href="struct_x_m_l_node.xhtml#aa07572a057ce7ffc8843e468d952f490" target="_top" xlink:title="XMLNode::getAttribute">
<polygon fill="white" stroke="black" points="150,-608.5 150,-627.5 266,-627.5 266,-608.5 150,-608.5"/>
<text text-anchor="middle" x="208" y="-615.5" font-family="Helvetica,sans-Serif" font-size="10.00">XMLNode::getAttribute</text>
</a>
</g>
</g>
<!-- Node1&#45;&gt;Node3 -->
<g id="edge2" class="edge"><title>Node1&#45;&gt;Node3</title>
<path fill="none" stroke="midnightblue" d="M46.9632,-342.667C47.3594,-380.549 53.9733,-520.415 128,-594 131.939,-597.916 136.496,-601.196 141.393,-603.944"/>
<polygon fill="midnightblue" stroke="midnightblue" points="139.987,-607.151 150.516,-608.336 143.024,-600.844 139.987,-607.151"/>
</g>
<!-- Node4 -->
<g id="node4" class="node"><title>Node4</title>
<g id="a_node4"><a xlink:href="struct_x_m_l_node.xhtml#a77a21438b6d48a52cf8a1270f82f4475" target="_top" xlink:title="XMLNode::getChildNode">
<polygon fill="white" stroke="black" points="666.5,-722.5 666.5,-741.5 791.5,-741.5 791.5,-722.5 666.5,-722.5"/>
<text text-anchor="middle" x="729" y="-729.5" font-family="Helvetica,sans-Serif" font-size="10.00">XMLNode::getChildNode</text>
</a>
</g>
</g>
<!-- Node1&#45;&gt;Node4 -->
<g id="edge3" class="edge"><title>Node1&#45;&gt;Node4</title>
<path fill="none" stroke="midnightblue" d="M48.9251,-342.617C55.1354,-371.233 77.2599,-456.78 128,-504 213.196,-583.285 558.809,-684.977 683.156,-719.728"/>
<polygon fill="midnightblue" stroke="midnightblue" points="682.536,-723.188 693.108,-722.498 684.413,-716.444 682.536,-723.188"/>
</g>
<!-- Node5 -->
<g id="node5" class="node"><title>Node5</title>
<g id="a_node5"><a xlink:href="struct_x_m_l_node.xhtml#aeb607292b18d4615b7c169c7c08c0a8b" target="_top" xlink:title="XMLNode::getText">
<polygon fill="white" stroke="black" points="158.5,-437.5 158.5,-456.5 257.5,-456.5 257.5,-437.5 158.5,-437.5"/>
<text text-anchor="middle" x="208" y="-444.5" font-family="Helvetica,sans-Serif" font-size="10.00">XMLNode::getText</text>
</a>
</g>
</g>
<!-- Node1&#45;&gt;Node5 -->
<g id="edge4" class="edge"><title>Node1&#45;&gt;Node5</title>
<path fill="none" stroke="midnightblue" d="M52.2959,-342.548C63.5469,-361.898 91.7923,-405.781 128,-428 134.282,-431.855 141.291,-434.928 148.468,-437.377"/>
<polygon fill="midnightblue" stroke="midnightblue" points="147.721,-440.808 158.306,-440.346 149.744,-434.106 147.721,-440.808"/>
</g>
<!-- Node6 -->
<g id="node6" class="node"><title>Node6</title>
<g id="a_node6"><a xlink:href="struct_x_m_l_node.xhtml#acc044148e2b9b8264a320b7b6e398158" target="_top" xlink:title="XMLNode::openFileHelper">
<polygon fill="white" stroke="black" points="142.5,-475.5 142.5,-494.5 273.5,-494.5 273.5,-475.5 142.5,-475.5"/>
<text text-anchor="middle" x="208" y="-482.5" font-family="Helvetica,sans-Serif" font-size="10.00">XMLNode::openFileHelper</text>
</a>
</g>
</g>
<!-- Node1&#45;&gt;Node6 -->
<g id="edge5" class="edge"><title>Node1&#45;&gt;Node6</title>
<path fill="none" stroke="midnightblue" d="M50.0309,-342.845C58.2141,-367.706 83.2136,-433.353 128,-466 130.679,-467.953 133.532,-469.707 136.504,-471.283"/>
<polygon fill="midnightblue" stroke="midnightblue" points="135.173,-474.523 145.724,-475.495 138.082,-468.156 135.173,-474.523"/>
</g>
<!-- Node29 -->
<g id="node29" class="node"><title>Node29</title>
<g id="a_node29"><a xlink:href="class_scaler_manager.xhtml#ac5920c13a6695e43d5f5d66af4a6fbb5" target="_top" xlink:title="ScalerManager::SetActive">
<polygon fill="white" stroke="black" points="142.5,-399.5 142.5,-418.5 273.5,-418.5 273.5,-399.5 142.5,-399.5"/>
<text text-anchor="middle" x="208" y="-406.5" font-family="Helvetica,sans-Serif" font-size="10.00">ScalerManager::SetActive</text>
</a>
</g>
</g>
<!-- Node1&#45;&gt;Node29 -->
<g id="edge46" class="edge"><title>Node1&#45;&gt;Node29</title>
<path fill="none" stroke="midnightblue" d="M57.7076,-342.568C72.4796,-355.266 100.424,-377.532 128,-390 133.435,-392.457 139.229,-394.621 145.116,-396.521"/>
<polygon fill="midnightblue" stroke="midnightblue" points="144.482,-399.984 155.064,-399.476 146.475,-393.273 144.482,-399.984"/>
</g>
<!-- Node30 -->
<g id="node30" class="node"><title>Node30</title>
<g id="a_node30"><a xlink:href="class_scaler_manager.xhtml#a30bab5508e207de06d9b0efdfa78998e" target="_top" xlink:title="ScalerManager::SetCycles">
<polygon fill="white" stroke="black" points="141,-361.5 141,-380.5 275,-380.5 275,-361.5 141,-361.5"/>
<text text-anchor="middle" x="208" y="-368.5" font-family="Helvetica,sans-Serif" font-size="10.00">ScalerManager::SetCycles</text>
</a>
</g>
</g>
<!-- Node1&#45;&gt;Node30 -->
<g id="edge47" class="edge"><title>Node1&#45;&gt;Node30</title>
<path fill="none" stroke="midnightblue" d="M87.3748,-342.589C108.488,-347.604 134.529,-353.788 156.917,-359.105"/>
<polygon fill="midnightblue" stroke="midnightblue" points="156.377,-362.574 166.916,-361.48 157.995,-355.764 156.377,-362.574"/>
</g>
<!-- Node31 -->
<g id="node31" class="node"><title>Node31</title>
<g id="a_node31"><a xlink:href="class_scaler_manager.xhtml#a213c0fea8c86fa1d653e0fd6c1c0935f" target="_top" xlink:title="ScalerManager::SetDiscAddress">
<polygon fill="white" stroke="black" points="128.5,-323.5 128.5,-342.5 287.5,-342.5 287.5,-323.5 128.5,-323.5"/>
<text text-anchor="middle" x="208" y="-330.5" font-family="Helvetica,sans-Serif" font-size="10.00">ScalerManager::SetDiscAddress</text>
</a>
</g>
</g>
<!-- Node1&#45;&gt;Node31 -->
<g id="edge48" class="edge"><title>Node1&#45;&gt;Node31</title>
<path fill="none" stroke="midnightblue" d="M91.5689,-333C99.9891,-333 109.066,-333 118.298,-333"/>
<polygon fill="midnightblue" stroke="midnightblue" points="118.355,-336.5 128.355,-333 118.355,-329.5 118.355,-336.5"/>
</g>
<!-- Node32 -->
<g id="node32" class="node"><title>Node32</title>
<g id="a_node32"><a xlink:href="class_discriminator_manager.xhtml#aefef908d198b62a1ea02ccba5776981b" target="_top" xlink:title="DiscriminatorManager\l::SetDiscAddress">
<polygon fill="white" stroke="black" points="152,-274 152,-304 264,-304 264,-274 152,-274"/>
<text text-anchor="start" x="160" y="-292" font-family="Helvetica,sans-Serif" font-size="10.00">DiscriminatorManager</text>
<text text-anchor="middle" x="208" y="-281" font-family="Helvetica,sans-Serif" font-size="10.00">::SetDiscAddress</text>
</a>
</g>
</g>
<!-- Node1&#45;&gt;Node32 -->
<g id="edge49" class="edge"><title>Node1&#45;&gt;Node32</title>
<path fill="none" stroke="midnightblue" d="M81.7176,-323.453C99.4905,-318.565 121.709,-312.455 142.481,-306.743"/>
<polygon fill="midnightblue" stroke="midnightblue" points="143.503,-310.092 152.217,-304.065 141.647,-303.342 143.503,-310.092"/>
</g>
<!-- Node33 -->
<g id="node33" class="node"><title>Node33</title>
<g id="a_node33"><a xlink:href="class_scaler_manager.xhtml#a4efcd0a2b51c927266acd90b8351fa4b" target="_top" xlink:title="ScalerManager::SetPath">
<polygon fill="white" stroke="black" points="146.5,-235.5 146.5,-254.5 269.5,-254.5 269.5,-235.5 146.5,-235.5"/>
<text text-anchor="middle" x="208" y="-242.5" font-family="Helvetica,sans-Serif" font-size="10.00">ScalerManager::SetPath</text>
</a>
</g>
</g>
<!-- Node1&#45;&gt;Node33 -->
<g id="edge50" class="edge"><title>Node1&#45;&gt;Node33</title>
<path fill="none" stroke="midnightblue" d="M55.9352,-323.056C69.8634,-308.173 98.2545,-280.228 128,-265 133.537,-262.165 139.503,-259.714 145.586,-257.599"/>
<polygon fill="midnightblue" stroke="midnightblue" points="146.728,-260.908 155.198,-254.544 144.608,-254.237 146.728,-260.908"/>
</g>
<!-- Node34 -->
<g id="node34" class="node"><title>Node34</title>
<g id="a_node34"><a xlink:href="class_v_m_e_manager.xhtml#aa5f8a0fa3ab18b5f5f255e66c1d8c57a" target="_top" xlink:title="VMEManager::SetPCILink">
<polygon fill="white" stroke="black" points="142,-197.5 142,-216.5 274,-216.5 274,-197.5 142,-197.5"/>
<text text-anchor="middle" x="208" y="-204.5" font-family="Helvetica,sans-Serif" font-size="10.00">VMEManager::SetPCILink</text>
</a>
</g>
</g>
<!-- Node1&#45;&gt;Node34 -->
<g id="edge51" class="edge"><title>Node1&#45;&gt;Node34</title>
<path fill="none" stroke="midnightblue" d="M51.4885,-323.224C61.7779,-301.961 89.203,-251.387 128,-226 131.135,-223.948 134.471,-222.118 137.931,-220.485"/>
<polygon fill="midnightblue" stroke="midnightblue" points="139.42,-223.657 147.329,-216.607 136.75,-217.186 139.42,-223.657"/>
</g>
<!-- Node35 -->
<g id="node35" class="node"><title>Node35</title>
<g id="a_node35"><a xlink:href="class_scaler_manager.xhtml#a03f4a53fbbfb0aca6f088e6e011f7dc4" target="_top" xlink:title="ScalerManager::SetRate">
<polygon fill="white" stroke="black" points="146,-159.5 146,-178.5 270,-178.5 270,-159.5 146,-159.5"/>
<text text-anchor="middle" x="208" y="-166.5" font-family="Helvetica,sans-Serif" font-size="10.00">ScalerManager::SetRate</text>
</a>
</g>
</g>
<!-- Node1&#45;&gt;Node35 -->
<g id="edge52" class="edge"><title>Node1&#45;&gt;Node35</title>
<path fill="none" stroke="midnightblue" d="M49.4343,-323.44C56.6045,-297.311 80.2058,-224.235 128,-188 130.782,-185.891 133.765,-184.012 136.883,-182.338"/>
<polygon fill="midnightblue" stroke="midnightblue" points="138.361,-185.511 145.977,-178.145 135.43,-179.154 138.361,-185.511"/>
</g>
<!-- Node36 -->
<g id="node36" class="node"><title>Node36</title>
<g id="a_node36"><a xlink:href="class_scaler_manager.xhtml#a5e3f7aa1f283eca50bfc74ef83f72a1c" target="_top" xlink:title="ScalerManager::SetScaler\lActive">
<polygon fill="white" stroke="black" points="142.5,-110 142.5,-140 273.5,-140 273.5,-110 142.5,-110"/>
<text text-anchor="start" x="150.5" y="-128" font-family="Helvetica,sans-Serif" font-size="10.00">ScalerManager::SetScaler</text>
<text text-anchor="middle" x="208" y="-117" font-family="Helvetica,sans-Serif" font-size="10.00">Active</text>
</a>
</g>
</g>
<!-- Node1&#45;&gt;Node36 -->
<g id="edge53" class="edge"><title>Node1&#45;&gt;Node36</title>
<path fill="none" stroke="midnightblue" d="M48.4218,-323.424C53.4047,-293.271 72.868,-199.367 128,-150 129.742,-148.441 131.58,-146.978 133.497,-145.607"/>
<polygon fill="midnightblue" stroke="midnightblue" points="135.66,-148.386 142.339,-140.161 131.989,-142.426 135.66,-148.386"/>
</g>
<!-- Node37 -->
<g id="node37" class="node"><title>Node37</title>
<g id="a_node37"><a xlink:href="class_discriminator_manager.xhtml#af01ec3277e6cbe99bf701a1f8b110335" target="_top" xlink:title="DiscriminatorManager\l::SetTreshold">
<polygon fill="white" stroke="black" points="152,-61 152,-91 264,-91 264,-61 152,-61"/>
<text text-anchor="start" x="160" y="-79" font-family="Helvetica,sans-Serif" font-size="10.00">DiscriminatorManager</text>
<text text-anchor="middle" x="208" y="-68" font-family="Helvetica,sans-Serif" font-size="10.00">::SetTreshold</text>
</a>
</g>
</g>
<!-- Node1&#45;&gt;Node37 -->
<g id="edge54" class="edge"><title>Node1&#45;&gt;Node37</title>
<path fill="none" stroke="midnightblue" d="M47.375,-323.399C49.2791,-288.168 60.6888,-164.695 128,-100 132.303,-95.8638 137.297,-92.4383 142.642,-89.6015"/>
<polygon fill="midnightblue" stroke="midnightblue" points="144.273,-92.7045 151.911,-85.3619 141.361,-86.3389 144.273,-92.7045"/>
</g>
<!-- Node38 -->
<g id="node38" class="node"><title>Node38</title>
<g id="a_node38"><a xlink:href="_p_d_a_q_2_core_2_source_2xml_8cpp.xhtml#a294ca441881dbf9ed73205366e498465" target="_top" xlink:title="xml_error">
<polygon fill="white" stroke="black" points="179.5,-22.5 179.5,-41.5 236.5,-41.5 236.5,-22.5 179.5,-22.5"/>
<text text-anchor="middle" x="208" y="-29.5" font-family="Helvetica,sans-Serif" font-size="10.00">xml_error</text>
</a>
</g>
</g>
<!-- Node1&#45;&gt;Node38 -->
<g id="edge55" class="edge"><title>Node1&#45;&gt;Node38</title>
<path fill="none" stroke="midnightblue" d="M46.576,-323.267C45.393,-283.143 46.4956,-129.02 128,-51 138.906,-40.5604 154.5,-35.5289 168.957,-33.2081"/>
<polygon fill="midnightblue" stroke="midnightblue" points="169.697,-36.6439 179.199,-31.9588 168.849,-29.6954 169.697,-36.6439"/>
</g>
<!-- Node7 -->
<g id="node7" class="node"><title>Node7</title>
<g id="a_node7"><a xlink:href="_c_d_a_q_2_plugins_2_source_2xml_parser_8cpp.xhtml#a8dd6e6cada28ea03e5cacd075b1be7f6" target="_top" xlink:title="xfopen">
<polygon fill="white" stroke="black" points="841,-323.5 841,-342.5 887,-342.5 887,-323.5 841,-323.5"/>
<text text-anchor="middle" x="864" y="-330.5" font-family="Helvetica,sans-Serif" font-size="10.00">xfopen</text>
</a>
</g>
</g>
<!-- Node6&#45;&gt;Node7 -->
<g id="edge6" class="edge"><title>Node6&#45;&gt;Node7</title>
<path fill="none" stroke="midnightblue" d="M253.381,-475.466C351.022,-454.36 591.723,-401.624 792,-352 804.869,-348.811 818.988,-345.081 831.223,-341.774"/>
<polygon fill="midnightblue" stroke="midnightblue" points="832.257,-345.12 840.987,-339.117 830.419,-338.365 832.257,-345.12"/>
</g>
<!-- Node8 -->
<g id="node8" class="node"><title>Node8</title>
<g id="a_node8"><a xlink:href="struct_x_m_l_node.xhtml#a006cabe59176e05bc5a3f06c0cf6d8c1" target="_top" xlink:title="XMLNode::setGlobalOptions">
<polygon fill="white" stroke="black" points="330.5,-494.5 330.5,-513.5 471.5,-513.5 471.5,-494.5 330.5,-494.5"/>
<text text-anchor="middle" x="401" y="-501.5" font-family="Helvetica,sans-Serif" font-size="10.00">XMLNode::setGlobalOptions</text>
</a>
</g>
</g>
<!-- Node6&#45;&gt;Node8 -->
<g id="edge7" class="edge"><title>Node6&#45;&gt;Node8</title>
<path fill="none" stroke="midnightblue" d="M273.664,-491.433C288.667,-492.925 304.808,-494.531 320.37,-496.079"/>
<polygon fill="midnightblue" stroke="midnightblue" points="320.198,-499.579 330.496,-497.086 320.891,-492.613 320.198,-499.579"/>
</g>
<!-- Node9 -->
<g id="node9" class="node"><title>Node9</title>
<g id="a_node9"><a xlink:href="struct_x_m_l_node.xhtml#ac7af7e3bab8d21722dd4f191a4aa7c1d" target="_top" xlink:title="XMLNode::guessCharEncoding">
<polygon fill="white" stroke="black" points="324,-142.5 324,-161.5 478,-161.5 478,-142.5 324,-142.5"/>
<text text-anchor="middle" x="401" y="-149.5" font-family="Helvetica,sans-Serif" font-size="10.00">XMLNode::guessCharEncoding</text>
</a>
</g>
</g>
<!-- Node6&#45;&gt;Node9 -->
<g id="edge8" class="edge"><title>Node6&#45;&gt;Node9</title>
<path fill="none" stroke="midnightblue" d="M273.515,-476.682C278.923,-473.951 283.885,-470.456 288,-466 357.604,-390.636 280.287,-330.81 324,-238 337.253,-209.863 362.599,-184.065 380.365,-168.215"/>
<polygon fill="midnightblue" stroke="midnightblue" points="382.662,-170.856 387.923,-161.659 378.075,-165.567 382.662,-170.856"/>
</g>
<!-- Node20 -->
<g id="node20" class="node"><title>Node20</title>
<g id="a_node20"><a xlink:href="struct_x_m_l_node.xhtml#a5e5968e052d58350918cd91e3535624b" target="_top" xlink:title="XMLNode::parseFile">
<polygon fill="white" stroke="black" points="348,-342.5 348,-361.5 454,-361.5 454,-342.5 348,-342.5"/>
<text text-anchor="middle" x="401" y="-349.5" font-family="Helvetica,sans-Serif" font-size="10.00">XMLNode::parseFile</text>
</a>
</g>
</g>
<!-- Node6&#45;&gt;Node20 -->
<g id="edge29" class="edge"><title>Node6&#45;&gt;Node20</title>
<path fill="none" stroke="midnightblue" d="M265.726,-475.456C273.478,-472.99 281.126,-469.892 288,-466 331.223,-441.531 368.763,-395.538 387.432,-370.089"/>
<polygon fill="midnightblue" stroke="midnightblue" points="390.45,-371.887 393.433,-361.721 384.761,-367.808 390.45,-371.887"/>
</g>
<!-- Node28 -->
<g id="node28" class="node"><title>Node28</title>
<g id="a_node28"><a xlink:href="struct_x_m_l_node.xhtml#a4496629c7a268db5435946c7bdd4eb28" target="_top" xlink:title="XMLNode::getError">
<polygon fill="white" stroke="black" points="350.5,-247.5 350.5,-266.5 451.5,-266.5 451.5,-247.5 350.5,-247.5"/>
<text text-anchor="middle" x="401" y="-254.5" font-family="Helvetica,sans-Serif" font-size="10.00">XMLNode::getError</text>
</a>
</g>
</g>
<!-- Node6&#45;&gt;Node28 -->
<g id="edge44" class="edge"><title>Node6&#45;&gt;Node28</title>
<path fill="none" stroke="midnightblue" d="M273.795,-475.836C279.008,-473.259 283.853,-470.031 288,-466 331.911,-423.315 293.313,-385.995 324,-333 338.062,-308.715 361.831,-286.734 379.049,-272.732"/>
<polygon fill="midnightblue" stroke="midnightblue" points="381.228,-275.47 386.904,-266.524 376.888,-269.979 381.228,-275.47"/>
</g>
<!-- Node10 -->
<g id="node10" class="node"><title>Node10</title>
<g id="a_node10"><a xlink:href="_c_d_a_q_2_plugins_2_source_2xml_parser_8cpp.xhtml#ad9a5c911a8e21bb89427d29d33e2797e" target="_top" xlink:title="myIsTextWideChar">
<polygon fill="white" stroke="black" points="521.5,-190.5 521.5,-209.5 622.5,-209.5 622.5,-190.5 521.5,-190.5"/>
<text text-anchor="middle" x="572" y="-197.5" font-family="Helvetica,sans-Serif" font-size="10.00">myIsTextWideChar</text>
</a>
</g>
</g>
<!-- Node9&#45;&gt;Node10 -->
<g id="edge9" class="edge"><title>Node9&#45;&gt;Node10</title>
<path fill="none" stroke="midnightblue" d="M435.793,-161.598C462.16,-169.087 498.979,-179.544 527.539,-187.656"/>
<polygon fill="midnightblue" stroke="midnightblue" points="526.689,-191.053 537.265,-190.418 528.602,-184.319 526.689,-191.053"/>
</g>
<!-- Node11 -->
<g id="node11" class="node"><title>Node11</title>
<g id="a_node11"><a xlink:href="_c_d_a_q_2_plugins_2_source_2xml_parser_8cpp.xhtml#af77e3e2685487b9c492b20c36f3b864a" target="_top" xlink:title="_strnicmp">
<polygon fill="white" stroke="black" points="699.5,-38.5 699.5,-57.5 758.5,-57.5 758.5,-38.5 699.5,-38.5"/>
<text text-anchor="middle" x="729" y="-45.5" font-family="Helvetica,sans-Serif" font-size="10.00">_strnicmp</text>
</a>
</g>
</g>
<!-- Node9&#45;&gt;Node11 -->
<g id="edge28" class="edge"><title>Node9&#45;&gt;Node11</title>
<path fill="none" stroke="midnightblue" d="M431.795,-142.495C491.149,-123.56 624.073,-81.1547 689.761,-60.1988"/>
<polygon fill="midnightblue" stroke="midnightblue" points="690.864,-63.521 699.327,-57.1472 688.736,-56.8521 690.864,-63.521"/>
</g>
<!-- Node12 -->
<g id="node12" class="node"><title>Node12</title>
<g id="a_node12"><a xlink:href="_c_d_a_q_2_plugins_2_source_2xml_parser_8cpp.xhtml#ae4635e3ac4b32772021240a9c16864ee" target="_top" xlink:title="mmin">
<polygon fill="white" stroke="black" points="708.5,-0.5 708.5,-19.5 749.5,-19.5 749.5,-0.5 708.5,-0.5"/>
<text text-anchor="middle" x="729" y="-7.5" font-family="Helvetica,sans-Serif" font-size="10.00">mmin</text>
</a>
</g>
</g>
<!-- Node9&#45;&gt;Node12 -->
<g id="edge27" class="edge"><title>Node9&#45;&gt;Node12</title>
<path fill="none" stroke="midnightblue" d="M414.098,-142.39C433.953,-127.001 475.137,-96.6703 514,-78 577.979,-47.2634 598.288,-50.2879 666,-29 676.632,-25.6573 688.313,-22.0585 698.642,-18.9016"/>
<polygon fill="midnightblue" stroke="midnightblue" points="699.886,-22.1815 708.431,-15.9178 697.845,-15.4856 699.886,-22.1815"/>
</g>
<!-- Node10&#45;&gt;Node7 -->
<g id="edge20" class="edge"><title>Node10&#45;&gt;Node7</title>
<path fill="none" stroke="midnightblue" d="M581.465,-209.703C596.685,-226.543 630.42,-261.177 666,-280 719.884,-308.507 790.364,-322.639 830.765,-328.84"/>
<polygon fill="midnightblue" stroke="midnightblue" points="830.44,-332.33 840.842,-330.317 831.455,-325.404 830.44,-332.33"/>
</g>
<!-- Node10&#45;&gt;Node11 -->
<g id="edge10" class="edge"><title>Node10&#45;&gt;Node11</title>
<path fill="none" stroke="midnightblue" d="M578.953,-190.411C595.661,-163.742 643.252,-89.5061 666,-72 673.035,-66.5864 681.438,-62.2594 689.753,-58.8548"/>
<polygon fill="midnightblue" stroke="midnightblue" points="691.234,-62.0385 699.386,-55.272 688.794,-55.4776 691.234,-62.0385"/>
</g>
<!-- Node10&#45;&gt;Node12 -->
<g id="edge11" class="edge"><title>Node10&#45;&gt;Node12</title>
<path fill="none" stroke="midnightblue" d="M577.032,-190.471C590.96,-157.953 637.736,-52.0916 666,-29 675.211,-21.4743 687.38,-16.9242 698.496,-14.1754"/>
<polygon fill="midnightblue" stroke="midnightblue" points="699.224,-17.5991 708.294,-12.1238 697.789,-10.7477 699.224,-17.5991"/>
</g>
<!-- Node13 -->
<g id="node13" class="node"><title>Node13</title>
<g id="a_node13"><a xlink:href="_c_d_a_q_2_plugins_2_source_2xml_parser_8cpp.xhtml#ad7ec02a171e7641c1d364d5d367199a3" target="_top" xlink:title="myWideCharToMultiByte">
<polygon fill="white" stroke="black" points="666,-228.5 666,-247.5 792,-247.5 792,-228.5 666,-228.5"/>
<text text-anchor="middle" x="729" y="-235.5" font-family="Helvetica,sans-Serif" font-size="10.00">myWideCharToMultiByte</text>
</a>
</g>
</g>
<!-- Node10&#45;&gt;Node13 -->
<g id="edge12" class="edge"><title>Node10&#45;&gt;Node13</title>
<path fill="none" stroke="midnightblue" d="M612.113,-209.589C632.475,-214.581 657.566,-220.732 679.189,-226.033"/>
<polygon fill="midnightblue" stroke="midnightblue" points="678.622,-229.498 689.168,-228.48 680.289,-222.699 678.622,-229.498"/>
</g>
<!-- Node14 -->
<g id="node14" class="node"><title>Node14</title>
<g id="a_node14"><a xlink:href="_c_d_a_q_2_plugins_2_source_2xml_parser_8cpp.xhtml#a73c2349b2f386ee50130a3961bd2dbab" target="_top" xlink:title="xstrcpy">
<polygon fill="white" stroke="black" points="839.5,-152.5 839.5,-171.5 888.5,-171.5 888.5,-152.5 839.5,-152.5"/>
<text text-anchor="middle" x="864" y="-159.5" font-family="Helvetica,sans-Serif" font-size="10.00">xstrcpy</text>
</a>
</g>
</g>
<!-- Node10&#45;&gt;Node14 -->
<g id="edge21" class="edge"><title>Node10&#45;&gt;Node14</title>
<path fill="none" stroke="midnightblue" d="M622.523,-193.511C681.425,-185.793 778.165,-173.116 829.139,-166.437"/>
<polygon fill="midnightblue" stroke="midnightblue" points="829.832,-169.876 839.292,-165.107 828.922,-162.936 829.832,-169.876"/>
</g>
<!-- Node15 -->
<g id="node15" class="node"><title>Node15</title>
<g id="a_node15"><a xlink:href="_c_d_a_q_2_plugins_2_source_2xml_parser_8cpp.xhtml#a2e64ea95685df2d289c31a50419b532d" target="_top" xlink:title="xstricmp">
<polygon fill="white" stroke="black" points="837,-494.5 837,-513.5 891,-513.5 891,-494.5 837,-494.5"/>
<text text-anchor="middle" x="864" y="-501.5" font-family="Helvetica,sans-Serif" font-size="10.00">xstricmp</text>
</a>
</g>
</g>
<!-- Node10&#45;&gt;Node15 -->
<g id="edge22" class="edge"><title>Node10&#45;&gt;Node15</title>
<path fill="none" stroke="midnightblue" d="M580.345,-209.78C595.594,-229.907 632.1,-277.162 666,-314 727.959,-381.329 808.17,-454.871 844.118,-487.184"/>
<polygon fill="midnightblue" stroke="midnightblue" points="842.095,-490.07 851.878,-494.136 846.766,-484.857 842.095,-490.07"/>
</g>
<!-- Node16 -->
<g id="node16" class="node"><title>Node16</title>
<g id="a_node16"><a xlink:href="_c_d_a_q_2_plugins_2_source_2xml_parser_8cpp.xhtml#a49fa66f65d2d28ce7b7e0b1752425915" target="_top" xlink:title="xstrlen">
<polygon fill="white" stroke="black" points="841,-266.5 841,-285.5 887,-285.5 887,-266.5 841,-266.5"/>
<text text-anchor="middle" x="864" y="-273.5" font-family="Helvetica,sans-Serif" font-size="10.00">xstrlen</text>
</a>
</g>
</g>
<!-- Node10&#45;&gt;Node16 -->
<g id="edge23" class="edge"><title>Node10&#45;&gt;Node16</title>
<path fill="none" stroke="midnightblue" d="M584.737,-209.67C601.56,-222.923 634.035,-246.301 666,-257 721.664,-275.632 790.766,-277.858 830.581,-277.277"/>
<polygon fill="midnightblue" stroke="midnightblue" points="830.839,-280.772 840.761,-277.057 830.688,-273.774 830.839,-280.772"/>
</g>
<!-- Node17 -->
<g id="node17" class="node"><title>Node17</title>
<g id="a_node17"><a xlink:href="_c_d_a_q_2_plugins_2_source_2xml_parser_8cpp.xhtml#a3165858f70cd74ffab31ebc2ddc9e104" target="_top" xlink:title="xstrncmp">
<polygon fill="white" stroke="black" points="835.5,-76.5 835.5,-95.5 892.5,-95.5 892.5,-76.5 835.5,-76.5"/>
<text text-anchor="middle" x="864" y="-83.5" font-family="Helvetica,sans-Serif" font-size="10.00">xstrncmp</text>
</a>
</g>
</g>
<!-- Node10&#45;&gt;Node17 -->
<g id="edge24" class="edge"><title>Node10&#45;&gt;Node17</title>
<path fill="none" stroke="midnightblue" d="M583.603,-190.394C600.043,-176.007 633.218,-148.959 666,-134 718.587,-110.003 784.765,-97.0424 825.462,-90.8327"/>
<polygon fill="midnightblue" stroke="midnightblue" points="826.099,-94.2768 835.485,-89.3618 825.082,-87.351 826.099,-94.2768"/>
</g>
<!-- Node18 -->
<g id="node18" class="node"><title>Node18</title>
<g id="a_node18"><a xlink:href="_c_d_a_q_2_plugins_2_source_2xml_parser_8cpp.xhtml#a17c9570640aed10b61deec9047cb0940" target="_top" xlink:title="xstrnicmp">
<polygon fill="white" stroke="black" points="834.5,-209.5 834.5,-228.5 893.5,-228.5 893.5,-209.5 834.5,-209.5"/>
<text text-anchor="middle" x="864" y="-216.5" font-family="Helvetica,sans-Serif" font-size="10.00">xstrnicmp</text>
</a>
</g>
</g>
<!-- Node10&#45;&gt;Node18 -->
<g id="edge25" class="edge"><title>Node10&#45;&gt;Node18</title>
<path fill="none" stroke="midnightblue" d="M622.523,-203.245C679.581,-206.983 772.144,-213.047 824.219,-216.459"/>
<polygon fill="midnightblue" stroke="midnightblue" points="824.173,-219.964 834.381,-217.125 824.631,-212.979 824.173,-219.964"/>
</g>
<!-- Node19 -->
<g id="node19" class="node"><title>Node19</title>
<g id="a_node19"><a xlink:href="_c_d_a_q_2_plugins_2_source_2xml_parser_8cpp.xhtml#a696ca59a310359980c57de039f137697" target="_top" xlink:title="xstrstr">
<polygon fill="white" stroke="black" points="842,-114.5 842,-133.5 886,-133.5 886,-114.5 842,-114.5"/>
<text text-anchor="middle" x="864" y="-121.5" font-family="Helvetica,sans-Serif" font-size="10.00">xstrstr</text>
</a>
</g>
</g>
<!-- Node10&#45;&gt;Node19 -->
<g id="edge26" class="edge"><title>Node10&#45;&gt;Node19</title>
<path fill="none" stroke="midnightblue" d="M598.415,-190.395C616.973,-183.593 642.833,-174.551 666,-168 723.795,-151.658 792.501,-137.476 831.604,-129.887"/>
<polygon fill="midnightblue" stroke="midnightblue" points="832.655,-133.249 841.815,-127.925 831.334,-126.375 832.655,-133.249"/>
</g>
<!-- Node13&#45;&gt;Node7 -->
<g id="edge13" class="edge"><title>Node13&#45;&gt;Node7</title>
<path fill="none" stroke="midnightblue" d="M743.732,-247.809C766.849,-264.321 813.709,-297.792 841.31,-317.507"/>
<polygon fill="midnightblue" stroke="midnightblue" points="839.369,-320.422 849.54,-323.386 843.437,-314.725 839.369,-320.422"/>
</g>
<!-- Node13&#45;&gt;Node14 -->
<g id="edge14" class="edge"><title>Node13&#45;&gt;Node14</title>
<path fill="none" stroke="midnightblue" d="M746.845,-228.375C769.729,-215.297 810.842,-191.804 837.514,-176.563"/>
<polygon fill="midnightblue" stroke="midnightblue" points="839.346,-179.548 846.292,-171.547 835.873,-173.47 839.346,-179.548"/>
</g>
<!-- Node13&#45;&gt;Node15 -->
<g id="edge15" class="edge"><title>Node13&#45;&gt;Node15</title>
<path fill="none" stroke="midnightblue" d="M734.891,-247.783C754.487,-286.974 827.515,-433.03 853.636,-485.271"/>
<polygon fill="midnightblue" stroke="midnightblue" points="850.602,-487.03 858.205,-494.409 856.863,-483.899 850.602,-487.03"/>
</g>
<!-- Node13&#45;&gt;Node16 -->
<g id="edge16" class="edge"><title>Node13&#45;&gt;Node16</title>
<path fill="none" stroke="midnightblue" d="M763.562,-247.589C784.233,-253.495 810.584,-261.024 830.966,-266.847"/>
<polygon fill="midnightblue" stroke="midnightblue" points="830.153,-270.255 840.729,-269.637 832.076,-263.524 830.153,-270.255"/>
</g>
<!-- Node13&#45;&gt;Node17 -->
<g id="edge17" class="edge"><title>Node13&#45;&gt;Node17</title>
<path fill="none" stroke="midnightblue" d="M735.217,-228.176C748.198,-204.464 784.095,-143.241 828,-105 829.525,-103.672 831.158,-102.399 832.856,-101.186"/>
<polygon fill="midnightblue" stroke="midnightblue" points="835.064,-103.932 841.666,-95.646 831.337,-98.0066 835.064,-103.932"/>
</g>
<!-- Node13&#45;&gt;Node18 -->
<g id="edge18" class="edge"><title>Node13&#45;&gt;Node18</title>
<path fill="none" stroke="midnightblue" d="M792.217,-229.112C803.155,-227.549 814.249,-225.964 824.307,-224.528"/>
<polygon fill="midnightblue" stroke="midnightblue" points="824.96,-227.97 834.365,-223.091 823.97,-221.04 824.96,-227.97"/>
</g>
<!-- Node13&#45;&gt;Node19 -->
<g id="edge19" class="edge"><title>Node13&#45;&gt;Node19</title>
<path fill="none" stroke="midnightblue" d="M738.188,-228.491C754.159,-210.322 791.144,-170.076 828,-143 830.048,-141.496 832.229,-140.032 834.463,-138.627"/>
<polygon fill="midnightblue" stroke="midnightblue" points="836.296,-141.61 843.171,-133.549 832.769,-135.564 836.296,-141.61"/>
</g>
<!-- Node20&#45;&gt;Node7 -->
<g id="edge30" class="edge"><title>Node20&#45;&gt;Node7</title>
<path fill="none" stroke="midnightblue" d="M454.434,-349.839C550.45,-345.882 751.867,-337.58 830.538,-334.338"/>
<polygon fill="midnightblue" stroke="midnightblue" points="830.953,-337.824 840.8,-333.915 830.665,-330.83 830.953,-337.824"/>
</g>
<!-- Node20&#45;&gt;Node10 -->
<g id="edge31" class="edge"><title>Node20&#45;&gt;Node10</title>
<path fill="none" stroke="midnightblue" d="M412.572,-342.492C440.669,-317.221 517.462,-248.153 552.783,-216.384"/>
<polygon fill="midnightblue" stroke="midnightblue" points="555.338,-218.794 560.432,-209.505 550.657,-213.59 555.338,-218.794"/>
</g>
<!-- Node20&#45;&gt;Node13 -->
<g id="edge32" class="edge"><title>Node20&#45;&gt;Node13</title>
<path fill="none" stroke="midnightblue" d="M429.234,-342.477C487.602,-322.066 624.811,-274.084 691.002,-250.938"/>
<polygon fill="midnightblue" stroke="midnightblue" points="692.33,-254.181 700.614,-247.577 690.02,-247.574 692.33,-254.181"/>
</g>
<!-- Node21 -->
<g id="node21" class="node"><title>Node21</title>
<g id="a_node21"><a xlink:href="struct_x_m_l_node.xhtml#acb95f4f00e4cf3756aac0e3a53765248" target="_top" xlink:title="XMLNode::parseString">
<polygon fill="white" stroke="black" points="514,-532.5 514,-551.5 630,-551.5 630,-532.5 514,-532.5"/>
<text text-anchor="middle" x="572" y="-539.5" font-family="Helvetica,sans-Serif" font-size="10.00">XMLNode::parseString</text>
</a>
</g>
</g>
<!-- Node20&#45;&gt;Node21 -->
<g id="edge33" class="edge"><title>Node20&#45;&gt;Node21</title>
<path fill="none" stroke="midnightblue" d="M410.613,-361.683C437.503,-391.914 520.18,-484.865 555.134,-524.163"/>
<polygon fill="midnightblue" stroke="midnightblue" points="552.94,-526.963 562.202,-532.108 558.171,-522.31 552.94,-526.963"/>
</g>
<!-- Node21&#45;&gt;Node4 -->
<g id="edge37" class="edge"><title>Node21&#45;&gt;Node4</title>
<path fill="none" stroke="midnightblue" d="M609.762,-551.566C617.34,-555.032 624.635,-559.71 630,-566 673.652,-617.176 619.817,-664.097 666,-713 667.249,-714.322 668.587,-715.554 669.998,-716.7"/>
<polygon fill="midnightblue" stroke="midnightblue" points="668.47,-719.88 678.766,-722.378 672.275,-714.005 668.47,-719.88"/>
</g>
<!-- Node21&#45;&gt;Node15 -->
<g id="edge40" class="edge"><title>Node21&#45;&gt;Node15</title>
<path fill="none" stroke="midnightblue" d="M600.923,-551.534C610.5,-555.372 621.052,-560.262 630,-566 648.271,-577.717 645.771,-591.131 666,-599 718.191,-619.301 741.933,-624.086 792,-599 823.608,-583.162 844.756,-545.833 855.256,-522.967"/>
<polygon fill="midnightblue" stroke="midnightblue" points="858.548,-524.173 859.331,-513.607 852.13,-521.379 858.548,-524.173"/>
</g>
<!-- Node21&#45;&gt;Node16 -->
<g id="edge39" class="edge"><title>Node21&#45;&gt;Node16</title>
<path fill="none" stroke="midnightblue" d="M583.665,-532.217C627.015,-492.455 790.296,-342.687 845.007,-292.504"/>
<polygon fill="midnightblue" stroke="midnightblue" points="847.54,-294.93 852.544,-285.591 842.808,-289.771 847.54,-294.93"/>
</g>
<!-- Node22 -->
<g id="node22" class="node"><title>Node22</title>
<g id="a_node22"><a xlink:href="struct_x_m_l_node.xhtml#a8e52198f258167cd796dae21f1ffc352" target="_top" xlink:title="XMLNode::nChildNode">
<polygon fill="white" stroke="black" points="670.5,-646.5 670.5,-665.5 787.5,-665.5 787.5,-646.5 670.5,-646.5"/>
<text text-anchor="middle" x="729" y="-653.5" font-family="Helvetica,sans-Serif" font-size="10.00">XMLNode::nChildNode</text>
</a>
</g>
</g>
<!-- Node21&#45;&gt;Node22 -->
<g id="edge34" class="edge"><title>Node21&#45;&gt;Node22</title>
<path fill="none" stroke="midnightblue" d="M605.962,-551.502C614.469,-555.068 623.15,-559.808 630,-566 654.787,-588.406 640.888,-609.958 666,-632 670.557,-636 675.854,-639.369 681.396,-642.197"/>
<polygon fill="midnightblue" stroke="midnightblue" points="680.312,-645.547 690.867,-646.463 683.186,-639.165 680.312,-645.547"/>
</g>
<!-- Node23 -->
<g id="node23" class="node"><title>Node23</title>
<g id="a_node23"><a xlink:href="struct_x_m_l_node.xhtml#a8e9538deb9144dcab39b3a510a8202f1" target="_top" xlink:title="XMLNode::nElement">
<polygon fill="white" stroke="black" points="675.5,-570.5 675.5,-589.5 782.5,-589.5 782.5,-570.5 675.5,-570.5"/>
<text text-anchor="middle" x="729" y="-577.5" font-family="Helvetica,sans-Serif" font-size="10.00">XMLNode::nElement</text>
</a>
</g>
</g>
<!-- Node21&#45;&gt;Node23 -->
<g id="edge36" class="edge"><title>Node21&#45;&gt;Node23</title>
<path fill="none" stroke="midnightblue" d="M612.113,-551.589C632.475,-556.581 657.566,-562.732 679.189,-568.033"/>
<polygon fill="midnightblue" stroke="midnightblue" points="678.622,-571.498 689.168,-570.48 680.289,-564.699 678.622,-571.498"/>
</g>
<!-- Node24 -->
<g id="node24" class="node"><title>Node24</title>
<g id="a_node24"><a xlink:href="struct_x_m_l_node.xhtml#a7e07715aa0ed894da96bd66c90d423f0" target="_top" xlink:title="XMLNode::getName">
<polygon fill="white" stroke="black" points="676,-532.5 676,-551.5 782,-551.5 782,-532.5 676,-532.5"/>
<text text-anchor="middle" x="729" y="-539.5" font-family="Helvetica,sans-Serif" font-size="10.00">XMLNode::getName</text>
</a>
</g>
</g>
<!-- Node21&#45;&gt;Node24 -->
<g id="edge38" class="edge"><title>Node21&#45;&gt;Node24</title>
<path fill="none" stroke="midnightblue" d="M630.276,-542C641.815,-542 653.997,-542 665.698,-542"/>
<polygon fill="midnightblue" stroke="midnightblue" points="665.829,-545.5 675.829,-542 665.829,-538.5 665.829,-545.5"/>
</g>
<!-- Node25 -->
<g id="node25" class="node"><title>Node25</title>
<g id="a_node25"><a xlink:href="struct_x_m_l_node.xhtml#a71df27d54a2dc09b0a456406a7e8c6d3" target="_top" xlink:title="XMLNode::isDeclaration">
<polygon fill="white" stroke="black" points="667.5,-494.5 667.5,-513.5 790.5,-513.5 790.5,-494.5 667.5,-494.5"/>
<text text-anchor="middle" x="729" y="-501.5" font-family="Helvetica,sans-Serif" font-size="10.00">XMLNode::isDeclaration</text>
</a>
</g>
</g>
<!-- Node21&#45;&gt;Node25 -->
<g id="edge41" class="edge"><title>Node21&#45;&gt;Node25</title>
<path fill="none" stroke="midnightblue" d="M612.113,-532.411C632.475,-527.419 657.566,-521.268 679.189,-515.967"/>
<polygon fill="midnightblue" stroke="midnightblue" points="680.289,-519.301 689.168,-513.52 678.622,-512.502 680.289,-519.301"/>
</g>
<!-- Node26 -->
<g id="node26" class="node"><title>Node26</title>
<g id="a_node26"><a xlink:href="_c_d_a_q_2_plugins_2_source_2xml_parser_8cpp.xhtml#ae6aa5a367ab3cc92b47fd92f81add72a" target="_top" xlink:title="CountLinesAndColumns">
<polygon fill="white" stroke="black" points="668,-684.5 668,-703.5 790,-703.5 790,-684.5 668,-684.5"/>
<text text-anchor="middle" x="729" y="-691.5" font-family="Helvetica,sans-Serif" font-size="10.00">CountLinesAndColumns</text>
</a>
</g>
</g>
<!-- Node21&#45;&gt;Node26 -->
<g id="edge42" class="edge"><title>Node21&#45;&gt;Node26</title>
<path fill="none" stroke="midnightblue" d="M608.813,-551.617C616.614,-555.097 624.245,-559.768 630,-566 664.613,-603.481 629.537,-639.317 666,-675 667.478,-676.447 669.064,-677.784 670.734,-679.019"/>
<polygon fill="midnightblue" stroke="midnightblue" points="669.303,-682.243 679.678,-684.39 672.907,-676.241 669.303,-682.243"/>
</g>
<!-- Node22&#45;&gt;Node15 -->
<g id="edge35" class="edge"><title>Node22&#45;&gt;Node15</title>
<path fill="none" stroke="midnightblue" d="M767.103,-646.428C775.939,-642.915 784.865,-638.218 792,-632 826.332,-602.079 847.391,-551.322 856.935,-523.565"/>
<polygon fill="midnightblue" stroke="midnightblue" points="860.337,-524.422 860.131,-513.829 853.686,-522.238 860.337,-524.422"/>
</g>
<!-- Node27 -->
<g id="node27" class="node"><title>Node27</title>
<g id="a_node27"><a xlink:href="_c_d_a_q_2_plugins_2_source_2xml_parser_8cpp.xhtml#af03c1c87ed4ddb95f7b49d53d9117c53" target="_top" xlink:title="getNextChar">
<polygon fill="white" stroke="black" points="828,-684.5 828,-703.5 900,-703.5 900,-684.5 828,-684.5"/>
<text text-anchor="middle" x="864" y="-691.5" font-family="Helvetica,sans-Serif" font-size="10.00">getNextChar</text>
</a>
</g>
</g>
<!-- Node26&#45;&gt;Node27 -->
<g id="edge43" class="edge"><title>Node26&#45;&gt;Node27</title>
<path fill="none" stroke="midnightblue" d="M790.274,-694C799.462,-694 808.811,-694 817.609,-694"/>
<polygon fill="midnightblue" stroke="midnightblue" points="817.642,-697.5 827.642,-694 817.642,-690.5 817.642,-697.5"/>
</g>
<!-- Node28&#45;&gt;Node10 -->
<g id="edge45" class="edge"><title>Node28&#45;&gt;Node10</title>
<path fill="none" stroke="midnightblue" d="M430.287,-247.459C458.437,-237.965 501.819,-223.333 532.971,-212.826"/>
<polygon fill="midnightblue" stroke="midnightblue" points="534.264,-216.084 542.621,-209.572 532.027,-209.451 534.264,-216.084"/>
</g>
</g>
</svg>
        <g id="navigator" transform="translate(0 0)" fill="#404254">
                <rect fill="#f2f5e9" fill-opacity="0.5" stroke="#606060" stroke-width=".5" x="0" y="0" width="60" height="60"/>
                <use id="zoomplus" xlink:href="#zoomPlus" x="17" y="9" onmousedown="handleZoom(evt,'in')"/>
                <use id="zoomminus" xlink:href="#zoomMin" x="42" y="9" onmousedown="handleZoom(evt,'out')"/>
                <use id="reset" xlink:href="#resetDef" x="30" y="36" onmousedown="handleReset()"/>
                <g id="arrowUp" xlink:href="#dirArrow" transform="translate(30 24)" onmousedown="handlePan(0,-1)">
                  <use xlink:href="#rim" fill="#404040">
                        <set attributeName="fill" to="#808080" begin="arrowUp.mouseover" end="arrowUp.mouseout"/>
                  </use>
                  <path fill="none" stroke="white" stroke-width="1.5" d="M0,-3.0v7 M-2.5,-0.5L0,-3.0L2.5,-0.5"/>
                </g>
                <g id="arrowRight" xlink:href="#dirArrow" transform="rotate(90) translate(36 -43)" onmousedown="handlePan(1,0)">
                  <use xlink:href="#rim" fill="#404040">
                        <set attributeName="fill" to="#808080" begin="arrowRight.mouseover" end="arrowRight.mouseout"/>
                  </use>
                  <path fill="none" stroke="white" stroke-width="1.5" d="M0,-3.0v7 M-2.5,-0.5L0,-3.0L2.5,-0.5"/>
                </g>
                <g id="arrowDown" xlink:href="#dirArrow" transform="rotate(180) translate(-30 -48)" onmousedown="handlePan(0,1)">
                  <use xlink:href="#rim" fill="#404040">
                        <set attributeName="fill" to="#808080" begin="arrowDown.mouseover" end="arrowDown.mouseout"/>
                  </use>
                  <path fill="none" stroke="white" stroke-width="1.5" d="M0,-3.0v7 M-2.5,-0.5L0,-3.0L2.5,-0.5"/>
                </g>
                <g id="arrowLeft" xlink:href="#dirArrow" transform="rotate(270) translate(-36 17)" onmousedown="handlePan(-1,0)">
                  <use xlink:href="#rim" fill="#404040">
                        <set attributeName="fill" to="#808080" begin="arrowLeft.mouseover" end="arrowLeft.mouseout"/>
                  </use>
                  <path fill="none" stroke="white" stroke-width="1.5" d="M0,-3.0v7 M-2.5,-0.5L0,-3.0L2.5,-0.5"/>
                </g>
        </g>
        <svg viewBox="0 0 15 15" width="100%" height="30px" preserveAspectRatio="xMaxYMin meet">
         <g id="arrow_out" transform="scale(0.3 0.3)">
          <a xlink:href="_scaler_2_core_2_include_2xml_8h_a71dfd5ffda98a9eb0a726d9abf3d4267_cgraph_org.svg" target="_base">
           <rect id="button" ry="5" rx="5" y="6" x="6" height="38" width="38"
                fill="#f2f5e9" fill-opacity="0.5" stroke="#606060" stroke-width="1.0"/>
           <path id="arrow"
             d="M 11.500037,31.436501 C 11.940474,20.09759 22.043105,11.32322 32.158766,21.979434 L 37.068811,17.246167 C 37.068811,17.246167 37.088388,32 37.088388,32 L 22.160133,31.978069 C 22.160133,31.978069 26.997745,27.140456 26.997745,27.140456 C 18.528582,18.264221 13.291696,25.230495 11.500037,31.436501 z"
             style="fill:#404040;"/>
          </a>
         </g>
        </svg>
</svg>
