<?xml version="1.0" encoding="UTF-8" standalone="no"?>
<!DOCTYPE svg PUBLIC "-//W3C//DTD SVG 1.1//EN"
 "http://www.w3.org/Graphics/SVG/1.1/DTD/svg11.dtd">
<!-- Generated by graphviz version 2.36.0 (20140111.2315)
 -->
<!-- Title: /data/Software/DAQ/Scaler/Core/Source/xml.cpp Pages: 1 -->
<!--zoomable 162 -->
<svg id="main" version="1.1" xmlns="http://www.w3.org/2000/svg" xmlns:xlink="http://www.w3.org/1999/xlink" xml:space="preserve" onload="init(evt)">
<style type="text/css"><![CDATA[
.edge:hover path { stroke: red; }
.edge:hover polygon { stroke: red; fill: red; }
]]></style>
<script type="text/javascript"><![CDATA[
var edges = document.getElementsByTagName('g');
if (edges && edges.length) {
  for (var i=0;i<edges.length;i++) {
    if (edges[i].id.substr(0,4)=='edge') {
      edges[i].setAttribute('class','edge');
    }
  }
}
]]></script>
        <defs>
                <circle id="rim" cx="0" cy="0" r="7"/>
                <circle id="rim2" cx="0" cy="0" r="3.5"/>
                <g id="zoomPlus">
                        <use xlink:href="#rim" fill="#404040">
                                <set attributeName="fill" to="#808080" begin="zoomplus.mouseover" end="zoomplus.mouseout"/>
                        </use>
                        <path d="M-4,0h8M0,-4v8" fill="none" stroke="white" stroke-width="1.5" pointer-events="none"/>
                </g>
                <g id="zoomMin">
                        <use xlink:href="#rim" fill="#404040">
                                <set attributeName="fill" to="#808080" begin="zoomminus.mouseover" end="zoomminus.mouseout"/>
                        </use>
                        <path d="M-4,0h8" fill="none" stroke="white" stroke-width="1.5" pointer-events="none"/>
                </g>
                <g id="dirArrow">
                        <path fill="none" stroke="white" stroke-width="1.5" d="M0,-3.0v7 M-2.5,-0.5L0,-3.0L2.5,-0.5"/>
                </g>
               <g id="resetDef">
                       <use xlink:href="#rim2" fill="#404040">
                               <set attributeName="fill" to="#808080" begin="reset.mouseover" end="reset.mouseout"/>
                       </use>
               </g>
        </defs>

<script type="text/javascript">
var viewWidth = 1059;
var viewHeight = 162;
var sectionId = 'dynsection-0';
</script>
<script xlink:href="svgpan.js"/>
<svg id="graph" class="graph">
<g id="viewport">
<title>/data/Software/DAQ/Scaler/Core/Source/xml.cpp</title>
<polygon fill="white" stroke="none" points="-4,4 -4,-158 1055,-158 1055,4 -4,4"/>
<!-- Node1 -->
<g id="node1" class="node"><title>Node1</title>
<polygon fill="#bfbfbf" stroke="black" points="452.5,-112.5 452.5,-153.5 557.5,-153.5 557.5,-112.5 452.5,-112.5"/>
<text text-anchor="start" x="460.5" y="-141.5" font-family="Helvetica,sans-Serif" font-size="10.00">/data/Software/DAQ</text>
<text text-anchor="start" x="460.5" y="-130.5" font-family="Helvetica,sans-Serif" font-size="10.00">/Scaler/Core/Source</text>
<text text-anchor="middle" x="505" y="-119.5" font-family="Helvetica,sans-Serif" font-size="10.00">/xml.cpp</text>
</g>
<!-- Node2 -->
<g id="node2" class="node"><title>Node2</title>
<polygon fill="white" stroke="#bfbfbf" points="129,-0.5 129,-19.5 175,-19.5 175,-0.5 129,-0.5"/>
<text text-anchor="middle" x="152" y="-7.5" font-family="Helvetica,sans-Serif" font-size="10.00">stdio.h</text>
</g>
<!-- Node1&#45;&gt;Node2 -->
<g id="edge1" class="edge"><title>Node1&#45;&gt;Node2</title>
<path fill="none" stroke="midnightblue" d="M452.248,-128.748C371.815,-122.831 223.467,-107.853 182,-76 167.391,-64.7779 159.642,-44.7614 155.707,-29.8959"/>
<polygon fill="midnightblue" stroke="midnightblue" points="159.031,-28.7316 153.39,-19.7632 152.207,-30.2918 159.031,-28.7316"/>
</g>
<!-- Node3 -->
<g id="node3" class="node"><title>Node3</title>
<polygon fill="white" stroke="#bfbfbf" points="-0.5,-0.5 -0.5,-19.5 48.5,-19.5 48.5,-0.5 -0.5,-0.5"/>
<text text-anchor="middle" x="24" y="-7.5" font-family="Helvetica,sans-Serif" font-size="10.00">string.h</text>
</g>
<!-- Node1&#45;&gt;Node3 -->
<g id="edge2" class="edge"><title>Node1&#45;&gt;Node3</title>
<path fill="none" stroke="midnightblue" d="M452.439,-130.735C378.39,-127.5 240.101,-116.085 130,-76 96.9574,-63.9701 63.0473,-40.932 42.7522,-25.7656"/>
<polygon fill="midnightblue" stroke="midnightblue" points="44.7573,-22.8931 34.6837,-19.6109 40.5118,-28.4587 44.7573,-22.8931"/>
</g>
<!-- Node4 -->
<g id="node4" class="node"><title>Node4</title>
<polygon fill="white" stroke="#bfbfbf" points="193,-0.5 193,-19.5 241,-19.5 241,-0.5 193,-0.5"/>
<text text-anchor="middle" x="217" y="-7.5" font-family="Helvetica,sans-Serif" font-size="10.00">stdlib.h</text>
</g>
<!-- Node1&#45;&gt;Node4 -->
<g id="edge3" class="edge"><title>Node1&#45;&gt;Node4</title>
<path fill="none" stroke="midnightblue" d="M452.382,-130.512C371.594,-126.994 222.864,-115.222 190,-76 178.172,-61.8833 189.63,-41.8585 201.055,-27.7755"/>
<polygon fill="midnightblue" stroke="midnightblue" points="204.01,-29.7132 207.956,-19.8806 198.739,-25.1063 204.01,-29.7132"/>
</g>
<!-- Node5 -->
<g id="node5" class="node"><title>Node5</title>
<polygon fill="white" stroke="#bfbfbf" points="67,-0.5 67,-19.5 111,-19.5 111,-0.5 67,-0.5"/>
<text text-anchor="middle" x="89" y="-7.5" font-family="Helvetica,sans-Serif" font-size="10.00">time.h</text>
</g>
<!-- Node1&#45;&gt;Node5 -->
<g id="edge4" class="edge"><title>Node1&#45;&gt;Node5</title>
<path fill="none" stroke="midnightblue" d="M452.243,-132.235C382.699,-130.613 258.057,-120.928 163,-76 138.738,-64.5327 116.413,-42.6972 102.768,-27.5153"/>
<polygon fill="midnightblue" stroke="midnightblue" points="105.326,-25.1232 96.1228,-19.8735 100.043,-29.7163 105.326,-25.1232"/>
</g>
<!-- Node6 -->
<g id="node6" class="node"><title>Node6</title>
<polygon fill="white" stroke="#bfbfbf" points="445.5,-56.5 445.5,-75.5 492.5,-75.5 492.5,-56.5 445.5,-56.5"/>
<text text-anchor="middle" x="469" y="-63.5" font-family="Helvetica,sans-Serif" font-size="10.00">math.h</text>
</g>
<!-- Node1&#45;&gt;Node6 -->
<g id="edge5" class="edge"><title>Node1&#45;&gt;Node6</title>
<path fill="none" stroke="midnightblue" d="M494.199,-112.498C489.263,-103.586 483.463,-93.1135 478.672,-84.4636"/>
<polygon fill="midnightblue" stroke="midnightblue" points="481.699,-82.7046 473.792,-75.6525 475.575,-86.0962 481.699,-82.7046"/>
</g>
<!-- Node7 -->
<g id="node7" class="node"><title>Node7</title>
<polygon fill="white" stroke="#bfbfbf" points="511,-56.5 511,-75.5 571,-75.5 571,-56.5 511,-56.5"/>
<text text-anchor="middle" x="541" y="-63.5" font-family="Helvetica,sans-Serif" font-size="10.00">sys/stat.h</text>
</g>
<!-- Node1&#45;&gt;Node7 -->
<g id="edge6" class="edge"><title>Node1&#45;&gt;Node7</title>
<path fill="none" stroke="midnightblue" d="M515.801,-112.498C520.737,-103.586 526.537,-93.1135 531.328,-84.4636"/>
<polygon fill="midnightblue" stroke="midnightblue" points="534.425,-86.0962 536.208,-75.6525 528.301,-82.7046 534.425,-86.0962"/>
</g>
<!-- Node8 -->
<g id="node8" class="node"><title>Node8</title>
<polygon fill="white" stroke="#bfbfbf" points="589.5,-56.5 589.5,-75.5 640.5,-75.5 640.5,-56.5 589.5,-56.5"/>
<text text-anchor="middle" x="615" y="-63.5" font-family="Helvetica,sans-Serif" font-size="10.00">unistd.h</text>
</g>
<!-- Node1&#45;&gt;Node8 -->
<g id="edge7" class="edge"><title>Node1&#45;&gt;Node8</title>
<path fill="none" stroke="midnightblue" d="M538.004,-112.498C555.193,-102.34 575.814,-90.1551 591.388,-80.9523"/>
<polygon fill="midnightblue" stroke="midnightblue" points="593.529,-83.7531 600.357,-75.6525 589.967,-77.7266 593.529,-83.7531"/>
</g>
<!-- Node9 -->
<g id="node9" class="node"><title>Node9</title>
<polygon fill="white" stroke="#bfbfbf" points="659,-56.5 659,-75.5 713,-75.5 713,-56.5 659,-56.5"/>
<text text-anchor="middle" x="686" y="-63.5" font-family="Helvetica,sans-Serif" font-size="10.00">iostream</text>
</g>
<!-- Node1&#45;&gt;Node9 -->
<g id="edge8" class="edge"><title>Node1&#45;&gt;Node9</title>
<path fill="none" stroke="midnightblue" d="M557.839,-113.025C588.372,-102.06 625.867,-88.5949 652.392,-79.0692"/>
<polygon fill="midnightblue" stroke="midnightblue" points="653.755,-82.2986 661.984,-75.6247 651.389,-75.7105 653.755,-82.2986"/>
</g>
<!-- Node10 -->
<g id="node10" class="node"><title>Node10</title>
<polygon fill="white" stroke="#bfbfbf" points="731,-56.5 731,-75.5 793,-75.5 793,-56.5 731,-56.5"/>
<text text-anchor="middle" x="762" y="-63.5" font-family="Helvetica,sans-Serif" font-size="10.00">sys/time.h</text>
</g>
<!-- Node1&#45;&gt;Node10 -->
<g id="edge9" class="edge"><title>Node1&#45;&gt;Node10</title>
<path fill="none" stroke="midnightblue" d="M557.628,-118.689C605.993,-106.457 676.7,-88.5738 720.994,-77.3712"/>
<polygon fill="midnightblue" stroke="midnightblue" points="722.004,-80.7259 730.841,-74.8807 720.288,-73.9396 722.004,-80.7259"/>
</g>
<!-- Node11 -->
<g id="node11" class="node"><title>Node11</title>
<polygon fill="white" stroke="#bfbfbf" points="811.5,-56.5 811.5,-75.5 880.5,-75.5 880.5,-56.5 811.5,-56.5"/>
<text text-anchor="middle" x="846" y="-63.5" font-family="Helvetica,sans-Serif" font-size="10.00">xmlParser.h</text>
</g>
<!-- Node1&#45;&gt;Node11 -->
<g id="edge10" class="edge"><title>Node1&#45;&gt;Node11</title>
<path fill="none" stroke="midnightblue" d="M557.699,-122.201C616.919,-111.15 715.908,-92.558 801,-76 801.103,-75.98 801.205,-75.96 801.308,-75.94"/>
<polygon fill="midnightblue" stroke="midnightblue" points="801.984,-79.3742 811.122,-74.0128 800.635,-72.5054 801.984,-79.3742"/>
</g>
<!-- Node12 -->
<g id="node12" class="node"><title>Node12</title>
<polygon fill="white" stroke="#bfbfbf" points="899,-56.5 899,-75.5 983,-75.5 983,-56.5 899,-56.5"/>
<text text-anchor="middle" x="941" y="-63.5" font-family="Helvetica,sans-Serif" font-size="10.00">VMEManager.h</text>
</g>
<!-- Node1&#45;&gt;Node12 -->
<g id="edge11" class="edge"><title>Node1&#45;&gt;Node12</title>
<path fill="none" stroke="midnightblue" d="M557.552,-124.787C629.625,-114.794 763.447,-95.8845 888.584,-76.0277"/>
<polygon fill="midnightblue" stroke="midnightblue" points="889.405,-79.4412 898.73,-74.4126 888.304,-72.5283 889.405,-79.4412"/>
</g>
<!-- Node13 -->
<g id="node13" class="node"><title>Node13</title>
<g id="a_node13"><a xlink:href="_discriminator_manager_8h.xhtml" target="_top" xlink:title="DiscriminatorManager.h">
<polygon fill="white" stroke="black" points="199,-56.5 199,-75.5 319,-75.5 319,-56.5 199,-56.5"/>
<text text-anchor="middle" x="259" y="-63.5" font-family="Helvetica,sans-Serif" font-size="10.00">DiscriminatorManager.h</text>
</a>
</g>
</g>
<!-- Node1&#45;&gt;Node13 -->
<g id="edge12" class="edge"><title>Node1&#45;&gt;Node13</title>
<path fill="none" stroke="midnightblue" d="M452.227,-118.056C407.1,-106.132 343.008,-89.1971 301.219,-78.1553"/>
<polygon fill="midnightblue" stroke="midnightblue" points="301.922,-74.7211 291.36,-75.5503 300.134,-81.4889 301.922,-74.7211"/>
</g>
<!-- Node18 -->
<g id="node18" class="node"><title>Node18</title>
<g id="a_node18"><a xlink:href="_scaler_manager_8h.xhtml" target="_top" xlink:title="ScalerManager.h">
<polygon fill="white" stroke="black" points="337,-56.5 337,-75.5 427,-75.5 427,-56.5 337,-56.5"/>
<text text-anchor="middle" x="382" y="-63.5" font-family="Helvetica,sans-Serif" font-size="10.00">ScalerManager.h</text>
</a>
</g>
</g>
<!-- Node1&#45;&gt;Node18 -->
<g id="edge21" class="edge"><title>Node1&#45;&gt;Node18</title>
<path fill="none" stroke="midnightblue" d="M468.096,-112.498C448.512,-102.149 424.945,-89.6946 407.422,-80.4346"/>
<polygon fill="midnightblue" stroke="midnightblue" points="408.85,-77.2303 398.373,-75.6525 405.579,-83.4193 408.85,-77.2303"/>
</g>
<!-- Node21 -->
<g id="node21" class="node"><title>Node21</title>
<polygon fill="white" stroke="#bfbfbf" points="1001,-56.5 1001,-75.5 1051,-75.5 1051,-56.5 1001,-56.5"/>
<text text-anchor="middle" x="1026" y="-63.5" font-family="Helvetica,sans-Serif" font-size="10.00">global.h</text>
</g>
<!-- Node1&#45;&gt;Node21 -->
<g id="edge32" class="edge"><title>Node1&#45;&gt;Node21</title>
<path fill="none" stroke="midnightblue" d="M557.852,-128.294C647.494,-121.479 834.833,-104.935 991,-76 991.1,-75.9814 991.201,-75.9627 991.301,-75.9439"/>
<polygon fill="midnightblue" stroke="midnightblue" points="991.808,-79.4147 1000.86,-73.9045 990.346,-72.5689 991.808,-79.4147"/>
</g>
<!-- Node13&#45;&gt;Node2 -->
<g id="edge14" class="edge"><title>Node13&#45;&gt;Node2</title>
<path fill="none" stroke="midnightblue" d="M241.809,-56.324C224.649,-47.6641 198.054,-34.2424 178.253,-24.249"/>
<polygon fill="midnightblue" stroke="midnightblue" points="179.653,-21.0354 169.149,-19.6545 176.499,-27.2847 179.653,-21.0354"/>
</g>
<!-- Node13&#45;&gt;Node3 -->
<g id="edge13" class="edge"><title>Node13&#45;&gt;Node3</title>
<path fill="none" stroke="midnightblue" d="M218.851,-56.4878C180.266,-48.2012 120.083,-34.9996 58.7112,-20.1022"/>
<polygon fill="midnightblue" stroke="midnightblue" points="59.3989,-16.6674 48.8542,-17.6972 57.7396,-23.4679 59.3989,-16.6674"/>
</g>
<!-- Node13&#45;&gt;Node4 -->
<g id="edge15" class="edge"><title>Node13&#45;&gt;Node4</title>
<path fill="none" stroke="midnightblue" d="M252.065,-56.083C246.071,-48.3768 237.248,-37.0333 229.952,-27.6531"/>
<polygon fill="midnightblue" stroke="midnightblue" points="232.709,-25.4958 223.806,-19.7511 227.183,-29.7934 232.709,-25.4958"/>
</g>
<!-- Node13&#45;&gt;Node5 -->
<g id="edge16" class="edge"><title>Node13&#45;&gt;Node5</title>
<path fill="none" stroke="midnightblue" d="M232.063,-56.4435C201.903,-46.8634 153.062,-31.3492 120.986,-21.1604"/>
<polygon fill="midnightblue" stroke="midnightblue" points="121.796,-17.7454 111.206,-18.0537 119.677,-24.4169 121.796,-17.7454"/>
</g>
<!-- Node14 -->
<g id="node14" class="node"><title>Node14</title>
<polygon fill="white" stroke="#bfbfbf" points="259.5,-0.5 259.5,-19.5 344.5,-19.5 344.5,-0.5 259.5,-0.5"/>
<text text-anchor="middle" x="302" y="-7.5" font-family="Helvetica,sans-Serif" font-size="10.00">CAENVMElib.h</text>
</g>
<!-- Node13&#45;&gt;Node14 -->
<g id="edge17" class="edge"><title>Node13&#45;&gt;Node14</title>
<path fill="none" stroke="midnightblue" d="M266.101,-56.083C272.237,-48.3768 281.27,-37.0333 288.739,-27.6531"/>
<polygon fill="midnightblue" stroke="midnightblue" points="291.54,-29.7542 295.032,-19.7511 286.064,-25.3936 291.54,-29.7542"/>
</g>
<!-- Node15 -->
<g id="node15" class="node"><title>Node15</title>
<polygon fill="white" stroke="#bfbfbf" points="363,-0.5 363,-19.5 407,-19.5 407,-0.5 363,-0.5"/>
<text text-anchor="middle" x="385" y="-7.5" font-family="Helvetica,sans-Serif" font-size="10.00">vector</text>
</g>
<!-- Node13&#45;&gt;Node15 -->
<g id="edge18" class="edge"><title>Node13&#45;&gt;Node15</title>
<path fill="none" stroke="midnightblue" d="M278.965,-56.4435C299.609,-47.5961 332.063,-33.6875 355.632,-23.5865"/>
<polygon fill="midnightblue" stroke="midnightblue" points="357.316,-26.6727 365.128,-19.5164 354.558,-20.2387 357.316,-26.6727"/>
</g>
<!-- Node16 -->
<g id="node16" class="node"><title>Node16</title>
<polygon fill="white" stroke="#bfbfbf" points="425,-0.5 425,-19.5 477,-19.5 477,-0.5 425,-0.5"/>
<text text-anchor="middle" x="451" y="-7.5" font-family="Helvetica,sans-Serif" font-size="10.00">memory</text>
</g>
<!-- Node13&#45;&gt;Node16 -->
<g id="edge19" class="edge"><title>Node13&#45;&gt;Node16</title>
<path fill="none" stroke="midnightblue" d="M289.423,-56.4435C323.541,-46.8477 378.828,-31.2984 415.052,-21.1104"/>
<polygon fill="midnightblue" stroke="midnightblue" points="416.051,-24.4652 424.73,-18.3884 414.156,-17.7267 416.051,-24.4652"/>
</g>
<!-- Node17 -->
<g id="node17" class="node"><title>Node17</title>
<polygon fill="white" stroke="#bfbfbf" points="495.5,-0.5 495.5,-19.5 546.5,-19.5 546.5,-0.5 495.5,-0.5"/>
<text text-anchor="middle" x="521" y="-7.5" font-family="Helvetica,sans-Serif" font-size="10.00">typeinfo</text>
</g>
<!-- Node13&#45;&gt;Node17 -->
<g id="edge20" class="edge"><title>Node13&#45;&gt;Node17</title>
<path fill="none" stroke="midnightblue" d="M306.116,-56.4562C349.983,-48.3228 417.413,-35.3678 485.395,-20.032"/>
<polygon fill="midnightblue" stroke="midnightblue" points="486.45,-23.3814 495.426,-17.7523 484.899,-16.5554 486.45,-23.3814"/>
</g>
<!-- Node18&#45;&gt;Node2 -->
<g id="edge23" class="edge"><title>Node18&#45;&gt;Node2</title>
<path fill="none" stroke="midnightblue" d="M341.66,-56.4591C303.663,-48.2748 244.928,-35.2663 185.043,-20.1693"/>
<polygon fill="midnightblue" stroke="midnightblue" points="185.588,-16.6967 175.035,-17.629 183.866,-23.4816 185.588,-16.6967"/>
</g>
<!-- Node18&#45;&gt;Node3 -->
<g id="edge22" class="edge"><title>Node18&#45;&gt;Node3</title>
<path fill="none" stroke="midnightblue" d="M336.994,-57.5257C333.614,-56.9979 330.254,-56.4839 327,-56 210.836,-38.7264 178.03,-43.2201 58.6879,-19.906"/>
<polygon fill="midnightblue" stroke="midnightblue" points="59.2875,-16.4568 48.7984,-17.9497 57.9291,-23.3238 59.2875,-16.4568"/>
</g>
<!-- Node18&#45;&gt;Node4 -->
<g id="edge24" class="edge"><title>Node18&#45;&gt;Node4</title>
<path fill="none" stroke="midnightblue" d="M355.855,-56.4435C327.403,-47.1318 281.82,-32.2137 250.699,-22.0289"/>
<polygon fill="midnightblue" stroke="midnightblue" points="251.736,-18.6856 241.144,-18.9015 249.559,-25.3384 251.736,-18.6856"/>
</g>
<!-- Node18&#45;&gt;Node5 -->
<g id="edge25" class="edge"><title>Node18&#45;&gt;Node5</title>
<path fill="none" stroke="midnightblue" d="M336.958,-57.5478C273.764,-47.0532 162.611,-28.4395 121.197,-19.9476"/>
<polygon fill="midnightblue" stroke="midnightblue" points="121.788,-16.4944 111.272,-17.7911 120.301,-23.3348 121.788,-16.4944"/>
</g>
<!-- Node18&#45;&gt;Node14 -->
<g id="edge26" class="edge"><title>Node18&#45;&gt;Node14</title>
<path fill="none" stroke="midnightblue" d="M369.147,-56.324C356.784,-47.979 337.87,-35.2122 323.263,-25.3524"/>
<polygon fill="midnightblue" stroke="midnightblue" points="325.068,-22.3483 314.821,-19.6545 321.152,-28.1503 325.068,-22.3483"/>
</g>
<!-- Node18&#45;&gt;Node15 -->
<g id="edge27" class="edge"><title>Node18&#45;&gt;Node15</title>
<path fill="none" stroke="midnightblue" d="M382.495,-56.083C382.889,-49.0059 383.452,-38.8611 383.945,-29.9865"/>
<polygon fill="midnightblue" stroke="midnightblue" points="387.454,-29.9299 384.514,-19.7511 380.464,-29.5415 387.454,-29.9299"/>
</g>
<!-- Node18&#45;&gt;Node16 -->
<g id="edge28" class="edge"><title>Node18&#45;&gt;Node16</title>
<path fill="none" stroke="midnightblue" d="M393.086,-56.324C403.486,-48.1849 419.261,-35.8395 431.722,-26.0874"/>
<polygon fill="midnightblue" stroke="midnightblue" points="433.994,-28.7533 439.712,-19.8339 429.68,-23.2407 433.994,-28.7533"/>
</g>
<!-- Node18&#45;&gt;Node17 -->
<g id="edge29" class="edge"><title>Node18&#45;&gt;Node17</title>
<path fill="none" stroke="midnightblue" d="M404.025,-56.4435C427.104,-47.4776 463.562,-33.314 489.641,-23.1827"/>
<polygon fill="midnightblue" stroke="midnightblue" points="491.024,-26.4002 499.078,-19.5164 488.489,-19.8753 491.024,-26.4002"/>
</g>
<!-- Node19 -->
<g id="node19" class="node"><title>Node19</title>
<polygon fill="white" stroke="#bfbfbf" points="565,-0.5 565,-19.5 611,-19.5 611,-0.5 565,-0.5"/>
<text text-anchor="middle" x="588" y="-7.5" font-family="Helvetica,sans-Serif" font-size="10.00">keyb.h</text>
</g>
<!-- Node18&#45;&gt;Node19 -->
<g id="edge30" class="edge"><title>Node18&#45;&gt;Node19</title>
<path fill="none" stroke="midnightblue" d="M415.196,-56.489C450.045,-47.525 506.419,-32.9425 555,-20 555.1,-19.9732 555.201,-19.9464 555.302,-19.9196"/>
<polygon fill="midnightblue" stroke="midnightblue" points="556.183,-23.307 564.93,-17.3289 554.364,-16.5474 556.183,-23.307"/>
</g>
<!-- Node20 -->
<g id="node20" class="node"><title>Node20</title>
<polygon fill="white" stroke="#bfbfbf" points="629,-0.5 629,-19.5 691,-19.5 691,-0.5 629,-0.5"/>
<text text-anchor="middle" x="660" y="-7.5" font-family="Helvetica,sans-Serif" font-size="10.00">common.h</text>
</g>
<!-- Node18&#45;&gt;Node20 -->
<g id="edge31" class="edge"><title>Node18&#45;&gt;Node20</title>
<path fill="none" stroke="midnightblue" d="M427.275,-56.9189C473.07,-48.638 546.15,-35.1318 618.394,-20.281"/>
<polygon fill="midnightblue" stroke="midnightblue" points="619.494,-23.6277 628.579,-18.177 618.078,-16.7725 619.494,-23.6277"/>
</g>
</g>
</svg>
        <g id="navigator" transform="translate(0 0)" fill="#404254">
                <rect fill="#f2f5e9" fill-opacity="0.5" stroke="#606060" stroke-width=".5" x="0" y="0" width="60" height="60"/>
                <use id="zoomplus" xlink:href="#zoomPlus" x="17" y="9" onmousedown="handleZoom(evt,'in')"/>
                <use id="zoomminus" xlink:href="#zoomMin" x="42" y="9" onmousedown="handleZoom(evt,'out')"/>
                <use id="reset" xlink:href="#resetDef" x="30" y="36" onmousedown="handleReset()"/>
                <g id="arrowUp" xlink:href="#dirArrow" transform="translate(30 24)" onmousedown="handlePan(0,-1)">
                  <use xlink:href="#rim" fill="#404040">
                        <set attributeName="fill" to="#808080" begin="arrowUp.mouseover" end="arrowUp.mouseout"/>
                  </use>
                  <path fill="none" stroke="white" stroke-width="1.5" d="M0,-3.0v7 M-2.5,-0.5L0,-3.0L2.5,-0.5"/>
                </g>
                <g id="arrowRight" xlink:href="#dirArrow" transform="rotate(90) translate(36 -43)" onmousedown="handlePan(1,0)">
                  <use xlink:href="#rim" fill="#404040">
                        <set attributeName="fill" to="#808080" begin="arrowRight.mouseover" end="arrowRight.mouseout"/>
                  </use>
                  <path fill="none" stroke="white" stroke-width="1.5" d="M0,-3.0v7 M-2.5,-0.5L0,-3.0L2.5,-0.5"/>
                </g>
                <g id="arrowDown" xlink:href="#dirArrow" transform="rotate(180) translate(-30 -48)" onmousedown="handlePan(0,1)">
                  <use xlink:href="#rim" fill="#404040">
                        <set attributeName="fill" to="#808080" begin="arrowDown.mouseover" end="arrowDown.mouseout"/>
                  </use>
                  <path fill="none" stroke="white" stroke-width="1.5" d="M0,-3.0v7 M-2.5,-0.5L0,-3.0L2.5,-0.5"/>
                </g>
                <g id="arrowLeft" xlink:href="#dirArrow" transform="rotate(270) translate(-36 17)" onmousedown="handlePan(-1,0)">
                  <use xlink:href="#rim" fill="#404040">
                        <set attributeName="fill" to="#808080" begin="arrowLeft.mouseover" end="arrowLeft.mouseout"/>
                  </use>
                  <path fill="none" stroke="white" stroke-width="1.5" d="M0,-3.0v7 M-2.5,-0.5L0,-3.0L2.5,-0.5"/>
                </g>
        </g>
        <svg viewBox="0 0 15 15" width="100%" height="30px" preserveAspectRatio="xMaxYMin meet">
         <g id="arrow_out" transform="scale(0.3 0.3)">
          <a xlink:href="_scaler_2_core_2_source_2xml_8cpp__incl_org.svg" target="_base">
           <rect id="button" ry="5" rx="5" y="6" x="6" height="38" width="38"
                fill="#f2f5e9" fill-opacity="0.5" stroke="#606060" stroke-width="1.0"/>
           <path id="arrow"
             d="M 11.500037,31.436501 C 11.940474,20.09759 22.043105,11.32322 32.158766,21.979434 L 37.068811,17.246167 C 37.068811,17.246167 37.088388,32 37.088388,32 L 22.160133,31.978069 C 22.160133,31.978069 26.997745,27.140456 26.997745,27.140456 C 18.528582,18.264221 13.291696,25.230495 11.500037,31.436501 z"
             style="fill:#404040;"/>
          </a>
         </g>
        </svg>
</svg>
