<?xml version="1.0" encoding="UTF-8" standalone="no"?>
<!DOCTYPE svg PUBLIC "-//W3C//DTD SVG 1.1//EN"
 "http://www.w3.org/Graphics/SVG/1.1/DTD/svg11.dtd">
<!-- Generated by graphviz version 2.36.0 (20140111.2315)
 -->
<!-- Title: /data/Software/DAQ/Scaler/Core/Include/ScalerManager.h Pages: 1 -->
<svg width="699pt" height="106pt"
 viewBox="0.00 0.00 699.00 106.00" xmlns="http://www.w3.org/2000/svg" xmlns:xlink="http://www.w3.org/1999/xlink">
<g id="graph0" class="graph" transform="scale(1 1) rotate(0) translate(4 102)">
<title>/data/Software/DAQ/Scaler/Core/Include/ScalerManager.h</title>
<polygon fill="white" stroke="none" points="-4,4 -4,-102 695,-102 695,4 -4,4"/>
<!-- Node1 -->
<g id="node1" class="node"><title>Node1</title>
<polygon fill="#bfbfbf" stroke="black" points="290,-56.5 290,-97.5 396,-97.5 396,-56.5 290,-56.5"/>
<text text-anchor="start" x="298" y="-85.5" font-family="Helvetica,sans-Serif" font-size="10.00">/data/Software/DAQ</text>
<text text-anchor="start" x="298" y="-74.5" font-family="Helvetica,sans-Serif" font-size="10.00">/Scaler/Core/Include</text>
<text text-anchor="middle" x="343" y="-63.5" font-family="Helvetica,sans-Serif" font-size="10.00">/ScalerManager.h</text>
</g>
<!-- Node2 -->
<g id="node2" class="node"><title>Node2</title>
<polygon fill="white" stroke="#bfbfbf" points="-0.5,-0.5 -0.5,-19.5 48.5,-19.5 48.5,-0.5 -0.5,-0.5"/>
<text text-anchor="middle" x="24" y="-7.5" font-family="Helvetica,sans-Serif" font-size="10.00">string.h</text>
</g>
<!-- Node1&#45;&gt;Node2 -->
<g id="edge1" class="edge"><title>Node1&#45;&gt;Node2</title>
<path fill="none" stroke="midnightblue" d="M289.993,-66.6457C234.729,-56.6553 145.4,-39.8407 58.8309,-20.0715"/>
<polygon fill="midnightblue" stroke="midnightblue" points="59.3663,-16.6034 48.8363,-17.7729 57.7973,-23.4253 59.3663,-16.6034"/>
</g>
<!-- Node3 -->
<g id="node3" class="node"><title>Node3</title>
<polygon fill="white" stroke="#bfbfbf" points="67,-0.5 67,-19.5 113,-19.5 113,-0.5 67,-0.5"/>
<text text-anchor="middle" x="90" y="-7.5" font-family="Helvetica,sans-Serif" font-size="10.00">stdio.h</text>
</g>
<!-- Node1&#45;&gt;Node3 -->
<g id="edge2" class="edge"><title>Node1&#45;&gt;Node3</title>
<path fill="none" stroke="midnightblue" d="M289.76,-62.9213C247.122,-52.3533 185.539,-36.8806 122.732,-20.1472"/>
<polygon fill="midnightblue" stroke="midnightblue" points="123.617,-16.7609 113.052,-17.5607 121.81,-23.5236 123.617,-16.7609"/>
</g>
<!-- Node4 -->
<g id="node4" class="node"><title>Node4</title>
<polygon fill="white" stroke="#bfbfbf" points="131,-0.5 131,-19.5 179,-19.5 179,-0.5 131,-0.5"/>
<text text-anchor="middle" x="155" y="-7.5" font-family="Helvetica,sans-Serif" font-size="10.00">stdlib.h</text>
</g>
<!-- Node1&#45;&gt;Node4 -->
<g id="edge3" class="edge"><title>Node1&#45;&gt;Node4</title>
<path fill="none" stroke="midnightblue" d="M289.881,-57.6342C257.484,-46.4334 217.042,-32.4508 188.933,-22.732"/>
<polygon fill="midnightblue" stroke="midnightblue" points="189.767,-19.3173 179.172,-19.3574 187.48,-25.933 189.767,-19.3173"/>
</g>
<!-- Node5 -->
<g id="node5" class="node"><title>Node5</title>
<polygon fill="white" stroke="#bfbfbf" points="197,-0.5 197,-19.5 241,-19.5 241,-0.5 197,-0.5"/>
<text text-anchor="middle" x="219" y="-7.5" font-family="Helvetica,sans-Serif" font-size="10.00">time.h</text>
</g>
<!-- Node1&#45;&gt;Node5 -->
<g id="edge4" class="edge"><title>Node1&#45;&gt;Node5</title>
<path fill="none" stroke="midnightblue" d="M305.796,-56.4979C286.053,-46.1488 262.294,-33.6946 244.629,-24.4346"/>
<polygon fill="midnightblue" stroke="midnightblue" points="245.988,-21.1954 235.506,-19.6525 242.738,-27.3952 245.988,-21.1954"/>
</g>
<!-- Node6 -->
<g id="node6" class="node"><title>Node6</title>
<polygon fill="white" stroke="#bfbfbf" points="259.5,-0.5 259.5,-19.5 344.5,-19.5 344.5,-0.5 259.5,-0.5"/>
<text text-anchor="middle" x="302" y="-7.5" font-family="Helvetica,sans-Serif" font-size="10.00">CAENVMElib.h</text>
</g>
<!-- Node1&#45;&gt;Node6 -->
<g id="edge5" class="edge"><title>Node1&#45;&gt;Node6</title>
<path fill="none" stroke="midnightblue" d="M330.699,-56.4979C325.017,-47.4904 318.329,-36.8881 312.84,-28.1852"/>
<polygon fill="midnightblue" stroke="midnightblue" points="315.753,-26.2432 307.458,-19.6525 309.833,-29.9778 315.753,-26.2432"/>
</g>
<!-- Node7 -->
<g id="node7" class="node"><title>Node7</title>
<polygon fill="white" stroke="#bfbfbf" points="363,-0.5 363,-19.5 407,-19.5 407,-0.5 363,-0.5"/>
<text text-anchor="middle" x="385" y="-7.5" font-family="Helvetica,sans-Serif" font-size="10.00">vector</text>
</g>
<!-- Node1&#45;&gt;Node7 -->
<g id="edge6" class="edge"><title>Node1&#45;&gt;Node7</title>
<path fill="none" stroke="midnightblue" d="M355.601,-56.4979C361.422,-47.4904 368.272,-36.8881 373.896,-28.1852"/>
<polygon fill="midnightblue" stroke="midnightblue" points="376.922,-29.9512 379.409,-19.6525 371.042,-26.1522 376.922,-29.9512"/>
</g>
<!-- Node8 -->
<g id="node8" class="node"><title>Node8</title>
<polygon fill="white" stroke="#bfbfbf" points="425,-0.5 425,-19.5 477,-19.5 477,-0.5 425,-0.5"/>
<text text-anchor="middle" x="451" y="-7.5" font-family="Helvetica,sans-Serif" font-size="10.00">memory</text>
</g>
<!-- Node1&#45;&gt;Node8 -->
<g id="edge7" class="edge"><title>Node1&#45;&gt;Node8</title>
<path fill="none" stroke="midnightblue" d="M375.404,-56.4979C392.28,-46.3405 412.527,-34.1551 427.818,-24.9523"/>
<polygon fill="midnightblue" stroke="midnightblue" points="429.86,-27.8079 436.624,-19.6525 426.251,-21.8104 429.86,-27.8079"/>
</g>
<!-- Node9 -->
<g id="node9" class="node"><title>Node9</title>
<polygon fill="white" stroke="#bfbfbf" points="495.5,-0.5 495.5,-19.5 546.5,-19.5 546.5,-0.5 495.5,-0.5"/>
<text text-anchor="middle" x="521" y="-7.5" font-family="Helvetica,sans-Serif" font-size="10.00">typeinfo</text>
</g>
<!-- Node1&#45;&gt;Node9 -->
<g id="edge8" class="edge"><title>Node1&#45;&gt;Node9</title>
<path fill="none" stroke="midnightblue" d="M396.406,-56.4979C426.058,-45.6697 462.022,-32.5369 487.674,-23.1696"/>
<polygon fill="midnightblue" stroke="midnightblue" points="489.113,-26.3704 497.305,-19.6525 486.712,-19.795 489.113,-26.3704"/>
</g>
<!-- Node10 -->
<g id="node10" class="node"><title>Node10</title>
<polygon fill="white" stroke="#bfbfbf" points="565,-0.5 565,-19.5 611,-19.5 611,-0.5 565,-0.5"/>
<text text-anchor="middle" x="588" y="-7.5" font-family="Helvetica,sans-Serif" font-size="10.00">keyb.h</text>
</g>
<!-- Node1&#45;&gt;Node10 -->
<g id="edge9" class="edge"><title>Node1&#45;&gt;Node10</title>
<path fill="none" stroke="midnightblue" d="M396.178,-62.079C439.074,-50.8192 500.953,-34.508 555,-20 555.1,-19.9731 555.201,-19.9461 555.302,-19.919"/>
<polygon fill="midnightblue" stroke="midnightblue" points="556.187,-23.3054 564.927,-17.3178 554.361,-16.5478 556.187,-23.3054"/>
</g>
<!-- Node11 -->
<g id="node11" class="node"><title>Node11</title>
<polygon fill="white" stroke="#bfbfbf" points="629,-0.5 629,-19.5 691,-19.5 691,-0.5 629,-0.5"/>
<text text-anchor="middle" x="660" y="-7.5" font-family="Helvetica,sans-Serif" font-size="10.00">common.h</text>
</g>
<!-- Node1&#45;&gt;Node11 -->
<g id="edge10" class="edge"><title>Node1&#45;&gt;Node11</title>
<path fill="none" stroke="midnightblue" d="M396.174,-65.6081C449.866,-55.0343 535.444,-37.9618 618.696,-20.2464"/>
<polygon fill="midnightblue" stroke="midnightblue" points="619.522,-23.649 628.571,-18.1395 618.061,-16.8031 619.522,-23.649"/>
</g>
</g>
</svg>
