<?xml version="1.0" encoding="UTF-8" standalone="no"?>
<!DOCTYPE svg PUBLIC "-//W3C//DTD SVG 1.1//EN"
 "http://www.w3.org/Graphics/SVG/1.1/DTD/svg11.dtd">
<!-- Generated by graphviz version 2.36.0 (20140111.2315)
 -->
<!-- Title: /data/Software/DAQ/Scaler/Plugins/Source/common.cpp Pages: 1 -->
<svg width="662pt" height="106pt"
 viewBox="0.00 0.00 662.00 106.00" xmlns="http://www.w3.org/2000/svg" xmlns:xlink="http://www.w3.org/1999/xlink">
<g id="graph0" class="graph" transform="scale(1 1) rotate(0) translate(4 102)">
<title>/data/Software/DAQ/Scaler/Plugins/Source/common.cpp</title>
<polygon fill="white" stroke="none" points="-4,4 -4,-102 658,-102 658,4 -4,4"/>
<!-- Node1 -->
<g id="node1" class="node"><title>Node1</title>
<polygon fill="#bfbfbf" stroke="black" points="239,-56.5 239,-97.5 355,-97.5 355,-56.5 239,-56.5"/>
<text text-anchor="start" x="247" y="-85.5" font-family="Helvetica,sans-Serif" font-size="10.00">/data/Software/DAQ</text>
<text text-anchor="start" x="247" y="-74.5" font-family="Helvetica,sans-Serif" font-size="10.00">/Scaler/Plugins/Source</text>
<text text-anchor="middle" x="297" y="-63.5" font-family="Helvetica,sans-Serif" font-size="10.00">/common.cpp</text>
</g>
<!-- Node2 -->
<g id="node2" class="node"><title>Node2</title>
<polygon fill="white" stroke="#bfbfbf" points="0,-0.5 0,-19.5 52,-19.5 52,-0.5 0,-0.5"/>
<text text-anchor="middle" x="26" y="-7.5" font-family="Helvetica,sans-Serif" font-size="10.00">sstream</text>
</g>
<!-- Node1&#45;&gt;Node2 -->
<g id="edge1" class="edge"><title>Node1&#45;&gt;Node2</title>
<path fill="none" stroke="midnightblue" d="M238.735,-62.4944C193.167,-51.8586 127.963,-36.4797 62.0826,-20.2368"/>
<polygon fill="midnightblue" stroke="midnightblue" points="62.9076,-16.8355 52.3599,-17.8345 61.2284,-23.6311 62.9076,-16.8355"/>
</g>
<!-- Node3 -->
<g id="node3" class="node"><title>Node3</title>
<polygon fill="white" stroke="#bfbfbf" points="70,-0.5 70,-19.5 124,-19.5 124,-0.5 70,-0.5"/>
<text text-anchor="middle" x="97" y="-7.5" font-family="Helvetica,sans-Serif" font-size="10.00">iostream</text>
</g>
<!-- Node1&#45;&gt;Node3 -->
<g id="edge2" class="edge"><title>Node1&#45;&gt;Node3</title>
<path fill="none" stroke="midnightblue" d="M238.883,-57.112C204.734,-46.0136 162.632,-32.3303 133.195,-22.7635"/>
<polygon fill="midnightblue" stroke="midnightblue" points="133.938,-19.3245 123.345,-19.5622 131.774,-25.9818 133.938,-19.3245"/>
</g>
<!-- Node4 -->
<g id="node4" class="node"><title>Node4</title>
<polygon fill="white" stroke="#bfbfbf" points="142,-0.5 142,-19.5 190,-19.5 190,-0.5 142,-0.5"/>
<text text-anchor="middle" x="166" y="-7.5" font-family="Helvetica,sans-Serif" font-size="10.00">stdlib.h</text>
</g>
<!-- Node1&#45;&gt;Node4 -->
<g id="edge3" class="edge"><title>Node1&#45;&gt;Node4</title>
<path fill="none" stroke="midnightblue" d="M257.696,-56.4979C236.645,-46.053 211.273,-33.4638 192.559,-24.1782"/>
<polygon fill="midnightblue" stroke="midnightblue" points="193.952,-20.962 183.438,-19.6525 190.84,-27.2326 193.952,-20.962"/>
</g>
<!-- Node5 -->
<g id="node5" class="node"><title>Node5</title>
<polygon fill="white" stroke="#bfbfbf" points="208,-0.5 208,-19.5 254,-19.5 254,-0.5 208,-0.5"/>
<text text-anchor="middle" x="231" y="-7.5" font-family="Helvetica,sans-Serif" font-size="10.00">stdio.h</text>
</g>
<!-- Node1&#45;&gt;Node5 -->
<g id="edge4" class="edge"><title>Node1&#45;&gt;Node5</title>
<path fill="none" stroke="midnightblue" d="M277.198,-56.4979C267.565,-47.0113 256.137,-35.7557 247.056,-26.8131"/>
<polygon fill="midnightblue" stroke="midnightblue" points="249.366,-24.1757 239.786,-19.6525 244.455,-29.1631 249.366,-24.1757"/>
</g>
<!-- Node6 -->
<g id="node6" class="node"><title>Node6</title>
<polygon fill="white" stroke="#bfbfbf" points="272.5,-0.5 272.5,-19.5 321.5,-19.5 321.5,-0.5 272.5,-0.5"/>
<text text-anchor="middle" x="297" y="-7.5" font-family="Helvetica,sans-Serif" font-size="10.00">string.h</text>
</g>
<!-- Node1&#45;&gt;Node6 -->
<g id="edge5" class="edge"><title>Node1&#45;&gt;Node6</title>
<path fill="none" stroke="midnightblue" d="M297,-56.4979C297,-48.0653 297,-38.2351 297,-29.874"/>
<polygon fill="midnightblue" stroke="midnightblue" points="300.5,-29.6525 297,-19.6525 293.5,-29.6525 300.5,-29.6525"/>
</g>
<!-- Node7 -->
<g id="node7" class="node"><title>Node7</title>
<polygon fill="white" stroke="#bfbfbf" points="340,-0.5 340,-19.5 390,-19.5 390,-0.5 340,-0.5"/>
<text text-anchor="middle" x="365" y="-7.5" font-family="Helvetica,sans-Serif" font-size="10.00">fstream</text>
</g>
<!-- Node1&#45;&gt;Node7 -->
<g id="edge6" class="edge"><title>Node1&#45;&gt;Node7</title>
<path fill="none" stroke="midnightblue" d="M317.402,-56.4979C327.327,-47.0113 339.102,-35.7557 348.457,-26.8131"/>
<polygon fill="midnightblue" stroke="midnightblue" points="351.138,-29.0924 355.948,-19.6525 346.301,-24.0323 351.138,-29.0924"/>
</g>
<!-- Node8 -->
<g id="node8" class="node"><title>Node8</title>
<polygon fill="white" stroke="#bfbfbf" points="408.5,-0.5 408.5,-19.5 493.5,-19.5 493.5,-0.5 408.5,-0.5"/>
<text text-anchor="middle" x="451" y="-7.5" font-family="Helvetica,sans-Serif" font-size="10.00">CAENVMElib.h</text>
</g>
<!-- Node1&#45;&gt;Node8 -->
<g id="edge7" class="edge"><title>Node1&#45;&gt;Node8</title>
<path fill="none" stroke="midnightblue" d="M343.205,-56.4979C368.519,-45.8135 399.149,-32.8851 421.279,-23.5446"/>
<polygon fill="midnightblue" stroke="midnightblue" points="422.648,-26.7657 430.5,-19.6525 419.926,-20.3166 422.648,-26.7657"/>
</g>
<!-- Node9 -->
<g id="node9" class="node"><title>Node9</title>
<polygon fill="white" stroke="#bfbfbf" points="512,-0.5 512,-19.5 574,-19.5 574,-0.5 512,-0.5"/>
<text text-anchor="middle" x="543" y="-7.5" font-family="Helvetica,sans-Serif" font-size="10.00">common.h</text>
</g>
<!-- Node1&#45;&gt;Node9 -->
<g id="edge8" class="edge"><title>Node1&#45;&gt;Node9</title>
<path fill="none" stroke="midnightblue" d="M355.299,-60.5959C400.487,-48.6559 461.963,-32.4122 502.055,-21.8188"/>
<polygon fill="midnightblue" stroke="midnightblue" points="502.99,-25.192 511.764,-19.2534 501.202,-18.4242 502.99,-25.192"/>
</g>
<!-- Node10 -->
<g id="node10" class="node"><title>Node10</title>
<polygon fill="white" stroke="#bfbfbf" points="592,-0.5 592,-19.5 654,-19.5 654,-0.5 592,-0.5"/>
<text text-anchor="middle" x="623" y="-7.5" font-family="Helvetica,sans-Serif" font-size="10.00">sys/time.h</text>
</g>
<!-- Node1&#45;&gt;Node10 -->
<g id="edge9" class="edge"><title>Node1&#45;&gt;Node10</title>
<path fill="none" stroke="midnightblue" d="M355.207,-64.9524C410.72,-54.3279 496.936,-37.5983 581.864,-19.99"/>
<polygon fill="midnightblue" stroke="midnightblue" points="582.598,-23.4124 591.676,-17.9505 581.173,-16.5589 582.598,-23.4124"/>
</g>
</g>
</svg>
