<?xml version="1.0" encoding="UTF-8" standalone="no"?>
<!DOCTYPE svg PUBLIC "-//W3C//DTD SVG 1.1//EN"
 "http://www.w3.org/Graphics/SVG/1.1/DTD/svg11.dtd">
<!-- Generated by graphviz version 2.36.0 (20140111.2315)
 -->
<!-- Title: myTagCompare Pages: 1 -->
<svg width="190pt" height="66pt"
 viewBox="0.00 0.00 190.00 66.00" xmlns="http://www.w3.org/2000/svg" xmlns:xlink="http://www.w3.org/1999/xlink">
<g id="graph0" class="graph" transform="scale(1 1) rotate(0) translate(4 62)">
<title>myTagCompare</title>
<polygon fill="white" stroke="none" points="-4,4 -4,-62 186,-62 186,4 -4,4"/>
<!-- Node1 -->
<g id="node1" class="node"><title>Node1</title>
<polygon fill="#bfbfbf" stroke="black" points="0,-19.5 0,-38.5 86,-38.5 86,-19.5 0,-19.5"/>
<text text-anchor="middle" x="43" y="-26.5" font-family="Helvetica,sans-Serif" font-size="10.00">myTagCompare</text>
</g>
<!-- Node2 -->
<g id="node2" class="node"><title>Node2</title>
<g id="a_node2"><a xlink:href="_scaler_2_plugins_2_source_2xml_parser_8cpp.xhtml#a49fa66f65d2d28ce7b7e0b1752425915" target="_top" xlink:title="xstrlen">
<polygon fill="white" stroke="black" points="129,-38.5 129,-57.5 175,-57.5 175,-38.5 129,-38.5"/>
<text text-anchor="middle" x="152" y="-45.5" font-family="Helvetica,sans-Serif" font-size="10.00">xstrlen</text>
</a>
</g>
</g>
<!-- Node1&#45;&gt;Node2 -->
<g id="edge1" class="edge"><title>Node1&#45;&gt;Node2</title>
<path fill="none" stroke="midnightblue" d="M86.2892,-36.5093C97.1279,-38.4339 108.609,-40.4727 118.844,-42.2901"/>
<polygon fill="midnightblue" stroke="midnightblue" points="118.522,-45.7875 128.98,-44.0898 119.745,-38.8953 118.522,-45.7875"/>
</g>
<!-- Node3 -->
<g id="node3" class="node"><title>Node3</title>
<g id="a_node3"><a xlink:href="_scaler_2_plugins_2_source_2xml_parser_8cpp.xhtml#a17c9570640aed10b61deec9047cb0940" target="_top" xlink:title="xstrnicmp">
<polygon fill="white" stroke="black" points="122.5,-0.5 122.5,-19.5 181.5,-19.5 181.5,-0.5 122.5,-0.5"/>
<text text-anchor="middle" x="152" y="-7.5" font-family="Helvetica,sans-Serif" font-size="10.00">xstrnicmp</text>
</a>
</g>
</g>
<!-- Node1&#45;&gt;Node3 -->
<g id="edge2" class="edge"><title>Node1&#45;&gt;Node3</title>
<path fill="none" stroke="midnightblue" d="M86.2892,-21.4907C94.8443,-19.9716 103.8,-18.3814 112.227,-16.885"/>
<polygon fill="midnightblue" stroke="midnightblue" points="112.947,-20.312 122.181,-15.1174 111.723,-13.4198 112.947,-20.312"/>
</g>
</g>
</svg>
