<?xml version="1.0" encoding="UTF-8" standalone="no"?>
<!DOCTYPE svg PUBLIC "-//W3C//DTD SVG 1.1//EN"
 "http://www.w3.org/Graphics/SVG/1.1/DTD/svg11.dtd">
<!-- Generated by graphviz version 2.36.0 (20140111.2315)
 -->
<!-- Title: /data/Software/DAQ/CDAQ/Core/Source/ScopeManager.cpp Pages: 1 -->
<!--zoomable 152 -->
<svg id="main" version="1.1" xmlns="http://www.w3.org/2000/svg" xmlns:xlink="http://www.w3.org/1999/xlink" xml:space="preserve" onload="init(evt)">
<style type="text/css"><![CDATA[
.edge:hover path { stroke: red; }
.edge:hover polygon { stroke: red; fill: red; }
]]></style>
<script type="text/javascript"><![CDATA[
var edges = document.getElementsByTagName('g');
if (edges && edges.length) {
  for (var i=0;i<edges.length;i++) {
    if (edges[i].id.substr(0,4)=='edge') {
      edges[i].setAttribute('class','edge');
    }
  }
}
]]></script>
        <defs>
                <circle id="rim" cx="0" cy="0" r="7"/>
                <circle id="rim2" cx="0" cy="0" r="3.5"/>
                <g id="zoomPlus">
                        <use xlink:href="#rim" fill="#404040">
                                <set attributeName="fill" to="#808080" begin="zoomplus.mouseover" end="zoomplus.mouseout"/>
                        </use>
                        <path d="M-4,0h8M0,-4v8" fill="none" stroke="white" stroke-width="1.5" pointer-events="none"/>
                </g>
                <g id="zoomMin">
                        <use xlink:href="#rim" fill="#404040">
                                <set attributeName="fill" to="#808080" begin="zoomminus.mouseover" end="zoomminus.mouseout"/>
                        </use>
                        <path d="M-4,0h8" fill="none" stroke="white" stroke-width="1.5" pointer-events="none"/>
                </g>
                <g id="dirArrow">
                        <path fill="none" stroke="white" stroke-width="1.5" d="M0,-3.0v7 M-2.5,-0.5L0,-3.0L2.5,-0.5"/>
                </g>
               <g id="resetDef">
                       <use xlink:href="#rim2" fill="#404040">
                               <set attributeName="fill" to="#808080" begin="reset.mouseover" end="reset.mouseout"/>
                       </use>
               </g>
        </defs>

<script type="text/javascript">
var viewWidth = 1153;
var viewHeight = 152;
var sectionId = 'dynsection-0';
</script>
<script xlink:href="svgpan.js"/>
<svg id="graph" class="graph">
<g id="viewport">
<title>/data/Software/DAQ/CDAQ/Core/Source/ScopeManager.cpp</title>
<polygon fill="white" stroke="none" points="-4,4 -4,-148 1149,-148 1149,4 -4,4"/>
<!-- Node1 -->
<g id="node1" class="node"><title>Node1</title>
<polygon fill="#bfbfbf" stroke="black" points="211,-113 211,-143 405,-143 405,-113 211,-113"/>
<text text-anchor="start" x="219" y="-131" font-family="Helvetica,sans-Serif" font-size="10.00">/data/Software/DAQ</text>
<text text-anchor="middle" x="308" y="-120" font-family="Helvetica,sans-Serif" font-size="10.00">/CDAQ/Core/Source/ScopeManager.cpp</text>
</g>
<!-- Node2 -->
<g id="node2" class="node"><title>Node2</title>
<polygon fill="white" stroke="#bfbfbf" points="2,-56.5 2,-75.5 52,-75.5 52,-56.5 2,-56.5"/>
<text text-anchor="middle" x="27" y="-63.5" font-family="Helvetica,sans-Serif" font-size="10.00">fstream</text>
</g>
<!-- Node1&#45;&gt;Node2 -->
<g id="edge1" class="edge"><title>Node1&#45;&gt;Node2</title>
<path fill="none" stroke="midnightblue" d="M234.815,-112.989C187.944,-103.759 125.618,-91.0132 62.0154,-76.1456"/>
<polygon fill="midnightblue" stroke="midnightblue" points="62.748,-72.7225 52.2122,-73.8394 61.1449,-79.5365 62.748,-72.7225"/>
</g>
<!-- Node3 -->
<g id="node3" class="node"><title>Node3</title>
<polygon fill="white" stroke="#bfbfbf" points="70,-56.5 70,-75.5 122,-75.5 122,-56.5 70,-56.5"/>
<text text-anchor="middle" x="96" y="-63.5" font-family="Helvetica,sans-Serif" font-size="10.00">sstream</text>
</g>
<!-- Node1&#45;&gt;Node3 -->
<g id="edge2" class="edge"><title>Node1&#45;&gt;Node3</title>
<path fill="none" stroke="midnightblue" d="M258.295,-112.933C219.532,-101.962 166.619,-86.9865 131.898,-77.1597"/>
<polygon fill="midnightblue" stroke="midnightblue" points="132.753,-73.7645 122.178,-74.4089 130.847,-80.4999 132.753,-73.7645"/>
</g>
<!-- Node4 -->
<g id="node4" class="node"><title>Node4</title>
<polygon fill="white" stroke="#bfbfbf" points="-1,-0.5 -1,-19.5 43,-19.5 43,-0.5 -1,-0.5"/>
<text text-anchor="middle" x="21" y="-7.5" font-family="Helvetica,sans-Serif" font-size="10.00">vector</text>
</g>
<!-- Node1&#45;&gt;Node4 -->
<g id="edge3" class="edge"><title>Node1&#45;&gt;Node4</title>
<path fill="none" stroke="midnightblue" d="M266.119,-112.991C238.492,-103.392 201.687,-89.9201 170,-76 152.165,-68.1652 148.698,-64.1397 131,-56 104.99,-44.0372 74.8616,-31.8229 52.7193,-23.1439"/>
<polygon fill="midnightblue" stroke="midnightblue" points="53.7398,-19.7853 43.1513,-19.4185 51.2,-26.3083 53.7398,-19.7853"/>
</g>
<!-- Node5 -->
<g id="node5" class="node"><title>Node5</title>
<polygon fill="white" stroke="#bfbfbf" points="178.5,-56.5 178.5,-75.5 225.5,-75.5 225.5,-56.5 178.5,-56.5"/>
<text text-anchor="middle" x="202" y="-63.5" font-family="Helvetica,sans-Serif" font-size="10.00">iterator</text>
</g>
<!-- Node1&#45;&gt;Node5 -->
<g id="edge4" class="edge"><title>Node1&#45;&gt;Node5</title>
<path fill="none" stroke="midnightblue" d="M283.148,-112.933C265.903,-103.171 243.058,-90.2401 226.001,-80.5856"/>
<polygon fill="midnightblue" stroke="midnightblue" points="227.62,-77.4802 217.193,-75.6 224.172,-83.572 227.62,-77.4802"/>
</g>
<!-- Node6 -->
<g id="node6" class="node"><title>Node6</title>
<polygon fill="white" stroke="#bfbfbf" points="244,-56.5 244,-75.5 300,-75.5 300,-56.5 244,-56.5"/>
<text text-anchor="middle" x="272" y="-63.5" font-family="Helvetica,sans-Serif" font-size="10.00">algorithm</text>
</g>
<!-- Node1&#45;&gt;Node6 -->
<g id="edge5" class="edge"><title>Node1&#45;&gt;Node6</title>
<path fill="none" stroke="midnightblue" d="M299.469,-112.781C294.399,-104.332 287.929,-93.5481 282.542,-84.5693"/>
<polygon fill="midnightblue" stroke="midnightblue" points="285.385,-82.5047 277.238,-75.7305 279.382,-86.1062 285.385,-82.5047"/>
</g>
<!-- Node7 -->
<g id="node7" class="node"><title>Node7</title>
<polygon fill="white" stroke="#bfbfbf" points="318,-56.5 318,-75.5 372,-75.5 372,-56.5 318,-56.5"/>
<text text-anchor="middle" x="345" y="-63.5" font-family="Helvetica,sans-Serif" font-size="10.00">iostream</text>
</g>
<!-- Node1&#45;&gt;Node7 -->
<g id="edge6" class="edge"><title>Node1&#45;&gt;Node7</title>
<path fill="none" stroke="midnightblue" d="M316.768,-112.781C322.034,-104.242 328.77,-93.3184 334.342,-84.2834"/>
<polygon fill="midnightblue" stroke="midnightblue" points="337.346,-86.0794 339.616,-75.7305 331.388,-82.4051 337.346,-86.0794"/>
</g>
<!-- Node8 -->
<g id="node8" class="node"><title>Node8</title>
<polygon fill="white" stroke="#bfbfbf" points="390.5,-56.5 390.5,-75.5 431.5,-75.5 431.5,-56.5 390.5,-56.5"/>
<text text-anchor="middle" x="411" y="-63.5" font-family="Helvetica,sans-Serif" font-size="10.00">string</text>
</g>
<!-- Node1&#45;&gt;Node8 -->
<g id="edge7" class="edge"><title>Node1&#45;&gt;Node8</title>
<path fill="none" stroke="midnightblue" d="M332.149,-112.933C348.75,-103.262 370.694,-90.4793 387.216,-80.8546"/>
<polygon fill="midnightblue" stroke="midnightblue" points="389.358,-83.6579 396.237,-75.6 385.834,-77.6093 389.358,-83.6579"/>
</g>
<!-- Node9 -->
<g id="node9" class="node"><title>Node9</title>
<g id="a_node9"><a xlink:href="_scope_manager_8h.xhtml" target="_top" xlink:title="ScopeManager.h">
<polygon fill="white" stroke="black" points="450,-56.5 450,-75.5 540,-75.5 540,-56.5 450,-56.5"/>
<text text-anchor="middle" x="495" y="-63.5" font-family="Helvetica,sans-Serif" font-size="10.00">ScopeManager.h</text>
</a>
</g>
</g>
<!-- Node1&#45;&gt;Node9 -->
<g id="edge8" class="edge"><title>Node1&#45;&gt;Node9</title>
<path fill="none" stroke="midnightblue" d="M351.843,-112.933C384.334,-102.508 428.095,-88.4667 458.649,-78.6635"/>
<polygon fill="midnightblue" stroke="midnightblue" points="460.016,-81.9006 468.469,-75.5127 457.878,-75.2353 460.016,-81.9006"/>
</g>
<!-- Node25 -->
<g id="node25" class="node"><title>Node25</title>
<polygon fill="white" stroke="#bfbfbf" points="558,-56.5 558,-75.5 608,-75.5 608,-56.5 558,-56.5"/>
<text text-anchor="middle" x="583" y="-63.5" font-family="Helvetica,sans-Serif" font-size="10.00">global.h</text>
</g>
<!-- Node1&#45;&gt;Node25 -->
<g id="edge25" class="edge"><title>Node1&#45;&gt;Node25</title>
<path fill="none" stroke="midnightblue" d="M378.863,-112.979C424.545,-103.714 485.442,-90.9423 547.771,-76.207"/>
<polygon fill="midnightblue" stroke="midnightblue" points="548.866,-79.5444 557.785,-73.8255 547.246,-72.7343 548.866,-79.5444"/>
</g>
<!-- Node26 -->
<g id="node26" class="node"><title>Node26</title>
<polygon fill="white" stroke="#bfbfbf" points="626.5,-56.5 626.5,-75.5 675.5,-75.5 675.5,-56.5 626.5,-56.5"/>
<text text-anchor="middle" x="651" y="-63.5" font-family="Helvetica,sans-Serif" font-size="10.00">TLine.h</text>
</g>
<!-- Node1&#45;&gt;Node26 -->
<g id="edge26" class="edge"><title>Node1&#45;&gt;Node26</title>
<path fill="none" stroke="midnightblue" d="M405.174,-113.387C463.752,-104.607 540.003,-92.171 616.384,-75.9616"/>
<polygon fill="midnightblue" stroke="midnightblue" points="617.139,-79.3792 626.183,-73.861 615.672,-72.5347 617.139,-79.3792"/>
</g>
<!-- Node9&#45;&gt;Node4 -->
<g id="edge13" class="edge"><title>Node9&#45;&gt;Node4</title>
<path fill="none" stroke="midnightblue" d="M449.716,-57.3342C446.432,-56.8568 443.167,-56.4059 440,-56 271.838,-34.4463 224.587,-50.8793 53.1178,-19.6403"/>
<polygon fill="midnightblue" stroke="midnightblue" points="53.7276,-16.1938 43.2578,-17.8168 52.4546,-23.0771 53.7276,-16.1938"/>
</g>
<!-- Node10 -->
<g id="node10" class="node"><title>Node10</title>
<polygon fill="white" stroke="#bfbfbf" points="61.5,-0.5 61.5,-19.5 110.5,-19.5 110.5,-0.5 61.5,-0.5"/>
<text text-anchor="middle" x="86" y="-7.5" font-family="Helvetica,sans-Serif" font-size="10.00">string.h</text>
</g>
<!-- Node9&#45;&gt;Node10 -->
<g id="edge9" class="edge"><title>Node9&#45;&gt;Node10</title>
<path fill="none" stroke="midnightblue" d="M449.706,-57.4036C446.424,-56.9099 443.163,-56.4364 440,-56 301.408,-36.8772 262.406,-45.9507 120.718,-19.8654"/>
<polygon fill="midnightblue" stroke="midnightblue" points="121.259,-16.406 110.787,-18.0109 119.974,-23.287 121.259,-16.406"/>
</g>
<!-- Node11 -->
<g id="node11" class="node"><title>Node11</title>
<polygon fill="white" stroke="#bfbfbf" points="129,-0.5 129,-19.5 175,-19.5 175,-0.5 129,-0.5"/>
<text text-anchor="middle" x="152" y="-7.5" font-family="Helvetica,sans-Serif" font-size="10.00">stdio.h</text>
</g>
<!-- Node9&#45;&gt;Node11 -->
<g id="edge10" class="edge"><title>Node9&#45;&gt;Node11</title>
<path fill="none" stroke="midnightblue" d="M449.99,-57.5502C446.611,-57.0168 443.252,-56.4947 440,-56 329.626,-39.2109 298.21,-43.3483 185.404,-20.0598"/>
<polygon fill="midnightblue" stroke="midnightblue" points="185.834,-16.5741 175.329,-17.9524 184.4,-23.4258 185.834,-16.5741"/>
</g>
<!-- Node12 -->
<g id="node12" class="node"><title>Node12</title>
<polygon fill="white" stroke="#bfbfbf" points="193,-0.5 193,-19.5 241,-19.5 241,-0.5 193,-0.5"/>
<text text-anchor="middle" x="217" y="-7.5" font-family="Helvetica,sans-Serif" font-size="10.00">stdlib.h</text>
</g>
<!-- Node9&#45;&gt;Node12 -->
<g id="edge11" class="edge"><title>Node9&#45;&gt;Node12</title>
<path fill="none" stroke="midnightblue" d="M449.813,-57.1727C393.843,-47.4013 300.703,-30.8732 251.007,-20.0432"/>
<polygon fill="midnightblue" stroke="midnightblue" points="251.614,-16.5926 241.091,-17.8232 250.085,-23.4235 251.614,-16.5926"/>
</g>
<!-- Node13 -->
<g id="node13" class="node"><title>Node13</title>
<polygon fill="white" stroke="#bfbfbf" points="259,-0.5 259,-19.5 303,-19.5 303,-0.5 259,-0.5"/>
<text text-anchor="middle" x="281" y="-7.5" font-family="Helvetica,sans-Serif" font-size="10.00">time.h</text>
</g>
<!-- Node9&#45;&gt;Node13 -->
<g id="edge12" class="edge"><title>Node9&#45;&gt;Node13</title>
<path fill="none" stroke="midnightblue" d="M458.429,-56.4783C423.432,-48.2188 368.934,-35.0862 313.033,-20.2003"/>
<polygon fill="midnightblue" stroke="midnightblue" points="313.885,-16.8053 303.32,-17.5998 312.075,-23.5672 313.885,-16.8053"/>
</g>
<!-- Node14 -->
<g id="node14" class="node"><title>Node14</title>
<polygon fill="white" stroke="#bfbfbf" points="321,-0.5 321,-19.5 373,-19.5 373,-0.5 321,-0.5"/>
<text text-anchor="middle" x="347" y="-7.5" font-family="Helvetica,sans-Serif" font-size="10.00">memory</text>
</g>
<!-- Node9&#45;&gt;Node14 -->
<g id="edge14" class="edge"><title>Node9&#45;&gt;Node14</title>
<path fill="none" stroke="midnightblue" d="M471.549,-56.4435C446.867,-47.4381 407.815,-33.1891 380.023,-23.049"/>
<polygon fill="midnightblue" stroke="midnightblue" points="380.935,-19.6561 370.341,-19.5164 378.536,-26.2321 380.935,-19.6561"/>
</g>
<!-- Node15 -->
<g id="node15" class="node"><title>Node15</title>
<polygon fill="white" stroke="#bfbfbf" points="391.5,-0.5 391.5,-19.5 442.5,-19.5 442.5,-0.5 391.5,-0.5"/>
<text text-anchor="middle" x="417" y="-7.5" font-family="Helvetica,sans-Serif" font-size="10.00">typeinfo</text>
</g>
<!-- Node9&#45;&gt;Node15 -->
<g id="edge15" class="edge"><title>Node9&#45;&gt;Node15</title>
<path fill="none" stroke="midnightblue" d="M482.468,-56.324C470.414,-47.979 451.973,-35.2122 437.731,-25.3524"/>
<polygon fill="midnightblue" stroke="midnightblue" points="439.715,-22.469 429.501,-19.6545 435.731,-28.2243 439.715,-22.469"/>
</g>
<!-- Node16 -->
<g id="node16" class="node"><title>Node16</title>
<polygon fill="white" stroke="#bfbfbf" points="460.5,-0.5 460.5,-19.5 529.5,-19.5 529.5,-0.5 460.5,-0.5"/>
<text text-anchor="middle" x="495" y="-7.5" font-family="Helvetica,sans-Serif" font-size="10.00">xmlParser.h</text>
</g>
<!-- Node9&#45;&gt;Node16 -->
<g id="edge16" class="edge"><title>Node9&#45;&gt;Node16</title>
<path fill="none" stroke="midnightblue" d="M495,-56.083C495,-49.0059 495,-38.8611 495,-29.9865"/>
<polygon fill="midnightblue" stroke="midnightblue" points="498.5,-29.751 495,-19.7511 491.5,-29.7511 498.5,-29.751"/>
</g>
<!-- Node17 -->
<g id="node17" class="node"><title>Node17</title>
<polygon fill="white" stroke="#bfbfbf" points="548,-0.5 548,-19.5 610,-19.5 610,-0.5 548,-0.5"/>
<text text-anchor="middle" x="579" y="-7.5" font-family="Helvetica,sans-Serif" font-size="10.00">common.h</text>
</g>
<!-- Node9&#45;&gt;Node17 -->
<g id="edge17" class="edge"><title>Node9&#45;&gt;Node17</title>
<path fill="none" stroke="midnightblue" d="M508.496,-56.324C521.6,-47.9002 541.712,-34.9709 557.107,-25.0741"/>
<polygon fill="midnightblue" stroke="midnightblue" points="559.018,-28.0063 565.537,-19.6545 555.233,-22.118 559.018,-28.0063"/>
</g>
<!-- Node18 -->
<g id="node18" class="node"><title>Node18</title>
<polygon fill="white" stroke="#bfbfbf" points="628.5,-0.5 628.5,-19.5 679.5,-19.5 679.5,-0.5 628.5,-0.5"/>
<text text-anchor="middle" x="654" y="-7.5" font-family="Helvetica,sans-Serif" font-size="10.00">TH1D.h</text>
</g>
<!-- Node9&#45;&gt;Node18 -->
<g id="edge18" class="edge"><title>Node9&#45;&gt;Node18</title>
<path fill="none" stroke="midnightblue" d="M520.194,-56.4435C546.943,-47.3591 589.403,-32.9388 619.305,-22.7831"/>
<polygon fill="midnightblue" stroke="midnightblue" points="620.581,-26.0464 628.924,-19.5164 618.329,-19.4182 620.581,-26.0464"/>
</g>
<!-- Node19 -->
<g id="node19" class="node"><title>Node19</title>
<polygon fill="white" stroke="#bfbfbf" points="697.5,-0.5 697.5,-19.5 776.5,-19.5 776.5,-0.5 697.5,-0.5"/>
<text text-anchor="middle" x="737" y="-7.5" font-family="Helvetica,sans-Serif" font-size="10.00">TApplication.h</text>
</g>
<!-- Node9&#45;&gt;Node19 -->
<g id="edge19" class="edge"><title>Node9&#45;&gt;Node19</title>
<path fill="none" stroke="midnightblue" d="M533.346,-56.4435C575.473,-47.0431 643.206,-31.9291 688.872,-21.7393"/>
<polygon fill="midnightblue" stroke="midnightblue" points="689.836,-25.1103 698.834,-19.5164 688.312,-18.2784 689.836,-25.1103"/>
</g>
<!-- Node20 -->
<g id="node20" class="node"><title>Node20</title>
<polygon fill="white" stroke="#bfbfbf" points="794.5,-0.5 794.5,-19.5 859.5,-19.5 859.5,-0.5 794.5,-0.5"/>
<text text-anchor="middle" x="827" y="-7.5" font-family="Helvetica,sans-Serif" font-size="10.00">TCanvas.h</text>
</g>
<!-- Node9&#45;&gt;Node20 -->
<g id="edge20" class="edge"><title>Node9&#45;&gt;Node20</title>
<path fill="none" stroke="midnightblue" d="M540.074,-57.4401C543.094,-56.9482 546.09,-56.4643 549,-56 650.604,-39.7843 678.938,-39.1488 784.374,-20.0163"/>
<polygon fill="midnightblue" stroke="midnightblue" points="785.271,-23.4104 794.479,-18.1693 784.013,-16.5245 785.271,-23.4104"/>
</g>
<!-- Node21 -->
<g id="node21" class="node"><title>Node21</title>
<polygon fill="white" stroke="#bfbfbf" points="877.5,-0.5 877.5,-19.5 930.5,-19.5 930.5,-0.5 877.5,-0.5"/>
<text text-anchor="middle" x="904" y="-7.5" font-family="Helvetica,sans-Serif" font-size="10.00">TStyle.h</text>
</g>
<!-- Node9&#45;&gt;Node21 -->
<g id="edge21" class="edge"><title>Node9&#45;&gt;Node21</title>
<path fill="none" stroke="midnightblue" d="M540.054,-57.3084C543.079,-56.8483 546.082,-56.4075 549,-56 687.132,-36.7084 725.866,-44.964 867.426,-19.8647"/>
<polygon fill="midnightblue" stroke="midnightblue" points="868.126,-23.295 877.349,-18.081 866.888,-16.4054 868.126,-23.295"/>
</g>
<!-- Node22 -->
<g id="node22" class="node"><title>Node22</title>
<polygon fill="white" stroke="#bfbfbf" points="948.5,-0.5 948.5,-19.5 995.5,-19.5 995.5,-0.5 948.5,-0.5"/>
<text text-anchor="middle" x="972" y="-7.5" font-family="Helvetica,sans-Serif" font-size="10.00">TFile.h</text>
</g>
<!-- Node9&#45;&gt;Node22 -->
<g id="edge22" class="edge"><title>Node9&#45;&gt;Node22</title>
<path fill="none" stroke="midnightblue" d="M540.045,-57.2396C543.072,-56.7962 546.078,-56.3778 549,-56 718.43,-34.0908 765.962,-50.3882 938.404,-19.7757"/>
<polygon fill="midnightblue" stroke="midnightblue" points="939.099,-23.2069 948.32,-17.9886 937.858,-16.3179 939.099,-23.2069"/>
</g>
<!-- Node23 -->
<g id="node23" class="node"><title>Node23</title>
<polygon fill="white" stroke="#bfbfbf" points="1013.5,-0.5 1013.5,-19.5 1068.5,-19.5 1068.5,-0.5 1013.5,-0.5"/>
<text text-anchor="middle" x="1041" y="-7.5" font-family="Helvetica,sans-Serif" font-size="10.00">TLatex.h</text>
</g>
<!-- Node9&#45;&gt;Node23 -->
<g id="edge23" class="edge"><title>Node9&#45;&gt;Node23</title>
<path fill="none" stroke="midnightblue" d="M540.039,-57.1953C543.068,-56.7625 546.076,-56.3587 549,-56 747.101,-31.7005 801.94,-51.417 1003.21,-19.8544"/>
<polygon fill="midnightblue" stroke="midnightblue" points="1003.89,-23.29 1013.22,-18.262 1002.79,-16.3769 1003.89,-23.29"/>
</g>
<!-- Node24 -->
<g id="node24" class="node"><title>Node24</title>
<polygon fill="white" stroke="#bfbfbf" points="1087,-0.5 1087,-19.5 1145,-19.5 1145,-0.5 1087,-0.5"/>
<text text-anchor="middle" x="1116" y="-7.5" font-family="Helvetica,sans-Serif" font-size="10.00">TImage.h</text>
</g>
<!-- Node9&#45;&gt;Node24 -->
<g id="edge24" class="edge"><title>Node9&#45;&gt;Node24</title>
<path fill="none" stroke="midnightblue" d="M540.035,-57.1584C543.064,-56.7346 546.074,-56.3428 549,-56 779.306,-29.021 842.558,-53.8301 1076.52,-19.7884"/>
<polygon fill="midnightblue" stroke="midnightblue" points="1077.33,-23.2073 1086.71,-18.2847 1076.3,-16.2824 1077.33,-23.2073"/>
</g>
</g>
</svg>
        <g id="navigator" transform="translate(0 0)" fill="#404254">
                <rect fill="#f2f5e9" fill-opacity="0.5" stroke="#606060" stroke-width=".5" x="0" y="0" width="60" height="60"/>
                <use id="zoomplus" xlink:href="#zoomPlus" x="17" y="9" onmousedown="handleZoom(evt,'in')"/>
                <use id="zoomminus" xlink:href="#zoomMin" x="42" y="9" onmousedown="handleZoom(evt,'out')"/>
                <use id="reset" xlink:href="#resetDef" x="30" y="36" onmousedown="handleReset()"/>
                <g id="arrowUp" xlink:href="#dirArrow" transform="translate(30 24)" onmousedown="handlePan(0,-1)">
                  <use xlink:href="#rim" fill="#404040">
                        <set attributeName="fill" to="#808080" begin="arrowUp.mouseover" end="arrowUp.mouseout"/>
                  </use>
                  <path fill="none" stroke="white" stroke-width="1.5" d="M0,-3.0v7 M-2.5,-0.5L0,-3.0L2.5,-0.5"/>
                </g>
                <g id="arrowRight" xlink:href="#dirArrow" transform="rotate(90) translate(36 -43)" onmousedown="handlePan(1,0)">
                  <use xlink:href="#rim" fill="#404040">
                        <set attributeName="fill" to="#808080" begin="arrowRight.mouseover" end="arrowRight.mouseout"/>
                  </use>
                  <path fill="none" stroke="white" stroke-width="1.5" d="M0,-3.0v7 M-2.5,-0.5L0,-3.0L2.5,-0.5"/>
                </g>
                <g id="arrowDown" xlink:href="#dirArrow" transform="rotate(180) translate(-30 -48)" onmousedown="handlePan(0,1)">
                  <use xlink:href="#rim" fill="#404040">
                        <set attributeName="fill" to="#808080" begin="arrowDown.mouseover" end="arrowDown.mouseout"/>
                  </use>
                  <path fill="none" stroke="white" stroke-width="1.5" d="M0,-3.0v7 M-2.5,-0.5L0,-3.0L2.5,-0.5"/>
                </g>
                <g id="arrowLeft" xlink:href="#dirArrow" transform="rotate(270) translate(-36 17)" onmousedown="handlePan(-1,0)">
                  <use xlink:href="#rim" fill="#404040">
                        <set attributeName="fill" to="#808080" begin="arrowLeft.mouseover" end="arrowLeft.mouseout"/>
                  </use>
                  <path fill="none" stroke="white" stroke-width="1.5" d="M0,-3.0v7 M-2.5,-0.5L0,-3.0L2.5,-0.5"/>
                </g>
        </g>
        <svg viewBox="0 0 15 15" width="100%" height="30px" preserveAspectRatio="xMaxYMin meet">
         <g id="arrow_out" transform="scale(0.3 0.3)">
          <a xlink:href="_scope_manager_8cpp__incl_org.svg" target="_base">
           <rect id="button" ry="5" rx="5" y="6" x="6" height="38" width="38"
                fill="#f2f5e9" fill-opacity="0.5" stroke="#606060" stroke-width="1.0"/>
           <path id="arrow"
             d="M 11.500037,31.436501 C 11.940474,20.09759 22.043105,11.32322 32.158766,21.979434 L 37.068811,17.246167 C 37.068811,17.246167 37.088388,32 37.088388,32 L 22.160133,31.978069 C 22.160133,31.978069 26.997745,27.140456 26.997745,27.140456 C 18.528582,18.264221 13.291696,25.230495 11.500037,31.436501 z"
             style="fill:#404040;"/>
          </a>
         </g>
        </svg>
</svg>
