<?xml version="1.0" encoding="UTF-8" standalone="no"?>
<!DOCTYPE svg PUBLIC "-//W3C//DTD SVG 1.1//EN"
 "http://www.w3.org/Graphics/SVG/1.1/DTD/svg11.dtd">
<!-- Generated by graphviz version 2.36.0 (20140111.2315)
 -->
<!-- Title: /data/Software/DAQ/CDAQ/Core/Include/ScopeManager.h Pages: 1 -->
<svg width="1153pt" height="96pt"
 viewBox="0.00 0.00 1153.00 96.00" xmlns="http://www.w3.org/2000/svg" xmlns:xlink="http://www.w3.org/1999/xlink">
<g id="graph0" class="graph" transform="scale(1 1) rotate(0) translate(4 92)">
<title>/data/Software/DAQ/CDAQ/Core/Include/ScopeManager.h</title>
<polygon fill="white" stroke="none" points="-4,4 -4,-92 1149,-92 1149,4 -4,4"/>
<!-- Node1 -->
<g id="node1" class="node"><title>Node1</title>
<polygon fill="#bfbfbf" stroke="black" points="445,-57 445,-87 629,-87 629,-57 445,-57"/>
<text text-anchor="start" x="453" y="-75" font-family="Helvetica,sans-Serif" font-size="10.00">/data/Software/DAQ</text>
<text text-anchor="middle" x="537" y="-64" font-family="Helvetica,sans-Serif" font-size="10.00">/CDAQ/Core/Include/ScopeManager.h</text>
</g>
<!-- Node2 -->
<g id="node2" class="node"><title>Node2</title>
<polygon fill="white" stroke="#bfbfbf" points="-0.5,-0.5 -0.5,-19.5 48.5,-19.5 48.5,-0.5 -0.5,-0.5"/>
<text text-anchor="middle" x="24" y="-7.5" font-family="Helvetica,sans-Serif" font-size="10.00">string.h</text>
</g>
<!-- Node1&#45;&gt;Node2 -->
<g id="edge1" class="edge"><title>Node1&#45;&gt;Node2</title>
<path fill="none" stroke="midnightblue" d="M444.571,-65.3624C349.93,-58.6337 198.532,-45.2251 58.8214,-19.8742"/>
<polygon fill="midnightblue" stroke="midnightblue" points="59.2515,-16.3947 48.7833,-18.0282 57.9853,-23.2793 59.2515,-16.3947"/>
</g>
<!-- Node3 -->
<g id="node3" class="node"><title>Node3</title>
<polygon fill="white" stroke="#bfbfbf" points="67,-0.5 67,-19.5 113,-19.5 113,-0.5 67,-0.5"/>
<text text-anchor="middle" x="90" y="-7.5" font-family="Helvetica,sans-Serif" font-size="10.00">stdio.h</text>
</g>
<!-- Node1&#45;&gt;Node3 -->
<g id="edge2" class="edge"><title>Node1&#45;&gt;Node3</title>
<path fill="none" stroke="midnightblue" d="M444.873,-63.7215C362.742,-56.3054 239.193,-42.8739 123.421,-20.0225"/>
<polygon fill="midnightblue" stroke="midnightblue" points="123.812,-16.5313 113.319,-18.0003 122.438,-23.3951 123.812,-16.5313"/>
</g>
<!-- Node4 -->
<g id="node4" class="node"><title>Node4</title>
<polygon fill="white" stroke="#bfbfbf" points="131,-0.5 131,-19.5 179,-19.5 179,-0.5 131,-0.5"/>
<text text-anchor="middle" x="155" y="-7.5" font-family="Helvetica,sans-Serif" font-size="10.00">stdlib.h</text>
</g>
<!-- Node1&#45;&gt;Node4 -->
<g id="edge3" class="edge"><title>Node1&#45;&gt;Node4</title>
<path fill="none" stroke="midnightblue" d="M444.982,-60.6424C376.716,-52.2397 281.258,-38.984 188.865,-19.9669"/>
<polygon fill="midnightblue" stroke="midnightblue" points="189.573,-16.5391 179.069,-17.9262 188.145,-23.392 189.573,-16.5391"/>
</g>
<!-- Node5 -->
<g id="node5" class="node"><title>Node5</title>
<polygon fill="white" stroke="#bfbfbf" points="197,-0.5 197,-19.5 241,-19.5 241,-0.5 197,-0.5"/>
<text text-anchor="middle" x="219" y="-7.5" font-family="Helvetica,sans-Serif" font-size="10.00">time.h</text>
</g>
<!-- Node1&#45;&gt;Node5 -->
<g id="edge4" class="edge"><title>Node1&#45;&gt;Node5</title>
<path fill="none" stroke="midnightblue" d="M444.722,-57.1701C390.74,-48.4735 321.143,-36.223 251.153,-20.0793"/>
<polygon fill="midnightblue" stroke="midnightblue" points="251.81,-16.6386 241.276,-17.7755 250.22,-23.4556 251.81,-16.6386"/>
</g>
<!-- Node6 -->
<g id="node6" class="node"><title>Node6</title>
<polygon fill="white" stroke="#bfbfbf" points="259,-0.5 259,-19.5 303,-19.5 303,-0.5 259,-0.5"/>
<text text-anchor="middle" x="281" y="-7.5" font-family="Helvetica,sans-Serif" font-size="10.00">vector</text>
</g>
<!-- Node1&#45;&gt;Node6 -->
<g id="edge5" class="edge"><title>Node1&#45;&gt;Node6</title>
<path fill="none" stroke="midnightblue" d="M470.294,-56.9728C427.758,-47.7746 371.269,-35.0934 313.045,-20.1629"/>
<polygon fill="midnightblue" stroke="midnightblue" points="313.865,-16.7598 303.307,-17.6487 312.115,-23.5376 313.865,-16.7598"/>
</g>
<!-- Node7 -->
<g id="node7" class="node"><title>Node7</title>
<polygon fill="white" stroke="#bfbfbf" points="321,-0.5 321,-19.5 373,-19.5 373,-0.5 321,-0.5"/>
<text text-anchor="middle" x="347" y="-7.5" font-family="Helvetica,sans-Serif" font-size="10.00">memory</text>
</g>
<!-- Node1&#45;&gt;Node7 -->
<g id="edge6" class="edge"><title>Node1&#45;&gt;Node7</title>
<path fill="none" stroke="midnightblue" d="M492.453,-56.9327C459.001,-46.3686 413.789,-32.0914 382.699,-22.2734"/>
<polygon fill="midnightblue" stroke="midnightblue" points="383.723,-18.9266 373.134,-19.2527 381.616,-25.6017 383.723,-18.9266"/>
</g>
<!-- Node8 -->
<g id="node8" class="node"><title>Node8</title>
<polygon fill="white" stroke="#bfbfbf" points="391.5,-0.5 391.5,-19.5 442.5,-19.5 442.5,-0.5 391.5,-0.5"/>
<text text-anchor="middle" x="417" y="-7.5" font-family="Helvetica,sans-Serif" font-size="10.00">typeinfo</text>
</g>
<!-- Node1&#45;&gt;Node8 -->
<g id="edge7" class="edge"><title>Node1&#45;&gt;Node8</title>
<path fill="none" stroke="midnightblue" d="M508.865,-56.9327C489.072,-47.0359 462.761,-33.8803 443.37,-24.1852"/>
<polygon fill="midnightblue" stroke="midnightblue" points="444.71,-20.9417 434.2,-19.6 441.579,-27.2027 444.71,-20.9417"/>
</g>
<!-- Node9 -->
<g id="node9" class="node"><title>Node9</title>
<polygon fill="white" stroke="#bfbfbf" points="460.5,-0.5 460.5,-19.5 529.5,-19.5 529.5,-0.5 460.5,-0.5"/>
<text text-anchor="middle" x="495" y="-7.5" font-family="Helvetica,sans-Serif" font-size="10.00">xmlParser.h</text>
</g>
<!-- Node1&#45;&gt;Node9 -->
<g id="edge8" class="edge"><title>Node1&#45;&gt;Node9</title>
<path fill="none" stroke="midnightblue" d="M527.047,-56.7808C521.006,-48.152 513.262,-37.0882 506.899,-27.9987"/>
<polygon fill="midnightblue" stroke="midnightblue" points="509.713,-25.9157 501.111,-19.7305 503.979,-29.93 509.713,-25.9157"/>
</g>
<!-- Node10 -->
<g id="node10" class="node"><title>Node10</title>
<polygon fill="white" stroke="#bfbfbf" points="548,-0.5 548,-19.5 610,-19.5 610,-0.5 548,-0.5"/>
<text text-anchor="middle" x="579" y="-7.5" font-family="Helvetica,sans-Serif" font-size="10.00">common.h</text>
</g>
<!-- Node1&#45;&gt;Node10 -->
<g id="edge9" class="edge"><title>Node1&#45;&gt;Node10</title>
<path fill="none" stroke="midnightblue" d="M546.953,-56.7808C552.994,-48.152 560.738,-37.0882 567.101,-27.9987"/>
<polygon fill="midnightblue" stroke="midnightblue" points="570.021,-29.93 572.889,-19.7305 564.287,-25.9157 570.021,-29.93"/>
</g>
<!-- Node11 -->
<g id="node11" class="node"><title>Node11</title>
<polygon fill="white" stroke="#bfbfbf" points="628.5,-0.5 628.5,-19.5 679.5,-19.5 679.5,-0.5 628.5,-0.5"/>
<text text-anchor="middle" x="654" y="-7.5" font-family="Helvetica,sans-Serif" font-size="10.00">TH1D.h</text>
</g>
<!-- Node1&#45;&gt;Node11 -->
<g id="edge10" class="edge"><title>Node1&#45;&gt;Node11</title>
<path fill="none" stroke="midnightblue" d="M564.431,-56.9327C583.73,-47.0359 609.383,-33.8803 628.289,-24.1852"/>
<polygon fill="midnightblue" stroke="midnightblue" points="629.929,-27.2776 637.23,-19.6 626.735,-21.0489 629.929,-27.2776"/>
</g>
<!-- Node12 -->
<g id="node12" class="node"><title>Node12</title>
<polygon fill="white" stroke="#bfbfbf" points="697.5,-0.5 697.5,-19.5 776.5,-19.5 776.5,-0.5 697.5,-0.5"/>
<text text-anchor="middle" x="737" y="-7.5" font-family="Helvetica,sans-Serif" font-size="10.00">TApplication.h</text>
</g>
<!-- Node1&#45;&gt;Node12 -->
<g id="edge11" class="edge"><title>Node1&#45;&gt;Node12</title>
<path fill="none" stroke="midnightblue" d="M583.891,-56.9327C618.943,-46.4171 666.259,-32.2222 698.971,-22.4087"/>
<polygon fill="midnightblue" stroke="midnightblue" points="700.052,-25.7386 708.624,-19.5127 698.04,-19.0338 700.052,-25.7386"/>
</g>
<!-- Node13 -->
<g id="node13" class="node"><title>Node13</title>
<polygon fill="white" stroke="#bfbfbf" points="794.5,-0.5 794.5,-19.5 859.5,-19.5 859.5,-0.5 794.5,-0.5"/>
<text text-anchor="middle" x="827" y="-7.5" font-family="Helvetica,sans-Serif" font-size="10.00">TCanvas.h</text>
</g>
<!-- Node1&#45;&gt;Node13 -->
<g id="edge12" class="edge"><title>Node1&#45;&gt;Node13</title>
<path fill="none" stroke="midnightblue" d="M605.984,-56.973C653.427,-47.2891 718.151,-34.0056 784.627,-20.0648"/>
<polygon fill="midnightblue" stroke="midnightblue" points="785.379,-23.4835 794.446,-18.0036 783.941,-16.6328 785.379,-23.4835"/>
</g>
<!-- Node14 -->
<g id="node14" class="node"><title>Node14</title>
<polygon fill="white" stroke="#bfbfbf" points="877.5,-0.5 877.5,-19.5 930.5,-19.5 930.5,-0.5 877.5,-0.5"/>
<text text-anchor="middle" x="904" y="-7.5" font-family="Helvetica,sans-Serif" font-size="10.00">TStyle.h</text>
</g>
<!-- Node1&#45;&gt;Node14 -->
<g id="edge13" class="edge"><title>Node1&#45;&gt;Node14</title>
<path fill="none" stroke="midnightblue" d="M629.076,-59.1307C693.239,-50.3177 780.979,-37.1907 867.347,-19.9686"/>
<polygon fill="midnightblue" stroke="midnightblue" points="868.214,-23.3645 877.326,-17.9592 866.832,-16.5023 868.214,-23.3645"/>
</g>
<!-- Node15 -->
<g id="node15" class="node"><title>Node15</title>
<polygon fill="white" stroke="#bfbfbf" points="948.5,-0.5 948.5,-19.5 995.5,-19.5 995.5,-0.5 948.5,-0.5"/>
<text text-anchor="middle" x="972" y="-7.5" font-family="Helvetica,sans-Serif" font-size="10.00">TFile.h</text>
</g>
<!-- Node1&#45;&gt;Node15 -->
<g id="edge14" class="edge"><title>Node1&#45;&gt;Node15</title>
<path fill="none" stroke="midnightblue" d="M629.396,-62.9889C708.861,-55.245 826.63,-41.7375 938.216,-19.8908"/>
<polygon fill="midnightblue" stroke="midnightblue" points="939.174,-23.2692 948.301,-17.8899 937.811,-16.403 939.174,-23.2692"/>
</g>
<!-- Node16 -->
<g id="node16" class="node"><title>Node16</title>
<polygon fill="white" stroke="#bfbfbf" points="1013.5,-0.5 1013.5,-19.5 1068.5,-19.5 1068.5,-0.5 1013.5,-0.5"/>
<text text-anchor="middle" x="1041" y="-7.5" font-family="Helvetica,sans-Serif" font-size="10.00">TLatex.h</text>
</g>
<!-- Node1&#45;&gt;Node16 -->
<g id="edge15" class="edge"><title>Node1&#45;&gt;Node16</title>
<path fill="none" stroke="midnightblue" d="M629.211,-64.483C721.463,-57.153 867.523,-43.3525 1003.05,-19.947"/>
<polygon fill="midnightblue" stroke="midnightblue" points="1003.95,-23.3418 1013.2,-18.1717 1002.75,-16.4464 1003.95,-23.3418"/>
</g>
<!-- Node17 -->
<g id="node17" class="node"><title>Node17</title>
<polygon fill="white" stroke="#bfbfbf" points="1087,-0.5 1087,-19.5 1145,-19.5 1145,-0.5 1087,-0.5"/>
<text text-anchor="middle" x="1116" y="-7.5" font-family="Helvetica,sans-Serif" font-size="10.00">TImage.h</text>
</g>
<!-- Node1&#45;&gt;Node17 -->
<g id="edge16" class="edge"><title>Node1&#45;&gt;Node17</title>
<path fill="none" stroke="midnightblue" d="M629.197,-66.0254C734.864,-59.4806 913.327,-45.8533 1076.47,-19.8511"/>
<polygon fill="midnightblue" stroke="midnightblue" points="1077.38,-23.2494 1086.69,-18.2016 1076.27,-16.3388 1077.38,-23.2494"/>
</g>
</g>
</svg>
