<?xml version="1.0" encoding="UTF-8" standalone="no"?>
<!DOCTYPE svg PUBLIC "-//W3C//DTD SVG 1.1//EN"
 "http://www.w3.org/Graphics/SVG/1.1/DTD/svg11.dtd">
<!-- Generated by graphviz version 2.36.0 (20140111.2315)
 -->
<!-- Title: /data/Software/DAQ/CDAQ/Core/Source/SlowcontrolManager.cpp Pages: 1 -->
<svg width="1149pt" height="162pt"
 viewBox="0.00 0.00 1149.00 162.00" xmlns="http://www.w3.org/2000/svg" xmlns:xlink="http://www.w3.org/1999/xlink">
<g id="graph0" class="graph" transform="scale(1 1) rotate(0) translate(4 158)">
<title>/data/Software/DAQ/CDAQ/Core/Source/SlowcontrolManager.cpp</title>
<polygon fill="white" stroke="none" points="-4,4 -4,-158 1145,-158 1145,4 -4,4"/>
<!-- Node1 -->
<g id="node1" class="node"><title>Node1</title>
<polygon fill="#bfbfbf" stroke="black" points="189.5,-112.5 189.5,-153.5 350.5,-153.5 350.5,-112.5 189.5,-112.5"/>
<text text-anchor="start" x="197.5" y="-141.5" font-family="Helvetica,sans-Serif" font-size="10.00">/data/Software/DAQ</text>
<text text-anchor="start" x="197.5" y="-130.5" font-family="Helvetica,sans-Serif" font-size="10.00">/CDAQ/Core/Source/Slowcontrol</text>
<text text-anchor="middle" x="270" y="-119.5" font-family="Helvetica,sans-Serif" font-size="10.00">Manager.cpp</text>
</g>
<!-- Node2 -->
<g id="node2" class="node"><title>Node2</title>
<polygon fill="white" stroke="#bfbfbf" points="0,-56.5 0,-75.5 50,-75.5 50,-56.5 0,-56.5"/>
<text text-anchor="middle" x="25" y="-63.5" font-family="Helvetica,sans-Serif" font-size="10.00">fstream</text>
</g>
<!-- Node1&#45;&gt;Node2 -->
<g id="edge1" class="edge"><title>Node1&#45;&gt;Node2</title>
<path fill="none" stroke="midnightblue" d="M196.492,-112.498C151.335,-100.517 95.5444,-85.7158 60.1084,-76.3145"/>
<polygon fill="midnightblue" stroke="midnightblue" points="60.8025,-72.8776 50.2393,-73.6961 59.0074,-79.6435 60.8025,-72.8776"/>
</g>
<!-- Node3 -->
<g id="node3" class="node"><title>Node3</title>
<polygon fill="white" stroke="#bfbfbf" points="68,-56.5 68,-75.5 120,-75.5 120,-56.5 68,-56.5"/>
<text text-anchor="middle" x="94" y="-63.5" font-family="Helvetica,sans-Serif" font-size="10.00">sstream</text>
</g>
<!-- Node1&#45;&gt;Node3 -->
<g id="edge2" class="edge"><title>Node1&#45;&gt;Node3</title>
<path fill="none" stroke="midnightblue" d="M217.194,-112.498C187.875,-101.67 152.315,-88.5369 126.951,-79.1696"/>
<polygon fill="midnightblue" stroke="midnightblue" points="128.022,-75.8338 117.428,-75.6525 125.596,-82.4003 128.022,-75.8338"/>
</g>
<!-- Node4 -->
<g id="node4" class="node"><title>Node4</title>
<polygon fill="white" stroke="#bfbfbf" points="11,-0.5 11,-19.5 55,-19.5 55,-0.5 11,-0.5"/>
<text text-anchor="middle" x="33" y="-7.5" font-family="Helvetica,sans-Serif" font-size="10.00">vector</text>
</g>
<!-- Node1&#45;&gt;Node4 -->
<g id="edge3" class="edge"><title>Node1&#45;&gt;Node4</title>
<path fill="none" stroke="midnightblue" d="M234.941,-112.395C206.585,-96.7112 165.514,-74.3803 129,-56 106.496,-44.6719 80.6128,-32.5932 61.3972,-23.8049"/>
<polygon fill="midnightblue" stroke="midnightblue" points="62.8285,-20.6109 52.2771,-19.6518 59.9274,-26.9815 62.8285,-20.6109"/>
</g>
<!-- Node5 -->
<g id="node5" class="node"><title>Node5</title>
<polygon fill="white" stroke="#bfbfbf" points="176.5,-56.5 176.5,-75.5 223.5,-75.5 223.5,-56.5 176.5,-56.5"/>
<text text-anchor="middle" x="200" y="-63.5" font-family="Helvetica,sans-Serif" font-size="10.00">iterator</text>
</g>
<!-- Node1&#45;&gt;Node5 -->
<g id="edge4" class="edge"><title>Node1&#45;&gt;Node5</title>
<path fill="none" stroke="midnightblue" d="M248.998,-112.498C238.678,-102.915 226.415,-91.5281 216.738,-82.5428"/>
<polygon fill="midnightblue" stroke="midnightblue" points="219.028,-79.8922 209.318,-75.6525 214.264,-85.0218 219.028,-79.8922"/>
</g>
<!-- Node6 -->
<g id="node6" class="node"><title>Node6</title>
<polygon fill="white" stroke="#bfbfbf" points="242,-56.5 242,-75.5 298,-75.5 298,-56.5 242,-56.5"/>
<text text-anchor="middle" x="270" y="-63.5" font-family="Helvetica,sans-Serif" font-size="10.00">algorithm</text>
</g>
<!-- Node1&#45;&gt;Node6 -->
<g id="edge5" class="edge"><title>Node1&#45;&gt;Node6</title>
<path fill="none" stroke="midnightblue" d="M270,-112.498C270,-104.065 270,-94.2351 270,-85.874"/>
<polygon fill="midnightblue" stroke="midnightblue" points="273.5,-85.6525 270,-75.6525 266.5,-85.6525 273.5,-85.6525"/>
</g>
<!-- Node7 -->
<g id="node7" class="node"><title>Node7</title>
<polygon fill="white" stroke="#bfbfbf" points="316,-56.5 316,-75.5 370,-75.5 370,-56.5 316,-56.5"/>
<text text-anchor="middle" x="343" y="-63.5" font-family="Helvetica,sans-Serif" font-size="10.00">iostream</text>
</g>
<!-- Node1&#45;&gt;Node7 -->
<g id="edge6" class="edge"><title>Node1&#45;&gt;Node7</title>
<path fill="none" stroke="midnightblue" d="M291.902,-112.498C302.664,-102.915 315.453,-91.5281 325.544,-82.5428"/>
<polygon fill="midnightblue" stroke="midnightblue" points="328.142,-84.9165 333.283,-75.6525 323.487,-79.6885 328.142,-84.9165"/>
</g>
<!-- Node8 -->
<g id="node8" class="node"><title>Node8</title>
<polygon fill="white" stroke="#bfbfbf" points="388.5,-56.5 388.5,-75.5 429.5,-75.5 429.5,-56.5 388.5,-56.5"/>
<text text-anchor="middle" x="409" y="-63.5" font-family="Helvetica,sans-Serif" font-size="10.00">string</text>
</g>
<!-- Node1&#45;&gt;Node8 -->
<g id="edge7" class="edge"><title>Node1&#45;&gt;Node8</title>
<path fill="none" stroke="midnightblue" d="M311.705,-112.498C334.245,-101.957 361.456,-89.2326 381.364,-79.9235"/>
<polygon fill="midnightblue" stroke="midnightblue" points="382.921,-83.059 390.497,-75.6525 379.956,-76.7181 382.921,-83.059"/>
</g>
<!-- Node9 -->
<g id="node9" class="node"><title>Node9</title>
<g id="a_node9"><a xlink:href="_slowcontrol_manager_8h.xhtml" target="_top" xlink:title="SlowcontrolManager.h">
<polygon fill="white" stroke="black" points="447.5,-56.5 447.5,-75.5 560.5,-75.5 560.5,-56.5 447.5,-56.5"/>
<text text-anchor="middle" x="504" y="-63.5" font-family="Helvetica,sans-Serif" font-size="10.00">SlowcontrolManager.h</text>
</a>
</g>
</g>
<!-- Node1&#45;&gt;Node9 -->
<g id="edge8" class="edge"><title>Node1&#45;&gt;Node9</title>
<path fill="none" stroke="midnightblue" d="M340.208,-112.498C380.346,-101.348 429.281,-87.7553 463.156,-78.3457"/>
<polygon fill="midnightblue" stroke="midnightblue" points="464.46,-81.6159 473.159,-75.5671 462.587,-74.8713 464.46,-81.6159"/>
</g>
<!-- Node25 -->
<g id="node25" class="node"><title>Node25</title>
<polygon fill="white" stroke="#bfbfbf" points="579,-56.5 579,-75.5 629,-75.5 629,-56.5 579,-56.5"/>
<text text-anchor="middle" x="604" y="-63.5" font-family="Helvetica,sans-Serif" font-size="10.00">global.h</text>
</g>
<!-- Node1&#45;&gt;Node25 -->
<g id="edge25" class="edge"><title>Node1&#45;&gt;Node25</title>
<path fill="none" stroke="midnightblue" d="M350.563,-118.409C410.912,-107.866 495.402,-92.3358 569,-76 569.1,-75.9779 569.199,-75.9557 569.299,-75.9335"/>
<polygon fill="midnightblue" stroke="midnightblue" points="569.883,-79.3918 578.813,-73.6901 568.277,-72.5786 569.883,-79.3918"/>
</g>
<!-- Node9&#45;&gt;Node4 -->
<g id="edge13" class="edge"><title>Node9&#45;&gt;Node4</title>
<path fill="none" stroke="midnightblue" d="M447.493,-57.1458C444.283,-56.7459 441.101,-56.361 438,-56 275.8,-37.1209 230.46,-50.1362 65.2758,-19.6793"/>
<polygon fill="midnightblue" stroke="midnightblue" points="65.7326,-16.2041 55.2597,-17.8068 64.4462,-23.0849 65.7326,-16.2041"/>
</g>
<!-- Node10 -->
<g id="node10" class="node"><title>Node10</title>
<polygon fill="white" stroke="#bfbfbf" points="73.5,-0.5 73.5,-19.5 122.5,-19.5 122.5,-0.5 73.5,-0.5"/>
<text text-anchor="middle" x="98" y="-7.5" font-family="Helvetica,sans-Serif" font-size="10.00">string.h</text>
</g>
<!-- Node9&#45;&gt;Node10 -->
<g id="edge9" class="edge"><title>Node9&#45;&gt;Node10</title>
<path fill="none" stroke="midnightblue" d="M447.483,-57.2235C444.276,-56.8039 441.098,-56.3934 438,-56 305.337,-39.1525 268.252,-45.2776 132.72,-19.8799"/>
<polygon fill="midnightblue" stroke="midnightblue" points="133.266,-16.4212 122.789,-17.9961 131.962,-23.2985 133.266,-16.4212"/>
</g>
<!-- Node11 -->
<g id="node11" class="node"><title>Node11</title>
<polygon fill="white" stroke="#bfbfbf" points="141,-0.5 141,-19.5 187,-19.5 187,-0.5 141,-0.5"/>
<text text-anchor="middle" x="164" y="-7.5" font-family="Helvetica,sans-Serif" font-size="10.00">stdio.h</text>
</g>
<!-- Node9&#45;&gt;Node11 -->
<g id="edge10" class="edge"><title>Node9&#45;&gt;Node11</title>
<path fill="none" stroke="midnightblue" d="M447.361,-57.1288C371.759,-46.5655 242.861,-28.3405 197.258,-19.9062"/>
<polygon fill="midnightblue" stroke="midnightblue" points="197.822,-16.45 187.332,-17.9377 196.46,-23.3163 197.822,-16.45"/>
</g>
<!-- Node12 -->
<g id="node12" class="node"><title>Node12</title>
<polygon fill="white" stroke="#bfbfbf" points="205,-0.5 205,-19.5 253,-19.5 253,-0.5 205,-0.5"/>
<text text-anchor="middle" x="229" y="-7.5" font-family="Helvetica,sans-Serif" font-size="10.00">stdlib.h</text>
</g>
<!-- Node9&#45;&gt;Node12 -->
<g id="edge11" class="edge"><title>Node9&#45;&gt;Node12</title>
<path fill="none" stroke="midnightblue" d="M451.343,-56.4957C404.358,-48.617 333.495,-36.0241 263.03,-20.0877"/>
<polygon fill="midnightblue" stroke="midnightblue" points="263.621,-16.6326 253.093,-17.817 262.062,-23.4567 263.621,-16.6326"/>
</g>
<!-- Node13 -->
<g id="node13" class="node"><title>Node13</title>
<polygon fill="white" stroke="#bfbfbf" points="271,-0.5 271,-19.5 315,-19.5 315,-0.5 271,-0.5"/>
<text text-anchor="middle" x="293" y="-7.5" font-family="Helvetica,sans-Serif" font-size="10.00">time.h</text>
</g>
<!-- Node9&#45;&gt;Node13 -->
<g id="edge12" class="edge"><title>Node9&#45;&gt;Node13</title>
<path fill="none" stroke="midnightblue" d="M468.038,-56.4305C433.692,-48.153 380.243,-35.0304 325.243,-20.2659"/>
<polygon fill="midnightblue" stroke="midnightblue" points="325.889,-16.8153 315.323,-17.5894 324.066,-23.5736 325.889,-16.8153"/>
</g>
<!-- Node14 -->
<g id="node14" class="node"><title>Node14</title>
<polygon fill="white" stroke="#bfbfbf" points="333,-0.5 333,-19.5 385,-19.5 385,-0.5 333,-0.5"/>
<text text-anchor="middle" x="359" y="-7.5" font-family="Helvetica,sans-Serif" font-size="10.00">memory</text>
</g>
<!-- Node9&#45;&gt;Node14 -->
<g id="edge14" class="edge"><title>Node9&#45;&gt;Node14</title>
<path fill="none" stroke="midnightblue" d="M481.024,-56.4435C456.843,-47.4381 418.582,-33.1891 391.354,-23.049"/>
<polygon fill="midnightblue" stroke="midnightblue" points="392.461,-19.7265 381.868,-19.5164 390.018,-26.2864 392.461,-19.7265"/>
</g>
<!-- Node15 -->
<g id="node15" class="node"><title>Node15</title>
<polygon fill="white" stroke="#bfbfbf" points="403.5,-0.5 403.5,-19.5 454.5,-19.5 454.5,-0.5 403.5,-0.5"/>
<text text-anchor="middle" x="429" y="-7.5" font-family="Helvetica,sans-Serif" font-size="10.00">typeinfo</text>
</g>
<!-- Node9&#45;&gt;Node15 -->
<g id="edge15" class="edge"><title>Node9&#45;&gt;Node15</title>
<path fill="none" stroke="midnightblue" d="M491.95,-56.324C480.537,-48.1066 463.169,-35.6017 449.565,-25.8069"/>
<polygon fill="midnightblue" stroke="midnightblue" points="451.43,-22.8366 441.269,-19.8339 447.34,-28.5174 451.43,-22.8366"/>
</g>
<!-- Node16 -->
<g id="node16" class="node"><title>Node16</title>
<polygon fill="white" stroke="#bfbfbf" points="473,-0.5 473,-19.5 535,-19.5 535,-0.5 473,-0.5"/>
<text text-anchor="middle" x="504" y="-7.5" font-family="Helvetica,sans-Serif" font-size="10.00">common.h</text>
</g>
<!-- Node9&#45;&gt;Node16 -->
<g id="edge16" class="edge"><title>Node9&#45;&gt;Node16</title>
<path fill="none" stroke="midnightblue" d="M504,-56.083C504,-49.0059 504,-38.8611 504,-29.9865"/>
<polygon fill="midnightblue" stroke="midnightblue" points="507.5,-29.751 504,-19.7511 500.5,-29.7511 507.5,-29.751"/>
</g>
<!-- Node17 -->
<g id="node17" class="node"><title>Node17</title>
<polygon fill="white" stroke="#bfbfbf" points="553.5,-0.5 553.5,-19.5 622.5,-19.5 622.5,-0.5 553.5,-0.5"/>
<text text-anchor="middle" x="588" y="-7.5" font-family="Helvetica,sans-Serif" font-size="10.00">xmlParser.h</text>
</g>
<!-- Node9&#45;&gt;Node17 -->
<g id="edge17" class="edge"><title>Node9&#45;&gt;Node17</title>
<path fill="none" stroke="midnightblue" d="M517.496,-56.324C530.6,-47.9002 550.712,-34.9709 566.107,-25.0741"/>
<polygon fill="midnightblue" stroke="midnightblue" points="568.018,-28.0063 574.537,-19.6545 564.233,-22.118 568.018,-28.0063"/>
</g>
<!-- Node18 -->
<g id="node18" class="node"><title>Node18</title>
<polygon fill="white" stroke="#bfbfbf" points="641,-0.5 641,-19.5 703,-19.5 703,-0.5 641,-0.5"/>
<text text-anchor="middle" x="672" y="-7.5" font-family="Helvetica,sans-Serif" font-size="10.00">sys/time.h</text>
</g>
<!-- Node9&#45;&gt;Node18 -->
<g id="edge18" class="edge"><title>Node9&#45;&gt;Node18</title>
<path fill="none" stroke="midnightblue" d="M530.62,-56.4435C559.006,-47.3196 604.137,-32.8133 635.753,-22.6509"/>
<polygon fill="midnightblue" stroke="midnightblue" points="637.055,-25.9087 645.504,-19.5164 634.913,-19.2445 637.055,-25.9087"/>
</g>
<!-- Node19 -->
<g id="node19" class="node"><title>Node19</title>
<polygon fill="white" stroke="#bfbfbf" points="721.5,-0.5 721.5,-19.5 780.5,-19.5 780.5,-0.5 721.5,-0.5"/>
<text text-anchor="middle" x="751" y="-7.5" font-family="Helvetica,sans-Serif" font-size="10.00">TROOT.h</text>
</g>
<!-- Node9&#45;&gt;Node19 -->
<g id="edge19" class="edge"><title>Node9&#45;&gt;Node19</title>
<path fill="none" stroke="midnightblue" d="M543.702,-56.4586C585.386,-47.4698 652.828,-32.8673 711,-20 711.104,-19.9769 711.209,-19.9538 711.313,-19.9307"/>
<polygon fill="midnightblue" stroke="midnightblue" points="712.298,-23.2973 721.298,-17.708 710.777,-16.4645 712.298,-23.2973"/>
</g>
<!-- Node20 -->
<g id="node20" class="node"><title>Node20</title>
<polygon fill="white" stroke="#bfbfbf" points="798.5,-0.5 798.5,-19.5 863.5,-19.5 863.5,-0.5 798.5,-0.5"/>
<text text-anchor="middle" x="831" y="-7.5" font-family="Helvetica,sans-Serif" font-size="10.00">TSystem.h</text>
</g>
<!-- Node9&#45;&gt;Node20 -->
<g id="edge20" class="edge"><title>Node9&#45;&gt;Node20</title>
<path fill="none" stroke="midnightblue" d="M560.663,-56.9823C616.15,-48.9213 703.314,-35.7016 788.623,-19.981"/>
<polygon fill="midnightblue" stroke="midnightblue" points="789.282,-23.4184 798.476,-18.1524 788.005,-16.5359 789.282,-23.4184"/>
</g>
<!-- Node21 -->
<g id="node21" class="node"><title>Node21</title>
<polygon fill="white" stroke="#bfbfbf" points="882,-0.5 882,-19.5 932,-19.5 932,-0.5 882,-0.5"/>
<text text-anchor="middle" x="907" y="-7.5" font-family="Helvetica,sans-Serif" font-size="10.00">TTree.h</text>
</g>
<!-- Node9&#45;&gt;Node21 -->
<g id="edge21" class="edge"><title>Node9&#45;&gt;Node21</title>
<path fill="none" stroke="midnightblue" d="M560.517,-57.2292C563.725,-56.8081 566.903,-56.3957 570,-56 704.082,-38.8676 739.138,-44.8868 872,-20 872.1,-19.9812 872.201,-19.9623 872.301,-19.9433"/>
<polygon fill="midnightblue" stroke="midnightblue" points="872.812,-23.4135 881.855,-17.8926 871.343,-16.5694 872.812,-23.4135"/>
</g>
<!-- Node22 -->
<g id="node22" class="node"><title>Node22</title>
<polygon fill="white" stroke="#bfbfbf" points="950.5,-0.5 950.5,-19.5 1009.5,-19.5 1009.5,-0.5 950.5,-0.5"/>
<text text-anchor="middle" x="980" y="-7.5" font-family="Helvetica,sans-Serif" font-size="10.00">TNtuple.h</text>
</g>
<!-- Node9&#45;&gt;Node22 -->
<g id="edge22" class="edge"><title>Node9&#45;&gt;Node22</title>
<path fill="none" stroke="midnightblue" d="M560.507,-57.1477C563.717,-56.7474 566.899,-56.3618 570,-56 731.334,-37.1796 775.775,-46.3072 940.292,-19.9015"/>
<polygon fill="midnightblue" stroke="midnightblue" points="940.959,-23.3391 950.268,-18.2807 939.837,-16.4297 940.959,-23.3391"/>
</g>
<!-- Node23 -->
<g id="node23" class="node"><title>Node23</title>
<polygon fill="white" stroke="#bfbfbf" points="1027.5,-0.5 1027.5,-19.5 1074.5,-19.5 1074.5,-0.5 1027.5,-0.5"/>
<text text-anchor="middle" x="1051" y="-7.5" font-family="Helvetica,sans-Serif" font-size="10.00">TFile.h</text>
</g>
<!-- Node9&#45;&gt;Node23 -->
<g id="edge23" class="edge"><title>Node9&#45;&gt;Node23</title>
<path fill="none" stroke="midnightblue" d="M560.5,-57.0861C563.712,-56.7014 566.896,-56.3361 570,-56 765.295,-34.8541 819.448,-53.7778 1017.19,-19.79"/>
<polygon fill="midnightblue" stroke="midnightblue" points="1018.08,-23.188 1027.33,-18.0229 1016.87,-16.292 1018.08,-23.188"/>
</g>
<!-- Node24 -->
<g id="node24" class="node"><title>Node24</title>
<polygon fill="white" stroke="#bfbfbf" points="1092.5,-0.5 1092.5,-19.5 1141.5,-19.5 1141.5,-0.5 1092.5,-0.5"/>
<text text-anchor="middle" x="1117" y="-7.5" font-family="Helvetica,sans-Serif" font-size="10.00">TRint.h</text>
</g>
<!-- Node9&#45;&gt;Node24 -->
<g id="edge24" class="edge"><title>Node9&#45;&gt;Node24</title>
<path fill="none" stroke="midnightblue" d="M560.853,-57.0068C563.945,-56.6472 567.009,-56.3085 570,-56 794.135,-32.8788 855.784,-56.7155 1082.37,-19.7636"/>
<polygon fill="midnightblue" stroke="midnightblue" points="1082.94,-23.2168 1092.24,-18.1334 1081.8,-16.3105 1082.94,-23.2168"/>
</g>
</g>
</svg>
