<?xml version="1.0" encoding="UTF-8" standalone="no"?>
<!DOCTYPE svg PUBLIC "-//W3C//DTD SVG 1.1//EN"
 "http://www.w3.org/Graphics/SVG/1.1/DTD/svg11.dtd">
<!-- Generated by graphviz version 2.36.0 (20140111.2315)
 -->
<!-- Title: /data/Software/DAQ/CDAQ/Core/Include/SlowcontrolManager.h Pages: 1 -->
<svg width="539pt" height="128pt"
 viewBox="0.00 0.00 539.00 128.00" xmlns="http://www.w3.org/2000/svg" xmlns:xlink="http://www.w3.org/1999/xlink">
<g id="graph0" class="graph" transform="scale(1 1) rotate(0) translate(4 124)">
<title>/data/Software/DAQ/CDAQ/Core/Include/SlowcontrolManager.h</title>
<polygon fill="white" stroke="none" points="-4,4 -4,-124 535,-124 535,4 -4,4"/>
<!-- Node1 -->
<g id="node1" class="node"><title>Node1</title>
<polygon fill="#bfbfbf" stroke="black" points="186.5,-78.5 186.5,-119.5 347.5,-119.5 347.5,-78.5 186.5,-78.5"/>
<text text-anchor="start" x="194.5" y="-107.5" font-family="Helvetica,sans-Serif" font-size="10.00">/data/Software/DAQ</text>
<text text-anchor="start" x="194.5" y="-96.5" font-family="Helvetica,sans-Serif" font-size="10.00">/CDAQ/Core/Include/Slowcontrol</text>
<text text-anchor="middle" x="267" y="-85.5" font-family="Helvetica,sans-Serif" font-size="10.00">Manager.h</text>
</g>
<!-- Node2 -->
<g id="node2" class="node"><title>Node2</title>
<g id="a_node2"><a xlink:href="_multi_d_a_q_8cpp.xhtml" target="_top" xlink:title="/data/Software/DAQ\l/CDAQ/Application/MultiDAQ.cpp">
<polygon fill="white" stroke="black" points="0,-6 0,-36 164,-36 164,-6 0,-6"/>
<text text-anchor="start" x="8" y="-24" font-family="Helvetica,sans-Serif" font-size="10.00">/data/Software/DAQ</text>
<text text-anchor="middle" x="82" y="-13" font-family="Helvetica,sans-Serif" font-size="10.00">/CDAQ/Application/MultiDAQ.cpp</text>
</a>
</g>
</g>
<!-- Node1&#45;&gt;Node2 -->
<g id="edge1" class="edge"><title>Node1&#45;&gt;Node2</title>
<path fill="none" stroke="midnightblue" d="M210.06,-74.6086C179.407,-62.0157 142.607,-46.8981 116.338,-36.1065"/>
<polygon fill="midnightblue" stroke="midnightblue" points="208.778,-77.8656 219.358,-78.4281 211.438,-71.3906 208.778,-77.8656"/>
</g>
<!-- Node3 -->
<g id="node3" class="node"><title>Node3</title>
<g id="a_node3"><a xlink:href="_single_d_a_q_8cpp.xhtml" target="_top" xlink:title="/data/Software/DAQ\l/CDAQ/Application/SingleDAQ.cpp">
<polygon fill="white" stroke="black" points="182,-6 182,-36 352,-36 352,-6 182,-6"/>
<text text-anchor="start" x="190" y="-24" font-family="Helvetica,sans-Serif" font-size="10.00">/data/Software/DAQ</text>
<text text-anchor="middle" x="267" y="-13" font-family="Helvetica,sans-Serif" font-size="10.00">/CDAQ/Application/SingleDAQ.cpp</text>
</a>
</g>
</g>
<!-- Node1&#45;&gt;Node3 -->
<g id="edge2" class="edge"><title>Node1&#45;&gt;Node3</title>
<path fill="none" stroke="midnightblue" d="M267,-68.2829C267,-57.2536 267,-45.2457 267,-36.2254"/>
<polygon fill="midnightblue" stroke="midnightblue" points="263.5,-68.4281 267,-78.4281 270.5,-68.4281 263.5,-68.4281"/>
</g>
<!-- Node4 -->
<g id="node4" class="node"><title>Node4</title>
<g id="a_node4"><a xlink:href="_slowcontrol_manager_8cpp.xhtml" target="_top" xlink:title="/data/Software/DAQ\l/CDAQ/Core/Source/Slowcontrol\lManager.cpp">
<polygon fill="white" stroke="black" points="370.5,-0.5 370.5,-41.5 531.5,-41.5 531.5,-0.5 370.5,-0.5"/>
<text text-anchor="start" x="378.5" y="-29.5" font-family="Helvetica,sans-Serif" font-size="10.00">/data/Software/DAQ</text>
<text text-anchor="start" x="378.5" y="-18.5" font-family="Helvetica,sans-Serif" font-size="10.00">/CDAQ/Core/Source/Slowcontrol</text>
<text text-anchor="middle" x="451" y="-7.5" font-family="Helvetica,sans-Serif" font-size="10.00">Manager.cpp</text>
</a>
</g>
</g>
<!-- Node1&#45;&gt;Node4 -->
<g id="edge3" class="edge"><title>Node1&#45;&gt;Node4</title>
<path fill="none" stroke="midnightblue" d="M323.632,-74.6086C349.314,-64.0008 379.333,-51.6015 403.776,-41.5056"/>
<polygon fill="midnightblue" stroke="midnightblue" points="322.291,-71.3755 314.385,-78.4281 324.963,-77.8454 322.291,-71.3755"/>
</g>
</g>
</svg>
