<?xml version="1.0" encoding="UTF-8" standalone="no"?>
<!DOCTYPE svg PUBLIC "-//W3C//DTD SVG 1.1//EN"
 "http://www.w3.org/Graphics/SVG/1.1/DTD/svg11.dtd">
<!-- Generated by graphviz version 2.36.0 (20140111.2315)
 -->
<!-- Title: /data/Software/DAQ/CDAQ/Core/Include/SlowcontrolManager.h Pages: 1 -->
<svg width="1137pt" height="106pt"
 viewBox="0.00 0.00 1137.00 106.00" xmlns="http://www.w3.org/2000/svg" xmlns:xlink="http://www.w3.org/1999/xlink">
<g id="graph0" class="graph" transform="scale(1 1) rotate(0) translate(4 102)">
<title>/data/Software/DAQ/CDAQ/Core/Include/SlowcontrolManager.h</title>
<polygon fill="white" stroke="none" points="-4,4 -4,-102 1133,-102 1133,4 -4,4"/>
<!-- Node1 -->
<g id="node1" class="node"><title>Node1</title>
<polygon fill="#bfbfbf" stroke="black" points="453.5,-56.5 453.5,-97.5 614.5,-97.5 614.5,-56.5 453.5,-56.5"/>
<text text-anchor="start" x="461.5" y="-85.5" font-family="Helvetica,sans-Serif" font-size="10.00">/data/Software/DAQ</text>
<text text-anchor="start" x="461.5" y="-74.5" font-family="Helvetica,sans-Serif" font-size="10.00">/CDAQ/Core/Include/Slowcontrol</text>
<text text-anchor="middle" x="534" y="-63.5" font-family="Helvetica,sans-Serif" font-size="10.00">Manager.h</text>
</g>
<!-- Node2 -->
<g id="node2" class="node"><title>Node2</title>
<polygon fill="white" stroke="#bfbfbf" points="-0.5,-0.5 -0.5,-19.5 48.5,-19.5 48.5,-0.5 -0.5,-0.5"/>
<text text-anchor="middle" x="24" y="-7.5" font-family="Helvetica,sans-Serif" font-size="10.00">string.h</text>
</g>
<!-- Node1&#45;&gt;Node2 -->
<g id="edge1" class="edge"><title>Node1&#45;&gt;Node2</title>
<path fill="none" stroke="midnightblue" d="M453.461,-70.0265C360.511,-62.3446 203.01,-46.909 58.714,-19.8778"/>
<polygon fill="midnightblue" stroke="midnightblue" points="59.2663,-16.4202 48.7894,-17.9961 57.9623,-23.2977 59.2663,-16.4202"/>
</g>
<!-- Node3 -->
<g id="node3" class="node"><title>Node3</title>
<polygon fill="white" stroke="#bfbfbf" points="67,-0.5 67,-19.5 113,-19.5 113,-0.5 67,-0.5"/>
<text text-anchor="middle" x="90" y="-7.5" font-family="Helvetica,sans-Serif" font-size="10.00">stdio.h</text>
</g>
<!-- Node1&#45;&gt;Node3 -->
<g id="edge2" class="edge"><title>Node1&#45;&gt;Node3</title>
<path fill="none" stroke="midnightblue" d="M453.3,-68.3852C372.109,-59.9636 243.253,-44.5265 123.411,-20.0508"/>
<polygon fill="midnightblue" stroke="midnightblue" points="123.828,-16.5631 113.326,-17.9651 122.41,-23.418 123.828,-16.5631"/>
</g>
<!-- Node4 -->
<g id="node4" class="node"><title>Node4</title>
<polygon fill="white" stroke="#bfbfbf" points="131,-0.5 131,-19.5 179,-19.5 179,-0.5 131,-0.5"/>
<text text-anchor="middle" x="155" y="-7.5" font-family="Helvetica,sans-Serif" font-size="10.00">stdlib.h</text>
</g>
<!-- Node1&#45;&gt;Node4 -->
<g id="edge3" class="edge"><title>Node1&#45;&gt;Node4</title>
<path fill="none" stroke="midnightblue" d="M453.495,-65.4309C385.418,-55.9282 285.171,-40.6113 188.974,-20.0227"/>
<polygon fill="midnightblue" stroke="midnightblue" points="189.592,-16.5756 179.078,-17.8829 188.112,-23.4175 189.592,-16.5756"/>
</g>
<!-- Node5 -->
<g id="node5" class="node"><title>Node5</title>
<polygon fill="white" stroke="#bfbfbf" points="197,-0.5 197,-19.5 241,-19.5 241,-0.5 197,-0.5"/>
<text text-anchor="middle" x="219" y="-7.5" font-family="Helvetica,sans-Serif" font-size="10.00">time.h</text>
</g>
<!-- Node1&#45;&gt;Node5 -->
<g id="edge4" class="edge"><title>Node1&#45;&gt;Node5</title>
<path fill="none" stroke="midnightblue" d="M453.407,-62.0582C398.783,-52.1549 324.801,-37.8626 251.198,-20.1334"/>
<polygon fill="midnightblue" stroke="midnightblue" points="251.832,-16.6856 241.288,-17.7247 250.179,-23.4876 251.832,-16.6856"/>
</g>
<!-- Node6 -->
<g id="node6" class="node"><title>Node6</title>
<polygon fill="white" stroke="#bfbfbf" points="259,-0.5 259,-19.5 303,-19.5 303,-0.5 259,-0.5"/>
<text text-anchor="middle" x="281" y="-7.5" font-family="Helvetica,sans-Serif" font-size="10.00">vector</text>
</g>
<!-- Node1&#45;&gt;Node6 -->
<g id="edge5" class="edge"><title>Node1&#45;&gt;Node6</title>
<path fill="none" stroke="midnightblue" d="M453.671,-56.4657C413.892,-46.6189 364.933,-34.2432 313.046,-20.2209"/>
<polygon fill="midnightblue" stroke="midnightblue" points="313.892,-16.8241 303.324,-17.5838 312.059,-23.58 313.892,-16.8241"/>
</g>
<!-- Node7 -->
<g id="node7" class="node"><title>Node7</title>
<polygon fill="white" stroke="#bfbfbf" points="321,-0.5 321,-19.5 373,-19.5 373,-0.5 321,-0.5"/>
<text text-anchor="middle" x="347" y="-7.5" font-family="Helvetica,sans-Serif" font-size="10.00">memory</text>
</g>
<!-- Node1&#45;&gt;Node7 -->
<g id="edge6" class="edge"><title>Node1&#45;&gt;Node7</title>
<path fill="none" stroke="midnightblue" d="M477.894,-56.4979C446.604,-45.6218 408.625,-32.4206 381.654,-23.0455"/>
<polygon fill="midnightblue" stroke="midnightblue" points="382.487,-19.6298 371.893,-19.6525 380.189,-26.2418 382.487,-19.6298"/>
</g>
<!-- Node8 -->
<g id="node8" class="node"><title>Node8</title>
<polygon fill="white" stroke="#bfbfbf" points="391.5,-0.5 391.5,-19.5 442.5,-19.5 442.5,-0.5 391.5,-0.5"/>
<text text-anchor="middle" x="417" y="-7.5" font-family="Helvetica,sans-Serif" font-size="10.00">typeinfo</text>
</g>
<!-- Node1&#45;&gt;Node8 -->
<g id="edge7" class="edge"><title>Node1&#45;&gt;Node8</title>
<path fill="none" stroke="midnightblue" d="M498.896,-56.4979C480.44,-46.2447 458.265,-33.925 441.647,-24.6927"/>
<polygon fill="midnightblue" stroke="midnightblue" points="443.016,-21.4494 432.574,-19.6525 439.616,-27.5685 443.016,-21.4494"/>
</g>
<!-- Node9 -->
<g id="node9" class="node"><title>Node9</title>
<polygon fill="white" stroke="#bfbfbf" points="461,-0.5 461,-19.5 523,-19.5 523,-0.5 461,-0.5"/>
<text text-anchor="middle" x="492" y="-7.5" font-family="Helvetica,sans-Serif" font-size="10.00">common.h</text>
</g>
<!-- Node1&#45;&gt;Node9 -->
<g id="edge8" class="edge"><title>Node1&#45;&gt;Node9</title>
<path fill="none" stroke="midnightblue" d="M521.399,-56.4979C515.578,-47.4904 508.728,-36.8881 503.104,-28.1852"/>
<polygon fill="midnightblue" stroke="midnightblue" points="505.958,-26.1522 497.591,-19.6525 500.078,-29.9512 505.958,-26.1522"/>
</g>
<!-- Node10 -->
<g id="node10" class="node"><title>Node10</title>
<polygon fill="white" stroke="#bfbfbf" points="541.5,-0.5 541.5,-19.5 610.5,-19.5 610.5,-0.5 541.5,-0.5"/>
<text text-anchor="middle" x="576" y="-7.5" font-family="Helvetica,sans-Serif" font-size="10.00">xmlParser.h</text>
</g>
<!-- Node1&#45;&gt;Node10 -->
<g id="edge9" class="edge"><title>Node1&#45;&gt;Node10</title>
<path fill="none" stroke="midnightblue" d="M546.601,-56.4979C552.422,-47.4904 559.272,-36.8881 564.896,-28.1852"/>
<polygon fill="midnightblue" stroke="midnightblue" points="567.922,-29.9512 570.409,-19.6525 562.042,-26.1522 567.922,-29.9512"/>
</g>
<!-- Node11 -->
<g id="node11" class="node"><title>Node11</title>
<polygon fill="white" stroke="#bfbfbf" points="629,-0.5 629,-19.5 691,-19.5 691,-0.5 629,-0.5"/>
<text text-anchor="middle" x="660" y="-7.5" font-family="Helvetica,sans-Serif" font-size="10.00">sys/time.h</text>
</g>
<!-- Node1&#45;&gt;Node11 -->
<g id="edge10" class="edge"><title>Node1&#45;&gt;Node11</title>
<path fill="none" stroke="midnightblue" d="M571.804,-56.4979C591.865,-46.1488 616.007,-33.6946 633.958,-24.4346"/>
<polygon fill="midnightblue" stroke="midnightblue" points="635.945,-27.3477 643.227,-19.6525 632.736,-21.1267 635.945,-27.3477"/>
</g>
<!-- Node12 -->
<g id="node12" class="node"><title>Node12</title>
<polygon fill="white" stroke="#bfbfbf" points="709.5,-0.5 709.5,-19.5 768.5,-19.5 768.5,-0.5 709.5,-0.5"/>
<text text-anchor="middle" x="739" y="-7.5" font-family="Helvetica,sans-Serif" font-size="10.00">TROOT.h</text>
</g>
<!-- Node1&#45;&gt;Node12 -->
<g id="edge11" class="edge"><title>Node1&#45;&gt;Node12</title>
<path fill="none" stroke="midnightblue" d="M595.507,-56.4979C630.367,-45.4445 672.802,-31.9895 702.447,-22.59"/>
<polygon fill="midnightblue" stroke="midnightblue" points="703.506,-25.9259 711.981,-19.5671 701.391,-19.2533 703.506,-25.9259"/>
</g>
<!-- Node13 -->
<g id="node13" class="node"><title>Node13</title>
<polygon fill="white" stroke="#bfbfbf" points="786.5,-0.5 786.5,-19.5 851.5,-19.5 851.5,-0.5 786.5,-0.5"/>
<text text-anchor="middle" x="819" y="-7.5" font-family="Helvetica,sans-Serif" font-size="10.00">TSystem.h</text>
</g>
<!-- Node1&#45;&gt;Node13 -->
<g id="edge12" class="edge"><title>Node1&#45;&gt;Node13</title>
<path fill="none" stroke="midnightblue" d="M614.527,-57.6342C667.253,-45.6089 734.038,-30.3773 776.653,-20.6581"/>
<polygon fill="midnightblue" stroke="midnightblue" points="777.445,-24.0674 786.416,-18.4313 775.889,-17.2426 777.445,-24.0674"/>
</g>
<!-- Node14 -->
<g id="node14" class="node"><title>Node14</title>
<polygon fill="white" stroke="#bfbfbf" points="870,-0.5 870,-19.5 920,-19.5 920,-0.5 870,-0.5"/>
<text text-anchor="middle" x="895" y="-7.5" font-family="Helvetica,sans-Serif" font-size="10.00">TTree.h</text>
</g>
<!-- Node1&#45;&gt;Node14 -->
<g id="edge13" class="edge"><title>Node1&#45;&gt;Node14</title>
<path fill="none" stroke="midnightblue" d="M614.734,-64.0091C680.92,-53.7291 776.892,-37.7923 860,-20 860.1,-19.9787 860.2,-19.9572 860.3,-19.9357"/>
<polygon fill="midnightblue" stroke="midnightblue" points="860.867,-23.3968 869.823,-17.7357 859.292,-16.5764 860.867,-23.3968"/>
</g>
<!-- Node15 -->
<g id="node15" class="node"><title>Node15</title>
<polygon fill="white" stroke="#bfbfbf" points="938.5,-0.5 938.5,-19.5 997.5,-19.5 997.5,-0.5 938.5,-0.5"/>
<text text-anchor="middle" x="968" y="-7.5" font-family="Helvetica,sans-Serif" font-size="10.00">TNtuple.h</text>
</g>
<!-- Node1&#45;&gt;Node15 -->
<g id="edge14" class="edge"><title>Node1&#45;&gt;Node15</title>
<path fill="none" stroke="midnightblue" d="M614.521,-66.6429C692.309,-57.1338 813.62,-41.0712 928.241,-19.9992"/>
<polygon fill="midnightblue" stroke="midnightblue" points="929.051,-23.4088 938.245,-18.144 927.774,-16.5262 929.051,-23.4088"/>
</g>
<!-- Node16 -->
<g id="node16" class="node"><title>Node16</title>
<polygon fill="white" stroke="#bfbfbf" points="1015.5,-0.5 1015.5,-19.5 1062.5,-19.5 1062.5,-0.5 1015.5,-0.5"/>
<text text-anchor="middle" x="1039" y="-7.5" font-family="Helvetica,sans-Serif" font-size="10.00">TFile.h</text>
</g>
<!-- Node1&#45;&gt;Node16 -->
<g id="edge15" class="edge"><title>Node1&#45;&gt;Node16</title>
<path fill="none" stroke="midnightblue" d="M614.737,-70.0838C707.05,-62.4949 862.732,-47.1852 1005.49,-19.8188"/>
<polygon fill="midnightblue" stroke="midnightblue" points="1006.16,-23.2544 1015.31,-17.9133 1004.82,-16.3826 1006.16,-23.2544"/>
</g>
<!-- Node17 -->
<g id="node17" class="node"><title>Node17</title>
<polygon fill="white" stroke="#bfbfbf" points="1080.5,-0.5 1080.5,-19.5 1129.5,-19.5 1129.5,-0.5 1080.5,-0.5"/>
<text text-anchor="middle" x="1105" y="-7.5" font-family="Helvetica,sans-Serif" font-size="10.00">TRint.h</text>
</g>
<!-- Node1&#45;&gt;Node17 -->
<g id="edge16" class="edge"><title>Node1&#45;&gt;Node17</title>
<path fill="none" stroke="midnightblue" d="M614.614,-71.4977C718.086,-64.8466 903.17,-50.0087 1070.25,-19.8549"/>
<polygon fill="midnightblue" stroke="midnightblue" points="1071.01,-23.275 1080.22,-18.0346 1069.75,-16.389 1071.01,-23.275"/>
</g>
</g>
</svg>
