<?xml version="1.0" encoding="UTF-8" standalone="no"?>
<!DOCTYPE svg PUBLIC "-//W3C//DTD SVG 1.1//EN"
 "http://www.w3.org/Graphics/SVG/1.1/DTD/svg11.dtd">
<!-- Generated by graphviz version 2.36.0 (20140111.2315)
 -->
<!-- Title: /data/Software/DAQ/CDAQ/Core/Source/StorageManager.cpp Pages: 1 -->
<!--zoomable 152 -->
<svg id="main" version="1.1" xmlns="http://www.w3.org/2000/svg" xmlns:xlink="http://www.w3.org/1999/xlink" xml:space="preserve" onload="init(evt)">
<style type="text/css"><![CDATA[
.edge:hover path { stroke: red; }
.edge:hover polygon { stroke: red; fill: red; }
]]></style>
<script type="text/javascript"><![CDATA[
var edges = document.getElementsByTagName('g');
if (edges && edges.length) {
  for (var i=0;i<edges.length;i++) {
    if (edges[i].id.substr(0,4)=='edge') {
      edges[i].setAttribute('class','edge');
    }
  }
}
]]></script>
        <defs>
                <circle id="rim" cx="0" cy="0" r="7"/>
                <circle id="rim2" cx="0" cy="0" r="3.5"/>
                <g id="zoomPlus">
                        <use xlink:href="#rim" fill="#404040">
                                <set attributeName="fill" to="#808080" begin="zoomplus.mouseover" end="zoomplus.mouseout"/>
                        </use>
                        <path d="M-4,0h8M0,-4v8" fill="none" stroke="white" stroke-width="1.5" pointer-events="none"/>
                </g>
                <g id="zoomMin">
                        <use xlink:href="#rim" fill="#404040">
                                <set attributeName="fill" to="#808080" begin="zoomminus.mouseover" end="zoomminus.mouseout"/>
                        </use>
                        <path d="M-4,0h8" fill="none" stroke="white" stroke-width="1.5" pointer-events="none"/>
                </g>
                <g id="dirArrow">
                        <path fill="none" stroke="white" stroke-width="1.5" d="M0,-3.0v7 M-2.5,-0.5L0,-3.0L2.5,-0.5"/>
                </g>
               <g id="resetDef">
                       <use xlink:href="#rim2" fill="#404040">
                               <set attributeName="fill" to="#808080" begin="reset.mouseover" end="reset.mouseout"/>
                       </use>
               </g>
        </defs>

<script type="text/javascript">
var viewWidth = 1378;
var viewHeight = 152;
var sectionId = 'dynsection-0';
</script>
<script xlink:href="svgpan.js"/>
<svg id="graph" class="graph">
<g id="viewport">
<title>/data/Software/DAQ/CDAQ/Core/Source/StorageManager.cpp</title>
<polygon fill="white" stroke="none" points="-4,4 -4,-148 1374,-148 1374,4 -4,4"/>
<!-- Node1 -->
<g id="node1" class="node"><title>Node1</title>
<polygon fill="#bfbfbf" stroke="black" points="747,-113 747,-143 947,-143 947,-113 747,-113"/>
<text text-anchor="start" x="755" y="-131" font-family="Helvetica,sans-Serif" font-size="10.00">/data/Software/DAQ</text>
<text text-anchor="middle" x="847" y="-120" font-family="Helvetica,sans-Serif" font-size="10.00">/CDAQ/Core/Source/StorageManager.cpp</text>
</g>
<!-- Node2 -->
<g id="node2" class="node"><title>Node2</title>
<polygon fill="white" stroke="#bfbfbf" points="395,-56.5 395,-75.5 445,-75.5 445,-56.5 395,-56.5"/>
<text text-anchor="middle" x="420" y="-63.5" font-family="Helvetica,sans-Serif" font-size="10.00">fstream</text>
</g>
<!-- Node1&#45;&gt;Node2 -->
<g id="edge1" class="edge"><title>Node1&#45;&gt;Node2</title>
<path fill="none" stroke="midnightblue" d="M746.681,-117.608C669.415,-109.531 559.839,-96.2517 455.269,-76.0296"/>
<polygon fill="midnightblue" stroke="midnightblue" points="455.653,-72.5383 445.167,-74.0509 454.307,-79.4078 455.653,-72.5383"/>
</g>
<!-- Node3 -->
<g id="node3" class="node"><title>Node3</title>
<polygon fill="white" stroke="#bfbfbf" points="463,-56.5 463,-75.5 515,-75.5 515,-56.5 463,-56.5"/>
<text text-anchor="middle" x="489" y="-63.5" font-family="Helvetica,sans-Serif" font-size="10.00">sstream</text>
</g>
<!-- Node1&#45;&gt;Node3 -->
<g id="edge2" class="edge"><title>Node1&#45;&gt;Node3</title>
<path fill="none" stroke="midnightblue" d="M749.653,-112.994C686.565,-103.522 602.711,-90.189 529,-76 527.742,-75.7578 526.463,-75.5052 525.172,-75.2448"/>
<polygon fill="midnightblue" stroke="midnightblue" points="525.708,-71.7809 515.201,-73.1406 524.263,-78.6301 525.708,-71.7809"/>
</g>
<!-- Node4 -->
<g id="node4" class="node"><title>Node4</title>
<polygon fill="white" stroke="#bfbfbf" points="0,-0.5 0,-19.5 44,-19.5 44,-0.5 0,-0.5"/>
<text text-anchor="middle" x="22" y="-7.5" font-family="Helvetica,sans-Serif" font-size="10.00">vector</text>
</g>
<!-- Node1&#45;&gt;Node4 -->
<g id="edge3" class="edge"><title>Node1&#45;&gt;Node4</title>
<path fill="none" stroke="midnightblue" d="M746.931,-118.64C689.902,-111.618 617.892,-98.8834 557,-76 540.946,-69.9669 540.33,-61.2411 524,-56 327.224,7.15753 261.623,-55.4472 54.2053,-19.8179"/>
<polygon fill="midnightblue" stroke="midnightblue" points="54.6777,-16.3471 44.22,-18.0461 53.4547,-23.2395 54.6777,-16.3471"/>
</g>
<!-- Node5 -->
<g id="node5" class="node"><title>Node5</title>
<polygon fill="white" stroke="#bfbfbf" points="951.5,-56.5 951.5,-75.5 998.5,-75.5 998.5,-56.5 951.5,-56.5"/>
<text text-anchor="middle" x="975" y="-63.5" font-family="Helvetica,sans-Serif" font-size="10.00">iterator</text>
</g>
<!-- Node1&#45;&gt;Node5 -->
<g id="edge4" class="edge"><title>Node1&#45;&gt;Node5</title>
<path fill="none" stroke="midnightblue" d="M877.01,-112.933C898.316,-102.946 926.702,-89.6397 947.436,-79.9205"/>
<polygon fill="midnightblue" stroke="midnightblue" points="949.084,-83.0135 956.653,-75.6 946.113,-76.6753 949.084,-83.0135"/>
</g>
<!-- Node6 -->
<g id="node6" class="node"><title>Node6</title>
<polygon fill="white" stroke="#bfbfbf" points="1017,-56.5 1017,-75.5 1073,-75.5 1073,-56.5 1017,-56.5"/>
<text text-anchor="middle" x="1045" y="-63.5" font-family="Helvetica,sans-Serif" font-size="10.00">algorithm</text>
</g>
<!-- Node1&#45;&gt;Node6 -->
<g id="edge5" class="edge"><title>Node1&#45;&gt;Node6</title>
<path fill="none" stroke="midnightblue" d="M893.422,-112.933C927.974,-102.462 974.563,-88.3445 1006.93,-78.5358"/>
<polygon fill="midnightblue" stroke="midnightblue" points="1008.35,-81.7624 1016.91,-75.5127 1006.32,-75.0632 1008.35,-81.7624"/>
</g>
<!-- Node7 -->
<g id="node7" class="node"><title>Node7</title>
<polygon fill="white" stroke="#bfbfbf" points="1091,-56.5 1091,-75.5 1145,-75.5 1145,-56.5 1091,-56.5"/>
<text text-anchor="middle" x="1118" y="-63.5" font-family="Helvetica,sans-Serif" font-size="10.00">iostream</text>
</g>
<!-- Node1&#45;&gt;Node7 -->
<g id="edge6" class="edge"><title>Node1&#45;&gt;Node7</title>
<path fill="none" stroke="midnightblue" d="M913.412,-112.969C960.305,-102.954 1024.58,-89.0078 1081,-76 1081.1,-75.9768 1081.2,-75.9535 1081.3,-75.9302"/>
<polygon fill="midnightblue" stroke="midnightblue" points="1082.01,-79.3599 1090.94,-73.6615 1080.4,-72.5461 1082.01,-79.3599"/>
</g>
<!-- Node8 -->
<g id="node8" class="node"><title>Node8</title>
<polygon fill="white" stroke="#bfbfbf" points="1163.5,-56.5 1163.5,-75.5 1204.5,-75.5 1204.5,-56.5 1163.5,-56.5"/>
<text text-anchor="middle" x="1184" y="-63.5" font-family="Helvetica,sans-Serif" font-size="10.00">string</text>
</g>
<!-- Node1&#45;&gt;Node8 -->
<g id="edge7" class="edge"><title>Node1&#45;&gt;Node8</title>
<path fill="none" stroke="midnightblue" d="M947.179,-113.637C1004.89,-105.162 1078.9,-92.9799 1153.4,-75.8773"/>
<polygon fill="midnightblue" stroke="midnightblue" points="1154.49,-79.2177 1163.44,-73.5439 1152.9,-72.3996 1154.49,-79.2177"/>
</g>
<!-- Node9 -->
<g id="node9" class="node"><title>Node9</title>
<g id="a_node9"><a xlink:href="_storage_manager_8h.xhtml" target="_top" xlink:title="StorageManager.h">
<polygon fill="white" stroke="black" points="609,-56.5 609,-75.5 705,-75.5 705,-56.5 609,-56.5"/>
<text text-anchor="middle" x="657" y="-63.5" font-family="Helvetica,sans-Serif" font-size="10.00">StorageManager.h</text>
</a>
</g>
</g>
<!-- Node1&#45;&gt;Node9 -->
<g id="edge8" class="edge"><title>Node1&#45;&gt;Node9</title>
<path fill="none" stroke="midnightblue" d="M802.453,-112.933C769.298,-102.462 724.591,-88.3445 693.53,-78.5358"/>
<polygon fill="midnightblue" stroke="midnightblue" points="694.547,-75.1865 683.957,-75.5127 692.439,-81.8616 694.547,-75.1865"/>
</g>
<!-- Node16 -->
<g id="node16" class="node"><title>Node16</title>
<polygon fill="white" stroke="#bfbfbf" points="62,-0.5 62,-19.5 124,-19.5 124,-0.5 62,-0.5"/>
<text text-anchor="middle" x="93" y="-7.5" font-family="Helvetica,sans-Serif" font-size="10.00">common.h</text>
</g>
<!-- Node1&#45;&gt;Node16 -->
<g id="edge26" class="edge"><title>Node1&#45;&gt;Node16</title>
<path fill="none" stroke="midnightblue" d="M753.587,-112.981C706.797,-104.638 649.677,-92.4341 600,-76 579.989,-69.3801 577.369,-61.4191 557,-56 377.359,-8.20618 321.807,-47.4341 134.269,-19.9762"/>
<polygon fill="midnightblue" stroke="midnightblue" points="134.776,-16.5131 124.366,-18.4827 133.732,-23.4349 134.776,-16.5131"/>
</g>
<!-- Node18 -->
<g id="node18" class="node"><title>Node18</title>
<polygon fill="white" stroke="#bfbfbf" points="703.5,-0.5 703.5,-19.5 762.5,-19.5 762.5,-0.5 703.5,-0.5"/>
<text text-anchor="middle" x="733" y="-7.5" font-family="Helvetica,sans-Serif" font-size="10.00">TROOT.h</text>
</g>
<!-- Node1&#45;&gt;Node18 -->
<g id="edge27" class="edge"><title>Node1&#45;&gt;Node18</title>
<path fill="none" stroke="midnightblue" d="M829.327,-112.948C817.26,-103.064 801.142,-89.2813 788,-76 772.647,-60.4847 756.708,-41.2432 745.966,-27.7356"/>
<polygon fill="midnightblue" stroke="midnightblue" points="748.647,-25.4831 739.716,-19.7839 743.144,-29.8089 748.647,-25.4831"/>
</g>
<!-- Node19 -->
<g id="node19" class="node"><title>Node19</title>
<polygon fill="white" stroke="#bfbfbf" points="780.5,-0.5 780.5,-19.5 845.5,-19.5 845.5,-0.5 780.5,-0.5"/>
<text text-anchor="middle" x="813" y="-7.5" font-family="Helvetica,sans-Serif" font-size="10.00">TSystem.h</text>
</g>
<!-- Node1&#45;&gt;Node19 -->
<g id="edge29" class="edge"><title>Node1&#45;&gt;Node19</title>
<path fill="none" stroke="midnightblue" d="M825.968,-112.903C814.47,-103.872 801.315,-91.0399 795,-76 788.497,-60.5142 794.932,-41.9758 801.849,-28.6672"/>
<polygon fill="midnightblue" stroke="midnightblue" points="805.084,-30.0621 807.025,-19.6466 799.012,-26.578 805.084,-30.0621"/>
</g>
<!-- Node20 -->
<g id="node20" class="node"><title>Node20</title>
<polygon fill="white" stroke="#bfbfbf" points="864,-0.5 864,-19.5 914,-19.5 914,-0.5 864,-0.5"/>
<text text-anchor="middle" x="889" y="-7.5" font-family="Helvetica,sans-Serif" font-size="10.00">TTree.h</text>
</g>
<!-- Node1&#45;&gt;Node20 -->
<g id="edge30" class="edge"><title>Node1&#45;&gt;Node20</title>
<path fill="none" stroke="midnightblue" d="M839.165,-112.736C832.146,-97.9108 824.203,-74.354 833,-56 839.253,-42.9542 851.336,-32.4921 862.682,-24.9506"/>
<polygon fill="midnightblue" stroke="midnightblue" points="864.809,-27.7515 871.498,-19.5351 861.146,-21.7869 864.809,-27.7515"/>
</g>
<!-- Node21 -->
<g id="node21" class="node"><title>Node21</title>
<polygon fill="white" stroke="#bfbfbf" points="932.5,-0.5 932.5,-19.5 991.5,-19.5 991.5,-0.5 932.5,-0.5"/>
<text text-anchor="middle" x="962" y="-7.5" font-family="Helvetica,sans-Serif" font-size="10.00">TNtuple.h</text>
</g>
<!-- Node1&#45;&gt;Node21 -->
<g id="edge31" class="edge"><title>Node1&#45;&gt;Node21</title>
<path fill="none" stroke="midnightblue" d="M848.54,-112.872C850.909,-97.2835 856.778,-72.256 871,-56 884.611,-40.4429 904.85,-29.6954 922.787,-22.6159"/>
<polygon fill="midnightblue" stroke="midnightblue" points="924.285,-25.794 932.459,-19.0529 921.866,-19.2255 924.285,-25.794"/>
</g>
<!-- Node22 -->
<g id="node22" class="node"><title>Node22</title>
<polygon fill="white" stroke="#bfbfbf" points="1009.5,-0.5 1009.5,-19.5 1056.5,-19.5 1056.5,-0.5 1009.5,-0.5"/>
<text text-anchor="middle" x="1033" y="-7.5" font-family="Helvetica,sans-Serif" font-size="10.00">TFile.h</text>
</g>
<!-- Node1&#45;&gt;Node22 -->
<g id="edge32" class="edge"><title>Node1&#45;&gt;Node22</title>
<path fill="none" stroke="midnightblue" d="M856.095,-112.822C866.938,-96.9522 886.453,-71.4433 909,-56 924.046,-45.6945 968.364,-30.7949 999.709,-21.006"/>
<polygon fill="midnightblue" stroke="midnightblue" points="1000.85,-24.3152 1009.38,-18.0197 998.789,-17.6271 1000.85,-24.3152"/>
</g>
<!-- Node23 -->
<g id="node23" class="node"><title>Node23</title>
<polygon fill="white" stroke="#bfbfbf" points="1074.5,-0.5 1074.5,-19.5 1123.5,-19.5 1123.5,-0.5 1074.5,-0.5"/>
<text text-anchor="middle" x="1099" y="-7.5" font-family="Helvetica,sans-Serif" font-size="10.00">TRint.h</text>
</g>
<!-- Node1&#45;&gt;Node23 -->
<g id="edge33" class="edge"><title>Node1&#45;&gt;Node23</title>
<path fill="none" stroke="midnightblue" d="M862.487,-112.782C880.566,-96.8749 911.962,-71.3322 943,-56 953.996,-50.568 1022.15,-31.722 1064.65,-20.2124"/>
<polygon fill="midnightblue" stroke="midnightblue" points="1065.6,-23.5828 1074.34,-17.5964 1063.77,-16.8249 1065.6,-23.5828"/>
</g>
<!-- Node25 -->
<g id="node25" class="node"><title>Node25</title>
<polygon fill="white" stroke="#bfbfbf" points="1223,-56.5 1223,-75.5 1273,-75.5 1273,-56.5 1223,-56.5"/>
<text text-anchor="middle" x="1248" y="-63.5" font-family="Helvetica,sans-Serif" font-size="10.00">global.h</text>
</g>
<!-- Node1&#45;&gt;Node25 -->
<g id="edge25" class="edge"><title>Node1&#45;&gt;Node25</title>
<path fill="none" stroke="midnightblue" d="M947.318,-116.126C1021.15,-107.37 1123.78,-93.6276 1213,-76 1213.1,-75.9802 1213.2,-75.9604 1213.3,-75.9404"/>
<polygon fill="midnightblue" stroke="midnightblue" points="1213.83,-79.4071 1222.84,-73.8321 1212.32,-72.5719 1213.83,-79.4071"/>
</g>
<!-- Node26 -->
<g id="node26" class="node"><title>Node26</title>
<polygon fill="white" stroke="#bfbfbf" points="1291.5,-56.5 1291.5,-75.5 1370.5,-75.5 1370.5,-56.5 1291.5,-56.5"/>
<text text-anchor="middle" x="1331" y="-63.5" font-family="Helvetica,sans-Serif" font-size="10.00">TApplication.h</text>
</g>
<!-- Node1&#45;&gt;Node26 -->
<g id="edge28" class="edge"><title>Node1&#45;&gt;Node26</title>
<path fill="none" stroke="midnightblue" d="M947.02,-117.138C1032.93,-108.235 1160.32,-94.0102 1281.27,-76.0172"/>
<polygon fill="midnightblue" stroke="midnightblue" points="1282.09,-79.4344 1291.46,-74.4908 1281.05,-72.5117 1282.09,-79.4344"/>
</g>
<!-- Node9&#45;&gt;Node4 -->
<g id="edge13" class="edge"><title>Node9&#45;&gt;Node4</title>
<path fill="none" stroke="midnightblue" d="M608.949,-60.4943C592.482,-58.9985 573.94,-57.3672 557,-56 336.436,-38.1989 275.831,-58.9025 54.2094,-19.8417"/>
<polygon fill="midnightblue" stroke="midnightblue" points="54.6768,-16.3699 44.2175,-18.0597 53.4477,-23.2612 54.6768,-16.3699"/>
</g>
<!-- Node10 -->
<g id="node10" class="node"><title>Node10</title>
<polygon fill="white" stroke="#bfbfbf" points="142.5,-0.5 142.5,-19.5 191.5,-19.5 191.5,-0.5 142.5,-0.5"/>
<text text-anchor="middle" x="167" y="-7.5" font-family="Helvetica,sans-Serif" font-size="10.00">string.h</text>
</g>
<!-- Node9&#45;&gt;Node10 -->
<g id="edge9" class="edge"><title>Node9&#45;&gt;Node10</title>
<path fill="none" stroke="midnightblue" d="M608.969,-57.7712C604.254,-57.1386 599.537,-56.5361 595,-56 423.615,-35.7454 375.916,-50.0523 201.789,-19.834"/>
<polygon fill="midnightblue" stroke="midnightblue" points="202.231,-16.3581 191.775,-18.0719 201.017,-23.2522 202.231,-16.3581"/>
</g>
<!-- Node11 -->
<g id="node11" class="node"><title>Node11</title>
<polygon fill="white" stroke="#bfbfbf" points="210,-0.5 210,-19.5 256,-19.5 256,-0.5 210,-0.5"/>
<text text-anchor="middle" x="233" y="-7.5" font-family="Helvetica,sans-Serif" font-size="10.00">stdio.h</text>
</g>
<!-- Node9&#45;&gt;Node11 -->
<g id="edge10" class="edge"><title>Node9&#45;&gt;Node11</title>
<path fill="none" stroke="midnightblue" d="M608.959,-57.8546C604.245,-57.2051 599.532,-56.5759 595,-56 451.928,-37.8176 411.639,-47.604 266.486,-20.0005"/>
<polygon fill="midnightblue" stroke="midnightblue" points="266.794,-16.4954 256.312,-18.0377 265.468,-23.3687 266.794,-16.4954"/>
</g>
<!-- Node12 -->
<g id="node12" class="node"><title>Node12</title>
<polygon fill="white" stroke="#bfbfbf" points="274,-0.5 274,-19.5 322,-19.5 322,-0.5 274,-0.5"/>
<text text-anchor="middle" x="298" y="-7.5" font-family="Helvetica,sans-Serif" font-size="10.00">stdlib.h</text>
</g>
<!-- Node9&#45;&gt;Node12 -->
<g id="edge11" class="edge"><title>Node9&#45;&gt;Node12</title>
<path fill="none" stroke="midnightblue" d="M608.942,-57.9821C604.232,-57.3068 599.524,-56.6367 595,-56 480.943,-39.9454 448.781,-43.4188 332.107,-19.9936"/>
<polygon fill="midnightblue" stroke="midnightblue" points="332.56,-16.5142 322.063,-17.9532 331.166,-23.374 332.56,-16.5142"/>
</g>
<!-- Node13 -->
<g id="node13" class="node"><title>Node13</title>
<polygon fill="white" stroke="#bfbfbf" points="340,-0.5 340,-19.5 384,-19.5 384,-0.5 340,-0.5"/>
<text text-anchor="middle" x="362" y="-7.5" font-family="Helvetica,sans-Serif" font-size="10.00">time.h</text>
</g>
<!-- Node9&#45;&gt;Node13 -->
<g id="edge12" class="edge"><title>Node9&#45;&gt;Node13</title>
<path fill="none" stroke="midnightblue" d="M608.825,-57.4627C548.303,-47.8844 446.867,-31.4437 394.141,-20.0108"/>
<polygon fill="midnightblue" stroke="midnightblue" points="394.796,-16.5707 384.272,-17.7945 393.262,-23.4006 394.796,-16.5707"/>
</g>
<!-- Node14 -->
<g id="node14" class="node"><title>Node14</title>
<polygon fill="white" stroke="#bfbfbf" points="402,-0.5 402,-19.5 454,-19.5 454,-0.5 402,-0.5"/>
<text text-anchor="middle" x="428" y="-7.5" font-family="Helvetica,sans-Serif" font-size="10.00">memory</text>
</g>
<!-- Node9&#45;&gt;Node14 -->
<g id="edge14" class="edge"><title>Node9&#45;&gt;Node14</title>
<path fill="none" stroke="midnightblue" d="M619.02,-56.4706C581.928,-48.0785 523.629,-34.7238 464.275,-20.272"/>
<polygon fill="midnightblue" stroke="midnightblue" points="464.901,-16.822 454.356,-17.8488 463.24,-23.6221 464.901,-16.822"/>
</g>
<!-- Node15 -->
<g id="node15" class="node"><title>Node15</title>
<polygon fill="white" stroke="#bfbfbf" points="472.5,-0.5 472.5,-19.5 523.5,-19.5 523.5,-0.5 472.5,-0.5"/>
<text text-anchor="middle" x="498" y="-7.5" font-family="Helvetica,sans-Serif" font-size="10.00">typeinfo</text>
</g>
<!-- Node9&#45;&gt;Node15 -->
<g id="edge15" class="edge"><title>Node9&#45;&gt;Node15</title>
<path fill="none" stroke="midnightblue" d="M631.806,-56.4435C605.057,-47.3591 562.597,-32.9388 532.695,-22.7831"/>
<polygon fill="midnightblue" stroke="midnightblue" points="533.671,-19.4182 523.076,-19.5164 531.419,-26.0464 533.671,-19.4182"/>
</g>
<!-- Node9&#45;&gt;Node16 -->
<g id="edge16" class="edge"><title>Node9&#45;&gt;Node16</title>
<path fill="none" stroke="midnightblue" d="M608.977,-57.7077C604.259,-57.088 599.54,-56.5058 595,-56 393.609,-33.5616 338.426,-50.1307 134.502,-20.0208"/>
<polygon fill="midnightblue" stroke="midnightblue" points="134.77,-16.522 124.362,-18.5035 133.734,-23.4449 134.77,-16.522"/>
</g>
<!-- Node17 -->
<g id="node17" class="node"><title>Node17</title>
<polygon fill="white" stroke="#bfbfbf" points="541.5,-0.5 541.5,-19.5 610.5,-19.5 610.5,-0.5 541.5,-0.5"/>
<text text-anchor="middle" x="576" y="-7.5" font-family="Helvetica,sans-Serif" font-size="10.00">xmlParser.h</text>
</g>
<!-- Node9&#45;&gt;Node17 -->
<g id="edge17" class="edge"><title>Node9&#45;&gt;Node17</title>
<path fill="none" stroke="midnightblue" d="M643.986,-56.324C631.468,-47.979 612.318,-35.2122 597.529,-25.3524"/>
<polygon fill="midnightblue" stroke="midnightblue" points="599.244,-22.2894 588.982,-19.6545 595.361,-28.1137 599.244,-22.2894"/>
</g>
<!-- Node9&#45;&gt;Node18 -->
<g id="edge18" class="edge"><title>Node9&#45;&gt;Node18</title>
<path fill="none" stroke="midnightblue" d="M669.211,-56.324C680.776,-48.1066 698.375,-35.6017 712.161,-25.8069"/>
<polygon fill="midnightblue" stroke="midnightblue" points="714.443,-28.4791 720.567,-19.8339 710.388,-22.7729 714.443,-28.4791"/>
</g>
<!-- Node9&#45;&gt;Node19 -->
<g id="edge19" class="edge"><title>Node9&#45;&gt;Node19</title>
<path fill="none" stroke="midnightblue" d="M681.719,-56.4435C707.848,-47.3986 749.259,-33.064 778.576,-22.9158"/>
<polygon fill="midnightblue" stroke="midnightblue" points="780.092,-26.0951 788.397,-19.5164 777.802,-19.4801 780.092,-26.0951"/>
</g>
<!-- Node9&#45;&gt;Node20 -->
<g id="edge20" class="edge"><title>Node9&#45;&gt;Node20</title>
<path fill="none" stroke="midnightblue" d="M695.947,-56.4304C735.74,-47.5979 799.282,-33.2821 854,-20 854.099,-19.976 854.198,-19.9518 854.298,-19.9277"/>
<polygon fill="midnightblue" stroke="midnightblue" points="854.924,-23.3785 863.785,-17.5708 853.237,-16.585 854.924,-23.3785"/>
</g>
<!-- Node9&#45;&gt;Node21 -->
<g id="edge21" class="edge"><title>Node9&#45;&gt;Node21</title>
<path fill="none" stroke="midnightblue" d="M705.211,-57.7235C756.535,-49.7808 840.349,-36.2499 922.252,-20.05"/>
<polygon fill="midnightblue" stroke="midnightblue" points="923.106,-23.4488 932.229,-18.0614 921.737,-16.5839 923.106,-23.4488"/>
</g>
<!-- Node9&#45;&gt;Node22 -->
<g id="edge22" class="edge"><title>Node9&#45;&gt;Node22</title>
<path fill="none" stroke="midnightblue" d="M705.057,-60.7733C769.755,-54.626 888.56,-41.732 999.296,-19.8807"/>
<polygon fill="midnightblue" stroke="midnightblue" points="1000.18,-23.2731 1009.3,-17.8776 998.806,-16.4094 1000.18,-23.2731"/>
</g>
<!-- Node9&#45;&gt;Node23 -->
<g id="edge23" class="edge"><title>Node9&#45;&gt;Node23</title>
<path fill="none" stroke="midnightblue" d="M705.077,-62.0262C779.848,-56.8929 928.606,-44.6482 1064.07,-19.8989"/>
<polygon fill="midnightblue" stroke="midnightblue" points="1065.02,-23.2825 1074.21,-18.0172 1063.74,-16.3999 1065.02,-23.2825"/>
</g>
<!-- Node24 -->
<g id="node24" class="node"><title>Node24</title>
<polygon fill="white" stroke="#bfbfbf" points="628.5,-0.5 628.5,-19.5 685.5,-19.5 685.5,-0.5 628.5,-0.5"/>
<text text-anchor="middle" x="657" y="-7.5" font-family="Helvetica,sans-Serif" font-size="10.00">pthread.h</text>
</g>
<!-- Node9&#45;&gt;Node24 -->
<g id="edge24" class="edge"><title>Node9&#45;&gt;Node24</title>
<path fill="none" stroke="midnightblue" d="M657,-56.083C657,-49.0059 657,-38.8611 657,-29.9865"/>
<polygon fill="midnightblue" stroke="midnightblue" points="660.5,-29.751 657,-19.7511 653.5,-29.7511 660.5,-29.751"/>
</g>
</g>
</svg>
        <g id="navigator" transform="translate(0 0)" fill="#404254">
                <rect fill="#f2f5e9" fill-opacity="0.5" stroke="#606060" stroke-width=".5" x="0" y="0" width="60" height="60"/>
                <use id="zoomplus" xlink:href="#zoomPlus" x="17" y="9" onmousedown="handleZoom(evt,'in')"/>
                <use id="zoomminus" xlink:href="#zoomMin" x="42" y="9" onmousedown="handleZoom(evt,'out')"/>
                <use id="reset" xlink:href="#resetDef" x="30" y="36" onmousedown="handleReset()"/>
                <g id="arrowUp" xlink:href="#dirArrow" transform="translate(30 24)" onmousedown="handlePan(0,-1)">
                  <use xlink:href="#rim" fill="#404040">
                        <set attributeName="fill" to="#808080" begin="arrowUp.mouseover" end="arrowUp.mouseout"/>
                  </use>
                  <path fill="none" stroke="white" stroke-width="1.5" d="M0,-3.0v7 M-2.5,-0.5L0,-3.0L2.5,-0.5"/>
                </g>
                <g id="arrowRight" xlink:href="#dirArrow" transform="rotate(90) translate(36 -43)" onmousedown="handlePan(1,0)">
                  <use xlink:href="#rim" fill="#404040">
                        <set attributeName="fill" to="#808080" begin="arrowRight.mouseover" end="arrowRight.mouseout"/>
                  </use>
                  <path fill="none" stroke="white" stroke-width="1.5" d="M0,-3.0v7 M-2.5,-0.5L0,-3.0L2.5,-0.5"/>
                </g>
                <g id="arrowDown" xlink:href="#dirArrow" transform="rotate(180) translate(-30 -48)" onmousedown="handlePan(0,1)">
                  <use xlink:href="#rim" fill="#404040">
                        <set attributeName="fill" to="#808080" begin="arrowDown.mouseover" end="arrowDown.mouseout"/>
                  </use>
                  <path fill="none" stroke="white" stroke-width="1.5" d="M0,-3.0v7 M-2.5,-0.5L0,-3.0L2.5,-0.5"/>
                </g>
                <g id="arrowLeft" xlink:href="#dirArrow" transform="rotate(270) translate(-36 17)" onmousedown="handlePan(-1,0)">
                  <use xlink:href="#rim" fill="#404040">
                        <set attributeName="fill" to="#808080" begin="arrowLeft.mouseover" end="arrowLeft.mouseout"/>
                  </use>
                  <path fill="none" stroke="white" stroke-width="1.5" d="M0,-3.0v7 M-2.5,-0.5L0,-3.0L2.5,-0.5"/>
                </g>
        </g>
        <svg viewBox="0 0 15 15" width="100%" height="30px" preserveAspectRatio="xMaxYMin meet">
         <g id="arrow_out" transform="scale(0.3 0.3)">
          <a xlink:href="_storage_manager_8cpp__incl_org.svg" target="_base">
           <rect id="button" ry="5" rx="5" y="6" x="6" height="38" width="38"
                fill="#f2f5e9" fill-opacity="0.5" stroke="#606060" stroke-width="1.0"/>
           <path id="arrow"
             d="M 11.500037,31.436501 C 11.940474,20.09759 22.043105,11.32322 32.158766,21.979434 L 37.068811,17.246167 C 37.068811,17.246167 37.088388,32 37.088388,32 L 22.160133,31.978069 C 22.160133,31.978069 26.997745,27.140456 26.997745,27.140456 C 18.528582,18.264221 13.291696,25.230495 11.500037,31.436501 z"
             style="fill:#404040;"/>
          </a>
         </g>
        </svg>
</svg>
