<?xml version="1.0" encoding="UTF-8" standalone="no"?>
<!DOCTYPE svg PUBLIC "-//W3C//DTD SVG 1.1//EN"
 "http://www.w3.org/Graphics/SVG/1.1/DTD/svg11.dtd">
<!-- Generated by graphviz version 2.36.0 (20140111.2315)
 -->
<!-- Title: /data/Software/DAQ/CDAQ/Core/Include/StorageManager.h Pages: 1 -->
<svg width="578pt" height="118pt"
 viewBox="0.00 0.00 578.00 118.00" xmlns="http://www.w3.org/2000/svg" xmlns:xlink="http://www.w3.org/1999/xlink">
<g id="graph0" class="graph" transform="scale(1 1) rotate(0) translate(4 114)">
<title>/data/Software/DAQ/CDAQ/Core/Include/StorageManager.h</title>
<polygon fill="white" stroke="none" points="-4,4 -4,-114 574,-114 574,4 -4,4"/>
<!-- Node1 -->
<g id="node1" class="node"><title>Node1</title>
<polygon fill="#bfbfbf" stroke="black" points="195,-68.5 195,-109.5 339,-109.5 339,-68.5 195,-68.5"/>
<text text-anchor="start" x="203" y="-97.5" font-family="Helvetica,sans-Serif" font-size="10.00">/data/Software/DAQ</text>
<text text-anchor="start" x="203" y="-86.5" font-family="Helvetica,sans-Serif" font-size="10.00">/CDAQ/Core/Include/Storage</text>
<text text-anchor="middle" x="267" y="-75.5" font-family="Helvetica,sans-Serif" font-size="10.00">Manager.h</text>
</g>
<!-- Node2 -->
<g id="node2" class="node"><title>Node2</title>
<g id="a_node2"><a xlink:href="_multi_d_a_q_8cpp.xhtml" target="_top" xlink:title="/data/Software/DAQ\l/CDAQ/Application/MultiDAQ.cpp">
<polygon fill="white" stroke="black" points="0,-1 0,-31 164,-31 164,-1 0,-1"/>
<text text-anchor="start" x="8" y="-19" font-family="Helvetica,sans-Serif" font-size="10.00">/data/Software/DAQ</text>
<text text-anchor="middle" x="82" y="-8" font-family="Helvetica,sans-Serif" font-size="10.00">/CDAQ/Application/MultiDAQ.cpp</text>
</a>
</g>
</g>
<!-- Node1&#45;&gt;Node2 -->
<g id="edge1" class="edge"><title>Node1&#45;&gt;Node2</title>
<path fill="none" stroke="midnightblue" d="M206.319,-64.7117C177.301,-53.5751 143.526,-40.6126 118.509,-31.0117"/>
<polygon fill="midnightblue" stroke="midnightblue" points="205.368,-68.0955 215.958,-68.411 207.876,-61.5603 205.368,-68.0955"/>
</g>
<!-- Node3 -->
<g id="node3" class="node"><title>Node3</title>
<g id="a_node3"><a xlink:href="_single_d_a_q_8cpp.xhtml" target="_top" xlink:title="/data/Software/DAQ\l/CDAQ/Application/SingleDAQ.cpp">
<polygon fill="white" stroke="black" points="182,-1 182,-31 352,-31 352,-1 182,-1"/>
<text text-anchor="start" x="190" y="-19" font-family="Helvetica,sans-Serif" font-size="10.00">/data/Software/DAQ</text>
<text text-anchor="middle" x="267" y="-8" font-family="Helvetica,sans-Serif" font-size="10.00">/CDAQ/Application/SingleDAQ.cpp</text>
</a>
</g>
</g>
<!-- Node1&#45;&gt;Node3 -->
<g id="edge2" class="edge"><title>Node1&#45;&gt;Node3</title>
<path fill="none" stroke="midnightblue" d="M267,-58.0188C267,-48.6567 267,-38.7696 267,-31.0485"/>
<polygon fill="midnightblue" stroke="midnightblue" points="263.5,-58.2225 267,-68.2225 270.5,-58.2226 263.5,-58.2225"/>
</g>
<!-- Node4 -->
<g id="node4" class="node"><title>Node4</title>
<g id="a_node4"><a xlink:href="_storage_manager_8cpp.xhtml" target="_top" xlink:title="/data/Software/DAQ\l/CDAQ/Core/Source/StorageManager.cpp">
<polygon fill="white" stroke="black" points="370,-1 370,-31 570,-31 570,-1 370,-1"/>
<text text-anchor="start" x="378" y="-19" font-family="Helvetica,sans-Serif" font-size="10.00">/data/Software/DAQ</text>
<text text-anchor="middle" x="470" y="-8" font-family="Helvetica,sans-Serif" font-size="10.00">/CDAQ/Core/Source/StorageManager.cpp</text>
</a>
</g>
</g>
<!-- Node1&#45;&gt;Node4 -->
<g id="edge3" class="edge"><title>Node1&#45;&gt;Node4</title>
<path fill="none" stroke="midnightblue" d="M332.755,-65.0018C364.781,-53.8008 402.249,-40.6961 429.938,-31.0117"/>
<polygon fill="midnightblue" stroke="midnightblue" points="331.292,-61.8057 323.008,-68.411 333.603,-68.4133 331.292,-61.8057"/>
</g>
</g>
</svg>
