<?xml version="1.0" encoding="UTF-8" standalone="no"?>
<!DOCTYPE svg PUBLIC "-//W3C//DTD SVG 1.1//EN"
 "http://www.w3.org/Graphics/SVG/1.1/DTD/svg11.dtd">
<!-- Generated by graphviz version 2.36.0 (20140111.2315)
 -->
<!-- Title: /data/Software/DAQ/CDAQ/Core/Include/StorageManager.h Pages: 1 -->
<svg width="1131pt" height="106pt"
 viewBox="0.00 0.00 1131.00 106.00" xmlns="http://www.w3.org/2000/svg" xmlns:xlink="http://www.w3.org/1999/xlink">
<g id="graph0" class="graph" transform="scale(1 1) rotate(0) translate(4 102)">
<title>/data/Software/DAQ/CDAQ/Core/Include/StorageManager.h</title>
<polygon fill="white" stroke="none" points="-4,4 -4,-102 1127,-102 1127,4 -4,4"/>
<!-- Node1 -->
<g id="node1" class="node"><title>Node1</title>
<polygon fill="#bfbfbf" stroke="black" points="462,-56.5 462,-97.5 606,-97.5 606,-56.5 462,-56.5"/>
<text text-anchor="start" x="470" y="-85.5" font-family="Helvetica,sans-Serif" font-size="10.00">/data/Software/DAQ</text>
<text text-anchor="start" x="470" y="-74.5" font-family="Helvetica,sans-Serif" font-size="10.00">/CDAQ/Core/Include/Storage</text>
<text text-anchor="middle" x="534" y="-63.5" font-family="Helvetica,sans-Serif" font-size="10.00">Manager.h</text>
</g>
<!-- Node2 -->
<g id="node2" class="node"><title>Node2</title>
<polygon fill="white" stroke="#bfbfbf" points="-0.5,-0.5 -0.5,-19.5 48.5,-19.5 48.5,-0.5 -0.5,-0.5"/>
<text text-anchor="middle" x="24" y="-7.5" font-family="Helvetica,sans-Serif" font-size="10.00">string.h</text>
</g>
<!-- Node1&#45;&gt;Node2 -->
<g id="edge1" class="edge"><title>Node1&#45;&gt;Node2</title>
<path fill="none" stroke="midnightblue" d="M461.745,-70.7047C370.153,-63.2777 207.344,-47.6934 58.9915,-19.9292"/>
<polygon fill="midnightblue" stroke="midnightblue" points="59.2662,-16.4191 48.7894,-17.9961 57.9629,-23.2967 59.2662,-16.4191"/>
</g>
<!-- Node3 -->
<g id="node3" class="node"><title>Node3</title>
<polygon fill="white" stroke="#bfbfbf" points="67,-0.5 67,-19.5 113,-19.5 113,-0.5 67,-0.5"/>
<text text-anchor="middle" x="90" y="-7.5" font-family="Helvetica,sans-Serif" font-size="10.00">stdio.h</text>
</g>
<!-- Node1&#45;&gt;Node3 -->
<g id="edge2" class="edge"><title>Node1&#45;&gt;Node3</title>
<path fill="none" stroke="midnightblue" d="M461.662,-69.2453C381.161,-61.0369 247.155,-45.3167 123.36,-20.0398"/>
<polygon fill="midnightblue" stroke="midnightblue" points="123.828,-16.5625 113.326,-17.9651 122.41,-23.4175 123.828,-16.5625"/>
</g>
<!-- Node4 -->
<g id="node4" class="node"><title>Node4</title>
<polygon fill="white" stroke="#bfbfbf" points="131,-0.5 131,-19.5 179,-19.5 179,-0.5 131,-0.5"/>
<text text-anchor="middle" x="155" y="-7.5" font-family="Helvetica,sans-Serif" font-size="10.00">stdlib.h</text>
</g>
<!-- Node1&#45;&gt;Node4 -->
<g id="edge3" class="edge"><title>Node1&#45;&gt;Node4</title>
<path fill="none" stroke="midnightblue" d="M461.683,-66.5674C393.658,-57.1782 288.838,-41.3845 189.031,-20.0342"/>
<polygon fill="midnightblue" stroke="midnightblue" points="189.592,-16.5747 179.078,-17.8829 188.113,-23.4167 189.592,-16.5747"/>
</g>
<!-- Node5 -->
<g id="node5" class="node"><title>Node5</title>
<polygon fill="white" stroke="#bfbfbf" points="197,-0.5 197,-19.5 241,-19.5 241,-0.5 197,-0.5"/>
<text text-anchor="middle" x="219" y="-7.5" font-family="Helvetica,sans-Serif" font-size="10.00">time.h</text>
</g>
<!-- Node1&#45;&gt;Node5 -->
<g id="edge4" class="edge"><title>Node1&#45;&gt;Node5</title>
<path fill="none" stroke="midnightblue" d="M461.836,-63.5794C406.568,-53.6507 328.277,-38.6907 251.173,-20.1263"/>
<polygon fill="midnightblue" stroke="midnightblue" points="251.832,-16.6847 241.288,-17.7247 250.179,-23.4868 251.832,-16.6847"/>
</g>
<!-- Node6 -->
<g id="node6" class="node"><title>Node6</title>
<polygon fill="white" stroke="#bfbfbf" points="259,-0.5 259,-19.5 303,-19.5 303,-0.5 259,-0.5"/>
<text text-anchor="middle" x="281" y="-7.5" font-family="Helvetica,sans-Serif" font-size="10.00">vector</text>
</g>
<!-- Node1&#45;&gt;Node6 -->
<g id="edge5" class="edge"><title>Node1&#45;&gt;Node6</title>
<path fill="none" stroke="midnightblue" d="M461.846,-58.4855C420.805,-48.3625 368.227,-35.1259 313.251,-20.2758"/>
<polygon fill="midnightblue" stroke="midnightblue" points="313.892,-16.8232 303.324,-17.5838 312.06,-23.5792 313.892,-16.8232"/>
</g>
<!-- Node7 -->
<g id="node7" class="node"><title>Node7</title>
<polygon fill="white" stroke="#bfbfbf" points="321,-0.5 321,-19.5 373,-19.5 373,-0.5 321,-0.5"/>
<text text-anchor="middle" x="347" y="-7.5" font-family="Helvetica,sans-Serif" font-size="10.00">memory</text>
</g>
<!-- Node1&#45;&gt;Node7 -->
<g id="edge6" class="edge"><title>Node1&#45;&gt;Node7</title>
<path fill="none" stroke="midnightblue" d="M477.894,-56.4979C446.604,-45.6218 408.625,-32.4206 381.654,-23.0455"/>
<polygon fill="midnightblue" stroke="midnightblue" points="382.487,-19.6298 371.893,-19.6525 380.189,-26.2418 382.487,-19.6298"/>
</g>
<!-- Node8 -->
<g id="node8" class="node"><title>Node8</title>
<polygon fill="white" stroke="#bfbfbf" points="391.5,-0.5 391.5,-19.5 442.5,-19.5 442.5,-0.5 391.5,-0.5"/>
<text text-anchor="middle" x="417" y="-7.5" font-family="Helvetica,sans-Serif" font-size="10.00">typeinfo</text>
</g>
<!-- Node1&#45;&gt;Node8 -->
<g id="edge7" class="edge"><title>Node1&#45;&gt;Node8</title>
<path fill="none" stroke="midnightblue" d="M498.896,-56.4979C480.44,-46.2447 458.265,-33.925 441.647,-24.6927"/>
<polygon fill="midnightblue" stroke="midnightblue" points="443.016,-21.4494 432.574,-19.6525 439.616,-27.5685 443.016,-21.4494"/>
</g>
<!-- Node9 -->
<g id="node9" class="node"><title>Node9</title>
<polygon fill="white" stroke="#bfbfbf" points="461,-0.5 461,-19.5 523,-19.5 523,-0.5 461,-0.5"/>
<text text-anchor="middle" x="492" y="-7.5" font-family="Helvetica,sans-Serif" font-size="10.00">common.h</text>
</g>
<!-- Node1&#45;&gt;Node9 -->
<g id="edge8" class="edge"><title>Node1&#45;&gt;Node9</title>
<path fill="none" stroke="midnightblue" d="M521.399,-56.4979C515.578,-47.4904 508.728,-36.8881 503.104,-28.1852"/>
<polygon fill="midnightblue" stroke="midnightblue" points="505.958,-26.1522 497.591,-19.6525 500.078,-29.9512 505.958,-26.1522"/>
</g>
<!-- Node10 -->
<g id="node10" class="node"><title>Node10</title>
<polygon fill="white" stroke="#bfbfbf" points="541.5,-0.5 541.5,-19.5 610.5,-19.5 610.5,-0.5 541.5,-0.5"/>
<text text-anchor="middle" x="576" y="-7.5" font-family="Helvetica,sans-Serif" font-size="10.00">xmlParser.h</text>
</g>
<!-- Node1&#45;&gt;Node10 -->
<g id="edge9" class="edge"><title>Node1&#45;&gt;Node10</title>
<path fill="none" stroke="midnightblue" d="M546.601,-56.4979C552.422,-47.4904 559.272,-36.8881 564.896,-28.1852"/>
<polygon fill="midnightblue" stroke="midnightblue" points="567.922,-29.9512 570.409,-19.6525 562.042,-26.1522 567.922,-29.9512"/>
</g>
<!-- Node11 -->
<g id="node11" class="node"><title>Node11</title>
<polygon fill="white" stroke="#bfbfbf" points="628.5,-0.5 628.5,-19.5 687.5,-19.5 687.5,-0.5 628.5,-0.5"/>
<text text-anchor="middle" x="658" y="-7.5" font-family="Helvetica,sans-Serif" font-size="10.00">TROOT.h</text>
</g>
<!-- Node1&#45;&gt;Node11 -->
<g id="edge10" class="edge"><title>Node1&#45;&gt;Node11</title>
<path fill="none" stroke="midnightblue" d="M571.204,-56.4979C590.947,-46.1488 614.706,-33.6946 632.371,-24.4346"/>
<polygon fill="midnightblue" stroke="midnightblue" points="634.262,-27.3952 641.494,-19.6525 631.012,-21.1954 634.262,-27.3952"/>
</g>
<!-- Node12 -->
<g id="node12" class="node"><title>Node12</title>
<polygon fill="white" stroke="#bfbfbf" points="705.5,-0.5 705.5,-19.5 770.5,-19.5 770.5,-0.5 705.5,-0.5"/>
<text text-anchor="middle" x="738" y="-7.5" font-family="Helvetica,sans-Serif" font-size="10.00">TSystem.h</text>
</g>
<!-- Node1&#45;&gt;Node12 -->
<g id="edge11" class="edge"><title>Node1&#45;&gt;Node12</title>
<path fill="none" stroke="midnightblue" d="M595.207,-56.4979C629.747,-45.4925 671.758,-32.1065 701.24,-22.7128"/>
<polygon fill="midnightblue" stroke="midnightblue" points="702.647,-25.9378 711.113,-19.5671 700.522,-19.2682 702.647,-25.9378"/>
</g>
<!-- Node13 -->
<g id="node13" class="node"><title>Node13</title>
<polygon fill="white" stroke="#bfbfbf" points="789,-0.5 789,-19.5 839,-19.5 839,-0.5 789,-0.5"/>
<text text-anchor="middle" x="814" y="-7.5" font-family="Helvetica,sans-Serif" font-size="10.00">TTree.h</text>
</g>
<!-- Node1&#45;&gt;Node13 -->
<g id="edge12" class="edge"><title>Node1&#45;&gt;Node13</title>
<path fill="none" stroke="midnightblue" d="M606.214,-60.0313C655.072,-49.0956 721.018,-34.0785 779,-20 779.099,-19.9759 779.198,-19.9518 779.298,-19.9277"/>
<polygon fill="midnightblue" stroke="midnightblue" points="779.924,-23.3785 788.785,-17.5703 778.236,-16.585 779.924,-23.3785"/>
</g>
<!-- Node14 -->
<g id="node14" class="node"><title>Node14</title>
<polygon fill="white" stroke="#bfbfbf" points="857.5,-0.5 857.5,-19.5 916.5,-19.5 916.5,-0.5 857.5,-0.5"/>
<text text-anchor="middle" x="887" y="-7.5" font-family="Helvetica,sans-Serif" font-size="10.00">TNtuple.h</text>
</g>
<!-- Node1&#45;&gt;Node14 -->
<g id="edge13" class="edge"><title>Node1&#45;&gt;Node14</title>
<path fill="none" stroke="midnightblue" d="M606.218,-64.1817C667.684,-53.8795 758.547,-38.0775 847.257,-20.0684"/>
<polygon fill="midnightblue" stroke="midnightblue" points="848.125,-23.4635 857.223,-18.034 846.725,-16.605 848.125,-23.4635"/>
</g>
<!-- Node15 -->
<g id="node15" class="node"><title>Node15</title>
<polygon fill="white" stroke="#bfbfbf" points="934.5,-0.5 934.5,-19.5 981.5,-19.5 981.5,-0.5 934.5,-0.5"/>
<text text-anchor="middle" x="958" y="-7.5" font-family="Helvetica,sans-Serif" font-size="10.00">TFile.h</text>
</g>
<!-- Node1&#45;&gt;Node15 -->
<g id="edge14" class="edge"><title>Node1&#45;&gt;Node15</title>
<path fill="none" stroke="midnightblue" d="M606.17,-68.3803C682.831,-59.6734 807.651,-43.7474 924.461,-19.8757"/>
<polygon fill="midnightblue" stroke="midnightblue" points="925.208,-23.2955 934.292,-17.8436 923.79,-16.4404 925.208,-23.2955"/>
</g>
<!-- Node16 -->
<g id="node16" class="node"><title>Node16</title>
<polygon fill="white" stroke="#bfbfbf" points="999.5,-0.5 999.5,-19.5 1048.5,-19.5 1048.5,-0.5 999.5,-0.5"/>
<text text-anchor="middle" x="1024" y="-7.5" font-family="Helvetica,sans-Serif" font-size="10.00">TRint.h</text>
</g>
<!-- Node1&#45;&gt;Node16 -->
<g id="edge15" class="edge"><title>Node1&#45;&gt;Node16</title>
<path fill="none" stroke="midnightblue" d="M606.346,-70.1892C694.562,-62.4165 848.268,-46.66 989.092,-19.9252"/>
<polygon fill="midnightblue" stroke="midnightblue" points="990.048,-23.3056 999.208,-17.9813 988.727,-16.4313 990.048,-23.3056"/>
</g>
<!-- Node17 -->
<g id="node17" class="node"><title>Node17</title>
<polygon fill="white" stroke="#bfbfbf" points="1066.5,-0.5 1066.5,-19.5 1123.5,-19.5 1123.5,-0.5 1066.5,-0.5"/>
<text text-anchor="middle" x="1095" y="-7.5" font-family="Helvetica,sans-Serif" font-size="10.00">pthread.h</text>
</g>
<!-- Node1&#45;&gt;Node17 -->
<g id="edge16" class="edge"><title>Node1&#45;&gt;Node17</title>
<path fill="none" stroke="midnightblue" d="M606.305,-71.1506C705.611,-63.8471 889.863,-47.9956 1056.51,-19.8657"/>
<polygon fill="midnightblue" stroke="midnightblue" points="1057.18,-23.3023 1066.45,-18.1699 1056,-16.402 1057.18,-23.3023"/>
</g>
</g>
</svg>
