<?xml version="1.0" encoding="UTF-8" standalone="no"?>
<!DOCTYPE svg PUBLIC "-//W3C//DTD SVG 1.1//EN"
 "http://www.w3.org/Graphics/SVG/1.1/DTD/svg11.dtd">
<!-- Generated by graphviz version 2.36.0 (20140111.2315)
 -->
<!-- Title: /data/Software/DAQ/XDAQ/Plugins/Include/keyb.h Pages: 1 -->
<svg width="1049pt" height="206pt"
 viewBox="0.00 0.00 1049.00 206.00" xmlns="http://www.w3.org/2000/svg" xmlns:xlink="http://www.w3.org/1999/xlink">
<g id="graph0" class="graph" transform="scale(1 1) rotate(0) translate(4 202)">
<title>/data/Software/DAQ/XDAQ/Plugins/Include/keyb.h</title>
<polygon fill="white" stroke="none" points="-4,4 -4,-202 1045,-202 1045,4 -4,4"/>
<!-- Node1 -->
<g id="node1" class="node"><title>Node1</title>
<polygon fill="#bfbfbf" stroke="black" points="531,-156.5 531,-197.5 649,-197.5 649,-156.5 531,-156.5"/>
<text text-anchor="start" x="539" y="-185.5" font-family="Helvetica,sans-Serif" font-size="10.00">/data/Software/DAQ</text>
<text text-anchor="start" x="539" y="-174.5" font-family="Helvetica,sans-Serif" font-size="10.00">/XDAQ/Plugins/Include</text>
<text text-anchor="middle" x="590" y="-163.5" font-family="Helvetica,sans-Serif" font-size="10.00">/keyb.h</text>
</g>
<!-- Node2 -->
<g id="node2" class="node"><title>Node2</title>
<g id="a_node2"><a xlink:href="_multi_d_a_q_8cpp.xhtml" target="_top" xlink:title="/data/Software/DAQ\l/CDAQ/Application/MultiDAQ.cpp">
<polygon fill="white" stroke="black" points="0,-84 0,-114 164,-114 164,-84 0,-84"/>
<text text-anchor="start" x="8" y="-102" font-family="Helvetica,sans-Serif" font-size="10.00">/data/Software/DAQ</text>
<text text-anchor="middle" x="82" y="-91" font-family="Helvetica,sans-Serif" font-size="10.00">/CDAQ/Application/MultiDAQ.cpp</text>
</a>
</g>
</g>
<!-- Node1&#45;&gt;Node2 -->
<g id="edge1" class="edge"><title>Node1&#45;&gt;Node2</title>
<path fill="none" stroke="midnightblue" d="M520.656,-168.469C437.683,-159.047 294.702,-141.508 173,-120 163.124,-118.255 152.694,-116.182 142.558,-114.042"/>
<polygon fill="midnightblue" stroke="midnightblue" points="520.389,-171.961 530.719,-169.605 521.174,-165.005 520.389,-171.961"/>
</g>
<!-- Node3 -->
<g id="node3" class="node"><title>Node3</title>
<g id="a_node3"><a xlink:href="_single_d_a_q_8cpp.xhtml" target="_top" xlink:title="/data/Software/DAQ\l/CDAQ/Application/SingleDAQ.cpp">
<polygon fill="white" stroke="black" points="182,-84 182,-114 352,-114 352,-84 182,-84"/>
<text text-anchor="start" x="190" y="-102" font-family="Helvetica,sans-Serif" font-size="10.00">/data/Software/DAQ</text>
<text text-anchor="middle" x="267" y="-91" font-family="Helvetica,sans-Serif" font-size="10.00">/CDAQ/Application/SingleDAQ.cpp</text>
</a>
</g>
</g>
<!-- Node1&#45;&gt;Node3 -->
<g id="edge2" class="edge"><title>Node1&#45;&gt;Node3</title>
<path fill="none" stroke="midnightblue" d="M520.982,-159.76C463.225,-146.171 381.665,-126.98 326.687,-114.044"/>
<polygon fill="midnightblue" stroke="midnightblue" points="520.221,-163.177 530.757,-162.06 521.824,-156.363 520.221,-163.177"/>
</g>
<!-- Node4 -->
<g id="node4" class="node"><title>Node4</title>
<g id="a_node4"><a xlink:href="_z_d_a_q_8cpp.xhtml" target="_top" xlink:title="/data/Software/DAQ\l/PDAQ/Application/ZDAQ.cpp">
<polygon fill="white" stroke="black" points="370.5,-84 370.5,-114 519.5,-114 519.5,-84 370.5,-84"/>
<text text-anchor="start" x="378.5" y="-102" font-family="Helvetica,sans-Serif" font-size="10.00">/data/Software/DAQ</text>
<text text-anchor="middle" x="445" y="-91" font-family="Helvetica,sans-Serif" font-size="10.00">/PDAQ/Application/ZDAQ.cpp</text>
</a>
</g>
</g>
<!-- Node1&#45;&gt;Node4 -->
<g id="edge3" class="edge"><title>Node1&#45;&gt;Node4</title>
<path fill="none" stroke="midnightblue" d="M543.529,-151.643C519.973,-139.296 492.189,-124.734 472.14,-114.225"/>
<polygon fill="midnightblue" stroke="midnightblue" points="542.177,-154.886 552.659,-156.428 545.427,-148.686 542.177,-154.886"/>
</g>
<!-- Node5 -->
<g id="node5" class="node"><title>Node5</title>
<g id="a_node5"><a xlink:href="_scaler_manager_8h.xhtml" target="_top" xlink:title="/data/Software/DAQ\l/Scaler/Core/Include\l/ScalerManager.h">
<polygon fill="white" stroke="black" points="537,-78.5 537,-119.5 643,-119.5 643,-78.5 537,-78.5"/>
<text text-anchor="start" x="545" y="-107.5" font-family="Helvetica,sans-Serif" font-size="10.00">/data/Software/DAQ</text>
<text text-anchor="start" x="545" y="-96.5" font-family="Helvetica,sans-Serif" font-size="10.00">/Scaler/Core/Include</text>
<text text-anchor="middle" x="590" y="-85.5" font-family="Helvetica,sans-Serif" font-size="10.00">/ScalerManager.h</text>
</a>
</g>
</g>
<!-- Node1&#45;&gt;Node5 -->
<g id="edge4" class="edge"><title>Node1&#45;&gt;Node5</title>
<path fill="none" stroke="midnightblue" d="M590,-146.297C590,-137.301 590,-127.653 590,-119.506"/>
<polygon fill="midnightblue" stroke="midnightblue" points="586.5,-146.428 590,-156.428 593.5,-146.428 586.5,-146.428"/>
</g>
<!-- Node8 -->
<g id="node8" class="node"><title>Node8</title>
<g id="a_node8"><a xlink:href="_scaler_manager_8cpp.xhtml" target="_top" xlink:title="/data/Software/DAQ\l/Scaler/Core/Source\l/ScalerManager.cpp">
<polygon fill="white" stroke="black" points="660.5,-0.5 660.5,-41.5 765.5,-41.5 765.5,-0.5 660.5,-0.5"/>
<text text-anchor="start" x="668.5" y="-29.5" font-family="Helvetica,sans-Serif" font-size="10.00">/data/Software/DAQ</text>
<text text-anchor="start" x="668.5" y="-18.5" font-family="Helvetica,sans-Serif" font-size="10.00">/Scaler/Core/Source</text>
<text text-anchor="middle" x="713" y="-7.5" font-family="Helvetica,sans-Serif" font-size="10.00">/ScalerManager.cpp</text>
</a>
</g>
</g>
<!-- Node1&#45;&gt;Node8 -->
<g id="edge9" class="edge"><title>Node1&#45;&gt;Node8</title>
<path fill="none" stroke="midnightblue" d="M621.988,-149.535C631.831,-140.652 642.344,-130.359 651,-120 671.914,-94.9726 691.187,-62.3762 702.52,-41.8126"/>
<polygon fill="midnightblue" stroke="midnightblue" points="619.469,-147.09 614.286,-156.331 624.101,-152.339 619.469,-147.09"/>
</g>
<!-- Node10 -->
<g id="node10" class="node"><title>Node10</title>
<g id="a_node10"><a xlink:href="_i_o_manager_8cpp.xhtml" target="_top" xlink:title="/data/Software/DAQ\l/Scaler/IO/Source/IOManager.cpp">
<polygon fill="white" stroke="black" points="699,-84 699,-114 863,-114 863,-84 699,-84"/>
<text text-anchor="start" x="707" y="-102" font-family="Helvetica,sans-Serif" font-size="10.00">/data/Software/DAQ</text>
<text text-anchor="middle" x="781" y="-91" font-family="Helvetica,sans-Serif" font-size="10.00">/Scaler/IO/Source/IOManager.cpp</text>
</a>
</g>
</g>
<!-- Node1&#45;&gt;Node10 -->
<g id="edge10" class="edge"><title>Node1&#45;&gt;Node10</title>
<path fill="none" stroke="midnightblue" d="M648.786,-152.609C680.434,-140.016 718.427,-124.898 745.548,-114.106"/>
<polygon fill="midnightblue" stroke="midnightblue" points="647.185,-149.479 639.187,-156.428 649.773,-155.983 647.185,-149.479"/>
</g>
<!-- Node11 -->
<g id="node11" class="node"><title>Node11</title>
<g id="a_node11"><a xlink:href="mini_d_a_x_8cpp.xhtml" target="_top" xlink:title="/data/Software/DAQ\l/XDAQ/Application/miniDAX.cpp">
<polygon fill="white" stroke="black" points="881,-84 881,-114 1041,-114 1041,-84 881,-84"/>
<text text-anchor="start" x="889" y="-102" font-family="Helvetica,sans-Serif" font-size="10.00">/data/Software/DAQ</text>
<text text-anchor="middle" x="961" y="-91" font-family="Helvetica,sans-Serif" font-size="10.00">/XDAQ/Application/miniDAX.cpp</text>
</a>
</g>
</g>
<!-- Node1&#45;&gt;Node11 -->
<g id="edge11" class="edge"><title>Node1&#45;&gt;Node11</title>
<path fill="none" stroke="midnightblue" d="M659.236,-162.752C716.383,-151.697 799.56,-135.33 872,-120 880.831,-118.131 890.142,-116.103 899.281,-114.079"/>
<polygon fill="midnightblue" stroke="midnightblue" points="658.387,-159.351 649.232,-164.684 659.714,-166.224 658.387,-159.351"/>
</g>
<!-- Node6 -->
<g id="node6" class="node"><title>Node6</title>
<g id="a_node6"><a xlink:href="scaler_8cpp.xhtml" target="_top" xlink:title="/data/Software/DAQ\l/Scaler/Application\l/scaler.cpp">
<polygon fill="white" stroke="black" points="263.5,-0.5 263.5,-41.5 368.5,-41.5 368.5,-0.5 263.5,-0.5"/>
<text text-anchor="start" x="271.5" y="-29.5" font-family="Helvetica,sans-Serif" font-size="10.00">/data/Software/DAQ</text>
<text text-anchor="start" x="271.5" y="-18.5" font-family="Helvetica,sans-Serif" font-size="10.00">/Scaler/Application</text>
<text text-anchor="middle" x="316" y="-7.5" font-family="Helvetica,sans-Serif" font-size="10.00">/scaler.cpp</text>
</a>
</g>
</g>
<!-- Node5&#45;&gt;Node6 -->
<g id="edge5" class="edge"><title>Node5&#45;&gt;Node6</title>
<path fill="none" stroke="midnightblue" d="M527.211,-77.8843C460.281,-59.5194 441.041,-59.7048 378,-42 374.951,-41.1437 371.828,-40.2355 368.682,-39.297"/>
<polygon fill="midnightblue" stroke="midnightblue" points="526.409,-81.294 536.981,-80.6026 528.285,-74.5502 526.409,-81.294"/>
</g>
<!-- Node7 -->
<g id="node7" class="node"><title>Node7</title>
<g id="a_node7"><a xlink:href="_scaler_2_core_2_include_2xml_8h.xhtml" target="_top" xlink:title="/data/Software/DAQ\l/Scaler/Core/Include/xml.h">
<polygon fill="white" stroke="black" points="386.5,-6 386.5,-36 519.5,-36 519.5,-6 386.5,-6"/>
<text text-anchor="start" x="394.5" y="-24" font-family="Helvetica,sans-Serif" font-size="10.00">/data/Software/DAQ</text>
<text text-anchor="middle" x="453" y="-13" font-family="Helvetica,sans-Serif" font-size="10.00">/Scaler/Core/Include/xml.h</text>
</a>
</g>
</g>
<!-- Node5&#45;&gt;Node7 -->
<g id="edge6" class="edge"><title>Node5&#45;&gt;Node7</title>
<path fill="none" stroke="midnightblue" d="M545.798,-73.479C523.604,-61.1674 497.502,-46.6871 478.643,-36.2254"/>
<polygon fill="midnightblue" stroke="midnightblue" points="544.277,-76.6377 554.719,-78.4281 547.672,-70.5164 544.277,-76.6377"/>
</g>
<!-- Node5&#45;&gt;Node8 -->
<g id="edge7" class="edge"><title>Node5&#45;&gt;Node8</title>
<path fill="none" stroke="midnightblue" d="M630.591,-72.9194C647.127,-62.702 665.952,-51.0701 681.432,-41.5056"/>
<polygon fill="midnightblue" stroke="midnightblue" points="628.343,-70.1942 621.676,-78.4281 632.022,-76.1491 628.343,-70.1942"/>
</g>
<!-- Node9 -->
<g id="node9" class="node"><title>Node9</title>
<g id="a_node9"><a xlink:href="_scaler_2_core_2_source_2xml_8cpp.xhtml" target="_top" xlink:title="/data/Software/DAQ\l/Scaler/Core/Source\l/xml.cpp">
<polygon fill="white" stroke="black" points="537.5,-0.5 537.5,-41.5 642.5,-41.5 642.5,-0.5 537.5,-0.5"/>
<text text-anchor="start" x="545.5" y="-29.5" font-family="Helvetica,sans-Serif" font-size="10.00">/data/Software/DAQ</text>
<text text-anchor="start" x="545.5" y="-18.5" font-family="Helvetica,sans-Serif" font-size="10.00">/Scaler/Core/Source</text>
<text text-anchor="middle" x="590" y="-7.5" font-family="Helvetica,sans-Serif" font-size="10.00">/xml.cpp</text>
</a>
</g>
</g>
<!-- Node5&#45;&gt;Node9 -->
<g id="edge8" class="edge"><title>Node5&#45;&gt;Node9</title>
<path fill="none" stroke="midnightblue" d="M590,-68.2965C590,-59.3009 590,-49.6532 590,-41.5056"/>
<polygon fill="midnightblue" stroke="midnightblue" points="586.5,-68.4281 590,-78.4281 593.5,-68.4281 586.5,-68.4281"/>
</g>
</g>
</svg>
