<?xml version="1.0" encoding="UTF-8" standalone="no"?>
<!DOCTYPE svg PUBLIC "-//W3C//DTD SVG 1.1//EN"
 "http://www.w3.org/Graphics/SVG/1.1/DTD/svg11.dtd">
<!-- Generated by graphviz version 2.36.0 (20140111.2315)
 -->
<!-- Title: xfopen Pages: 1 -->
<svg width="354pt" height="142pt"
 viewBox="0.00 0.00 354.00 142.00" xmlns="http://www.w3.org/2000/svg" xmlns:xlink="http://www.w3.org/1999/xlink">
<g id="graph0" class="graph" transform="scale(1 1) rotate(0) translate(4 138)">
<title>xfopen</title>
<polygon fill="white" stroke="none" points="-4,4 -4,-138 350,-138 350,4 -4,4"/>
<!-- Node1 -->
<g id="node1" class="node"><title>Node1</title>
<polygon fill="#bfbfbf" stroke="black" points="0,-57.5 0,-76.5 46,-76.5 46,-57.5 0,-57.5"/>
<text text-anchor="middle" x="23" y="-64.5" font-family="Helvetica,sans-Serif" font-size="10.00">xfopen</text>
</g>
<!-- Node2 -->
<g id="node2" class="node"><title>Node2</title>
<g id="a_node2"><a xlink:href="_x_d_a_q_2_plugins_2_source_2xml_parser_8cpp.xhtml#af77e3e2685487b9c492b20c36f3b864a" target="_top" xlink:title="_strnicmp">
<polygon fill="white" stroke="black" points="115.5,-114.5 115.5,-133.5 174.5,-133.5 174.5,-114.5 115.5,-114.5"/>
<text text-anchor="middle" x="145" y="-121.5" font-family="Helvetica,sans-Serif" font-size="10.00">_strnicmp</text>
</a>
</g>
</g>
<!-- Node1&#45;&gt;Node2 -->
<g id="edge1" class="edge"><title>Node1&#45;&gt;Node2</title>
<path fill="none" stroke="midnightblue" d="M48.2052,-81.8355C58.4477,-87.8319 70.6222,-94.5975 82,-100 93.1563,-105.297 105.818,-110.359 116.778,-114.457"/>
<polygon fill="midnightblue" stroke="midnightblue" points="49.8034,-78.7136 39.4203,-76.6059 46.2227,-84.7286 49.8034,-78.7136"/>
</g>
<!-- Node4 -->
<g id="node4" class="node"><title>Node4</title>
<g id="a_node4"><a xlink:href="_x_d_a_q_2_plugins_2_source_2xml_parser_8cpp.xhtml#ad9a5c911a8e21bb89427d29d33e2797e" target="_top" xlink:title="myIsTextWideChar">
<polygon fill="white" stroke="black" points="244.5,-76.5 244.5,-95.5 345.5,-95.5 345.5,-76.5 244.5,-76.5"/>
<text text-anchor="middle" x="295" y="-83.5" font-family="Helvetica,sans-Serif" font-size="10.00">myIsTextWideChar</text>
</a>
</g>
</g>
<!-- Node1&#45;&gt;Node4 -->
<g id="edge5" class="edge"><title>Node1&#45;&gt;Node4</title>
<path fill="none" stroke="midnightblue" d="M56.2308,-69.2681C102.87,-72.5501 189.58,-78.6519 244.404,-82.5099"/>
<polygon fill="midnightblue" stroke="midnightblue" points="56.3163,-65.7655 46.0952,-68.5548 55.8248,-72.7483 56.3163,-65.7655"/>
</g>
<!-- Node5 -->
<g id="node5" class="node"><title>Node5</title>
<g id="a_node5"><a xlink:href="_x_d_a_q_2_plugins_2_source_2xml_parser_8cpp.xhtml#ae6aa5a367ab3cc92b47fd92f81add72a" target="_top" xlink:title="CountLinesAndColumns">
<polygon fill="white" stroke="black" points="84,-38.5 84,-57.5 206,-57.5 206,-38.5 84,-38.5"/>
<text text-anchor="middle" x="145" y="-45.5" font-family="Helvetica,sans-Serif" font-size="10.00">CountLinesAndColumns</text>
</a>
</g>
</g>
<!-- Node1&#45;&gt;Node5 -->
<g id="edge4" class="edge"><title>Node1&#45;&gt;Node5</title>
<path fill="none" stroke="midnightblue" d="M55.9666,-61.9386C64.5891,-60.5734 74.2079,-59.0504 83.8325,-57.5265"/>
<polygon fill="midnightblue" stroke="midnightblue" points="55.3394,-58.4942 46.0098,-63.5151 56.4342,-65.4081 55.3394,-58.4942"/>
</g>
<!-- Node6 -->
<g id="node6" class="node"><title>Node6</title>
<g id="a_node6"><a xlink:href="_x_d_a_q_2_plugins_2_source_2xml_parser_8cpp.xhtml#ad7ec02a171e7641c1d364d5d367199a3" target="_top" xlink:title="myWideCharToMultiByte">
<polygon fill="white" stroke="black" points="82,-0.5 82,-19.5 208,-19.5 208,-0.5 82,-0.5"/>
<text text-anchor="middle" x="145" y="-7.5" font-family="Helvetica,sans-Serif" font-size="10.00">myWideCharToMultiByte</text>
</a>
</g>
</g>
<!-- Node1&#45;&gt;Node6 -->
<g id="edge6" class="edge"><title>Node1&#45;&gt;Node6</title>
<path fill="none" stroke="midnightblue" d="M44.5587,-51.4751C55.2899,-43.9144 68.888,-35.1518 82,-29 89.7459,-25.3658 98.357,-22.2149 106.637,-19.5805"/>
<polygon fill="midnightblue" stroke="midnightblue" points="42.34,-48.7604 36.2924,-57.4596 46.445,-54.4304 42.34,-48.7604"/>
</g>
<!-- Node3 -->
<g id="node3" class="node"><title>Node3</title>
<g id="a_node3"><a xlink:href="_x_d_a_q_2_plugins_2_source_2xml_parser_8cpp.xhtml#a9a625f17c09a36e3ad532cdf16072609" target="_top" xlink:title="charmemset">
<polygon fill="white" stroke="black" points="259.5,-114.5 259.5,-133.5 330.5,-133.5 330.5,-114.5 259.5,-114.5"/>
<text text-anchor="middle" x="295" y="-121.5" font-family="Helvetica,sans-Serif" font-size="10.00">charmemset</text>
</a>
</g>
</g>
<!-- Node2&#45;&gt;Node3 -->
<g id="edge2" class="edge"><title>Node2&#45;&gt;Node3</title>
<path fill="none" stroke="midnightblue" d="M184.689,-124C207.806,-124 236.929,-124 259.301,-124"/>
<polygon fill="midnightblue" stroke="midnightblue" points="184.536,-120.5 174.536,-124 184.536,-127.5 184.536,-120.5"/>
</g>
<!-- Node2&#45;&gt;Node4 -->
<g id="edge3" class="edge"><title>Node2&#45;&gt;Node4</title>
<path fill="none" stroke="midnightblue" d="M184.357,-114.151C206.696,-108.416 234.728,-101.218 256.856,-95.5369"/>
<polygon fill="midnightblue" stroke="midnightblue" points="183.351,-110.796 174.536,-116.673 185.092,-117.576 183.351,-110.796"/>
</g>
</g>
</svg>
