<?xml version="1.0" encoding="UTF-8" standalone="no"?>
<!DOCTYPE svg PUBLIC "-//W3C//DTD SVG 1.1//EN"
 "http://www.w3.org/Graphics/SVG/1.1/DTD/svg11.dtd">
<!-- Generated by graphviz version 2.36.0 (20140111.2315)
 -->
<!-- Title: /data/Software/DAQ/XDAQ/GUI/Include/xml.h Pages: 1 -->
<svg width="458pt" height="118pt"
 viewBox="0.00 0.00 458.00 118.00" xmlns="http://www.w3.org/2000/svg" xmlns:xlink="http://www.w3.org/1999/xlink">
<g id="graph0" class="graph" transform="scale(1 1) rotate(0) translate(4 114)">
<title>/data/Software/DAQ/XDAQ/GUI/Include/xml.h</title>
<polygon fill="white" stroke="none" points="-4,4 -4,-114 454,-114 454,4 -4,4"/>
<!-- Node1 -->
<g id="node1" class="node"><title>Node1</title>
<polygon fill="#bfbfbf" stroke="black" points="153.5,-79 153.5,-109 284.5,-109 284.5,-79 153.5,-79"/>
<text text-anchor="start" x="161.5" y="-97" font-family="Helvetica,sans-Serif" font-size="10.00">/data/Software/DAQ</text>
<text text-anchor="middle" x="219" y="-86" font-family="Helvetica,sans-Serif" font-size="10.00">/XDAQ/GUI/Include/xml.h</text>
</g>
<!-- Node2 -->
<g id="node2" class="node"><title>Node2</title>
<g id="a_node2"><a xlink:href="_z_d_a_q_8cpp.xhtml" target="_top" xlink:title="/data/Software/DAQ\l/PDAQ/Application/ZDAQ.cpp">
<polygon fill="white" stroke="black" points="-0.5,-6 -0.5,-36 148.5,-36 148.5,-6 -0.5,-6"/>
<text text-anchor="start" x="7.5" y="-24" font-family="Helvetica,sans-Serif" font-size="10.00">/data/Software/DAQ</text>
<text text-anchor="middle" x="74" y="-13" font-family="Helvetica,sans-Serif" font-size="10.00">/PDAQ/Application/ZDAQ.cpp</text>
</a>
</g>
</g>
<!-- Node1&#45;&gt;Node2 -->
<g id="edge1" class="edge"><title>Node1&#45;&gt;Node2</title>
<path fill="none" stroke="midnightblue" d="M181.365,-74.5717C156.943,-62.6135 125.594,-47.2632 103.084,-36.2412"/>
<polygon fill="midnightblue" stroke="midnightblue" points="179.832,-77.7184 190.353,-78.9727 182.911,-71.4316 179.832,-77.7184"/>
</g>
<!-- Node3 -->
<g id="node3" class="node"><title>Node3</title>
<g id="a_node3"><a xlink:href="scaler_8cpp.xhtml" target="_top" xlink:title="/data/Software/DAQ\l/Scaler/Application\l/scaler.cpp">
<polygon fill="white" stroke="black" points="166.5,-0.5 166.5,-41.5 271.5,-41.5 271.5,-0.5 166.5,-0.5"/>
<text text-anchor="start" x="174.5" y="-29.5" font-family="Helvetica,sans-Serif" font-size="10.00">/data/Software/DAQ</text>
<text text-anchor="start" x="174.5" y="-18.5" font-family="Helvetica,sans-Serif" font-size="10.00">/Scaler/Application</text>
<text text-anchor="middle" x="219" y="-7.5" font-family="Helvetica,sans-Serif" font-size="10.00">/scaler.cpp</text>
</a>
</g>
</g>
<!-- Node1&#45;&gt;Node3 -->
<g id="edge2" class="edge"><title>Node1&#45;&gt;Node3</title>
<path fill="none" stroke="midnightblue" d="M219,-68.8534C219,-59.9872 219,-50.065 219,-41.642"/>
<polygon fill="midnightblue" stroke="midnightblue" points="215.5,-68.9727 219,-78.9727 222.5,-68.9727 215.5,-68.9727"/>
</g>
<!-- Node4 -->
<g id="node4" class="node"><title>Node4</title>
<g id="a_node4"><a xlink:href="mini_d_a_x_8cpp.xhtml" target="_top" xlink:title="/data/Software/DAQ\l/XDAQ/Application/miniDAX.cpp">
<polygon fill="white" stroke="black" points="290,-6 290,-36 450,-36 450,-6 290,-6"/>
<text text-anchor="start" x="298" y="-24" font-family="Helvetica,sans-Serif" font-size="10.00">/data/Software/DAQ</text>
<text text-anchor="middle" x="370" y="-13" font-family="Helvetica,sans-Serif" font-size="10.00">/XDAQ/Application/miniDAX.cpp</text>
</a>
</g>
</g>
<!-- Node1&#45;&gt;Node4 -->
<g id="edge3" class="edge"><title>Node1&#45;&gt;Node4</title>
<path fill="none" stroke="midnightblue" d="M257.887,-74.7152C283.457,-62.6925 316.418,-47.194 339.971,-36.1195"/>
<polygon fill="midnightblue" stroke="midnightblue" points="256.393,-71.5502 248.833,-78.9727 259.372,-77.8849 256.393,-71.5502"/>
</g>
</g>
</svg>
