<?xml version="1.0" encoding="UTF-8" standalone="no"?>
<!DOCTYPE svg PUBLIC "-//W3C//DTD SVG 1.1//EN"
 "http://www.w3.org/Graphics/SVG/1.1/DTD/svg11.dtd">
<!-- Generated by graphviz version 2.36.0 (20140111.2315)
 -->
<!-- Title: xml_readsettings Pages: 1 -->
<svg width="880pt" height="868pt"
 viewBox="0.00 0.00 880.00 868.00" xmlns="http://www.w3.org/2000/svg" xmlns:xlink="http://www.w3.org/1999/xlink">
<g id="graph0" class="graph" transform="scale(1 1) rotate(0) translate(4 863.998)">
<title>xml_readsettings</title>
<polygon fill="white" stroke="none" points="-4,4 -4,-863.998 876,-863.998 876,4 -4,4"/>
<!-- Node1 -->
<g id="node1" class="node"><title>Node1</title>
<polygon fill="#bfbfbf" stroke="black" points="0.5,-688.498 0.5,-707.498 91.5,-707.498 91.5,-688.498 0.5,-688.498"/>
<text text-anchor="middle" x="46" y="-695.498" font-family="Helvetica,sans-Serif" font-size="10.00">xml_readsettings</text>
</g>
<!-- Node2 -->
<g id="node2" class="node"><title>Node2</title>
<g id="a_node2"><a xlink:href="_core_2_include_2adc_8h.xhtml#ab2c5b38244f3ea85067f83b5d94409f7" target="_top" xlink:title="adc_writereg">
<polygon fill="white" stroke="black" points="158,-840.498 158,-859.498 230,-859.498 230,-840.498 158,-840.498"/>
<text text-anchor="middle" x="194" y="-847.498" font-family="Helvetica,sans-Serif" font-size="10.00">adc_writereg</text>
</a>
</g>
</g>
<!-- Node1&#45;&gt;Node2 -->
<g id="edge1" class="edge"><title>Node1&#45;&gt;Node2</title>
<path fill="none" stroke="midnightblue" d="M50.1264,-707.715C58.5338,-732.276 84.016,-797.277 128,-830.998 133.901,-835.522 140.855,-838.971 147.98,-841.599"/>
<polygon fill="midnightblue" stroke="midnightblue" points="147.129,-845.001 157.719,-844.698 149.251,-838.331 147.129,-845.001"/>
</g>
<!-- Node3 -->
<g id="node3" class="node"><title>Node3</title>
<g id="a_node3"><a xlink:href="_core_2_include_2control_8h.xhtml#a870a5f7c8f98fa5b52edfc9210ac20ac" target="_top" xlink:title="control_getadc">
<polygon fill="white" stroke="black" points="154,-802.498 154,-821.498 234,-821.498 234,-802.498 154,-802.498"/>
<text text-anchor="middle" x="194" y="-809.498" font-family="Helvetica,sans-Serif" font-size="10.00">control_getadc</text>
</a>
</g>
</g>
<!-- Node1&#45;&gt;Node3 -->
<g id="edge2" class="edge"><title>Node1&#45;&gt;Node3</title>
<path fill="none" stroke="midnightblue" d="M52.5622,-707.696C64.0951,-726.931 92.522,-770.028 128,-792.998 132.995,-796.232 138.555,-798.929 144.262,-801.177"/>
<polygon fill="midnightblue" stroke="midnightblue" points="143.336,-804.56 153.931,-804.549 145.641,-797.951 143.336,-804.56"/>
</g>
<!-- Node4 -->
<g id="node4" class="node"><title>Node4</title>
<g id="a_node4"><a xlink:href="_core_2_include_2control_8h.xhtml#a48a6baefa46edb93b59bb0f76385052a" target="_top" xlink:title="errormsg">
<polygon fill="white" stroke="black" points="166.5,-764.498 166.5,-783.498 221.5,-783.498 221.5,-764.498 166.5,-764.498"/>
<text text-anchor="middle" x="194" y="-771.498" font-family="Helvetica,sans-Serif" font-size="10.00">errormsg</text>
</a>
</g>
</g>
<!-- Node1&#45;&gt;Node4 -->
<g id="edge3" class="edge"><title>Node1&#45;&gt;Node4</title>
<path fill="none" stroke="midnightblue" d="M58.0531,-707.585C72.9919,-720.1 100.888,-741.942 128,-754.998 136.962,-759.314 147.101,-762.852 156.659,-765.656"/>
<polygon fill="midnightblue" stroke="midnightblue" points="155.766,-769.04 166.335,-768.313 157.619,-762.29 155.766,-769.04"/>
</g>
<!-- Node5 -->
<g id="node5" class="node"><title>Node5</title>
<g id="a_node5"><a xlink:href="struct_x_m_l_node.xhtml#aa07572a057ce7ffc8843e468d952f490" target="_top" xlink:title="XMLNode::getAttribute">
<polygon fill="white" stroke="black" points="136,-726.498 136,-745.498 252,-745.498 252,-726.498 136,-726.498"/>
<text text-anchor="middle" x="194" y="-733.498" font-family="Helvetica,sans-Serif" font-size="10.00">XMLNode::getAttribute</text>
</a>
</g>
</g>
<!-- Node1&#45;&gt;Node5 -->
<g id="edge4" class="edge"><title>Node1&#45;&gt;Node5</title>
<path fill="none" stroke="midnightblue" d="M83.842,-707.587C102.848,-712.534 126.229,-718.619 146.469,-723.887"/>
<polygon fill="midnightblue" stroke="midnightblue" points="145.864,-727.346 156.423,-726.478 147.627,-720.572 145.864,-727.346"/>
</g>
<!-- Node6 -->
<g id="node6" class="node"><title>Node6</title>
<g id="a_node6"><a xlink:href="struct_x_m_l_node.xhtml#a77a21438b6d48a52cf8a1270f82f4475" target="_top" xlink:title="XMLNode::getChildNode">
<polygon fill="white" stroke="black" points="638.5,-707.498 638.5,-726.498 763.5,-726.498 763.5,-707.498 638.5,-707.498"/>
<text text-anchor="middle" x="701" y="-714.498" font-family="Helvetica,sans-Serif" font-size="10.00">XMLNode::getChildNode</text>
</a>
</g>
</g>
<!-- Node1&#45;&gt;Node6 -->
<g id="edge5" class="edge"><title>Node1&#45;&gt;Node6</title>
<path fill="none" stroke="midnightblue" d="M91.6263,-699.296C202.765,-702.53 492.699,-710.966 628.227,-714.909"/>
<polygon fill="midnightblue" stroke="midnightblue" points="628.401,-718.416 638.499,-715.208 628.605,-711.419 628.401,-718.416"/>
</g>
<!-- Node7 -->
<g id="node7" class="node"><title>Node7</title>
<g id="a_node7"><a xlink:href="struct_x_m_l_node.xhtml#aeb607292b18d4615b7c169c7c08c0a8b" target="_top" xlink:title="XMLNode::getText">
<polygon fill="white" stroke="black" points="144.5,-650.498 144.5,-669.498 243.5,-669.498 243.5,-650.498 144.5,-650.498"/>
<text text-anchor="middle" x="194" y="-657.498" font-family="Helvetica,sans-Serif" font-size="10.00">XMLNode::getText</text>
</a>
</g>
</g>
<!-- Node1&#45;&gt;Node7 -->
<g id="edge6" class="edge"><title>Node1&#45;&gt;Node7</title>
<path fill="none" stroke="midnightblue" d="M83.842,-688.409C102.848,-683.462 126.229,-677.377 146.469,-672.109"/>
<polygon fill="midnightblue" stroke="midnightblue" points="147.627,-675.424 156.423,-669.518 145.864,-668.65 147.627,-675.424"/>
</g>
<!-- Node8 -->
<g id="node8" class="node"><title>Node8</title>
<g id="a_node8"><a xlink:href="struct_x_m_l_node.xhtml#a8e52198f258167cd796dae21f1ffc352" target="_top" xlink:title="XMLNode::nChildNode">
<polygon fill="white" stroke="black" points="642.5,-631.498 642.5,-650.498 759.5,-650.498 759.5,-631.498 642.5,-631.498"/>
<text text-anchor="middle" x="701" y="-638.498" font-family="Helvetica,sans-Serif" font-size="10.00">XMLNode::nChildNode</text>
</a>
</g>
</g>
<!-- Node1&#45;&gt;Node8 -->
<g id="edge7" class="edge"><title>Node1&#45;&gt;Node8</title>
<path fill="none" stroke="midnightblue" d="M56.3759,-688.38C70.4343,-674.725 98.4918,-650.34 128,-640.998 308.04,-584 536.235,-611.683 641.693,-629.69"/>
<polygon fill="midnightblue" stroke="midnightblue" points="641.362,-633.185 651.814,-631.453 642.563,-626.289 641.362,-633.185"/>
</g>
<!-- Node10 -->
<g id="node10" class="node"><title>Node10</title>
<g id="a_node10"><a xlink:href="struct_x_m_l_node.xhtml#acc044148e2b9b8264a320b7b6e398158" target="_top" xlink:title="XMLNode::openFileHelper">
<polygon fill="white" stroke="black" points="128.5,-223.498 128.5,-242.498 259.5,-242.498 259.5,-223.498 128.5,-223.498"/>
<text text-anchor="middle" x="194" y="-230.498" font-family="Helvetica,sans-Serif" font-size="10.00">XMLNode::openFileHelper</text>
</a>
</g>
</g>
<!-- Node1&#45;&gt;Node10 -->
<g id="edge9" class="edge"><title>Node1&#45;&gt;Node10</title>
<path fill="none" stroke="midnightblue" d="M50.0494,-688.286C68.1964,-630.489 162.022,-331.66 186.926,-252.344"/>
<polygon fill="midnightblue" stroke="midnightblue" points="190.311,-253.246 189.967,-242.657 183.632,-251.149 190.311,-253.246"/>
</g>
<!-- Node31 -->
<g id="node31" class="node"><title>Node31</title>
<g id="a_node31"><a xlink:href="_p_d_a_q_2_core_2_source_2xml_8cpp.xhtml#a294ca441881dbf9ed73205366e498465" target="_top" xlink:title="xml_error">
<polygon fill="white" stroke="black" points="165.5,-185.498 165.5,-204.498 222.5,-204.498 222.5,-185.498 165.5,-185.498"/>
<text text-anchor="middle" x="194" y="-192.498" font-family="Helvetica,sans-Serif" font-size="10.00">xml_error</text>
</a>
</g>
</g>
<!-- Node1&#45;&gt;Node31 -->
<g id="edge49" class="edge"><title>Node1&#45;&gt;Node31</title>
<path fill="none" stroke="midnightblue" d="M47.26,-688.383C49.1154,-626.814 62.2399,-288.057 128,-213.998 135.026,-206.086 145.145,-201.388 155.315,-198.623"/>
<polygon fill="midnightblue" stroke="midnightblue" points="156.349,-201.981 165.388,-196.455 154.876,-195.138 156.349,-201.981"/>
</g>
<!-- Node9 -->
<g id="node9" class="node"><title>Node9</title>
<g id="a_node9"><a xlink:href="_c_d_a_q_2_plugins_2_source_2xml_parser_8cpp.xhtml#a2e64ea95685df2d289c31a50419b532d" target="_top" xlink:title="xstricmp">
<polygon fill="white" stroke="black" points="809,-498.498 809,-517.498 863,-517.498 863,-498.498 809,-498.498"/>
<text text-anchor="middle" x="836" y="-505.498" font-family="Helvetica,sans-Serif" font-size="10.00">xstricmp</text>
</a>
</g>
</g>
<!-- Node8&#45;&gt;Node9 -->
<g id="edge8" class="edge"><title>Node8&#45;&gt;Node9</title>
<path fill="none" stroke="midnightblue" d="M746.926,-631.496C753.018,-629.022 758.913,-625.91 764,-621.998 796.507,-596.999 817.859,-552.543 828.041,-527.163"/>
<polygon fill="midnightblue" stroke="midnightblue" points="831.409,-528.157 831.721,-517.567 824.873,-525.651 831.409,-528.157"/>
</g>
<!-- Node11 -->
<g id="node11" class="node"><title>Node11</title>
<g id="a_node11"><a xlink:href="_c_d_a_q_2_plugins_2_source_2xml_parser_8cpp.xhtml#a8dd6e6cada28ea03e5cacd075b1be7f6" target="_top" xlink:title="xfopen">
<polygon fill="white" stroke="black" points="813,-99.4978 813,-118.498 859,-118.498 859,-99.4978 813,-99.4978"/>
<text text-anchor="middle" x="836" y="-106.498" font-family="Helvetica,sans-Serif" font-size="10.00">xfopen</text>
</a>
</g>
</g>
<!-- Node10&#45;&gt;Node11 -->
<g id="edge10" class="edge"><title>Node10&#45;&gt;Node11</title>
<path fill="none" stroke="midnightblue" d="M244.514,-223.447C250.115,-220.985 255.439,-217.89 260,-213.998 288.432,-189.737 268.359,-163.155 296,-137.998 415.573,-29.1702 478.747,-41.924 638,-13.9978 693.158,-4.3254 713.933,11.0883 764,-13.9978 795.608,-29.8354 816.756,-67.1646 827.256,-90.0312"/>
<polygon fill="midnightblue" stroke="midnightblue" points="824.13,-91.6188 831.331,-99.3906 830.548,-88.8247 824.13,-91.6188"/>
</g>
<!-- Node12 -->
<g id="node12" class="node"><title>Node12</title>
<g id="a_node12"><a xlink:href="struct_x_m_l_node.xhtml#a006cabe59176e05bc5a3f06c0cf6d8c1" target="_top" xlink:title="XMLNode::setGlobalOptions">
<polygon fill="white" stroke="black" points="302.5,-147.498 302.5,-166.498 443.5,-166.498 443.5,-147.498 302.5,-147.498"/>
<text text-anchor="middle" x="373" y="-154.498" font-family="Helvetica,sans-Serif" font-size="10.00">XMLNode::setGlobalOptions</text>
</a>
</g>
</g>
<!-- Node10&#45;&gt;Node12 -->
<g id="edge11" class="edge"><title>Node10&#45;&gt;Node12</title>
<path fill="none" stroke="midnightblue" d="M239.35,-223.468C246.533,-220.971 253.679,-217.859 260,-213.998 279.853,-201.87 275.912,-187.733 296,-175.998 299.87,-173.737 304.003,-171.744 308.267,-169.986"/>
<polygon fill="midnightblue" stroke="midnightblue" points="309.578,-173.233 317.76,-166.503 307.166,-166.662 309.578,-173.233"/>
</g>
<!-- Node13 -->
<g id="node13" class="node"><title>Node13</title>
<g id="a_node13"><a xlink:href="struct_x_m_l_node.xhtml#ac7af7e3bab8d21722dd4f191a4aa7c1d" target="_top" xlink:title="XMLNode::guessCharEncoding">
<polygon fill="white" stroke="black" points="296,-185.498 296,-204.498 450,-204.498 450,-185.498 296,-185.498"/>
<text text-anchor="middle" x="373" y="-192.498" font-family="Helvetica,sans-Serif" font-size="10.00">XMLNode::guessCharEncoding</text>
</a>
</g>
</g>
<!-- Node10&#45;&gt;Node13 -->
<g id="edge12" class="edge"><title>Node10&#45;&gt;Node13</title>
<path fill="none" stroke="midnightblue" d="M239.665,-223.409C263.337,-218.327 292.608,-212.042 317.597,-206.677"/>
<polygon fill="midnightblue" stroke="midnightblue" points="318.614,-210.039 327.657,-204.518 317.145,-203.195 318.614,-210.039"/>
</g>
<!-- Node23 -->
<g id="node23" class="node"><title>Node23</title>
<g id="a_node23"><a xlink:href="struct_x_m_l_node.xhtml#a5e5968e052d58350918cd91e3535624b" target="_top" xlink:title="XMLNode::parseFile">
<polygon fill="white" stroke="black" points="320,-261.498 320,-280.498 426,-280.498 426,-261.498 320,-261.498"/>
<text text-anchor="middle" x="373" y="-268.498" font-family="Helvetica,sans-Serif" font-size="10.00">XMLNode::parseFile</text>
</a>
</g>
</g>
<!-- Node10&#45;&gt;Node23 -->
<g id="edge33" class="edge"><title>Node10&#45;&gt;Node23</title>
<path fill="none" stroke="midnightblue" d="M239.665,-242.587C263.337,-247.669 292.608,-253.953 317.597,-259.318"/>
<polygon fill="midnightblue" stroke="midnightblue" points="317.145,-262.801 327.657,-261.478 318.614,-255.957 317.145,-262.801"/>
</g>
<!-- Node30 -->
<g id="node30" class="node"><title>Node30</title>
<g id="a_node30"><a xlink:href="struct_x_m_l_node.xhtml#a4496629c7a268db5435946c7bdd4eb28" target="_top" xlink:title="XMLNode::getError">
<polygon fill="white" stroke="black" points="322.5,-223.498 322.5,-242.498 423.5,-242.498 423.5,-223.498 322.5,-223.498"/>
<text text-anchor="middle" x="373" y="-230.498" font-family="Helvetica,sans-Serif" font-size="10.00">XMLNode::getError</text>
</a>
</g>
</g>
<!-- Node10&#45;&gt;Node30 -->
<g id="edge47" class="edge"><title>Node10&#45;&gt;Node30</title>
<path fill="none" stroke="midnightblue" d="M259.652,-232.998C276.826,-232.998 295.295,-232.998 312.198,-232.998"/>
<polygon fill="midnightblue" stroke="midnightblue" points="312.494,-236.498 322.494,-232.998 312.494,-229.498 312.494,-236.498"/>
</g>
<!-- Node14 -->
<g id="node14" class="node"><title>Node14</title>
<g id="a_node14"><a xlink:href="_c_d_a_q_2_plugins_2_source_2xml_parser_8cpp.xhtml#ad9a5c911a8e21bb89427d29d33e2797e" target="_top" xlink:title="myIsTextWideChar">
<polygon fill="white" stroke="black" points="493.5,-223.498 493.5,-242.498 594.5,-242.498 594.5,-223.498 493.5,-223.498"/>
<text text-anchor="middle" x="544" y="-230.498" font-family="Helvetica,sans-Serif" font-size="10.00">myIsTextWideChar</text>
</a>
</g>
</g>
<!-- Node13&#45;&gt;Node14 -->
<g id="edge13" class="edge"><title>Node13&#45;&gt;Node14</title>
<path fill="none" stroke="midnightblue" d="M416.646,-204.587C439.148,-209.647 466.948,-215.897 490.738,-221.247"/>
<polygon fill="midnightblue" stroke="midnightblue" points="490.137,-224.699 500.661,-223.478 491.672,-217.869 490.137,-224.699"/>
</g>
<!-- Node15 -->
<g id="node15" class="node"><title>Node15</title>
<g id="a_node15"><a xlink:href="_c_d_a_q_2_plugins_2_source_2xml_parser_8cpp.xhtml#af77e3e2685487b9c492b20c36f3b864a" target="_top" xlink:title="_strnicmp">
<polygon fill="white" stroke="black" points="671.5,-23.4978 671.5,-42.4978 730.5,-42.4978 730.5,-23.4978 671.5,-23.4978"/>
<text text-anchor="middle" x="701" y="-30.4978" font-family="Helvetica,sans-Serif" font-size="10.00">_strnicmp</text>
</a>
</g>
</g>
<!-- Node13&#45;&gt;Node15 -->
<g id="edge32" class="edge"><title>Node13&#45;&gt;Node15</title>
<path fill="none" stroke="midnightblue" d="M429.655,-185.457C436.795,-182.994 443.775,-179.895 450,-175.998 471.126,-162.771 466.444,-148.45 486,-132.998 545.262,-86.1715 568.927,-87.5535 638,-56.9978 646.436,-53.2659 655.648,-49.525 664.328,-46.1445"/>
<polygon fill="midnightblue" stroke="midnightblue" points="665.749,-49.3482 673.834,-42.5005 663.243,-42.812 665.749,-49.3482"/>
</g>
<!-- Node16 -->
<g id="node16" class="node"><title>Node16</title>
<g id="a_node16"><a xlink:href="_c_d_a_q_2_plugins_2_source_2xml_parser_8cpp.xhtml#ae4635e3ac4b32772021240a9c16864ee" target="_top" xlink:title="mmin">
<polygon fill="white" stroke="black" points="680.5,-99.4978 680.5,-118.498 721.5,-118.498 721.5,-99.4978 680.5,-99.4978"/>
<text text-anchor="middle" x="701" y="-106.498" font-family="Helvetica,sans-Serif" font-size="10.00">mmin</text>
</a>
</g>
</g>
<!-- Node13&#45;&gt;Node16 -->
<g id="edge31" class="edge"><title>Node13&#45;&gt;Node16</title>
<path fill="none" stroke="midnightblue" d="M412.695,-185.458C424.665,-182.471 437.887,-179.135 450,-175.998 529.871,-155.313 623.777,-129.833 670.496,-117.078"/>
<polygon fill="midnightblue" stroke="midnightblue" points="671.537,-120.422 680.261,-114.409 669.692,-113.669 671.537,-120.422"/>
</g>
<!-- Node14&#45;&gt;Node9 -->
<g id="edge26" class="edge"><title>Node14&#45;&gt;Node9</title>
<path fill="none" stroke="midnightblue" d="M549.832,-242.57C562.138,-266.312 596.631,-329.018 638,-370.998 690.923,-424.702 767.482,-470.947 807.803,-493.437"/>
<polygon fill="midnightblue" stroke="midnightblue" points="806.323,-496.618 816.771,-498.379 809.702,-490.487 806.323,-496.618"/>
</g>
<!-- Node14&#45;&gt;Node11 -->
<g id="edge24" class="edge"><title>Node14&#45;&gt;Node11</title>
<path fill="none" stroke="midnightblue" d="M567.274,-223.474C618.408,-201.609 744.338,-147.764 803.427,-122.498"/>
<polygon fill="midnightblue" stroke="midnightblue" points="804.831,-125.704 812.65,-118.554 802.079,-119.268 804.831,-125.704"/>
</g>
<!-- Node14&#45;&gt;Node15 -->
<g id="edge14" class="edge"><title>Node14&#45;&gt;Node15</title>
<path fill="none" stroke="midnightblue" d="M550.124,-223.404C563.095,-199.544 598.987,-136.127 638,-89.9978 650.702,-74.9785 667.176,-60.0035 679.95,-49.1741"/>
<polygon fill="midnightblue" stroke="midnightblue" points="682.285,-51.7843 687.733,-42.6974 677.807,-46.4037 682.285,-51.7843"/>
</g>
<!-- Node14&#45;&gt;Node16 -->
<g id="edge15" class="edge"><title>Node14&#45;&gt;Node16</title>
<path fill="none" stroke="midnightblue" d="M551.592,-223.389C565.452,-203.834 599.53,-159.063 638,-132.998 647.95,-126.257 660.063,-121.029 670.933,-117.198"/>
<polygon fill="midnightblue" stroke="midnightblue" points="672.058,-120.513 680.469,-114.07 669.876,-113.862 672.058,-120.513"/>
</g>
<!-- Node17 -->
<g id="node17" class="node"><title>Node17</title>
<g id="a_node17"><a xlink:href="_c_d_a_q_2_plugins_2_source_2xml_parser_8cpp.xhtml#ad7ec02a171e7641c1d364d5d367199a3" target="_top" xlink:title="myWideCharToMultiByte">
<polygon fill="white" stroke="black" points="638,-289.498 638,-308.498 764,-308.498 764,-289.498 638,-289.498"/>
<text text-anchor="middle" x="701" y="-296.498" font-family="Helvetica,sans-Serif" font-size="10.00">myWideCharToMultiByte</text>
</a>
</g>
</g>
<!-- Node14&#45;&gt;Node17 -->
<g id="edge16" class="edge"><title>Node14&#45;&gt;Node17</title>
<path fill="none" stroke="midnightblue" d="M565.543,-242.666C584.293,-251.398 612.837,-264.455 638,-274.998 646.585,-278.595 655.915,-282.308 664.667,-285.706"/>
<polygon fill="midnightblue" stroke="midnightblue" points="663.643,-289.062 674.233,-289.386 666.157,-282.529 663.643,-289.062"/>
</g>
<!-- Node18 -->
<g id="node18" class="node"><title>Node18</title>
<g id="a_node18"><a xlink:href="_c_d_a_q_2_plugins_2_source_2xml_parser_8cpp.xhtml#a73c2349b2f386ee50130a3961bd2dbab" target="_top" xlink:title="xstrcpy">
<polygon fill="white" stroke="black" points="811.5,-308.498 811.5,-327.498 860.5,-327.498 860.5,-308.498 811.5,-308.498"/>
<text text-anchor="middle" x="836" y="-315.498" font-family="Helvetica,sans-Serif" font-size="10.00">xstrcpy</text>
</a>
</g>
</g>
<!-- Node14&#45;&gt;Node18 -->
<g id="edge25" class="edge"><title>Node14&#45;&gt;Node18</title>
<path fill="none" stroke="midnightblue" d="M551.552,-242.547C565.09,-261.324 598.237,-302.564 638,-317.998 692.115,-339.002 761.067,-332.155 801.396,-325.155"/>
<polygon fill="midnightblue" stroke="midnightblue" points="802.047,-328.594 811.249,-323.341 800.78,-321.709 802.047,-328.594"/>
</g>
<!-- Node19 -->
<g id="node19" class="node"><title>Node19</title>
<g id="a_node19"><a xlink:href="_c_d_a_q_2_plugins_2_source_2xml_parser_8cpp.xhtml#a49fa66f65d2d28ce7b7e0b1752425915" target="_top" xlink:title="xstrlen">
<polygon fill="white" stroke="black" points="813,-365.498 813,-384.498 859,-384.498 859,-365.498 813,-365.498"/>
<text text-anchor="middle" x="836" y="-372.498" font-family="Helvetica,sans-Serif" font-size="10.00">xstrlen</text>
</a>
</g>
</g>
<!-- Node14&#45;&gt;Node19 -->
<g id="edge27" class="edge"><title>Node14&#45;&gt;Node19</title>
<path fill="none" stroke="midnightblue" d="M550.256,-242.634C562.501,-264.073 595.174,-315.729 638,-339.998 690.156,-369.554 761.52,-375.166 802.491,-375.686"/>
<polygon fill="midnightblue" stroke="midnightblue" points="802.701,-379.186 812.712,-375.716 802.722,-372.186 802.701,-379.186"/>
</g>
<!-- Node20 -->
<g id="node20" class="node"><title>Node20</title>
<g id="a_node20"><a xlink:href="_c_d_a_q_2_plugins_2_source_2xml_parser_8cpp.xhtml#a3165858f70cd74ffab31ebc2ddc9e104" target="_top" xlink:title="xstrncmp">
<polygon fill="white" stroke="black" points="807.5,-251.498 807.5,-270.498 864.5,-270.498 864.5,-251.498 807.5,-251.498"/>
<text text-anchor="middle" x="836" y="-258.498" font-family="Helvetica,sans-Serif" font-size="10.00">xstrncmp</text>
</a>
</g>
</g>
<!-- Node14&#45;&gt;Node20 -->
<g id="edge28" class="edge"><title>Node14&#45;&gt;Node20</title>
<path fill="none" stroke="midnightblue" d="M594.712,-237.812C608.713,-239.167 623.953,-240.641 638,-241.998 693.413,-247.351 757.594,-253.539 797.249,-257.361"/>
<polygon fill="midnightblue" stroke="midnightblue" points="796.979,-260.851 807.269,-258.326 797.651,-253.883 796.979,-260.851"/>
</g>
<!-- Node21 -->
<g id="node21" class="node"><title>Node21</title>
<g id="a_node21"><a xlink:href="_c_d_a_q_2_plugins_2_source_2xml_parser_8cpp.xhtml#a17c9570640aed10b61deec9047cb0940" target="_top" xlink:title="xstrnicmp">
<polygon fill="white" stroke="black" points="806.5,-213.498 806.5,-232.498 865.5,-232.498 865.5,-213.498 806.5,-213.498"/>
<text text-anchor="middle" x="836" y="-220.498" font-family="Helvetica,sans-Serif" font-size="10.00">xstrnicmp</text>
</a>
</g>
</g>
<!-- Node14&#45;&gt;Node21 -->
<g id="edge29" class="edge"><title>Node14&#45;&gt;Node21</title>
<path fill="none" stroke="midnightblue" d="M594.523,-231.29C651.581,-229.323 744.144,-226.131 796.219,-224.335"/>
<polygon fill="midnightblue" stroke="midnightblue" points="796.507,-227.827 806.381,-223.985 796.266,-220.832 796.507,-227.827"/>
</g>
<!-- Node22 -->
<g id="node22" class="node"><title>Node22</title>
<g id="a_node22"><a xlink:href="_c_d_a_q_2_plugins_2_source_2xml_parser_8cpp.xhtml#a696ca59a310359980c57de039f137697" target="_top" xlink:title="xstrstr">
<polygon fill="white" stroke="black" points="814,-175.498 814,-194.498 858,-194.498 858,-175.498 814,-175.498"/>
<text text-anchor="middle" x="836" y="-182.498" font-family="Helvetica,sans-Serif" font-size="10.00">xstrstr</text>
</a>
</g>
</g>
<!-- Node14&#45;&gt;Node22 -->
<g id="edge30" class="edge"><title>Node14&#45;&gt;Node22</title>
<path fill="none" stroke="midnightblue" d="M594.523,-224.801C654.482,-214.877 753.65,-198.463 803.84,-190.155"/>
<polygon fill="midnightblue" stroke="midnightblue" points="804.48,-193.597 813.774,-188.511 803.337,-186.691 804.48,-193.597"/>
</g>
<!-- Node17&#45;&gt;Node9 -->
<g id="edge19" class="edge"><title>Node17&#45;&gt;Node9</title>
<path fill="none" stroke="midnightblue" d="M708.06,-308.521C728.659,-340.891 796.204,-447.033 823.451,-489.85"/>
<polygon fill="midnightblue" stroke="midnightblue" points="820.582,-491.861 828.904,-498.419 826.488,-488.103 820.582,-491.861"/>
</g>
<!-- Node17&#45;&gt;Node11 -->
<g id="edge17" class="edge"><title>Node17&#45;&gt;Node11</title>
<path fill="none" stroke="midnightblue" d="M708.778,-289.315C729.851,-259.211 794.459,-166.913 822.165,-127.333"/>
<polygon fill="midnightblue" stroke="midnightblue" points="825.208,-129.089 828.076,-118.89 819.474,-125.075 825.208,-129.089"/>
</g>
<!-- Node17&#45;&gt;Node18 -->
<g id="edge18" class="edge"><title>Node17&#45;&gt;Node18</title>
<path fill="none" stroke="midnightblue" d="M764.217,-307.886C776.922,-309.701 789.838,-311.546 801.097,-313.154"/>
<polygon fill="midnightblue" stroke="midnightblue" points="800.928,-316.666 811.323,-314.615 801.918,-309.736 800.928,-316.666"/>
</g>
<!-- Node17&#45;&gt;Node19 -->
<g id="edge20" class="edge"><title>Node17&#45;&gt;Node19</title>
<path fill="none" stroke="midnightblue" d="M718.845,-308.623C741.729,-321.7 782.842,-345.194 809.514,-360.434"/>
<polygon fill="midnightblue" stroke="midnightblue" points="807.873,-363.528 818.292,-365.451 811.346,-357.45 807.873,-363.528"/>
</g>
<!-- Node17&#45;&gt;Node20 -->
<g id="edge21" class="edge"><title>Node17&#45;&gt;Node20</title>
<path fill="none" stroke="midnightblue" d="M735.562,-289.409C754.434,-284.017 778.042,-277.271 797.519,-271.707"/>
<polygon fill="midnightblue" stroke="midnightblue" points="798.627,-275.03 807.281,-268.918 796.704,-268.3 798.627,-275.03"/>
</g>
<!-- Node17&#45;&gt;Node21 -->
<g id="edge22" class="edge"><title>Node17&#45;&gt;Node21</title>
<path fill="none" stroke="midnightblue" d="M718.215,-289.37C737.582,-277.917 771.003,-258.296 800,-241.998 802.686,-240.488 805.497,-238.928 808.309,-237.382"/>
<polygon fill="midnightblue" stroke="midnightblue" points="810.038,-240.425 817.139,-232.563 806.684,-234.281 810.038,-240.425"/>
</g>
<!-- Node17&#45;&gt;Node22 -->
<g id="edge23" class="edge"><title>Node17&#45;&gt;Node22</title>
<path fill="none" stroke="midnightblue" d="M710.188,-289.489C726.159,-271.32 763.144,-231.074 800,-203.998 802.048,-202.494 804.229,-201.03 806.463,-199.625"/>
<polygon fill="midnightblue" stroke="midnightblue" points="808.296,-202.608 815.171,-194.547 804.769,-196.561 808.296,-202.608"/>
</g>
<!-- Node23&#45;&gt;Node11 -->
<g id="edge34" class="edge"><title>Node23&#45;&gt;Node11</title>
<path fill="none" stroke="midnightblue" d="M426.242,-262.129C434.507,-259.559 442.719,-256.251 450,-251.998 470.088,-240.263 468.952,-229.828 486,-213.998 549.889,-154.675 555.87,-119.249 638,-89.9978 693.682,-70.1664 763.485,-85.5669 803.289,-97.8042"/>
<polygon fill="midnightblue" stroke="midnightblue" points="802.381,-101.189 812.972,-100.903 804.515,-94.5215 802.381,-101.189"/>
</g>
<!-- Node23&#45;&gt;Node14 -->
<g id="edge35" class="edge"><title>Node23&#45;&gt;Node14</title>
<path fill="none" stroke="midnightblue" d="M416.646,-261.409C439.148,-256.349 466.948,-250.098 490.738,-244.749"/>
<polygon fill="midnightblue" stroke="midnightblue" points="491.672,-248.126 500.661,-242.518 490.137,-241.297 491.672,-248.126"/>
</g>
<!-- Node23&#45;&gt;Node17 -->
<g id="edge36" class="edge"><title>Node23&#45;&gt;Node17</title>
<path fill="none" stroke="midnightblue" d="M426.016,-275.465C480.592,-280.153 566.78,-287.556 627.9,-292.805"/>
<polygon fill="midnightblue" stroke="midnightblue" points="627.602,-296.292 637.865,-293.661 628.202,-289.318 627.602,-296.292"/>
</g>
<!-- Node24 -->
<g id="node24" class="node"><title>Node24</title>
<g id="a_node24"><a xlink:href="struct_x_m_l_node.xhtml#acb95f4f00e4cf3756aac0e3a53765248" target="_top" xlink:title="XMLNode::parseString">
<polygon fill="white" stroke="black" points="486,-555.498 486,-574.498 602,-574.498 602,-555.498 486,-555.498"/>
<text text-anchor="middle" x="544" y="-562.498" font-family="Helvetica,sans-Serif" font-size="10.00">XMLNode::parseString</text>
</a>
</g>
</g>
<!-- Node23&#45;&gt;Node24 -->
<g id="edge37" class="edge"><title>Node23&#45;&gt;Node24</title>
<path fill="none" stroke="midnightblue" d="M379.623,-280.78C403.936,-323.076 500.245,-490.62 532.449,-546.643"/>
<polygon fill="midnightblue" stroke="midnightblue" points="529.509,-548.551 537.527,-555.477 535.578,-545.063 529.509,-548.551"/>
</g>
<!-- Node24&#45;&gt;Node6 -->
<g id="edge40" class="edge"><title>Node24&#45;&gt;Node6</title>
<path fill="none" stroke="midnightblue" d="M549.041,-574.684C559.754,-599.172 591.294,-664.017 638,-697.998 640.64,-699.919 643.478,-701.648 646.434,-703.205"/>
<polygon fill="midnightblue" stroke="midnightblue" points="645.03,-706.411 655.581,-707.376 647.935,-700.042 645.03,-706.411"/>
</g>
<!-- Node24&#45;&gt;Node8 -->
<g id="edge38" class="edge"><title>Node24&#45;&gt;Node8</title>
<path fill="none" stroke="midnightblue" d="M558.267,-574.627C575.793,-586.988 607.962,-608.453 638,-621.998 643.003,-624.254 648.349,-626.34 653.726,-628.238"/>
<polygon fill="midnightblue" stroke="midnightblue" points="652.777,-631.611 663.37,-631.45 654.988,-624.969 652.777,-631.611"/>
</g>
<!-- Node24&#45;&gt;Node9 -->
<g id="edge43" class="edge"><title>Node24&#45;&gt;Node9</title>
<path fill="none" stroke="midnightblue" d="M602.434,-566.279C647.307,-565.796 710.774,-561.822 764,-545.998 781.313,-540.851 799.233,-531.221 812.739,-522.944"/>
<polygon fill="midnightblue" stroke="midnightblue" points="814.751,-525.813 821.322,-517.502 811.002,-519.901 814.751,-525.813"/>
</g>
<!-- Node24&#45;&gt;Node19 -->
<g id="edge42" class="edge"><title>Node24&#45;&gt;Node19</title>
<path fill="none" stroke="midnightblue" d="M552.55,-555.29C567.331,-536.78 601.815,-495.977 638,-469.998 691.456,-431.618 762.824,-401.663 803.35,-386.316"/>
<polygon fill="midnightblue" stroke="midnightblue" points="804.812,-389.507 812.959,-382.733 802.367,-382.948 804.812,-389.507"/>
</g>
<!-- Node25 -->
<g id="node25" class="node"><title>Node25</title>
<g id="a_node25"><a xlink:href="struct_x_m_l_node.xhtml#a8e9538deb9144dcab39b3a510a8202f1" target="_top" xlink:title="XMLNode::nElement">
<polygon fill="white" stroke="black" points="647.5,-517.498 647.5,-536.498 754.5,-536.498 754.5,-517.498 647.5,-517.498"/>
<text text-anchor="middle" x="701" y="-524.498" font-family="Helvetica,sans-Serif" font-size="10.00">XMLNode::nElement</text>
</a>
</g>
</g>
<!-- Node24&#45;&gt;Node25 -->
<g id="edge39" class="edge"><title>Node24&#45;&gt;Node25</title>
<path fill="none" stroke="midnightblue" d="M584.113,-555.409C604.475,-550.417 629.566,-544.265 651.189,-538.964"/>
<polygon fill="midnightblue" stroke="midnightblue" points="652.289,-542.298 661.168,-536.518 650.622,-535.5 652.289,-542.298"/>
</g>
<!-- Node26 -->
<g id="node26" class="node"><title>Node26</title>
<g id="a_node26"><a xlink:href="struct_x_m_l_node.xhtml#a7e07715aa0ed894da96bd66c90d423f0" target="_top" xlink:title="XMLNode::getName">
<polygon fill="white" stroke="black" points="648,-479.498 648,-498.498 754,-498.498 754,-479.498 648,-479.498"/>
<text text-anchor="middle" x="701" y="-486.498" font-family="Helvetica,sans-Serif" font-size="10.00">XMLNode::getName</text>
</a>
</g>
</g>
<!-- Node24&#45;&gt;Node26 -->
<g id="edge41" class="edge"><title>Node24&#45;&gt;Node26</title>
<path fill="none" stroke="midnightblue" d="M558.267,-555.369C575.793,-543.007 607.962,-521.542 638,-507.998 643.003,-505.742 648.349,-503.656 653.726,-501.758"/>
<polygon fill="midnightblue" stroke="midnightblue" points="654.988,-505.026 663.37,-498.546 652.777,-498.385 654.988,-505.026"/>
</g>
<!-- Node27 -->
<g id="node27" class="node"><title>Node27</title>
<g id="a_node27"><a xlink:href="struct_x_m_l_node.xhtml#a71df27d54a2dc09b0a456406a7e8c6d3" target="_top" xlink:title="XMLNode::isDeclaration">
<polygon fill="white" stroke="black" points="639.5,-593.498 639.5,-612.498 762.5,-612.498 762.5,-593.498 639.5,-593.498"/>
<text text-anchor="middle" x="701" y="-600.498" font-family="Helvetica,sans-Serif" font-size="10.00">XMLNode::isDeclaration</text>
</a>
</g>
</g>
<!-- Node24&#45;&gt;Node27 -->
<g id="edge44" class="edge"><title>Node24&#45;&gt;Node27</title>
<path fill="none" stroke="midnightblue" d="M584.113,-574.587C604.475,-579.579 629.566,-585.73 651.189,-591.031"/>
<polygon fill="midnightblue" stroke="midnightblue" points="650.622,-594.496 661.168,-593.478 652.289,-587.697 650.622,-594.496"/>
</g>
<!-- Node28 -->
<g id="node28" class="node"><title>Node28</title>
<g id="a_node28"><a xlink:href="_c_d_a_q_2_plugins_2_source_2xml_parser_8cpp.xhtml#ae6aa5a367ab3cc92b47fd92f81add72a" target="_top" xlink:title="CountLinesAndColumns">
<polygon fill="white" stroke="black" points="640,-669.498 640,-688.498 762,-688.498 762,-669.498 640,-669.498"/>
<text text-anchor="middle" x="701" y="-676.498" font-family="Helvetica,sans-Serif" font-size="10.00">CountLinesAndColumns</text>
</a>
</g>
</g>
<!-- Node24&#45;&gt;Node28 -->
<g id="edge45" class="edge"><title>Node24&#45;&gt;Node28</title>
<path fill="none" stroke="midnightblue" d="M551.776,-574.624C565.718,-593.727 599.553,-636.6 638,-659.998 641.419,-662.078 645.083,-663.947 648.86,-665.624"/>
<polygon fill="midnightblue" stroke="midnightblue" points="647.814,-668.974 658.4,-669.404 650.393,-662.466 647.814,-668.974"/>
</g>
<!-- Node29 -->
<g id="node29" class="node"><title>Node29</title>
<g id="a_node29"><a xlink:href="_c_d_a_q_2_plugins_2_source_2xml_parser_8cpp.xhtml#af03c1c87ed4ddb95f7b49d53d9117c53" target="_top" xlink:title="getNextChar">
<polygon fill="white" stroke="black" points="800,-669.498 800,-688.498 872,-688.498 872,-669.498 800,-669.498"/>
<text text-anchor="middle" x="836" y="-676.498" font-family="Helvetica,sans-Serif" font-size="10.00">getNextChar</text>
</a>
</g>
</g>
<!-- Node28&#45;&gt;Node29 -->
<g id="edge46" class="edge"><title>Node28&#45;&gt;Node29</title>
<path fill="none" stroke="midnightblue" d="M762.274,-678.998C771.462,-678.998 780.811,-678.998 789.609,-678.998"/>
<polygon fill="midnightblue" stroke="midnightblue" points="789.642,-682.498 799.642,-678.998 789.642,-675.498 789.642,-682.498"/>
</g>
<!-- Node30&#45;&gt;Node14 -->
<g id="edge48" class="edge"><title>Node30&#45;&gt;Node14</title>
<path fill="none" stroke="midnightblue" d="M423.792,-232.998C442.361,-232.998 463.638,-232.998 483.028,-232.998"/>
<polygon fill="midnightblue" stroke="midnightblue" points="483.273,-236.498 493.273,-232.998 483.273,-229.498 483.273,-236.498"/>
</g>
</g>
</svg>
