<?xml version="1.0" encoding="UTF-8" standalone="no"?>
<!DOCTYPE svg PUBLIC "-//W3C//DTD SVG 1.1//EN"
 "http://www.w3.org/Graphics/SVG/1.1/DTD/svg11.dtd">
<!-- Generated by graphviz version 2.36.0 (20140111.2315)
 -->
<!-- Title: xstrstr Pages: 1 -->
<svg width="214pt" height="104pt"
 viewBox="0.00 0.00 214.00 104.00" xmlns="http://www.w3.org/2000/svg" xmlns:xlink="http://www.w3.org/1999/xlink">
<g id="graph0" class="graph" transform="scale(1 1) rotate(0) translate(4 100)">
<title>xstrstr</title>
<polygon fill="white" stroke="none" points="-4,4 -4,-100 210,-100 210,4 -4,4"/>
<!-- Node1 -->
<g id="node1" class="node"><title>Node1</title>
<polygon fill="#bfbfbf" stroke="black" points="0,-38.5 0,-57.5 44,-57.5 44,-38.5 0,-38.5"/>
<text text-anchor="middle" x="22" y="-45.5" font-family="Helvetica,sans-Serif" font-size="10.00">xstrstr</text>
</g>
<!-- Node2 -->
<g id="node2" class="node"><title>Node2</title>
<g id="a_node2"><a xlink:href="_x_d_a_q_2_plugins_2_source_2xml_parser_8cpp.xhtml#ad9a5c911a8e21bb89427d29d33e2797e" target="_top" xlink:title="myIsTextWideChar">
<polygon fill="white" stroke="black" points="92.5,-76.5 92.5,-95.5 193.5,-95.5 193.5,-76.5 92.5,-76.5"/>
<text text-anchor="middle" x="143" y="-83.5" font-family="Helvetica,sans-Serif" font-size="10.00">myIsTextWideChar</text>
</a>
</g>
</g>
<!-- Node1&#45;&gt;Node2 -->
<g id="edge1" class="edge"><title>Node1&#45;&gt;Node2</title>
<path fill="none" stroke="midnightblue" d="M53.6462,-58.3679C62.1656,-61.2085 71.4308,-64.2592 80,-67 89.865,-70.1552 100.647,-73.4965 110.413,-76.4826"/>
<polygon fill="midnightblue" stroke="midnightblue" points="54.6678,-55.019 44.074,-55.1609 52.444,-61.6564 54.6678,-55.019"/>
</g>
<!-- Node3 -->
<g id="node3" class="node"><title>Node3</title>
<g id="a_node3"><a xlink:href="_x_d_a_q_2_plugins_2_source_2xml_parser_8cpp.xhtml#a8415cb910267a0487e1003a34069d012" target="_top" xlink:title="myRealloc">
<polygon fill="white" stroke="black" points="111.5,-38.5 111.5,-57.5 174.5,-57.5 174.5,-38.5 111.5,-38.5"/>
<text text-anchor="middle" x="143" y="-45.5" font-family="Helvetica,sans-Serif" font-size="10.00">myRealloc</text>
</a>
</g>
</g>
<!-- Node1&#45;&gt;Node3 -->
<g id="edge2" class="edge"><title>Node1&#45;&gt;Node3</title>
<path fill="none" stroke="midnightblue" d="M54.343,-48C71.9667,-48 93.8739,-48 111.379,-48"/>
<polygon fill="midnightblue" stroke="midnightblue" points="54.0009,-44.5001 44.0009,-48 54.0008,-51.5001 54.0009,-44.5001"/>
</g>
<!-- Node4 -->
<g id="node4" class="node"><title>Node4</title>
<g id="a_node4"><a xlink:href="_x_d_a_q_2_plugins_2_source_2xml_parser_8cpp.xhtml#ad7ec02a171e7641c1d364d5d367199a3" target="_top" xlink:title="myWideCharToMultiByte">
<polygon fill="white" stroke="black" points="80,-0.5 80,-19.5 206,-19.5 206,-0.5 80,-0.5"/>
<text text-anchor="middle" x="143" y="-7.5" font-family="Helvetica,sans-Serif" font-size="10.00">myWideCharToMultiByte</text>
</a>
</g>
</g>
<!-- Node1&#45;&gt;Node4 -->
<g id="edge3" class="edge"><title>Node1&#45;&gt;Node4</title>
<path fill="none" stroke="midnightblue" d="M53.6462,-37.6321C62.1656,-34.7915 71.4308,-31.7408 80,-29 89.865,-25.8448 100.647,-22.5035 110.413,-19.5174"/>
<polygon fill="midnightblue" stroke="midnightblue" points="52.444,-34.3436 44.074,-40.8391 54.6678,-40.981 52.444,-34.3436"/>
</g>
</g>
</svg>
