<?xml version="1.0" encoding="UTF-8" standalone="no"?>
<!DOCTYPE svg PUBLIC "-//W3C//DTD SVG 1.1//EN"
 "http://www.w3.org/Graphics/SVG/1.1/DTD/svg11.dtd">
<!-- Generated by graphviz version 2.36.0 (20140111.2315)
 -->
<!-- Title: stringDup Pages: 1 -->
<svg width="490pt" height="522pt"
 viewBox="0.00 0.00 490.00 522.32" xmlns="http://www.w3.org/2000/svg" xmlns:xlink="http://www.w3.org/1999/xlink">
<g id="graph0" class="graph" transform="scale(1 1) rotate(0) translate(4 518.316)">
<title>stringDup</title>
<polygon fill="white" stroke="none" points="-4,4 -4,-518.316 486,-518.316 486,4 -4,4"/>
<!-- Node1 -->
<g id="node1" class="node"><title>Node1</title>
<polygon fill="#bfbfbf" stroke="black" points="0.5,-247.816 0.5,-266.816 59.5,-266.816 59.5,-247.816 0.5,-247.816"/>
<text text-anchor="middle" x="30" y="-254.816" font-family="Helvetica,sans-Serif" font-size="10.00">stringDup</text>
</g>
<!-- Node2 -->
<g id="node2" class="node"><title>Node2</title>
<g id="a_node2"><a xlink:href="struct_x_m_l_node.xhtml#a7938c43648ce7ed32efc9f0a5e3b5d2c" target="_top" xlink:title="XMLNode::addAttribute">
<polygon fill="white" stroke="black" points="121.5,-342.816 121.5,-361.816 240.5,-361.816 240.5,-342.816 121.5,-342.816"/>
<text text-anchor="middle" x="181" y="-349.816" font-family="Helvetica,sans-Serif" font-size="10.00">XMLNode::addAttribute</text>
</a>
</g>
</g>
<!-- Node1&#45;&gt;Node2 -->
<g id="edge1" class="edge"><title>Node1&#45;&gt;Node2</title>
<path fill="none" stroke="midnightblue" d="M43.3523,-275.76C55.0823,-291.891 74.1385,-314.795 96,-328.316 106.19,-334.618 118.091,-339.317 129.675,-342.8"/>
<polygon fill="midnightblue" stroke="midnightblue" points="45.9338,-273.345 37.3266,-267.167 40.2025,-277.364 45.9338,-273.345"/>
</g>
<!-- Node3 -->
<g id="node3" class="node"><title>Node3</title>
<g id="a_node3"><a xlink:href="_p_d_a_q_2_core_2_source_2xml_parser_8cpp.xhtml#a9a625f17c09a36e3ad532cdf16072609" target="_top" xlink:title="charmemset">
<polygon fill="white" stroke="black" points="306.5,-323.816 306.5,-342.816 377.5,-342.816 377.5,-323.816 306.5,-323.816"/>
<text text-anchor="middle" x="342" y="-330.816" font-family="Helvetica,sans-Serif" font-size="10.00">charmemset</text>
</a>
</g>
</g>
<!-- Node1&#45;&gt;Node3 -->
<g id="edge9" class="edge"><title>Node1&#45;&gt;Node3</title>
<path fill="none" stroke="midnightblue" d="M52.7491,-272.817C64.9201,-280.757 80.6884,-289.875 96,-295.316 167.991,-320.9 257.934,-329.274 306.325,-332.005"/>
<polygon fill="midnightblue" stroke="midnightblue" points="54.4574,-269.748 44.2103,-267.055 50.5418,-275.55 54.4574,-269.748"/>
</g>
<!-- Node4 -->
<g id="node4" class="node"><title>Node4</title>
<g id="a_node4"><a xlink:href="struct_x_m_l_node.xhtml#a51baa56a48f69cdea6f41ed38a2cbadd" target="_top" xlink:title="XMLNode::addChild">
<polygon fill="white" stroke="black" points="129,-266.816 129,-285.816 233,-285.816 233,-266.816 129,-266.816"/>
<text text-anchor="middle" x="181" y="-273.816" font-family="Helvetica,sans-Serif" font-size="10.00">XMLNode::addChild</text>
</a>
</g>
</g>
<!-- Node1&#45;&gt;Node4 -->
<g id="edge3" class="edge"><title>Node1&#45;&gt;Node4</title>
<path fill="none" stroke="midnightblue" d="M69.8521,-262.27C87.8335,-264.563 109.44,-267.318 128.736,-269.779"/>
<polygon fill="midnightblue" stroke="midnightblue" points="70.0911,-258.772 59.7287,-260.979 69.2056,-265.716 70.0911,-258.772"/>
</g>
<!-- Node5 -->
<g id="node5" class="node"><title>Node5</title>
<g id="a_node5"><a xlink:href="struct_x_m_l_node.xhtml#ab933d009523f94a4fd1dee09e1a3c931" target="_top" xlink:title="XMLNode::addClear">
<polygon fill="white" stroke="black" points="128.5,-228.816 128.5,-247.816 233.5,-247.816 233.5,-228.816 128.5,-228.816"/>
<text text-anchor="middle" x="181" y="-235.816" font-family="Helvetica,sans-Serif" font-size="10.00">XMLNode::addClear</text>
</a>
</g>
</g>
<!-- Node1&#45;&gt;Node5 -->
<g id="edge5" class="edge"><title>Node1&#45;&gt;Node5</title>
<path fill="none" stroke="midnightblue" d="M69.8063,-252.367C87.7037,-250.085 109.2,-247.344 128.436,-244.891"/>
<polygon fill="midnightblue" stroke="midnightblue" points="69.2056,-248.916 59.7287,-253.652 70.0911,-255.859 69.2056,-248.916"/>
</g>
<!-- Node6 -->
<g id="node6" class="node"><title>Node6</title>
<g id="a_node6"><a xlink:href="struct_x_m_l_node.xhtml#a1de718e237befa215381d294fc644f11" target="_top" xlink:title="XMLNode::addText">
<polygon fill="white" stroke="black" points="130.5,-152.816 130.5,-171.816 231.5,-171.816 231.5,-152.816 130.5,-152.816"/>
<text text-anchor="middle" x="181" y="-159.816" font-family="Helvetica,sans-Serif" font-size="10.00">XMLNode::addText</text>
</a>
</g>
</g>
<!-- Node1&#45;&gt;Node6 -->
<g id="edge7" class="edge"><title>Node1&#45;&gt;Node6</title>
<path fill="none" stroke="midnightblue" d="M41.8234,-238.868C53.1047,-221.318 72.4188,-195.543 96,-181.316 106.37,-175.06 118.587,-170.86 130.444,-168.043"/>
<polygon fill="midnightblue" stroke="midnightblue" points="38.6794,-237.299 36.4064,-247.647 44.6365,-240.975 38.6794,-237.299"/>
</g>
<!-- Node7 -->
<g id="node7" class="node"><title>Node7</title>
<g id="a_node7"><a xlink:href="struct_x_m_l_node.xhtml#a6fe7676c3f08c3dab3faec106264d50d" target="_top" xlink:title="XMLNode::createXMLTopNode">
<polygon fill="white" stroke="black" points="104.5,-38.8159 104.5,-57.8159 257.5,-57.8159 257.5,-38.8159 104.5,-38.8159"/>
<text text-anchor="middle" x="181" y="-45.8159" font-family="Helvetica,sans-Serif" font-size="10.00">XMLNode::createXMLTopNode</text>
</a>
</g>
</g>
<!-- Node1&#45;&gt;Node7 -->
<g id="edge10" class="edge"><title>Node1&#45;&gt;Node7</title>
<path fill="none" stroke="midnightblue" d="M31.7394,-237.196C34.3066,-198.265 45.6986,-112.496 96,-67.3159 100.227,-63.5193 105.05,-60.4312 110.199,-57.9249"/>
<polygon fill="midnightblue" stroke="midnightblue" points="28.2184,-237.508 31.1926,-247.677 35.2089,-237.873 28.2184,-237.508"/>
</g>
<!-- Node8 -->
<g id="node8" class="node"><title>Node8</title>
<g id="a_node8"><a xlink:href="_p_d_a_q_2_core_2_source_2xml_parser_8cpp.xhtml#acf103e2756ced6c7d3f14f38f198c920" target="_top" xlink:title="GetNextToken">
<polygon fill="white" stroke="black" points="302,-19.8159 302,-38.8159 382,-38.8159 382,-19.8159 302,-19.8159"/>
<text text-anchor="middle" x="342" y="-26.8159" font-family="Helvetica,sans-Serif" font-size="10.00">GetNextToken</text>
</a>
</g>
</g>
<!-- Node1&#45;&gt;Node8 -->
<g id="edge15" class="edge"><title>Node1&#45;&gt;Node8</title>
<path fill="none" stroke="midnightblue" d="M33.5573,-237.831C40.6114,-187.429 62.097,-54.9044 96,-29.3159 160.675,19.4979 264.763,-4.33693 313.793,-19.7292"/>
<polygon fill="midnightblue" stroke="midnightblue" points="30.0844,-237.395 32.2053,-247.775 37.0206,-238.338 30.0844,-237.395"/>
</g>
<!-- Node10 -->
<g id="node10" class="node"><title>Node10</title>
<g id="a_node10"><a xlink:href="struct_x_m_l_node.xhtml#adb69f8d2db5997d84590ce3380e210f1" target="_top" xlink:title="XMLNode::deepCopy">
<polygon fill="white" stroke="black" points="126,-76.8159 126,-95.8159 236,-95.8159 236,-76.8159 126,-76.8159"/>
<text text-anchor="middle" x="181" y="-83.8159" font-family="Helvetica,sans-Serif" font-size="10.00">XMLNode::deepCopy</text>
</a>
</g>
</g>
<!-- Node1&#45;&gt;Node10 -->
<g id="edge13" class="edge"><title>Node1&#45;&gt;Node10</title>
<path fill="none" stroke="midnightblue" d="M33.6374,-237.605C39.0954,-204.909 54.7734,-139.66 96,-105.316 104.501,-98.2341 115.106,-93.6589 125.889,-90.7329"/>
<polygon fill="midnightblue" stroke="midnightblue" points="30.1442,-237.298 32.108,-247.709 37.0653,-238.346 30.1442,-237.298"/>
</g>
<!-- Node11 -->
<g id="node11" class="node"><title>Node11</title>
<g id="a_node11"><a xlink:href="_c_d_a_q_2_plugins_2_source_2xml_parser_8cpp.xhtml#a8415cb910267a0487e1003a34069d012" target="_top" xlink:title="myRealloc">
<polygon fill="white" stroke="black" points="149.5,-190.816 149.5,-209.816 212.5,-209.816 212.5,-190.816 149.5,-190.816"/>
<text text-anchor="middle" x="181" y="-197.816" font-family="Helvetica,sans-Serif" font-size="10.00">myRealloc</text>
</a>
</g>
</g>
<!-- Node1&#45;&gt;Node11 -->
<g id="edge16" class="edge"><title>Node1&#45;&gt;Node11</title>
<path fill="none" stroke="midnightblue" d="M53.376,-241.927C65.5253,-234.178 81.0777,-225.202 96,-219.316 113.108,-212.567 133.167,-207.917 149.393,-204.908"/>
<polygon fill="midnightblue" stroke="midnightblue" points="51.2569,-239.132 44.8155,-247.543 55.0966,-244.985 51.2569,-239.132"/>
</g>
<!-- Node12 -->
<g id="node12" class="node"><title>Node12</title>
<g id="a_node12"><a xlink:href="struct_x_m_l_node.xhtml#adfbd017929a40d6584350e7f3652fcbd" target="_top" xlink:title="XMLNode::updateAttribute">
<polygon fill="white" stroke="black" points="115,-494.816 115,-513.816 247,-513.816 247,-494.816 115,-494.816"/>
<text text-anchor="middle" x="181" y="-501.816" font-family="Helvetica,sans-Serif" font-size="10.00">XMLNode::updateAttribute</text>
</a>
</g>
</g>
<!-- Node1&#45;&gt;Node12 -->
<g id="edge17" class="edge"><title>Node1&#45;&gt;Node12</title>
<path fill="none" stroke="midnightblue" d="M30.3867,-277.073C30.1593,-321.277 36.169,-428.704 96,-485.316 101.43,-490.454 107.944,-494.31 114.91,-497.188"/>
<polygon fill="midnightblue" stroke="midnightblue" points="33.8905,-276.878 30.5631,-266.819 26.8915,-276.757 33.8905,-276.878"/>
</g>
<!-- Node13 -->
<g id="node13" class="node"><title>Node13</title>
<g id="a_node13"><a xlink:href="struct_x_m_l_node.xhtml#a4e1f2b9413ef0b87a073c861b1400d68" target="_top" xlink:title="XMLNode::updateAttribute_WOSD">
<polygon fill="white" stroke="black" points="96.5,-114.816 96.5,-133.816 265.5,-133.816 265.5,-114.816 96.5,-114.816"/>
<text text-anchor="middle" x="181" y="-121.816" font-family="Helvetica,sans-Serif" font-size="10.00">XMLNode::updateAttribute_WOSD</text>
</a>
</g>
</g>
<!-- Node1&#45;&gt;Node13 -->
<g id="edge19" class="edge"><title>Node1&#45;&gt;Node13</title>
<path fill="none" stroke="midnightblue" d="M36.6539,-237.813C45.1654,-212.051 63.8014,-167.165 96,-143.316 101.166,-139.489 106.967,-136.412 113.043,-133.94"/>
<polygon fill="midnightblue" stroke="midnightblue" points="33.2485,-236.977 33.616,-247.565 39.9318,-239.059 33.2485,-236.977"/>
</g>
<!-- Node14 -->
<g id="node14" class="node"><title>Node14</title>
<g id="a_node14"><a xlink:href="struct_x_m_l_node.xhtml#a6b48e123943ea53272f6d4be33ca6d04" target="_top" xlink:title="XMLNode::updateClear">
<polygon fill="white" stroke="black" points="121.5,-456.816 121.5,-475.816 240.5,-475.816 240.5,-456.816 121.5,-456.816"/>
<text text-anchor="middle" x="181" y="-463.816" font-family="Helvetica,sans-Serif" font-size="10.00">XMLNode::updateClear</text>
</a>
</g>
</g>
<!-- Node1&#45;&gt;Node14 -->
<g id="edge20" class="edge"><title>Node1&#45;&gt;Node14</title>
<path fill="none" stroke="midnightblue" d="M31.7394,-277.436C34.3066,-316.367 45.6986,-402.136 96,-447.316 103.119,-453.71 111.929,-458.095 121.138,-461.075"/>
<polygon fill="midnightblue" stroke="midnightblue" points="35.2089,-276.759 31.1926,-266.955 28.2184,-277.123 35.2089,-276.759"/>
</g>
<!-- Node15 -->
<g id="node15" class="node"><title>Node15</title>
<g id="a_node15"><a xlink:href="struct_x_m_l_node.xhtml#ae08b643a2b87a77bad3c70eb57ea3043" target="_top" xlink:title="XMLNode::updateName">
<polygon fill="white" stroke="black" points="120,-418.816 120,-437.816 242,-437.816 242,-418.816 120,-418.816"/>
<text text-anchor="middle" x="181" y="-425.816" font-family="Helvetica,sans-Serif" font-size="10.00">XMLNode::updateName</text>
</a>
</g>
</g>
<!-- Node1&#45;&gt;Node15 -->
<g id="edge22" class="edge"><title>Node1&#45;&gt;Node15</title>
<path fill="none" stroke="midnightblue" d="M33.6374,-277.026C39.0954,-309.723 54.7734,-374.972 96,-409.316 102.893,-415.058 111.169,-419.152 119.801,-422.055"/>
<polygon fill="midnightblue" stroke="midnightblue" points="37.0653,-276.286 32.108,-266.923 30.1442,-277.334 37.0653,-276.286"/>
</g>
<!-- Node16 -->
<g id="node16" class="node"><title>Node16</title>
<g id="a_node16"><a xlink:href="struct_x_m_l_node.xhtml#aad04ffd86ca67253bbc81f941608f8d2" target="_top" xlink:title="XMLNode::updateText">
<polygon fill="white" stroke="black" points="123.5,-380.816 123.5,-399.816 238.5,-399.816 238.5,-380.816 123.5,-380.816"/>
<text text-anchor="middle" x="181" y="-387.816" font-family="Helvetica,sans-Serif" font-size="10.00">XMLNode::updateText</text>
</a>
</g>
</g>
<!-- Node1&#45;&gt;Node16 -->
<g id="edge24" class="edge"><title>Node1&#45;&gt;Node16</title>
<path fill="none" stroke="midnightblue" d="M36.6539,-276.819C45.1654,-302.58 63.8014,-347.466 96,-371.316 104.05,-377.278 113.64,-381.421 123.413,-384.289"/>
<polygon fill="midnightblue" stroke="midnightblue" points="39.9318,-275.573 33.616,-267.067 33.2485,-277.655 39.9318,-275.573"/>
</g>
<!-- Node2&#45;&gt;Node3 -->
<g id="edge2" class="edge"><title>Node2&#45;&gt;Node3</title>
<path fill="none" stroke="midnightblue" d="M250.73,-344.103C270.004,-341.8 290.139,-339.394 306.489,-337.44"/>
<polygon fill="midnightblue" stroke="midnightblue" points="250.268,-340.633 240.754,-345.295 251.099,-347.584 250.268,-340.633"/>
</g>
<!-- Node4&#45;&gt;Node3 -->
<g id="edge4" class="edge"><title>Node4&#45;&gt;Node3</title>
<path fill="none" stroke="midnightblue" d="M229.439,-288.65C241.47,-292.11 254.297,-296.092 266,-300.316 285.134,-307.222 306.294,-316.71 321.246,-323.74"/>
<polygon fill="midnightblue" stroke="midnightblue" points="230.138,-285.211 219.564,-285.872 228.242,-291.949 230.138,-285.211"/>
</g>
<!-- Node5&#45;&gt;Node3 -->
<g id="edge6" class="edge"><title>Node5&#45;&gt;Node3</title>
<path fill="none" stroke="midnightblue" d="M243.74,-247.985C251.491,-250.427 259.108,-253.486 266,-257.316 296.462,-274.245 322.631,-307.297 334.384,-323.661"/>
<polygon fill="midnightblue" stroke="midnightblue" points="244.47,-244.555 233.895,-245.21 242.571,-251.292 244.47,-244.555"/>
</g>
<!-- Node6&#45;&gt;Node3 -->
<g id="edge8" class="edge"><title>Node6&#45;&gt;Node3</title>
<path fill="none" stroke="midnightblue" d="M241.797,-168.866C250.512,-171.729 258.918,-175.735 266,-181.316 314.304,-219.384 333.725,-296.605 339.229,-323.676"/>
<polygon fill="midnightblue" stroke="midnightblue" points="242.455,-165.415 231.882,-166.095 240.572,-172.157 242.455,-165.415"/>
</g>
<!-- Node7&#45;&gt;Node8 -->
<g id="edge11" class="edge"><title>Node7&#45;&gt;Node8</title>
<path fill="none" stroke="midnightblue" d="M267.751,-38.069C279.602,-36.6527 291.267,-35.2588 301.684,-34.014"/>
<polygon fill="midnightblue" stroke="midnightblue" points="267.289,-34.5992 257.775,-39.261 268.119,-41.5497 267.289,-34.5992"/>
</g>
<!-- Node9 -->
<g id="node9" class="node"><title>Node9</title>
<g id="a_node9"><a xlink:href="_p_d_a_q_2_core_2_source_2xml_parser_8cpp.xhtml#a8415cb910267a0487e1003a34069d012" target="_top" xlink:title="myRealloc">
<polygon fill="white" stroke="black" points="418.5,-19.8159 418.5,-38.8159 481.5,-38.8159 481.5,-19.8159 418.5,-19.8159"/>
<text text-anchor="middle" x="450" y="-26.8159" font-family="Helvetica,sans-Serif" font-size="10.00">myRealloc</text>
</a>
</g>
</g>
<!-- Node8&#45;&gt;Node9 -->
<g id="edge12" class="edge"><title>Node8&#45;&gt;Node9</title>
<path fill="none" stroke="midnightblue" d="M392.4,-29.3159C401.217,-29.3159 410.168,-29.3159 418.27,-29.3159"/>
<polygon fill="midnightblue" stroke="midnightblue" points="392.169,-25.816 382.169,-29.3159 392.169,-32.816 392.169,-25.816"/>
</g>
<!-- Node10&#45;&gt;Node3 -->
<g id="edge14" class="edge"><title>Node10&#45;&gt;Node3</title>
<path fill="none" stroke="midnightblue" d="M245.74,-93.199C253.17,-96.088 260.165,-100.013 266,-105.316 333.222,-166.416 340.343,-288.791 340.976,-323.775"/>
<polygon fill="midnightblue" stroke="midnightblue" points="246.743,-89.8447 236.15,-90.0678 244.57,-96.499 246.743,-89.8447"/>
</g>
<!-- Node12&#45;&gt;Node3 -->
<g id="edge18" class="edge"><title>Node12&#45;&gt;Node3</title>
<path fill="none" stroke="midnightblue" d="M256.383,-491.584C259.774,-489.754 263.005,-487.676 266,-485.316 314.304,-447.248 333.725,-370.027 339.229,-342.955"/>
<polygon fill="midnightblue" stroke="midnightblue" points="254.703,-488.504 247.085,-495.867 257.632,-494.862 254.703,-488.504"/>
</g>
<!-- Node14&#45;&gt;Node3 -->
<g id="edge21" class="edge"><title>Node14&#45;&gt;Node3</title>
<path fill="none" stroke="midnightblue" d="M250.379,-455.674C255.902,-453.396 261.196,-450.642 266,-447.316 305.148,-420.206 329.057,-365.39 337.523,-343.087"/>
<polygon fill="midnightblue" stroke="midnightblue" points="249.14,-452.4 240.913,-459.076 251.508,-458.987 249.14,-452.4"/>
</g>
<!-- Node15&#45;&gt;Node3 -->
<g id="edge23" class="edge"><title>Node15&#45;&gt;Node3</title>
<path fill="none" stroke="midnightblue" d="M251.87,-415.824C256.777,-413.95 261.54,-411.794 266,-409.316 296.462,-392.387 322.631,-359.335 334.384,-342.971"/>
<polygon fill="midnightblue" stroke="midnightblue" points="250.631,-412.549 242.299,-419.093 252.893,-419.173 250.631,-412.549"/>
</g>
<!-- Node16&#45;&gt;Node3 -->
<g id="edge25" class="edge"><title>Node16&#45;&gt;Node3</title>
<path fill="none" stroke="midnightblue" d="M243.378,-378.288C251.078,-376.238 258.78,-373.916 266,-371.316 287.149,-363.699 309.994,-351.495 324.841,-342.979"/>
<polygon fill="midnightblue" stroke="midnightblue" points="242.502,-374.899 233.662,-380.74 244.214,-381.686 242.502,-374.899"/>
</g>
</g>
</svg>
