<?xml version="1.0" encoding="UTF-8" standalone="no"?>
<!DOCTYPE svg PUBLIC "-//W3C//DTD SVG 1.1//EN"
 "http://www.w3.org/Graphics/SVG/1.1/DTD/svg11.dtd">
<!-- Generated by graphviz version 2.36.0 (20140111.2315)
 -->
<!-- Title: xstrlen Pages: 1 -->
<svg width="216pt" height="218pt"
 viewBox="0.00 0.00 216.00 218.00" xmlns="http://www.w3.org/2000/svg" xmlns:xlink="http://www.w3.org/1999/xlink">
<g id="graph0" class="graph" transform="scale(1 1) rotate(0) translate(4 214)">
<title>xstrlen</title>
<polygon fill="white" stroke="none" points="-4,4 -4,-214 212,-214 212,4 -4,4"/>
<!-- Node1 -->
<g id="node1" class="node"><title>Node1</title>
<polygon fill="#bfbfbf" stroke="black" points="0,-95.5 0,-114.5 46,-114.5 46,-95.5 0,-95.5"/>
<text text-anchor="middle" x="23" y="-102.5" font-family="Helvetica,sans-Serif" font-size="10.00">xstrlen</text>
</g>
<!-- Node2 -->
<g id="node2" class="node"><title>Node2</title>
<g id="a_node2"><a xlink:href="_x_d_a_q_2_plugins_2_source_2xml_parser_8cpp.xhtml#ae6aa5a367ab3cc92b47fd92f81add72a" target="_top" xlink:title="CountLinesAndColumns">
<polygon fill="white" stroke="black" points="84,-190.5 84,-209.5 206,-209.5 206,-190.5 84,-190.5"/>
<text text-anchor="middle" x="145" y="-197.5" font-family="Helvetica,sans-Serif" font-size="10.00">CountLinesAndColumns</text>
</a>
</g>
</g>
<!-- Node1&#45;&gt;Node2 -->
<g id="edge1" class="edge"><title>Node1&#45;&gt;Node2</title>
<path fill="none" stroke="midnightblue" d="M33.8473,-123.852C43.7913,-141.118 60.7061,-166.176 82,-181 87.5437,-184.859 93.8946,-187.953 100.37,-190.429"/>
<polygon fill="midnightblue" stroke="midnightblue" points="36.7087,-121.792 28.8176,-114.722 30.5776,-125.17 36.7087,-121.792"/>
</g>
<!-- Node3 -->
<g id="node3" class="node"><title>Node3</title>
<g id="a_node3"><a xlink:href="_x_d_a_q_2_plugins_2_source_2xml_parser_8cpp.xhtml#ad9a5c911a8e21bb89427d29d33e2797e" target="_top" xlink:title="myIsTextWideChar">
<polygon fill="white" stroke="black" points="94.5,-152.5 94.5,-171.5 195.5,-171.5 195.5,-152.5 94.5,-152.5"/>
<text text-anchor="middle" x="145" y="-159.5" font-family="Helvetica,sans-Serif" font-size="10.00">myIsTextWideChar</text>
</a>
</g>
</g>
<!-- Node1&#45;&gt;Node3 -->
<g id="edge2" class="edge"><title>Node1&#45;&gt;Node3</title>
<path fill="none" stroke="midnightblue" d="M44.5587,-120.525C55.2899,-128.086 68.888,-136.848 82,-143 89.7459,-146.634 98.357,-149.785 106.637,-152.419"/>
<polygon fill="midnightblue" stroke="midnightblue" points="46.445,-117.57 36.2924,-114.54 42.34,-123.24 46.445,-117.57"/>
</g>
<!-- Node4 -->
<g id="node4" class="node"><title>Node4</title>
<g id="a_node4"><a xlink:href="_x_d_a_q_2_plugins_2_source_2xml_parser_8cpp.xhtml#a8415cb910267a0487e1003a34069d012" target="_top" xlink:title="myRealloc">
<polygon fill="white" stroke="black" points="113.5,-114.5 113.5,-133.5 176.5,-133.5 176.5,-114.5 113.5,-114.5"/>
<text text-anchor="middle" x="145" y="-121.5" font-family="Helvetica,sans-Serif" font-size="10.00">myRealloc</text>
</a>
</g>
</g>
<!-- Node1&#45;&gt;Node4 -->
<g id="edge3" class="edge"><title>Node1&#45;&gt;Node4</title>
<path fill="none" stroke="midnightblue" d="M56.3839,-110.127C74.0095,-112.918 95.7017,-116.353 113.092,-119.106"/>
<polygon fill="midnightblue" stroke="midnightblue" points="56.4342,-106.592 46.0098,-108.485 55.3394,-113.506 56.4342,-106.592"/>
</g>
<!-- Node5 -->
<g id="node5" class="node"><title>Node5</title>
<g id="a_node5"><a xlink:href="_x_d_a_q_2_plugins_2_source_2xml_parser_8cpp.xhtml#aead5c47bfd6039cbcc995ac39d52283e" target="_top" xlink:title="myTagCompare">
<polygon fill="white" stroke="black" points="102,-76.5 102,-95.5 188,-95.5 188,-76.5 102,-76.5"/>
<text text-anchor="middle" x="145" y="-83.5" font-family="Helvetica,sans-Serif" font-size="10.00">myTagCompare</text>
</a>
</g>
</g>
<!-- Node1&#45;&gt;Node5 -->
<g id="edge4" class="edge"><title>Node1&#45;&gt;Node5</title>
<path fill="none" stroke="midnightblue" d="M56.1402,-99.9111C70.1422,-97.6942 86.7461,-95.0652 101.729,-92.6928"/>
<polygon fill="midnightblue" stroke="midnightblue" points="55.3394,-96.4942 46.0098,-101.515 56.4342,-103.408 55.3394,-96.4942"/>
</g>
<!-- Node6 -->
<g id="node6" class="node"><title>Node6</title>
<g id="a_node6"><a xlink:href="_x_d_a_q_2_plugins_2_source_2xml_parser_8cpp.xhtml#ad7ec02a171e7641c1d364d5d367199a3" target="_top" xlink:title="myWideCharToMultiByte">
<polygon fill="white" stroke="black" points="82,-38.5 82,-57.5 208,-57.5 208,-38.5 82,-38.5"/>
<text text-anchor="middle" x="145" y="-45.5" font-family="Helvetica,sans-Serif" font-size="10.00">myWideCharToMultiByte</text>
</a>
</g>
</g>
<!-- Node1&#45;&gt;Node6 -->
<g id="edge5" class="edge"><title>Node1&#45;&gt;Node6</title>
<path fill="none" stroke="midnightblue" d="M44.5587,-89.4751C55.2899,-81.9144 68.888,-73.1518 82,-67 89.7459,-63.3658 98.357,-60.2149 106.637,-57.5805"/>
<polygon fill="midnightblue" stroke="midnightblue" points="42.34,-86.7604 36.2924,-95.4596 46.445,-92.4304 42.34,-86.7604"/>
</g>
<!-- Node7 -->
<g id="node7" class="node"><title>Node7</title>
<g id="a_node7"><a xlink:href="_x_d_a_q_2_plugins_2_source_2xml_parser_8cpp.xhtml#a5ba11fcf2496bd498e46fc958dba3d06" target="_top" xlink:title="stringDup">
<polygon fill="white" stroke="black" points="115.5,-0.5 115.5,-19.5 174.5,-19.5 174.5,-0.5 115.5,-0.5"/>
<text text-anchor="middle" x="145" y="-7.5" font-family="Helvetica,sans-Serif" font-size="10.00">stringDup</text>
</a>
</g>
</g>
<!-- Node1&#45;&gt;Node7 -->
<g id="edge6" class="edge"><title>Node1&#45;&gt;Node7</title>
<path fill="none" stroke="midnightblue" d="M33.8473,-86.1481C43.7913,-68.8819 60.7061,-43.824 82,-29 91.8863,-22.1175 104.34,-17.6691 115.487,-14.8224"/>
<polygon fill="midnightblue" stroke="midnightblue" points="30.5776,-84.8299 28.8176,-95.2776 36.7087,-88.2078 30.5776,-84.8299"/>
</g>
</g>
</svg>
