<?xml version="1.0" encoding="UTF-8" standalone="no"?>
<!DOCTYPE svg PUBLIC "-//W3C//DTD SVG 1.1//EN"
 "http://www.w3.org/Graphics/SVG/1.1/DTD/svg11.dtd">
<!-- Generated by graphviz version 2.36.0 (20140111.2315)
 -->
<!-- Title: /data/Software/DAQ/XDAQ/GUI/Include/global.h Pages: 1 -->
<svg width="3734pt" height="118pt"
 viewBox="0.00 0.00 3734.00 118.00" xmlns="http://www.w3.org/2000/svg" xmlns:xlink="http://www.w3.org/1999/xlink">
<g id="graph0" class="graph" transform="scale(1 1) rotate(0) translate(4 114)">
<title>/data/Software/DAQ/XDAQ/GUI/Include/global.h</title>
<polygon fill="white" stroke="none" points="-4,4 -4,-114 3730,-114 3730,4 -4,4"/>
<!-- Node1 -->
<g id="node1" class="node"><title>Node1</title>
<polygon fill="#bfbfbf" stroke="black" points="2057,-79 2057,-109 2197,-109 2197,-79 2057,-79"/>
<text text-anchor="start" x="2065" y="-97" font-family="Helvetica,sans-Serif" font-size="10.00">/data/Software/DAQ</text>
<text text-anchor="middle" x="2127" y="-86" font-family="Helvetica,sans-Serif" font-size="10.00">/XDAQ/GUI/Include/global.h</text>
</g>
<!-- Node2 -->
<g id="node2" class="node"><title>Node2</title>
<g id="a_node2"><a xlink:href="_multi_d_a_q_8cpp.xhtml" target="_top" xlink:title="/data/Software/DAQ\l/CDAQ/Application/MultiDAQ.cpp">
<polygon fill="white" stroke="black" points="0,-6 0,-36 164,-36 164,-6 0,-6"/>
<text text-anchor="start" x="8" y="-24" font-family="Helvetica,sans-Serif" font-size="10.00">/data/Software/DAQ</text>
<text text-anchor="middle" x="82" y="-13" font-family="Helvetica,sans-Serif" font-size="10.00">/CDAQ/Application/MultiDAQ.cpp</text>
</a>
</g>
</g>
<!-- Node1&#45;&gt;Node2 -->
<g id="edge1" class="edge"><title>Node1&#45;&gt;Node2</title>
<path fill="none" stroke="midnightblue" d="M2046.84,-92.941C1727.43,-92.3912 544.67,-87.2749 173,-42 161.6,-40.6113 149.523,-38.4544 138.023,-36.0624"/>
<polygon fill="midnightblue" stroke="midnightblue" points="2046.94,-96.4411 2056.94,-92.9573 2046.95,-89.4411 2046.94,-96.4411"/>
</g>
<!-- Node3 -->
<g id="node3" class="node"><title>Node3</title>
<g id="a_node3"><a xlink:href="_single_d_a_q_8cpp.xhtml" target="_top" xlink:title="/data/Software/DAQ\l/CDAQ/Application/SingleDAQ.cpp">
<polygon fill="white" stroke="black" points="182,-6 182,-36 352,-36 352,-6 182,-6"/>
<text text-anchor="start" x="190" y="-24" font-family="Helvetica,sans-Serif" font-size="10.00">/data/Software/DAQ</text>
<text text-anchor="middle" x="267" y="-13" font-family="Helvetica,sans-Serif" font-size="10.00">/CDAQ/Application/SingleDAQ.cpp</text>
</a>
</g>
</g>
<!-- Node1&#45;&gt;Node3 -->
<g id="edge2" class="edge"><title>Node1&#45;&gt;Node3</title>
<path fill="none" stroke="midnightblue" d="M2046.49,-92.6078C1746.5,-90.8457 693.957,-81.8961 361,-42 349.238,-40.5906 336.77,-38.4246 324.892,-36.0301"/>
<polygon fill="midnightblue" stroke="midnightblue" points="2046.82,-96.1097 2056.84,-92.6675 2046.86,-89.1098 2046.82,-96.1097"/>
</g>
<!-- Node4 -->
<g id="node4" class="node"><title>Node4</title>
<g id="a_node4"><a xlink:href="_a_d_c_manager_8cpp.xhtml" target="_top" xlink:title="/data/Software/DAQ\l/CDAQ/Core/Source/ADCManager.cpp">
<polygon fill="white" stroke="black" points="370,-6 370,-36 558,-36 558,-6 370,-6"/>
<text text-anchor="start" x="378" y="-24" font-family="Helvetica,sans-Serif" font-size="10.00">/data/Software/DAQ</text>
<text text-anchor="middle" x="464" y="-13" font-family="Helvetica,sans-Serif" font-size="10.00">/CDAQ/Core/Source/ADCManager.cpp</text>
</a>
</g>
</g>
<!-- Node1&#45;&gt;Node4 -->
<g id="edge3" class="edge"><title>Node1&#45;&gt;Node4</title>
<path fill="none" stroke="midnightblue" d="M2046.31,-92.0591C1769.28,-88.5628 857.945,-74.7918 567,-42 554.239,-40.5617 540.694,-38.3988 527.766,-36.0194"/>
<polygon fill="midnightblue" stroke="midnightblue" points="2046.64,-95.5634 2056.68,-92.1889 2046.73,-88.5639 2046.64,-95.5634"/>
</g>
<!-- Node5 -->
<g id="node5" class="node"><title>Node5</title>
<g id="a_node5"><a xlink:href="_a_d_c_manager1720_8cpp.xhtml" target="_top" xlink:title="/data/Software/DAQ\l/CDAQ/Core/Source/ADCManager1720.cpp">
<polygon fill="white" stroke="black" points="576.5,-6 576.5,-36 785.5,-36 785.5,-6 576.5,-6"/>
<text text-anchor="start" x="584.5" y="-24" font-family="Helvetica,sans-Serif" font-size="10.00">/data/Software/DAQ</text>
<text text-anchor="middle" x="681" y="-13" font-family="Helvetica,sans-Serif" font-size="10.00">/CDAQ/Core/Source/ADCManager1720.cpp</text>
</a>
</g>
</g>
<!-- Node1&#45;&gt;Node5 -->
<g id="edge4" class="edge"><title>Node1&#45;&gt;Node5</title>
<path fill="none" stroke="midnightblue" d="M2046.44,-93.7502C1838.46,-94.8573 1266.72,-92.6358 794,-42 780.232,-40.5253 765.612,-38.3772 751.616,-36.0301"/>
<polygon fill="midnightblue" stroke="midnightblue" points="2046.68,-97.249 2056.66,-93.6915 2046.64,-90.2491 2046.68,-97.249"/>
</g>
<!-- Node6 -->
<g id="node6" class="node"><title>Node6</title>
<g id="a_node6"><a xlink:href="_a_d_c_manager1724_8cpp.xhtml" target="_top" xlink:title="/data/Software/DAQ\l/CDAQ/Core/Source/ADCManager1724.cpp">
<polygon fill="white" stroke="black" points="803.5,-6 803.5,-36 1012.5,-36 1012.5,-6 803.5,-6"/>
<text text-anchor="start" x="811.5" y="-24" font-family="Helvetica,sans-Serif" font-size="10.00">/data/Software/DAQ</text>
<text text-anchor="middle" x="908" y="-13" font-family="Helvetica,sans-Serif" font-size="10.00">/CDAQ/Core/Source/ADCManager1724.cpp</text>
</a>
</g>
</g>
<!-- Node1&#45;&gt;Node6 -->
<g id="edge5" class="edge"><title>Node1&#45;&gt;Node6</title>
<path fill="none" stroke="midnightblue" d="M2046.82,-92.8429C1864.2,-91.7122 1403.5,-84.4884 1021,-42 1007.44,-40.4933 993.041,-38.361 979.229,-36.0457"/>
<polygon fill="midnightblue" stroke="midnightblue" points="2046.86,-96.3431 2056.88,-92.9007 2046.9,-89.3432 2046.86,-96.3431"/>
</g>
<!-- Node7 -->
<g id="node7" class="node"><title>Node7</title>
<g id="a_node7"><a xlink:href="_a_d_c_manager1730_8cpp.xhtml" target="_top" xlink:title="/data/Software/DAQ\l/CDAQ/Core/Source/ADCManager1730.cpp">
<polygon fill="white" stroke="black" points="1030.5,-6 1030.5,-36 1239.5,-36 1239.5,-6 1030.5,-6"/>
<text text-anchor="start" x="1038.5" y="-24" font-family="Helvetica,sans-Serif" font-size="10.00">/data/Software/DAQ</text>
<text text-anchor="middle" x="1135" y="-13" font-family="Helvetica,sans-Serif" font-size="10.00">/CDAQ/Core/Source/ADCManager1730.cpp</text>
</a>
</g>
</g>
<!-- Node1&#45;&gt;Node7 -->
<g id="edge6" class="edge"><title>Node1&#45;&gt;Node7</title>
<path fill="none" stroke="midnightblue" d="M2046.4,-91.4324C1891.45,-87.7302 1541.44,-76.0302 1249,-42 1235.53,-40.4322 1221.23,-38.3008 1207.49,-36.0119"/>
<polygon fill="midnightblue" stroke="midnightblue" points="2046.69,-94.9401 2056.77,-91.6752 2046.85,-87.942 2046.69,-94.9401"/>
</g>
<!-- Node8 -->
<g id="node8" class="node"><title>Node8</title>
<g id="a_node8"><a xlink:href="_scope_manager_8cpp.xhtml" target="_top" xlink:title="/data/Software/DAQ\l/CDAQ/Core/Source/ScopeManager.cpp">
<polygon fill="white" stroke="black" points="1258,-6 1258,-36 1452,-36 1452,-6 1258,-6"/>
<text text-anchor="start" x="1266" y="-24" font-family="Helvetica,sans-Serif" font-size="10.00">/data/Software/DAQ</text>
<text text-anchor="middle" x="1355" y="-13" font-family="Helvetica,sans-Serif" font-size="10.00">/CDAQ/Core/Source/ScopeManager.cpp</text>
</a>
</g>
</g>
<!-- Node1&#45;&gt;Node8 -->
<g id="edge7" class="edge"><title>Node1&#45;&gt;Node8</title>
<path fill="none" stroke="midnightblue" d="M2046.45,-89.6964C1920.93,-83.9036 1671.22,-69.7953 1461,-42 1448.75,-40.3798 1435.77,-38.2657 1423.25,-36.0201"/>
<polygon fill="midnightblue" stroke="midnightblue" points="2046.59,-93.2062 2056.74,-90.1653 2046.91,-86.2135 2046.59,-93.2062"/>
</g>
<!-- Node9 -->
<g id="node9" class="node"><title>Node9</title>
<g id="a_node9"><a xlink:href="_slowcontrol_manager_8cpp.xhtml" target="_top" xlink:title="/data/Software/DAQ\l/CDAQ/Core/Source/Slowcontrol\lManager.cpp">
<polygon fill="white" stroke="black" points="1470.5,-0.5 1470.5,-41.5 1631.5,-41.5 1631.5,-0.5 1470.5,-0.5"/>
<text text-anchor="start" x="1478.5" y="-29.5" font-family="Helvetica,sans-Serif" font-size="10.00">/data/Software/DAQ</text>
<text text-anchor="start" x="1478.5" y="-18.5" font-family="Helvetica,sans-Serif" font-size="10.00">/CDAQ/Core/Source/Slowcontrol</text>
<text text-anchor="middle" x="1551" y="-7.5" font-family="Helvetica,sans-Serif" font-size="10.00">Manager.cpp</text>
</a>
</g>
</g>
<!-- Node1&#45;&gt;Node9 -->
<g id="edge8" class="edge"><title>Node1&#45;&gt;Node9</title>
<path fill="none" stroke="midnightblue" d="M2046.65,-87.3924C1949.97,-79.995 1782.93,-65.1392 1641,-42 1638,-41.5106 1634.95,-40.9838 1631.87,-40.4276"/>
<polygon fill="midnightblue" stroke="midnightblue" points="2046.41,-90.8841 2056.65,-88.1497 2046.94,-83.9041 2046.41,-90.8841"/>
</g>
<!-- Node10 -->
<g id="node10" class="node"><title>Node10</title>
<g id="a_node10"><a xlink:href="_storage_manager_8cpp.xhtml" target="_top" xlink:title="/data/Software/DAQ\l/CDAQ/Core/Source/StorageManager.cpp">
<polygon fill="white" stroke="black" points="1650,-6 1650,-36 1850,-36 1850,-6 1650,-6"/>
<text text-anchor="start" x="1658" y="-24" font-family="Helvetica,sans-Serif" font-size="10.00">/data/Software/DAQ</text>
<text text-anchor="middle" x="1750" y="-13" font-family="Helvetica,sans-Serif" font-size="10.00">/CDAQ/Core/Source/StorageManager.cpp</text>
</a>
</g>
</g>
<!-- Node1&#45;&gt;Node10 -->
<g id="edge9" class="edge"><title>Node1&#45;&gt;Node10</title>
<path fill="none" stroke="midnightblue" d="M2047.06,-77.9452C1981.28,-65.5565 1888.74,-48.1279 1824.49,-36.0288"/>
<polygon fill="midnightblue" stroke="midnightblue" points="2046.5,-81.4005 2056.97,-79.8118 2047.79,-74.5215 2046.5,-81.4005"/>
</g>
<!-- Node11 -->
<g id="node11" class="node"><title>Node11</title>
<g id="a_node11"><a xlink:href="_c_d_a_q_2_core_2_source_2_v_m_e_manager_8cpp.xhtml" target="_top" xlink:title="/data/Software/DAQ\l/CDAQ/Core/Source/VMEManager.cpp">
<polygon fill="white" stroke="black" points="1868,-6 1868,-36 2056,-36 2056,-6 1868,-6"/>
<text text-anchor="start" x="1876" y="-24" font-family="Helvetica,sans-Serif" font-size="10.00">/data/Software/DAQ</text>
<text text-anchor="middle" x="1962" y="-13" font-family="Helvetica,sans-Serif" font-size="10.00">/CDAQ/Core/Source/VMEManager.cpp</text>
</a>
</g>
</g>
<!-- Node1&#45;&gt;Node11 -->
<g id="edge10" class="edge"><title>Node1&#45;&gt;Node11</title>
<path fill="none" stroke="midnightblue" d="M2084.87,-74.8732C2056.88,-62.8285 2020.66,-47.2426 1994.81,-36.1195"/>
<polygon fill="midnightblue" stroke="midnightblue" points="2083.83,-78.235 2094.4,-78.9727 2086.6,-71.805 2083.83,-78.235"/>
</g>
<!-- Node12 -->
<g id="node12" class="node"><title>Node12</title>
<g id="a_node12"><a xlink:href="scaler_8cpp.xhtml" target="_top" xlink:title="/data/Software/DAQ\l/Scaler/Application\l/scaler.cpp">
<polygon fill="white" stroke="black" points="2074.5,-0.5 2074.5,-41.5 2179.5,-41.5 2179.5,-0.5 2074.5,-0.5"/>
<text text-anchor="start" x="2082.5" y="-29.5" font-family="Helvetica,sans-Serif" font-size="10.00">/data/Software/DAQ</text>
<text text-anchor="start" x="2082.5" y="-18.5" font-family="Helvetica,sans-Serif" font-size="10.00">/Scaler/Application</text>
<text text-anchor="middle" x="2127" y="-7.5" font-family="Helvetica,sans-Serif" font-size="10.00">/scaler.cpp</text>
</a>
</g>
</g>
<!-- Node1&#45;&gt;Node12 -->
<g id="edge11" class="edge"><title>Node1&#45;&gt;Node12</title>
<path fill="none" stroke="midnightblue" d="M2127,-68.8534C2127,-59.9872 2127,-50.065 2127,-41.642"/>
<polygon fill="midnightblue" stroke="midnightblue" points="2123.5,-68.9727 2127,-78.9727 2130.5,-68.9727 2123.5,-68.9727"/>
</g>
<!-- Node13 -->
<g id="node13" class="node"><title>Node13</title>
<g id="a_node13"><a xlink:href="_discriminator_manager_8cpp.xhtml" target="_top" xlink:title="/data/Software/DAQ\l/Scaler/Core/Source\l/DiscriminatorManager.cpp">
<polygon fill="white" stroke="black" points="2198,-0.5 2198,-41.5 2332,-41.5 2332,-0.5 2198,-0.5"/>
<text text-anchor="start" x="2206" y="-29.5" font-family="Helvetica,sans-Serif" font-size="10.00">/data/Software/DAQ</text>
<text text-anchor="start" x="2206" y="-18.5" font-family="Helvetica,sans-Serif" font-size="10.00">/Scaler/Core/Source</text>
<text text-anchor="middle" x="2265" y="-7.5" font-family="Helvetica,sans-Serif" font-size="10.00">/DiscriminatorManager.cpp</text>
</a>
</g>
</g>
<!-- Node1&#45;&gt;Node13 -->
<g id="edge12" class="edge"><title>Node1&#45;&gt;Node13</title>
<path fill="none" stroke="midnightblue" d="M2163.22,-74.3643C2182.88,-64.2492 2207.17,-51.7546 2227.08,-41.5075"/>
<polygon fill="midnightblue" stroke="midnightblue" points="2161.56,-71.2854 2154.26,-78.9727 2164.76,-77.5099 2161.56,-71.2854"/>
</g>
<!-- Node14 -->
<g id="node14" class="node"><title>Node14</title>
<g id="a_node14"><a xlink:href="_scaler_manager_8cpp.xhtml" target="_top" xlink:title="/data/Software/DAQ\l/Scaler/Core/Source\l/ScalerManager.cpp">
<polygon fill="white" stroke="black" points="2350.5,-0.5 2350.5,-41.5 2455.5,-41.5 2455.5,-0.5 2350.5,-0.5"/>
<text text-anchor="start" x="2358.5" y="-29.5" font-family="Helvetica,sans-Serif" font-size="10.00">/data/Software/DAQ</text>
<text text-anchor="start" x="2358.5" y="-18.5" font-family="Helvetica,sans-Serif" font-size="10.00">/Scaler/Core/Source</text>
<text text-anchor="middle" x="2403" y="-7.5" font-family="Helvetica,sans-Serif" font-size="10.00">/ScalerManager.cpp</text>
</a>
</g>
</g>
<!-- Node1&#45;&gt;Node14 -->
<g id="edge13" class="edge"><title>Node1&#45;&gt;Node14</title>
<path fill="none" stroke="midnightblue" d="M2201.93,-76.6517C2243.16,-67.2766 2295.13,-54.8429 2341,-42 2344.05,-41.1462 2347.17,-40.2398 2350.32,-39.3027"/>
<polygon fill="midnightblue" stroke="midnightblue" points="2200.94,-73.2872 2191.95,-78.9069 2202.48,-80.1148 2200.94,-73.2872"/>
</g>
<!-- Node15 -->
<g id="node15" class="node"><title>Node15</title>
<g id="a_node15"><a xlink:href="_scaler_2_core_2_source_2_v_m_e_manager_8cpp.xhtml" target="_top" xlink:title="/data/Software/DAQ\l/Scaler/Core/Source\l/VMEManager.cpp">
<polygon fill="white" stroke="black" points="2473.5,-0.5 2473.5,-41.5 2578.5,-41.5 2578.5,-0.5 2473.5,-0.5"/>
<text text-anchor="start" x="2481.5" y="-29.5" font-family="Helvetica,sans-Serif" font-size="10.00">/data/Software/DAQ</text>
<text text-anchor="start" x="2481.5" y="-18.5" font-family="Helvetica,sans-Serif" font-size="10.00">/Scaler/Core/Source</text>
<text text-anchor="middle" x="2526" y="-7.5" font-family="Helvetica,sans-Serif" font-size="10.00">/VMEManager.cpp</text>
</a>
</g>
</g>
<!-- Node1&#45;&gt;Node15 -->
<g id="edge14" class="edge"><title>Node1&#45;&gt;Node15</title>
<path fill="none" stroke="midnightblue" d="M2207.33,-84.5518C2276.05,-76.4445 2377.3,-62.4028 2464,-42 2467.08,-41.2746 2470.23,-40.4686 2473.4,-39.6083"/>
<polygon fill="midnightblue" stroke="midnightblue" points="2206.54,-81.1202 2197.01,-85.7535 2207.35,-88.0732 2206.54,-81.1202"/>
</g>
<!-- Node16 -->
<g id="node16" class="node"><title>Node16</title>
<g id="a_node16"><a xlink:href="_scaler_2_core_2_source_2xml_8cpp.xhtml" target="_top" xlink:title="/data/Software/DAQ\l/Scaler/Core/Source\l/xml.cpp">
<polygon fill="white" stroke="black" points="2596.5,-0.5 2596.5,-41.5 2701.5,-41.5 2701.5,-0.5 2596.5,-0.5"/>
<text text-anchor="start" x="2604.5" y="-29.5" font-family="Helvetica,sans-Serif" font-size="10.00">/data/Software/DAQ</text>
<text text-anchor="start" x="2604.5" y="-18.5" font-family="Helvetica,sans-Serif" font-size="10.00">/Scaler/Core/Source</text>
<text text-anchor="middle" x="2649" y="-7.5" font-family="Helvetica,sans-Serif" font-size="10.00">/xml.cpp</text>
</a>
</g>
</g>
<!-- Node1&#45;&gt;Node16 -->
<g id="edge15" class="edge"><title>Node1&#45;&gt;Node16</title>
<path fill="none" stroke="midnightblue" d="M2207.18,-89.0185C2299.59,-83.3012 2455.62,-70.1726 2587,-42 2590.1,-41.336 2593.26,-40.5781 2596.43,-39.7546"/>
<polygon fill="midnightblue" stroke="midnightblue" points="2206.83,-85.5331 2197.06,-89.6307 2207.25,-92.5204 2206.83,-85.5331"/>
</g>
<!-- Node17 -->
<g id="node17" class="node"><title>Node17</title>
<g id="a_node17"><a xlink:href="_i_o_manager_8cpp.xhtml" target="_top" xlink:title="/data/Software/DAQ\l/Scaler/IO/Source/IOManager.cpp">
<polygon fill="white" stroke="black" points="2720,-6 2720,-36 2884,-36 2884,-6 2720,-6"/>
<text text-anchor="start" x="2728" y="-24" font-family="Helvetica,sans-Serif" font-size="10.00">/data/Software/DAQ</text>
<text text-anchor="middle" x="2802" y="-13" font-family="Helvetica,sans-Serif" font-size="10.00">/Scaler/IO/Source/IOManager.cpp</text>
</a>
</g>
</g>
<!-- Node1&#45;&gt;Node17 -->
<g id="edge16" class="edge"><title>Node1&#45;&gt;Node17</title>
<path fill="none" stroke="midnightblue" d="M2207.62,-89.1859C2320.47,-83.1118 2531.74,-69.0615 2710,-42 2720.67,-40.3809 2731.95,-38.2672 2742.82,-36.0217"/>
<polygon fill="midnightblue" stroke="midnightblue" points="2207.14,-85.7062 2197.34,-89.7316 2207.51,-92.6963 2207.14,-85.7062"/>
</g>
<!-- Node18 -->
<g id="node18" class="node"><title>Node18</title>
<g id="a_node18"><a xlink:href="mini_d_a_x_8cpp.xhtml" target="_top" xlink:title="/data/Software/DAQ\l/XDAQ/Application/miniDAX.cpp">
<polygon fill="white" stroke="black" points="2902,-6 2902,-36 3062,-36 3062,-6 2902,-6"/>
<text text-anchor="start" x="2910" y="-24" font-family="Helvetica,sans-Serif" font-size="10.00">/data/Software/DAQ</text>
<text text-anchor="middle" x="2982" y="-13" font-family="Helvetica,sans-Serif" font-size="10.00">/XDAQ/Application/miniDAX.cpp</text>
</a>
</g>
</g>
<!-- Node1&#45;&gt;Node18 -->
<g id="edge17" class="edge"><title>Node1&#45;&gt;Node18</title>
<path fill="none" stroke="midnightblue" d="M2207.29,-91.7295C2347.24,-88.6085 2644.64,-77.9537 2893,-42 2903.66,-40.4571 2914.93,-38.3228 2925.75,-36.02"/>
<polygon fill="midnightblue" stroke="midnightblue" points="2207.01,-88.2348 2197.09,-91.95 2207.16,-95.2331 2207.01,-88.2348"/>
</g>
<!-- Node19 -->
<g id="node19" class="node"><title>Node19</title>
<g id="a_node19"><a xlink:href="adc_8cpp.xhtml" target="_top" xlink:title="/data/Software/DAQ\l/XDAQ/Core/Source/adc.cpp">
<polygon fill="white" stroke="black" points="3080.5,-6 3080.5,-36 3223.5,-36 3223.5,-6 3080.5,-6"/>
<text text-anchor="start" x="3088.5" y="-24" font-family="Helvetica,sans-Serif" font-size="10.00">/data/Software/DAQ</text>
<text text-anchor="middle" x="3152" y="-13" font-family="Helvetica,sans-Serif" font-size="10.00">/XDAQ/Core/Source/adc.cpp</text>
</a>
</g>
</g>
<!-- Node1&#45;&gt;Node19 -->
<g id="edge18" class="edge"><title>Node1&#45;&gt;Node19</title>
<path fill="none" stroke="midnightblue" d="M2207.49,-93.7311C2371.1,-94.1022 2753.9,-89.283 3071,-42 3080.89,-40.526 3091.33,-38.3936 3101.31,-36.0649"/>
<polygon fill="midnightblue" stroke="midnightblue" points="2207.04,-90.2298 2197.03,-93.6996 2207.02,-97.2298 2207.04,-90.2298"/>
</g>
<!-- Node20 -->
<g id="node20" class="node"><title>Node20</title>
<g id="a_node20"><a xlink:href="control_8cpp.xhtml" target="_top" xlink:title="/data/Software/DAQ\l/XDAQ/Core/Source/control.cpp">
<polygon fill="white" stroke="black" points="3241.5,-6 3241.5,-36 3398.5,-36 3398.5,-6 3241.5,-6"/>
<text text-anchor="start" x="3249.5" y="-24" font-family="Helvetica,sans-Serif" font-size="10.00">/data/Software/DAQ</text>
<text text-anchor="middle" x="3320" y="-13" font-family="Helvetica,sans-Serif" font-size="10.00">/XDAQ/Core/Source/control.cpp</text>
</a>
</g>
</g>
<!-- Node1&#45;&gt;Node20 -->
<g id="edge19" class="edge"><title>Node1&#45;&gt;Node20</title>
<path fill="none" stroke="midnightblue" d="M2207.48,-91.1395C2427.17,-85.7652 3033.9,-68.8666 3232,-42 3242.71,-40.5472 3254.04,-38.4246 3264.88,-36.0988"/>
<polygon fill="midnightblue" stroke="midnightblue" points="2207.23,-87.6446 2197.32,-91.3867 2207.4,-94.6425 2207.23,-87.6446"/>
</g>
<!-- Node21 -->
<g id="node21" class="node"><title>Node21</title>
<g id="a_node21"><a xlink:href="_x_d_a_q_2_core_2_source_2xml_8cpp.xhtml" target="_top" xlink:title="/data/Software/DAQ\l/XDAQ/Core/Source/xml.cpp">
<polygon fill="white" stroke="black" points="3416.5,-6 3416.5,-36 3559.5,-36 3559.5,-6 3416.5,-6"/>
<text text-anchor="start" x="3424.5" y="-24" font-family="Helvetica,sans-Serif" font-size="10.00">/data/Software/DAQ</text>
<text text-anchor="middle" x="3488" y="-13" font-family="Helvetica,sans-Serif" font-size="10.00">/XDAQ/Core/Source/xml.cpp</text>
</a>
</g>
</g>
<!-- Node1&#45;&gt;Node21 -->
<g id="edge20" class="edge"><title>Node1&#45;&gt;Node21</title>
<path fill="none" stroke="midnightblue" d="M2207.33,-91.9246C2450.1,-88.3385 3173.78,-75.0911 3407,-42 3417.04,-40.5756 3427.64,-38.4348 3437.75,-36.0759"/>
<polygon fill="midnightblue" stroke="midnightblue" points="2207.12,-88.4272 2197.17,-92.0732 2207.22,-95.4265 2207.12,-88.4272"/>
</g>
<!-- Node22 -->
<g id="node22" class="node"><title>Node22</title>
<g id="a_node22"><a xlink:href="graph_8cpp.xhtml" target="_top" xlink:title="/data/Software/DAQ\l/XDAQ/GUI/Source/graph.cpp">
<polygon fill="white" stroke="black" points="3577.5,-6 3577.5,-36 3726.5,-36 3726.5,-6 3577.5,-6"/>
<text text-anchor="start" x="3585.5" y="-24" font-family="Helvetica,sans-Serif" font-size="10.00">/data/Software/DAQ</text>
<text text-anchor="middle" x="3652" y="-13" font-family="Helvetica,sans-Serif" font-size="10.00">/XDAQ/GUI/Source/graph.cpp</text>
</a>
</g>
</g>
<!-- Node1&#45;&gt;Node22 -->
<g id="edge21" class="edge"><title>Node1&#45;&gt;Node22</title>
<path fill="none" stroke="midnightblue" d="M2207.32,-92.2537C2470,-89.4837 3301.94,-78.0193 3568,-42 3578.55,-40.5721 3589.71,-38.3979 3600.32,-36.0011"/>
<polygon fill="midnightblue" stroke="midnightblue" points="2207.06,-88.7561 2197.1,-92.3601 2207.13,-95.7557 2207.06,-88.7561"/>
</g>
</g>
</svg>
