<?xml version="1.0" encoding="UTF-8" standalone="no"?>
<!DOCTYPE svg PUBLIC "-//W3C//DTD SVG 1.1//EN"
 "http://www.w3.org/Graphics/SVG/1.1/DTD/svg11.dtd">
<!-- Generated by graphviz version 2.36.0 (20140111.2315)
 -->
<!-- Title: myIsTextWideChar Pages: 1 -->
<svg width="986pt" height="835pt"
 viewBox="0.00 0.00 986.00 835.00" xmlns="http://www.w3.org/2000/svg" xmlns:xlink="http://www.w3.org/1999/xlink">
<g id="graph0" class="graph" transform="scale(1 1) rotate(0) translate(4 831)">
<title>myIsTextWideChar</title>
<polygon fill="white" stroke="none" points="-4,4 -4,-831 982,-831 982,4 -4,4"/>
<!-- Node1 -->
<g id="node1" class="node"><title>Node1</title>
<polygon fill="#bfbfbf" stroke="black" points="0.5,-190.5 0.5,-209.5 101.5,-209.5 101.5,-190.5 0.5,-190.5"/>
<text text-anchor="middle" x="51" y="-197.5" font-family="Helvetica,sans-Serif" font-size="10.00">myIsTextWideChar</text>
</g>
<!-- Node2 -->
<g id="node2" class="node"><title>Node2</title>
<g id="a_node2"><a xlink:href="_x_d_a_q_2_plugins_2_source_2xml_parser_8cpp.xhtml#af77e3e2685487b9c492b20c36f3b864a" target="_top" xlink:title="_strnicmp">
<polygon fill="white" stroke="black" points="138.5,-389.5 138.5,-408.5 197.5,-408.5 197.5,-389.5 138.5,-389.5"/>
<text text-anchor="middle" x="168" y="-396.5" font-family="Helvetica,sans-Serif" font-size="10.00">_strnicmp</text>
</a>
</g>
</g>
<!-- Node1&#45;&gt;Node2 -->
<g id="edge1" class="edge"><title>Node1&#45;&gt;Node2</title>
<path fill="none" stroke="midnightblue" d="M57.5467,-209.598C75.5736,-240.793 132.711,-339.666 156.475,-380.787"/>
<polygon fill="midnightblue" stroke="midnightblue" points="153.475,-382.591 161.509,-389.498 159.536,-379.089 153.475,-382.591"/>
</g>
<!-- Node4 -->
<g id="node4" class="node"><title>Node4</title>
<g id="a_node4"><a xlink:href="_c_d_a_q_2_plugins_2_source_2xml_parser_8cpp.xhtml#ad9a5c911a8e21bb89427d29d33e2797e" target="_top" xlink:title="myIsTextWideChar">
<polygon fill="white" stroke="black" points="599.5,-275.5 599.5,-294.5 700.5,-294.5 700.5,-275.5 599.5,-275.5"/>
<text text-anchor="middle" x="650" y="-282.5" font-family="Helvetica,sans-Serif" font-size="10.00">myIsTextWideChar</text>
</a>
</g>
</g>
<!-- Node1&#45;&gt;Node4 -->
<g id="edge49" class="edge"><title>Node1&#45;&gt;Node4</title>
<path fill="none" stroke="midnightblue" d="M63.6313,-209.577C79.3771,-221.914 108.868,-242.855 138,-252 294.923,-301.258 491.919,-296.555 589.108,-290.158"/>
<polygon fill="midnightblue" stroke="midnightblue" points="589.592,-293.633 599.328,-289.455 589.111,-286.65 589.592,-293.633"/>
</g>
<!-- Node6 -->
<g id="node6" class="node"><title>Node6</title>
<g id="a_node6"><a xlink:href="_c_d_a_q_2_plugins_2_source_2xml_parser_8cpp.xhtml#ae4635e3ac4b32772021240a9c16864ee" target="_top" xlink:title="mmin">
<polygon fill="white" stroke="black" points="786.5,-85.5 786.5,-104.5 827.5,-104.5 827.5,-85.5 786.5,-85.5"/>
<text text-anchor="middle" x="807" y="-92.5" font-family="Helvetica,sans-Serif" font-size="10.00">mmin</text>
</a>
</g>
</g>
<!-- Node1&#45;&gt;Node6 -->
<g id="edge48" class="edge"><title>Node1&#45;&gt;Node6</title>
<path fill="none" stroke="midnightblue" d="M86.8607,-209.508C102.387,-213.273 120.976,-217.142 138,-219 164.509,-221.893 171.468,-221.678 198,-219 423.563,-196.233 689.145,-127.102 776.522,-103.219"/>
<polygon fill="midnightblue" stroke="midnightblue" points="777.565,-106.563 786.279,-100.537 775.709,-99.8129 777.565,-106.563"/>
</g>
<!-- Node7 -->
<g id="node7" class="node"><title>Node7</title>
<g id="a_node7"><a xlink:href="_c_d_a_q_2_plugins_2_source_2xml_parser_8cpp.xhtml#ad7ec02a171e7641c1d364d5d367199a3" target="_top" xlink:title="myWideCharToMultiByte">
<polygon fill="white" stroke="black" points="744,-313.5 744,-332.5 870,-332.5 870,-313.5 744,-313.5"/>
<text text-anchor="middle" x="807" y="-320.5" font-family="Helvetica,sans-Serif" font-size="10.00">myWideCharToMultiByte</text>
</a>
</g>
</g>
<!-- Node1&#45;&gt;Node7 -->
<g id="edge50" class="edge"><title>Node1&#45;&gt;Node7</title>
<path fill="none" stroke="midnightblue" d="M53.7516,-209.754C64.5398,-266.443 127.247,-551 299,-551 299,-551 299,-551 480,-551 626.573,-551 754.167,-394.311 793.52,-340.722"/>
<polygon fill="midnightblue" stroke="midnightblue" points="796.435,-342.663 799.45,-332.507 790.759,-338.566 796.435,-342.663"/>
</g>
<!-- Node27 -->
<g id="node27" class="node"><title>Node27</title>
<g id="a_node27"><a xlink:href="_x_d_a_q_2_plugins_2_source_2xml_parser_8cpp.xhtml#a8dd6e6cada28ea03e5cacd075b1be7f6" target="_top" xlink:title="xfopen">
<polygon fill="white" stroke="black" points="277,-313.5 277,-332.5 323,-332.5 323,-313.5 277,-313.5"/>
<text text-anchor="middle" x="300" y="-320.5" font-family="Helvetica,sans-Serif" font-size="10.00">xfopen</text>
</a>
</g>
</g>
<!-- Node1&#45;&gt;Node27 -->
<g id="edge51" class="edge"><title>Node1&#45;&gt;Node27</title>
<path fill="none" stroke="midnightblue" d="M57.157,-209.604C68.646,-229.953 98.4782,-277.318 138,-299 178.355,-321.138 232.53,-324.822 266.605,-324.572"/>
<polygon fill="midnightblue" stroke="midnightblue" points="266.989,-328.065 276.919,-324.371 266.852,-321.066 266.989,-328.065"/>
</g>
<!-- Node28 -->
<g id="node28" class="node"><title>Node28</title>
<g id="a_node28"><a xlink:href="_x_d_a_q_2_plugins_2_source_2xml_parser_8cpp.xhtml#a73c2349b2f386ee50130a3961bd2dbab" target="_top" xlink:title="xstrcpy">
<polygon fill="white" stroke="black" points="143.5,-190.5 143.5,-209.5 192.5,-209.5 192.5,-190.5 143.5,-190.5"/>
<text text-anchor="middle" x="168" y="-197.5" font-family="Helvetica,sans-Serif" font-size="10.00">xstrcpy</text>
</a>
</g>
</g>
<!-- Node1&#45;&gt;Node28 -->
<g id="edge52" class="edge"><title>Node1&#45;&gt;Node28</title>
<path fill="none" stroke="midnightblue" d="M101.772,-200C112.382,-200 123.349,-200 133.193,-200"/>
<polygon fill="midnightblue" stroke="midnightblue" points="133.365,-203.5 143.365,-200 133.365,-196.5 133.365,-203.5"/>
</g>
<!-- Node29 -->
<g id="node29" class="node"><title>Node29</title>
<g id="a_node29"><a xlink:href="_x_d_a_q_2_plugins_2_source_2xml_parser_8cpp.xhtml#a2e64ea95685df2d289c31a50419b532d" target="_top" xlink:title="xstricmp">
<polygon fill="white" stroke="black" points="141,-152.5 141,-171.5 195,-171.5 195,-152.5 141,-152.5"/>
<text text-anchor="middle" x="168" y="-159.5" font-family="Helvetica,sans-Serif" font-size="10.00">xstricmp</text>
</a>
</g>
</g>
<!-- Node1&#45;&gt;Node29 -->
<g id="edge53" class="edge"><title>Node1&#45;&gt;Node29</title>
<path fill="none" stroke="midnightblue" d="M81.0194,-190.411C96.2276,-185.386 114.992,-179.185 131.107,-173.86"/>
<polygon fill="midnightblue" stroke="midnightblue" points="132.346,-177.137 140.743,-170.676 130.15,-170.491 132.346,-177.137"/>
</g>
<!-- Node30 -->
<g id="node30" class="node"><title>Node30</title>
<g id="a_node30"><a xlink:href="_x_d_a_q_2_plugins_2_source_2xml_parser_8cpp.xhtml#a49fa66f65d2d28ce7b7e0b1752425915" target="_top" xlink:title="xstrlen">
<polygon fill="white" stroke="black" points="145,-114.5 145,-133.5 191,-133.5 191,-114.5 145,-114.5"/>
<text text-anchor="middle" x="168" y="-121.5" font-family="Helvetica,sans-Serif" font-size="10.00">xstrlen</text>
</a>
</g>
</g>
<!-- Node1&#45;&gt;Node30 -->
<g id="edge54" class="edge"><title>Node1&#45;&gt;Node30</title>
<path fill="none" stroke="midnightblue" d="M66.2884,-190.496C83.3402,-179.162 112.723,-159.657 138,-143 139.878,-141.762 141.827,-140.481 143.784,-139.195"/>
<polygon fill="midnightblue" stroke="midnightblue" points="145.795,-142.062 152.237,-133.651 141.956,-136.208 145.795,-142.062"/>
</g>
<!-- Node31 -->
<g id="node31" class="node"><title>Node31</title>
<g id="a_node31"><a xlink:href="_x_d_a_q_2_plugins_2_source_2xml_parser_8cpp.xhtml#a3165858f70cd74ffab31ebc2ddc9e104" target="_top" xlink:title="xstrncmp">
<polygon fill="white" stroke="black" points="139.5,-76.5 139.5,-95.5 196.5,-95.5 196.5,-76.5 139.5,-76.5"/>
<text text-anchor="middle" x="168" y="-83.5" font-family="Helvetica,sans-Serif" font-size="10.00">xstrncmp</text>
</a>
</g>
</g>
<!-- Node1&#45;&gt;Node31 -->
<g id="edge55" class="edge"><title>Node1&#45;&gt;Node31</title>
<path fill="none" stroke="midnightblue" d="M59.3509,-190.362C73.3942,-172.319 105.538,-132.763 138,-105 139.352,-103.843 140.779,-102.701 142.245,-101.584"/>
<polygon fill="midnightblue" stroke="midnightblue" points="144.653,-104.169 150.824,-95.557 140.629,-98.4416 144.653,-104.169"/>
</g>
<!-- Node32 -->
<g id="node32" class="node"><title>Node32</title>
<g id="a_node32"><a xlink:href="_x_d_a_q_2_plugins_2_source_2xml_parser_8cpp.xhtml#a17c9570640aed10b61deec9047cb0940" target="_top" xlink:title="xstrnicmp">
<polygon fill="white" stroke="black" points="138.5,-38.5 138.5,-57.5 197.5,-57.5 197.5,-38.5 138.5,-38.5"/>
<text text-anchor="middle" x="168" y="-45.5" font-family="Helvetica,sans-Serif" font-size="10.00">xstrnicmp</text>
</a>
</g>
</g>
<!-- Node1&#45;&gt;Node32 -->
<g id="edge56" class="edge"><title>Node1&#45;&gt;Node32</title>
<path fill="none" stroke="midnightblue" d="M56.4721,-190.349C67.6294,-167.022 98.6489,-106.588 138,-67 139.087,-65.9061 140.248,-64.8408 141.455,-63.8094"/>
<polygon fill="midnightblue" stroke="midnightblue" points="143.922,-66.3356 149.842,-57.5492 139.735,-60.7259 143.922,-66.3356"/>
</g>
<!-- Node33 -->
<g id="node33" class="node"><title>Node33</title>
<g id="a_node33"><a xlink:href="_x_d_a_q_2_plugins_2_source_2xml_parser_8cpp.xhtml#a696ca59a310359980c57de039f137697" target="_top" xlink:title="xstrstr">
<polygon fill="white" stroke="black" points="146,-0.5 146,-19.5 190,-19.5 190,-0.5 146,-0.5"/>
<text text-anchor="middle" x="168" y="-7.5" font-family="Helvetica,sans-Serif" font-size="10.00">xstrstr</text>
</a>
</g>
</g>
<!-- Node1&#45;&gt;Node33 -->
<g id="edge57" class="edge"><title>Node1&#45;&gt;Node33</title>
<path fill="none" stroke="midnightblue" d="M54.8327,-190.465C63.4354,-162.783 91.5469,-81.0763 138,-29 138.879,-28.0146 139.82,-27.0586 140.807,-26.1342"/>
<polygon fill="midnightblue" stroke="midnightblue" points="143.281,-28.6405 148.969,-19.7018 138.948,-23.1426 143.281,-28.6405"/>
</g>
<!-- Node3 -->
<g id="node3" class="node"><title>Node3</title>
<g id="a_node3"><a xlink:href="struct_x_m_l_node.xhtml#a4496629c7a268db5435946c7bdd4eb28" target="_top" xlink:title="XMLNode::getError">
<polygon fill="white" stroke="black" points="428.5,-389.5 428.5,-408.5 529.5,-408.5 529.5,-389.5 428.5,-389.5"/>
<text text-anchor="middle" x="479" y="-396.5" font-family="Helvetica,sans-Serif" font-size="10.00">XMLNode::getError</text>
</a>
</g>
</g>
<!-- Node2&#45;&gt;Node3 -->
<g id="edge2" class="edge"><title>Node2&#45;&gt;Node3</title>
<path fill="none" stroke="midnightblue" d="M197.516,-399C247.436,-399 351.652,-399 418.038,-399"/>
<polygon fill="midnightblue" stroke="midnightblue" points="418.354,-402.5 428.354,-399 418.354,-395.5 418.354,-402.5"/>
</g>
<!-- Node15 -->
<g id="node15" class="node"><title>Node15</title>
<g id="a_node15"><a xlink:href="struct_x_m_l_node.xhtml#ac7af7e3bab8d21722dd4f191a4aa7c1d" target="_top" xlink:title="XMLNode::guessCharEncoding">
<polygon fill="white" stroke="black" points="402,-237.5 402,-256.5 556,-256.5 556,-237.5 402,-237.5"/>
<text text-anchor="middle" x="479" y="-244.5" font-family="Helvetica,sans-Serif" font-size="10.00">XMLNode::guessCharEncoding</text>
</a>
</g>
</g>
<!-- Node2&#45;&gt;Node15 -->
<g id="edge21" class="edge"><title>Node2&#45;&gt;Node15</title>
<path fill="none" stroke="midnightblue" d="M197.503,-394.638C237.142,-387.73 310.315,-371.885 366,-342 404.847,-321.152 442.312,-285.127 462.54,-263.938"/>
<polygon fill="midnightblue" stroke="midnightblue" points="465.128,-266.295 469.415,-256.606 460.022,-261.507 465.128,-266.295"/>
</g>
<!-- Node16 -->
<g id="node16" class="node"><title>Node16</title>
<g id="a_node16"><a xlink:href="struct_x_m_l_node.xhtml#acc044148e2b9b8264a320b7b6e398158" target="_top" xlink:title="XMLNode::openFileHelper">
<polygon fill="white" stroke="black" points="234.5,-465.5 234.5,-484.5 365.5,-484.5 365.5,-465.5 234.5,-465.5"/>
<text text-anchor="middle" x="300" y="-472.5" font-family="Helvetica,sans-Serif" font-size="10.00">XMLNode::openFileHelper</text>
</a>
</g>
</g>
<!-- Node2&#45;&gt;Node16 -->
<g id="edge25" class="edge"><title>Node2&#45;&gt;Node16</title>
<path fill="none" stroke="midnightblue" d="M178.836,-408.571C190.965,-419.95 212.61,-438.916 234,-451 241.297,-455.122 249.437,-458.778 257.42,-461.917"/>
<polygon fill="midnightblue" stroke="midnightblue" points="256.42,-465.279 267.013,-465.485 258.86,-458.718 256.42,-465.279"/>
</g>
<!-- Node17 -->
<g id="node17" class="node"><title>Node17</title>
<g id="a_node17"><a xlink:href="struct_x_m_l_node.xhtml#a006cabe59176e05bc5a3f06c0cf6d8c1" target="_top" xlink:title="XMLNode::setGlobalOptions">
<polygon fill="white" stroke="black" points="408.5,-503.5 408.5,-522.5 549.5,-522.5 549.5,-503.5 408.5,-503.5"/>
<text text-anchor="middle" x="479" y="-510.5" font-family="Helvetica,sans-Serif" font-size="10.00">XMLNode::setGlobalOptions</text>
</a>
</g>
</g>
<!-- Node2&#45;&gt;Node17 -->
<g id="edge46" class="edge"><title>Node2&#45;&gt;Node17</title>
<path fill="none" stroke="midnightblue" d="M172.335,-408.672C179.799,-428.66 199.918,-474.294 234,-494 285.037,-523.509 352.427,-526.612 403.451,-523.264"/>
<polygon fill="midnightblue" stroke="midnightblue" points="403.719,-526.754 413.428,-522.515 403.194,-519.774 403.719,-526.754"/>
</g>
<!-- Node18 -->
<g id="node18" class="node"><title>Node18</title>
<g id="a_node18"><a xlink:href="struct_x_m_l_node.xhtml#a5e5968e052d58350918cd91e3535624b" target="_top" xlink:title="XMLNode::parseFile">
<polygon fill="white" stroke="black" points="426,-427.5 426,-446.5 532,-446.5 532,-427.5 426,-427.5"/>
<text text-anchor="middle" x="479" y="-434.5" font-family="Helvetica,sans-Serif" font-size="10.00">XMLNode::parseFile</text>
</a>
</g>
</g>
<!-- Node2&#45;&gt;Node18 -->
<g id="edge45" class="edge"><title>Node2&#45;&gt;Node18</title>
<path fill="none" stroke="midnightblue" d="M197.666,-405.912C208.938,-408.436 222.025,-411.128 234,-413 295.445,-422.607 366.232,-429.066 415.683,-432.84"/>
<polygon fill="midnightblue" stroke="midnightblue" points="415.667,-436.349 425.9,-433.605 416.189,-429.368 415.667,-436.349"/>
</g>
<!-- Node2&#45;&gt;Node27 -->
<g id="edge47" class="edge"><title>Node2&#45;&gt;Node27</title>
<path fill="none" stroke="midnightblue" d="M178.836,-389.429C190.965,-378.05 212.61,-359.084 234,-347 244.344,-341.156 256.382,-336.249 267.266,-332.426"/>
<polygon fill="midnightblue" stroke="midnightblue" points="268.48,-335.711 276.856,-329.224 266.263,-329.071 268.48,-335.711"/>
</g>
<!-- Node3&#45;&gt;Node4 -->
<g id="edge3" class="edge"><title>Node3&#45;&gt;Node4</title>
<path fill="none" stroke="midnightblue" d="M494.118,-389.477C523.247,-369.827 590.255,-324.627 625.829,-300.63"/>
<polygon fill="midnightblue" stroke="midnightblue" points="628.231,-303.232 634.564,-294.738 624.316,-297.429 628.231,-303.232"/>
</g>
<!-- Node5 -->
<g id="node5" class="node"><title>Node5</title>
<g id="a_node5"><a xlink:href="_c_d_a_q_2_plugins_2_source_2xml_parser_8cpp.xhtml#af77e3e2685487b9c492b20c36f3b864a" target="_top" xlink:title="_strnicmp">
<polygon fill="white" stroke="black" points="777.5,-123.5 777.5,-142.5 836.5,-142.5 836.5,-123.5 777.5,-123.5"/>
<text text-anchor="middle" x="807" y="-130.5" font-family="Helvetica,sans-Serif" font-size="10.00">_strnicmp</text>
</a>
</g>
</g>
<!-- Node4&#45;&gt;Node5 -->
<g id="edge4" class="edge"><title>Node4&#45;&gt;Node5</title>
<path fill="none" stroke="midnightblue" d="M686.453,-275.455C694.359,-271.963 702.128,-267.269 708,-261 741.44,-225.303 710.043,-192.205 744,-157 750.532,-150.228 759.19,-145.335 767.959,-141.812"/>
<polygon fill="midnightblue" stroke="midnightblue" points="769.138,-145.107 777.421,-138.502 766.826,-138.5 769.138,-145.107"/>
</g>
<!-- Node4&#45;&gt;Node6 -->
<g id="edge5" class="edge"><title>Node4&#45;&gt;Node6</title>
<path fill="none" stroke="midnightblue" d="M662.622,-275.159C675.388,-263.784 695.705,-243.927 708,-223 733.844,-179.012 707.537,-149.683 744,-114 752.625,-105.56 764.896,-100.857 776.249,-98.2408"/>
<polygon fill="midnightblue" stroke="midnightblue" points="777.092,-101.644 786.285,-96.3778 775.814,-94.7617 777.092,-101.644"/>
</g>
<!-- Node4&#45;&gt;Node7 -->
<g id="edge6" class="edge"><title>Node4&#45;&gt;Node7</title>
<path fill="none" stroke="midnightblue" d="M690.113,-294.589C710.475,-299.581 735.566,-305.732 757.189,-311.033"/>
<polygon fill="midnightblue" stroke="midnightblue" points="756.622,-314.498 767.168,-313.48 758.289,-307.699 756.622,-314.498"/>
</g>
<!-- Node8 -->
<g id="node8" class="node"><title>Node8</title>
<g id="a_node8"><a xlink:href="_c_d_a_q_2_plugins_2_source_2xml_parser_8cpp.xhtml#a8dd6e6cada28ea03e5cacd075b1be7f6" target="_top" xlink:title="xfopen">
<polygon fill="white" stroke="black" points="919,-427.5 919,-446.5 965,-446.5 965,-427.5 919,-427.5"/>
<text text-anchor="middle" x="942" y="-434.5" font-family="Helvetica,sans-Serif" font-size="10.00">xfopen</text>
</a>
</g>
</g>
<!-- Node4&#45;&gt;Node8 -->
<g id="edge14" class="edge"><title>Node4&#45;&gt;Node8</title>
<path fill="none" stroke="midnightblue" d="M659.889,-294.648C675.496,-311.095 709.462,-344.745 744,-365 798.179,-396.774 868.781,-418.417 909.08,-429.156"/>
<polygon fill="midnightblue" stroke="midnightblue" points="908.325,-432.576 918.884,-431.712 910.091,-425.803 908.325,-432.576"/>
</g>
<!-- Node9 -->
<g id="node9" class="node"><title>Node9</title>
<g id="a_node9"><a xlink:href="_c_d_a_q_2_plugins_2_source_2xml_parser_8cpp.xhtml#a73c2349b2f386ee50130a3961bd2dbab" target="_top" xlink:title="xstrcpy">
<polygon fill="white" stroke="black" points="917.5,-303.5 917.5,-322.5 966.5,-322.5 966.5,-303.5 917.5,-303.5"/>
<text text-anchor="middle" x="942" y="-310.5" font-family="Helvetica,sans-Serif" font-size="10.00">xstrcpy</text>
</a>
</g>
</g>
<!-- Node4&#45;&gt;Node9 -->
<g id="edge15" class="edge"><title>Node4&#45;&gt;Node9</title>
<path fill="none" stroke="midnightblue" d="M700.631,-288.743C745.054,-292.227 811.939,-297.804 870,-304 882.231,-305.305 895.621,-306.947 907.443,-308.47"/>
<polygon fill="midnightblue" stroke="midnightblue" points="906.991,-311.94 917.361,-309.766 907.899,-304.999 906.991,-311.94"/>
</g>
<!-- Node10 -->
<g id="node10" class="node"><title>Node10</title>
<g id="a_node10"><a xlink:href="_c_d_a_q_2_plugins_2_source_2xml_parser_8cpp.xhtml#a2e64ea95685df2d289c31a50419b532d" target="_top" xlink:title="xstricmp">
<polygon fill="white" stroke="black" points="915,-579.5 915,-598.5 969,-598.5 969,-579.5 915,-579.5"/>
<text text-anchor="middle" x="942" y="-586.5" font-family="Helvetica,sans-Serif" font-size="10.00">xstricmp</text>
</a>
</g>
</g>
<!-- Node4&#45;&gt;Node10 -->
<g id="edge16" class="edge"><title>Node4&#45;&gt;Node10</title>
<path fill="none" stroke="midnightblue" d="M657.743,-294.75C672.432,-315.743 708.833,-366.44 744,-405 804.434,-471.265 884.782,-541.429 921.364,-572.522"/>
<polygon fill="midnightblue" stroke="midnightblue" points="919.391,-575.437 929.286,-579.224 923.912,-570.093 919.391,-575.437"/>
</g>
<!-- Node11 -->
<g id="node11" class="node"><title>Node11</title>
<g id="a_node11"><a xlink:href="_c_d_a_q_2_plugins_2_source_2xml_parser_8cpp.xhtml#a49fa66f65d2d28ce7b7e0b1752425915" target="_top" xlink:title="xstrlen">
<polygon fill="white" stroke="black" points="919,-351.5 919,-370.5 965,-370.5 965,-351.5 919,-351.5"/>
<text text-anchor="middle" x="942" y="-358.5" font-family="Helvetica,sans-Serif" font-size="10.00">xstrlen</text>
</a>
</g>
</g>
<!-- Node4&#45;&gt;Node11 -->
<g id="edge17" class="edge"><title>Node4&#45;&gt;Node11</title>
<path fill="none" stroke="midnightblue" d="M662.737,-294.67C679.56,-307.923 712.035,-331.301 744,-342 799.664,-360.632 868.766,-362.858 908.581,-362.277"/>
<polygon fill="midnightblue" stroke="midnightblue" points="908.839,-365.772 918.761,-362.057 908.688,-358.774 908.839,-365.772"/>
</g>
<!-- Node12 -->
<g id="node12" class="node"><title>Node12</title>
<g id="a_node12"><a xlink:href="_c_d_a_q_2_plugins_2_source_2xml_parser_8cpp.xhtml#a3165858f70cd74ffab31ebc2ddc9e104" target="_top" xlink:title="xstrncmp">
<polygon fill="white" stroke="black" points="913.5,-246.5 913.5,-265.5 970.5,-265.5 970.5,-246.5 913.5,-246.5"/>
<text text-anchor="middle" x="942" y="-253.5" font-family="Helvetica,sans-Serif" font-size="10.00">xstrncmp</text>
</a>
</g>
</g>
<!-- Node4&#45;&gt;Node12 -->
<g id="edge18" class="edge"><title>Node4&#45;&gt;Node12</title>
<path fill="none" stroke="midnightblue" d="M700.523,-280.048C757.883,-274.312 851.127,-264.987 903.045,-259.796"/>
<polygon fill="midnightblue" stroke="midnightblue" points="903.559,-263.262 913.161,-258.784 902.863,-256.296 903.559,-263.262"/>
</g>
<!-- Node13 -->
<g id="node13" class="node"><title>Node13</title>
<g id="a_node13"><a xlink:href="_c_d_a_q_2_plugins_2_source_2xml_parser_8cpp.xhtml#a17c9570640aed10b61deec9047cb0940" target="_top" xlink:title="xstrnicmp">
<polygon fill="white" stroke="black" points="912.5,-199.5 912.5,-218.5 971.5,-218.5 971.5,-199.5 912.5,-199.5"/>
<text text-anchor="middle" x="942" y="-206.5" font-family="Helvetica,sans-Serif" font-size="10.00">xstrnicmp</text>
</a>
</g>
</g>
<!-- Node4&#45;&gt;Node13 -->
<g id="edge19" class="edge"><title>Node4&#45;&gt;Node13</title>
<path fill="none" stroke="midnightblue" d="M684.523,-275.418C702.19,-270.422 724.237,-264.27 744,-259 798.888,-244.364 862.648,-228.363 902.415,-218.502"/>
<polygon fill="midnightblue" stroke="midnightblue" points="903.368,-221.872 912.234,-216.071 901.685,-215.077 903.368,-221.872"/>
</g>
<!-- Node14 -->
<g id="node14" class="node"><title>Node14</title>
<g id="a_node14"><a xlink:href="_c_d_a_q_2_plugins_2_source_2xml_parser_8cpp.xhtml#a696ca59a310359980c57de039f137697" target="_top" xlink:title="xstrstr">
<polygon fill="white" stroke="black" points="920,-161.5 920,-180.5 964,-180.5 964,-161.5 920,-161.5"/>
<text text-anchor="middle" x="942" y="-168.5" font-family="Helvetica,sans-Serif" font-size="10.00">xstrstr</text>
</a>
</g>
</g>
<!-- Node4&#45;&gt;Node14 -->
<g id="edge20" class="edge"><title>Node4&#45;&gt;Node14</title>
<path fill="none" stroke="midnightblue" d="M680.033,-275.469C689.39,-271.708 699.525,-266.867 708,-261 727.129,-247.759 723.989,-234.866 744,-223 797.067,-191.532 869.267,-178.806 909.897,-173.89"/>
<polygon fill="midnightblue" stroke="midnightblue" points="910.452,-177.35 919.997,-172.751 909.667,-170.394 910.452,-177.35"/>
</g>
<!-- Node7&#45;&gt;Node8 -->
<g id="edge7" class="edge"><title>Node7&#45;&gt;Node8</title>
<path fill="none" stroke="midnightblue" d="M819.34,-332.72C842.111,-352.238 893.623,-396.391 921.764,-420.512"/>
<polygon fill="midnightblue" stroke="midnightblue" points="919.819,-423.454 929.689,-427.305 924.374,-418.14 919.819,-423.454"/>
</g>
<!-- Node7&#45;&gt;Node9 -->
<g id="edge8" class="edge"><title>Node7&#45;&gt;Node9</title>
<path fill="none" stroke="midnightblue" d="M870.217,-318.322C882.922,-317.367 895.838,-316.396 907.097,-315.549"/>
<polygon fill="midnightblue" stroke="midnightblue" points="907.613,-319.02 917.323,-314.78 907.089,-312.04 907.613,-319.02"/>
</g>
<!-- Node7&#45;&gt;Node10 -->
<g id="edge9" class="edge"><title>Node7&#45;&gt;Node10</title>
<path fill="none" stroke="midnightblue" d="M812.891,-332.783C832.487,-371.974 905.515,-518.03 931.636,-570.271"/>
<polygon fill="midnightblue" stroke="midnightblue" points="928.602,-572.03 936.205,-579.409 934.863,-568.899 928.602,-572.03"/>
</g>
<!-- Node7&#45;&gt;Node11 -->
<g id="edge10" class="edge"><title>Node7&#45;&gt;Node11</title>
<path fill="none" stroke="midnightblue" d="M841.562,-332.589C862.233,-338.495 888.584,-346.024 908.966,-351.847"/>
<polygon fill="midnightblue" stroke="midnightblue" points="908.153,-355.255 918.729,-354.637 910.076,-348.524 908.153,-355.255"/>
</g>
<!-- Node7&#45;&gt;Node12 -->
<g id="edge11" class="edge"><title>Node7&#45;&gt;Node12</title>
<path fill="none" stroke="midnightblue" d="M827.056,-313.401C849.475,-302.107 886.905,-283.251 912.713,-270.25"/>
<polygon fill="midnightblue" stroke="midnightblue" points="914.624,-273.206 921.98,-265.582 911.474,-266.955 914.624,-273.206"/>
</g>
<!-- Node7&#45;&gt;Node13 -->
<g id="edge12" class="edge"><title>Node7&#45;&gt;Node13</title>
<path fill="none" stroke="midnightblue" d="M818.736,-313.292C836.619,-297.188 873.73,-264.043 906,-237 910.622,-233.126 915.654,-229.032 920.423,-225.206"/>
<polygon fill="midnightblue" stroke="midnightblue" points="922.935,-227.679 928.579,-218.713 918.575,-222.203 922.935,-227.679"/>
</g>
<!-- Node7&#45;&gt;Node14 -->
<g id="edge13" class="edge"><title>Node7&#45;&gt;Node14</title>
<path fill="none" stroke="midnightblue" d="M813.217,-313.176C826.198,-289.464 862.095,-228.241 906,-190 907.525,-188.672 909.158,-187.399 910.856,-186.186"/>
<polygon fill="midnightblue" stroke="midnightblue" points="913.064,-188.932 919.666,-180.646 909.337,-183.007 913.064,-188.932"/>
</g>
<!-- Node15&#45;&gt;Node4 -->
<g id="edge22" class="edge"><title>Node15&#45;&gt;Node4</title>
<path fill="none" stroke="midnightblue" d="M522.646,-256.589C545.148,-261.649 572.948,-267.9 596.738,-273.249"/>
<polygon fill="midnightblue" stroke="midnightblue" points="596.137,-276.701 606.661,-275.48 597.672,-269.871 596.137,-276.701"/>
</g>
<!-- Node15&#45;&gt;Node5 -->
<g id="edge24" class="edge"><title>Node15&#45;&gt;Node5</title>
<path fill="none" stroke="midnightblue" d="M556.138,-253.644C602.763,-254.294 662.087,-248.744 708,-223 730.951,-210.131 724.96,-194.161 744,-176 755.104,-165.409 769.027,-155.507 780.865,-147.881"/>
<polygon fill="midnightblue" stroke="midnightblue" points="782.811,-150.793 789.43,-142.52 779.097,-144.859 782.811,-150.793"/>
</g>
<!-- Node15&#45;&gt;Node6 -->
<g id="edge23" class="edge"><title>Node15&#45;&gt;Node6</title>
<path fill="none" stroke="midnightblue" d="M522.257,-237.467C584.095,-223.224 693.509,-196.803 708,-185 735.432,-162.657 716.927,-136.778 744,-114 753.168,-106.287 765.428,-101.703 776.625,-98.9797"/>
<polygon fill="midnightblue" stroke="midnightblue" points="777.392,-102.395 786.49,-96.9654 775.992,-95.5368 777.392,-102.395"/>
</g>
<!-- Node16&#45;&gt;Node3 -->
<g id="edge44" class="edge"><title>Node16&#45;&gt;Node3</title>
<path fill="none" stroke="midnightblue" d="M315.106,-465.411C334.091,-452.894 369.27,-431.049 402,-418 408.281,-415.496 414.989,-413.247 421.721,-411.25"/>
<polygon fill="midnightblue" stroke="midnightblue" points="422.866,-414.565 431.555,-408.503 420.982,-407.823 422.866,-414.565"/>
</g>
<!-- Node16&#45;&gt;Node8 -->
<g id="edge26" class="edge"><title>Node16&#45;&gt;Node8</title>
<path fill="none" stroke="midnightblue" d="M365.682,-475.472C471.516,-475.528 688.121,-472.639 870,-451 882.737,-449.485 896.607,-446.951 908.681,-444.453"/>
<polygon fill="midnightblue" stroke="midnightblue" points="909.711,-447.812 918.755,-442.293 908.243,-440.967 909.711,-447.812"/>
</g>
<!-- Node16&#45;&gt;Node15 -->
<g id="edge28" class="edge"><title>Node16&#45;&gt;Node15</title>
<path fill="none" stroke="midnightblue" d="M308.38,-465.493C335.369,-430.728 428.969,-310.158 464.33,-264.609"/>
<polygon fill="midnightblue" stroke="midnightblue" points="467.221,-266.593 470.588,-256.547 461.691,-262.3 467.221,-266.593"/>
</g>
<!-- Node16&#45;&gt;Node17 -->
<g id="edge27" class="edge"><title>Node16&#45;&gt;Node17</title>
<path fill="none" stroke="midnightblue" d="M345.665,-484.589C369.337,-489.671 398.608,-495.955 423.597,-501.32"/>
<polygon fill="midnightblue" stroke="midnightblue" points="423.145,-504.803 433.657,-503.48 424.614,-497.959 423.145,-504.803"/>
</g>
<!-- Node16&#45;&gt;Node18 -->
<g id="edge29" class="edge"><title>Node16&#45;&gt;Node18</title>
<path fill="none" stroke="midnightblue" d="M345.665,-465.411C369.337,-460.329 398.608,-454.045 423.597,-448.68"/>
<polygon fill="midnightblue" stroke="midnightblue" points="424.614,-452.041 433.657,-446.52 423.145,-445.197 424.614,-452.041"/>
</g>
<!-- Node18&#45;&gt;Node4 -->
<g id="edge31" class="edge"><title>Node18&#45;&gt;Node4</title>
<path fill="none" stroke="midnightblue" d="M532.045,-429.324C540.512,-426.615 548.841,-422.952 556,-418 579.118,-402.01 575.912,-389.05 592,-366 607.056,-344.43 624.472,-319.715 636.051,-303.316"/>
<polygon fill="midnightblue" stroke="midnightblue" points="639.221,-304.895 642.132,-294.708 633.503,-300.856 639.221,-304.895"/>
</g>
<!-- Node18&#45;&gt;Node7 -->
<g id="edge32" class="edge"><title>Node18&#45;&gt;Node7</title>
<path fill="none" stroke="midnightblue" d="M522.06,-427.427C533.17,-424.642 545.1,-421.42 556,-418 635.823,-392.952 727.129,-356.101 774.21,-336.471"/>
<polygon fill="midnightblue" stroke="midnightblue" points="775.692,-339.645 783.565,-332.554 772.989,-333.188 775.692,-339.645"/>
</g>
<!-- Node18&#45;&gt;Node8 -->
<g id="edge30" class="edge"><title>Node18&#45;&gt;Node8</title>
<path fill="none" stroke="midnightblue" d="M532.434,-437C628.45,-437 829.867,-437 908.538,-437"/>
<polygon fill="midnightblue" stroke="midnightblue" points="908.8,-440.5 918.8,-437 908.8,-433.5 908.8,-440.5"/>
</g>
<!-- Node19 -->
<g id="node19" class="node"><title>Node19</title>
<g id="a_node19"><a xlink:href="struct_x_m_l_node.xhtml#acb95f4f00e4cf3756aac0e3a53765248" target="_top" xlink:title="XMLNode::parseString">
<polygon fill="white" stroke="black" points="592,-655.5 592,-674.5 708,-674.5 708,-655.5 592,-655.5"/>
<text text-anchor="middle" x="650" y="-662.5" font-family="Helvetica,sans-Serif" font-size="10.00">XMLNode::parseString</text>
</a>
</g>
</g>
<!-- Node18&#45;&gt;Node19 -->
<g id="edge33" class="edge"><title>Node18&#45;&gt;Node19</title>
<path fill="none" stroke="midnightblue" d="M496.767,-446.612C513.371,-456.76 538.745,-474.034 556,-494 597.673,-542.219 628.418,-612.195 641.719,-645.704"/>
<polygon fill="midnightblue" stroke="midnightblue" points="638.535,-647.173 645.417,-655.229 645.061,-644.64 638.535,-647.173"/>
</g>
<!-- Node19&#45;&gt;Node10 -->
<g id="edge40" class="edge"><title>Node19&#45;&gt;Node10</title>
<path fill="none" stroke="midnightblue" d="M708.445,-668.97C753.89,-670.03 818.11,-666.816 870,-646 891.83,-637.243 912.269,-619.409 925.56,-606.008"/>
<polygon fill="midnightblue" stroke="midnightblue" points="928.135,-608.38 932.516,-598.733 923.075,-603.542 928.135,-608.38"/>
</g>
<!-- Node19&#45;&gt;Node11 -->
<g id="edge39" class="edge"><title>Node19&#45;&gt;Node11</title>
<path fill="none" stroke="midnightblue" d="M660.32,-655.23C701.995,-611.543 871.537,-433.817 924.863,-377.916"/>
<polygon fill="midnightblue" stroke="midnightblue" points="927.489,-380.234 931.859,-370.582 922.424,-375.402 927.489,-380.234"/>
</g>
<!-- Node20 -->
<g id="node20" class="node"><title>Node20</title>
<g id="a_node20"><a xlink:href="struct_x_m_l_node.xhtml#a8e52198f258167cd796dae21f1ffc352" target="_top" xlink:title="XMLNode::nChildNode">
<polygon fill="white" stroke="black" points="748.5,-617.5 748.5,-636.5 865.5,-636.5 865.5,-617.5 748.5,-617.5"/>
<text text-anchor="middle" x="807" y="-624.5" font-family="Helvetica,sans-Serif" font-size="10.00">XMLNode::nChildNode</text>
</a>
</g>
</g>
<!-- Node19&#45;&gt;Node20 -->
<g id="edge34" class="edge"><title>Node19&#45;&gt;Node20</title>
<path fill="none" stroke="midnightblue" d="M690.113,-655.411C710.475,-650.419 735.566,-644.268 757.189,-638.967"/>
<polygon fill="midnightblue" stroke="midnightblue" points="758.289,-642.301 767.168,-636.52 756.622,-635.502 758.289,-642.301"/>
</g>
<!-- Node21 -->
<g id="node21" class="node"><title>Node21</title>
<g id="a_node21"><a xlink:href="struct_x_m_l_node.xhtml#a8e9538deb9144dcab39b3a510a8202f1" target="_top" xlink:title="XMLNode::nElement">
<polygon fill="white" stroke="black" points="753.5,-579.5 753.5,-598.5 860.5,-598.5 860.5,-579.5 753.5,-579.5"/>
<text text-anchor="middle" x="807" y="-586.5" font-family="Helvetica,sans-Serif" font-size="10.00">XMLNode::nElement</text>
</a>
</g>
</g>
<!-- Node19&#45;&gt;Node21 -->
<g id="edge36" class="edge"><title>Node19&#45;&gt;Node21</title>
<path fill="none" stroke="midnightblue" d="M664.267,-655.371C681.793,-643.01 713.962,-621.544 744,-608 749.003,-605.744 754.349,-603.658 759.726,-601.76"/>
<polygon fill="midnightblue" stroke="midnightblue" points="760.988,-605.028 769.37,-598.548 758.777,-598.387 760.988,-605.028"/>
</g>
<!-- Node22 -->
<g id="node22" class="node"><title>Node22</title>
<g id="a_node22"><a xlink:href="struct_x_m_l_node.xhtml#a77a21438b6d48a52cf8a1270f82f4475" target="_top" xlink:title="XMLNode::getChildNode">
<polygon fill="white" stroke="black" points="744.5,-769.5 744.5,-788.5 869.5,-788.5 869.5,-769.5 744.5,-769.5"/>
<text text-anchor="middle" x="807" y="-776.5" font-family="Helvetica,sans-Serif" font-size="10.00">XMLNode::getChildNode</text>
</a>
</g>
</g>
<!-- Node19&#45;&gt;Node22 -->
<g id="edge37" class="edge"><title>Node19&#45;&gt;Node22</title>
<path fill="none" stroke="midnightblue" d="M657.776,-674.626C671.718,-693.729 705.553,-736.602 744,-760 747.419,-762.08 751.083,-763.949 754.86,-765.626"/>
<polygon fill="midnightblue" stroke="midnightblue" points="753.814,-768.976 764.4,-769.406 756.393,-762.468 753.814,-768.976"/>
</g>
<!-- Node23 -->
<g id="node23" class="node"><title>Node23</title>
<g id="a_node23"><a xlink:href="struct_x_m_l_node.xhtml#a7e07715aa0ed894da96bd66c90d423f0" target="_top" xlink:title="XMLNode::getName">
<polygon fill="white" stroke="black" points="754,-731.5 754,-750.5 860,-750.5 860,-731.5 754,-731.5"/>
<text text-anchor="middle" x="807" y="-738.5" font-family="Helvetica,sans-Serif" font-size="10.00">XMLNode::getName</text>
</a>
</g>
</g>
<!-- Node19&#45;&gt;Node23 -->
<g id="edge38" class="edge"><title>Node19&#45;&gt;Node23</title>
<path fill="none" stroke="midnightblue" d="M664.267,-674.629C681.793,-686.99 713.962,-708.456 744,-722 749.003,-724.256 754.349,-726.342 759.726,-728.24"/>
<polygon fill="midnightblue" stroke="midnightblue" points="758.777,-731.613 769.37,-731.452 760.988,-724.972 758.777,-731.613"/>
</g>
<!-- Node24 -->
<g id="node24" class="node"><title>Node24</title>
<g id="a_node24"><a xlink:href="struct_x_m_l_node.xhtml#a71df27d54a2dc09b0a456406a7e8c6d3" target="_top" xlink:title="XMLNode::isDeclaration">
<polygon fill="white" stroke="black" points="745.5,-693.5 745.5,-712.5 868.5,-712.5 868.5,-693.5 745.5,-693.5"/>
<text text-anchor="middle" x="807" y="-700.5" font-family="Helvetica,sans-Serif" font-size="10.00">XMLNode::isDeclaration</text>
</a>
</g>
</g>
<!-- Node19&#45;&gt;Node24 -->
<g id="edge41" class="edge"><title>Node19&#45;&gt;Node24</title>
<path fill="none" stroke="midnightblue" d="M690.113,-674.589C710.475,-679.581 735.566,-685.732 757.189,-691.033"/>
<polygon fill="midnightblue" stroke="midnightblue" points="756.622,-694.498 767.168,-693.48 758.289,-687.699 756.622,-694.498"/>
</g>
<!-- Node25 -->
<g id="node25" class="node"><title>Node25</title>
<g id="a_node25"><a xlink:href="_c_d_a_q_2_plugins_2_source_2xml_parser_8cpp.xhtml#ae6aa5a367ab3cc92b47fd92f81add72a" target="_top" xlink:title="CountLinesAndColumns">
<polygon fill="white" stroke="black" points="746,-807.5 746,-826.5 868,-826.5 868,-807.5 746,-807.5"/>
<text text-anchor="middle" x="807" y="-814.5" font-family="Helvetica,sans-Serif" font-size="10.00">CountLinesAndColumns</text>
</a>
</g>
</g>
<!-- Node19&#45;&gt;Node25 -->
<g id="edge42" class="edge"><title>Node19&#45;&gt;Node25</title>
<path fill="none" stroke="midnightblue" d="M655.041,-674.687C665.754,-699.175 697.294,-764.019 744,-798 746.64,-799.921 749.478,-801.65 752.434,-803.207"/>
<polygon fill="midnightblue" stroke="midnightblue" points="751.03,-806.413 761.581,-807.378 753.935,-800.044 751.03,-806.413"/>
</g>
<!-- Node20&#45;&gt;Node10 -->
<g id="edge35" class="edge"><title>Node20&#45;&gt;Node10</title>
<path fill="none" stroke="midnightblue" d="M841.562,-617.411C860.828,-611.906 885.028,-604.992 904.731,-599.363"/>
<polygon fill="midnightblue" stroke="midnightblue" points="905.921,-602.663 914.574,-596.55 903.998,-595.932 905.921,-602.663"/>
</g>
<!-- Node26 -->
<g id="node26" class="node"><title>Node26</title>
<g id="a_node26"><a xlink:href="_c_d_a_q_2_plugins_2_source_2xml_parser_8cpp.xhtml#af03c1c87ed4ddb95f7b49d53d9117c53" target="_top" xlink:title="getNextChar">
<polygon fill="white" stroke="black" points="906,-807.5 906,-826.5 978,-826.5 978,-807.5 906,-807.5"/>
<text text-anchor="middle" x="942" y="-814.5" font-family="Helvetica,sans-Serif" font-size="10.00">getNextChar</text>
</a>
</g>
</g>
<!-- Node25&#45;&gt;Node26 -->
<g id="edge43" class="edge"><title>Node25&#45;&gt;Node26</title>
<path fill="none" stroke="midnightblue" d="M868.274,-817C877.462,-817 886.811,-817 895.609,-817"/>
<polygon fill="midnightblue" stroke="midnightblue" points="895.642,-820.5 905.642,-817 895.642,-813.5 895.642,-820.5"/>
</g>
</g>
</svg>
