<?xml version="1.0" encoding="UTF-8" standalone="no"?>
<!DOCTYPE svg PUBLIC "-//W3C//DTD SVG 1.1//EN"
 "http://www.w3.org/Graphics/SVG/1.1/DTD/svg11.dtd">
<!-- Generated by graphviz version 2.36.0 (20140111.2315)
 -->
<!-- Title: /data/Software/DAQ/XDAQ/Plugins/Include/common.h Pages: 1 -->
<!--zoomable 284 -->
<svg id="main" version="1.1" xmlns="http://www.w3.org/2000/svg" xmlns:xlink="http://www.w3.org/1999/xlink" xml:space="preserve" onload="init(evt)">
<style type="text/css"><![CDATA[
.edge:hover path { stroke: red; }
.edge:hover polygon { stroke: red; fill: red; }
]]></style>
<script type="text/javascript"><![CDATA[
var edges = document.getElementsByTagName('g');
if (edges && edges.length) {
  for (var i=0;i<edges.length;i++) {
    if (edges[i].id.substr(0,4)=='edge') {
      edges[i].setAttribute('class','edge');
    }
  }
}
]]></script>
        <defs>
                <circle id="rim" cx="0" cy="0" r="7"/>
                <circle id="rim2" cx="0" cy="0" r="3.5"/>
                <g id="zoomPlus">
                        <use xlink:href="#rim" fill="#404040">
                                <set attributeName="fill" to="#808080" begin="zoomplus.mouseover" end="zoomplus.mouseout"/>
                        </use>
                        <path d="M-4,0h8M0,-4v8" fill="none" stroke="white" stroke-width="1.5" pointer-events="none"/>
                </g>
                <g id="zoomMin">
                        <use xlink:href="#rim" fill="#404040">
                                <set attributeName="fill" to="#808080" begin="zoomminus.mouseover" end="zoomminus.mouseout"/>
                        </use>
                        <path d="M-4,0h8" fill="none" stroke="white" stroke-width="1.5" pointer-events="none"/>
                </g>
                <g id="dirArrow">
                        <path fill="none" stroke="white" stroke-width="1.5" d="M0,-3.0v7 M-2.5,-0.5L0,-3.0L2.5,-0.5"/>
                </g>
               <g id="resetDef">
                       <use xlink:href="#rim2" fill="#404040">
                               <set attributeName="fill" to="#808080" begin="reset.mouseover" end="reset.mouseout"/>
                       </use>
               </g>
        </defs>

<script type="text/javascript">
var viewWidth = 2372;
var viewHeight = 284;
var sectionId = 'dynsection-1';
</script>
<script xlink:href="svgpan.js"/>
<svg id="graph" class="graph">
<g id="viewport">
<title>/data/Software/DAQ/XDAQ/Plugins/Include/common.h</title>
<polygon fill="white" stroke="none" points="-4,4 -4,-280 2368,-280 2368,4 -4,4"/>
<!-- Node1 -->
<g id="node1" class="node"><title>Node1</title>
<polygon fill="#bfbfbf" stroke="black" points="1371,-234.5 1371,-275.5 1489,-275.5 1489,-234.5 1371,-234.5"/>
<text text-anchor="start" x="1379" y="-263.5" font-family="Helvetica,sans-Serif" font-size="10.00">/data/Software/DAQ</text>
<text text-anchor="start" x="1379" y="-252.5" font-family="Helvetica,sans-Serif" font-size="10.00">/XDAQ/Plugins/Include</text>
<text text-anchor="middle" x="1430" y="-241.5" font-family="Helvetica,sans-Serif" font-size="10.00">/common.h</text>
</g>
<!-- Node2 -->
<g id="node2" class="node"><title>Node2</title>
<g id="a_node2"><a xlink:href="_a_d_c_manager_8h.xhtml" target="_top" xlink:title="/data/Software/DAQ\l/CDAQ/Core/Include/ADCManager.h">
<polygon fill="white" stroke="black" points="477,-162 477,-192 655,-192 655,-162 477,-162"/>
<text text-anchor="start" x="485" y="-180" font-family="Helvetica,sans-Serif" font-size="10.00">/data/Software/DAQ</text>
<text text-anchor="middle" x="566" y="-169" font-family="Helvetica,sans-Serif" font-size="10.00">/CDAQ/Core/Include/ADCManager.h</text>
</a>
</g>
</g>
<!-- Node1&#45;&gt;Node2 -->
<g id="edge1" class="edge"><title>Node1&#45;&gt;Node2</title>
<path fill="none" stroke="midnightblue" d="M1360.57,-247.893C1204.82,-234.193 827.715,-201.021 655.032,-185.831"/>
<polygon fill="midnightblue" stroke="midnightblue" points="1360.69,-251.416 1370.95,-248.806 1361.3,-244.443 1360.69,-251.416"/>
</g>
<!-- Node5 -->
<g id="node5" class="node"><title>Node5</title>
<g id="a_node5"><a xlink:href="_a_d_c_manager1720_8h.xhtml" target="_top" xlink:title="/data/Software/DAQ\l/CDAQ/Core/Include/ADCManager1720.h">
<polygon fill="white" stroke="black" points="1026.5,-84 1026.5,-114 1225.5,-114 1225.5,-84 1026.5,-84"/>
<text text-anchor="start" x="1034.5" y="-102" font-family="Helvetica,sans-Serif" font-size="10.00">/data/Software/DAQ</text>
<text text-anchor="middle" x="1126" y="-91" font-family="Helvetica,sans-Serif" font-size="10.00">/CDAQ/Core/Include/ADCManager1720.h</text>
</a>
</g>
</g>
<!-- Node1&#45;&gt;Node5 -->
<g id="edge18" class="edge"><title>Node1&#45;&gt;Node5</title>
<path fill="none" stroke="midnightblue" d="M1382.38,-229.878C1318.15,-197.341 1205.82,-140.437 1153.85,-114.106"/>
<polygon fill="midnightblue" stroke="midnightblue" points="1381,-233.099 1391.5,-234.496 1384.16,-226.854 1381,-233.099"/>
</g>
<!-- Node7 -->
<g id="node7" class="node"><title>Node7</title>
<g id="a_node7"><a xlink:href="_a_d_c_manager1724_8h.xhtml" target="_top" xlink:title="/data/Software/DAQ\l/CDAQ/Core/Include/ADCManager1724.h">
<polygon fill="white" stroke="black" points="530.5,-84 530.5,-114 729.5,-114 729.5,-84 530.5,-84"/>
<text text-anchor="start" x="538.5" y="-102" font-family="Helvetica,sans-Serif" font-size="10.00">/data/Software/DAQ</text>
<text text-anchor="middle" x="630" y="-91" font-family="Helvetica,sans-Serif" font-size="10.00">/CDAQ/Core/Include/ADCManager1724.h</text>
</a>
</g>
</g>
<!-- Node1&#45;&gt;Node7 -->
<g id="edge19" class="edge"><title>Node1&#45;&gt;Node7</title>
<path fill="none" stroke="midnightblue" d="M1360.94,-243.855C1291.16,-233.354 1180.34,-215.992 1085,-198 943.067,-171.214 777.51,-134.055 690.517,-114.068"/>
<polygon fill="midnightblue" stroke="midnightblue" points="1360.52,-247.331 1370.93,-245.354 1361.56,-240.409 1360.52,-247.331"/>
</g>
<!-- Node9 -->
<g id="node9" class="node"><title>Node9</title>
<g id="a_node9"><a xlink:href="_a_d_c_manager1730_8h.xhtml" target="_top" xlink:title="/data/Software/DAQ\l/CDAQ/Core/Include/ADCManager1730.h">
<polygon fill="white" stroke="black" points="68.5,-84 68.5,-114 267.5,-114 267.5,-84 68.5,-84"/>
<text text-anchor="start" x="76.5" y="-102" font-family="Helvetica,sans-Serif" font-size="10.00">/data/Software/DAQ</text>
<text text-anchor="middle" x="168" y="-91" font-family="Helvetica,sans-Serif" font-size="10.00">/CDAQ/Core/Include/ADCManager1730.h</text>
</a>
</g>
</g>
<!-- Node1&#45;&gt;Node9 -->
<g id="edge20" class="edge"><title>Node1&#45;&gt;Node9</title>
<path fill="none" stroke="midnightblue" d="M1360.74,-252.282C1169.91,-247.182 639.399,-230.42 468,-198 368.401,-179.161 256.084,-136.371 201.444,-114.086"/>
<polygon fill="midnightblue" stroke="midnightblue" points="1360.83,-255.786 1370.92,-252.552 1361.02,-248.788 1360.83,-255.786"/>
</g>
<!-- Node12 -->
<g id="node12" class="node"><title>Node12</title>
<g id="a_node12"><a xlink:href="_scope_manager_8h.xhtml" target="_top" xlink:title="/data/Software/DAQ\l/CDAQ/Core/Include/ScopeManager.h">
<polygon fill="white" stroke="black" points="786,-84 786,-114 970,-114 970,-84 786,-84"/>
<text text-anchor="start" x="794" y="-102" font-family="Helvetica,sans-Serif" font-size="10.00">/data/Software/DAQ</text>
<text text-anchor="middle" x="878" y="-91" font-family="Helvetica,sans-Serif" font-size="10.00">/CDAQ/Core/Include/ScopeManager.h</text>
</a>
</g>
</g>
<!-- Node1&#45;&gt;Node12 -->
<g id="edge21" class="edge"><title>Node1&#45;&gt;Node12</title>
<path fill="none" stroke="midnightblue" d="M1361.04,-234.76C1248.47,-203.357 1027.88,-141.814 928.572,-114.109"/>
<polygon fill="midnightblue" stroke="midnightblue" points="1360.35,-238.203 1370.93,-237.519 1362.23,-231.461 1360.35,-238.203"/>
</g>
<!-- Node14 -->
<g id="node14" class="node"><title>Node14</title>
<g id="a_node14"><a xlink:href="_slowcontrol_manager_8h.xhtml" target="_top" xlink:title="/data/Software/DAQ\l/CDAQ/Core/Include/Slowcontrol\lManager.h">
<polygon fill="white" stroke="black" points="1243.5,-78.5 1243.5,-119.5 1404.5,-119.5 1404.5,-78.5 1243.5,-78.5"/>
<text text-anchor="start" x="1251.5" y="-107.5" font-family="Helvetica,sans-Serif" font-size="10.00">/data/Software/DAQ</text>
<text text-anchor="start" x="1251.5" y="-96.5" font-family="Helvetica,sans-Serif" font-size="10.00">/CDAQ/Core/Include/Slowcontrol</text>
<text text-anchor="middle" x="1324" y="-85.5" font-family="Helvetica,sans-Serif" font-size="10.00">Manager.h</text>
</a>
</g>
</g>
<!-- Node1&#45;&gt;Node14 -->
<g id="edge25" class="edge"><title>Node1&#45;&gt;Node14</title>
<path fill="none" stroke="midnightblue" d="M1381.79,-228.952C1369.55,-220.573 1357.49,-210.201 1349,-198 1332.55,-174.361 1326.92,-140.791 1324.99,-119.714"/>
<polygon fill="midnightblue" stroke="midnightblue" points="1379.94,-231.929 1390.24,-234.432 1383.75,-226.056 1379.94,-231.929"/>
</g>
<!-- Node16 -->
<g id="node16" class="node"><title>Node16</title>
<g id="a_node16"><a xlink:href="_storage_manager_8h.xhtml" target="_top" xlink:title="/data/Software/DAQ\l/CDAQ/Core/Include/Storage\lManager.h">
<polygon fill="white" stroke="black" points="1358,-156.5 1358,-197.5 1502,-197.5 1502,-156.5 1358,-156.5"/>
<text text-anchor="start" x="1366" y="-185.5" font-family="Helvetica,sans-Serif" font-size="10.00">/data/Software/DAQ</text>
<text text-anchor="start" x="1366" y="-174.5" font-family="Helvetica,sans-Serif" font-size="10.00">/CDAQ/Core/Include/Storage</text>
<text text-anchor="middle" x="1430" y="-163.5" font-family="Helvetica,sans-Serif" font-size="10.00">Manager.h</text>
</a>
</g>
</g>
<!-- Node1&#45;&gt;Node16 -->
<g id="edge29" class="edge"><title>Node1&#45;&gt;Node16</title>
<path fill="none" stroke="midnightblue" d="M1430,-224.297C1430,-215.301 1430,-205.653 1430,-197.506"/>
<polygon fill="midnightblue" stroke="midnightblue" points="1426.5,-224.428 1430,-234.428 1433.5,-224.428 1426.5,-224.428"/>
</g>
<!-- Node17 -->
<g id="node17" class="node"><title>Node17</title>
<g id="a_node17"><a xlink:href="_storage_manager_8cpp.xhtml" target="_top" xlink:title="/data/Software/DAQ\l/CDAQ/Core/Source/StorageManager.cpp">
<polygon fill="white" stroke="black" points="1461,-84 1461,-114 1661,-114 1661,-84 1461,-84"/>
<text text-anchor="start" x="1469" y="-102" font-family="Helvetica,sans-Serif" font-size="10.00">/data/Software/DAQ</text>
<text text-anchor="middle" x="1561" y="-91" font-family="Helvetica,sans-Serif" font-size="10.00">/CDAQ/Core/Source/StorageManager.cpp</text>
</a>
</g>
</g>
<!-- Node1&#45;&gt;Node17 -->
<g id="edge33" class="edge"><title>Node1&#45;&gt;Node17</title>
<path fill="none" stroke="midnightblue" d="M1474.8,-228.789C1487.56,-220.169 1500.76,-209.708 1511,-198 1533.51,-172.27 1548.99,-134.609 1556.26,-114.281"/>
<polygon fill="midnightblue" stroke="midnightblue" points="1472.56,-226.071 1466.09,-234.456 1476.38,-231.94 1472.56,-226.071"/>
</g>
<!-- Node18 -->
<g id="node18" class="node"><title>Node18</title>
<g id="a_node18"><a xlink:href="_c_d_a_q_2_plugins_2_source_2common_8cpp.xhtml" target="_top" xlink:title="/data/Software/DAQ\l/CDAQ/Plugins/Source\l/common.cpp">
<polygon fill="white" stroke="black" points="1558,-156.5 1558,-197.5 1676,-197.5 1676,-156.5 1558,-156.5"/>
<text text-anchor="start" x="1566" y="-185.5" font-family="Helvetica,sans-Serif" font-size="10.00">/data/Software/DAQ</text>
<text text-anchor="start" x="1566" y="-174.5" font-family="Helvetica,sans-Serif" font-size="10.00">/CDAQ/Plugins/Source</text>
<text text-anchor="middle" x="1617" y="-163.5" font-family="Helvetica,sans-Serif" font-size="10.00">/common.cpp</text>
</a>
</g>
</g>
<!-- Node1&#45;&gt;Node18 -->
<g id="edge34" class="edge"><title>Node1&#45;&gt;Node18</title>
<path fill="none" stroke="midnightblue" d="M1487.56,-230.609C1513.66,-220.001 1544.16,-207.602 1569.01,-197.506"/>
<polygon fill="midnightblue" stroke="midnightblue" points="1486.1,-227.421 1478.16,-234.428 1488.74,-233.905 1486.1,-227.421"/>
</g>
<!-- Node19 -->
<g id="node19" class="node"><title>Node19</title>
<g id="a_node19"><a xlink:href="_scaler_manager_8h.xhtml" target="_top" xlink:title="/data/Software/DAQ\l/Scaler/Core/Include\l/ScalerManager.h">
<polygon fill="white" stroke="black" points="1830,-156.5 1830,-197.5 1936,-197.5 1936,-156.5 1830,-156.5"/>
<text text-anchor="start" x="1838" y="-185.5" font-family="Helvetica,sans-Serif" font-size="10.00">/data/Software/DAQ</text>
<text text-anchor="start" x="1838" y="-174.5" font-family="Helvetica,sans-Serif" font-size="10.00">/Scaler/Core/Include</text>
<text text-anchor="middle" x="1883" y="-163.5" font-family="Helvetica,sans-Serif" font-size="10.00">/ScalerManager.h</text>
</a>
</g>
</g>
<!-- Node1&#45;&gt;Node19 -->
<g id="edge35" class="edge"><title>Node1&#45;&gt;Node19</title>
<path fill="none" stroke="midnightblue" d="M1499.15,-242.399C1590,-227.157 1747.61,-200.714 1829.76,-186.933"/>
<polygon fill="midnightblue" stroke="midnightblue" points="1498.5,-238.958 1489.22,-244.064 1499.66,-245.861 1498.5,-238.958"/>
</g>
<!-- Node24 -->
<g id="node24" class="node"><title>Node24</title>
<g id="a_node24"><a xlink:href="_i_o_manager_8h.xhtml" target="_top" xlink:title="/data/Software/DAQ\l/Scaler/IO/Include/IOManager.h">
<polygon fill="white" stroke="black" points="2002.5,-162 2002.5,-192 2157.5,-192 2157.5,-162 2002.5,-162"/>
<text text-anchor="start" x="2010.5" y="-180" font-family="Helvetica,sans-Serif" font-size="10.00">/data/Software/DAQ</text>
<text text-anchor="middle" x="2080" y="-169" font-family="Helvetica,sans-Serif" font-size="10.00">/Scaler/IO/Include/IOManager.h</text>
</a>
</g>
</g>
<!-- Node1&#45;&gt;Node24 -->
<g id="edge40" class="edge"><title>Node1&#45;&gt;Node24</title>
<path fill="none" stroke="midnightblue" d="M1499.21,-247.291C1598.01,-237.525 1785.12,-218.329 1944,-198 1962.94,-195.577 1983.32,-192.715 2002.4,-189.925"/>
<polygon fill="midnightblue" stroke="midnightblue" points="1498.66,-243.828 1489.06,-248.292 1499.35,-250.794 1498.66,-243.828"/>
</g>
<!-- Node25 -->
<g id="node25" class="node"><title>Node25</title>
<g id="a_node25"><a xlink:href="_i_o_manager_8cpp.xhtml" target="_top" xlink:title="/data/Software/DAQ\l/Scaler/IO/Source/IOManager.cpp">
<polygon fill="white" stroke="black" points="2200,-84 2200,-114 2364,-114 2364,-84 2200,-84"/>
<text text-anchor="start" x="2208" y="-102" font-family="Helvetica,sans-Serif" font-size="10.00">/data/Software/DAQ</text>
<text text-anchor="middle" x="2282" y="-91" font-family="Helvetica,sans-Serif" font-size="10.00">/Scaler/IO/Source/IOManager.cpp</text>
</a>
</g>
</g>
<!-- Node1&#45;&gt;Node25 -->
<g id="edge43" class="edge"><title>Node1&#45;&gt;Node25</title>
<path fill="none" stroke="midnightblue" d="M1499.41,-251.596C1671.25,-245.239 2106.89,-226.492 2166,-198 2188.95,-186.939 2185.94,-172.904 2205,-156 2222.56,-140.424 2244.33,-124.898 2260.24,-114.158"/>
<polygon fill="midnightblue" stroke="midnightblue" points="1499.08,-248.106 1489.22,-251.97 1499.34,-255.101 1499.08,-248.106"/>
</g>
<!-- Node26 -->
<g id="node26" class="node"><title>Node26</title>
<g id="a_node26"><a xlink:href="_scaler_2_plugins_2_source_2common_8cpp.xhtml" target="_top" xlink:title="/data/Software/DAQ\l/Scaler/Plugins/Source\l/common.cpp">
<polygon fill="white" stroke="black" points="2214,-156.5 2214,-197.5 2330,-197.5 2330,-156.5 2214,-156.5"/>
<text text-anchor="start" x="2222" y="-185.5" font-family="Helvetica,sans-Serif" font-size="10.00">/data/Software/DAQ</text>
<text text-anchor="start" x="2222" y="-174.5" font-family="Helvetica,sans-Serif" font-size="10.00">/Scaler/Plugins/Source</text>
<text text-anchor="middle" x="2272" y="-163.5" font-family="Helvetica,sans-Serif" font-size="10.00">/common.cpp</text>
</a>
</g>
</g>
<!-- Node1&#45;&gt;Node26 -->
<g id="edge44" class="edge"><title>Node1&#45;&gt;Node26</title>
<path fill="none" stroke="midnightblue" d="M1499.67,-253.542C1635.43,-251.636 1944.51,-242.322 2200,-198 2204.47,-197.224 2209.07,-196.286 2213.67,-195.245"/>
<polygon fill="midnightblue" stroke="midnightblue" points="1499.37,-250.046 1489.41,-253.676 1499.46,-257.045 1499.37,-250.046"/>
</g>
<!-- Node3 -->
<g id="node3" class="node"><title>Node3</title>
<g id="a_node3"><a xlink:href="_multi_d_a_q_8cpp.xhtml" target="_top" xlink:title="/data/Software/DAQ\l/CDAQ/Application/MultiDAQ.cpp">
<polygon fill="white" stroke="black" points="969,-6 969,-36 1133,-36 1133,-6 969,-6"/>
<text text-anchor="start" x="977" y="-24" font-family="Helvetica,sans-Serif" font-size="10.00">/data/Software/DAQ</text>
<text text-anchor="middle" x="1051" y="-13" font-family="Helvetica,sans-Serif" font-size="10.00">/CDAQ/Application/MultiDAQ.cpp</text>
</a>
</g>
</g>
<!-- Node2&#45;&gt;Node3 -->
<g id="edge2" class="edge"><title>Node2&#45;&gt;Node3</title>
<path fill="none" stroke="midnightblue" d="M665.212,-171.407C770.156,-165.009 927.547,-150.561 979,-120 996.244,-109.758 1027.55,-60.7363 1042.55,-36.1404"/>
<polygon fill="midnightblue" stroke="midnightblue" points="665,-167.913 655.225,-172.001 665.415,-174.901 665,-167.913"/>
</g>
<!-- Node4 -->
<g id="node4" class="node"><title>Node4</title>
<g id="a_node4"><a xlink:href="_single_d_a_q_8cpp.xhtml" target="_top" xlink:title="/data/Software/DAQ\l/CDAQ/Application/SingleDAQ.cpp">
<polygon fill="white" stroke="black" points="569,-6 569,-36 739,-36 739,-6 569,-6"/>
<text text-anchor="start" x="577" y="-24" font-family="Helvetica,sans-Serif" font-size="10.00">/data/Software/DAQ</text>
<text text-anchor="middle" x="654" y="-13" font-family="Helvetica,sans-Serif" font-size="10.00">/CDAQ/Application/SingleDAQ.cpp</text>
</a>
</g>
</g>
<!-- Node2&#45;&gt;Node4 -->
<g id="edge3" class="edge"><title>Node2&#45;&gt;Node4</title>
<path fill="none" stroke="midnightblue" d="M544.014,-154.681C525.57,-134.132 504.655,-102.617 521,-78 534.72,-57.337 557.718,-44.2806 580.768,-36.0379"/>
<polygon fill="midnightblue" stroke="midnightblue" points="541.479,-157.094 550.879,-161.983 546.579,-152.3 541.479,-157.094"/>
</g>
<!-- Node2&#45;&gt;Node5 -->
<g id="edge4" class="edge"><title>Node2&#45;&gt;Node5</title>
<path fill="none" stroke="midnightblue" d="M665.004,-164.971C755.51,-154.556 892.989,-137.9 1012,-120 1024.02,-118.192 1036.73,-116.121 1049.12,-114.013"/>
<polygon fill="midnightblue" stroke="midnightblue" points="664.563,-161.499 655.027,-166.116 665.361,-168.453 664.563,-161.499"/>
</g>
<!-- Node2&#45;&gt;Node7 -->
<g id="edge8" class="edge"><title>Node2&#45;&gt;Node7</title>
<path fill="none" stroke="midnightblue" d="M584.689,-153.807C595.446,-141.033 608.645,-125.36 618.016,-114.231"/>
<polygon fill="midnightblue" stroke="midnightblue" points="581.802,-151.801 578.038,-161.705 587.156,-156.31 581.802,-151.801"/>
</g>
<!-- Node2&#45;&gt;Node9 -->
<g id="edge12" class="edge"><title>Node2&#45;&gt;Node9</title>
<path fill="none" stroke="midnightblue" d="M482.681,-160.09C411.359,-146.471 309.665,-127.052 241.371,-114.011"/>
<polygon fill="midnightblue" stroke="midnightblue" points="482.058,-163.534 492.537,-161.972 483.371,-156.658 482.058,-163.534"/>
</g>
<!-- Node10 -->
<g id="node10" class="node"><title>Node10</title>
<g id="a_node10"><a xlink:href="_a_d_c_manager1730_8cpp.xhtml" target="_top" xlink:title="/data/Software/DAQ\l/CDAQ/Core/Source/ADCManager1730.cpp">
<polygon fill="white" stroke="black" points="-0.5,-6 -0.5,-36 208.5,-36 208.5,-6 -0.5,-6"/>
<text text-anchor="start" x="7.5" y="-24" font-family="Helvetica,sans-Serif" font-size="10.00">/data/Software/DAQ</text>
<text text-anchor="middle" x="104" y="-13" font-family="Helvetica,sans-Serif" font-size="10.00">/CDAQ/Core/Source/ADCManager1730.cpp</text>
</a>
</g>
</g>
<!-- Node2&#45;&gt;Node10 -->
<g id="edge17" class="edge"><title>Node2&#45;&gt;Node10</title>
<path fill="none" stroke="midnightblue" d="M466.634,-172.026C326.729,-165.395 85.658,-149.765 59,-120 36.517,-94.897 67.8981,-56.6454 88.5121,-36.1459"/>
<polygon fill="midnightblue" stroke="midnightblue" points="466.79,-175.537 476.943,-172.507 467.117,-168.545 466.79,-175.537"/>
</g>
<!-- Node11 -->
<g id="node11" class="node"><title>Node11</title>
<g id="a_node11"><a xlink:href="_a_d_c_manager_8cpp.xhtml" target="_top" xlink:title="/data/Software/DAQ\l/CDAQ/Core/Source/ADCManager.cpp">
<polygon fill="white" stroke="black" points="286,-84 286,-114 474,-114 474,-84 286,-84"/>
<text text-anchor="start" x="294" y="-102" font-family="Helvetica,sans-Serif" font-size="10.00">/data/Software/DAQ</text>
<text text-anchor="middle" x="380" y="-91" font-family="Helvetica,sans-Serif" font-size="10.00">/CDAQ/Core/Source/ADCManager.cpp</text>
</a>
</g>
</g>
<!-- Node2&#45;&gt;Node11 -->
<g id="edge16" class="edge"><title>Node2&#45;&gt;Node11</title>
<path fill="none" stroke="midnightblue" d="M522.061,-158.046C489.135,-144.593 444.714,-126.442 414.364,-114.041"/>
<polygon fill="midnightblue" stroke="midnightblue" points="520.87,-161.341 531.451,-161.883 523.518,-154.861 520.87,-161.341"/>
</g>
<!-- Node5&#45;&gt;Node3 -->
<g id="edge5" class="edge"><title>Node5&#45;&gt;Node3</title>
<path fill="none" stroke="midnightblue" d="M1104.82,-76.5332C1092.08,-63.6316 1076.24,-47.5716 1065.04,-36.2309"/>
<polygon fill="midnightblue" stroke="midnightblue" points="1102.38,-79.0457 1111.89,-83.705 1107.36,-74.1288 1102.38,-79.0457"/>
</g>
<!-- Node5&#45;&gt;Node4 -->
<g id="edge6" class="edge"><title>Node5&#45;&gt;Node4</title>
<path fill="none" stroke="midnightblue" d="M1016.23,-82.5153C923.487,-69.2885 798.001,-51.0139 748,-42 738.066,-40.2091 727.577,-38.1477 717.351,-36.0436"/>
<polygon fill="midnightblue" stroke="midnightblue" points="1015.84,-85.9948 1026.23,-83.9404 1016.83,-79.0648 1015.84,-85.9948"/>
</g>
<!-- Node6 -->
<g id="node6" class="node"><title>Node6</title>
<g id="a_node6"><a xlink:href="_a_d_c_manager1720_8cpp.xhtml" target="_top" xlink:title="/data/Software/DAQ\l/CDAQ/Core/Source/ADCManager1720.cpp">
<polygon fill="white" stroke="black" points="1151.5,-6 1151.5,-36 1360.5,-36 1360.5,-6 1151.5,-6"/>
<text text-anchor="start" x="1159.5" y="-24" font-family="Helvetica,sans-Serif" font-size="10.00">/data/Software/DAQ</text>
<text text-anchor="middle" x="1256" y="-13" font-family="Helvetica,sans-Serif" font-size="10.00">/CDAQ/Core/Source/ADCManager1720.cpp</text>
</a>
</g>
</g>
<!-- Node5&#45;&gt;Node6 -->
<g id="edge7" class="edge"><title>Node5&#45;&gt;Node6</title>
<path fill="none" stroke="midnightblue" d="M1158.81,-78.8214C1181.58,-65.5075 1211.41,-48.0698 1231.98,-36.0413"/>
<polygon fill="midnightblue" stroke="midnightblue" points="1157.01,-75.8145 1150.15,-83.8831 1160.55,-81.8576 1157.01,-75.8145"/>
</g>
<!-- Node7&#45;&gt;Node3 -->
<g id="edge9" class="edge"><title>Node7&#45;&gt;Node3</title>
<path fill="none" stroke="midnightblue" d="M728.767,-82.3913C794.215,-71.7525 881.901,-56.934 959,-42 968.468,-40.1661 978.458,-38.1152 988.227,-36.0448"/>
<polygon fill="midnightblue" stroke="midnightblue" points="728.179,-78.9409 718.868,-83.9962 729.299,-85.8507 728.179,-78.9409"/>
</g>
<!-- Node7&#45;&gt;Node4 -->
<g id="edge10" class="edge"><title>Node7&#45;&gt;Node4</title>
<path fill="none" stroke="midnightblue" d="M637.591,-73.9628C641.51,-61.5505 646.159,-46.8296 649.506,-36.2309"/>
<polygon fill="midnightblue" stroke="midnightblue" points="634.188,-73.1152 634.514,-83.705 640.863,-75.2231 634.188,-73.1152"/>
</g>
<!-- Node8 -->
<g id="node8" class="node"><title>Node8</title>
<g id="a_node8"><a xlink:href="_a_d_c_manager1724_8cpp.xhtml" target="_top" xlink:title="/data/Software/DAQ\l/CDAQ/Core/Source/ADCManager1724.cpp">
<polygon fill="white" stroke="black" points="341.5,-6 341.5,-36 550.5,-36 550.5,-6 341.5,-6"/>
<text text-anchor="start" x="349.5" y="-24" font-family="Helvetica,sans-Serif" font-size="10.00">/data/Software/DAQ</text>
<text text-anchor="middle" x="446" y="-13" font-family="Helvetica,sans-Serif" font-size="10.00">/CDAQ/Core/Source/ADCManager1724.cpp</text>
</a>
</g>
</g>
<!-- Node7&#45;&gt;Node8 -->
<g id="edge11" class="edge"><title>Node7&#45;&gt;Node8</title>
<path fill="none" stroke="midnightblue" d="M586.533,-80.0464C553.962,-66.5929 510.018,-48.4424 479.995,-36.0413"/>
<polygon fill="midnightblue" stroke="midnightblue" points="585.243,-83.3004 595.822,-83.8831 587.916,-76.8305 585.243,-83.3004"/>
</g>
<!-- Node9&#45;&gt;Node3 -->
<g id="edge13" class="edge"><title>Node9&#45;&gt;Node3</title>
<path fill="none" stroke="midnightblue" d="M246.999,-82.2704C257.067,-80.6298 267.255,-79.1464 277,-78 578.454,-42.5367 658.164,-82.371 959,-42 970.178,-40.5 982.014,-38.3556 993.341,-36.0232"/>
<polygon fill="midnightblue" stroke="midnightblue" points="246.271,-78.8436 236.992,-83.9568 247.434,-85.7463 246.271,-78.8436"/>
</g>
<!-- Node9&#45;&gt;Node4 -->
<g id="edge14" class="edge"><title>Node9&#45;&gt;Node4</title>
<path fill="none" stroke="midnightblue" d="M251.543,-82.192C260.13,-80.7107 268.733,-79.2851 277,-78 401.851,-58.5913 434.412,-63.0318 559,-42 569.387,-40.2465 580.365,-38.1572 591.026,-36.0004"/>
<polygon fill="midnightblue" stroke="midnightblue" points="250.738,-78.7796 241.491,-83.9514 251.945,-85.6748 250.738,-78.7796"/>
</g>
<!-- Node9&#45;&gt;Node10 -->
<g id="edge15" class="edge"><title>Node9&#45;&gt;Node10</title>
<path fill="none" stroke="midnightblue" d="M149.311,-75.8065C138.554,-63.0329 125.355,-47.3596 115.984,-36.2309"/>
<polygon fill="midnightblue" stroke="midnightblue" points="146.844,-78.3103 155.962,-83.705 152.198,-73.8014 146.844,-78.3103"/>
</g>
<!-- Node12&#45;&gt;Node3 -->
<g id="edge22" class="edge"><title>Node12&#45;&gt;Node3</title>
<path fill="none" stroke="midnightblue" d="M919.659,-79.6989C950.201,-66.2817 991.051,-48.3359 1019.04,-36.0413"/>
<polygon fill="midnightblue" stroke="midnightblue" points="917.882,-76.6565 910.135,-83.8831 920.698,-83.0654 917.882,-76.6565"/>
</g>
<!-- Node12&#45;&gt;Node4 -->
<g id="edge23" class="edge"><title>Node12&#45;&gt;Node4</title>
<path fill="none" stroke="midnightblue" d="M827.129,-80.7401C787.322,-67.2344 732.665,-48.6898 695.484,-36.0749"/>
<polygon fill="midnightblue" stroke="midnightblue" points="826.06,-84.0733 836.654,-83.9719 828.309,-77.4444 826.06,-84.0733"/>
</g>
<!-- Node13 -->
<g id="node13" class="node"><title>Node13</title>
<g id="a_node13"><a xlink:href="_scope_manager_8cpp.xhtml" target="_top" xlink:title="/data/Software/DAQ\l/CDAQ/Core/Source/ScopeManager.cpp">
<polygon fill="white" stroke="black" points="757,-6 757,-36 951,-36 951,-6 757,-6"/>
<text text-anchor="start" x="765" y="-24" font-family="Helvetica,sans-Serif" font-size="10.00">/data/Software/DAQ</text>
<text text-anchor="middle" x="854" y="-13" font-family="Helvetica,sans-Serif" font-size="10.00">/CDAQ/Core/Source/ScopeManager.cpp</text>
</a>
</g>
</g>
<!-- Node12&#45;&gt;Node13 -->
<g id="edge24" class="edge"><title>Node12&#45;&gt;Node13</title>
<path fill="none" stroke="midnightblue" d="M870.409,-73.9628C866.49,-61.5505 861.841,-46.8296 858.494,-36.2309"/>
<polygon fill="midnightblue" stroke="midnightblue" points="867.137,-75.2231 873.486,-83.705 873.812,-73.1152 867.137,-75.2231"/>
</g>
<!-- Node14&#45;&gt;Node3 -->
<g id="edge26" class="edge"><title>Node14&#45;&gt;Node3</title>
<path fill="none" stroke="midnightblue" d="M1244.04,-75.7414C1198.03,-62.932 1141.61,-47.2237 1101.67,-36.1065"/>
<polygon fill="midnightblue" stroke="midnightblue" points="1243.12,-79.1179 1253.7,-78.4281 1245,-72.3744 1243.12,-79.1179"/>
</g>
<!-- Node14&#45;&gt;Node4 -->
<g id="edge27" class="edge"><title>Node14&#45;&gt;Node4</title>
<path fill="none" stroke="midnightblue" d="M1233.12,-77.9945C1017.95,-47.2043 959.173,-72.1443 748,-42 736.933,-40.4203 725.221,-38.2975 713.958,-36.0241"/>
<polygon fill="midnightblue" stroke="midnightblue" points="1232.75,-81.4779 1243.15,-79.4541 1233.76,-74.5508 1232.75,-81.4779"/>
</g>
<!-- Node15 -->
<g id="node15" class="node"><title>Node15</title>
<g id="a_node15"><a xlink:href="_slowcontrol_manager_8cpp.xhtml" target="_top" xlink:title="/data/Software/DAQ\l/CDAQ/Core/Source/Slowcontrol\lManager.cpp">
<polygon fill="white" stroke="black" points="1378.5,-0.5 1378.5,-41.5 1539.5,-41.5 1539.5,-0.5 1378.5,-0.5"/>
<text text-anchor="start" x="1386.5" y="-29.5" font-family="Helvetica,sans-Serif" font-size="10.00">/data/Software/DAQ</text>
<text text-anchor="start" x="1386.5" y="-18.5" font-family="Helvetica,sans-Serif" font-size="10.00">/CDAQ/Core/Source/Slowcontrol</text>
<text text-anchor="middle" x="1459" y="-7.5" font-family="Helvetica,sans-Serif" font-size="10.00">Manager.cpp</text>
</a>
</g>
</g>
<!-- Node14&#45;&gt;Node15 -->
<g id="edge28" class="edge"><title>Node14&#45;&gt;Node15</title>
<path fill="none" stroke="midnightblue" d="M1367.55,-73.4856C1385.93,-63.1335 1407.05,-51.2473 1424.35,-41.5056"/>
<polygon fill="midnightblue" stroke="midnightblue" points="1365.76,-70.4725 1358.77,-78.4281 1369.2,-76.5723 1365.76,-70.4725"/>
</g>
<!-- Node16&#45;&gt;Node3 -->
<g id="edge30" class="edge"><title>Node16&#45;&gt;Node3</title>
<path fill="none" stroke="midnightblue" d="M1433.37,-146.205C1434.08,-124.235 1430.97,-95.2753 1413,-78 1369.2,-35.9033 1201.83,-52.5297 1142,-42 1132.12,-40.2617 1121.69,-38.1924 1111.56,-36.0542"/>
<polygon fill="midnightblue" stroke="midnightblue" points="1429.87,-146.156 1432.77,-156.347 1436.86,-146.573 1429.87,-146.156"/>
</g>
<!-- Node16&#45;&gt;Node4 -->
<g id="edge31" class="edge"><title>Node16&#45;&gt;Node4</title>
<path fill="none" stroke="midnightblue" d="M1347.75,-176.239C1195.31,-175.497 875.462,-168.047 777,-120 754.107,-108.829 757.397,-94.5116 738,-78 719.182,-61.9811 695.611,-46.6199 678.231,-36.0513"/>
<polygon fill="midnightblue" stroke="midnightblue" points="1347.97,-179.74 1357.98,-176.28 1348,-172.74 1347.97,-179.74"/>
</g>
<!-- Node16&#45;&gt;Node17 -->
<g id="edge32" class="edge"><title>Node16&#45;&gt;Node17</title>
<path fill="none" stroke="midnightblue" d="M1472.55,-151.315C1493.71,-139.039 1518.53,-124.641 1536.48,-114.225"/>
<polygon fill="midnightblue" stroke="midnightblue" points="1470.63,-148.382 1463.74,-156.428 1474.14,-154.437 1470.63,-148.382"/>
</g>
<!-- Node20 -->
<g id="node20" class="node"><title>Node20</title>
<g id="a_node20"><a xlink:href="scaler_8cpp.xhtml" target="_top" xlink:title="/data/Software/DAQ\l/Scaler/Application\l/scaler.cpp">
<polygon fill="white" stroke="black" points="1953.5,-78.5 1953.5,-119.5 2058.5,-119.5 2058.5,-78.5 1953.5,-78.5"/>
<text text-anchor="start" x="1961.5" y="-107.5" font-family="Helvetica,sans-Serif" font-size="10.00">/data/Software/DAQ</text>
<text text-anchor="start" x="1961.5" y="-96.5" font-family="Helvetica,sans-Serif" font-size="10.00">/Scaler/Application</text>
<text text-anchor="middle" x="2006" y="-85.5" font-family="Helvetica,sans-Serif" font-size="10.00">/scaler.cpp</text>
</a>
</g>
</g>
<!-- Node19&#45;&gt;Node20 -->
<g id="edge36" class="edge"><title>Node19&#45;&gt;Node20</title>
<path fill="none" stroke="midnightblue" d="M1923.59,-150.919C1940.13,-140.702 1958.95,-129.07 1974.43,-119.506"/>
<polygon fill="midnightblue" stroke="midnightblue" points="1921.34,-148.194 1914.68,-156.428 1925.02,-154.149 1921.34,-148.194"/>
</g>
<!-- Node21 -->
<g id="node21" class="node"><title>Node21</title>
<g id="a_node21"><a xlink:href="_scaler_2_core_2_include_2xml_8h.xhtml" target="_top" xlink:title="/data/Software/DAQ\l/Scaler/Core/Include/xml.h">
<polygon fill="white" stroke="black" points="1679.5,-84 1679.5,-114 1812.5,-114 1812.5,-84 1679.5,-84"/>
<text text-anchor="start" x="1687.5" y="-102" font-family="Helvetica,sans-Serif" font-size="10.00">/data/Software/DAQ</text>
<text text-anchor="middle" x="1746" y="-91" font-family="Helvetica,sans-Serif" font-size="10.00">/Scaler/Core/Include/xml.h</text>
</a>
</g>
</g>
<!-- Node19&#45;&gt;Node21 -->
<g id="edge37" class="edge"><title>Node19&#45;&gt;Node21</title>
<path fill="none" stroke="midnightblue" d="M1838.8,-151.479C1816.6,-139.167 1790.5,-124.687 1771.64,-114.225"/>
<polygon fill="midnightblue" stroke="midnightblue" points="1837.28,-154.638 1847.72,-156.428 1840.67,-148.516 1837.28,-154.638"/>
</g>
<!-- Node22 -->
<g id="node22" class="node"><title>Node22</title>
<g id="a_node22"><a xlink:href="_scaler_manager_8cpp.xhtml" target="_top" xlink:title="/data/Software/DAQ\l/Scaler/Core/Source\l/ScalerManager.cpp">
<polygon fill="white" stroke="black" points="2076.5,-78.5 2076.5,-119.5 2181.5,-119.5 2181.5,-78.5 2076.5,-78.5"/>
<text text-anchor="start" x="2084.5" y="-107.5" font-family="Helvetica,sans-Serif" font-size="10.00">/data/Software/DAQ</text>
<text text-anchor="start" x="2084.5" y="-96.5" font-family="Helvetica,sans-Serif" font-size="10.00">/Scaler/Core/Source</text>
<text text-anchor="middle" x="2129" y="-85.5" font-family="Helvetica,sans-Serif" font-size="10.00">/ScalerManager.cpp</text>
</a>
</g>
</g>
<!-- Node19&#45;&gt;Node22 -->
<g id="edge38" class="edge"><title>Node19&#45;&gt;Node22</title>
<path fill="none" stroke="midnightblue" d="M1945.98,-157.115C1981.55,-146.377 2026.81,-132.598 2067,-120 2070.02,-119.053 2073.12,-118.074 2076.25,-117.081"/>
<polygon fill="midnightblue" stroke="midnightblue" points="1944.78,-153.821 1936.21,-160.059 1946.8,-160.523 1944.78,-153.821"/>
</g>
<!-- Node23 -->
<g id="node23" class="node"><title>Node23</title>
<g id="a_node23"><a xlink:href="_scaler_2_core_2_source_2xml_8cpp.xhtml" target="_top" xlink:title="/data/Software/DAQ\l/Scaler/Core/Source\l/xml.cpp">
<polygon fill="white" stroke="black" points="1830.5,-78.5 1830.5,-119.5 1935.5,-119.5 1935.5,-78.5 1830.5,-78.5"/>
<text text-anchor="start" x="1838.5" y="-107.5" font-family="Helvetica,sans-Serif" font-size="10.00">/data/Software/DAQ</text>
<text text-anchor="start" x="1838.5" y="-96.5" font-family="Helvetica,sans-Serif" font-size="10.00">/Scaler/Core/Source</text>
<text text-anchor="middle" x="1883" y="-85.5" font-family="Helvetica,sans-Serif" font-size="10.00">/xml.cpp</text>
</a>
</g>
</g>
<!-- Node19&#45;&gt;Node23 -->
<g id="edge39" class="edge"><title>Node19&#45;&gt;Node23</title>
<path fill="none" stroke="midnightblue" d="M1883,-146.297C1883,-137.301 1883,-127.653 1883,-119.506"/>
<polygon fill="midnightblue" stroke="midnightblue" points="1879.5,-146.428 1883,-156.428 1886.5,-146.428 1879.5,-146.428"/>
</g>
<!-- Node24&#45;&gt;Node22 -->
<g id="edge41" class="edge"><title>Node24&#45;&gt;Node22</title>
<path fill="none" stroke="midnightblue" d="M2094.65,-153.274C2101.55,-142.582 2109.69,-129.956 2116.31,-119.68"/>
<polygon fill="midnightblue" stroke="midnightblue" points="2091.69,-151.404 2089.22,-161.705 2097.58,-155.197 2091.69,-151.404"/>
</g>
<!-- Node24&#45;&gt;Node25 -->
<g id="edge42" class="edge"><title>Node24&#45;&gt;Node25</title>
<path fill="none" stroke="midnightblue" d="M2127.26,-158.219C2163.06,-144.749 2211.58,-126.496 2244.68,-114.041"/>
<polygon fill="midnightblue" stroke="midnightblue" points="2125.65,-155.086 2117.52,-161.883 2128.11,-161.637 2125.65,-155.086"/>
</g>
</g>
</svg>
        <g id="navigator" transform="translate(0 0)" fill="#404254">
                <rect fill="#f2f5e9" fill-opacity="0.5" stroke="#606060" stroke-width=".5" x="0" y="0" width="60" height="60"/>
                <use id="zoomplus" xlink:href="#zoomPlus" x="17" y="9" onmousedown="handleZoom(evt,'in')"/>
                <use id="zoomminus" xlink:href="#zoomMin" x="42" y="9" onmousedown="handleZoom(evt,'out')"/>
                <use id="reset" xlink:href="#resetDef" x="30" y="36" onmousedown="handleReset()"/>
                <g id="arrowUp" xlink:href="#dirArrow" transform="translate(30 24)" onmousedown="handlePan(0,-1)">
                  <use xlink:href="#rim" fill="#404040">
                        <set attributeName="fill" to="#808080" begin="arrowUp.mouseover" end="arrowUp.mouseout"/>
                  </use>
                  <path fill="none" stroke="white" stroke-width="1.5" d="M0,-3.0v7 M-2.5,-0.5L0,-3.0L2.5,-0.5"/>
                </g>
                <g id="arrowRight" xlink:href="#dirArrow" transform="rotate(90) translate(36 -43)" onmousedown="handlePan(1,0)">
                  <use xlink:href="#rim" fill="#404040">
                        <set attributeName="fill" to="#808080" begin="arrowRight.mouseover" end="arrowRight.mouseout"/>
                  </use>
                  <path fill="none" stroke="white" stroke-width="1.5" d="M0,-3.0v7 M-2.5,-0.5L0,-3.0L2.5,-0.5"/>
                </g>
                <g id="arrowDown" xlink:href="#dirArrow" transform="rotate(180) translate(-30 -48)" onmousedown="handlePan(0,1)">
                  <use xlink:href="#rim" fill="#404040">
                        <set attributeName="fill" to="#808080" begin="arrowDown.mouseover" end="arrowDown.mouseout"/>
                  </use>
                  <path fill="none" stroke="white" stroke-width="1.5" d="M0,-3.0v7 M-2.5,-0.5L0,-3.0L2.5,-0.5"/>
                </g>
                <g id="arrowLeft" xlink:href="#dirArrow" transform="rotate(270) translate(-36 17)" onmousedown="handlePan(-1,0)">
                  <use xlink:href="#rim" fill="#404040">
                        <set attributeName="fill" to="#808080" begin="arrowLeft.mouseover" end="arrowLeft.mouseout"/>
                  </use>
                  <path fill="none" stroke="white" stroke-width="1.5" d="M0,-3.0v7 M-2.5,-0.5L0,-3.0L2.5,-0.5"/>
                </g>
        </g>
        <svg viewBox="0 0 15 15" width="100%" height="30px" preserveAspectRatio="xMaxYMin meet">
         <g id="arrow_out" transform="scale(0.3 0.3)">
          <a xlink:href="_x_d_a_q_2_plugins_2_include_2common_8h__dep__incl_org.svg" target="_base">
           <rect id="button" ry="5" rx="5" y="6" x="6" height="38" width="38"
                fill="#f2f5e9" fill-opacity="0.5" stroke="#606060" stroke-width="1.0"/>
           <path id="arrow"
             d="M 11.500037,31.436501 C 11.940474,20.09759 22.043105,11.32322 32.158766,21.979434 L 37.068811,17.246167 C 37.068811,17.246167 37.088388,32 37.088388,32 L 22.160133,31.978069 C 22.160133,31.978069 26.997745,27.140456 26.997745,27.140456 C 18.528582,18.264221 13.291696,25.230495 11.500037,31.436501 z"
             style="fill:#404040;"/>
          </a>
         </g>
        </svg>
</svg>
