<?xml version="1.0" encoding="UTF-8" standalone="no"?>
<!DOCTYPE svg PUBLIC "-//W3C//DTD SVG 1.1//EN"
 "http://www.w3.org/Graphics/SVG/1.1/DTD/svg11.dtd">
<!-- Generated by graphviz version 2.36.0 (20140111.2315)
 -->
<!-- Title: xstricmp Pages: 1 -->
<svg width="224pt" height="142pt"
 viewBox="0.00 0.00 224.00 142.00" xmlns="http://www.w3.org/2000/svg" xmlns:xlink="http://www.w3.org/1999/xlink">
<g id="graph0" class="graph" transform="scale(1 1) rotate(0) translate(4 138)">
<title>xstricmp</title>
<polygon fill="white" stroke="none" points="-4,4 -4,-138 220,-138 220,4 -4,4"/>
<!-- Node1 -->
<g id="node1" class="node"><title>Node1</title>
<polygon fill="#bfbfbf" stroke="black" points="0,-57.5 0,-76.5 54,-76.5 54,-57.5 0,-57.5"/>
<text text-anchor="middle" x="27" y="-64.5" font-family="Helvetica,sans-Serif" font-size="10.00">xstricmp</text>
</g>
<!-- Node2 -->
<g id="node2" class="node"><title>Node2</title>
<g id="a_node2"><a xlink:href="_x_d_a_q_2_plugins_2_source_2xml_parser_8cpp.xhtml#a9a625f17c09a36e3ad532cdf16072609" target="_top" xlink:title="charmemset">
<polygon fill="white" stroke="black" points="117.5,-114.5 117.5,-133.5 188.5,-133.5 188.5,-114.5 117.5,-114.5"/>
<text text-anchor="middle" x="153" y="-121.5" font-family="Helvetica,sans-Serif" font-size="10.00">charmemset</text>
</a>
</g>
</g>
<!-- Node1&#45;&gt;Node2 -->
<g id="edge1" class="edge"><title>Node1&#45;&gt;Node2</title>
<path fill="none" stroke="midnightblue" d="M50.2272,-82.5181C61.7182,-90.0429 76.1965,-98.7759 90,-105 98.6208,-108.887 108.26,-112.269 117.32,-115.059"/>
<polygon fill="midnightblue" stroke="midnightblue" points="51.9766,-79.4771 41.7221,-76.8134 48.0773,-85.2905 51.9766,-79.4771"/>
</g>
<!-- Node3 -->
<g id="node3" class="node"><title>Node3</title>
<g id="a_node3"><a xlink:href="_x_d_a_q_2_plugins_2_source_2xml_parser_8cpp.xhtml#ae6aa5a367ab3cc92b47fd92f81add72a" target="_top" xlink:title="CountLinesAndColumns">
<polygon fill="white" stroke="black" points="92,-76.5 92,-95.5 214,-95.5 214,-76.5 92,-76.5"/>
<text text-anchor="middle" x="153" y="-83.5" font-family="Helvetica,sans-Serif" font-size="10.00">CountLinesAndColumns</text>
</a>
</g>
</g>
<!-- Node1&#45;&gt;Node3 -->
<g id="edge2" class="edge"><title>Node1&#45;&gt;Node3</title>
<path fill="none" stroke="midnightblue" d="M64.3673,-72.5724C72.9974,-73.8948 82.4316,-75.3403 91.8105,-76.7774"/>
<polygon fill="midnightblue" stroke="midnightblue" points="64.712,-69.0845 54.2972,-71.0294 63.6517,-76.0037 64.712,-69.0845"/>
</g>
<!-- Node4 -->
<g id="node4" class="node"><title>Node4</title>
<g id="a_node4"><a xlink:href="_x_d_a_q_2_plugins_2_source_2xml_parser_8cpp.xhtml#ad9a5c911a8e21bb89427d29d33e2797e" target="_top" xlink:title="myIsTextWideChar">
<polygon fill="white" stroke="black" points="102.5,-38.5 102.5,-57.5 203.5,-57.5 203.5,-38.5 102.5,-38.5"/>
<text text-anchor="middle" x="153" y="-45.5" font-family="Helvetica,sans-Serif" font-size="10.00">myIsTextWideChar</text>
</a>
</g>
</g>
<!-- Node1&#45;&gt;Node4 -->
<g id="edge3" class="edge"><title>Node1&#45;&gt;Node4</title>
<path fill="none" stroke="midnightblue" d="M64.327,-61.4338C76.2563,-59.6059 89.7256,-57.542 102.463,-55.5904"/>
<polygon fill="midnightblue" stroke="midnightblue" points="63.6517,-57.9963 54.2972,-62.9706 64.712,-64.9155 63.6517,-57.9963"/>
</g>
<!-- Node5 -->
<g id="node5" class="node"><title>Node5</title>
<g id="a_node5"><a xlink:href="_x_d_a_q_2_plugins_2_source_2xml_parser_8cpp.xhtml#ad7ec02a171e7641c1d364d5d367199a3" target="_top" xlink:title="myWideCharToMultiByte">
<polygon fill="white" stroke="black" points="90,-0.5 90,-19.5 216,-19.5 216,-0.5 90,-0.5"/>
<text text-anchor="middle" x="153" y="-7.5" font-family="Helvetica,sans-Serif" font-size="10.00">myWideCharToMultiByte</text>
</a>
</g>
</g>
<!-- Node1&#45;&gt;Node5 -->
<g id="edge4" class="edge"><title>Node1&#45;&gt;Node5</title>
<path fill="none" stroke="midnightblue" d="M50.2272,-51.4819C61.7182,-43.9571 76.1965,-35.2241 90,-29 98.0051,-25.3904 106.888,-22.2166 115.37,-19.5481"/>
<polygon fill="midnightblue" stroke="midnightblue" points="48.0773,-48.7095 41.7221,-57.1866 51.9766,-54.5229 48.0773,-48.7095"/>
</g>
</g>
</svg>
