<?xml version="1.0" encoding="UTF-8" standalone="no"?>
<!DOCTYPE svg PUBLIC "-//W3C//DTD SVG 1.1//EN"
 "http://www.w3.org/Graphics/SVG/1.1/DTD/svg11.dtd">
<!-- Generated by graphviz version 2.36.0 (20140111.2315)
 -->
<!-- Title: /data/Software/DAQ/XDAQ/Core/Source/xml.cpp Pages: 1 -->
<svg width="831pt" height="96pt"
 viewBox="0.00 0.00 831.00 96.00" xmlns="http://www.w3.org/2000/svg" xmlns:xlink="http://www.w3.org/1999/xlink">
<g id="graph0" class="graph" transform="scale(1 1) rotate(0) translate(4 92)">
<title>/data/Software/DAQ/XDAQ/Core/Source/xml.cpp</title>
<polygon fill="white" stroke="none" points="-4,4 -4,-92 827,-92 827,4 -4,4"/>
<!-- Node1 -->
<g id="node1" class="node"><title>Node1</title>
<polygon fill="#bfbfbf" stroke="black" points="321.5,-57 321.5,-87 464.5,-87 464.5,-57 321.5,-57"/>
<text text-anchor="start" x="329.5" y="-75" font-family="Helvetica,sans-Serif" font-size="10.00">/data/Software/DAQ</text>
<text text-anchor="middle" x="393" y="-64" font-family="Helvetica,sans-Serif" font-size="10.00">/XDAQ/Core/Source/xml.cpp</text>
</g>
<!-- Node2 -->
<g id="node2" class="node"><title>Node2</title>
<polygon fill="white" stroke="#bfbfbf" points="0,-0.5 0,-19.5 46,-19.5 46,-0.5 0,-0.5"/>
<text text-anchor="middle" x="23" y="-7.5" font-family="Helvetica,sans-Serif" font-size="10.00">stdio.h</text>
</g>
<!-- Node1&#45;&gt;Node2 -->
<g id="edge1" class="edge"><title>Node1&#45;&gt;Node2</title>
<path fill="none" stroke="midnightblue" d="M321.317,-62.8119C254.858,-54.6234 153.116,-40.5733 56.2916,-20.0611"/>
<polygon fill="midnightblue" stroke="midnightblue" points="56.8465,-16.6006 46.3348,-17.9249 55.378,-23.4449 56.8465,-16.6006"/>
</g>
<!-- Node3 -->
<g id="node3" class="node"><title>Node3</title>
<polygon fill="white" stroke="#bfbfbf" points="64.5,-0.5 64.5,-19.5 113.5,-19.5 113.5,-0.5 64.5,-0.5"/>
<text text-anchor="middle" x="89" y="-7.5" font-family="Helvetica,sans-Serif" font-size="10.00">string.h</text>
</g>
<!-- Node1&#45;&gt;Node3 -->
<g id="edge2" class="edge"><title>Node1&#45;&gt;Node3</title>
<path fill="none" stroke="midnightblue" d="M321.367,-58.9197C269.13,-49.7751 196.448,-36.3608 123.638,-20.0136"/>
<polygon fill="midnightblue" stroke="midnightblue" points="124.357,-16.588 113.831,-17.7941 122.812,-23.4154 124.357,-16.588"/>
</g>
<!-- Node4 -->
<g id="node4" class="node"><title>Node4</title>
<polygon fill="white" stroke="#bfbfbf" points="132,-0.5 132,-19.5 180,-19.5 180,-0.5 132,-0.5"/>
<text text-anchor="middle" x="156" y="-7.5" font-family="Helvetica,sans-Serif" font-size="10.00">stdlib.h</text>
</g>
<!-- Node1&#45;&gt;Node4 -->
<g id="edge3" class="edge"><title>Node1&#45;&gt;Node4</title>
<path fill="none" stroke="midnightblue" d="M335.321,-56.9272C296.738,-47.4335 244.584,-34.4483 189.992,-20.2213"/>
<polygon fill="midnightblue" stroke="midnightblue" points="190.695,-16.7875 180.135,-17.6458 188.925,-23.5602 190.695,-16.7875"/>
</g>
<!-- Node5 -->
<g id="node5" class="node"><title>Node5</title>
<polygon fill="white" stroke="#bfbfbf" points="198,-0.5 198,-19.5 242,-19.5 242,-0.5 198,-0.5"/>
<text text-anchor="middle" x="220" y="-7.5" font-family="Helvetica,sans-Serif" font-size="10.00">time.h</text>
</g>
<!-- Node1&#45;&gt;Node5 -->
<g id="edge4" class="edge"><title>Node1&#45;&gt;Node5</title>
<path fill="none" stroke="midnightblue" d="M352.439,-56.9327C321.841,-46.3207 280.44,-31.9619 252.121,-22.1401"/>
<polygon fill="midnightblue" stroke="midnightblue" points="252.918,-18.7122 242.323,-18.7422 250.624,-25.3257 252.918,-18.7122"/>
</g>
<!-- Node6 -->
<g id="node6" class="node"><title>Node6</title>
<polygon fill="white" stroke="#bfbfbf" points="260.5,-0.5 260.5,-19.5 307.5,-19.5 307.5,-0.5 260.5,-0.5"/>
<text text-anchor="middle" x="284" y="-7.5" font-family="Helvetica,sans-Serif" font-size="10.00">math.h</text>
</g>
<!-- Node1&#45;&gt;Node6 -->
<g id="edge5" class="edge"><title>Node1&#45;&gt;Node6</title>
<path fill="none" stroke="midnightblue" d="M367.444,-56.9327C349.712,-47.1715 326.22,-34.2401 308.68,-24.5856"/>
<polygon fill="midnightblue" stroke="midnightblue" points="310.072,-21.3562 299.623,-19.6 306.696,-27.4885 310.072,-21.3562"/>
</g>
<!-- Node7 -->
<g id="node7" class="node"><title>Node7</title>
<polygon fill="white" stroke="#bfbfbf" points="326,-0.5 326,-19.5 386,-19.5 386,-0.5 326,-0.5"/>
<text text-anchor="middle" x="356" y="-7.5" font-family="Helvetica,sans-Serif" font-size="10.00">sys/stat.h</text>
</g>
<!-- Node1&#45;&gt;Node7 -->
<g id="edge6" class="edge"><title>Node1&#45;&gt;Node7</title>
<path fill="none" stroke="midnightblue" d="M384.232,-56.7808C378.966,-48.2419 372.23,-37.3184 366.658,-28.2834"/>
<polygon fill="midnightblue" stroke="midnightblue" points="369.612,-26.4051 361.384,-19.7305 363.654,-30.0794 369.612,-26.4051"/>
</g>
<!-- Node8 -->
<g id="node8" class="node"><title>Node8</title>
<polygon fill="white" stroke="#bfbfbf" points="404.5,-0.5 404.5,-19.5 455.5,-19.5 455.5,-0.5 404.5,-0.5"/>
<text text-anchor="middle" x="430" y="-7.5" font-family="Helvetica,sans-Serif" font-size="10.00">unistd.h</text>
</g>
<!-- Node1&#45;&gt;Node8 -->
<g id="edge7" class="edge"><title>Node1&#45;&gt;Node8</title>
<path fill="none" stroke="midnightblue" d="M401.768,-56.7808C407.034,-48.2419 413.77,-37.3184 419.342,-28.2834"/>
<polygon fill="midnightblue" stroke="midnightblue" points="422.346,-30.0794 424.616,-19.7305 416.388,-26.4051 422.346,-30.0794"/>
</g>
<!-- Node9 -->
<g id="node9" class="node"><title>Node9</title>
<polygon fill="white" stroke="#bfbfbf" points="474,-0.5 474,-19.5 536,-19.5 536,-0.5 474,-0.5"/>
<text text-anchor="middle" x="505" y="-7.5" font-family="Helvetica,sans-Serif" font-size="10.00">sys/time.h</text>
</g>
<!-- Node1&#45;&gt;Node9 -->
<g id="edge8" class="edge"><title>Node1&#45;&gt;Node9</title>
<path fill="none" stroke="midnightblue" d="M419.259,-56.9327C437.48,-47.1715 461.618,-34.2401 479.64,-24.5856"/>
<polygon fill="midnightblue" stroke="midnightblue" points="481.785,-27.4075 488.947,-19.6 478.479,-21.2371 481.785,-27.4075"/>
</g>
<!-- Node10 -->
<g id="node10" class="node"><title>Node10</title>
<polygon fill="white" stroke="#bfbfbf" points="554,-0.5 554,-19.5 604,-19.5 604,-0.5 554,-0.5"/>
<text text-anchor="middle" x="579" y="-7.5" font-family="Helvetica,sans-Serif" font-size="10.00">global.h</text>
</g>
<!-- Node1&#45;&gt;Node10 -->
<g id="edge9" class="edge"><title>Node1&#45;&gt;Node10</title>
<path fill="none" stroke="midnightblue" d="M436.609,-56.9327C469.408,-46.3521 513.755,-32.0468 544.195,-22.2274"/>
<polygon fill="midnightblue" stroke="midnightblue" points="545.506,-25.4822 553.948,-19.0812 543.357,-18.8203 545.506,-25.4822"/>
</g>
<!-- Node11 -->
<g id="node11" class="node"><title>Node11</title>
<polygon fill="white" stroke="#bfbfbf" points="622.5,-0.5 622.5,-19.5 663.5,-19.5 663.5,-0.5 622.5,-0.5"/>
<text text-anchor="middle" x="643" y="-7.5" font-family="Helvetica,sans-Serif" font-size="10.00">adc.h</text>
</g>
<!-- Node1&#45;&gt;Node11 -->
<g id="edge10" class="edge"><title>Node1&#45;&gt;Node11</title>
<path fill="none" stroke="midnightblue" d="M458.73,-56.9109C500.197,-47.7563 555.071,-35.1579 612.417,-20.0225"/>
<polygon fill="midnightblue" stroke="midnightblue" points="613.627,-23.3224 622.392,-17.3704 611.829,-16.5574 613.627,-23.3224"/>
</g>
<!-- Node12 -->
<g id="node12" class="node"><title>Node12</title>
<polygon fill="white" stroke="#bfbfbf" points="682,-0.5 682,-19.5 736,-19.5 736,-0.5 682,-0.5"/>
<text text-anchor="middle" x="709" y="-7.5" font-family="Helvetica,sans-Serif" font-size="10.00">control.h</text>
</g>
<!-- Node1&#45;&gt;Node12 -->
<g id="edge11" class="edge"><title>Node1&#45;&gt;Node12</title>
<path fill="none" stroke="midnightblue" d="M464.611,-59.083C521.103,-49.3995 601.805,-34.9399 672,-20 672.101,-19.9785 672.202,-19.9569 672.304,-19.9353"/>
<polygon fill="midnightblue" stroke="midnightblue" points="672.972,-23.3723 681.963,-17.7675 671.44,-16.5422 672.972,-23.3723"/>
</g>
<!-- Node13 -->
<g id="node13" class="node"><title>Node13</title>
<polygon fill="white" stroke="#bfbfbf" points="754.5,-0.5 754.5,-19.5 823.5,-19.5 823.5,-0.5 754.5,-0.5"/>
<text text-anchor="middle" x="789" y="-7.5" font-family="Helvetica,sans-Serif" font-size="10.00">xmlParser.h</text>
</g>
<!-- Node1&#45;&gt;Node13 -->
<g id="edge12" class="edge"><title>Node1&#45;&gt;Node13</title>
<path fill="none" stroke="midnightblue" d="M464.655,-61.8545C533.692,-52.7616 641.299,-37.8517 744.479,-20.0006"/>
<polygon fill="midnightblue" stroke="midnightblue" points="745.198,-23.4282 754.449,-18.264 743.996,-16.532 745.198,-23.4282"/>
</g>
</g>
</svg>
