<?xml version="1.0" encoding="UTF-8" standalone="no"?>
<!DOCTYPE svg PUBLIC "-//W3C//DTD SVG 1.1//EN"
 "http://www.w3.org/Graphics/SVG/1.1/DTD/svg11.dtd">
<!-- Generated by graphviz version 2.36.0 (20140111.2315)
 -->
<!-- Title: main Pages: 1 -->
<svg width="538pt" height="1508pt"
 viewBox="0.00 0.00 538.00 1508.00" xmlns="http://www.w3.org/2000/svg" xmlns:xlink="http://www.w3.org/1999/xlink">
<g id="graph0" class="graph" transform="scale(1 1) rotate(0) translate(4 1504)">
<title>main</title>
<polygon fill="white" stroke="none" points="-4,4 -4,-1504 534,-1504 534,4 -4,4"/>
<!-- Node1 -->
<g id="node1" class="node"><title>Node1</title>
<polygon fill="#bfbfbf" stroke="black" points="0,-836.5 0,-855.5 38,-855.5 38,-836.5 0,-836.5"/>
<text text-anchor="middle" x="19" y="-843.5" font-family="Helvetica,sans-Serif" font-size="10.00">main</text>
</g>
<!-- Node2 -->
<g id="node2" class="node"><title>Node2</title>
<g id="a_node2"><a xlink:href="class_d_r_s_board.xhtml#ac4774a4b6d692d3064c08c49f3581edb" target="_top" xlink:title="DRSBoard::CalibrateTiming">
<polygon fill="white" stroke="black" points="92,-1480.5 92,-1499.5 230,-1499.5 230,-1480.5 92,-1480.5"/>
<text text-anchor="middle" x="161" y="-1487.5" font-family="Helvetica,sans-Serif" font-size="10.00">DRSBoard::CalibrateTiming</text>
</a>
</g>
</g>
<!-- Node1&#45;&gt;Node2 -->
<g id="edge1" class="edge"><title>Node1&#45;&gt;Node2</title>
<path fill="none" stroke="midnightblue" d="M20.1616,-855.963C21.4892,-932.292 31.6405,-1422.68 74,-1471 76.7011,-1474.08 79.779,-1476.73 83.1252,-1478.99"/>
<polygon fill="midnightblue" stroke="midnightblue" points="81.4908,-1482.09 91.9339,-1483.87 84.8842,-1475.96 81.4908,-1482.09"/>
</g>
<!-- Node4 -->
<g id="node4" class="node"><title>Node4</title>
<g id="a_node4"><a xlink:href="class_d_r_s_board.xhtml#ab7e60716836fd4ac6707e446d498bbd1" target="_top" xlink:title="DRSBoard::CalibrateVolt">
<polygon fill="white" stroke="black" points="98,-1442.5 98,-1461.5 224,-1461.5 224,-1442.5 98,-1442.5"/>
<text text-anchor="middle" x="161" y="-1449.5" font-family="Helvetica,sans-Serif" font-size="10.00">DRSBoard::CalibrateVolt</text>
</a>
</g>
</g>
<!-- Node1&#45;&gt;Node4 -->
<g id="edge3" class="edge"><title>Node1&#45;&gt;Node4</title>
<path fill="none" stroke="midnightblue" d="M20.2168,-855.82C21.9207,-929.009 34.1551,-1387.8 74,-1433 78.081,-1437.63 83.0127,-1441.27 88.4255,-1444.12"/>
<polygon fill="midnightblue" stroke="midnightblue" points="87.3545,-1447.47 97.9237,-1448.21 90.1203,-1441.04 87.3545,-1447.47"/>
</g>
<!-- Node6 -->
<g id="node6" class="node"><title>Node6</title>
<g id="a_node6"><a xlink:href="class_d_r_s.xhtml#a9b31c73ee163ae51d2e490f6dfdf839d" target="_top" xlink:title="DRS::GetBoard">
<polygon fill="white" stroke="black" points="118,-1404.5 118,-1423.5 204,-1423.5 204,-1404.5 118,-1404.5"/>
<text text-anchor="middle" x="161" y="-1411.5" font-family="Helvetica,sans-Serif" font-size="10.00">DRS::GetBoard</text>
</a>
</g>
</g>
<!-- Node1&#45;&gt;Node6 -->
<g id="edge6" class="edge"><title>Node1&#45;&gt;Node6</title>
<path fill="none" stroke="midnightblue" d="M20.2827,-855.605C22.4183,-925.293 36.9547,-1351.78 74,-1394 82.6162,-1403.82 95.0259,-1409.32 107.749,-1412.28"/>
<polygon fill="midnightblue" stroke="midnightblue" points="107.486,-1415.79 117.953,-1414.15 108.747,-1408.91 107.486,-1415.79"/>
</g>
<!-- Node7 -->
<g id="node7" class="node"><title>Node7</title>
<g id="a_node7"><a xlink:href="class_d_r_s_board.xhtml#a6a358b6f6b0c284287ab5004330ae206" target="_top" xlink:title="DRSBoard::GetBoardSerial\lNumber">
<polygon fill="white" stroke="black" points="93,-1355 93,-1385 229,-1385 229,-1355 93,-1355"/>
<text text-anchor="start" x="101" y="-1373" font-family="Helvetica,sans-Serif" font-size="10.00">DRSBoard::GetBoardSerial</text>
<text text-anchor="middle" x="161" y="-1362" font-family="Helvetica,sans-Serif" font-size="10.00">Number</text>
</a>
</g>
</g>
<!-- Node1&#45;&gt;Node7 -->
<g id="edge7" class="edge"><title>Node1&#45;&gt;Node7</title>
<path fill="none" stroke="midnightblue" d="M20.4021,-855.557C23.2526,-921.367 41.2447,-1305.94 74,-1345 76.9458,-1348.51 80.3538,-1351.55 84.0785,-1354.17"/>
<polygon fill="midnightblue" stroke="midnightblue" points="82.2952,-1357.18 92.682,-1359.27 85.8653,-1351.16 82.2952,-1357.18"/>
</g>
<!-- Node8 -->
<g id="node8" class="node"><title>Node8</title>
<g id="a_node8"><a xlink:href="class_d_a_q_container.xhtml#af16a2a1d5b2b8c609d548abbcbe7c1fd" target="_top" xlink:title="DAQContainer::GetCalibrationMode">
<polygon fill="white" stroke="black" points="74.5,-1316.5 74.5,-1335.5 247.5,-1335.5 247.5,-1316.5 74.5,-1316.5"/>
<text text-anchor="middle" x="161" y="-1323.5" font-family="Helvetica,sans-Serif" font-size="10.00">DAQContainer::GetCalibrationMode</text>
</a>
</g>
</g>
<!-- Node1&#45;&gt;Node8 -->
<g id="edge8" class="edge"><title>Node1&#45;&gt;Node8</title>
<path fill="none" stroke="midnightblue" d="M20.4671,-855.652C23.6114,-918.858 42.524,-1272.18 74,-1307 75.0574,-1308.17 76.1691,-1309.28 77.3292,-1310.32"/>
<polygon fill="midnightblue" stroke="midnightblue" points="75.4835,-1313.31 85.6213,-1316.39 79.6159,-1307.66 75.4835,-1313.31"/>
</g>
<!-- Node9 -->
<g id="node9" class="node"><title>Node9</title>
<g id="a_node9"><a xlink:href="_d_r_s_8cpp.xhtml#aca8ac8de5202a8aa092f29c97b845fd4" target="_top" xlink:title="getch">
<polygon fill="white" stroke="black" points="140.5,-1278.5 140.5,-1297.5 181.5,-1297.5 181.5,-1278.5 140.5,-1278.5"/>
<text text-anchor="middle" x="161" y="-1285.5" font-family="Helvetica,sans-Serif" font-size="10.00">getch</text>
</a>
</g>
</g>
<!-- Node1&#45;&gt;Node9 -->
<g id="edge9" class="edge"><title>Node1&#45;&gt;Node9</title>
<path fill="none" stroke="midnightblue" d="M19.7945,-855.508C18.7686,-912.252 16.3321,-1205.86 74,-1269 88.0301,-1284.36 111.438,-1288.76 130.293,-1289.51"/>
<polygon fill="midnightblue" stroke="midnightblue" points="130.459,-1293.01 140.487,-1289.59 130.516,-1286.01 130.459,-1293.01"/>
</g>
<!-- Node10 -->
<g id="node10" class="node"><title>Node10</title>
<g id="a_node10"><a xlink:href="class_d_a_q_container.xhtml#a0e03e7dcff71268f925b446c601dadd3" target="_top" xlink:title="DAQContainer::GetChannel0">
<polygon fill="white" stroke="black" points="89.5,-1240.5 89.5,-1259.5 232.5,-1259.5 232.5,-1240.5 89.5,-1240.5"/>
<text text-anchor="middle" x="161" y="-1247.5" font-family="Helvetica,sans-Serif" font-size="10.00">DAQContainer::GetChannel0</text>
</a>
</g>
</g>
<!-- Node1&#45;&gt;Node10 -->
<g id="edge10" class="edge"><title>Node1&#45;&gt;Node10</title>
<path fill="none" stroke="midnightblue" d="M19.9257,-855.694C19.7141,-909.809 21.414,-1174.14 74,-1231 76.0439,-1233.21 78.2821,-1235.19 80.6726,-1236.97"/>
<polygon fill="midnightblue" stroke="midnightblue" points="78.9666,-1240.03 89.3259,-1242.25 82.6132,-1234.05 78.9666,-1240.03"/>
</g>
<!-- Node11 -->
<g id="node11" class="node"><title>Node11</title>
<g id="a_node11"><a xlink:href="class_d_a_q_container.xhtml#a4e9e047c2ebc6716856349982a354c41" target="_top" xlink:title="DAQContainer::GetChannel1">
<polygon fill="white" stroke="black" points="89.5,-1202.5 89.5,-1221.5 232.5,-1221.5 232.5,-1202.5 89.5,-1202.5"/>
<text text-anchor="middle" x="161" y="-1209.5" font-family="Helvetica,sans-Serif" font-size="10.00">DAQContainer::GetChannel1</text>
</a>
</g>
</g>
<!-- Node1&#45;&gt;Node11 -->
<g id="edge11" class="edge"><title>Node1&#45;&gt;Node11</title>
<path fill="none" stroke="midnightblue" d="M20.0893,-855.727C20.7599,-906.671 26.4271,-1142.33 74,-1193 76.0605,-1195.19 78.3127,-1197.16 80.7149,-1198.93"/>
<polygon fill="midnightblue" stroke="midnightblue" points="79.0316,-1202 89.3999,-1204.18 82.6536,-1196.01 79.0316,-1202"/>
</g>
<!-- Node12 -->
<g id="node12" class="node"><title>Node12</title>
<g id="a_node12"><a xlink:href="class_d_a_q_container.xhtml#a5f6729f74e9513097c7b01cafc819b90" target="_top" xlink:title="DAQContainer::GetChannel2">
<polygon fill="white" stroke="black" points="89.5,-1164.5 89.5,-1183.5 232.5,-1183.5 232.5,-1164.5 89.5,-1164.5"/>
<text text-anchor="middle" x="161" y="-1171.5" font-family="Helvetica,sans-Serif" font-size="10.00">DAQContainer::GetChannel2</text>
</a>
</g>
</g>
<!-- Node1&#45;&gt;Node12 -->
<g id="edge12" class="edge"><title>Node1&#45;&gt;Node12</title>
<path fill="none" stroke="midnightblue" d="M20.2876,-855.588C21.9031,-902.84 31.3689,-1110.43 74,-1155 76.0808,-1157.18 78.3502,-1159.13 80.7669,-1160.88"/>
<polygon fill="midnightblue" stroke="midnightblue" points="79.1116,-1163.97 89.4909,-1166.1 82.7031,-1157.96 79.1116,-1163.97"/>
</g>
<!-- Node13 -->
<g id="node13" class="node"><title>Node13</title>
<g id="a_node13"><a xlink:href="class_d_a_q_container.xhtml#a45b3565394712ca205f746311651d9f6" target="_top" xlink:title="DAQContainer::GetChannel3">
<polygon fill="white" stroke="black" points="89.5,-1126.5 89.5,-1145.5 232.5,-1145.5 232.5,-1126.5 89.5,-1126.5"/>
<text text-anchor="middle" x="161" y="-1133.5" font-family="Helvetica,sans-Serif" font-size="10.00">DAQContainer::GetChannel3</text>
</a>
</g>
</g>
<!-- Node1&#45;&gt;Node13 -->
<g id="edge13" class="edge"><title>Node1&#45;&gt;Node13</title>
<path fill="none" stroke="midnightblue" d="M20.54,-855.552C23.1985,-899.121 36.3192,-1078.53 74,-1117 75.9192,-1118.96 77.9917,-1120.74 80.1865,-1122.35"/>
<polygon fill="midnightblue" stroke="midnightblue" points="78.8228,-1125.62 89.1935,-1127.78 82.4383,-1119.62 78.8228,-1125.62"/>
</g>
<!-- Node14 -->
<g id="node14" class="node"><title>Node14</title>
<g id="a_node14"><a xlink:href="class_d_r_s_board.xhtml#a9d17f829582742178f2a3eefe894c4a4" target="_top" xlink:title="DRSBoard::GetFirmwareVersion">
<polygon fill="white" stroke="black" points="81.5,-1088.5 81.5,-1107.5 240.5,-1107.5 240.5,-1088.5 81.5,-1088.5"/>
<text text-anchor="middle" x="161" y="-1095.5" font-family="Helvetica,sans-Serif" font-size="10.00">DRSBoard::GetFirmwareVersion</text>
</a>
</g>
</g>
<!-- Node1&#45;&gt;Node14 -->
<g id="edge14" class="edge"><title>Node1&#45;&gt;Node14</title>
<path fill="none" stroke="midnightblue" d="M20.871,-855.522C24.6897,-895.168 41.2412,-1046.58 74,-1079 75.3075,-1080.29 76.6821,-1081.51 78.1145,-1082.65"/>
<polygon fill="midnightblue" stroke="midnightblue" points="76.6023,-1085.84 86.8871,-1088.39 80.4337,-1079.98 76.6023,-1085.84"/>
</g>
<!-- Node15 -->
<g id="node15" class="node"><title>Node15</title>
<g id="a_node15"><a xlink:href="class_d_a_q_container.xhtml#a75b2b6319574b2efc29062375c5ffc19" target="_top" xlink:title="DAQContainer::GetGraphicMode">
<polygon fill="white" stroke="black" points="81,-1050.5 81,-1069.5 241,-1069.5 241,-1050.5 81,-1050.5"/>
<text text-anchor="middle" x="161" y="-1057.5" font-family="Helvetica,sans-Serif" font-size="10.00">DAQContainer::GetGraphicMode</text>
</a>
</g>
</g>
<!-- Node1&#45;&gt;Node15 -->
<g id="edge15" class="edge"><title>Node1&#45;&gt;Node15</title>
<path fill="none" stroke="midnightblue" d="M19.5208,-855.773C18.5374,-887.453 19.9721,-988.246 74,-1040 75.9372,-1041.86 78.0114,-1043.55 80.1949,-1045.1"/>
<polygon fill="midnightblue" stroke="midnightblue" points="78.7113,-1048.29 89.0995,-1050.37 82.2773,-1042.26 78.7113,-1048.29"/>
</g>
<!-- Node16 -->
<g id="node16" class="node"><title>Node16</title>
<g id="a_node16"><a xlink:href="class_d_a_q_container.xhtml#aa19a2ba47b496e24ce12fb03e8410f72" target="_top" xlink:title="DAQContainer::GetGraphic\lYHigh">
<polygon fill="white" stroke="black" points="93,-1001 93,-1031 229,-1031 229,-1001 93,-1001"/>
<text text-anchor="start" x="101" y="-1019" font-family="Helvetica,sans-Serif" font-size="10.00">DAQContainer::GetGraphic</text>
<text text-anchor="middle" x="161" y="-1008" font-family="Helvetica,sans-Serif" font-size="10.00">YHigh</text>
</a>
</g>
</g>
<!-- Node1&#45;&gt;Node16 -->
<g id="edge16" class="edge"><title>Node1&#45;&gt;Node16</title>
<path fill="none" stroke="midnightblue" d="M20.7001,-855.744C23.0981,-881.708 33.2609,-953.154 74,-991 76.9903,-993.778 80.2716,-996.249 83.7527,-998.447"/>
<polygon fill="midnightblue" stroke="midnightblue" points="82.3113,-1001.65 92.7657,-1003.37 85.6654,-995.504 82.3113,-1001.65"/>
</g>
<!-- Node17 -->
<g id="node17" class="node"><title>Node17</title>
<g id="a_node17"><a xlink:href="class_d_a_q_container.xhtml#af141fe8079004e39018ee9cc7c31235a" target="_top" xlink:title="DAQContainer::GetGraphicYLow">
<polygon fill="white" stroke="black" points="80.5,-962.5 80.5,-981.5 241.5,-981.5 241.5,-962.5 80.5,-962.5"/>
<text text-anchor="middle" x="161" y="-969.5" font-family="Helvetica,sans-Serif" font-size="10.00">DAQContainer::GetGraphicYLow</text>
</a>
</g>
</g>
<!-- Node1&#45;&gt;Node17 -->
<g id="edge17" class="edge"><title>Node1&#45;&gt;Node17</title>
<path fill="none" stroke="midnightblue" d="M21.9756,-855.774C26.8076,-877.032 41.2989,-927.598 74,-953 76.3207,-954.803 78.7777,-956.442 81.3374,-957.932"/>
<polygon fill="midnightblue" stroke="midnightblue" points="79.8763,-961.114 90.3874,-962.444 82.9996,-954.85 79.8763,-961.114"/>
</g>
<!-- Node18 -->
<g id="node18" class="node"><title>Node18</title>
<g id="a_node18"><a xlink:href="class_d_r_s.xhtml#ae3609194596df0942d1e67e8c518d72e" target="_top" xlink:title="DRS::GetNumberOfBoards">
<polygon fill="white" stroke="black" points="93,-924.5 93,-943.5 229,-943.5 229,-924.5 93,-924.5"/>
<text text-anchor="middle" x="161" y="-931.5" font-family="Helvetica,sans-Serif" font-size="10.00">DRS::GetNumberOfBoards</text>
</a>
</g>
</g>
<!-- Node1&#45;&gt;Node18 -->
<g id="edge18" class="edge"><title>Node1&#45;&gt;Node18</title>
<path fill="none" stroke="midnightblue" d="M24.849,-855.592C32.9178,-870.529 50.5588,-899.17 74,-914 78.0765,-916.579 82.4504,-918.826 86.9868,-920.784"/>
<polygon fill="midnightblue" stroke="midnightblue" points="85.893,-924.113 96.4837,-924.41 88.3901,-917.573 85.893,-924.113"/>
</g>
<!-- Node19 -->
<g id="node19" class="node"><title>Node19</title>
<g id="a_node19"><a xlink:href="class_d_a_q_container.xhtml#a056c7a60dd62aa31d99297583a0afb52" target="_top" xlink:title="DAQContainer::GetNumberOf\lEvens">
<polygon fill="white" stroke="black" points="87.5,-875 87.5,-905 234.5,-905 234.5,-875 87.5,-875"/>
<text text-anchor="start" x="95.5" y="-893" font-family="Helvetica,sans-Serif" font-size="10.00">DAQContainer::GetNumberOf</text>
<text text-anchor="middle" x="161" y="-882" font-family="Helvetica,sans-Serif" font-size="10.00">Evens</text>
</a>
</g>
</g>
<!-- Node1&#45;&gt;Node19 -->
<g id="edge19" class="edge"><title>Node1&#45;&gt;Node19</title>
<path fill="none" stroke="midnightblue" d="M38.4088,-852.762C48.8092,-856.51 62.0769,-861.173 74,-865 81.3907,-867.372 89.1693,-869.77 96.9035,-872.093"/>
<polygon fill="midnightblue" stroke="midnightblue" points="96.0611,-875.494 106.644,-874.989 98.0555,-868.784 96.0611,-875.494"/>
</g>
<!-- Node20 -->
<g id="node20" class="node"><title>Node20</title>
<g id="a_node20"><a xlink:href="class_d_a_q_container.xhtml#a0851ad000d6ea51ff76f02eb2d20ef67" target="_top" xlink:title="DAQContainer::GetOutputDir">
<polygon fill="white" stroke="black" points="89,-836.5 89,-855.5 233,-855.5 233,-836.5 89,-836.5"/>
<text text-anchor="middle" x="161" y="-843.5" font-family="Helvetica,sans-Serif" font-size="10.00">DAQContainer::GetOutputDir</text>
</a>
</g>
</g>
<!-- Node1&#45;&gt;Node20 -->
<g id="edge20" class="edge"><title>Node1&#45;&gt;Node20</title>
<path fill="none" stroke="midnightblue" d="M38.0159,-846C48.7994,-846 63.3533,-846 78.6502,-846"/>
<polygon fill="midnightblue" stroke="midnightblue" points="78.7776,-849.5 88.7776,-846 78.7776,-842.5 78.7776,-849.5"/>
</g>
<!-- Node21 -->
<g id="node21" class="node"><title>Node21</title>
<g id="a_node21"><a xlink:href="class_d_a_q_container.xhtml#aec06fe903543670248990b0e800a7398" target="_top" xlink:title="DAQContainer::GetSaveType">
<polygon fill="white" stroke="black" points="88,-798.5 88,-817.5 234,-817.5 234,-798.5 88,-798.5"/>
<text text-anchor="middle" x="161" y="-805.5" font-family="Helvetica,sans-Serif" font-size="10.00">DAQContainer::GetSaveType</text>
</a>
</g>
</g>
<!-- Node1&#45;&gt;Node21 -->
<g id="edge21" class="edge"><title>Node1&#45;&gt;Node21</title>
<path fill="none" stroke="midnightblue" d="M38.3168,-838.935C48.6884,-835.092 61.958,-830.435 74,-827 83.0579,-824.416 92.7363,-821.976 102.212,-819.759"/>
<polygon fill="midnightblue" stroke="midnightblue" points="103.006,-823.168 111.979,-817.534 101.451,-816.343 103.006,-823.168"/>
</g>
<!-- Node22 -->
<g id="node22" class="node"><title>Node22</title>
<g id="a_node22"><a xlink:href="class_d_r_s_board.xhtml#a3330a6f560520d2046a976666188d5ed" target="_top" xlink:title="DRSBoard::GetTemperature">
<polygon fill="white" stroke="black" points="91,-760.5 91,-779.5 231,-779.5 231,-760.5 91,-760.5"/>
<text text-anchor="middle" x="161" y="-767.5" font-family="Helvetica,sans-Serif" font-size="10.00">DRSBoard::GetTemperature</text>
</a>
</g>
</g>
<!-- Node1&#45;&gt;Node22 -->
<g id="edge22" class="edge"><title>Node1&#45;&gt;Node22</title>
<path fill="none" stroke="midnightblue" d="M26.4071,-836.241C35.4263,-823.326 53.1196,-800.815 74,-789 78.0007,-786.736 82.2477,-784.742 86.628,-782.986"/>
<polygon fill="midnightblue" stroke="midnightblue" points="88.1422,-786.162 96.3865,-779.507 85.7918,-779.568 88.1422,-786.162"/>
</g>
<!-- Node23 -->
<g id="node23" class="node"><title>Node23</title>
<g id="a_node23"><a xlink:href="class_d_r_s_board.xhtml#a3ee99da1412575a35de9e6b42f8d40ce" target="_top" xlink:title="DRSBoard::GetTime">
<polygon fill="white" stroke="black" points="107.5,-722.5 107.5,-741.5 214.5,-741.5 214.5,-722.5 107.5,-722.5"/>
<text text-anchor="middle" x="161" y="-729.5" font-family="Helvetica,sans-Serif" font-size="10.00">DRSBoard::GetTime</text>
</a>
</g>
</g>
<!-- Node1&#45;&gt;Node23 -->
<g id="edge23" class="edge"><title>Node1&#45;&gt;Node23</title>
<path fill="none" stroke="midnightblue" d="M22.5777,-836.429C28.3209,-817.036 44.0793,-773.077 74,-751 81.0622,-745.789 89.2809,-741.96 97.7824,-739.154"/>
<polygon fill="midnightblue" stroke="midnightblue" points="98.7937,-742.506 107.455,-736.403 96.8785,-735.773 98.7937,-742.506"/>
</g>
<!-- Node24 -->
<g id="node24" class="node"><title>Node24</title>
<g id="a_node24"><a xlink:href="_z_d_a_q_8cpp.xhtml#afc0d0292854e6b86ec43bdce35d24df0" target="_top" xlink:title="gettimestring">
<polygon fill="white" stroke="black" points="124.5,-684.5 124.5,-703.5 197.5,-703.5 197.5,-684.5 124.5,-684.5"/>
<text text-anchor="middle" x="161" y="-691.5" font-family="Helvetica,sans-Serif" font-size="10.00">gettimestring</text>
</a>
</g>
</g>
<!-- Node1&#45;&gt;Node24 -->
<g id="edge24" class="edge"><title>Node1&#45;&gt;Node24</title>
<path fill="none" stroke="midnightblue" d="M20.9282,-836.192C23.8206,-811.419 34.9679,-745.962 74,-713 85.1867,-703.553 100.037,-698.515 114.246,-695.909"/>
<polygon fill="midnightblue" stroke="midnightblue" points="115.032,-699.332 124.417,-694.414 114.014,-692.406 115.032,-699.332"/>
</g>
<!-- Node25 -->
<g id="node25" class="node"><title>Node25</title>
<g id="a_node25"><a xlink:href="class_d_r_s_board.xhtml#a139bebade5a6a4697ac4180f40945850" target="_top" xlink:title="DRSBoard::GetTriggerCell">
<polygon fill="white" stroke="black" points="94.5,-646.5 94.5,-665.5 227.5,-665.5 227.5,-646.5 94.5,-646.5"/>
<text text-anchor="middle" x="161" y="-653.5" font-family="Helvetica,sans-Serif" font-size="10.00">DRSBoard::GetTriggerCell</text>
</a>
</g>
</g>
<!-- Node1&#45;&gt;Node25 -->
<g id="edge25" class="edge"><title>Node1&#45;&gt;Node25</title>
<path fill="none" stroke="midnightblue" d="M19.9272,-836.118C20.2799,-806.759 25.5424,-719.351 74,-675 77.3909,-671.896 81.1713,-669.26 85.2031,-667.023"/>
<polygon fill="midnightblue" stroke="midnightblue" points="86.7968,-670.142 94.3771,-662.74 83.8354,-663.799 86.7968,-670.142"/>
</g>
<!-- Node26 -->
<g id="node26" class="node"><title>Node26</title>
<g id="a_node26"><a xlink:href="class_d_a_q_container.xhtml#a451e9c5e69dcf39f49aed5a5c79c83b4" target="_top" xlink:title="DAQContainer::GetTriggerRate">
<polygon fill="white" stroke="black" points="84.5,-608.5 84.5,-627.5 237.5,-627.5 237.5,-608.5 84.5,-608.5"/>
<text text-anchor="middle" x="161" y="-615.5" font-family="Helvetica,sans-Serif" font-size="10.00">DAQContainer::GetTriggerRate</text>
</a>
</g>
</g>
<!-- Node1&#45;&gt;Node26 -->
<g id="edge26" class="edge"><title>Node1&#45;&gt;Node26</title>
<path fill="none" stroke="midnightblue" d="M21.1436,-836.462C25.7774,-799.404 44.3388,-665.629 74,-637 75.4852,-635.566 77.053,-634.231 78.6904,-632.988"/>
<polygon fill="midnightblue" stroke="midnightblue" points="80.7988,-635.797 87.3988,-627.509 77.0709,-629.872 80.7988,-635.797"/>
</g>
<!-- Node27 -->
<g id="node27" class="node"><title>Node27</title>
<g id="a_node27"><a xlink:href="class_d_a_q_container.xhtml#a331e8cc718ce76b93bc3cc9b5e3f6a0f" target="_top" xlink:title="DAQContainer::GetTriggerType">
<polygon fill="white" stroke="black" points="84,-570.5 84,-589.5 238,-589.5 238,-570.5 84,-570.5"/>
<text text-anchor="middle" x="161" y="-577.5" font-family="Helvetica,sans-Serif" font-size="10.00">DAQContainer::GetTriggerType</text>
</a>
</g>
</g>
<!-- Node1&#45;&gt;Node27 -->
<g id="edge27" class="edge"><title>Node1&#45;&gt;Node27</title>
<path fill="none" stroke="midnightblue" d="M20.7373,-836.472C24.1121,-795.357 39.4304,-633.646 74,-599 75.2994,-597.698 76.6666,-596.476 78.0924,-595.33"/>
<polygon fill="midnightblue" stroke="midnightblue" points="80.4151,-597.991 86.8343,-589.562 76.5599,-592.148 80.4151,-597.991"/>
</g>
<!-- Node28 -->
<g id="node28" class="node"><title>Node28</title>
<g id="a_node28"><a xlink:href="class_d_r_s_board.xhtml#a0ab55a915705169c35a9771169cfbfab" target="_top" xlink:title="DRSBoard::GetWave">
<polygon fill="white" stroke="black" points="105.5,-532.5 105.5,-551.5 216.5,-551.5 216.5,-532.5 105.5,-532.5"/>
<text text-anchor="middle" x="161" y="-539.5" font-family="Helvetica,sans-Serif" font-size="10.00">DRSBoard::GetWave</text>
</a>
</g>
</g>
<!-- Node1&#45;&gt;Node28 -->
<g id="edge28" class="edge"><title>Node1&#45;&gt;Node28</title>
<path fill="none" stroke="midnightblue" d="M20.4482,-836.263C22.7316,-791.003 34.5484,-601.661 74,-561 79.9694,-554.848 87.4486,-550.479 95.4902,-547.407"/>
<polygon fill="midnightblue" stroke="midnightblue" points="96.6465,-550.713 105.132,-544.368 94.5422,-544.036 96.6465,-550.713"/>
</g>
<!-- Node29 -->
<g id="node29" class="node"><title>Node29</title>
<g id="a_node29"><a xlink:href="class_d_r_s_board.xhtml#a255b32a01d59e8315a4ec5181586ec4f" target="_top" xlink:title="DRSBoard::Init">
<polygon fill="white" stroke="black" points="119.5,-494.5 119.5,-513.5 202.5,-513.5 202.5,-494.5 119.5,-494.5"/>
<text text-anchor="middle" x="161" y="-501.5" font-family="Helvetica,sans-Serif" font-size="10.00">DRSBoard::Init</text>
</a>
</g>
</g>
<!-- Node1&#45;&gt;Node29 -->
<g id="edge29" class="edge"><title>Node1&#45;&gt;Node29</title>
<path fill="none" stroke="midnightblue" d="M20.2113,-836.306C21.4746,-787.567 29.567,-569.796 74,-523 83.2289,-513.28 96.2206,-507.989 109.316,-505.233"/>
<polygon fill="midnightblue" stroke="midnightblue" points="109.993,-508.669 119.29,-503.589 108.854,-501.763 109.993,-508.669"/>
</g>
<!-- Node30 -->
<g id="node30" class="node"><title>Node30</title>
<g id="a_node30"><a xlink:href="class_d_r_s_board.xhtml#a69328e822828c454b02ac3e0e3423193" target="_top" xlink:title="DRSBoard::IsBusy">
<polygon fill="white" stroke="black" points="110.5,-456.5 110.5,-475.5 211.5,-475.5 211.5,-456.5 110.5,-456.5"/>
<text text-anchor="middle" x="161" y="-463.5" font-family="Helvetica,sans-Serif" font-size="10.00">DRSBoard::IsBusy</text>
</a>
</g>
</g>
<!-- Node1&#45;&gt;Node30 -->
<g id="edge30" class="edge"><title>Node1&#45;&gt;Node30</title>
<path fill="none" stroke="midnightblue" d="M20.0254,-836.23C20.3651,-783.979 24.5997,-537.93 74,-485 81.1156,-477.376 90.5439,-472.466 100.548,-469.364"/>
<polygon fill="midnightblue" stroke="midnightblue" points="101.418,-472.755 110.258,-466.916 99.7061,-465.967 101.418,-472.755"/>
</g>
<!-- Node31 -->
<g id="node31" class="node"><title>Node31</title>
<g id="a_node31"><a xlink:href="class_d_a_q_container.xhtml#a1a260ff949b99d35752afbdbafdbcba0" target="_top" xlink:title="DAQContainer::SetCalibrationMode">
<polygon fill="white" stroke="black" points="75,-418.5 75,-437.5 247,-437.5 247,-418.5 75,-418.5"/>
<text text-anchor="middle" x="161" y="-425.5" font-family="Helvetica,sans-Serif" font-size="10.00">DAQContainer::SetCalibrationMode</text>
</a>
</g>
</g>
<!-- Node1&#45;&gt;Node31 -->
<g id="edge31" class="edge"><title>Node1&#45;&gt;Node31</title>
<path fill="none" stroke="midnightblue" d="M19.8733,-836.319C19.354,-781.084 19.5621,-506.15 74,-447 75.0678,-445.84 76.1892,-444.742 77.358,-443.704"/>
<polygon fill="midnightblue" stroke="midnightblue" points="79.6389,-446.374 85.6973,-437.682 75.541,-440.699 79.6389,-446.374"/>
</g>
<!-- Node32 -->
<g id="node32" class="node"><title>Node32</title>
<g id="a_node32"><a xlink:href="class_d_a_q_container.xhtml#a155ab4532292f5fdfb47b14aeb4f5f3e" target="_top" xlink:title="DAQContainer::SetGraphicMode">
<polygon fill="white" stroke="black" points="81.5,-380.5 81.5,-399.5 240.5,-399.5 240.5,-380.5 81.5,-380.5"/>
<text text-anchor="middle" x="161" y="-387.5" font-family="Helvetica,sans-Serif" font-size="10.00">DAQContainer::SetGraphicMode</text>
</a>
</g>
</g>
<!-- Node1&#45;&gt;Node32 -->
<g id="edge32" class="edge"><title>Node1&#45;&gt;Node32</title>
<path fill="none" stroke="midnightblue" d="M19.7445,-836.18C18.4274,-777.572 14.5849,-474.312 74,-409 75.0611,-407.834 76.1763,-406.73 77.3394,-405.687"/>
<polygon fill="midnightblue" stroke="midnightblue" points="79.6241,-408.353 85.6483,-399.637 75.5039,-402.694 79.6241,-408.353"/>
</g>
<!-- Node33 -->
<g id="node33" class="node"><title>Node33</title>
<g id="a_node33"><a xlink:href="class_d_r_s_board.xhtml#a85fad0cbe2b744a9c5788cdd14cd279c" target="_top" xlink:title="DRSBoard::SoftTrigger">
<polygon fill="white" stroke="black" points="102,-342.5 102,-361.5 220,-361.5 220,-342.5 102,-342.5"/>
<text text-anchor="middle" x="161" y="-349.5" font-family="Helvetica,sans-Serif" font-size="10.00">DRSBoard::SoftTrigger</text>
</a>
</g>
</g>
<!-- Node1&#45;&gt;Node33 -->
<g id="edge33" class="edge"><title>Node1&#45;&gt;Node33</title>
<path fill="none" stroke="midnightblue" d="M20.4266,-836.471C23.3749,-772.501 41.5725,-406.997 74,-371 78.9955,-365.455 85.2127,-361.333 92.004,-358.294"/>
<polygon fill="midnightblue" stroke="midnightblue" points="93.3768,-361.519 101.56,-354.789 90.9663,-354.947 93.3768,-361.519"/>
</g>
<!-- Node34 -->
<g id="node34" class="node"><title>Node34</title>
<g id="a_node34"><a xlink:href="class_d_r_s_board.xhtml#aa1f458803cbed423b2f45dec50d7548e" target="_top" xlink:title="DRSBoard::StartDomino">
<polygon fill="white" stroke="black" points="98.5,-304.5 98.5,-323.5 223.5,-323.5 223.5,-304.5 98.5,-304.5"/>
<text text-anchor="middle" x="161" y="-311.5" font-family="Helvetica,sans-Serif" font-size="10.00">DRSBoard::StartDomino</text>
</a>
</g>
</g>
<!-- Node1&#45;&gt;Node34 -->
<g id="edge34" class="edge"><title>Node1&#45;&gt;Node34</title>
<path fill="none" stroke="midnightblue" d="M20.3546,-836.151C22.8836,-768.332 39.0975,-372.07 74,-333 78.2784,-328.211 83.4678,-324.481 89.1541,-321.593"/>
<polygon fill="midnightblue" stroke="midnightblue" points="90.5603,-324.799 98.4392,-317.716 87.8628,-318.34 90.5603,-324.799"/>
</g>
<!-- Node35 -->
<g id="node35" class="node"><title>Node35</title>
<g id="a_node35"><a xlink:href="class_d_r_s_board.xhtml#a541a06b9bbc5baa4d2e495c598ea8146" target="_top" xlink:title="DRSBoard::TransferWaves">
<polygon fill="white" stroke="black" points="92.5,-266.5 92.5,-285.5 229.5,-285.5 229.5,-266.5 92.5,-266.5"/>
<text text-anchor="middle" x="161" y="-273.5" font-family="Helvetica,sans-Serif" font-size="10.00">DRSBoard::TransferWaves</text>
</a>
</g>
</g>
<!-- Node1&#45;&gt;Node35 -->
<g id="edge35" class="edge"><title>Node1&#45;&gt;Node35</title>
<path fill="none" stroke="midnightblue" d="M20.2741,-836.338C22.3487,-766.241 36.531,-337.248 74,-295 76.7742,-291.872 79.937,-289.195 83.3736,-286.91"/>
<polygon fill="midnightblue" stroke="midnightblue" points="85.2987,-289.847 92.4148,-281.998 81.957,-283.696 85.2987,-289.847"/>
</g>
<!-- Node36 -->
<g id="node36" class="node"><title>Node36</title>
<g id="a_node36"><a xlink:href="_p_d_a_q_2_core_2_include_2xml_8h.xhtml#a8251b051736c5146c1985edc6cb357e6" target="_top" xlink:title="xml_readsettings">
<polygon fill="white" stroke="red" points="115.5,-228.5 115.5,-247.5 206.5,-247.5 206.5,-228.5 115.5,-228.5"/>
<text text-anchor="middle" x="161" y="-235.5" font-family="Helvetica,sans-Serif" font-size="10.00">xml_readsettings</text>
</a>
</g>
</g>
<!-- Node1&#45;&gt;Node36 -->
<g id="edge36" class="edge"><title>Node1&#45;&gt;Node36</title>
<path fill="none" stroke="midnightblue" d="M20.2144,-836.147C21.9003,-762.709 34.0275,-302.356 74,-257 82.0563,-247.859 93.43,-242.567 105.275,-239.615"/>
<polygon fill="midnightblue" stroke="midnightblue" points="106.135,-243.013 115.274,-237.652 104.787,-236.144 106.135,-243.013"/>
</g>
<!-- Node3 -->
<g id="node3" class="node"><title>Node3</title>
<g id="a_node3"><a xlink:href="class_d_r_s_callback.xhtml#a088e15ac8657d148d61c8fb80b2e23ac" target="_top" xlink:title="DRSCallback::Progress">
<polygon fill="white" stroke="black" points="307,-1461.5 307,-1480.5 429,-1480.5 429,-1461.5 307,-1461.5"/>
<text text-anchor="middle" x="368" y="-1468.5" font-family="Helvetica,sans-Serif" font-size="10.00">DRSCallback::Progress</text>
</a>
</g>
</g>
<!-- Node2&#45;&gt;Node3 -->
<g id="edge2" class="edge"><title>Node2&#45;&gt;Node3</title>
<path fill="none" stroke="midnightblue" d="M230.262,-1483.67C251.679,-1481.69 275.349,-1479.49 296.892,-1477.5"/>
<polygon fill="midnightblue" stroke="midnightblue" points="297.315,-1480.97 306.95,-1476.57 296.669,-1474 297.315,-1480.97"/>
</g>
<!-- Node4&#45;&gt;Node3 -->
<g id="edge5" class="edge"><title>Node4&#45;&gt;Node3</title>
<path fill="none" stroke="midnightblue" d="M224.063,-1457.75C247.058,-1459.88 273.286,-1462.31 296.943,-1464.51"/>
<polygon fill="midnightblue" stroke="midnightblue" points="296.627,-1467.99 306.908,-1465.43 297.273,-1461.02 296.627,-1467.99"/>
</g>
<!-- Node5 -->
<g id="node5" class="node"><title>Node5</title>
<g id="a_node5"><a xlink:href="_d_r_s_8cpp.xhtml#a434cf9bf0f0628d03b924189ceab42e8" target="_top" xlink:title="Sleep">
<polygon fill="white" stroke="black" points="488.5,-496.5 488.5,-515.5 529.5,-515.5 529.5,-496.5 488.5,-496.5"/>
<text text-anchor="middle" x="509" y="-503.5" font-family="Helvetica,sans-Serif" font-size="10.00">Sleep</text>
</a>
</g>
</g>
<!-- Node4&#45;&gt;Node5 -->
<g id="edge4" class="edge"><title>Node4&#45;&gt;Node5</title>
<path fill="none" stroke="midnightblue" d="M224.319,-1446.73C233.068,-1443.7 241.334,-1439.3 248,-1433 388.75,-1299.92 487.758,-647.963 505.237,-525.759"/>
<polygon fill="midnightblue" stroke="midnightblue" points="508.736,-526.014 506.672,-515.622 501.805,-525.032 508.736,-526.014"/>
</g>
<!-- Node37 -->
<g id="node37" class="node"><title>Node37</title>
<g id="a_node37"><a xlink:href="struct_x_m_l_node.xhtml#acc044148e2b9b8264a320b7b6e398158" target="_top" xlink:title="XMLNode::openFileHelper">
<polygon fill="white" stroke="red" points="302.5,-506.5 302.5,-525.5 433.5,-525.5 433.5,-506.5 302.5,-506.5"/>
<text text-anchor="middle" x="368" y="-513.5" font-family="Helvetica,sans-Serif" font-size="10.00">XMLNode::openFileHelper</text>
</a>
</g>
</g>
<!-- Node36&#45;&gt;Node37 -->
<g id="edge37" class="edge"><title>Node36&#45;&gt;Node37</title>
<path fill="none" stroke="midnightblue" d="M206.812,-238.047C221.851,-240.374 237.46,-245.712 248,-257 321.61,-335.837 210.69,-417.884 284,-497 286.802,-500.024 289.979,-502.615 293.416,-504.831"/>
<polygon fill="midnightblue" stroke="midnightblue" points="291.952,-508.016 302.427,-509.6 295.226,-501.829 291.952,-508.016"/>
</g>
<!-- Node38 -->
<g id="node38" class="node"><title>Node38</title>
<g id="a_node38"><a xlink:href="struct_x_m_l_node.xhtml#aa07572a057ce7ffc8843e468d952f490" target="_top" xlink:title="XMLNode::getAttribute">
<polygon fill="white" stroke="black" points="310,-468.5 310,-487.5 426,-487.5 426,-468.5 310,-468.5"/>
<text text-anchor="middle" x="368" y="-475.5" font-family="Helvetica,sans-Serif" font-size="10.00">XMLNode::getAttribute</text>
</a>
</g>
</g>
<!-- Node36&#45;&gt;Node38 -->
<g id="edge38" class="edge"><title>Node36&#45;&gt;Node38</title>
<path fill="none" stroke="midnightblue" d="M206.643,-238.207C221.664,-240.55 237.306,-245.858 248,-257 311.145,-322.793 221.105,-392.967 284,-459 288.55,-463.777 294.035,-467.465 299.992,-470.3"/>
<polygon fill="midnightblue" stroke="midnightblue" points="299.086,-473.704 309.674,-474.086 301.635,-467.185 299.086,-473.704"/>
</g>
<!-- Node39 -->
<g id="node39" class="node"><title>Node39</title>
<g id="a_node39"><a xlink:href="_p_d_a_q_2_core_2_source_2xml_8cpp.xhtml#a294ca441881dbf9ed73205366e498465" target="_top" xlink:title="xml_error">
<polygon fill="white" stroke="black" points="339.5,-430.5 339.5,-449.5 396.5,-449.5 396.5,-430.5 339.5,-430.5"/>
<text text-anchor="middle" x="368" y="-437.5" font-family="Helvetica,sans-Serif" font-size="10.00">xml_error</text>
</a>
</g>
</g>
<!-- Node36&#45;&gt;Node39 -->
<g id="edge39" class="edge"><title>Node36&#45;&gt;Node39</title>
<path fill="none" stroke="midnightblue" d="M206.848,-238.515C221.709,-240.915 237.195,-246.181 248,-257 300.732,-309.803 231.469,-367.997 284,-421 295.694,-432.8 313.117,-437.901 328.984,-439.911"/>
<polygon fill="midnightblue" stroke="midnightblue" points="328.837,-443.412 339.111,-440.825 329.466,-436.44 328.837,-443.412"/>
</g>
<!-- Node40 -->
<g id="node40" class="node"><title>Node40</title>
<g id="a_node40"><a xlink:href="struct_x_m_l_node.xhtml#a77a21438b6d48a52cf8a1270f82f4475" target="_top" xlink:title="XMLNode::getChildNode">
<polygon fill="white" stroke="black" points="305.5,-392.5 305.5,-411.5 430.5,-411.5 430.5,-392.5 305.5,-392.5"/>
<text text-anchor="middle" x="368" y="-399.5" font-family="Helvetica,sans-Serif" font-size="10.00">XMLNode::getChildNode</text>
</a>
</g>
</g>
<!-- Node36&#45;&gt;Node40 -->
<g id="edge40" class="edge"><title>Node36&#45;&gt;Node40</title>
<path fill="none" stroke="midnightblue" d="M206.924,-238.969C221.616,-241.435 236.975,-246.627 248,-257 290.416,-296.91 241.735,-342.929 284,-383 287.567,-386.382 291.607,-389.206 295.938,-391.559"/>
<polygon fill="midnightblue" stroke="midnightblue" points="294.625,-394.807 305.177,-395.759 297.522,-388.434 294.625,-394.807"/>
</g>
<!-- Node41 -->
<g id="node41" class="node"><title>Node41</title>
<g id="a_node41"><a xlink:href="struct_x_m_l_node.xhtml#aeb607292b18d4615b7c169c7c08c0a8b" target="_top" xlink:title="XMLNode::getText">
<polygon fill="white" stroke="black" points="318.5,-354.5 318.5,-373.5 417.5,-373.5 417.5,-354.5 318.5,-354.5"/>
<text text-anchor="middle" x="368" y="-361.5" font-family="Helvetica,sans-Serif" font-size="10.00">XMLNode::getText</text>
</a>
</g>
</g>
<!-- Node36&#45;&gt;Node41 -->
<g id="edge41" class="edge"><title>Node36&#45;&gt;Node41</title>
<path fill="none" stroke="midnightblue" d="M206.743,-239.748C221.249,-242.3 236.539,-247.347 248,-257 280.321,-284.222 251.782,-317.656 284,-345 291.035,-350.971 299.574,-355.16 308.466,-358.08"/>
<polygon fill="midnightblue" stroke="midnightblue" points="307.626,-361.48 318.198,-360.776 309.495,-354.734 307.626,-361.48"/>
</g>
<!-- Node42 -->
<g id="node42" class="node"><title>Node42</title>
<g id="a_node42"><a xlink:href="class_d_a_q_container.xhtml#aa14506878e2eadb1058fdd51d5fd90b5" target="_top" xlink:title="DAQContainer::SetOutputDir">
<polygon fill="white" stroke="black" points="296.5,-316.5 296.5,-335.5 439.5,-335.5 439.5,-316.5 296.5,-316.5"/>
<text text-anchor="middle" x="368" y="-323.5" font-family="Helvetica,sans-Serif" font-size="10.00">DAQContainer::SetOutputDir</text>
</a>
</g>
</g>
<!-- Node36&#45;&gt;Node42 -->
<g id="edge42" class="edge"><title>Node36&#45;&gt;Node42</title>
<path fill="none" stroke="midnightblue" d="M206.818,-241.686C220.847,-244.412 235.828,-249.072 248,-257 270.644,-271.748 261.497,-291.037 284,-306 287.782,-308.515 291.847,-310.714 296.075,-312.637"/>
<polygon fill="midnightblue" stroke="midnightblue" points="294.955,-315.959 305.54,-316.422 297.554,-309.459 294.955,-315.959"/>
</g>
<!-- Node43 -->
<g id="node43" class="node"><title>Node43</title>
<g id="a_node43"><a xlink:href="class_d_a_q_container.xhtml#aa4b60b525b6033949d00af459b1dec5c" target="_top" xlink:title="DAQContainer::SetNumberOf\lEvents">
<polygon fill="white" stroke="black" points="295,-267 295,-297 441,-297 441,-267 295,-267"/>
<text text-anchor="start" x="303" y="-285" font-family="Helvetica,sans-Serif" font-size="10.00">DAQContainer::SetNumberOf</text>
<text text-anchor="middle" x="368" y="-274" font-family="Helvetica,sans-Serif" font-size="10.00">Events</text>
</a>
</g>
</g>
<!-- Node36&#45;&gt;Node43 -->
<g id="edge43" class="edge"><title>Node36&#45;&gt;Node43</title>
<path fill="none" stroke="midnightblue" d="M206.482,-247.547C229.975,-252.59 259.53,-258.933 286.857,-264.799"/>
<polygon fill="midnightblue" stroke="midnightblue" points="286.297,-268.258 296.809,-266.935 287.766,-261.414 286.297,-268.258"/>
</g>
<!-- Node44 -->
<g id="node44" class="node"><title>Node44</title>
<g id="a_node44"><a xlink:href="class_d_a_q_container.xhtml#a5509c784df11a27a766b323aa4173f3a" target="_top" xlink:title="DAQContainer::SetSaveType">
<polygon fill="white" stroke="black" points="295,-228.5 295,-247.5 441,-247.5 441,-228.5 295,-228.5"/>
<text text-anchor="middle" x="368" y="-235.5" font-family="Helvetica,sans-Serif" font-size="10.00">DAQContainer::SetSaveType</text>
</a>
</g>
</g>
<!-- Node36&#45;&gt;Node44 -->
<g id="edge44" class="edge"><title>Node36&#45;&gt;Node44</title>
<path fill="none" stroke="midnightblue" d="M206.735,-238C229.613,-238 258.191,-238 284.855,-238"/>
<polygon fill="midnightblue" stroke="midnightblue" points="284.964,-241.5 294.964,-238 284.964,-234.5 284.964,-241.5"/>
</g>
<!-- Node45 -->
<g id="node45" class="node"><title>Node45</title>
<g id="a_node45"><a xlink:href="class_d_a_q_container.xhtml#a42c7e8e384ed83827efe3c1a74c20972" target="_top" xlink:title="DAQContainer::SetNumberPerFile">
<polygon fill="white" stroke="black" points="284.5,-190.5 284.5,-209.5 451.5,-209.5 451.5,-190.5 284.5,-190.5"/>
<text text-anchor="middle" x="368" y="-197.5" font-family="Helvetica,sans-Serif" font-size="10.00">DAQContainer::SetNumberPerFile</text>
</a>
</g>
</g>
<!-- Node36&#45;&gt;Node45 -->
<g id="edge45" class="edge"><title>Node36&#45;&gt;Node45</title>
<path fill="none" stroke="midnightblue" d="M206.735,-229.708C235.65,-224.348 273.671,-217.3 305.424,-211.414"/>
<polygon fill="midnightblue" stroke="midnightblue" points="306.299,-214.812 315.493,-209.548 305.023,-207.929 306.299,-214.812"/>
</g>
<!-- Node46 -->
<g id="node46" class="node"><title>Node46</title>
<g id="a_node46"><a xlink:href="class_d_a_q_container.xhtml#a8c2898cebd574164d09a207dbeaf3786" target="_top" xlink:title="DAQContainer::SetChannel0">
<polygon fill="white" stroke="black" points="296.5,-152.5 296.5,-171.5 439.5,-171.5 439.5,-152.5 296.5,-152.5"/>
<text text-anchor="middle" x="368" y="-159.5" font-family="Helvetica,sans-Serif" font-size="10.00">DAQContainer::SetChannel0</text>
</a>
</g>
</g>
<!-- Node36&#45;&gt;Node46 -->
<g id="edge46" class="edge"><title>Node36&#45;&gt;Node46</title>
<path fill="none" stroke="midnightblue" d="M179.292,-228.486C202.506,-216.051 245.31,-194.298 284,-181 291.553,-178.404 299.616,-176.057 307.636,-173.97"/>
<polygon fill="midnightblue" stroke="midnightblue" points="308.499,-177.362 317.36,-171.554 306.811,-170.569 308.499,-177.362"/>
</g>
<!-- Node47 -->
<g id="node47" class="node"><title>Node47</title>
<g id="a_node47"><a xlink:href="class_d_a_q_container.xhtml#ace630af575da2f385f0feb7f0ffb1162" target="_top" xlink:title="DAQContainer::SetChannel1">
<polygon fill="white" stroke="black" points="296.5,-114.5 296.5,-133.5 439.5,-133.5 439.5,-114.5 296.5,-114.5"/>
<text text-anchor="middle" x="368" y="-121.5" font-family="Helvetica,sans-Serif" font-size="10.00">DAQContainer::SetChannel1</text>
</a>
</g>
</g>
<!-- Node36&#45;&gt;Node47 -->
<g id="edge47" class="edge"><title>Node36&#45;&gt;Node47</title>
<path fill="none" stroke="midnightblue" d="M171.425,-228.213C190.679,-208.821 236.713,-165.454 284,-143 289.218,-140.522 294.777,-138.358 300.452,-136.47"/>
<polygon fill="midnightblue" stroke="midnightblue" points="301.521,-139.803 310.07,-133.545 299.485,-133.105 301.521,-139.803"/>
</g>
<!-- Node48 -->
<g id="node48" class="node"><title>Node48</title>
<g id="a_node48"><a xlink:href="class_d_a_q_container.xhtml#aee7c5278c25dcc6f78bd9125364f5b72" target="_top" xlink:title="DAQContainer::SetChannel2">
<polygon fill="white" stroke="black" points="296.5,-76.5 296.5,-95.5 439.5,-95.5 439.5,-76.5 296.5,-76.5"/>
<text text-anchor="middle" x="368" y="-83.5" font-family="Helvetica,sans-Serif" font-size="10.00">DAQContainer::SetChannel2</text>
</a>
</g>
</g>
<!-- Node36&#45;&gt;Node48 -->
<g id="edge48" class="edge"><title>Node36&#45;&gt;Node48</title>
<path fill="none" stroke="midnightblue" d="M167.758,-228.475C183.207,-203.796 228.204,-137.451 284,-105 287.842,-102.766 291.925,-100.794 296.142,-99.0547"/>
<polygon fill="midnightblue" stroke="midnightblue" points="297.359,-102.336 305.541,-95.6046 294.947,-95.7648 297.359,-102.336"/>
</g>
<!-- Node49 -->
<g id="node49" class="node"><title>Node49</title>
<g id="a_node49"><a xlink:href="class_d_a_q_container.xhtml#aef41b7e947db3479f09724215ad1fe0e" target="_top" xlink:title="DAQContainer::SetChannel3">
<polygon fill="white" stroke="black" points="296.5,-38.5 296.5,-57.5 439.5,-57.5 439.5,-38.5 296.5,-38.5"/>
<text text-anchor="middle" x="368" y="-45.5" font-family="Helvetica,sans-Serif" font-size="10.00">DAQContainer::SetChannel3</text>
</a>
</g>
</g>
<!-- Node36&#45;&gt;Node49 -->
<g id="edge49" class="edge"><title>Node36&#45;&gt;Node49</title>
<path fill="none" stroke="midnightblue" d="M165.872,-228.383C178.221,-199.014 219.674,-109.89 284,-67 286.981,-65.0126 290.141,-63.2312 293.42,-61.6347"/>
<polygon fill="midnightblue" stroke="midnightblue" points="295.083,-64.7314 302.924,-57.607 292.351,-58.2862 295.083,-64.7314"/>
</g>
<!-- Node50 -->
<g id="node50" class="node"><title>Node50</title>
<g id="a_node50"><a xlink:href="class_d_r_s_board.xhtml#ad03f8e0db5e5089ffd9d946cb5cd8fe3" target="_top" xlink:title="DRSBoard::SetFrequency">
<polygon fill="white" stroke="black" points="302.5,-0.5 302.5,-19.5 433.5,-19.5 433.5,-0.5 302.5,-0.5"/>
<text text-anchor="middle" x="368" y="-7.5" font-family="Helvetica,sans-Serif" font-size="10.00">DRSBoard::SetFrequency</text>
</a>
</g>
</g>
<!-- Node36&#45;&gt;Node50 -->
<g id="edge50" class="edge"><title>Node36&#45;&gt;Node50</title>
<path fill="none" stroke="midnightblue" d="M164.649,-228.223C174.294,-194.583 210.871,-82.7386 284,-29 286.825,-26.9238 289.84,-25.0692 292.984,-23.413"/>
<polygon fill="midnightblue" stroke="midnightblue" points="294.483,-26.576 302.138,-19.2514 291.586,-20.2036 294.483,-26.576"/>
</g>
<!-- Node50&#45;&gt;Node5 -->
<g id="edge51" class="edge"><title>Node50&#45;&gt;Node5</title>
<path fill="none" stroke="midnightblue" d="M433.744,-16.2435C440.642,-19.2591 446.965,-23.3887 452,-29 483.078,-63.6358 502.538,-400.59 507.01,-486.265"/>
<polygon fill="midnightblue" stroke="midnightblue" points="503.524,-486.625 507.532,-496.433 510.515,-486.267 503.524,-486.625"/>
</g>
</g>
</svg>
