<?xml version="1.0" encoding="UTF-8" standalone="no"?>
<!DOCTYPE svg PUBLIC "-//W3C//DTD SVG 1.1//EN"
 "http://www.w3.org/Graphics/SVG/1.1/DTD/svg11.dtd">
<!-- Generated by graphviz version 2.36.0 (20140111.2315)
 -->
<!-- Title: /data/Software/DAQ/PDAQ/Application/ZDAQ.cpp Pages: 1 -->
<!--zoomable 152 -->
<svg id="main" version="1.1" xmlns="http://www.w3.org/2000/svg" xmlns:xlink="http://www.w3.org/1999/xlink" xml:space="preserve" onload="init(evt)">
<style type="text/css"><![CDATA[
.edge:hover path { stroke: red; }
.edge:hover polygon { stroke: red; fill: red; }
]]></style>
<script type="text/javascript"><![CDATA[
var edges = document.getElementsByTagName('g');
if (edges && edges.length) {
  for (var i=0;i<edges.length;i++) {
    if (edges[i].id.substr(0,4)=='edge') {
      edges[i].setAttribute('class','edge');
    }
  }
}
]]></script>
        <defs>
                <circle id="rim" cx="0" cy="0" r="7"/>
                <circle id="rim2" cx="0" cy="0" r="3.5"/>
                <g id="zoomPlus">
                        <use xlink:href="#rim" fill="#404040">
                                <set attributeName="fill" to="#808080" begin="zoomplus.mouseover" end="zoomplus.mouseout"/>
                        </use>
                        <path d="M-4,0h8M0,-4v8" fill="none" stroke="white" stroke-width="1.5" pointer-events="none"/>
                </g>
                <g id="zoomMin">
                        <use xlink:href="#rim" fill="#404040">
                                <set attributeName="fill" to="#808080" begin="zoomminus.mouseover" end="zoomminus.mouseout"/>
                        </use>
                        <path d="M-4,0h8" fill="none" stroke="white" stroke-width="1.5" pointer-events="none"/>
                </g>
                <g id="dirArrow">
                        <path fill="none" stroke="white" stroke-width="1.5" d="M0,-3.0v7 M-2.5,-0.5L0,-3.0L2.5,-0.5"/>
                </g>
               <g id="resetDef">
                       <use xlink:href="#rim2" fill="#404040">
                               <set attributeName="fill" to="#808080" begin="reset.mouseover" end="reset.mouseout"/>
                       </use>
               </g>
        </defs>

<script type="text/javascript">
var viewWidth = 1665;
var viewHeight = 152;
var sectionId = 'dynsection-0';
</script>
<script xlink:href="svgpan.js"/>
<svg id="graph" class="graph">
<g id="viewport">
<title>/data/Software/DAQ/PDAQ/Application/ZDAQ.cpp</title>
<polygon fill="white" stroke="none" points="-4,4 -4,-148 1661,-148 1661,4 -4,4"/>
<!-- Node1 -->
<g id="node1" class="node"><title>Node1</title>
<polygon fill="#bfbfbf" stroke="black" points="685.5,-113 685.5,-143 834.5,-143 834.5,-113 685.5,-113"/>
<text text-anchor="start" x="693.5" y="-131" font-family="Helvetica,sans-Serif" font-size="10.00">/data/Software/DAQ</text>
<text text-anchor="middle" x="760" y="-120" font-family="Helvetica,sans-Serif" font-size="10.00">/PDAQ/Application/ZDAQ.cpp</text>
</g>
<!-- Node2 -->
<g id="node2" class="node"><title>Node2</title>
<polygon fill="white" stroke="#bfbfbf" points="-0.5,-56.5 -0.5,-75.5 46.5,-75.5 46.5,-56.5 -0.5,-56.5"/>
<text text-anchor="middle" x="23" y="-63.5" font-family="Helvetica,sans-Serif" font-size="10.00">math.h</text>
</g>
<!-- Node1&#45;&gt;Node2 -->
<g id="edge1" class="edge"><title>Node1&#45;&gt;Node2</title>
<path fill="none" stroke="midnightblue" d="M685.301,-126.532C557.772,-124.652 289.976,-116.006 56.6741,-75.9688"/>
<polygon fill="midnightblue" stroke="midnightblue" points="57.0947,-72.4895 46.6428,-74.224 55.8951,-79.3859 57.0947,-72.4895"/>
</g>
<!-- Node3 -->
<g id="node3" class="node"><title>Node3</title>
<polygon fill="white" stroke="#bfbfbf" points="64.5,-56.5 64.5,-75.5 115.5,-75.5 115.5,-56.5 64.5,-56.5"/>
<text text-anchor="middle" x="90" y="-63.5" font-family="Helvetica,sans-Serif" font-size="10.00">unistd.h</text>
</g>
<!-- Node1&#45;&gt;Node3 -->
<g id="edge2" class="edge"><title>Node1&#45;&gt;Node3</title>
<path fill="none" stroke="midnightblue" d="M685.048,-125.321C567.491,-121.733 332.626,-110.723 125.658,-76.0018"/>
<polygon fill="midnightblue" stroke="midnightblue" points="125.957,-72.5026 115.512,-74.2767 124.784,-79.4036 125.957,-72.5026"/>
</g>
<!-- Node4 -->
<g id="node4" class="node"><title>Node4</title>
<polygon fill="white" stroke="#bfbfbf" points="133.5,-56.5 133.5,-75.5 182.5,-75.5 182.5,-56.5 133.5,-56.5"/>
<text text-anchor="middle" x="158" y="-63.5" font-family="Helvetica,sans-Serif" font-size="10.00">ctype.h</text>
</g>
<!-- Node1&#45;&gt;Node4 -->
<g id="edge3" class="edge"><title>Node1&#45;&gt;Node4</title>
<path fill="none" stroke="midnightblue" d="M685.495,-124.329C578.413,-119.601 374.8,-107.294 192.798,-75.8325"/>
<polygon fill="midnightblue" stroke="midnightblue" points="193.229,-72.3548 182.775,-74.0765 192.021,-79.2498 193.229,-72.3548"/>
</g>
<!-- Node5 -->
<g id="node5" class="node"><title>Node5</title>
<polygon fill="white" stroke="#bfbfbf" points="201,-56.5 201,-75.5 263,-75.5 263,-56.5 201,-56.5"/>
<text text-anchor="middle" x="232" y="-63.5" font-family="Helvetica,sans-Serif" font-size="10.00">sys/ioctl.h</text>
</g>
<!-- Node1&#45;&gt;Node5 -->
<g id="edge4" class="edge"><title>Node1&#45;&gt;Node5</title>
<path fill="none" stroke="midnightblue" d="M685.23,-121.922C591.22,-114.925 424.765,-100.511 273.327,-76.0501"/>
<polygon fill="midnightblue" stroke="midnightblue" points="273.808,-72.5824 263.375,-74.4243 272.68,-79.4908 273.808,-72.5824"/>
</g>
<!-- Node6 -->
<g id="node6" class="node"><title>Node6</title>
<polygon fill="white" stroke="#bfbfbf" points="281.5,-56.5 281.5,-75.5 328.5,-75.5 328.5,-56.5 281.5,-56.5"/>
<text text-anchor="middle" x="305" y="-63.5" font-family="Helvetica,sans-Serif" font-size="10.00">errno.h</text>
</g>
<!-- Node1&#45;&gt;Node6 -->
<g id="edge5" class="edge"><title>Node1&#45;&gt;Node6</title>
<path fill="none" stroke="midnightblue" d="M685.16,-121.279C602.549,-114.215 465.577,-100.293 338.598,-75.8397"/>
<polygon fill="midnightblue" stroke="midnightblue" points="339.181,-72.3875 328.695,-73.907 337.84,-79.2578 339.181,-72.3875"/>
</g>
<!-- Node7 -->
<g id="node7" class="node"><title>Node7</title>
<polygon fill="white" stroke="#bfbfbf" points="347,-56.5 347,-75.5 391,-75.5 391,-56.5 347,-56.5"/>
<text text-anchor="middle" x="369" y="-63.5" font-family="Helvetica,sans-Serif" font-size="10.00">time.h</text>
</g>
<!-- Node1&#45;&gt;Node7 -->
<g id="edge6" class="edge"><title>Node1&#45;&gt;Node7</title>
<path fill="none" stroke="midnightblue" d="M685.339,-119.55C614.437,-111.765 504.78,-97.886 401.253,-76.0125"/>
<polygon fill="midnightblue" stroke="midnightblue" points="401.766,-72.5431 391.255,-73.8706 400.3,-79.3878 401.766,-72.5431"/>
</g>
<!-- Node8 -->
<g id="node8" class="node"><title>Node8</title>
<polygon fill="white" stroke="#bfbfbf" points="409,-56.5 409,-75.5 471,-75.5 471,-56.5 409,-56.5"/>
<text text-anchor="middle" x="440" y="-63.5" font-family="Helvetica,sans-Serif" font-size="10.00">sys/time.h</text>
</g>
<!-- Node1&#45;&gt;Node8 -->
<g id="edge7" class="edge"><title>Node1&#45;&gt;Node8</title>
<path fill="none" stroke="midnightblue" d="M685.247,-113.429C629.912,-103.312 552.705,-89.048 485,-76 483.905,-75.7889 482.795,-75.574 481.675,-75.3563"/>
<polygon fill="midnightblue" stroke="midnightblue" points="481.947,-71.8431 471.46,-73.3505 480.598,-78.7119 481.947,-71.8431"/>
</g>
<!-- Node9 -->
<g id="node9" class="node"><title>Node9</title>
<polygon fill="white" stroke="#bfbfbf" points="456,-0.5 456,-19.5 502,-19.5 502,-0.5 456,-0.5"/>
<text text-anchor="middle" x="479" y="-7.5" font-family="Helvetica,sans-Serif" font-size="10.00">stdio.h</text>
</g>
<!-- Node1&#45;&gt;Node9 -->
<g id="edge8" class="edge"><title>Node1&#45;&gt;Node9</title>
<path fill="none" stroke="midnightblue" d="M685.445,-126.236C634.468,-122.335 567.594,-110.242 519,-76 502.789,-64.5766 491.86,-44.2922 485.579,-29.4129"/>
<polygon fill="midnightblue" stroke="midnightblue" points="488.703,-27.7899 481.818,-19.7378 482.179,-30.3264 488.703,-27.7899"/>
</g>
<!-- Node10 -->
<g id="node10" class="node"><title>Node10</title>
<polygon fill="white" stroke="#bfbfbf" points="600.5,-0.5 600.5,-19.5 649.5,-19.5 649.5,-0.5 600.5,-0.5"/>
<text text-anchor="middle" x="625" y="-7.5" font-family="Helvetica,sans-Serif" font-size="10.00">string.h</text>
</g>
<!-- Node1&#45;&gt;Node10 -->
<g id="edge9" class="edge"><title>Node1&#45;&gt;Node10</title>
<path fill="none" stroke="midnightblue" d="M685.346,-116.724C661.092,-109.449 636.672,-97.0637 622,-76 612.728,-62.6879 614.802,-43.8563 618.411,-29.887"/>
<polygon fill="midnightblue" stroke="midnightblue" points="621.88,-30.5107 621.447,-19.9247 615.184,-28.4702 621.88,-30.5107"/>
</g>
<!-- Node11 -->
<g id="node11" class="node"><title>Node11</title>
<polygon fill="white" stroke="#bfbfbf" points="631,-56.5 631,-75.5 679,-75.5 679,-56.5 631,-56.5"/>
<text text-anchor="middle" x="655" y="-63.5" font-family="Helvetica,sans-Serif" font-size="10.00">stdlib.h</text>
</g>
<!-- Node1&#45;&gt;Node11 -->
<g id="edge10" class="edge"><title>Node1&#45;&gt;Node11</title>
<path fill="none" stroke="midnightblue" d="M735.382,-112.933C718.3,-103.171 695.67,-90.2401 678.775,-80.5856"/>
<polygon fill="midnightblue" stroke="midnightblue" points="680.469,-77.5226 670.05,-75.6 676.996,-83.6003 680.469,-77.5226"/>
</g>
<!-- Node12 -->
<g id="node12" class="node"><title>Node12</title>
<polygon fill="white" stroke="#bfbfbf" points="697,-56.5 697,-75.5 751,-75.5 751,-56.5 697,-56.5"/>
<text text-anchor="middle" x="724" y="-63.5" font-family="Helvetica,sans-Serif" font-size="10.00">iostream</text>
</g>
<!-- Node1&#45;&gt;Node12 -->
<g id="edge11" class="edge"><title>Node1&#45;&gt;Node12</title>
<path fill="none" stroke="midnightblue" d="M751.469,-112.781C746.399,-104.332 739.929,-93.5481 734.542,-84.5693"/>
<polygon fill="midnightblue" stroke="midnightblue" points="737.385,-82.5047 729.238,-75.7305 731.382,-86.1062 737.385,-82.5047"/>
</g>
<!-- Node13 -->
<g id="node13" class="node"><title>Node13</title>
<g id="a_node13"><a xlink:href="strlcpy_8h.xhtml" target="_top" xlink:title="strlcpy.h">
<polygon fill="white" stroke="black" points="769,-56.5 769,-75.5 823,-75.5 823,-56.5 769,-56.5"/>
<text text-anchor="middle" x="796" y="-63.5" font-family="Helvetica,sans-Serif" font-size="10.00">strlcpy.h</text>
</a>
</g>
</g>
<!-- Node1&#45;&gt;Node13 -->
<g id="edge12" class="edge"><title>Node1&#45;&gt;Node13</title>
<path fill="none" stroke="midnightblue" d="M768.531,-112.781C773.601,-104.332 780.071,-93.5481 785.458,-84.5693"/>
<polygon fill="midnightblue" stroke="midnightblue" points="788.618,-86.1062 790.762,-75.7305 782.615,-82.5047 788.618,-86.1062"/>
</g>
<!-- Node14 -->
<g id="node14" class="node"><title>Node14</title>
<g id="a_node14"><a xlink:href="_d_r_s_8h.xhtml" target="_top" xlink:title="DRS.h">
<polygon fill="white" stroke="black" points="527.5,-56.5 527.5,-75.5 574.5,-75.5 574.5,-56.5 527.5,-56.5"/>
<text text-anchor="middle" x="551" y="-63.5" font-family="Helvetica,sans-Serif" font-size="10.00">DRS.h</text>
</a>
</g>
</g>
<!-- Node1&#45;&gt;Node14 -->
<g id="edge13" class="edge"><title>Node1&#45;&gt;Node14</title>
<path fill="none" stroke="midnightblue" d="M710.999,-112.933C672.073,-101.758 618.675,-86.4281 584.499,-76.6168"/>
<polygon fill="midnightblue" stroke="midnightblue" points="585.124,-73.1551 574.547,-73.7598 583.193,-79.8833 585.124,-73.1551"/>
</g>
<!-- Node16 -->
<g id="node16" class="node"><title>Node16</title>
<polygon fill="white" stroke="#bfbfbf" points="841,-56.5 841,-75.5 887,-75.5 887,-56.5 841,-56.5"/>
<text text-anchor="middle" x="864" y="-63.5" font-family="Helvetica,sans-Serif" font-size="10.00">keyb.h</text>
</g>
<!-- Node1&#45;&gt;Node16 -->
<g id="edge17" class="edge"><title>Node1&#45;&gt;Node16</title>
<path fill="none" stroke="midnightblue" d="M784.383,-112.933C801.146,-103.262 823.303,-90.4793 839.985,-80.8546"/>
<polygon fill="midnightblue" stroke="midnightblue" points="842.18,-83.629 849.093,-75.6 838.682,-77.5656 842.18,-83.629"/>
</g>
<!-- Node17 -->
<g id="node17" class="node"><title>Node17</title>
<polygon fill="white" stroke="#bfbfbf" points="905.5,-56.5 905.5,-75.5 946.5,-75.5 946.5,-56.5 905.5,-56.5"/>
<text text-anchor="middle" x="926" y="-63.5" font-family="Helvetica,sans-Serif" font-size="10.00">xml.h</text>
</g>
<!-- Node1&#45;&gt;Node17 -->
<g id="edge18" class="edge"><title>Node1&#45;&gt;Node17</title>
<path fill="none" stroke="midnightblue" d="M798.92,-112.933C828.321,-102.306 868.117,-87.9216 895.293,-78.0988"/>
<polygon fill="midnightblue" stroke="midnightblue" points="896.828,-81.2657 905.043,-74.5748 894.449,-74.6825 896.828,-81.2657"/>
</g>
<!-- Node18 -->
<g id="node18" class="node"><title>Node18</title>
<g id="a_node18"><a xlink:href="_d_a_q_container_8h.xhtml" target="_top" xlink:title="DAQContainer.h">
<polygon fill="white" stroke="black" points="964.5,-56.5 964.5,-75.5 1053.5,-75.5 1053.5,-56.5 964.5,-56.5"/>
<text text-anchor="middle" x="1009" y="-63.5" font-family="Helvetica,sans-Serif" font-size="10.00">DAQContainer.h</text>
</a>
</g>
</g>
<!-- Node1&#45;&gt;Node18 -->
<g id="edge19" class="edge"><title>Node1&#45;&gt;Node18</title>
<path fill="none" stroke="midnightblue" d="M818.379,-112.933C862.772,-102.236 922.964,-87.7317 963.744,-77.905"/>
<polygon fill="midnightblue" stroke="midnightblue" points="964.771,-81.258 973.672,-75.5127 963.131,-74.4527 964.771,-81.258"/>
</g>
<!-- Node20 -->
<g id="node20" class="node"><title>Node20</title>
<polygon fill="white" stroke="#bfbfbf" points="1071.5,-56.5 1071.5,-75.5 1122.5,-75.5 1122.5,-56.5 1071.5,-56.5"/>
<text text-anchor="middle" x="1097" y="-63.5" font-family="Helvetica,sans-Serif" font-size="10.00">TH1D.h</text>
</g>
<!-- Node1&#45;&gt;Node20 -->
<g id="edge21" class="edge"><title>Node1&#45;&gt;Node20</title>
<path fill="none" stroke="midnightblue" d="M834.798,-116.166C893.78,-107.209 978.292,-93.462 1061.56,-75.9363"/>
<polygon fill="midnightblue" stroke="midnightblue" points="1062.39,-79.3384 1071.44,-73.8368 1060.94,-72.4912 1062.39,-79.3384"/>
</g>
<!-- Node21 -->
<g id="node21" class="node"><title>Node21</title>
<polygon fill="white" stroke="#bfbfbf" points="1140.5,-56.5 1140.5,-75.5 1219.5,-75.5 1219.5,-56.5 1140.5,-56.5"/>
<text text-anchor="middle" x="1180" y="-63.5" font-family="Helvetica,sans-Serif" font-size="10.00">TApplication.h</text>
</g>
<!-- Node1&#45;&gt;Node21 -->
<g id="edge22" class="edge"><title>Node1&#45;&gt;Node21</title>
<path fill="none" stroke="midnightblue" d="M834.76,-117.728C907.519,-108.475 1021.46,-93.3803 1130.27,-76.0522"/>
<polygon fill="midnightblue" stroke="midnightblue" points="1131.13,-79.4602 1140.45,-74.423 1130.02,-72.5482 1131.13,-79.4602"/>
</g>
<!-- Node22 -->
<g id="node22" class="node"><title>Node22</title>
<polygon fill="white" stroke="#bfbfbf" points="1237.5,-56.5 1237.5,-75.5 1302.5,-75.5 1302.5,-56.5 1237.5,-56.5"/>
<text text-anchor="middle" x="1270" y="-63.5" font-family="Helvetica,sans-Serif" font-size="10.00">TCanvas.h</text>
</g>
<!-- Node1&#45;&gt;Node22 -->
<g id="edge23" class="edge"><title>Node1&#45;&gt;Node22</title>
<path fill="none" stroke="midnightblue" d="M834.887,-121.222C925.479,-113.698 1082.76,-98.9242 1227.12,-75.9895"/>
<polygon fill="midnightblue" stroke="midnightblue" points="1227.73,-79.4364 1237.05,-74.3957 1226.62,-72.5249 1227.73,-79.4364"/>
</g>
<!-- Node23 -->
<g id="node23" class="node"><title>Node23</title>
<polygon fill="white" stroke="#bfbfbf" points="1320.5,-56.5 1320.5,-75.5 1373.5,-75.5 1373.5,-56.5 1320.5,-56.5"/>
<text text-anchor="middle" x="1347" y="-63.5" font-family="Helvetica,sans-Serif" font-size="10.00">TStyle.h</text>
</g>
<!-- Node1&#45;&gt;Node23 -->
<g id="edge24" class="edge"><title>Node1&#45;&gt;Node23</title>
<path fill="none" stroke="midnightblue" d="M834.887,-123.698C939.349,-118.286 1134.77,-105.237 1310.42,-75.8272"/>
<polygon fill="midnightblue" stroke="midnightblue" points="1311.09,-79.2642 1320.36,-74.1415 1309.92,-72.3627 1311.09,-79.2642"/>
</g>
<!-- Node24 -->
<g id="node24" class="node"><title>Node24</title>
<polygon fill="white" stroke="#bfbfbf" points="1391.5,-56.5 1391.5,-75.5 1438.5,-75.5 1438.5,-56.5 1391.5,-56.5"/>
<text text-anchor="middle" x="1415" y="-63.5" font-family="Helvetica,sans-Serif" font-size="10.00">TFile.h</text>
</g>
<!-- Node1&#45;&gt;Node24 -->
<g id="edge25" class="edge"><title>Node1&#45;&gt;Node24</title>
<path fill="none" stroke="midnightblue" d="M834.768,-125.314C950.254,-121.731 1178.93,-110.741 1381.4,-75.7565"/>
<polygon fill="midnightblue" stroke="midnightblue" points="1382.08,-79.1908 1391.33,-74.0182 1380.87,-72.2957 1382.08,-79.1908"/>
</g>
<!-- Node25 -->
<g id="node25" class="node"><title>Node25</title>
<polygon fill="white" stroke="#bfbfbf" points="1456.5,-56.5 1456.5,-75.5 1511.5,-75.5 1511.5,-56.5 1456.5,-56.5"/>
<text text-anchor="middle" x="1484" y="-63.5" font-family="Helvetica,sans-Serif" font-size="10.00">TLatex.h</text>
</g>
<!-- Node1&#45;&gt;Node25 -->
<g id="edge26" class="edge"><title>Node1&#45;&gt;Node25</title>
<path fill="none" stroke="midnightblue" d="M834.674,-125.472C959.481,-122.038 1218.35,-111.152 1446.08,-75.8666"/>
<polygon fill="midnightblue" stroke="midnightblue" points="1446.88,-79.2842 1456.22,-74.2767 1445.8,-72.3688 1446.88,-79.2842"/>
</g>
<!-- Node26 -->
<g id="node26" class="node"><title>Node26</title>
<polygon fill="white" stroke="#bfbfbf" points="1530,-56.5 1530,-75.5 1580,-75.5 1580,-56.5 1530,-56.5"/>
<text text-anchor="middle" x="1555" y="-63.5" font-family="Helvetica,sans-Serif" font-size="10.00">TTree.h</text>
</g>
<!-- Node1&#45;&gt;Node26 -->
<g id="edge27" class="edge"><title>Node1&#45;&gt;Node26</title>
<path fill="none" stroke="midnightblue" d="M834.681,-126.546C971.482,-124.707 1271.11,-115.999 1520,-76 1520.1,-75.9838 1520.2,-75.9675 1520.3,-75.951"/>
<polygon fill="midnightblue" stroke="midnightblue" points="1520.75,-79.4296 1529.88,-74.0507 1519.39,-72.5634 1520.75,-79.4296"/>
</g>
<!-- Node27 -->
<g id="node27" class="node"><title>Node27</title>
<polygon fill="white" stroke="#bfbfbf" points="1598.5,-56.5 1598.5,-75.5 1657.5,-75.5 1657.5,-56.5 1598.5,-56.5"/>
<text text-anchor="middle" x="1628" y="-63.5" font-family="Helvetica,sans-Serif" font-size="10.00">TROOT.h</text>
</g>
<!-- Node1&#45;&gt;Node27 -->
<g id="edge28" class="edge"><title>Node1&#45;&gt;Node27</title>
<path fill="none" stroke="midnightblue" d="M834.735,-126.53C978.837,-124.726 1305.11,-116.275 1588.23,-75.8422"/>
<polygon fill="midnightblue" stroke="midnightblue" points="1588.89,-79.2839 1598.29,-74.3904 1587.89,-72.3557 1588.89,-79.2839"/>
</g>
<!-- Node14&#45;&gt;Node9 -->
<g id="edge14" class="edge"><title>Node14&#45;&gt;Node9</title>
<path fill="none" stroke="midnightblue" d="M539.432,-56.324C528.58,-48.1849 512.119,-35.8395 499.117,-26.0874"/>
<polygon fill="midnightblue" stroke="midnightblue" points="500.879,-23.0339 490.779,-19.8339 496.679,-28.6339 500.879,-23.0339"/>
</g>
<!-- Node14&#45;&gt;Node10 -->
<g id="edge15" class="edge"><title>Node14&#45;&gt;Node10</title>
<path fill="none" stroke="midnightblue" d="M562.889,-56.324C574.15,-48.1066 591.287,-35.6017 604.709,-25.8069"/>
<polygon fill="midnightblue" stroke="midnightblue" points="606.88,-28.5559 612.894,-19.8339 602.753,-22.9014 606.88,-28.5559"/>
</g>
<!-- Node15 -->
<g id="node15" class="node"><title>Node15</title>
<g id="a_node15"><a xlink:href="averager_8h.xhtml" target="_top" xlink:title="averager.h">
<polygon fill="white" stroke="black" points="520,-0.5 520,-19.5 582,-19.5 582,-0.5 520,-0.5"/>
<text text-anchor="middle" x="551" y="-7.5" font-family="Helvetica,sans-Serif" font-size="10.00">averager.h</text>
</a>
</g>
</g>
<!-- Node14&#45;&gt;Node15 -->
<g id="edge16" class="edge"><title>Node14&#45;&gt;Node15</title>
<path fill="none" stroke="midnightblue" d="M551,-56.083C551,-49.0059 551,-38.8611 551,-29.9865"/>
<polygon fill="midnightblue" stroke="midnightblue" points="554.5,-29.751 551,-19.7511 547.5,-29.7511 554.5,-29.751"/>
</g>
<!-- Node19 -->
<g id="node19" class="node"><title>Node19</title>
<polygon fill="white" stroke="#bfbfbf" points="982.5,-0.5 982.5,-19.5 1035.5,-19.5 1035.5,-0.5 982.5,-0.5"/>
<text text-anchor="middle" x="1009" y="-7.5" font-family="Helvetica,sans-Serif" font-size="10.00">complex</text>
</g>
<!-- Node18&#45;&gt;Node19 -->
<g id="edge20" class="edge"><title>Node18&#45;&gt;Node19</title>
<path fill="none" stroke="midnightblue" d="M1009,-56.083C1009,-49.0059 1009,-38.8611 1009,-29.9865"/>
<polygon fill="midnightblue" stroke="midnightblue" points="1012.5,-29.751 1009,-19.7511 1005.5,-29.7511 1012.5,-29.751"/>
</g>
</g>
</svg>
        <g id="navigator" transform="translate(0 0)" fill="#404254">
                <rect fill="#f2f5e9" fill-opacity="0.5" stroke="#606060" stroke-width=".5" x="0" y="0" width="60" height="60"/>
                <use id="zoomplus" xlink:href="#zoomPlus" x="17" y="9" onmousedown="handleZoom(evt,'in')"/>
                <use id="zoomminus" xlink:href="#zoomMin" x="42" y="9" onmousedown="handleZoom(evt,'out')"/>
                <use id="reset" xlink:href="#resetDef" x="30" y="36" onmousedown="handleReset()"/>
                <g id="arrowUp" xlink:href="#dirArrow" transform="translate(30 24)" onmousedown="handlePan(0,-1)">
                  <use xlink:href="#rim" fill="#404040">
                        <set attributeName="fill" to="#808080" begin="arrowUp.mouseover" end="arrowUp.mouseout"/>
                  </use>
                  <path fill="none" stroke="white" stroke-width="1.5" d="M0,-3.0v7 M-2.5,-0.5L0,-3.0L2.5,-0.5"/>
                </g>
                <g id="arrowRight" xlink:href="#dirArrow" transform="rotate(90) translate(36 -43)" onmousedown="handlePan(1,0)">
                  <use xlink:href="#rim" fill="#404040">
                        <set attributeName="fill" to="#808080" begin="arrowRight.mouseover" end="arrowRight.mouseout"/>
                  </use>
                  <path fill="none" stroke="white" stroke-width="1.5" d="M0,-3.0v7 M-2.5,-0.5L0,-3.0L2.5,-0.5"/>
                </g>
                <g id="arrowDown" xlink:href="#dirArrow" transform="rotate(180) translate(-30 -48)" onmousedown="handlePan(0,1)">
                  <use xlink:href="#rim" fill="#404040">
                        <set attributeName="fill" to="#808080" begin="arrowDown.mouseover" end="arrowDown.mouseout"/>
                  </use>
                  <path fill="none" stroke="white" stroke-width="1.5" d="M0,-3.0v7 M-2.5,-0.5L0,-3.0L2.5,-0.5"/>
                </g>
                <g id="arrowLeft" xlink:href="#dirArrow" transform="rotate(270) translate(-36 17)" onmousedown="handlePan(-1,0)">
                  <use xlink:href="#rim" fill="#404040">
                        <set attributeName="fill" to="#808080" begin="arrowLeft.mouseover" end="arrowLeft.mouseout"/>
                  </use>
                  <path fill="none" stroke="white" stroke-width="1.5" d="M0,-3.0v7 M-2.5,-0.5L0,-3.0L2.5,-0.5"/>
                </g>
        </g>
        <svg viewBox="0 0 15 15" width="100%" height="30px" preserveAspectRatio="xMaxYMin meet">
         <g id="arrow_out" transform="scale(0.3 0.3)">
          <a xlink:href="_z_d_a_q_8cpp__incl_org.svg" target="_base">
           <rect id="button" ry="5" rx="5" y="6" x="6" height="38" width="38"
                fill="#f2f5e9" fill-opacity="0.5" stroke="#606060" stroke-width="1.0"/>
           <path id="arrow"
             d="M 11.500037,31.436501 C 11.940474,20.09759 22.043105,11.32322 32.158766,21.979434 L 37.068811,17.246167 C 37.068811,17.246167 37.088388,32 37.088388,32 L 22.160133,31.978069 C 22.160133,31.978069 26.997745,27.140456 26.997745,27.140456 C 18.528582,18.264221 13.291696,25.230495 11.500037,31.436501 z"
             style="fill:#404040;"/>
          </a>
         </g>
        </svg>
</svg>
