<?xml version="1.0" encoding="UTF-8" standalone="no"?>
<!DOCTYPE svg PUBLIC "-//W3C//DTD SVG 1.1//EN"
 "http://www.w3.org/Graphics/SVG/1.1/DTD/svg11.dtd">
<!-- Generated by graphviz version 2.36.0 (20140111.2315)
 -->
<!-- Title: /data/Software/DAQ/XDAQ/Core/Source/adc.cpp Pages: 1 -->
<svg width="1238pt" height="96pt"
 viewBox="0.00 0.00 1238.00 96.00" xmlns="http://www.w3.org/2000/svg" xmlns:xlink="http://www.w3.org/1999/xlink">
<g id="graph0" class="graph" transform="scale(1 1) rotate(0) translate(4 92)">
<title>/data/Software/DAQ/XDAQ/Core/Source/adc.cpp</title>
<polygon fill="white" stroke="none" points="-4,4 -4,-92 1234,-92 1234,4 -4,4"/>
<!-- Node1 -->
<g id="node1" class="node"><title>Node1</title>
<polygon fill="#bfbfbf" stroke="black" points="499.5,-57 499.5,-87 642.5,-87 642.5,-57 499.5,-57"/>
<text text-anchor="start" x="507.5" y="-75" font-family="Helvetica,sans-Serif" font-size="10.00">/data/Software/DAQ</text>
<text text-anchor="middle" x="571" y="-64" font-family="Helvetica,sans-Serif" font-size="10.00">/XDAQ/Core/Source/adc.cpp</text>
</g>
<!-- Node2 -->
<g id="node2" class="node"><title>Node2</title>
<polygon fill="white" stroke="#bfbfbf" points="0,-0.5 0,-19.5 46,-19.5 46,-0.5 0,-0.5"/>
<text text-anchor="middle" x="23" y="-7.5" font-family="Helvetica,sans-Serif" font-size="10.00">stdio.h</text>
</g>
<!-- Node1&#45;&gt;Node2 -->
<g id="edge1" class="edge"><title>Node1&#45;&gt;Node2</title>
<path fill="none" stroke="midnightblue" d="M499.492,-67.9051C401.416,-62.7802 219.666,-50.1355 56.528,-19.9827"/>
<polygon fill="midnightblue" stroke="midnightblue" points="56.7802,-16.4691 46.3064,-18.0657 55.4898,-23.3491 56.7802,-16.4691"/>
</g>
<!-- Node3 -->
<g id="node3" class="node"><title>Node3</title>
<polygon fill="white" stroke="#bfbfbf" points="64.5,-0.5 64.5,-19.5 113.5,-19.5 113.5,-0.5 64.5,-0.5"/>
<text text-anchor="middle" x="89" y="-7.5" font-family="Helvetica,sans-Serif" font-size="10.00">string.h</text>
</g>
<!-- Node1&#45;&gt;Node3 -->
<g id="edge2" class="edge"><title>Node1&#45;&gt;Node3</title>
<path fill="none" stroke="midnightblue" d="M499.137,-66.056C412.33,-59.3599 261.81,-45.4351 123.708,-19.868"/>
<polygon fill="midnightblue" stroke="midnightblue" points="124.261,-16.4108 113.787,-18.007 122.971,-23.2908 124.261,-16.4108"/>
</g>
<!-- Node4 -->
<g id="node4" class="node"><title>Node4</title>
<polygon fill="white" stroke="#bfbfbf" points="132,-0.5 132,-19.5 180,-19.5 180,-0.5 132,-0.5"/>
<text text-anchor="middle" x="156" y="-7.5" font-family="Helvetica,sans-Serif" font-size="10.00">stdlib.h</text>
</g>
<!-- Node1&#45;&gt;Node4 -->
<g id="edge3" class="edge"><title>Node1&#45;&gt;Node4</title>
<path fill="none" stroke="midnightblue" d="M499.419,-64.3273C424.489,-56.6915 303.327,-42.5106 189.954,-19.9547"/>
<polygon fill="midnightblue" stroke="midnightblue" points="190.556,-16.5059 180.062,-17.9611 189.173,-23.3679 190.556,-16.5059"/>
</g>
<!-- Node5 -->
<g id="node5" class="node"><title>Node5</title>
<polygon fill="white" stroke="#bfbfbf" points="198,-0.5 198,-19.5 242,-19.5 242,-0.5 198,-0.5"/>
<text text-anchor="middle" x="220" y="-7.5" font-family="Helvetica,sans-Serif" font-size="10.00">time.h</text>
</g>
<!-- Node1&#45;&gt;Node5 -->
<g id="edge4" class="edge"><title>Node1&#45;&gt;Node5</title>
<path fill="none" stroke="midnightblue" d="M499.343,-62.1791C436.461,-53.8457 342.435,-39.9517 252.121,-20.0259"/>
<polygon fill="midnightblue" stroke="midnightblue" points="252.788,-16.5886 242.265,-17.8237 251.261,-23.4201 252.788,-16.5886"/>
</g>
<!-- Node6 -->
<g id="node6" class="node"><title>Node6</title>
<polygon fill="white" stroke="#bfbfbf" points="260.5,-0.5 260.5,-19.5 307.5,-19.5 307.5,-0.5 260.5,-0.5"/>
<text text-anchor="middle" x="284" y="-7.5" font-family="Helvetica,sans-Serif" font-size="10.00">math.h</text>
</g>
<!-- Node1&#45;&gt;Node6 -->
<g id="edge5" class="edge"><title>Node1&#45;&gt;Node6</title>
<path fill="none" stroke="midnightblue" d="M499.279,-57.9494C450.639,-48.7856 384.697,-35.7555 317.643,-20.0237"/>
<polygon fill="midnightblue" stroke="midnightblue" points="318.281,-16.578 307.744,-17.6831 316.67,-23.3902 318.281,-16.578"/>
</g>
<!-- Node7 -->
<g id="node7" class="node"><title>Node7</title>
<polygon fill="white" stroke="#bfbfbf" points="326,-0.5 326,-19.5 386,-19.5 386,-0.5 326,-0.5"/>
<text text-anchor="middle" x="356" y="-7.5" font-family="Helvetica,sans-Serif" font-size="10.00">sys/stat.h</text>
</g>
<!-- Node1&#45;&gt;Node7 -->
<g id="edge6" class="edge"><title>Node1&#45;&gt;Node7</title>
<path fill="none" stroke="midnightblue" d="M520.592,-56.9327C482.636,-46.3402 431.302,-32.0146 396.113,-22.1942"/>
<polygon fill="midnightblue" stroke="midnightblue" points="396.765,-18.7426 386.192,-19.4257 394.883,-25.4849 396.765,-18.7426"/>
</g>
<!-- Node8 -->
<g id="node8" class="node"><title>Node8</title>
<polygon fill="white" stroke="#bfbfbf" points="404.5,-0.5 404.5,-19.5 455.5,-19.5 455.5,-0.5 404.5,-0.5"/>
<text text-anchor="middle" x="430" y="-7.5" font-family="Helvetica,sans-Serif" font-size="10.00">unistd.h</text>
</g>
<!-- Node1&#45;&gt;Node8 -->
<g id="edge7" class="edge"><title>Node1&#45;&gt;Node8</title>
<path fill="none" stroke="midnightblue" d="M537.942,-56.9327C514.153,-46.81 482.353,-33.2779 459.438,-23.5267"/>
<polygon fill="midnightblue" stroke="midnightblue" points="460.782,-20.2951 450.21,-19.6 458.041,-26.7362 460.782,-20.2951"/>
</g>
<!-- Node9 -->
<g id="node9" class="node"><title>Node9</title>
<polygon fill="white" stroke="#bfbfbf" points="474,-0.5 474,-19.5 528,-19.5 528,-0.5 474,-0.5"/>
<text text-anchor="middle" x="501" y="-7.5" font-family="Helvetica,sans-Serif" font-size="10.00">iostream</text>
</g>
<!-- Node1&#45;&gt;Node9 -->
<g id="edge8" class="edge"><title>Node1&#45;&gt;Node9</title>
<path fill="none" stroke="midnightblue" d="M554.411,-56.7808C543.715,-47.6127 529.812,-35.6957 518.872,-26.3186"/>
<polygon fill="midnightblue" stroke="midnightblue" points="521.056,-23.5811 511.186,-19.7305 516.5,-28.8959 521.056,-23.5811"/>
</g>
<!-- Node10 -->
<g id="node10" class="node"><title>Node10</title>
<polygon fill="white" stroke="#bfbfbf" points="546,-0.5 546,-19.5 596,-19.5 596,-0.5 546,-0.5"/>
<text text-anchor="middle" x="571" y="-7.5" font-family="Helvetica,sans-Serif" font-size="10.00">global.h</text>
</g>
<!-- Node1&#45;&gt;Node10 -->
<g id="edge9" class="edge"><title>Node1&#45;&gt;Node10</title>
<path fill="none" stroke="midnightblue" d="M571,-56.7808C571,-48.7812 571,-38.6887 571,-30.0168"/>
<polygon fill="midnightblue" stroke="midnightblue" points="574.5,-29.7305 571,-19.7305 567.5,-29.7306 574.5,-29.7305"/>
</g>
<!-- Node11 -->
<g id="node11" class="node"><title>Node11</title>
<polygon fill="white" stroke="#bfbfbf" points="614.5,-0.5 614.5,-19.5 699.5,-19.5 699.5,-0.5 614.5,-0.5"/>
<text text-anchor="middle" x="657" y="-7.5" font-family="Helvetica,sans-Serif" font-size="10.00">CAENVMElib.h</text>
</g>
<!-- Node1&#45;&gt;Node11 -->
<g id="edge10" class="edge"><title>Node1&#45;&gt;Node11</title>
<path fill="none" stroke="midnightblue" d="M591.381,-56.7808C604.99,-47.2862 622.824,-34.8434 636.465,-25.3267"/>
<polygon fill="midnightblue" stroke="midnightblue" points="638.538,-28.148 644.737,-19.5557 634.533,-22.4071 638.538,-28.148"/>
</g>
<!-- Node12 -->
<g id="node12" class="node"><title>Node12</title>
<polygon fill="white" stroke="#bfbfbf" points="718,-0.5 718,-19.5 772,-19.5 772,-0.5 718,-0.5"/>
<text text-anchor="middle" x="745" y="-7.5" font-family="Helvetica,sans-Serif" font-size="10.00">control.h</text>
</g>
<!-- Node1&#45;&gt;Node12 -->
<g id="edge11" class="edge"><title>Node1&#45;&gt;Node12</title>
<path fill="none" stroke="midnightblue" d="M611.795,-56.9327C641.896,-46.553 682.393,-32.5887 710.804,-22.7916"/>
<polygon fill="midnightblue" stroke="midnightblue" points="712,-26.0815 720.313,-19.5127 709.718,-19.4639 712,-26.0815"/>
</g>
<!-- Node13 -->
<g id="node13" class="node"><title>Node13</title>
<polygon fill="white" stroke="#bfbfbf" points="790.5,-0.5 790.5,-19.5 841.5,-19.5 841.5,-0.5 790.5,-0.5"/>
<text text-anchor="middle" x="816" y="-7.5" font-family="Helvetica,sans-Serif" font-size="10.00">TH1D.h</text>
</g>
<!-- Node1&#45;&gt;Node13 -->
<g id="edge12" class="edge"><title>Node1&#45;&gt;Node13</title>
<path fill="none" stroke="midnightblue" d="M629.89,-56.922C669.711,-47.3508 723.744,-34.2646 780.517,-20.0957"/>
<polygon fill="midnightblue" stroke="midnightblue" points="781.543,-23.447 790.396,-17.6262 779.846,-16.656 781.543,-23.447"/>
</g>
<!-- Node14 -->
<g id="node14" class="node"><title>Node14</title>
<polygon fill="white" stroke="#bfbfbf" points="859.5,-0.5 859.5,-19.5 938.5,-19.5 938.5,-0.5 859.5,-0.5"/>
<text text-anchor="middle" x="899" y="-7.5" font-family="Helvetica,sans-Serif" font-size="10.00">TApplication.h</text>
</g>
<!-- Node1&#45;&gt;Node14 -->
<g id="edge13" class="edge"><title>Node1&#45;&gt;Node14</title>
<path fill="none" stroke="midnightblue" d="M642.681,-57.9144C696.616,-48.0642 772.656,-34.1687 849.12,-20.16"/>
<polygon fill="midnightblue" stroke="midnightblue" points="850.215,-23.5178 859.42,-18.2727 848.953,-16.6324 850.215,-23.5178"/>
</g>
<!-- Node15 -->
<g id="node15" class="node"><title>Node15</title>
<polygon fill="white" stroke="#bfbfbf" points="956.5,-0.5 956.5,-19.5 1021.5,-19.5 1021.5,-0.5 956.5,-0.5"/>
<text text-anchor="middle" x="989" y="-7.5" font-family="Helvetica,sans-Serif" font-size="10.00">TCanvas.h</text>
</g>
<!-- Node1&#45;&gt;Node15 -->
<g id="edge14" class="edge"><title>Node1&#45;&gt;Node15</title>
<path fill="none" stroke="midnightblue" d="M642.633,-62.9323C716.249,-54.2677 834.378,-39.3296 946.367,-19.9862"/>
<polygon fill="midnightblue" stroke="midnightblue" points="947.238,-23.3873 956.488,-18.2228 946.036,-16.4912 947.238,-23.3873"/>
</g>
<!-- Node16 -->
<g id="node16" class="node"><title>Node16</title>
<polygon fill="white" stroke="#bfbfbf" points="1039.5,-0.5 1039.5,-19.5 1092.5,-19.5 1092.5,-0.5 1039.5,-0.5"/>
<text text-anchor="middle" x="1066" y="-7.5" font-family="Helvetica,sans-Serif" font-size="10.00">TStyle.h</text>
</g>
<!-- Node1&#45;&gt;Node16 -->
<g id="edge15" class="edge"><title>Node1&#45;&gt;Node16</title>
<path fill="none" stroke="midnightblue" d="M642.589,-66.0399C731.134,-59.236 886.572,-45.1108 1029.11,-19.9191"/>
<polygon fill="midnightblue" stroke="midnightblue" points="1030.12,-23.2936 1039.35,-18.0862 1028.89,-16.4031 1030.12,-23.2936"/>
</g>
<!-- Node17 -->
<g id="node17" class="node"><title>Node17</title>
<polygon fill="white" stroke="#bfbfbf" points="1110.5,-0.5 1110.5,-19.5 1157.5,-19.5 1157.5,-0.5 1110.5,-0.5"/>
<text text-anchor="middle" x="1134" y="-7.5" font-family="Helvetica,sans-Serif" font-size="10.00">TFile.h</text>
</g>
<!-- Node1&#45;&gt;Node17 -->
<g id="edge16" class="edge"><title>Node1&#45;&gt;Node17</title>
<path fill="none" stroke="midnightblue" d="M642.686,-67.9785C743.055,-62.8896 931.165,-50.2252 1100.24,-19.8159"/>
<polygon fill="midnightblue" stroke="midnightblue" points="1101.11,-23.2149 1110.32,-17.9774 1099.85,-16.3285 1101.11,-23.2149"/>
</g>
<!-- Node18 -->
<g id="node18" class="node"><title>Node18</title>
<polygon fill="white" stroke="#bfbfbf" points="1175.5,-0.5 1175.5,-19.5 1230.5,-19.5 1230.5,-0.5 1175.5,-0.5"/>
<text text-anchor="middle" x="1203" y="-7.5" font-family="Helvetica,sans-Serif" font-size="10.00">TLatex.h</text>
</g>
<!-- Node1&#45;&gt;Node18 -->
<g id="edge17" class="edge"><title>Node1&#45;&gt;Node18</title>
<path fill="none" stroke="midnightblue" d="M642.876,-68.3918C753.248,-63.6031 971.147,-51.0515 1165.12,-19.8848"/>
<polygon fill="midnightblue" stroke="midnightblue" points="1165.91,-23.3028 1175.21,-18.2421 1164.78,-16.3936 1165.91,-23.3028"/>
</g>
</g>
</svg>
