<?xml version="1.0" encoding="UTF-8" standalone="no"?>
<!DOCTYPE svg PUBLIC "-//W3C//DTD SVG 1.1//EN"
 "http://www.w3.org/Graphics/SVG/1.1/DTD/svg11.dtd">
<!-- Generated by graphviz version 2.36.0 (20140111.2315)
 -->
<!-- Title: adc_writereg Pages: 1 -->
<svg width="384pt" height="282pt"
 viewBox="0.00 0.00 384.00 281.68" xmlns="http://www.w3.org/2000/svg" xmlns:xlink="http://www.w3.org/1999/xlink">
<g id="graph0" class="graph" transform="scale(1 1) rotate(0) translate(4 277.679)">
<title>adc_writereg</title>
<polygon fill="white" stroke="none" points="-4,4 -4,-277.679 380,-277.679 380,4 -4,4"/>
<!-- Node1 -->
<g id="node1" class="node"><title>Node1</title>
<polygon fill="#bfbfbf" stroke="black" points="0,-133.5 0,-152.5 72,-152.5 72,-133.5 0,-133.5"/>
<text text-anchor="middle" x="36" y="-140.5" font-family="Helvetica,sans-Serif" font-size="10.00">adc_writereg</text>
</g>
<!-- Node2 -->
<g id="node2" class="node"><title>Node2</title>
<g id="a_node2"><a xlink:href="_g_u_i_2_include_2adc_8h.xhtml#a99fcc8dfc3bb71a3cd06f7e6968c12c3" target="_top" xlink:title="adc_analyzebaseline">
<polygon fill="white" stroke="black" points="268.5,-228.5 268.5,-247.5 375.5,-247.5 375.5,-228.5 268.5,-228.5"/>
<text text-anchor="middle" x="322" y="-235.5" font-family="Helvetica,sans-Serif" font-size="10.00">adc_analyzebaseline</text>
</a>
</g>
</g>
<!-- Node1&#45;&gt;Node2 -->
<g id="edge1" class="edge"><title>Node1&#45;&gt;Node2</title>
<path fill="none" stroke="midnightblue" d="M42.5893,-162.5C51.469,-189.386 71.6304,-236.805 108,-257 170.157,-291.514 258.51,-263.76 299.087,-247.584"/>
<polygon fill="midnightblue" stroke="midnightblue" points="45.8502,-161.198 39.5486,-152.681 39.1635,-163.269 45.8502,-161.198"/>
</g>
<!-- Node3 -->
<g id="node3" class="node"><title>Node3</title>
<g id="a_node3"><a xlink:href="_g_u_i_2_include_2adc_8h.xhtml#a8e0f9bdd9b130dd38116dfaba6e94795" target="_top" xlink:title="adc_disable">
<polygon fill="white" stroke="black" points="136,-228.5 136,-247.5 204,-247.5 204,-228.5 136,-228.5"/>
<text text-anchor="middle" x="170" y="-235.5" font-family="Helvetica,sans-Serif" font-size="10.00">adc_disable</text>
</a>
</g>
</g>
<!-- Node1&#45;&gt;Node3 -->
<g id="edge2" class="edge"><title>Node1&#45;&gt;Node3</title>
<path fill="none" stroke="midnightblue" d="M49.3249,-160.811C62.1202,-178.035 83.6489,-203.71 108,-219 116.454,-224.308 126.504,-228.233 135.982,-231.09"/>
<polygon fill="midnightblue" stroke="midnightblue" points="52.1471,-158.741 43.4612,-152.674 46.4681,-162.833 52.1471,-158.741"/>
</g>
<!-- Node4 -->
<g id="node4" class="node"><title>Node4</title>
<g id="a_node4"><a xlink:href="_g_u_i_2_include_2adc_8h.xhtml#a25f6f40f42d10a2ecc7b970155d9eb53" target="_top" xlink:title="adc_getbaseline">
<polygon fill="white" stroke="black" points="278.5,-190.5 278.5,-209.5 365.5,-209.5 365.5,-190.5 278.5,-190.5"/>
<text text-anchor="middle" x="322" y="-197.5" font-family="Helvetica,sans-Serif" font-size="10.00">adc_getbaseline</text>
</a>
</g>
</g>
<!-- Node1&#45;&gt;Node4 -->
<g id="edge8" class="edge"><title>Node1&#45;&gt;Node4</title>
<path fill="none" stroke="midnightblue" d="M82.1332,-151.558C121.685,-159.115 180.705,-170.528 232,-181 247.171,-184.097 263.769,-187.608 278.478,-190.761"/>
<polygon fill="midnightblue" stroke="midnightblue" points="82.7437,-148.112 72.2649,-149.676 81.4319,-154.988 82.7437,-148.112"/>
</g>
<!-- Node5 -->
<g id="node5" class="node"><title>Node5</title>
<g id="a_node5"><a xlink:href="_g_u_i_2_include_2adc_8h.xhtml#a94f95e39919b3b5969d4231bf5103079" target="_top" xlink:title="adc_enable">
<polygon fill="white" stroke="black" points="137,-190.5 137,-209.5 203,-209.5 203,-190.5 137,-190.5"/>
<text text-anchor="middle" x="170" y="-197.5" font-family="Helvetica,sans-Serif" font-size="10.00">adc_enable</text>
</a>
</g>
</g>
<!-- Node1&#45;&gt;Node5 -->
<g id="edge5" class="edge"><title>Node1&#45;&gt;Node5</title>
<path fill="none" stroke="midnightblue" d="M65.9901,-156.955C78.7884,-162.991 94.0621,-170.025 108,-176 119.611,-180.977 132.621,-186.15 143.634,-190.413"/>
<polygon fill="midnightblue" stroke="midnightblue" points="67.2835,-153.695 56.7488,-152.568 64.2816,-160.019 67.2835,-153.695"/>
</g>
<!-- Node6 -->
<g id="node6" class="node"><title>Node6</title>
<g id="a_node6"><a xlink:href="_g_u_i_2_include_2control_8h.xhtml#af7203d6482025349821e2764d08e103c" target="_top" xlink:title="control_configbaseline">
<polygon fill="white" stroke="black" points="113.5,-114.5 113.5,-133.5 226.5,-133.5 226.5,-114.5 113.5,-114.5"/>
<text text-anchor="middle" x="170" y="-121.5" font-family="Helvetica,sans-Serif" font-size="10.00">control_configbaseline</text>
</a>
</g>
</g>
<!-- Node1&#45;&gt;Node6 -->
<g id="edge9" class="edge"><title>Node1&#45;&gt;Node6</title>
<path fill="none" stroke="midnightblue" d="M82.1818,-136.497C92.2177,-135.052 102.969,-133.504 113.368,-132.008"/>
<polygon fill="midnightblue" stroke="midnightblue" points="81.4263,-133.069 72.027,-137.958 82.4237,-139.998 81.4263,-133.069"/>
</g>
<!-- Node7 -->
<g id="node7" class="node"><title>Node7</title>
<g id="a_node7"><a xlink:href="_g_u_i_2_include_2control_8h.xhtml#aeab8b16e95a01d21a60fdf5490f781d2" target="_top" xlink:title="control_configfile">
<polygon fill="white" stroke="black" points="125,-76.5 125,-95.5 215,-95.5 215,-76.5 125,-76.5"/>
<text text-anchor="middle" x="170" y="-83.5" font-family="Helvetica,sans-Serif" font-size="10.00">control_configfile</text>
</a>
</g>
</g>
<!-- Node1&#45;&gt;Node7 -->
<g id="edge10" class="edge"><title>Node1&#45;&gt;Node7</title>
<path fill="none" stroke="midnightblue" d="M61.9606,-128.14C75.3191,-120.575 92.2276,-111.607 108,-105 116.389,-101.486 125.663,-98.2735 134.393,-95.5303"/>
<polygon fill="midnightblue" stroke="midnightblue" points="59.8439,-125.32 52.928,-133.346 63.3397,-131.385 59.8439,-125.32"/>
</g>
<!-- Node8 -->
<g id="node8" class="node"><title>Node8</title>
<g id="a_node8"><a xlink:href="class_a_d_c_manager.xhtml#a8900454c77298be0c3c81d61c92604a4" target="_top" xlink:title="ADCManager::GetBuffer">
<polygon fill="white" stroke="black" points="108,-38.5 108,-57.5 232,-57.5 232,-38.5 108,-38.5"/>
<text text-anchor="middle" x="170" y="-45.5" font-family="Helvetica,sans-Serif" font-size="10.00">ADCManager::GetBuffer</text>
</a>
</g>
</g>
<!-- Node1&#45;&gt;Node8 -->
<g id="edge11" class="edge"><title>Node1&#45;&gt;Node8</title>
<path fill="none" stroke="midnightblue" d="M49.3249,-125.189C62.1202,-107.965 83.6489,-82.2898 108,-67 114.106,-63.1661 121.044,-60.0542 127.998,-57.5448"/>
<polygon fill="midnightblue" stroke="midnightblue" points="46.4681,-123.167 43.4612,-133.326 52.1471,-127.259 46.4681,-123.167"/>
</g>
<!-- Node10 -->
<g id="node10" class="node"><title>Node10</title>
<g id="a_node10"><a xlink:href="_x_d_a_q_2_core_2_source_2xml_8cpp.xhtml#a529bbf1c65c6dd055ba0620b7e7000ed" target="_top" xlink:title="xml_readsettings">
<polygon fill="white" stroke="black" points="124.5,-0.5 124.5,-19.5 215.5,-19.5 215.5,-0.5 124.5,-0.5"/>
<text text-anchor="middle" x="170" y="-7.5" font-family="Helvetica,sans-Serif" font-size="10.00">xml_readsettings</text>
</a>
</g>
</g>
<!-- Node1&#45;&gt;Node10 -->
<g id="edge13" class="edge"><title>Node1&#45;&gt;Node10</title>
<path fill="none" stroke="midnightblue" d="M43.9756,-123.856C54.1766,-98.5015 75.5507,-54.0731 108,-29 113.003,-25.1342 118.802,-22.048 124.795,-19.5858"/>
<polygon fill="midnightblue" stroke="midnightblue" points="40.6116,-122.853 40.2882,-133.443 47.145,-125.366 40.6116,-122.853"/>
</g>
<!-- Node3&#45;&gt;Node2 -->
<g id="edge3" class="edge"><title>Node3&#45;&gt;Node2</title>
<path fill="none" stroke="midnightblue" d="M214.407,-238C231.261,-238 250.718,-238 268.359,-238"/>
<polygon fill="midnightblue" stroke="midnightblue" points="214.29,-234.5 204.29,-238 214.29,-241.5 214.29,-234.5"/>
</g>
<!-- Node3&#45;&gt;Node4 -->
<g id="edge4" class="edge"><title>Node3&#45;&gt;Node4</title>
<path fill="none" stroke="midnightblue" d="M213.994,-227.108C235.877,-221.564 262.235,-214.887 283.315,-209.547"/>
<polygon fill="midnightblue" stroke="midnightblue" points="213.124,-223.718 204.29,-229.567 214.843,-230.504 213.124,-223.718"/>
</g>
<!-- Node5&#45;&gt;Node2 -->
<g id="edge6" class="edge"><title>Node5&#45;&gt;Node2</title>
<path fill="none" stroke="midnightblue" d="M212.952,-210.628C235.035,-216.222 261.896,-223.027 283.311,-228.452"/>
<polygon fill="midnightblue" stroke="midnightblue" points="213.732,-207.215 203.179,-208.152 212.013,-214.001 213.732,-207.215"/>
</g>
<!-- Node5&#45;&gt;Node4 -->
<g id="edge7" class="edge"><title>Node5&#45;&gt;Node4</title>
<path fill="none" stroke="midnightblue" d="M213.399,-200C233.713,-200 257.988,-200 278.337,-200"/>
<polygon fill="midnightblue" stroke="midnightblue" points="213.179,-196.5 203.179,-200 213.179,-203.5 213.179,-196.5"/>
</g>
<!-- Node9 -->
<g id="node9" class="node"><title>Node9</title>
<g id="a_node9"><a xlink:href="_multi_d_a_q_8cpp.xhtml#adedb285b02c41bde2158ded9cc9fd7ac" target="_top" xlink:title="main">
<polygon fill="white" stroke="black" points="303,-38.5 303,-57.5 341,-57.5 341,-38.5 303,-38.5"/>
<text text-anchor="middle" x="322" y="-45.5" font-family="Helvetica,sans-Serif" font-size="10.00">main</text>
</a>
</g>
</g>
<!-- Node8&#45;&gt;Node9 -->
<g id="edge12" class="edge"><title>Node8&#45;&gt;Node9</title>
<path fill="none" stroke="midnightblue" d="M242.248,-48C264.659,-48 287.519,-48 302.794,-48"/>
<polygon fill="midnightblue" stroke="midnightblue" points="242.011,-44.5001 232.011,-48 242.011,-51.5001 242.011,-44.5001"/>
</g>
</g>
</svg>
