<?xml version="1.0" encoding="UTF-8" standalone="no"?>
<!DOCTYPE svg PUBLIC "-//W3C//DTD SVG 1.1//EN"
 "http://www.w3.org/Graphics/SVG/1.1/DTD/svg11.dtd">
<!-- Generated by graphviz version 2.36.0 (20140111.2315)
 -->
<!-- Title: adc_readreg Pages: 1 -->
<svg width="382pt" height="180pt"
 viewBox="0.00 0.00 382.00 180.00" xmlns="http://www.w3.org/2000/svg" xmlns:xlink="http://www.w3.org/1999/xlink">
<g id="graph0" class="graph" transform="scale(1 1) rotate(0) translate(4 176)">
<title>adc_readreg</title>
<polygon fill="white" stroke="none" points="-4,4 -4,-176 378,-176 378,4 -4,4"/>
<!-- Node1 -->
<g id="node1" class="node"><title>Node1</title>
<polygon fill="#bfbfbf" stroke="black" points="0,-76.5 0,-95.5 70,-95.5 70,-76.5 0,-76.5"/>
<text text-anchor="middle" x="35" y="-83.5" font-family="Helvetica,sans-Serif" font-size="10.00">adc_readreg</text>
</g>
<!-- Node2 -->
<g id="node2" class="node"><title>Node2</title>
<g id="a_node2"><a xlink:href="_g_u_i_2_include_2adc_8h.xhtml#a8e0f9bdd9b130dd38116dfaba6e94795" target="_top" xlink:title="adc_disable">
<polygon fill="white" stroke="black" points="134,-114.5 134,-133.5 202,-133.5 202,-114.5 134,-114.5"/>
<text text-anchor="middle" x="168" y="-121.5" font-family="Helvetica,sans-Serif" font-size="10.00">adc_disable</text>
</a>
</g>
</g>
<!-- Node1&#45;&gt;Node2 -->
<g id="edge1" class="edge"><title>Node1&#45;&gt;Node2</title>
<path fill="none" stroke="midnightblue" d="M78.7148,-98.3906C96.6547,-103.594 117.2,-109.554 133.954,-114.414"/>
<polygon fill="midnightblue" stroke="midnightblue" points="79.636,-95.0136 69.0568,-95.589 77.6858,-101.736 79.636,-95.0136"/>
</g>
<!-- Node4 -->
<g id="node4" class="node"><title>Node4</title>
<g id="a_node4"><a xlink:href="_g_u_i_2_include_2adc_8h.xhtml#a25f6f40f42d10a2ecc7b970155d9eb53" target="_top" xlink:title="adc_getbaseline">
<polygon fill="white" stroke="black" points="276.5,-114.5 276.5,-133.5 363.5,-133.5 363.5,-114.5 276.5,-114.5"/>
<text text-anchor="middle" x="320" y="-121.5" font-family="Helvetica,sans-Serif" font-size="10.00">adc_getbaseline</text>
</a>
</g>
</g>
<!-- Node1&#45;&gt;Node4 -->
<g id="edge7" class="edge"><title>Node1&#45;&gt;Node4</title>
<path fill="none" stroke="midnightblue" d="M80.2178,-88.9048C119.655,-91.8341 178.888,-97.0671 230,-105 246.081,-107.496 263.629,-111.059 278.861,-114.427"/>
<polygon fill="midnightblue" stroke="midnightblue" points="80.3663,-85.4064 70.1394,-88.1744 79.8602,-92.3881 80.3663,-85.4064"/>
</g>
<!-- Node5 -->
<g id="node5" class="node"><title>Node5</title>
<g id="a_node5"><a xlink:href="_g_u_i_2_include_2adc_8h.xhtml#a94f95e39919b3b5969d4231bf5103079" target="_top" xlink:title="adc_enable">
<polygon fill="white" stroke="black" points="135,-152.5 135,-171.5 201,-171.5 201,-152.5 135,-152.5"/>
<text text-anchor="middle" x="168" y="-159.5" font-family="Helvetica,sans-Serif" font-size="10.00">adc_enable</text>
</a>
</g>
</g>
<!-- Node1&#45;&gt;Node5 -->
<g id="edge4" class="edge"><title>Node1&#45;&gt;Node5</title>
<path fill="none" stroke="midnightblue" d="M53.0277,-103.03C66.4275,-115.603 86.1031,-132.319 106,-143 114.893,-147.774 125.172,-151.555 134.727,-154.445"/>
<polygon fill="midnightblue" stroke="midnightblue" points="55.1804,-100.244 45.5497,-95.8281 50.3245,-105.286 55.1804,-100.244"/>
</g>
<!-- Node6 -->
<g id="node6" class="node"><title>Node6</title>
<g id="a_node6"><a xlink:href="_g_u_i_2_include_2adc_8h.xhtml#ad4af88f42a1f3b3bc615ab5543f614a3" target="_top" xlink:title="adc_init">
<polygon fill="white" stroke="black" points="143,-38.5 143,-57.5 193,-57.5 193,-38.5 143,-38.5"/>
<text text-anchor="middle" x="168" y="-45.5" font-family="Helvetica,sans-Serif" font-size="10.00">adc_init</text>
</a>
</g>
</g>
<!-- Node1&#45;&gt;Node6 -->
<g id="edge8" class="edge"><title>Node1&#45;&gt;Node6</title>
<path fill="none" stroke="midnightblue" d="M78.8004,-73.5846C99.9676,-67.4445 124.744,-60.2575 142.638,-55.0668"/>
<polygon fill="midnightblue" stroke="midnightblue" points="77.6858,-70.2636 69.0568,-76.411 79.636,-76.9864 77.6858,-70.2636"/>
</g>
<!-- Node7 -->
<g id="node7" class="node"><title>Node7</title>
<g id="a_node7"><a xlink:href="class_a_d_c_manager.xhtml#a8900454c77298be0c3c81d61c92604a4" target="_top" xlink:title="ADCManager::GetBuffer">
<polygon fill="white" stroke="black" points="106,-0.5 106,-19.5 230,-19.5 230,-0.5 106,-0.5"/>
<text text-anchor="middle" x="168" y="-7.5" font-family="Helvetica,sans-Serif" font-size="10.00">ADCManager::GetBuffer</text>
</a>
</g>
</g>
<!-- Node1&#45;&gt;Node7 -->
<g id="edge9" class="edge"><title>Node1&#45;&gt;Node7</title>
<path fill="none" stroke="midnightblue" d="M53.0277,-68.9698C66.4275,-56.3968 86.1031,-39.6812 106,-29 112.939,-25.2751 120.721,-22.1549 128.345,-19.5904"/>
<polygon fill="midnightblue" stroke="midnightblue" points="50.3245,-66.714 45.5497,-76.1719 55.1804,-71.7559 50.3245,-66.714"/>
</g>
<!-- Node3 -->
<g id="node3" class="node"><title>Node3</title>
<g id="a_node3"><a xlink:href="_g_u_i_2_include_2adc_8h.xhtml#a99fcc8dfc3bb71a3cd06f7e6968c12c3" target="_top" xlink:title="adc_analyzebaseline">
<polygon fill="white" stroke="black" points="266.5,-152.5 266.5,-171.5 373.5,-171.5 373.5,-152.5 266.5,-152.5"/>
<text text-anchor="middle" x="320" y="-159.5" font-family="Helvetica,sans-Serif" font-size="10.00">adc_analyzebaseline</text>
</a>
</g>
</g>
<!-- Node2&#45;&gt;Node3 -->
<g id="edge2" class="edge"><title>Node2&#45;&gt;Node3</title>
<path fill="none" stroke="midnightblue" d="M211.994,-134.892C233.877,-140.436 260.235,-147.113 281.315,-152.453"/>
<polygon fill="midnightblue" stroke="midnightblue" points="212.843,-131.496 202.29,-132.433 211.124,-138.282 212.843,-131.496"/>
</g>
<!-- Node2&#45;&gt;Node4 -->
<g id="edge3" class="edge"><title>Node2&#45;&gt;Node4</title>
<path fill="none" stroke="midnightblue" d="M212.431,-124C232.547,-124 256.369,-124 276.383,-124"/>
<polygon fill="midnightblue" stroke="midnightblue" points="212.29,-120.5 202.29,-124 212.29,-127.5 212.29,-120.5"/>
</g>
<!-- Node5&#45;&gt;Node3 -->
<g id="edge5" class="edge"><title>Node5&#45;&gt;Node3</title>
<path fill="none" stroke="midnightblue" d="M211.388,-162C228.43,-162 248.262,-162 266.224,-162"/>
<polygon fill="midnightblue" stroke="midnightblue" points="211.179,-158.5 201.179,-162 211.179,-165.5 211.179,-158.5"/>
</g>
<!-- Node5&#45;&gt;Node4 -->
<g id="edge6" class="edge"><title>Node5&#45;&gt;Node4</title>
<path fill="none" stroke="midnightblue" d="M210.952,-151.372C233.035,-145.778 259.896,-138.973 281.311,-133.548"/>
<polygon fill="midnightblue" stroke="midnightblue" points="210.013,-147.999 201.179,-153.848 211.732,-154.785 210.013,-147.999"/>
</g>
<!-- Node8 -->
<g id="node8" class="node"><title>Node8</title>
<g id="a_node8"><a xlink:href="_multi_d_a_q_8cpp.xhtml#adedb285b02c41bde2158ded9cc9fd7ac" target="_top" xlink:title="main">
<polygon fill="white" stroke="black" points="301,-0.5 301,-19.5 339,-19.5 339,-0.5 301,-0.5"/>
<text text-anchor="middle" x="320" y="-7.5" font-family="Helvetica,sans-Serif" font-size="10.00">main</text>
</a>
</g>
</g>
<!-- Node7&#45;&gt;Node8 -->
<g id="edge10" class="edge"><title>Node7&#45;&gt;Node8</title>
<path fill="none" stroke="midnightblue" d="M240.248,-10C262.659,-10 285.519,-10 300.794,-10"/>
<polygon fill="midnightblue" stroke="midnightblue" points="240.011,-6.5001 230.011,-10 240.011,-13.5001 240.011,-6.5001"/>
</g>
</g>
</svg>
