<?xml version="1.0" encoding="UTF-8" standalone="no"?>
<!DOCTYPE svg PUBLIC "-//W3C//DTD SVG 1.1//EN"
 "http://www.w3.org/Graphics/SVG/1.1/DTD/svg11.dtd">
<!-- Generated by graphviz version 2.36.0 (20140111.2315)
 -->
<!-- Title: adc_getbaseline Pages: 1 -->
<svg width="440pt" height="266pt"
 viewBox="0.00 0.00 440.00 266.07" xmlns="http://www.w3.org/2000/svg" xmlns:xlink="http://www.w3.org/1999/xlink">
<g id="graph0" class="graph" transform="scale(1 1) rotate(0) translate(4 262.067)">
<title>adc_getbaseline</title>
<polygon fill="white" stroke="none" points="-4,4 -4,-262.067 436,-262.067 436,4 -4,4"/>
<!-- Node1 -->
<g id="node1" class="node"><title>Node1</title>
<polygon fill="#bfbfbf" stroke="black" points="0.5,-133.5 0.5,-152.5 87.5,-152.5 87.5,-133.5 0.5,-133.5"/>
<text text-anchor="middle" x="44" y="-140.5" font-family="Helvetica,sans-Serif" font-size="10.00">adc_getbaseline</text>
</g>
<!-- Node2 -->
<g id="node2" class="node"><title>Node2</title>
<g id="a_node2"><a xlink:href="adc_8cpp.xhtml#a8e0f9bdd9b130dd38116dfaba6e94795" target="_top" xlink:title="adc_disable">
<polygon fill="white" stroke="black" points="144,-190.5 144,-209.5 212,-209.5 212,-190.5 144,-190.5"/>
<text text-anchor="middle" x="178" y="-197.5" font-family="Helvetica,sans-Serif" font-size="10.00">adc_disable</text>
</a>
</g>
</g>
<!-- Node1&#45;&gt;Node2 -->
<g id="edge1" class="edge"><title>Node1&#45;&gt;Node2</title>
<path fill="none" stroke="midnightblue" d="M63.5846,-152.617C79.4372,-160.656 102.94,-172.188 124,-181 128.836,-183.023 133.971,-185.033 139.068,-186.945"/>
<polygon fill="midnightblue" stroke="midnightblue" points="138.141,-190.333 148.735,-190.482 140.546,-183.759 138.141,-190.333"/>
</g>
<!-- Node3 -->
<g id="node3" class="node"><title>Node3</title>
<g id="a_node3"><a xlink:href="adc_8cpp.xhtml#a3e167d474fe419a8fe9a69bd27388ccc" target="_top" xlink:title="adc_readreg">
<polygon fill="white" stroke="black" points="269,-190.5 269,-209.5 339,-209.5 339,-190.5 269,-190.5"/>
<text text-anchor="middle" x="304" y="-197.5" font-family="Helvetica,sans-Serif" font-size="10.00">adc_readreg</text>
</a>
</g>
</g>
<!-- Node1&#45;&gt;Node3 -->
<g id="edge12" class="edge"><title>Node1&#45;&gt;Node3</title>
<path fill="none" stroke="midnightblue" d="M51.1718,-152.583C62.9026,-169.795 90.2836,-205.415 124,-219 171.692,-238.216 232.019,-224.884 269.04,-212.903"/>
<polygon fill="midnightblue" stroke="midnightblue" points="270.484,-216.109 278.834,-209.588 268.24,-209.479 270.484,-216.109"/>
</g>
<!-- Node4 -->
<g id="node4" class="node"><title>Node4</title>
<g id="a_node4"><a xlink:href="_core_2_include_2control_8h.xhtml#a48a6baefa46edb93b59bb0f76385052a" target="_top" xlink:title="errormsg">
<polygon fill="white" stroke="black" points="376.5,-171.5 376.5,-190.5 431.5,-190.5 431.5,-171.5 376.5,-171.5"/>
<text text-anchor="middle" x="404" y="-178.5" font-family="Helvetica,sans-Serif" font-size="10.00">errormsg</text>
</a>
</g>
</g>
<!-- Node1&#45;&gt;Node4 -->
<g id="edge16" class="edge"><title>Node1&#45;&gt;Node4</title>
<path fill="none" stroke="midnightblue" d="M49.436,-152.544C59.4048,-172.693 85.7392,-219.177 124,-237 211.323,-277.678 249.639,-252.389 340,-219 354.894,-213.496 370.179,-204.377 381.963,-196.452"/>
<polygon fill="midnightblue" stroke="midnightblue" points="384.016,-199.287 390.227,-190.704 380.019,-193.54 384.016,-199.287"/>
</g>
<!-- Node5 -->
<g id="node5" class="node"><title>Node5</title>
<g id="a_node5"><a xlink:href="adc_8cpp.xhtml#ab2c5b38244f3ea85067f83b5d94409f7" target="_top" xlink:title="adc_writereg">
<polygon fill="white" stroke="black" points="268,-152.5 268,-171.5 340,-171.5 340,-152.5 268,-152.5"/>
<text text-anchor="middle" x="304" y="-159.5" font-family="Helvetica,sans-Serif" font-size="10.00">adc_writereg</text>
</a>
</g>
</g>
<!-- Node1&#45;&gt;Node5 -->
<g id="edge13" class="edge"><title>Node1&#45;&gt;Node5</title>
<path fill="none" stroke="midnightblue" d="M87.5389,-139.855C125.576,-137.789 182.752,-136.524 232,-143 242.738,-144.412 254.16,-146.976 264.632,-149.773"/>
<polygon fill="midnightblue" stroke="midnightblue" points="263.754,-153.162 274.328,-152.497 265.647,-146.423 263.754,-153.162"/>
</g>
<!-- Node6 -->
<g id="node6" class="node"><title>Node6</title>
<g id="a_node6"><a xlink:href="adc_8cpp.xhtml#a94f95e39919b3b5969d4231bf5103079" target="_top" xlink:title="adc_enable">
<polygon fill="white" stroke="black" points="145,-152.5 145,-171.5 211,-171.5 211,-152.5 145,-152.5"/>
<text text-anchor="middle" x="178" y="-159.5" font-family="Helvetica,sans-Serif" font-size="10.00">adc_enable</text>
</a>
</g>
</g>
<!-- Node1&#45;&gt;Node6 -->
<g id="edge6" class="edge"><title>Node1&#45;&gt;Node6</title>
<path fill="none" stroke="midnightblue" d="M87.8566,-149.169C102.903,-151.335 119.787,-153.765 134.781,-155.923"/>
<polygon fill="midnightblue" stroke="midnightblue" points="134.417,-159.407 144.813,-157.367 135.414,-152.478 134.417,-159.407"/>
</g>
<!-- Node7 -->
<g id="node7" class="node"><title>Node7</title>
<g id="a_node7"><a xlink:href="adc_8cpp.xhtml#aa357272f6eac8b5f8104ea1237f2e65c" target="_top" xlink:title="adc_mblt">
<polygon fill="white" stroke="black" points="150,-76.5 150,-95.5 206,-95.5 206,-76.5 150,-76.5"/>
<text text-anchor="middle" x="178" y="-83.5" font-family="Helvetica,sans-Serif" font-size="10.00">adc_mblt</text>
</a>
</g>
</g>
<!-- Node1&#45;&gt;Node7 -->
<g id="edge9" class="edge"><title>Node1&#45;&gt;Node7</title>
<path fill="none" stroke="midnightblue" d="M67.0938,-133.459C88.5097,-124.212 121.213,-110.09 145.382,-99.6532"/>
<polygon fill="midnightblue" stroke="midnightblue" points="147.041,-102.749 154.834,-95.5716 144.266,-96.3228 147.041,-102.749"/>
</g>
<!-- Node8 -->
<g id="node8" class="node"><title>Node8</title>
<g id="a_node8"><a xlink:href="_core_2_include_2control_8h.xhtml#a3a545ba21c1d05570512e20917c021cf" target="_top" xlink:title="col">
<polygon fill="white" stroke="black" points="289.5,-47.5 289.5,-66.5 318.5,-66.5 318.5,-47.5 289.5,-47.5"/>
<text text-anchor="middle" x="304" y="-54.5" font-family="Helvetica,sans-Serif" font-size="10.00">col</text>
</a>
</g>
</g>
<!-- Node1&#45;&gt;Node8 -->
<g id="edge14" class="edge"><title>Node1&#45;&gt;Node8</title>
<path fill="none" stroke="midnightblue" d="M51.4351,-133.33C63.3906,-116.312 90.8502,-81.4445 124,-67 175.494,-44.5621 243.343,-48.7901 278.896,-53.2381"/>
<polygon fill="midnightblue" stroke="midnightblue" points="278.861,-56.7659 289.243,-54.6565 279.811,-49.8308 278.861,-56.7659"/>
</g>
<!-- Node9 -->
<g id="node9" class="node"><title>Node9</title>
<g id="a_node9"><a xlink:href="_core_2_include_2control_8h.xhtml#a03b1d46384ed092ca3bc35eeb9c47e02" target="_top" xlink:title="control_gettimestring">
<polygon fill="white" stroke="black" points="124.5,-0.5 124.5,-19.5 231.5,-19.5 231.5,-0.5 124.5,-0.5"/>
<text text-anchor="middle" x="178" y="-7.5" font-family="Helvetica,sans-Serif" font-size="10.00">control_gettimestring</text>
</a>
</g>
</g>
<!-- Node1&#45;&gt;Node9 -->
<g id="edge15" class="edge"><title>Node1&#45;&gt;Node9</title>
<path fill="none" stroke="midnightblue" d="M49.8068,-133.255C60.4958,-112.461 88.1469,-63.2562 124,-34 128.663,-30.1953 134.025,-26.8617 139.51,-23.9859"/>
<polygon fill="midnightblue" stroke="midnightblue" points="141.235,-27.0409 148.754,-19.576 138.221,-20.7231 141.235,-27.0409"/>
</g>
<!-- Node2&#45;&gt;Node3 -->
<g id="edge2" class="edge"><title>Node2&#45;&gt;Node3</title>
<path fill="none" stroke="midnightblue" d="M212.23,-200C226.452,-200 243.269,-200 258.54,-200"/>
<polygon fill="midnightblue" stroke="midnightblue" points="258.814,-203.5 268.814,-200 258.814,-196.5 258.814,-203.5"/>
</g>
<!-- Node2&#45;&gt;Node5 -->
<g id="edge4" class="edge"><title>Node2&#45;&gt;Node5</title>
<path fill="none" stroke="midnightblue" d="M210.29,-190.411C226.004,-185.596 245.238,-179.701 262.106,-174.532"/>
<polygon fill="midnightblue" stroke="midnightblue" points="263.184,-177.862 271.72,-171.586 261.133,-171.17 263.184,-177.862"/>
</g>
<!-- Node3&#45;&gt;Node4 -->
<g id="edge3" class="edge"><title>Node3&#45;&gt;Node4</title>
<path fill="none" stroke="midnightblue" d="M339.001,-193.408C347.918,-191.679 357.568,-189.808 366.605,-188.056"/>
<polygon fill="midnightblue" stroke="midnightblue" points="367.324,-191.482 376.475,-186.143 365.991,-184.61 367.324,-191.482"/>
</g>
<!-- Node5&#45;&gt;Node4 -->
<g id="edge5" class="edge"><title>Node5&#45;&gt;Node4</title>
<path fill="none" stroke="midnightblue" d="M340.103,-168.806C348.709,-170.474 357.938,-172.263 366.603,-173.943"/>
<polygon fill="midnightblue" stroke="midnightblue" points="365.961,-177.384 376.444,-175.851 367.293,-170.512 365.961,-177.384"/>
</g>
<!-- Node6&#45;&gt;Node3 -->
<g id="edge7" class="edge"><title>Node6&#45;&gt;Node3</title>
<path fill="none" stroke="midnightblue" d="M210.29,-171.589C226.004,-176.404 245.238,-182.299 262.106,-187.468"/>
<polygon fill="midnightblue" stroke="midnightblue" points="261.133,-190.83 271.72,-190.414 263.184,-184.138 261.133,-190.83"/>
</g>
<!-- Node6&#45;&gt;Node5 -->
<g id="edge8" class="edge"><title>Node6&#45;&gt;Node5</title>
<path fill="none" stroke="midnightblue" d="M211.256,-162C225.365,-162 242.169,-162 257.515,-162"/>
<polygon fill="midnightblue" stroke="midnightblue" points="257.857,-165.5 267.856,-162 257.856,-158.5 257.857,-165.5"/>
</g>
<!-- Node7&#45;&gt;Node4 -->
<g id="edge10" class="edge"><title>Node7&#45;&gt;Node4</title>
<path fill="none" stroke="midnightblue" d="M206.159,-93.7696C238.712,-103.499 294.56,-121.524 340,-143 353.851,-149.546 368.551,-158.299 380.266,-165.755"/>
<polygon fill="midnightblue" stroke="midnightblue" points="378.653,-168.881 388.947,-171.389 382.464,-163.009 378.653,-168.881"/>
</g>
<!-- Node7&#45;&gt;Node8 -->
<g id="edge11" class="edge"><title>Node7&#45;&gt;Node8</title>
<path fill="none" stroke="midnightblue" d="M206.212,-79.6358C228.068,-74.5245 258.45,-67.4189 279.313,-62.5397"/>
<polygon fill="midnightblue" stroke="midnightblue" points="280.32,-65.8988 289.26,-60.2134 278.725,-59.0827 280.32,-65.8988"/>
</g>
</g>
</svg>
