<?xml version="1.0" encoding="UTF-8" standalone="no"?>
<!DOCTYPE svg PUBLIC "-//W3C//DTD SVG 1.1//EN"
 "http://www.w3.org/Graphics/SVG/1.1/DTD/svg11.dtd">
<!-- Generated by graphviz version 2.36.0 (20140111.2315)
 -->
<!-- Title: compar Pages: 1 -->
<svg width="582pt" height="115pt"
 viewBox="0.00 0.00 582.00 115.00" xmlns="http://www.w3.org/2000/svg" xmlns:xlink="http://www.w3.org/1999/xlink">
<g id="graph0" class="graph" transform="scale(1 1) rotate(0) translate(4 111)">
<title>compar</title>
<polygon fill="white" stroke="none" points="-4,4 -4,-111 578,-111 578,4 -4,4"/>
<!-- Node1 -->
<g id="node1" class="node"><title>Node1</title>
<polygon fill="#bfbfbf" stroke="black" points="0.5,-19.5 0.5,-38.5 49.5,-38.5 49.5,-19.5 0.5,-19.5"/>
<text text-anchor="middle" x="25" y="-26.5" font-family="Helvetica,sans-Serif" font-size="10.00">compar</text>
</g>
<!-- Node2 -->
<g id="node2" class="node"><title>Node2</title>
<g id="a_node2"><a xlink:href="class_averager.xhtml#a762a787a827f2a2591019abde244f053" target="_top" xlink:title="Averager::Median">
<polygon fill="white" stroke="black" points="86.5,-38.5 86.5,-57.5 179.5,-57.5 179.5,-38.5 86.5,-38.5"/>
<text text-anchor="middle" x="133" y="-45.5" font-family="Helvetica,sans-Serif" font-size="10.00">Averager::Median</text>
</a>
</g>
</g>
<!-- Node1&#45;&gt;Node2 -->
<g id="edge1" class="edge"><title>Node1&#45;&gt;Node2</title>
<path fill="none" stroke="midnightblue" d="M59.4739,-35C68.0089,-36.5299 77.3293,-38.2005 86.3591,-39.8191"/>
<polygon fill="midnightblue" stroke="midnightblue" points="59.9855,-31.536 49.5248,-33.2167 58.7504,-38.4262 59.9855,-31.536"/>
</g>
<!-- Node7 -->
<g id="node7" class="node"><title>Node7</title>
<g id="a_node7"><a xlink:href="class_averager.xhtml#ac5cb7d2e7eaf4ae7aa3eacff6f9b8401" target="_top" xlink:title="Averager::Reset">
<polygon fill="white" stroke="black" points="89,-0.5 89,-19.5 177,-19.5 177,-0.5 89,-0.5"/>
<text text-anchor="middle" x="133" y="-7.5" font-family="Helvetica,sans-Serif" font-size="10.00">Averager::Reset</text>
</a>
</g>
</g>
<!-- Node1&#45;&gt;Node7 -->
<g id="edge8" class="edge"><title>Node1&#45;&gt;Node7</title>
<path fill="none" stroke="midnightblue" d="M59.5751,-22.9818C68.8925,-21.3117 79.1395,-19.475 88.9192,-17.722"/>
<polygon fill="midnightblue" stroke="midnightblue" points="58.7504,-19.5738 49.5248,-24.7833 59.9855,-26.464 58.7504,-19.5738"/>
</g>
<!-- Node3 -->
<g id="node3" class="node"><title>Node3</title>
<g id="a_node3"><a xlink:href="class_averager.xhtml#a9dc816c41ccae2bb908061c8a0eff363" target="_top" xlink:title="Averager::RobustAverage">
<polygon fill="white" stroke="black" points="218.5,-38.5 218.5,-57.5 347.5,-57.5 347.5,-38.5 218.5,-38.5"/>
<text text-anchor="middle" x="283" y="-45.5" font-family="Helvetica,sans-Serif" font-size="10.00">Averager::RobustAverage</text>
</a>
</g>
</g>
<!-- Node2&#45;&gt;Node3 -->
<g id="edge2" class="edge"><title>Node2&#45;&gt;Node3</title>
<path fill="none" stroke="midnightblue" d="M189.885,-48C199.166,-48 208.852,-48 218.309,-48"/>
<polygon fill="midnightblue" stroke="midnightblue" points="189.613,-44.5001 179.613,-48 189.612,-51.5001 189.613,-44.5001"/>
</g>
<!-- Node5 -->
<g id="node5" class="node"><title>Node5</title>
<g id="a_node5"><a xlink:href="class_d_r_s_board.xhtml#a8bab7dfd4d23b8721274dbad343fe980" target="_top" xlink:title="DRSBoard::AnalyzeSlope">
<polygon fill="white" stroke="black" points="415,-10.5 415,-29.5 545,-29.5 545,-10.5 415,-10.5"/>
<text text-anchor="middle" x="480" y="-17.5" font-family="Helvetica,sans-Serif" font-size="10.00">DRSBoard::AnalyzeSlope</text>
</a>
</g>
</g>
<!-- Node2&#45;&gt;Node5 -->
<g id="edge7" class="edge"><title>Node2&#45;&gt;Node5</title>
<path fill="none" stroke="midnightblue" d="M178.332,-36.0794C190.459,-33.2711 203.662,-30.6249 216,-29 283.49,-20.1114 361.511,-18.5209 414.942,-18.7441"/>
<polygon fill="midnightblue" stroke="midnightblue" points="177.345,-32.7168 168.441,-38.4576 178.982,-39.5229 177.345,-32.7168"/>
</g>
<!-- Node6 -->
<g id="node6" class="node"><title>Node6</title>
<g id="a_node6"><a xlink:href="class_averager.xhtml#a4cafa76ff8897c99b8647d93cc35eb03" target="_top" xlink:title="Averager::SaveNormalized\lDistribution">
<polygon fill="white" stroke="black" points="216,-77 216,-107 350,-107 350,-77 216,-77"/>
<text text-anchor="start" x="224" y="-95" font-family="Helvetica,sans-Serif" font-size="10.00">Averager::SaveNormalized</text>
<text text-anchor="middle" x="283" y="-84" font-family="Helvetica,sans-Serif" font-size="10.00">Distribution</text>
</a>
</g>
</g>
<!-- Node2&#45;&gt;Node6 -->
<g id="edge5" class="edge"><title>Node2&#45;&gt;Node6</title>
<path fill="none" stroke="midnightblue" d="M175.895,-60.4553C193.137,-65.5813 213.264,-71.5649 231.326,-76.9346"/>
<polygon fill="midnightblue" stroke="midnightblue" points="176.697,-57.0422 166.114,-57.5473 174.702,-63.752 176.697,-57.0422"/>
</g>
<!-- Node4 -->
<g id="node4" class="node"><title>Node4</title>
<g id="a_node4"><a xlink:href="class_d_r_s_board.xhtml#a6e16736c059a10a958a692aefc5dda48" target="_top" xlink:title="DRSBoard::RobustAverageWaveforms">
<polygon fill="white" stroke="black" points="386,-57.5 386,-76.5 574,-76.5 574,-57.5 386,-57.5"/>
<text text-anchor="middle" x="480" y="-64.5" font-family="Helvetica,sans-Serif" font-size="10.00">DRSBoard::RobustAverageWaveforms</text>
</a>
</g>
</g>
<!-- Node3&#45;&gt;Node4 -->
<g id="edge3" class="edge"><title>Node3&#45;&gt;Node4</title>
<path fill="none" stroke="midnightblue" d="M357.773,-55.1881C366.929,-56.0803 376.382,-57.0013 385.782,-57.9173"/>
<polygon fill="midnightblue" stroke="midnightblue" points="357.873,-51.6814 347.58,-54.195 357.194,-58.6484 357.873,-51.6814"/>
</g>
<!-- Node3&#45;&gt;Node5 -->
<g id="edge4" class="edge"><title>Node3&#45;&gt;Node5</title>
<path fill="none" stroke="midnightblue" d="M357.593,-37.4328C376.424,-34.7288 396.524,-31.8428 414.838,-29.2129"/>
<polygon fill="midnightblue" stroke="midnightblue" points="356.981,-33.9846 347.58,-38.8705 357.976,-40.9136 356.981,-33.9846"/>
</g>
<!-- Node6&#45;&gt;Node4 -->
<g id="edge6" class="edge"><title>Node6&#45;&gt;Node4</title>
<path fill="none" stroke="midnightblue" d="M360.044,-82.2508C374.708,-80.3708 390.053,-78.4035 404.662,-76.5306"/>
<polygon fill="midnightblue" stroke="midnightblue" points="359.492,-78.7928 350.018,-83.5361 360.382,-85.736 359.492,-78.7928"/>
</g>
</g>
</svg>
