<?xml version="1.0" encoding="UTF-8" standalone="no"?>
<!DOCTYPE svg PUBLIC "-//W3C//DTD SVG 1.1//EN"
 "http://www.w3.org/Graphics/SVG/1.1/DTD/svg11.dtd">
<!-- Generated by graphviz version 2.36.0 (20140111.2315)
 -->
<!-- Title: /data/Software/DAQ/PDAQ/Core/Source/averager.cpp Pages: 1 -->
<svg width="403pt" height="96pt"
 viewBox="0.00 0.00 403.00 96.00" xmlns="http://www.w3.org/2000/svg" xmlns:xlink="http://www.w3.org/1999/xlink">
<g id="graph0" class="graph" transform="scale(1 1) rotate(0) translate(4 92)">
<title>/data/Software/DAQ/PDAQ/Core/Source/averager.cpp</title>
<polygon fill="white" stroke="none" points="-4,4 -4,-92 399,-92 399,4 -4,4"/>
<!-- Node1 -->
<g id="node1" class="node"><title>Node1</title>
<polygon fill="#bfbfbf" stroke="black" points="105.5,-57 105.5,-87 270.5,-87 270.5,-57 105.5,-57"/>
<text text-anchor="start" x="113.5" y="-75" font-family="Helvetica,sans-Serif" font-size="10.00">/data/Software/DAQ</text>
<text text-anchor="middle" x="188" y="-64" font-family="Helvetica,sans-Serif" font-size="10.00">/PDAQ/Core/Source/averager.cpp</text>
</g>
<!-- Node2 -->
<g id="node2" class="node"><title>Node2</title>
<polygon fill="white" stroke="#bfbfbf" points="0,-0.5 0,-19.5 46,-19.5 46,-0.5 0,-0.5"/>
<text text-anchor="middle" x="23" y="-7.5" font-family="Helvetica,sans-Serif" font-size="10.00">stdio.h</text>
</g>
<!-- Node1&#45;&gt;Node2 -->
<g id="edge1" class="edge"><title>Node1&#45;&gt;Node2</title>
<path fill="none" stroke="midnightblue" d="M149.315,-56.9327C120.936,-46.613 82.8122,-32.7499 55.8947,-22.9617"/>
<polygon fill="midnightblue" stroke="midnightblue" points="56.7647,-19.5539 46.1707,-19.4257 54.3725,-26.1325 56.7647,-19.5539"/>
</g>
<!-- Node3 -->
<g id="node3" class="node"><title>Node3</title>
<polygon fill="white" stroke="#bfbfbf" points="64,-0.5 64,-19.5 112,-19.5 112,-0.5 64,-0.5"/>
<text text-anchor="middle" x="88" y="-7.5" font-family="Helvetica,sans-Serif" font-size="10.00">stdlib.h</text>
</g>
<!-- Node1&#45;&gt;Node3 -->
<g id="edge2" class="edge"><title>Node1&#45;&gt;Node3</title>
<path fill="none" stroke="midnightblue" d="M164.554,-56.9327C148.436,-47.2619 127.132,-34.4793 111.091,-24.8546"/>
<polygon fill="midnightblue" stroke="midnightblue" points="112.709,-21.7438 102.333,-19.6 109.108,-27.7463 112.709,-21.7438"/>
</g>
<!-- Node4 -->
<g id="node4" class="node"><title>Node4</title>
<polygon fill="white" stroke="#bfbfbf" points="130.5,-0.5 130.5,-19.5 179.5,-19.5 179.5,-0.5 130.5,-0.5"/>
<text text-anchor="middle" x="155" y="-7.5" font-family="Helvetica,sans-Serif" font-size="10.00">string.h</text>
</g>
<!-- Node1&#45;&gt;Node4 -->
<g id="edge3" class="edge"><title>Node1&#45;&gt;Node4</title>
<path fill="none" stroke="midnightblue" d="M180.179,-56.7808C175.532,-48.3318 169.601,-37.5481 164.663,-28.5693"/>
<polygon fill="midnightblue" stroke="midnightblue" points="167.688,-26.806 159.802,-19.7305 161.554,-30.1794 167.688,-26.806"/>
</g>
<!-- Node5 -->
<g id="node5" class="node"><title>Node5</title>
<polygon fill="white" stroke="#bfbfbf" points="197.5,-0.5 197.5,-19.5 244.5,-19.5 244.5,-0.5 197.5,-0.5"/>
<text text-anchor="middle" x="221" y="-7.5" font-family="Helvetica,sans-Serif" font-size="10.00">math.h</text>
</g>
<!-- Node1&#45;&gt;Node5 -->
<g id="edge4" class="edge"><title>Node1&#45;&gt;Node5</title>
<path fill="none" stroke="midnightblue" d="M195.821,-56.7808C200.468,-48.3318 206.399,-37.5481 211.337,-28.5693"/>
<polygon fill="midnightblue" stroke="midnightblue" points="214.446,-30.1794 216.198,-19.7305 208.312,-26.806 214.446,-30.1794"/>
</g>
<!-- Node6 -->
<g id="node6" class="node"><title>Node6</title>
<polygon fill="white" stroke="#bfbfbf" points="263,-0.5 263,-19.5 315,-19.5 315,-0.5 263,-0.5"/>
<text text-anchor="middle" x="289" y="-7.5" font-family="Helvetica,sans-Serif" font-size="10.00">assert.h</text>
</g>
<!-- Node1&#45;&gt;Node6 -->
<g id="edge5" class="edge"><title>Node1&#45;&gt;Node6</title>
<path fill="none" stroke="midnightblue" d="M211.68,-56.9327C227.959,-47.2619 249.477,-34.4793 265.678,-24.8546"/>
<polygon fill="midnightblue" stroke="midnightblue" points="267.713,-27.7165 274.523,-19.6 264.138,-21.6983 267.713,-27.7165"/>
</g>
<!-- Node7 -->
<g id="node7" class="node"><title>Node7</title>
<g id="a_node7"><a xlink:href="averager_8h.xhtml" target="_top" xlink:title="averager.h">
<polygon fill="white" stroke="black" points="333,-0.5 333,-19.5 395,-19.5 395,-0.5 333,-0.5"/>
<text text-anchor="middle" x="364" y="-7.5" font-family="Helvetica,sans-Serif" font-size="10.00">averager.h</text>
</a>
</g>
</g>
<!-- Node1&#45;&gt;Node7 -->
<g id="edge6" class="edge"><title>Node1&#45;&gt;Node7</title>
<path fill="none" stroke="midnightblue" d="M229.264,-56.9327C259.711,-46.553 300.673,-32.5887 329.411,-22.7916"/>
<polygon fill="midnightblue" stroke="midnightblue" points="330.694,-26.0523 339.029,-19.5127 328.435,-19.4267 330.694,-26.0523"/>
</g>
</g>
</svg>
