<?xml version="1.0" encoding="UTF-8" standalone="no"?>
<!DOCTYPE svg PUBLIC "-//W3C//DTD SVG 1.1//EN"
 "http://www.w3.org/Graphics/SVG/1.1/DTD/svg11.dtd">
<!-- Generated by graphviz version 2.36.0 (20140111.2315)
 -->
<!-- Title: /data/Software/DAQ/PDAQ/Core/Include/averager.h Pages: 1 -->
<svg width="639pt" height="176pt"
 viewBox="0.00 0.00 639.00 176.00" xmlns="http://www.w3.org/2000/svg" xmlns:xlink="http://www.w3.org/1999/xlink">
<g id="graph0" class="graph" transform="scale(1 1) rotate(0) translate(4 172)">
<title>/data/Software/DAQ/PDAQ/Core/Include/averager.h</title>
<polygon fill="white" stroke="none" points="-4,4 -4,-172 635,-172 635,4 -4,4"/>
<!-- Node1 -->
<g id="node1" class="node"><title>Node1</title>
<polygon fill="#bfbfbf" stroke="black" points="319.5,-137 319.5,-167 474.5,-167 474.5,-137 319.5,-137"/>
<text text-anchor="start" x="327.5" y="-155" font-family="Helvetica,sans-Serif" font-size="10.00">/data/Software/DAQ</text>
<text text-anchor="middle" x="397" y="-144" font-family="Helvetica,sans-Serif" font-size="10.00">/PDAQ/Core/Include/averager.h</text>
</g>
<!-- Node2 -->
<g id="node2" class="node"><title>Node2</title>
<g id="a_node2"><a xlink:href="_d_r_s_8h.xhtml" target="_top" xlink:title="/data/Software/DAQ\l/PDAQ/Core/Include/DRS.h">
<polygon fill="white" stroke="black" points="242,-69 242,-99 382,-99 382,-69 242,-69"/>
<text text-anchor="start" x="250" y="-87" font-family="Helvetica,sans-Serif" font-size="10.00">/data/Software/DAQ</text>
<text text-anchor="middle" x="312" y="-76" font-family="Helvetica,sans-Serif" font-size="10.00">/PDAQ/Core/Include/DRS.h</text>
</a>
</g>
</g>
<!-- Node1&#45;&gt;Node2 -->
<g id="edge1" class="edge"><title>Node1&#45;&gt;Node2</title>
<path fill="none" stroke="midnightblue" d="M370.353,-130.309C357.259,-120.143 341.822,-108.156 330.116,-99.0663"/>
<polygon fill="midnightblue" stroke="midnightblue" points="368.511,-133.31 378.556,-136.679 372.804,-127.781 368.511,-133.31"/>
</g>
<!-- Node7 -->
<g id="node7" class="node"><title>Node7</title>
<g id="a_node7"><a xlink:href="averager_8cpp.xhtml" target="_top" xlink:title="/data/Software/DAQ\l/PDAQ/Core/Source/averager.cpp">
<polygon fill="white" stroke="black" points="400.5,-69 400.5,-99 565.5,-99 565.5,-69 400.5,-69"/>
<text text-anchor="start" x="408.5" y="-87" font-family="Helvetica,sans-Serif" font-size="10.00">/data/Software/DAQ</text>
<text text-anchor="middle" x="483" y="-76" font-family="Helvetica,sans-Serif" font-size="10.00">/PDAQ/Core/Source/averager.cpp</text>
</a>
</g>
</g>
<!-- Node1&#45;&gt;Node7 -->
<g id="edge6" class="edge"><title>Node1&#45;&gt;Node7</title>
<path fill="none" stroke="midnightblue" d="M423.96,-130.309C437.208,-120.143 452.827,-108.156 464.671,-99.0663"/>
<polygon fill="midnightblue" stroke="midnightblue" points="421.463,-127.814 415.661,-136.679 425.725,-133.367 421.463,-127.814"/>
</g>
<!-- Node3 -->
<g id="node3" class="node"><title>Node3</title>
<g id="a_node3"><a xlink:href="test_8cpp.xhtml" target="_top" xlink:title="/data/Software/DAQ\l/PDAQ/Application/test.cpp">
<polygon fill="white" stroke="black" points="-0.5,-1 -0.5,-31 136.5,-31 136.5,-1 -0.5,-1"/>
<text text-anchor="start" x="7.5" y="-19" font-family="Helvetica,sans-Serif" font-size="10.00">/data/Software/DAQ</text>
<text text-anchor="middle" x="68" y="-8" font-family="Helvetica,sans-Serif" font-size="10.00">/PDAQ/Application/test.cpp</text>
</a>
</g>
</g>
<!-- Node2&#45;&gt;Node3 -->
<g id="edge2" class="edge"><title>Node2&#45;&gt;Node3</title>
<path fill="none" stroke="midnightblue" d="M250.253,-66.298C210.011,-55.4127 158.089,-41.3684 119.965,-31.0561"/>
<polygon fill="midnightblue" stroke="midnightblue" points="249.388,-69.6897 259.955,-68.9223 251.216,-62.9326 249.388,-69.6897"/>
</g>
<!-- Node4 -->
<g id="node4" class="node"><title>Node4</title>
<g id="a_node4"><a xlink:href="_z_d_a_q_8cpp.xhtml" target="_top" xlink:title="/data/Software/DAQ\l/PDAQ/Application/ZDAQ.cpp">
<polygon fill="white" stroke="black" points="154.5,-1 154.5,-31 303.5,-31 303.5,-1 154.5,-1"/>
<text text-anchor="start" x="162.5" y="-19" font-family="Helvetica,sans-Serif" font-size="10.00">/data/Software/DAQ</text>
<text text-anchor="middle" x="229" y="-8" font-family="Helvetica,sans-Serif" font-size="10.00">/PDAQ/Application/ZDAQ.cpp</text>
</a>
</g>
</g>
<!-- Node2&#45;&gt;Node4 -->
<g id="edge3" class="edge"><title>Node2&#45;&gt;Node4</title>
<path fill="none" stroke="midnightblue" d="M285.98,-62.3094C273.194,-52.1426 258.121,-40.1562 246.689,-31.0663"/>
<polygon fill="midnightblue" stroke="midnightblue" points="283.985,-65.1945 293.99,-68.679 288.342,-59.7155 283.985,-65.1945"/>
</g>
<!-- Node5 -->
<g id="node5" class="node"><title>Node5</title>
<g id="a_node5"><a xlink:href="_d_r_s_8cpp.xhtml" target="_top" xlink:title="/data/Software/DAQ\l/PDAQ/Core/Source/DRS.cpp">
<polygon fill="white" stroke="black" points="321.5,-1 321.5,-31 470.5,-31 470.5,-1 321.5,-1"/>
<text text-anchor="start" x="329.5" y="-19" font-family="Helvetica,sans-Serif" font-size="10.00">/data/Software/DAQ</text>
<text text-anchor="middle" x="396" y="-8" font-family="Helvetica,sans-Serif" font-size="10.00">/PDAQ/Core/Source/DRS.cpp</text>
</a>
</g>
</g>
<!-- Node2&#45;&gt;Node5 -->
<g id="edge4" class="edge"><title>Node2&#45;&gt;Node5</title>
<path fill="none" stroke="midnightblue" d="M338.333,-62.3094C351.273,-52.1426 366.528,-40.1562 378.097,-31.0663"/>
<polygon fill="midnightblue" stroke="midnightblue" points="335.928,-59.7486 330.227,-68.679 340.252,-65.2529 335.928,-59.7486"/>
</g>
<!-- Node6 -->
<g id="node6" class="node"><title>Node6</title>
<g id="a_node6"><a xlink:href="_p_d_a_q_2_core_2_source_2xml_8cpp.xhtml" target="_top" xlink:title="/data/Software/DAQ\l/PDAQ/Core/Source/xml.cpp">
<polygon fill="white" stroke="black" points="488.5,-1 488.5,-31 631.5,-31 631.5,-1 488.5,-1"/>
<text text-anchor="start" x="496.5" y="-19" font-family="Helvetica,sans-Serif" font-size="10.00">/data/Software/DAQ</text>
<text text-anchor="middle" x="560" y="-8" font-family="Helvetica,sans-Serif" font-size="10.00">/PDAQ/Core/Source/xml.cpp</text>
</a>
</g>
</g>
<!-- Node2&#45;&gt;Node6 -->
<g id="edge5" class="edge"><title>Node2&#45;&gt;Node6</title>
<path fill="none" stroke="midnightblue" d="M374.759,-66.298C415.661,-55.4127 468.434,-41.3684 507.183,-31.0561"/>
<polygon fill="midnightblue" stroke="midnightblue" points="373.662,-62.9682 364.898,-68.9223 375.462,-69.7327 373.662,-62.9682"/>
</g>
</g>
</svg>
