<?xml version="1.0" encoding="UTF-8" standalone="no"?>
<!DOCTYPE svg PUBLIC "-//W3C//DTD SVG 1.1//EN"
 "http://www.w3.org/Graphics/SVG/1.1/DTD/svg11.dtd">
<!-- Generated by graphviz version 2.36.0 (20140111.2315)
 -->
<!-- Title: ResponseCalibration::CalibrationData::PreCalculateBSpline Pages: 1 -->
<svg width="334pt" height="48pt"
 viewBox="0.00 0.00 334.00 48.00" xmlns="http://www.w3.org/2000/svg" xmlns:xlink="http://www.w3.org/1999/xlink">
<g id="graph0" class="graph" transform="scale(1 1) rotate(0) translate(4 44)">
<title>ResponseCalibration::CalibrationData::PreCalculateBSpline</title>
<polygon fill="white" stroke="none" points="-4,4 -4,-44 330,-44 330,4 -4,4"/>
<!-- Node1 -->
<g id="node1" class="node"><title>Node1</title>
<polygon fill="#bfbfbf" stroke="black" points="0,0.5 0,-40.5 152,-40.5 152,0.5 0,0.5"/>
<text text-anchor="start" x="8" y="-28.5" font-family="Helvetica,sans-Serif" font-size="10.00">ResponseCalibration</text>
<text text-anchor="start" x="8" y="-17.5" font-family="Helvetica,sans-Serif" font-size="10.00">::CalibrationData::PreCalculate</text>
<text text-anchor="middle" x="76" y="-6.5" font-family="Helvetica,sans-Serif" font-size="10.00">BSpline</text>
</g>
<!-- Node2 -->
<g id="node2" class="node"><title>Node2</title>
<g id="a_node2"><a xlink:href="class_response_calibration_1_1_calibration_data.xhtml#a6914ff75f9e540a8a68e3c100edcd339" target="_top" xlink:title="ResponseCalibration\l::CalibrationData::Calculate\lBSpline">
<polygon fill="white" stroke="black" points="188.5,0.5 188.5,-40.5 325.5,-40.5 325.5,0.5 188.5,0.5"/>
<text text-anchor="start" x="196.5" y="-28.5" font-family="Helvetica,sans-Serif" font-size="10.00">ResponseCalibration</text>
<text text-anchor="start" x="196.5" y="-17.5" font-family="Helvetica,sans-Serif" font-size="10.00">::CalibrationData::Calculate</text>
<text text-anchor="middle" x="257" y="-6.5" font-family="Helvetica,sans-Serif" font-size="10.00">BSpline</text>
</a>
</g>
</g>
<!-- Node1&#45;&gt;Node2 -->
<g id="edge1" class="edge"><title>Node1&#45;&gt;Node2</title>
<path fill="none" stroke="midnightblue" d="M152.134,-20C160.799,-20 169.648,-20 178.345,-20"/>
<polygon fill="midnightblue" stroke="midnightblue" points="178.464,-23.5001 188.464,-20 178.464,-16.5001 178.464,-23.5001"/>
</g>
</g>
</svg>
