<?xml version="1.0" encoding="UTF-8" standalone="no"?>
<!DOCTYPE svg PUBLIC "-//W3C//DTD SVG 1.1//EN"
 "http://www.w3.org/Graphics/SVG/1.1/DTD/svg11.dtd">
<!-- Generated by graphviz version 2.36.0 (20140111.2315)
 -->
<!-- Title: Averager::SaveNormalizedDistribution Pages: 1 -->
<svg width="358pt" height="38pt"
 viewBox="0.00 0.00 358.00 38.00" xmlns="http://www.w3.org/2000/svg" xmlns:xlink="http://www.w3.org/1999/xlink">
<g id="graph0" class="graph" transform="scale(1 1) rotate(0) translate(4 34)">
<title>Averager::SaveNormalizedDistribution</title>
<polygon fill="white" stroke="none" points="-4,4 -4,-34 354,-34 354,4 -4,4"/>
<!-- Node1 -->
<g id="node1" class="node"><title>Node1</title>
<polygon fill="#bfbfbf" stroke="black" points="0,-0 0,-30 134,-30 134,-0 0,-0"/>
<text text-anchor="start" x="8" y="-18" font-family="Helvetica,sans-Serif" font-size="10.00">Averager::SaveNormalized</text>
<text text-anchor="middle" x="67" y="-7" font-family="Helvetica,sans-Serif" font-size="10.00">Distribution</text>
</g>
<!-- Node2 -->
<g id="node2" class="node"><title>Node2</title>
<g id="a_node2"><a xlink:href="class_averager.xhtml#a762a787a827f2a2591019abde244f053" target="_top" xlink:title="Averager::Median">
<polygon fill="white" stroke="black" points="170.5,-5.5 170.5,-24.5 263.5,-24.5 263.5,-5.5 170.5,-5.5"/>
<text text-anchor="middle" x="217" y="-12.5" font-family="Helvetica,sans-Serif" font-size="10.00">Averager::Median</text>
</a>
</g>
</g>
<!-- Node1&#45;&gt;Node2 -->
<g id="edge1" class="edge"><title>Node1&#45;&gt;Node2</title>
<path fill="none" stroke="midnightblue" d="M134.208,-15C142.853,-15 151.642,-15 160.095,-15"/>
<polygon fill="midnightblue" stroke="midnightblue" points="160.208,-18.5001 170.208,-15 160.208,-11.5001 160.208,-18.5001"/>
</g>
<!-- Node3 -->
<g id="node3" class="node"><title>Node3</title>
<g id="a_node3"><a xlink:href="averager_8cpp.xhtml#a0175038e9fbcee94d51ca2ac939109a6" target="_top" xlink:title="compar">
<polygon fill="white" stroke="black" points="300.5,-5.5 300.5,-24.5 349.5,-24.5 349.5,-5.5 300.5,-5.5"/>
<text text-anchor="middle" x="325" y="-12.5" font-family="Helvetica,sans-Serif" font-size="10.00">compar</text>
</a>
</g>
</g>
<!-- Node2&#45;&gt;Node3 -->
<g id="edge2" class="edge"><title>Node2&#45;&gt;Node3</title>
<path fill="none" stroke="midnightblue" d="M263.569,-15C272.485,-15 281.688,-15 290.141,-15"/>
<polygon fill="midnightblue" stroke="midnightblue" points="290.368,-18.5001 300.368,-15 290.368,-11.5001 290.368,-18.5001"/>
</g>
</g>
</svg>
