<?xml version="1.0" encoding="UTF-8" standalone="no"?>
<!DOCTYPE svg PUBLIC "-//W3C//DTD SVG 1.1//EN"
 "http://www.w3.org/Graphics/SVG/1.1/DTD/svg11.dtd">
<!-- Generated by graphviz version 2.36.0 (20140111.2315)
 -->
<!-- Title: DRSBoard::TimeData Pages: 1 -->
<svg width="257pt" height="176pt"
 viewBox="0.00 0.00 257.00 176.00" xmlns="http://www.w3.org/2000/svg" xmlns:xlink="http://www.w3.org/1999/xlink">
<g id="graph0" class="graph" transform="scale(1 1) rotate(0) translate(4 172)">
<title>DRSBoard::TimeData</title>
<polygon fill="white" stroke="none" points="-4,4 -4,-172 253,-172 253,4 -4,4"/>
<!-- Node1 -->
<g id="node1" class="node"><title>Node1</title>
<polygon fill="#bfbfbf" stroke="black" points="58.5,-0.5 58.5,-19.5 171.5,-19.5 171.5,-0.5 58.5,-0.5"/>
<text text-anchor="middle" x="115" y="-7.5" font-family="Helvetica,sans-Serif" font-size="10.00">DRSBoard::TimeData</text>
</g>
<!-- Node2 -->
<g id="node2" class="node"><title>Node2</title>
<g id="a_node2"><a xlink:href="class_d_r_s_board_1_1_time_data_1_1_frequency_data.xhtml" target="_top" xlink:title="DRSBoard::TimeData\l::FrequencyData">
<polygon fill="white" stroke="black" points="-0.5,-69 -0.5,-99 112.5,-99 112.5,-69 -0.5,-69"/>
<text text-anchor="start" x="7.5" y="-87" font-family="Helvetica,sans-Serif" font-size="10.00">DRSBoard::TimeData</text>
<text text-anchor="middle" x="56" y="-76" font-family="Helvetica,sans-Serif" font-size="10.00">::FrequencyData</text>
</a>
</g>
</g>
<!-- Node2&#45;&gt;Node1 -->
<g id="edge1" class="edge"><title>Node2&#45;&gt;Node1</title>
<path fill="none" stroke="#9a32cd" stroke-dasharray="5,2" d="M67.8639,-59.9568C72.1574,-52.5911 77.353,-44.6343 83,-38 88.8422,-31.1363 96.5326,-24.5871 102.91,-19.6581"/>
<polygon fill="#9a32cd" stroke="#9a32cd" points="64.7339,-58.3841 62.9419,-68.8263 70.8546,-61.7807 64.7339,-58.3841"/>
<text text-anchor="middle" x="109" y="-41.5" font-family="Helvetica,sans-Serif" font-size="10.00"> fFrequency</text>
</g>
<!-- Node3 -->
<g id="node3" class="node"><title>Node3</title>
<polygon fill="white" stroke="#bfbfbf" points="15.5,-148.5 15.5,-167.5 60.5,-167.5 60.5,-148.5 15.5,-148.5"/>
<text text-anchor="middle" x="38" y="-155.5" font-family="Helvetica,sans-Serif" font-size="10.00">double</text>
</g>
<!-- Node3&#45;&gt;Node2 -->
<g id="edge2" class="edge"><title>Node3&#45;&gt;Node2</title>
<path fill="none" stroke="#9a32cd" stroke-dasharray="5,2" d="M36.7916,-138.019C36.8266,-131.579 37.362,-124.397 39,-118 40.6625,-111.507 43.7799,-104.843 46.8957,-99.2191"/>
<polygon fill="#9a32cd" stroke="#9a32cd" points="33.3089,-138.604 37.1388,-148.482 40.3051,-138.371 33.3089,-138.604"/>
<text text-anchor="middle" x="49.5" y="-121.5" font-family="Helvetica,sans-Serif" font-size="10.00"> fBin</text>
</g>
<!-- Node4 -->
<g id="node4" class="node"><title>Node4</title>
<polygon fill="white" stroke="#bfbfbf" points="106.5,-148.5 106.5,-167.5 135.5,-167.5 135.5,-148.5 106.5,-148.5"/>
<text text-anchor="middle" x="121" y="-155.5" font-family="Helvetica,sans-Serif" font-size="10.00">int</text>
</g>
<!-- Node4&#45;&gt;Node1 -->
<g id="edge4" class="edge"><title>Node4&#45;&gt;Node1</title>
<path fill="none" stroke="#9a32cd" stroke-dasharray="5,2" d="M131.598,-139.463C133.003,-136.404 134.224,-133.181 135,-130 144.687,-90.2751 147.815,-76.8289 135,-38 132.733,-31.131 127.97,-24.5816 123.66,-19.6538"/>
<polygon fill="#9a32cd" stroke="#9a32cd" points="128.435,-137.957 126.799,-148.425 134.606,-141.262 128.435,-137.957"/>
<text text-anchor="middle" x="196.5" y="-87" font-family="Helvetica,sans-Serif" font-size="10.00"> fNumberOfFrequencies</text>
<text text-anchor="middle" x="196.5" y="-76" font-family="Helvetica,sans-Serif" font-size="10.00">fChip</text>
</g>
<!-- Node4&#45;&gt;Node2 -->
<g id="edge3" class="edge"><title>Node4&#45;&gt;Node2</title>
<path fill="none" stroke="#9a32cd" stroke-dasharray="5,2" d="M97.6833,-142.734C92.5112,-138.966 87.2963,-134.642 83,-130 74.5837,-120.906 67.4896,-108.774 62.6881,-99.3989"/>
<polygon fill="#9a32cd" stroke="#9a32cd" points="95.9395,-145.781 106.177,-148.508 99.8745,-139.992 95.9395,-145.781"/>
<text text-anchor="middle" x="109" y="-121.5" font-family="Helvetica,sans-Serif" font-size="10.00"> fFrequency</text>
</g>
</g>
</svg>
