<?xml version="1.0" encoding="UTF-8" standalone="no"?>
<!DOCTYPE svg PUBLIC "-//W3C//DTD SVG 1.1//EN"
 "http://www.w3.org/Graphics/SVG/1.1/DTD/svg11.dtd">
<!-- Generated by graphviz version 2.36.0 (20140111.2315)
 -->
<!-- Title: DRSBoard::TransferWaves Pages: 1 -->
<svg width="322pt" height="224pt"
 viewBox="0.00 0.00 322.00 224.00" xmlns="http://www.w3.org/2000/svg" xmlns:xlink="http://www.w3.org/1999/xlink">
<g id="graph0" class="graph" transform="scale(1 1) rotate(0) translate(4 220)">
<title>DRSBoard::TransferWaves</title>
<polygon fill="white" stroke="none" points="-4,4 -4,-220 318,-220 318,4 -4,4"/>
<!-- Node1 -->
<g id="node1" class="node"><title>Node1</title>
<polygon fill="#bfbfbf" stroke="black" points="0.5,-103.5 0.5,-122.5 137.5,-122.5 137.5,-103.5 0.5,-103.5"/>
<text text-anchor="middle" x="69" y="-110.5" font-family="Helvetica,sans-Serif" font-size="10.00">DRSBoard::TransferWaves</text>
</g>
<!-- Node2 -->
<g id="node2" class="node"><title>Node2</title>
<g id="a_node2"><a xlink:href="test_8cpp.xhtml#ae66f6b31b5ad750f1fe042a706a4e3d4" target="_top" xlink:title="main">
<polygon fill="white" stroke="black" points="225,-196.5 225,-215.5 263,-215.5 263,-196.5 225,-196.5"/>
<text text-anchor="middle" x="244" y="-203.5" font-family="Helvetica,sans-Serif" font-size="10.00">main</text>
</a>
</g>
</g>
<!-- Node1&#45;&gt;Node2 -->
<g id="edge1" class="edge"><title>Node1&#45;&gt;Node2</title>
<path fill="none" stroke="midnightblue" d="M88.7807,-129.088C108.739,-145.46 141.801,-170.562 174,-186 190.42,-193.872 210.553,-199.27 224.824,-202.456"/>
<polygon fill="midnightblue" stroke="midnightblue" points="90.992,-126.375 81.0699,-122.659 86.5095,-131.751 90.992,-126.375"/>
</g>
<!-- Node3 -->
<g id="node3" class="node"><title>Node3</title>
<g id="a_node3"><a xlink:href="class_response_calibration.xhtml#ab55e5806b1f701cfc40c6ea237e98a80" target="_top" xlink:title="ResponseCalibration\l::OffsetCalibrationV3">
<polygon fill="white" stroke="black" points="190,-147 190,-177 298,-177 298,-147 190,-147"/>
<text text-anchor="start" x="198" y="-165" font-family="Helvetica,sans-Serif" font-size="10.00">ResponseCalibration</text>
<text text-anchor="middle" x="244" y="-154" font-family="Helvetica,sans-Serif" font-size="10.00">::OffsetCalibrationV3</text>
</a>
</g>
</g>
<!-- Node1&#45;&gt;Node3 -->
<g id="edge2" class="edge"><title>Node1&#45;&gt;Node3</title>
<path fill="none" stroke="midnightblue" d="M113.659,-125.366C136.822,-131.926 165.469,-140.04 189.91,-146.963"/>
<polygon fill="midnightblue" stroke="midnightblue" points="114.342,-121.922 103.767,-122.564 112.435,-128.657 114.342,-121.922"/>
</g>
<!-- Node4 -->
<g id="node4" class="node"><title>Node4</title>
<g id="a_node4"><a xlink:href="class_response_calibration.xhtml#a77c769a4e2d346cbbe331ec7bb938f16" target="_top" xlink:title="ResponseCalibration\l::OffsetCalibrationV4">
<polygon fill="white" stroke="black" points="190,-98 190,-128 298,-128 298,-98 190,-98"/>
<text text-anchor="start" x="198" y="-116" font-family="Helvetica,sans-Serif" font-size="10.00">ResponseCalibration</text>
<text text-anchor="middle" x="244" y="-105" font-family="Helvetica,sans-Serif" font-size="10.00">::OffsetCalibrationV4</text>
</a>
</g>
</g>
<!-- Node1&#45;&gt;Node4 -->
<g id="edge3" class="edge"><title>Node1&#45;&gt;Node4</title>
<path fill="none" stroke="midnightblue" d="M148.069,-113C162.169,-113 176.57,-113 189.755,-113"/>
<polygon fill="midnightblue" stroke="midnightblue" points="147.878,-109.5 137.878,-113 147.878,-116.5 147.878,-109.5"/>
</g>
<!-- Node5 -->
<g id="node5" class="node"><title>Node5</title>
<g id="a_node5"><a xlink:href="class_response_calibration.xhtml#a95f165d2ea84d31af62da2018926951c" target="_top" xlink:title="ResponseCalibration\l::RecordCalibrationPointsV3">
<polygon fill="white" stroke="black" points="174,-49 174,-79 314,-79 314,-49 174,-49"/>
<text text-anchor="start" x="182" y="-67" font-family="Helvetica,sans-Serif" font-size="10.00">ResponseCalibration</text>
<text text-anchor="middle" x="244" y="-56" font-family="Helvetica,sans-Serif" font-size="10.00">::RecordCalibrationPointsV3</text>
</a>
</g>
</g>
<!-- Node1&#45;&gt;Node5 -->
<g id="edge4" class="edge"><title>Node1&#45;&gt;Node5</title>
<path fill="none" stroke="midnightblue" d="M113.659,-100.634C136.822,-94.0735 165.469,-85.9597 189.91,-79.037"/>
<polygon fill="midnightblue" stroke="midnightblue" points="112.435,-97.3432 103.767,-103.436 114.342,-104.078 112.435,-97.3432"/>
</g>
<!-- Node6 -->
<g id="node6" class="node"><title>Node6</title>
<g id="a_node6"><a xlink:href="class_response_calibration.xhtml#a6d720e4941fbc7e511bc389688d7d229" target="_top" xlink:title="ResponseCalibration\l::RecordCalibrationPointsV4">
<polygon fill="white" stroke="black" points="174,-0 174,-30 314,-30 314,-0 174,-0"/>
<text text-anchor="start" x="182" y="-18" font-family="Helvetica,sans-Serif" font-size="10.00">ResponseCalibration</text>
<text text-anchor="middle" x="244" y="-7" font-family="Helvetica,sans-Serif" font-size="10.00">::RecordCalibrationPointsV4</text>
</a>
</g>
</g>
<!-- Node1&#45;&gt;Node6 -->
<g id="edge5" class="edge"><title>Node1&#45;&gt;Node6</title>
<path fill="none" stroke="midnightblue" d="M89.3202,-97.0756C109.483,-81.041 142.495,-56.3945 174,-40 181.008,-36.3535 188.668,-33.0069 196.254,-30.0288"/>
<polygon fill="midnightblue" stroke="midnightblue" points="87.0982,-94.3712 81.5078,-103.371 91.4904,-99.8218 87.0982,-94.3712"/>
</g>
</g>
</svg>
