<?xml version="1.0" encoding="UTF-8" standalone="no"?>
<!DOCTYPE svg PUBLIC "-//W3C//DTD SVG 1.1//EN"
 "http://www.w3.org/Graphics/SVG/1.1/DTD/svg11.dtd">
<!-- Generated by graphviz version 2.36.0 (20140111.2315)
 -->
<!-- Title: ADCManager::adc_writereg Pages: 1 -->
<svg width="606pt" height="336pt"
 viewBox="0.00 0.00 606.00 335.77" xmlns="http://www.w3.org/2000/svg" xmlns:xlink="http://www.w3.org/1999/xlink">
<g id="graph0" class="graph" transform="scale(1 1) rotate(0) translate(4 331.774)">
<title>ADCManager::adc_writereg</title>
<polygon fill="white" stroke="none" points="-4,4 -4,-331.774 602,-331.774 602,4 -4,4"/>
<!-- Node1 -->
<g id="node1" class="node"><title>Node1</title>
<polygon fill="#bfbfbf" stroke="black" points="0.5,-158.5 0.5,-177.5 137.5,-177.5 137.5,-158.5 0.5,-158.5"/>
<text text-anchor="middle" x="69" y="-165.5" font-family="Helvetica,sans-Serif" font-size="10.00">ADCManager::adc_writereg</text>
</g>
<!-- Node2 -->
<g id="node2" class="node"><title>Node2</title>
<g id="a_node2"><a xlink:href="class_a_d_c_manager.xhtml#a100d37f7db5f56057b31ab77fdc83238" target="_top" xlink:title="ADCManager::ApplySoftware\lTrigger">
<polygon fill="white" stroke="black" points="176,-153 176,-183 322,-183 322,-153 176,-153"/>
<text text-anchor="start" x="184" y="-171" font-family="Helvetica,sans-Serif" font-size="10.00">ADCManager::ApplySoftware</text>
<text text-anchor="middle" x="249" y="-160" font-family="Helvetica,sans-Serif" font-size="10.00">Trigger</text>
</a>
</g>
</g>
<!-- Node1&#45;&gt;Node2 -->
<g id="edge1" class="edge"><title>Node1&#45;&gt;Node2</title>
<path fill="none" stroke="midnightblue" d="M147.608,-168C156.959,-168 166.481,-168 175.751,-168"/>
<polygon fill="midnightblue" stroke="midnightblue" points="147.548,-164.5 137.548,-168 147.548,-171.5 147.548,-164.5"/>
</g>
<!-- Node4 -->
<g id="node4" class="node"><title>Node4</title>
<g id="a_node4"><a xlink:href="class_a_d_c_manager.xhtml#a6284754ca6f683aaf3db3da92179aab2" target="_top" xlink:title="ADCManager::CalculateBaseLine">
<polygon fill="white" stroke="black" points="360,-202.5 360,-221.5 524,-221.5 524,-202.5 360,-202.5"/>
<text text-anchor="middle" x="442" y="-209.5" font-family="Helvetica,sans-Serif" font-size="10.00">ADCManager::CalculateBaseLine</text>
</a>
</g>
</g>
<!-- Node1&#45;&gt;Node4 -->
<g id="edge5" class="edge"><title>Node1&#45;&gt;Node4</title>
<path fill="none" stroke="midnightblue" d="M115.113,-179.985C133.288,-184.4 154.524,-189.041 174,-192 235.927,-201.409 306.637,-206.454 359.726,-209.122"/>
<polygon fill="midnightblue" stroke="midnightblue" points="115.91,-176.577 105.361,-177.568 114.225,-183.371 115.91,-176.577"/>
</g>
<!-- Node5 -->
<g id="node5" class="node"><title>Node5</title>
<g id="a_node5"><a xlink:href="class_a_d_c_manager.xhtml#ac0420e065913926d59eb3f6d69971ab7" target="_top" xlink:title="ADCManager::Checkkeyboard">
<polygon fill="white" stroke="black" points="367,-278.5 367,-297.5 517,-297.5 517,-278.5 367,-278.5"/>
<text text-anchor="middle" x="442" y="-285.5" font-family="Helvetica,sans-Serif" font-size="10.00">ADCManager::Checkkeyboard</text>
</a>
</g>
</g>
<!-- Node1&#45;&gt;Node5 -->
<g id="edge6" class="edge"><title>Node1&#45;&gt;Node5</title>
<path fill="none" stroke="midnightblue" d="M77.6375,-187.415C91.3842,-219.313 123.639,-281.783 174,-307 255.029,-347.573 367.533,-315.311 416.547,-297.633"/>
<polygon fill="midnightblue" stroke="midnightblue" points="80.7441,-185.769 73.6857,-177.867 74.2763,-188.446 80.7441,-185.769"/>
</g>
<!-- Node6 -->
<g id="node6" class="node"><title>Node6</title>
<g id="a_node6"><a xlink:href="class_a_d_c_manager.xhtml#a5b1f8aac9d8552b1bc42ed17b1442688" target="_top" xlink:title="ADCManager::Disable">
<polygon fill="white" stroke="black" points="191.5,-278.5 191.5,-297.5 306.5,-297.5 306.5,-278.5 191.5,-278.5"/>
<text text-anchor="middle" x="249" y="-285.5" font-family="Helvetica,sans-Serif" font-size="10.00">ADCManager::Disable</text>
</a>
</g>
</g>
<!-- Node1&#45;&gt;Node6 -->
<g id="edge8" class="edge"><title>Node1&#45;&gt;Node6</title>
<path fill="none" stroke="midnightblue" d="M83.4448,-185.89C101.518,-208.657 135.821,-247.591 174,-269 180.942,-272.892 188.694,-276.004 196.496,-278.487"/>
<polygon fill="midnightblue" stroke="midnightblue" points="86.0299,-183.512 77.1345,-177.757 80.4993,-187.803 86.0299,-183.512"/>
</g>
<!-- Node7 -->
<g id="node7" class="node"><title>Node7</title>
<g id="a_node7"><a xlink:href="class_a_d_c_manager.xhtml#a8719c7eb8b3adf2ec42cc64c270a00c3" target="_top" xlink:title="ADCManager::Enable">
<polygon fill="white" stroke="black" points="193,-240.5 193,-259.5 305,-259.5 305,-240.5 193,-240.5"/>
<text text-anchor="middle" x="249" y="-247.5" font-family="Helvetica,sans-Serif" font-size="10.00">ADCManager::Enable</text>
</a>
</g>
</g>
<!-- Node1&#45;&gt;Node7 -->
<g id="edge12" class="edge"><title>Node1&#45;&gt;Node7</title>
<path fill="none" stroke="midnightblue" d="M93.7385,-182.998C114.388,-195.612 145.406,-213.532 174,-226 186.752,-231.56 201.221,-236.531 213.962,-240.487"/>
<polygon fill="midnightblue" stroke="midnightblue" points="95.373,-179.894 85.0261,-177.615 91.6934,-185.849 95.373,-179.894"/>
</g>
<!-- Node8 -->
<g id="node8" class="node"><title>Node8</title>
<g id="a_node8"><a xlink:href="class_a_d_c_manager1724.xhtml#a6de2521b9c793edcf14aeaeefeb62787" target="_top" xlink:title="ADCManager1724::Init">
<polygon fill="white" stroke="black" points="384,-114.5 384,-133.5 500,-133.5 500,-114.5 384,-114.5"/>
<text text-anchor="middle" x="442" y="-121.5" font-family="Helvetica,sans-Serif" font-size="10.00">ADCManager1724::Init</text>
</a>
</g>
</g>
<!-- Node1&#45;&gt;Node8 -->
<g id="edge16" class="edge"><title>Node1&#45;&gt;Node8</title>
<path fill="none" stroke="midnightblue" d="M113.357,-155.887C131.898,-151.149 153.871,-146.114 174,-143 245.873,-131.882 329.654,-127.257 383.923,-125.341"/>
<polygon fill="midnightblue" stroke="midnightblue" points="112.235,-152.563 103.443,-158.475 114.003,-159.336 112.235,-152.563"/>
</g>
<!-- Node9 -->
<g id="node9" class="node"><title>Node9</title>
<g id="a_node9"><a xlink:href="class_a_d_c_manager1720.xhtml#aae342ccd8bf1c253c455e195bfd82dfe" target="_top" xlink:title="ADCManager1720::Init">
<polygon fill="white" stroke="black" points="384,-38.5 384,-57.5 500,-57.5 500,-38.5 384,-38.5"/>
<text text-anchor="middle" x="442" y="-45.5" font-family="Helvetica,sans-Serif" font-size="10.00">ADCManager1720::Init</text>
</a>
</g>
</g>
<!-- Node1&#45;&gt;Node9 -->
<g id="edge17" class="edge"><title>Node1&#45;&gt;Node9</title>
<path fill="none" stroke="midnightblue" d="M82.1417,-150.062C99.3979,-126.263 133.464,-85.1461 174,-67 241.334,-36.8573 327.832,-36.7923 383.833,-41.0928"/>
<polygon fill="midnightblue" stroke="midnightblue" points="79.2704,-148.061 76.3727,-158.252 84.993,-152.092 79.2704,-148.061"/>
</g>
<!-- Node10 -->
<g id="node10" class="node"><title>Node10</title>
<g id="a_node10"><a xlink:href="class_a_d_c_manager1730.xhtml#adb6d45f2024f4a52d366a88d1c7f229d" target="_top" xlink:title="ADCManager1730::Init">
<polygon fill="white" stroke="black" points="384,-0.5 384,-19.5 500,-19.5 500,-0.5 384,-0.5"/>
<text text-anchor="middle" x="442" y="-7.5" font-family="Helvetica,sans-Serif" font-size="10.00">ADCManager1730::Init</text>
</a>
</g>
</g>
<!-- Node1&#45;&gt;Node10 -->
<g id="edge18" class="edge"><title>Node1&#45;&gt;Node10</title>
<path fill="none" stroke="midnightblue" d="M78.8082,-148.793C93.6796,-118.845 126.827,-61.788 174,-36 239.283,-0.311879 327.061,0.960331 383.838,-3.12784"/>
<polygon fill="midnightblue" stroke="midnightblue" points="75.4845,-147.63 74.3171,-158.16 81.7965,-150.656 75.4845,-147.63"/>
</g>
<!-- Node11 -->
<g id="node11" class="node"><title>Node11</title>
<g id="a_node11"><a xlink:href="class_a_d_c_manager.xhtml#ab189b058424a8bb47cb921d3d7e31e07" target="_top" xlink:title="ADCManager::RegisterWriting">
<polygon fill="white" stroke="black" points="174.5,-76.5 174.5,-95.5 323.5,-95.5 323.5,-76.5 174.5,-76.5"/>
<text text-anchor="middle" x="249" y="-83.5" font-family="Helvetica,sans-Serif" font-size="10.00">ADCManager::RegisterWriting</text>
</a>
</g>
</g>
<!-- Node1&#45;&gt;Node11 -->
<g id="edge19" class="edge"><title>Node1&#45;&gt;Node11</title>
<path fill="none" stroke="midnightblue" d="M93.7385,-153.002C114.388,-140.388 145.406,-122.468 174,-110 186.752,-104.44 201.221,-99.4688 213.962,-95.5128"/>
<polygon fill="midnightblue" stroke="midnightblue" points="91.6934,-150.151 85.0261,-158.385 95.373,-156.106 91.6934,-150.151"/>
</g>
<!-- Node3 -->
<g id="node3" class="node"><title>Node3</title>
<g id="a_node3"><a xlink:href="_multi_d_a_q_8cpp.xhtml#adedb285b02c41bde2158ded9cc9fd7ac" target="_top" xlink:title="main">
<polygon fill="white" stroke="black" points="560,-221.5 560,-240.5 598,-240.5 598,-221.5 560,-221.5"/>
<text text-anchor="middle" x="579" y="-228.5" font-family="Helvetica,sans-Serif" font-size="10.00">main</text>
</a>
</g>
</g>
<!-- Node2&#45;&gt;Node3 -->
<g id="edge2" class="edge"><title>Node2&#45;&gt;Node3</title>
<path fill="none" stroke="midnightblue" d="M332.214,-164.551C387.939,-164.823 462.374,-170.358 524,-193 541.001,-199.246 557.586,-212.257 567.793,-221.304"/>
<polygon fill="midnightblue" stroke="midnightblue" points="332.031,-161.051 322.033,-164.559 332.036,-168.051 332.031,-161.051"/>
</g>
<!-- Node2&#45;&gt;Node4 -->
<g id="edge3" class="edge"><title>Node2&#45;&gt;Node4</title>
<path fill="none" stroke="midnightblue" d="M325.179,-185.319C350.556,-191.165 377.941,-197.473 399.707,-202.488"/>
<polygon fill="midnightblue" stroke="midnightblue" points="325.728,-181.854 315.197,-183.019 324.156,-188.675 325.728,-181.854"/>
</g>
<!-- Node4&#45;&gt;Node3 -->
<g id="edge4" class="edge"><title>Node4&#45;&gt;Node3</title>
<path fill="none" stroke="midnightblue" d="M521.051,-222.985C535.614,-225.035 549.505,-226.99 559.922,-228.456"/>
<polygon fill="midnightblue" stroke="midnightblue" points="521.286,-219.484 510.896,-221.556 520.31,-226.415 521.286,-219.484"/>
</g>
<!-- Node5&#45;&gt;Node3 -->
<g id="edge7" class="edge"><title>Node5&#45;&gt;Node3</title>
<path fill="none" stroke="midnightblue" d="M492.781,-275.476C503.276,-272.223 514.148,-268.379 524,-264 538.457,-257.573 553.736,-247.935 564.338,-240.732"/>
<polygon fill="midnightblue" stroke="midnightblue" points="491.472,-272.214 482.881,-278.414 493.463,-278.925 491.472,-272.214"/>
</g>
<!-- Node6&#45;&gt;Node3 -->
<g id="edge9" class="edge"><title>Node6&#45;&gt;Node3</title>
<path fill="none" stroke="midnightblue" d="M283.461,-300.915C337.444,-319.526 445.618,-347.46 524,-307 551.327,-292.894 567.836,-257.862 574.532,-240.737"/>
<polygon fill="midnightblue" stroke="midnightblue" points="284.626,-297.615 274.031,-297.567 282.284,-304.211 284.626,-297.615"/>
</g>
<!-- Node6&#45;&gt;Node4 -->
<g id="edge10" class="edge"><title>Node6&#45;&gt;Node4</title>
<path fill="none" stroke="midnightblue" d="M302.83,-275.832C310.015,-273.772 317.239,-271.486 324,-269 360.9,-255.433 401.69,-233.976 424.035,-221.622"/>
<polygon fill="midnightblue" stroke="midnightblue" points="301.823,-272.479 293.104,-278.497 303.673,-279.23 301.823,-272.479"/>
</g>
<!-- Node6&#45;&gt;Node5 -->
<g id="edge11" class="edge"><title>Node6&#45;&gt;Node5</title>
<path fill="none" stroke="midnightblue" d="M316.947,-288C333.093,-288 350.439,-288 366.892,-288"/>
<polygon fill="midnightblue" stroke="midnightblue" points="316.531,-284.5 306.531,-288 316.531,-291.5 316.531,-284.5"/>
</g>
<!-- Node7&#45;&gt;Node3 -->
<g id="edge13" class="edge"><title>Node7&#45;&gt;Node3</title>
<path fill="none" stroke="midnightblue" d="M315.288,-246.218C391.795,-241.786 513.946,-234.71 559.81,-232.054"/>
<polygon fill="midnightblue" stroke="midnightblue" points="315.051,-242.726 305.27,-246.798 315.456,-249.714 315.051,-242.726"/>
</g>
<!-- Node7&#45;&gt;Node4 -->
<g id="edge14" class="edge"><title>Node7&#45;&gt;Node4</title>
<path fill="none" stroke="midnightblue" d="M308.353,-238.39C335.518,-232.986 367.432,-226.636 393.149,-221.52"/>
<polygon fill="midnightblue" stroke="midnightblue" points="307.322,-235.027 298.197,-240.411 308.688,-241.892 307.322,-235.027"/>
</g>
<!-- Node7&#45;&gt;Node5 -->
<g id="edge15" class="edge"><title>Node7&#45;&gt;Node5</title>
<path fill="none" stroke="midnightblue" d="M308.353,-261.61C335.518,-267.014 367.432,-273.364 393.149,-278.48"/>
<polygon fill="midnightblue" stroke="midnightblue" points="308.688,-258.108 298.197,-259.589 307.322,-264.973 308.688,-258.108"/>
</g>
<!-- Node11&#45;&gt;Node8 -->
<g id="edge23" class="edge"><title>Node11&#45;&gt;Node8</title>
<path fill="none" stroke="midnightblue" d="M308.353,-97.6095C335.518,-103.014 367.432,-109.364 393.149,-114.48"/>
<polygon fill="midnightblue" stroke="midnightblue" points="308.688,-94.1076 298.197,-95.589 307.322,-100.973 308.688,-94.1076"/>
</g>
<!-- Node11&#45;&gt;Node9 -->
<g id="edge22" class="edge"><title>Node11&#45;&gt;Node9</title>
<path fill="none" stroke="midnightblue" d="M308.353,-74.3905C335.518,-68.986 367.432,-62.6365 393.149,-57.5201"/>
<polygon fill="midnightblue" stroke="midnightblue" points="307.322,-71.0269 298.197,-76.411 308.688,-77.8924 307.322,-71.0269"/>
</g>
<!-- Node11&#45;&gt;Node10 -->
<g id="edge24" class="edge"><title>Node11&#45;&gt;Node10</title>
<path fill="none" stroke="midnightblue" d="M274.341,-71.1475C296.115,-58.4135 329.247,-40.3737 360,-29 370.025,-25.2923 381.022,-22.1405 391.592,-19.5331"/>
<polygon fill="midnightblue" stroke="midnightblue" points="272.28,-68.3006 265.465,-76.4133 275.852,-74.3208 272.28,-68.3006"/>
</g>
<!-- Node12 -->
<g id="node12" class="node"><title>Node12</title>
<g id="a_node12"><a xlink:href="class_a_d_c_manager.xhtml#a5ae6f692e22135ccd5c4b00f1bc70e59" target="_top" xlink:title="ADCManager::ReadBaseLine">
<polygon fill="white" stroke="black" points="369,-76.5 369,-95.5 515,-95.5 515,-76.5 369,-76.5"/>
<text text-anchor="middle" x="442" y="-83.5" font-family="Helvetica,sans-Serif" font-size="10.00">ADCManager::ReadBaseLine</text>
</a>
</g>
</g>
<!-- Node11&#45;&gt;Node12 -->
<g id="edge20" class="edge"><title>Node11&#45;&gt;Node12</title>
<path fill="none" stroke="midnightblue" d="M333.74,-86C345.401,-86 357.299,-86 368.725,-86"/>
<polygon fill="midnightblue" stroke="midnightblue" points="333.572,-82.5001 323.572,-86 333.572,-89.5001 333.572,-82.5001"/>
</g>
<!-- Node12&#45;&gt;Node3 -->
<g id="edge21" class="edge"><title>Node12&#45;&gt;Node3</title>
<path fill="none" stroke="midnightblue" d="M517.714,-100.412C519.911,-101.809 522.015,-103.335 524,-105 561.191,-136.209 573.399,-197.69 576.825,-221.379"/>
<polygon fill="midnightblue" stroke="midnightblue" points="519.298,-97.2908 508.833,-95.6389 515.984,-103.456 519.298,-97.2908"/>
</g>
</g>
</svg>
