<?xml version="1.0" encoding="UTF-8" standalone="no"?>
<!DOCTYPE svg PUBLIC "-//W3C//DTD SVG 1.1//EN"
 "http://www.w3.org/Graphics/SVG/1.1/DTD/svg11.dtd">
<!-- Generated by graphviz version 2.36.0 (20140111.2315)
 -->
<!-- Title: ResponseCalibration::CalibrationData Pages: 1 -->
<svg width="566pt" height="276pt"
 viewBox="0.00 0.00 565.60 276.00" xmlns="http://www.w3.org/2000/svg" xmlns:xlink="http://www.w3.org/1999/xlink">
<g id="graph0" class="graph" transform="scale(1 1) rotate(0) translate(4 272)">
<title>ResponseCalibration::CalibrationData</title>
<polygon fill="white" stroke="none" points="-4,4 -4,-272 561.603,-272 561.603,4 -4,4"/>
<!-- Node1 -->
<g id="node1" class="node"><title>Node1</title>
<polygon fill="#bfbfbf" stroke="black" points="267.103,-1 267.103,-31 374.103,-31 374.103,-1 267.103,-1"/>
<text text-anchor="start" x="275.103" y="-19" font-family="Helvetica,sans-Serif" font-size="10.00">ResponseCalibration</text>
<text text-anchor="middle" x="320.603" y="-8" font-family="Helvetica,sans-Serif" font-size="10.00">::CalibrationData</text>
</g>
<!-- Node2 -->
<g id="node2" class="node"><title>Node2</title>
<g id="a_node2"><a xlink:href="class_response_calibration_1_1_calibration_data_1_1_calibration_data_channel.xhtml" target="_top" xlink:title="ResponseCalibration\l::CalibrationData::Calibration\lDataChannel">
<polygon fill="white" stroke="black" points="111.103,-102.5 111.103,-143.5 254.103,-143.5 254.103,-102.5 111.103,-102.5"/>
<text text-anchor="start" x="119.103" y="-131.5" font-family="Helvetica,sans-Serif" font-size="10.00">ResponseCalibration</text>
<text text-anchor="start" x="119.103" y="-120.5" font-family="Helvetica,sans-Serif" font-size="10.00">::CalibrationData::Calibration</text>
<text text-anchor="middle" x="182.603" y="-109.5" font-family="Helvetica,sans-Serif" font-size="10.00">DataChannel</text>
</a>
</g>
</g>
<!-- Node2&#45;&gt;Node1 -->
<g id="edge1" class="edge"><title>Node2&#45;&gt;Node1</title>
<path fill="none" stroke="#9a32cd" stroke-dasharray="5,2" d="M209.797,-95.3247C224.994,-81.0755 244.642,-63.7004 263.603,-50 273.056,-43.169 284.026,-36.5426 293.802,-31.0423"/>
<polygon fill="#9a32cd" stroke="#9a32cd" points="207.128,-93.0326 202.283,-102.455 211.946,-98.1102 207.128,-93.0326"/>
<text text-anchor="middle" x="285.103" y="-58.5" font-family="Helvetica,sans-Serif" font-size="10.00"> fChannel</text>
</g>
<!-- Node3 -->
<g id="node3" class="node"><title>Node3</title>
<polygon fill="white" stroke="#bfbfbf" points="89.6028,-248.5 89.6028,-267.5 127.603,-267.5 127.603,-248.5 89.6028,-248.5"/>
<text text-anchor="middle" x="108.603" y="-255.5" font-family="Helvetica,sans-Serif" font-size="10.00">short</text>
</g>
<!-- Node3&#45;&gt;Node2 -->
<g id="edge2" class="edge"><title>Node3&#45;&gt;Node2</title>
<path fill="none" stroke="#9a32cd" stroke-dasharray="5,2" d="M104.174,-238.457C100.985,-220.793 98.9031,-194.005 109.603,-174 116.341,-161.403 127.817,-151.359 139.7,-143.677"/>
<polygon fill="#9a32cd" stroke="#9a32cd" points="100.773,-239.291 106.253,-248.359 107.624,-237.853 100.773,-239.291"/>
<text text-anchor="middle" x="141.603" y="-221.5" font-family="Helvetica,sans-Serif" font-size="10.00"> fOffset</text>
<text text-anchor="middle" x="141.603" y="-210.5" font-family="Helvetica,sans-Serif" font-size="10.00">fData</text>
<text text-anchor="middle" x="141.603" y="-199.5" font-family="Helvetica,sans-Serif" font-size="10.00">fOffsetADC</text>
<text text-anchor="middle" x="141.603" y="-188.5" font-family="Helvetica,sans-Serif" font-size="10.00">fGain</text>
<text text-anchor="middle" x="141.603" y="-177.5" font-family="Helvetica,sans-Serif" font-size="10.00">fLookUpOffset</text>
</g>
<!-- Node4 -->
<g id="node4" class="node"><title>Node4</title>
<polygon fill="white" stroke="#bfbfbf" points="0.102837,-248.5 0.102837,-267.5 35.1028,-267.5 35.1028,-248.5 0.102837,-248.5"/>
<text text-anchor="middle" x="17.6028" y="-255.5" font-family="Helvetica,sans-Serif" font-size="10.00">float</text>
</g>
<!-- Node4&#45;&gt;Node1 -->
<g id="edge5" class="edge"><title>Node4&#45;&gt;Node1</title>
<path fill="none" stroke="#9a32cd" stroke-dasharray="5,2" d="M11.6005,-238.593C1.85968,-204.847 -12.944,-132.633 22.6028,-90 53.4732,-52.9758 189.659,-31.8139 266.806,-22.5922"/>
<polygon fill="#9a32cd" stroke="#9a32cd" points="8.35005,-239.931 14.6298,-248.464 15.042,-237.877 8.35005,-239.931"/>
<text text-anchor="middle" x="62.1028" y="-148" font-family="Helvetica,sans-Serif" font-size="10.00"> fIntRevers</text>
<text text-anchor="middle" x="62.1028" y="-137" font-family="Helvetica,sans-Serif" font-size="10.00">fBSplineLookUp</text>
<text text-anchor="middle" x="62.1028" y="-126" font-family="Helvetica,sans-Serif" font-size="10.00">fEndTemperature</text>
<text text-anchor="middle" x="62.1028" y="-115" font-family="Helvetica,sans-Serif" font-size="10.00">fMin</text>
<text text-anchor="middle" x="62.1028" y="-104" font-family="Helvetica,sans-Serif" font-size="10.00">fMax</text>
<text text-anchor="middle" x="62.1028" y="-93" font-family="Helvetica,sans-Serif" font-size="10.00">fStartTemperature</text>
</g>
<!-- Node4&#45;&gt;Node2 -->
<g id="edge3" class="edge"><title>Node4&#45;&gt;Node2</title>
<path fill="none" stroke="#9a32cd" stroke-dasharray="5,2" d="M19.5171,-238.311C22.3703,-219.709 29.4036,-191.48 46.6028,-174 52.4473,-168.06 88.6745,-154.875 122.268,-143.535"/>
<polygon fill="#9a32cd" stroke="#9a32cd" points="16.0151,-238.106 18.2273,-248.467 22.9594,-238.988 16.0151,-238.106"/>
<text text-anchor="middle" x="72.6028" y="-210.5" font-family="Helvetica,sans-Serif" font-size="10.00"> fTempData</text>
<text text-anchor="middle" x="72.6028" y="-199.5" font-family="Helvetica,sans-Serif" font-size="10.00">fRange</text>
<text text-anchor="middle" x="72.6028" y="-188.5" font-family="Helvetica,sans-Serif" font-size="10.00">fMin</text>
</g>
<!-- Node5 -->
<g id="node5" class="node"><title>Node5</title>
<polygon fill="white" stroke="#bfbfbf" points="240.103,-248.5 240.103,-267.5 275.103,-267.5 275.103,-248.5 240.103,-248.5"/>
<text text-anchor="middle" x="257.603" y="-255.5" font-family="Helvetica,sans-Serif" font-size="10.00">char</text>
</g>
<!-- Node5&#45;&gt;Node1 -->
<g id="edge6" class="edge"><title>Node5&#45;&gt;Node1</title>
<path fill="none" stroke="#9a32cd" stroke-dasharray="5,2" d="M284.513,-248.123C292.978,-243.968 301.453,-238.099 306.603,-230 327.632,-196.93 323.47,-73.1178 321.387,-31.0729"/>
<polygon fill="#9a32cd" stroke="#9a32cd" points="282.968,-244.976 275.137,-252.112 285.709,-251.417 282.968,-244.976"/>
<text text-anchor="middle" x="374.103" y="-126" font-family="Helvetica,sans-Serif" font-size="10.00"> fNumberOfGridPoints</text>
<text text-anchor="middle" x="374.103" y="-115" font-family="Helvetica,sans-Serif" font-size="10.00">fNumberOfLimitGroups</text>
</g>
<!-- Node5&#45;&gt;Node2 -->
<g id="edge4" class="edge"><title>Node5&#45;&gt;Node2</title>
<path fill="none" stroke="#9a32cd" stroke-dasharray="5,2" d="M230.178,-251.297C218.027,-247.352 204.683,-240.792 196.603,-230 177.8,-204.888 177.722,-166.736 179.84,-143.705"/>
<polygon fill="#9a32cd" stroke="#9a32cd" points="229.389,-254.711 239.962,-254.032 231.273,-247.969 229.389,-254.711"/>
<text text-anchor="middle" x="251.603" y="-210.5" font-family="Helvetica,sans-Serif" font-size="10.00"> fLimitGroup</text>
<text text-anchor="middle" x="251.603" y="-199.5" font-family="Helvetica,sans-Serif" font-size="10.00">fNumberOfLookUpPoints</text>
<text text-anchor="middle" x="251.603" y="-188.5" font-family="Helvetica,sans-Serif" font-size="10.00">fLookUp</text>
</g>
<!-- Node6 -->
<g id="node6" class="node"><title>Node6</title>
<polygon fill="white" stroke="#bfbfbf" points="440.103,-113.5 440.103,-132.5 469.103,-132.5 469.103,-113.5 440.103,-113.5"/>
<text text-anchor="middle" x="454.603" y="-120.5" font-family="Helvetica,sans-Serif" font-size="10.00">int</text>
</g>
<!-- Node6&#45;&gt;Node1 -->
<g id="edge7" class="edge"><title>Node6&#45;&gt;Node1</title>
<path fill="none" stroke="#9a32cd" stroke-dasharray="5,2" d="M441.087,-105.662C436.418,-100.417 430.999,-94.7423 425.603,-90 399.588,-67.1354 366.288,-45.0294 344.242,-31.2479"/>
<polygon fill="#9a32cd" stroke="#9a32cd" points="438.524,-108.051 447.695,-113.355 443.834,-103.489 438.524,-108.051"/>
<text text-anchor="middle" x="450.603" y="-64" font-family="Helvetica,sans-Serif" font-size="10.00"> fHasOffsetCalibration</text>
<text text-anchor="middle" x="450.603" y="-53" font-family="Helvetica,sans-Serif" font-size="10.00">fBSplineOffsetLookUp</text>
</g>
<!-- Node7 -->
<g id="node7" class="node"><title>Node7</title>
<polygon fill="white" stroke="#bfbfbf" points="522.103,-113.5 522.103,-132.5 557.103,-132.5 557.103,-113.5 522.103,-113.5"/>
<text text-anchor="middle" x="539.603" y="-120.5" font-family="Helvetica,sans-Serif" font-size="10.00">bool</text>
</g>
<!-- Node7&#45;&gt;Node1 -->
<g id="edge8" class="edge"><title>Node7&#45;&gt;Node1</title>
<path fill="none" stroke="#9a32cd" stroke-dasharray="5,2" d="M535.39,-103.561C530.587,-86.903 521.038,-63.0566 503.603,-50 483.576,-35.0027 420.714,-26.0687 374.229,-21.3535"/>
<polygon fill="#9a32cd" stroke="#9a32cd" points="532.011,-104.475 537.896,-113.284 538.79,-102.727 532.011,-104.475"/>
<text text-anchor="middle" x="537.603" y="-58.5" font-family="Helvetica,sans-Serif" font-size="10.00"> fRead</text>
</g>
</g>
</svg>
