<?xml version="1.0" encoding="UTF-8" standalone="no"?>
<!DOCTYPE svg PUBLIC "-//W3C//DTD SVG 1.1//EN"
 "http://www.w3.org/Graphics/SVG/1.1/DTD/svg11.dtd">
<!-- Generated by graphviz version 2.36.0 (20140111.2315)
 -->
<!-- Title: ResponseCalibration::OffsetCalibrationV4 Pages: 1 -->
<svg width="292pt" height="332pt"
 viewBox="0.00 0.00 292.00 332.00" xmlns="http://www.w3.org/2000/svg" xmlns:xlink="http://www.w3.org/1999/xlink">
<g id="graph0" class="graph" transform="scale(1 1) rotate(0) translate(4 328)">
<title>ResponseCalibration::OffsetCalibrationV4</title>
<polygon fill="white" stroke="none" points="-4,4 -4,-328 288,-328 288,4 -4,4"/>
<!-- Node1 -->
<g id="node1" class="node"><title>Node1</title>
<polygon fill="#bfbfbf" stroke="black" points="0,-147 0,-177 108,-177 108,-147 0,-147"/>
<text text-anchor="start" x="8" y="-165" font-family="Helvetica,sans-Serif" font-size="10.00">ResponseCalibration</text>
<text text-anchor="middle" x="54" y="-154" font-family="Helvetica,sans-Serif" font-size="10.00">::OffsetCalibrationV4</text>
</g>
<!-- Node2 -->
<g id="node2" class="node"><title>Node2</title>
<g id="a_node2"><a xlink:href="class_d_r_s_board.xhtml#a476bcdf1ad85be42f67858d3dbb57361" target="_top" xlink:title="DRSBoard::Debug">
<polygon fill="white" stroke="black" points="165,-304.5 165,-323.5 263,-323.5 263,-304.5 165,-304.5"/>
<text text-anchor="middle" x="214" y="-311.5" font-family="Helvetica,sans-Serif" font-size="10.00">DRSBoard::Debug</text>
</a>
</g>
</g>
<!-- Node1&#45;&gt;Node2 -->
<g id="edge1" class="edge"><title>Node1&#45;&gt;Node2</title>
<path fill="none" stroke="midnightblue" d="M60.9756,-177.365C72.6023,-205.2 100.962,-263.956 144,-295 147.514,-297.535 151.352,-299.732 155.359,-301.636"/>
<polygon fill="midnightblue" stroke="midnightblue" points="154.365,-305.011 164.945,-305.568 157.021,-298.535 154.365,-305.011"/>
</g>
<!-- Node3 -->
<g id="node3" class="node"><title>Node3</title>
<g id="a_node3"><a xlink:href="class_d_r_s_board.xhtml#a95d34a77cb2c7b806e306890a097398d" target="_top" xlink:title="DRSBoard::EnableAcal">
<polygon fill="white" stroke="black" points="154.5,-266.5 154.5,-285.5 273.5,-285.5 273.5,-266.5 154.5,-266.5"/>
<text text-anchor="middle" x="214" y="-273.5" font-family="Helvetica,sans-Serif" font-size="10.00">DRSBoard::EnableAcal</text>
</a>
</g>
</g>
<!-- Node1&#45;&gt;Node3 -->
<g id="edge2" class="edge"><title>Node1&#45;&gt;Node3</title>
<path fill="none" stroke="midnightblue" d="M65.1618,-177.291C79.9885,-198.397 109.565,-236.202 144,-257 147.59,-259.168 151.432,-261.095 155.398,-262.806"/>
<polygon fill="midnightblue" stroke="midnightblue" points="154.226,-266.105 164.816,-266.42 156.734,-259.57 154.226,-266.105"/>
</g>
<!-- Node4 -->
<g id="node4" class="node"><title>Node4</title>
<g id="a_node4"><a xlink:href="class_d_r_s_board.xhtml#a0666bf4bad85ee2556a34e195f2e2d3a" target="_top" xlink:title="DRSBoard::GetRawWave">
<polygon fill="white" stroke="black" points="148.5,-228.5 148.5,-247.5 279.5,-247.5 279.5,-228.5 148.5,-228.5"/>
<text text-anchor="middle" x="214" y="-235.5" font-family="Helvetica,sans-Serif" font-size="10.00">DRSBoard::GetRawWave</text>
</a>
</g>
</g>
<!-- Node1&#45;&gt;Node4 -->
<g id="edge3" class="edge"><title>Node1&#45;&gt;Node4</title>
<path fill="none" stroke="midnightblue" d="M74.8625,-177.21C92.2752,-189.919 118.692,-207.723 144,-219 149.308,-221.365 154.979,-223.5 160.703,-225.41"/>
<polygon fill="midnightblue" stroke="midnightblue" points="159.745,-228.777 170.333,-228.413 161.829,-222.095 159.745,-228.777"/>
</g>
<!-- Node5 -->
<g id="node5" class="node"><title>Node5</title>
<g id="a_node5"><a xlink:href="class_d_r_s_board.xhtml#a69328e822828c454b02ac3e0e3423193" target="_top" xlink:title="DRSBoard::IsBusy">
<polygon fill="white" stroke="black" points="163.5,-190.5 163.5,-209.5 264.5,-209.5 264.5,-190.5 163.5,-190.5"/>
<text text-anchor="middle" x="214" y="-197.5" font-family="Helvetica,sans-Serif" font-size="10.00">DRSBoard::IsBusy</text>
</a>
</g>
</g>
<!-- Node1&#45;&gt;Node5 -->
<g id="edge4" class="edge"><title>Node1&#45;&gt;Node5</title>
<path fill="none" stroke="midnightblue" d="M108.051,-174.759C125.887,-179.049 145.709,-183.816 163.279,-188.042"/>
<polygon fill="midnightblue" stroke="midnightblue" points="162.791,-191.524 173.332,-190.46 164.428,-184.718 162.791,-191.524"/>
</g>
<!-- Node6 -->
<g id="node6" class="node"><title>Node6</title>
<g id="a_node6"><a xlink:href="class_d_r_s_board.xhtml#a710d3d1719d71c900a150694c1229852" target="_top" xlink:title="DRSBoard::SetCalibVoltage">
<polygon fill="white" stroke="black" points="144,-152.5 144,-171.5 284,-171.5 284,-152.5 144,-152.5"/>
<text text-anchor="middle" x="214" y="-159.5" font-family="Helvetica,sans-Serif" font-size="10.00">DRSBoard::SetCalibVoltage</text>
</a>
</g>
</g>
<!-- Node1&#45;&gt;Node6 -->
<g id="edge5" class="edge"><title>Node1&#45;&gt;Node6</title>
<path fill="none" stroke="midnightblue" d="M108.051,-162C116.299,-162 124.971,-162 133.649,-162"/>
<polygon fill="midnightblue" stroke="midnightblue" points="133.814,-165.5 143.814,-162 133.814,-158.5 133.814,-165.5"/>
</g>
<!-- Node7 -->
<g id="node7" class="node"><title>Node7</title>
<g id="a_node7"><a xlink:href="_d_r_s_8cpp.xhtml#a434cf9bf0f0628d03b924189ceab42e8" target="_top" xlink:title="Sleep">
<polygon fill="white" stroke="black" points="193.5,-114.5 193.5,-133.5 234.5,-133.5 234.5,-114.5 193.5,-114.5"/>
<text text-anchor="middle" x="214" y="-121.5" font-family="Helvetica,sans-Serif" font-size="10.00">Sleep</text>
</a>
</g>
</g>
<!-- Node1&#45;&gt;Node7 -->
<g id="edge6" class="edge"><title>Node1&#45;&gt;Node7</title>
<path fill="none" stroke="midnightblue" d="M108.051,-149.241C133.206,-143.191 162.31,-136.191 183.48,-131.1"/>
<polygon fill="midnightblue" stroke="midnightblue" points="184.568,-134.438 193.473,-128.696 182.931,-127.632 184.568,-134.438"/>
</g>
<!-- Node8 -->
<g id="node8" class="node"><title>Node8</title>
<g id="a_node8"><a xlink:href="class_d_r_s_board.xhtml#a85fad0cbe2b744a9c5788cdd14cd279c" target="_top" xlink:title="DRSBoard::SoftTrigger">
<polygon fill="white" stroke="black" points="155,-76.5 155,-95.5 273,-95.5 273,-76.5 155,-76.5"/>
<text text-anchor="middle" x="214" y="-83.5" font-family="Helvetica,sans-Serif" font-size="10.00">DRSBoard::SoftTrigger</text>
</a>
</g>
</g>
<!-- Node1&#45;&gt;Node8 -->
<g id="edge7" class="edge"><title>Node1&#45;&gt;Node8</title>
<path fill="none" stroke="midnightblue" d="M74.8625,-146.79C92.2752,-134.081 118.692,-116.277 144,-105 149.308,-102.635 154.979,-100.5 160.703,-98.5901"/>
<polygon fill="midnightblue" stroke="midnightblue" points="161.829,-101.905 170.333,-95.587 159.745,-95.2228 161.829,-101.905"/>
</g>
<!-- Node9 -->
<g id="node9" class="node"><title>Node9</title>
<g id="a_node9"><a xlink:href="class_d_r_s_board.xhtml#aa1f458803cbed423b2f45dec50d7548e" target="_top" xlink:title="DRSBoard::StartDomino">
<polygon fill="white" stroke="black" points="151.5,-38.5 151.5,-57.5 276.5,-57.5 276.5,-38.5 151.5,-38.5"/>
<text text-anchor="middle" x="214" y="-45.5" font-family="Helvetica,sans-Serif" font-size="10.00">DRSBoard::StartDomino</text>
</a>
</g>
</g>
<!-- Node1&#45;&gt;Node9 -->
<g id="edge8" class="edge"><title>Node1&#45;&gt;Node9</title>
<path fill="none" stroke="midnightblue" d="M65.1618,-146.709C79.9885,-125.603 109.565,-87.7982 144,-67 147.59,-64.832 151.432,-62.9053 155.398,-61.1942"/>
<polygon fill="midnightblue" stroke="midnightblue" points="156.734,-64.4305 164.816,-57.5802 154.226,-57.8951 156.734,-64.4305"/>
</g>
<!-- Node10 -->
<g id="node10" class="node"><title>Node10</title>
<g id="a_node10"><a xlink:href="class_d_r_s_board.xhtml#a541a06b9bbc5baa4d2e495c598ea8146" target="_top" xlink:title="DRSBoard::TransferWaves">
<polygon fill="white" stroke="black" points="145.5,-0.5 145.5,-19.5 282.5,-19.5 282.5,-0.5 145.5,-0.5"/>
<text text-anchor="middle" x="214" y="-7.5" font-family="Helvetica,sans-Serif" font-size="10.00">DRSBoard::TransferWaves</text>
</a>
</g>
</g>
<!-- Node1&#45;&gt;Node10 -->
<g id="edge9" class="edge"><title>Node1&#45;&gt;Node10</title>
<path fill="none" stroke="midnightblue" d="M60.9756,-146.635C72.6023,-118.8 100.962,-60.0436 144,-29 146.67,-27.0738 149.527,-25.3428 152.504,-23.7872"/>
<polygon fill="midnightblue" stroke="midnightblue" points="154.048,-26.9304 161.723,-19.6269 151.168,-20.55 154.048,-26.9304"/>
</g>
</g>
</svg>
