<?xml version="1.0" encoding="UTF-8" standalone="no"?>
<!DOCTYPE svg PUBLIC "-//W3C//DTD SVG 1.1//EN"
 "http://www.w3.org/Graphics/SVG/1.1/DTD/svg11.dtd">
<!-- Generated by graphviz version 2.36.0 (20140111.2315)
 -->
<!-- Title: ADCManager::ApplySoftwareTrigger Pages: 1 -->
<svg width="328pt" height="66pt"
 viewBox="0.00 0.00 328.00 66.00" xmlns="http://www.w3.org/2000/svg" xmlns:xlink="http://www.w3.org/1999/xlink">
<g id="graph0" class="graph" transform="scale(1 1) rotate(0) translate(4 62)">
<title>ADCManager::ApplySoftwareTrigger</title>
<polygon fill="white" stroke="none" points="-4,4 -4,-62 324,-62 324,4 -4,4"/>
<!-- Node1 -->
<g id="node1" class="node"><title>Node1</title>
<polygon fill="#bfbfbf" stroke="black" points="0,-14 0,-44 146,-44 146,-14 0,-14"/>
<text text-anchor="start" x="8" y="-32" font-family="Helvetica,sans-Serif" font-size="10.00">ADCManager::ApplySoftware</text>
<text text-anchor="middle" x="73" y="-21" font-family="Helvetica,sans-Serif" font-size="10.00">Trigger</text>
</g>
<!-- Node2 -->
<g id="node2" class="node"><title>Node2</title>
<g id="a_node2"><a xlink:href="class_a_d_c_manager.xhtml#a78f606243a80046c92271de226c3f4ad" target="_top" xlink:title="ADCManager::adc_readblt">
<polygon fill="white" stroke="black" points="185,-38.5 185,-57.5 317,-57.5 317,-38.5 185,-38.5"/>
<text text-anchor="middle" x="251" y="-45.5" font-family="Helvetica,sans-Serif" font-size="10.00">ADCManager::adc_readblt</text>
</a>
</g>
</g>
<!-- Node1&#45;&gt;Node2 -->
<g id="edge1" class="edge"><title>Node1&#45;&gt;Node2</title>
<path fill="none" stroke="midnightblue" d="M146.094,-36.7828C155.505,-37.7989 165.168,-38.842 174.632,-39.8636"/>
<polygon fill="midnightblue" stroke="midnightblue" points="174.483,-43.3679 184.801,-40.9615 175.235,-36.4083 174.483,-43.3679"/>
</g>
<!-- Node3 -->
<g id="node3" class="node"><title>Node3</title>
<g id="a_node3"><a xlink:href="class_a_d_c_manager.xhtml#ac6c08ec08e60b52125f463422f0abdf2" target="_top" xlink:title="ADCManager::adc_writereg">
<polygon fill="white" stroke="black" points="182.5,-0.5 182.5,-19.5 319.5,-19.5 319.5,-0.5 182.5,-0.5"/>
<text text-anchor="middle" x="251" y="-7.5" font-family="Helvetica,sans-Serif" font-size="10.00">ADCManager::adc_writereg</text>
</a>
</g>
</g>
<!-- Node1&#45;&gt;Node3 -->
<g id="edge2" class="edge"><title>Node1&#45;&gt;Node3</title>
<path fill="none" stroke="midnightblue" d="M146.094,-21.2172C154.691,-20.289 163.498,-19.3383 172.171,-18.402"/>
<polygon fill="midnightblue" stroke="midnightblue" points="172.704,-21.8649 182.27,-17.3117 171.953,-14.9053 172.704,-21.8649"/>
</g>
</g>
</svg>
