<?xml version="1.0" encoding="UTF-8" standalone="no"?>
<!DOCTYPE svg PUBLIC "-//W3C//DTD SVG 1.1//EN"
 "http://www.w3.org/Graphics/SVG/1.1/DTD/svg11.dtd">
<!-- Generated by graphviz version 2.36.0 (20140111.2315)
 -->
<!-- Title: ADCManager Pages: 1 -->
<!--zoomable 206 -->
<svg id="main" version="1.1" xmlns="http://www.w3.org/2000/svg" xmlns:xlink="http://www.w3.org/1999/xlink" xml:space="preserve" onload="init(evt)">
<style type="text/css"><![CDATA[
.edge:hover path { stroke: red; }
.edge:hover polygon { stroke: red; fill: red; }
]]></style>
<script type="text/javascript"><![CDATA[
var edges = document.getElementsByTagName('g');
if (edges && edges.length) {
  for (var i=0;i<edges.length;i++) {
    if (edges[i].id.substr(0,4)=='edge') {
      edges[i].setAttribute('class','edge');
    }
  }
}
]]></script>
        <defs>
                <circle id="rim" cx="0" cy="0" r="7"/>
                <circle id="rim2" cx="0" cy="0" r="3.5"/>
                <g id="zoomPlus">
                        <use xlink:href="#rim" fill="#404040">
                                <set attributeName="fill" to="#808080" begin="zoomplus.mouseover" end="zoomplus.mouseout"/>
                        </use>
                        <path d="M-4,0h8M0,-4v8" fill="none" stroke="white" stroke-width="1.5" pointer-events="none"/>
                </g>
                <g id="zoomMin">
                        <use xlink:href="#rim" fill="#404040">
                                <set attributeName="fill" to="#808080" begin="zoomminus.mouseover" end="zoomminus.mouseout"/>
                        </use>
                        <path d="M-4,0h8" fill="none" stroke="white" stroke-width="1.5" pointer-events="none"/>
                </g>
                <g id="dirArrow">
                        <path fill="none" stroke="white" stroke-width="1.5" d="M0,-3.0v7 M-2.5,-0.5L0,-3.0L2.5,-0.5"/>
                </g>
               <g id="resetDef">
                       <use xlink:href="#rim2" fill="#404040">
                               <set attributeName="fill" to="#808080" begin="reset.mouseover" end="reset.mouseout"/>
                       </use>
               </g>
        </defs>

<script type="text/javascript">
var viewWidth = 610;
var viewHeight = 206;
var sectionId = 'dynsection-1';
</script>
<script xlink:href="svgpan.js"/>
<svg id="graph" class="graph">
<g id="viewport">
<title>ADCManager</title>
<polygon fill="white" stroke="none" points="-4,4 -4,-202 606,-202 606,4 -4,4"/>
<!-- Node1 -->
<g id="node1" class="node"><title>Node1</title>
<polygon fill="#bfbfbf" stroke="black" points="232,-0.5 232,-19.5 308,-19.5 308,-0.5 232,-0.5"/>
<text text-anchor="middle" x="270" y="-7.5" font-family="Helvetica,sans-Serif" font-size="10.00">ADCManager</text>
</g>
<!-- Node2 -->
<g id="node2" class="node"><title>Node2</title>
<polygon fill="white" stroke="#bfbfbf" points="0,-178.5 0,-197.5 56,-197.5 56,-178.5 0,-178.5"/>
<text text-anchor="middle" x="28" y="-185.5" font-family="Helvetica,sans-Serif" font-size="10.00">u_int32_t</text>
</g>
<!-- Node2&#45;&gt;Node1 -->
<g id="edge1" class="edge"><title>Node2&#45;&gt;Node1</title>
<path fill="none" stroke="#9a32cd" stroke-dasharray="5,2" d="M21.7132,-168.56C12.3503,-137.301 -0.861633,-73.821 32,-38 45.2476,-23.5594 168.025,-15.746 231.849,-12.6296"/>
<polygon fill="#9a32cd" stroke="#9a32cd" points="18.4072,-169.713 24.7827,-178.175 25.0756,-167.584 18.4072,-169.713"/>
<text text-anchor="middle" x="75.5" y="-135" font-family="Helvetica,sans-Serif" font-size="10.00"> m_posttrigger</text>
<text text-anchor="middle" x="75.5" y="-124" font-family="Helvetica,sans-Serif" font-size="10.00">m_hex</text>
<text text-anchor="middle" x="75.5" y="-113" font-family="Helvetica,sans-Serif" font-size="10.00">m_addr</text>
<text text-anchor="middle" x="75.5" y="-102" font-family="Helvetica,sans-Serif" font-size="10.00">m_ADCaddr</text>
<text text-anchor="middle" x="75.5" y="-91" font-family="Helvetica,sans-Serif" font-size="10.00">m_DACLevel</text>
<text text-anchor="middle" x="75.5" y="-80" font-family="Helvetica,sans-Serif" font-size="10.00">m_ExpectedEvSize</text>
<text text-anchor="middle" x="75.5" y="-69" font-family="Helvetica,sans-Serif" font-size="10.00">m_DACTarget</text>
<text text-anchor="middle" x="75.5" y="-58" font-family="Helvetica,sans-Serif" font-size="10.00">buffer</text>
</g>
<!-- Node3 -->
<g id="node3" class="node"><title>Node3</title>
<polygon fill="white" stroke="#bfbfbf" points="115.5,-178.5 115.5,-197.5 160.5,-197.5 160.5,-178.5 115.5,-178.5"/>
<text text-anchor="middle" x="138" y="-185.5" font-family="Helvetica,sans-Serif" font-size="10.00">double</text>
</g>
<!-- Node3&#45;&gt;Node1 -->
<g id="edge2" class="edge"><title>Node3&#45;&gt;Node1</title>
<path fill="none" stroke="#9a32cd" stroke-dasharray="5,2" d="M132.123,-168.463C123.579,-137.523 111.91,-75.1049 143,-38 154.256,-24.5665 198.696,-17.4906 231.853,-14.0053"/>
<polygon fill="#9a32cd" stroke="#9a32cd" points="128.85,-169.737 135.045,-178.332 135.562,-167.75 128.85,-169.737"/>
<text text-anchor="middle" x="173" y="-113" font-family="Helvetica,sans-Serif" font-size="10.00"> m_correction</text>
<text text-anchor="middle" x="173" y="-102" font-family="Helvetica,sans-Serif" font-size="10.00">m_diff</text>
<text text-anchor="middle" x="173" y="-91" font-family="Helvetica,sans-Serif" font-size="10.00">m_mean</text>
<text text-anchor="middle" x="173" y="-80" font-family="Helvetica,sans-Serif" font-size="10.00">m_std</text>
</g>
<!-- Node4 -->
<g id="node4" class="node"><title>Node4</title>
<polygon fill="white" stroke="#bfbfbf" points="203.5,-178.5 203.5,-197.5 238.5,-197.5 238.5,-178.5 203.5,-178.5"/>
<text text-anchor="middle" x="221" y="-185.5" font-family="Helvetica,sans-Serif" font-size="10.00">char</text>
</g>
<!-- Node4&#45;&gt;Node1 -->
<g id="edge3" class="edge"><title>Node4&#45;&gt;Node1</title>
<path fill="none" stroke="#9a32cd" stroke-dasharray="5,2" d="M215.621,-168.645C208.036,-138.89 197.659,-79.3015 222,-38 226.903,-29.6805 235.409,-23.723 243.911,-19.5586"/>
<polygon fill="#9a32cd" stroke="#9a32cd" points="212.299,-169.765 218.313,-178.487 219.051,-167.918 212.299,-169.765"/>
<text text-anchor="middle" x="260" y="-96.5" font-family="Helvetica,sans-Serif" font-size="10.00"> m_XmlFileName</text>
</g>
<!-- Node5 -->
<g id="node5" class="node"><title>Node5</title>
<polygon fill="white" stroke="#bfbfbf" points="281.5,-178.5 281.5,-197.5 358.5,-197.5 358.5,-178.5 281.5,-178.5"/>
<text text-anchor="middle" x="320" y="-185.5" font-family="Helvetica,sans-Serif" font-size="10.00">CAEN_BYTE</text>
</g>
<!-- Node5&#45;&gt;Node1 -->
<g id="edge4" class="edge"><title>Node5&#45;&gt;Node1</title>
<path fill="none" stroke="#9a32cd" stroke-dasharray="5,2" d="M318.726,-168.049C316.134,-133.175 309.498,-60.3534 298,-38 294.293,-30.7938 287.909,-24.4108 282.172,-19.6627"/>
<polygon fill="#9a32cd" stroke="#9a32cd" points="315.254,-168.565 319.451,-178.293 322.236,-168.071 315.254,-168.565"/>
<text text-anchor="middle" x="350" y="-102" font-family="Helvetica,sans-Serif" font-size="10.00"> IrqMask</text>
<text text-anchor="middle" x="350" y="-91" font-family="Helvetica,sans-Serif" font-size="10.00">IrqCheckMask</text>
</g>
<!-- Node6 -->
<g id="node6" class="node"><title>Node6</title>
<polygon fill="white" stroke="#bfbfbf" points="392.5,-178.5 392.5,-197.5 421.5,-197.5 421.5,-178.5 392.5,-178.5"/>
<text text-anchor="middle" x="407" y="-185.5" font-family="Helvetica,sans-Serif" font-size="10.00">int</text>
</g>
<!-- Node6&#45;&gt;Node1 -->
<g id="edge5" class="edge"><title>Node6&#45;&gt;Node1</title>
<path fill="none" stroke="#9a32cd" stroke-dasharray="5,2" d="M406.774,-168.302C405.949,-132.615 402.166,-56.6728 385,-38 374.66,-26.7522 337.399,-19.4511 308.057,-15.3127"/>
<polygon fill="#9a32cd" stroke="#9a32cd" points="403.276,-168.414 406.952,-178.351 410.275,-168.291 403.276,-168.414"/>
<text text-anchor="middle" x="441.5" y="-151.5" font-family="Helvetica,sans-Serif" font-size="10.00"> m_Baseline</text>
<text text-anchor="middle" x="441.5" y="-140.5" font-family="Helvetica,sans-Serif" font-size="10.00">blt_bytes</text>
<text text-anchor="middle" x="441.5" y="-129.5" font-family="Helvetica,sans-Serif" font-size="10.00">m_EvAlign</text>
<text text-anchor="middle" x="441.5" y="-118.5" font-family="Helvetica,sans-Serif" font-size="10.00">wavecnt</text>
<text text-anchor="middle" x="441.5" y="-107.5" font-family="Helvetica,sans-Serif" font-size="10.00">Size</text>
<text text-anchor="middle" x="441.5" y="-96.5" font-family="Helvetica,sans-Serif" font-size="10.00">m_EnableOLIrq</text>
<text text-anchor="middle" x="441.5" y="-85.5" font-family="Helvetica,sans-Serif" font-size="10.00">cnt</text>
<text text-anchor="middle" x="441.5" y="-74.5" font-family="Helvetica,sans-Serif" font-size="10.00">m_length</text>
<text text-anchor="middle" x="441.5" y="-63.5" font-family="Helvetica,sans-Serif" font-size="10.00">m_BufferSize</text>
<text text-anchor="middle" x="441.5" y="-52.5" font-family="Helvetica,sans-Serif" font-size="10.00">m_MemorySize</text>
<text text-anchor="middle" x="441.5" y="-41.5" font-family="Helvetica,sans-Serif" font-size="10.00">...</text>
</g>
<!-- Node7 -->
<g id="node7" class="node"><title>Node7</title>
<polygon fill="white" stroke="#bfbfbf" points="478.5,-178.5 478.5,-197.5 519.5,-197.5 519.5,-178.5 478.5,-178.5"/>
<text text-anchor="middle" x="499" y="-185.5" font-family="Helvetica,sans-Serif" font-size="10.00">string</text>
</g>
<!-- Node7&#45;&gt;Node1 -->
<g id="edge6" class="edge"><title>Node7&#45;&gt;Node1</title>
<path fill="none" stroke="#9a32cd" stroke-dasharray="5,2" d="M502.594,-168.302C507.49,-136.613 512.039,-72.4517 477,-38 453.806,-15.1949 361.368,-11.0961 308.193,-10.6828"/>
<polygon fill="#9a32cd" stroke="#9a32cd" points="499.104,-167.942 500.846,-178.392 506.001,-169.136 499.104,-167.942"/>
<text text-anchor="middle" x="553.5" y="-102" font-family="Helvetica,sans-Serif" font-size="10.00"> m_BaselineFileName</text>
<text text-anchor="middle" x="553.5" y="-91" font-family="Helvetica,sans-Serif" font-size="10.00">m_RegisterFileName</text>
</g>
</g>
</svg>
        <g id="navigator" transform="translate(0 0)" fill="#404254">
                <rect fill="#f2f5e9" fill-opacity="0.5" stroke="#606060" stroke-width=".5" x="0" y="0" width="60" height="60"/>
                <use id="zoomplus" xlink:href="#zoomPlus" x="17" y="9" onmousedown="handleZoom(evt,'in')"/>
                <use id="zoomminus" xlink:href="#zoomMin" x="42" y="9" onmousedown="handleZoom(evt,'out')"/>
                <use id="reset" xlink:href="#resetDef" x="30" y="36" onmousedown="handleReset()"/>
                <g id="arrowUp" xlink:href="#dirArrow" transform="translate(30 24)" onmousedown="handlePan(0,-1)">
                  <use xlink:href="#rim" fill="#404040">
                        <set attributeName="fill" to="#808080" begin="arrowUp.mouseover" end="arrowUp.mouseout"/>
                  </use>
                  <path fill="none" stroke="white" stroke-width="1.5" d="M0,-3.0v7 M-2.5,-0.5L0,-3.0L2.5,-0.5"/>
                </g>
                <g id="arrowRight" xlink:href="#dirArrow" transform="rotate(90) translate(36 -43)" onmousedown="handlePan(1,0)">
                  <use xlink:href="#rim" fill="#404040">
                        <set attributeName="fill" to="#808080" begin="arrowRight.mouseover" end="arrowRight.mouseout"/>
                  </use>
                  <path fill="none" stroke="white" stroke-width="1.5" d="M0,-3.0v7 M-2.5,-0.5L0,-3.0L2.5,-0.5"/>
                </g>
                <g id="arrowDown" xlink:href="#dirArrow" transform="rotate(180) translate(-30 -48)" onmousedown="handlePan(0,1)">
                  <use xlink:href="#rim" fill="#404040">
                        <set attributeName="fill" to="#808080" begin="arrowDown.mouseover" end="arrowDown.mouseout"/>
                  </use>
                  <path fill="none" stroke="white" stroke-width="1.5" d="M0,-3.0v7 M-2.5,-0.5L0,-3.0L2.5,-0.5"/>
                </g>
                <g id="arrowLeft" xlink:href="#dirArrow" transform="rotate(270) translate(-36 17)" onmousedown="handlePan(-1,0)">
                  <use xlink:href="#rim" fill="#404040">
                        <set attributeName="fill" to="#808080" begin="arrowLeft.mouseover" end="arrowLeft.mouseout"/>
                  </use>
                  <path fill="none" stroke="white" stroke-width="1.5" d="M0,-3.0v7 M-2.5,-0.5L0,-3.0L2.5,-0.5"/>
                </g>
        </g>
        <svg viewBox="0 0 15 15" width="100%" height="30px" preserveAspectRatio="xMaxYMin meet">
         <g id="arrow_out" transform="scale(0.3 0.3)">
          <a xlink:href="class_a_d_c_manager__coll__graph_org.svg" target="_base">
           <rect id="button" ry="5" rx="5" y="6" x="6" height="38" width="38"
                fill="#f2f5e9" fill-opacity="0.5" stroke="#606060" stroke-width="1.0"/>
           <path id="arrow"
             d="M 11.500037,31.436501 C 11.940474,20.09759 22.043105,11.32322 32.158766,21.979434 L 37.068811,17.246167 C 37.068811,17.246167 37.088388,32 37.088388,32 L 22.160133,31.978069 C 22.160133,31.978069 26.997745,27.140456 26.997745,27.140456 C 18.528582,18.264221 13.291696,25.230495 11.500037,31.436501 z"
             style="fill:#404040;"/>
          </a>
         </g>
        </svg>
</svg>
