<?xml version="1.0" encoding="UTF-8" standalone="no"?>
<!DOCTYPE svg PUBLIC "-//W3C//DTD SVG 1.1//EN"
 "http://www.w3.org/Graphics/SVG/1.1/DTD/svg11.dtd">
<!-- Generated by graphviz version 2.36.0 (20140111.2315)
 -->
<!-- Title: ResponseCalibration::CalibrationData::CalibrationDataChannel Pages: 1 -->
<svg width="297pt" height="162pt"
 viewBox="0.00 0.00 297.00 162.00" xmlns="http://www.w3.org/2000/svg" xmlns:xlink="http://www.w3.org/1999/xlink">
<g id="graph0" class="graph" transform="scale(1 1) rotate(0) translate(4 158)">
<title>ResponseCalibration::CalibrationData::CalibrationDataChannel</title>
<polygon fill="white" stroke="none" points="-4,4 -4,-158 293,-158 293,4 -4,4"/>
<!-- Node1 -->
<g id="node1" class="node"><title>Node1</title>
<polygon fill="#bfbfbf" stroke="black" points="34.5,-0.5 34.5,-41.5 177.5,-41.5 177.5,-0.5 34.5,-0.5"/>
<text text-anchor="start" x="42.5" y="-29.5" font-family="Helvetica,sans-Serif" font-size="10.00">ResponseCalibration</text>
<text text-anchor="start" x="42.5" y="-18.5" font-family="Helvetica,sans-Serif" font-size="10.00">::CalibrationData::Calibration</text>
<text text-anchor="middle" x="106" y="-7.5" font-family="Helvetica,sans-Serif" font-size="10.00">DataChannel</text>
</g>
<!-- Node2 -->
<g id="node2" class="node"><title>Node2</title>
<polygon fill="white" stroke="#bfbfbf" points="0,-134.5 0,-153.5 38,-153.5 38,-134.5 0,-134.5"/>
<text text-anchor="middle" x="19" y="-141.5" font-family="Helvetica,sans-Serif" font-size="10.00">short</text>
</g>
<!-- Node2&#45;&gt;Node1 -->
<g id="edge1" class="edge"><title>Node2&#45;&gt;Node1</title>
<path fill="none" stroke="#9a32cd" stroke-dasharray="5,2" d="M19.0589,-124.126C20.0262,-106.012 23.9712,-78.7199 38,-60 43.4338,-52.7492 50.6812,-46.6908 58.4206,-41.6974"/>
<polygon fill="#9a32cd" stroke="#9a32cd" points="15.5556,-124.197 18.7774,-134.29 22.553,-124.391 15.5556,-124.197"/>
<text text-anchor="middle" x="70" y="-107.5" font-family="Helvetica,sans-Serif" font-size="10.00"> fOffset</text>
<text text-anchor="middle" x="70" y="-96.5" font-family="Helvetica,sans-Serif" font-size="10.00">fData</text>
<text text-anchor="middle" x="70" y="-85.5" font-family="Helvetica,sans-Serif" font-size="10.00">fOffsetADC</text>
<text text-anchor="middle" x="70" y="-74.5" font-family="Helvetica,sans-Serif" font-size="10.00">fGain</text>
<text text-anchor="middle" x="70" y="-63.5" font-family="Helvetica,sans-Serif" font-size="10.00">fLookUpOffset</text>
</g>
<!-- Node3 -->
<g id="node3" class="node"><title>Node3</title>
<polygon fill="white" stroke="#bfbfbf" points="88.5,-134.5 88.5,-153.5 123.5,-153.5 123.5,-134.5 88.5,-134.5"/>
<text text-anchor="middle" x="106" y="-141.5" font-family="Helvetica,sans-Serif" font-size="10.00">float</text>
</g>
<!-- Node3&#45;&gt;Node1 -->
<g id="edge2" class="edge"><title>Node3&#45;&gt;Node1</title>
<path fill="none" stroke="#9a32cd" stroke-dasharray="5,2" d="M106,-124.047C106,-101.568 106,-64.2876 106,-41.55"/>
<polygon fill="#9a32cd" stroke="#9a32cd" points="102.5,-124.298 106,-134.298 109.5,-124.298 102.5,-124.298"/>
<text text-anchor="middle" x="132" y="-96.5" font-family="Helvetica,sans-Serif" font-size="10.00"> fTempData</text>
<text text-anchor="middle" x="132" y="-85.5" font-family="Helvetica,sans-Serif" font-size="10.00">fRange</text>
<text text-anchor="middle" x="132" y="-74.5" font-family="Helvetica,sans-Serif" font-size="10.00">fMin</text>
</g>
<!-- Node4 -->
<g id="node4" class="node"><title>Node4</title>
<polygon fill="white" stroke="#bfbfbf" points="163.5,-134.5 163.5,-153.5 198.5,-153.5 198.5,-134.5 163.5,-134.5"/>
<text text-anchor="middle" x="181" y="-141.5" font-family="Helvetica,sans-Serif" font-size="10.00">char</text>
</g>
<!-- Node4&#45;&gt;Node1 -->
<g id="edge3" class="edge"><title>Node4&#45;&gt;Node1</title>
<path fill="none" stroke="#9a32cd" stroke-dasharray="5,2" d="M179.687,-124.431C177.638,-106.545 172.397,-79.4178 159,-60 154.178,-53.0105 147.632,-46.8549 140.787,-41.6444"/>
<polygon fill="#9a32cd" stroke="#9a32cd" points="176.207,-124.812 180.61,-134.449 183.177,-124.169 176.207,-124.812"/>
<text text-anchor="middle" x="234" y="-96.5" font-family="Helvetica,sans-Serif" font-size="10.00"> fLimitGroup</text>
<text text-anchor="middle" x="234" y="-85.5" font-family="Helvetica,sans-Serif" font-size="10.00">fNumberOfLookUpPoints</text>
<text text-anchor="middle" x="234" y="-74.5" font-family="Helvetica,sans-Serif" font-size="10.00">fLookUp</text>
</g>
</g>
</svg>
