<?xml version="1.0" encoding="UTF-8" standalone="no"?>
<!DOCTYPE svg PUBLIC "-//W3C//DTD SVG 1.1//EN"
 "http://www.w3.org/Graphics/SVG/1.1/DTD/svg11.dtd">
<!-- Generated by graphviz version 2.36.0 (20140111.2315)
 -->
<!-- Title: Averager::Median Pages: 1 -->
<svg width="496pt" height="96pt"
 viewBox="0.00 0.00 496.00 96.00" xmlns="http://www.w3.org/2000/svg" xmlns:xlink="http://www.w3.org/1999/xlink">
<g id="graph0" class="graph" transform="scale(1 1) rotate(0) translate(4 92)">
<title>Averager::Median</title>
<polygon fill="white" stroke="none" points="-4,4 -4,-92 492,-92 492,4 -4,4"/>
<!-- Node1 -->
<g id="node1" class="node"><title>Node1</title>
<polygon fill="#bfbfbf" stroke="black" points="0.5,-49.5 0.5,-68.5 93.5,-68.5 93.5,-49.5 0.5,-49.5"/>
<text text-anchor="middle" x="47" y="-56.5" font-family="Helvetica,sans-Serif" font-size="10.00">Averager::Median</text>
</g>
<!-- Node2 -->
<g id="node2" class="node"><title>Node2</title>
<g id="a_node2"><a xlink:href="class_d_r_s_board.xhtml#a8bab7dfd4d23b8721274dbad343fe980" target="_top" xlink:title="DRSBoard::AnalyzeSlope">
<polygon fill="white" stroke="black" points="329,-68.5 329,-87.5 459,-87.5 459,-68.5 329,-68.5"/>
<text text-anchor="middle" x="394" y="-75.5" font-family="Helvetica,sans-Serif" font-size="10.00">DRSBoard::AnalyzeSlope</text>
</a>
</g>
</g>
<!-- Node1&#45;&gt;Node2 -->
<g id="edge1" class="edge"><title>Node1&#45;&gt;Node2</title>
<path fill="none" stroke="midnightblue" d="M90.9269,-70.8835C103.425,-73.8145 117.169,-76.5329 130,-78 197.593,-85.7285 275.597,-84.4605 328.996,-82.0504"/>
<polygon fill="midnightblue" stroke="midnightblue" points="91.7576,-67.4835 81.2123,-68.5071 90.0943,-74.2831 91.7576,-67.4835"/>
</g>
<!-- Node3 -->
<g id="node3" class="node"><title>Node3</title>
<g id="a_node3"><a xlink:href="class_averager.xhtml#a9dc816c41ccae2bb908061c8a0eff363" target="_top" xlink:title="Averager::RobustAverage">
<polygon fill="white" stroke="black" points="132.5,-49.5 132.5,-68.5 261.5,-68.5 261.5,-49.5 132.5,-49.5"/>
<text text-anchor="middle" x="197" y="-56.5" font-family="Helvetica,sans-Serif" font-size="10.00">Averager::RobustAverage</text>
</a>
</g>
</g>
<!-- Node1&#45;&gt;Node3 -->
<g id="edge2" class="edge"><title>Node1&#45;&gt;Node3</title>
<path fill="none" stroke="midnightblue" d="M103.885,-59C113.166,-59 122.852,-59 132.309,-59"/>
<polygon fill="midnightblue" stroke="midnightblue" points="103.613,-55.5001 93.6125,-59 103.612,-62.5001 103.613,-55.5001"/>
</g>
<!-- Node5 -->
<g id="node5" class="node"><title>Node5</title>
<g id="a_node5"><a xlink:href="class_averager.xhtml#a4cafa76ff8897c99b8647d93cc35eb03" target="_top" xlink:title="Averager::SaveNormalized\lDistribution">
<polygon fill="white" stroke="black" points="130,-0 130,-30 264,-30 264,-0 130,-0"/>
<text text-anchor="start" x="138" y="-18" font-family="Helvetica,sans-Serif" font-size="10.00">Averager::SaveNormalized</text>
<text text-anchor="middle" x="197" y="-7" font-family="Helvetica,sans-Serif" font-size="10.00">Distribution</text>
</a>
</g>
</g>
<!-- Node1&#45;&gt;Node5 -->
<g id="edge5" class="edge"><title>Node1&#45;&gt;Node5</title>
<path fill="none" stroke="midnightblue" d="M89.8949,-46.5447C107.137,-41.4187 127.264,-35.4351 145.326,-30.0654"/>
<polygon fill="midnightblue" stroke="midnightblue" points="88.7017,-43.248 80.1138,-49.4527 90.6966,-49.9578 88.7017,-43.248"/>
</g>
<!-- Node3&#45;&gt;Node2 -->
<g id="edge4" class="edge"><title>Node3&#45;&gt;Node2</title>
<path fill="none" stroke="midnightblue" d="M271.593,-66.1706C290.424,-68.0054 310.524,-69.9638 328.838,-71.7484"/>
<polygon fill="midnightblue" stroke="midnightblue" points="271.873,-62.6814 261.58,-65.195 271.194,-69.6484 271.873,-62.6814"/>
</g>
<!-- Node4 -->
<g id="node4" class="node"><title>Node4</title>
<g id="a_node4"><a xlink:href="class_d_r_s_board.xhtml#a6e16736c059a10a958a692aefc5dda48" target="_top" xlink:title="DRSBoard::RobustAverageWaveforms">
<polygon fill="white" stroke="black" points="300,-27.5 300,-46.5 488,-46.5 488,-27.5 300,-27.5"/>
<text text-anchor="middle" x="394" y="-34.5" font-family="Helvetica,sans-Serif" font-size="10.00">DRSBoard::RobustAverageWaveforms</text>
</a>
</g>
</g>
<!-- Node3&#45;&gt;Node4 -->
<g id="edge3" class="edge"><title>Node3&#45;&gt;Node4</title>
<path fill="none" stroke="midnightblue" d="M271.585,-50.6981C283.662,-49.3355 296.262,-47.9141 308.577,-46.5246"/>
<polygon fill="midnightblue" stroke="midnightblue" points="271.125,-47.2277 261.58,-51.8268 271.91,-54.1836 271.125,-47.2277"/>
</g>
<!-- Node5&#45;&gt;Node4 -->
<g id="edge6" class="edge"><title>Node5&#45;&gt;Node4</title>
<path fill="none" stroke="midnightblue" d="M274.267,-23.6045C285.57,-24.8797 297.273,-26.2001 308.728,-27.4924"/>
<polygon fill="midnightblue" stroke="midnightblue" points="274.347,-20.0914 264.018,-22.4482 273.563,-27.0473 274.347,-20.0914"/>
</g>
</g>
</svg>
