<?xml version="1.0" encoding="UTF-8" standalone="no"?>
<!DOCTYPE svg PUBLIC "-//W3C//DTD SVG 1.1//EN"
 "http://www.w3.org/Graphics/SVG/1.1/DTD/svg11.dtd">
<!-- Generated by graphviz version 2.36.0 (20140111.2315)
 -->
<!-- Title: DRSBoard::AnalyzeSlope Pages: 1 -->
<svg width="520pt" height="104pt"
 viewBox="0.00 0.00 520.00 104.00" xmlns="http://www.w3.org/2000/svg" xmlns:xlink="http://www.w3.org/1999/xlink">
<g id="graph0" class="graph" transform="scale(1 1) rotate(0) translate(4 100)">
<title>DRSBoard::AnalyzeSlope</title>
<polygon fill="white" stroke="none" points="-4,4 -4,-100 516,-100 516,4 -4,4"/>
<!-- Node1 -->
<g id="node1" class="node"><title>Node1</title>
<polygon fill="#bfbfbf" stroke="black" points="0,-38.5 0,-57.5 130,-57.5 130,-38.5 0,-38.5"/>
<text text-anchor="middle" x="65" y="-45.5" font-family="Helvetica,sans-Serif" font-size="10.00">DRSBoard::AnalyzeSlope</text>
</g>
<!-- Node2 -->
<g id="node2" class="node"><title>Node2</title>
<g id="a_node2"><a xlink:href="class_averager.xhtml#a54f782d24315b52034c2badd434a615f" target="_top" xlink:title="Averager::Add">
<polygon fill="white" stroke="black" points="191.5,-76.5 191.5,-95.5 270.5,-95.5 270.5,-76.5 191.5,-76.5"/>
<text text-anchor="middle" x="231" y="-83.5" font-family="Helvetica,sans-Serif" font-size="10.00">Averager::Add</text>
</a>
</g>
</g>
<!-- Node1&#45;&gt;Node2 -->
<g id="edge1" class="edge"><title>Node1&#45;&gt;Node2</title>
<path fill="none" stroke="midnightblue" d="M107.384,-57.589C129.968,-62.8218 158.051,-69.3288 181.64,-74.7947"/>
<polygon fill="midnightblue" stroke="midnightblue" points="180.914,-78.219 191.446,-77.0667 182.494,-71.3997 180.914,-78.219"/>
</g>
<!-- Node3 -->
<g id="node3" class="node"><title>Node3</title>
<g id="a_node3"><a xlink:href="class_averager.xhtml#a762a787a827f2a2591019abde244f053" target="_top" xlink:title="Averager::Median">
<polygon fill="white" stroke="black" points="332.5,-19.5 332.5,-38.5 425.5,-38.5 425.5,-19.5 332.5,-19.5"/>
<text text-anchor="middle" x="379" y="-26.5" font-family="Helvetica,sans-Serif" font-size="10.00">Averager::Median</text>
</a>
</g>
</g>
<!-- Node1&#45;&gt;Node3 -->
<g id="edge2" class="edge"><title>Node1&#45;&gt;Node3</title>
<path fill="none" stroke="midnightblue" d="M130.268,-44.0862C186.745,-40.647 268.099,-35.6927 321.97,-32.4121"/>
<polygon fill="midnightblue" stroke="midnightblue" points="322.261,-35.901 332.029,-31.7995 321.835,-28.9139 322.261,-35.901"/>
</g>
<!-- Node5 -->
<g id="node5" class="node"><title>Node5</title>
<g id="a_node5"><a xlink:href="class_averager.xhtml#a9dc816c41ccae2bb908061c8a0eff363" target="_top" xlink:title="Averager::RobustAverage">
<polygon fill="white" stroke="black" points="166.5,-0.5 166.5,-19.5 295.5,-19.5 295.5,-0.5 166.5,-0.5"/>
<text text-anchor="middle" x="231" y="-7.5" font-family="Helvetica,sans-Serif" font-size="10.00">Averager::RobustAverage</text>
</a>
</g>
</g>
<!-- Node1&#45;&gt;Node5 -->
<g id="edge4" class="edge"><title>Node1&#45;&gt;Node5</title>
<path fill="none" stroke="midnightblue" d="M107.384,-38.411C129.123,-33.3739 155.957,-27.1562 178.975,-21.8229"/>
<polygon fill="midnightblue" stroke="midnightblue" points="179.962,-25.1871 188.913,-19.5201 178.381,-18.3677 179.962,-25.1871"/>
</g>
<!-- Node4 -->
<g id="node4" class="node"><title>Node4</title>
<g id="a_node4"><a xlink:href="averager_8cpp.xhtml#a0175038e9fbcee94d51ca2ac939109a6" target="_top" xlink:title="compar">
<polygon fill="white" stroke="black" points="462.5,-19.5 462.5,-38.5 511.5,-38.5 511.5,-19.5 462.5,-19.5"/>
<text text-anchor="middle" x="487" y="-26.5" font-family="Helvetica,sans-Serif" font-size="10.00">compar</text>
</a>
</g>
</g>
<!-- Node3&#45;&gt;Node4 -->
<g id="edge3" class="edge"><title>Node3&#45;&gt;Node4</title>
<path fill="none" stroke="midnightblue" d="M425.569,-29C434.485,-29 443.688,-29 452.141,-29"/>
<polygon fill="midnightblue" stroke="midnightblue" points="452.368,-32.5001 462.368,-29 452.368,-25.5001 452.368,-32.5001"/>
</g>
<!-- Node5&#45;&gt;Node3 -->
<g id="edge5" class="edge"><title>Node5&#45;&gt;Node3</title>
<path fill="none" stroke="midnightblue" d="M295.613,-18.2784C304.45,-19.4284 313.474,-20.6027 322.154,-21.7324"/>
<polygon fill="midnightblue" stroke="midnightblue" points="321.787,-25.2141 332.155,-23.0339 322.691,-18.2726 321.787,-25.2141"/>
</g>
</g>
</svg>
