<?xml version="1.0" encoding="UTF-8" standalone="no"?>
<!DOCTYPE svg PUBLIC "-//W3C//DTD SVG 1.1//EN"
 "http://www.w3.org/Graphics/SVG/1.1/DTD/svg11.dtd">
<!-- Generated by graphviz version 2.36.0 (20140111.2315)
 -->
<!-- Title: DRSBoard::Debug Pages: 1 -->
<svg width="282pt" height="136pt"
 viewBox="0.00 0.00 282.00 136.00" xmlns="http://www.w3.org/2000/svg" xmlns:xlink="http://www.w3.org/1999/xlink">
<g id="graph0" class="graph" transform="scale(1 1) rotate(0) translate(4 132)">
<title>DRSBoard::Debug</title>
<polygon fill="white" stroke="none" points="-4,4 -4,-132 278,-132 278,4 -4,4"/>
<!-- Node1 -->
<g id="node1" class="node"><title>Node1</title>
<polygon fill="#bfbfbf" stroke="black" points="0,-54.5 0,-73.5 98,-73.5 98,-54.5 0,-54.5"/>
<text text-anchor="middle" x="49" y="-61.5" font-family="Helvetica,sans-Serif" font-size="10.00">DRSBoard::Debug</text>
</g>
<!-- Node2 -->
<g id="node2" class="node"><title>Node2</title>
<g id="a_node2"><a xlink:href="class_response_calibration.xhtml#a882b4f8ebf939e5b2643ac23f90daadb" target="_top" xlink:title="ResponseCalibration\l::FitCalibrationPointsV4">
<polygon fill="white" stroke="black" points="144,-98 144,-128 264,-128 264,-98 144,-98"/>
<text text-anchor="start" x="152" y="-116" font-family="Helvetica,sans-Serif" font-size="10.00">ResponseCalibration</text>
<text text-anchor="middle" x="204" y="-105" font-family="Helvetica,sans-Serif" font-size="10.00">::FitCalibrationPointsV4</text>
</a>
</g>
</g>
<!-- Node1&#45;&gt;Node2 -->
<g id="edge1" class="edge"><title>Node1&#45;&gt;Node2</title>
<path fill="none" stroke="midnightblue" d="M89.4407,-76.6313C109.778,-83.1446 134.723,-91.1334 156.048,-97.963"/>
<polygon fill="midnightblue" stroke="midnightblue" points="90.4542,-73.2809 79.8631,-73.564 88.3191,-79.9473 90.4542,-73.2809"/>
</g>
<!-- Node3 -->
<g id="node3" class="node"><title>Node3</title>
<g id="a_node3"><a xlink:href="class_response_calibration.xhtml#a77c769a4e2d346cbbe331ec7bb938f16" target="_top" xlink:title="ResponseCalibration\l::OffsetCalibrationV4">
<polygon fill="white" stroke="black" points="150,-49 150,-79 258,-79 258,-49 150,-49"/>
<text text-anchor="start" x="158" y="-67" font-family="Helvetica,sans-Serif" font-size="10.00">ResponseCalibration</text>
<text text-anchor="middle" x="204" y="-56" font-family="Helvetica,sans-Serif" font-size="10.00">::OffsetCalibrationV4</text>
</a>
</g>
</g>
<!-- Node1&#45;&gt;Node3 -->
<g id="edge2" class="edge"><title>Node1&#45;&gt;Node3</title>
<path fill="none" stroke="midnightblue" d="M108.603,-64C122.174,-64 136.542,-64 149.864,-64"/>
<polygon fill="midnightblue" stroke="midnightblue" points="108.41,-60.5001 98.4102,-64 108.41,-67.5001 108.41,-60.5001"/>
</g>
<!-- Node4 -->
<g id="node4" class="node"><title>Node4</title>
<g id="a_node4"><a xlink:href="class_response_calibration.xhtml#a6d720e4941fbc7e511bc389688d7d229" target="_top" xlink:title="ResponseCalibration\l::RecordCalibrationPointsV4">
<polygon fill="white" stroke="black" points="134,-0 134,-30 274,-30 274,-0 134,-0"/>
<text text-anchor="start" x="142" y="-18" font-family="Helvetica,sans-Serif" font-size="10.00">ResponseCalibration</text>
<text text-anchor="middle" x="204" y="-7" font-family="Helvetica,sans-Serif" font-size="10.00">::RecordCalibrationPointsV4</text>
</a>
</g>
</g>
<!-- Node1&#45;&gt;Node4 -->
<g id="edge3" class="edge"><title>Node1&#45;&gt;Node4</title>
<path fill="none" stroke="midnightblue" d="M89.4407,-51.3687C109.778,-44.8554 134.723,-36.8666 156.048,-30.037"/>
<polygon fill="midnightblue" stroke="midnightblue" points="88.3191,-48.0527 79.8631,-54.436 90.4542,-54.7191 88.3191,-48.0527"/>
</g>
</g>
</svg>
