<?xml version="1.0" encoding="UTF-8" standalone="no"?>
<!DOCTYPE svg PUBLIC "-//W3C//DTD SVG 1.1//EN"
 "http://www.w3.org/Graphics/SVG/1.1/DTD/svg11.dtd">
<!-- Generated by graphviz version 2.36.0 (20140111.2315)
 -->
<!-- Title: ResponseCalibration::RecordCalibrationPointsV3 Pages: 1 -->
<svg width="324pt" height="218pt"
 viewBox="0.00 0.00 324.00 218.00" xmlns="http://www.w3.org/2000/svg" xmlns:xlink="http://www.w3.org/1999/xlink">
<g id="graph0" class="graph" transform="scale(1 1) rotate(0) translate(4 214)">
<title>ResponseCalibration::RecordCalibrationPointsV3</title>
<polygon fill="white" stroke="none" points="-4,4 -4,-214 320,-214 320,4 -4,4"/>
<!-- Node1 -->
<g id="node1" class="node"><title>Node1</title>
<polygon fill="#bfbfbf" stroke="black" points="0,-90 0,-120 140,-120 140,-90 0,-90"/>
<text text-anchor="start" x="8" y="-108" font-family="Helvetica,sans-Serif" font-size="10.00">ResponseCalibration</text>
<text text-anchor="middle" x="70" y="-97" font-family="Helvetica,sans-Serif" font-size="10.00">::RecordCalibrationPointsV3</text>
</g>
<!-- Node2 -->
<g id="node2" class="node"><title>Node2</title>
<g id="a_node2"><a xlink:href="class_d_r_s_board.xhtml#a95d34a77cb2c7b806e306890a097398d" target="_top" xlink:title="DRSBoard::EnableAcal">
<polygon fill="white" stroke="black" points="186.5,-190.5 186.5,-209.5 305.5,-209.5 305.5,-190.5 186.5,-190.5"/>
<text text-anchor="middle" x="246" y="-197.5" font-family="Helvetica,sans-Serif" font-size="10.00">DRSBoard::EnableAcal</text>
</a>
</g>
</g>
<!-- Node1&#45;&gt;Node2 -->
<g id="edge1" class="edge"><title>Node1&#45;&gt;Node2</title>
<path fill="none" stroke="midnightblue" d="M87.9644,-120.272C107.761,-137.348 142.122,-164.735 176,-181 180.9,-183.353 186.141,-185.456 191.463,-187.327"/>
<polygon fill="midnightblue" stroke="midnightblue" points="190.481,-190.688 201.073,-190.447 192.642,-184.03 190.481,-190.688"/>
</g>
<!-- Node3 -->
<g id="node3" class="node"><title>Node3</title>
<g id="a_node3"><a xlink:href="class_d_r_s_board.xhtml#a0666bf4bad85ee2556a34e195f2e2d3a" target="_top" xlink:title="DRSBoard::GetRawWave">
<polygon fill="white" stroke="black" points="180.5,-152.5 180.5,-171.5 311.5,-171.5 311.5,-152.5 180.5,-152.5"/>
<text text-anchor="middle" x="246" y="-159.5" font-family="Helvetica,sans-Serif" font-size="10.00">DRSBoard::GetRawWave</text>
</a>
</g>
</g>
<!-- Node1&#45;&gt;Node3 -->
<g id="edge2" class="edge"><title>Node1&#45;&gt;Node3</title>
<path fill="none" stroke="midnightblue" d="M110.636,-120.177C130.189,-127.45 154.201,-136.066 176,-143 183.245,-145.305 190.968,-147.593 198.528,-149.741"/>
<polygon fill="midnightblue" stroke="midnightblue" points="197.744,-153.156 208.317,-152.474 199.626,-146.414 197.744,-153.156"/>
</g>
<!-- Node4 -->
<g id="node4" class="node"><title>Node4</title>
<g id="a_node4"><a xlink:href="class_d_r_s_board.xhtml#a3330a6f560520d2046a976666188d5ed" target="_top" xlink:title="DRSBoard::GetTemperature">
<polygon fill="white" stroke="black" points="176,-114.5 176,-133.5 316,-133.5 316,-114.5 176,-114.5"/>
<text text-anchor="middle" x="246" y="-121.5" font-family="Helvetica,sans-Serif" font-size="10.00">DRSBoard::GetTemperature</text>
</a>
</g>
</g>
<!-- Node1&#45;&gt;Node4 -->
<g id="edge3" class="edge"><title>Node1&#45;&gt;Node4</title>
<path fill="none" stroke="midnightblue" d="M140.019,-112.537C148.476,-113.46 157.169,-114.409 165.761,-115.347"/>
<polygon fill="midnightblue" stroke="midnightblue" points="165.459,-118.835 175.779,-116.441 166.219,-111.877 165.459,-118.835"/>
</g>
<!-- Node5 -->
<g id="node5" class="node"><title>Node5</title>
<g id="a_node5"><a xlink:href="class_d_r_s_board.xhtml#a710d3d1719d71c900a150694c1229852" target="_top" xlink:title="DRSBoard::SetCalibVoltage">
<polygon fill="white" stroke="black" points="176,-76.5 176,-95.5 316,-95.5 316,-76.5 176,-76.5"/>
<text text-anchor="middle" x="246" y="-83.5" font-family="Helvetica,sans-Serif" font-size="10.00">DRSBoard::SetCalibVoltage</text>
</a>
</g>
</g>
<!-- Node1&#45;&gt;Node5 -->
<g id="edge4" class="edge"><title>Node1&#45;&gt;Node5</title>
<path fill="none" stroke="midnightblue" d="M140.019,-97.4634C148.476,-96.54 157.169,-95.5907 165.761,-94.6526"/>
<polygon fill="midnightblue" stroke="midnightblue" points="166.219,-98.1235 175.779,-93.5586 165.459,-91.1648 166.219,-98.1235"/>
</g>
<!-- Node6 -->
<g id="node6" class="node"><title>Node6</title>
<g id="a_node6"><a xlink:href="class_d_r_s_board.xhtml#abf1eef66d932d3b3b0e74b409385f508" target="_top" xlink:title="DRSBoard::SetDAC">
<polygon fill="white" stroke="black" points="192.5,-38.5 192.5,-57.5 299.5,-57.5 299.5,-38.5 192.5,-38.5"/>
<text text-anchor="middle" x="246" y="-45.5" font-family="Helvetica,sans-Serif" font-size="10.00">DRSBoard::SetDAC</text>
</a>
</g>
</g>
<!-- Node1&#45;&gt;Node6 -->
<g id="edge5" class="edge"><title>Node1&#45;&gt;Node6</title>
<path fill="none" stroke="midnightblue" d="M110.636,-89.823C130.189,-82.5496 154.201,-73.9342 176,-67 183.245,-64.6955 190.968,-62.4071 198.528,-60.2589"/>
<polygon fill="midnightblue" stroke="midnightblue" points="199.626,-63.5862 208.317,-57.526 197.744,-56.844 199.626,-63.5862"/>
</g>
<!-- Node7 -->
<g id="node7" class="node"><title>Node7</title>
<g id="a_node7"><a xlink:href="class_d_r_s_board.xhtml#a541a06b9bbc5baa4d2e495c598ea8146" target="_top" xlink:title="DRSBoard::TransferWaves">
<polygon fill="white" stroke="black" points="177.5,-0.5 177.5,-19.5 314.5,-19.5 314.5,-0.5 177.5,-0.5"/>
<text text-anchor="middle" x="246" y="-7.5" font-family="Helvetica,sans-Serif" font-size="10.00">DRSBoard::TransferWaves</text>
</a>
</g>
</g>
<!-- Node1&#45;&gt;Node7 -->
<g id="edge6" class="edge"><title>Node1&#45;&gt;Node7</title>
<path fill="none" stroke="midnightblue" d="M87.9644,-89.7275C107.761,-72.6515 142.122,-45.2654 176,-29 180.9,-26.6472 186.141,-24.5437 191.463,-22.673"/>
<polygon fill="midnightblue" stroke="midnightblue" points="192.642,-25.97 201.073,-19.5535 190.481,-19.312 192.642,-25.97"/>
</g>
</g>
</svg>
