<?xml version="1.0" encoding="UTF-8" standalone="no"?>
<!DOCTYPE svg PUBLIC "-//W3C//DTD SVG 1.1//EN"
 "http://www.w3.org/Graphics/SVG/1.1/DTD/svg11.dtd">
<!-- Generated by graphviz version 2.36.0 (20140111.2315)
 -->
<!-- Title: ADCManager::adc_readblt Pages: 1 -->
<svg width="596pt" height="82pt"
 viewBox="0.00 0.00 596.00 81.76" xmlns="http://www.w3.org/2000/svg" xmlns:xlink="http://www.w3.org/1999/xlink">
<g id="graph0" class="graph" transform="scale(1 1) rotate(0) translate(4 77.7577)">
<title>ADCManager::adc_readblt</title>
<polygon fill="white" stroke="none" points="-4,4 -4,-77.7577 592,-77.7577 592,4 -4,4"/>
<!-- Node1 -->
<g id="node1" class="node"><title>Node1</title>
<polygon fill="#bfbfbf" stroke="black" points="0,-22.5 0,-41.5 132,-41.5 132,-22.5 0,-22.5"/>
<text text-anchor="middle" x="66" y="-29.5" font-family="Helvetica,sans-Serif" font-size="10.00">ADCManager::adc_readblt</text>
</g>
<!-- Node2 -->
<g id="node2" class="node"><title>Node2</title>
<g id="a_node2"><a xlink:href="class_a_d_c_manager.xhtml#a100d37f7db5f56057b31ab77fdc83238" target="_top" xlink:title="ADCManager::ApplySoftware\lTrigger">
<polygon fill="white" stroke="black" points="168,-39 168,-69 314,-69 314,-39 168,-39"/>
<text text-anchor="start" x="176" y="-57" font-family="Helvetica,sans-Serif" font-size="10.00">ADCManager::ApplySoftware</text>
<text text-anchor="middle" x="241" y="-46" font-family="Helvetica,sans-Serif" font-size="10.00">Trigger</text>
</a>
</g>
</g>
<!-- Node1&#45;&gt;Node2 -->
<g id="edge1" class="edge"><title>Node1&#45;&gt;Node2</title>
<path fill="none" stroke="midnightblue" d="M142.557,-41.6084C150.955,-42.6764 159.493,-43.7622 167.848,-44.8246"/>
<polygon fill="midnightblue" stroke="midnightblue" points="142.766,-38.1068 132.404,-40.3173 141.882,-45.0509 142.766,-38.1068"/>
</g>
<!-- Node5 -->
<g id="node5" class="node"><title>Node5</title>
<g id="a_node5"><a xlink:href="class_a_d_c_manager.xhtml#aa1e40983fc887c4e0176a615cc3c7664" target="_top" xlink:title="ADCManager::CheckEventBuffer">
<polygon fill="white" stroke="black" points="351,-0.5 351,-19.5 513,-19.5 513,-0.5 351,-0.5"/>
<text text-anchor="middle" x="432" y="-7.5" font-family="Helvetica,sans-Serif" font-size="10.00">ADCManager::CheckEventBuffer</text>
</a>
</g>
</g>
<!-- Node1&#45;&gt;Node5 -->
<g id="edge5" class="edge"><title>Node1&#45;&gt;Node5</title>
<path fill="none" stroke="midnightblue" d="M142.389,-27.4435C203.292,-23.7626 288.794,-18.5949 350.916,-14.8402"/>
<polygon fill="midnightblue" stroke="midnightblue" points="141.847,-23.9698 132.076,-28.0668 142.269,-30.9571 141.847,-23.9698"/>
</g>
<!-- Node3 -->
<g id="node3" class="node"><title>Node3</title>
<g id="a_node3"><a xlink:href="_multi_d_a_q_8cpp.xhtml#adedb285b02c41bde2158ded9cc9fd7ac" target="_top" xlink:title="main">
<polygon fill="white" stroke="black" points="550,-38.5 550,-57.5 588,-57.5 588,-38.5 550,-38.5"/>
<text text-anchor="middle" x="569" y="-45.5" font-family="Helvetica,sans-Serif" font-size="10.00">main</text>
</a>
</g>
</g>
<!-- Node2&#45;&gt;Node3 -->
<g id="edge2" class="edge"><title>Node2&#45;&gt;Node3</title>
<path fill="none" stroke="midnightblue" d="M324.352,-67.1289C378.587,-73.5246 450.957,-77.7673 514,-67 526.344,-64.8918 539.618,-60.2561 549.917,-56.0917"/>
<polygon fill="midnightblue" stroke="midnightblue" points="324.452,-63.6148 314.099,-65.8689 323.598,-70.5626 324.452,-63.6148"/>
</g>
<!-- Node4 -->
<g id="node4" class="node"><title>Node4</title>
<g id="a_node4"><a xlink:href="class_a_d_c_manager.xhtml#a6284754ca6f683aaf3db3da92179aab2" target="_top" xlink:title="ADCManager::CalculateBaseLine">
<polygon fill="white" stroke="black" points="350,-38.5 350,-57.5 514,-57.5 514,-38.5 350,-38.5"/>
<text text-anchor="middle" x="432" y="-45.5" font-family="Helvetica,sans-Serif" font-size="10.00">ADCManager::CalculateBaseLine</text>
</a>
</g>
</g>
<!-- Node2&#45;&gt;Node4 -->
<g id="edge3" class="edge"><title>Node2&#45;&gt;Node4</title>
<path fill="none" stroke="midnightblue" d="M324.485,-51.3814C332.934,-51.1132 341.514,-50.8408 349.947,-50.5731"/>
<polygon fill="midnightblue" stroke="midnightblue" points="324.146,-47.8903 314.262,-51.706 324.368,-54.8868 324.146,-47.8903"/>
</g>
<!-- Node4&#45;&gt;Node3 -->
<g id="edge4" class="edge"><title>Node4&#45;&gt;Node3</title>
<path fill="none" stroke="midnightblue" d="M524.433,-48C533.981,-48 542.794,-48 549.96,-48"/>
<polygon fill="midnightblue" stroke="midnightblue" points="524.257,-44.5001 514.257,-48 524.256,-51.5001 524.257,-44.5001"/>
</g>
<!-- Node5&#45;&gt;Node3 -->
<g id="edge6" class="edge"><title>Node5&#45;&gt;Node3</title>
<path fill="none" stroke="midnightblue" d="M487.66,-21.9717C496.508,-24.153 505.539,-26.5269 514,-29 526.019,-32.5131 539.289,-37.1707 549.666,-40.9952"/>
<polygon fill="midnightblue" stroke="midnightblue" points="488.33,-18.5331 477.789,-19.5958 486.692,-25.3388 488.33,-18.5331"/>
</g>
</g>
</svg>
