<?xml version="1.0" encoding="UTF-8" standalone="no"?>
<!DOCTYPE svg PUBLIC "-//W3C//DTD SVG 1.1//EN"
 "http://www.w3.org/Graphics/SVG/1.1/DTD/svg11.dtd">
<!-- Generated by graphviz version 2.36.0 (20140111.2315)
 -->
<!-- Title: Common::gettimestring Pages: 1 -->
<svg width="358pt" height="126pt"
 viewBox="0.00 0.00 358.00 126.00" xmlns="http://www.w3.org/2000/svg" xmlns:xlink="http://www.w3.org/1999/xlink">
<g id="graph0" class="graph" transform="scale(1 1) rotate(0) translate(4 122)">
<title>Common::gettimestring</title>
<polygon fill="white" stroke="none" points="-4,4 -4,-122 354,-122 354,4 -4,4"/>
<!-- Node1 -->
<g id="node1" class="node"><title>Node1</title>
<polygon fill="#bfbfbf" stroke="black" points="0.5,-54.5 0.5,-73.5 119.5,-73.5 119.5,-54.5 0.5,-54.5"/>
<text text-anchor="middle" x="60" y="-61.5" font-family="Helvetica,sans-Serif" font-size="10.00">Common::gettimestring</text>
</g>
<!-- Node2 -->
<g id="node2" class="node"><title>Node2</title>
<g id="a_node2"><a xlink:href="class_i_o_manager.xhtml#a98030e1f199cd4eaed513920c7d57b4e" target="_top" xlink:title="IOManager::IOManager">
<polygon fill="white" stroke="black" points="156.5,-98.5 156.5,-117.5 275.5,-117.5 275.5,-98.5 156.5,-98.5"/>
<text text-anchor="middle" x="216" y="-105.5" font-family="Helvetica,sans-Serif" font-size="10.00">IOManager::IOManager</text>
</a>
</g>
</g>
<!-- Node1&#45;&gt;Node2 -->
<g id="edge1" class="edge"><title>Node1&#45;&gt;Node2</title>
<path fill="none" stroke="midnightblue" d="M104.194,-76.3412C128.722,-83.3493 158.961,-91.9888 181.65,-98.4713"/>
<polygon fill="midnightblue" stroke="midnightblue" points="104.992,-72.9293 94.4157,-73.5473 103.069,-79.66 104.992,-72.9293"/>
</g>
<!-- Node3 -->
<g id="node3" class="node"><title>Node3</title>
<g id="a_node3"><a xlink:href="class_slowcontrol_manager.xhtml#a5bfb299b29cec0e22ec7b2ef6a6ebaf0" target="_top" xlink:title="SlowcontrolManager\l::ProcessInput">
<polygon fill="white" stroke="black" points="163.5,-49 163.5,-79 268.5,-79 268.5,-49 163.5,-49"/>
<text text-anchor="start" x="171.5" y="-67" font-family="Helvetica,sans-Serif" font-size="10.00">SlowcontrolManager</text>
<text text-anchor="middle" x="216" y="-56" font-family="Helvetica,sans-Serif" font-size="10.00">::ProcessInput</text>
</a>
</g>
</g>
<!-- Node1&#45;&gt;Node3 -->
<g id="edge2" class="edge"><title>Node1&#45;&gt;Node3</title>
<path fill="none" stroke="midnightblue" d="M129.821,-64C140.985,-64 152.382,-64 163.057,-64"/>
<polygon fill="midnightblue" stroke="midnightblue" points="129.66,-60.5001 119.66,-64 129.66,-67.5001 129.66,-60.5001"/>
</g>
<!-- Node5 -->
<g id="node5" class="node"><title>Node5</title>
<g id="a_node5"><a xlink:href="class_slowcontrol_manager.xhtml#a02fdc13f0cf12431c58fb0de7af028db" target="_top" xlink:title="SlowcontrolManager\l::SlowcontrolManager">
<polygon fill="white" stroke="black" points="160.5,-0 160.5,-30 271.5,-30 271.5,-0 160.5,-0"/>
<text text-anchor="start" x="168.5" y="-18" font-family="Helvetica,sans-Serif" font-size="10.00">SlowcontrolManager</text>
<text text-anchor="middle" x="216" y="-7" font-family="Helvetica,sans-Serif" font-size="10.00">::SlowcontrolManager</text>
</a>
</g>
</g>
<!-- Node1&#45;&gt;Node5 -->
<g id="edge4" class="edge"><title>Node1&#45;&gt;Node5</title>
<path fill="none" stroke="midnightblue" d="M100.698,-51.3687C121.169,-44.8554 146.276,-36.8666 167.741,-30.037"/>
<polygon fill="midnightblue" stroke="midnightblue" points="99.5264,-48.0686 91.0583,-54.436 101.649,-54.7391 99.5264,-48.0686"/>
</g>
<!-- Node4 -->
<g id="node4" class="node"><title>Node4</title>
<g id="a_node4"><a xlink:href="_multi_d_a_q_8cpp.xhtml#adedb285b02c41bde2158ded9cc9fd7ac" target="_top" xlink:title="main">
<polygon fill="white" stroke="black" points="312,-54.5 312,-73.5 350,-73.5 350,-54.5 312,-54.5"/>
<text text-anchor="middle" x="331" y="-61.5" font-family="Helvetica,sans-Serif" font-size="10.00">main</text>
</a>
</g>
</g>
<!-- Node3&#45;&gt;Node4 -->
<g id="edge3" class="edge"><title>Node3&#45;&gt;Node4</title>
<path fill="none" stroke="midnightblue" d="M278.724,-64C290.815,-64 302.585,-64 311.793,-64"/>
<polygon fill="midnightblue" stroke="midnightblue" points="278.54,-60.5001 268.54,-64 278.54,-67.5001 278.54,-60.5001"/>
</g>
</g>
</svg>
