<?xml version="1.0" encoding="UTF-8" standalone="no"?>
<!DOCTYPE svg PUBLIC "-//W3C//DTD SVG 1.1//EN"
 "http://www.w3.org/Graphics/SVG/1.1/DTD/svg11.dtd">
<!-- Generated by graphviz version 2.36.0 (20140111.2315)
 -->
<!-- Title: DRSBoard::CalibrateVolt Pages: 1 -->
<svg width="292pt" height="66pt"
 viewBox="0.00 0.00 292.00 66.00" xmlns="http://www.w3.org/2000/svg" xmlns:xlink="http://www.w3.org/1999/xlink">
<g id="graph0" class="graph" transform="scale(1 1) rotate(0) translate(4 62)">
<title>DRSBoard::CalibrateVolt</title>
<polygon fill="white" stroke="none" points="-4,4 -4,-62 288,-62 288,4 -4,4"/>
<!-- Node1 -->
<g id="node1" class="node"><title>Node1</title>
<polygon fill="#bfbfbf" stroke="black" points="0,-19.5 0,-38.5 126,-38.5 126,-19.5 0,-19.5"/>
<text text-anchor="middle" x="63" y="-26.5" font-family="Helvetica,sans-Serif" font-size="10.00">DRSBoard::CalibrateVolt</text>
</g>
<!-- Node2 -->
<g id="node2" class="node"><title>Node2</title>
<g id="a_node2"><a xlink:href="class_d_r_s_callback.xhtml#a088e15ac8657d148d61c8fb80b2e23ac" target="_top" xlink:title="DRSCallback::Progress">
<polygon fill="white" stroke="black" points="162,-38.5 162,-57.5 284,-57.5 284,-38.5 162,-38.5"/>
<text text-anchor="middle" x="223" y="-45.5" font-family="Helvetica,sans-Serif" font-size="10.00">DRSCallback::Progress</text>
</a>
</g>
</g>
<!-- Node1&#45;&gt;Node2 -->
<g id="edge1" class="edge"><title>Node1&#45;&gt;Node2</title>
<path fill="none" stroke="midnightblue" d="M126.446,-36.5093C134.724,-37.5048 143.257,-38.5309 151.658,-39.5411"/>
<polygon fill="midnightblue" stroke="midnightblue" points="151.466,-43.0432 161.813,-40.7623 152.302,-36.0933 151.466,-43.0432"/>
</g>
<!-- Node3 -->
<g id="node3" class="node"><title>Node3</title>
<g id="a_node3"><a xlink:href="_d_r_s_8cpp.xhtml#a434cf9bf0f0628d03b924189ceab42e8" target="_top" xlink:title="Sleep">
<polygon fill="white" stroke="black" points="202.5,-0.5 202.5,-19.5 243.5,-19.5 243.5,-0.5 202.5,-0.5"/>
<text text-anchor="middle" x="223" y="-7.5" font-family="Helvetica,sans-Serif" font-size="10.00">Sleep</text>
</a>
</g>
</g>
<!-- Node1&#45;&gt;Node3 -->
<g id="edge2" class="edge"><title>Node1&#45;&gt;Node3</title>
<path fill="none" stroke="midnightblue" d="M126.446,-21.4907C149.087,-18.768 173.628,-15.8169 192.169,-13.5872"/>
<polygon fill="midnightblue" stroke="midnightblue" points="192.823,-17.0339 202.334,-12.365 191.987,-10.084 192.823,-17.0339"/>
</g>
</g>
</svg>
