<?xml version="1.0" encoding="UTF-8" standalone="no"?>
<!DOCTYPE svg PUBLIC "-//W3C//DTD SVG 1.1//EN"
 "http://www.w3.org/Graphics/SVG/1.1/DTD/svg11.dtd">
<!-- Generated by graphviz version 2.36.0 (20140111.2315)
 -->
<!-- Title: DRSBoard::SetDominoMode Pages: 1 -->
<svg width="328pt" height="87pt"
 viewBox="0.00 0.00 328.00 87.00" xmlns="http://www.w3.org/2000/svg" xmlns:xlink="http://www.w3.org/1999/xlink">
<g id="graph0" class="graph" transform="scale(1 1) rotate(0) translate(4 83)">
<title>DRSBoard::SetDominoMode</title>
<polygon fill="white" stroke="none" points="-4,4 -4,-83 324,-83 324,4 -4,4"/>
<!-- Node1 -->
<g id="node1" class="node"><title>Node1</title>
<polygon fill="#bfbfbf" stroke="black" points="0.5,-29.5 0.5,-48.5 143.5,-48.5 143.5,-29.5 0.5,-29.5"/>
<text text-anchor="middle" x="72" y="-36.5" font-family="Helvetica,sans-Serif" font-size="10.00">DRSBoard::SetDominoMode</text>
</g>
<!-- Node2 -->
<g id="node2" class="node"><title>Node2</title>
<g id="a_node2"><a xlink:href="class_response_calibration.xhtml#ab4abea5900cfec91116bb7782798fa77" target="_top" xlink:title="ResponseCalibration\l::CalibrationStart">
<polygon fill="white" stroke="black" points="196.5,-49 196.5,-79 303.5,-79 303.5,-49 196.5,-49"/>
<text text-anchor="start" x="204.5" y="-67" font-family="Helvetica,sans-Serif" font-size="10.00">ResponseCalibration</text>
<text text-anchor="middle" x="250" y="-56" font-family="Helvetica,sans-Serif" font-size="10.00">::CalibrationStart</text>
</a>
</g>
</g>
<!-- Node1&#45;&gt;Node2 -->
<g id="edge1" class="edge"><title>Node1&#45;&gt;Node2</title>
<path fill="none" stroke="midnightblue" d="M150.203,-49.9663C165.8,-52.1818 181.857,-54.4626 196.373,-56.5246"/>
<polygon fill="midnightblue" stroke="midnightblue" points="150.433,-46.464 140.04,-48.5227 149.448,-53.3944 150.433,-46.464"/>
</g>
<!-- Node3 -->
<g id="node3" class="node"><title>Node3</title>
<g id="a_node3"><a xlink:href="class_response_calibration.xhtml#a6d720e4941fbc7e511bc389688d7d229" target="_top" xlink:title="ResponseCalibration\l::RecordCalibrationPointsV4">
<polygon fill="white" stroke="black" points="180,-0 180,-30 320,-30 320,-0 180,-0"/>
<text text-anchor="start" x="188" y="-18" font-family="Helvetica,sans-Serif" font-size="10.00">ResponseCalibration</text>
<text text-anchor="middle" x="250" y="-7" font-family="Helvetica,sans-Serif" font-size="10.00">::RecordCalibrationPointsV4</text>
</a>
</g>
</g>
<!-- Node1&#45;&gt;Node3 -->
<g id="edge2" class="edge"><title>Node1&#45;&gt;Node3</title>
<path fill="none" stroke="midnightblue" d="M152.9,-28.1045C161.895,-26.8779 171.004,-25.6358 179.847,-24.4299"/>
<polygon fill="midnightblue" stroke="midnightblue" points="152.248,-24.661 142.813,-29.4801 153.194,-31.5968 152.248,-24.661"/>
</g>
</g>
</svg>
