<?xml version="1.0" encoding="UTF-8" standalone="no"?>
<!DOCTYPE svg PUBLIC "-//W3C//DTD SVG 1.1//EN"
 "http://www.w3.org/Graphics/SVG/1.1/DTD/svg11.dtd">
<!-- Generated by graphviz version 2.36.0 (20140111.2315)
 -->
<!-- Title: SlowcontrolManager Pages: 1 -->
<svg width="112pt" height="154pt"
 viewBox="0.00 0.00 112.00 154.00" xmlns="http://www.w3.org/2000/svg" xmlns:xlink="http://www.w3.org/1999/xlink">
<g id="graph0" class="graph" transform="scale(1 1) rotate(0) translate(4 150)">
<title>SlowcontrolManager</title>
<polygon fill="white" stroke="none" points="-4,4 -4,-150 108,-150 108,4 -4,4"/>
<!-- Node1 -->
<g id="node1" class="node"><title>Node1</title>
<polygon fill="#bfbfbf" stroke="black" points="-0.5,-0.5 -0.5,-19.5 104.5,-19.5 104.5,-0.5 -0.5,-0.5"/>
<text text-anchor="middle" x="52" y="-7.5" font-family="Helvetica,sans-Serif" font-size="10.00">SlowcontrolManager</text>
</g>
<!-- Node2 -->
<g id="node2" class="node"><title>Node2</title>
<g id="a_node2"><a xlink:href="class_common.xhtml" target="_top" xlink:title="Common">
<polygon fill="white" stroke="black" points="24,-58.5 24,-77.5 80,-77.5 80,-58.5 24,-58.5"/>
<text text-anchor="middle" x="52" y="-65.5" font-family="Helvetica,sans-Serif" font-size="10.00">Common</text>
</a>
</g>
</g>
<!-- Node2&#45;&gt;Node1 -->
<g id="edge1" class="edge"><title>Node2&#45;&gt;Node1</title>
<path fill="none" stroke="midnightblue" d="M52,-47.953C52,-38.2875 52,-27.0312 52,-19.5052"/>
<polygon fill="midnightblue" stroke="midnightblue" points="48.5001,-48.25 52,-58.25 55.5001,-48.25 48.5001,-48.25"/>
</g>
<!-- Node3 -->
<g id="node3" class="node"><title>Node3</title>
<polygon fill="white" stroke="#bfbfbf" points="31.5,-126.5 31.5,-145.5 72.5,-145.5 72.5,-126.5 31.5,-126.5"/>
<text text-anchor="middle" x="52" y="-133.5" font-family="Helvetica,sans-Serif" font-size="10.00">string</text>
</g>
<!-- Node3&#45;&gt;Node2 -->
<g id="edge2" class="edge"><title>Node3&#45;&gt;Node2</title>
<path fill="none" stroke="#9a32cd" stroke-dasharray="5,2" d="M52,-116.041C52,-103.472 52,-87.5631 52,-77.8411"/>
<polygon fill="#9a32cd" stroke="#9a32cd" points="48.5001,-116.372 52,-126.372 55.5001,-116.372 48.5001,-116.372"/>
<text text-anchor="middle" x="73.5" y="-99.5" font-family="Helvetica,sans-Serif" font-size="10.00"> Message</text>
</g>
</g>
</svg>
