<?xml version="1.0" encoding="UTF-8" standalone="no"?>
<!DOCTYPE svg PUBLIC "-//W3C//DTD SVG 1.1//EN"
 "http://www.w3.org/Graphics/SVG/1.1/DTD/svg11.dtd">
<!-- Generated by graphviz version 2.36.0 (20140111.2315)
 -->
<!-- Title: DRSBoard::TimeData::FrequencyData Pages: 1 -->
<svg width="133pt" height="108pt"
 viewBox="0.00 0.00 133.00 108.00" xmlns="http://www.w3.org/2000/svg" xmlns:xlink="http://www.w3.org/1999/xlink">
<g id="graph0" class="graph" transform="scale(1 1) rotate(0) translate(4 104)">
<title>DRSBoard::TimeData::FrequencyData</title>
<polygon fill="white" stroke="none" points="-4,4 -4,-104 129,-104 129,4 -4,4"/>
<!-- Node1 -->
<g id="node1" class="node"><title>Node1</title>
<polygon fill="#bfbfbf" stroke="black" points="-0.5,-1 -0.5,-31 112.5,-31 112.5,-1 -0.5,-1"/>
<text text-anchor="start" x="7.5" y="-19" font-family="Helvetica,sans-Serif" font-size="10.00">DRSBoard::TimeData</text>
<text text-anchor="middle" x="56" y="-8" font-family="Helvetica,sans-Serif" font-size="10.00">::FrequencyData</text>
</g>
<!-- Node2 -->
<g id="node2" class="node"><title>Node2</title>
<polygon fill="white" stroke="#bfbfbf" points="6.5,-80.5 6.5,-99.5 51.5,-99.5 51.5,-80.5 6.5,-80.5"/>
<text text-anchor="middle" x="29" y="-87.5" font-family="Helvetica,sans-Serif" font-size="10.00">double</text>
</g>
<!-- Node2&#45;&gt;Node1 -->
<g id="edge1" class="edge"><title>Node2&#45;&gt;Node1</title>
<path fill="none" stroke="#9a32cd" stroke-dasharray="5,2" d="M34.2179,-70.3175C36.1708,-63.8247 38.5212,-56.5346 41,-50 43.366,-43.7628 46.3443,-37.033 49.0223,-31.2879"/>
<polygon fill="#9a32cd" stroke="#9a32cd" points="30.7708,-69.6389 31.3542,-80.2177 37.4951,-71.584 30.7708,-69.6389"/>
<text text-anchor="middle" x="51.5" y="-53.5" font-family="Helvetica,sans-Serif" font-size="10.00"> fBin</text>
</g>
<!-- Node3 -->
<g id="node3" class="node"><title>Node3</title>
<polygon fill="white" stroke="#bfbfbf" points="69.5,-80.5 69.5,-99.5 98.5,-99.5 98.5,-80.5 69.5,-80.5"/>
<text text-anchor="middle" x="84" y="-87.5" font-family="Helvetica,sans-Serif" font-size="10.00">int</text>
</g>
<!-- Node3&#45;&gt;Node1 -->
<g id="edge2" class="edge"><title>Node3&#45;&gt;Node1</title>
<path fill="none" stroke="#9a32cd" stroke-dasharray="5,2" d="M76.9351,-70.833C72.1616,-58.5584 65.949,-42.5832 61.5345,-31.2316"/>
<polygon fill="#9a32cd" stroke="#9a32cd" points="73.7915,-72.4064 80.6781,-80.4579 80.3156,-69.8693 73.7915,-72.4064"/>
<text text-anchor="middle" x="99" y="-53.5" font-family="Helvetica,sans-Serif" font-size="10.00"> fFrequency</text>
</g>
</g>
</svg>
