<?xml version="1.0" encoding="UTF-8" standalone="no"?>
<!DOCTYPE svg PUBLIC "-//W3C//DTD SVG 1.1//EN"
 "http://www.w3.org/Graphics/SVG/1.1/DTD/svg11.dtd">
<!-- Generated by graphviz version 2.36.0 (20140111.2315)
 -->
<!-- Title: DRS::DRS Pages: 1 -->
<svg width="308pt" height="218pt"
 viewBox="0.00 0.00 308.00 218.00" xmlns="http://www.w3.org/2000/svg" xmlns:xlink="http://www.w3.org/1999/xlink">
<g id="graph0" class="graph" transform="scale(1 1) rotate(0) translate(4 214)">
<title>DRS::DRS</title>
<polygon fill="white" stroke="none" points="-4,4 -4,-214 304,-214 304,4 -4,4"/>
<!-- Node1 -->
<g id="node1" class="node"><title>Node1</title>
<polygon fill="#bfbfbf" stroke="black" points="0,-95.5 0,-114.5 66,-114.5 66,-95.5 0,-95.5"/>
<text text-anchor="middle" x="33" y="-102.5" font-family="Helvetica,sans-Serif" font-size="10.00">DRS::DRS</text>
</g>
<!-- Node2 -->
<g id="node2" class="node"><title>Node2</title>
<g id="a_node2"><a xlink:href="musbstd_8h.xhtml#af9e37952b5569bacdac7a10b5f14466a" target="_top" xlink:title="musb_close">
<polygon fill="white" stroke="black" points="114.5,-190.5 114.5,-209.5 183.5,-209.5 183.5,-190.5 114.5,-190.5"/>
<text text-anchor="middle" x="149" y="-197.5" font-family="Helvetica,sans-Serif" font-size="10.00">musb_close</text>
</a>
</g>
</g>
<!-- Node1&#45;&gt;Node2 -->
<g id="edge1" class="edge"><title>Node1&#45;&gt;Node2</title>
<path fill="none" stroke="midnightblue" d="M40.4446,-114.67C51.4073,-130.47 75.1274,-161.965 102,-181 104.527,-182.79 107.249,-184.452 110.06,-185.985"/>
<polygon fill="midnightblue" stroke="midnightblue" points="108.698,-189.214 119.22,-190.449 111.764,-182.922 108.698,-189.214"/>
</g>
<!-- Node4 -->
<g id="node4" class="node"><title>Node4</title>
<g id="a_node4"><a xlink:href="musbstd_8h.xhtml#ac436afdc808c58827d2c9e051b7aec29" target="_top" xlink:title="musb_get_device">
<polygon fill="white" stroke="black" points="102.5,-152.5 102.5,-171.5 195.5,-171.5 195.5,-152.5 102.5,-152.5"/>
<text text-anchor="middle" x="149" y="-159.5" font-family="Helvetica,sans-Serif" font-size="10.00">musb_get_device</text>
</a>
</g>
</g>
<!-- Node1&#45;&gt;Node4 -->
<g id="edge3" class="edge"><title>Node1&#45;&gt;Node4</title>
<path fill="none" stroke="midnightblue" d="M49.9285,-114.605C63.532,-122.637 83.7394,-134.165 102,-143 105.85,-144.863 109.931,-146.716 114.01,-148.493"/>
<polygon fill="midnightblue" stroke="midnightblue" points="112.839,-151.798 123.413,-152.471 115.567,-145.351 112.839,-151.798"/>
</g>
<!-- Node5 -->
<g id="node5" class="node"><title>Node5</title>
<g id="a_node5"><a xlink:href="musbstd_8h.xhtml#ae500259e10511f08da6799b274fe2c44" target="_top" xlink:title="musb_open">
<polygon fill="white" stroke="black" points="115.5,-114.5 115.5,-133.5 182.5,-133.5 182.5,-114.5 115.5,-114.5"/>
<text text-anchor="middle" x="149" y="-121.5" font-family="Helvetica,sans-Serif" font-size="10.00">musb_open</text>
</a>
</g>
</g>
<!-- Node1&#45;&gt;Node5 -->
<g id="edge4" class="edge"><title>Node1&#45;&gt;Node5</title>
<path fill="none" stroke="midnightblue" d="M66.0587,-110.343C78.2185,-112.37 92.2645,-114.711 105.255,-116.876"/>
<polygon fill="midnightblue" stroke="midnightblue" points="104.951,-120.373 115.391,-118.565 106.102,-113.469 104.951,-120.373"/>
</g>
<!-- Node6 -->
<g id="node6" class="node"><title>Node6</title>
<g id="a_node6"><a xlink:href="musbstd_8h.xhtml#add40af613c41eb274367a0342232a4eb" target="_top" xlink:title="musb_read">
<polygon fill="white" stroke="black" points="116.5,-76.5 116.5,-95.5 181.5,-95.5 181.5,-76.5 116.5,-76.5"/>
<text text-anchor="middle" x="149" y="-83.5" font-family="Helvetica,sans-Serif" font-size="10.00">musb_read</text>
</a>
</g>
</g>
<!-- Node1&#45;&gt;Node6 -->
<g id="edge5" class="edge"><title>Node1&#45;&gt;Node6</title>
<path fill="none" stroke="midnightblue" d="M66.0587,-99.6569C78.5488,-97.5752 93.029,-95.1618 106.311,-92.9481"/>
<polygon fill="midnightblue" stroke="midnightblue" points="106.893,-96.3995 116.182,-91.303 105.743,-89.4947 106.893,-96.3995"/>
</g>
<!-- Node7 -->
<g id="node7" class="node"><title>Node7</title>
<g id="a_node7"><a xlink:href="musbstd_8h.xhtml#ac5b10b5150589f81a5da66792fc4cd93" target="_top" xlink:title="musb_write">
<polygon fill="white" stroke="black" points="115.5,-38.5 115.5,-57.5 182.5,-57.5 182.5,-38.5 115.5,-38.5"/>
<text text-anchor="middle" x="149" y="-45.5" font-family="Helvetica,sans-Serif" font-size="10.00">musb_write</text>
</a>
</g>
</g>
<!-- Node1&#45;&gt;Node7 -->
<g id="edge6" class="edge"><title>Node1&#45;&gt;Node7</title>
<path fill="none" stroke="midnightblue" d="M49.9285,-95.3946C63.532,-87.3631 83.7394,-75.8354 102,-67 105.85,-65.1371 109.931,-63.2843 114.01,-61.5073"/>
<polygon fill="midnightblue" stroke="midnightblue" points="115.567,-64.649 123.413,-57.5294 112.839,-58.2022 115.567,-64.649"/>
</g>
<!-- Node8 -->
<g id="node8" class="node"><title>Node8</title>
<g id="a_node8"><a xlink:href="_d_r_s_8cpp.xhtml#a434cf9bf0f0628d03b924189ceab42e8" target="_top" xlink:title="Sleep">
<polygon fill="white" stroke="black" points="128.5,-0.5 128.5,-19.5 169.5,-19.5 169.5,-0.5 128.5,-0.5"/>
<text text-anchor="middle" x="149" y="-7.5" font-family="Helvetica,sans-Serif" font-size="10.00">Sleep</text>
</a>
</g>
</g>
<!-- Node1&#45;&gt;Node8 -->
<g id="edge7" class="edge"><title>Node1&#45;&gt;Node8</title>
<path fill="none" stroke="midnightblue" d="M40.4446,-95.33C51.4073,-79.5295 75.1274,-48.0348 102,-29 107.059,-25.4165 112.896,-22.3492 118.677,-19.7903"/>
<polygon fill="midnightblue" stroke="midnightblue" points="120.231,-22.9377 128.206,-15.9623 117.622,-16.4422 120.231,-22.9377"/>
</g>
<!-- Node3 -->
<g id="node3" class="node"><title>Node3</title>
<g id="a_node3"><a xlink:href="musbstd_8c.xhtml#a89a4600dac16bea89237f9084d632183" target="_top" xlink:title="musb_reset">
<polygon fill="white" stroke="black" points="232,-190.5 232,-209.5 300,-209.5 300,-190.5 232,-190.5"/>
<text text-anchor="middle" x="266" y="-197.5" font-family="Helvetica,sans-Serif" font-size="10.00">musb_reset</text>
</a>
</g>
</g>
<!-- Node2&#45;&gt;Node3 -->
<g id="edge2" class="edge"><title>Node2&#45;&gt;Node3</title>
<path fill="none" stroke="midnightblue" d="M183.572,-200C195.485,-200 209.065,-200 221.675,-200"/>
<polygon fill="midnightblue" stroke="midnightblue" points="221.982,-203.5 231.982,-200 221.982,-196.5 221.982,-203.5"/>
</g>
</g>
</svg>
