<?xml version="1.0" encoding="UTF-8" standalone="no"?>
<!DOCTYPE svg PUBLIC "-//W3C//DTD SVG 1.1//EN"
 "http://www.w3.org/Graphics/SVG/1.1/DTD/svg11.dtd">
<!-- Generated by graphviz version 2.36.0 (20140111.2315)
 -->
<!-- Title: DRSBoard Pages: 1 -->
<svg width="1052pt" height="1102pt"
 viewBox="0.00 0.00 1052.00 1102.06" xmlns="http://www.w3.org/2000/svg" xmlns:xlink="http://www.w3.org/1999/xlink">
<g id="graph0" class="graph" transform="scale(1 1) rotate(0) translate(4 1098.06)">
<title>DRSBoard</title>
<polygon fill="white" stroke="none" points="-4,4 -4,-1098.06 1048,-1098.06 1048,4 -4,4"/>
<!-- Node1 -->
<g id="node1" class="node"><title>Node1</title>
<polygon fill="#bfbfbf" stroke="black" points="716,-466.56 716,-485.56 780,-485.56 780,-466.56 716,-466.56"/>
<text text-anchor="middle" x="748" y="-473.56" font-family="Helvetica,sans-Serif" font-size="10.00">DRSBoard</text>
</g>
<!-- Node9 -->
<g id="node9" class="node"><title>Node9</title>
<g id="a_node9"><a xlink:href="class_response_calibration.xhtml" target="_top" xlink:title="ResponseCalibration">
<polygon fill="white" stroke="black" points="936.5,-367.56 936.5,-386.56 1043.5,-386.56 1043.5,-367.56 936.5,-367.56"/>
<text text-anchor="middle" x="990" y="-374.56" font-family="Helvetica,sans-Serif" font-size="10.00">ResponseCalibration</text>
</a>
</g>
</g>
<!-- Node1&#45;&gt;Node9 -->
<g id="edge13" class="edge"><title>Node1&#45;&gt;Node9</title>
<path fill="none" stroke="#9a32cd" stroke-dasharray="5,2" d="M790.11,-472.46C825.546,-468.069 877.276,-458.515 918,-438.06 943.849,-425.076 968.077,-400.657 980.442,-386.982"/>
<polygon fill="#9a32cd" stroke="#9a32cd" points="789.651,-468.989 780.119,-473.615 790.455,-475.943 789.651,-468.989"/>
<text text-anchor="middle" x="869" y="-471.06" font-family="Helvetica,sans-Serif" font-size="10.00"> fBoard</text>
</g>
<!-- Node2 -->
<g id="node2" class="node"><title>Node2</title>
<polygon fill="white" stroke="#bfbfbf" points="0.5,-827.56 0.5,-846.56 45.5,-846.56 45.5,-827.56 0.5,-827.56"/>
<text text-anchor="middle" x="23" y="-834.56" font-family="Helvetica,sans-Serif" font-size="10.00">double</text>
</g>
<!-- Node2&#45;&gt;Node1 -->
<g id="edge1" class="edge"><title>Node2&#45;&gt;Node1</title>
<path fill="none" stroke="#9a32cd" stroke-dasharray="5,2" d="M55.78,-837.364C163.378,-838.154 509.621,-838.665 552,-813.06 682.754,-734.061 734.62,-531.901 744.981,-485.604"/>
<polygon fill="#9a32cd" stroke="#9a32cd" points="55.5882,-833.862 45.5606,-837.282 55.5324,-840.862 55.5882,-833.862"/>
<text text-anchor="middle" x="328" y="-949.06" font-family="Helvetica,sans-Serif" font-size="10.00"> fTrueFrequency</text>
<text text-anchor="middle" x="328" y="-938.06" font-family="Helvetica,sans-Serif" font-size="10.00">fCellGain</text>
<text text-anchor="middle" x="328" y="-927.06" font-family="Helvetica,sans-Serif" font-size="10.00">fTCALFrequency</text>
<text text-anchor="middle" x="328" y="-916.06" font-family="Helvetica,sans-Serif" font-size="10.00">fTimingCalibratedFrequency</text>
<text text-anchor="middle" x="328" y="-905.06" font-family="Helvetica,sans-Serif" font-size="10.00">fAcalVolt</text>
<text text-anchor="middle" x="328" y="-894.06" font-family="Helvetica,sans-Serif" font-size="10.00">fRange</text>
<text text-anchor="middle" x="328" y="-883.06" font-family="Helvetica,sans-Serif" font-size="10.00">fCellCalibratedRange</text>
<text text-anchor="middle" x="328" y="-872.06" font-family="Helvetica,sans-Serif" font-size="10.00">fbkAcalVolt</text>
<text text-anchor="middle" x="328" y="-861.06" font-family="Helvetica,sans-Serif" font-size="10.00">fCommonMode</text>
<text text-anchor="middle" x="328" y="-850.06" font-family="Helvetica,sans-Serif" font-size="10.00">fROFS</text>
<text text-anchor="middle" x="328" y="-839.06" font-family="Helvetica,sans-Serif" font-size="10.00">...</text>
</g>
<!-- Node4 -->
<g id="node4" class="node"><title>Node4</title>
<g id="a_node4"><a xlink:href="class_d_r_s_board_1_1_time_data_1_1_frequency_data.xhtml" target="_top" xlink:title="DRSBoard::TimeData\l::FrequencyData">
<polygon fill="white" stroke="black" points="134.5,-536.06 134.5,-566.06 247.5,-566.06 247.5,-536.06 134.5,-536.06"/>
<text text-anchor="start" x="142.5" y="-554.06" font-family="Helvetica,sans-Serif" font-size="10.00">DRSBoard::TimeData</text>
<text text-anchor="middle" x="191" y="-543.06" font-family="Helvetica,sans-Serif" font-size="10.00">::FrequencyData</text>
</a>
</g>
</g>
<!-- Node2&#45;&gt;Node4 -->
<g id="edge4" class="edge"><title>Node2&#45;&gt;Node4</title>
<path fill="none" stroke="#9a32cd" stroke-dasharray="5,2" d="M34.7117,-818.605C65.3893,-765.751 153.173,-614.509 181.251,-566.134"/>
<polygon fill="#9a32cd" stroke="#9a32cd" points="31.516,-817.138 29.5231,-827.544 37.5701,-820.652 31.516,-817.138"/>
<text text-anchor="middle" x="90" y="-771.06" font-family="Helvetica,sans-Serif" font-size="10.00"> fBin</text>
</g>
<!-- Node2&#45;&gt;Node9 -->
<g id="edge12" class="edge"><title>Node2&#45;&gt;Node9</title>
<path fill="none" stroke="#9a32cd" stroke-dasharray="5,2" d="M34.8888,-855.716C58.1987,-892.976 116.811,-973.06 190,-973.06 190,-973.06 190,-973.06 749,-973.06 880.904,-973.06 973.925,-464.399 987.331,-386.907"/>
<polygon fill="#9a32cd" stroke="#9a32cd" points="37.6818,-853.572 29.5002,-846.841 31.6982,-857.205 37.6818,-853.572"/>
<text text-anchor="middle" x="480" y="-1086.06" font-family="Helvetica,sans-Serif" font-size="10.00"> fTriggerFrequency</text>
<text text-anchor="middle" x="480" y="-1075.06" font-family="Helvetica,sans-Serif" font-size="10.00">fXXSave</text>
<text text-anchor="middle" x="480" y="-1064.06" font-family="Helvetica,sans-Serif" font-size="10.00">fYYSave</text>
<text text-anchor="middle" x="480" y="-1053.06" font-family="Helvetica,sans-Serif" font-size="10.00">fYYFitRes</text>
<text text-anchor="middle" x="480" y="-1042.06" font-family="Helvetica,sans-Serif" font-size="10.00">fGainMax</text>
<text text-anchor="middle" x="480" y="-1031.06" font-family="Helvetica,sans-Serif" font-size="10.00">fWWFit</text>
<text text-anchor="middle" x="480" y="-1020.06" font-family="Helvetica,sans-Serif" font-size="10.00">fYYFit</text>
<text text-anchor="middle" x="480" y="-1009.06" font-family="Helvetica,sans-Serif" font-size="10.00">fXXFit</text>
<text text-anchor="middle" x="480" y="-998.06" font-family="Helvetica,sans-Serif" font-size="10.00">fPrecision</text>
<text text-anchor="middle" x="480" y="-987.06" font-family="Helvetica,sans-Serif" font-size="10.00">fGainMin</text>
<text text-anchor="middle" x="480" y="-976.06" font-family="Helvetica,sans-Serif" font-size="10.00">...</text>
</g>
<!-- Node3 -->
<g id="node3" class="node"><title>Node3</title>
<g id="a_node3"><a xlink:href="class_d_r_s_board_1_1_time_data.xhtml" target="_top" xlink:title="DRSBoard::TimeData">
<polygon fill="white" stroke="black" points="423.5,-545.56 423.5,-564.56 536.5,-564.56 536.5,-545.56 423.5,-545.56"/>
<text text-anchor="middle" x="480" y="-552.56" font-family="Helvetica,sans-Serif" font-size="10.00">DRSBoard::TimeData</text>
</a>
</g>
</g>
<!-- Node3&#45;&gt;Node1 -->
<g id="edge2" class="edge"><title>Node3&#45;&gt;Node1</title>
<path fill="none" stroke="#9a32cd" stroke-dasharray="5,2" d="M546.995,-564.014C586.087,-566.53 635.693,-564.732 676,-547.06 706.014,-533.9 730.236,-501.778 740.986,-485.642"/>
<polygon fill="#9a32cd" stroke="#9a32cd" points="547.016,-560.505 536.781,-563.244 546.489,-567.486 547.016,-560.505"/>
<text text-anchor="middle" x="623" y="-568.06" font-family="Helvetica,sans-Serif" font-size="10.00"> fTimeData</text>
</g>
<!-- Node4&#45;&gt;Node3 -->
<g id="edge3" class="edge"><title>Node4&#45;&gt;Node3</title>
<path fill="none" stroke="#9a32cd" stroke-dasharray="5,2" d="M257.763,-551.976C307.872,-552.675 376.095,-553.626 423.478,-554.286"/>
<polygon fill="#9a32cd" stroke="#9a32cd" points="257.725,-548.476 247.677,-551.836 257.627,-555.475 257.725,-548.476"/>
<text text-anchor="middle" x="328" y="-557.06" font-family="Helvetica,sans-Serif" font-size="10.00"> fFrequency</text>
</g>
<!-- Node5 -->
<g id="node5" class="node"><title>Node5</title>
<polygon fill="white" stroke="#bfbfbf" points="8.5,-525.56 8.5,-544.56 37.5,-544.56 37.5,-525.56 8.5,-525.56"/>
<text text-anchor="middle" x="23" y="-532.56" font-family="Helvetica,sans-Serif" font-size="10.00">int</text>
</g>
<!-- Node5&#45;&gt;Node1 -->
<g id="edge9" class="edge"><title>Node5&#45;&gt;Node1</title>
<path fill="none" stroke="#9a32cd" stroke-dasharray="5,2" d="M34.4076,-553.338C41.3366,-563.554 51.4652,-575.349 64,-581.06 85.031,-590.642 92.8889,-581.08 116,-581.06 178.222,-581.004 621.005,-609.167 676,-580.06 714.645,-559.606 736.242,-507.635 743.842,-485.876"/>
<polygon fill="#9a32cd" stroke="#9a32cd" points="37.2304,-551.251 28.9666,-544.62 31.292,-554.957 37.2304,-551.251"/>
<text text-anchor="middle" x="328" y="-705.06" font-family="Helvetica,sans-Serif" font-size="10.00"> fDebug</text>
<text text-anchor="middle" x="328" y="-694.06" font-family="Helvetica,sans-Serif" font-size="10.00">fDelayedStart</text>
<text text-anchor="middle" x="328" y="-683.06" font-family="Helvetica,sans-Serif" font-size="10.00">fTriggerEnable1</text>
<text text-anchor="middle" x="328" y="-672.06" font-family="Helvetica,sans-Serif" font-size="10.00">fADCActive</text>
<text text-anchor="middle" x="328" y="-661.06" font-family="Helvetica,sans-Serif" font-size="10.00">fTransport</text>
<text text-anchor="middle" x="328" y="-650.06" font-family="Helvetica,sans-Serif" font-size="10.00">fDAC_TLEVEL2</text>
<text text-anchor="middle" x="328" y="-639.06" font-family="Helvetica,sans-Serif" font-size="10.00">fbkTcalFreq</text>
<text text-anchor="middle" x="328" y="-628.06" font-family="Helvetica,sans-Serif" font-size="10.00">fDecimation</text>
<text text-anchor="middle" x="328" y="-617.06" font-family="Helvetica,sans-Serif" font-size="10.00">fSyncDelay</text>
<text text-anchor="middle" x="328" y="-606.06" font-family="Helvetica,sans-Serif" font-size="10.00">fTriggerEnable2</text>
<text text-anchor="middle" x="328" y="-595.06" font-family="Helvetica,sans-Serif" font-size="10.00">...</text>
</g>
<!-- Node5&#45;&gt;Node3 -->
<g id="edge6" class="edge"><title>Node5&#45;&gt;Node3</title>
<path fill="none" stroke="#9a32cd" stroke-dasharray="5,2" d="M47.0984,-526.542C69.0881,-518.917 103.289,-508.305 134,-504.06 184.19,-497.123 197.632,-498.566 248,-504.06 284.949,-508.09 385.125,-531.916 440.651,-545.53"/>
<polygon fill="#9a32cd" stroke="#9a32cd" points="45.8846,-523.259 37.632,-529.903 48.2267,-529.855 45.8846,-523.259"/>
<text text-anchor="middle" x="191" y="-518.06" font-family="Helvetica,sans-Serif" font-size="10.00"> fNumberOfFrequencies</text>
<text text-anchor="middle" x="191" y="-507.06" font-family="Helvetica,sans-Serif" font-size="10.00">fChip</text>
</g>
<!-- Node5&#45;&gt;Node4 -->
<g id="edge5" class="edge"><title>Node5&#45;&gt;Node4</title>
<path fill="none" stroke="#9a32cd" stroke-dasharray="5,2" d="M47.9866,-534.084C66.5941,-533.625 93.0035,-533.626 116,-536.06 121.996,-536.694 128.227,-537.585 134.414,-538.62"/>
<polygon fill="#9a32cd" stroke="#9a32cd" points="47.6498,-530.593 37.7633,-534.402 47.8673,-537.589 47.6498,-530.593"/>
<text text-anchor="middle" x="90" y="-539.06" font-family="Helvetica,sans-Serif" font-size="10.00"> fFrequency</text>
</g>
<!-- Node5&#45;&gt;Node9 -->
<g id="edge17" class="edge"><title>Node5&#45;&gt;Node9</title>
<path fill="none" stroke="#9a32cd" stroke-dasharray="5,2" d="M32.8881,-553.848C39.9393,-567.324 50.7907,-585.284 64,-598.06 174.867,-705.292 238.614,-746.592 390,-717.06 641.931,-667.913 724.545,-651.76 918,-483.06 950.887,-454.381 975.203,-407.07 984.665,-386.786"/>
<polygon fill="#9a32cd" stroke="#9a32cd" points="35.8581,-551.961 28.2607,-544.576 29.5948,-555.087 35.8581,-551.961"/>
<text text-anchor="middle" x="480" y="-826.06" font-family="Helvetica,sans-Serif" font-size="10.00"> fCurrentSample</text>
<text text-anchor="middle" x="480" y="-815.06" font-family="Helvetica,sans-Serif" font-size="10.00">fCurrentFitChannel</text>
<text text-anchor="middle" x="480" y="-804.06" font-family="Helvetica,sans-Serif" font-size="10.00">fSampleUsed</text>
<text text-anchor="middle" x="480" y="-793.06" font-family="Helvetica,sans-Serif" font-size="10.00">fCurrentLowVoltPoint</text>
<text text-anchor="middle" x="480" y="-782.06" font-family="Helvetica,sans-Serif" font-size="10.00">fShowStatistics</text>
<text text-anchor="middle" x="480" y="-771.06" font-family="Helvetica,sans-Serif" font-size="10.00">fNumberOfXConstPoints</text>
<text text-anchor="middle" x="480" y="-760.06" font-family="Helvetica,sans-Serif" font-size="10.00">fNumberOfSamples</text>
<text text-anchor="middle" x="480" y="-749.06" font-family="Helvetica,sans-Serif" font-size="10.00">fNumberOfGridPoints</text>
<text text-anchor="middle" x="480" y="-738.06" font-family="Helvetica,sans-Serif" font-size="10.00">fNumberOfPoints</text>
<text text-anchor="middle" x="480" y="-727.06" font-family="Helvetica,sans-Serif" font-size="10.00">fCurrentPoint</text>
<text text-anchor="middle" x="480" y="-716.06" font-family="Helvetica,sans-Serif" font-size="10.00">...</text>
</g>
<!-- Node13 -->
<g id="node13" class="node"><title>Node13</title>
<g id="a_node13"><a xlink:href="class_response_calibration_1_1_calibration_data.xhtml" target="_top" xlink:title="ResponseCalibration\l::CalibrationData">
<polygon fill="white" stroke="black" points="694.5,-291.06 694.5,-321.06 801.5,-321.06 801.5,-291.06 694.5,-291.06"/>
<text text-anchor="start" x="702.5" y="-309.06" font-family="Helvetica,sans-Serif" font-size="10.00">ResponseCalibration</text>
<text text-anchor="middle" x="748" y="-298.06" font-family="Helvetica,sans-Serif" font-size="10.00">::CalibrationData</text>
</a>
</g>
</g>
<!-- Node5&#45;&gt;Node13 -->
<g id="edge26" class="edge"><title>Node5&#45;&gt;Node13</title>
<path fill="none" stroke="#9a32cd" stroke-dasharray="5,2" d="M42.7424,-518.866C49.2152,-513.735 56.6842,-508.301 64,-504.06 269.49,-384.927 335.679,-370.952 570,-332.06 611.67,-325.143 659.02,-318.238 694.254,-313.284"/>
<polygon fill="#9a32cd" stroke="#9a32cd" points="40.1383,-516.476 34.6411,-525.533 44.5866,-521.881 40.1383,-516.476"/>
<text text-anchor="middle" x="328" y="-416.06" font-family="Helvetica,sans-Serif" font-size="10.00"> fHasOffsetCalibration</text>
<text text-anchor="middle" x="328" y="-405.06" font-family="Helvetica,sans-Serif" font-size="10.00">fBSplineOffsetLookUp</text>
</g>
<!-- Node6 -->
<g id="node6" class="node"><title>Node6</title>
<polygon fill="white" stroke="#bfbfbf" points="173.5,-295.56 173.5,-314.56 208.5,-314.56 208.5,-295.56 173.5,-295.56"/>
<text text-anchor="middle" x="191" y="-302.56" font-family="Helvetica,sans-Serif" font-size="10.00">char</text>
</g>
<!-- Node6&#45;&gt;Node1 -->
<g id="edge7" class="edge"><title>Node6&#45;&gt;Node1</title>
<path fill="none" stroke="#9a32cd" stroke-dasharray="5,2" d="M207.397,-322.327C221.317,-336.891 243.088,-357.205 266,-369.06 421.76,-449.65 636.502,-469.784 715.882,-474.607"/>
<polygon fill="#9a32cd" stroke="#9a32cd" points="209.884,-319.862 200.514,-314.918 204.756,-324.626 209.884,-319.862"/>
<text text-anchor="middle" x="480" y="-481.06" font-family="Helvetica,sans-Serif" font-size="10.00"> fCalibDirectory</text>
<text text-anchor="middle" x="480" y="-470.06" font-family="Helvetica,sans-Serif" font-size="10.00">fStopWSR</text>
<text text-anchor="middle" x="480" y="-459.06" font-family="Helvetica,sans-Serif" font-size="10.00">fWaveforms</text>
</g>
<!-- Node6&#45;&gt;Node13 -->
<g id="edge25" class="edge"><title>Node6&#45;&gt;Node13</title>
<path fill="none" stroke="#9a32cd" stroke-dasharray="5,2" d="M218.633,-305.108C304.947,-305.263 578.074,-305.755 694.069,-305.964"/>
<polygon fill="#9a32cd" stroke="#9a32cd" points="218.616,-301.608 208.61,-305.09 218.604,-308.608 218.616,-301.608"/>
<text text-anchor="middle" x="480" y="-320.06" font-family="Helvetica,sans-Serif" font-size="10.00"> fNumberOfGridPoints</text>
<text text-anchor="middle" x="480" y="-309.06" font-family="Helvetica,sans-Serif" font-size="10.00">fNumberOfLimitGroups</text>
</g>
<!-- Node14 -->
<g id="node14" class="node"><title>Node14</title>
<g id="a_node14"><a xlink:href="class_response_calibration_1_1_calibration_data_1_1_calibration_data_channel.xhtml" target="_top" xlink:title="ResponseCalibration\l::CalibrationData::Calibration\lDataChannel">
<polygon fill="white" stroke="black" points="408.5,-204.56 408.5,-245.56 551.5,-245.56 551.5,-204.56 408.5,-204.56"/>
<text text-anchor="start" x="416.5" y="-233.56" font-family="Helvetica,sans-Serif" font-size="10.00">ResponseCalibration</text>
<text text-anchor="start" x="416.5" y="-222.56" font-family="Helvetica,sans-Serif" font-size="10.00">::CalibrationData::Calibration</text>
<text text-anchor="middle" x="480" y="-211.56" font-family="Helvetica,sans-Serif" font-size="10.00">DataChannel</text>
</a>
</g>
</g>
<!-- Node6&#45;&gt;Node14 -->
<g id="edge23" class="edge"><title>Node6&#45;&gt;Node14</title>
<path fill="none" stroke="#9a32cd" stroke-dasharray="5,2" d="M214.07,-289.887C228.3,-280.788 247.535,-269.725 266,-263.06 272.823,-260.597 348.992,-247.266 408.319,-237.082"/>
<polygon fill="#9a32cd" stroke="#9a32cd" points="211.936,-287.101 205.5,-295.516 215.779,-292.951 211.936,-287.101"/>
<text text-anchor="middle" x="328" y="-288.06" font-family="Helvetica,sans-Serif" font-size="10.00"> fLimitGroup</text>
<text text-anchor="middle" x="328" y="-277.06" font-family="Helvetica,sans-Serif" font-size="10.00">fNumberOfLookUpPoints</text>
<text text-anchor="middle" x="328" y="-266.06" font-family="Helvetica,sans-Serif" font-size="10.00">fLookUp</text>
</g>
<!-- Node7 -->
<g id="node7" class="node"><title>Node7</title>
<polygon fill="white" stroke="#bfbfbf" points="440,-507.56 440,-526.56 520,-526.56 520,-507.56 440,-507.56"/>
<text text-anchor="middle" x="480" y="-514.56" font-family="Helvetica,sans-Serif" font-size="10.00">unsigned short</text>
</g>
<!-- Node7&#45;&gt;Node1 -->
<g id="edge8" class="edge"><title>Node7&#45;&gt;Node1</title>
<path fill="none" stroke="#9a32cd" stroke-dasharray="5,2" d="M519.706,-504.517C535.196,-499.938 553.297,-495.134 570,-492.06 620.524,-482.762 680.2,-478.79 715.751,-477.15"/>
<polygon fill="#9a32cd" stroke="#9a32cd" points="518.501,-501.225 509.945,-507.473 520.53,-507.924 518.501,-501.225"/>
<text text-anchor="middle" x="623" y="-539.06" font-family="Helvetica,sans-Serif" font-size="10.00"> fCellOffset2</text>
<text text-anchor="middle" x="623" y="-528.06" font-family="Helvetica,sans-Serif" font-size="10.00">fReadPointer</text>
<text text-anchor="middle" x="623" y="-517.06" font-family="Helvetica,sans-Serif" font-size="10.00">fCellOffset</text>
<text text-anchor="middle" x="623" y="-506.06" font-family="Helvetica,sans-Serif" font-size="10.00">fTriggerBus</text>
<text text-anchor="middle" x="623" y="-495.06" font-family="Helvetica,sans-Serif" font-size="10.00">fStopCell</text>
</g>
<!-- Node8 -->
<g id="node8" class="node"><title>Node8</title>
<polygon fill="white" stroke="#bfbfbf" points="462.5,-371.56 462.5,-390.56 497.5,-390.56 497.5,-371.56 462.5,-371.56"/>
<text text-anchor="middle" x="480" y="-378.56" font-family="Helvetica,sans-Serif" font-size="10.00">bool</text>
</g>
<!-- Node8&#45;&gt;Node1 -->
<g id="edge10" class="edge"><title>Node8&#45;&gt;Node1</title>
<path fill="none" stroke="#9a32cd" stroke-dasharray="5,2" d="M507.826,-382.635C554.492,-385.788 648.285,-394.079 676,-411.06 687.674,-418.213 684.428,-426.27 694,-436.06 705.444,-447.764 720.499,-458.791 731.639,-466.291"/>
<polygon fill="#9a32cd" stroke="#9a32cd" points="507.774,-379.124 497.57,-381.973 507.324,-386.11 507.774,-379.124"/>
<text text-anchor="middle" x="623" y="-436.06" font-family="Helvetica,sans-Serif" font-size="10.00"> fWaveTransferred</text>
<text text-anchor="middle" x="623" y="-425.06" font-family="Helvetica,sans-Serif" font-size="10.00">fVoltageCalibrationValid</text>
<text text-anchor="middle" x="623" y="-414.06" font-family="Helvetica,sans-Serif" font-size="10.00">fADCClkInvert</text>
</g>
<!-- Node8&#45;&gt;Node9 -->
<g id="edge18" class="edge"><title>Node8&#45;&gt;Node9</title>
<path fill="none" stroke="#9a32cd" stroke-dasharray="5,2" d="M507.897,-380.848C588.524,-380.213 829.239,-378.318 936.464,-377.473"/>
<polygon fill="#9a32cd" stroke="#9a32cd" points="507.585,-377.35 497.613,-380.929 507.641,-384.35 507.585,-377.35"/>
<text text-anchor="middle" x="748" y="-427.06" font-family="Helvetica,sans-Serif" font-size="10.00"> fFitted</text>
<text text-anchor="middle" x="748" y="-416.06" font-family="Helvetica,sans-Serif" font-size="10.00">fOffset</text>
<text text-anchor="middle" x="748" y="-405.06" font-family="Helvetica,sans-Serif" font-size="10.00">fCalibrationValid</text>
<text text-anchor="middle" x="748" y="-394.06" font-family="Helvetica,sans-Serif" font-size="10.00">fRecorded</text>
<text text-anchor="middle" x="748" y="-383.06" font-family="Helvetica,sans-Serif" font-size="10.00">fInitialized</text>
</g>
<!-- Node8&#45;&gt;Node13 -->
<g id="edge27" class="edge"><title>Node8&#45;&gt;Node13</title>
<path fill="none" stroke="#9a32cd" stroke-dasharray="5,2" d="M507.171,-371.758C524.791,-365.687 548.626,-357.845 570,-352.06 616.533,-339.465 629.456,-341.615 676,-329.06 684.757,-326.698 694.033,-323.908 702.891,-321.1"/>
<polygon fill="#9a32cd" stroke="#9a32cd" points="505.872,-368.504 497.58,-375.099 508.174,-375.115 505.872,-368.504"/>
<text text-anchor="middle" x="623" y="-355.06" font-family="Helvetica,sans-Serif" font-size="10.00"> fRead</text>
</g>
<!-- Node9&#45;&gt;Node1 -->
<g id="edge11" class="edge"><title>Node9&#45;&gt;Node1</title>
<path fill="none" stroke="#9a32cd" stroke-dasharray="5,2" d="M932.598,-388.999C898.939,-397.272 855.901,-409.9 820,-427.06 797.299,-437.91 773.816,-455.622 760.354,-466.517"/>
<polygon fill="#9a32cd" stroke="#9a32cd" points="933.816,-392.306 942.725,-386.571 932.184,-385.499 933.816,-392.306"/>
<text text-anchor="middle" x="869" y="-430.06" font-family="Helvetica,sans-Serif" font-size="10.00"> fResponseCalibration</text>
</g>
<!-- Node10 -->
<g id="node10" class="node"><title>Node10</title>
<polygon fill="white" stroke="#bfbfbf" points="172,-136.56 172,-155.56 210,-155.56 210,-136.56 172,-136.56"/>
<text text-anchor="middle" x="191" y="-143.56" font-family="Helvetica,sans-Serif" font-size="10.00">short</text>
</g>
<!-- Node10&#45;&gt;Node9 -->
<g id="edge14" class="edge"><title>Node10&#45;&gt;Node9</title>
<path fill="none" stroke="#9a32cd" stroke-dasharray="5,2" d="M215.754,-131.49C255.227,-109.351 335.382,-73.3885 390,-109.06 406.662,-119.942 392.101,-138.09 408,-150.06 504.014,-222.343 561.965,-148.119 676,-186.06 792.861,-224.941 815.549,-252.709 918,-321.06 940.201,-335.871 964.226,-355.706 977.862,-367.361"/>
<polygon fill="#9a32cd" stroke="#9a32cd" points="213.985,-128.47 207.079,-136.504 217.488,-134.53 213.985,-128.47"/>
<text text-anchor="middle" x="623" y="-233.06" font-family="Helvetica,sans-Serif" font-size="10.00"> fWaveFormOffsetADC</text>
<text text-anchor="middle" x="623" y="-222.06" font-family="Helvetica,sans-Serif" font-size="10.00">fSamples</text>
<text text-anchor="middle" x="623" y="-211.06" font-family="Helvetica,sans-Serif" font-size="10.00">fWaveFormOffset</text>
<text text-anchor="middle" x="623" y="-200.06" font-family="Helvetica,sans-Serif" font-size="10.00">fWaveFormMode2</text>
<text text-anchor="middle" x="623" y="-189.06" font-family="Helvetica,sans-Serif" font-size="10.00">fWaveFormMode3</text>
</g>
<!-- Node10&#45;&gt;Node14 -->
<g id="edge21" class="edge"><title>Node10&#45;&gt;Node14</title>
<path fill="none" stroke="#9a32cd" stroke-dasharray="5,2" d="M220.093,-152.338C233.901,-155.372 250.802,-159.008 266,-162.06 320.954,-173.095 336.5,-168.341 390,-185.06 406.331,-190.163 423.629,-197.466 438.589,-204.438"/>
<polygon fill="#9a32cd" stroke="#9a32cd" points="220.735,-148.896 210.215,-150.155 219.224,-155.731 220.735,-148.896"/>
<text text-anchor="middle" x="328" y="-232.06" font-family="Helvetica,sans-Serif" font-size="10.00"> fOffset</text>
<text text-anchor="middle" x="328" y="-221.06" font-family="Helvetica,sans-Serif" font-size="10.00">fData</text>
<text text-anchor="middle" x="328" y="-210.06" font-family="Helvetica,sans-Serif" font-size="10.00">fOffsetADC</text>
<text text-anchor="middle" x="328" y="-199.06" font-family="Helvetica,sans-Serif" font-size="10.00">fGain</text>
<text text-anchor="middle" x="328" y="-188.06" font-family="Helvetica,sans-Serif" font-size="10.00">fLookUpOffset</text>
</g>
<!-- Node11 -->
<g id="node11" class="node"><title>Node11</title>
<polygon fill="white" stroke="#bfbfbf" points="173.5,-60.5598 173.5,-79.5598 208.5,-79.5598 208.5,-60.5598 173.5,-60.5598"/>
<text text-anchor="middle" x="191" y="-67.5598" font-family="Helvetica,sans-Serif" font-size="10.00">float</text>
</g>
<!-- Node11&#45;&gt;Node9 -->
<g id="edge15" class="edge"><title>Node11&#45;&gt;Node9</title>
<path fill="none" stroke="#9a32cd" stroke-dasharray="5,2" d="M218.421,-61.1139C323.438,-27.3944 715.419,80.693 918,-110.06 957.111,-146.887 982.137,-323.689 987.783,-367.313"/>
<polygon fill="#9a32cd" stroke="#9a32cd" points="217.055,-57.878 208.635,-64.3097 219.228,-64.5321 217.055,-57.878"/>
<text text-anchor="middle" x="623" y="-108.06" font-family="Helvetica,sans-Serif" font-size="10.00"> fPntX</text>
<text text-anchor="middle" x="623" y="-97.0598" font-family="Helvetica,sans-Serif" font-size="10.00">fPntY</text>
<text text-anchor="middle" x="623" y="-86.0598" font-family="Helvetica,sans-Serif" font-size="10.00">fResX</text>
<text text-anchor="start" x="585" y="-75.0598" font-family="Helvetica,sans-Serif" font-size="10.00">fStatisticsApprox</text>
<text text-anchor="middle" x="623" y="-64.0598" font-family="Helvetica,sans-Serif" font-size="10.00">Ext</text>
<text text-anchor="middle" x="623" y="-53.0598" font-family="Helvetica,sans-Serif" font-size="10.00">fRes</text>
<text text-anchor="middle" x="623" y="-42.0598" font-family="Helvetica,sans-Serif" font-size="10.00">fUValues</text>
<text text-anchor="middle" x="623" y="-31.0598" font-family="Helvetica,sans-Serif" font-size="10.00">fResponseX</text>
<text text-anchor="middle" x="623" y="-20.0598" font-family="Helvetica,sans-Serif" font-size="10.00">fResponseY</text>
<text text-anchor="middle" x="623" y="-9.05982" font-family="Helvetica,sans-Serif" font-size="10.00">fStatisticsApprox</text>
</g>
<!-- Node11&#45;&gt;Node13 -->
<g id="edge24" class="edge"><title>Node11&#45;&gt;Node13</title>
<path fill="none" stroke="#9a32cd" stroke-dasharray="5,2" d="M219.047,-64.7491C286.657,-53.2157 463.9,-34.0278 552,-129.06 580.029,-159.294 541.78,-190.004 570,-220.06 603.353,-255.583 632.592,-225.922 676,-248.06 697.694,-259.123 718.817,-277.68 732.304,-290.821"/>
<polygon fill="#9a32cd" stroke="#9a32cd" points="218.035,-61.3746 208.809,-66.5831 219.269,-68.2649 218.035,-61.3746"/>
<text text-anchor="middle" x="480" y="-187.06" font-family="Helvetica,sans-Serif" font-size="10.00"> fIntRevers</text>
<text text-anchor="middle" x="480" y="-176.06" font-family="Helvetica,sans-Serif" font-size="10.00">fBSplineLookUp</text>
<text text-anchor="middle" x="480" y="-165.06" font-family="Helvetica,sans-Serif" font-size="10.00">fEndTemperature</text>
<text text-anchor="middle" x="480" y="-154.06" font-family="Helvetica,sans-Serif" font-size="10.00">fMin</text>
<text text-anchor="middle" x="480" y="-143.06" font-family="Helvetica,sans-Serif" font-size="10.00">fMax</text>
<text text-anchor="middle" x="480" y="-132.06" font-family="Helvetica,sans-Serif" font-size="10.00">fStartTemperature</text>
</g>
<!-- Node11&#45;&gt;Node14 -->
<g id="edge22" class="edge"><title>Node11&#45;&gt;Node14</title>
<path fill="none" stroke="#9a32cd" stroke-dasharray="5,2" d="M218.822,-75.5387C265.915,-85.4792 361.207,-107.118 390,-125.06 407.161,-135.753 442.11,-178.108 462.738,-204.144"/>
<polygon fill="#9a32cd" stroke="#9a32cd" points="219.253,-72.0533 208.748,-73.436 217.822,-78.9056 219.253,-72.0533"/>
<text text-anchor="middle" x="328" y="-150.06" font-family="Helvetica,sans-Serif" font-size="10.00"> fTempData</text>
<text text-anchor="middle" x="328" y="-139.06" font-family="Helvetica,sans-Serif" font-size="10.00">fRange</text>
<text text-anchor="middle" x="328" y="-128.06" font-family="Helvetica,sans-Serif" font-size="10.00">fMin</text>
</g>
<!-- Node12 -->
<g id="node12" class="node"><title>Node12</title>
<polygon fill="white" stroke="#bfbfbf" points="726,-116.56 726,-135.56 770,-135.56 770,-116.56 726,-116.56"/>
<text text-anchor="middle" x="748" y="-123.56" font-family="Helvetica,sans-Serif" font-size="10.00">FILE *</text>
</g>
<!-- Node12&#45;&gt;Node9 -->
<g id="edge16" class="edge"><title>Node12&#45;&gt;Node9</title>
<path fill="none" stroke="#9a32cd" stroke-dasharray="5,2" d="M780.388,-118.811C817.501,-112.21 879.123,-107.697 918,-139.06 991.664,-198.486 991.203,-330.977 989.574,-367.549"/>
<polygon fill="#9a32cd" stroke="#9a32cd" points="779.311,-115.455 770.16,-120.795 780.643,-122.327 779.311,-115.455"/>
<text text-anchor="middle" x="869" y="-142.06" font-family="Helvetica,sans-Serif" font-size="10.00"> fCalibFile</text>
</g>
<!-- Node13&#45;&gt;Node9 -->
<g id="edge19" class="edge"><title>Node13&#45;&gt;Node9</title>
<path fill="none" stroke="#9a32cd" stroke-dasharray="5,2" d="M811.493,-321.908C843.505,-330.32 883.01,-341.153 918,-352.06 933.096,-356.765 949.783,-362.608 963.185,-367.461"/>
<polygon fill="#9a32cd" stroke="#9a32cd" points="812.372,-318.521 801.812,-319.378 810.602,-325.293 812.372,-318.521"/>
<text text-anchor="middle" x="869" y="-355.06" font-family="Helvetica,sans-Serif" font-size="10.00"> fCalibrationData</text>
</g>
<!-- Node14&#45;&gt;Node13 -->
<g id="edge20" class="edge"><title>Node14&#45;&gt;Node13</title>
<path fill="none" stroke="#9a32cd" stroke-dasharray="5,2" d="M561.897,-243.266C564.63,-243.872 567.337,-244.472 570,-245.06 617.073,-255.456 630.758,-251.414 676,-268.06 692.27,-274.046 709.436,-283.148 722.814,-290.944"/>
<polygon fill="#9a32cd" stroke="#9a32cd" points="562.437,-239.8 551.915,-241.045 560.917,-246.633 562.437,-239.8"/>
<text text-anchor="middle" x="623" y="-271.06" font-family="Helvetica,sans-Serif" font-size="10.00"> fChannel</text>
</g>
</g>
</svg>
