<?xml version="1.0" encoding="UTF-8" standalone="no"?>
<!DOCTYPE svg PUBLIC "-//W3C//DTD SVG 1.1//EN"
 "http://www.w3.org/Graphics/SVG/1.1/DTD/svg11.dtd">
<!-- Generated by graphviz version 2.36.0 (20140111.2315)
 -->
<!-- Title: ADCManager::adc_readreg Pages: 1 -->
<svg width="418pt" height="142pt"
 viewBox="0.00 0.00 418.00 142.00" xmlns="http://www.w3.org/2000/svg" xmlns:xlink="http://www.w3.org/1999/xlink">
<g id="graph0" class="graph" transform="scale(1 1) rotate(0) translate(4 138)">
<title>ADCManager::adc_readreg</title>
<polygon fill="white" stroke="none" points="-4,4 -4,-138 414,-138 414,4 -4,4"/>
<!-- Node1 -->
<g id="node1" class="node"><title>Node1</title>
<polygon fill="#bfbfbf" stroke="black" points="0.5,-57.5 0.5,-76.5 135.5,-76.5 135.5,-57.5 0.5,-57.5"/>
<text text-anchor="middle" x="68" y="-64.5" font-family="Helvetica,sans-Serif" font-size="10.00">ADCManager::adc_readreg</text>
</g>
<!-- Node2 -->
<g id="node2" class="node"><title>Node2</title>
<g id="a_node2"><a xlink:href="class_a_d_c_manager.xhtml#a6284754ca6f683aaf3db3da92179aab2" target="_top" xlink:title="ADCManager::CalculateBaseLine">
<polygon fill="white" stroke="black" points="172,-114.5 172,-133.5 336,-133.5 336,-114.5 172,-114.5"/>
<text text-anchor="middle" x="254" y="-121.5" font-family="Helvetica,sans-Serif" font-size="10.00">ADCManager::CalculateBaseLine</text>
</a>
</g>
</g>
<!-- Node1&#45;&gt;Node2 -->
<g id="edge1" class="edge"><title>Node1&#45;&gt;Node2</title>
<path fill="none" stroke="midnightblue" d="M101.759,-80.2598C121.828,-88.0881 148.156,-97.8348 172,-105 183.481,-108.45 196.032,-111.66 207.753,-114.424"/>
<polygon fill="midnightblue" stroke="midnightblue" points="103.035,-77.0007 92.448,-76.5907 100.469,-83.5133 103.035,-77.0007"/>
</g>
<!-- Node4 -->
<g id="node4" class="node"><title>Node4</title>
<g id="a_node4"><a xlink:href="class_a_d_c_manager1720.xhtml#aae342ccd8bf1c253c455e195bfd82dfe" target="_top" xlink:title="ADCManager1720::Init">
<polygon fill="white" stroke="black" points="196,-76.5 196,-95.5 312,-95.5 312,-76.5 196,-76.5"/>
<text text-anchor="middle" x="254" y="-83.5" font-family="Helvetica,sans-Serif" font-size="10.00">ADCManager1720::Init</text>
</a>
</g>
</g>
<!-- Node1&#45;&gt;Node4 -->
<g id="edge3" class="edge"><title>Node1&#45;&gt;Node4</title>
<path fill="none" stroke="midnightblue" d="M145.999,-74.951C162.733,-76.679 180.148,-78.4772 195.947,-80.1087"/>
<polygon fill="midnightblue" stroke="midnightblue" points="145.995,-71.432 135.688,-73.8863 145.276,-78.395 145.995,-71.432"/>
</g>
<!-- Node5 -->
<g id="node5" class="node"><title>Node5</title>
<g id="a_node5"><a xlink:href="class_a_d_c_manager1724.xhtml#a6de2521b9c793edcf14aeaeefeb62787" target="_top" xlink:title="ADCManager1724::Init">
<polygon fill="white" stroke="black" points="196,-38.5 196,-57.5 312,-57.5 312,-38.5 196,-38.5"/>
<text text-anchor="middle" x="254" y="-45.5" font-family="Helvetica,sans-Serif" font-size="10.00">ADCManager1724::Init</text>
</a>
</g>
</g>
<!-- Node1&#45;&gt;Node5 -->
<g id="edge4" class="edge"><title>Node1&#45;&gt;Node5</title>
<path fill="none" stroke="midnightblue" d="M145.999,-59.049C162.733,-57.321 180.148,-55.5228 195.947,-53.8913"/>
<polygon fill="midnightblue" stroke="midnightblue" points="145.276,-55.605 135.688,-60.1137 145.995,-62.568 145.276,-55.605"/>
</g>
<!-- Node6 -->
<g id="node6" class="node"><title>Node6</title>
<g id="a_node6"><a xlink:href="class_a_d_c_manager1730.xhtml#adb6d45f2024f4a52d366a88d1c7f229d" target="_top" xlink:title="ADCManager1730::Init">
<polygon fill="white" stroke="black" points="196,-0.5 196,-19.5 312,-19.5 312,-0.5 196,-0.5"/>
<text text-anchor="middle" x="254" y="-7.5" font-family="Helvetica,sans-Serif" font-size="10.00">ADCManager1730::Init</text>
</a>
</g>
</g>
<!-- Node1&#45;&gt;Node6 -->
<g id="edge5" class="edge"><title>Node1&#45;&gt;Node6</title>
<path fill="none" stroke="midnightblue" d="M101.759,-53.7402C121.828,-45.9119 148.156,-36.1652 172,-29 183.481,-25.5497 196.032,-22.3395 207.753,-19.5764"/>
<polygon fill="midnightblue" stroke="midnightblue" points="100.469,-50.4867 92.448,-57.4093 103.035,-56.9993 100.469,-50.4867"/>
</g>
<!-- Node3 -->
<g id="node3" class="node"><title>Node3</title>
<g id="a_node3"><a xlink:href="_multi_d_a_q_8cpp.xhtml#adedb285b02c41bde2158ded9cc9fd7ac" target="_top" xlink:title="main">
<polygon fill="white" stroke="black" points="372,-114.5 372,-133.5 410,-133.5 410,-114.5 372,-114.5"/>
<text text-anchor="middle" x="391" y="-121.5" font-family="Helvetica,sans-Serif" font-size="10.00">main</text>
</a>
</g>
</g>
<!-- Node2&#45;&gt;Node3 -->
<g id="edge2" class="edge"><title>Node2&#45;&gt;Node3</title>
<path fill="none" stroke="midnightblue" d="M346.433,-124C355.981,-124 364.794,-124 371.96,-124"/>
<polygon fill="midnightblue" stroke="midnightblue" points="346.257,-120.5 336.257,-124 346.256,-127.5 346.257,-120.5"/>
</g>
</g>
</svg>
