<?xml version="1.0" encoding="UTF-8" standalone="no"?>
<!DOCTYPE svg PUBLIC "-//W3C//DTD SVG 1.1//EN"
 "http://www.w3.org/Graphics/SVG/1.1/DTD/svg11.dtd">
<!-- Generated by graphviz version 2.36.0 (20140111.2315)
 -->
<!-- Title: Averager::RobustAverage Pages: 1 -->
<svg width="362pt" height="66pt"
 viewBox="0.00 0.00 362.00 66.00" xmlns="http://www.w3.org/2000/svg" xmlns:xlink="http://www.w3.org/1999/xlink">
<g id="graph0" class="graph" transform="scale(1 1) rotate(0) translate(4 62)">
<title>Averager::RobustAverage</title>
<polygon fill="white" stroke="none" points="-4,4 -4,-62 358,-62 358,4 -4,4"/>
<!-- Node1 -->
<g id="node1" class="node"><title>Node1</title>
<polygon fill="#bfbfbf" stroke="black" points="0.5,-19.5 0.5,-38.5 129.5,-38.5 129.5,-19.5 0.5,-19.5"/>
<text text-anchor="middle" x="65" y="-26.5" font-family="Helvetica,sans-Serif" font-size="10.00">Averager::RobustAverage</text>
</g>
<!-- Node2 -->
<g id="node2" class="node"><title>Node2</title>
<g id="a_node2"><a xlink:href="class_d_r_s_board.xhtml#a8bab7dfd4d23b8721274dbad343fe980" target="_top" xlink:title="DRSBoard::AnalyzeSlope">
<polygon fill="white" stroke="black" points="195,-38.5 195,-57.5 325,-57.5 325,-38.5 195,-38.5"/>
<text text-anchor="middle" x="260" y="-45.5" font-family="Helvetica,sans-Serif" font-size="10.00">DRSBoard::AnalyzeSlope</text>
</a>
</g>
</g>
<!-- Node1&#45;&gt;Node2 -->
<g id="edge1" class="edge"><title>Node1&#45;&gt;Node2</title>
<path fill="none" stroke="midnightblue" d="M139.913,-36.2764C157.958,-38.0529 177.12,-39.9393 194.677,-41.6677"/>
<polygon fill="midnightblue" stroke="midnightblue" points="140.025,-32.7706 129.73,-35.274 139.339,-39.7369 140.025,-32.7706"/>
</g>
<!-- Node3 -->
<g id="node3" class="node"><title>Node3</title>
<g id="a_node3"><a xlink:href="class_d_r_s_board.xhtml#a6e16736c059a10a958a692aefc5dda48" target="_top" xlink:title="DRSBoard::RobustAverageWaveforms">
<polygon fill="white" stroke="black" points="166,-0.5 166,-19.5 354,-19.5 354,-0.5 166,-0.5"/>
<text text-anchor="middle" x="260" y="-7.5" font-family="Helvetica,sans-Serif" font-size="10.00">DRSBoard::RobustAverageWaveforms</text>
</a>
</g>
</g>
<!-- Node1&#45;&gt;Node3 -->
<g id="edge2" class="edge"><title>Node1&#45;&gt;Node3</title>
<path fill="none" stroke="midnightblue" d="M139.887,-21.7262C148.328,-20.8952 157.014,-20.0401 165.666,-19.1884"/>
<polygon fill="midnightblue" stroke="midnightblue" points="139.339,-18.2631 129.73,-22.726 140.025,-25.2294 139.339,-18.2631"/>
</g>
</g>
</svg>
