<?xml version="1.0" encoding="UTF-8" standalone="no"?>
<!DOCTYPE svg PUBLIC "-//W3C//DTD SVG 1.1//EN"
 "http://www.w3.org/Graphics/SVG/1.1/DTD/svg11.dtd">
<!-- Generated by graphviz version 2.36.0 (20140111.2315)
 -->
<!-- Title: ResponseCalibration::FitCalibrationPointsV4 Pages: 1 -->
<svg width="310pt" height="66pt"
 viewBox="0.00 0.00 310.00 66.00" xmlns="http://www.w3.org/2000/svg" xmlns:xlink="http://www.w3.org/1999/xlink">
<g id="graph0" class="graph" transform="scale(1 1) rotate(0) translate(4 62)">
<title>ResponseCalibration::FitCalibrationPointsV4</title>
<polygon fill="white" stroke="none" points="-4,4 -4,-62 306,-62 306,4 -4,4"/>
<!-- Node1 -->
<g id="node1" class="node"><title>Node1</title>
<polygon fill="#bfbfbf" stroke="black" points="0,-14 0,-44 120,-44 120,-14 0,-14"/>
<text text-anchor="start" x="8" y="-32" font-family="Helvetica,sans-Serif" font-size="10.00">ResponseCalibration</text>
<text text-anchor="middle" x="60" y="-21" font-family="Helvetica,sans-Serif" font-size="10.00">::FitCalibrationPointsV4</text>
</g>
<!-- Node2 -->
<g id="node2" class="node"><title>Node2</title>
<g id="a_node2"><a xlink:href="class_d_r_s_board.xhtml#a476bcdf1ad85be42f67858d3dbb57361" target="_top" xlink:title="DRSBoard::Debug">
<polygon fill="white" stroke="black" points="180,-38.5 180,-57.5 278,-57.5 278,-38.5 180,-38.5"/>
<text text-anchor="middle" x="229" y="-45.5" font-family="Helvetica,sans-Serif" font-size="10.00">DRSBoard::Debug</text>
</a>
</g>
</g>
<!-- Node1&#45;&gt;Node2 -->
<g id="edge1" class="edge"><title>Node1&#45;&gt;Node2</title>
<path fill="none" stroke="midnightblue" d="M120.348,-35.7522C136.344,-37.5721 153.635,-39.5393 169.58,-41.3534"/>
<polygon fill="midnightblue" stroke="midnightblue" points="169.505,-44.8674 179.837,-42.5203 170.297,-37.9123 169.505,-44.8674"/>
</g>
<!-- Node3 -->
<g id="node3" class="node"><title>Node3</title>
<g id="a_node3"><a xlink:href="class_d_r_s_board.xhtml#a9056fac6368f2c7d37fb52a77113b967" target="_top" xlink:title="DRSBoard::LinearRegression">
<polygon fill="white" stroke="black" points="156,-0.5 156,-19.5 302,-19.5 302,-0.5 156,-0.5"/>
<text text-anchor="middle" x="229" y="-7.5" font-family="Helvetica,sans-Serif" font-size="10.00">DRSBoard::LinearRegression</text>
</a>
</g>
</g>
<!-- Node1&#45;&gt;Node3 -->
<g id="edge2" class="edge"><title>Node1&#45;&gt;Node3</title>
<path fill="none" stroke="midnightblue" d="M120.348,-22.2478C128.636,-21.3048 137.272,-20.3224 145.888,-19.3421"/>
<polygon fill="midnightblue" stroke="midnightblue" points="146.431,-22.803 155.971,-18.1949 145.639,-15.8479 146.431,-22.803"/>
</g>
</g>
</svg>
