<?xml version="1.0" encoding="UTF-8" standalone="no"?>
<!DOCTYPE svg PUBLIC "-//W3C//DTD SVG 1.1//EN"
 "http://www.w3.org/Graphics/SVG/1.1/DTD/svg11.dtd">
<!-- Generated by graphviz version 2.36.0 (20140111.2315)
 -->
<!-- Title: ResponseCalibration::CalibrationTrigger Pages: 1 -->
<svg width="278pt" height="180pt"
 viewBox="0.00 0.00 278.00 180.00" xmlns="http://www.w3.org/2000/svg" xmlns:xlink="http://www.w3.org/1999/xlink">
<g id="graph0" class="graph" transform="scale(1 1) rotate(0) translate(4 176)">
<title>ResponseCalibration::CalibrationTrigger</title>
<polygon fill="white" stroke="none" points="-4,4 -4,-176 274,-176 274,4 -4,4"/>
<!-- Node1 -->
<g id="node1" class="node"><title>Node1</title>
<polygon fill="#bfbfbf" stroke="black" points="0.5,-71 0.5,-101 107.5,-101 107.5,-71 0.5,-71"/>
<text text-anchor="start" x="8.5" y="-89" font-family="Helvetica,sans-Serif" font-size="10.00">ResponseCalibration</text>
<text text-anchor="middle" x="54" y="-78" font-family="Helvetica,sans-Serif" font-size="10.00">::CalibrationTrigger</text>
</g>
<!-- Node2 -->
<g id="node2" class="node"><title>Node2</title>
<g id="a_node2"><a xlink:href="class_d_r_s_board.xhtml#a95d34a77cb2c7b806e306890a097398d" target="_top" xlink:title="DRSBoard::EnableAcal">
<polygon fill="white" stroke="black" points="147.5,-152.5 147.5,-171.5 266.5,-171.5 266.5,-152.5 147.5,-152.5"/>
<text text-anchor="middle" x="207" y="-159.5" font-family="Helvetica,sans-Serif" font-size="10.00">DRSBoard::EnableAcal</text>
</a>
</g>
</g>
<!-- Node1&#45;&gt;Node2 -->
<g id="edge1" class="edge"><title>Node1&#45;&gt;Node2</title>
<path fill="none" stroke="midnightblue" d="M74.9453,-101.027C92.4098,-113.622 118.856,-131.362 144,-143 148.917,-145.276 154.176,-147.367 159.475,-149.264"/>
<polygon fill="midnightblue" stroke="midnightblue" points="158.397,-152.594 168.991,-152.463 160.628,-145.959 158.397,-152.594"/>
</g>
<!-- Node3 -->
<g id="node3" class="node"><title>Node3</title>
<g id="a_node3"><a xlink:href="class_d_r_s_board.xhtml#a69328e822828c454b02ac3e0e3423193" target="_top" xlink:title="DRSBoard::IsBusy">
<polygon fill="white" stroke="black" points="156.5,-114.5 156.5,-133.5 257.5,-133.5 257.5,-114.5 156.5,-114.5"/>
<text text-anchor="middle" x="207" y="-121.5" font-family="Helvetica,sans-Serif" font-size="10.00">DRSBoard::IsBusy</text>
</a>
</g>
</g>
<!-- Node1&#45;&gt;Node3 -->
<g id="edge2" class="edge"><title>Node1&#45;&gt;Node3</title>
<path fill="none" stroke="midnightblue" d="M107.812,-99.2906C124.293,-103.438 142.363,-107.986 158.46,-112.036"/>
<polygon fill="midnightblue" stroke="midnightblue" points="157.643,-115.44 168.195,-114.486 159.351,-108.651 157.643,-115.44"/>
</g>
<!-- Node4 -->
<g id="node4" class="node"><title>Node4</title>
<g id="a_node4"><a xlink:href="class_d_r_s_board.xhtml#a125b88d648467d76be28f33ce6829150" target="_top" xlink:title="DRSBoard::Reinit">
<polygon fill="white" stroke="black" points="159.5,-76.5 159.5,-95.5 254.5,-95.5 254.5,-76.5 159.5,-76.5"/>
<text text-anchor="middle" x="207" y="-83.5" font-family="Helvetica,sans-Serif" font-size="10.00">DRSBoard::Reinit</text>
</a>
</g>
</g>
<!-- Node1&#45;&gt;Node4 -->
<g id="edge3" class="edge"><title>Node1&#45;&gt;Node4</title>
<path fill="none" stroke="midnightblue" d="M107.812,-86C121.096,-86 135.412,-86 148.895,-86"/>
<polygon fill="midnightblue" stroke="midnightblue" points="149.012,-89.5001 159.012,-86 149.012,-82.5001 149.012,-89.5001"/>
</g>
<!-- Node5 -->
<g id="node5" class="node"><title>Node5</title>
<g id="a_node5"><a xlink:href="class_d_r_s_board.xhtml#a85fad0cbe2b744a9c5788cdd14cd279c" target="_top" xlink:title="DRSBoard::SoftTrigger">
<polygon fill="white" stroke="black" points="148,-38.5 148,-57.5 266,-57.5 266,-38.5 148,-38.5"/>
<text text-anchor="middle" x="207" y="-45.5" font-family="Helvetica,sans-Serif" font-size="10.00">DRSBoard::SoftTrigger</text>
</a>
</g>
</g>
<!-- Node1&#45;&gt;Node5 -->
<g id="edge4" class="edge"><title>Node1&#45;&gt;Node5</title>
<path fill="none" stroke="midnightblue" d="M107.812,-72.7094C124.293,-68.562 142.363,-64.0145 158.46,-59.9638"/>
<polygon fill="midnightblue" stroke="midnightblue" points="159.351,-63.3486 168.195,-57.5139 157.643,-56.5603 159.351,-63.3486"/>
</g>
<!-- Node6 -->
<g id="node6" class="node"><title>Node6</title>
<g id="a_node6"><a xlink:href="class_d_r_s_board.xhtml#aa1f458803cbed423b2f45dec50d7548e" target="_top" xlink:title="DRSBoard::StartDomino">
<polygon fill="white" stroke="black" points="144.5,-0.5 144.5,-19.5 269.5,-19.5 269.5,-0.5 144.5,-0.5"/>
<text text-anchor="middle" x="207" y="-7.5" font-family="Helvetica,sans-Serif" font-size="10.00">DRSBoard::StartDomino</text>
</a>
</g>
</g>
<!-- Node1&#45;&gt;Node6 -->
<g id="edge5" class="edge"><title>Node1&#45;&gt;Node6</title>
<path fill="none" stroke="midnightblue" d="M74.9453,-70.9725C92.4098,-58.378 118.856,-40.6381 144,-29 148.917,-26.7242 154.176,-24.6326 159.475,-22.7364"/>
<polygon fill="midnightblue" stroke="midnightblue" points="160.628,-26.0412 168.991,-19.5366 158.397,-19.4063 160.628,-26.0412"/>
</g>
</g>
</svg>
