<?xml version="1.0" encoding="UTF-8" standalone="no"?>
<!DOCTYPE svg PUBLIC "-//W3C//DTD SVG 1.1//EN"
 "http://www.w3.org/Graphics/SVG/1.1/DTD/svg11.dtd">
<!-- Generated by graphviz version 2.36.0 (20140111.2315)
 -->
<!-- Title: DRSBoard::Write Pages: 1 -->
<svg width="206pt" height="66pt"
 viewBox="0.00 0.00 206.00 66.00" xmlns="http://www.w3.org/2000/svg" xmlns:xlink="http://www.w3.org/1999/xlink">
<g id="graph0" class="graph" transform="scale(1 1) rotate(0) translate(4 62)">
<title>DRSBoard::Write</title>
<polygon fill="white" stroke="none" points="-4,4 -4,-62 202,-62 202,4 -4,4"/>
<!-- Node1 -->
<g id="node1" class="node"><title>Node1</title>
<polygon fill="#bfbfbf" stroke="black" points="0.5,-19.5 0.5,-38.5 93.5,-38.5 93.5,-19.5 0.5,-19.5"/>
<text text-anchor="middle" x="47" y="-26.5" font-family="Helvetica,sans-Serif" font-size="10.00">DRSBoard::Write</text>
</g>
<!-- Node2 -->
<g id="node2" class="node"><title>Node2</title>
<g id="a_node2"><a xlink:href="musbstd_8h.xhtml#add40af613c41eb274367a0342232a4eb" target="_top" xlink:title="musb_read">
<polygon fill="white" stroke="black" points="131.5,-38.5 131.5,-57.5 196.5,-57.5 196.5,-38.5 131.5,-38.5"/>
<text text-anchor="middle" x="164" y="-45.5" font-family="Helvetica,sans-Serif" font-size="10.00">musb_read</text>
</a>
</g>
</g>
<!-- Node1&#45;&gt;Node2 -->
<g id="edge1" class="edge"><title>Node1&#45;&gt;Node2</title>
<path fill="none" stroke="midnightblue" d="M93.7815,-36.5639C102.785,-38.0515 112.19,-39.6053 121.06,-41.0708"/>
<polygon fill="midnightblue" stroke="midnightblue" points="120.734,-44.5644 131.171,-42.7413 121.876,-37.658 120.734,-44.5644"/>
</g>
<!-- Node3 -->
<g id="node3" class="node"><title>Node3</title>
<g id="a_node3"><a xlink:href="musbstd_8h.xhtml#ac5b10b5150589f81a5da66792fc4cd93" target="_top" xlink:title="musb_write">
<polygon fill="white" stroke="black" points="130.5,-0.5 130.5,-19.5 197.5,-19.5 197.5,-0.5 130.5,-0.5"/>
<text text-anchor="middle" x="164" y="-7.5" font-family="Helvetica,sans-Serif" font-size="10.00">musb_write</text>
</a>
</g>
</g>
<!-- Node1&#45;&gt;Node3 -->
<g id="edge2" class="edge"><title>Node1&#45;&gt;Node3</title>
<path fill="none" stroke="midnightblue" d="M93.7815,-21.4361C102.605,-19.9782 111.814,-18.4569 120.527,-17.0173"/>
<polygon fill="midnightblue" stroke="midnightblue" points="121.18,-20.4569 130.476,-15.3736 120.039,-13.5506 121.18,-20.4569"/>
</g>
</g>
</svg>
