<?xml version="1.0" encoding="UTF-8" standalone="no"?>
<!DOCTYPE svg PUBLIC "-//W3C//DTD SVG 1.1//EN"
 "http://www.w3.org/Graphics/SVG/1.1/DTD/svg11.dtd">
<!-- Generated by graphviz version 2.36.0 (20140111.2315)
 -->
<!-- Title: DRSBoard::GetTimeCalibration Pages: 1 -->
<svg width="866pt" height="680pt"
 viewBox="0.00 0.00 866.00 680.21" xmlns="http://www.w3.org/2000/svg" xmlns:xlink="http://www.w3.org/1999/xlink">
<g id="graph0" class="graph" transform="scale(1 1) rotate(0) translate(4 676.208)">
<title>DRSBoard::GetTimeCalibration</title>
<polygon fill="white" stroke="none" points="-4,4 -4,-676.208 862,-676.208 862,4 -4,4"/>
<!-- Node1 -->
<g id="node1" class="node"><title>Node1</title>
<polygon fill="#bfbfbf" stroke="black" points="0,-305.433 0,-324.433 154,-324.433 154,-305.433 0,-305.433"/>
<text text-anchor="middle" x="77" y="-312.433" font-family="Helvetica,sans-Serif" font-size="10.00">DRSBoard::GetTimeCalibration</text>
</g>
<!-- Node2 -->
<g id="node2" class="node"><title>Node2</title>
<g id="a_node2"><a xlink:href="mxml_8h.xhtml#a43e02c5111b428f22b1032a318ffe29f" target="_top" xlink:title="mxml_find_node">
<polygon fill="white" stroke="black" points="190,-343.433 190,-362.433 278,-362.433 278,-343.433 190,-343.433"/>
<text text-anchor="middle" x="234" y="-350.433" font-family="Helvetica,sans-Serif" font-size="10.00">mxml_find_node</text>
</a>
</g>
</g>
<!-- Node1&#45;&gt;Node2 -->
<g id="edge1" class="edge"><title>Node1&#45;&gt;Node2</title>
<path fill="none" stroke="midnightblue" d="M117.113,-324.522C137.475,-329.514 162.566,-335.665 184.189,-340.966"/>
<polygon fill="midnightblue" stroke="midnightblue" points="183.622,-344.431 194.168,-343.413 185.289,-337.633 183.622,-344.431"/>
</g>
<!-- Node11 -->
<g id="node11" class="node"><title>Node11</title>
<g id="a_node11"><a xlink:href="mxml_8h.xhtml#a028673d16c059e7ee6f012941b0ce54b" target="_top" xlink:title="mxml_free_tree">
<polygon fill="white" stroke="black" points="322,-647.433 322,-666.433 406,-666.433 406,-647.433 322,-647.433"/>
<text text-anchor="middle" x="364" y="-654.433" font-family="Helvetica,sans-Serif" font-size="10.00">mxml_free_tree</text>
</a>
</g>
</g>
<!-- Node1&#45;&gt;Node11 -->
<g id="edge11" class="edge"><title>Node1&#45;&gt;Node11</title>
<path fill="none" stroke="midnightblue" d="M82.8782,-324.535C104.536,-366.355 196.138,-534.883 314,-632.933 318.369,-636.568 323.382,-639.817 328.497,-642.662"/>
<polygon fill="midnightblue" stroke="midnightblue" points="327.196,-645.927 337.696,-647.342 330.37,-639.688 327.196,-645.927"/>
</g>
<!-- Node12 -->
<g id="node12" class="node"><title>Node12</title>
<g id="a_node12"><a xlink:href="mxml_8h.xhtml#afb95455569ca0ed5410fad0f10f912c1" target="_top" xlink:title="mxml_get_value">
<polygon fill="white" stroke="black" points="190,-229.433 190,-248.433 278,-248.433 278,-229.433 190,-229.433"/>
<text text-anchor="middle" x="234" y="-236.433" font-family="Helvetica,sans-Serif" font-size="10.00">mxml_get_value</text>
</a>
</g>
</g>
<!-- Node1&#45;&gt;Node12 -->
<g id="edge13" class="edge"><title>Node1&#45;&gt;Node12</title>
<path fill="none" stroke="midnightblue" d="M96.0838,-305.344C118.1,-293.76 156.497,-273.846 190,-257.933 193.629,-256.21 197.451,-254.447 201.259,-252.723"/>
<polygon fill="midnightblue" stroke="midnightblue" points="202.872,-255.836 210.577,-248.564 200.018,-249.444 202.872,-255.836"/>
</g>
<!-- Node13 -->
<g id="node13" class="node"><title>Node13</title>
<g id="a_node13"><a xlink:href="mxml_8h.xhtml#a0ebae029488c0bca9001b86916abe5ca" target="_top" xlink:title="mxml_parse_file">
<polygon fill="white" stroke="black" points="190,-305.433 190,-324.433 278,-324.433 278,-305.433 190,-305.433"/>
<text text-anchor="middle" x="234" y="-312.433" font-family="Helvetica,sans-Serif" font-size="10.00">mxml_parse_file</text>
</a>
</g>
</g>
<!-- Node1&#45;&gt;Node13 -->
<g id="edge14" class="edge"><title>Node1&#45;&gt;Node13</title>
<path fill="none" stroke="midnightblue" d="M154.138,-314.933C162.751,-314.933 171.386,-314.933 179.618,-314.933"/>
<polygon fill="midnightblue" stroke="midnightblue" points="179.798,-318.433 189.798,-314.933 179.798,-311.433 179.798,-318.433"/>
</g>
<!-- Node26 -->
<g id="node26" class="node"><title>Node26</title>
<g id="a_node26"><a xlink:href="mxml_8h.xhtml#a77bc20aac65b3c46df4b08aeb52b2686" target="_top" xlink:title="mxml_subnode">
<polygon fill="white" stroke="black" points="192.5,-267.433 192.5,-286.433 275.5,-286.433 275.5,-267.433 192.5,-267.433"/>
<text text-anchor="middle" x="234" y="-274.433" font-family="Helvetica,sans-Serif" font-size="10.00">mxml_subnode</text>
</a>
</g>
</g>
<!-- Node1&#45;&gt;Node26 -->
<g id="edge49" class="edge"><title>Node1&#45;&gt;Node26</title>
<path fill="none" stroke="midnightblue" d="M117.113,-305.344C137.475,-300.352 162.566,-294.201 184.189,-288.9"/>
<polygon fill="midnightblue" stroke="midnightblue" points="185.289,-292.234 194.168,-286.453 183.622,-285.435 185.289,-292.234"/>
</g>
<!-- Node3 -->
<g id="node3" class="node"><title>Node3</title>
<g id="a_node3"><a xlink:href="mxml_8c.xhtml#a6dc97d9bb89977574a5f5cff952f3550" target="_top" xlink:title="mxml_find_nodes">
<polygon fill="white" stroke="black" points="317.5,-172.433 317.5,-191.433 410.5,-191.433 410.5,-172.433 317.5,-172.433"/>
<text text-anchor="middle" x="364" y="-179.433" font-family="Helvetica,sans-Serif" font-size="10.00">mxml_find_nodes</text>
</a>
</g>
</g>
<!-- Node2&#45;&gt;Node3 -->
<g id="edge2" class="edge"><title>Node2&#45;&gt;Node3</title>
<path fill="none" stroke="midnightblue" d="M265.218,-343.3C269.923,-340.808 274.407,-337.725 278,-333.933 309.056,-301.158 290.935,-277.75 314,-238.933 322.712,-224.272 335.299,-209.725 345.534,-198.997"/>
<polygon fill="midnightblue" stroke="midnightblue" points="348.29,-201.185 352.799,-191.598 343.295,-196.281 348.29,-201.185"/>
</g>
<!-- Node10 -->
<g id="node10" class="node"><title>Node10</title>
<g id="a_node10"><a xlink:href="mxml_8c.xhtml#abca607b102fe0f2c063f39eb0259994c" target="_top" xlink:title="mxml_free">
<polygon fill="white" stroke="black" points="790,-552.433 790,-571.433 852,-571.433 852,-552.433 790,-552.433"/>
<text text-anchor="middle" x="821" y="-559.433" font-family="Helvetica,sans-Serif" font-size="10.00">mxml_free</text>
</a>
</g>
</g>
<!-- Node2&#45;&gt;Node10 -->
<g id="edge10" class="edge"><title>Node2&#45;&gt;Node10</title>
<path fill="none" stroke="midnightblue" d="M237.973,-362.559C251.756,-407.11 308.969,-591.283 314,-594.933 392.064,-651.568 653.774,-615.498 748,-594.933 764.54,-591.323 781.824,-583.553 795.31,-576.459"/>
<polygon fill="midnightblue" stroke="midnightblue" points="797.306,-579.356 804.395,-571.482 793.943,-573.217 797.306,-579.356"/>
</g>
<!-- Node4 -->
<g id="node4" class="node"><title>Node4</title>
<g id="a_node4"><a xlink:href="mxml_8c.xhtml#ab4b547074c15b19eae1b6f16050c75d9" target="_top" xlink:title="mxml_find_nodes1">
<polygon fill="white" stroke="black" points="463,-77.4331 463,-96.4331 561,-96.4331 561,-77.4331 463,-77.4331"/>
<text text-anchor="middle" x="512" y="-84.4331" font-family="Helvetica,sans-Serif" font-size="10.00">mxml_find_nodes1</text>
</a>
</g>
</g>
<!-- Node3&#45;&gt;Node4 -->
<g id="edge3" class="edge"><title>Node3&#45;&gt;Node4</title>
<path fill="none" stroke="midnightblue" d="M374.656,-172.04C389.638,-157.14 419.902,-128.786 450,-110.933 456.813,-106.892 464.432,-103.274 471.913,-100.147"/>
<polygon fill="midnightblue" stroke="midnightblue" points="473.234,-103.389 481.246,-96.456 470.66,-96.8795 473.234,-103.389"/>
</g>
<!-- Node5 -->
<g id="node5" class="node"><title>Node5</title>
<g id="a_node5"><a xlink:href="mxml_8c.xhtml#a6bcd06b8ff582dece9ba510e161284d5" target="_top" xlink:title="mxml_add_resultnode">
<polygon fill="white" stroke="black" points="623,-115.433 623,-134.433 735,-134.433 735,-115.433 623,-115.433"/>
<text text-anchor="middle" x="679" y="-122.433" font-family="Helvetica,sans-Serif" font-size="10.00">mxml_add_resultnode</text>
</a>
</g>
</g>
<!-- Node4&#45;&gt;Node5 -->
<g id="edge4" class="edge"><title>Node4&#45;&gt;Node5</title>
<path fill="none" stroke="midnightblue" d="M561.168,-91.8253C588.968,-97.2862 623.096,-105.416 647.272,-112.464"/>
<polygon fill="midnightblue" stroke="midnightblue" points="646.39,-115.854 656.976,-115.407 648.422,-109.155 646.39,-115.854"/>
</g>
<!-- Node8 -->
<g id="node8" class="node"><title>Node8</title>
<g id="a_node8"><a xlink:href="mxml_8c.xhtml#afaf8076733bb1e0a00b2f3248d180bbd" target="_top" xlink:title="mxml_get_attribute">
<polygon fill="white" stroke="black" points="629,-77.4331 629,-96.4331 729,-96.4331 729,-77.4331 629,-77.4331"/>
<text text-anchor="middle" x="679" y="-84.4331" font-family="Helvetica,sans-Serif" font-size="10.00">mxml_get_attribute</text>
</a>
</g>
</g>
<!-- Node4&#45;&gt;Node8 -->
<g id="edge8" class="edge"><title>Node4&#45;&gt;Node8</title>
<path fill="none" stroke="midnightblue" d="M561.168,-86.9331C579.23,-86.9331 599.962,-86.9331 618.902,-86.9331"/>
<polygon fill="midnightblue" stroke="midnightblue" points="618.913,-90.4332 628.913,-86.9331 618.913,-83.4332 618.913,-90.4332"/>
</g>
<!-- Node9 -->
<g id="node9" class="node"><title>Node9</title>
<g id="a_node9"><a xlink:href="strlcpy_8h.xhtml#af8c865b1f481801d8d1f0a8644be4bbc" target="_top" xlink:title="strlcpy">
<polygon fill="white" stroke="black" points="798,-162.433 798,-181.433 844,-181.433 844,-162.433 798,-162.433"/>
<text text-anchor="middle" x="821" y="-169.433" font-family="Helvetica,sans-Serif" font-size="10.00">strlcpy</text>
</a>
</g>
</g>
<!-- Node4&#45;&gt;Node9 -->
<g id="edge9" class="edge"><title>Node4&#45;&gt;Node9</title>
<path fill="none" stroke="midnightblue" d="M535.978,-77.3861C579.991,-60.6868 678.025,-31.2695 748,-67.9331 782.211,-85.8581 803.398,-128.24 813.31,-153.014"/>
<polygon fill="midnightblue" stroke="midnightblue" points="810.06,-154.317 816.872,-162.431 816.607,-151.84 810.06,-154.317"/>
</g>
<!-- Node5&#45;&gt;Node4 -->
<g id="edge5" class="edge"><title>Node5&#45;&gt;Node4</title>
<path fill="none" stroke="midnightblue" d="M622.828,-118.636C596.609,-113.275 566.239,-105.949 544.089,-99.5077"/>
<polygon fill="midnightblue" stroke="midnightblue" points="544.818,-96.0717 534.233,-96.5254 542.791,-102.772 544.818,-96.0717"/>
</g>
<!-- Node6 -->
<g id="node6" class="node"><title>Node6</title>
<g id="a_node6"><a xlink:href="mxml_8c.xhtml#a4b4f0fef6a18999e79e85a0bff15f122" target="_top" xlink:title="mxml_malloc">
<polygon fill="white" stroke="black" points="784,-200.433 784,-219.433 858,-219.433 858,-200.433 784,-200.433"/>
<text text-anchor="middle" x="821" y="-207.433" font-family="Helvetica,sans-Serif" font-size="10.00">mxml_malloc</text>
</a>
</g>
</g>
<!-- Node5&#45;&gt;Node6 -->
<g id="edge6" class="edge"><title>Node5&#45;&gt;Node6</title>
<path fill="none" stroke="midnightblue" d="M718.03,-134.452C728.284,-138.033 739.015,-142.777 748,-148.933 768.281,-162.83 764.789,-175.591 784,-190.933 785.795,-192.366 787.714,-193.742 789.697,-195.051"/>
<polygon fill="midnightblue" stroke="midnightblue" points="788.228,-198.249 798.614,-200.343 791.8,-192.229 788.228,-198.249"/>
</g>
<!-- Node7 -->
<g id="node7" class="node"><title>Node7</title>
<g id="a_node7"><a xlink:href="mxml_8c.xhtml#a2bbe1e8a7d3c830714bdfa50d3658ef8" target="_top" xlink:title="mxml_realloc">
<polygon fill="white" stroke="black" points="784,-248.433 784,-267.433 858,-267.433 858,-248.433 784,-248.433"/>
<text text-anchor="middle" x="821" y="-255.433" font-family="Helvetica,sans-Serif" font-size="10.00">mxml_realloc</text>
</a>
</g>
</g>
<!-- Node5&#45;&gt;Node7 -->
<g id="edge7" class="edge"><title>Node5&#45;&gt;Node7</title>
<path fill="none" stroke="midnightblue" d="M693.007,-134.459C707.258,-145.199 730.427,-163.569 748,-181.933 766.192,-200.943 765.623,-210.101 784,-228.933 788.381,-233.422 793.442,-237.874 798.36,-241.891"/>
<polygon fill="midnightblue" stroke="midnightblue" points="796.331,-244.748 806.356,-248.174 800.656,-239.244 796.331,-244.748"/>
</g>
<!-- Node11&#45;&gt;Node10 -->
<g id="edge12" class="edge"><title>Node11&#45;&gt;Node10</title>
<path fill="none" stroke="midnightblue" d="M406.062,-663.387C478.666,-672.89 632.899,-684.402 748,-632.933 773.421,-621.566 794.983,-597.026 807.707,-580.002"/>
<polygon fill="midnightblue" stroke="midnightblue" points="810.857,-581.616 813.836,-571.449 805.166,-577.539 810.857,-581.616"/>
</g>
<!-- Node13&#45;&gt;Node6 -->
<g id="edge16" class="edge"><title>Node13&#45;&gt;Node6</title>
<path fill="none" stroke="midnightblue" d="M265.976,-305.351C270.481,-302.866 274.703,-299.772 278,-295.933 317.896,-249.474 278.783,-213.032 314,-162.933 356.401,-102.614 379.669,-90.0648 450,-67.9331 576.337,-28.1774 642.007,11.484 748,-67.9331 793.584,-102.088 747.965,-146.82 784,-190.933 784.95,-192.096 785.99,-193.197 787.1,-194.238"/>
<polygon fill="midnightblue" stroke="midnightblue" points="785.079,-197.097 795.19,-200.264 789.261,-191.483 785.079,-197.097"/>
</g>
<!-- Node13&#45;&gt;Node9 -->
<g id="edge48" class="edge"><title>Node13&#45;&gt;Node9</title>
<path fill="none" stroke="midnightblue" d="M266.752,-305.386C271.05,-302.908 275.004,-299.806 278,-295.933 338.626,-217.569 250.907,-152.325 314,-75.9331 355.01,-26.2789 386.597,-37.2188 450,-25.9331 580.718,-2.66532 637.244,26.291 748,-46.9331 785.808,-71.929 806.143,-124.054 814.815,-152.459"/>
<polygon fill="midnightblue" stroke="midnightblue" points="811.544,-153.75 817.665,-162.398 818.273,-151.82 811.544,-153.75"/>
</g>
<!-- Node13&#45;&gt;Node10 -->
<g id="edge15" class="edge"><title>Node13&#45;&gt;Node10</title>
<path fill="none" stroke="midnightblue" d="M265.806,-324.665C270.332,-327.132 274.605,-330.181 278,-333.933 312.515,-372.076 281.857,-403.772 314,-443.933 357.961,-498.86 385.117,-497.735 450,-524.933 573.354,-576.642 614.327,-571.569 748,-566.933 758.331,-566.575 769.481,-565.928 779.849,-565.216"/>
<polygon fill="midnightblue" stroke="midnightblue" points="780.175,-568.702 789.897,-564.491 779.671,-561.72 780.175,-568.702"/>
</g>
<!-- Node14 -->
<g id="node14" class="node"><title>Node14</title>
<g id="a_node14"><a xlink:href="mxml_8c.xhtml#a5ef2edd4f9e5fb7946c0150c3be731b5" target="_top" xlink:title="mxml_parse_buffer">
<polygon fill="white" stroke="black" points="314,-248.433 314,-267.433 414,-267.433 414,-248.433 314,-248.433"/>
<text text-anchor="middle" x="364" y="-255.433" font-family="Helvetica,sans-Serif" font-size="10.00">mxml_parse_buffer</text>
</a>
</g>
</g>
<!-- Node13&#45;&gt;Node14 -->
<g id="edge17" class="edge"><title>Node13&#45;&gt;Node14</title>
<path fill="none" stroke="midnightblue" d="M256.883,-305.286C263.655,-302.294 271.139,-298.983 278,-295.933 295.982,-287.941 316.082,-278.957 332.221,-271.732"/>
<polygon fill="midnightblue" stroke="midnightblue" points="334.007,-274.767 341.703,-267.485 331.146,-268.378 334.007,-274.767"/>
</g>
<!-- Node23 -->
<g id="node23" class="node"><title>Node23</title>
<g id="a_node23"><a xlink:href="strlcpy_8h.xhtml#aa031012870e97fea95c0b78d51b4471b" target="_top" xlink:title="strlcat">
<polygon fill="white" stroke="black" points="657,-495.433 657,-514.433 701,-514.433 701,-495.433 657,-495.433"/>
<text text-anchor="middle" x="679" y="-502.433" font-family="Helvetica,sans-Serif" font-size="10.00">strlcat</text>
</a>
</g>
</g>
<!-- Node13&#45;&gt;Node23 -->
<g id="edge47" class="edge"><title>Node13&#45;&gt;Node23</title>
<path fill="none" stroke="midnightblue" d="M263.262,-324.538C268.499,-327.09 273.674,-330.201 278,-333.933 300.688,-353.504 293.31,-369.26 314,-390.933 364.912,-444.265 380.65,-460.898 450,-485.933 516.927,-510.094 601.832,-509.745 646.782,-507.357"/>
<polygon fill="midnightblue" stroke="midnightblue" points="647.021,-510.849 656.793,-506.755 646.601,-503.862 647.021,-510.849"/>
</g>
<!-- Node24 -->
<g id="node24" class="node"><title>Node24</title>
<g id="a_node24"><a xlink:href="mxml_8c.xhtml#a9c1dde43a12f9e8383227dd5f79bf91d" target="_top" xlink:title="mxml_parse_entity">
<polygon fill="white" stroke="black" points="314.5,-362.433 314.5,-381.433 413.5,-381.433 413.5,-362.433 314.5,-362.433"/>
<text text-anchor="middle" x="364" y="-369.433" font-family="Helvetica,sans-Serif" font-size="10.00">mxml_parse_entity</text>
</a>
</g>
</g>
<!-- Node13&#45;&gt;Node24 -->
<g id="edge39" class="edge"><title>Node13&#45;&gt;Node24</title>
<path fill="none" stroke="midnightblue" d="M256.883,-324.581C263.655,-327.572 271.139,-330.883 278,-333.933 295.982,-341.925 316.082,-350.909 332.221,-358.134"/>
<polygon fill="midnightblue" stroke="midnightblue" points="331.146,-361.488 341.703,-362.381 334.007,-355.099 331.146,-361.488"/>
</g>
<!-- Node14&#45;&gt;Node6 -->
<g id="edge31" class="edge"><title>Node14&#45;&gt;Node6</title>
<path fill="none" stroke="midnightblue" d="M374.135,-248.21C384.341,-237.147 401.121,-218.351 414,-200.933 431.814,-176.841 423.759,-158.396 450,-143.933 508.466,-111.708 684.086,-162.655 748,-181.933 761.476,-185.998 776.002,-191.435 788.454,-196.437"/>
<polygon fill="midnightblue" stroke="midnightblue" points="787.355,-199.769 797.936,-200.32 790.008,-193.291 787.355,-199.769"/>
</g>
<!-- Node15 -->
<g id="node15" class="node"><title>Node15</title>
<g id="a_node15"><a xlink:href="mxml_8c.xhtml#a15f4b76ba97d02c8bc1009a416eb51db" target="_top" xlink:title="mxml_add_attribute">
<polygon fill="white" stroke="black" points="628,-267.433 628,-286.433 730,-286.433 730,-267.433 628,-267.433"/>
<text text-anchor="middle" x="679" y="-274.433" font-family="Helvetica,sans-Serif" font-size="10.00">mxml_add_attribute</text>
</a>
</g>
</g>
<!-- Node14&#45;&gt;Node15 -->
<g id="edge18" class="edge"><title>Node14&#45;&gt;Node15</title>
<path fill="none" stroke="midnightblue" d="M414.098,-255.438C456.524,-253.878 519.434,-252.99 574,-257.933 590.954,-259.469 609.275,-262.386 625.746,-265.482"/>
<polygon fill="midnightblue" stroke="midnightblue" points="625.25,-268.951 635.734,-267.422 626.585,-262.079 625.25,-268.951"/>
</g>
<!-- Node16 -->
<g id="node16" class="node"><title>Node16</title>
<g id="a_node16"><a xlink:href="mxml_8c.xhtml#afa83c9bacbedeb26f8dbc2d8e26fdfad" target="_top" xlink:title="mxml_add_node">
<polygon fill="white" stroke="black" points="468,-191.433 468,-210.433 556,-210.433 556,-191.433 468,-191.433"/>
<text text-anchor="middle" x="512" y="-198.433" font-family="Helvetica,sans-Serif" font-size="10.00">mxml_add_node</text>
</a>
</g>
</g>
<!-- Node14&#45;&gt;Node16 -->
<g id="edge22" class="edge"><title>Node14&#45;&gt;Node16</title>
<path fill="none" stroke="midnightblue" d="M389.437,-248.393C413.44,-239.022 450.263,-224.645 477.093,-214.171"/>
<polygon fill="midnightblue" stroke="midnightblue" points="478.441,-217.402 486.483,-210.505 475.895,-210.881 478.441,-217.402"/>
</g>
<!-- Node18 -->
<g id="node18" class="node"><title>Node18</title>
<g id="a_node18"><a xlink:href="mxml_8c.xhtml#a0eed7fed4f2f71e211cf85105b4b007c" target="_top" xlink:title="mxml_add_special_node">
<polygon fill="white" stroke="black" points="450,-153.433 450,-172.433 574,-172.433 574,-153.433 450,-153.433"/>
<text text-anchor="middle" x="512" y="-160.433" font-family="Helvetica,sans-Serif" font-size="10.00">mxml_add_special_node</text>
</a>
</g>
</g>
<!-- Node14&#45;&gt;Node18 -->
<g id="edge27" class="edge"><title>Node14&#45;&gt;Node18</title>
<path fill="none" stroke="midnightblue" d="M373.178,-248.325C387.286,-232.327 417.798,-200.19 450,-181.933 453.745,-179.81 457.757,-177.894 461.868,-176.171"/>
<polygon fill="midnightblue" stroke="midnightblue" points="463.454,-179.312 471.563,-172.494 460.972,-172.767 463.454,-179.312"/>
</g>
<!-- Node19 -->
<g id="node19" class="node"><title>Node19</title>
<g id="a_node19"><a xlink:href="mxml_8c.xhtml#a9527b7a643d61316ef74abf5bdc713d9" target="_top" xlink:title="mxml_create_root_node">
<polygon fill="white" stroke="black" points="451.5,-305.433 451.5,-324.433 572.5,-324.433 572.5,-305.433 451.5,-305.433"/>
<text text-anchor="middle" x="512" y="-312.433" font-family="Helvetica,sans-Serif" font-size="10.00">mxml_create_root_node</text>
</a>
</g>
</g>
<!-- Node14&#45;&gt;Node19 -->
<g id="edge29" class="edge"><title>Node14&#45;&gt;Node19</title>
<path fill="none" stroke="midnightblue" d="M384.644,-267.514C401.696,-275.637 427.166,-287.308 450,-295.933 455.856,-298.145 462.095,-300.305 468.263,-302.329"/>
<polygon fill="midnightblue" stroke="midnightblue" points="467.242,-305.677 477.833,-305.385 469.371,-299.009 467.242,-305.677"/>
</g>
<!-- Node20 -->
<g id="node20" class="node"><title>Node20</title>
<g id="a_node20"><a xlink:href="mxml_8c.xhtml#a7afd3209bc7e21e1d797e49190bf2a58" target="_top" xlink:title="mxml_decode">
<polygon fill="white" stroke="black" points="473.5,-267.433 473.5,-286.433 550.5,-286.433 550.5,-267.433 473.5,-267.433"/>
<text text-anchor="middle" x="512" y="-274.433" font-family="Helvetica,sans-Serif" font-size="10.00">mxml_decode</text>
</a>
</g>
</g>
<!-- Node14&#45;&gt;Node20 -->
<g id="edge30" class="edge"><title>Node14&#45;&gt;Node20</title>
<path fill="none" stroke="midnightblue" d="M414.022,-264.313C429.924,-266.382 447.533,-268.674 463.334,-270.73"/>
<polygon fill="midnightblue" stroke="midnightblue" points="463.053,-274.223 473.421,-272.043 463.956,-267.281 463.053,-274.223"/>
</g>
<!-- Node21 -->
<g id="node21" class="node"><title>Node21</title>
<g id="a_node21"><a xlink:href="mxml_8c.xhtml#a7a11f9a05fffb677a2d8d189f4b3f370" target="_top" xlink:title="read_error">
<polygon fill="white" stroke="black" points="482,-381.433 482,-400.433 542,-400.433 542,-381.433 482,-381.433"/>
<text text-anchor="middle" x="512" y="-388.433" font-family="Helvetica,sans-Serif" font-size="10.00">read_error</text>
</a>
</g>
</g>
<!-- Node14&#45;&gt;Node21 -->
<g id="edge32" class="edge"><title>Node14&#45;&gt;Node21</title>
<path fill="none" stroke="midnightblue" d="M375.5,-267.498C400.108,-289.915 461.757,-346.074 492.692,-374.255"/>
<polygon fill="midnightblue" stroke="midnightblue" points="490.452,-376.949 500.201,-381.096 495.166,-371.774 490.452,-376.949"/>
</g>
<!-- Node15&#45;&gt;Node6 -->
<g id="edge19" class="edge"><title>Node15&#45;&gt;Node6</title>
<path fill="none" stroke="midnightblue" d="M711.326,-267.333C723.039,-263.367 736.327,-258.412 748,-252.933 765.191,-244.865 783.554,-233.856 797.433,-224.997"/>
<polygon fill="midnightblue" stroke="midnightblue" points="799.363,-227.917 805.848,-219.539 795.554,-222.044 799.363,-227.917"/>
</g>
<!-- Node15&#45;&gt;Node7 -->
<g id="edge20" class="edge"><title>Node15&#45;&gt;Node7</title>
<path fill="none" stroke="midnightblue" d="M730.148,-270.127C744.416,-268.191 759.885,-266.092 773.901,-264.189"/>
<polygon fill="midnightblue" stroke="midnightblue" points="774.373,-267.657 783.811,-262.844 773.432,-260.721 774.373,-267.657"/>
</g>
<!-- Node15&#45;&gt;Node9 -->
<g id="edge21" class="edge"><title>Node15&#45;&gt;Node9</title>
<path fill="none" stroke="midnightblue" d="M721.649,-267.43C730.994,-263.945 740.385,-259.244 748,-252.933 772.534,-232.601 761.018,-213.004 784,-190.933 785.615,-189.382 787.382,-187.924 789.238,-186.559"/>
<polygon fill="midnightblue" stroke="midnightblue" points="791.171,-189.478 797.756,-181.179 787.432,-183.56 791.171,-189.478"/>
</g>
<!-- Node17 -->
<g id="node17" class="node"><title>Node17</title>
<g id="a_node17"><a xlink:href="mxml_8c.xhtml#ad030ed9e4ac1bdcf7cda84301f87aa04" target="_top" xlink:title="mxml_add_special_node_at">
<polygon fill="white" stroke="black" points="610.5,-191.433 610.5,-210.433 747.5,-210.433 747.5,-191.433 610.5,-191.433"/>
<text text-anchor="middle" x="679" y="-198.433" font-family="Helvetica,sans-Serif" font-size="10.00">mxml_add_special_node_at</text>
</a>
</g>
</g>
<!-- Node16&#45;&gt;Node17 -->
<g id="edge23" class="edge"><title>Node16&#45;&gt;Node17</title>
<path fill="none" stroke="midnightblue" d="M556.352,-200.933C569.773,-200.933 584.994,-200.933 600.014,-200.933"/>
<polygon fill="midnightblue" stroke="midnightblue" points="600.356,-204.433 610.356,-200.933 600.356,-197.433 600.356,-204.433"/>
</g>
<!-- Node17&#45;&gt;Node6 -->
<g id="edge24" class="edge"><title>Node17&#45;&gt;Node6</title>
<path fill="none" stroke="midnightblue" d="M747.54,-205.275C756.487,-205.85 765.489,-206.429 773.959,-206.973"/>
<polygon fill="midnightblue" stroke="midnightblue" points="773.782,-210.469 783.986,-207.618 774.231,-203.483 773.782,-210.469"/>
</g>
<!-- Node17&#45;&gt;Node7 -->
<g id="edge25" class="edge"><title>Node17&#45;&gt;Node7</title>
<path fill="none" stroke="midnightblue" d="M703.433,-210.474C726.349,-219.804 761.45,-234.095 787.147,-244.557"/>
<polygon fill="midnightblue" stroke="midnightblue" points="785.909,-247.832 796.491,-248.361 788.549,-241.349 785.909,-247.832"/>
</g>
<!-- Node17&#45;&gt;Node9 -->
<g id="edge26" class="edge"><title>Node17&#45;&gt;Node9</title>
<path fill="none" stroke="midnightblue" d="M726.229,-191.357C746.43,-187.173 769.628,-182.367 787.896,-178.583"/>
<polygon fill="midnightblue" stroke="midnightblue" points="788.673,-181.997 797.755,-176.541 787.253,-175.142 788.673,-181.997"/>
</g>
<!-- Node18&#45;&gt;Node17 -->
<g id="edge28" class="edge"><title>Node18&#45;&gt;Node17</title>
<path fill="none" stroke="midnightblue" d="M554.636,-172.522C576.508,-177.559 603.506,-183.777 626.664,-189.11"/>
<polygon fill="midnightblue" stroke="midnightblue" points="626.133,-192.579 636.663,-191.413 627.704,-185.758 626.133,-192.579"/>
</g>
<!-- Node21&#45;&gt;Node6 -->
<g id="edge36" class="edge"><title>Node21&#45;&gt;Node6</title>
<path fill="none" stroke="midnightblue" d="M542.28,-386.556C598.194,-377.672 717.341,-356.047 748,-328.933 780.271,-300.393 758.39,-273.576 784,-238.933 787.519,-234.174 791.998,-229.749 796.592,-225.863"/>
<polygon fill="midnightblue" stroke="midnightblue" points="799.049,-228.386 804.803,-219.49 794.757,-222.856 799.049,-228.386"/>
</g>
<!-- Node21&#45;&gt;Node9 -->
<g id="edge38" class="edge"><title>Node21&#45;&gt;Node9</title>
<path fill="none" stroke="midnightblue" d="M526.032,-381.191C539.402,-370.684 560.151,-352.895 574,-333.933 596.045,-303.751 581.379,-281.97 610,-257.933 658.715,-217.02 691.38,-248.937 748,-219.933 766.286,-210.566 766.835,-202.225 784,-190.933 786.301,-189.42 788.735,-187.927 791.209,-186.483"/>
<polygon fill="midnightblue" stroke="midnightblue" points="793.12,-189.426 800.176,-181.522 789.731,-183.301 793.12,-189.426"/>
</g>
<!-- Node21&#45;&gt;Node10 -->
<g id="edge33" class="edge"><title>Node21&#45;&gt;Node10</title>
<path fill="none" stroke="midnightblue" d="M542.258,-391.187C589.77,-392.988 684.742,-402.512 748,-447.933 781.591,-472.052 803.108,-517.171 813.219,-542.821"/>
<polygon fill="midnightblue" stroke="midnightblue" points="809.953,-544.081 816.75,-552.208 816.505,-541.616 809.953,-544.081"/>
</g>
<!-- Node22 -->
<g id="node22" class="node"><title>Node22</title>
<g id="a_node22"><a xlink:href="mxml_8c.xhtml#a028673d16c059e7ee6f012941b0ce54b" target="_top" xlink:title="mxml_free_tree">
<polygon fill="white" stroke="black" points="637,-457.433 637,-476.433 721,-476.433 721,-457.433 637,-457.433"/>
<text text-anchor="middle" x="679" y="-464.433" font-family="Helvetica,sans-Serif" font-size="10.00">mxml_free_tree</text>
</a>
</g>
</g>
<!-- Node21&#45;&gt;Node22 -->
<g id="edge34" class="edge"><title>Node21&#45;&gt;Node22</title>
<path fill="none" stroke="midnightblue" d="M529.095,-400.547C548.036,-411.626 580.633,-429.97 610,-442.933 619.01,-446.91 628.905,-450.71 638.289,-454.065"/>
<polygon fill="midnightblue" stroke="midnightblue" points="637.23,-457.402 647.825,-457.389 639.534,-450.792 637.23,-457.402"/>
</g>
<!-- Node21&#45;&gt;Node23 -->
<g id="edge37" class="edge"><title>Node21&#45;&gt;Node23</title>
<path fill="none" stroke="midnightblue" d="M523.987,-400.828C536.348,-412.045 556.928,-430.978 574,-447.933 590.507,-464.327 590.075,-473.923 610,-485.933 621.124,-492.638 634.689,-497.048 646.769,-499.913"/>
<polygon fill="midnightblue" stroke="midnightblue" points="646.396,-503.412 656.903,-502.053 647.842,-496.563 646.396,-503.412"/>
</g>
<!-- Node22&#45;&gt;Node10 -->
<g id="edge35" class="edge"><title>Node22&#45;&gt;Node10</title>
<path fill="none" stroke="midnightblue" d="M721.032,-474.558C730.3,-477.306 739.811,-480.997 748,-485.933 772.921,-500.954 794.83,-526.91 807.749,-544.25"/>
<polygon fill="midnightblue" stroke="midnightblue" points="804.962,-546.369 813.653,-552.429 810.637,-542.272 804.962,-546.369"/>
</g>
<!-- Node24&#45;&gt;Node6 -->
<g id="edge44" class="edge"><title>Node24&#45;&gt;Node6</title>
<path fill="none" stroke="midnightblue" d="M413.712,-363.345C513.779,-345.557 734.295,-305.537 748,-295.933 772.538,-278.738 764.063,-261.301 784,-238.933 788.174,-234.251 793.154,-229.724 798.06,-225.695"/>
<polygon fill="midnightblue" stroke="midnightblue" points="800.349,-228.349 806.09,-219.444 796.049,-222.825 800.349,-228.349"/>
</g>
<!-- Node24&#45;&gt;Node7 -->
<g id="edge45" class="edge"><title>Node24&#45;&gt;Node7</title>
<path fill="none" stroke="midnightblue" d="M380.914,-381.505C397.49,-390.873 424.548,-404.503 450,-409.933 580.998,-437.882 638.657,-442.3 748,-364.933 779.684,-342.515 801.472,-301.396 812.239,-277.181"/>
<polygon fill="midnightblue" stroke="midnightblue" points="815.596,-278.229 816.291,-267.657 809.155,-275.489 815.596,-278.229"/>
</g>
<!-- Node24&#45;&gt;Node10 -->
<g id="edge43" class="edge"><title>Node24&#45;&gt;Node10</title>
<path fill="none" stroke="midnightblue" d="M369.343,-381.683C379.784,-403.941 408.538,-458.671 450,-485.933 554.189,-554.44 707.732,-563.107 779.83,-563.033"/>
<polygon fill="midnightblue" stroke="midnightblue" points="779.885,-566.533 789.861,-562.964 779.838,-559.533 779.885,-566.533"/>
</g>
<!-- Node24&#45;&gt;Node19 -->
<g id="edge40" class="edge"><title>Node24&#45;&gt;Node19</title>
<path fill="none" stroke="midnightblue" d="M389.437,-362.393C413.44,-353.022 450.263,-338.645 477.093,-328.171"/>
<polygon fill="midnightblue" stroke="midnightblue" points="478.441,-331.402 486.483,-324.505 475.895,-324.881 478.441,-331.402"/>
</g>
<!-- Node24&#45;&gt;Node20 -->
<g id="edge41" class="edge"><title>Node24&#45;&gt;Node20</title>
<path fill="none" stroke="midnightblue" d="M373.178,-362.325C387.286,-346.327 417.798,-314.19 450,-295.933 454.41,-293.433 459.19,-291.22 464.066,-289.271"/>
<polygon fill="midnightblue" stroke="midnightblue" points="465.291,-292.55 473.492,-285.843 462.898,-285.972 465.291,-292.55"/>
</g>
<!-- Node24&#45;&gt;Node21 -->
<g id="edge46" class="edge"><title>Node24&#45;&gt;Node21</title>
<path fill="none" stroke="midnightblue" d="M413.616,-378.26C432.477,-380.714 453.792,-383.488 471.661,-385.814"/>
<polygon fill="midnightblue" stroke="midnightblue" points="471.372,-389.305 481.74,-387.125 472.275,-382.364 471.372,-389.305"/>
</g>
<!-- Node25 -->
<g id="node25" class="node"><title>Node25</title>
<g id="a_node25"><a xlink:href="mxml_8c.xhtml#a3e179d427c1fac226fff12d8ae75fd63" target="_top" xlink:title="mxml_dirname">
<polygon fill="white" stroke="black" points="472,-457.433 472,-476.433 552,-476.433 552,-457.433 472,-457.433"/>
<text text-anchor="middle" x="512" y="-464.433" font-family="Helvetica,sans-Serif" font-size="10.00">mxml_dirname</text>
</a>
</g>
</g>
<!-- Node24&#45;&gt;Node25 -->
<g id="edge42" class="edge"><title>Node24&#45;&gt;Node25</title>
<path fill="none" stroke="midnightblue" d="M374.656,-381.826C389.638,-396.726 419.902,-425.08 450,-442.933 456.813,-446.974 464.432,-450.593 471.913,-453.719"/>
<polygon fill="midnightblue" stroke="midnightblue" points="470.66,-456.987 481.246,-457.41 473.234,-450.477 470.66,-456.987"/>
</g>
<!-- Node26&#45;&gt;Node4 -->
<g id="edge50" class="edge"><title>Node26&#45;&gt;Node4</title>
<path fill="none" stroke="midnightblue" d="M265.218,-267.3C269.923,-264.808 274.407,-261.725 278,-257.933 309.056,-225.158 282.168,-194.956 314,-162.933 351.403,-125.306 409.478,-105.933 452.897,-96.2003"/>
<polygon fill="midnightblue" stroke="midnightblue" points="453.71,-99.6058 462.76,-94.0974 452.25,-92.7597 453.71,-99.6058"/>
</g>
</g>
</svg>
