<?xml version="1.0" encoding="UTF-8" standalone="no"?>
<!DOCTYPE svg PUBLIC "-//W3C//DTD SVG 1.1//EN"
 "http://www.w3.org/Graphics/SVG/1.1/DTD/svg11.dtd">
<!-- Generated by graphviz version 2.36.0 (20140111.2315)
 -->
<!-- Title: ADCManager::Checkkeyboard Pages: 1 -->
<svg width="484pt" height="78pt"
 viewBox="0.00 0.00 484.00 78.43" xmlns="http://www.w3.org/2000/svg" xmlns:xlink="http://www.w3.org/1999/xlink">
<g id="graph0" class="graph" transform="scale(1 1) rotate(0) translate(4 74.4268)">
<title>ADCManager::Checkkeyboard</title>
<polygon fill="white" stroke="none" points="-4,4 -4,-74.4268 480,-74.4268 480,4 -4,4"/>
<!-- Node1 -->
<g id="node1" class="node"><title>Node1</title>
<polygon fill="#bfbfbf" stroke="black" points="0,-38.5 0,-57.5 150,-57.5 150,-38.5 0,-38.5"/>
<text text-anchor="middle" x="75" y="-45.5" font-family="Helvetica,sans-Serif" font-size="10.00">ADCManager::Checkkeyboard</text>
</g>
<!-- Node2 -->
<g id="node2" class="node"><title>Node2</title>
<g id="a_node2"><a xlink:href="class_a_d_c_manager.xhtml#ac6c08ec08e60b52125f463422f0abdf2" target="_top" xlink:title="ADCManager::adc_writereg">
<polygon fill="white" stroke="black" points="338.5,-38.5 338.5,-57.5 475.5,-57.5 475.5,-38.5 338.5,-38.5"/>
<text text-anchor="middle" x="407" y="-45.5" font-family="Helvetica,sans-Serif" font-size="10.00">ADCManager::adc_writereg</text>
</a>
</g>
</g>
<!-- Node1&#45;&gt;Node2 -->
<g id="edge1" class="edge"><title>Node1&#45;&gt;Node2</title>
<path fill="none" stroke="midnightblue" d="M120.731,-57.5121C140.616,-61.2775 164.374,-65.146 186,-67 237.367,-71.4036 250.655,-71.6517 302,-67 318.954,-65.464 337.275,-62.547 353.746,-59.4512"/>
<polygon fill="midnightblue" stroke="midnightblue" points="354.585,-62.8538 363.734,-57.5114 353.25,-55.9822 354.585,-62.8538"/>
</g>
<!-- Node3 -->
<g id="node3" class="node"><title>Node3</title>
<g id="a_node3"><a xlink:href="class_a_d_c_manager.xhtml#a5b1f8aac9d8552b1bc42ed17b1442688" target="_top" xlink:title="ADCManager::Disable">
<polygon fill="white" stroke="black" points="186.5,-38.5 186.5,-57.5 301.5,-57.5 301.5,-38.5 186.5,-38.5"/>
<text text-anchor="middle" x="244" y="-45.5" font-family="Helvetica,sans-Serif" font-size="10.00">ADCManager::Disable</text>
</a>
</g>
</g>
<!-- Node1&#45;&gt;Node3 -->
<g id="edge2" class="edge"><title>Node1&#45;&gt;Node3</title>
<path fill="none" stroke="midnightblue" d="M150.221,-48C158.83,-48 167.571,-48 176.074,-48"/>
<polygon fill="midnightblue" stroke="midnightblue" points="176.302,-51.5001 186.302,-48 176.302,-44.5001 176.302,-51.5001"/>
</g>
<!-- Node4 -->
<g id="node4" class="node"><title>Node4</title>
<g id="a_node4"><a xlink:href="class_a_d_c_manager.xhtml#a8719c7eb8b3adf2ec42cc64c270a00c3" target="_top" xlink:title="ADCManager::Enable">
<polygon fill="white" stroke="black" points="188,-0.5 188,-19.5 300,-19.5 300,-0.5 188,-0.5"/>
<text text-anchor="middle" x="244" y="-7.5" font-family="Helvetica,sans-Serif" font-size="10.00">ADCManager::Enable</text>
</a>
</g>
</g>
<!-- Node1&#45;&gt;Node4 -->
<g id="edge4" class="edge"><title>Node1&#45;&gt;Node4</title>
<path fill="none" stroke="midnightblue" d="M118.141,-38.411C140.377,-33.3513 167.848,-27.1004 191.356,-21.7512"/>
<polygon fill="midnightblue" stroke="midnightblue" points="192.188,-25.1516 201.162,-19.5201 190.635,-18.3261 192.188,-25.1516"/>
</g>
<!-- Node3&#45;&gt;Node2 -->
<g id="edge3" class="edge"><title>Node3&#45;&gt;Node2</title>
<path fill="none" stroke="midnightblue" d="M301.763,-48C310.379,-48 319.395,-48 328.363,-48"/>
<polygon fill="midnightblue" stroke="midnightblue" points="328.444,-51.5001 338.444,-48 328.444,-44.5001 328.444,-51.5001"/>
</g>
<!-- Node4&#45;&gt;Node2 -->
<g id="edge5" class="edge"><title>Node4&#45;&gt;Node2</title>
<path fill="none" stroke="midnightblue" d="M285.627,-19.589C306.968,-24.6261 333.312,-30.8438 355.908,-36.1771"/>
<polygon fill="midnightblue" stroke="midnightblue" points="355.128,-39.5891 365.665,-38.4799 356.736,-32.7763 355.128,-39.5891"/>
</g>
</g>
</svg>
