<?xml version="1.0" encoding="UTF-8" standalone="no"?>
<!DOCTYPE svg PUBLIC "-//W3C//DTD SVG 1.1//EN"
 "http://www.w3.org/Graphics/SVG/1.1/DTD/svg11.dtd">
<!-- Generated by graphviz version 2.36.0 (20140111.2315)
 -->
<!-- Title: DRS Pages: 1 -->
<svg width="1052pt" height="1230pt"
 viewBox="0.00 0.00 1052.00 1229.88" xmlns="http://www.w3.org/2000/svg" xmlns:xlink="http://www.w3.org/1999/xlink">
<g id="graph0" class="graph" transform="scale(1 1) rotate(0) translate(4 1225.88)">
<title>DRS</title>
<polygon fill="white" stroke="none" points="-4,4 -4,-1225.88 1048,-1225.88 1048,4 -4,4"/>
<!-- Node1 -->
<g id="node1" class="node"><title>Node1</title>
<polygon fill="#bfbfbf" stroke="black" points="971,-893.379 971,-912.379 1009,-912.379 1009,-893.379 971,-893.379"/>
<text text-anchor="middle" x="990" y="-900.379" font-family="Helvetica,sans-Serif" font-size="10.00">DRS</text>
</g>
<!-- Node2 -->
<g id="node2" class="node"><title>Node2</title>
<g id="a_node2"><a xlink:href="class_d_r_s_board.xhtml" target="_top" xlink:title="DRSBoard">
<polygon fill="white" stroke="black" points="716,-639.379 716,-658.379 780,-658.379 780,-639.379 716,-639.379"/>
<text text-anchor="middle" x="748" y="-646.379" font-family="Helvetica,sans-Serif" font-size="10.00">DRSBoard</text>
</a>
</g>
</g>
<!-- Node2&#45;&gt;Node1 -->
<g id="edge1" class="edge"><title>Node2&#45;&gt;Node1</title>
<path fill="none" stroke="#9a32cd" stroke-dasharray="5,2" d="M764.996,-665.808C811.2,-714.707 943.848,-855.092 979.876,-893.222"/>
<polygon fill="#9a32cd" stroke="#9a32cd" points="767.527,-663.39 758.115,-658.526 762.439,-668.198 767.527,-663.39"/>
<text text-anchor="middle" x="869" y="-823.879" font-family="Helvetica,sans-Serif" font-size="10.00"> fBoard</text>
</g>
<!-- Node10 -->
<g id="node10" class="node"><title>Node10</title>
<g id="a_node10"><a xlink:href="class_response_calibration.xhtml" target="_top" xlink:title="ResponseCalibration">
<polygon fill="white" stroke="black" points="936.5,-480.379 936.5,-499.379 1043.5,-499.379 1043.5,-480.379 936.5,-480.379"/>
<text text-anchor="middle" x="990" y="-487.379" font-family="Helvetica,sans-Serif" font-size="10.00">ResponseCalibration</text>
</a>
</g>
</g>
<!-- Node2&#45;&gt;Node10 -->
<g id="edge14" class="edge"><title>Node2&#45;&gt;Node10</title>
<path fill="none" stroke="#9a32cd" stroke-dasharray="5,2" d="M757.341,-629.969C768.439,-606.908 790.186,-568.245 820,-545.879 840.893,-530.205 907.852,-510.82 950.95,-499.455"/>
<polygon fill="#9a32cd" stroke="#9a32cd" points="754.148,-628.534 753.122,-639.079 760.5,-631.476 754.148,-628.534"/>
<text text-anchor="middle" x="869" y="-548.879" font-family="Helvetica,sans-Serif" font-size="10.00"> fBoard</text>
</g>
<!-- Node3 -->
<g id="node3" class="node"><title>Node3</title>
<polygon fill="white" stroke="#bfbfbf" points="0.5,-977.379 0.5,-996.379 45.5,-996.379 45.5,-977.379 0.5,-977.379"/>
<text text-anchor="middle" x="23" y="-984.379" font-family="Helvetica,sans-Serif" font-size="10.00">double</text>
</g>
<!-- Node3&#45;&gt;Node2 -->
<g id="edge2" class="edge"><title>Node3&#45;&gt;Node2</title>
<path fill="none" stroke="#9a32cd" stroke-dasharray="5,2" d="M56.0407,-986.553C167.561,-985.281 532.99,-979.903 552,-963.879 580.861,-939.551 554.174,-915.147 570,-880.879 615.031,-783.372 706.864,-688.257 737.102,-658.442"/>
<polygon fill="#9a32cd" stroke="#9a32cd" points="55.7274,-983.056 45.7667,-986.667 55.8049,-990.056 55.7274,-983.056"/>
<text text-anchor="middle" x="328" y="-1094.88" font-family="Helvetica,sans-Serif" font-size="10.00"> fTrueFrequency</text>
<text text-anchor="middle" x="328" y="-1083.88" font-family="Helvetica,sans-Serif" font-size="10.00">fCellGain</text>
<text text-anchor="middle" x="328" y="-1072.88" font-family="Helvetica,sans-Serif" font-size="10.00">fTCALFrequency</text>
<text text-anchor="middle" x="328" y="-1061.88" font-family="Helvetica,sans-Serif" font-size="10.00">fTimingCalibratedFrequency</text>
<text text-anchor="middle" x="328" y="-1050.88" font-family="Helvetica,sans-Serif" font-size="10.00">fAcalVolt</text>
<text text-anchor="middle" x="328" y="-1039.88" font-family="Helvetica,sans-Serif" font-size="10.00">fRange</text>
<text text-anchor="middle" x="328" y="-1028.88" font-family="Helvetica,sans-Serif" font-size="10.00">fCellCalibratedRange</text>
<text text-anchor="middle" x="328" y="-1017.88" font-family="Helvetica,sans-Serif" font-size="10.00">fbkAcalVolt</text>
<text text-anchor="middle" x="328" y="-1006.88" font-family="Helvetica,sans-Serif" font-size="10.00">fCommonMode</text>
<text text-anchor="middle" x="328" y="-995.879" font-family="Helvetica,sans-Serif" font-size="10.00">fROFS</text>
<text text-anchor="middle" x="328" y="-984.879" font-family="Helvetica,sans-Serif" font-size="10.00">...</text>
</g>
<!-- Node5 -->
<g id="node5" class="node"><title>Node5</title>
<g id="a_node5"><a xlink:href="class_d_r_s_board_1_1_time_data_1_1_frequency_data.xhtml" target="_top" xlink:title="DRSBoard::TimeData\l::FrequencyData">
<polygon fill="white" stroke="black" points="134.5,-674.879 134.5,-704.879 247.5,-704.879 247.5,-674.879 134.5,-674.879"/>
<text text-anchor="start" x="142.5" y="-692.879" font-family="Helvetica,sans-Serif" font-size="10.00">DRSBoard::TimeData</text>
<text text-anchor="middle" x="191" y="-681.879" font-family="Helvetica,sans-Serif" font-size="10.00">::FrequencyData</text>
</a>
</g>
</g>
<!-- Node3&#45;&gt;Node5 -->
<g id="edge5" class="edge"><title>Node3&#45;&gt;Node5</title>
<path fill="none" stroke="#9a32cd" stroke-dasharray="5,2" d="M34.2952,-968.459C64.6481,-914.153 153.404,-755.355 181.422,-705.227"/>
<polygon fill="#9a32cd" stroke="#9a32cd" points="31.1589,-966.897 29.3351,-977.333 37.2692,-970.312 31.1589,-966.897"/>
<text text-anchor="middle" x="90" y="-918.879" font-family="Helvetica,sans-Serif" font-size="10.00"> fBin</text>
</g>
<!-- Node3&#45;&gt;Node10 -->
<g id="edge13" class="edge"><title>Node3&#45;&gt;Node10</title>
<path fill="none" stroke="#9a32cd" stroke-dasharray="5,2" d="M44.4619,-1002.5C99.7096,-1042.74 256.725,-1144.21 390,-1106.88 654.451,-1032.8 756.206,-1007.79 918,-785.879 986.961,-691.294 989.74,-538.79 989.236,-499.404"/>
<polygon fill="#9a32cd" stroke="#9a32cd" points="46.3222,-999.524 36.2028,-996.386 42.1567,-1005.15 46.3222,-999.524"/>
<text text-anchor="middle" x="480" y="-1213.88" font-family="Helvetica,sans-Serif" font-size="10.00"> fTriggerFrequency</text>
<text text-anchor="middle" x="480" y="-1202.88" font-family="Helvetica,sans-Serif" font-size="10.00">fXXSave</text>
<text text-anchor="middle" x="480" y="-1191.88" font-family="Helvetica,sans-Serif" font-size="10.00">fYYSave</text>
<text text-anchor="middle" x="480" y="-1180.88" font-family="Helvetica,sans-Serif" font-size="10.00">fYYFitRes</text>
<text text-anchor="middle" x="480" y="-1169.88" font-family="Helvetica,sans-Serif" font-size="10.00">fGainMax</text>
<text text-anchor="middle" x="480" y="-1158.88" font-family="Helvetica,sans-Serif" font-size="10.00">fWWFit</text>
<text text-anchor="middle" x="480" y="-1147.88" font-family="Helvetica,sans-Serif" font-size="10.00">fYYFit</text>
<text text-anchor="middle" x="480" y="-1136.88" font-family="Helvetica,sans-Serif" font-size="10.00">fXXFit</text>
<text text-anchor="middle" x="480" y="-1125.88" font-family="Helvetica,sans-Serif" font-size="10.00">fPrecision</text>
<text text-anchor="middle" x="480" y="-1114.88" font-family="Helvetica,sans-Serif" font-size="10.00">fGainMin</text>
<text text-anchor="middle" x="480" y="-1103.88" font-family="Helvetica,sans-Serif" font-size="10.00">...</text>
</g>
<!-- Node4 -->
<g id="node4" class="node"><title>Node4</title>
<g id="a_node4"><a xlink:href="class_d_r_s_board_1_1_time_data.xhtml" target="_top" xlink:title="DRSBoard::TimeData">
<polygon fill="white" stroke="black" points="423.5,-660.379 423.5,-679.379 536.5,-679.379 536.5,-660.379 423.5,-660.379"/>
<text text-anchor="middle" x="480" y="-667.379" font-family="Helvetica,sans-Serif" font-size="10.00">DRSBoard::TimeData</text>
</a>
</g>
</g>
<!-- Node4&#45;&gt;Node2 -->
<g id="edge3" class="edge"><title>Node4&#45;&gt;Node2</title>
<path fill="none" stroke="#9a32cd" stroke-dasharray="5,2" d="M546.971,-668.177C584.807,-666.78 633.156,-664.284 676,-659.879 689.152,-658.526 703.586,-656.408 715.984,-654.39"/>
<polygon fill="#9a32cd" stroke="#9a32cd" points="546.462,-664.692 536.591,-668.542 546.708,-671.688 546.462,-664.692"/>
<text text-anchor="middle" x="623" y="-670.879" font-family="Helvetica,sans-Serif" font-size="10.00"> fTimeData</text>
</g>
<!-- Node5&#45;&gt;Node4 -->
<g id="edge4" class="edge"><title>Node5&#45;&gt;Node4</title>
<path fill="none" stroke="#9a32cd" stroke-dasharray="5,2" d="M257.735,-675.932C260.521,-675.538 263.285,-675.183 266,-674.879 319.116,-668.919 380.133,-668.094 423.207,-668.506"/>
<polygon fill="#9a32cd" stroke="#9a32cd" points="256.934,-672.514 247.594,-677.515 258.014,-679.431 256.934,-672.514"/>
<text text-anchor="middle" x="328" y="-677.879" font-family="Helvetica,sans-Serif" font-size="10.00"> fFrequency</text>
</g>
<!-- Node6 -->
<g id="node6" class="node"><title>Node6</title>
<polygon fill="white" stroke="#bfbfbf" points="8.5,-694.379 8.5,-713.379 37.5,-713.379 37.5,-694.379 8.5,-694.379"/>
<text text-anchor="middle" x="23" y="-701.379" font-family="Helvetica,sans-Serif" font-size="10.00">int</text>
</g>
<!-- Node6&#45;&gt;Node1 -->
<g id="edge30" class="edge"><title>Node6&#45;&gt;Node1</title>
<path fill="none" stroke="#9a32cd" stroke-dasharray="5,2" d="M26.5115,-723.967C31.6137,-761.432 44.3961,-839.81 64,-857.879 185.147,-969.54 637.295,-933.025 802,-928.879 853.57,-927.58 867.136,-933.478 918,-924.879 936.45,-921.76 956.777,-915.116 970.937,-909.941"/>
<polygon fill="#9a32cd" stroke="#9a32cd" points="29.9445,-723.227 25.1756,-713.766 23.0038,-724.136 29.9445,-723.227"/>
<text text-anchor="middle" x="480" y="-940.879" font-family="Helvetica,sans-Serif" font-size="10.00"> fNumberOfBoards</text>
</g>
<!-- Node6&#45;&gt;Node2 -->
<g id="edge10" class="edge"><title>Node6&#45;&gt;Node2</title>
<path fill="none" stroke="#9a32cd" stroke-dasharray="5,2" d="M46.9199,-714.769C52.3965,-716.884 58.3081,-718.783 64,-719.879 96.6367,-726.164 204.607,-720.801 248,-713.879 256.199,-712.571 257.813,-710.26 266,-708.879 446.044,-678.503 499.315,-728.93 676,-682.879 696.234,-677.605 717.643,-666.49 731.595,-658.4"/>
<polygon fill="#9a32cd" stroke="#9a32cd" points="48.2466,-711.53 37.6733,-710.855 45.518,-717.976 48.2466,-711.53"/>
<text text-anchor="middle" x="328" y="-821.879" font-family="Helvetica,sans-Serif" font-size="10.00"> fDebug</text>
<text text-anchor="middle" x="328" y="-810.879" font-family="Helvetica,sans-Serif" font-size="10.00">fDelayedStart</text>
<text text-anchor="middle" x="328" y="-799.879" font-family="Helvetica,sans-Serif" font-size="10.00">fTriggerEnable1</text>
<text text-anchor="middle" x="328" y="-788.879" font-family="Helvetica,sans-Serif" font-size="10.00">fADCActive</text>
<text text-anchor="middle" x="328" y="-777.879" font-family="Helvetica,sans-Serif" font-size="10.00">fTransport</text>
<text text-anchor="middle" x="328" y="-766.879" font-family="Helvetica,sans-Serif" font-size="10.00">fDAC_TLEVEL2</text>
<text text-anchor="middle" x="328" y="-755.879" font-family="Helvetica,sans-Serif" font-size="10.00">fbkTcalFreq</text>
<text text-anchor="middle" x="328" y="-744.879" font-family="Helvetica,sans-Serif" font-size="10.00">fDecimation</text>
<text text-anchor="middle" x="328" y="-733.879" font-family="Helvetica,sans-Serif" font-size="10.00">fSyncDelay</text>
<text text-anchor="middle" x="328" y="-722.879" font-family="Helvetica,sans-Serif" font-size="10.00">fTriggerEnable2</text>
<text text-anchor="middle" x="328" y="-711.879" font-family="Helvetica,sans-Serif" font-size="10.00">...</text>
</g>
<!-- Node6&#45;&gt;Node4 -->
<g id="edge7" class="edge"><title>Node6&#45;&gt;Node4</title>
<path fill="none" stroke="#9a32cd" stroke-dasharray="5,2" d="M38.7846,-686.769C45.8115,-679.499 54.7009,-671.435 64,-665.879 92.1111,-649.081 101.664,-648.055 134,-642.879 242.711,-625.477 372.564,-646.823 437.589,-660.361"/>
<polygon fill="#9a32cd" stroke="#9a32cd" points="36.1518,-684.462 31.9594,-694.192 41.3045,-689.2 36.1518,-684.462"/>
<text text-anchor="middle" x="191" y="-656.879" font-family="Helvetica,sans-Serif" font-size="10.00"> fNumberOfFrequencies</text>
<text text-anchor="middle" x="191" y="-645.879" font-family="Helvetica,sans-Serif" font-size="10.00">fChip</text>
</g>
<!-- Node6&#45;&gt;Node5 -->
<g id="edge6" class="edge"><title>Node6&#45;&gt;Node5</title>
<path fill="none" stroke="#9a32cd" stroke-dasharray="5,2" d="M41.5665,-687.492C48.1104,-682.429 55.9226,-677.499 64,-674.879 89.2504,-666.688 118.647,-669.532 142.691,-674.837"/>
<polygon fill="#9a32cd" stroke="#9a32cd" points="38.9133,-685.15 33.523,-694.272 43.4248,-690.503 38.9133,-685.15"/>
<text text-anchor="middle" x="90" y="-677.879" font-family="Helvetica,sans-Serif" font-size="10.00"> fFrequency</text>
</g>
<!-- Node6&#45;&gt;Node10 -->
<g id="edge18" class="edge"><title>Node6&#45;&gt;Node10</title>
<path fill="none" stroke="#9a32cd" stroke-dasharray="5,2" d="M42.3508,-720.079C48.9279,-725.468 56.5604,-731.265 64,-735.879 148.152,-788.07 169.316,-808.485 266,-829.879 319.809,-841.786 339.084,-850.969 390,-829.879 400.453,-825.549 397.857,-816.891 408,-811.879 613.007,-710.57 745.389,-893.868 918,-743.879 956.623,-710.317 981.924,-541.756 987.725,-499.498"/>
<polygon fill="#9a32cd" stroke="#9a32cd" points="44.5747,-717.376 34.6783,-713.593 40.0554,-722.722 44.5747,-717.376"/>
<text text-anchor="middle" x="480" y="-924.879" font-family="Helvetica,sans-Serif" font-size="10.00"> fCurrentSample</text>
<text text-anchor="middle" x="480" y="-913.879" font-family="Helvetica,sans-Serif" font-size="10.00">fCurrentFitChannel</text>
<text text-anchor="middle" x="480" y="-902.879" font-family="Helvetica,sans-Serif" font-size="10.00">fSampleUsed</text>
<text text-anchor="middle" x="480" y="-891.879" font-family="Helvetica,sans-Serif" font-size="10.00">fCurrentLowVoltPoint</text>
<text text-anchor="middle" x="480" y="-880.879" font-family="Helvetica,sans-Serif" font-size="10.00">fShowStatistics</text>
<text text-anchor="middle" x="480" y="-869.879" font-family="Helvetica,sans-Serif" font-size="10.00">fNumberOfXConstPoints</text>
<text text-anchor="middle" x="480" y="-858.879" font-family="Helvetica,sans-Serif" font-size="10.00">fNumberOfSamples</text>
<text text-anchor="middle" x="480" y="-847.879" font-family="Helvetica,sans-Serif" font-size="10.00">fNumberOfGridPoints</text>
<text text-anchor="middle" x="480" y="-836.879" font-family="Helvetica,sans-Serif" font-size="10.00">fNumberOfPoints</text>
<text text-anchor="middle" x="480" y="-825.879" font-family="Helvetica,sans-Serif" font-size="10.00">fCurrentPoint</text>
<text text-anchor="middle" x="480" y="-814.879" font-family="Helvetica,sans-Serif" font-size="10.00">...</text>
</g>
<!-- Node14 -->
<g id="node14" class="node"><title>Node14</title>
<g id="a_node14"><a xlink:href="class_response_calibration_1_1_calibration_data.xhtml" target="_top" xlink:title="ResponseCalibration\l::CalibrationData">
<polygon fill="white" stroke="black" points="694.5,-240.879 694.5,-270.879 801.5,-270.879 801.5,-240.879 694.5,-240.879"/>
<text text-anchor="start" x="702.5" y="-258.879" font-family="Helvetica,sans-Serif" font-size="10.00">ResponseCalibration</text>
<text text-anchor="middle" x="748" y="-247.879" font-family="Helvetica,sans-Serif" font-size="10.00">::CalibrationData</text>
</a>
</g>
</g>
<!-- Node6&#45;&gt;Node14 -->
<g id="edge27" class="edge"><title>Node6&#45;&gt;Node14</title>
<path fill="none" stroke="#9a32cd" stroke-dasharray="5,2" d="M23.5449,-683.931C22.6597,-590.573 33.0458,-195.928 266,-66.8787 377.06,-5.35482 657.289,-142.307 676,-155.879 707.024,-178.382 729.522,-218.678 740.145,-240.621"/>
<polygon fill="#9a32cd" stroke="#9a32cd" points="20.0462,-684.054 23.6991,-693.999 27.0454,-683.946 20.0462,-684.054"/>
<text text-anchor="middle" x="328" y="-80.8787" font-family="Helvetica,sans-Serif" font-size="10.00"> fHasOffsetCalibration</text>
<text text-anchor="middle" x="328" y="-69.8787" font-family="Helvetica,sans-Serif" font-size="10.00">fBSplineOffsetLookUp</text>
</g>
<!-- Node7 -->
<g id="node7" class="node"><title>Node7</title>
<polygon fill="white" stroke="#bfbfbf" points="173.5,-478.379 173.5,-497.379 208.5,-497.379 208.5,-478.379 173.5,-478.379"/>
<text text-anchor="middle" x="191" y="-485.379" font-family="Helvetica,sans-Serif" font-size="10.00">char</text>
</g>
<!-- Node7&#45;&gt;Node1 -->
<g id="edge29" class="edge"><title>Node7&#45;&gt;Node1</title>
<path fill="none" stroke="#9a32cd" stroke-dasharray="5,2" d="M201.151,-506.52C213.997,-533.619 237.03,-585.804 248,-632.879 258.177,-676.554 237.92,-798.913 266,-833.879 356.795,-946.939 868.041,-912.54 970.951,-904.387"/>
<polygon fill="#9a32cd" stroke="#9a32cd" points="204.264,-504.918 196.773,-497.426 197.957,-507.954 204.264,-504.918"/>
<text text-anchor="middle" x="623" y="-918.879" font-family="Helvetica,sans-Serif" font-size="10.00"> fError</text>
</g>
<!-- Node7&#45;&gt;Node2 -->
<g id="edge8" class="edge"><title>Node7&#45;&gt;Node2</title>
<path fill="none" stroke="#9a32cd" stroke-dasharray="5,2" d="M217.745,-500.748C257.687,-520.329 337.352,-557.86 408,-581.879 470.459,-603.114 494.135,-586.199 552,-617.879 561.652,-623.163 559.943,-630.413 570,-634.879 617.471,-655.957 679.133,-655.353 715.739,-652.478"/>
<polygon fill="#9a32cd" stroke="#9a32cd" points="219.22,-497.573 208.703,-496.288 216.123,-503.851 219.22,-497.573"/>
<text text-anchor="middle" x="480" y="-642.879" font-family="Helvetica,sans-Serif" font-size="10.00"> fCalibDirectory</text>
<text text-anchor="middle" x="480" y="-631.879" font-family="Helvetica,sans-Serif" font-size="10.00">fStopWSR</text>
<text text-anchor="middle" x="480" y="-620.879" font-family="Helvetica,sans-Serif" font-size="10.00">fWaveforms</text>
</g>
<!-- Node7&#45;&gt;Node14 -->
<g id="edge26" class="edge"><title>Node7&#45;&gt;Node14</title>
<path fill="none" stroke="#9a32cd" stroke-dasharray="5,2" d="M217.804,-474.441C278.253,-443.279 434.202,-364.72 570,-311.879 611.15,-295.866 658.948,-280.954 694.494,-270.551"/>
<polygon fill="#9a32cd" stroke="#9a32cd" points="215.891,-471.49 208.616,-479.192 219.106,-477.708 215.891,-471.49"/>
<text text-anchor="middle" x="480" y="-393.879" font-family="Helvetica,sans-Serif" font-size="10.00"> fNumberOfGridPoints</text>
<text text-anchor="middle" x="480" y="-382.879" font-family="Helvetica,sans-Serif" font-size="10.00">fNumberOfLimitGroups</text>
</g>
<!-- Node15 -->
<g id="node15" class="node"><title>Node15</title>
<g id="a_node15"><a xlink:href="class_response_calibration_1_1_calibration_data_1_1_calibration_data_channel.xhtml" target="_top" xlink:title="ResponseCalibration\l::CalibrationData::Calibration\lDataChannel">
<polygon fill="white" stroke="black" points="408.5,-135.379 408.5,-176.379 551.5,-176.379 551.5,-135.379 408.5,-135.379"/>
<text text-anchor="start" x="416.5" y="-164.379" font-family="Helvetica,sans-Serif" font-size="10.00">ResponseCalibration</text>
<text text-anchor="start" x="416.5" y="-153.379" font-family="Helvetica,sans-Serif" font-size="10.00">::CalibrationData::Calibration</text>
<text text-anchor="middle" x="480" y="-142.379" font-family="Helvetica,sans-Serif" font-size="10.00">DataChannel</text>
</a>
</g>
</g>
<!-- Node7&#45;&gt;Node15 -->
<g id="edge24" class="edge"><title>Node7&#45;&gt;Node15</title>
<path fill="none" stroke="#9a32cd" stroke-dasharray="5,2" d="M198.96,-468.661C210.207,-439.151 234.354,-381.706 266,-339.879 310.988,-280.418 345.012,-286.339 390,-226.879 400.793,-212.613 395.315,-203.492 408,-190.879 413.555,-185.355 420.156,-180.556 427.062,-176.433"/>
<polygon fill="#9a32cd" stroke="#9a32cd" points="195.622,-467.596 195.41,-478.189 202.181,-470.041 195.622,-467.596"/>
<text text-anchor="middle" x="328" y="-364.879" font-family="Helvetica,sans-Serif" font-size="10.00"> fLimitGroup</text>
<text text-anchor="middle" x="328" y="-353.879" font-family="Helvetica,sans-Serif" font-size="10.00">fNumberOfLookUpPoints</text>
<text text-anchor="middle" x="328" y="-342.879" font-family="Helvetica,sans-Serif" font-size="10.00">fLookUp</text>
</g>
<!-- Node8 -->
<g id="node8" class="node"><title>Node8</title>
<polygon fill="white" stroke="#bfbfbf" points="440,-553.379 440,-572.379 520,-572.379 520,-553.379 440,-553.379"/>
<text text-anchor="middle" x="480" y="-560.379" font-family="Helvetica,sans-Serif" font-size="10.00">unsigned short</text>
</g>
<!-- Node8&#45;&gt;Node2 -->
<g id="edge9" class="edge"><title>Node8&#45;&gt;Node2</title>
<path fill="none" stroke="#9a32cd" stroke-dasharray="5,2" d="M530.307,-558.279C571.181,-556.501 629.849,-558.767 676,-579.879 705.073,-593.178 729.38,-623.576 740.499,-639.206"/>
<polygon fill="#9a32cd" stroke="#9a32cd" points="530.117,-554.784 520.317,-558.809 530.488,-561.774 530.117,-554.784"/>
<text text-anchor="middle" x="623" y="-626.879" font-family="Helvetica,sans-Serif" font-size="10.00"> fCellOffset2</text>
<text text-anchor="middle" x="623" y="-615.879" font-family="Helvetica,sans-Serif" font-size="10.00">fReadPointer</text>
<text text-anchor="middle" x="623" y="-604.879" font-family="Helvetica,sans-Serif" font-size="10.00">fCellOffset</text>
<text text-anchor="middle" x="623" y="-593.879" font-family="Helvetica,sans-Serif" font-size="10.00">fTriggerBus</text>
<text text-anchor="middle" x="623" y="-582.879" font-family="Helvetica,sans-Serif" font-size="10.00">fStopCell</text>
</g>
<!-- Node9 -->
<g id="node9" class="node"><title>Node9</title>
<polygon fill="white" stroke="#bfbfbf" points="462.5,-480.379 462.5,-499.379 497.5,-499.379 497.5,-480.379 462.5,-480.379"/>
<text text-anchor="middle" x="480" y="-487.379" font-family="Helvetica,sans-Serif" font-size="10.00">bool</text>
</g>
<!-- Node9&#45;&gt;Node2 -->
<g id="edge11" class="edge"><title>Node9&#45;&gt;Node2</title>
<path fill="none" stroke="#9a32cd" stroke-dasharray="5,2" d="M507.908,-492.982C558.158,-498.967 662.428,-512.355 676,-521.879 681.48,-525.724 726.575,-610.296 741.914,-639.254"/>
<polygon fill="#9a32cd" stroke="#9a32cd" points="508.117,-489.483 497.776,-491.788 507.298,-496.434 508.117,-489.483"/>
<text text-anchor="middle" x="623" y="-546.879" font-family="Helvetica,sans-Serif" font-size="10.00"> fWaveTransferred</text>
<text text-anchor="middle" x="623" y="-535.879" font-family="Helvetica,sans-Serif" font-size="10.00">fVoltageCalibrationValid</text>
<text text-anchor="middle" x="623" y="-524.879" font-family="Helvetica,sans-Serif" font-size="10.00">fADCClkInvert</text>
</g>
<!-- Node9&#45;&gt;Node10 -->
<g id="edge19" class="edge"><title>Node9&#45;&gt;Node10</title>
<path fill="none" stroke="#9a32cd" stroke-dasharray="5,2" d="M507.897,-489.879C588.524,-489.879 829.239,-489.879 936.464,-489.879"/>
<polygon fill="#9a32cd" stroke="#9a32cd" points="507.613,-486.379 497.613,-489.879 507.613,-493.379 507.613,-486.379"/>
<text text-anchor="middle" x="748" y="-536.879" font-family="Helvetica,sans-Serif" font-size="10.00"> fFitted</text>
<text text-anchor="middle" x="748" y="-525.879" font-family="Helvetica,sans-Serif" font-size="10.00">fOffset</text>
<text text-anchor="middle" x="748" y="-514.879" font-family="Helvetica,sans-Serif" font-size="10.00">fCalibrationValid</text>
<text text-anchor="middle" x="748" y="-503.879" font-family="Helvetica,sans-Serif" font-size="10.00">fRecorded</text>
<text text-anchor="middle" x="748" y="-492.879" font-family="Helvetica,sans-Serif" font-size="10.00">fInitialized</text>
</g>
<!-- Node9&#45;&gt;Node14 -->
<g id="edge28" class="edge"><title>Node9&#45;&gt;Node14</title>
<path fill="none" stroke="#9a32cd" stroke-dasharray="5,2" d="M486.312,-470.16C496.518,-436.251 522.205,-367.148 570,-331.879 608.789,-303.255 632.13,-328.863 676,-308.879 696.857,-299.377 717.487,-282.982 731.089,-270.936"/>
<polygon fill="#9a32cd" stroke="#9a32cd" points="482.823,-469.633 483.435,-480.21 489.552,-471.56 482.823,-469.633"/>
<text text-anchor="middle" x="623" y="-334.879" font-family="Helvetica,sans-Serif" font-size="10.00"> fRead</text>
</g>
<!-- Node10&#45;&gt;Node2 -->
<g id="edge12" class="edge"><title>Node10&#45;&gt;Node2</title>
<path fill="none" stroke="#9a32cd" stroke-dasharray="5,2" d="M974.362,-507.282C960.823,-522.662 939.587,-545.049 918,-560.879 870.25,-595.894 806.65,-624.967 772.711,-639.288"/>
<polygon fill="#9a32cd" stroke="#9a32cd" points="977.158,-509.399 981.045,-499.544 971.86,-504.824 977.158,-509.399"/>
<text text-anchor="middle" x="869" y="-620.879" font-family="Helvetica,sans-Serif" font-size="10.00"> fResponseCalibration</text>
</g>
<!-- Node11 -->
<g id="node11" class="node"><title>Node11</title>
<polygon fill="white" stroke="#bfbfbf" points="172,-6.37869 172,-25.3787 210,-25.3787 210,-6.37869 172,-6.37869"/>
<text text-anchor="middle" x="191" y="-13.3787" font-family="Helvetica,sans-Serif" font-size="10.00">short</text>
</g>
<!-- Node11&#45;&gt;Node10 -->
<g id="edge15" class="edge"><title>Node11&#45;&gt;Node10</title>
<path fill="none" stroke="#9a32cd" stroke-dasharray="5,2" d="M220.504,-11.5148C297.738,-0.994358 515.974,20.0124 676,-49.8787 811.141,-108.901 838.476,-152.69 918,-276.879 962.983,-347.127 982.374,-448.771 987.526,-480.233"/>
<polygon fill="#9a32cd" stroke="#9a32cd" points="219.567,-8.11249 210.156,-12.9789 220.547,-15.0435 219.567,-8.11249"/>
<text text-anchor="middle" x="623" y="-96.8787" font-family="Helvetica,sans-Serif" font-size="10.00"> fWaveFormOffsetADC</text>
<text text-anchor="middle" x="623" y="-85.8787" font-family="Helvetica,sans-Serif" font-size="10.00">fSamples</text>
<text text-anchor="middle" x="623" y="-74.8787" font-family="Helvetica,sans-Serif" font-size="10.00">fWaveFormOffset</text>
<text text-anchor="middle" x="623" y="-63.8787" font-family="Helvetica,sans-Serif" font-size="10.00">fWaveFormMode2</text>
<text text-anchor="middle" x="623" y="-52.8787" font-family="Helvetica,sans-Serif" font-size="10.00">fWaveFormMode3</text>
</g>
<!-- Node11&#45;&gt;Node15 -->
<g id="edge22" class="edge"><title>Node11&#45;&gt;Node15</title>
<path fill="none" stroke="#9a32cd" stroke-dasharray="5,2" d="M204.166,-33.9873C217.244,-51.9305 239.732,-78.7212 266,-92.8787 315.341,-119.472 336.5,-99.1596 390,-115.879 406.331,-120.982 423.629,-128.285 438.589,-135.257"/>
<polygon fill="#9a32cd" stroke="#9a32cd" points="206.83,-31.6908 198.214,-25.5243 201.104,-35.7175 206.83,-31.6908"/>
<text text-anchor="middle" x="328" y="-162.879" font-family="Helvetica,sans-Serif" font-size="10.00"> fOffset</text>
<text text-anchor="middle" x="328" y="-151.879" font-family="Helvetica,sans-Serif" font-size="10.00">fData</text>
<text text-anchor="middle" x="328" y="-140.879" font-family="Helvetica,sans-Serif" font-size="10.00">fOffsetADC</text>
<text text-anchor="middle" x="328" y="-129.879" font-family="Helvetica,sans-Serif" font-size="10.00">fGain</text>
<text text-anchor="middle" x="328" y="-118.879" font-family="Helvetica,sans-Serif" font-size="10.00">fLookUpOffset</text>
</g>
<!-- Node12 -->
<g id="node12" class="node"><title>Node12</title>
<polygon fill="white" stroke="#bfbfbf" points="173.5,-287.379 173.5,-306.379 208.5,-306.379 208.5,-287.379 173.5,-287.379"/>
<text text-anchor="middle" x="191" y="-294.379" font-family="Helvetica,sans-Serif" font-size="10.00">float</text>
</g>
<!-- Node12&#45;&gt;Node10 -->
<g id="edge16" class="edge"><title>Node12&#45;&gt;Node10</title>
<path fill="none" stroke="#9a32cd" stroke-dasharray="5,2" d="M218.231,-304.812C258.608,-316.709 338.597,-339.037 408,-350.879 525.924,-370.999 558.464,-353.604 676,-375.879 786.007,-396.726 815.683,-400.41 918,-445.879 939.468,-455.419 962.198,-470.505 975.995,-480.297"/>
<polygon fill="#9a32cd" stroke="#9a32cd" points="219.203,-301.45 208.62,-301.956 217.209,-308.16 219.203,-301.45"/>
<text text-anchor="middle" x="623" y="-477.879" font-family="Helvetica,sans-Serif" font-size="10.00"> fPntX</text>
<text text-anchor="middle" x="623" y="-466.879" font-family="Helvetica,sans-Serif" font-size="10.00">fPntY</text>
<text text-anchor="middle" x="623" y="-455.879" font-family="Helvetica,sans-Serif" font-size="10.00">fResX</text>
<text text-anchor="start" x="585" y="-444.879" font-family="Helvetica,sans-Serif" font-size="10.00">fStatisticsApprox</text>
<text text-anchor="middle" x="623" y="-433.879" font-family="Helvetica,sans-Serif" font-size="10.00">Ext</text>
<text text-anchor="middle" x="623" y="-422.879" font-family="Helvetica,sans-Serif" font-size="10.00">fRes</text>
<text text-anchor="middle" x="623" y="-411.879" font-family="Helvetica,sans-Serif" font-size="10.00">fUValues</text>
<text text-anchor="middle" x="623" y="-400.879" font-family="Helvetica,sans-Serif" font-size="10.00">fResponseX</text>
<text text-anchor="middle" x="623" y="-389.879" font-family="Helvetica,sans-Serif" font-size="10.00">fResponseY</text>
<text text-anchor="middle" x="623" y="-378.879" font-family="Helvetica,sans-Serif" font-size="10.00">fStatisticsApprox</text>
</g>
<!-- Node12&#45;&gt;Node14 -->
<g id="edge25" class="edge"><title>Node12&#45;&gt;Node14</title>
<path fill="none" stroke="#9a32cd" stroke-dasharray="5,2" d="M218.659,-303.534C260.066,-312.176 340.24,-321.914 390,-282.879 410.569,-266.743 386.874,-242.279 408,-226.879 459.718,-189.179 488.174,-222.159 552,-226.879 600.469,-230.463 655.165,-238.994 694.267,-245.881"/>
<polygon fill="#9a32cd" stroke="#9a32cd" points="219.293,-300.089 208.772,-301.335 217.774,-306.922 219.293,-300.089"/>
<text text-anchor="middle" x="480" y="-284.879" font-family="Helvetica,sans-Serif" font-size="10.00"> fIntRevers</text>
<text text-anchor="middle" x="480" y="-273.879" font-family="Helvetica,sans-Serif" font-size="10.00">fBSplineLookUp</text>
<text text-anchor="middle" x="480" y="-262.879" font-family="Helvetica,sans-Serif" font-size="10.00">fEndTemperature</text>
<text text-anchor="middle" x="480" y="-251.879" font-family="Helvetica,sans-Serif" font-size="10.00">fMin</text>
<text text-anchor="middle" x="480" y="-240.879" font-family="Helvetica,sans-Serif" font-size="10.00">fMax</text>
<text text-anchor="middle" x="480" y="-229.879" font-family="Helvetica,sans-Serif" font-size="10.00">fStartTemperature</text>
</g>
<!-- Node12&#45;&gt;Node15 -->
<g id="edge23" class="edge"><title>Node12&#45;&gt;Node15</title>
<path fill="none" stroke="#9a32cd" stroke-dasharray="5,2" d="M200.061,-277.964C211.216,-254.243 233.706,-214.224 266,-193.879 269.099,-191.927 347.516,-178.243 408.306,-167.85"/>
<polygon fill="#9a32cd" stroke="#9a32cd" points="196.769,-276.752 195.858,-287.307 203.153,-279.623 196.769,-276.752"/>
<text text-anchor="middle" x="328" y="-218.879" font-family="Helvetica,sans-Serif" font-size="10.00"> fTempData</text>
<text text-anchor="middle" x="328" y="-207.879" font-family="Helvetica,sans-Serif" font-size="10.00">fRange</text>
<text text-anchor="middle" x="328" y="-196.879" font-family="Helvetica,sans-Serif" font-size="10.00">fMin</text>
</g>
<!-- Node13 -->
<g id="node13" class="node"><title>Node13</title>
<polygon fill="white" stroke="#bfbfbf" points="726,-434.379 726,-453.379 770,-453.379 770,-434.379 726,-434.379"/>
<text text-anchor="middle" x="748" y="-441.379" font-family="Helvetica,sans-Serif" font-size="10.00">FILE *</text>
</g>
<!-- Node13&#45;&gt;Node10 -->
<g id="edge17" class="edge"><title>Node13&#45;&gt;Node10</title>
<path fill="none" stroke="#9a32cd" stroke-dasharray="5,2" d="M780.362,-445.752C814.563,-448.263 870.736,-453.758 918,-464.879 934.41,-468.74 952.31,-475.058 966.032,-480.376"/>
<polygon fill="#9a32cd" stroke="#9a32cd" points="780.288,-442.239 770.07,-445.039 779.804,-449.222 780.288,-442.239"/>
<text text-anchor="middle" x="869" y="-467.879" font-family="Helvetica,sans-Serif" font-size="10.00"> fCalibFile</text>
</g>
<!-- Node14&#45;&gt;Node10 -->
<g id="edge20" class="edge"><title>Node14&#45;&gt;Node10</title>
<path fill="none" stroke="#9a32cd" stroke-dasharray="5,2" d="M809.265,-274.576C844.585,-288.055 888.009,-309.306 918,-339.879 959.765,-382.453 980.41,-454.25 986.783,-480.175"/>
<polygon fill="#9a32cd" stroke="#9a32cd" points="810.129,-271.164 799.536,-270.979 807.702,-277.73 810.129,-271.164"/>
<text text-anchor="middle" x="869" y="-342.879" font-family="Helvetica,sans-Serif" font-size="10.00"> fCalibrationData</text>
</g>
<!-- Node15&#45;&gt;Node14 -->
<g id="edge21" class="edge"><title>Node15&#45;&gt;Node14</title>
<path fill="none" stroke="#9a32cd" stroke-dasharray="5,2" d="M561.89,-158.337C598.324,-162.108 640.933,-170.363 676,-187.879 701.041,-200.386 723.137,-224.776 735.784,-240.69"/>
<polygon fill="#9a32cd" stroke="#9a32cd" points="562.073,-154.838 551.789,-157.388 561.418,-161.808 562.073,-154.838"/>
<text text-anchor="middle" x="623" y="-190.879" font-family="Helvetica,sans-Serif" font-size="10.00"> fChannel</text>
</g>
</g>
</svg>
