<?xml version="1.0" encoding="UTF-8" standalone="no"?>
<!DOCTYPE svg PUBLIC "-//W3C//DTD SVG 1.1//EN"
 "http://www.w3.org/Graphics/SVG/1.1/DTD/svg11.dtd">
<!-- Generated by graphviz version 2.36.0 (20140111.2315)
 -->
<!-- Title: ADCManager1724::Init Pages: 1 -->
<!--zoomable 729 -->
<svg id="main" version="1.1" xmlns="http://www.w3.org/2000/svg" xmlns:xlink="http://www.w3.org/1999/xlink" xml:space="preserve" onload="init(evt)">
<style type="text/css"><![CDATA[
.edge:hover path { stroke: red; }
.edge:hover polygon { stroke: red; fill: red; }
]]></style>
<script type="text/javascript"><![CDATA[
var edges = document.getElementsByTagName('g');
if (edges && edges.length) {
  for (var i=0;i<edges.length;i++) {
    if (edges[i].id.substr(0,4)=='edge') {
      edges[i].setAttribute('class','edge');
    }
  }
}
]]></script>
        <defs>
                <circle id="rim" cx="0" cy="0" r="7"/>
                <circle id="rim2" cx="0" cy="0" r="3.5"/>
                <g id="zoomPlus">
                        <use xlink:href="#rim" fill="#404040">
                                <set attributeName="fill" to="#808080" begin="zoomplus.mouseover" end="zoomplus.mouseout"/>
                        </use>
                        <path d="M-4,0h8M0,-4v8" fill="none" stroke="white" stroke-width="1.5" pointer-events="none"/>
                </g>
                <g id="zoomMin">
                        <use xlink:href="#rim" fill="#404040">
                                <set attributeName="fill" to="#808080" begin="zoomminus.mouseover" end="zoomminus.mouseout"/>
                        </use>
                        <path d="M-4,0h8" fill="none" stroke="white" stroke-width="1.5" pointer-events="none"/>
                </g>
                <g id="dirArrow">
                        <path fill="none" stroke="white" stroke-width="1.5" d="M0,-3.0v7 M-2.5,-0.5L0,-3.0L2.5,-0.5"/>
                </g>
               <g id="resetDef">
                       <use xlink:href="#rim2" fill="#404040">
                               <set attributeName="fill" to="#808080" begin="reset.mouseover" end="reset.mouseout"/>
                       </use>
               </g>
        </defs>

<script type="text/javascript">
var viewWidth = 922;
var viewHeight = 729;
var sectionId = 'dynsection-2';
</script>
<script xlink:href="svgpan.js"/>
<svg id="graph" class="graph">
<g id="viewport">
<title>ADCManager1724::Init</title>
<polygon fill="white" stroke="none" points="-4,4 -4,-724.668 918,-724.668 918,4 -4,4"/>
<!-- Node1 -->
<g id="node1" class="node"><title>Node1</title>
<polygon fill="#bfbfbf" stroke="black" points="0,-587.168 0,-606.168 116,-606.168 116,-587.168 0,-587.168"/>
<text text-anchor="middle" x="58" y="-594.168" font-family="Helvetica,sans-Serif" font-size="10.00">ADCManager1724::Init</text>
</g>
<!-- Node2 -->
<g id="node2" class="node"><title>Node2</title>
<g id="a_node2"><a xlink:href="class_a_d_c_manager.xhtml#adc849df09611badc183129d26187bc74" target="_top" xlink:title="ADCManager::adc_readreg">
<polygon fill="white" stroke="black" points="159.5,-701.168 159.5,-720.168 294.5,-720.168 294.5,-701.168 159.5,-701.168"/>
<text text-anchor="middle" x="227" y="-708.168" font-family="Helvetica,sans-Serif" font-size="10.00">ADCManager::adc_readreg</text>
</a>
</g>
</g>
<!-- Node1&#45;&gt;Node2 -->
<g id="edge1" class="edge"><title>Node1&#45;&gt;Node2</title>
<path fill="none" stroke="midnightblue" d="M65.6858,-606.445C79.4658,-625.822 113.025,-669.161 152,-691.668 155.852,-693.892 159.964,-695.859 164.202,-697.599"/>
<polygon fill="midnightblue" stroke="midnightblue" points="163.036,-700.9 173.63,-701.056 165.446,-694.327 163.036,-700.9"/>
</g>
<!-- Node3 -->
<g id="node3" class="node"><title>Node3</title>
<g id="a_node3"><a xlink:href="class_a_d_c_manager.xhtml#ac6c08ec08e60b52125f463422f0abdf2" target="_top" xlink:title="ADCManager::adc_writereg">
<polygon fill="white" stroke="black" points="346.5,-644.168 346.5,-663.168 483.5,-663.168 483.5,-644.168 346.5,-644.168"/>
<text text-anchor="middle" x="415" y="-651.168" font-family="Helvetica,sans-Serif" font-size="10.00">ADCManager::adc_writereg</text>
</a>
</g>
</g>
<!-- Node1&#45;&gt;Node3 -->
<g id="edge2" class="edge"><title>Node1&#45;&gt;Node3</title>
<path fill="none" stroke="midnightblue" d="M102.898,-606.176C118.379,-609.386 135.928,-612.863 152,-615.668 213.655,-626.428 283.85,-636.493 336.054,-643.557"/>
<polygon fill="midnightblue" stroke="midnightblue" points="335.869,-647.064 346.247,-644.93 336.803,-640.127 335.869,-647.064"/>
</g>
<!-- Node4 -->
<g id="node4" class="node"><title>Node4</title>
<g id="a_node4"><a xlink:href="class_common.xhtml#a279c04634cf123f06e0a2cb6ac8241b8" target="_top" xlink:title="Common::error">
<polygon fill="white" stroke="black" points="186,-587.168 186,-606.168 268,-606.168 268,-587.168 186,-587.168"/>
<text text-anchor="middle" x="227" y="-594.168" font-family="Helvetica,sans-Serif" font-size="10.00">Common::error</text>
</a>
</g>
</g>
<!-- Node1&#45;&gt;Node4 -->
<g id="edge3" class="edge"><title>Node1&#45;&gt;Node4</title>
<path fill="none" stroke="midnightblue" d="M116.005,-596.668C135.378,-596.668 156.874,-596.668 175.686,-596.668"/>
<polygon fill="midnightblue" stroke="midnightblue" points="175.831,-600.168 185.831,-596.668 175.831,-593.168 175.831,-600.168"/>
</g>
<!-- Node5 -->
<g id="node5" class="node"><title>Node5</title>
<g id="a_node5"><a xlink:href="struct_x_m_l_node.xhtml#a77a21438b6d48a52cf8a1270f82f4475" target="_top" xlink:title="XMLNode::getChildNode">
<polygon fill="white" stroke="black" points="680.5,-682.168 680.5,-701.168 805.5,-701.168 805.5,-682.168 680.5,-682.168"/>
<text text-anchor="middle" x="743" y="-689.168" font-family="Helvetica,sans-Serif" font-size="10.00">XMLNode::getChildNode</text>
</a>
</g>
</g>
<!-- Node1&#45;&gt;Node5 -->
<g id="edge4" class="edge"><title>Node1&#45;&gt;Node5</title>
<path fill="none" stroke="midnightblue" d="M96.7426,-587.158C113.541,-583.393 133.637,-579.524 152,-577.668 218.329,-570.962 235.868,-569.24 302,-577.668 380.453,-587.666 605.804,-651.898 699.915,-679.305"/>
<polygon fill="midnightblue" stroke="midnightblue" points="699.086,-682.709 709.666,-682.15 701.047,-675.989 699.086,-682.709"/>
</g>
<!-- Node6 -->
<g id="node6" class="node"><title>Node6</title>
<g id="a_node6"><a xlink:href="struct_x_m_l_node.xhtml#aeb607292b18d4615b7c169c7c08c0a8b" target="_top" xlink:title="XMLNode::getText">
<polygon fill="white" stroke="black" points="177.5,-264.168 177.5,-283.168 276.5,-283.168 276.5,-264.168 177.5,-264.168"/>
<text text-anchor="middle" x="227" y="-271.168" font-family="Helvetica,sans-Serif" font-size="10.00">XMLNode::getText</text>
</a>
</g>
</g>
<!-- Node1&#45;&gt;Node6 -->
<g id="edge5" class="edge"><title>Node1&#45;&gt;Node6</title>
<path fill="none" stroke="midnightblue" d="M58.8015,-587.054C58.4887,-545.265 63.0108,-377.693 152,-292.668 156.594,-288.278 162.061,-284.866 167.911,-282.219"/>
<polygon fill="midnightblue" stroke="midnightblue" points="169.23,-285.463 177.352,-278.66 166.761,-278.913 169.23,-285.463"/>
</g>
<!-- Node7 -->
<g id="node7" class="node"><title>Node7</title>
<g id="a_node7"><a xlink:href="struct_x_m_l_node.xhtml#acc044148e2b9b8264a320b7b6e398158" target="_top" xlink:title="XMLNode::openFileHelper">
<polygon fill="white" stroke="black" points="161.5,-302.168 161.5,-321.168 292.5,-321.168 292.5,-302.168 161.5,-302.168"/>
<text text-anchor="middle" x="227" y="-309.168" font-family="Helvetica,sans-Serif" font-size="10.00">XMLNode::openFileHelper</text>
</a>
</g>
</g>
<!-- Node1&#45;&gt;Node7 -->
<g id="edge6" class="edge"><title>Node1&#45;&gt;Node7</title>
<path fill="none" stroke="midnightblue" d="M64.7485,-586.858C88.9878,-545.491 183.08,-384.915 215.191,-330.115"/>
<polygon fill="midnightblue" stroke="midnightblue" points="218.24,-331.834 220.276,-321.437 212.2,-328.295 218.24,-331.834"/>
</g>
<!-- Node30 -->
<g id="node30" class="node"><title>Node30</title>
<g id="a_node30"><a xlink:href="class_a_d_c_manager.xhtml#ab189b058424a8bb47cb921d3d7e31e07" target="_top" xlink:title="ADCManager::RegisterWriting">
<polygon fill="white" stroke="black" points="152.5,-663.168 152.5,-682.168 301.5,-682.168 301.5,-663.168 152.5,-663.168"/>
<text text-anchor="middle" x="227" y="-670.168" font-family="Helvetica,sans-Serif" font-size="10.00">ADCManager::RegisterWriting</text>
</a>
</g>
</g>
<!-- Node1&#45;&gt;Node30 -->
<g id="edge47" class="edge"><title>Node1&#45;&gt;Node30</title>
<path fill="none" stroke="midnightblue" d="M73.9957,-606.268C91.9972,-617.502 123.35,-636.157 152,-648.668 161.561,-652.843 172.091,-656.684 182.133,-660.012"/>
<polygon fill="midnightblue" stroke="midnightblue" points="181.368,-663.442 191.959,-663.163 183.505,-656.776 181.368,-663.442"/>
</g>
<!-- Node8 -->
<g id="node8" class="node"><title>Node8</title>
<g id="a_node8"><a xlink:href="_c_d_a_q_2_plugins_2_source_2xml_parser_8cpp.xhtml#a8dd6e6cada28ea03e5cacd075b1be7f6" target="_top" xlink:title="xfopen">
<polygon fill="white" stroke="black" points="855,-17.1679 855,-36.1679 901,-36.1679 901,-17.1679 855,-17.1679"/>
<text text-anchor="middle" x="878" y="-24.1679" font-family="Helvetica,sans-Serif" font-size="10.00">xfopen</text>
</a>
</g>
</g>
<!-- Node7&#45;&gt;Node8 -->
<g id="edge7" class="edge"><title>Node7&#45;&gt;Node8</title>
<path fill="none" stroke="midnightblue" d="M286.19,-302.127C291.89,-299.652 297.294,-296.551 302,-292.668 330.829,-268.88 315.804,-246.739 338,-216.668 406,-124.541 425.98,-94.6611 528,-42.6679 638.766,13.7829 682.352,1.251 806,-11.6679 818.793,-13.0044 832.674,-15.6606 844.741,-18.3713"/>
<polygon fill="midnightblue" stroke="midnightblue" points="844.27,-21.8558 854.805,-20.7356 845.871,-15.0414 844.27,-21.8558"/>
</g>
<!-- Node9 -->
<g id="node9" class="node"><title>Node9</title>
<g id="a_node9"><a xlink:href="struct_x_m_l_node.xhtml#a006cabe59176e05bc5a3f06c0cf6d8c1" target="_top" xlink:title="XMLNode::setGlobalOptions">
<polygon fill="white" stroke="black" points="344.5,-302.168 344.5,-321.168 485.5,-321.168 485.5,-302.168 344.5,-302.168"/>
<text text-anchor="middle" x="415" y="-309.168" font-family="Helvetica,sans-Serif" font-size="10.00">XMLNode::setGlobalOptions</text>
</a>
</g>
</g>
<!-- Node7&#45;&gt;Node9 -->
<g id="edge8" class="edge"><title>Node7&#45;&gt;Node9</title>
<path fill="none" stroke="midnightblue" d="M292.532,-311.668C305.956,-311.668 320.257,-311.668 334.157,-311.668"/>
<polygon fill="midnightblue" stroke="midnightblue" points="334.19,-315.168 344.19,-311.668 334.19,-308.168 334.19,-315.168"/>
</g>
<!-- Node10 -->
<g id="node10" class="node"><title>Node10</title>
<g id="a_node10"><a xlink:href="struct_x_m_l_node.xhtml#ac7af7e3bab8d21722dd4f191a4aa7c1d" target="_top" xlink:title="XMLNode::guessCharEncoding">
<polygon fill="white" stroke="black" points="338,-340.168 338,-359.168 492,-359.168 492,-340.168 338,-340.168"/>
<text text-anchor="middle" x="415" y="-347.168" font-family="Helvetica,sans-Serif" font-size="10.00">XMLNode::guessCharEncoding</text>
</a>
</g>
</g>
<!-- Node7&#45;&gt;Node10 -->
<g id="edge9" class="edge"><title>Node7&#45;&gt;Node10</title>
<path fill="none" stroke="midnightblue" d="M274.936,-321.257C300.033,-326.384 331.119,-332.735 357.53,-338.131"/>
<polygon fill="midnightblue" stroke="midnightblue" points="356.904,-341.575 367.402,-340.148 358.305,-334.717 356.904,-341.575"/>
</g>
<!-- Node21 -->
<g id="node21" class="node"><title>Node21</title>
<g id="a_node21"><a xlink:href="struct_x_m_l_node.xhtml#a5e5968e052d58350918cd91e3535624b" target="_top" xlink:title="XMLNode::parseFile">
<polygon fill="white" stroke="black" points="362,-226.168 362,-245.168 468,-245.168 468,-226.168 362,-226.168"/>
<text text-anchor="middle" x="415" y="-233.168" font-family="Helvetica,sans-Serif" font-size="10.00">XMLNode::parseFile</text>
</a>
</g>
</g>
<!-- Node7&#45;&gt;Node21 -->
<g id="edge30" class="edge"><title>Node7&#45;&gt;Node21</title>
<path fill="none" stroke="midnightblue" d="M280.427,-302.154C287.945,-299.678 295.37,-296.569 302,-292.668 322.051,-280.869 317.912,-266.403 338,-254.668 342.437,-252.076 347.219,-249.835 352.149,-247.899"/>
<polygon fill="midnightblue" stroke="midnightblue" points="353.475,-251.143 361.758,-244.537 351.163,-244.536 353.475,-251.143"/>
</g>
<!-- Node29 -->
<g id="node29" class="node"><title>Node29</title>
<g id="a_node29"><a xlink:href="struct_x_m_l_node.xhtml#a4496629c7a268db5435946c7bdd4eb28" target="_top" xlink:title="XMLNode::getError">
<polygon fill="white" stroke="black" points="364.5,-264.168 364.5,-283.168 465.5,-283.168 465.5,-264.168 364.5,-264.168"/>
<text text-anchor="middle" x="415" y="-271.168" font-family="Helvetica,sans-Serif" font-size="10.00">XMLNode::getError</text>
</a>
</g>
</g>
<!-- Node7&#45;&gt;Node29 -->
<g id="edge45" class="edge"><title>Node7&#45;&gt;Node29</title>
<path fill="none" stroke="midnightblue" d="M274.936,-302.079C300.033,-296.951 331.119,-290.601 357.53,-285.205"/>
<polygon fill="midnightblue" stroke="midnightblue" points="358.305,-288.619 367.402,-283.188 356.904,-281.76 358.305,-288.619"/>
</g>
<!-- Node11 -->
<g id="node11" class="node"><title>Node11</title>
<g id="a_node11"><a xlink:href="_c_d_a_q_2_plugins_2_source_2xml_parser_8cpp.xhtml#ad9a5c911a8e21bb89427d29d33e2797e" target="_top" xlink:title="myIsTextWideChar">
<polygon fill="white" stroke="black" points="535.5,-226.168 535.5,-245.168 636.5,-245.168 636.5,-226.168 535.5,-226.168"/>
<text text-anchor="middle" x="586" y="-233.168" font-family="Helvetica,sans-Serif" font-size="10.00">myIsTextWideChar</text>
</a>
</g>
</g>
<!-- Node10&#45;&gt;Node11 -->
<g id="edge10" class="edge"><title>Node10&#45;&gt;Node11</title>
<path fill="none" stroke="midnightblue" d="M470.182,-340.063C477.776,-337.604 485.274,-334.523 492,-330.668 526.341,-310.982 556.408,-275.037 572.516,-253.452"/>
<polygon fill="midnightblue" stroke="midnightblue" points="575.488,-255.316 578.536,-245.17 569.826,-251.201 575.488,-255.316"/>
</g>
<!-- Node12 -->
<g id="node12" class="node"><title>Node12</title>
<g id="a_node12"><a xlink:href="_c_d_a_q_2_plugins_2_source_2xml_parser_8cpp.xhtml#af77e3e2685487b9c492b20c36f3b864a" target="_top" xlink:title="_strnicmp">
<polygon fill="white" stroke="black" points="713.5,-378.168 713.5,-397.168 772.5,-397.168 772.5,-378.168 713.5,-378.168"/>
<text text-anchor="middle" x="743" y="-385.168" font-family="Helvetica,sans-Serif" font-size="10.00">_strnicmp</text>
</a>
</g>
</g>
<!-- Node10&#45;&gt;Node12 -->
<g id="edge29" class="edge"><title>Node10&#45;&gt;Node12</title>
<path fill="none" stroke="midnightblue" d="M490.99,-359.175C503.351,-360.704 516.032,-362.249 528,-363.668 589.221,-370.927 660.367,-378.792 703.248,-383.471"/>
<polygon fill="midnightblue" stroke="midnightblue" points="702.937,-386.958 713.257,-384.561 703.695,-379.999 702.937,-386.958"/>
</g>
<!-- Node13 -->
<g id="node13" class="node"><title>Node13</title>
<g id="a_node13"><a xlink:href="_c_d_a_q_2_plugins_2_source_2xml_parser_8cpp.xhtml#ae4635e3ac4b32772021240a9c16864ee" target="_top" xlink:title="mmin">
<polygon fill="white" stroke="black" points="722.5,-340.168 722.5,-359.168 763.5,-359.168 763.5,-340.168 722.5,-340.168"/>
<text text-anchor="middle" x="743" y="-347.168" font-family="Helvetica,sans-Serif" font-size="10.00">mmin</text>
</a>
</g>
</g>
<!-- Node10&#45;&gt;Node13 -->
<g id="edge28" class="edge"><title>Node10&#45;&gt;Node13</title>
<path fill="none" stroke="midnightblue" d="M492.021,-349.668C562.31,-349.668 663.115,-349.668 712.481,-349.668"/>
<polygon fill="midnightblue" stroke="midnightblue" points="712.485,-353.168 722.485,-349.668 712.485,-346.168 712.485,-353.168"/>
</g>
<!-- Node11&#45;&gt;Node8 -->
<g id="edge21" class="edge"><title>Node11&#45;&gt;Node8</title>
<path fill="none" stroke="midnightblue" d="M589.788,-226.167C598.343,-198.728 626.919,-118.773 680,-78.6679 729.2,-41.4951 802.743,-30.8359 844.662,-27.8182"/>
<polygon fill="midnightblue" stroke="midnightblue" points="845.087,-31.2988 854.853,-27.1914 844.657,-24.312 845.087,-31.2988"/>
</g>
<!-- Node11&#45;&gt;Node12 -->
<g id="edge11" class="edge"><title>Node11&#45;&gt;Node12</title>
<path fill="none" stroke="midnightblue" d="M591.041,-245.354C601.754,-269.842 633.294,-334.687 680,-368.668 687.001,-373.762 695.391,-377.509 703.704,-380.261"/>
<polygon fill="midnightblue" stroke="midnightblue" points="702.76,-383.631 713.339,-383.053 704.709,-376.908 702.76,-383.631"/>
</g>
<!-- Node11&#45;&gt;Node13 -->
<g id="edge12" class="edge"><title>Node11&#45;&gt;Node13</title>
<path fill="none" stroke="midnightblue" d="M594.718,-245.371C609.518,-263.418 643.662,-302.419 680,-325.668 689.947,-332.032 701.845,-337.142 712.546,-340.984"/>
<polygon fill="midnightblue" stroke="midnightblue" points="711.743,-344.407 722.337,-344.279 713.976,-337.773 711.743,-344.407"/>
</g>
<!-- Node14 -->
<g id="node14" class="node"><title>Node14</title>
<g id="a_node14"><a xlink:href="_c_d_a_q_2_plugins_2_source_2xml_parser_8cpp.xhtml#ad7ec02a171e7641c1d364d5d367199a3" target="_top" xlink:title="myWideCharToMultiByte">
<polygon fill="white" stroke="black" points="680,-150.168 680,-169.168 806,-169.168 806,-150.168 680,-150.168"/>
<text text-anchor="middle" x="743" y="-157.168" font-family="Helvetica,sans-Serif" font-size="10.00">myWideCharToMultiByte</text>
</a>
</g>
</g>
<!-- Node11&#45;&gt;Node14 -->
<g id="edge13" class="edge"><title>Node11&#45;&gt;Node14</title>
<path fill="none" stroke="midnightblue" d="M602.443,-226.147C620.614,-215.155 651.877,-196.893 680,-183.668 688.033,-179.89 696.835,-176.216 705.219,-172.925"/>
<polygon fill="midnightblue" stroke="midnightblue" points="706.713,-176.101 714.798,-169.253 704.207,-169.564 706.713,-176.101"/>
</g>
<!-- Node15 -->
<g id="node15" class="node"><title>Node15</title>
<g id="a_node15"><a xlink:href="_c_d_a_q_2_plugins_2_source_2xml_parser_8cpp.xhtml#a73c2349b2f386ee50130a3961bd2dbab" target="_top" xlink:title="xstrcpy">
<polygon fill="white" stroke="black" points="853.5,-216.168 853.5,-235.168 902.5,-235.168 902.5,-216.168 853.5,-216.168"/>
<text text-anchor="middle" x="878" y="-223.168" font-family="Helvetica,sans-Serif" font-size="10.00">xstrcpy</text>
</a>
</g>
</g>
<!-- Node11&#45;&gt;Node15 -->
<g id="edge22" class="edge"><title>Node11&#45;&gt;Node15</title>
<path fill="none" stroke="midnightblue" d="M636.523,-233.96C695.425,-231.929 792.165,-228.593 843.139,-226.835"/>
<polygon fill="midnightblue" stroke="midnightblue" points="843.419,-230.328 853.292,-226.485 843.177,-223.332 843.419,-230.328"/>
</g>
<!-- Node16 -->
<g id="node16" class="node"><title>Node16</title>
<g id="a_node16"><a xlink:href="_c_d_a_q_2_plugins_2_source_2xml_parser_8cpp.xhtml#a2e64ea95685df2d289c31a50419b532d" target="_top" xlink:title="xstricmp">
<polygon fill="white" stroke="black" points="851,-378.168 851,-397.168 905,-397.168 905,-378.168 851,-378.168"/>
<text text-anchor="middle" x="878" y="-385.168" font-family="Helvetica,sans-Serif" font-size="10.00">xstricmp</text>
</a>
</g>
</g>
<!-- Node11&#45;&gt;Node16 -->
<g id="edge23" class="edge"><title>Node11&#45;&gt;Node16</title>
<path fill="none" stroke="midnightblue" d="M611.342,-245.269C660.764,-264.918 771.136,-309.633 806,-330.668 825.278,-342.299 845.084,-358.633 858.862,-370.836"/>
<polygon fill="midnightblue" stroke="midnightblue" points="856.834,-373.72 866.603,-377.821 861.523,-368.523 856.834,-373.72"/>
</g>
<!-- Node17 -->
<g id="node17" class="node"><title>Node17</title>
<g id="a_node17"><a xlink:href="_c_d_a_q_2_plugins_2_source_2xml_parser_8cpp.xhtml#a49fa66f65d2d28ce7b7e0b1752425915" target="_top" xlink:title="xstrlen">
<polygon fill="white" stroke="black" points="855,-264.168 855,-283.168 901,-283.168 901,-264.168 855,-264.168"/>
<text text-anchor="middle" x="878" y="-271.168" font-family="Helvetica,sans-Serif" font-size="10.00">xstrlen</text>
</a>
</g>
</g>
<!-- Node11&#45;&gt;Node17 -->
<g id="edge24" class="edge"><title>Node11&#45;&gt;Node17</title>
<path fill="none" stroke="midnightblue" d="M636.523,-242.157C696.029,-249.954 794.153,-262.812 844.693,-269.435"/>
<polygon fill="midnightblue" stroke="midnightblue" points="844.355,-272.92 854.725,-270.749 845.264,-265.979 844.355,-272.92"/>
</g>
<!-- Node18 -->
<g id="node18" class="node"><title>Node18</title>
<g id="a_node18"><a xlink:href="_c_d_a_q_2_plugins_2_source_2xml_parser_8cpp.xhtml#a3165858f70cd74ffab31ebc2ddc9e104" target="_top" xlink:title="xstrncmp">
<polygon fill="white" stroke="black" points="849.5,-159.168 849.5,-178.168 906.5,-178.168 906.5,-159.168 849.5,-159.168"/>
<text text-anchor="middle" x="878" y="-166.168" font-family="Helvetica,sans-Serif" font-size="10.00">xstrncmp</text>
</a>
</g>
</g>
<!-- Node11&#45;&gt;Node18 -->
<g id="edge25" class="edge"><title>Node11&#45;&gt;Node18</title>
<path fill="none" stroke="midnightblue" d="M628.242,-226.14C684.654,-213.106 785.067,-189.908 839.469,-177.339"/>
<polygon fill="midnightblue" stroke="midnightblue" points="840.435,-180.708 849.391,-175.047 838.859,-173.888 840.435,-180.708"/>
</g>
<!-- Node19 -->
<g id="node19" class="node"><title>Node19</title>
<g id="a_node19"><a xlink:href="_c_d_a_q_2_plugins_2_source_2xml_parser_8cpp.xhtml#a17c9570640aed10b61deec9047cb0940" target="_top" xlink:title="xstrnicmp">
<polygon fill="white" stroke="black" points="848.5,-112.168 848.5,-131.168 907.5,-131.168 907.5,-112.168 848.5,-112.168"/>
<text text-anchor="middle" x="878" y="-119.168" font-family="Helvetica,sans-Serif" font-size="10.00">xstrnicmp</text>
</a>
</g>
</g>
<!-- Node11&#45;&gt;Node19 -->
<g id="edge26" class="edge"><title>Node11&#45;&gt;Node19</title>
<path fill="none" stroke="midnightblue" d="M593.006,-225.982C606.02,-205.967 638.981,-160.285 680,-140.668 730.615,-116.462 796.808,-115.405 838.115,-117.814"/>
<polygon fill="midnightblue" stroke="midnightblue" points="838.095,-121.321 848.31,-118.509 838.571,-114.337 838.095,-121.321"/>
</g>
<!-- Node20 -->
<g id="node20" class="node"><title>Node20</title>
<g id="a_node20"><a xlink:href="_c_d_a_q_2_plugins_2_source_2xml_parser_8cpp.xhtml#a696ca59a310359980c57de039f137697" target="_top" xlink:title="xstrstr">
<polygon fill="white" stroke="black" points="856,-74.1679 856,-93.1679 900,-93.1679 900,-74.1679 856,-74.1679"/>
<text text-anchor="middle" x="878" y="-81.1679" font-family="Helvetica,sans-Serif" font-size="10.00">xstrstr</text>
</a>
</g>
</g>
<!-- Node11&#45;&gt;Node20 -->
<g id="edge27" class="edge"><title>Node11&#45;&gt;Node20</title>
<path fill="none" stroke="midnightblue" d="M591.168,-226.042C601.96,-202.398 633.269,-141.382 680,-113.668 731.899,-82.8887 804.523,-80.1242 845.541,-81.4883"/>
<polygon fill="midnightblue" stroke="midnightblue" points="845.599,-84.9941 855.743,-81.9359 845.906,-78.0009 845.599,-84.9941"/>
</g>
<!-- Node14&#45;&gt;Node8 -->
<g id="edge14" class="edge"><title>Node14&#45;&gt;Node8</title>
<path fill="none" stroke="midnightblue" d="M753.565,-150.103C775.887,-127.781 831.664,-72.0038 859.961,-43.7069"/>
<polygon fill="midnightblue" stroke="midnightblue" points="862.567,-46.051 867.163,-36.5051 857.617,-41.1013 862.567,-46.051"/>
</g>
<!-- Node14&#45;&gt;Node15 -->
<g id="edge15" class="edge"><title>Node14&#45;&gt;Node15</title>
<path fill="none" stroke="midnightblue" d="M763.339,-169.265C785.699,-180.36 822.713,-198.729 848.401,-211.476"/>
<polygon fill="midnightblue" stroke="midnightblue" points="847.124,-214.749 857.637,-216.059 850.235,-208.479 847.124,-214.749"/>
</g>
<!-- Node14&#45;&gt;Node16 -->
<g id="edge16" class="edge"><title>Node14&#45;&gt;Node16</title>
<path fill="none" stroke="midnightblue" d="M749.546,-169.174C769.698,-203.722 839.28,-323.006 866.225,-369.196"/>
<polygon fill="midnightblue" stroke="midnightblue" points="863.369,-371.246 871.431,-378.121 869.415,-367.719 863.369,-371.246"/>
</g>
<!-- Node14&#45;&gt;Node17 -->
<g id="edge17" class="edge"><title>Node14&#45;&gt;Node17</title>
<path fill="none" stroke="midnightblue" d="M754.807,-169.182C772.792,-184.983 810.047,-217.579 842,-244.668 846.936,-248.852 852.301,-253.331 857.313,-257.487"/>
<polygon fill="midnightblue" stroke="midnightblue" points="855.34,-260.397 865.278,-264.067 859.797,-255 855.34,-260.397"/>
</g>
<!-- Node14&#45;&gt;Node18 -->
<g id="edge18" class="edge"><title>Node14&#45;&gt;Node18</title>
<path fill="none" stroke="midnightblue" d="M806.217,-163.878C817.456,-164.639 828.86,-165.41 839.136,-166.106"/>
<polygon fill="midnightblue" stroke="midnightblue" points="839.168,-169.616 849.382,-166.799 839.641,-162.632 839.168,-169.616"/>
</g>
<!-- Node14&#45;&gt;Node19 -->
<g id="edge19" class="edge"><title>Node14&#45;&gt;Node19</title>
<path fill="none" stroke="midnightblue" d="M777.562,-150.079C796.172,-144.762 819.388,-138.129 838.705,-132.609"/>
<polygon fill="midnightblue" stroke="midnightblue" points="839.753,-135.95 848.407,-129.837 837.83,-129.219 839.753,-135.95"/>
</g>
<!-- Node14&#45;&gt;Node20 -->
<g id="edge20" class="edge"><title>Node14&#45;&gt;Node20</title>
<path fill="none" stroke="midnightblue" d="M760.215,-150.04C779.582,-138.587 813.003,-118.966 842,-102.668 844.686,-101.158 847.497,-99.5984 850.309,-98.0516"/>
<polygon fill="midnightblue" stroke="midnightblue" points="852.038,-101.096 859.139,-93.2327 848.684,-94.951 852.038,-101.096"/>
</g>
<!-- Node21&#45;&gt;Node8 -->
<g id="edge31" class="edge"><title>Node21&#45;&gt;Node8</title>
<path fill="none" stroke="midnightblue" d="M423.805,-226.119C452.991,-191.259 560.197,-70.7179 680,-28.6679 735.4,-9.22298 805.081,-14.9563 844.981,-20.8445"/>
<polygon fill="midnightblue" stroke="midnightblue" points="844.511,-24.3134 854.933,-22.4089 845.598,-17.3983 844.511,-24.3134"/>
</g>
<!-- Node21&#45;&gt;Node11 -->
<g id="edge32" class="edge"><title>Node21&#45;&gt;Node11</title>
<path fill="none" stroke="midnightblue" d="M468.085,-235.668C486.169,-235.668 506.589,-235.668 525.244,-235.668"/>
<polygon fill="midnightblue" stroke="midnightblue" points="525.4,-239.168 535.4,-235.668 525.4,-232.168 525.4,-239.168"/>
</g>
<!-- Node21&#45;&gt;Node14 -->
<g id="edge33" class="edge"><title>Node21&#45;&gt;Node14</title>
<path fill="none" stroke="midnightblue" d="M456.958,-226.119C516.45,-212.25 626.694,-186.549 691.255,-171.498"/>
<polygon fill="midnightblue" stroke="midnightblue" points="692.265,-174.856 701.21,-169.177 690.676,-168.039 692.265,-174.856"/>
</g>
<!-- Node22 -->
<g id="node22" class="node"><title>Node22</title>
<g id="a_node22"><a xlink:href="struct_x_m_l_node.xhtml#acb95f4f00e4cf3756aac0e3a53765248" target="_top" xlink:title="XMLNode::parseString">
<polygon fill="white" stroke="black" points="528,-511.168 528,-530.168 644,-530.168 644,-511.168 528,-511.168"/>
<text text-anchor="middle" x="586" y="-518.168" font-family="Helvetica,sans-Serif" font-size="10.00">XMLNode::parseString</text>
</a>
</g>
</g>
<!-- Node21&#45;&gt;Node22 -->
<g id="edge34" class="edge"><title>Node21&#45;&gt;Node22</title>
<path fill="none" stroke="midnightblue" d="M468.101,-241.401C476.856,-244.297 485.269,-248.525 492,-254.668 565.923,-322.128 581.088,-451.626 584.198,-500.939"/>
<polygon fill="midnightblue" stroke="midnightblue" points="580.704,-501.135 584.728,-510.936 587.694,-500.765 580.704,-501.135"/>
</g>
<!-- Node22&#45;&gt;Node5 -->
<g id="edge38" class="edge"><title>Node22&#45;&gt;Node5</title>
<path fill="none" stroke="midnightblue" d="M623.311,-530.235C631.001,-533.709 638.457,-538.389 644,-544.668 683.11,-588.971 638.7,-630.399 680,-672.668 681.416,-674.117 682.94,-675.457 684.549,-676.695"/>
<polygon fill="midnightblue" stroke="midnightblue" points="682.861,-679.767 693.201,-682.076 686.558,-673.823 682.861,-679.767"/>
</g>
<!-- Node22&#45;&gt;Node16 -->
<g id="edge41" class="edge"><title>Node22&#45;&gt;Node16</title>
<path fill="none" stroke="midnightblue" d="M609.405,-511.079C628.151,-503.161 655.663,-491.784 680,-482.668 735.412,-461.913 753.529,-467.019 806,-439.668 825.074,-429.725 844.641,-414.992 858.391,-403.745"/>
<polygon fill="midnightblue" stroke="midnightblue" points="860.715,-406.364 866.144,-397.266 856.226,-400.992 860.715,-406.364"/>
</g>
<!-- Node22&#45;&gt;Node17 -->
<g id="edge40" class="edge"><title>Node22&#45;&gt;Node17</title>
<path fill="none" stroke="midnightblue" d="M595.186,-511.084C610.228,-494.09 644.036,-458.682 680,-439.668 731.176,-412.611 760.564,-442.539 806,-406.668 843.344,-377.185 863.452,-322.514 871.973,-293.29"/>
<polygon fill="midnightblue" stroke="midnightblue" points="875.405,-294.012 874.684,-283.441 868.656,-292.154 875.405,-294.012"/>
</g>
<!-- Node23 -->
<g id="node23" class="node"><title>Node23</title>
<g id="a_node23"><a xlink:href="struct_x_m_l_node.xhtml#a8e52198f258167cd796dae21f1ffc352" target="_top" xlink:title="XMLNode::nChildNode">
<polygon fill="white" stroke="black" points="684.5,-492.168 684.5,-511.168 801.5,-511.168 801.5,-492.168 684.5,-492.168"/>
<text text-anchor="middle" x="743" y="-499.168" font-family="Helvetica,sans-Serif" font-size="10.00">XMLNode::nChildNode</text>
</a>
</g>
</g>
<!-- Node22&#45;&gt;Node23 -->
<g id="edge35" class="edge"><title>Node22&#45;&gt;Node23</title>
<path fill="none" stroke="midnightblue" d="M644.276,-513.647C654.107,-512.442 664.405,-511.18 674.474,-509.945"/>
<polygon fill="midnightblue" stroke="midnightblue" points="674.942,-513.414 684.442,-508.723 674.09,-506.466 674.942,-513.414"/>
</g>
<!-- Node24 -->
<g id="node24" class="node"><title>Node24</title>
<g id="a_node24"><a xlink:href="struct_x_m_l_node.xhtml#a8e9538deb9144dcab39b3a510a8202f1" target="_top" xlink:title="XMLNode::nElement">
<polygon fill="white" stroke="black" points="689.5,-606.168 689.5,-625.168 796.5,-625.168 796.5,-606.168 689.5,-606.168"/>
<text text-anchor="middle" x="743" y="-613.168" font-family="Helvetica,sans-Serif" font-size="10.00">XMLNode::nElement</text>
</a>
</g>
</g>
<!-- Node22&#45;&gt;Node24 -->
<g id="edge37" class="edge"><title>Node22&#45;&gt;Node24</title>
<path fill="none" stroke="midnightblue" d="M618.355,-530.172C627.225,-533.803 636.497,-538.577 644,-544.668 665.824,-562.384 657.309,-580.078 680,-596.668 682.636,-598.595 685.47,-600.329 688.423,-601.889"/>
<polygon fill="midnightblue" stroke="midnightblue" points="687.015,-605.094 697.565,-606.068 689.925,-598.727 687.015,-605.094"/>
</g>
<!-- Node25 -->
<g id="node25" class="node"><title>Node25</title>
<g id="a_node25"><a xlink:href="struct_x_m_l_node.xhtml#a7e07715aa0ed894da96bd66c90d423f0" target="_top" xlink:title="XMLNode::getName">
<polygon fill="white" stroke="black" points="690,-568.168 690,-587.168 796,-587.168 796,-568.168 690,-568.168"/>
<text text-anchor="middle" x="743" y="-575.168" font-family="Helvetica,sans-Serif" font-size="10.00">XMLNode::getName</text>
</a>
</g>
</g>
<!-- Node22&#45;&gt;Node25 -->
<g id="edge39" class="edge"><title>Node22&#45;&gt;Node25</title>
<path fill="none" stroke="midnightblue" d="M609.602,-530.178C632.569,-539.792 666.611,-553.892 680,-558.668 686.124,-560.852 692.639,-563.018 699.059,-565.062"/>
<polygon fill="midnightblue" stroke="midnightblue" points="698.409,-568.526 708.998,-568.16 700.492,-561.843 698.409,-568.526"/>
</g>
<!-- Node26 -->
<g id="node26" class="node"><title>Node26</title>
<g id="a_node26"><a xlink:href="struct_x_m_l_node.xhtml#a71df27d54a2dc09b0a456406a7e8c6d3" target="_top" xlink:title="XMLNode::isDeclaration">
<polygon fill="white" stroke="black" points="681.5,-530.168 681.5,-549.168 804.5,-549.168 804.5,-530.168 681.5,-530.168"/>
<text text-anchor="middle" x="743" y="-537.168" font-family="Helvetica,sans-Serif" font-size="10.00">XMLNode::isDeclaration</text>
</a>
</g>
</g>
<!-- Node22&#45;&gt;Node26 -->
<g id="edge42" class="edge"><title>Node22&#45;&gt;Node26</title>
<path fill="none" stroke="midnightblue" d="M644.276,-527.689C653.048,-528.764 662.192,-529.885 671.213,-530.991"/>
<polygon fill="midnightblue" stroke="midnightblue" points="670.969,-534.487 681.32,-532.23 671.82,-527.539 670.969,-534.487"/>
</g>
<!-- Node27 -->
<g id="node27" class="node"><title>Node27</title>
<g id="a_node27"><a xlink:href="_c_d_a_q_2_plugins_2_source_2xml_parser_8cpp.xhtml#ae6aa5a367ab3cc92b47fd92f81add72a" target="_top" xlink:title="CountLinesAndColumns">
<polygon fill="white" stroke="black" points="682,-644.168 682,-663.168 804,-663.168 804,-644.168 682,-644.168"/>
<text text-anchor="middle" x="743" y="-651.168" font-family="Helvetica,sans-Serif" font-size="10.00">CountLinesAndColumns</text>
</a>
</g>
</g>
<!-- Node22&#45;&gt;Node27 -->
<g id="edge43" class="edge"><title>Node22&#45;&gt;Node27</title>
<path fill="none" stroke="midnightblue" d="M621.948,-530.281C629.962,-533.782 637.906,-538.463 644,-544.668 674.187,-575.404 648.297,-605.497 680,-634.668 681.716,-636.247 683.561,-637.695 685.502,-639.023"/>
<polygon fill="midnightblue" stroke="midnightblue" points="684.099,-642.25 694.53,-644.109 687.535,-636.151 684.099,-642.25"/>
</g>
<!-- Node23&#45;&gt;Node16 -->
<g id="edge36" class="edge"><title>Node23&#45;&gt;Node16</title>
<path fill="none" stroke="midnightblue" d="M778.18,-492.144C787.725,-488.531 797.737,-483.77 806,-477.668 832.553,-458.058 854.502,-426.08 866.667,-405.991"/>
<polygon fill="midnightblue" stroke="midnightblue" points="869.789,-407.587 871.83,-397.191 863.751,-404.045 869.789,-407.587"/>
</g>
<!-- Node28 -->
<g id="node28" class="node"><title>Node28</title>
<g id="a_node28"><a xlink:href="_c_d_a_q_2_plugins_2_source_2xml_parser_8cpp.xhtml#af03c1c87ed4ddb95f7b49d53d9117c53" target="_top" xlink:title="getNextChar">
<polygon fill="white" stroke="black" points="842,-644.168 842,-663.168 914,-663.168 914,-644.168 842,-644.168"/>
<text text-anchor="middle" x="878" y="-651.168" font-family="Helvetica,sans-Serif" font-size="10.00">getNextChar</text>
</a>
</g>
</g>
<!-- Node27&#45;&gt;Node28 -->
<g id="edge44" class="edge"><title>Node27&#45;&gt;Node28</title>
<path fill="none" stroke="midnightblue" d="M804.274,-653.668C813.462,-653.668 822.811,-653.668 831.609,-653.668"/>
<polygon fill="midnightblue" stroke="midnightblue" points="831.642,-657.168 841.642,-653.668 831.642,-650.168 831.642,-657.168"/>
</g>
<!-- Node29&#45;&gt;Node11 -->
<g id="edge46" class="edge"><title>Node29&#45;&gt;Node11</title>
<path fill="none" stroke="midnightblue" d="M458.646,-264.079C481.148,-259.019 508.948,-252.768 532.738,-247.419"/>
<polygon fill="midnightblue" stroke="midnightblue" points="533.672,-250.796 542.661,-245.188 532.137,-243.967 533.672,-250.796"/>
</g>
<!-- Node30&#45;&gt;Node3 -->
<g id="edge48" class="edge"><title>Node30&#45;&gt;Node3</title>
<path fill="none" stroke="midnightblue" d="M301.512,-665.159C312.979,-663.987 324.859,-662.774 336.413,-661.593"/>
<polygon fill="midnightblue" stroke="midnightblue" points="336.871,-665.065 346.463,-660.567 336.159,-658.101 336.871,-665.065"/>
</g>
</g>
</svg>
        <g id="navigator" transform="translate(0 0)" fill="#404254">
                <rect fill="#f2f5e9" fill-opacity="0.5" stroke="#606060" stroke-width=".5" x="0" y="0" width="60" height="60"/>
                <use id="zoomplus" xlink:href="#zoomPlus" x="17" y="9" onmousedown="handleZoom(evt,'in')"/>
                <use id="zoomminus" xlink:href="#zoomMin" x="42" y="9" onmousedown="handleZoom(evt,'out')"/>
                <use id="reset" xlink:href="#resetDef" x="30" y="36" onmousedown="handleReset()"/>
                <g id="arrowUp" xlink:href="#dirArrow" transform="translate(30 24)" onmousedown="handlePan(0,-1)">
                  <use xlink:href="#rim" fill="#404040">
                        <set attributeName="fill" to="#808080" begin="arrowUp.mouseover" end="arrowUp.mouseout"/>
                  </use>
                  <path fill="none" stroke="white" stroke-width="1.5" d="M0,-3.0v7 M-2.5,-0.5L0,-3.0L2.5,-0.5"/>
                </g>
                <g id="arrowRight" xlink:href="#dirArrow" transform="rotate(90) translate(36 -43)" onmousedown="handlePan(1,0)">
                  <use xlink:href="#rim" fill="#404040">
                        <set attributeName="fill" to="#808080" begin="arrowRight.mouseover" end="arrowRight.mouseout"/>
                  </use>
                  <path fill="none" stroke="white" stroke-width="1.5" d="M0,-3.0v7 M-2.5,-0.5L0,-3.0L2.5,-0.5"/>
                </g>
                <g id="arrowDown" xlink:href="#dirArrow" transform="rotate(180) translate(-30 -48)" onmousedown="handlePan(0,1)">
                  <use xlink:href="#rim" fill="#404040">
                        <set attributeName="fill" to="#808080" begin="arrowDown.mouseover" end="arrowDown.mouseout"/>
                  </use>
                  <path fill="none" stroke="white" stroke-width="1.5" d="M0,-3.0v7 M-2.5,-0.5L0,-3.0L2.5,-0.5"/>
                </g>
                <g id="arrowLeft" xlink:href="#dirArrow" transform="rotate(270) translate(-36 17)" onmousedown="handlePan(-1,0)">
                  <use xlink:href="#rim" fill="#404040">
                        <set attributeName="fill" to="#808080" begin="arrowLeft.mouseover" end="arrowLeft.mouseout"/>
                  </use>
                  <path fill="none" stroke="white" stroke-width="1.5" d="M0,-3.0v7 M-2.5,-0.5L0,-3.0L2.5,-0.5"/>
                </g>
        </g>
        <svg viewBox="0 0 15 15" width="100%" height="30px" preserveAspectRatio="xMaxYMin meet">
         <g id="arrow_out" transform="scale(0.3 0.3)">
          <a xlink:href="class_a_d_c_manager1724_a6de2521b9c793edcf14aeaeefeb62787_cgraph_org.svg" target="_base">
           <rect id="button" ry="5" rx="5" y="6" x="6" height="38" width="38"
                fill="#f2f5e9" fill-opacity="0.5" stroke="#606060" stroke-width="1.0"/>
           <path id="arrow"
             d="M 11.500037,31.436501 C 11.940474,20.09759 22.043105,11.32322 32.158766,21.979434 L 37.068811,17.246167 C 37.068811,17.246167 37.088388,32 37.088388,32 L 22.160133,31.978069 C 22.160133,31.978069 26.997745,27.140456 26.997745,27.140456 C 18.528582,18.264221 13.291696,25.230495 11.500037,31.436501 z"
             style="fill:#404040;"/>
          </a>
         </g>
        </svg>
</svg>
