<?xml version="1.0" encoding="UTF-8" standalone="no"?>
<!DOCTYPE svg PUBLIC "-//W3C//DTD SVG 1.1//EN"
 "http://www.w3.org/Graphics/SVG/1.1/DTD/svg11.dtd">
<!-- Generated by graphviz version 2.36.0 (20140111.2315)
 -->
<!-- Title: ResponseCalibration::OffsetCalibrationV3 Pages: 1 -->
<svg width="306pt" height="332pt"
 viewBox="0.00 0.00 306.00 332.00" xmlns="http://www.w3.org/2000/svg" xmlns:xlink="http://www.w3.org/1999/xlink">
<g id="graph0" class="graph" transform="scale(1 1) rotate(0) translate(4 328)">
<title>ResponseCalibration::OffsetCalibrationV3</title>
<polygon fill="white" stroke="none" points="-4,4 -4,-328 302,-328 302,4 -4,4"/>
<!-- Node1 -->
<g id="node1" class="node"><title>Node1</title>
<polygon fill="#bfbfbf" stroke="black" points="0,-147 0,-177 108,-177 108,-147 0,-147"/>
<text text-anchor="start" x="8" y="-165" font-family="Helvetica,sans-Serif" font-size="10.00">ResponseCalibration</text>
<text text-anchor="middle" x="54" y="-154" font-family="Helvetica,sans-Serif" font-size="10.00">::OffsetCalibrationV3</text>
</g>
<!-- Node2 -->
<g id="node2" class="node"><title>Node2</title>
<g id="a_node2"><a xlink:href="class_d_r_s_board.xhtml#a0367c78da1191dea8f68b6b0970ef5d9" target="_top" xlink:title="DRSBoard::CalibrateWaveform">
<polygon fill="white" stroke="black" points="144,-304.5 144,-323.5 298,-323.5 298,-304.5 144,-304.5"/>
<text text-anchor="middle" x="221" y="-311.5" font-family="Helvetica,sans-Serif" font-size="10.00">DRSBoard::CalibrateWaveform</text>
</a>
</g>
</g>
<!-- Node1&#45;&gt;Node2 -->
<g id="edge1" class="edge"><title>Node1&#45;&gt;Node2</title>
<path fill="none" stroke="midnightblue" d="M60.7255,-177.027C72.1222,-204.842 100.369,-264.309 144,-295 146.868,-297.017 149.929,-298.821 153.115,-300.434"/>
<polygon fill="midnightblue" stroke="midnightblue" points="151.806,-303.681 162.37,-304.491 154.617,-297.27 151.806,-303.681"/>
</g>
<!-- Node3 -->
<g id="node3" class="node"><title>Node3</title>
<g id="a_node3"><a xlink:href="class_d_r_s_board.xhtml#a95d34a77cb2c7b806e306890a097398d" target="_top" xlink:title="DRSBoard::EnableAcal">
<polygon fill="white" stroke="black" points="161.5,-266.5 161.5,-285.5 280.5,-285.5 280.5,-266.5 161.5,-266.5"/>
<text text-anchor="middle" x="221" y="-273.5" font-family="Helvetica,sans-Serif" font-size="10.00">DRSBoard::EnableAcal</text>
</a>
</g>
</g>
<!-- Node1&#45;&gt;Node3 -->
<g id="edge2" class="edge"><title>Node1&#45;&gt;Node3</title>
<path fill="none" stroke="midnightblue" d="M64.8467,-177.049C79.5085,-198.22 109.126,-236.497 144,-257 147.693,-259.171 151.628,-261.096 155.69,-262.802"/>
<polygon fill="midnightblue" stroke="midnightblue" points="154.748,-266.186 165.341,-266.398 157.192,-259.627 154.748,-266.186"/>
</g>
<!-- Node4 -->
<g id="node4" class="node"><title>Node4</title>
<g id="a_node4"><a xlink:href="class_d_r_s_board.xhtml#a0666bf4bad85ee2556a34e195f2e2d3a" target="_top" xlink:title="DRSBoard::GetRawWave">
<polygon fill="white" stroke="black" points="155.5,-228.5 155.5,-247.5 286.5,-247.5 286.5,-228.5 155.5,-228.5"/>
<text text-anchor="middle" x="221" y="-235.5" font-family="Helvetica,sans-Serif" font-size="10.00">DRSBoard::GetRawWave</text>
</a>
</g>
</g>
<!-- Node1&#45;&gt;Node4 -->
<g id="edge3" class="edge"><title>Node1&#45;&gt;Node4</title>
<path fill="none" stroke="midnightblue" d="M74.4519,-177.108C91.8173,-189.929 118.392,-207.952 144,-219 149.737,-221.475 155.862,-223.673 162.051,-225.615"/>
<polygon fill="midnightblue" stroke="midnightblue" points="161.203,-229.014 171.783,-228.458 163.166,-222.294 161.203,-229.014"/>
</g>
<!-- Node5 -->
<g id="node5" class="node"><title>Node5</title>
<g id="a_node5"><a xlink:href="class_d_r_s_board.xhtml#a69328e822828c454b02ac3e0e3423193" target="_top" xlink:title="DRSBoard::IsBusy">
<polygon fill="white" stroke="black" points="170.5,-190.5 170.5,-209.5 271.5,-209.5 271.5,-190.5 170.5,-190.5"/>
<text text-anchor="middle" x="221" y="-197.5" font-family="Helvetica,sans-Serif" font-size="10.00">DRSBoard::IsBusy</text>
</a>
</g>
</g>
<!-- Node1&#45;&gt;Node5 -->
<g id="edge4" class="edge"><title>Node1&#45;&gt;Node5</title>
<path fill="none" stroke="midnightblue" d="M108.115,-174.233C127.53,-178.704 149.441,-183.75 168.695,-188.184"/>
<polygon fill="midnightblue" stroke="midnightblue" points="167.963,-191.607 178.493,-190.441 169.534,-184.786 167.963,-191.607"/>
</g>
<!-- Node6 -->
<g id="node6" class="node"><title>Node6</title>
<g id="a_node6"><a xlink:href="_d_r_s_8cpp.xhtml#a0521e6f7f9747c49fea173b1d1732584" target="_top" xlink:title="millitime">
<polygon fill="white" stroke="black" points="194.5,-152.5 194.5,-171.5 247.5,-171.5 247.5,-152.5 194.5,-152.5"/>
<text text-anchor="middle" x="221" y="-159.5" font-family="Helvetica,sans-Serif" font-size="10.00">millitime</text>
</a>
</g>
</g>
<!-- Node1&#45;&gt;Node6 -->
<g id="edge5" class="edge"><title>Node1&#45;&gt;Node6</title>
<path fill="none" stroke="midnightblue" d="M108.115,-162C133.002,-162 161.992,-162 184.226,-162"/>
<polygon fill="midnightblue" stroke="midnightblue" points="184.239,-165.5 194.239,-162 184.239,-158.5 184.239,-165.5"/>
</g>
<!-- Node7 -->
<g id="node7" class="node"><title>Node7</title>
<g id="a_node7"><a xlink:href="class_d_r_s_board.xhtml#a710d3d1719d71c900a150694c1229852" target="_top" xlink:title="DRSBoard::SetCalibVoltage">
<polygon fill="white" stroke="black" points="151,-114.5 151,-133.5 291,-133.5 291,-114.5 151,-114.5"/>
<text text-anchor="middle" x="221" y="-121.5" font-family="Helvetica,sans-Serif" font-size="10.00">DRSBoard::SetCalibVoltage</text>
</a>
</g>
</g>
<!-- Node1&#45;&gt;Node7 -->
<g id="edge6" class="edge"><title>Node1&#45;&gt;Node7</title>
<path fill="none" stroke="midnightblue" d="M108.115,-149.767C127.53,-145.296 149.441,-140.25 168.695,-135.816"/>
<polygon fill="midnightblue" stroke="midnightblue" points="169.534,-139.214 178.493,-133.559 167.963,-132.393 169.534,-139.214"/>
</g>
<!-- Node8 -->
<g id="node8" class="node"><title>Node8</title>
<g id="a_node8"><a xlink:href="class_d_r_s_board.xhtml#a85fad0cbe2b744a9c5788cdd14cd279c" target="_top" xlink:title="DRSBoard::SoftTrigger">
<polygon fill="white" stroke="black" points="162,-76.5 162,-95.5 280,-95.5 280,-76.5 162,-76.5"/>
<text text-anchor="middle" x="221" y="-83.5" font-family="Helvetica,sans-Serif" font-size="10.00">DRSBoard::SoftTrigger</text>
</a>
</g>
</g>
<!-- Node1&#45;&gt;Node8 -->
<g id="edge7" class="edge"><title>Node1&#45;&gt;Node8</title>
<path fill="none" stroke="midnightblue" d="M74.4519,-146.892C91.8173,-134.071 118.392,-116.048 144,-105 149.737,-102.525 155.862,-100.327 162.051,-98.3849"/>
<polygon fill="midnightblue" stroke="midnightblue" points="163.166,-101.706 171.783,-95.5425 161.203,-94.9864 163.166,-101.706"/>
</g>
<!-- Node9 -->
<g id="node9" class="node"><title>Node9</title>
<g id="a_node9"><a xlink:href="class_d_r_s_board.xhtml#aa1f458803cbed423b2f45dec50d7548e" target="_top" xlink:title="DRSBoard::StartDomino">
<polygon fill="white" stroke="black" points="158.5,-38.5 158.5,-57.5 283.5,-57.5 283.5,-38.5 158.5,-38.5"/>
<text text-anchor="middle" x="221" y="-45.5" font-family="Helvetica,sans-Serif" font-size="10.00">DRSBoard::StartDomino</text>
</a>
</g>
</g>
<!-- Node1&#45;&gt;Node9 -->
<g id="edge8" class="edge"><title>Node1&#45;&gt;Node9</title>
<path fill="none" stroke="midnightblue" d="M64.8467,-146.951C79.5085,-125.78 109.126,-87.5029 144,-67 147.693,-64.8287 151.628,-62.9041 155.69,-61.1983"/>
<polygon fill="midnightblue" stroke="midnightblue" points="157.192,-64.3735 165.341,-57.6023 154.748,-57.814 157.192,-64.3735"/>
</g>
<!-- Node10 -->
<g id="node10" class="node"><title>Node10</title>
<g id="a_node10"><a xlink:href="class_d_r_s_board.xhtml#a541a06b9bbc5baa4d2e495c598ea8146" target="_top" xlink:title="DRSBoard::TransferWaves">
<polygon fill="white" stroke="black" points="152.5,-0.5 152.5,-19.5 289.5,-19.5 289.5,-0.5 152.5,-0.5"/>
<text text-anchor="middle" x="221" y="-7.5" font-family="Helvetica,sans-Serif" font-size="10.00">DRSBoard::TransferWaves</text>
</a>
</g>
</g>
<!-- Node1&#45;&gt;Node10 -->
<g id="edge9" class="edge"><title>Node1&#45;&gt;Node10</title>
<path fill="none" stroke="midnightblue" d="M60.7255,-146.973C72.1222,-119.158 100.369,-59.6908 144,-29 146.868,-26.9826 149.929,-25.1789 153.115,-23.5662"/>
<polygon fill="midnightblue" stroke="midnightblue" points="154.617,-26.7296 162.37,-19.5085 151.806,-20.3188 154.617,-26.7296"/>
</g>
</g>
</svg>
