<?xml version="1.0" encoding="UTF-8" standalone="no"?>
<!DOCTYPE svg PUBLIC "-//W3C//DTD SVG 1.1//EN"
 "http://www.w3.org/Graphics/SVG/1.1/DTD/svg11.dtd">
<!-- Generated by graphviz version 2.36.0 (20140111.2315)
 -->
<!-- Title: DRSBoard::GetRawWave Pages: 1 -->
<svg width="316pt" height="185pt"
 viewBox="0.00 0.00 316.00 185.00" xmlns="http://www.w3.org/2000/svg" xmlns:xlink="http://www.w3.org/1999/xlink">
<g id="graph0" class="graph" transform="scale(1 1) rotate(0) translate(4 181)">
<title>DRSBoard::GetRawWave</title>
<polygon fill="white" stroke="none" points="-4,4 -4,-181 312,-181 312,4 -4,4"/>
<!-- Node1 -->
<g id="node1" class="node"><title>Node1</title>
<polygon fill="#bfbfbf" stroke="black" points="0.5,-78.5 0.5,-97.5 131.5,-97.5 131.5,-78.5 0.5,-78.5"/>
<text text-anchor="middle" x="66" y="-85.5" font-family="Helvetica,sans-Serif" font-size="10.00">DRSBoard::GetRawWave</text>
</g>
<!-- Node2 -->
<g id="node2" class="node"><title>Node2</title>
<g id="a_node2"><a xlink:href="class_response_calibration.xhtml#ab55e5806b1f701cfc40c6ea237e98a80" target="_top" xlink:title="ResponseCalibration\l::OffsetCalibrationV3">
<polygon fill="white" stroke="black" points="184,-147 184,-177 292,-177 292,-147 184,-147"/>
<text text-anchor="start" x="192" y="-165" font-family="Helvetica,sans-Serif" font-size="10.00">ResponseCalibration</text>
<text text-anchor="middle" x="238" y="-154" font-family="Helvetica,sans-Serif" font-size="10.00">::OffsetCalibrationV3</text>
</a>
</g>
</g>
<!-- Node1&#45;&gt;Node2 -->
<g id="edge1" class="edge"><title>Node1&#45;&gt;Node2</title>
<path fill="none" stroke="midnightblue" d="M94.261,-102.182C114.387,-112.416 142.582,-126.264 168,-137 176.099,-140.421 184.844,-143.814 193.3,-146.945"/>
<polygon fill="midnightblue" stroke="midnightblue" points="95.8452,-99.0608 85.349,-97.618 92.6545,-105.291 95.8452,-99.0608"/>
</g>
<!-- Node3 -->
<g id="node3" class="node"><title>Node3</title>
<g id="a_node3"><a xlink:href="class_response_calibration.xhtml#a77c769a4e2d346cbbe331ec7bb938f16" target="_top" xlink:title="ResponseCalibration\l::OffsetCalibrationV4">
<polygon fill="white" stroke="black" points="184,-98 184,-128 292,-128 292,-98 184,-98"/>
<text text-anchor="start" x="192" y="-116" font-family="Helvetica,sans-Serif" font-size="10.00">ResponseCalibration</text>
<text text-anchor="middle" x="238" y="-105" font-family="Helvetica,sans-Serif" font-size="10.00">::OffsetCalibrationV4</text>
</a>
</g>
</g>
<!-- Node1&#45;&gt;Node3 -->
<g id="edge2" class="edge"><title>Node1&#45;&gt;Node3</title>
<path fill="none" stroke="midnightblue" d="M141.927,-99.0187C156.02,-101.091 170.487,-103.219 183.749,-105.169"/>
<polygon fill="midnightblue" stroke="midnightblue" points="142.158,-95.515 131.755,-97.5227 141.139,-102.441 142.158,-95.515"/>
</g>
<!-- Node4 -->
<g id="node4" class="node"><title>Node4</title>
<g id="a_node4"><a xlink:href="class_response_calibration.xhtml#a95f165d2ea84d31af62da2018926951c" target="_top" xlink:title="ResponseCalibration\l::RecordCalibrationPointsV3">
<polygon fill="white" stroke="black" points="168,-49 168,-79 308,-79 308,-49 168,-49"/>
<text text-anchor="start" x="176" y="-67" font-family="Helvetica,sans-Serif" font-size="10.00">ResponseCalibration</text>
<text text-anchor="middle" x="238" y="-56" font-family="Helvetica,sans-Serif" font-size="10.00">::RecordCalibrationPointsV3</text>
</a>
</g>
</g>
<!-- Node1&#45;&gt;Node4 -->
<g id="edge3" class="edge"><title>Node1&#45;&gt;Node4</title>
<path fill="none" stroke="midnightblue" d="M141.84,-77.4344C150.506,-76.211 159.314,-74.9674 167.899,-73.7555"/>
<polygon fill="midnightblue" stroke="midnightblue" points="141.167,-73.9945 131.755,-78.8582 142.146,-80.9258 141.167,-73.9945"/>
</g>
<!-- Node5 -->
<g id="node5" class="node"><title>Node5</title>
<g id="a_node5"><a xlink:href="class_response_calibration.xhtml#a6d720e4941fbc7e511bc389688d7d229" target="_top" xlink:title="ResponseCalibration\l::RecordCalibrationPointsV4">
<polygon fill="white" stroke="black" points="168,-0 168,-30 308,-30 308,-0 168,-0"/>
<text text-anchor="start" x="176" y="-18" font-family="Helvetica,sans-Serif" font-size="10.00">ResponseCalibration</text>
<text text-anchor="middle" x="238" y="-7" font-family="Helvetica,sans-Serif" font-size="10.00">::RecordCalibrationPointsV4</text>
</a>
</g>
</g>
<!-- Node1&#45;&gt;Node5 -->
<g id="edge4" class="edge"><title>Node1&#45;&gt;Node5</title>
<path fill="none" stroke="midnightblue" d="M94.9369,-73.8339C115.034,-63.8632 142.906,-50.4806 168,-40 176.112,-36.6119 184.864,-33.234 193.322,-30.107"/>
<polygon fill="midnightblue" stroke="midnightblue" points="93.1241,-70.827 85.7422,-78.4269 96.2523,-77.0892 93.1241,-70.827"/>
</g>
</g>
</svg>
