<?xml version="1.0" encoding="UTF-8" standalone="no"?>
<!DOCTYPE svg PUBLIC "-//W3C//DTD SVG 1.1//EN"
 "http://www.w3.org/Graphics/SVG/1.1/DTD/svg11.dtd">
<!-- Generated by graphviz version 2.36.0 (20140111.2315)
 -->
<!-- Title: DAQContainer::SetGraphicYLow Pages: 1 -->
<svg width="370pt" height="28pt"
 viewBox="0.00 0.00 370.00 28.00" xmlns="http://www.w3.org/2000/svg" xmlns:xlink="http://www.w3.org/1999/xlink">
<g id="graph0" class="graph" transform="scale(1 1) rotate(0) translate(4 24)">
<title>DAQContainer::SetGraphicYLow</title>
<polygon fill="white" stroke="none" points="-4,4 -4,-24 366,-24 366,4 -4,4"/>
<!-- Node1 -->
<g id="node1" class="node"><title>Node1</title>
<polygon fill="#bfbfbf" stroke="black" points="0,-0.5 0,-19.5 160,-19.5 160,-0.5 0,-0.5"/>
<text text-anchor="middle" x="80" y="-7.5" font-family="Helvetica,sans-Serif" font-size="10.00">DAQContainer::SetGraphicYLow</text>
</g>
<!-- Node2 -->
<g id="node2" class="node"><title>Node2</title>
<g id="a_node2"><a xlink:href="_p_d_a_q_2_core_2_source_2xml_8cpp.xhtml#a8251b051736c5146c1985edc6cb357e6" target="_top" xlink:title="xml_readsettings">
<polygon fill="white" stroke="black" points="196.5,-0.5 196.5,-19.5 287.5,-19.5 287.5,-0.5 196.5,-0.5"/>
<text text-anchor="middle" x="242" y="-7.5" font-family="Helvetica,sans-Serif" font-size="10.00">xml_readsettings</text>
</a>
</g>
</g>
<!-- Node1&#45;&gt;Node2 -->
<g id="edge1" class="edge"><title>Node1&#45;&gt;Node2</title>
<path fill="none" stroke="midnightblue" d="M170.249,-10C179.234,-10 188.061,-10 196.268,-10"/>
<polygon fill="midnightblue" stroke="midnightblue" points="170.063,-6.5001 160.063,-10 170.062,-13.5001 170.063,-6.5001"/>
</g>
<!-- Node3 -->
<g id="node3" class="node"><title>Node3</title>
<g id="a_node3"><a xlink:href="_z_d_a_q_8cpp.xhtml#a0ddf1224851353fc92bfbff6f499fa97" target="_top" xlink:title="main">
<polygon fill="white" stroke="black" points="324,-0.5 324,-19.5 362,-19.5 362,-0.5 324,-0.5"/>
<text text-anchor="middle" x="343" y="-7.5" font-family="Helvetica,sans-Serif" font-size="10.00">main</text>
</a>
</g>
</g>
<!-- Node2&#45;&gt;Node3 -->
<g id="edge2" class="edge"><title>Node2&#45;&gt;Node3</title>
<path fill="none" stroke="midnightblue" d="M297.748,-10C307.09,-10 316.179,-10 323.665,-10"/>
<polygon fill="midnightblue" stroke="midnightblue" points="297.577,-6.5001 287.577,-10 297.577,-13.5001 297.577,-6.5001"/>
</g>
</g>
</svg>
