<?xml version="1.0" encoding="UTF-8" standalone="no"?>
<!DOCTYPE svg PUBLIC "-//W3C//DTD SVG 1.1//EN"
 "http://www.w3.org/Graphics/SVG/1.1/DTD/svg11.dtd">
<!-- Generated by graphviz version 2.36.0 (20140111.2315)
 -->
<!-- Title: DRSBoard::GetNominalFrequency Pages: 1 -->
<svg width="320pt" height="185pt"
 viewBox="0.00 0.00 320.00 185.00" xmlns="http://www.w3.org/2000/svg" xmlns:xlink="http://www.w3.org/1999/xlink">
<g id="graph0" class="graph" transform="scale(1 1) rotate(0) translate(4 181)">
<title>DRSBoard::GetNominalFrequency</title>
<polygon fill="white" stroke="none" points="-4,4 -4,-181 316,-181 316,4 -4,4"/>
<!-- Node1 -->
<g id="node1" class="node"><title>Node1</title>
<polygon fill="#bfbfbf" stroke="black" points="0.5,-78.5 0.5,-97.5 167.5,-97.5 167.5,-78.5 0.5,-78.5"/>
<text text-anchor="middle" x="84" y="-85.5" font-family="Helvetica,sans-Serif" font-size="10.00">DRSBoard::GetNominalFrequency</text>
</g>
<!-- Node2 -->
<g id="node2" class="node"><title>Node2</title>
<g id="a_node2"><a xlink:href="class_response_calibration.xhtml#a42aae8f641a6c12c6866c76a151767dc" target="_top" xlink:title="ResponseCalibration\l::ReadCalibrationV3">
<polygon fill="white" stroke="black" points="204.5,-147 204.5,-177 311.5,-177 311.5,-147 204.5,-147"/>
<text text-anchor="start" x="212.5" y="-165" font-family="Helvetica,sans-Serif" font-size="10.00">ResponseCalibration</text>
<text text-anchor="middle" x="258" y="-154" font-family="Helvetica,sans-Serif" font-size="10.00">::ReadCalibrationV3</text>
</a>
</g>
</g>
<!-- Node1&#45;&gt;Node2 -->
<g id="edge1" class="edge"><title>Node1&#45;&gt;Node2</title>
<path fill="none" stroke="midnightblue" d="M116.628,-101.607C146.41,-114.421 190.943,-133.58 221.83,-146.869"/>
<polygon fill="midnightblue" stroke="midnightblue" points="117.703,-98.2598 107.134,-97.5227 114.937,-104.69 117.703,-98.2598"/>
</g>
<!-- Node3 -->
<g id="node3" class="node"><title>Node3</title>
<g id="a_node3"><a xlink:href="class_response_calibration.xhtml#a2e17dc6f1ba961b5f2ce626c08277155" target="_top" xlink:title="ResponseCalibration\l::ReadCalibrationV4">
<polygon fill="white" stroke="black" points="204.5,-98 204.5,-128 311.5,-128 311.5,-98 204.5,-98"/>
<text text-anchor="start" x="212.5" y="-116" font-family="Helvetica,sans-Serif" font-size="10.00">ResponseCalibration</text>
<text text-anchor="middle" x="258" y="-105" font-family="Helvetica,sans-Serif" font-size="10.00">::ReadCalibrationV4</text>
</a>
</g>
</g>
<!-- Node1&#45;&gt;Node3 -->
<g id="edge2" class="edge"><title>Node1&#45;&gt;Node3</title>
<path fill="none" stroke="midnightblue" d="M160.666,-98.9979C175.453,-101.147 190.654,-103.357 204.485,-105.367"/>
<polygon fill="midnightblue" stroke="midnightblue" points="160.916,-95.4976 150.516,-97.5227 159.909,-102.425 160.916,-95.4976"/>
</g>
<!-- Node4 -->
<g id="node4" class="node"><title>Node4</title>
<g id="a_node4"><a xlink:href="class_response_calibration.xhtml#a41b50602ac62ccff04c0629d06f75319" target="_top" xlink:title="ResponseCalibration\l::WriteCalibrationV3">
<polygon fill="white" stroke="black" points="204.5,-49 204.5,-79 311.5,-79 311.5,-49 204.5,-49"/>
<text text-anchor="start" x="212.5" y="-67" font-family="Helvetica,sans-Serif" font-size="10.00">ResponseCalibration</text>
<text text-anchor="middle" x="258" y="-56" font-family="Helvetica,sans-Serif" font-size="10.00">::WriteCalibrationV3</text>
</a>
</g>
</g>
<!-- Node1&#45;&gt;Node4 -->
<g id="edge3" class="edge"><title>Node1&#45;&gt;Node4</title>
<path fill="none" stroke="midnightblue" d="M163.496,-77.047C177.354,-75.1134 191.473,-73.1433 204.4,-71.3395"/>
<polygon fill="midnightblue" stroke="midnightblue" points="162.894,-73.5971 153.473,-78.4456 163.861,-80.53 162.894,-73.5971"/>
</g>
<!-- Node5 -->
<g id="node5" class="node"><title>Node5</title>
<g id="a_node5"><a xlink:href="class_response_calibration.xhtml#a7bd46c76810988350d28ddc0e70972c6" target="_top" xlink:title="ResponseCalibration\l::WriteCalibrationV4">
<polygon fill="white" stroke="black" points="204.5,-0 204.5,-30 311.5,-30 311.5,-0 204.5,-0"/>
<text text-anchor="start" x="212.5" y="-18" font-family="Helvetica,sans-Serif" font-size="10.00">ResponseCalibration</text>
<text text-anchor="middle" x="258" y="-7" font-family="Helvetica,sans-Serif" font-size="10.00">::WriteCalibrationV4</text>
</a>
</g>
</g>
<!-- Node1&#45;&gt;Node5 -->
<g id="edge4" class="edge"><title>Node1&#45;&gt;Node5</title>
<path fill="none" stroke="midnightblue" d="M116.941,-74.4438C146.565,-61.8709 190.583,-43.1885 221.342,-30.134"/>
<polygon fill="midnightblue" stroke="midnightblue" points="115.324,-71.3278 107.486,-78.4565 118.059,-77.7714 115.324,-71.3278"/>
</g>
</g>
</svg>
