<?xml version="1.0" encoding="UTF-8" standalone="no"?>
<!DOCTYPE svg PUBLIC "-//W3C//DTD SVG 1.1//EN"
 "http://www.w3.org/Graphics/SVG/1.1/DTD/svg11.dtd">
<!-- Generated by graphviz version 2.36.0 (20140111.2315)
 -->
<!-- Title: ScopeManager::SetChannelTresh Pages: 1 -->
<svg width="404pt" height="142pt"
 viewBox="0.00 0.00 404.00 142.00" xmlns="http://www.w3.org/2000/svg" xmlns:xlink="http://www.w3.org/1999/xlink">
<g id="graph0" class="graph" transform="scale(1 1) rotate(0) translate(4 138)">
<title>ScopeManager::SetChannelTresh</title>
<polygon fill="white" stroke="none" points="-4,4 -4,-138 400,-138 400,4 -4,4"/>
<!-- Node1 -->
<g id="node1" class="node"><title>Node1</title>
<polygon fill="#bfbfbf" stroke="black" points="0.5,-52 0.5,-82 139.5,-82 139.5,-52 0.5,-52"/>
<text text-anchor="start" x="8.5" y="-70" font-family="Helvetica,sans-Serif" font-size="10.00">ScopeManager::SetChannel</text>
<text text-anchor="middle" x="70" y="-59" font-family="Helvetica,sans-Serif" font-size="10.00">Tresh</text>
</g>
<!-- Node2 -->
<g id="node2" class="node"><title>Node2</title>
<g id="a_node2"><a xlink:href="graph_8h.xhtml#a47ba0a65658fc0ac6b76a02e4bb0918e" target="_top" xlink:title="graph_checkkey">
<polygon fill="white" stroke="black" points="176,-57.5 176,-76.5 264,-76.5 264,-57.5 176,-57.5"/>
<text text-anchor="middle" x="220" y="-64.5" font-family="Helvetica,sans-Serif" font-size="10.00">graph_checkkey</text>
</a>
</g>
</g>
<!-- Node1&#45;&gt;Node2 -->
<g id="edge1" class="edge"><title>Node1&#45;&gt;Node2</title>
<path fill="none" stroke="midnightblue" d="M139.801,-67C148.495,-67 157.285,-67 165.688,-67"/>
<polygon fill="midnightblue" stroke="midnightblue" points="165.714,-70.5001 175.713,-67 165.713,-63.5001 165.714,-70.5001"/>
</g>
<!-- Node3 -->
<g id="node3" class="node"><title>Node3</title>
<g id="a_node3"><a xlink:href="_core_2_include_2control_8h.xhtml#a3a545ba21c1d05570512e20917c021cf" target="_top" xlink:title="col">
<polygon fill="white" stroke="black" points="333.5,-114.5 333.5,-133.5 362.5,-133.5 362.5,-114.5 333.5,-114.5"/>
<text text-anchor="middle" x="348" y="-121.5" font-family="Helvetica,sans-Serif" font-size="10.00">col</text>
</a>
</g>
</g>
<!-- Node2&#45;&gt;Node3 -->
<g id="edge2" class="edge"><title>Node2&#45;&gt;Node3</title>
<path fill="none" stroke="midnightblue" d="M239.996,-76.5607C255.9,-84.4622 279.259,-95.8308 300,-105 307.724,-108.415 316.261,-111.939 323.916,-115.011"/>
<polygon fill="midnightblue" stroke="midnightblue" points="322.743,-118.311 333.329,-118.741 325.322,-111.803 322.743,-118.311"/>
</g>
<!-- Node4 -->
<g id="node4" class="node"><title>Node4</title>
<g id="a_node4"><a xlink:href="_core_2_include_2control_8h.xhtml#a870a5f7c8f98fa5b52edfc9210ac20ac" target="_top" xlink:title="control_getadc">
<polygon fill="white" stroke="black" points="308,-76.5 308,-95.5 388,-95.5 388,-76.5 308,-76.5"/>
<text text-anchor="middle" x="348" y="-83.5" font-family="Helvetica,sans-Serif" font-size="10.00">control_getadc</text>
</a>
</g>
</g>
<!-- Node2&#45;&gt;Node4 -->
<g id="edge3" class="edge"><title>Node2&#45;&gt;Node4</title>
<path fill="none" stroke="midnightblue" d="M264.01,-73.4856C274.926,-75.1317 286.736,-76.9126 297.928,-78.6003"/>
<polygon fill="midnightblue" stroke="midnightblue" points="297.58,-82.0873 307.99,-80.1176 298.624,-75.1656 297.58,-82.0873"/>
</g>
<!-- Node5 -->
<g id="node5" class="node"><title>Node5</title>
<g id="a_node5"><a xlink:href="_core_2_include_2control_8h.xhtml#a1a91b66f68a4ba6cdf2ed9f75c6df947" target="_top" xlink:title="control_scopehelp">
<polygon fill="white" stroke="black" points="300.5,-38.5 300.5,-57.5 395.5,-57.5 395.5,-38.5 300.5,-38.5"/>
<text text-anchor="middle" x="348" y="-45.5" font-family="Helvetica,sans-Serif" font-size="10.00">control_scopehelp</text>
</a>
</g>
</g>
<!-- Node2&#45;&gt;Node5 -->
<g id="edge4" class="edge"><title>Node2&#45;&gt;Node5</title>
<path fill="none" stroke="midnightblue" d="M264.01,-60.5144C272.504,-59.2335 281.54,-57.8709 290.405,-56.5341"/>
<polygon fill="midnightblue" stroke="midnightblue" points="290.937,-59.9936 300.303,-55.0416 289.893,-53.0719 290.937,-59.9936"/>
</g>
<!-- Node6 -->
<g id="node6" class="node"><title>Node6</title>
<g id="a_node6"><a xlink:href="_core_2_include_2control_8h.xhtml#a48a6baefa46edb93b59bb0f76385052a" target="_top" xlink:title="errormsg">
<polygon fill="white" stroke="black" points="320.5,-0.5 320.5,-19.5 375.5,-19.5 375.5,-0.5 320.5,-0.5"/>
<text text-anchor="middle" x="348" y="-7.5" font-family="Helvetica,sans-Serif" font-size="10.00">errormsg</text>
</a>
</g>
</g>
<!-- Node2&#45;&gt;Node6 -->
<g id="edge5" class="edge"><title>Node2&#45;&gt;Node6</title>
<path fill="none" stroke="midnightblue" d="M239.996,-57.4393C255.9,-49.5378 279.259,-38.1692 300,-29 304.188,-27.1484 308.616,-25.2645 313.012,-23.4381"/>
<polygon fill="midnightblue" stroke="midnightblue" points="314.55,-26.5906 322.481,-19.5661 311.9,-20.1113 314.55,-26.5906"/>
</g>
</g>
</svg>
