<?xml version="1.0" encoding="UTF-8" standalone="no"?>
<!DOCTYPE svg PUBLIC "-//W3C//DTD SVG 1.1//EN"
 "http://www.w3.org/Graphics/SVG/1.1/DTD/svg11.dtd">
<!-- Generated by graphviz version 2.36.0 (20140111.2315)
 -->
<!-- Title: DRSCallback::Progress Pages: 1 -->
<svg width="428pt" height="142pt"
 viewBox="0.00 0.00 428.00 142.00" xmlns="http://www.w3.org/2000/svg" xmlns:xlink="http://www.w3.org/1999/xlink">
<g id="graph0" class="graph" transform="scale(1 1) rotate(0) translate(4 138)">
<title>DRSCallback::Progress</title>
<polygon fill="white" stroke="none" points="-4,4 -4,-138 424,-138 424,4 -4,4"/>
<!-- Node1 -->
<g id="node1" class="node"><title>Node1</title>
<polygon fill="#bfbfbf" stroke="black" points="0,-57.5 0,-76.5 122,-76.5 122,-57.5 0,-57.5"/>
<text text-anchor="middle" x="61" y="-64.5" font-family="Helvetica,sans-Serif" font-size="10.00">DRSCallback::Progress</text>
</g>
<!-- Node2 -->
<g id="node2" class="node"><title>Node2</title>
<g id="a_node2"><a xlink:href="class_d_r_s_board.xhtml#a4b1710a4ba88874522b7a9de742a6f40" target="_top" xlink:title="DRSBoard::AverageWaveforms">
<polygon fill="white" stroke="black" points="174,-114.5 174,-133.5 330,-133.5 330,-114.5 174,-114.5"/>
<text text-anchor="middle" x="252" y="-121.5" font-family="Helvetica,sans-Serif" font-size="10.00">DRSBoard::AverageWaveforms</text>
</a>
</g>
</g>
<!-- Node1&#45;&gt;Node2 -->
<g id="edge1" class="edge"><title>Node1&#45;&gt;Node2</title>
<path fill="none" stroke="midnightblue" d="M92.1549,-80.5164C110.83,-88.4884 135.47,-98.2958 158,-105 170.162,-108.619 183.422,-111.78 196.018,-114.431"/>
<polygon fill="midnightblue" stroke="midnightblue" points="93.5428,-77.3034 82.9754,-76.5411 90.7609,-83.7269 93.5428,-77.3034"/>
</g>
<!-- Node3 -->
<g id="node3" class="node"><title>Node3</title>
<g id="a_node3"><a xlink:href="class_d_r_s_board.xhtml#ac4774a4b6d692d3064c08c49f3581edb" target="_top" xlink:title="DRSBoard::CalibrateTiming">
<polygon fill="white" stroke="black" points="183,-76.5 183,-95.5 321,-95.5 321,-76.5 183,-76.5"/>
<text text-anchor="middle" x="252" y="-83.5" font-family="Helvetica,sans-Serif" font-size="10.00">DRSBoard::CalibrateTiming</text>
</a>
</g>
</g>
<!-- Node1&#45;&gt;Node3 -->
<g id="edge2" class="edge"><title>Node1&#45;&gt;Node3</title>
<path fill="none" stroke="midnightblue" d="M132.215,-74.0586C148.776,-75.7236 166.406,-77.4958 182.874,-79.1513"/>
<polygon fill="midnightblue" stroke="midnightblue" points="132.36,-70.5557 122.06,-73.0378 131.66,-77.5206 132.36,-70.5557"/>
</g>
<!-- Node5 -->
<g id="node5" class="node"><title>Node5</title>
<g id="a_node5"><a xlink:href="class_d_r_s_board.xhtml#ab7e60716836fd4ac6707e446d498bbd1" target="_top" xlink:title="DRSBoard::CalibrateVolt">
<polygon fill="white" stroke="black" points="189,-38.5 189,-57.5 315,-57.5 315,-38.5 189,-38.5"/>
<text text-anchor="middle" x="252" y="-45.5" font-family="Helvetica,sans-Serif" font-size="10.00">DRSBoard::CalibrateVolt</text>
</a>
</g>
</g>
<!-- Node1&#45;&gt;Node5 -->
<g id="edge4" class="edge"><title>Node1&#45;&gt;Node5</title>
<path fill="none" stroke="midnightblue" d="M132.22,-59.9409C150.791,-58.0739 170.705,-56.072 188.817,-54.2512"/>
<polygon fill="midnightblue" stroke="midnightblue" points="131.66,-56.4794 122.06,-60.9622 132.36,-63.4443 131.66,-56.4794"/>
</g>
<!-- Node6 -->
<g id="node6" class="node"><title>Node6</title>
<g id="a_node6"><a xlink:href="class_d_r_s_board.xhtml#a6e16736c059a10a958a692aefc5dda48" target="_top" xlink:title="DRSBoard::RobustAverageWaveforms">
<polygon fill="white" stroke="black" points="158,-0.5 158,-19.5 346,-19.5 346,-0.5 158,-0.5"/>
<text text-anchor="middle" x="252" y="-7.5" font-family="Helvetica,sans-Serif" font-size="10.00">DRSBoard::RobustAverageWaveforms</text>
</a>
</g>
</g>
<!-- Node1&#45;&gt;Node6 -->
<g id="edge6" class="edge"><title>Node1&#45;&gt;Node6</title>
<path fill="none" stroke="midnightblue" d="M92.1549,-53.4836C110.83,-45.5116 135.47,-35.7042 158,-29 170.162,-25.381 183.422,-22.2202 196.018,-19.5693"/>
<polygon fill="midnightblue" stroke="midnightblue" points="90.7609,-50.2731 82.9754,-57.4589 93.5428,-56.6966 90.7609,-50.2731"/>
</g>
<!-- Node4 -->
<g id="node4" class="node"><title>Node4</title>
<g id="a_node4"><a xlink:href="_z_d_a_q_8cpp.xhtml#a0ddf1224851353fc92bfbff6f499fa97" target="_top" xlink:title="main">
<polygon fill="white" stroke="black" points="382,-57.5 382,-76.5 420,-76.5 420,-57.5 382,-57.5"/>
<text text-anchor="middle" x="401" y="-64.5" font-family="Helvetica,sans-Serif" font-size="10.00">main</text>
</a>
</g>
</g>
<!-- Node3&#45;&gt;Node4 -->
<g id="edge3" class="edge"><title>Node3&#45;&gt;Node4</title>
<path fill="none" stroke="midnightblue" d="M331.301,-75.8795C350.333,-73.4196 368.934,-71.0153 381.97,-69.3304"/>
<polygon fill="midnightblue" stroke="midnightblue" points="330.805,-72.4144 321.336,-77.1675 331.702,-79.3567 330.805,-72.4144"/>
</g>
<!-- Node5&#45;&gt;Node4 -->
<g id="edge5" class="edge"><title>Node5&#45;&gt;Node4</title>
<path fill="none" stroke="midnightblue" d="M325.291,-57.3438C346.312,-60.0607 367.464,-62.7947 381.869,-64.6565"/>
<polygon fill="midnightblue" stroke="midnightblue" points="325.707,-53.8685 315.341,-56.0577 324.81,-60.8108 325.707,-53.8685"/>
</g>
</g>
</svg>
