<?xml version="1.0" encoding="UTF-8" standalone="no"?>
<!DOCTYPE svg PUBLIC "-//W3C//DTD SVG 1.1//EN"
 "http://www.w3.org/Graphics/SVG/1.1/DTD/svg11.dtd">
<!-- Generated by graphviz version 2.36.0 (20140111.2315)
 -->
<!-- Title: StorageManager Pages: 1 -->
<svg width="94pt" height="154pt"
 viewBox="0.00 0.00 94.00 154.00" xmlns="http://www.w3.org/2000/svg" xmlns:xlink="http://www.w3.org/1999/xlink">
<g id="graph0" class="graph" transform="scale(1 1) rotate(0) translate(4 150)">
<title>StorageManager</title>
<polygon fill="white" stroke="none" points="-4,4 -4,-150 90,-150 90,4 -4,4"/>
<!-- Node1 -->
<g id="node1" class="node"><title>Node1</title>
<polygon fill="#bfbfbf" stroke="black" points="-1,-0.5 -1,-19.5 87,-19.5 87,-0.5 -1,-0.5"/>
<text text-anchor="middle" x="43" y="-7.5" font-family="Helvetica,sans-Serif" font-size="10.00">StorageManager</text>
</g>
<!-- Node2 -->
<g id="node2" class="node"><title>Node2</title>
<g id="a_node2"><a xlink:href="class_common.xhtml" target="_top" xlink:title="Common">
<polygon fill="white" stroke="black" points="15,-58.5 15,-77.5 71,-77.5 71,-58.5 15,-58.5"/>
<text text-anchor="middle" x="43" y="-65.5" font-family="Helvetica,sans-Serif" font-size="10.00">Common</text>
</a>
</g>
</g>
<!-- Node2&#45;&gt;Node1 -->
<g id="edge1" class="edge"><title>Node2&#45;&gt;Node1</title>
<path fill="none" stroke="midnightblue" d="M43,-47.953C43,-38.2875 43,-27.0312 43,-19.5052"/>
<polygon fill="midnightblue" stroke="midnightblue" points="39.5001,-48.25 43,-58.25 46.5001,-48.25 39.5001,-48.25"/>
</g>
<!-- Node3 -->
<g id="node3" class="node"><title>Node3</title>
<polygon fill="white" stroke="#bfbfbf" points="22.5,-126.5 22.5,-145.5 63.5,-145.5 63.5,-126.5 22.5,-126.5"/>
<text text-anchor="middle" x="43" y="-133.5" font-family="Helvetica,sans-Serif" font-size="10.00">string</text>
</g>
<!-- Node3&#45;&gt;Node2 -->
<g id="edge2" class="edge"><title>Node3&#45;&gt;Node2</title>
<path fill="none" stroke="#9a32cd" stroke-dasharray="5,2" d="M43,-116.041C43,-103.472 43,-87.5631 43,-77.8411"/>
<polygon fill="#9a32cd" stroke="#9a32cd" points="39.5001,-116.372 43,-126.372 46.5001,-116.372 39.5001,-116.372"/>
<text text-anchor="middle" x="64.5" y="-99.5" font-family="Helvetica,sans-Serif" font-size="10.00"> Message</text>
</g>
</g>
</svg>
