<?xml version="1.0" encoding="UTF-8" standalone="no"?>
<!DOCTYPE svg PUBLIC "-//W3C//DTD SVG 1.1//EN"
 "http://www.w3.org/Graphics/SVG/1.1/DTD/svg11.dtd">
<!-- Generated by graphviz version 2.36.0 (20140111.2315)
 -->
<!-- Title: DRSBoard::RobustAverageWaveforms Pages: 1 -->
<!--zoomable 153 -->
<svg id="main" version="1.1" xmlns="http://www.w3.org/2000/svg" xmlns:xlink="http://www.w3.org/1999/xlink" xml:space="preserve" onload="init(evt)">
<style type="text/css"><![CDATA[
.edge:hover path { stroke: red; }
.edge:hover polygon { stroke: red; fill: red; }
]]></style>
<script type="text/javascript"><![CDATA[
var edges = document.getElementsByTagName('g');
if (edges && edges.length) {
  for (var i=0;i<edges.length;i++) {
    if (edges[i].id.substr(0,4)=='edge') {
      edges[i].setAttribute('class','edge');
    }
  }
}
]]></script>
        <defs>
                <circle id="rim" cx="0" cy="0" r="7"/>
                <circle id="rim2" cx="0" cy="0" r="3.5"/>
                <g id="zoomPlus">
                        <use xlink:href="#rim" fill="#404040">
                                <set attributeName="fill" to="#808080" begin="zoomplus.mouseover" end="zoomplus.mouseout"/>
                        </use>
                        <path d="M-4,0h8M0,-4v8" fill="none" stroke="white" stroke-width="1.5" pointer-events="none"/>
                </g>
                <g id="zoomMin">
                        <use xlink:href="#rim" fill="#404040">
                                <set attributeName="fill" to="#808080" begin="zoomminus.mouseover" end="zoomminus.mouseout"/>
                        </use>
                        <path d="M-4,0h8" fill="none" stroke="white" stroke-width="1.5" pointer-events="none"/>
                </g>
                <g id="dirArrow">
                        <path fill="none" stroke="white" stroke-width="1.5" d="M0,-3.0v7 M-2.5,-0.5L0,-3.0L2.5,-0.5"/>
                </g>
               <g id="resetDef">
                       <use xlink:href="#rim2" fill="#404040">
                               <set attributeName="fill" to="#808080" begin="reset.mouseover" end="reset.mouseout"/>
                       </use>
               </g>
        </defs>

<script type="text/javascript">
var viewWidth = 582;
var viewHeight = 153;
var sectionId = 'dynsection-39';
</script>
<script xlink:href="svgpan.js"/>
<svg id="graph" class="graph">
<g id="viewport">
<title>DRSBoard::RobustAverageWaveforms</title>
<polygon fill="white" stroke="none" points="-4,4 -4,-149 578,-149 578,4 -4,4"/>
<!-- Node1 -->
<g id="node1" class="node"><title>Node1</title>
<polygon fill="#bfbfbf" stroke="black" points="0,-68.5 0,-87.5 188,-87.5 188,-68.5 0,-68.5"/>
<text text-anchor="middle" x="94" y="-75.5" font-family="Helvetica,sans-Serif" font-size="10.00">DRSBoard::RobustAverageWaveforms</text>
</g>
<!-- Node2 -->
<g id="node2" class="node"><title>Node2</title>
<g id="a_node2"><a xlink:href="class_averager.xhtml#a54f782d24315b52034c2badd434a615f" target="_top" xlink:title="Averager::Add">
<polygon fill="white" stroke="black" points="251.5,-125.5 251.5,-144.5 330.5,-144.5 330.5,-125.5 251.5,-125.5"/>
<text text-anchor="middle" x="291" y="-132.5" font-family="Helvetica,sans-Serif" font-size="10.00">Averager::Add</text>
</a>
</g>
</g>
<!-- Node1&#45;&gt;Node2 -->
<g id="edge1" class="edge"><title>Node1&#45;&gt;Node2</title>
<path fill="none" stroke="midnightblue" d="M127.057,-87.5029C153.149,-95.223 190.936,-106.371 224,-116 231.403,-118.156 239.277,-120.435 246.912,-122.637"/>
<polygon fill="midnightblue" stroke="midnightblue" points="246.173,-126.067 256.751,-125.472 248.111,-119.34 246.173,-126.067"/>
</g>
<!-- Node3 -->
<g id="node3" class="node"><title>Node3</title>
<g id="a_node3"><a xlink:href="class_d_r_s_callback.xhtml#a088e15ac8657d148d61c8fb80b2e23ac" target="_top" xlink:title="DRSCallback::Progress">
<polygon fill="white" stroke="black" points="230,-87.5 230,-106.5 352,-106.5 352,-87.5 230,-87.5"/>
<text text-anchor="middle" x="291" y="-94.5" font-family="Helvetica,sans-Serif" font-size="10.00">DRSCallback::Progress</text>
</a>
</g>
</g>
<!-- Node1&#45;&gt;Node3 -->
<g id="edge2" class="edge"><title>Node1&#45;&gt;Node3</title>
<path fill="none" stroke="midnightblue" d="M188.217,-87.0826C198.865,-88.1202 209.582,-89.1644 219.858,-90.1657"/>
<polygon fill="midnightblue" stroke="midnightblue" points="219.676,-93.6644 229.968,-91.1508 220.355,-86.6974 219.676,-93.6644"/>
</g>
<!-- Node4 -->
<g id="node4" class="node"><title>Node4</title>
<g id="a_node4"><a xlink:href="class_averager.xhtml#a9dc816c41ccae2bb908061c8a0eff363" target="_top" xlink:title="Averager::RobustAverage">
<polygon fill="white" stroke="black" points="226.5,-49.5 226.5,-68.5 355.5,-68.5 355.5,-49.5 226.5,-49.5"/>
<text text-anchor="middle" x="291" y="-56.5" font-family="Helvetica,sans-Serif" font-size="10.00">Averager::RobustAverage</text>
</a>
</g>
</g>
<!-- Node1&#45;&gt;Node4 -->
<g id="edge3" class="edge"><title>Node1&#45;&gt;Node4</title>
<path fill="none" stroke="midnightblue" d="M188.217,-68.9174C197.608,-68.0023 207.052,-67.0821 216.2,-66.1908"/>
<polygon fill="midnightblue" stroke="midnightblue" points="216.77,-69.6519 226.384,-65.1985 216.091,-62.6849 216.77,-69.6519"/>
</g>
<!-- Node7 -->
<g id="node7" class="node"><title>Node7</title>
<g id="a_node7"><a xlink:href="class_averager.xhtml#a4cafa76ff8897c99b8647d93cc35eb03" target="_top" xlink:title="Averager::SaveNormalized\lDistribution">
<polygon fill="white" stroke="black" points="224,-0 224,-30 358,-30 358,-0 224,-0"/>
<text text-anchor="start" x="232" y="-18" font-family="Helvetica,sans-Serif" font-size="10.00">Averager::SaveNormalized</text>
<text text-anchor="middle" x="291" y="-7" font-family="Helvetica,sans-Serif" font-size="10.00">Distribution</text>
</a>
</g>
</g>
<!-- Node1&#45;&gt;Node7 -->
<g id="edge6" class="edge"><title>Node1&#45;&gt;Node7</title>
<path fill="none" stroke="midnightblue" d="M124.616,-68.4317C153.443,-59.1184 197.987,-44.7273 233.587,-33.2258"/>
<polygon fill="midnightblue" stroke="midnightblue" points="234.93,-36.4699 243.37,-30.065 232.778,-29.8089 234.93,-36.4699"/>
</g>
<!-- Node5 -->
<g id="node5" class="node"><title>Node5</title>
<g id="a_node5"><a xlink:href="class_averager.xhtml#a762a787a827f2a2591019abde244f053" target="_top" xlink:title="Averager::Median">
<polygon fill="white" stroke="black" points="394.5,-27.5 394.5,-46.5 487.5,-46.5 487.5,-27.5 394.5,-27.5"/>
<text text-anchor="middle" x="441" y="-34.5" font-family="Helvetica,sans-Serif" font-size="10.00">Averager::Median</text>
</a>
</g>
</g>
<!-- Node4&#45;&gt;Node5 -->
<g id="edge4" class="edge"><title>Node4&#45;&gt;Node5</title>
<path fill="none" stroke="midnightblue" d="M355.624,-49.5423C365.175,-48.1226 374.961,-46.6679 384.329,-45.2754"/>
<polygon fill="midnightblue" stroke="midnightblue" points="384.922,-48.7258 394.299,-43.7934 383.893,-41.8018 384.922,-48.7258"/>
</g>
<!-- Node6 -->
<g id="node6" class="node"><title>Node6</title>
<g id="a_node6"><a xlink:href="averager_8cpp.xhtml#a0175038e9fbcee94d51ca2ac939109a6" target="_top" xlink:title="compar">
<polygon fill="white" stroke="black" points="524.5,-27.5 524.5,-46.5 573.5,-46.5 573.5,-27.5 524.5,-27.5"/>
<text text-anchor="middle" x="549" y="-34.5" font-family="Helvetica,sans-Serif" font-size="10.00">compar</text>
</a>
</g>
</g>
<!-- Node5&#45;&gt;Node6 -->
<g id="edge5" class="edge"><title>Node5&#45;&gt;Node6</title>
<path fill="none" stroke="midnightblue" d="M487.569,-37C496.485,-37 505.688,-37 514.141,-37"/>
<polygon fill="midnightblue" stroke="midnightblue" points="514.368,-40.5001 524.368,-37 514.368,-33.5001 514.368,-40.5001"/>
</g>
<!-- Node7&#45;&gt;Node5 -->
<g id="edge7" class="edge"><title>Node7&#45;&gt;Node5</title>
<path fill="none" stroke="midnightblue" d="M358.208,-24.8418C366.853,-26.1269 375.642,-27.4333 384.095,-28.6898"/>
<polygon fill="midnightblue" stroke="midnightblue" points="383.802,-32.1846 394.208,-30.193 384.831,-25.2606 383.802,-32.1846"/>
</g>
</g>
</svg>
        <g id="navigator" transform="translate(0 0)" fill="#404254">
                <rect fill="#f2f5e9" fill-opacity="0.5" stroke="#606060" stroke-width=".5" x="0" y="0" width="60" height="60"/>
                <use id="zoomplus" xlink:href="#zoomPlus" x="17" y="9" onmousedown="handleZoom(evt,'in')"/>
                <use id="zoomminus" xlink:href="#zoomMin" x="42" y="9" onmousedown="handleZoom(evt,'out')"/>
                <use id="reset" xlink:href="#resetDef" x="30" y="36" onmousedown="handleReset()"/>
                <g id="arrowUp" xlink:href="#dirArrow" transform="translate(30 24)" onmousedown="handlePan(0,-1)">
                  <use xlink:href="#rim" fill="#404040">
                        <set attributeName="fill" to="#808080" begin="arrowUp.mouseover" end="arrowUp.mouseout"/>
                  </use>
                  <path fill="none" stroke="white" stroke-width="1.5" d="M0,-3.0v7 M-2.5,-0.5L0,-3.0L2.5,-0.5"/>
                </g>
                <g id="arrowRight" xlink:href="#dirArrow" transform="rotate(90) translate(36 -43)" onmousedown="handlePan(1,0)">
                  <use xlink:href="#rim" fill="#404040">
                        <set attributeName="fill" to="#808080" begin="arrowRight.mouseover" end="arrowRight.mouseout"/>
                  </use>
                  <path fill="none" stroke="white" stroke-width="1.5" d="M0,-3.0v7 M-2.5,-0.5L0,-3.0L2.5,-0.5"/>
                </g>
                <g id="arrowDown" xlink:href="#dirArrow" transform="rotate(180) translate(-30 -48)" onmousedown="handlePan(0,1)">
                  <use xlink:href="#rim" fill="#404040">
                        <set attributeName="fill" to="#808080" begin="arrowDown.mouseover" end="arrowDown.mouseout"/>
                  </use>
                  <path fill="none" stroke="white" stroke-width="1.5" d="M0,-3.0v7 M-2.5,-0.5L0,-3.0L2.5,-0.5"/>
                </g>
                <g id="arrowLeft" xlink:href="#dirArrow" transform="rotate(270) translate(-36 17)" onmousedown="handlePan(-1,0)">
                  <use xlink:href="#rim" fill="#404040">
                        <set attributeName="fill" to="#808080" begin="arrowLeft.mouseover" end="arrowLeft.mouseout"/>
                  </use>
                  <path fill="none" stroke="white" stroke-width="1.5" d="M0,-3.0v7 M-2.5,-0.5L0,-3.0L2.5,-0.5"/>
                </g>
        </g>
        <svg viewBox="0 0 15 15" width="100%" height="30px" preserveAspectRatio="xMaxYMin meet">
         <g id="arrow_out" transform="scale(0.3 0.3)">
          <a xlink:href="class_d_r_s_board_a6e16736c059a10a958a692aefc5dda48_cgraph_org.svg" target="_base">
           <rect id="button" ry="5" rx="5" y="6" x="6" height="38" width="38"
                fill="#f2f5e9" fill-opacity="0.5" stroke="#606060" stroke-width="1.0"/>
           <path id="arrow"
             d="M 11.500037,31.436501 C 11.940474,20.09759 22.043105,11.32322 32.158766,21.979434 L 37.068811,17.246167 C 37.068811,17.246167 37.088388,32 37.088388,32 L 22.160133,31.978069 C 22.160133,31.978069 26.997745,27.140456 26.997745,27.140456 C 18.528582,18.264221 13.291696,25.230495 11.500037,31.436501 z"
             style="fill:#404040;"/>
          </a>
         </g>
        </svg>
</svg>
