<?xml version="1.0" encoding="UTF-8" standalone="no"?>
<!DOCTYPE svg PUBLIC "-//W3C//DTD SVG 1.1//EN"
 "http://www.w3.org/Graphics/SVG/1.1/DTD/svg11.dtd">
<!-- Generated by graphviz version 2.36.0 (20140111.2315)
 -->
<!-- Title: ResponseCalibration::ReadCalibrationV3 Pages: 1 -->
<svg width="494pt" height="283pt"
 viewBox="0.00 0.00 494.00 283.00" xmlns="http://www.w3.org/2000/svg" xmlns:xlink="http://www.w3.org/1999/xlink">
<g id="graph0" class="graph" transform="scale(1 1) rotate(0) translate(4 279)">
<title>ResponseCalibration::ReadCalibrationV3</title>
<polygon fill="white" stroke="none" points="-4,4 -4,-279 490,-279 490,4 -4,4"/>
<!-- Node1 -->
<g id="node1" class="node"><title>Node1</title>
<polygon fill="#bfbfbf" stroke="black" points="0.5,-114 0.5,-144 107.5,-144 107.5,-114 0.5,-114"/>
<text text-anchor="start" x="8.5" y="-132" font-family="Helvetica,sans-Serif" font-size="10.00">ResponseCalibration</text>
<text text-anchor="middle" x="54" y="-121" font-family="Helvetica,sans-Serif" font-size="10.00">::ReadCalibrationV3</text>
</g>
<!-- Node2 -->
<g id="node2" class="node"><title>Node2</title>
<g id="a_node2"><a xlink:href="class_response_calibration_1_1_calibration_data.xhtml#a9fa973c53355d15a6039425560095d8d" target="_top" xlink:title="ResponseCalibration\l::CalibrationData::DeletePre\lCalculatedBSpline">
<polygon fill="white" stroke="black" points="158,-233.5 158,-274.5 298,-274.5 298,-233.5 158,-233.5"/>
<text text-anchor="start" x="166" y="-262.5" font-family="Helvetica,sans-Serif" font-size="10.00">ResponseCalibration</text>
<text text-anchor="start" x="166" y="-251.5" font-family="Helvetica,sans-Serif" font-size="10.00">::CalibrationData::DeletePre</text>
<text text-anchor="middle" x="228" y="-240.5" font-family="Helvetica,sans-Serif" font-size="10.00">CalculatedBSpline</text>
</a>
</g>
</g>
<!-- Node1&#45;&gt;Node2 -->
<g id="edge1" class="edge"><title>Node1&#45;&gt;Node2</title>
<path fill="none" stroke="midnightblue" d="M65.6513,-144.271C80.8356,-165.006 110.593,-201.997 144,-224 146.541,-225.674 149.188,-227.268 151.908,-228.786"/>
<polygon fill="midnightblue" stroke="midnightblue" points="150.314,-231.902 160.806,-233.374 153.522,-225.68 150.314,-231.902"/>
</g>
<!-- Node3 -->
<g id="node3" class="node"><title>Node3</title>
<g id="a_node3"><a xlink:href="class_d_r_s_board.xhtml#a6a358b6f6b0c284287ab5004330ae206" target="_top" xlink:title="DRSBoard::GetBoardSerial\lNumber">
<polygon fill="white" stroke="black" points="160,-185 160,-215 296,-215 296,-185 160,-185"/>
<text text-anchor="start" x="168" y="-203" font-family="Helvetica,sans-Serif" font-size="10.00">DRSBoard::GetBoardSerial</text>
<text text-anchor="middle" x="228" y="-192" font-family="Helvetica,sans-Serif" font-size="10.00">Number</text>
</a>
</g>
</g>
<!-- Node1&#45;&gt;Node3 -->
<g id="edge2" class="edge"><title>Node1&#45;&gt;Node3</title>
<path fill="none" stroke="midnightblue" d="M81.2669,-144.208C98.6763,-153.876 122.236,-166.186 144,-175 149.767,-177.336 155.836,-179.569 161.959,-181.672"/>
<polygon fill="midnightblue" stroke="midnightblue" points="160.997,-185.04 171.59,-184.865 163.2,-178.396 160.997,-185.04"/>
</g>
<!-- Node4 -->
<g id="node4" class="node"><title>Node4</title>
<g id="a_node4"><a xlink:href="class_d_r_s_board.xhtml#a1b5b15eac0905fe0e7c449518c923a74" target="_top" xlink:title="DRSBoard::GetCalibration\lDirectory">
<polygon fill="white" stroke="black" points="162,-136 162,-166 294,-166 294,-136 162,-136"/>
<text text-anchor="start" x="170" y="-154" font-family="Helvetica,sans-Serif" font-size="10.00">DRSBoard::GetCalibration</text>
<text text-anchor="middle" x="228" y="-143" font-family="Helvetica,sans-Serif" font-size="10.00">Directory</text>
</a>
</g>
</g>
<!-- Node1&#45;&gt;Node4 -->
<g id="edge3" class="edge"><title>Node1&#45;&gt;Node4</title>
<path fill="none" stroke="midnightblue" d="M107.54,-135.72C121.427,-137.496 136.692,-139.449 151.533,-141.347"/>
<polygon fill="midnightblue" stroke="midnightblue" points="151.354,-144.853 161.717,-142.65 152.242,-137.909 151.354,-144.853"/>
</g>
<!-- Node5 -->
<g id="node5" class="node"><title>Node5</title>
<g id="a_node5"><a xlink:href="class_d_r_s_board.xhtml#a249af1f87c0f77a1950a7701cf9781a2" target="_top" xlink:title="DRSBoard::GetDRSType">
<polygon fill="white" stroke="black" points="163.5,-97.5 163.5,-116.5 292.5,-116.5 292.5,-97.5 163.5,-97.5"/>
<text text-anchor="middle" x="228" y="-104.5" font-family="Helvetica,sans-Serif" font-size="10.00">DRSBoard::GetDRSType</text>
</a>
</g>
</g>
<!-- Node1&#45;&gt;Node5 -->
<g id="edge4" class="edge"><title>Node1&#45;&gt;Node5</title>
<path fill="none" stroke="midnightblue" d="M107.54,-122.28C121.966,-120.435 137.879,-118.399 153.258,-116.432"/>
<polygon fill="midnightblue" stroke="midnightblue" points="153.792,-119.892 163.267,-115.152 152.903,-112.949 153.792,-119.892"/>
</g>
<!-- Node6 -->
<g id="node6" class="node"><title>Node6</title>
<g id="a_node6"><a xlink:href="class_d_r_s_board.xhtml#a3d2ca1fcaaf96e270dd51df9cfd6d560" target="_top" xlink:title="DRSBoard::GetNominalFrequency">
<polygon fill="white" stroke="black" points="144.5,-59.5 144.5,-78.5 311.5,-78.5 311.5,-59.5 144.5,-59.5"/>
<text text-anchor="middle" x="228" y="-66.5" font-family="Helvetica,sans-Serif" font-size="10.00">DRSBoard::GetNominalFrequency</text>
</a>
</g>
</g>
<!-- Node1&#45;&gt;Node6 -->
<g id="edge5" class="edge"><title>Node1&#45;&gt;Node6</title>
<path fill="none" stroke="midnightblue" d="M83.6412,-113.966C100.79,-105.433 123.227,-95.0774 144,-88 151.56,-85.4242 159.627,-83.0893 167.649,-81.0083"/>
<polygon fill="midnightblue" stroke="midnightblue" points="168.511,-84.4006 177.375,-78.5969 166.826,-77.6064 168.511,-84.4006"/>
</g>
<!-- Node7 -->
<g id="node7" class="node"><title>Node7</title>
<g id="a_node7"><a xlink:href="class_response_calibration_1_1_calibration_data.xhtml#acda3f23fc022b5a4880861cb1f5a3f54" target="_top" xlink:title="ResponseCalibration\l::CalibrationData::PreCalculate\lBSpline">
<polygon fill="white" stroke="black" points="152,0.5 152,-40.5 304,-40.5 304,0.5 152,0.5"/>
<text text-anchor="start" x="160" y="-28.5" font-family="Helvetica,sans-Serif" font-size="10.00">ResponseCalibration</text>
<text text-anchor="start" x="160" y="-17.5" font-family="Helvetica,sans-Serif" font-size="10.00">::CalibrationData::PreCalculate</text>
<text text-anchor="middle" x="228" y="-6.5" font-family="Helvetica,sans-Serif" font-size="10.00">BSpline</text>
</a>
</g>
</g>
<!-- Node1&#45;&gt;Node7 -->
<g id="edge6" class="edge"><title>Node1&#45;&gt;Node7</title>
<path fill="none" stroke="midnightblue" d="M68.7434,-113.701C85.1594,-96.2172 114.165,-67.7378 144,-50 146.988,-48.2235 150.098,-46.5263 153.286,-44.9083"/>
<polygon fill="midnightblue" stroke="midnightblue" points="154.907,-48.0129 162.435,-40.5578 151.901,-41.6911 154.907,-48.0129"/>
</g>
<!-- Node8 -->
<g id="node8" class="node"><title>Node8</title>
<g id="a_node8"><a xlink:href="class_response_calibration_1_1_calibration_data.xhtml#a6914ff75f9e540a8a68e3c100edcd339" target="_top" xlink:title="ResponseCalibration\l::CalibrationData::Calculate\lBSpline">
<polygon fill="white" stroke="black" points="348.5,0.5 348.5,-40.5 485.5,-40.5 485.5,0.5 348.5,0.5"/>
<text text-anchor="start" x="356.5" y="-28.5" font-family="Helvetica,sans-Serif" font-size="10.00">ResponseCalibration</text>
<text text-anchor="start" x="356.5" y="-17.5" font-family="Helvetica,sans-Serif" font-size="10.00">::CalibrationData::Calculate</text>
<text text-anchor="middle" x="417" y="-6.5" font-family="Helvetica,sans-Serif" font-size="10.00">BSpline</text>
</a>
</g>
</g>
<!-- Node7&#45;&gt;Node8 -->
<g id="edge7" class="edge"><title>Node7&#45;&gt;Node8</title>
<path fill="none" stroke="midnightblue" d="M304.252,-20C315.441,-20 326.993,-20 338.232,-20"/>
<polygon fill="midnightblue" stroke="midnightblue" points="338.447,-23.5001 348.447,-20 338.447,-16.5001 338.447,-23.5001"/>
</g>
</g>
</svg>
