<?xml version="1.0" encoding="UTF-8" standalone="no"?>
<!DOCTYPE svg PUBLIC "-//W3C//DTD SVG 1.1//EN"
 "http://www.w3.org/Graphics/SVG/1.1/DTD/svg11.dtd">
<!-- Generated by graphviz version 2.36.0 (20140111.2315)
 -->
<!-- Title: DRSBoard::GetTemperature Pages: 1 -->
<svg width="324pt" height="126pt"
 viewBox="0.00 0.00 324.00 126.00" xmlns="http://www.w3.org/2000/svg" xmlns:xlink="http://www.w3.org/1999/xlink">
<g id="graph0" class="graph" transform="scale(1 1) rotate(0) translate(4 122)">
<title>DRSBoard::GetTemperature</title>
<polygon fill="white" stroke="none" points="-4,4 -4,-122 320,-122 320,4 -4,4"/>
<!-- Node1 -->
<g id="node1" class="node"><title>Node1</title>
<polygon fill="#bfbfbf" stroke="black" points="0,-54.5 0,-73.5 140,-73.5 140,-54.5 0,-54.5"/>
<text text-anchor="middle" x="70" y="-61.5" font-family="Helvetica,sans-Serif" font-size="10.00">DRSBoard::GetTemperature</text>
</g>
<!-- Node2 -->
<g id="node2" class="node"><title>Node2</title>
<g id="a_node2"><a xlink:href="_z_d_a_q_8cpp.xhtml#a0ddf1224851353fc92bfbff6f499fa97" target="_top" xlink:title="main">
<polygon fill="white" stroke="black" points="227,-98.5 227,-117.5 265,-117.5 265,-98.5 227,-98.5"/>
<text text-anchor="middle" x="246" y="-105.5" font-family="Helvetica,sans-Serif" font-size="10.00">main</text>
</a>
</g>
</g>
<!-- Node1&#45;&gt;Node2 -->
<g id="edge1" class="edge"><title>Node1&#45;&gt;Node2</title>
<path fill="none" stroke="midnightblue" d="M118.488,-76.0084C154.146,-85.0254 201.049,-96.8859 226.549,-103.334"/>
<polygon fill="midnightblue" stroke="midnightblue" points="119.308,-72.6058 108.755,-73.5473 117.592,-79.3922 119.308,-72.6058"/>
</g>
<!-- Node3 -->
<g id="node3" class="node"><title>Node3</title>
<g id="a_node3"><a xlink:href="class_response_calibration.xhtml#a95f165d2ea84d31af62da2018926951c" target="_top" xlink:title="ResponseCalibration\l::RecordCalibrationPointsV3">
<polygon fill="white" stroke="black" points="176,-49 176,-79 316,-79 316,-49 176,-49"/>
<text text-anchor="start" x="184" y="-67" font-family="Helvetica,sans-Serif" font-size="10.00">ResponseCalibration</text>
<text text-anchor="middle" x="246" y="-56" font-family="Helvetica,sans-Serif" font-size="10.00">::RecordCalibrationPointsV3</text>
</a>
</g>
</g>
<!-- Node1&#45;&gt;Node3 -->
<g id="edge2" class="edge"><title>Node1&#45;&gt;Node3</title>
<path fill="none" stroke="midnightblue" d="M150.035,-64C158.625,-64 167.319,-64 175.779,-64"/>
<polygon fill="midnightblue" stroke="midnightblue" points="150.019,-60.5001 140.019,-64 150.019,-67.5001 150.019,-60.5001"/>
</g>
<!-- Node4 -->
<g id="node4" class="node"><title>Node4</title>
<g id="a_node4"><a xlink:href="class_response_calibration.xhtml#a6d720e4941fbc7e511bc389688d7d229" target="_top" xlink:title="ResponseCalibration\l::RecordCalibrationPointsV4">
<polygon fill="white" stroke="black" points="176,-0 176,-30 316,-30 316,-0 176,-0"/>
<text text-anchor="start" x="184" y="-18" font-family="Helvetica,sans-Serif" font-size="10.00">ResponseCalibration</text>
<text text-anchor="middle" x="246" y="-7" font-family="Helvetica,sans-Serif" font-size="10.00">::RecordCalibrationPointsV4</text>
</a>
</g>
</g>
<!-- Node1&#45;&gt;Node4 -->
<g id="edge3" class="edge"><title>Node1&#45;&gt;Node4</title>
<path fill="none" stroke="midnightblue" d="M114.598,-51.7224C137.95,-45.1463 166.91,-36.9908 191.603,-30.037"/>
<polygon fill="midnightblue" stroke="midnightblue" points="113.639,-48.3563 104.962,-54.436 115.536,-55.0942 113.639,-48.3563"/>
</g>
</g>
</svg>
