<?xml version="1.0" encoding="UTF-8" standalone="no"?>
<!DOCTYPE svg PUBLIC "-//W3C//DTD SVG 1.1//EN"
 "http://www.w3.org/Graphics/SVG/1.1/DTD/svg11.dtd">
<!-- Generated by graphviz version 2.36.0 (20140111.2315)
 -->
<!-- Title: Common Pages: 1 -->
<svg width="206pt" height="294pt"
 viewBox="0.00 0.00 206.00 294.00" xmlns="http://www.w3.org/2000/svg" xmlns:xlink="http://www.w3.org/1999/xlink">
<g id="graph0" class="graph" transform="scale(1 1) rotate(0) translate(4 290)">
<title>Common</title>
<polygon fill="white" stroke="none" points="-4,4 -4,-290 202,-290 202,4 -4,4"/>
<!-- Node1 -->
<g id="node1" class="node"><title>Node1</title>
<polygon fill="#bfbfbf" stroke="black" points="0,-133.5 0,-152.5 56,-152.5 56,-133.5 0,-133.5"/>
<text text-anchor="middle" x="28" y="-140.5" font-family="Helvetica,sans-Serif" font-size="10.00">Common</text>
</g>
<!-- Node2 -->
<g id="node2" class="node"><title>Node2</title>
<g id="a_node2"><a xlink:href="class_a_d_c_manager1720.xhtml" target="_top" xlink:title="ADCManager1720">
<polygon fill="white" stroke="black" points="96.5,-266.5 96.5,-285.5 193.5,-285.5 193.5,-266.5 96.5,-266.5"/>
<text text-anchor="middle" x="145" y="-273.5" font-family="Helvetica,sans-Serif" font-size="10.00">ADCManager1720</text>
</a>
</g>
</g>
<!-- Node1&#45;&gt;Node2 -->
<g id="edge1" class="edge"><title>Node1&#45;&gt;Node2</title>
<path fill="none" stroke="midnightblue" d="M34.9024,-162.286C43.5387,-187.44 61.9415,-231.262 92,-257 96.5265,-260.876 101.91,-263.989 107.471,-266.481"/>
<polygon fill="midnightblue" stroke="midnightblue" points="38.2223,-161.177 31.7936,-152.756 31.5674,-163.348 38.2223,-161.177"/>
</g>
<!-- Node3 -->
<g id="node3" class="node"><title>Node3</title>
<g id="a_node3"><a xlink:href="class_a_d_c_manager1724.xhtml" target="_top" xlink:title="ADCManager1724">
<polygon fill="white" stroke="black" points="96.5,-228.5 96.5,-247.5 193.5,-247.5 193.5,-228.5 96.5,-228.5"/>
<text text-anchor="middle" x="145" y="-235.5" font-family="Helvetica,sans-Serif" font-size="10.00">ADCManager1724</text>
</a>
</g>
</g>
<!-- Node1&#45;&gt;Node3 -->
<g id="edge2" class="edge"><title>Node1&#45;&gt;Node3</title>
<path fill="none" stroke="midnightblue" d="M39.948,-161.093C51.1146,-178.167 69.9055,-203.41 92,-219 97.3403,-222.768 103.512,-225.875 109.698,-228.406"/>
<polygon fill="midnightblue" stroke="midnightblue" points="42.8569,-159.144 34.5561,-152.56 36.9394,-162.884 42.8569,-159.144"/>
</g>
<!-- Node4 -->
<g id="node4" class="node"><title>Node4</title>
<g id="a_node4"><a xlink:href="class_a_d_c_manager1730.xhtml" target="_top" xlink:title="ADCManager1730">
<polygon fill="white" stroke="black" points="96.5,-190.5 96.5,-209.5 193.5,-209.5 193.5,-190.5 96.5,-190.5"/>
<text text-anchor="middle" x="145" y="-197.5" font-family="Helvetica,sans-Serif" font-size="10.00">ADCManager1730</text>
</a>
</g>
</g>
<!-- Node1&#45;&gt;Node4 -->
<g id="edge3" class="edge"><title>Node1&#45;&gt;Node4</title>
<path fill="none" stroke="midnightblue" d="M51.7624,-158.186C63.4836,-165.627 78.1824,-174.384 92,-181 99.1954,-184.445 107.191,-187.653 114.712,-190.416"/>
<polygon fill="midnightblue" stroke="midnightblue" points="53.372,-155.059 43.0742,-152.568 49.5707,-160.937 53.372,-155.059"/>
</g>
<!-- Node5 -->
<g id="node5" class="node"><title>Node5</title>
<g id="a_node5"><a xlink:href="class_i_o_manager.xhtml" target="_top" xlink:title="IOManager">
<polygon fill="white" stroke="black" points="112.5,-152.5 112.5,-171.5 177.5,-171.5 177.5,-152.5 112.5,-152.5"/>
<text text-anchor="middle" x="145" y="-159.5" font-family="Helvetica,sans-Serif" font-size="10.00">IOManager</text>
</a>
</g>
</g>
<!-- Node1&#45;&gt;Node5 -->
<g id="edge4" class="edge"><title>Node1&#45;&gt;Node5</title>
<path fill="none" stroke="midnightblue" d="M66.1962,-149.145C81.1271,-151.612 98.1535,-154.425 112.464,-156.79"/>
<polygon fill="midnightblue" stroke="midnightblue" points="66.6902,-145.68 56.2534,-147.503 65.5491,-152.586 66.6902,-145.68"/>
</g>
<!-- Node6 -->
<g id="node6" class="node"><title>Node6</title>
<g id="a_node6"><a xlink:href="class_scaler_manager.xhtml" target="_top" xlink:title="ScalerManager">
<polygon fill="white" stroke="black" points="104,-114.5 104,-133.5 186,-133.5 186,-114.5 104,-114.5"/>
<text text-anchor="middle" x="145" y="-121.5" font-family="Helvetica,sans-Serif" font-size="10.00">ScalerManager</text>
</a>
</g>
</g>
<!-- Node1&#45;&gt;Node6 -->
<g id="edge5" class="edge"><title>Node1&#45;&gt;Node6</title>
<path fill="none" stroke="midnightblue" d="M66.3828,-136.824C78.3715,-134.843 91.6953,-132.642 103.872,-130.63"/>
<polygon fill="midnightblue" stroke="midnightblue" points="65.5491,-133.414 56.2534,-138.497 66.6902,-140.32 65.5491,-133.414"/>
</g>
<!-- Node7 -->
<g id="node7" class="node"><title>Node7</title>
<g id="a_node7"><a xlink:href="class_scope_manager.xhtml" target="_top" xlink:title="ScopeManager">
<polygon fill="white" stroke="black" points="104,-76.5 104,-95.5 186,-95.5 186,-76.5 104,-76.5"/>
<text text-anchor="middle" x="145" y="-83.5" font-family="Helvetica,sans-Serif" font-size="10.00">ScopeManager</text>
</a>
</g>
</g>
<!-- Node1&#45;&gt;Node7 -->
<g id="edge6" class="edge"><title>Node1&#45;&gt;Node7</title>
<path fill="none" stroke="midnightblue" d="M51.7624,-127.814C63.4836,-120.373 78.1824,-111.616 92,-105 99.1954,-101.555 107.191,-98.3466 114.712,-95.5835"/>
<polygon fill="midnightblue" stroke="midnightblue" points="49.5707,-125.063 43.0742,-133.432 53.372,-130.941 49.5707,-125.063"/>
</g>
<!-- Node8 -->
<g id="node8" class="node"><title>Node8</title>
<g id="a_node8"><a xlink:href="class_slowcontrol_manager.xhtml" target="_top" xlink:title="SlowcontrolManager">
<polygon fill="white" stroke="black" points="92.5,-38.5 92.5,-57.5 197.5,-57.5 197.5,-38.5 92.5,-38.5"/>
<text text-anchor="middle" x="145" y="-45.5" font-family="Helvetica,sans-Serif" font-size="10.00">SlowcontrolManager</text>
</a>
</g>
</g>
<!-- Node1&#45;&gt;Node8 -->
<g id="edge7" class="edge"><title>Node1&#45;&gt;Node8</title>
<path fill="none" stroke="midnightblue" d="M39.948,-124.907C51.1146,-107.833 69.9055,-82.5902 92,-67 97.3403,-63.2318 103.512,-60.125 109.698,-57.5939"/>
<polygon fill="midnightblue" stroke="midnightblue" points="36.9394,-123.116 34.5561,-133.44 42.8569,-126.856 36.9394,-123.116"/>
</g>
<!-- Node9 -->
<g id="node9" class="node"><title>Node9</title>
<g id="a_node9"><a xlink:href="class_storage_manager.xhtml" target="_top" xlink:title="StorageManager">
<polygon fill="white" stroke="black" points="101,-0.5 101,-19.5 189,-19.5 189,-0.5 101,-0.5"/>
<text text-anchor="middle" x="145" y="-7.5" font-family="Helvetica,sans-Serif" font-size="10.00">StorageManager</text>
</a>
</g>
</g>
<!-- Node1&#45;&gt;Node9 -->
<g id="edge8" class="edge"><title>Node1&#45;&gt;Node9</title>
<path fill="none" stroke="midnightblue" d="M34.9024,-123.714C43.5387,-98.5598 61.9415,-54.7383 92,-29 96.5265,-25.1241 101.91,-22.0112 107.471,-19.5189"/>
<polygon fill="midnightblue" stroke="midnightblue" points="31.5674,-122.652 31.7936,-133.244 38.2223,-124.823 31.5674,-122.652"/>
</g>
</g>
</svg>
