<?xml version="1.0" encoding="UTF-8" standalone="no"?>
<!DOCTYPE svg PUBLIC "-//W3C//DTD SVG 1.1//EN"
 "http://www.w3.org/Graphics/SVG/1.1/DTD/svg11.dtd">
<!-- Generated by graphviz version 2.36.0 (20140111.2315)
 -->
<!-- Title: ADCManager1730 Pages: 1 -->
<svg width="669pt" height="264pt"
 viewBox="0.00 0.00 669.35 264.00" xmlns="http://www.w3.org/2000/svg" xmlns:xlink="http://www.w3.org/1999/xlink">
<g id="graph0" class="graph" transform="scale(1 1) rotate(0) translate(4 260)">
<title>ADCManager1730</title>
<polygon fill="white" stroke="none" points="-4,4 -4,-260 665.352,-260 665.352,4 -4,4"/>
<!-- Node1 -->
<g id="node1" class="node"><title>Node1</title>
<polygon fill="#bfbfbf" stroke="black" points="192.852,-0.5 192.852,-19.5 289.852,-19.5 289.852,-0.5 192.852,-0.5"/>
<text text-anchor="middle" x="241.352" y="-7.5" font-family="Helvetica,sans-Serif" font-size="10.00">ADCManager1730</text>
</g>
<!-- Node2 -->
<g id="node2" class="node"><title>Node2</title>
<g id="a_node2"><a xlink:href="class_common.xhtml" target="_top" xlink:title="Common">
<polygon fill="white" stroke="black" points="98.352,-58.5 98.352,-77.5 154.352,-77.5 154.352,-58.5 98.352,-58.5"/>
<text text-anchor="middle" x="126.352" y="-65.5" font-family="Helvetica,sans-Serif" font-size="10.00">Common</text>
</a>
</g>
</g>
<!-- Node2&#45;&gt;Node1 -->
<g id="edge1" class="edge"><title>Node2&#45;&gt;Node1</title>
<path fill="none" stroke="midnightblue" d="M152.86,-54.0919C174.621,-43.4953 204.827,-28.786 223.722,-19.5852"/>
<polygon fill="midnightblue" stroke="midnightblue" points="151.276,-50.9699 143.818,-58.4948 154.341,-57.2634 151.276,-50.9699"/>
</g>
<!-- Node3 -->
<g id="node3" class="node"><title>Node3</title>
<polygon fill="white" stroke="#bfbfbf" points="32.852,-236.5 32.852,-255.5 73.852,-255.5 73.852,-236.5 32.852,-236.5"/>
<text text-anchor="middle" x="53.352" y="-243.5" font-family="Helvetica,sans-Serif" font-size="10.00">string</text>
</g>
<!-- Node3&#45;&gt;Node2 -->
<g id="edge2" class="edge"><title>Node3&#45;&gt;Node2</title>
<path fill="none" stroke="#9a32cd" stroke-dasharray="5,2" d="M30.436,-230.089C26.7524,-226.592 23.4616,-222.54 21.352,-218 -1.49642,-168.827 -11.8735,-138.85 21.352,-96 30.723,-83.9144 70.5046,-76.2928 98.3137,-72.3377"/>
<polygon fill="#9a32cd" stroke="#9a32cd" points="28.3261,-232.884 38.2964,-236.468 32.737,-227.449 28.3261,-232.884"/>
<text text-anchor="middle" x="42.852" y="-154.5" font-family="Helvetica,sans-Serif" font-size="10.00"> Message</text>
</g>
<!-- Node4 -->
<g id="node4" class="node"><title>Node4</title>
<g id="a_node4"><a xlink:href="class_a_d_c_manager.xhtml" target="_top" xlink:title="ADCManager">
<polygon fill="white" stroke="black" points="278.352,-58.5 278.352,-77.5 354.352,-77.5 354.352,-58.5 278.352,-58.5"/>
<text text-anchor="middle" x="316.352" y="-65.5" font-family="Helvetica,sans-Serif" font-size="10.00">ADCManager</text>
</a>
</g>
</g>
<!-- Node3&#45;&gt;Node4 -->
<g id="edge9" class="edge"><title>Node3&#45;&gt;Node4</title>
<path fill="none" stroke="#9a32cd" stroke-dasharray="5,2" d="M61.0761,-226.801C62.227,-223.878 63.3589,-220.87 64.352,-218 82.7979,-164.692 56.4851,-132.667 99.352,-96 112.659,-84.6177 219.498,-75.6177 278.139,-71.4783"/>
<polygon fill="#9a32cd" stroke="#9a32cd" points="57.822,-225.512 57.263,-236.092 64.2978,-228.17 57.822,-225.512"/>
<text text-anchor="middle" x="147.852" y="-160" font-family="Helvetica,sans-Serif" font-size="10.00"> m_BaselineFileName</text>
<text text-anchor="middle" x="147.852" y="-149" font-family="Helvetica,sans-Serif" font-size="10.00">m_RegisterFileName</text>
</g>
<!-- Node4&#45;&gt;Node1 -->
<g id="edge3" class="edge"><title>Node4&#45;&gt;Node1</title>
<path fill="none" stroke="midnightblue" d="M296.925,-52.4949C282.947,-42.0575 264.565,-28.3321 252.85,-19.5852"/>
<polygon fill="midnightblue" stroke="midnightblue" points="294.854,-55.3164 304.961,-58.4948 299.042,-49.7074 294.854,-55.3164"/>
</g>
<!-- Node5 -->
<g id="node5" class="node"><title>Node5</title>
<polygon fill="white" stroke="#bfbfbf" points="178.352,-236.5 178.352,-255.5 234.352,-255.5 234.352,-236.5 178.352,-236.5"/>
<text text-anchor="middle" x="206.352" y="-243.5" font-family="Helvetica,sans-Serif" font-size="10.00">u_int32_t</text>
</g>
<!-- Node5&#45;&gt;Node4 -->
<g id="edge4" class="edge"><title>Node5&#45;&gt;Node4</title>
<path fill="none" stroke="#9a32cd" stroke-dasharray="5,2" d="M202.867,-226.474C198.188,-195.553 193.76,-133.159 225.352,-96 238.268,-80.8083 259.304,-73.9456 277.899,-70.9323"/>
<polygon fill="#9a32cd" stroke="#9a32cd" points="199.417,-227.062 204.536,-236.338 206.319,-225.894 199.417,-227.062"/>
<text text-anchor="middle" x="268.852" y="-193" font-family="Helvetica,sans-Serif" font-size="10.00"> m_posttrigger</text>
<text text-anchor="middle" x="268.852" y="-182" font-family="Helvetica,sans-Serif" font-size="10.00">m_hex</text>
<text text-anchor="middle" x="268.852" y="-171" font-family="Helvetica,sans-Serif" font-size="10.00">m_addr</text>
<text text-anchor="middle" x="268.852" y="-160" font-family="Helvetica,sans-Serif" font-size="10.00">m_ADCaddr</text>
<text text-anchor="middle" x="268.852" y="-149" font-family="Helvetica,sans-Serif" font-size="10.00">m_DACLevel</text>
<text text-anchor="middle" x="268.852" y="-138" font-family="Helvetica,sans-Serif" font-size="10.00">m_ExpectedEvSize</text>
<text text-anchor="middle" x="268.852" y="-127" font-family="Helvetica,sans-Serif" font-size="10.00">m_DACTarget</text>
<text text-anchor="middle" x="268.852" y="-116" font-family="Helvetica,sans-Serif" font-size="10.00">buffer</text>
</g>
<!-- Node6 -->
<g id="node6" class="node"><title>Node6</title>
<polygon fill="white" stroke="#bfbfbf" points="293.852,-236.5 293.852,-255.5 338.852,-255.5 338.852,-236.5 293.852,-236.5"/>
<text text-anchor="middle" x="316.352" y="-243.5" font-family="Helvetica,sans-Serif" font-size="10.00">double</text>
</g>
<!-- Node6&#45;&gt;Node4 -->
<g id="edge5" class="edge"><title>Node6&#45;&gt;Node4</title>
<path fill="none" stroke="#9a32cd" stroke-dasharray="5,2" d="M316.352,-225.842C316.352,-187.973 316.352,-104.857 316.352,-77.7429"/>
<polygon fill="#9a32cd" stroke="#9a32cd" points="312.852,-226.03 316.352,-236.03 319.852,-226.03 312.852,-226.03"/>
<text text-anchor="middle" x="346.352" y="-171" font-family="Helvetica,sans-Serif" font-size="10.00"> m_correction</text>
<text text-anchor="middle" x="346.352" y="-160" font-family="Helvetica,sans-Serif" font-size="10.00">m_diff</text>
<text text-anchor="middle" x="346.352" y="-149" font-family="Helvetica,sans-Serif" font-size="10.00">m_mean</text>
<text text-anchor="middle" x="346.352" y="-138" font-family="Helvetica,sans-Serif" font-size="10.00">m_std</text>
</g>
<!-- Node7 -->
<g id="node7" class="node"><title>Node7</title>
<polygon fill="white" stroke="#bfbfbf" points="381.852,-236.5 381.852,-255.5 416.852,-255.5 416.852,-236.5 381.852,-236.5"/>
<text text-anchor="middle" x="399.352" y="-243.5" font-family="Helvetica,sans-Serif" font-size="10.00">char</text>
</g>
<!-- Node7&#45;&gt;Node4 -->
<g id="edge6" class="edge"><title>Node7&#45;&gt;Node4</title>
<path fill="none" stroke="#9a32cd" stroke-dasharray="5,2" d="M398.79,-226.109C397.384,-190.699 392.643,-116.1 377.352,-96 370.901,-87.5201 361.208,-81.6481 351.437,-77.6047"/>
<polygon fill="#9a32cd" stroke="#9a32cd" points="395.305,-226.607 399.149,-236.48 402.301,-226.365 395.305,-226.607"/>
<text text-anchor="middle" x="437.352" y="-154.5" font-family="Helvetica,sans-Serif" font-size="10.00"> m_XmlFileName</text>
</g>
<!-- Node8 -->
<g id="node8" class="node"><title>Node8</title>
<polygon fill="white" stroke="#bfbfbf" points="459.852,-236.5 459.852,-255.5 536.852,-255.5 536.852,-236.5 459.852,-236.5"/>
<text text-anchor="middle" x="498.352" y="-243.5" font-family="Helvetica,sans-Serif" font-size="10.00">CAEN_BYTE</text>
</g>
<!-- Node8&#45;&gt;Node4 -->
<g id="edge7" class="edge"><title>Node8&#45;&gt;Node4</title>
<path fill="none" stroke="#9a32cd" stroke-dasharray="5,2" d="M498.229,-226.205C497.584,-190.347 494.102,-114.119 476.352,-96 459.842,-79.1466 396.44,-72.7886 354.577,-70.4068"/>
<polygon fill="#9a32cd" stroke="#9a32cd" points="494.731,-226.348 498.353,-236.304 501.73,-226.261 494.731,-226.348"/>
<text text-anchor="middle" x="530.352" y="-160" font-family="Helvetica,sans-Serif" font-size="10.00"> IrqMask</text>
<text text-anchor="middle" x="530.352" y="-149" font-family="Helvetica,sans-Serif" font-size="10.00">IrqCheckMask</text>
</g>
<!-- Node9 -->
<g id="node9" class="node"><title>Node9</title>
<polygon fill="white" stroke="#bfbfbf" points="570.852,-236.5 570.852,-255.5 599.852,-255.5 599.852,-236.5 570.852,-236.5"/>
<text text-anchor="middle" x="585.352" y="-243.5" font-family="Helvetica,sans-Serif" font-size="10.00">int</text>
</g>
<!-- Node9&#45;&gt;Node4 -->
<g id="edge8" class="edge"><title>Node9&#45;&gt;Node4</title>
<path fill="none" stroke="#9a32cd" stroke-dasharray="5,2" d="M589.021,-226.224C594.032,-194.418 598.747,-130.085 563.352,-96 548.612,-81.8057 420.023,-73.8197 354.455,-70.637"/>
<polygon fill="#9a32cd" stroke="#9a32cd" points="585.525,-225.899 587.236,-236.354 592.419,-227.114 585.525,-225.899"/>
<text text-anchor="middle" x="626.852" y="-209.5" font-family="Helvetica,sans-Serif" font-size="10.00"> m_Baseline</text>
<text text-anchor="middle" x="626.852" y="-198.5" font-family="Helvetica,sans-Serif" font-size="10.00">blt_bytes</text>
<text text-anchor="middle" x="626.852" y="-187.5" font-family="Helvetica,sans-Serif" font-size="10.00">m_EvAlign</text>
<text text-anchor="middle" x="626.852" y="-176.5" font-family="Helvetica,sans-Serif" font-size="10.00">wavecnt</text>
<text text-anchor="middle" x="626.852" y="-165.5" font-family="Helvetica,sans-Serif" font-size="10.00">Size</text>
<text text-anchor="middle" x="626.852" y="-154.5" font-family="Helvetica,sans-Serif" font-size="10.00">m_EnableOLIrq</text>
<text text-anchor="middle" x="626.852" y="-143.5" font-family="Helvetica,sans-Serif" font-size="10.00">cnt</text>
<text text-anchor="middle" x="626.852" y="-132.5" font-family="Helvetica,sans-Serif" font-size="10.00">m_length</text>
<text text-anchor="middle" x="626.852" y="-121.5" font-family="Helvetica,sans-Serif" font-size="10.00">m_BufferSize</text>
<text text-anchor="middle" x="626.852" y="-110.5" font-family="Helvetica,sans-Serif" font-size="10.00">m_MemorySize</text>
<text text-anchor="middle" x="626.852" y="-99.5" font-family="Helvetica,sans-Serif" font-size="10.00">...</text>
</g>
</g>
</svg>
