<?xml version="1.0" encoding="UTF-8" standalone="no"?>
<!DOCTYPE svg PUBLIC "-//W3C//DTD SVG 1.1//EN"
 "http://www.w3.org/Graphics/SVG/1.1/DTD/svg11.dtd">
<!-- Generated by graphviz version 2.36.0 (20140111.2315)
 -->
<!-- Title: DRSBoard::EnableAcal Pages: 1 -->
<svg width="304pt" height="283pt"
 viewBox="0.00 0.00 304.00 283.00" xmlns="http://www.w3.org/2000/svg" xmlns:xlink="http://www.w3.org/1999/xlink">
<g id="graph0" class="graph" transform="scale(1 1) rotate(0) translate(4 279)">
<title>DRSBoard::EnableAcal</title>
<polygon fill="white" stroke="none" points="-4,4 -4,-279 300,-279 300,4 -4,4"/>
<!-- Node1 -->
<g id="node1" class="node"><title>Node1</title>
<polygon fill="#bfbfbf" stroke="black" points="0.5,-127.5 0.5,-146.5 119.5,-146.5 119.5,-127.5 0.5,-127.5"/>
<text text-anchor="middle" x="60" y="-134.5" font-family="Helvetica,sans-Serif" font-size="10.00">DRSBoard::EnableAcal</text>
</g>
<!-- Node2 -->
<g id="node2" class="node"><title>Node2</title>
<g id="a_node2"><a xlink:href="class_response_calibration.xhtml#ab4abea5900cfec91116bb7782798fa77" target="_top" xlink:title="ResponseCalibration\l::CalibrationStart">
<polygon fill="white" stroke="black" points="172.5,-245 172.5,-275 279.5,-275 279.5,-245 172.5,-245"/>
<text text-anchor="start" x="180.5" y="-263" font-family="Helvetica,sans-Serif" font-size="10.00">ResponseCalibration</text>
<text text-anchor="middle" x="226" y="-252" font-family="Helvetica,sans-Serif" font-size="10.00">::CalibrationStart</text>
</a>
</g>
</g>
<!-- Node1&#45;&gt;Node2 -->
<g id="edge1" class="edge"><title>Node1&#45;&gt;Node2</title>
<path fill="none" stroke="midnightblue" d="M74.0995,-154.811C90.8813,-176.493 121.903,-212.939 156,-235 161.777,-238.738 168.186,-242.011 174.705,-244.849"/>
<polygon fill="midnightblue" stroke="midnightblue" points="76.8323,-152.622 68.0031,-146.766 71.2532,-156.85 76.8323,-152.622"/>
</g>
<!-- Node3 -->
<g id="node3" class="node"><title>Node3</title>
<g id="a_node3"><a xlink:href="class_response_calibration.xhtml#a7141e2ac553d65d9f67c2915cbb3ce2e" target="_top" xlink:title="ResponseCalibration\l::CalibrationTrigger">
<polygon fill="white" stroke="black" points="172.5,-196 172.5,-226 279.5,-226 279.5,-196 172.5,-196"/>
<text text-anchor="start" x="180.5" y="-214" font-family="Helvetica,sans-Serif" font-size="10.00">ResponseCalibration</text>
<text text-anchor="middle" x="226" y="-203" font-family="Helvetica,sans-Serif" font-size="10.00">::CalibrationTrigger</text>
</a>
</g>
</g>
<!-- Node1&#45;&gt;Node3 -->
<g id="edge2" class="edge"><title>Node1&#45;&gt;Node3</title>
<path fill="none" stroke="midnightblue" d="M86.7114,-151.405C105.581,-161.694 131.996,-175.513 156,-186 163.939,-189.469 172.529,-192.859 180.864,-195.967"/>
<polygon fill="midnightblue" stroke="midnightblue" points="88.2902,-148.279 77.8414,-146.526 84.9163,-154.412 88.2902,-148.279"/>
</g>
<!-- Node4 -->
<g id="node4" class="node"><title>Node4</title>
<g id="a_node4"><a xlink:href="class_response_calibration.xhtml#ab55e5806b1f701cfc40c6ea237e98a80" target="_top" xlink:title="ResponseCalibration\l::OffsetCalibrationV3">
<polygon fill="white" stroke="black" points="172,-147 172,-177 280,-177 280,-147 172,-147"/>
<text text-anchor="start" x="180" y="-165" font-family="Helvetica,sans-Serif" font-size="10.00">ResponseCalibration</text>
<text text-anchor="middle" x="226" y="-154" font-family="Helvetica,sans-Serif" font-size="10.00">::OffsetCalibrationV3</text>
</a>
</g>
</g>
<!-- Node1&#45;&gt;Node4 -->
<g id="edge3" class="edge"><title>Node1&#45;&gt;Node4</title>
<path fill="none" stroke="midnightblue" d="M129.85,-147.495C143.889,-149.635 158.456,-151.856 171.847,-153.897"/>
<polygon fill="midnightblue" stroke="midnightblue" points="130.158,-144.002 119.745,-145.955 129.103,-150.922 130.158,-144.002"/>
</g>
<!-- Node5 -->
<g id="node5" class="node"><title>Node5</title>
<g id="a_node5"><a xlink:href="class_response_calibration.xhtml#a77c769a4e2d346cbbe331ec7bb938f16" target="_top" xlink:title="ResponseCalibration\l::OffsetCalibrationV4">
<polygon fill="white" stroke="black" points="172,-98 172,-128 280,-128 280,-98 172,-98"/>
<text text-anchor="start" x="180" y="-116" font-family="Helvetica,sans-Serif" font-size="10.00">ResponseCalibration</text>
<text text-anchor="middle" x="226" y="-105" font-family="Helvetica,sans-Serif" font-size="10.00">::OffsetCalibrationV4</text>
</a>
</g>
</g>
<!-- Node1&#45;&gt;Node5 -->
<g id="edge4" class="edge"><title>Node1&#45;&gt;Node5</title>
<path fill="none" stroke="midnightblue" d="M129.85,-126.924C143.889,-124.87 158.456,-122.738 171.847,-120.779"/>
<polygon fill="midnightblue" stroke="midnightblue" points="129.132,-123.492 119.745,-128.403 130.146,-130.418 129.132,-123.492"/>
</g>
<!-- Node6 -->
<g id="node6" class="node"><title>Node6</title>
<g id="a_node6"><a xlink:href="class_response_calibration.xhtml#a95f165d2ea84d31af62da2018926951c" target="_top" xlink:title="ResponseCalibration\l::RecordCalibrationPointsV3">
<polygon fill="white" stroke="black" points="156,-49 156,-79 296,-79 296,-49 156,-49"/>
<text text-anchor="start" x="164" y="-67" font-family="Helvetica,sans-Serif" font-size="10.00">ResponseCalibration</text>
<text text-anchor="middle" x="226" y="-56" font-family="Helvetica,sans-Serif" font-size="10.00">::RecordCalibrationPointsV3</text>
</a>
</g>
</g>
<!-- Node1&#45;&gt;Node6 -->
<g id="edge5" class="edge"><title>Node1&#45;&gt;Node6</title>
<path fill="none" stroke="midnightblue" d="M87.437,-122.564C106.274,-112.545 132.345,-99.2173 156,-89 163.954,-85.5645 172.551,-82.1902 180.887,-79.087"/>
<polygon fill="midnightblue" stroke="midnightblue" points="85.7137,-119.516 78.5554,-127.327 89.0223,-125.685 85.7137,-119.516"/>
</g>
<!-- Node7 -->
<g id="node7" class="node"><title>Node7</title>
<g id="a_node7"><a xlink:href="class_response_calibration.xhtml#a6d720e4941fbc7e511bc389688d7d229" target="_top" xlink:title="ResponseCalibration\l::RecordCalibrationPointsV4">
<polygon fill="white" stroke="black" points="156,-0 156,-30 296,-30 296,-0 156,-0"/>
<text text-anchor="start" x="164" y="-18" font-family="Helvetica,sans-Serif" font-size="10.00">ResponseCalibration</text>
<text text-anchor="middle" x="226" y="-7" font-family="Helvetica,sans-Serif" font-size="10.00">::RecordCalibrationPointsV4</text>
</a>
</g>
</g>
<!-- Node1&#45;&gt;Node7 -->
<g id="edge6" class="edge"><title>Node1&#45;&gt;Node7</title>
<path fill="none" stroke="midnightblue" d="M74.1397,-119.379C90.9624,-97.925 122.026,-61.8584 156,-40 161.893,-36.2084 168.439,-32.892 175.085,-30.0217"/>
<polygon fill="midnightblue" stroke="midnightblue" points="71.3418,-117.276 68.0269,-127.338 76.8936,-121.539 71.3418,-117.276"/>
</g>
</g>
</svg>
