<?xml version="1.0" encoding="UTF-8" standalone="no"?>
<!DOCTYPE svg PUBLIC "-//W3C//DTD SVG 1.1//EN"
 "http://www.w3.org/Graphics/SVG/1.1/DTD/svg11.dtd">
<!-- Generated by graphviz version 2.36.0 (20140111.2315)
 -->
<!-- Title: Common::error Pages: 1 -->
<svg width="358pt" height="229pt"
 viewBox="0.00 0.00 358.00 229.00" xmlns="http://www.w3.org/2000/svg" xmlns:xlink="http://www.w3.org/1999/xlink">
<g id="graph0" class="graph" transform="scale(1 1) rotate(0) translate(4 225)">
<title>Common::error</title>
<polygon fill="white" stroke="none" points="-4,4 -4,-225 354,-225 354,4 -4,4"/>
<!-- Node1 -->
<g id="node1" class="node"><title>Node1</title>
<polygon fill="#bfbfbf" stroke="black" points="0,-106.5 0,-125.5 82,-125.5 82,-106.5 0,-106.5"/>
<text text-anchor="middle" x="41" y="-113.5" font-family="Helvetica,sans-Serif" font-size="10.00">Common::error</text>
</g>
<!-- Node2 -->
<g id="node2" class="node"><title>Node2</title>
<g id="a_node2"><a xlink:href="class_a_d_c_manager1720.xhtml#aae342ccd8bf1c253c455e195bfd82dfe" target="_top" xlink:title="ADCManager1720::Init">
<polygon fill="white" stroke="black" points="139,-201.5 139,-220.5 255,-220.5 255,-201.5 139,-201.5"/>
<text text-anchor="middle" x="197" y="-208.5" font-family="Helvetica,sans-Serif" font-size="10.00">ADCManager1720::Init</text>
</a>
</g>
</g>
<!-- Node1&#45;&gt;Node2 -->
<g id="edge1" class="edge"><title>Node1&#45;&gt;Node2</title>
<path fill="none" stroke="midnightblue" d="M55.0436,-133.844C68.7668,-151.309 91.9601,-177.36 118,-192 124.925,-195.893 132.633,-198.995 140.432,-201.464"/>
<polygon fill="midnightblue" stroke="midnightblue" points="57.6085,-131.435 48.7655,-125.599 52.0394,-135.676 57.6085,-131.435"/>
</g>
<!-- Node3 -->
<g id="node3" class="node"><title>Node3</title>
<g id="a_node3"><a xlink:href="class_a_d_c_manager1724.xhtml#a6de2521b9c793edcf14aeaeefeb62787" target="_top" xlink:title="ADCManager1724::Init">
<polygon fill="white" stroke="black" points="139,-163.5 139,-182.5 255,-182.5 255,-163.5 139,-163.5"/>
<text text-anchor="middle" x="197" y="-170.5" font-family="Helvetica,sans-Serif" font-size="10.00">ADCManager1724::Init</text>
</a>
</g>
</g>
<!-- Node1&#45;&gt;Node3 -->
<g id="edge2" class="edge"><title>Node1&#45;&gt;Node3</title>
<path fill="none" stroke="midnightblue" d="M67.2762,-130.436C81.7669,-138.25 100.502,-147.587 118,-154 127.946,-157.645 138.861,-160.8 149.293,-163.436"/>
<polygon fill="midnightblue" stroke="midnightblue" points="68.8714,-127.319 58.4223,-125.567 65.4984,-133.453 68.8714,-127.319"/>
</g>
<!-- Node4 -->
<g id="node4" class="node"><title>Node4</title>
<g id="a_node4"><a xlink:href="class_a_d_c_manager1730.xhtml#adb6d45f2024f4a52d366a88d1c7f229d" target="_top" xlink:title="ADCManager1730::Init">
<polygon fill="white" stroke="black" points="139,-125.5 139,-144.5 255,-144.5 255,-125.5 139,-125.5"/>
<text text-anchor="middle" x="197" y="-132.5" font-family="Helvetica,sans-Serif" font-size="10.00">ADCManager1730::Init</text>
</a>
</g>
</g>
<!-- Node1&#45;&gt;Node4 -->
<g id="edge3" class="edge"><title>Node1&#45;&gt;Node4</title>
<path fill="none" stroke="midnightblue" d="M92.0957,-122.181C106.994,-124.019 123.429,-126.046 138.747,-127.936"/>
<polygon fill="midnightblue" stroke="midnightblue" points="92.413,-118.693 82.0597,-120.942 91.5558,-125.641 92.413,-118.693"/>
</g>
<!-- Node5 -->
<g id="node5" class="node"><title>Node5</title>
<g id="a_node5"><a xlink:href="class_storage_manager.xhtml#ab16a945d003852d02556daf3610a9aac" target="_top" xlink:title="StorageManager::SaveContainer">
<polygon fill="white" stroke="black" points="118,-87.5 118,-106.5 276,-106.5 276,-87.5 118,-87.5"/>
<text text-anchor="middle" x="197" y="-94.5" font-family="Helvetica,sans-Serif" font-size="10.00">StorageManager::SaveContainer</text>
</a>
</g>
</g>
<!-- Node1&#45;&gt;Node5 -->
<g id="edge4" class="edge"><title>Node1&#45;&gt;Node5</title>
<path fill="none" stroke="midnightblue" d="M92.191,-109.808C100.729,-108.754 109.769,-107.639 118.812,-106.523"/>
<polygon fill="midnightblue" stroke="midnightblue" points="91.5558,-106.359 82.0597,-111.058 92.413,-113.307 91.5558,-106.359"/>
</g>
<!-- Node7 -->
<g id="node7" class="node"><title>Node7</title>
<g id="a_node7"><a xlink:href="class_scope_manager.xhtml#abe246d1b817d85a9cba7af3441a4df04" target="_top" xlink:title="ScopeManager::ShowEvent">
<polygon fill="white" stroke="black" points="128,-49.5 128,-68.5 266,-68.5 266,-49.5 128,-49.5"/>
<text text-anchor="middle" x="197" y="-56.5" font-family="Helvetica,sans-Serif" font-size="10.00">ScopeManager::ShowEvent</text>
</a>
</g>
</g>
<!-- Node1&#45;&gt;Node7 -->
<g id="edge6" class="edge"><title>Node1&#45;&gt;Node7</title>
<path fill="none" stroke="midnightblue" d="M67.2762,-101.564C81.7669,-93.75 100.502,-84.4128 118,-78 127.946,-74.355 138.861,-71.1996 149.293,-68.5644"/>
<polygon fill="midnightblue" stroke="midnightblue" points="65.4984,-98.5471 58.4223,-106.433 68.8714,-104.681 65.4984,-98.5471"/>
</g>
<!-- Node8 -->
<g id="node8" class="node"><title>Node8</title>
<g id="a_node8"><a xlink:href="class_slowcontrol_manager.xhtml#a36ab5157f5a740b9058517b77d1ce38f" target="_top" xlink:title="SlowcontrolManager\l::ShowStatus">
<polygon fill="white" stroke="black" points="144.5,-0 144.5,-30 249.5,-30 249.5,-0 144.5,-0"/>
<text text-anchor="start" x="152.5" y="-18" font-family="Helvetica,sans-Serif" font-size="10.00">SlowcontrolManager</text>
<text text-anchor="middle" x="197" y="-7" font-family="Helvetica,sans-Serif" font-size="10.00">::ShowStatus</text>
</a>
</g>
</g>
<!-- Node1&#45;&gt;Node8 -->
<g id="edge8" class="edge"><title>Node1&#45;&gt;Node8</title>
<path fill="none" stroke="midnightblue" d="M55.4926,-98.2683C69.418,-81.1048 92.6335,-55.475 118,-40 126.012,-35.1121 135.077,-31.0829 144.12,-27.7945"/>
<polygon fill="midnightblue" stroke="midnightblue" points="52.5436,-96.3553 49.0952,-106.373 58.0382,-100.692 52.5436,-96.3553"/>
</g>
<!-- Node6 -->
<g id="node6" class="node"><title>Node6</title>
<g id="a_node6"><a xlink:href="_multi_d_a_q_8cpp.xhtml#adedb285b02c41bde2158ded9cc9fd7ac" target="_top" xlink:title="main">
<polygon fill="white" stroke="black" points="312,-49.5 312,-68.5 350,-68.5 350,-49.5 312,-49.5"/>
<text text-anchor="middle" x="331" y="-56.5" font-family="Helvetica,sans-Serif" font-size="10.00">main</text>
</a>
</g>
</g>
<!-- Node5&#45;&gt;Node6 -->
<g id="edge5" class="edge"><title>Node5&#45;&gt;Node6</title>
<path fill="none" stroke="midnightblue" d="M250.598,-84.9446C259.128,-82.7727 267.837,-80.4237 276,-78 288.004,-74.4356 301.273,-69.7772 311.654,-65.9652"/>
<polygon fill="midnightblue" stroke="midnightblue" points="249.569,-81.5939 240.711,-87.4067 251.261,-88.3865 249.569,-81.5939"/>
</g>
<!-- Node7&#45;&gt;Node6 -->
<g id="edge7" class="edge"><title>Node7&#45;&gt;Node6</title>
<path fill="none" stroke="midnightblue" d="M276.532,-59C289.756,-59 302.284,-59 311.884,-59"/>
<polygon fill="midnightblue" stroke="midnightblue" points="276.32,-55.5001 266.32,-59 276.32,-62.5001 276.32,-55.5001"/>
</g>
<!-- Node8&#45;&gt;Node6 -->
<g id="edge9" class="edge"><title>Node8&#45;&gt;Node6</title>
<path fill="none" stroke="midnightblue" d="M255.83,-33.3345C262.638,-35.5523 269.479,-37.8084 276,-40 287.87,-43.9895 301.137,-48.6546 311.55,-52.3638"/>
<polygon fill="midnightblue" stroke="midnightblue" points="256.512,-29.8765 245.92,-30.1244 254.355,-36.5358 256.512,-29.8765"/>
</g>
</g>
</svg>
