<?xml version="1.0" encoding="UTF-8" standalone="no"?>
<!DOCTYPE svg PUBLIC "-//W3C//DTD SVG 1.1//EN"
 "http://www.w3.org/Graphics/SVG/1.1/DTD/svg11.dtd">
<!-- Generated by graphviz version 2.36.0 (20140111.2315)
 -->
<!-- Title: VMEManager::SetPCILink Pages: 1 -->
<svg width="268pt" height="66pt"
 viewBox="0.00 0.00 268.00 66.00" xmlns="http://www.w3.org/2000/svg" xmlns:xlink="http://www.w3.org/1999/xlink">
<g id="graph0" class="graph" transform="scale(1 1) rotate(0) translate(4 62)">
<title>VMEManager::SetPCILink</title>
<polygon fill="white" stroke="none" points="-4,4 -4,-62 264,-62 264,4 -4,4"/>
<!-- Node1 -->
<g id="node1" class="node"><title>Node1</title>
<polygon fill="#bfbfbf" stroke="black" points="0,-19.5 0,-38.5 132,-38.5 132,-19.5 0,-19.5"/>
<text text-anchor="middle" x="66" y="-26.5" font-family="Helvetica,sans-Serif" font-size="10.00">VMEManager::SetPCILink</text>
</g>
<!-- Node2 -->
<g id="node2" class="node"><title>Node2</title>
<g id="a_node2"><a xlink:href="_multi_d_a_q_8cpp.xhtml#adedb285b02c41bde2158ded9cc9fd7ac" target="_top" xlink:title="main">
<polygon fill="white" stroke="black" points="195,-38.5 195,-57.5 233,-57.5 233,-38.5 195,-38.5"/>
<text text-anchor="middle" x="214" y="-45.5" font-family="Helvetica,sans-Serif" font-size="10.00">main</text>
</a>
</g>
</g>
<!-- Node1&#45;&gt;Node2 -->
<g id="edge1" class="edge"><title>Node1&#45;&gt;Node2</title>
<path fill="none" stroke="midnightblue" d="M142.292,-38.7982C161.996,-41.3625 181.477,-43.8977 194.985,-45.6556"/>
<polygon fill="midnightblue" stroke="midnightblue" points="142.682,-35.3195 132.313,-37.4997 141.778,-42.261 142.682,-35.3195"/>
</g>
<!-- Node3 -->
<g id="node3" class="node"><title>Node3</title>
<g id="a_node3"><a xlink:href="_scaler_2_core_2_source_2xml_8cpp.xhtml#a71dfd5ffda98a9eb0a726d9abf3d4267" target="_top" xlink:title="xml_readsettings">
<polygon fill="white" stroke="black" points="168.5,-0.5 168.5,-19.5 259.5,-19.5 259.5,-0.5 168.5,-0.5"/>
<text text-anchor="middle" x="214" y="-7.5" font-family="Helvetica,sans-Serif" font-size="10.00">xml_readsettings</text>
</a>
</g>
</g>
<!-- Node1&#45;&gt;Node3 -->
<g id="edge2" class="edge"><title>Node1&#45;&gt;Node3</title>
<path fill="none" stroke="midnightblue" d="M142.315,-19.1987C151.181,-18.0449 160.002,-16.897 168.253,-15.8233"/>
<polygon fill="midnightblue" stroke="midnightblue" points="141.778,-15.739 132.313,-20.5003 142.682,-22.6805 141.778,-15.739"/>
</g>
</g>
</svg>
