<?xml version="1.0" encoding="UTF-8" standalone="no"?>
<!DOCTYPE svg PUBLIC "-//W3C//DTD SVG 1.1//EN"
 "http://www.w3.org/Graphics/SVG/1.1/DTD/svg11.dtd">
<!-- Generated by graphviz version 2.36.0 (20140111.2315)
 -->
<!-- Title: ResponseCalibration::CalibrationData::DeletePreCalculatedBSpline Pages: 1 -->
<svg width="304pt" height="87pt"
 viewBox="0.00 0.00 304.00 87.00" xmlns="http://www.w3.org/2000/svg" xmlns:xlink="http://www.w3.org/1999/xlink">
<g id="graph0" class="graph" transform="scale(1 1) rotate(0) translate(4 83)">
<title>ResponseCalibration::CalibrationData::DeletePreCalculatedBSpline</title>
<polygon fill="white" stroke="none" points="-4,4 -4,-83 300,-83 300,4 -4,4"/>
<!-- Node1 -->
<g id="node1" class="node"><title>Node1</title>
<polygon fill="#bfbfbf" stroke="black" points="0,-18.5 0,-59.5 140,-59.5 140,-18.5 0,-18.5"/>
<text text-anchor="start" x="8" y="-47.5" font-family="Helvetica,sans-Serif" font-size="10.00">ResponseCalibration</text>
<text text-anchor="start" x="8" y="-36.5" font-family="Helvetica,sans-Serif" font-size="10.00">::CalibrationData::DeletePre</text>
<text text-anchor="middle" x="70" y="-25.5" font-family="Helvetica,sans-Serif" font-size="10.00">CalculatedBSpline</text>
</g>
<!-- Node2 -->
<g id="node2" class="node"><title>Node2</title>
<g id="a_node2"><a xlink:href="class_response_calibration.xhtml#abf11919dd8f5b0b1670c06e762fb793b" target="_top" xlink:title="ResponseCalibration\l::FitCalibrationPointsV3">
<polygon fill="white" stroke="black" points="176,-49 176,-79 296,-79 296,-49 176,-49"/>
<text text-anchor="start" x="184" y="-67" font-family="Helvetica,sans-Serif" font-size="10.00">ResponseCalibration</text>
<text text-anchor="middle" x="236" y="-56" font-family="Helvetica,sans-Serif" font-size="10.00">::FitCalibrationPointsV3</text>
</a>
</g>
</g>
<!-- Node1&#45;&gt;Node2 -->
<g id="edge1" class="edge"><title>Node1&#45;&gt;Node2</title>
<path fill="none" stroke="midnightblue" d="M150.186,-51.071C158.835,-52.3894 167.525,-53.7142 175.872,-54.9866"/>
<polygon fill="midnightblue" stroke="midnightblue" points="150.489,-47.5768 140.075,-49.5298 149.434,-54.4969 150.489,-47.5768"/>
</g>
<!-- Node3 -->
<g id="node3" class="node"><title>Node3</title>
<g id="a_node3"><a xlink:href="class_response_calibration.xhtml#a42aae8f641a6c12c6866c76a151767dc" target="_top" xlink:title="ResponseCalibration\l::ReadCalibrationV3">
<polygon fill="white" stroke="black" points="182.5,-0 182.5,-30 289.5,-30 289.5,-0 182.5,-0"/>
<text text-anchor="start" x="190.5" y="-18" font-family="Helvetica,sans-Serif" font-size="10.00">ResponseCalibration</text>
<text text-anchor="middle" x="236" y="-7" font-family="Helvetica,sans-Serif" font-size="10.00">::ReadCalibrationV3</text>
</a>
</g>
</g>
<!-- Node1&#45;&gt;Node3 -->
<g id="edge2" class="edge"><title>Node1&#45;&gt;Node3</title>
<path fill="none" stroke="midnightblue" d="M150.111,-27.4227C161.085,-25.8168 172.128,-24.2008 182.452,-22.6899"/>
<polygon fill="midnightblue" stroke="midnightblue" points="149.463,-23.9802 140.075,-28.8914 150.477,-30.9064 149.463,-23.9802"/>
</g>
</g>
</svg>
