<?xml version="1.0" encoding="UTF-8" standalone="no"?>
<!DOCTYPE svg PUBLIC "-//W3C//DTD SVG 1.1//EN"
 "http://www.w3.org/Graphics/SVG/1.1/DTD/svg11.dtd">
<!-- Generated by graphviz version 2.36.0 (20140111.2315)
 -->
<!-- Title: ResponseCalibration::WriteCalibrationV3 Pages: 1 -->
<svg width="320pt" height="126pt"
 viewBox="0.00 0.00 320.00 126.00" xmlns="http://www.w3.org/2000/svg" xmlns:xlink="http://www.w3.org/1999/xlink">
<g id="graph0" class="graph" transform="scale(1 1) rotate(0) translate(4 122)">
<title>ResponseCalibration::WriteCalibrationV3</title>
<polygon fill="white" stroke="none" points="-4,4 -4,-122 316,-122 316,4 -4,4"/>
<!-- Node1 -->
<g id="node1" class="node"><title>Node1</title>
<polygon fill="#bfbfbf" stroke="black" points="0.5,-39 0.5,-69 107.5,-69 107.5,-39 0.5,-39"/>
<text text-anchor="start" x="8.5" y="-57" font-family="Helvetica,sans-Serif" font-size="10.00">ResponseCalibration</text>
<text text-anchor="middle" x="54" y="-46" font-family="Helvetica,sans-Serif" font-size="10.00">::WriteCalibrationV3</text>
</g>
<!-- Node2 -->
<g id="node2" class="node"><title>Node2</title>
<g id="a_node2"><a xlink:href="class_d_r_s_board.xhtml#a6a358b6f6b0c284287ab5004330ae206" target="_top" xlink:title="DRSBoard::GetBoardSerial\lNumber">
<polygon fill="white" stroke="black" points="160,-88 160,-118 296,-118 296,-88 160,-88"/>
<text text-anchor="start" x="168" y="-106" font-family="Helvetica,sans-Serif" font-size="10.00">DRSBoard::GetBoardSerial</text>
<text text-anchor="middle" x="228" y="-95" font-family="Helvetica,sans-Serif" font-size="10.00">Number</text>
</a>
</g>
</g>
<!-- Node1&#45;&gt;Node2 -->
<g id="edge1" class="edge"><title>Node1&#45;&gt;Node2</title>
<path fill="none" stroke="midnightblue" d="M107.54,-68.9679C125.461,-74.0732 145.679,-79.8329 164.316,-85.1423"/>
<polygon fill="midnightblue" stroke="midnightblue" points="163.612,-88.5811 174.189,-87.9549 165.53,-81.849 163.612,-88.5811"/>
</g>
<!-- Node3 -->
<g id="node3" class="node"><title>Node3</title>
<g id="a_node3"><a xlink:href="class_d_r_s_board.xhtml#a1b5b15eac0905fe0e7c449518c923a74" target="_top" xlink:title="DRSBoard::GetCalibration\lDirectory">
<polygon fill="white" stroke="black" points="162,-39 162,-69 294,-69 294,-39 162,-39"/>
<text text-anchor="start" x="170" y="-57" font-family="Helvetica,sans-Serif" font-size="10.00">DRSBoard::GetCalibration</text>
<text text-anchor="middle" x="228" y="-46" font-family="Helvetica,sans-Serif" font-size="10.00">Directory</text>
</a>
</g>
</g>
<!-- Node1&#45;&gt;Node3 -->
<g id="edge2" class="edge"><title>Node1&#45;&gt;Node3</title>
<path fill="none" stroke="midnightblue" d="M107.54,-54C121.427,-54 136.692,-54 151.533,-54"/>
<polygon fill="midnightblue" stroke="midnightblue" points="151.717,-57.5001 161.717,-54 151.717,-50.5001 151.717,-57.5001"/>
</g>
<!-- Node4 -->
<g id="node4" class="node"><title>Node4</title>
<g id="a_node4"><a xlink:href="class_d_r_s_board.xhtml#a3d2ca1fcaaf96e270dd51df9cfd6d560" target="_top" xlink:title="DRSBoard::GetNominalFrequency">
<polygon fill="white" stroke="black" points="144.5,-0.5 144.5,-19.5 311.5,-19.5 311.5,-0.5 144.5,-0.5"/>
<text text-anchor="middle" x="228" y="-7.5" font-family="Helvetica,sans-Serif" font-size="10.00">DRSBoard::GetNominalFrequency</text>
</a>
</g>
</g>
<!-- Node1&#45;&gt;Node4 -->
<g id="edge3" class="edge"><title>Node1&#45;&gt;Node4</title>
<path fill="none" stroke="midnightblue" d="M107.647,-39.5514C119.584,-36.3455 132.215,-33.0082 144,-30 154.556,-27.3055 165.892,-24.5096 176.691,-21.8926"/>
<polygon fill="midnightblue" stroke="midnightblue" points="177.517,-25.2937 186.419,-19.5476 175.877,-18.4886 177.517,-25.2937"/>
</g>
</g>
</svg>
