<?xml version="1.0" encoding="UTF-8" standalone="no"?>
<!DOCTYPE svg PUBLIC "-//W3C//DTD SVG 1.1//EN"
 "http://www.w3.org/Graphics/SVG/1.1/DTD/svg11.dtd">
<!-- Generated by graphviz version 2.36.0 (20140111.2315)
 -->
<!-- Title: DRSBoard::~DRSBoard Pages: 1 -->
<svg width="342pt" height="28pt"
 viewBox="0.00 0.00 342.00 28.00" xmlns="http://www.w3.org/2000/svg" xmlns:xlink="http://www.w3.org/1999/xlink">
<g id="graph0" class="graph" transform="scale(1 1) rotate(0) translate(4 24)">
<title>DRSBoard::~DRSBoard</title>
<polygon fill="white" stroke="none" points="-4,4 -4,-24 338,-24 338,4 -4,4"/>
<!-- Node1 -->
<g id="node1" class="node"><title>Node1</title>
<polygon fill="#bfbfbf" stroke="black" points="0.5,-0.5 0.5,-19.5 123.5,-19.5 123.5,-0.5 0.5,-0.5"/>
<text text-anchor="middle" x="62" y="-7.5" font-family="Helvetica,sans-Serif" font-size="10.00">DRSBoard::~DRSBoard</text>
</g>
<!-- Node2 -->
<g id="node2" class="node"><title>Node2</title>
<g id="a_node2"><a xlink:href="musbstd_8h.xhtml#af9e37952b5569bacdac7a10b5f14466a" target="_top" xlink:title="musb_close">
<polygon fill="white" stroke="black" points="160.5,-0.5 160.5,-19.5 229.5,-19.5 229.5,-0.5 160.5,-0.5"/>
<text text-anchor="middle" x="195" y="-7.5" font-family="Helvetica,sans-Serif" font-size="10.00">musb_close</text>
</a>
</g>
</g>
<!-- Node1&#45;&gt;Node2 -->
<g id="edge1" class="edge"><title>Node1&#45;&gt;Node2</title>
<path fill="none" stroke="midnightblue" d="M123.515,-10C132.475,-10 141.561,-10 150.095,-10"/>
<polygon fill="midnightblue" stroke="midnightblue" points="150.187,-13.5001 160.187,-10 150.187,-6.5001 150.187,-13.5001"/>
</g>
<!-- Node3 -->
<g id="node3" class="node"><title>Node3</title>
<g id="a_node3"><a xlink:href="musbstd_8c.xhtml#a89a4600dac16bea89237f9084d632183" target="_top" xlink:title="musb_reset">
<polygon fill="white" stroke="black" points="266,-0.5 266,-19.5 334,-19.5 334,-0.5 266,-0.5"/>
<text text-anchor="middle" x="300" y="-7.5" font-family="Helvetica,sans-Serif" font-size="10.00">musb_reset</text>
</a>
</g>
</g>
<!-- Node2&#45;&gt;Node3 -->
<g id="edge2" class="edge"><title>Node2&#45;&gt;Node3</title>
<path fill="none" stroke="midnightblue" d="M229.726,-10C238.076,-10 247.136,-10 255.866,-10"/>
<polygon fill="midnightblue" stroke="midnightblue" points="255.901,-13.5001 265.901,-10 255.901,-6.5001 255.901,-13.5001"/>
</g>
</g>
</svg>
