<?xml version="1.0" encoding="UTF-8" standalone="no"?>
<!DOCTYPE svg PUBLIC "-//W3C//DTD SVG 1.1//EN"
 "http://www.w3.org/Graphics/SVG/1.1/DTD/svg11.dtd">
<!-- Generated by graphviz version 2.36.0 (20140111.2315)
 -->
<!-- Title: ADCManager::RegisterWriting Pages: 1 -->
<svg width="414pt" height="142pt"
 viewBox="0.00 0.00 414.00 142.00" xmlns="http://www.w3.org/2000/svg" xmlns:xlink="http://www.w3.org/1999/xlink">
<g id="graph0" class="graph" transform="scale(1 1) rotate(0) translate(4 138)">
<title>ADCManager::RegisterWriting</title>
<polygon fill="white" stroke="none" points="-4,4 -4,-138 410,-138 410,4 -4,4"/>
<!-- Node1 -->
<g id="node1" class="node"><title>Node1</title>
<polygon fill="#bfbfbf" stroke="black" points="0.5,-57.5 0.5,-76.5 149.5,-76.5 149.5,-57.5 0.5,-57.5"/>
<text text-anchor="middle" x="75" y="-64.5" font-family="Helvetica,sans-Serif" font-size="10.00">ADCManager::RegisterWriting</text>
</g>
<!-- Node2 -->
<g id="node2" class="node"><title>Node2</title>
<g id="a_node2"><a xlink:href="class_a_d_c_manager1720.xhtml#aae342ccd8bf1c253c455e195bfd82dfe" target="_top" xlink:title="ADCManager1720::Init">
<polygon fill="white" stroke="black" points="201,-114.5 201,-133.5 317,-133.5 317,-114.5 201,-114.5"/>
<text text-anchor="middle" x="259" y="-121.5" font-family="Helvetica,sans-Serif" font-size="10.00">ADCManager1720::Init</text>
</a>
</g>
</g>
<!-- Node1&#45;&gt;Node2 -->
<g id="edge1" class="edge"><title>Node1&#45;&gt;Node2</title>
<path fill="none" stroke="midnightblue" d="M111.7,-80.0892C133.116,-87.7514 160.969,-97.3854 186,-105 196.884,-108.311 208.793,-111.591 219.736,-114.47"/>
<polygon fill="midnightblue" stroke="midnightblue" points="112.641,-76.708 102.047,-76.613 110.269,-83.294 112.641,-76.708"/>
</g>
<!-- Node3 -->
<g id="node3" class="node"><title>Node3</title>
<g id="a_node3"><a xlink:href="class_a_d_c_manager1724.xhtml#a6de2521b9c793edcf14aeaeefeb62787" target="_top" xlink:title="ADCManager1724::Init">
<polygon fill="white" stroke="black" points="201,-76.5 201,-95.5 317,-95.5 317,-76.5 201,-76.5"/>
<text text-anchor="middle" x="259" y="-83.5" font-family="Helvetica,sans-Serif" font-size="10.00">ADCManager1724::Init</text>
</a>
</g>
</g>
<!-- Node1&#45;&gt;Node3 -->
<g id="edge2" class="edge"><title>Node1&#45;&gt;Node3</title>
<path fill="none" stroke="midnightblue" d="M159.581,-75.7255C173.506,-77.1792 187.664,-78.6572 200.739,-80.0222"/>
<polygon fill="midnightblue" stroke="midnightblue" points="159.811,-72.2306 149.502,-74.6733 159.084,-79.1927 159.811,-72.2306"/>
</g>
<!-- Node4 -->
<g id="node4" class="node"><title>Node4</title>
<g id="a_node4"><a xlink:href="class_a_d_c_manager1730.xhtml#adb6d45f2024f4a52d366a88d1c7f229d" target="_top" xlink:title="ADCManager1730::Init">
<polygon fill="white" stroke="black" points="201,-38.5 201,-57.5 317,-57.5 317,-38.5 201,-38.5"/>
<text text-anchor="middle" x="259" y="-45.5" font-family="Helvetica,sans-Serif" font-size="10.00">ADCManager1730::Init</text>
</a>
</g>
</g>
<!-- Node1&#45;&gt;Node4 -->
<g id="edge3" class="edge"><title>Node1&#45;&gt;Node4</title>
<path fill="none" stroke="midnightblue" d="M159.581,-58.2745C173.506,-56.8208 187.664,-55.3428 200.739,-53.9778"/>
<polygon fill="midnightblue" stroke="midnightblue" points="159.084,-54.8073 149.502,-59.3267 159.811,-61.7694 159.084,-54.8073"/>
</g>
<!-- Node5 -->
<g id="node5" class="node"><title>Node5</title>
<g id="a_node5"><a xlink:href="class_a_d_c_manager.xhtml#a5ae6f692e22135ccd5c4b00f1bc70e59" target="_top" xlink:title="ADCManager::ReadBaseLine">
<polygon fill="white" stroke="black" points="186,-0.5 186,-19.5 332,-19.5 332,-0.5 186,-0.5"/>
<text text-anchor="middle" x="259" y="-7.5" font-family="Helvetica,sans-Serif" font-size="10.00">ADCManager::ReadBaseLine</text>
</a>
</g>
</g>
<!-- Node1&#45;&gt;Node5 -->
<g id="edge4" class="edge"><title>Node1&#45;&gt;Node5</title>
<path fill="none" stroke="midnightblue" d="M111.7,-53.9108C133.116,-46.2486 160.969,-36.6146 186,-29 196.884,-25.689 208.793,-22.4092 219.736,-19.5303"/>
<polygon fill="midnightblue" stroke="midnightblue" points="110.269,-50.706 102.047,-57.387 112.641,-57.292 110.269,-50.706"/>
</g>
<!-- Node6 -->
<g id="node6" class="node"><title>Node6</title>
<g id="a_node6"><a xlink:href="_multi_d_a_q_8cpp.xhtml#adedb285b02c41bde2158ded9cc9fd7ac" target="_top" xlink:title="main">
<polygon fill="white" stroke="black" points="368,-0.5 368,-19.5 406,-19.5 406,-0.5 368,-0.5"/>
<text text-anchor="middle" x="387" y="-7.5" font-family="Helvetica,sans-Serif" font-size="10.00">main</text>
</a>
</g>
</g>
<!-- Node5&#45;&gt;Node6 -->
<g id="edge5" class="edge"><title>Node5&#45;&gt;Node6</title>
<path fill="none" stroke="midnightblue" d="M342.255,-10C351.721,-10 360.546,-10 367.754,-10"/>
<polygon fill="midnightblue" stroke="midnightblue" points="342.199,-6.5001 332.199,-10 342.199,-13.5001 342.199,-6.5001"/>
</g>
</g>
</svg>
