<?xml version="1.0" encoding="UTF-8" standalone="no"?>
<!DOCTYPE svg PUBLIC "-//W3C//DTD SVG 1.1//EN"
 "http://www.w3.org/Graphics/SVG/1.1/DTD/svg11.dtd">
<!-- Generated by graphviz version 2.36.0 (20140111.2315)
 -->
<!-- Title: ResponseCalibration Pages: 1 -->
<svg width="1062pt" height="1113pt"
 viewBox="0.00 0.00 1062.00 1113.16" xmlns="http://www.w3.org/2000/svg" xmlns:xlink="http://www.w3.org/1999/xlink">
<g id="graph0" class="graph" transform="scale(1 1) rotate(0) translate(4 1109.16)">
<title>ResponseCalibration</title>
<polygon fill="white" stroke="none" points="-4,4 -4,-1109.16 1058,-1109.16 1058,4 -4,4"/>
<!-- Node1 -->
<g id="node1" class="node"><title>Node1</title>
<polygon fill="#bfbfbf" stroke="black" points="745.5,-431.662 745.5,-450.662 852.5,-450.662 852.5,-431.662 745.5,-431.662"/>
<text text-anchor="middle" x="799" y="-438.662" font-family="Helvetica,sans-Serif" font-size="10.00">ResponseCalibration</text>
</g>
<!-- Node3 -->
<g id="node3" class="node"><title>Node3</title>
<g id="a_node3"><a xlink:href="class_d_r_s_board.xhtml" target="_top" xlink:title="DRSBoard">
<polygon fill="white" stroke="black" points="990,-431.662 990,-450.662 1054,-450.662 1054,-431.662 990,-431.662"/>
<text text-anchor="middle" x="1022" y="-438.662" font-family="Helvetica,sans-Serif" font-size="10.00">DRSBoard</text>
</a>
</g>
</g>
<!-- Node1&#45;&gt;Node3 -->
<g id="edge13" class="edge"><title>Node1&#45;&gt;Node3</title>
<path fill="none" stroke="#9a32cd" stroke-dasharray="5,2" d="M849.761,-429.662C857.823,-428.207 866.113,-426.953 874,-426.162 917.338,-421.814 928.924,-419.716 972,-426.162 979.567,-427.294 987.58,-429.358 994.885,-431.601"/>
<polygon fill="#9a32cd" stroke="#9a32cd" points="848.878,-426.268 839.718,-431.592 850.199,-433.142 848.878,-426.268"/>
<text text-anchor="middle" x="923" y="-429.162" font-family="Helvetica,sans-Serif" font-size="10.00"> fResponseCalibration</text>
</g>
<!-- Node2 -->
<g id="node2" class="node"><title>Node2</title>
<polygon fill="white" stroke="#bfbfbf" points="233.5,-818.662 233.5,-837.662 278.5,-837.662 278.5,-818.662 233.5,-818.662"/>
<text text-anchor="middle" x="256" y="-825.662" font-family="Helvetica,sans-Serif" font-size="10.00">double</text>
</g>
<!-- Node2&#45;&gt;Node1 -->
<g id="edge1" class="edge"><title>Node2&#45;&gt;Node1</title>
<path fill="none" stroke="#9a32cd" stroke-dasharray="5,2" d="M288.767,-830.296C362.323,-834.502 541.182,-840.257 582,-800.162 628.327,-754.654 558.424,-705.047 600,-655.162 636.987,-610.781 681.248,-655.02 724,-616.162 775.749,-569.125 792.537,-479.979 796.78,-450.725"/>
<polygon fill="#9a32cd" stroke="#9a32cd" points="288.899,-826.798 278.707,-829.693 288.479,-833.785 288.899,-826.798"/>
<text text-anchor="middle" x="525" y="-944.162" font-family="Helvetica,sans-Serif" font-size="10.00"> fTriggerFrequency</text>
<text text-anchor="middle" x="525" y="-933.162" font-family="Helvetica,sans-Serif" font-size="10.00">fXXSave</text>
<text text-anchor="middle" x="525" y="-922.162" font-family="Helvetica,sans-Serif" font-size="10.00">fYYSave</text>
<text text-anchor="middle" x="525" y="-911.162" font-family="Helvetica,sans-Serif" font-size="10.00">fYYFitRes</text>
<text text-anchor="middle" x="525" y="-900.162" font-family="Helvetica,sans-Serif" font-size="10.00">fGainMax</text>
<text text-anchor="middle" x="525" y="-889.162" font-family="Helvetica,sans-Serif" font-size="10.00">fWWFit</text>
<text text-anchor="middle" x="525" y="-878.162" font-family="Helvetica,sans-Serif" font-size="10.00">fYYFit</text>
<text text-anchor="middle" x="525" y="-867.162" font-family="Helvetica,sans-Serif" font-size="10.00">fXXFit</text>
<text text-anchor="middle" x="525" y="-856.162" font-family="Helvetica,sans-Serif" font-size="10.00">fPrecision</text>
<text text-anchor="middle" x="525" y="-845.162" font-family="Helvetica,sans-Serif" font-size="10.00">fGainMin</text>
<text text-anchor="middle" x="525" y="-834.162" font-family="Helvetica,sans-Serif" font-size="10.00">...</text>
</g>
<!-- Node2&#45;&gt;Node3 -->
<g id="edge3" class="edge"><title>Node2&#45;&gt;Node3</title>
<path fill="none" stroke="#9a32cd" stroke-dasharray="5,2" d="M275.752,-844.544C310.665,-873.828 389.259,-934.145 468,-956.162 695.26,-1019.7 828.618,-976.582 972,-789.162 1014.26,-733.919 1020.11,-501.039 1020.89,-450.758"/>
<polygon fill="#9a32cd" stroke="#9a32cd" points="277.727,-841.628 267.844,-837.81 273.188,-846.958 277.727,-841.628"/>
<text text-anchor="middle" x="662" y="-1097.16" font-family="Helvetica,sans-Serif" font-size="10.00"> fTrueFrequency</text>
<text text-anchor="middle" x="662" y="-1086.16" font-family="Helvetica,sans-Serif" font-size="10.00">fCellGain</text>
<text text-anchor="middle" x="662" y="-1075.16" font-family="Helvetica,sans-Serif" font-size="10.00">fTCALFrequency</text>
<text text-anchor="middle" x="662" y="-1064.16" font-family="Helvetica,sans-Serif" font-size="10.00">fTimingCalibratedFrequency</text>
<text text-anchor="middle" x="662" y="-1053.16" font-family="Helvetica,sans-Serif" font-size="10.00">fAcalVolt</text>
<text text-anchor="middle" x="662" y="-1042.16" font-family="Helvetica,sans-Serif" font-size="10.00">fRange</text>
<text text-anchor="middle" x="662" y="-1031.16" font-family="Helvetica,sans-Serif" font-size="10.00">fCellCalibratedRange</text>
<text text-anchor="middle" x="662" y="-1020.16" font-family="Helvetica,sans-Serif" font-size="10.00">fbkAcalVolt</text>
<text text-anchor="middle" x="662" y="-1009.16" font-family="Helvetica,sans-Serif" font-size="10.00">fCommonMode</text>
<text text-anchor="middle" x="662" y="-998.162" font-family="Helvetica,sans-Serif" font-size="10.00">fROFS</text>
<text text-anchor="middle" x="662" y="-987.162" font-family="Helvetica,sans-Serif" font-size="10.00">...</text>
</g>
<!-- Node5 -->
<g id="node5" class="node"><title>Node5</title>
<g id="a_node5"><a xlink:href="class_d_r_s_board_1_1_time_data_1_1_frequency_data.xhtml" target="_top" xlink:title="DRSBoard::TimeData\l::FrequencyData">
<polygon fill="white" stroke="black" points="468.5,-761.162 468.5,-791.162 581.5,-791.162 581.5,-761.162 468.5,-761.162"/>
<text text-anchor="start" x="476.5" y="-779.162" font-family="Helvetica,sans-Serif" font-size="10.00">DRSBoard::TimeData</text>
<text text-anchor="middle" x="525" y="-768.162" font-family="Helvetica,sans-Serif" font-size="10.00">::FrequencyData</text>
</a>
</g>
</g>
<!-- Node2&#45;&gt;Node5 -->
<g id="edge6" class="edge"><title>Node2&#45;&gt;Node5</title>
<path fill="none" stroke="#9a32cd" stroke-dasharray="5,2" d="M288.66,-818.242C305.554,-813.211 326.771,-807.304 346,-803.162 386.638,-794.407 433.096,-787.461 468.356,-782.808"/>
<polygon fill="#9a32cd" stroke="#9a32cd" points="287.315,-814.993 278.757,-821.239 289.342,-821.693 287.315,-814.993"/>
<text text-anchor="middle" x="398" y="-806.162" font-family="Helvetica,sans-Serif" font-size="10.00"> fBin</text>
</g>
<!-- Node3&#45;&gt;Node1 -->
<g id="edge2" class="edge"><title>Node3&#45;&gt;Node1</title>
<path fill="none" stroke="#9a32cd" stroke-dasharray="5,2" d="M979.759,-441.162C943.847,-441.162 891.581,-441.162 852.654,-441.162"/>
<polygon fill="#9a32cd" stroke="#9a32cd" points="979.887,-444.662 989.887,-441.162 979.887,-437.662 979.887,-444.662"/>
<text text-anchor="middle" x="923" y="-444.162" font-family="Helvetica,sans-Serif" font-size="10.00"> fBoard</text>
</g>
<!-- Node4 -->
<g id="node4" class="node"><title>Node4</title>
<g id="a_node4"><a xlink:href="class_d_r_s_board_1_1_time_data.xhtml" target="_top" xlink:title="DRSBoard::TimeData">
<polygon fill="white" stroke="black" points="742.5,-800.662 742.5,-819.662 855.5,-819.662 855.5,-800.662 742.5,-800.662"/>
<text text-anchor="middle" x="799" y="-807.662" font-family="Helvetica,sans-Serif" font-size="10.00">DRSBoard::TimeData</text>
</a>
</g>
</g>
<!-- Node4&#45;&gt;Node3 -->
<g id="edge4" class="edge"><title>Node4&#45;&gt;Node3</title>
<path fill="none" stroke="#9a32cd" stroke-dasharray="5,2" d="M832.712,-796.274C872.295,-777.688 937.869,-740.847 972,-688.162 1023.58,-608.542 1022.92,-486.428 1021.53,-451.069"/>
<polygon fill="#9a32cd" stroke="#9a32cd" points="830.881,-793.262 823.243,-800.604 833.793,-799.628 830.881,-793.262"/>
<text text-anchor="middle" x="923" y="-777.162" font-family="Helvetica,sans-Serif" font-size="10.00"> fTimeData</text>
</g>
<!-- Node5&#45;&gt;Node4 -->
<g id="edge5" class="edge"><title>Node5&#45;&gt;Node4</title>
<path fill="none" stroke="#9a32cd" stroke-dasharray="5,2" d="M566.026,-796.314C571.499,-799.44 576.962,-802.764 582,-806.162 590.634,-811.984 590.208,-817.617 600,-821.162 655.194,-841.145 724.696,-829.63 764.965,-819.71"/>
<polygon fill="#9a32cd" stroke="#9a32cd" points="567.328,-793.035 556.883,-791.264 563.944,-799.163 567.328,-793.035"/>
<text text-anchor="middle" x="662" y="-835.162" font-family="Helvetica,sans-Serif" font-size="10.00"> fFrequency</text>
</g>
<!-- Node6 -->
<g id="node6" class="node"><title>Node6</title>
<polygon fill="white" stroke="#bfbfbf" points="241.5,-664.662 241.5,-683.662 270.5,-683.662 270.5,-664.662 241.5,-664.662"/>
<text text-anchor="middle" x="256" y="-671.662" font-family="Helvetica,sans-Serif" font-size="10.00">int</text>
</g>
<!-- Node6&#45;&gt;Node1 -->
<g id="edge17" class="edge"><title>Node6&#45;&gt;Node1</title>
<path fill="none" stroke="#9a32cd" stroke-dasharray="5,2" d="M280.666,-668.517C321.767,-657.44 406.14,-628.84 450,-572.162 471.244,-544.709 442.567,-519.785 468,-496.162 510.213,-456.952 667.245,-465.073 724,-455.162 731.986,-453.767 740.444,-452.227 748.677,-450.693"/>
<polygon fill="#9a32cd" stroke="#9a32cd" points="279.553,-665.189 270.743,-671.075 281.3,-671.968 279.553,-665.189"/>
<text text-anchor="middle" x="525" y="-609.162" font-family="Helvetica,sans-Serif" font-size="10.00"> fCurrentSample</text>
<text text-anchor="middle" x="525" y="-598.162" font-family="Helvetica,sans-Serif" font-size="10.00">fCurrentFitChannel</text>
<text text-anchor="middle" x="525" y="-587.162" font-family="Helvetica,sans-Serif" font-size="10.00">fSampleUsed</text>
<text text-anchor="middle" x="525" y="-576.162" font-family="Helvetica,sans-Serif" font-size="10.00">fCurrentLowVoltPoint</text>
<text text-anchor="middle" x="525" y="-565.162" font-family="Helvetica,sans-Serif" font-size="10.00">fShowStatistics</text>
<text text-anchor="middle" x="525" y="-554.162" font-family="Helvetica,sans-Serif" font-size="10.00">fNumberOfXConstPoints</text>
<text text-anchor="middle" x="525" y="-543.162" font-family="Helvetica,sans-Serif" font-size="10.00">fNumberOfSamples</text>
<text text-anchor="middle" x="525" y="-532.162" font-family="Helvetica,sans-Serif" font-size="10.00">fNumberOfGridPoints</text>
<text text-anchor="middle" x="525" y="-521.162" font-family="Helvetica,sans-Serif" font-size="10.00">fNumberOfPoints</text>
<text text-anchor="middle" x="525" y="-510.162" font-family="Helvetica,sans-Serif" font-size="10.00">fCurrentPoint</text>
<text text-anchor="middle" x="525" y="-499.162" font-family="Helvetica,sans-Serif" font-size="10.00">...</text>
</g>
<!-- Node6&#45;&gt;Node3 -->
<g id="edge11" class="edge"><title>Node6&#45;&gt;Node3</title>
<path fill="none" stroke="#9a32cd" stroke-dasharray="5,2" d="M280.774,-675.655C351.491,-679.188 565.445,-683.244 724,-616.162 840.574,-566.841 967.248,-479.567 1007.76,-450.716"/>
<polygon fill="#9a32cd" stroke="#9a32cd" points="280.861,-672.155 270.685,-675.104 280.479,-679.145 280.861,-672.155"/>
<text text-anchor="middle" x="662" y="-767.162" font-family="Helvetica,sans-Serif" font-size="10.00"> fDebug</text>
<text text-anchor="middle" x="662" y="-756.162" font-family="Helvetica,sans-Serif" font-size="10.00">fDelayedStart</text>
<text text-anchor="middle" x="662" y="-745.162" font-family="Helvetica,sans-Serif" font-size="10.00">fTriggerEnable1</text>
<text text-anchor="middle" x="662" y="-734.162" font-family="Helvetica,sans-Serif" font-size="10.00">fADCActive</text>
<text text-anchor="middle" x="662" y="-723.162" font-family="Helvetica,sans-Serif" font-size="10.00">fTransport</text>
<text text-anchor="middle" x="662" y="-712.162" font-family="Helvetica,sans-Serif" font-size="10.00">fDAC_TLEVEL2</text>
<text text-anchor="middle" x="662" y="-701.162" font-family="Helvetica,sans-Serif" font-size="10.00">fbkTcalFreq</text>
<text text-anchor="middle" x="662" y="-690.162" font-family="Helvetica,sans-Serif" font-size="10.00">fDecimation</text>
<text text-anchor="middle" x="662" y="-679.162" font-family="Helvetica,sans-Serif" font-size="10.00">fSyncDelay</text>
<text text-anchor="middle" x="662" y="-668.162" font-family="Helvetica,sans-Serif" font-size="10.00">fTriggerEnable2</text>
<text text-anchor="middle" x="662" y="-657.162" font-family="Helvetica,sans-Serif" font-size="10.00">...</text>
</g>
<!-- Node6&#45;&gt;Node4 -->
<g id="edge8" class="edge"><title>Node6&#45;&gt;Node4</title>
<path fill="none" stroke="#9a32cd" stroke-dasharray="5,2" d="M281.123,-678.068C355.933,-690.204 579.181,-726.598 582,-729.162 604.811,-749.907 576.209,-776.548 600,-796.162 621.006,-813.48 691.505,-814.754 742.402,-813.191"/>
<polygon fill="#9a32cd" stroke="#9a32cd" points="281.257,-674.544 270.826,-676.399 280.137,-681.454 281.257,-674.544"/>
<text text-anchor="middle" x="525" y="-743.162" font-family="Helvetica,sans-Serif" font-size="10.00"> fNumberOfFrequencies</text>
<text text-anchor="middle" x="525" y="-732.162" font-family="Helvetica,sans-Serif" font-size="10.00">fChip</text>
</g>
<!-- Node6&#45;&gt;Node5 -->
<g id="edge7" class="edge"><title>Node6&#45;&gt;Node5</title>
<path fill="none" stroke="#9a32cd" stroke-dasharray="5,2" d="M276.427,-690.315C293.687,-703.89 320.122,-722.839 346,-734.162 385.124,-751.28 432.272,-762.004 468.212,-768.328"/>
<polygon fill="#9a32cd" stroke="#9a32cd" points="278.276,-687.311 268.289,-683.775 273.891,-692.767 278.276,-687.311"/>
<text text-anchor="middle" x="398" y="-768.162" font-family="Helvetica,sans-Serif" font-size="10.00"> fFrequency</text>
</g>
<!-- Node13 -->
<g id="node13" class="node"><title>Node13</title>
<g id="a_node13"><a xlink:href="class_response_calibration_1_1_calibration_data.xhtml" target="_top" xlink:title="ResponseCalibration\l::CalibrationData">
<polygon fill="white" stroke="black" points="471.5,-282.162 471.5,-312.162 578.5,-312.162 578.5,-282.162 471.5,-282.162"/>
<text text-anchor="start" x="479.5" y="-300.162" font-family="Helvetica,sans-Serif" font-size="10.00">ResponseCalibration</text>
<text text-anchor="middle" x="525" y="-289.162" font-family="Helvetica,sans-Serif" font-size="10.00">::CalibrationData</text>
</a>
</g>
</g>
<!-- Node6&#45;&gt;Node13 -->
<g id="edge26" class="edge"><title>Node6&#45;&gt;Node13</title>
<path fill="none" stroke="#9a32cd" stroke-dasharray="5,2" d="M261.656,-654.379C278.257,-584.162 334.196,-350.479 346,-339.162 380.17,-306.399 403.956,-327.161 450,-316.162 456.837,-314.528 464.016,-312.757 471.1,-310.975"/>
<polygon fill="#9a32cd" stroke="#9a32cd" points="258.153,-653.983 259.263,-664.52 264.966,-655.591 258.153,-653.983"/>
<text text-anchor="middle" x="398" y="-353.162" font-family="Helvetica,sans-Serif" font-size="10.00"> fHasOffsetCalibration</text>
<text text-anchor="middle" x="398" y="-342.162" font-family="Helvetica,sans-Serif" font-size="10.00">fBSplineOffsetLookUp</text>
</g>
<!-- Node7 -->
<g id="node7" class="node"><title>Node7</title>
<polygon fill="white" stroke="#bfbfbf" points="1.5,-159.662 1.5,-178.662 36.5,-178.662 36.5,-159.662 1.5,-159.662"/>
<text text-anchor="middle" x="19" y="-166.662" font-family="Helvetica,sans-Serif" font-size="10.00">char</text>
</g>
<!-- Node7&#45;&gt;Node3 -->
<g id="edge9" class="edge"><title>Node7&#45;&gt;Node3</title>
<path fill="none" stroke="#9a32cd" stroke-dasharray="5,2" d="M45.8165,-154.709C88.1406,-132.41 175.539,-92.1617 255,-92.1617 255,-92.1617 255,-92.1617 800,-92.1617 965.307,-92.1617 1012.1,-375.097 1019.78,-431.463"/>
<polygon fill="#9a32cd" stroke="#9a32cd" points="43.9261,-151.751 36.7716,-159.565 47.2376,-157.918 43.9261,-151.751"/>
<text text-anchor="middle" x="525" y="-117.162" font-family="Helvetica,sans-Serif" font-size="10.00"> fCalibDirectory</text>
<text text-anchor="middle" x="525" y="-106.162" font-family="Helvetica,sans-Serif" font-size="10.00">fStopWSR</text>
<text text-anchor="middle" x="525" y="-95.1617" font-family="Helvetica,sans-Serif" font-size="10.00">fWaveforms</text>
</g>
<!-- Node7&#45;&gt;Node13 -->
<g id="edge25" class="edge"><title>Node7&#45;&gt;Node13</title>
<path fill="none" stroke="#9a32cd" stroke-dasharray="5,2" d="M46.9252,-171.375C76.251,-173.871 124.521,-178.231 166,-183.162 238.214,-191.746 264.641,-170.467 328,-206.162 339.007,-212.363 335.608,-220.978 346,-228.162 386.117,-255.894 404.667,-245.178 450,-263.162 464.325,-268.844 479.867,-275.852 492.992,-282.026"/>
<polygon fill="#9a32cd" stroke="#9a32cd" points="46.9252,-167.862 36.667,-170.512 46.3385,-174.838 46.9252,-167.862"/>
<text text-anchor="middle" x="256" y="-220.162" font-family="Helvetica,sans-Serif" font-size="10.00"> fNumberOfGridPoints</text>
<text text-anchor="middle" x="256" y="-209.162" font-family="Helvetica,sans-Serif" font-size="10.00">fNumberOfLimitGroups</text>
</g>
<!-- Node14 -->
<g id="node14" class="node"><title>Node14</title>
<g id="a_node14"><a xlink:href="class_response_calibration_1_1_calibration_data_1_1_calibration_data_channel.xhtml" target="_top" xlink:title="ResponseCalibration\l::CalibrationData::Calibration\lDataChannel">
<polygon fill="white" stroke="black" points="184.5,-237.662 184.5,-278.662 327.5,-278.662 327.5,-237.662 184.5,-237.662"/>
<text text-anchor="start" x="192.5" y="-266.662" font-family="Helvetica,sans-Serif" font-size="10.00">ResponseCalibration</text>
<text text-anchor="start" x="192.5" y="-255.662" font-family="Helvetica,sans-Serif" font-size="10.00">::CalibrationData::Calibration</text>
<text text-anchor="middle" x="256" y="-244.662" font-family="Helvetica,sans-Serif" font-size="10.00">DataChannel</text>
</a>
</g>
</g>
<!-- Node7&#45;&gt;Node14 -->
<g id="edge23" class="edge"><title>Node7&#45;&gt;Node14</title>
<path fill="none" stroke="#9a32cd" stroke-dasharray="5,2" d="M46.5953,-177.498C49.7563,-178.427 52.9444,-179.335 56,-180.162 104.491,-193.286 121.781,-182.321 166,-206.162 175.686,-211.384 174.964,-216.881 184,-223.162 191.448,-228.338 199.774,-233.172 208.032,-237.496"/>
<polygon fill="#9a32cd" stroke="#9a32cd" points="47.3694,-174.076 36.7845,-174.536 45.3457,-180.777 47.3694,-174.076"/>
<text text-anchor="middle" x="111" y="-231.162" font-family="Helvetica,sans-Serif" font-size="10.00"> fLimitGroup</text>
<text text-anchor="middle" x="111" y="-220.162" font-family="Helvetica,sans-Serif" font-size="10.00">fNumberOfLookUpPoints</text>
<text text-anchor="middle" x="111" y="-209.162" font-family="Helvetica,sans-Serif" font-size="10.00">fLookUp</text>
</g>
<!-- Node8 -->
<g id="node8" class="node"><title>Node8</title>
<polygon fill="white" stroke="#bfbfbf" points="759,-12.6617 759,-31.6617 839,-31.6617 839,-12.6617 759,-12.6617"/>
<text text-anchor="middle" x="799" y="-19.6617" font-family="Helvetica,sans-Serif" font-size="10.00">unsigned short</text>
</g>
<!-- Node8&#45;&gt;Node3 -->
<g id="edge10" class="edge"><title>Node8&#45;&gt;Node3</title>
<path fill="none" stroke="#9a32cd" stroke-dasharray="5,2" d="M836.636,-9.77582C875.285,0.73626 935.537,9.46706 972,-23.1617 1003.58,-51.4213 1018.16,-371.759 1020.62,-431.574"/>
<polygon fill="#9a32cd" stroke="#9a32cd" points="835.462,-6.47189 826.825,-12.6084 837.403,-13.1972 835.462,-6.47189"/>
<text text-anchor="middle" x="923" y="-70.1617" font-family="Helvetica,sans-Serif" font-size="10.00"> fCellOffset2</text>
<text text-anchor="middle" x="923" y="-59.1617" font-family="Helvetica,sans-Serif" font-size="10.00">fReadPointer</text>
<text text-anchor="middle" x="923" y="-48.1617" font-family="Helvetica,sans-Serif" font-size="10.00">fCellOffset</text>
<text text-anchor="middle" x="923" y="-37.1617" font-family="Helvetica,sans-Serif" font-size="10.00">fTriggerBus</text>
<text text-anchor="middle" x="923" y="-26.1617" font-family="Helvetica,sans-Serif" font-size="10.00">fStopCell</text>
</g>
<!-- Node9 -->
<g id="node9" class="node"><title>Node9</title>
<polygon fill="white" stroke="#bfbfbf" points="238.5,-141.662 238.5,-160.662 273.5,-160.662 273.5,-141.662 238.5,-141.662"/>
<text text-anchor="middle" x="256" y="-148.662" font-family="Helvetica,sans-Serif" font-size="10.00">bool</text>
</g>
<!-- Node9&#45;&gt;Node1 -->
<g id="edge18" class="edge"><title>Node9&#45;&gt;Node1</title>
<path fill="none" stroke="#9a32cd" stroke-dasharray="5,2" d="M283.739,-156.022C356.442,-169.318 554.157,-206.037 582,-217.162 651.166,-244.796 672.894,-251.978 724,-306.162 761.412,-345.826 786.189,-408.002 794.711,-431.624"/>
<polygon fill="#9a32cd" stroke="#9a32cd" points="284.036,-152.519 273.57,-154.166 282.779,-159.405 284.036,-152.519"/>
<text text-anchor="middle" x="525" y="-264.162" font-family="Helvetica,sans-Serif" font-size="10.00"> fFitted</text>
<text text-anchor="middle" x="525" y="-253.162" font-family="Helvetica,sans-Serif" font-size="10.00">fOffset</text>
<text text-anchor="middle" x="525" y="-242.162" font-family="Helvetica,sans-Serif" font-size="10.00">fCalibrationValid</text>
<text text-anchor="middle" x="525" y="-231.162" font-family="Helvetica,sans-Serif" font-size="10.00">fRecorded</text>
<text text-anchor="middle" x="525" y="-220.162" font-family="Helvetica,sans-Serif" font-size="10.00">fInitialized</text>
</g>
<!-- Node9&#45;&gt;Node3 -->
<g id="edge12" class="edge"><title>Node9&#45;&gt;Node3</title>
<path fill="none" stroke="#9a32cd" stroke-dasharray="5,2" d="M283.79,-147.735C357.431,-139.456 567.812,-123.537 724,-188.162 862.321,-245.394 983.163,-392.361 1013.62,-431.477"/>
<polygon fill="#9a32cd" stroke="#9a32cd" points="283.079,-144.294 273.556,-148.937 283.896,-151.246 283.079,-144.294"/>
<text text-anchor="middle" x="662" y="-213.162" font-family="Helvetica,sans-Serif" font-size="10.00"> fWaveTransferred</text>
<text text-anchor="middle" x="662" y="-202.162" font-family="Helvetica,sans-Serif" font-size="10.00">fVoltageCalibrationValid</text>
<text text-anchor="middle" x="662" y="-191.162" font-family="Helvetica,sans-Serif" font-size="10.00">fADCClkInvert</text>
</g>
<!-- Node9&#45;&gt;Node13 -->
<g id="edge27" class="edge"><title>Node9&#45;&gt;Node13</title>
<path fill="none" stroke="#9a32cd" stroke-dasharray="5,2" d="M283.488,-156.833C297.46,-160.61 314.463,-166.5 328,-175.162 337.798,-181.431 335.877,-188.432 346,-194.162 387.198,-217.479 413.544,-186.964 450,-217.162 465.64,-230.117 455.077,-243.495 468,-259.162 475.477,-268.225 485.657,-276.006 495.288,-282.124"/>
<polygon fill="#9a32cd" stroke="#9a32cd" points="284.051,-153.366 273.501,-154.345 282.359,-160.158 284.051,-153.366"/>
<text text-anchor="middle" x="398" y="-220.162" font-family="Helvetica,sans-Serif" font-size="10.00"> fRead</text>
</g>
<!-- Node10 -->
<g id="node10" class="node"><title>Node10</title>
<polygon fill="white" stroke="#bfbfbf" points="0,-292.662 0,-311.662 38,-311.662 38,-292.662 0,-292.662"/>
<text text-anchor="middle" x="19" y="-299.662" font-family="Helvetica,sans-Serif" font-size="10.00">short</text>
</g>
<!-- Node10&#45;&gt;Node1 -->
<g id="edge14" class="edge"><title>Node10&#45;&gt;Node1</title>
<path fill="none" stroke="#9a32cd" stroke-dasharray="5,2" d="M24.4731,-321.728C29.3401,-338.367 38.8316,-361.515 56,-374.162 102.416,-408.353 126.541,-390.48 184,-395.162 247.789,-400.36 265.712,-409.866 328,-395.162 336.705,-393.107 337.295,-388.217 346,-386.162 390.986,-375.542 403.92,-382.543 450,-386.162 559.305,-394.746 686.155,-418.274 752.391,-431.61"/>
<polygon fill="#9a32cd" stroke="#9a32cd" points="27.8222,-320.7 21.9085,-311.91 21.0494,-322.47 27.8222,-320.7"/>
<text text-anchor="middle" x="398" y="-433.162" font-family="Helvetica,sans-Serif" font-size="10.00"> fWaveFormOffsetADC</text>
<text text-anchor="middle" x="398" y="-422.162" font-family="Helvetica,sans-Serif" font-size="10.00">fSamples</text>
<text text-anchor="middle" x="398" y="-411.162" font-family="Helvetica,sans-Serif" font-size="10.00">fWaveFormOffset</text>
<text text-anchor="middle" x="398" y="-400.162" font-family="Helvetica,sans-Serif" font-size="10.00">fWaveFormMode2</text>
<text text-anchor="middle" x="398" y="-389.162" font-family="Helvetica,sans-Serif" font-size="10.00">fWaveFormMode3</text>
</g>
<!-- Node10&#45;&gt;Node14 -->
<g id="edge21" class="edge"><title>Node10&#45;&gt;Node14</title>
<path fill="none" stroke="#9a32cd" stroke-dasharray="5,2" d="M30.0545,-283.862C36.2154,-274.629 45.0299,-264.318 56,-259.162 95.5529,-240.57 144.607,-240.108 184.115,-244.398"/>
<polygon fill="#9a32cd" stroke="#9a32cd" points="27.0042,-282.142 24.7964,-292.504 32.9843,-285.78 27.0042,-282.142"/>
<text text-anchor="middle" x="111" y="-306.162" font-family="Helvetica,sans-Serif" font-size="10.00"> fOffset</text>
<text text-anchor="middle" x="111" y="-295.162" font-family="Helvetica,sans-Serif" font-size="10.00">fData</text>
<text text-anchor="middle" x="111" y="-284.162" font-family="Helvetica,sans-Serif" font-size="10.00">fOffsetADC</text>
<text text-anchor="middle" x="111" y="-273.162" font-family="Helvetica,sans-Serif" font-size="10.00">fGain</text>
<text text-anchor="middle" x="111" y="-262.162" font-family="Helvetica,sans-Serif" font-size="10.00">fLookUpOffset</text>
</g>
<!-- Node11 -->
<g id="node11" class="node"><title>Node11</title>
<polygon fill="white" stroke="#bfbfbf" points="1.5,-374.662 1.5,-393.662 36.5,-393.662 36.5,-374.662 1.5,-374.662"/>
<text text-anchor="middle" x="19" y="-381.662" font-family="Helvetica,sans-Serif" font-size="10.00">float</text>
</g>
<!-- Node11&#45;&gt;Node1 -->
<g id="edge15" class="edge"><title>Node11&#45;&gt;Node1</title>
<path fill="none" stroke="#9a32cd" stroke-dasharray="5,2" d="M31.6093,-402.004C37.8179,-409.953 46.2054,-418.548 56,-423.162 117.782,-452.266 586.095,-445.511 745.252,-442.329"/>
<polygon fill="#9a32cd" stroke="#9a32cd" points="34.4351,-399.939 25.7639,-393.851 28.7461,-404.017 34.4351,-399.939"/>
<text text-anchor="middle" x="398" y="-548.162" font-family="Helvetica,sans-Serif" font-size="10.00"> fPntX</text>
<text text-anchor="middle" x="398" y="-537.162" font-family="Helvetica,sans-Serif" font-size="10.00">fPntY</text>
<text text-anchor="middle" x="398" y="-526.162" font-family="Helvetica,sans-Serif" font-size="10.00">fResX</text>
<text text-anchor="start" x="360" y="-515.162" font-family="Helvetica,sans-Serif" font-size="10.00">fStatisticsApprox</text>
<text text-anchor="middle" x="398" y="-504.162" font-family="Helvetica,sans-Serif" font-size="10.00">Ext</text>
<text text-anchor="middle" x="398" y="-493.162" font-family="Helvetica,sans-Serif" font-size="10.00">fRes</text>
<text text-anchor="middle" x="398" y="-482.162" font-family="Helvetica,sans-Serif" font-size="10.00">fUValues</text>
<text text-anchor="middle" x="398" y="-471.162" font-family="Helvetica,sans-Serif" font-size="10.00">fResponseX</text>
<text text-anchor="middle" x="398" y="-460.162" font-family="Helvetica,sans-Serif" font-size="10.00">fResponseY</text>
<text text-anchor="middle" x="398" y="-449.162" font-family="Helvetica,sans-Serif" font-size="10.00">fStatisticsApprox</text>
</g>
<!-- Node11&#45;&gt;Node13 -->
<g id="edge24" class="edge"><title>Node11&#45;&gt;Node13</title>
<path fill="none" stroke="#9a32cd" stroke-dasharray="5,2" d="M47.0906,-383.028C76.558,-381.455 124.948,-377.88 166,-370.162 247.717,-354.797 264.501,-335.643 346,-319.162 387.813,-310.706 435.85,-305 471.476,-301.522"/>
<polygon fill="#9a32cd" stroke="#9a32cd" points="46.5934,-379.548 36.7782,-383.537 46.9387,-386.54 46.5934,-379.548"/>
<text text-anchor="middle" x="256" y="-424.162" font-family="Helvetica,sans-Serif" font-size="10.00"> fIntRevers</text>
<text text-anchor="middle" x="256" y="-413.162" font-family="Helvetica,sans-Serif" font-size="10.00">fBSplineLookUp</text>
<text text-anchor="middle" x="256" y="-402.162" font-family="Helvetica,sans-Serif" font-size="10.00">fEndTemperature</text>
<text text-anchor="middle" x="256" y="-391.162" font-family="Helvetica,sans-Serif" font-size="10.00">fMin</text>
<text text-anchor="middle" x="256" y="-380.162" font-family="Helvetica,sans-Serif" font-size="10.00">fMax</text>
<text text-anchor="middle" x="256" y="-369.162" font-family="Helvetica,sans-Serif" font-size="10.00">fStartTemperature</text>
</g>
<!-- Node11&#45;&gt;Node14 -->
<g id="edge22" class="edge"><title>Node11&#45;&gt;Node14</title>
<path fill="none" stroke="#9a32cd" stroke-dasharray="5,2" d="M29.749,-365.755C35.9615,-355.792 44.9246,-344.131 56,-337.162 98.2735,-310.562 123.011,-339.59 166,-314.162 176.58,-307.903 174.289,-300.699 184,-293.162 190.839,-287.853 198.612,-283.037 206.445,-278.794"/>
<polygon fill="#9a32cd" stroke="#9a32cd" points="26.624,-364.168 24.6563,-374.579 32.6866,-367.668 26.624,-364.168"/>
<text text-anchor="middle" x="111" y="-362.162" font-family="Helvetica,sans-Serif" font-size="10.00"> fTempData</text>
<text text-anchor="middle" x="111" y="-351.162" font-family="Helvetica,sans-Serif" font-size="10.00">fRange</text>
<text text-anchor="middle" x="111" y="-340.162" font-family="Helvetica,sans-Serif" font-size="10.00">fMin</text>
</g>
<!-- Node12 -->
<g id="node12" class="node"><title>Node12</title>
<polygon fill="white" stroke="#bfbfbf" points="503,-626.662 503,-645.662 547,-645.662 547,-626.662 503,-626.662"/>
<text text-anchor="middle" x="525" y="-633.662" font-family="Helvetica,sans-Serif" font-size="10.00">FILE *</text>
</g>
<!-- Node12&#45;&gt;Node1 -->
<g id="edge16" class="edge"><title>Node12&#45;&gt;Node1</title>
<path fill="none" stroke="#9a32cd" stroke-dasharray="5,2" d="M556.372,-624.832C564.886,-621.209 573.996,-616.896 582,-612.162 668.448,-561.023 758.416,-478.716 787.958,-450.788"/>
<polygon fill="#9a32cd" stroke="#9a32cd" points="555.04,-621.595 547.104,-628.615 557.686,-628.076 555.04,-621.595"/>
<text text-anchor="middle" x="662" y="-604.162" font-family="Helvetica,sans-Serif" font-size="10.00"> fCalibFile</text>
</g>
<!-- Node13&#45;&gt;Node1 -->
<g id="edge19" class="edge"><title>Node13&#45;&gt;Node1</title>
<path fill="none" stroke="#9a32cd" stroke-dasharray="5,2" d="M588.774,-307.423C629.682,-316.214 682.895,-331.771 724,-358.162 754.866,-377.979 780.678,-414.1 791.935,-431.407"/>
<polygon fill="#9a32cd" stroke="#9a32cd" points="589.422,-303.983 578.92,-305.384 588.004,-310.838 589.422,-303.983"/>
<text text-anchor="middle" x="662" y="-361.162" font-family="Helvetica,sans-Serif" font-size="10.00"> fCalibrationData</text>
</g>
<!-- Node14&#45;&gt;Node13 -->
<g id="edge20" class="edge"><title>Node14&#45;&gt;Node13</title>
<path fill="none" stroke="#9a32cd" stroke-dasharray="5,2" d="M337.922,-265.342C372.565,-268.944 413.393,-273.891 450,-280.162 456.886,-281.341 464.093,-282.761 471.192,-284.271"/>
<polygon fill="#9a32cd" stroke="#9a32cd" points="338.157,-261.848 327.854,-264.315 337.447,-268.812 338.157,-261.848"/>
<text text-anchor="middle" x="398" y="-283.162" font-family="Helvetica,sans-Serif" font-size="10.00"> fChannel</text>
</g>
</g>
</svg>
