<?xml version="1.0" encoding="UTF-8" standalone="no"?>
<!DOCTYPE svg PUBLIC "-//W3C//DTD SVG 1.1//EN"
 "http://www.w3.org/Graphics/SVG/1.1/DTD/svg11.dtd">
<!-- Generated by graphviz version 2.36.0 (20140111.2315)
 -->
<!-- Title: Common::GetUnixTime Pages: 1 -->
<svg width="570pt" height="77pt"
 viewBox="0.00 0.00 570.00 77.00" xmlns="http://www.w3.org/2000/svg" xmlns:xlink="http://www.w3.org/1999/xlink">
<g id="graph0" class="graph" transform="scale(1 1) rotate(0) translate(4 73)">
<title>Common::GetUnixTime</title>
<polygon fill="white" stroke="none" points="-4,4 -4,-73 566,-73 566,4 -4,4"/>
<!-- Node1 -->
<g id="node1" class="node"><title>Node1</title>
<polygon fill="#bfbfbf" stroke="black" points="0,-22.5 0,-41.5 120,-41.5 120,-22.5 0,-22.5"/>
<text text-anchor="middle" x="60" y="-29.5" font-family="Helvetica,sans-Serif" font-size="10.00">Common::GetUnixTime</text>
</g>
<!-- Node2 -->
<g id="node2" class="node"><title>Node2</title>
<g id="a_node2"><a xlink:href="class_i_o_manager.xhtml#a2b106680fee9901a2501ad4128195858" target="_top" xlink:title="IOManager::FillContainer">
<polygon fill="white" stroke="black" points="168.5,-42.5 168.5,-61.5 293.5,-61.5 293.5,-42.5 168.5,-42.5"/>
<text text-anchor="middle" x="231" y="-49.5" font-family="Helvetica,sans-Serif" font-size="10.00">IOManager::FillContainer</text>
</a>
</g>
</g>
<!-- Node1&#45;&gt;Node2 -->
<g id="edge1" class="edge"><title>Node1&#45;&gt;Node2</title>
<path fill="none" stroke="midnightblue" d="M130.134,-40.1815C142.791,-41.6794 155.924,-43.2336 168.345,-44.7035"/>
<polygon fill="midnightblue" stroke="midnightblue" points="130.45,-36.6946 120.108,-38.995 129.627,-43.6461 130.45,-36.6946"/>
</g>
<!-- Node5 -->
<g id="node5" class="node"><title>Node5</title>
<g id="a_node5"><a xlink:href="class_storage_manager.xhtml#a039b222288a7b9298680f61deb68bcca" target="_top" xlink:title="StorageManager::FillContainer">
<polygon fill="white" stroke="black" points="156.5,-3.5 156.5,-22.5 305.5,-22.5 305.5,-3.5 156.5,-3.5"/>
<text text-anchor="middle" x="231" y="-10.5" font-family="Helvetica,sans-Serif" font-size="10.00">StorageManager::FillContainer</text>
</a>
</g>
</g>
<!-- Node1&#45;&gt;Node5 -->
<g id="edge4" class="edge"><title>Node1&#45;&gt;Node5</title>
<path fill="none" stroke="midnightblue" d="M130.134,-24.2276C138.781,-23.2554 147.65,-22.2583 156.362,-21.2788"/>
<polygon fill="midnightblue" stroke="midnightblue" points="129.654,-20.7593 120.108,-25.3547 130.436,-27.7155 129.654,-20.7593"/>
</g>
<!-- Node3 -->
<g id="node3" class="node"><title>Node3</title>
<g id="a_node3"><a xlink:href="class_scaler_manager.xhtml#ac7e2293e35ac55984d223eff9c6d4b6c" target="_top" xlink:title="ScalerManager::ReadMultiple\lCycles">
<polygon fill="white" stroke="black" points="342.5,-39 342.5,-69 487.5,-69 487.5,-39 342.5,-39"/>
<text text-anchor="start" x="350.5" y="-57" font-family="Helvetica,sans-Serif" font-size="10.00">ScalerManager::ReadMultiple</text>
<text text-anchor="middle" x="415" y="-46" font-family="Helvetica,sans-Serif" font-size="10.00">Cycles</text>
</a>
</g>
</g>
<!-- Node2&#45;&gt;Node3 -->
<g id="edge2" class="edge"><title>Node2&#45;&gt;Node3</title>
<path fill="none" stroke="midnightblue" d="M303.69,-52.7878C316.416,-52.9277 329.671,-53.0733 342.395,-53.2131"/>
<polygon fill="midnightblue" stroke="midnightblue" points="303.655,-49.2873 293.617,-52.6771 303.578,-56.2869 303.655,-49.2873"/>
</g>
<!-- Node4 -->
<g id="node4" class="node"><title>Node4</title>
<g id="a_node4"><a xlink:href="scaler_8cpp.xhtml#a0ddf1224851353fc92bfbff6f499fa97" target="_top" xlink:title="main">
<polygon fill="white" stroke="black" points="524,-44.5 524,-63.5 562,-63.5 562,-44.5 524,-44.5"/>
<text text-anchor="middle" x="543" y="-51.5" font-family="Helvetica,sans-Serif" font-size="10.00">main</text>
</a>
</g>
</g>
<!-- Node3&#45;&gt;Node4 -->
<g id="edge3" class="edge"><title>Node3&#45;&gt;Node4</title>
<path fill="none" stroke="midnightblue" d="M497.944,-54C507.466,-54 516.35,-54 523.611,-54"/>
<polygon fill="midnightblue" stroke="midnightblue" points="497.833,-50.5001 487.833,-54 497.833,-57.5001 497.833,-50.5001"/>
</g>
<!-- Node6 -->
<g id="node6" class="node"><title>Node6</title>
<g id="a_node6"><a xlink:href="_multi_d_a_q_8cpp.xhtml#adedb285b02c41bde2158ded9cc9fd7ac" target="_top" xlink:title="main">
<polygon fill="white" stroke="black" points="396,-0.5 396,-19.5 434,-19.5 434,-0.5 396,-0.5"/>
<text text-anchor="middle" x="415" y="-7.5" font-family="Helvetica,sans-Serif" font-size="10.00">main</text>
</a>
</g>
</g>
<!-- Node5&#45;&gt;Node6 -->
<g id="edge5" class="edge"><title>Node5&#45;&gt;Node6</title>
<path fill="none" stroke="midnightblue" d="M315.621,-11.6216C345.637,-11.1269 376.732,-10.6143 395.725,-10.3012"/>
<polygon fill="midnightblue" stroke="midnightblue" points="315.443,-8.124 305.502,-11.7884 315.558,-15.123 315.443,-8.124"/>
</g>
</g>
</svg>
