<?xml version="1.0" encoding="UTF-8" standalone="no"?>
<!DOCTYPE svg PUBLIC "-//W3C//DTD SVG 1.1//EN"
 "http://www.w3.org/Graphics/SVG/1.1/DTD/svg11.dtd">
<!-- Generated by graphviz version 2.36.0 (20140111.2315)
 -->
<!-- Title: StorageManager::SaveContainer Pages: 1 -->
<svg width="946pt" height="750pt"
 viewBox="0.00 0.00 946.00 750.00" xmlns="http://www.w3.org/2000/svg" xmlns:xlink="http://www.w3.org/1999/xlink">
<g id="graph0" class="graph" transform="scale(1 1) rotate(0) translate(4 746)">
<title>StorageManager::SaveContainer</title>
<polygon fill="white" stroke="none" points="-4,4 -4,-746 942,-746 942,4 -4,4"/>
<!-- Node1 -->
<g id="node1" class="node"><title>Node1</title>
<polygon fill="#bfbfbf" stroke="black" points="0,-522.5 0,-541.5 158,-541.5 158,-522.5 0,-522.5"/>
<text text-anchor="middle" x="79" y="-529.5" font-family="Helvetica,sans-Serif" font-size="10.00">StorageManager::SaveContainer</text>
</g>
<!-- Node2 -->
<g id="node2" class="node"><title>Node2</title>
<g id="a_node2"><a xlink:href="class_common.xhtml#a279c04634cf123f06e0a2cb6ac8241b8" target="_top" xlink:title="Common::error">
<polygon fill="white" stroke="black" points="219,-627.5 219,-646.5 301,-646.5 301,-627.5 219,-627.5"/>
<text text-anchor="middle" x="260" y="-634.5" font-family="Helvetica,sans-Serif" font-size="10.00">Common::error</text>
</a>
</g>
</g>
<!-- Node1&#45;&gt;Node2 -->
<g id="edge1" class="edge"><title>Node1&#45;&gt;Node2</title>
<path fill="none" stroke="midnightblue" d="M91.3133,-541.599C111.075,-557.996 153.635,-591.691 194,-613 201.723,-617.077 210.292,-620.771 218.607,-623.973"/>
<polygon fill="midnightblue" stroke="midnightblue" points="217.592,-627.329 228.186,-627.498 220.01,-620.759 217.592,-627.329"/>
</g>
<!-- Node3 -->
<g id="node3" class="node"><title>Node3</title>
<g id="a_node3"><a xlink:href="struct_x_m_l_node.xhtml#a77a21438b6d48a52cf8a1270f82f4475" target="_top" xlink:title="XMLNode::getChildNode">
<polygon fill="white" stroke="black" points="704.5,-722.5 704.5,-741.5 829.5,-741.5 829.5,-722.5 704.5,-722.5"/>
<text text-anchor="middle" x="767" y="-729.5" font-family="Helvetica,sans-Serif" font-size="10.00">XMLNode::getChildNode</text>
</a>
</g>
</g>
<!-- Node1&#45;&gt;Node3 -->
<g id="edge2" class="edge"><title>Node1&#45;&gt;Node3</title>
<path fill="none" stroke="midnightblue" d="M112.626,-541.512C225.14,-574.315 596.97,-682.72 723.449,-719.594"/>
<polygon fill="midnightblue" stroke="midnightblue" points="722.595,-722.991 733.175,-722.43 724.554,-716.271 722.595,-722.991"/>
</g>
<!-- Node4 -->
<g id="node4" class="node"><title>Node4</title>
<g id="a_node4"><a xlink:href="struct_x_m_l_node.xhtml#aeb607292b18d4615b7c169c7c08c0a8b" target="_top" xlink:title="XMLNode::getText">
<polygon fill="white" stroke="black" points="210.5,-418.5 210.5,-437.5 309.5,-437.5 309.5,-418.5 210.5,-418.5"/>
<text text-anchor="middle" x="260" y="-425.5" font-family="Helvetica,sans-Serif" font-size="10.00">XMLNode::getText</text>
</a>
</g>
</g>
<!-- Node1&#45;&gt;Node4 -->
<g id="edge3" class="edge"><title>Node1&#45;&gt;Node4</title>
<path fill="none" stroke="midnightblue" d="M90.1546,-522.413C109.112,-505 151.801,-468.041 194,-447 198.552,-444.73 203.422,-442.685 208.373,-440.853"/>
<polygon fill="midnightblue" stroke="midnightblue" points="209.597,-444.134 217.93,-437.591 207.335,-437.509 209.597,-444.134"/>
</g>
<!-- Node5 -->
<g id="node5" class="node"><title>Node5</title>
<g id="a_node5"><a xlink:href="struct_x_m_l_node.xhtml#acc044148e2b9b8264a320b7b6e398158" target="_top" xlink:title="XMLNode::openFileHelper">
<polygon fill="white" stroke="black" points="194.5,-456.5 194.5,-475.5 325.5,-475.5 325.5,-456.5 194.5,-456.5"/>
<text text-anchor="middle" x="260" y="-463.5" font-family="Helvetica,sans-Serif" font-size="10.00">XMLNode::openFileHelper</text>
</a>
</g>
</g>
<!-- Node1&#45;&gt;Node5 -->
<g id="edge4" class="edge"><title>Node1&#45;&gt;Node5</title>
<path fill="none" stroke="midnightblue" d="M106.028,-522.403C137.005,-510.982 188.88,-491.854 223.515,-479.084"/>
<polygon fill="midnightblue" stroke="midnightblue" points="225.059,-482.245 233.231,-475.501 222.637,-475.677 225.059,-482.245"/>
</g>
<!-- Node6 -->
<g id="node6" class="node"><title>Node6</title>
<g id="a_node6"><a xlink:href="_c_d_a_q_2_plugins_2_source_2xml_parser_8cpp.xhtml#a8dd6e6cada28ea03e5cacd075b1be7f6" target="_top" xlink:title="xfopen">
<polygon fill="white" stroke="black" points="879,-323.5 879,-342.5 925,-342.5 925,-323.5 879,-323.5"/>
<text text-anchor="middle" x="902" y="-330.5" font-family="Helvetica,sans-Serif" font-size="10.00">xfopen</text>
</a>
</g>
</g>
<!-- Node5&#45;&gt;Node6 -->
<g id="edge5" class="edge"><title>Node5&#45;&gt;Node6</title>
<path fill="none" stroke="midnightblue" d="M316.642,-456.448C418.858,-438.57 643.182,-397.79 830,-353 842.842,-349.921 856.86,-346.077 869.021,-342.584"/>
<polygon fill="midnightblue" stroke="midnightblue" points="870.11,-345.913 878.734,-339.757 868.154,-339.192 870.11,-345.913"/>
</g>
<!-- Node7 -->
<g id="node7" class="node"><title>Node7</title>
<g id="a_node7"><a xlink:href="struct_x_m_l_node.xhtml#a006cabe59176e05bc5a3f06c0cf6d8c1" target="_top" xlink:title="XMLNode::setGlobalOptions">
<polygon fill="white" stroke="black" points="368.5,-494.5 368.5,-513.5 509.5,-513.5 509.5,-494.5 368.5,-494.5"/>
<text text-anchor="middle" x="439" y="-501.5" font-family="Helvetica,sans-Serif" font-size="10.00">XMLNode::setGlobalOptions</text>
</a>
</g>
</g>
<!-- Node5&#45;&gt;Node7 -->
<g id="edge6" class="edge"><title>Node5&#45;&gt;Node7</title>
<path fill="none" stroke="midnightblue" d="M305.665,-475.589C329.337,-480.671 358.608,-486.955 383.597,-492.32"/>
<polygon fill="midnightblue" stroke="midnightblue" points="383.145,-495.803 393.657,-494.48 384.614,-488.959 383.145,-495.803"/>
</g>
<!-- Node8 -->
<g id="node8" class="node"><title>Node8</title>
<g id="a_node8"><a xlink:href="struct_x_m_l_node.xhtml#ac7af7e3bab8d21722dd4f191a4aa7c1d" target="_top" xlink:title="XMLNode::guessCharEncoding">
<polygon fill="white" stroke="black" points="362,-152.5 362,-171.5 516,-171.5 516,-152.5 362,-152.5"/>
<text text-anchor="middle" x="439" y="-159.5" font-family="Helvetica,sans-Serif" font-size="10.00">XMLNode::guessCharEncoding</text>
</a>
</g>
</g>
<!-- Node5&#45;&gt;Node8 -->
<g id="edge7" class="edge"><title>Node5&#45;&gt;Node8</title>
<path fill="none" stroke="midnightblue" d="M313.814,-456.432C318.376,-453.954 322.556,-450.86 326,-447 388.751,-376.668 318.643,-321.693 362,-238 374.835,-213.225 398.606,-191.463 416.158,-177.647"/>
<polygon fill="midnightblue" stroke="midnightblue" points="418.363,-180.366 424.2,-171.524 414.123,-174.797 418.363,-180.366"/>
</g>
<!-- Node19 -->
<g id="node19" class="node"><title>Node19</title>
<g id="a_node19"><a xlink:href="struct_x_m_l_node.xhtml#a5e5968e052d58350918cd91e3535624b" target="_top" xlink:title="XMLNode::parseFile">
<polygon fill="white" stroke="black" points="386,-342.5 386,-361.5 492,-361.5 492,-342.5 386,-342.5"/>
<text text-anchor="middle" x="439" y="-349.5" font-family="Helvetica,sans-Serif" font-size="10.00">XMLNode::parseFile</text>
</a>
</g>
</g>
<!-- Node5&#45;&gt;Node19 -->
<g id="edge28" class="edge"><title>Node5&#45;&gt;Node19</title>
<path fill="none" stroke="midnightblue" d="M303.289,-456.442C311.075,-453.907 318.961,-450.79 326,-447 364.818,-426.099 402.293,-390.093 422.531,-368.922"/>
<polygon fill="midnightblue" stroke="midnightblue" points="425.116,-371.282 429.41,-361.596 420.013,-366.49 425.116,-371.282"/>
</g>
<!-- Node27 -->
<g id="node27" class="node"><title>Node27</title>
<g id="a_node27"><a xlink:href="struct_x_m_l_node.xhtml#a4496629c7a268db5435946c7bdd4eb28" target="_top" xlink:title="XMLNode::getError">
<polygon fill="white" stroke="black" points="388.5,-247.5 388.5,-266.5 489.5,-266.5 489.5,-247.5 388.5,-247.5"/>
<text text-anchor="middle" x="439" y="-254.5" font-family="Helvetica,sans-Serif" font-size="10.00">XMLNode::getError</text>
</a>
</g>
</g>
<!-- Node5&#45;&gt;Node27 -->
<g id="edge43" class="edge"><title>Node5&#45;&gt;Node27</title>
<path fill="none" stroke="midnightblue" d="M312.335,-456.415C317.361,-453.951 322.051,-450.865 326,-447 363.972,-409.835 334.426,-378.418 362,-333 376.431,-309.23 399.815,-287.381 416.838,-273.27"/>
<polygon fill="midnightblue" stroke="midnightblue" points="419.489,-275.628 425.079,-266.628 415.097,-270.178 419.489,-275.628"/>
</g>
<!-- Node9 -->
<g id="node9" class="node"><title>Node9</title>
<g id="a_node9"><a xlink:href="_c_d_a_q_2_plugins_2_source_2xml_parser_8cpp.xhtml#ad9a5c911a8e21bb89427d29d33e2797e" target="_top" xlink:title="myIsTextWideChar">
<polygon fill="white" stroke="black" points="559.5,-190.5 559.5,-209.5 660.5,-209.5 660.5,-190.5 559.5,-190.5"/>
<text text-anchor="middle" x="610" y="-197.5" font-family="Helvetica,sans-Serif" font-size="10.00">myIsTextWideChar</text>
</a>
</g>
</g>
<!-- Node8&#45;&gt;Node9 -->
<g id="edge8" class="edge"><title>Node8&#45;&gt;Node9</title>
<path fill="none" stroke="midnightblue" d="M482.646,-171.589C505.148,-176.649 532.948,-182.9 556.738,-188.249"/>
<polygon fill="midnightblue" stroke="midnightblue" points="556.137,-191.701 566.661,-190.48 557.672,-184.871 556.137,-191.701"/>
</g>
<!-- Node10 -->
<g id="node10" class="node"><title>Node10</title>
<g id="a_node10"><a xlink:href="_c_d_a_q_2_plugins_2_source_2xml_parser_8cpp.xhtml#af77e3e2685487b9c492b20c36f3b864a" target="_top" xlink:title="_strnicmp">
<polygon fill="white" stroke="black" points="737.5,-38.5 737.5,-57.5 796.5,-57.5 796.5,-38.5 737.5,-38.5"/>
<text text-anchor="middle" x="767" y="-45.5" font-family="Helvetica,sans-Serif" font-size="10.00">_strnicmp</text>
</a>
</g>
</g>
<!-- Node8&#45;&gt;Node10 -->
<g id="edge27" class="edge"><title>Node8&#45;&gt;Node10</title>
<path fill="none" stroke="midnightblue" d="M467.234,-152.477C525.602,-132.066 662.811,-84.0843 729.002,-60.9378"/>
<polygon fill="midnightblue" stroke="midnightblue" points="730.33,-64.1814 738.614,-57.5766 728.02,-57.5737 730.33,-64.1814"/>
</g>
<!-- Node11 -->
<g id="node11" class="node"><title>Node11</title>
<g id="a_node11"><a xlink:href="_c_d_a_q_2_plugins_2_source_2xml_parser_8cpp.xhtml#ae4635e3ac4b32772021240a9c16864ee" target="_top" xlink:title="mmin">
<polygon fill="white" stroke="black" points="746.5,-0.5 746.5,-19.5 787.5,-19.5 787.5,-0.5 746.5,-0.5"/>
<text text-anchor="middle" x="767" y="-7.5" font-family="Helvetica,sans-Serif" font-size="10.00">mmin</text>
</a>
</g>
</g>
<!-- Node8&#45;&gt;Node11 -->
<g id="edge26" class="edge"><title>Node8&#45;&gt;Node11</title>
<path fill="none" stroke="midnightblue" d="M451.029,-152.283C470.316,-135.706 511.94,-101.748 552,-81 615.401,-48.1635 636.08,-51.0185 704,-29 714.602,-25.5629 726.276,-21.9427 736.608,-18.7951"/>
<polygon fill="midnightblue" stroke="midnightblue" points="737.846,-22.0772 746.403,-15.8292 735.817,-15.3776 737.846,-22.0772"/>
</g>
<!-- Node9&#45;&gt;Node6 -->
<g id="edge19" class="edge"><title>Node9&#45;&gt;Node6</title>
<path fill="none" stroke="midnightblue" d="M619.189,-209.577C634.237,-226.56 668.054,-261.951 704,-281 757.796,-309.509 828.306,-323.188 868.737,-329.092"/>
<polygon fill="midnightblue" stroke="midnightblue" points="868.435,-332.584 878.822,-330.494 869.399,-325.651 868.435,-332.584"/>
</g>
<!-- Node9&#45;&gt;Node10 -->
<g id="edge9" class="edge"><title>Node9&#45;&gt;Node10</title>
<path fill="none" stroke="midnightblue" d="M615.626,-190.186C627.224,-166.567 659.809,-106.007 704,-72 711.035,-66.5864 719.438,-62.2594 727.753,-58.8548"/>
<polygon fill="midnightblue" stroke="midnightblue" points="729.234,-62.0385 737.386,-55.272 726.794,-55.4776 729.234,-62.0385"/>
</g>
<!-- Node9&#45;&gt;Node11 -->
<g id="edge10" class="edge"><title>Node9&#45;&gt;Node11</title>
<path fill="none" stroke="midnightblue" d="M613.492,-190.188C621.409,-161.027 648.781,-74.1142 704,-29 713.211,-21.4743 725.38,-16.9242 736.496,-14.1754"/>
<polygon fill="midnightblue" stroke="midnightblue" points="737.224,-17.5991 746.294,-12.1238 735.789,-10.7477 737.224,-17.5991"/>
</g>
<!-- Node12 -->
<g id="node12" class="node"><title>Node12</title>
<g id="a_node12"><a xlink:href="_c_d_a_q_2_plugins_2_source_2xml_parser_8cpp.xhtml#ad7ec02a171e7641c1d364d5d367199a3" target="_top" xlink:title="myWideCharToMultiByte">
<polygon fill="white" stroke="black" points="704,-228.5 704,-247.5 830,-247.5 830,-228.5 704,-228.5"/>
<text text-anchor="middle" x="767" y="-235.5" font-family="Helvetica,sans-Serif" font-size="10.00">myWideCharToMultiByte</text>
</a>
</g>
</g>
<!-- Node9&#45;&gt;Node12 -->
<g id="edge11" class="edge"><title>Node9&#45;&gt;Node12</title>
<path fill="none" stroke="midnightblue" d="M650.113,-209.589C670.475,-214.581 695.566,-220.732 717.189,-226.033"/>
<polygon fill="midnightblue" stroke="midnightblue" points="716.622,-229.498 727.168,-228.48 718.289,-222.699 716.622,-229.498"/>
</g>
<!-- Node13 -->
<g id="node13" class="node"><title>Node13</title>
<g id="a_node13"><a xlink:href="_c_d_a_q_2_plugins_2_source_2xml_parser_8cpp.xhtml#a73c2349b2f386ee50130a3961bd2dbab" target="_top" xlink:title="xstrcpy">
<polygon fill="white" stroke="black" points="877.5,-152.5 877.5,-171.5 926.5,-171.5 926.5,-152.5 877.5,-152.5"/>
<text text-anchor="middle" x="902" y="-159.5" font-family="Helvetica,sans-Serif" font-size="10.00">xstrcpy</text>
</a>
</g>
</g>
<!-- Node9&#45;&gt;Node13 -->
<g id="edge20" class="edge"><title>Node9&#45;&gt;Node13</title>
<path fill="none" stroke="midnightblue" d="M660.523,-193.511C719.425,-185.793 816.165,-173.116 867.139,-166.437"/>
<polygon fill="midnightblue" stroke="midnightblue" points="867.832,-169.876 877.292,-165.107 866.922,-162.936 867.832,-169.876"/>
</g>
<!-- Node14 -->
<g id="node14" class="node"><title>Node14</title>
<g id="a_node14"><a xlink:href="_c_d_a_q_2_plugins_2_source_2xml_parser_8cpp.xhtml#a2e64ea95685df2d289c31a50419b532d" target="_top" xlink:title="xstricmp">
<polygon fill="white" stroke="black" points="875,-494.5 875,-513.5 929,-513.5 929,-494.5 875,-494.5"/>
<text text-anchor="middle" x="902" y="-501.5" font-family="Helvetica,sans-Serif" font-size="10.00">xstricmp</text>
</a>
</g>
</g>
<!-- Node9&#45;&gt;Node14 -->
<g id="edge21" class="edge"><title>Node9&#45;&gt;Node14</title>
<path fill="none" stroke="midnightblue" d="M618.065,-209.673C633.084,-230.035 669.627,-278.527 704,-316 765.538,-383.087 845.961,-455.619 882.041,-487.447"/>
<polygon fill="midnightblue" stroke="midnightblue" points="880.009,-490.321 889.83,-494.293 884.63,-485.063 880.009,-490.321"/>
</g>
<!-- Node15 -->
<g id="node15" class="node"><title>Node15</title>
<g id="a_node15"><a xlink:href="_c_d_a_q_2_plugins_2_source_2xml_parser_8cpp.xhtml#a49fa66f65d2d28ce7b7e0b1752425915" target="_top" xlink:title="xstrlen">
<polygon fill="white" stroke="black" points="879,-266.5 879,-285.5 925,-285.5 925,-266.5 879,-266.5"/>
<text text-anchor="middle" x="902" y="-273.5" font-family="Helvetica,sans-Serif" font-size="10.00">xstrlen</text>
</a>
</g>
</g>
<!-- Node9&#45;&gt;Node15 -->
<g id="edge22" class="edge"><title>Node9&#45;&gt;Node15</title>
<path fill="none" stroke="midnightblue" d="M622.737,-209.67C639.56,-222.923 672.035,-246.301 704,-257 759.664,-275.632 828.766,-277.858 868.581,-277.277"/>
<polygon fill="midnightblue" stroke="midnightblue" points="868.839,-280.772 878.761,-277.057 868.688,-273.774 868.839,-280.772"/>
</g>
<!-- Node16 -->
<g id="node16" class="node"><title>Node16</title>
<g id="a_node16"><a xlink:href="_c_d_a_q_2_plugins_2_source_2xml_parser_8cpp.xhtml#a3165858f70cd74ffab31ebc2ddc9e104" target="_top" xlink:title="xstrncmp">
<polygon fill="white" stroke="black" points="873.5,-76.5 873.5,-95.5 930.5,-95.5 930.5,-76.5 873.5,-76.5"/>
<text text-anchor="middle" x="902" y="-83.5" font-family="Helvetica,sans-Serif" font-size="10.00">xstrncmp</text>
</a>
</g>
</g>
<!-- Node9&#45;&gt;Node16 -->
<g id="edge23" class="edge"><title>Node9&#45;&gt;Node16</title>
<path fill="none" stroke="midnightblue" d="M622.227,-190.279C638.944,-176.29 671.869,-150.567 704,-136 756.623,-112.142 822.526,-98.3484 863.191,-91.5049"/>
<polygon fill="midnightblue" stroke="midnightblue" points="863.903,-94.9351 873.211,-89.8737 862.778,-88.026 863.903,-94.9351"/>
</g>
<!-- Node17 -->
<g id="node17" class="node"><title>Node17</title>
<g id="a_node17"><a xlink:href="_c_d_a_q_2_plugins_2_source_2xml_parser_8cpp.xhtml#a17c9570640aed10b61deec9047cb0940" target="_top" xlink:title="xstrnicmp">
<polygon fill="white" stroke="black" points="872.5,-209.5 872.5,-228.5 931.5,-228.5 931.5,-209.5 872.5,-209.5"/>
<text text-anchor="middle" x="902" y="-216.5" font-family="Helvetica,sans-Serif" font-size="10.00">xstrnicmp</text>
</a>
</g>
</g>
<!-- Node9&#45;&gt;Node17 -->
<g id="edge24" class="edge"><title>Node9&#45;&gt;Node17</title>
<path fill="none" stroke="midnightblue" d="M660.523,-203.245C717.581,-206.983 810.144,-213.047 862.219,-216.459"/>
<polygon fill="midnightblue" stroke="midnightblue" points="862.173,-219.964 872.381,-217.125 862.631,-212.979 862.173,-219.964"/>
</g>
<!-- Node18 -->
<g id="node18" class="node"><title>Node18</title>
<g id="a_node18"><a xlink:href="_c_d_a_q_2_plugins_2_source_2xml_parser_8cpp.xhtml#a696ca59a310359980c57de039f137697" target="_top" xlink:title="xstrstr">
<polygon fill="white" stroke="black" points="880,-114.5 880,-133.5 924,-133.5 924,-114.5 880,-114.5"/>
<text text-anchor="middle" x="902" y="-121.5" font-family="Helvetica,sans-Serif" font-size="10.00">xstrstr</text>
</a>
</g>
</g>
<!-- Node9&#45;&gt;Node18 -->
<g id="edge25" class="edge"><title>Node9&#45;&gt;Node18</title>
<path fill="none" stroke="midnightblue" d="M637.246,-190.492C655.76,-183.973 681.22,-175.382 704,-169 761.897,-152.779 830.568,-138.108 869.638,-130.182"/>
<polygon fill="midnightblue" stroke="midnightblue" points="870.726,-133.534 879.839,-128.13 869.345,-126.671 870.726,-133.534"/>
</g>
<!-- Node12&#45;&gt;Node6 -->
<g id="edge12" class="edge"><title>Node12&#45;&gt;Node6</title>
<path fill="none" stroke="midnightblue" d="M781.732,-247.809C804.849,-264.321 851.709,-297.792 879.31,-317.507"/>
<polygon fill="midnightblue" stroke="midnightblue" points="877.369,-320.422 887.54,-323.386 881.437,-314.725 877.369,-320.422"/>
</g>
<!-- Node12&#45;&gt;Node13 -->
<g id="edge13" class="edge"><title>Node12&#45;&gt;Node13</title>
<path fill="none" stroke="midnightblue" d="M784.845,-228.375C807.729,-215.297 848.842,-191.804 875.514,-176.563"/>
<polygon fill="midnightblue" stroke="midnightblue" points="877.346,-179.548 884.292,-171.547 873.873,-173.47 877.346,-179.548"/>
</g>
<!-- Node12&#45;&gt;Node14 -->
<g id="edge14" class="edge"><title>Node12&#45;&gt;Node14</title>
<path fill="none" stroke="midnightblue" d="M772.891,-247.783C792.487,-286.974 865.515,-433.03 891.636,-485.271"/>
<polygon fill="midnightblue" stroke="midnightblue" points="888.602,-487.03 896.205,-494.409 894.863,-483.899 888.602,-487.03"/>
</g>
<!-- Node12&#45;&gt;Node15 -->
<g id="edge15" class="edge"><title>Node12&#45;&gt;Node15</title>
<path fill="none" stroke="midnightblue" d="M801.562,-247.589C822.233,-253.495 848.584,-261.024 868.966,-266.847"/>
<polygon fill="midnightblue" stroke="midnightblue" points="868.153,-270.255 878.729,-269.637 870.076,-263.524 868.153,-270.255"/>
</g>
<!-- Node12&#45;&gt;Node16 -->
<g id="edge16" class="edge"><title>Node12&#45;&gt;Node16</title>
<path fill="none" stroke="midnightblue" d="M773.217,-228.176C786.198,-204.464 822.095,-143.241 866,-105 867.525,-103.672 869.158,-102.399 870.856,-101.186"/>
<polygon fill="midnightblue" stroke="midnightblue" points="873.064,-103.932 879.666,-95.646 869.337,-98.0066 873.064,-103.932"/>
</g>
<!-- Node12&#45;&gt;Node17 -->
<g id="edge17" class="edge"><title>Node12&#45;&gt;Node17</title>
<path fill="none" stroke="midnightblue" d="M830.217,-229.112C841.155,-227.549 852.249,-225.964 862.307,-224.528"/>
<polygon fill="midnightblue" stroke="midnightblue" points="862.96,-227.97 872.365,-223.091 861.97,-221.04 862.96,-227.97"/>
</g>
<!-- Node12&#45;&gt;Node18 -->
<g id="edge18" class="edge"><title>Node12&#45;&gt;Node18</title>
<path fill="none" stroke="midnightblue" d="M776.188,-228.491C792.159,-210.322 829.144,-170.076 866,-143 868.048,-141.496 870.229,-140.032 872.463,-138.627"/>
<polygon fill="midnightblue" stroke="midnightblue" points="874.296,-141.61 881.171,-133.549 870.769,-135.564 874.296,-141.61"/>
</g>
<!-- Node19&#45;&gt;Node6 -->
<g id="edge29" class="edge"><title>Node19&#45;&gt;Node6</title>
<path fill="none" stroke="midnightblue" d="M492.434,-349.839C588.45,-345.882 789.867,-337.58 868.538,-334.338"/>
<polygon fill="midnightblue" stroke="midnightblue" points="868.953,-337.824 878.8,-333.915 868.665,-330.83 868.953,-337.824"/>
</g>
<!-- Node19&#45;&gt;Node9 -->
<g id="edge30" class="edge"><title>Node19&#45;&gt;Node9</title>
<path fill="none" stroke="midnightblue" d="M450.572,-342.492C478.669,-317.221 555.462,-248.153 590.783,-216.384"/>
<polygon fill="midnightblue" stroke="midnightblue" points="593.338,-218.794 598.432,-209.505 588.657,-213.59 593.338,-218.794"/>
</g>
<!-- Node19&#45;&gt;Node12 -->
<g id="edge31" class="edge"><title>Node19&#45;&gt;Node12</title>
<path fill="none" stroke="midnightblue" d="M467.234,-342.477C525.602,-322.066 662.811,-274.084 729.002,-250.938"/>
<polygon fill="midnightblue" stroke="midnightblue" points="730.33,-254.181 738.614,-247.577 728.02,-247.574 730.33,-254.181"/>
</g>
<!-- Node20 -->
<g id="node20" class="node"><title>Node20</title>
<g id="a_node20"><a xlink:href="struct_x_m_l_node.xhtml#acb95f4f00e4cf3756aac0e3a53765248" target="_top" xlink:title="XMLNode::parseString">
<polygon fill="white" stroke="black" points="552,-551.5 552,-570.5 668,-570.5 668,-551.5 552,-551.5"/>
<text text-anchor="middle" x="610" y="-558.5" font-family="Helvetica,sans-Serif" font-size="10.00">XMLNode::parseString</text>
</a>
</g>
</g>
<!-- Node19&#45;&gt;Node20 -->
<g id="edge32" class="edge"><title>Node19&#45;&gt;Node20</title>
<path fill="none" stroke="midnightblue" d="M447.701,-361.523C473.985,-394.029 560.425,-500.928 594.759,-543.388"/>
<polygon fill="midnightblue" stroke="midnightblue" points="592.245,-545.845 601.254,-551.421 597.688,-541.444 592.245,-545.845"/>
</g>
<!-- Node20&#45;&gt;Node3 -->
<g id="edge36" class="edge"><title>Node20&#45;&gt;Node3</title>
<path fill="none" stroke="midnightblue" d="M647.311,-570.567C655.001,-574.041 662.457,-578.721 668,-585 707.11,-629.303 662.7,-670.731 704,-713 705.416,-714.449 706.94,-715.789 708.549,-717.027"/>
<polygon fill="midnightblue" stroke="midnightblue" points="706.861,-720.099 717.201,-722.408 710.558,-714.155 706.861,-720.099"/>
</g>
<!-- Node20&#45;&gt;Node14 -->
<g id="edge39" class="edge"><title>Node20&#45;&gt;Node14</title>
<path fill="none" stroke="midnightblue" d="M633.74,-570.548C660.076,-581.568 700.342,-598.281 704,-599 758.95,-609.793 779.933,-624.086 830,-599 861.608,-583.162 882.756,-545.833 893.256,-522.967"/>
<polygon fill="midnightblue" stroke="midnightblue" points="896.548,-524.173 897.331,-513.607 890.13,-521.379 896.548,-524.173"/>
</g>
<!-- Node20&#45;&gt;Node15 -->
<g id="edge38" class="edge"><title>Node20&#45;&gt;Node15</title>
<path fill="none" stroke="midnightblue" d="M620.982,-551.19C663.51,-509.395 829.864,-345.91 883.926,-292.78"/>
<polygon fill="midnightblue" stroke="midnightblue" points="886.38,-295.275 891.06,-285.769 881.474,-290.282 886.38,-295.275"/>
</g>
<!-- Node21 -->
<g id="node21" class="node"><title>Node21</title>
<g id="a_node21"><a xlink:href="struct_x_m_l_node.xhtml#a8e52198f258167cd796dae21f1ffc352" target="_top" xlink:title="XMLNode::nChildNode">
<polygon fill="white" stroke="black" points="708.5,-646.5 708.5,-665.5 825.5,-665.5 825.5,-646.5 708.5,-646.5"/>
<text text-anchor="middle" x="767" y="-653.5" font-family="Helvetica,sans-Serif" font-size="10.00">XMLNode::nChildNode</text>
</a>
</g>
</g>
<!-- Node20&#45;&gt;Node21 -->
<g id="edge33" class="edge"><title>Node20&#45;&gt;Node21</title>
<path fill="none" stroke="midnightblue" d="M641.877,-570.613C650.831,-574.267 660.268,-579.026 668,-585 688.821,-601.088 682.946,-616.218 704,-632 709.461,-636.093 715.706,-639.576 722.082,-642.512"/>
<polygon fill="midnightblue" stroke="midnightblue" points="720.866,-645.797 731.442,-646.429 723.569,-639.34 720.866,-645.797"/>
</g>
<!-- Node22 -->
<g id="node22" class="node"><title>Node22</title>
<g id="a_node22"><a xlink:href="struct_x_m_l_node.xhtml#a8e9538deb9144dcab39b3a510a8202f1" target="_top" xlink:title="XMLNode::nElement">
<polygon fill="white" stroke="black" points="713.5,-570.5 713.5,-589.5 820.5,-589.5 820.5,-570.5 713.5,-570.5"/>
<text text-anchor="middle" x="767" y="-577.5" font-family="Helvetica,sans-Serif" font-size="10.00">XMLNode::nElement</text>
</a>
</g>
</g>
<!-- Node20&#45;&gt;Node22 -->
<g id="edge35" class="edge"><title>Node20&#45;&gt;Node22</title>
<path fill="none" stroke="midnightblue" d="M668.276,-568.021C679.682,-569.419 691.715,-570.894 703.292,-572.313"/>
<polygon fill="midnightblue" stroke="midnightblue" points="702.969,-575.8 713.32,-573.543 703.821,-568.852 702.969,-575.8"/>
</g>
<!-- Node23 -->
<g id="node23" class="node"><title>Node23</title>
<g id="a_node23"><a xlink:href="struct_x_m_l_node.xhtml#a7e07715aa0ed894da96bd66c90d423f0" target="_top" xlink:title="XMLNode::getName">
<polygon fill="white" stroke="black" points="714,-532.5 714,-551.5 820,-551.5 820,-532.5 714,-532.5"/>
<text text-anchor="middle" x="767" y="-539.5" font-family="Helvetica,sans-Serif" font-size="10.00">XMLNode::getName</text>
</a>
</g>
</g>
<!-- Node20&#45;&gt;Node23 -->
<g id="edge37" class="edge"><title>Node20&#45;&gt;Node23</title>
<path fill="none" stroke="midnightblue" d="M668.276,-553.979C679.815,-552.565 691.997,-551.071 703.698,-549.637"/>
<polygon fill="midnightblue" stroke="midnightblue" points="704.329,-553.086 713.829,-548.395 703.477,-546.138 704.329,-553.086"/>
</g>
<!-- Node24 -->
<g id="node24" class="node"><title>Node24</title>
<g id="a_node24"><a xlink:href="struct_x_m_l_node.xhtml#a71df27d54a2dc09b0a456406a7e8c6d3" target="_top" xlink:title="XMLNode::isDeclaration">
<polygon fill="white" stroke="black" points="705.5,-494.5 705.5,-513.5 828.5,-513.5 828.5,-494.5 705.5,-494.5"/>
<text text-anchor="middle" x="767" y="-501.5" font-family="Helvetica,sans-Serif" font-size="10.00">XMLNode::isDeclaration</text>
</a>
</g>
</g>
<!-- Node20&#45;&gt;Node24 -->
<g id="edge40" class="edge"><title>Node20&#45;&gt;Node24</title>
<path fill="none" stroke="midnightblue" d="M632.955,-551.371C651.665,-543.325 679.358,-531.79 704,-523 710.124,-520.816 716.639,-518.65 723.059,-516.606"/>
<polygon fill="midnightblue" stroke="midnightblue" points="724.492,-519.825 732.998,-513.508 722.409,-513.142 724.492,-519.825"/>
</g>
<!-- Node25 -->
<g id="node25" class="node"><title>Node25</title>
<g id="a_node25"><a xlink:href="_c_d_a_q_2_plugins_2_source_2xml_parser_8cpp.xhtml#ae6aa5a367ab3cc92b47fd92f81add72a" target="_top" xlink:title="CountLinesAndColumns">
<polygon fill="white" stroke="black" points="706,-684.5 706,-703.5 828,-703.5 828,-684.5 706,-684.5"/>
<text text-anchor="middle" x="767" y="-691.5" font-family="Helvetica,sans-Serif" font-size="10.00">CountLinesAndColumns</text>
</a>
</g>
</g>
<!-- Node20&#45;&gt;Node25 -->
<g id="edge41" class="edge"><title>Node20&#45;&gt;Node25</title>
<path fill="none" stroke="midnightblue" d="M645.948,-570.614C653.962,-574.114 661.906,-578.795 668,-585 698.187,-615.736 672.297,-645.829 704,-675 705.716,-676.579 707.561,-678.028 709.502,-679.355"/>
<polygon fill="midnightblue" stroke="midnightblue" points="708.099,-682.582 718.53,-684.441 711.535,-676.483 708.099,-682.582"/>
</g>
<!-- Node21&#45;&gt;Node14 -->
<g id="edge34" class="edge"><title>Node21&#45;&gt;Node14</title>
<path fill="none" stroke="midnightblue" d="M805.103,-646.428C813.939,-642.915 822.865,-638.218 830,-632 864.332,-602.079 885.391,-551.322 894.935,-523.565"/>
<polygon fill="midnightblue" stroke="midnightblue" points="898.337,-524.422 898.131,-513.829 891.686,-522.238 898.337,-524.422"/>
</g>
<!-- Node26 -->
<g id="node26" class="node"><title>Node26</title>
<g id="a_node26"><a xlink:href="_c_d_a_q_2_plugins_2_source_2xml_parser_8cpp.xhtml#af03c1c87ed4ddb95f7b49d53d9117c53" target="_top" xlink:title="getNextChar">
<polygon fill="white" stroke="black" points="866,-684.5 866,-703.5 938,-703.5 938,-684.5 866,-684.5"/>
<text text-anchor="middle" x="902" y="-691.5" font-family="Helvetica,sans-Serif" font-size="10.00">getNextChar</text>
</a>
</g>
</g>
<!-- Node25&#45;&gt;Node26 -->
<g id="edge42" class="edge"><title>Node25&#45;&gt;Node26</title>
<path fill="none" stroke="midnightblue" d="M828.274,-694C837.462,-694 846.811,-694 855.609,-694"/>
<polygon fill="midnightblue" stroke="midnightblue" points="855.642,-697.5 865.642,-694 855.642,-690.5 855.642,-697.5"/>
</g>
<!-- Node27&#45;&gt;Node9 -->
<g id="edge44" class="edge"><title>Node27&#45;&gt;Node9</title>
<path fill="none" stroke="midnightblue" d="M468.287,-247.459C496.437,-237.965 539.819,-223.333 570.971,-212.826"/>
<polygon fill="midnightblue" stroke="midnightblue" points="572.264,-216.084 580.621,-209.572 570.027,-209.451 572.264,-216.084"/>
</g>
</g>
</svg>
