<?xml version="1.0" encoding="UTF-8" standalone="no"?>
<!DOCTYPE svg PUBLIC "-//W3C//DTD SVG 1.1//EN"
 "http://www.w3.org/Graphics/SVG/1.1/DTD/svg11.dtd">
<!-- Generated by graphviz version 2.36.0 (20140111.2315)
 -->
<!-- Title: Averager::Add Pages: 1 -->
<svg width="312pt" height="66pt"
 viewBox="0.00 0.00 312.00 66.00" xmlns="http://www.w3.org/2000/svg" xmlns:xlink="http://www.w3.org/1999/xlink">
<g id="graph0" class="graph" transform="scale(1 1) rotate(0) translate(4 62)">
<title>Averager::Add</title>
<polygon fill="white" stroke="none" points="-4,4 -4,-62 308,-62 308,4 -4,4"/>
<!-- Node1 -->
<g id="node1" class="node"><title>Node1</title>
<polygon fill="#bfbfbf" stroke="black" points="0.5,-19.5 0.5,-38.5 79.5,-38.5 79.5,-19.5 0.5,-19.5"/>
<text text-anchor="middle" x="40" y="-26.5" font-family="Helvetica,sans-Serif" font-size="10.00">Averager::Add</text>
</g>
<!-- Node2 -->
<g id="node2" class="node"><title>Node2</title>
<g id="a_node2"><a xlink:href="class_d_r_s_board.xhtml#a8bab7dfd4d23b8721274dbad343fe980" target="_top" xlink:title="DRSBoard::AnalyzeSlope">
<polygon fill="white" stroke="black" points="145,-38.5 145,-57.5 275,-57.5 275,-38.5 145,-38.5"/>
<text text-anchor="middle" x="210" y="-45.5" font-family="Helvetica,sans-Serif" font-size="10.00">DRSBoard::AnalyzeSlope</text>
</a>
</g>
</g>
<!-- Node1&#45;&gt;Node2 -->
<g id="edge1" class="edge"><title>Node1&#45;&gt;Node2</title>
<path fill="none" stroke="midnightblue" d="M89.9086,-34.5313C107.107,-36.4764 126.698,-38.6921 144.955,-40.7568"/>
<polygon fill="midnightblue" stroke="midnightblue" points="89.8726,-31.005 79.5426,-33.359 89.0859,-37.9607 89.8726,-31.005"/>
</g>
<!-- Node3 -->
<g id="node3" class="node"><title>Node3</title>
<g id="a_node3"><a xlink:href="class_d_r_s_board.xhtml#a6e16736c059a10a958a692aefc5dda48" target="_top" xlink:title="DRSBoard::RobustAverageWaveforms">
<polygon fill="white" stroke="black" points="116,-0.5 116,-19.5 304,-19.5 304,-0.5 116,-0.5"/>
<text text-anchor="middle" x="210" y="-7.5" font-family="Helvetica,sans-Serif" font-size="10.00">DRSBoard::RobustAverageWaveforms</text>
</a>
</g>
</g>
<!-- Node1&#45;&gt;Node3 -->
<g id="edge2" class="edge"><title>Node1&#45;&gt;Node3</title>
<path fill="none" stroke="midnightblue" d="M89.7626,-23.4852C100.771,-22.2402 112.765,-20.8837 124.765,-19.5265"/>
<polygon fill="midnightblue" stroke="midnightblue" points="89.0859,-20.0393 79.5426,-24.641 89.8726,-26.995 89.0859,-20.0393"/>
</g>
</g>
</svg>
