<?xml version="1.0" encoding="UTF-8" standalone="no"?>
<!DOCTYPE svg PUBLIC "-//W3C//DTD SVG 1.1//EN"
 "http://www.w3.org/Graphics/SVG/1.1/DTD/svg11.dtd">
<!-- Generated by graphviz version 2.36.0 (20140111.2315)
 -->
<!-- Title: ScopeManager::ShowEvent Pages: 1 -->
<svg width="926pt" height="750pt"
 viewBox="0.00 0.00 926.00 750.00" xmlns="http://www.w3.org/2000/svg" xmlns:xlink="http://www.w3.org/1999/xlink">
<g id="graph0" class="graph" transform="scale(1 1) rotate(0) translate(4 746)">
<title>ScopeManager::ShowEvent</title>
<polygon fill="white" stroke="none" points="-4,4 -4,-746 922,-746 922,4 -4,4"/>
<!-- Node1 -->
<g id="node1" class="node"><title>Node1</title>
<polygon fill="#bfbfbf" stroke="black" points="0,-522.5 0,-541.5 138,-541.5 138,-522.5 0,-522.5"/>
<text text-anchor="middle" x="69" y="-529.5" font-family="Helvetica,sans-Serif" font-size="10.00">ScopeManager::ShowEvent</text>
</g>
<!-- Node2 -->
<g id="node2" class="node"><title>Node2</title>
<g id="a_node2"><a xlink:href="class_common.xhtml#a279c04634cf123f06e0a2cb6ac8241b8" target="_top" xlink:title="Common::error">
<polygon fill="white" stroke="black" points="199,-627.5 199,-646.5 281,-646.5 281,-627.5 199,-627.5"/>
<text text-anchor="middle" x="240" y="-634.5" font-family="Helvetica,sans-Serif" font-size="10.00">Common::error</text>
</a>
</g>
</g>
<!-- Node1&#45;&gt;Node2 -->
<g id="edge1" class="edge"><title>Node1&#45;&gt;Node2</title>
<path fill="none" stroke="midnightblue" d="M80.157,-541.681C97.9381,-558.204 136.402,-592.082 174,-613 181.324,-617.075 189.476,-620.709 197.463,-623.841"/>
<polygon fill="midnightblue" stroke="midnightblue" points="196.463,-627.204 207.056,-627.408 198.903,-620.642 196.463,-627.204"/>
</g>
<!-- Node3 -->
<g id="node3" class="node"><title>Node3</title>
<g id="a_node3"><a xlink:href="struct_x_m_l_node.xhtml#a77a21438b6d48a52cf8a1270f82f4475" target="_top" xlink:title="XMLNode::getChildNode">
<polygon fill="white" stroke="black" points="684.5,-722.5 684.5,-741.5 809.5,-741.5 809.5,-722.5 684.5,-722.5"/>
<text text-anchor="middle" x="747" y="-729.5" font-family="Helvetica,sans-Serif" font-size="10.00">XMLNode::getChildNode</text>
</a>
</g>
</g>
<!-- Node1&#45;&gt;Node3 -->
<g id="edge2" class="edge"><title>Node1&#45;&gt;Node3</title>
<path fill="none" stroke="midnightblue" d="M102.15,-541.512C212.913,-574.282 578.699,-682.503 703.693,-719.483"/>
<polygon fill="midnightblue" stroke="midnightblue" points="703.071,-722.949 713.653,-722.43 705.057,-716.237 703.071,-722.949"/>
</g>
<!-- Node4 -->
<g id="node4" class="node"><title>Node4</title>
<g id="a_node4"><a xlink:href="struct_x_m_l_node.xhtml#aeb607292b18d4615b7c169c7c08c0a8b" target="_top" xlink:title="XMLNode::getText">
<polygon fill="white" stroke="black" points="190.5,-418.5 190.5,-437.5 289.5,-437.5 289.5,-418.5 190.5,-418.5"/>
<text text-anchor="middle" x="240" y="-425.5" font-family="Helvetica,sans-Serif" font-size="10.00">XMLNode::getText</text>
</a>
</g>
</g>
<!-- Node1&#45;&gt;Node4 -->
<g id="edge3" class="edge"><title>Node1&#45;&gt;Node4</title>
<path fill="none" stroke="midnightblue" d="M79.0879,-522.358C96.0965,-504.856 134.593,-467.756 174,-447 178.262,-444.755 182.824,-442.742 187.482,-440.945"/>
<polygon fill="midnightblue" stroke="midnightblue" points="188.842,-444.176 197.11,-437.551 186.515,-437.574 188.842,-444.176"/>
</g>
<!-- Node5 -->
<g id="node5" class="node"><title>Node5</title>
<g id="a_node5"><a xlink:href="struct_x_m_l_node.xhtml#acc044148e2b9b8264a320b7b6e398158" target="_top" xlink:title="XMLNode::openFileHelper">
<polygon fill="white" stroke="black" points="174.5,-456.5 174.5,-475.5 305.5,-475.5 305.5,-456.5 174.5,-456.5"/>
<text text-anchor="middle" x="240" y="-463.5" font-family="Helvetica,sans-Serif" font-size="10.00">XMLNode::openFileHelper</text>
</a>
</g>
</g>
<!-- Node1&#45;&gt;Node5 -->
<g id="edge4" class="edge"><title>Node1&#45;&gt;Node5</title>
<path fill="none" stroke="midnightblue" d="M94.5741,-522.403C123.694,-511.031 172.377,-492.018 205.075,-479.249"/>
<polygon fill="midnightblue" stroke="midnightblue" points="206.629,-482.399 214.67,-475.501 204.082,-475.879 206.629,-482.399"/>
</g>
<!-- Node6 -->
<g id="node6" class="node"><title>Node6</title>
<g id="a_node6"><a xlink:href="_c_d_a_q_2_plugins_2_source_2xml_parser_8cpp.xhtml#a8dd6e6cada28ea03e5cacd075b1be7f6" target="_top" xlink:title="xfopen">
<polygon fill="white" stroke="black" points="859,-323.5 859,-342.5 905,-342.5 905,-323.5 859,-323.5"/>
<text text-anchor="middle" x="882" y="-330.5" font-family="Helvetica,sans-Serif" font-size="10.00">xfopen</text>
</a>
</g>
</g>
<!-- Node5&#45;&gt;Node6 -->
<g id="edge5" class="edge"><title>Node5&#45;&gt;Node6</title>
<path fill="none" stroke="midnightblue" d="M296.642,-456.448C398.858,-438.57 623.182,-397.79 810,-353 822.842,-349.921 836.86,-346.077 849.021,-342.584"/>
<polygon fill="midnightblue" stroke="midnightblue" points="850.11,-345.913 858.734,-339.757 848.154,-339.192 850.11,-345.913"/>
</g>
<!-- Node7 -->
<g id="node7" class="node"><title>Node7</title>
<g id="a_node7"><a xlink:href="struct_x_m_l_node.xhtml#a006cabe59176e05bc5a3f06c0cf6d8c1" target="_top" xlink:title="XMLNode::setGlobalOptions">
<polygon fill="white" stroke="black" points="348.5,-494.5 348.5,-513.5 489.5,-513.5 489.5,-494.5 348.5,-494.5"/>
<text text-anchor="middle" x="419" y="-501.5" font-family="Helvetica,sans-Serif" font-size="10.00">XMLNode::setGlobalOptions</text>
</a>
</g>
</g>
<!-- Node5&#45;&gt;Node7 -->
<g id="edge6" class="edge"><title>Node5&#45;&gt;Node7</title>
<path fill="none" stroke="midnightblue" d="M285.665,-475.589C309.337,-480.671 338.608,-486.955 363.597,-492.32"/>
<polygon fill="midnightblue" stroke="midnightblue" points="363.145,-495.803 373.657,-494.48 364.614,-488.959 363.145,-495.803"/>
</g>
<!-- Node8 -->
<g id="node8" class="node"><title>Node8</title>
<g id="a_node8"><a xlink:href="struct_x_m_l_node.xhtml#ac7af7e3bab8d21722dd4f191a4aa7c1d" target="_top" xlink:title="XMLNode::guessCharEncoding">
<polygon fill="white" stroke="black" points="342,-152.5 342,-171.5 496,-171.5 496,-152.5 342,-152.5"/>
<text text-anchor="middle" x="419" y="-159.5" font-family="Helvetica,sans-Serif" font-size="10.00">XMLNode::guessCharEncoding</text>
</a>
</g>
</g>
<!-- Node5&#45;&gt;Node8 -->
<g id="edge7" class="edge"><title>Node5&#45;&gt;Node8</title>
<path fill="none" stroke="midnightblue" d="M293.814,-456.432C298.376,-453.954 302.556,-450.86 306,-447 368.751,-376.668 298.643,-321.693 342,-238 354.835,-213.225 378.606,-191.463 396.158,-177.647"/>
<polygon fill="midnightblue" stroke="midnightblue" points="398.363,-180.366 404.2,-171.524 394.123,-174.797 398.363,-180.366"/>
</g>
<!-- Node19 -->
<g id="node19" class="node"><title>Node19</title>
<g id="a_node19"><a xlink:href="struct_x_m_l_node.xhtml#a5e5968e052d58350918cd91e3535624b" target="_top" xlink:title="XMLNode::parseFile">
<polygon fill="white" stroke="black" points="366,-342.5 366,-361.5 472,-361.5 472,-342.5 366,-342.5"/>
<text text-anchor="middle" x="419" y="-349.5" font-family="Helvetica,sans-Serif" font-size="10.00">XMLNode::parseFile</text>
</a>
</g>
</g>
<!-- Node5&#45;&gt;Node19 -->
<g id="edge28" class="edge"><title>Node5&#45;&gt;Node19</title>
<path fill="none" stroke="midnightblue" d="M283.289,-456.442C291.075,-453.907 298.961,-450.79 306,-447 344.818,-426.099 382.293,-390.093 402.531,-368.922"/>
<polygon fill="midnightblue" stroke="midnightblue" points="405.116,-371.282 409.41,-361.596 400.013,-366.49 405.116,-371.282"/>
</g>
<!-- Node27 -->
<g id="node27" class="node"><title>Node27</title>
<g id="a_node27"><a xlink:href="struct_x_m_l_node.xhtml#a4496629c7a268db5435946c7bdd4eb28" target="_top" xlink:title="XMLNode::getError">
<polygon fill="white" stroke="black" points="368.5,-247.5 368.5,-266.5 469.5,-266.5 469.5,-247.5 368.5,-247.5"/>
<text text-anchor="middle" x="419" y="-254.5" font-family="Helvetica,sans-Serif" font-size="10.00">XMLNode::getError</text>
</a>
</g>
</g>
<!-- Node5&#45;&gt;Node27 -->
<g id="edge43" class="edge"><title>Node5&#45;&gt;Node27</title>
<path fill="none" stroke="midnightblue" d="M292.335,-456.415C297.361,-453.951 302.051,-450.865 306,-447 343.972,-409.835 314.426,-378.418 342,-333 356.431,-309.23 379.815,-287.381 396.838,-273.27"/>
<polygon fill="midnightblue" stroke="midnightblue" points="399.489,-275.628 405.079,-266.628 395.097,-270.178 399.489,-275.628"/>
</g>
<!-- Node9 -->
<g id="node9" class="node"><title>Node9</title>
<g id="a_node9"><a xlink:href="_c_d_a_q_2_plugins_2_source_2xml_parser_8cpp.xhtml#ad9a5c911a8e21bb89427d29d33e2797e" target="_top" xlink:title="myIsTextWideChar">
<polygon fill="white" stroke="black" points="539.5,-190.5 539.5,-209.5 640.5,-209.5 640.5,-190.5 539.5,-190.5"/>
<text text-anchor="middle" x="590" y="-197.5" font-family="Helvetica,sans-Serif" font-size="10.00">myIsTextWideChar</text>
</a>
</g>
</g>
<!-- Node8&#45;&gt;Node9 -->
<g id="edge8" class="edge"><title>Node8&#45;&gt;Node9</title>
<path fill="none" stroke="midnightblue" d="M462.646,-171.589C485.148,-176.649 512.948,-182.9 536.738,-188.249"/>
<polygon fill="midnightblue" stroke="midnightblue" points="536.137,-191.701 546.661,-190.48 537.672,-184.871 536.137,-191.701"/>
</g>
<!-- Node10 -->
<g id="node10" class="node"><title>Node10</title>
<g id="a_node10"><a xlink:href="_c_d_a_q_2_plugins_2_source_2xml_parser_8cpp.xhtml#af77e3e2685487b9c492b20c36f3b864a" target="_top" xlink:title="_strnicmp">
<polygon fill="white" stroke="black" points="717.5,-38.5 717.5,-57.5 776.5,-57.5 776.5,-38.5 717.5,-38.5"/>
<text text-anchor="middle" x="747" y="-45.5" font-family="Helvetica,sans-Serif" font-size="10.00">_strnicmp</text>
</a>
</g>
</g>
<!-- Node8&#45;&gt;Node10 -->
<g id="edge27" class="edge"><title>Node8&#45;&gt;Node10</title>
<path fill="none" stroke="midnightblue" d="M447.234,-152.477C505.602,-132.066 642.811,-84.0843 709.002,-60.9378"/>
<polygon fill="midnightblue" stroke="midnightblue" points="710.33,-64.1814 718.614,-57.5766 708.02,-57.5737 710.33,-64.1814"/>
</g>
<!-- Node11 -->
<g id="node11" class="node"><title>Node11</title>
<g id="a_node11"><a xlink:href="_c_d_a_q_2_plugins_2_source_2xml_parser_8cpp.xhtml#ae4635e3ac4b32772021240a9c16864ee" target="_top" xlink:title="mmin">
<polygon fill="white" stroke="black" points="726.5,-0.5 726.5,-19.5 767.5,-19.5 767.5,-0.5 726.5,-0.5"/>
<text text-anchor="middle" x="747" y="-7.5" font-family="Helvetica,sans-Serif" font-size="10.00">mmin</text>
</a>
</g>
</g>
<!-- Node8&#45;&gt;Node11 -->
<g id="edge26" class="edge"><title>Node8&#45;&gt;Node11</title>
<path fill="none" stroke="midnightblue" d="M431.029,-152.283C450.316,-135.706 491.94,-101.748 532,-81 595.401,-48.1635 616.08,-51.0185 684,-29 694.602,-25.5629 706.276,-21.9427 716.608,-18.7951"/>
<polygon fill="midnightblue" stroke="midnightblue" points="717.846,-22.0772 726.403,-15.8292 715.817,-15.3776 717.846,-22.0772"/>
</g>
<!-- Node9&#45;&gt;Node6 -->
<g id="edge19" class="edge"><title>Node9&#45;&gt;Node6</title>
<path fill="none" stroke="midnightblue" d="M599.189,-209.577C614.237,-226.56 648.054,-261.951 684,-281 737.796,-309.509 808.306,-323.188 848.737,-329.092"/>
<polygon fill="midnightblue" stroke="midnightblue" points="848.435,-332.584 858.822,-330.494 849.399,-325.651 848.435,-332.584"/>
</g>
<!-- Node9&#45;&gt;Node10 -->
<g id="edge9" class="edge"><title>Node9&#45;&gt;Node10</title>
<path fill="none" stroke="midnightblue" d="M595.626,-190.186C607.224,-166.567 639.809,-106.007 684,-72 691.035,-66.5864 699.438,-62.2594 707.753,-58.8548"/>
<polygon fill="midnightblue" stroke="midnightblue" points="709.234,-62.0385 717.386,-55.272 706.794,-55.4776 709.234,-62.0385"/>
</g>
<!-- Node9&#45;&gt;Node11 -->
<g id="edge10" class="edge"><title>Node9&#45;&gt;Node11</title>
<path fill="none" stroke="midnightblue" d="M593.492,-190.188C601.409,-161.027 628.781,-74.1142 684,-29 693.211,-21.4743 705.38,-16.9242 716.496,-14.1754"/>
<polygon fill="midnightblue" stroke="midnightblue" points="717.224,-17.5991 726.294,-12.1238 715.789,-10.7477 717.224,-17.5991"/>
</g>
<!-- Node12 -->
<g id="node12" class="node"><title>Node12</title>
<g id="a_node12"><a xlink:href="_c_d_a_q_2_plugins_2_source_2xml_parser_8cpp.xhtml#ad7ec02a171e7641c1d364d5d367199a3" target="_top" xlink:title="myWideCharToMultiByte">
<polygon fill="white" stroke="black" points="684,-228.5 684,-247.5 810,-247.5 810,-228.5 684,-228.5"/>
<text text-anchor="middle" x="747" y="-235.5" font-family="Helvetica,sans-Serif" font-size="10.00">myWideCharToMultiByte</text>
</a>
</g>
</g>
<!-- Node9&#45;&gt;Node12 -->
<g id="edge11" class="edge"><title>Node9&#45;&gt;Node12</title>
<path fill="none" stroke="midnightblue" d="M630.113,-209.589C650.475,-214.581 675.566,-220.732 697.189,-226.033"/>
<polygon fill="midnightblue" stroke="midnightblue" points="696.622,-229.498 707.168,-228.48 698.289,-222.699 696.622,-229.498"/>
</g>
<!-- Node13 -->
<g id="node13" class="node"><title>Node13</title>
<g id="a_node13"><a xlink:href="_c_d_a_q_2_plugins_2_source_2xml_parser_8cpp.xhtml#a73c2349b2f386ee50130a3961bd2dbab" target="_top" xlink:title="xstrcpy">
<polygon fill="white" stroke="black" points="857.5,-152.5 857.5,-171.5 906.5,-171.5 906.5,-152.5 857.5,-152.5"/>
<text text-anchor="middle" x="882" y="-159.5" font-family="Helvetica,sans-Serif" font-size="10.00">xstrcpy</text>
</a>
</g>
</g>
<!-- Node9&#45;&gt;Node13 -->
<g id="edge20" class="edge"><title>Node9&#45;&gt;Node13</title>
<path fill="none" stroke="midnightblue" d="M640.523,-193.511C699.425,-185.793 796.165,-173.116 847.139,-166.437"/>
<polygon fill="midnightblue" stroke="midnightblue" points="847.832,-169.876 857.292,-165.107 846.922,-162.936 847.832,-169.876"/>
</g>
<!-- Node14 -->
<g id="node14" class="node"><title>Node14</title>
<g id="a_node14"><a xlink:href="_c_d_a_q_2_plugins_2_source_2xml_parser_8cpp.xhtml#a2e64ea95685df2d289c31a50419b532d" target="_top" xlink:title="xstricmp">
<polygon fill="white" stroke="black" points="855,-494.5 855,-513.5 909,-513.5 909,-494.5 855,-494.5"/>
<text text-anchor="middle" x="882" y="-501.5" font-family="Helvetica,sans-Serif" font-size="10.00">xstricmp</text>
</a>
</g>
</g>
<!-- Node9&#45;&gt;Node14 -->
<g id="edge21" class="edge"><title>Node9&#45;&gt;Node14</title>
<path fill="none" stroke="midnightblue" d="M598.065,-209.673C613.084,-230.035 649.627,-278.527 684,-316 745.538,-383.087 825.961,-455.619 862.041,-487.447"/>
<polygon fill="midnightblue" stroke="midnightblue" points="860.009,-490.321 869.83,-494.293 864.63,-485.063 860.009,-490.321"/>
</g>
<!-- Node15 -->
<g id="node15" class="node"><title>Node15</title>
<g id="a_node15"><a xlink:href="_c_d_a_q_2_plugins_2_source_2xml_parser_8cpp.xhtml#a49fa66f65d2d28ce7b7e0b1752425915" target="_top" xlink:title="xstrlen">
<polygon fill="white" stroke="black" points="859,-266.5 859,-285.5 905,-285.5 905,-266.5 859,-266.5"/>
<text text-anchor="middle" x="882" y="-273.5" font-family="Helvetica,sans-Serif" font-size="10.00">xstrlen</text>
</a>
</g>
</g>
<!-- Node9&#45;&gt;Node15 -->
<g id="edge22" class="edge"><title>Node9&#45;&gt;Node15</title>
<path fill="none" stroke="midnightblue" d="M602.737,-209.67C619.56,-222.923 652.035,-246.301 684,-257 739.664,-275.632 808.766,-277.858 848.581,-277.277"/>
<polygon fill="midnightblue" stroke="midnightblue" points="848.839,-280.772 858.761,-277.057 848.688,-273.774 848.839,-280.772"/>
</g>
<!-- Node16 -->
<g id="node16" class="node"><title>Node16</title>
<g id="a_node16"><a xlink:href="_c_d_a_q_2_plugins_2_source_2xml_parser_8cpp.xhtml#a3165858f70cd74ffab31ebc2ddc9e104" target="_top" xlink:title="xstrncmp">
<polygon fill="white" stroke="black" points="853.5,-76.5 853.5,-95.5 910.5,-95.5 910.5,-76.5 853.5,-76.5"/>
<text text-anchor="middle" x="882" y="-83.5" font-family="Helvetica,sans-Serif" font-size="10.00">xstrncmp</text>
</a>
</g>
</g>
<!-- Node9&#45;&gt;Node16 -->
<g id="edge23" class="edge"><title>Node9&#45;&gt;Node16</title>
<path fill="none" stroke="midnightblue" d="M602.227,-190.279C618.944,-176.29 651.869,-150.567 684,-136 736.623,-112.142 802.526,-98.3484 843.191,-91.5049"/>
<polygon fill="midnightblue" stroke="midnightblue" points="843.903,-94.9351 853.211,-89.8737 842.778,-88.026 843.903,-94.9351"/>
</g>
<!-- Node17 -->
<g id="node17" class="node"><title>Node17</title>
<g id="a_node17"><a xlink:href="_c_d_a_q_2_plugins_2_source_2xml_parser_8cpp.xhtml#a17c9570640aed10b61deec9047cb0940" target="_top" xlink:title="xstrnicmp">
<polygon fill="white" stroke="black" points="852.5,-209.5 852.5,-228.5 911.5,-228.5 911.5,-209.5 852.5,-209.5"/>
<text text-anchor="middle" x="882" y="-216.5" font-family="Helvetica,sans-Serif" font-size="10.00">xstrnicmp</text>
</a>
</g>
</g>
<!-- Node9&#45;&gt;Node17 -->
<g id="edge24" class="edge"><title>Node9&#45;&gt;Node17</title>
<path fill="none" stroke="midnightblue" d="M640.523,-203.245C697.581,-206.983 790.144,-213.047 842.219,-216.459"/>
<polygon fill="midnightblue" stroke="midnightblue" points="842.173,-219.964 852.381,-217.125 842.631,-212.979 842.173,-219.964"/>
</g>
<!-- Node18 -->
<g id="node18" class="node"><title>Node18</title>
<g id="a_node18"><a xlink:href="_c_d_a_q_2_plugins_2_source_2xml_parser_8cpp.xhtml#a696ca59a310359980c57de039f137697" target="_top" xlink:title="xstrstr">
<polygon fill="white" stroke="black" points="860,-114.5 860,-133.5 904,-133.5 904,-114.5 860,-114.5"/>
<text text-anchor="middle" x="882" y="-121.5" font-family="Helvetica,sans-Serif" font-size="10.00">xstrstr</text>
</a>
</g>
</g>
<!-- Node9&#45;&gt;Node18 -->
<g id="edge25" class="edge"><title>Node9&#45;&gt;Node18</title>
<path fill="none" stroke="midnightblue" d="M617.246,-190.492C635.76,-183.973 661.22,-175.382 684,-169 741.897,-152.779 810.568,-138.108 849.638,-130.182"/>
<polygon fill="midnightblue" stroke="midnightblue" points="850.726,-133.534 859.839,-128.13 849.345,-126.671 850.726,-133.534"/>
</g>
<!-- Node12&#45;&gt;Node6 -->
<g id="edge12" class="edge"><title>Node12&#45;&gt;Node6</title>
<path fill="none" stroke="midnightblue" d="M761.732,-247.809C784.849,-264.321 831.709,-297.792 859.31,-317.507"/>
<polygon fill="midnightblue" stroke="midnightblue" points="857.369,-320.422 867.54,-323.386 861.437,-314.725 857.369,-320.422"/>
</g>
<!-- Node12&#45;&gt;Node13 -->
<g id="edge13" class="edge"><title>Node12&#45;&gt;Node13</title>
<path fill="none" stroke="midnightblue" d="M764.845,-228.375C787.729,-215.297 828.842,-191.804 855.514,-176.563"/>
<polygon fill="midnightblue" stroke="midnightblue" points="857.346,-179.548 864.292,-171.547 853.873,-173.47 857.346,-179.548"/>
</g>
<!-- Node12&#45;&gt;Node14 -->
<g id="edge14" class="edge"><title>Node12&#45;&gt;Node14</title>
<path fill="none" stroke="midnightblue" d="M752.891,-247.783C772.487,-286.974 845.515,-433.03 871.636,-485.271"/>
<polygon fill="midnightblue" stroke="midnightblue" points="868.602,-487.03 876.205,-494.409 874.863,-483.899 868.602,-487.03"/>
</g>
<!-- Node12&#45;&gt;Node15 -->
<g id="edge15" class="edge"><title>Node12&#45;&gt;Node15</title>
<path fill="none" stroke="midnightblue" d="M781.562,-247.589C802.233,-253.495 828.584,-261.024 848.966,-266.847"/>
<polygon fill="midnightblue" stroke="midnightblue" points="848.153,-270.255 858.729,-269.637 850.076,-263.524 848.153,-270.255"/>
</g>
<!-- Node12&#45;&gt;Node16 -->
<g id="edge16" class="edge"><title>Node12&#45;&gt;Node16</title>
<path fill="none" stroke="midnightblue" d="M753.217,-228.176C766.198,-204.464 802.095,-143.241 846,-105 847.525,-103.672 849.158,-102.399 850.856,-101.186"/>
<polygon fill="midnightblue" stroke="midnightblue" points="853.064,-103.932 859.666,-95.646 849.337,-98.0066 853.064,-103.932"/>
</g>
<!-- Node12&#45;&gt;Node17 -->
<g id="edge17" class="edge"><title>Node12&#45;&gt;Node17</title>
<path fill="none" stroke="midnightblue" d="M810.217,-229.112C821.155,-227.549 832.249,-225.964 842.307,-224.528"/>
<polygon fill="midnightblue" stroke="midnightblue" points="842.96,-227.97 852.365,-223.091 841.97,-221.04 842.96,-227.97"/>
</g>
<!-- Node12&#45;&gt;Node18 -->
<g id="edge18" class="edge"><title>Node12&#45;&gt;Node18</title>
<path fill="none" stroke="midnightblue" d="M756.188,-228.491C772.159,-210.322 809.144,-170.076 846,-143 848.048,-141.496 850.229,-140.032 852.463,-138.627"/>
<polygon fill="midnightblue" stroke="midnightblue" points="854.296,-141.61 861.171,-133.549 850.769,-135.564 854.296,-141.61"/>
</g>
<!-- Node19&#45;&gt;Node6 -->
<g id="edge29" class="edge"><title>Node19&#45;&gt;Node6</title>
<path fill="none" stroke="midnightblue" d="M472.434,-349.839C568.45,-345.882 769.867,-337.58 848.538,-334.338"/>
<polygon fill="midnightblue" stroke="midnightblue" points="848.953,-337.824 858.8,-333.915 848.665,-330.83 848.953,-337.824"/>
</g>
<!-- Node19&#45;&gt;Node9 -->
<g id="edge30" class="edge"><title>Node19&#45;&gt;Node9</title>
<path fill="none" stroke="midnightblue" d="M430.572,-342.492C458.669,-317.221 535.462,-248.153 570.783,-216.384"/>
<polygon fill="midnightblue" stroke="midnightblue" points="573.338,-218.794 578.432,-209.505 568.657,-213.59 573.338,-218.794"/>
</g>
<!-- Node19&#45;&gt;Node12 -->
<g id="edge31" class="edge"><title>Node19&#45;&gt;Node12</title>
<path fill="none" stroke="midnightblue" d="M447.234,-342.477C505.602,-322.066 642.811,-274.084 709.002,-250.938"/>
<polygon fill="midnightblue" stroke="midnightblue" points="710.33,-254.181 718.614,-247.577 708.02,-247.574 710.33,-254.181"/>
</g>
<!-- Node20 -->
<g id="node20" class="node"><title>Node20</title>
<g id="a_node20"><a xlink:href="struct_x_m_l_node.xhtml#acb95f4f00e4cf3756aac0e3a53765248" target="_top" xlink:title="XMLNode::parseString">
<polygon fill="white" stroke="black" points="532,-551.5 532,-570.5 648,-570.5 648,-551.5 532,-551.5"/>
<text text-anchor="middle" x="590" y="-558.5" font-family="Helvetica,sans-Serif" font-size="10.00">XMLNode::parseString</text>
</a>
</g>
</g>
<!-- Node19&#45;&gt;Node20 -->
<g id="edge32" class="edge"><title>Node19&#45;&gt;Node20</title>
<path fill="none" stroke="midnightblue" d="M427.701,-361.523C453.985,-394.029 540.425,-500.928 574.759,-543.388"/>
<polygon fill="midnightblue" stroke="midnightblue" points="572.245,-545.845 581.254,-551.421 577.688,-541.444 572.245,-545.845"/>
</g>
<!-- Node20&#45;&gt;Node3 -->
<g id="edge36" class="edge"><title>Node20&#45;&gt;Node3</title>
<path fill="none" stroke="midnightblue" d="M627.311,-570.567C635.001,-574.041 642.457,-578.721 648,-585 687.11,-629.303 642.7,-670.731 684,-713 685.416,-714.449 686.94,-715.789 688.549,-717.027"/>
<polygon fill="midnightblue" stroke="midnightblue" points="686.861,-720.099 697.201,-722.408 690.558,-714.155 686.861,-720.099"/>
</g>
<!-- Node20&#45;&gt;Node14 -->
<g id="edge39" class="edge"><title>Node20&#45;&gt;Node14</title>
<path fill="none" stroke="midnightblue" d="M613.74,-570.548C640.076,-581.568 680.342,-598.281 684,-599 738.95,-609.793 759.933,-624.086 810,-599 841.608,-583.162 862.756,-545.833 873.256,-522.967"/>
<polygon fill="midnightblue" stroke="midnightblue" points="876.548,-524.173 877.331,-513.607 870.13,-521.379 876.548,-524.173"/>
</g>
<!-- Node20&#45;&gt;Node15 -->
<g id="edge38" class="edge"><title>Node20&#45;&gt;Node15</title>
<path fill="none" stroke="midnightblue" d="M600.982,-551.19C643.51,-509.395 809.864,-345.91 863.926,-292.78"/>
<polygon fill="midnightblue" stroke="midnightblue" points="866.38,-295.275 871.06,-285.769 861.474,-290.282 866.38,-295.275"/>
</g>
<!-- Node21 -->
<g id="node21" class="node"><title>Node21</title>
<g id="a_node21"><a xlink:href="struct_x_m_l_node.xhtml#a8e52198f258167cd796dae21f1ffc352" target="_top" xlink:title="XMLNode::nChildNode">
<polygon fill="white" stroke="black" points="688.5,-646.5 688.5,-665.5 805.5,-665.5 805.5,-646.5 688.5,-646.5"/>
<text text-anchor="middle" x="747" y="-653.5" font-family="Helvetica,sans-Serif" font-size="10.00">XMLNode::nChildNode</text>
</a>
</g>
</g>
<!-- Node20&#45;&gt;Node21 -->
<g id="edge33" class="edge"><title>Node20&#45;&gt;Node21</title>
<path fill="none" stroke="midnightblue" d="M621.877,-570.613C630.831,-574.267 640.268,-579.026 648,-585 668.821,-601.088 662.946,-616.218 684,-632 689.461,-636.093 695.706,-639.576 702.082,-642.512"/>
<polygon fill="midnightblue" stroke="midnightblue" points="700.866,-645.797 711.442,-646.429 703.569,-639.34 700.866,-645.797"/>
</g>
<!-- Node22 -->
<g id="node22" class="node"><title>Node22</title>
<g id="a_node22"><a xlink:href="struct_x_m_l_node.xhtml#a8e9538deb9144dcab39b3a510a8202f1" target="_top" xlink:title="XMLNode::nElement">
<polygon fill="white" stroke="black" points="693.5,-570.5 693.5,-589.5 800.5,-589.5 800.5,-570.5 693.5,-570.5"/>
<text text-anchor="middle" x="747" y="-577.5" font-family="Helvetica,sans-Serif" font-size="10.00">XMLNode::nElement</text>
</a>
</g>
</g>
<!-- Node20&#45;&gt;Node22 -->
<g id="edge35" class="edge"><title>Node20&#45;&gt;Node22</title>
<path fill="none" stroke="midnightblue" d="M648.276,-568.021C659.682,-569.419 671.715,-570.894 683.292,-572.313"/>
<polygon fill="midnightblue" stroke="midnightblue" points="682.969,-575.8 693.32,-573.543 683.821,-568.852 682.969,-575.8"/>
</g>
<!-- Node23 -->
<g id="node23" class="node"><title>Node23</title>
<g id="a_node23"><a xlink:href="struct_x_m_l_node.xhtml#a7e07715aa0ed894da96bd66c90d423f0" target="_top" xlink:title="XMLNode::getName">
<polygon fill="white" stroke="black" points="694,-532.5 694,-551.5 800,-551.5 800,-532.5 694,-532.5"/>
<text text-anchor="middle" x="747" y="-539.5" font-family="Helvetica,sans-Serif" font-size="10.00">XMLNode::getName</text>
</a>
</g>
</g>
<!-- Node20&#45;&gt;Node23 -->
<g id="edge37" class="edge"><title>Node20&#45;&gt;Node23</title>
<path fill="none" stroke="midnightblue" d="M648.276,-553.979C659.815,-552.565 671.997,-551.071 683.698,-549.637"/>
<polygon fill="midnightblue" stroke="midnightblue" points="684.329,-553.086 693.829,-548.395 683.477,-546.138 684.329,-553.086"/>
</g>
<!-- Node24 -->
<g id="node24" class="node"><title>Node24</title>
<g id="a_node24"><a xlink:href="struct_x_m_l_node.xhtml#a71df27d54a2dc09b0a456406a7e8c6d3" target="_top" xlink:title="XMLNode::isDeclaration">
<polygon fill="white" stroke="black" points="685.5,-494.5 685.5,-513.5 808.5,-513.5 808.5,-494.5 685.5,-494.5"/>
<text text-anchor="middle" x="747" y="-501.5" font-family="Helvetica,sans-Serif" font-size="10.00">XMLNode::isDeclaration</text>
</a>
</g>
</g>
<!-- Node20&#45;&gt;Node24 -->
<g id="edge40" class="edge"><title>Node20&#45;&gt;Node24</title>
<path fill="none" stroke="midnightblue" d="M612.955,-551.371C631.665,-543.325 659.358,-531.79 684,-523 690.124,-520.816 696.639,-518.65 703.059,-516.606"/>
<polygon fill="midnightblue" stroke="midnightblue" points="704.492,-519.825 712.998,-513.508 702.409,-513.142 704.492,-519.825"/>
</g>
<!-- Node25 -->
<g id="node25" class="node"><title>Node25</title>
<g id="a_node25"><a xlink:href="_c_d_a_q_2_plugins_2_source_2xml_parser_8cpp.xhtml#ae6aa5a367ab3cc92b47fd92f81add72a" target="_top" xlink:title="CountLinesAndColumns">
<polygon fill="white" stroke="black" points="686,-684.5 686,-703.5 808,-703.5 808,-684.5 686,-684.5"/>
<text text-anchor="middle" x="747" y="-691.5" font-family="Helvetica,sans-Serif" font-size="10.00">CountLinesAndColumns</text>
</a>
</g>
</g>
<!-- Node20&#45;&gt;Node25 -->
<g id="edge41" class="edge"><title>Node20&#45;&gt;Node25</title>
<path fill="none" stroke="midnightblue" d="M625.948,-570.614C633.962,-574.114 641.906,-578.795 648,-585 678.187,-615.736 652.297,-645.829 684,-675 685.716,-676.579 687.561,-678.028 689.502,-679.355"/>
<polygon fill="midnightblue" stroke="midnightblue" points="688.099,-682.582 698.53,-684.441 691.535,-676.483 688.099,-682.582"/>
</g>
<!-- Node21&#45;&gt;Node14 -->
<g id="edge34" class="edge"><title>Node21&#45;&gt;Node14</title>
<path fill="none" stroke="midnightblue" d="M785.103,-646.428C793.939,-642.915 802.865,-638.218 810,-632 844.332,-602.079 865.391,-551.322 874.935,-523.565"/>
<polygon fill="midnightblue" stroke="midnightblue" points="878.337,-524.422 878.131,-513.829 871.686,-522.238 878.337,-524.422"/>
</g>
<!-- Node26 -->
<g id="node26" class="node"><title>Node26</title>
<g id="a_node26"><a xlink:href="_c_d_a_q_2_plugins_2_source_2xml_parser_8cpp.xhtml#af03c1c87ed4ddb95f7b49d53d9117c53" target="_top" xlink:title="getNextChar">
<polygon fill="white" stroke="black" points="846,-684.5 846,-703.5 918,-703.5 918,-684.5 846,-684.5"/>
<text text-anchor="middle" x="882" y="-691.5" font-family="Helvetica,sans-Serif" font-size="10.00">getNextChar</text>
</a>
</g>
</g>
<!-- Node25&#45;&gt;Node26 -->
<g id="edge42" class="edge"><title>Node25&#45;&gt;Node26</title>
<path fill="none" stroke="midnightblue" d="M808.274,-694C817.462,-694 826.811,-694 835.609,-694"/>
<polygon fill="midnightblue" stroke="midnightblue" points="835.642,-697.5 845.642,-694 835.642,-690.5 835.642,-697.5"/>
</g>
<!-- Node27&#45;&gt;Node9 -->
<g id="edge44" class="edge"><title>Node27&#45;&gt;Node9</title>
<path fill="none" stroke="midnightblue" d="M448.287,-247.459C476.437,-237.965 519.819,-223.333 550.971,-212.826"/>
<polygon fill="midnightblue" stroke="midnightblue" points="552.264,-216.084 560.621,-209.572 550.027,-209.451 552.264,-216.084"/>
</g>
</g>
</svg>
