<?xml version="1.0" encoding="UTF-8" standalone="no"?>
<!DOCTYPE svg PUBLIC "-//W3C//DTD SVG 1.1//EN"
 "http://www.w3.org/Graphics/SVG/1.1/DTD/svg11.dtd">
<!-- Generated by graphviz version 2.36.0 (20140111.2315)
 -->
<!-- Title: ADCManager::CalculateBaseLine Pages: 1 -->
<!--zoomable 191 -->
<svg id="main" version="1.1" xmlns="http://www.w3.org/2000/svg" xmlns:xlink="http://www.w3.org/1999/xlink" xml:space="preserve" onload="init(evt)">
<style type="text/css"><![CDATA[
.edge:hover path { stroke: red; }
.edge:hover polygon { stroke: red; fill: red; }
]]></style>
<script type="text/javascript"><![CDATA[
var edges = document.getElementsByTagName('g');
if (edges && edges.length) {
  for (var i=0;i<edges.length;i++) {
    if (edges[i].id.substr(0,4)=='edge') {
      edges[i].setAttribute('class','edge');
    }
  }
}
]]></script>
        <defs>
                <circle id="rim" cx="0" cy="0" r="7"/>
                <circle id="rim2" cx="0" cy="0" r="3.5"/>
                <g id="zoomPlus">
                        <use xlink:href="#rim" fill="#404040">
                                <set attributeName="fill" to="#808080" begin="zoomplus.mouseover" end="zoomplus.mouseout"/>
                        </use>
                        <path d="M-4,0h8M0,-4v8" fill="none" stroke="white" stroke-width="1.5" pointer-events="none"/>
                </g>
                <g id="zoomMin">
                        <use xlink:href="#rim" fill="#404040">
                                <set attributeName="fill" to="#808080" begin="zoomminus.mouseover" end="zoomminus.mouseout"/>
                        </use>
                        <path d="M-4,0h8" fill="none" stroke="white" stroke-width="1.5" pointer-events="none"/>
                </g>
                <g id="dirArrow">
                        <path fill="none" stroke="white" stroke-width="1.5" d="M0,-3.0v7 M-2.5,-0.5L0,-3.0L2.5,-0.5"/>
                </g>
               <g id="resetDef">
                       <use xlink:href="#rim2" fill="#404040">
                               <set attributeName="fill" to="#808080" begin="reset.mouseover" end="reset.mouseout"/>
                       </use>
               </g>
        </defs>

<script type="text/javascript">
var viewWidth = 528;
var viewHeight = 191;
var sectionId = 'dynsection-7';
</script>
<script xlink:href="svgpan.js"/>
<svg id="graph" class="graph">
<g id="viewport">
<title>ADCManager::CalculateBaseLine</title>
<polygon fill="white" stroke="none" points="-4,4 -4,-187 524,-187 524,4 -4,4"/>
<!-- Node1 -->
<g id="node1" class="node"><title>Node1</title>
<polygon fill="#bfbfbf" stroke="black" points="0,-87.5 0,-106.5 164,-106.5 164,-87.5 0,-87.5"/>
<text text-anchor="middle" x="82" y="-94.5" font-family="Helvetica,sans-Serif" font-size="10.00">ADCManager::CalculateBaseLine</text>
</g>
<!-- Node2 -->
<g id="node2" class="node"><title>Node2</title>
<g id="a_node2"><a xlink:href="class_a_d_c_manager.xhtml#adc849df09611badc183129d26187bc74" target="_top" xlink:title="ADCManager::adc_readreg">
<polygon fill="white" stroke="black" points="205.5,-163.5 205.5,-182.5 340.5,-182.5 340.5,-163.5 205.5,-163.5"/>
<text text-anchor="middle" x="273" y="-170.5" font-family="Helvetica,sans-Serif" font-size="10.00">ADCManager::adc_readreg</text>
</a>
</g>
</g>
<!-- Node1&#45;&gt;Node2 -->
<g id="edge1" class="edge"><title>Node1&#45;&gt;Node2</title>
<path fill="none" stroke="midnightblue" d="M103.042,-106.618C126.146,-117.538 165.391,-135.577 200,-149 210.147,-152.936 221.242,-156.83 231.617,-160.3"/>
<polygon fill="midnightblue" stroke="midnightblue" points="230.696,-163.682 241.289,-163.485 232.885,-157.033 230.696,-163.682"/>
</g>
<!-- Node3 -->
<g id="node3" class="node"><title>Node3</title>
<g id="a_node3"><a xlink:href="class_a_d_c_manager.xhtml#ac6c08ec08e60b52125f463422f0abdf2" target="_top" xlink:title="ADCManager::adc_writereg">
<polygon fill="white" stroke="black" points="382.5,-68.5 382.5,-87.5 519.5,-87.5 519.5,-68.5 382.5,-68.5"/>
<text text-anchor="middle" x="451" y="-75.5" font-family="Helvetica,sans-Serif" font-size="10.00">ADCManager::adc_writereg</text>
</a>
</g>
</g>
<!-- Node1&#45;&gt;Node3 -->
<g id="edge2" class="edge"><title>Node1&#45;&gt;Node3</title>
<path fill="none" stroke="midnightblue" d="M126.155,-106.584C178.535,-116.733 269.367,-129.562 346,-116 372.19,-111.365 400.449,-100.64 420.891,-91.7622"/>
<polygon fill="midnightblue" stroke="midnightblue" points="422.546,-94.8561 430.254,-87.587 419.696,-88.4629 422.546,-94.8561"/>
</g>
<!-- Node4 -->
<g id="node4" class="node"><title>Node4</title>
<g id="a_node4"><a xlink:href="class_a_d_c_manager.xhtml#a100d37f7db5f56057b31ab77fdc83238" target="_top" xlink:title="ADCManager::ApplySoftware\lTrigger">
<polygon fill="white" stroke="black" points="200,-0 200,-30 346,-30 346,-0 200,-0"/>
<text text-anchor="start" x="208" y="-18" font-family="Helvetica,sans-Serif" font-size="10.00">ADCManager::ApplySoftware</text>
<text text-anchor="middle" x="273" y="-7" font-family="Helvetica,sans-Serif" font-size="10.00">Trigger</text>
</a>
</g>
</g>
<!-- Node1&#45;&gt;Node4 -->
<g id="edge3" class="edge"><title>Node1&#45;&gt;Node4</title>
<path fill="none" stroke="midnightblue" d="M100.932,-87.4326C123.632,-75.5158 164.111,-54.9106 200,-40 205.323,-37.7884 210.919,-35.6056 216.542,-33.5058"/>
<polygon fill="midnightblue" stroke="midnightblue" points="217.791,-36.7759 225.985,-30.0599 215.391,-30.2 217.791,-36.7759"/>
</g>
<!-- Node6 -->
<g id="node6" class="node"><title>Node6</title>
<g id="a_node6"><a xlink:href="class_a_d_c_manager.xhtml#a5b1f8aac9d8552b1bc42ed17b1442688" target="_top" xlink:title="ADCManager::Disable">
<polygon fill="white" stroke="black" points="215.5,-87.5 215.5,-106.5 330.5,-106.5 330.5,-87.5 215.5,-87.5"/>
<text text-anchor="middle" x="273" y="-94.5" font-family="Helvetica,sans-Serif" font-size="10.00">ADCManager::Disable</text>
</a>
</g>
</g>
<!-- Node1&#45;&gt;Node6 -->
<g id="edge6" class="edge"><title>Node1&#45;&gt;Node6</title>
<path fill="none" stroke="midnightblue" d="M164.25,-97C177.828,-97 191.779,-97 204.951,-97"/>
<polygon fill="midnightblue" stroke="midnightblue" points="205.326,-100.5 215.326,-97 205.326,-93.5001 205.326,-100.5"/>
</g>
<!-- Node7 -->
<g id="node7" class="node"><title>Node7</title>
<g id="a_node7"><a xlink:href="class_a_d_c_manager.xhtml#a8719c7eb8b3adf2ec42cc64c270a00c3" target="_top" xlink:title="ADCManager::Enable">
<polygon fill="white" stroke="black" points="217,-49.5 217,-68.5 329,-68.5 329,-49.5 217,-49.5"/>
<text text-anchor="middle" x="273" y="-56.5" font-family="Helvetica,sans-Serif" font-size="10.00">ADCManager::Enable</text>
</a>
</g>
</g>
<!-- Node1&#45;&gt;Node7 -->
<g id="edge8" class="edge"><title>Node1&#45;&gt;Node7</title>
<path fill="none" stroke="midnightblue" d="M130.693,-87.411C156.195,-82.2835 187.782,-75.9328 214.62,-70.5368"/>
<polygon fill="midnightblue" stroke="midnightblue" points="215.536,-73.9226 224.65,-68.5201 214.157,-67.0599 215.536,-73.9226"/>
</g>
<!-- Node4&#45;&gt;Node3 -->
<g id="edge5" class="edge"><title>Node4&#45;&gt;Node3</title>
<path fill="none" stroke="midnightblue" d="M317.826,-30.0911C327.136,-33.3323 336.901,-36.7582 346,-40 368.772,-48.113 394.267,-57.4249 414.315,-64.8001"/>
<polygon fill="midnightblue" stroke="midnightblue" points="413.377,-68.1845 423.97,-68.3573 415.797,-61.6161 413.377,-68.1845"/>
</g>
<!-- Node5 -->
<g id="node5" class="node"><title>Node5</title>
<g id="a_node5"><a xlink:href="class_a_d_c_manager.xhtml#a78f606243a80046c92271de226c3f4ad" target="_top" xlink:title="ADCManager::adc_readblt">
<polygon fill="white" stroke="black" points="385,-5.5 385,-24.5 517,-24.5 517,-5.5 385,-5.5"/>
<text text-anchor="middle" x="451" y="-12.5" font-family="Helvetica,sans-Serif" font-size="10.00">ADCManager::adc_readblt</text>
</a>
</g>
</g>
<!-- Node4&#45;&gt;Node5 -->
<g id="edge4" class="edge"><title>Node4&#45;&gt;Node5</title>
<path fill="none" stroke="midnightblue" d="M346.094,-15C355.505,-15 365.168,-15 374.632,-15"/>
<polygon fill="midnightblue" stroke="midnightblue" points="374.801,-18.5001 384.801,-15 374.801,-11.5001 374.801,-18.5001"/>
</g>
<!-- Node6&#45;&gt;Node3 -->
<g id="edge7" class="edge"><title>Node6&#45;&gt;Node3</title>
<path fill="none" stroke="midnightblue" d="M330.656,-90.8837C343.918,-89.4521 358.272,-87.9025 372.274,-86.3909"/>
<polygon fill="midnightblue" stroke="midnightblue" points="372.82,-89.8524 382.386,-85.2992 372.068,-82.8928 372.82,-89.8524"/>
</g>
<!-- Node7&#45;&gt;Node3 -->
<g id="edge9" class="edge"><title>Node7&#45;&gt;Node3</title>
<path fill="none" stroke="midnightblue" d="M329.205,-64.9596C342.883,-66.4363 357.796,-68.0461 372.327,-69.6149"/>
<polygon fill="midnightblue" stroke="midnightblue" points="371.989,-73.0986 382.307,-70.6922 372.74,-66.139 371.989,-73.0986"/>
</g>
</g>
</svg>
        <g id="navigator" transform="translate(0 0)" fill="#404254">
                <rect fill="#f2f5e9" fill-opacity="0.5" stroke="#606060" stroke-width=".5" x="0" y="0" width="60" height="60"/>
                <use id="zoomplus" xlink:href="#zoomPlus" x="17" y="9" onmousedown="handleZoom(evt,'in')"/>
                <use id="zoomminus" xlink:href="#zoomMin" x="42" y="9" onmousedown="handleZoom(evt,'out')"/>
                <use id="reset" xlink:href="#resetDef" x="30" y="36" onmousedown="handleReset()"/>
                <g id="arrowUp" xlink:href="#dirArrow" transform="translate(30 24)" onmousedown="handlePan(0,-1)">
                  <use xlink:href="#rim" fill="#404040">
                        <set attributeName="fill" to="#808080" begin="arrowUp.mouseover" end="arrowUp.mouseout"/>
                  </use>
                  <path fill="none" stroke="white" stroke-width="1.5" d="M0,-3.0v7 M-2.5,-0.5L0,-3.0L2.5,-0.5"/>
                </g>
                <g id="arrowRight" xlink:href="#dirArrow" transform="rotate(90) translate(36 -43)" onmousedown="handlePan(1,0)">
                  <use xlink:href="#rim" fill="#404040">
                        <set attributeName="fill" to="#808080" begin="arrowRight.mouseover" end="arrowRight.mouseout"/>
                  </use>
                  <path fill="none" stroke="white" stroke-width="1.5" d="M0,-3.0v7 M-2.5,-0.5L0,-3.0L2.5,-0.5"/>
                </g>
                <g id="arrowDown" xlink:href="#dirArrow" transform="rotate(180) translate(-30 -48)" onmousedown="handlePan(0,1)">
                  <use xlink:href="#rim" fill="#404040">
                        <set attributeName="fill" to="#808080" begin="arrowDown.mouseover" end="arrowDown.mouseout"/>
                  </use>
                  <path fill="none" stroke="white" stroke-width="1.5" d="M0,-3.0v7 M-2.5,-0.5L0,-3.0L2.5,-0.5"/>
                </g>
                <g id="arrowLeft" xlink:href="#dirArrow" transform="rotate(270) translate(-36 17)" onmousedown="handlePan(-1,0)">
                  <use xlink:href="#rim" fill="#404040">
                        <set attributeName="fill" to="#808080" begin="arrowLeft.mouseover" end="arrowLeft.mouseout"/>
                  </use>
                  <path fill="none" stroke="white" stroke-width="1.5" d="M0,-3.0v7 M-2.5,-0.5L0,-3.0L2.5,-0.5"/>
                </g>
        </g>
        <svg viewBox="0 0 15 15" width="100%" height="30px" preserveAspectRatio="xMaxYMin meet">
         <g id="arrow_out" transform="scale(0.3 0.3)">
          <a xlink:href="class_a_d_c_manager_a6284754ca6f683aaf3db3da92179aab2_cgraph_org.svg" target="_base">
           <rect id="button" ry="5" rx="5" y="6" x="6" height="38" width="38"
                fill="#f2f5e9" fill-opacity="0.5" stroke="#606060" stroke-width="1.0"/>
           <path id="arrow"
             d="M 11.500037,31.436501 C 11.940474,20.09759 22.043105,11.32322 32.158766,21.979434 L 37.068811,17.246167 C 37.068811,17.246167 37.088388,32 37.088388,32 L 22.160133,31.978069 C 22.160133,31.978069 26.997745,27.140456 26.997745,27.140456 C 18.528582,18.264221 13.291696,25.230495 11.500037,31.436501 z"
             style="fill:#404040;"/>
          </a>
         </g>
        </svg>
</svg>
