<?xml version="1.0" encoding="UTF-8" standalone="no"?>
<!DOCTYPE svg PUBLIC "-//W3C//DTD SVG 1.1//EN"
 "http://www.w3.org/Graphics/SVG/1.1/DTD/svg11.dtd">
<!-- Generated by graphviz version 2.36.0 (20140111.2315)
 -->
<!-- Title: DRSBoard::GetCalibrationDirectory Pages: 1 -->
<svg width="284pt" height="185pt"
 viewBox="0.00 0.00 284.00 185.00" xmlns="http://www.w3.org/2000/svg" xmlns:xlink="http://www.w3.org/1999/xlink">
<g id="graph0" class="graph" transform="scale(1 1) rotate(0) translate(4 181)">
<title>DRSBoard::GetCalibrationDirectory</title>
<polygon fill="white" stroke="none" points="-4,4 -4,-181 280,-181 280,4 -4,4"/>
<!-- Node1 -->
<g id="node1" class="node"><title>Node1</title>
<polygon fill="#bfbfbf" stroke="black" points="0,-73 0,-103 132,-103 132,-73 0,-73"/>
<text text-anchor="start" x="8" y="-91" font-family="Helvetica,sans-Serif" font-size="10.00">DRSBoard::GetCalibration</text>
<text text-anchor="middle" x="66" y="-80" font-family="Helvetica,sans-Serif" font-size="10.00">Directory</text>
</g>
<!-- Node2 -->
<g id="node2" class="node"><title>Node2</title>
<g id="a_node2"><a xlink:href="class_response_calibration.xhtml#a42aae8f641a6c12c6866c76a151767dc" target="_top" xlink:title="ResponseCalibration\l::ReadCalibrationV3">
<polygon fill="white" stroke="black" points="168.5,-147 168.5,-177 275.5,-177 275.5,-147 168.5,-147"/>
<text text-anchor="start" x="176.5" y="-165" font-family="Helvetica,sans-Serif" font-size="10.00">ResponseCalibration</text>
<text text-anchor="middle" x="222" y="-154" font-family="Helvetica,sans-Serif" font-size="10.00">::ReadCalibrationV3</text>
</a>
</g>
</g>
<!-- Node1&#45;&gt;Node2 -->
<g id="edge1" class="edge"><title>Node1&#45;&gt;Node2</title>
<path fill="none" stroke="midnightblue" d="M106.945,-107.504C125.49,-116.526 147.846,-127.358 168,-137 174.791,-140.249 182.085,-143.709 189.023,-146.986"/>
<polygon fill="midnightblue" stroke="midnightblue" points="108.424,-104.331 97.9005,-103.1 105.359,-110.624 108.424,-104.331"/>
</g>
<!-- Node3 -->
<g id="node3" class="node"><title>Node3</title>
<g id="a_node3"><a xlink:href="class_response_calibration.xhtml#a2e17dc6f1ba961b5f2ce626c08277155" target="_top" xlink:title="ResponseCalibration\l::ReadCalibrationV4">
<polygon fill="white" stroke="black" points="168.5,-98 168.5,-128 275.5,-128 275.5,-98 168.5,-98"/>
<text text-anchor="start" x="176.5" y="-116" font-family="Helvetica,sans-Serif" font-size="10.00">ResponseCalibration</text>
<text text-anchor="middle" x="222" y="-105" font-family="Helvetica,sans-Serif" font-size="10.00">::ReadCalibrationV4</text>
</a>
</g>
</g>
<!-- Node1&#45;&gt;Node3 -->
<g id="edge2" class="edge"><title>Node1&#45;&gt;Node3</title>
<path fill="none" stroke="midnightblue" d="M142.19,-100.206C150.975,-101.632 159.791,-103.063 168.18,-104.425"/>
<polygon fill="midnightblue" stroke="midnightblue" points="142.742,-96.75 132.31,-98.6023 141.62,-103.66 142.742,-96.75"/>
</g>
<!-- Node4 -->
<g id="node4" class="node"><title>Node4</title>
<g id="a_node4"><a xlink:href="class_response_calibration.xhtml#a41b50602ac62ccff04c0629d06f75319" target="_top" xlink:title="ResponseCalibration\l::WriteCalibrationV3">
<polygon fill="white" stroke="black" points="168.5,-49 168.5,-79 275.5,-79 275.5,-49 168.5,-49"/>
<text text-anchor="start" x="176.5" y="-67" font-family="Helvetica,sans-Serif" font-size="10.00">ResponseCalibration</text>
<text text-anchor="middle" x="222" y="-56" font-family="Helvetica,sans-Serif" font-size="10.00">::WriteCalibrationV3</text>
</a>
</g>
</g>
<!-- Node1&#45;&gt;Node4 -->
<g id="edge3" class="edge"><title>Node1&#45;&gt;Node4</title>
<path fill="none" stroke="midnightblue" d="M142.474,-76.2379C151.164,-74.8835 159.881,-73.5251 168.18,-72.2316"/>
<polygon fill="midnightblue" stroke="midnightblue" points="141.652,-72.8236 132.31,-77.8218 142.73,-79.7402 141.652,-72.8236"/>
</g>
<!-- Node5 -->
<g id="node5" class="node"><title>Node5</title>
<g id="a_node5"><a xlink:href="class_response_calibration.xhtml#a7bd46c76810988350d28ddc0e70972c6" target="_top" xlink:title="ResponseCalibration\l::WriteCalibrationV4">
<polygon fill="white" stroke="black" points="168.5,-0 168.5,-30 275.5,-30 275.5,-0 168.5,-0"/>
<text text-anchor="start" x="176.5" y="-18" font-family="Helvetica,sans-Serif" font-size="10.00">ResponseCalibration</text>
<text text-anchor="middle" x="222" y="-7" font-family="Helvetica,sans-Serif" font-size="10.00">::WriteCalibrationV4</text>
</a>
</g>
</g>
<!-- Node1&#45;&gt;Node5 -->
<g id="edge4" class="edge"><title>Node1&#45;&gt;Node5</title>
<path fill="none" stroke="midnightblue" d="M108.066,-68.4504C126.401,-59.7306 148.276,-49.3386 168,-40 174.804,-36.7783 182.103,-33.3303 189.043,-30.0559"/>
<polygon fill="midnightblue" stroke="midnightblue" points="106.358,-65.3871 98.831,-72.8434 109.365,-71.7083 106.358,-65.3871"/>
</g>
</g>
</svg>
