<?xml version="1.0" encoding="UTF-8" standalone="no"?>
<!DOCTYPE svg PUBLIC "-//W3C//DTD SVG 1.1//EN"
 "http://www.w3.org/Graphics/SVG/1.1/DTD/svg11.dtd">
<!-- Generated by graphviz version 2.36.0 (20140111.2315)
 -->
<!-- Title: DRSBoard::GetDRSType Pages: 1 -->
<svg width="302pt" height="430pt"
 viewBox="0.00 0.00 302.00 430.00" xmlns="http://www.w3.org/2000/svg" xmlns:xlink="http://www.w3.org/1999/xlink">
<g id="graph0" class="graph" transform="scale(1 1) rotate(0) translate(4 426)">
<title>DRSBoard::GetDRSType</title>
<polygon fill="white" stroke="none" points="-4,4 -4,-426 298,-426 298,4 -4,4"/>
<!-- Node1 -->
<g id="node1" class="node"><title>Node1</title>
<polygon fill="#bfbfbf" stroke="black" points="0.5,-201.5 0.5,-220.5 129.5,-220.5 129.5,-201.5 0.5,-201.5"/>
<text text-anchor="middle" x="65" y="-208.5" font-family="Helvetica,sans-Serif" font-size="10.00">DRSBoard::GetDRSType</text>
</g>
<!-- Node2 -->
<g id="node2" class="node"><title>Node2</title>
<g id="a_node2"><a xlink:href="class_response_calibration.xhtml#af568442b7e05154b10d1479e5b657df9" target="_top" xlink:title="ResponseCalibration\l::Calibrate">
<polygon fill="white" stroke="black" points="176.5,-392 176.5,-422 283.5,-422 283.5,-392 176.5,-392"/>
<text text-anchor="start" x="184.5" y="-410" font-family="Helvetica,sans-Serif" font-size="10.00">ResponseCalibration</text>
<text text-anchor="middle" x="230" y="-399" font-family="Helvetica,sans-Serif" font-size="10.00">::Calibrate</text>
</a>
</g>
</g>
<!-- Node1&#45;&gt;Node2 -->
<g id="edge1" class="edge"><title>Node1&#45;&gt;Node2</title>
<path fill="none" stroke="midnightblue" d="M72.3866,-230.076C84.96,-264.907 116.115,-339.149 166,-382 170.463,-385.834 175.586,-389.124 180.941,-391.936"/>
<polygon fill="midnightblue" stroke="midnightblue" points="75.6823,-228.897 69.0809,-220.611 69.0737,-231.205 75.6823,-228.897"/>
</g>
<!-- Node3 -->
<g id="node3" class="node"><title>Node3</title>
<g id="a_node3"><a xlink:href="class_response_calibration.xhtml#a018d31bf8aaf11e782462410d0c5edd6" target="_top" xlink:title="ResponseCalibration\l::FitCalibrationPoints">
<polygon fill="white" stroke="black" points="176,-343 176,-373 284,-373 284,-343 176,-343"/>
<text text-anchor="start" x="184" y="-361" font-family="Helvetica,sans-Serif" font-size="10.00">ResponseCalibration</text>
<text text-anchor="middle" x="230" y="-350" font-family="Helvetica,sans-Serif" font-size="10.00">::FitCalibrationPoints</text>
</a>
</g>
</g>
<!-- Node1&#45;&gt;Node3 -->
<g id="edge2" class="edge"><title>Node1&#45;&gt;Node3</title>
<path fill="none" stroke="midnightblue" d="M76.7084,-229.225C92.9625,-255.469 126.217,-303.934 166,-333 171.131,-336.749 176.9,-340.028 182.811,-342.87"/>
<polygon fill="midnightblue" stroke="midnightblue" points="79.6826,-227.379 71.5087,-220.639 73.695,-231.005 79.6826,-227.379"/>
</g>
<!-- Node4 -->
<g id="node4" class="node"><title>Node4</title>
<g id="a_node4"><a xlink:href="class_response_calibration.xhtml#a0b30209e8c276dc2b70e10e7e3284a45" target="_top" xlink:title="ResponseCalibration\l::OffsetCalibration">
<polygon fill="white" stroke="black" points="176.5,-294 176.5,-324 283.5,-324 283.5,-294 176.5,-294"/>
<text text-anchor="start" x="184.5" y="-312" font-family="Helvetica,sans-Serif" font-size="10.00">ResponseCalibration</text>
<text text-anchor="middle" x="230" y="-301" font-family="Helvetica,sans-Serif" font-size="10.00">::OffsetCalibration</text>
</a>
</g>
</g>
<!-- Node1&#45;&gt;Node4 -->
<g id="edge3" class="edge"><title>Node1&#45;&gt;Node4</title>
<path fill="none" stroke="midnightblue" d="M84.8346,-227.005C104.242,-242.938 135.835,-267.357 166,-284 172.491,-287.581 179.603,-290.914 186.636,-293.903"/>
<polygon fill="midnightblue" stroke="midnightblue" points="86.9897,-224.245 77.0633,-220.541 82.5136,-229.627 86.9897,-224.245"/>
</g>
<!-- Node5 -->
<g id="node5" class="node"><title>Node5</title>
<g id="a_node5"><a xlink:href="class_response_calibration.xhtml#a5e4e3d280ffadb1ae8268e5443bc6939" target="_top" xlink:title="ResponseCalibration\l::ReadCalibration">
<polygon fill="white" stroke="black" points="176.5,-245 176.5,-275 283.5,-275 283.5,-245 176.5,-245"/>
<text text-anchor="start" x="184.5" y="-263" font-family="Helvetica,sans-Serif" font-size="10.00">ResponseCalibration</text>
<text text-anchor="middle" x="230" y="-252" font-family="Helvetica,sans-Serif" font-size="10.00">::ReadCalibration</text>
</a>
</g>
</g>
<!-- Node1&#45;&gt;Node5 -->
<g id="edge4" class="edge"><title>Node1&#45;&gt;Node5</title>
<path fill="none" stroke="midnightblue" d="M107.429,-223.454C129.202,-229.999 156.054,-238.071 178.979,-244.963"/>
<polygon fill="midnightblue" stroke="midnightblue" points="108.399,-220.091 97.815,-220.564 106.384,-226.795 108.399,-220.091"/>
</g>
<!-- Node6 -->
<g id="node6" class="node"><title>Node6</title>
<g id="a_node6"><a xlink:href="class_response_calibration.xhtml#a42aae8f641a6c12c6866c76a151767dc" target="_top" xlink:title="ResponseCalibration\l::ReadCalibrationV3">
<polygon fill="white" stroke="black" points="176.5,-196 176.5,-226 283.5,-226 283.5,-196 176.5,-196"/>
<text text-anchor="start" x="184.5" y="-214" font-family="Helvetica,sans-Serif" font-size="10.00">ResponseCalibration</text>
<text text-anchor="middle" x="230" y="-203" font-family="Helvetica,sans-Serif" font-size="10.00">::ReadCalibrationV3</text>
</a>
</g>
</g>
<!-- Node1&#45;&gt;Node6 -->
<g id="edge5" class="edge"><title>Node1&#45;&gt;Node6</title>
<path fill="none" stroke="midnightblue" d="M140.122,-211C152.318,-211 164.736,-211 176.272,-211"/>
<polygon fill="midnightblue" stroke="midnightblue" points="139.954,-207.5 129.954,-211 139.954,-214.5 139.954,-207.5"/>
</g>
<!-- Node7 -->
<g id="node7" class="node"><title>Node7</title>
<g id="a_node7"><a xlink:href="class_response_calibration.xhtml#a2e17dc6f1ba961b5f2ce626c08277155" target="_top" xlink:title="ResponseCalibration\l::ReadCalibrationV4">
<polygon fill="white" stroke="black" points="176.5,-147 176.5,-177 283.5,-177 283.5,-147 176.5,-147"/>
<text text-anchor="start" x="184.5" y="-165" font-family="Helvetica,sans-Serif" font-size="10.00">ResponseCalibration</text>
<text text-anchor="middle" x="230" y="-154" font-family="Helvetica,sans-Serif" font-size="10.00">::ReadCalibrationV4</text>
</a>
</g>
</g>
<!-- Node1&#45;&gt;Node7 -->
<g id="edge6" class="edge"><title>Node1&#45;&gt;Node7</title>
<path fill="none" stroke="midnightblue" d="M107.429,-198.546C129.202,-192.001 156.054,-183.929 178.979,-177.037"/>
<polygon fill="midnightblue" stroke="midnightblue" points="106.384,-195.205 97.815,-201.436 108.399,-201.909 106.384,-195.205"/>
</g>
<!-- Node8 -->
<g id="node8" class="node"><title>Node8</title>
<g id="a_node8"><a xlink:href="class_response_calibration.xhtml#a53f5ee5acfea35f235f8872ffff63cf7" target="_top" xlink:title="ResponseCalibration\l::RecordCalibrationPoints">
<polygon fill="white" stroke="black" points="166,-98 166,-128 294,-128 294,-98 166,-98"/>
<text text-anchor="start" x="174" y="-116" font-family="Helvetica,sans-Serif" font-size="10.00">ResponseCalibration</text>
<text text-anchor="middle" x="230" y="-105" font-family="Helvetica,sans-Serif" font-size="10.00">::RecordCalibrationPoints</text>
</a>
</g>
</g>
<!-- Node1&#45;&gt;Node8 -->
<g id="edge7" class="edge"><title>Node1&#45;&gt;Node8</title>
<path fill="none" stroke="midnightblue" d="M84.8346,-194.995C104.242,-179.062 135.835,-154.643 166,-138 172.491,-134.419 179.603,-131.086 186.636,-128.097"/>
<polygon fill="midnightblue" stroke="midnightblue" points="82.5136,-192.373 77.0633,-201.459 86.9897,-197.755 82.5136,-192.373"/>
</g>
<!-- Node9 -->
<g id="node9" class="node"><title>Node9</title>
<g id="a_node9"><a xlink:href="class_response_calibration.xhtml#a2449f53593142242c7e802085cb5f5e5" target="_top" xlink:title="ResponseCalibration\l::SubtractADCOffset">
<polygon fill="white" stroke="black" points="176,-49 176,-79 284,-79 284,-49 176,-49"/>
<text text-anchor="start" x="184" y="-67" font-family="Helvetica,sans-Serif" font-size="10.00">ResponseCalibration</text>
<text text-anchor="middle" x="230" y="-56" font-family="Helvetica,sans-Serif" font-size="10.00">::SubtractADCOffset</text>
</a>
</g>
</g>
<!-- Node1&#45;&gt;Node9 -->
<g id="edge8" class="edge"><title>Node1&#45;&gt;Node9</title>
<path fill="none" stroke="midnightblue" d="M76.7084,-192.775C92.9625,-166.531 126.217,-118.066 166,-89 171.131,-85.2514 176.9,-81.9719 182.811,-79.1304"/>
<polygon fill="midnightblue" stroke="midnightblue" points="73.695,-190.995 71.5087,-201.361 79.6826,-194.621 73.695,-190.995"/>
</g>
<!-- Node10 -->
<g id="node10" class="node"><title>Node10</title>
<g id="a_node10"><a xlink:href="class_response_calibration.xhtml#a55ce07bb6db6aa9867d1c3599801aefc" target="_top" xlink:title="ResponseCalibration\l::WriteCalibration">
<polygon fill="white" stroke="black" points="176.5,-0 176.5,-30 283.5,-30 283.5,-0 176.5,-0"/>
<text text-anchor="start" x="184.5" y="-18" font-family="Helvetica,sans-Serif" font-size="10.00">ResponseCalibration</text>
<text text-anchor="middle" x="230" y="-7" font-family="Helvetica,sans-Serif" font-size="10.00">::WriteCalibration</text>
</a>
</g>
</g>
<!-- Node1&#45;&gt;Node10 -->
<g id="edge9" class="edge"><title>Node1&#45;&gt;Node10</title>
<path fill="none" stroke="midnightblue" d="M72.3866,-191.924C84.96,-157.093 116.115,-82.8512 166,-40 170.463,-36.1662 175.586,-32.8763 180.941,-30.0641"/>
<polygon fill="midnightblue" stroke="midnightblue" points="69.0737,-190.795 69.0809,-201.389 75.6823,-193.103 69.0737,-190.795"/>
</g>
</g>
</svg>
