<?xml version="1.0" encoding="UTF-8" standalone="no"?>
<!DOCTYPE svg PUBLIC "-//W3C//DTD SVG 1.1//EN"
 "http://www.w3.org/Graphics/SVG/1.1/DTD/svg11.dtd">
<!-- Generated by graphviz version 2.36.0 (20140111.2315)
 -->
<!-- Title: DRSBoard::SoftTrigger Pages: 1 -->
<svg width="302pt" height="224pt"
 viewBox="0.00 0.00 302.00 224.00" xmlns="http://www.w3.org/2000/svg" xmlns:xlink="http://www.w3.org/1999/xlink">
<g id="graph0" class="graph" transform="scale(1 1) rotate(0) translate(4 220)">
<title>DRSBoard::SoftTrigger</title>
<polygon fill="white" stroke="none" points="-4,4 -4,-220 298,-220 298,4 -4,4"/>
<!-- Node1 -->
<g id="node1" class="node"><title>Node1</title>
<polygon fill="#bfbfbf" stroke="black" points="0,-103.5 0,-122.5 118,-122.5 118,-103.5 0,-103.5"/>
<text text-anchor="middle" x="59" y="-110.5" font-family="Helvetica,sans-Serif" font-size="10.00">DRSBoard::SoftTrigger</text>
</g>
<!-- Node2 -->
<g id="node2" class="node"><title>Node2</title>
<g id="a_node2"><a xlink:href="class_response_calibration.xhtml#a7141e2ac553d65d9f67c2915cbb3ce2e" target="_top" xlink:title="ResponseCalibration\l::CalibrationTrigger">
<polygon fill="white" stroke="black" points="170.5,-186 170.5,-216 277.5,-216 277.5,-186 170.5,-186"/>
<text text-anchor="start" x="178.5" y="-204" font-family="Helvetica,sans-Serif" font-size="10.00">ResponseCalibration</text>
<text text-anchor="middle" x="224" y="-193" font-family="Helvetica,sans-Serif" font-size="10.00">::CalibrationTrigger</text>
</a>
</g>
</g>
<!-- Node1&#45;&gt;Node2 -->
<g id="edge1" class="edge"><title>Node1&#45;&gt;Node2</title>
<path fill="none" stroke="midnightblue" d="M80.3959,-128.799C98.8603,-142.572 127.194,-162.416 154,-176 161.16,-179.628 168.975,-182.985 176.688,-185.984"/>
<polygon fill="midnightblue" stroke="midnightblue" points="82.261,-125.821 72.1743,-122.579 78.0379,-131.404 82.261,-125.821"/>
</g>
<!-- Node3 -->
<g id="node3" class="node"><title>Node3</title>
<g id="a_node3"><a xlink:href="_z_d_a_q_8cpp.xhtml#a0ddf1224851353fc92bfbff6f499fa97" target="_top" xlink:title="main">
<polygon fill="white" stroke="black" points="205,-147.5 205,-166.5 243,-166.5 243,-147.5 205,-147.5"/>
<text text-anchor="middle" x="224" y="-154.5" font-family="Helvetica,sans-Serif" font-size="10.00">main</text>
</a>
</g>
</g>
<!-- Node1&#45;&gt;Node3 -->
<g id="edge2" class="edge"><title>Node1&#45;&gt;Node3</title>
<path fill="none" stroke="midnightblue" d="M105.231,-125.21C138.137,-134.092 180.953,-145.65 204.845,-152.099"/>
<polygon fill="midnightblue" stroke="midnightblue" points="105.935,-121.774 95.3686,-122.547 104.111,-128.533 105.935,-121.774"/>
</g>
<!-- Node4 -->
<g id="node4" class="node"><title>Node4</title>
<g id="a_node4"><a xlink:href="class_response_calibration.xhtml#ab55e5806b1f701cfc40c6ea237e98a80" target="_top" xlink:title="ResponseCalibration\l::OffsetCalibrationV3">
<polygon fill="white" stroke="black" points="170,-98 170,-128 278,-128 278,-98 170,-98"/>
<text text-anchor="start" x="178" y="-116" font-family="Helvetica,sans-Serif" font-size="10.00">ResponseCalibration</text>
<text text-anchor="middle" x="224" y="-105" font-family="Helvetica,sans-Serif" font-size="10.00">::OffsetCalibrationV3</text>
</a>
</g>
</g>
<!-- Node1&#45;&gt;Node4 -->
<g id="edge3" class="edge"><title>Node1&#45;&gt;Node4</title>
<path fill="none" stroke="midnightblue" d="M128.779,-113C142.531,-113 156.778,-113 169.903,-113"/>
<polygon fill="midnightblue" stroke="midnightblue" points="128.386,-109.5 118.386,-113 128.386,-116.5 128.386,-109.5"/>
</g>
<!-- Node5 -->
<g id="node5" class="node"><title>Node5</title>
<g id="a_node5"><a xlink:href="class_response_calibration.xhtml#a77c769a4e2d346cbbe331ec7bb938f16" target="_top" xlink:title="ResponseCalibration\l::OffsetCalibrationV4">
<polygon fill="white" stroke="black" points="170,-49 170,-79 278,-79 278,-49 170,-49"/>
<text text-anchor="start" x="178" y="-67" font-family="Helvetica,sans-Serif" font-size="10.00">ResponseCalibration</text>
<text text-anchor="middle" x="224" y="-56" font-family="Helvetica,sans-Serif" font-size="10.00">::OffsetCalibrationV4</text>
</a>
</g>
</g>
<!-- Node1&#45;&gt;Node5 -->
<g id="edge4" class="edge"><title>Node1&#45;&gt;Node5</title>
<path fill="none" stroke="midnightblue" d="M101.429,-100.546C123.202,-94.0008 150.054,-85.9287 172.979,-79.037"/>
<polygon fill="midnightblue" stroke="midnightblue" points="100.384,-97.2052 91.815,-103.436 102.399,-103.909 100.384,-97.2052"/>
</g>
<!-- Node6 -->
<g id="node6" class="node"><title>Node6</title>
<g id="a_node6"><a xlink:href="class_response_calibration.xhtml#a6d720e4941fbc7e511bc389688d7d229" target="_top" xlink:title="ResponseCalibration\l::RecordCalibrationPointsV4">
<polygon fill="white" stroke="black" points="154,-0 154,-30 294,-30 294,-0 154,-0"/>
<text text-anchor="start" x="162" y="-18" font-family="Helvetica,sans-Serif" font-size="10.00">ResponseCalibration</text>
<text text-anchor="middle" x="224" y="-7" font-family="Helvetica,sans-Serif" font-size="10.00">::RecordCalibrationPointsV4</text>
</a>
</g>
</g>
<!-- Node1&#45;&gt;Node6 -->
<g id="edge5" class="edge"><title>Node1&#45;&gt;Node6</title>
<path fill="none" stroke="midnightblue" d="M77.6771,-96.5047C95.7299,-80.355 125.129,-55.9209 154,-40 160.694,-36.3084 168.041,-32.974 175.366,-30.032"/>
<polygon fill="midnightblue" stroke="midnightblue" points="75.268,-93.9647 70.2236,-103.282 79.9771,-99.1439 75.268,-93.9647"/>
</g>
</g>
</svg>
