<?xml version="1.0" encoding="UTF-8" standalone="no"?>
<!DOCTYPE svg PUBLIC "-//W3C//DTD SVG 1.1//EN"
 "http://www.w3.org/Graphics/SVG/1.1/DTD/svg11.dtd">
<!-- Generated by graphviz version 2.36.0 (20140111.2315)
 -->
<!-- Title: ScalerManager::ReadMultipleCycles Pages: 1 -->
<svg width="482pt" height="142pt"
 viewBox="0.00 0.00 482.00 142.00" xmlns="http://www.w3.org/2000/svg" xmlns:xlink="http://www.w3.org/1999/xlink">
<g id="graph0" class="graph" transform="scale(1 1) rotate(0) translate(4 138)">
<title>ScalerManager::ReadMultipleCycles</title>
<polygon fill="white" stroke="none" points="-4,4 -4,-138 478,-138 478,4 -4,4"/>
<!-- Node1 -->
<g id="node1" class="node"><title>Node1</title>
<polygon fill="#bfbfbf" stroke="black" points="0.5,-52 0.5,-82 145.5,-82 145.5,-52 0.5,-52"/>
<text text-anchor="start" x="8.5" y="-70" font-family="Helvetica,sans-Serif" font-size="10.00">ScalerManager::ReadMultiple</text>
<text text-anchor="middle" x="73" y="-59" font-family="Helvetica,sans-Serif" font-size="10.00">Cycles</text>
</g>
<!-- Node2 -->
<g id="node2" class="node"><title>Node2</title>
<g id="a_node2"><a xlink:href="class_i_o_manager.xhtml#a2b106680fee9901a2501ad4128195858" target="_top" xlink:title="IOManager::FillContainer">
<polygon fill="white" stroke="black" points="187.5,-114.5 187.5,-133.5 312.5,-133.5 312.5,-114.5 187.5,-114.5"/>
<text text-anchor="middle" x="250" y="-121.5" font-family="Helvetica,sans-Serif" font-size="10.00">IOManager::FillContainer</text>
</a>
</g>
</g>
<!-- Node1&#45;&gt;Node2 -->
<g id="edge1" class="edge"><title>Node1&#45;&gt;Node2</title>
<path fill="none" stroke="midnightblue" d="M114.826,-82.0366C134.952,-89.2768 159.644,-97.9047 182,-105 189.051,-107.238 196.559,-109.492 203.903,-111.625"/>
<polygon fill="midnightblue" stroke="midnightblue" points="203.18,-115.059 213.757,-114.448 205.108,-108.33 203.18,-115.059"/>
</g>
<!-- Node4 -->
<g id="node4" class="node"><title>Node4</title>
<g id="a_node4"><a xlink:href="class_common.xhtml#ac9abf0903e33d0fc910cf17685b3063d" target="_top" xlink:title="Common::get_time">
<polygon fill="white" stroke="black" points="200,-76.5 200,-95.5 300,-95.5 300,-76.5 200,-76.5"/>
<text text-anchor="middle" x="250" y="-83.5" font-family="Helvetica,sans-Serif" font-size="10.00">Common::get_time</text>
</a>
</g>
</g>
<!-- Node1&#45;&gt;Node4 -->
<g id="edge3" class="edge"><title>Node1&#45;&gt;Node4</title>
<path fill="none" stroke="midnightblue" d="M145.684,-74.7828C160.344,-76.3745 175.616,-78.0326 189.78,-79.5704"/>
<polygon fill="midnightblue" stroke="midnightblue" points="189.554,-83.0664 199.874,-80.6663 190.31,-76.1073 189.554,-83.0664"/>
</g>
<!-- Node5 -->
<g id="node5" class="node"><title>Node5</title>
<g id="a_node5"><a xlink:href="_d_r_s_8cpp.xhtml#aca8ac8de5202a8aa092f29c97b845fd4" target="_top" xlink:title="getch">
<polygon fill="white" stroke="black" points="229.5,-38.5 229.5,-57.5 270.5,-57.5 270.5,-38.5 229.5,-38.5"/>
<text text-anchor="middle" x="250" y="-45.5" font-family="Helvetica,sans-Serif" font-size="10.00">getch</text>
</a>
</g>
</g>
<!-- Node1&#45;&gt;Node5 -->
<g id="edge4" class="edge"><title>Node1&#45;&gt;Node5</title>
<path fill="none" stroke="midnightblue" d="M145.684,-59.2172C171.448,-56.4199 199.104,-53.4173 219.313,-51.2231"/>
<polygon fill="midnightblue" stroke="midnightblue" points="219.87,-54.6834 229.433,-50.1244 219.114,-47.7243 219.87,-54.6834"/>
</g>
<!-- Node6 -->
<g id="node6" class="node"><title>Node6</title>
<g id="a_node6"><a xlink:href="class_i_o_manager.xhtml#a704dcea90caae5af7e03fc9355c81637" target="_top" xlink:title="IOManager::SaveContainer">
<polygon fill="white" stroke="black" points="182.5,-0.5 182.5,-19.5 317.5,-19.5 317.5,-0.5 182.5,-0.5"/>
<text text-anchor="middle" x="250" y="-7.5" font-family="Helvetica,sans-Serif" font-size="10.00">IOManager::SaveContainer</text>
</a>
</g>
</g>
<!-- Node1&#45;&gt;Node6 -->
<g id="edge5" class="edge"><title>Node1&#45;&gt;Node6</title>
<path fill="none" stroke="midnightblue" d="M114.826,-51.9634C134.952,-44.7232 159.644,-36.0953 182,-29 189.051,-26.762 196.559,-24.5085 203.903,-22.3746"/>
<polygon fill="midnightblue" stroke="midnightblue" points="205.108,-25.6704 213.757,-19.5517 203.18,-18.941 205.108,-25.6704"/>
</g>
<!-- Node3 -->
<g id="node3" class="node"><title>Node3</title>
<g id="a_node3"><a xlink:href="class_common.xhtml#ac61de06bc876a8ae68021065daacf71a" target="_top" xlink:title="Common::GetUnixTime">
<polygon fill="white" stroke="black" points="354,-114.5 354,-133.5 474,-133.5 474,-114.5 354,-114.5"/>
<text text-anchor="middle" x="414" y="-121.5" font-family="Helvetica,sans-Serif" font-size="10.00">Common::GetUnixTime</text>
</a>
</g>
</g>
<!-- Node2&#45;&gt;Node3 -->
<g id="edge2" class="edge"><title>Node2&#45;&gt;Node3</title>
<path fill="none" stroke="midnightblue" d="M312.707,-124C322.834,-124 333.387,-124 343.684,-124"/>
<polygon fill="midnightblue" stroke="midnightblue" points="343.869,-127.5 353.869,-124 343.869,-120.5 343.869,-127.5"/>
</g>
</g>
</svg>
