<?xml version="1.0" encoding="UTF-8" standalone="no"?>
<!DOCTYPE svg PUBLIC "-//W3C//DTD SVG 1.1//EN"
 "http://www.w3.org/Graphics/SVG/1.1/DTD/svg11.dtd">
<!-- Generated by graphviz version 2.36.0 (20140111.2315)
 -->
<!-- Title: ADCManager::ReadBaseLine Pages: 1 -->
<svg width="514pt" height="28pt"
 viewBox="0.00 0.00 514.00 28.00" xmlns="http://www.w3.org/2000/svg" xmlns:xlink="http://www.w3.org/1999/xlink">
<g id="graph0" class="graph" transform="scale(1 1) rotate(0) translate(4 24)">
<title>ADCManager::ReadBaseLine</title>
<polygon fill="white" stroke="none" points="-4,4 -4,-24 510,-24 510,4 -4,4"/>
<!-- Node1 -->
<g id="node1" class="node"><title>Node1</title>
<polygon fill="#bfbfbf" stroke="black" points="0,-0.5 0,-19.5 146,-19.5 146,-0.5 0,-0.5"/>
<text text-anchor="middle" x="73" y="-7.5" font-family="Helvetica,sans-Serif" font-size="10.00">ADCManager::ReadBaseLine</text>
</g>
<!-- Node2 -->
<g id="node2" class="node"><title>Node2</title>
<g id="a_node2"><a xlink:href="class_a_d_c_manager.xhtml#ab189b058424a8bb47cb921d3d7e31e07" target="_top" xlink:title="ADCManager::RegisterWriting">
<polygon fill="white" stroke="black" points="182.5,-0.5 182.5,-19.5 331.5,-19.5 331.5,-0.5 182.5,-0.5"/>
<text text-anchor="middle" x="257" y="-7.5" font-family="Helvetica,sans-Serif" font-size="10.00">ADCManager::RegisterWriting</text>
</a>
</g>
</g>
<!-- Node1&#45;&gt;Node2 -->
<g id="edge1" class="edge"><title>Node1&#45;&gt;Node2</title>
<path fill="none" stroke="midnightblue" d="M146.193,-10C154.752,-10 163.544,-10 172.248,-10"/>
<polygon fill="midnightblue" stroke="midnightblue" points="172.404,-13.5001 182.404,-10 172.404,-6.5001 172.404,-13.5001"/>
</g>
<!-- Node3 -->
<g id="node3" class="node"><title>Node3</title>
<g id="a_node3"><a xlink:href="class_a_d_c_manager.xhtml#ac6c08ec08e60b52125f463422f0abdf2" target="_top" xlink:title="ADCManager::adc_writereg">
<polygon fill="white" stroke="black" points="368.5,-0.5 368.5,-19.5 505.5,-19.5 505.5,-0.5 368.5,-0.5"/>
<text text-anchor="middle" x="437" y="-7.5" font-family="Helvetica,sans-Serif" font-size="10.00">ADCManager::adc_writereg</text>
</a>
</g>
</g>
<!-- Node2&#45;&gt;Node3 -->
<g id="edge2" class="edge"><title>Node2&#45;&gt;Node3</title>
<path fill="none" stroke="midnightblue" d="M331.684,-10C340.415,-10 349.348,-10 358.134,-10"/>
<polygon fill="midnightblue" stroke="midnightblue" points="358.359,-13.5001 368.359,-10 358.359,-6.5001 358.359,-13.5001"/>
</g>
</g>
</svg>
