<?xml version="1.0" encoding="UTF-8" standalone="no"?>
<!DOCTYPE svg PUBLIC "-//W3C//DTD SVG 1.1//EN"
 "http://www.w3.org/Graphics/SVG/1.1/DTD/svg11.dtd">
<!-- Generated by graphviz version 2.36.0 (20140111.2315)
 -->
<!-- Title: ResponseCalibration::CalibrationData::CalculateBSpline Pages: 1 -->
<svg width="490pt" height="87pt"
 viewBox="0.00 0.00 490.00 87.00" xmlns="http://www.w3.org/2000/svg" xmlns:xlink="http://www.w3.org/1999/xlink">
<g id="graph0" class="graph" transform="scale(1 1) rotate(0) translate(4 83)">
<title>ResponseCalibration::CalibrationData::CalculateBSpline</title>
<polygon fill="white" stroke="none" points="-4,4 -4,-83 486,-83 486,4 -4,4"/>
<!-- Node1 -->
<g id="node1" class="node"><title>Node1</title>
<polygon fill="#bfbfbf" stroke="black" points="0.5,-18.5 0.5,-59.5 137.5,-59.5 137.5,-18.5 0.5,-18.5"/>
<text text-anchor="start" x="8.5" y="-47.5" font-family="Helvetica,sans-Serif" font-size="10.00">ResponseCalibration</text>
<text text-anchor="start" x="8.5" y="-36.5" font-family="Helvetica,sans-Serif" font-size="10.00">::CalibrationData::Calculate</text>
<text text-anchor="middle" x="69" y="-25.5" font-family="Helvetica,sans-Serif" font-size="10.00">BSpline</text>
</g>
<!-- Node2 -->
<g id="node2" class="node"><title>Node2</title>
<g id="a_node2"><a xlink:href="class_response_calibration_1_1_calibration_data.xhtml#acda3f23fc022b5a4880861cb1f5a3f54" target="_top" xlink:title="ResponseCalibration\l::CalibrationData::PreCalculate\lBSpline">
<polygon fill="white" stroke="black" points="174,-18.5 174,-59.5 326,-59.5 326,-18.5 174,-18.5"/>
<text text-anchor="start" x="182" y="-47.5" font-family="Helvetica,sans-Serif" font-size="10.00">ResponseCalibration</text>
<text text-anchor="start" x="182" y="-36.5" font-family="Helvetica,sans-Serif" font-size="10.00">::CalibrationData::PreCalculate</text>
<text text-anchor="middle" x="250" y="-25.5" font-family="Helvetica,sans-Serif" font-size="10.00">BSpline</text>
</a>
</g>
</g>
<!-- Node1&#45;&gt;Node2 -->
<g id="edge1" class="edge"><title>Node1&#45;&gt;Node2</title>
<path fill="none" stroke="midnightblue" d="M147.721,-39C156.355,-39 165.139,-39 173.742,-39"/>
<polygon fill="midnightblue" stroke="midnightblue" points="147.672,-35.5001 137.672,-39 147.672,-42.5001 147.672,-35.5001"/>
</g>
<!-- Node3 -->
<g id="node3" class="node"><title>Node3</title>
<g id="a_node3"><a xlink:href="class_response_calibration.xhtml#abf11919dd8f5b0b1670c06e762fb793b" target="_top" xlink:title="ResponseCalibration\l::FitCalibrationPointsV3">
<polygon fill="white" stroke="black" points="362,-49 362,-79 482,-79 482,-49 362,-49"/>
<text text-anchor="start" x="370" y="-67" font-family="Helvetica,sans-Serif" font-size="10.00">ResponseCalibration</text>
<text text-anchor="middle" x="422" y="-56" font-family="Helvetica,sans-Serif" font-size="10.00">::FitCalibrationPointsV3</text>
</a>
</g>
</g>
<!-- Node2&#45;&gt;Node3 -->
<g id="edge2" class="edge"><title>Node2&#45;&gt;Node3</title>
<path fill="none" stroke="midnightblue" d="M336.233,-51.5342C344.916,-52.8112 353.597,-54.0878 361.911,-55.3105"/>
<polygon fill="midnightblue" stroke="midnightblue" points="336.462,-48.0304 326.059,-50.0381 335.444,-54.9559 336.462,-48.0304"/>
</g>
<!-- Node4 -->
<g id="node4" class="node"><title>Node4</title>
<g id="a_node4"><a xlink:href="class_response_calibration.xhtml#a42aae8f641a6c12c6866c76a151767dc" target="_top" xlink:title="ResponseCalibration\l::ReadCalibrationV3">
<polygon fill="white" stroke="black" points="368.5,-0 368.5,-30 475.5,-30 475.5,-0 368.5,-0"/>
<text text-anchor="start" x="376.5" y="-18" font-family="Helvetica,sans-Serif" font-size="10.00">ResponseCalibration</text>
<text text-anchor="middle" x="422" y="-7" font-family="Helvetica,sans-Serif" font-size="10.00">::ReadCalibrationV3</text>
</a>
</g>
</g>
<!-- Node2&#45;&gt;Node4 -->
<g id="edge3" class="edge"><title>Node2&#45;&gt;Node4</title>
<path fill="none" stroke="midnightblue" d="M336.107,-26.9849C347.07,-25.4372 358.03,-23.8898 368.259,-22.4458"/>
<polygon fill="midnightblue" stroke="midnightblue" points="335.472,-23.5398 326.059,-28.4034 336.45,-30.471 335.472,-23.5398"/>
</g>
</g>
</svg>
