<?xml version="1.0" encoding="UTF-8" standalone="no"?>
<!DOCTYPE svg PUBLIC "-//W3C//DTD SVG 1.1//EN"
 "http://www.w3.org/Graphics/SVG/1.1/DTD/svg11.dtd">
<!-- Generated by graphviz version 2.36.0 (20140111.2315)
 -->
<!-- Title: ResponseCalibration::CalibrationStart Pages: 1 -->
<svg width="296pt" height="142pt"
 viewBox="0.00 0.00 296.00 142.00" xmlns="http://www.w3.org/2000/svg" xmlns:xlink="http://www.w3.org/1999/xlink">
<g id="graph0" class="graph" transform="scale(1 1) rotate(0) translate(4 138)">
<title>ResponseCalibration::CalibrationStart</title>
<polygon fill="white" stroke="none" points="-4,4 -4,-138 292,-138 292,4 -4,4"/>
<!-- Node1 -->
<g id="node1" class="node"><title>Node1</title>
<polygon fill="#bfbfbf" stroke="black" points="0.5,-52 0.5,-82 107.5,-82 107.5,-52 0.5,-52"/>
<text text-anchor="start" x="8.5" y="-70" font-family="Helvetica,sans-Serif" font-size="10.00">ResponseCalibration</text>
<text text-anchor="middle" x="54" y="-59" font-family="Helvetica,sans-Serif" font-size="10.00">::CalibrationStart</text>
</g>
<!-- Node2 -->
<g id="node2" class="node"><title>Node2</title>
<g id="a_node2"><a xlink:href="class_d_r_s_board.xhtml#a95d34a77cb2c7b806e306890a097398d" target="_top" xlink:title="DRSBoard::EnableAcal">
<polygon fill="white" stroke="black" points="156.5,-114.5 156.5,-133.5 275.5,-133.5 275.5,-114.5 156.5,-114.5"/>
<text text-anchor="middle" x="216" y="-121.5" font-family="Helvetica,sans-Serif" font-size="10.00">DRSBoard::EnableAcal</text>
</a>
</g>
</g>
<!-- Node1&#45;&gt;Node2 -->
<g id="edge1" class="edge"><title>Node1&#45;&gt;Node2</title>
<path fill="none" stroke="midnightblue" d="M87.1157,-82.0211C103.851,-89.5121 124.784,-98.3643 144,-105 150.882,-107.377 158.224,-109.638 165.479,-111.717"/>
<polygon fill="midnightblue" stroke="midnightblue" points="164.694,-115.131 175.266,-114.433 166.566,-108.386 164.694,-115.131"/>
</g>
<!-- Node3 -->
<g id="node3" class="node"><title>Node3</title>
<g id="a_node3"><a xlink:href="class_d_r_s_board.xhtml#a69328e822828c454b02ac3e0e3423193" target="_top" xlink:title="DRSBoard::IsBusy">
<polygon fill="white" stroke="black" points="165.5,-76.5 165.5,-95.5 266.5,-95.5 266.5,-76.5 165.5,-76.5"/>
<text text-anchor="middle" x="216" y="-83.5" font-family="Helvetica,sans-Serif" font-size="10.00">DRSBoard::IsBusy</text>
</a>
</g>
</g>
<!-- Node1&#45;&gt;Node3 -->
<g id="edge2" class="edge"><title>Node1&#45;&gt;Node3</title>
<path fill="none" stroke="midnightblue" d="M107.833,-73.274C123.066,-75.0828 139.789,-77.0687 155.402,-78.9227"/>
<polygon fill="midnightblue" stroke="midnightblue" points="155.131,-82.4151 165.474,-80.1188 155.957,-75.4639 155.131,-82.4151"/>
</g>
<!-- Node4 -->
<g id="node4" class="node"><title>Node4</title>
<g id="a_node4"><a xlink:href="class_d_r_s_board.xhtml#a3c315a05cf220a90340a88b26979fc04" target="_top" xlink:title="DRSBoard::SetDominoMode">
<polygon fill="white" stroke="black" points="144.5,-38.5 144.5,-57.5 287.5,-57.5 287.5,-38.5 144.5,-38.5"/>
<text text-anchor="middle" x="216" y="-45.5" font-family="Helvetica,sans-Serif" font-size="10.00">DRSBoard::SetDominoMode</text>
</a>
</g>
</g>
<!-- Node1&#45;&gt;Node4 -->
<g id="edge3" class="edge"><title>Node1&#45;&gt;Node4</title>
<path fill="none" stroke="midnightblue" d="M107.833,-60.726C116.299,-59.7208 125.224,-58.6608 134.164,-57.5993"/>
<polygon fill="midnightblue" stroke="midnightblue" points="134.722,-61.0577 144.239,-56.4028 133.896,-54.1065 134.722,-61.0577"/>
</g>
<!-- Node5 -->
<g id="node5" class="node"><title>Node5</title>
<g id="a_node5"><a xlink:href="class_d_r_s_board.xhtml#aa1f458803cbed423b2f45dec50d7548e" target="_top" xlink:title="DRSBoard::StartDomino">
<polygon fill="white" stroke="black" points="153.5,-0.5 153.5,-19.5 278.5,-19.5 278.5,-0.5 153.5,-0.5"/>
<text text-anchor="middle" x="216" y="-7.5" font-family="Helvetica,sans-Serif" font-size="10.00">DRSBoard::StartDomino</text>
</a>
</g>
</g>
<!-- Node1&#45;&gt;Node5 -->
<g id="edge4" class="edge"><title>Node1&#45;&gt;Node5</title>
<path fill="none" stroke="midnightblue" d="M87.1157,-51.9789C103.851,-44.4879 124.784,-35.6357 144,-29 150.882,-26.6233 158.224,-24.3621 165.479,-22.2831"/>
<polygon fill="midnightblue" stroke="midnightblue" points="166.566,-25.6137 175.266,-19.5671 164.694,-18.8686 166.566,-25.6137"/>
</g>
</g>
</svg>
