<?xml version="1.0" encoding="UTF-8" standalone="no"?>
<!DOCTYPE svg PUBLIC "-//W3C//DTD SVG 1.1//EN"
 "http://www.w3.org/Graphics/SVG/1.1/DTD/svg11.dtd">
<!-- Generated by graphviz version 2.36.0 (20140111.2315)
 -->
<!-- Title: SlowcontrolManager::ShowStatus Pages: 1 -->
<svg width="894pt" height="750pt"
 viewBox="0.00 0.00 894.00 750.00" xmlns="http://www.w3.org/2000/svg" xmlns:xlink="http://www.w3.org/1999/xlink">
<g id="graph0" class="graph" transform="scale(1 1) rotate(0) translate(4 746)">
<title>SlowcontrolManager::ShowStatus</title>
<polygon fill="white" stroke="none" points="-4,4 -4,-746 890,-746 890,4 -4,4"/>
<!-- Node1 -->
<g id="node1" class="node"><title>Node1</title>
<polygon fill="#bfbfbf" stroke="black" points="0.5,-584 0.5,-614 105.5,-614 105.5,-584 0.5,-584"/>
<text text-anchor="start" x="8.5" y="-602" font-family="Helvetica,sans-Serif" font-size="10.00">SlowcontrolManager</text>
<text text-anchor="middle" x="53" y="-591" font-family="Helvetica,sans-Serif" font-size="10.00">::ShowStatus</text>
</g>
<!-- Node2 -->
<g id="node2" class="node"><title>Node2</title>
<g id="a_node2"><a xlink:href="class_common.xhtml#a279c04634cf123f06e0a2cb6ac8241b8" target="_top" xlink:title="Common::error">
<polygon fill="white" stroke="black" points="167,-665.5 167,-684.5 249,-684.5 249,-665.5 167,-665.5"/>
<text text-anchor="middle" x="208" y="-672.5" font-family="Helvetica,sans-Serif" font-size="10.00">Common::error</text>
</a>
</g>
</g>
<!-- Node1&#45;&gt;Node2 -->
<g id="edge1" class="edge"><title>Node1&#45;&gt;Node2</title>
<path fill="none" stroke="midnightblue" d="M73.6569,-614.124C90.8849,-626.778 117.011,-644.552 142,-656 147.01,-658.295 152.365,-660.387 157.77,-662.273"/>
<polygon fill="midnightblue" stroke="midnightblue" points="156.898,-665.67 167.49,-665.444 159.069,-659.015 156.898,-665.67"/>
</g>
<!-- Node3 -->
<g id="node3" class="node"><title>Node3</title>
<g id="a_node3"><a xlink:href="struct_x_m_l_node.xhtml#aa07572a057ce7ffc8843e468d952f490" target="_top" xlink:title="XMLNode::getAttribute">
<polygon fill="white" stroke="black" points="150,-627.5 150,-646.5 266,-646.5 266,-627.5 150,-627.5"/>
<text text-anchor="middle" x="208" y="-634.5" font-family="Helvetica,sans-Serif" font-size="10.00">XMLNode::getAttribute</text>
</a>
</g>
</g>
<!-- Node1&#45;&gt;Node3 -->
<g id="edge2" class="edge"><title>Node1&#45;&gt;Node3</title>
<path fill="none" stroke="midnightblue" d="M105.799,-611.865C122.742,-616.073 141.496,-620.731 158.209,-624.882"/>
<polygon fill="midnightblue" stroke="midnightblue" points="157.769,-628.379 168.318,-627.393 159.456,-621.585 157.769,-628.379"/>
</g>
<!-- Node4 -->
<g id="node4" class="node"><title>Node4</title>
<g id="a_node4"><a xlink:href="struct_x_m_l_node.xhtml#a77a21438b6d48a52cf8a1270f82f4475" target="_top" xlink:title="XMLNode::getChildNode">
<polygon fill="white" stroke="black" points="652.5,-722.5 652.5,-741.5 777.5,-741.5 777.5,-722.5 652.5,-722.5"/>
<text text-anchor="middle" x="715" y="-729.5" font-family="Helvetica,sans-Serif" font-size="10.00">XMLNode::getChildNode</text>
</a>
</g>
</g>
<!-- Node1&#45;&gt;Node4 -->
<g id="edge3" class="edge"><title>Node1&#45;&gt;Node4</title>
<path fill="none" stroke="midnightblue" d="M105.876,-601.029C150.655,-603.364 216.945,-608.216 274,-618 351.574,-631.303 575.417,-693.094 670.474,-719.729"/>
<polygon fill="midnightblue" stroke="midnightblue" points="669.765,-723.165 680.338,-722.496 671.656,-716.425 669.765,-723.165"/>
</g>
<!-- Node5 -->
<g id="node5" class="node"><title>Node5</title>
<g id="a_node5"><a xlink:href="struct_x_m_l_node.xhtml#aeb607292b18d4615b7c169c7c08c0a8b" target="_top" xlink:title="XMLNode::getText">
<polygon fill="white" stroke="black" points="158.5,-418.5 158.5,-437.5 257.5,-437.5 257.5,-418.5 158.5,-418.5"/>
<text text-anchor="middle" x="208" y="-425.5" font-family="Helvetica,sans-Serif" font-size="10.00">XMLNode::getText</text>
</a>
</g>
</g>
<!-- Node1&#45;&gt;Node5 -->
<g id="edge4" class="edge"><title>Node1&#45;&gt;Node5</title>
<path fill="none" stroke="midnightblue" d="M58.4869,-583.944C68.374,-553.391 94.977,-483.888 142,-447 144.42,-445.102 147.023,-443.393 149.748,-441.856"/>
<polygon fill="midnightblue" stroke="midnightblue" points="151.297,-444.995 158.787,-437.501 148.258,-438.688 151.297,-444.995"/>
</g>
<!-- Node6 -->
<g id="node6" class="node"><title>Node6</title>
<g id="a_node6"><a xlink:href="struct_x_m_l_node.xhtml#acc044148e2b9b8264a320b7b6e398158" target="_top" xlink:title="XMLNode::openFileHelper">
<polygon fill="white" stroke="black" points="142.5,-456.5 142.5,-475.5 273.5,-475.5 273.5,-456.5 142.5,-456.5"/>
<text text-anchor="middle" x="208" y="-463.5" font-family="Helvetica,sans-Serif" font-size="10.00">XMLNode::openFileHelper</text>
</a>
</g>
</g>
<!-- Node1&#45;&gt;Node6 -->
<g id="edge5" class="edge"><title>Node1&#45;&gt;Node6</title>
<path fill="none" stroke="midnightblue" d="M71.551,-583.743C100.537,-558.546 158.172,-508.445 188.051,-482.472"/>
<polygon fill="midnightblue" stroke="midnightblue" points="190.444,-485.029 195.695,-475.827 185.852,-479.746 190.444,-485.029"/>
</g>
<!-- Node7 -->
<g id="node7" class="node"><title>Node7</title>
<g id="a_node7"><a xlink:href="_c_d_a_q_2_plugins_2_source_2xml_parser_8cpp.xhtml#a8dd6e6cada28ea03e5cacd075b1be7f6" target="_top" xlink:title="xfopen">
<polygon fill="white" stroke="black" points="827,-323.5 827,-342.5 873,-342.5 873,-323.5 827,-323.5"/>
<text text-anchor="middle" x="850" y="-330.5" font-family="Helvetica,sans-Serif" font-size="10.00">xfopen</text>
</a>
</g>
</g>
<!-- Node6&#45;&gt;Node7 -->
<g id="edge6" class="edge"><title>Node6&#45;&gt;Node7</title>
<path fill="none" stroke="midnightblue" d="M264.642,-456.448C366.858,-438.57 591.182,-397.79 778,-353 790.842,-349.921 804.86,-346.077 817.021,-342.584"/>
<polygon fill="midnightblue" stroke="midnightblue" points="818.11,-345.913 826.734,-339.757 816.154,-339.192 818.11,-345.913"/>
</g>
<!-- Node8 -->
<g id="node8" class="node"><title>Node8</title>
<g id="a_node8"><a xlink:href="struct_x_m_l_node.xhtml#a006cabe59176e05bc5a3f06c0cf6d8c1" target="_top" xlink:title="XMLNode::setGlobalOptions">
<polygon fill="white" stroke="black" points="316.5,-494.5 316.5,-513.5 457.5,-513.5 457.5,-494.5 316.5,-494.5"/>
<text text-anchor="middle" x="387" y="-501.5" font-family="Helvetica,sans-Serif" font-size="10.00">XMLNode::setGlobalOptions</text>
</a>
</g>
</g>
<!-- Node6&#45;&gt;Node8 -->
<g id="edge7" class="edge"><title>Node6&#45;&gt;Node8</title>
<path fill="none" stroke="midnightblue" d="M253.665,-475.589C277.337,-480.671 306.608,-486.955 331.597,-492.32"/>
<polygon fill="midnightblue" stroke="midnightblue" points="331.145,-495.803 341.657,-494.48 332.614,-488.959 331.145,-495.803"/>
</g>
<!-- Node9 -->
<g id="node9" class="node"><title>Node9</title>
<g id="a_node9"><a xlink:href="struct_x_m_l_node.xhtml#ac7af7e3bab8d21722dd4f191a4aa7c1d" target="_top" xlink:title="XMLNode::guessCharEncoding">
<polygon fill="white" stroke="black" points="310,-152.5 310,-171.5 464,-171.5 464,-152.5 310,-152.5"/>
<text text-anchor="middle" x="387" y="-159.5" font-family="Helvetica,sans-Serif" font-size="10.00">XMLNode::guessCharEncoding</text>
</a>
</g>
</g>
<!-- Node6&#45;&gt;Node9 -->
<g id="edge8" class="edge"><title>Node6&#45;&gt;Node9</title>
<path fill="none" stroke="midnightblue" d="M261.814,-456.432C266.376,-453.954 270.556,-450.86 274,-447 336.751,-376.668 266.643,-321.693 310,-238 322.835,-213.225 346.606,-191.463 364.158,-177.647"/>
<polygon fill="midnightblue" stroke="midnightblue" points="366.363,-180.366 372.2,-171.524 362.123,-174.797 366.363,-180.366"/>
</g>
<!-- Node20 -->
<g id="node20" class="node"><title>Node20</title>
<g id="a_node20"><a xlink:href="struct_x_m_l_node.xhtml#a5e5968e052d58350918cd91e3535624b" target="_top" xlink:title="XMLNode::parseFile">
<polygon fill="white" stroke="black" points="334,-342.5 334,-361.5 440,-361.5 440,-342.5 334,-342.5"/>
<text text-anchor="middle" x="387" y="-349.5" font-family="Helvetica,sans-Serif" font-size="10.00">XMLNode::parseFile</text>
</a>
</g>
</g>
<!-- Node6&#45;&gt;Node20 -->
<g id="edge29" class="edge"><title>Node6&#45;&gt;Node20</title>
<path fill="none" stroke="midnightblue" d="M251.289,-456.442C259.075,-453.907 266.961,-450.79 274,-447 312.818,-426.099 350.293,-390.093 370.531,-368.922"/>
<polygon fill="midnightblue" stroke="midnightblue" points="373.116,-371.282 377.41,-361.596 368.013,-366.49 373.116,-371.282"/>
</g>
<!-- Node28 -->
<g id="node28" class="node"><title>Node28</title>
<g id="a_node28"><a xlink:href="struct_x_m_l_node.xhtml#a4496629c7a268db5435946c7bdd4eb28" target="_top" xlink:title="XMLNode::getError">
<polygon fill="white" stroke="black" points="336.5,-247.5 336.5,-266.5 437.5,-266.5 437.5,-247.5 336.5,-247.5"/>
<text text-anchor="middle" x="387" y="-254.5" font-family="Helvetica,sans-Serif" font-size="10.00">XMLNode::getError</text>
</a>
</g>
</g>
<!-- Node6&#45;&gt;Node28 -->
<g id="edge44" class="edge"><title>Node6&#45;&gt;Node28</title>
<path fill="none" stroke="midnightblue" d="M260.335,-456.415C265.361,-453.951 270.051,-450.865 274,-447 311.972,-409.835 282.426,-378.418 310,-333 324.431,-309.23 347.815,-287.381 364.838,-273.27"/>
<polygon fill="midnightblue" stroke="midnightblue" points="367.489,-275.628 373.079,-266.628 363.097,-270.178 367.489,-275.628"/>
</g>
<!-- Node10 -->
<g id="node10" class="node"><title>Node10</title>
<g id="a_node10"><a xlink:href="_c_d_a_q_2_plugins_2_source_2xml_parser_8cpp.xhtml#ad9a5c911a8e21bb89427d29d33e2797e" target="_top" xlink:title="myIsTextWideChar">
<polygon fill="white" stroke="black" points="507.5,-190.5 507.5,-209.5 608.5,-209.5 608.5,-190.5 507.5,-190.5"/>
<text text-anchor="middle" x="558" y="-197.5" font-family="Helvetica,sans-Serif" font-size="10.00">myIsTextWideChar</text>
</a>
</g>
</g>
<!-- Node9&#45;&gt;Node10 -->
<g id="edge9" class="edge"><title>Node9&#45;&gt;Node10</title>
<path fill="none" stroke="midnightblue" d="M430.646,-171.589C453.148,-176.649 480.948,-182.9 504.738,-188.249"/>
<polygon fill="midnightblue" stroke="midnightblue" points="504.137,-191.701 514.661,-190.48 505.672,-184.871 504.137,-191.701"/>
</g>
<!-- Node11 -->
<g id="node11" class="node"><title>Node11</title>
<g id="a_node11"><a xlink:href="_c_d_a_q_2_plugins_2_source_2xml_parser_8cpp.xhtml#af77e3e2685487b9c492b20c36f3b864a" target="_top" xlink:title="_strnicmp">
<polygon fill="white" stroke="black" points="685.5,-38.5 685.5,-57.5 744.5,-57.5 744.5,-38.5 685.5,-38.5"/>
<text text-anchor="middle" x="715" y="-45.5" font-family="Helvetica,sans-Serif" font-size="10.00">_strnicmp</text>
</a>
</g>
</g>
<!-- Node9&#45;&gt;Node11 -->
<g id="edge28" class="edge"><title>Node9&#45;&gt;Node11</title>
<path fill="none" stroke="midnightblue" d="M415.234,-152.477C473.602,-132.066 610.811,-84.0843 677.002,-60.9378"/>
<polygon fill="midnightblue" stroke="midnightblue" points="678.33,-64.1814 686.614,-57.5766 676.02,-57.5737 678.33,-64.1814"/>
</g>
<!-- Node12 -->
<g id="node12" class="node"><title>Node12</title>
<g id="a_node12"><a xlink:href="_c_d_a_q_2_plugins_2_source_2xml_parser_8cpp.xhtml#ae4635e3ac4b32772021240a9c16864ee" target="_top" xlink:title="mmin">
<polygon fill="white" stroke="black" points="694.5,-0.5 694.5,-19.5 735.5,-19.5 735.5,-0.5 694.5,-0.5"/>
<text text-anchor="middle" x="715" y="-7.5" font-family="Helvetica,sans-Serif" font-size="10.00">mmin</text>
</a>
</g>
</g>
<!-- Node9&#45;&gt;Node12 -->
<g id="edge27" class="edge"><title>Node9&#45;&gt;Node12</title>
<path fill="none" stroke="midnightblue" d="M399.029,-152.283C418.316,-135.706 459.94,-101.748 500,-81 563.401,-48.1635 584.08,-51.0185 652,-29 662.602,-25.5629 674.276,-21.9427 684.608,-18.7951"/>
<polygon fill="midnightblue" stroke="midnightblue" points="685.846,-22.0772 694.403,-15.8292 683.817,-15.3776 685.846,-22.0772"/>
</g>
<!-- Node10&#45;&gt;Node7 -->
<g id="edge20" class="edge"><title>Node10&#45;&gt;Node7</title>
<path fill="none" stroke="midnightblue" d="M567.189,-209.577C582.237,-226.56 616.054,-261.951 652,-281 705.796,-309.509 776.306,-323.188 816.737,-329.092"/>
<polygon fill="midnightblue" stroke="midnightblue" points="816.435,-332.584 826.822,-330.494 817.399,-325.651 816.435,-332.584"/>
</g>
<!-- Node10&#45;&gt;Node11 -->
<g id="edge10" class="edge"><title>Node10&#45;&gt;Node11</title>
<path fill="none" stroke="midnightblue" d="M563.626,-190.186C575.224,-166.567 607.809,-106.007 652,-72 659.035,-66.5864 667.438,-62.2594 675.753,-58.8548"/>
<polygon fill="midnightblue" stroke="midnightblue" points="677.234,-62.0385 685.386,-55.272 674.794,-55.4776 677.234,-62.0385"/>
</g>
<!-- Node10&#45;&gt;Node12 -->
<g id="edge11" class="edge"><title>Node10&#45;&gt;Node12</title>
<path fill="none" stroke="midnightblue" d="M561.492,-190.188C569.409,-161.027 596.781,-74.1142 652,-29 661.211,-21.4743 673.38,-16.9242 684.496,-14.1754"/>
<polygon fill="midnightblue" stroke="midnightblue" points="685.224,-17.5991 694.294,-12.1238 683.789,-10.7477 685.224,-17.5991"/>
</g>
<!-- Node13 -->
<g id="node13" class="node"><title>Node13</title>
<g id="a_node13"><a xlink:href="_c_d_a_q_2_plugins_2_source_2xml_parser_8cpp.xhtml#ad7ec02a171e7641c1d364d5d367199a3" target="_top" xlink:title="myWideCharToMultiByte">
<polygon fill="white" stroke="black" points="652,-228.5 652,-247.5 778,-247.5 778,-228.5 652,-228.5"/>
<text text-anchor="middle" x="715" y="-235.5" font-family="Helvetica,sans-Serif" font-size="10.00">myWideCharToMultiByte</text>
</a>
</g>
</g>
<!-- Node10&#45;&gt;Node13 -->
<g id="edge12" class="edge"><title>Node10&#45;&gt;Node13</title>
<path fill="none" stroke="midnightblue" d="M598.113,-209.589C618.475,-214.581 643.566,-220.732 665.189,-226.033"/>
<polygon fill="midnightblue" stroke="midnightblue" points="664.622,-229.498 675.168,-228.48 666.289,-222.699 664.622,-229.498"/>
</g>
<!-- Node14 -->
<g id="node14" class="node"><title>Node14</title>
<g id="a_node14"><a xlink:href="_c_d_a_q_2_plugins_2_source_2xml_parser_8cpp.xhtml#a73c2349b2f386ee50130a3961bd2dbab" target="_top" xlink:title="xstrcpy">
<polygon fill="white" stroke="black" points="825.5,-152.5 825.5,-171.5 874.5,-171.5 874.5,-152.5 825.5,-152.5"/>
<text text-anchor="middle" x="850" y="-159.5" font-family="Helvetica,sans-Serif" font-size="10.00">xstrcpy</text>
</a>
</g>
</g>
<!-- Node10&#45;&gt;Node14 -->
<g id="edge21" class="edge"><title>Node10&#45;&gt;Node14</title>
<path fill="none" stroke="midnightblue" d="M608.523,-193.511C667.425,-185.793 764.165,-173.116 815.139,-166.437"/>
<polygon fill="midnightblue" stroke="midnightblue" points="815.832,-169.876 825.292,-165.107 814.922,-162.936 815.832,-169.876"/>
</g>
<!-- Node15 -->
<g id="node15" class="node"><title>Node15</title>
<g id="a_node15"><a xlink:href="_c_d_a_q_2_plugins_2_source_2xml_parser_8cpp.xhtml#a2e64ea95685df2d289c31a50419b532d" target="_top" xlink:title="xstricmp">
<polygon fill="white" stroke="black" points="823,-494.5 823,-513.5 877,-513.5 877,-494.5 823,-494.5"/>
<text text-anchor="middle" x="850" y="-501.5" font-family="Helvetica,sans-Serif" font-size="10.00">xstricmp</text>
</a>
</g>
</g>
<!-- Node10&#45;&gt;Node15 -->
<g id="edge22" class="edge"><title>Node10&#45;&gt;Node15</title>
<path fill="none" stroke="midnightblue" d="M566.065,-209.673C581.084,-230.035 617.627,-278.527 652,-316 713.538,-383.087 793.961,-455.619 830.041,-487.447"/>
<polygon fill="midnightblue" stroke="midnightblue" points="828.009,-490.321 837.83,-494.293 832.63,-485.063 828.009,-490.321"/>
</g>
<!-- Node16 -->
<g id="node16" class="node"><title>Node16</title>
<g id="a_node16"><a xlink:href="_c_d_a_q_2_plugins_2_source_2xml_parser_8cpp.xhtml#a49fa66f65d2d28ce7b7e0b1752425915" target="_top" xlink:title="xstrlen">
<polygon fill="white" stroke="black" points="827,-266.5 827,-285.5 873,-285.5 873,-266.5 827,-266.5"/>
<text text-anchor="middle" x="850" y="-273.5" font-family="Helvetica,sans-Serif" font-size="10.00">xstrlen</text>
</a>
</g>
</g>
<!-- Node10&#45;&gt;Node16 -->
<g id="edge23" class="edge"><title>Node10&#45;&gt;Node16</title>
<path fill="none" stroke="midnightblue" d="M570.737,-209.67C587.56,-222.923 620.035,-246.301 652,-257 707.664,-275.632 776.766,-277.858 816.581,-277.277"/>
<polygon fill="midnightblue" stroke="midnightblue" points="816.839,-280.772 826.761,-277.057 816.688,-273.774 816.839,-280.772"/>
</g>
<!-- Node17 -->
<g id="node17" class="node"><title>Node17</title>
<g id="a_node17"><a xlink:href="_c_d_a_q_2_plugins_2_source_2xml_parser_8cpp.xhtml#a3165858f70cd74ffab31ebc2ddc9e104" target="_top" xlink:title="xstrncmp">
<polygon fill="white" stroke="black" points="821.5,-76.5 821.5,-95.5 878.5,-95.5 878.5,-76.5 821.5,-76.5"/>
<text text-anchor="middle" x="850" y="-83.5" font-family="Helvetica,sans-Serif" font-size="10.00">xstrncmp</text>
</a>
</g>
</g>
<!-- Node10&#45;&gt;Node17 -->
<g id="edge24" class="edge"><title>Node10&#45;&gt;Node17</title>
<path fill="none" stroke="midnightblue" d="M570.227,-190.279C586.944,-176.29 619.869,-150.567 652,-136 704.623,-112.142 770.526,-98.3484 811.191,-91.5049"/>
<polygon fill="midnightblue" stroke="midnightblue" points="811.903,-94.9351 821.211,-89.8737 810.778,-88.026 811.903,-94.9351"/>
</g>
<!-- Node18 -->
<g id="node18" class="node"><title>Node18</title>
<g id="a_node18"><a xlink:href="_c_d_a_q_2_plugins_2_source_2xml_parser_8cpp.xhtml#a17c9570640aed10b61deec9047cb0940" target="_top" xlink:title="xstrnicmp">
<polygon fill="white" stroke="black" points="820.5,-209.5 820.5,-228.5 879.5,-228.5 879.5,-209.5 820.5,-209.5"/>
<text text-anchor="middle" x="850" y="-216.5" font-family="Helvetica,sans-Serif" font-size="10.00">xstrnicmp</text>
</a>
</g>
</g>
<!-- Node10&#45;&gt;Node18 -->
<g id="edge25" class="edge"><title>Node10&#45;&gt;Node18</title>
<path fill="none" stroke="midnightblue" d="M608.523,-203.245C665.581,-206.983 758.144,-213.047 810.219,-216.459"/>
<polygon fill="midnightblue" stroke="midnightblue" points="810.173,-219.964 820.381,-217.125 810.631,-212.979 810.173,-219.964"/>
</g>
<!-- Node19 -->
<g id="node19" class="node"><title>Node19</title>
<g id="a_node19"><a xlink:href="_c_d_a_q_2_plugins_2_source_2xml_parser_8cpp.xhtml#a696ca59a310359980c57de039f137697" target="_top" xlink:title="xstrstr">
<polygon fill="white" stroke="black" points="828,-114.5 828,-133.5 872,-133.5 872,-114.5 828,-114.5"/>
<text text-anchor="middle" x="850" y="-121.5" font-family="Helvetica,sans-Serif" font-size="10.00">xstrstr</text>
</a>
</g>
</g>
<!-- Node10&#45;&gt;Node19 -->
<g id="edge26" class="edge"><title>Node10&#45;&gt;Node19</title>
<path fill="none" stroke="midnightblue" d="M585.246,-190.492C603.76,-183.973 629.22,-175.382 652,-169 709.897,-152.779 778.568,-138.108 817.638,-130.182"/>
<polygon fill="midnightblue" stroke="midnightblue" points="818.726,-133.534 827.839,-128.13 817.345,-126.671 818.726,-133.534"/>
</g>
<!-- Node13&#45;&gt;Node7 -->
<g id="edge13" class="edge"><title>Node13&#45;&gt;Node7</title>
<path fill="none" stroke="midnightblue" d="M729.732,-247.809C752.849,-264.321 799.709,-297.792 827.31,-317.507"/>
<polygon fill="midnightblue" stroke="midnightblue" points="825.369,-320.422 835.54,-323.386 829.437,-314.725 825.369,-320.422"/>
</g>
<!-- Node13&#45;&gt;Node14 -->
<g id="edge14" class="edge"><title>Node13&#45;&gt;Node14</title>
<path fill="none" stroke="midnightblue" d="M732.845,-228.375C755.729,-215.297 796.842,-191.804 823.514,-176.563"/>
<polygon fill="midnightblue" stroke="midnightblue" points="825.346,-179.548 832.292,-171.547 821.873,-173.47 825.346,-179.548"/>
</g>
<!-- Node13&#45;&gt;Node15 -->
<g id="edge15" class="edge"><title>Node13&#45;&gt;Node15</title>
<path fill="none" stroke="midnightblue" d="M720.891,-247.783C740.487,-286.974 813.515,-433.03 839.636,-485.271"/>
<polygon fill="midnightblue" stroke="midnightblue" points="836.602,-487.03 844.205,-494.409 842.863,-483.899 836.602,-487.03"/>
</g>
<!-- Node13&#45;&gt;Node16 -->
<g id="edge16" class="edge"><title>Node13&#45;&gt;Node16</title>
<path fill="none" stroke="midnightblue" d="M749.562,-247.589C770.233,-253.495 796.584,-261.024 816.966,-266.847"/>
<polygon fill="midnightblue" stroke="midnightblue" points="816.153,-270.255 826.729,-269.637 818.076,-263.524 816.153,-270.255"/>
</g>
<!-- Node13&#45;&gt;Node17 -->
<g id="edge17" class="edge"><title>Node13&#45;&gt;Node17</title>
<path fill="none" stroke="midnightblue" d="M721.217,-228.176C734.198,-204.464 770.095,-143.241 814,-105 815.525,-103.672 817.158,-102.399 818.856,-101.186"/>
<polygon fill="midnightblue" stroke="midnightblue" points="821.064,-103.932 827.666,-95.646 817.337,-98.0066 821.064,-103.932"/>
</g>
<!-- Node13&#45;&gt;Node18 -->
<g id="edge18" class="edge"><title>Node13&#45;&gt;Node18</title>
<path fill="none" stroke="midnightblue" d="M778.217,-229.112C789.155,-227.549 800.249,-225.964 810.307,-224.528"/>
<polygon fill="midnightblue" stroke="midnightblue" points="810.96,-227.97 820.365,-223.091 809.97,-221.04 810.96,-227.97"/>
</g>
<!-- Node13&#45;&gt;Node19 -->
<g id="edge19" class="edge"><title>Node13&#45;&gt;Node19</title>
<path fill="none" stroke="midnightblue" d="M724.188,-228.491C740.159,-210.322 777.144,-170.076 814,-143 816.048,-141.496 818.229,-140.032 820.463,-138.627"/>
<polygon fill="midnightblue" stroke="midnightblue" points="822.296,-141.61 829.171,-133.549 818.769,-135.564 822.296,-141.61"/>
</g>
<!-- Node20&#45;&gt;Node7 -->
<g id="edge30" class="edge"><title>Node20&#45;&gt;Node7</title>
<path fill="none" stroke="midnightblue" d="M440.434,-349.839C536.45,-345.882 737.867,-337.58 816.538,-334.338"/>
<polygon fill="midnightblue" stroke="midnightblue" points="816.953,-337.824 826.8,-333.915 816.665,-330.83 816.953,-337.824"/>
</g>
<!-- Node20&#45;&gt;Node10 -->
<g id="edge31" class="edge"><title>Node20&#45;&gt;Node10</title>
<path fill="none" stroke="midnightblue" d="M398.572,-342.492C426.669,-317.221 503.462,-248.153 538.783,-216.384"/>
<polygon fill="midnightblue" stroke="midnightblue" points="541.338,-218.794 546.432,-209.505 536.657,-213.59 541.338,-218.794"/>
</g>
<!-- Node20&#45;&gt;Node13 -->
<g id="edge32" class="edge"><title>Node20&#45;&gt;Node13</title>
<path fill="none" stroke="midnightblue" d="M415.234,-342.477C473.602,-322.066 610.811,-274.084 677.002,-250.938"/>
<polygon fill="midnightblue" stroke="midnightblue" points="678.33,-254.181 686.614,-247.577 676.02,-247.574 678.33,-254.181"/>
</g>
<!-- Node21 -->
<g id="node21" class="node"><title>Node21</title>
<g id="a_node21"><a xlink:href="struct_x_m_l_node.xhtml#acb95f4f00e4cf3756aac0e3a53765248" target="_top" xlink:title="XMLNode::parseString">
<polygon fill="white" stroke="black" points="500,-551.5 500,-570.5 616,-570.5 616,-551.5 500,-551.5"/>
<text text-anchor="middle" x="558" y="-558.5" font-family="Helvetica,sans-Serif" font-size="10.00">XMLNode::parseString</text>
</a>
</g>
</g>
<!-- Node20&#45;&gt;Node21 -->
<g id="edge33" class="edge"><title>Node20&#45;&gt;Node21</title>
<path fill="none" stroke="midnightblue" d="M395.701,-361.523C421.985,-394.029 508.425,-500.928 542.759,-543.388"/>
<polygon fill="midnightblue" stroke="midnightblue" points="540.245,-545.845 549.254,-551.421 545.688,-541.444 540.245,-545.845"/>
</g>
<!-- Node21&#45;&gt;Node4 -->
<g id="edge37" class="edge"><title>Node21&#45;&gt;Node4</title>
<path fill="none" stroke="midnightblue" d="M595.311,-570.567C603.001,-574.041 610.457,-578.721 616,-585 655.11,-629.303 610.7,-670.731 652,-713 653.416,-714.449 654.94,-715.789 656.549,-717.027"/>
<polygon fill="midnightblue" stroke="midnightblue" points="654.861,-720.099 665.201,-722.408 658.558,-714.155 654.861,-720.099"/>
</g>
<!-- Node21&#45;&gt;Node15 -->
<g id="edge40" class="edge"><title>Node21&#45;&gt;Node15</title>
<path fill="none" stroke="midnightblue" d="M581.74,-570.548C608.076,-581.568 648.342,-598.281 652,-599 706.95,-609.793 727.933,-624.086 778,-599 809.608,-583.162 830.756,-545.833 841.256,-522.967"/>
<polygon fill="midnightblue" stroke="midnightblue" points="844.548,-524.173 845.331,-513.607 838.13,-521.379 844.548,-524.173"/>
</g>
<!-- Node21&#45;&gt;Node16 -->
<g id="edge39" class="edge"><title>Node21&#45;&gt;Node16</title>
<path fill="none" stroke="midnightblue" d="M568.982,-551.19C611.51,-509.395 777.864,-345.91 831.926,-292.78"/>
<polygon fill="midnightblue" stroke="midnightblue" points="834.38,-295.275 839.06,-285.769 829.474,-290.282 834.38,-295.275"/>
</g>
<!-- Node22 -->
<g id="node22" class="node"><title>Node22</title>
<g id="a_node22"><a xlink:href="struct_x_m_l_node.xhtml#a8e52198f258167cd796dae21f1ffc352" target="_top" xlink:title="XMLNode::nChildNode">
<polygon fill="white" stroke="black" points="656.5,-646.5 656.5,-665.5 773.5,-665.5 773.5,-646.5 656.5,-646.5"/>
<text text-anchor="middle" x="715" y="-653.5" font-family="Helvetica,sans-Serif" font-size="10.00">XMLNode::nChildNode</text>
</a>
</g>
</g>
<!-- Node21&#45;&gt;Node22 -->
<g id="edge34" class="edge"><title>Node21&#45;&gt;Node22</title>
<path fill="none" stroke="midnightblue" d="M589.877,-570.613C598.831,-574.267 608.268,-579.026 616,-585 636.821,-601.088 630.946,-616.218 652,-632 657.461,-636.093 663.706,-639.576 670.082,-642.512"/>
<polygon fill="midnightblue" stroke="midnightblue" points="668.866,-645.797 679.442,-646.429 671.569,-639.34 668.866,-645.797"/>
</g>
<!-- Node23 -->
<g id="node23" class="node"><title>Node23</title>
<g id="a_node23"><a xlink:href="struct_x_m_l_node.xhtml#a8e9538deb9144dcab39b3a510a8202f1" target="_top" xlink:title="XMLNode::nElement">
<polygon fill="white" stroke="black" points="661.5,-570.5 661.5,-589.5 768.5,-589.5 768.5,-570.5 661.5,-570.5"/>
<text text-anchor="middle" x="715" y="-577.5" font-family="Helvetica,sans-Serif" font-size="10.00">XMLNode::nElement</text>
</a>
</g>
</g>
<!-- Node21&#45;&gt;Node23 -->
<g id="edge36" class="edge"><title>Node21&#45;&gt;Node23</title>
<path fill="none" stroke="midnightblue" d="M616.276,-568.021C627.682,-569.419 639.715,-570.894 651.292,-572.313"/>
<polygon fill="midnightblue" stroke="midnightblue" points="650.969,-575.8 661.32,-573.543 651.821,-568.852 650.969,-575.8"/>
</g>
<!-- Node24 -->
<g id="node24" class="node"><title>Node24</title>
<g id="a_node24"><a xlink:href="struct_x_m_l_node.xhtml#a7e07715aa0ed894da96bd66c90d423f0" target="_top" xlink:title="XMLNode::getName">
<polygon fill="white" stroke="black" points="662,-532.5 662,-551.5 768,-551.5 768,-532.5 662,-532.5"/>
<text text-anchor="middle" x="715" y="-539.5" font-family="Helvetica,sans-Serif" font-size="10.00">XMLNode::getName</text>
</a>
</g>
</g>
<!-- Node21&#45;&gt;Node24 -->
<g id="edge38" class="edge"><title>Node21&#45;&gt;Node24</title>
<path fill="none" stroke="midnightblue" d="M616.276,-553.979C627.815,-552.565 639.997,-551.071 651.698,-549.637"/>
<polygon fill="midnightblue" stroke="midnightblue" points="652.329,-553.086 661.829,-548.395 651.477,-546.138 652.329,-553.086"/>
</g>
<!-- Node25 -->
<g id="node25" class="node"><title>Node25</title>
<g id="a_node25"><a xlink:href="struct_x_m_l_node.xhtml#a71df27d54a2dc09b0a456406a7e8c6d3" target="_top" xlink:title="XMLNode::isDeclaration">
<polygon fill="white" stroke="black" points="653.5,-494.5 653.5,-513.5 776.5,-513.5 776.5,-494.5 653.5,-494.5"/>
<text text-anchor="middle" x="715" y="-501.5" font-family="Helvetica,sans-Serif" font-size="10.00">XMLNode::isDeclaration</text>
</a>
</g>
</g>
<!-- Node21&#45;&gt;Node25 -->
<g id="edge41" class="edge"><title>Node21&#45;&gt;Node25</title>
<path fill="none" stroke="midnightblue" d="M580.955,-551.371C599.665,-543.325 627.358,-531.79 652,-523 658.124,-520.816 664.639,-518.65 671.059,-516.606"/>
<polygon fill="midnightblue" stroke="midnightblue" points="672.492,-519.825 680.998,-513.508 670.409,-513.142 672.492,-519.825"/>
</g>
<!-- Node26 -->
<g id="node26" class="node"><title>Node26</title>
<g id="a_node26"><a xlink:href="_c_d_a_q_2_plugins_2_source_2xml_parser_8cpp.xhtml#ae6aa5a367ab3cc92b47fd92f81add72a" target="_top" xlink:title="CountLinesAndColumns">
<polygon fill="white" stroke="black" points="654,-684.5 654,-703.5 776,-703.5 776,-684.5 654,-684.5"/>
<text text-anchor="middle" x="715" y="-691.5" font-family="Helvetica,sans-Serif" font-size="10.00">CountLinesAndColumns</text>
</a>
</g>
</g>
<!-- Node21&#45;&gt;Node26 -->
<g id="edge42" class="edge"><title>Node21&#45;&gt;Node26</title>
<path fill="none" stroke="midnightblue" d="M593.948,-570.614C601.962,-574.114 609.906,-578.795 616,-585 646.187,-615.736 620.297,-645.829 652,-675 653.716,-676.579 655.561,-678.028 657.502,-679.355"/>
<polygon fill="midnightblue" stroke="midnightblue" points="656.099,-682.582 666.53,-684.441 659.535,-676.483 656.099,-682.582"/>
</g>
<!-- Node22&#45;&gt;Node15 -->
<g id="edge35" class="edge"><title>Node22&#45;&gt;Node15</title>
<path fill="none" stroke="midnightblue" d="M753.103,-646.428C761.939,-642.915 770.865,-638.218 778,-632 812.332,-602.079 833.391,-551.322 842.935,-523.565"/>
<polygon fill="midnightblue" stroke="midnightblue" points="846.337,-524.422 846.131,-513.829 839.686,-522.238 846.337,-524.422"/>
</g>
<!-- Node27 -->
<g id="node27" class="node"><title>Node27</title>
<g id="a_node27"><a xlink:href="_c_d_a_q_2_plugins_2_source_2xml_parser_8cpp.xhtml#af03c1c87ed4ddb95f7b49d53d9117c53" target="_top" xlink:title="getNextChar">
<polygon fill="white" stroke="black" points="814,-684.5 814,-703.5 886,-703.5 886,-684.5 814,-684.5"/>
<text text-anchor="middle" x="850" y="-691.5" font-family="Helvetica,sans-Serif" font-size="10.00">getNextChar</text>
</a>
</g>
</g>
<!-- Node26&#45;&gt;Node27 -->
<g id="edge43" class="edge"><title>Node26&#45;&gt;Node27</title>
<path fill="none" stroke="midnightblue" d="M776.274,-694C785.462,-694 794.811,-694 803.609,-694"/>
<polygon fill="midnightblue" stroke="midnightblue" points="803.642,-697.5 813.642,-694 803.642,-690.5 803.642,-697.5"/>
</g>
<!-- Node28&#45;&gt;Node10 -->
<g id="edge45" class="edge"><title>Node28&#45;&gt;Node10</title>
<path fill="none" stroke="midnightblue" d="M416.287,-247.459C444.437,-237.965 487.819,-223.333 518.971,-212.826"/>
<polygon fill="midnightblue" stroke="midnightblue" points="520.264,-216.084 528.621,-209.572 518.027,-209.451 520.264,-216.084"/>
</g>
</g>
</svg>
