<?xml version="1.0" encoding="UTF-8" standalone="no"?>
<!DOCTYPE svg PUBLIC "-//W3C//DTD SVG 1.1//EN"
 "http://www.w3.org/Graphics/SVG/1.1/DTD/svg11.dtd">
<!-- Generated by graphviz version 2.36.0 (20140111.2315)
 -->
<!-- Title: control_scopehelp Pages: 1 -->
<svg width="478pt" height="88pt"
 viewBox="0.00 0.00 478.00 88.00" xmlns="http://www.w3.org/2000/svg" xmlns:xlink="http://www.w3.org/1999/xlink">
<g id="graph0" class="graph" transform="scale(1 1) rotate(0) translate(4 84)">
<title>control_scopehelp</title>
<polygon fill="white" stroke="none" points="-4,4 -4,-84 474,-84 474,4 -4,4"/>
<!-- Node1 -->
<g id="node1" class="node"><title>Node1</title>
<polygon fill="#bfbfbf" stroke="black" points="0.5,-41.5 0.5,-60.5 95.5,-60.5 95.5,-41.5 0.5,-41.5"/>
<text text-anchor="middle" x="48" y="-48.5" font-family="Helvetica,sans-Serif" font-size="10.00">control_scopehelp</text>
</g>
<!-- Node2 -->
<g id="node2" class="node"><title>Node2</title>
<g id="a_node2"><a xlink:href="_g_u_i_2_include_2control_8h.xhtml#ac97643773a87a0ab2f3310730174824f" target="_top" xlink:title="control_cmdline">
<polygon fill="white" stroke="black" points="133.5,-60.5 133.5,-79.5 218.5,-79.5 218.5,-60.5 133.5,-60.5"/>
<text text-anchor="middle" x="176" y="-67.5" font-family="Helvetica,sans-Serif" font-size="10.00">control_cmdline</text>
</a>
</g>
</g>
<!-- Node1&#45;&gt;Node2 -->
<g id="edge1" class="edge"><title>Node1&#45;&gt;Node2</title>
<path fill="none" stroke="midnightblue" d="M105.544,-59.5265C114.85,-60.9298 124.346,-62.3617 133.208,-63.698"/>
<polygon fill="midnightblue" stroke="midnightblue" points="105.97,-56.0512 95.5598,-58.0209 104.926,-62.973 105.97,-56.0512"/>
</g>
<!-- Node3 -->
<g id="node3" class="node"><title>Node3</title>
<g id="a_node3"><a xlink:href="graph_8cpp.xhtml#a47ba0a65658fc0ac6b76a02e4bb0918e" target="_top" xlink:title="graph_checkkey">
<polygon fill="white" stroke="black" points="132,-22.5 132,-41.5 220,-41.5 220,-22.5 132,-22.5"/>
<text text-anchor="middle" x="176" y="-29.5" font-family="Helvetica,sans-Serif" font-size="10.00">graph_checkkey</text>
</a>
</g>
</g>
<!-- Node1&#45;&gt;Node3 -->
<g id="edge2" class="edge"><title>Node1&#45;&gt;Node3</title>
<path fill="none" stroke="midnightblue" d="M105.487,-42.4821C114.379,-41.1412 123.446,-39.774 131.97,-38.4887"/>
<polygon fill="midnightblue" stroke="midnightblue" points="104.926,-39.027 95.5598,-43.9791 105.97,-45.9488 104.926,-39.027"/>
</g>
<!-- Node4 -->
<g id="node4" class="node"><title>Node4</title>
<g id="a_node4"><a xlink:href="class_scope_manager.xhtml#adc3b57b668f590969c5379fe27567bba" target="_top" xlink:title="ScopeManager::SetChannel\lTresh">
<polygon fill="white" stroke="black" points="256.5,-39 256.5,-69 395.5,-69 395.5,-39 256.5,-39"/>
<text text-anchor="start" x="264.5" y="-57" font-family="Helvetica,sans-Serif" font-size="10.00">ScopeManager::SetChannel</text>
<text text-anchor="middle" x="326" y="-46" font-family="Helvetica,sans-Serif" font-size="10.00">Tresh</text>
</a>
</g>
</g>
<!-- Node3&#45;&gt;Node4 -->
<g id="edge3" class="edge"><title>Node3&#45;&gt;Node4</title>
<path fill="none" stroke="midnightblue" d="M230.308,-39.9241C238.777,-41.183 247.639,-42.5004 256.4,-43.8026"/>
<polygon fill="midnightblue" stroke="midnightblue" points="230.612,-36.4309 220.206,-38.4225 229.582,-43.3548 230.612,-36.4309"/>
</g>
<!-- Node6 -->
<g id="node6" class="node"><title>Node6</title>
<g id="a_node6"><a xlink:href="mini_d_a_x_8cpp.xhtml#adedb285b02c41bde2158ded9cc9fd7ac" target="_top" xlink:title="main">
<polygon fill="white" stroke="black" points="307,-0.5 307,-19.5 345,-19.5 345,-0.5 307,-0.5"/>
<text text-anchor="middle" x="326" y="-7.5" font-family="Helvetica,sans-Serif" font-size="10.00">main</text>
</a>
</g>
</g>
<!-- Node3&#45;&gt;Node6 -->
<g id="edge5" class="edge"><title>Node3&#45;&gt;Node6</title>
<path fill="none" stroke="midnightblue" d="M230.266,-24.0821C257.106,-20.0924 287.905,-15.5142 306.909,-12.6892"/>
<polygon fill="midnightblue" stroke="midnightblue" points="229.582,-20.6452 220.206,-25.5775 230.612,-27.5691 229.582,-20.6452"/>
</g>
<!-- Node5 -->
<g id="node5" class="node"><title>Node5</title>
<g id="a_node5"><a xlink:href="_multi_d_a_q_8cpp.xhtml#adedb285b02c41bde2158ded9cc9fd7ac" target="_top" xlink:title="main">
<polygon fill="white" stroke="black" points="432,-44.5 432,-63.5 470,-63.5 470,-44.5 432,-44.5"/>
<text text-anchor="middle" x="451" y="-51.5" font-family="Helvetica,sans-Serif" font-size="10.00">main</text>
</a>
</g>
</g>
<!-- Node4&#45;&gt;Node5 -->
<g id="edge4" class="edge"><title>Node4&#45;&gt;Node5</title>
<path fill="none" stroke="midnightblue" d="M405.94,-54C415.599,-54 424.633,-54 431.975,-54"/>
<polygon fill="midnightblue" stroke="midnightblue" points="405.692,-50.5001 395.692,-54 405.692,-57.5001 405.692,-50.5001"/>
</g>
</g>
</svg>
