<?xml version="1.0" encoding="UTF-8" standalone="no"?>
<!DOCTYPE svg PUBLIC "-//W3C//DTD SVG 1.1//EN"
 "http://www.w3.org/Graphics/SVG/1.1/DTD/svg11.dtd">
<!-- Generated by graphviz version 2.36.0 (20140111.2315)
 -->
<!-- Title: control_log Pages: 1 -->
<svg width="554pt" height="311pt"
 viewBox="0.00 0.00 554.00 310.94" xmlns="http://www.w3.org/2000/svg" xmlns:xlink="http://www.w3.org/1999/xlink">
<g id="graph0" class="graph" transform="scale(1 1) rotate(0) translate(4 306.94)">
<title>control_log</title>
<polygon fill="white" stroke="none" points="-4,4 -4,-306.94 550,-306.94 550,4 -4,4"/>
<!-- Node1 -->
<g id="node1" class="node"><title>Node1</title>
<polygon fill="#bfbfbf" stroke="black" points="0,-55.44 0,-74.44 64,-74.44 64,-55.44 0,-55.44"/>
<text text-anchor="middle" x="32" y="-62.44" font-family="Helvetica,sans-Serif" font-size="10.00">control_log</text>
</g>
<!-- Node2 -->
<g id="node2" class="node"><title>Node2</title>
<g id="a_node2"><a xlink:href="_g_u_i_2_include_2control_8h.xhtml#a48a6baefa46edb93b59bb0f76385052a" target="_top" xlink:title="errormsg">
<polygon fill="white" stroke="black" points="100.5,-131.44 100.5,-150.44 155.5,-150.44 155.5,-131.44 100.5,-131.44"/>
<text text-anchor="middle" x="128" y="-138.44" font-family="Helvetica,sans-Serif" font-size="10.00">errormsg</text>
</a>
</g>
</g>
<!-- Node1&#45;&gt;Node2 -->
<g id="edge1" class="edge"><title>Node1&#45;&gt;Node2</title>
<path fill="none" stroke="midnightblue" d="M52.8858,-81.0179C71.7809,-96.2947 99.5615,-118.756 115.191,-131.393"/>
<polygon fill="midnightblue" stroke="midnightblue" points="54.882,-78.131 44.9052,-74.5654 50.4809,-83.5744 54.882,-78.131"/>
</g>
<!-- Node4 -->
<g id="node4" class="node"><title>Node4</title>
<g id="a_node4"><a xlink:href="mini_d_a_x_8cpp.xhtml#adedb285b02c41bde2158ded9cc9fd7ac" target="_top" xlink:title="main">
<polygon fill="white" stroke="black" points="508,-131.44 508,-150.44 546,-150.44 546,-131.44 508,-131.44"/>
<text text-anchor="middle" x="527" y="-138.44" font-family="Helvetica,sans-Serif" font-size="10.00">main</text>
</a>
</g>
</g>
<!-- Node1&#45;&gt;Node4 -->
<g id="edge13" class="edge"><title>Node1&#45;&gt;Node4</title>
<path fill="none" stroke="midnightblue" d="M60.2259,-50.7571C110.238,-26.5927 219.874,17.582 310,-7.93995 398.135,-32.8981 485.644,-105.1 515.362,-131.298"/>
<polygon fill="midnightblue" stroke="midnightblue" points="58.4556,-47.7279 51.0418,-55.2966 61.5574,-54.0032 58.4556,-47.7279"/>
</g>
<!-- Node3 -->
<g id="node3" class="node"><title>Node3</title>
<g id="a_node3"><a xlink:href="control_8cpp.xhtml#a05821af400d34bbf265b0eb929f4cee8" target="_top" xlink:title="control_calcrate">
<polygon fill="white" stroke="black" points="366,-245.44 366,-264.44 452,-264.44 452,-245.44 366,-245.44"/>
<text text-anchor="middle" x="409" y="-252.44" font-family="Helvetica,sans-Serif" font-size="10.00">control_calcrate</text>
</a>
</g>
</g>
<!-- Node2&#45;&gt;Node3 -->
<g id="edge2" class="edge"><title>Node2&#45;&gt;Node3</title>
<path fill="none" stroke="midnightblue" d="M135.752,-160.052C144.776,-182.465 163.072,-218.738 192,-235.94 245.388,-267.687 319.686,-266.403 365.762,-261.479"/>
<polygon fill="midnightblue" stroke="midnightblue" points="138.977,-158.685 132.157,-150.577 132.432,-161.168 138.977,-158.685"/>
</g>
<!-- Node5 -->
<g id="node5" class="node"><title>Node5</title>
<g id="a_node5"><a xlink:href="_g_u_i_2_include_2control_8h.xhtml#ac97643773a87a0ab2f3310730174824f" target="_top" xlink:title="control_cmdline">
<polygon fill="white" stroke="black" points="208.5,-207.44 208.5,-226.44 293.5,-226.44 293.5,-207.44 208.5,-207.44"/>
<text text-anchor="middle" x="251" y="-214.44" font-family="Helvetica,sans-Serif" font-size="10.00">control_cmdline</text>
</a>
</g>
</g>
<!-- Node2&#45;&gt;Node5 -->
<g id="edge4" class="edge"><title>Node2&#45;&gt;Node5</title>
<path fill="none" stroke="midnightblue" d="M144.393,-158.333C156.304,-170.867 173.793,-187.37 192,-197.94 198.506,-201.717 205.865,-204.861 213.103,-207.431"/>
<polygon fill="midnightblue" stroke="midnightblue" points="146.771,-155.75 137.419,-150.772 141.626,-160.496 146.771,-155.75"/>
</g>
<!-- Node6 -->
<g id="node6" class="node"><title>Node6</title>
<g id="a_node6"><a xlink:href="_g_u_i_2_include_2control_8h.xhtml#aeab8b16e95a01d21a60fdf5490f781d2" target="_top" xlink:title="control_configfile">
<polygon fill="white" stroke="black" points="206,-169.44 206,-188.44 296,-188.44 296,-169.44 206,-169.44"/>
<text text-anchor="middle" x="251" y="-176.44" font-family="Helvetica,sans-Serif" font-size="10.00">control_configfile</text>
</a>
</g>
</g>
<!-- Node2&#45;&gt;Node6 -->
<g id="edge5" class="edge"><title>Node2&#45;&gt;Node6</title>
<path fill="none" stroke="midnightblue" d="M165.342,-152.353C182.68,-157.798 203.185,-164.238 219.672,-169.415"/>
<polygon fill="midnightblue" stroke="midnightblue" points="166.143,-148.936 155.554,-149.279 164.046,-155.615 166.143,-148.936"/>
</g>
<!-- Node7 -->
<g id="node7" class="node"><title>Node7</title>
<g id="a_node7"><a xlink:href="control_8cpp.xhtml#aa8ca64af815f670c76cdb23c3d1af7b4" target="_top" xlink:title="control_generatefilename">
<polygon fill="white" stroke="black" points="346.5,-131.44 346.5,-150.44 471.5,-150.44 471.5,-131.44 346.5,-131.44"/>
<text text-anchor="middle" x="409" y="-138.44" font-family="Helvetica,sans-Serif" font-size="10.00">control_generatefilename</text>
</a>
</g>
</g>
<!-- Node2&#45;&gt;Node7 -->
<g id="edge6" class="edge"><title>Node2&#45;&gt;Node7</title>
<path fill="none" stroke="midnightblue" d="M165.859,-140.94C211.817,-140.94 291.051,-140.94 346.32,-140.94"/>
<polygon fill="midnightblue" stroke="midnightblue" points="165.752,-137.44 155.752,-140.94 165.752,-144.44 165.752,-137.44"/>
</g>
<!-- Node8 -->
<g id="node8" class="node"><title>Node8</title>
<g id="a_node8"><a xlink:href="_g_u_i_2_include_2control_8h.xhtml#ab54cec1fc7617fbb69ba6258f0a9f827" target="_top" xlink:title="control_openfile">
<polygon fill="white" stroke="black" points="208.5,-93.44 208.5,-112.44 293.5,-112.44 293.5,-93.44 208.5,-93.44"/>
<text text-anchor="middle" x="251" y="-100.44" font-family="Helvetica,sans-Serif" font-size="10.00">control_openfile</text>
</a>
</g>
</g>
<!-- Node2&#45;&gt;Node8 -->
<g id="edge8" class="edge"><title>Node2&#45;&gt;Node8</title>
<path fill="none" stroke="midnightblue" d="M165.342,-129.527C182.68,-124.082 203.185,-117.642 219.672,-112.465"/>
<polygon fill="midnightblue" stroke="midnightblue" points="164.046,-126.265 155.554,-132.601 166.143,-132.944 164.046,-126.265"/>
</g>
<!-- Node9 -->
<g id="node9" class="node"><title>Node9</title>
<g id="a_node9"><a xlink:href="_g_u_i_2_include_2control_8h.xhtml#a3ea9dadf648f70197ec522fb6fedc393" target="_top" xlink:title="control_openlog">
<polygon fill="white" stroke="black" points="208.5,-55.44 208.5,-74.44 293.5,-74.44 293.5,-55.44 208.5,-55.44"/>
<text text-anchor="middle" x="251" y="-62.44" font-family="Helvetica,sans-Serif" font-size="10.00">control_openlog</text>
</a>
</g>
</g>
<!-- Node2&#45;&gt;Node9 -->
<g id="edge9" class="edge"><title>Node2&#45;&gt;Node9</title>
<path fill="none" stroke="midnightblue" d="M144.393,-123.547C156.304,-111.013 173.793,-94.5103 192,-83.94 198.506,-80.1627 205.865,-77.0192 213.103,-74.4484"/>
<polygon fill="midnightblue" stroke="midnightblue" points="141.626,-121.384 137.419,-131.108 146.771,-126.13 141.626,-121.384"/>
</g>
<!-- Node10 -->
<g id="node10" class="node"><title>Node10</title>
<g id="a_node10"><a xlink:href="control_8cpp.xhtml#a9ed3ffa0b795893db43aac7d83f9cd87" target="_top" xlink:title="control_openrawrootfile">
<polygon fill="white" stroke="black" points="192.5,-17.44 192.5,-36.44 309.5,-36.44 309.5,-17.44 192.5,-17.44"/>
<text text-anchor="middle" x="251" y="-24.44" font-family="Helvetica,sans-Serif" font-size="10.00">control_openrawrootfile</text>
</a>
</g>
</g>
<!-- Node2&#45;&gt;Node10 -->
<g id="edge10" class="edge"><title>Node2&#45;&gt;Node10</title>
<path fill="none" stroke="midnightblue" d="M136.913,-121.96C146.779,-100.529 165.617,-66.034 192,-45.94 197.058,-42.0879 202.931,-38.9978 208.959,-36.5241"/>
<polygon fill="midnightblue" stroke="midnightblue" points="133.622,-120.749 132.797,-131.312 140.029,-123.569 133.622,-120.749"/>
</g>
<!-- Node11 -->
<g id="node11" class="node"><title>Node11</title>
<g id="a_node11"><a xlink:href="_g_u_i_2_include_2control_8h.xhtml#ab5bd42385627821b5bbe8f172adc9d10" target="_top" xlink:title="control_scfile">
<polygon fill="white" stroke="black" points="214,-283.44 214,-302.44 288,-302.44 288,-283.44 214,-283.44"/>
<text text-anchor="middle" x="251" y="-290.44" font-family="Helvetica,sans-Serif" font-size="10.00">control_scfile</text>
</a>
</g>
</g>
<!-- Node2&#45;&gt;Node11 -->
<g id="edge11" class="edge"><title>Node2&#45;&gt;Node11</title>
<path fill="none" stroke="midnightblue" d="M133.862,-160.389C141.695,-188.005 159.61,-238.591 192,-268.94 198.6,-275.124 207.018,-279.821 215.38,-283.345"/>
<polygon fill="midnightblue" stroke="midnightblue" points="137.236,-159.459 131.265,-150.707 130.475,-161.272 137.236,-159.459"/>
</g>
<!-- Node3&#45;&gt;Node4 -->
<g id="edge3" class="edge"><title>Node3&#45;&gt;Node4</title>
<path fill="none" stroke="midnightblue" d="M427.127,-238.108C451.756,-213.904 496.38,-170.049 516.135,-150.635"/>
<polygon fill="midnightblue" stroke="midnightblue" points="424.569,-235.715 419.89,-245.22 429.476,-240.707 424.569,-235.715"/>
</g>
<!-- Node7&#45;&gt;Node4 -->
<g id="edge7" class="edge"><title>Node7&#45;&gt;Node4</title>
<path fill="none" stroke="midnightblue" d="M481.848,-140.94C491.412,-140.94 500.442,-140.94 507.813,-140.94"/>
<polygon fill="midnightblue" stroke="midnightblue" points="481.736,-137.44 471.736,-140.94 481.736,-144.44 481.736,-137.44"/>
</g>
<!-- Node11&#45;&gt;Node3 -->
<g id="edge12" class="edge"><title>Node11&#45;&gt;Node3</title>
<path fill="none" stroke="midnightblue" d="M298.16,-281.696C320.601,-276.23 347.287,-269.729 368.735,-264.504"/>
<polygon fill="midnightblue" stroke="midnightblue" points="297.069,-278.359 288.182,-284.126 298.726,-285.16 297.069,-278.359"/>
</g>
</g>
</svg>
