<?xml version="1.0" encoding="UTF-8" standalone="no"?>
<!DOCTYPE svg PUBLIC "-//W3C//DTD SVG 1.1//EN"
 "http://www.w3.org/Graphics/SVG/1.1/DTD/svg11.dtd">
<!-- Generated by graphviz version 2.36.0 (20140111.2315)
 -->
<!-- Title: col Pages: 1 -->
<svg width="420pt" height="216pt"
 viewBox="0.00 0.00 420.00 216.34" xmlns="http://www.w3.org/2000/svg" xmlns:xlink="http://www.w3.org/1999/xlink">
<g id="graph0" class="graph" transform="scale(1 1) rotate(0) translate(4 212.341)">
<title>col</title>
<polygon fill="white" stroke="none" points="-4,4 -4,-212.341 416,-212.341 416,4 -4,4"/>
<!-- Node1 -->
<g id="node1" class="node"><title>Node1</title>
<polygon fill="#bfbfbf" stroke="black" points="0.5,-99.5 0.5,-118.5 29.5,-118.5 29.5,-99.5 0.5,-99.5"/>
<text text-anchor="middle" x="15" y="-106.5" font-family="Helvetica,sans-Serif" font-size="10.00">col</text>
</g>
<!-- Node2 -->
<g id="node2" class="node"><title>Node2</title>
<g id="a_node2"><a xlink:href="_g_u_i_2_include_2adc_8h.xhtml#a99fcc8dfc3bb71a3cd06f7e6968c12c3" target="_top" xlink:title="adc_analyzebaseline">
<polygon fill="white" stroke="black" points="214.5,-186.5 214.5,-205.5 321.5,-205.5 321.5,-186.5 214.5,-186.5"/>
<text text-anchor="middle" x="268" y="-193.5" font-family="Helvetica,sans-Serif" font-size="10.00">adc_analyzebaseline</text>
</a>
</g>
</g>
<!-- Node1&#45;&gt;Node2 -->
<g id="edge1" class="edge"><title>Node1&#45;&gt;Node2</title>
<path fill="none" stroke="midnightblue" d="M22.7431,-128.133C30.2444,-146.254 44.2529,-172.497 66,-185 110.992,-210.867 171.421,-210.426 214.238,-205.494"/>
<polygon fill="midnightblue" stroke="midnightblue" points="25.9219,-126.648 19.069,-118.567 19.3873,-129.157 25.9219,-126.648"/>
</g>
<!-- Node3 -->
<g id="node3" class="node"><title>Node3</title>
<g id="a_node3"><a xlink:href="_g_u_i_2_include_2adc_8h.xhtml#a25f6f40f42d10a2ecc7b970155d9eb53" target="_top" xlink:title="adc_getbaseline">
<polygon fill="white" stroke="black" points="224.5,-141.5 224.5,-160.5 311.5,-160.5 311.5,-141.5 224.5,-141.5"/>
<text text-anchor="middle" x="268" y="-148.5" font-family="Helvetica,sans-Serif" font-size="10.00">adc_getbaseline</text>
</a>
</g>
</g>
<!-- Node1&#45;&gt;Node3 -->
<g id="edge2" class="edge"><title>Node1&#45;&gt;Node3</title>
<path fill="none" stroke="midnightblue" d="M39.7829,-112.98C82.0662,-120.055 170.867,-134.914 224.071,-143.817"/>
<polygon fill="midnightblue" stroke="midnightblue" points="40.2929,-109.516 29.8524,-111.318 39.1376,-116.42 40.2929,-109.516"/>
</g>
<!-- Node4 -->
<g id="node4" class="node"><title>Node4</title>
<g id="a_node4"><a xlink:href="_g_u_i_2_include_2adc_8h.xhtml#aa357272f6eac8b5f8104ea1237f2e65c" target="_top" xlink:title="adc_mblt">
<polygon fill="white" stroke="black" points="86,-156.5 86,-175.5 142,-175.5 142,-156.5 86,-156.5"/>
<text text-anchor="middle" x="114" y="-163.5" font-family="Helvetica,sans-Serif" font-size="10.00">adc_mblt</text>
</a>
</g>
</g>
<!-- Node1&#45;&gt;Node4 -->
<g id="edge3" class="edge"><title>Node1&#45;&gt;Node4</title>
<path fill="none" stroke="midnightblue" d="M38.0886,-124.341C46.6688,-130.097 56.6633,-136.558 66,-142 74.707,-147.075 84.6091,-152.22 93.0717,-156.438"/>
<polygon fill="midnightblue" stroke="midnightblue" points="39.9837,-121.397 29.7459,-118.67 36.0484,-127.186 39.9837,-121.397"/>
</g>
<!-- Node5 -->
<g id="node5" class="node"><title>Node5</title>
<g id="a_node5"><a xlink:href="_g_u_i_2_include_2control_8h.xhtml#a1a91b66f68a4ba6cdf2ed9f75c6df947" target="_top" xlink:title="control_scopehelp">
<polygon fill="white" stroke="black" points="66.5,-80.5 66.5,-99.5 161.5,-99.5 161.5,-80.5 66.5,-80.5"/>
<text text-anchor="middle" x="114" y="-87.5" font-family="Helvetica,sans-Serif" font-size="10.00">control_scopehelp</text>
</a>
</g>
</g>
<!-- Node1&#45;&gt;Node5 -->
<g id="edge6" class="edge"><title>Node1&#45;&gt;Node5</title>
<path fill="none" stroke="midnightblue" d="M39.9274,-104.313C47.9219,-102.747 57.1268,-100.944 66.2491,-99.1574"/>
<polygon fill="midnightblue" stroke="midnightblue" points="39.0384,-100.921 29.8977,-106.278 40.3841,-107.79 39.0384,-100.921"/>
</g>
<!-- Node7 -->
<g id="node7" class="node"><title>Node7</title>
<g id="a_node7"><a xlink:href="graph_8cpp.xhtml#a47ba0a65658fc0ac6b76a02e4bb0918e" target="_top" xlink:title="graph_checkkey">
<polygon fill="white" stroke="black" points="70,-42.5 70,-61.5 158,-61.5 158,-42.5 70,-42.5"/>
<text text-anchor="middle" x="114" y="-49.5" font-family="Helvetica,sans-Serif" font-size="10.00">graph_checkkey</text>
</a>
</g>
</g>
<!-- Node1&#45;&gt;Node7 -->
<g id="edge8" class="edge"><title>Node1&#45;&gt;Node7</title>
<path fill="none" stroke="midnightblue" d="M34.8318,-92.7913C43.867,-85.5225 55.0826,-77.2078 66,-71 72.1207,-67.5197 79.0058,-64.3591 85.5799,-61.6583"/>
<polygon fill="midnightblue" stroke="midnightblue" points="32.3931,-90.2663 26.9183,-99.337 36.8547,-95.6602 32.3931,-90.2663"/>
</g>
<!-- Node10 -->
<g id="node10" class="node"><title>Node10</title>
<g id="a_node10"><a xlink:href="mini_d_a_x_8cpp.xhtml#adedb285b02c41bde2158ded9cc9fd7ac" target="_top" xlink:title="main">
<polygon fill="white" stroke="black" points="249,-0.5 249,-19.5 287,-19.5 287,-0.5 249,-0.5"/>
<text text-anchor="middle" x="268" y="-7.5" font-family="Helvetica,sans-Serif" font-size="10.00">main</text>
</a>
</g>
</g>
<!-- Node1&#45;&gt;Node10 -->
<g id="edge12" class="edge"><title>Node1&#45;&gt;Node10</title>
<path fill="none" stroke="midnightblue" d="M23.0282,-89.8596C30.6815,-71.9566 44.7454,-46.0727 66,-33 124.639,3.06574 211.309,-2.61201 248.715,-7.2546"/>
<polygon fill="midnightblue" stroke="midnightblue" points="19.7084,-88.7359 19.257,-99.3212 26.2109,-91.3278 19.7084,-88.7359"/>
</g>
<!-- Node4&#45;&gt;Node2 -->
<g id="edge4" class="edge"><title>Node4&#45;&gt;Node2</title>
<path fill="none" stroke="midnightblue" d="M152.183,-173.339C172.269,-177.303 197.3,-182.243 218.859,-186.498"/>
<polygon fill="midnightblue" stroke="midnightblue" points="152.663,-169.866 142.175,-171.363 151.308,-176.734 152.663,-169.866"/>
</g>
<!-- Node4&#45;&gt;Node3 -->
<g id="edge5" class="edge"><title>Node4&#45;&gt;Node3</title>
<path fill="none" stroke="midnightblue" d="M152.35,-162.314C174.115,-160.166 201.643,-157.45 224.269,-155.217"/>
<polygon fill="midnightblue" stroke="midnightblue" points="151.782,-158.853 142.175,-163.318 152.47,-165.819 151.782,-158.853"/>
</g>
<!-- Node6 -->
<g id="node6" class="node"><title>Node6</title>
<g id="a_node6"><a xlink:href="_g_u_i_2_include_2control_8h.xhtml#ac97643773a87a0ab2f3310730174824f" target="_top" xlink:title="control_cmdline">
<polygon fill="white" stroke="black" points="225.5,-88.5 225.5,-107.5 310.5,-107.5 310.5,-88.5 225.5,-88.5"/>
<text text-anchor="middle" x="268" y="-95.5" font-family="Helvetica,sans-Serif" font-size="10.00">control_cmdline</text>
</a>
</g>
</g>
<!-- Node5&#45;&gt;Node6 -->
<g id="edge7" class="edge"><title>Node5&#45;&gt;Node6</title>
<path fill="none" stroke="midnightblue" d="M172.082,-93.0043C189.809,-93.9373 209.003,-94.9475 225.461,-95.8138"/>
<polygon fill="midnightblue" stroke="midnightblue" points="172.015,-89.4961 161.845,-92.4655 171.647,-96.4864 172.015,-89.4961"/>
</g>
<!-- Node8 -->
<g id="node8" class="node"><title>Node8</title>
<g id="a_node8"><a xlink:href="class_scope_manager.xhtml#adc3b57b668f590969c5379fe27567bba" target="_top" xlink:title="ScopeManager::SetChannel\lTresh">
<polygon fill="white" stroke="black" points="198.5,-39 198.5,-69 337.5,-69 337.5,-39 198.5,-39"/>
<text text-anchor="start" x="206.5" y="-57" font-family="Helvetica,sans-Serif" font-size="10.00">ScopeManager::SetChannel</text>
<text text-anchor="middle" x="268" y="-46" font-family="Helvetica,sans-Serif" font-size="10.00">Tresh</text>
</a>
</g>
</g>
<!-- Node7&#45;&gt;Node8 -->
<g id="edge9" class="edge"><title>Node7&#45;&gt;Node8</title>
<path fill="none" stroke="midnightblue" d="M168.432,-52.703C178.133,-52.8307 188.373,-52.9654 198.438,-53.0979"/>
<polygon fill="midnightblue" stroke="midnightblue" points="168.196,-49.1997 158.151,-52.5678 168.104,-56.1991 168.196,-49.1997"/>
</g>
<!-- Node7&#45;&gt;Node10 -->
<g id="edge11" class="edge"><title>Node7&#45;&gt;Node10</title>
<path fill="none" stroke="midnightblue" d="M159.111,-39.7621C171.675,-36.2804 185.376,-32.4871 198,-29 215.246,-24.236 234.922,-18.8198 248.838,-14.9925"/>
<polygon fill="midnightblue" stroke="midnightblue" points="158.023,-36.4317 149.321,-42.4758 159.893,-43.1773 158.023,-36.4317"/>
</g>
<!-- Node9 -->
<g id="node9" class="node"><title>Node9</title>
<g id="a_node9"><a xlink:href="_multi_d_a_q_8cpp.xhtml#adedb285b02c41bde2158ded9cc9fd7ac" target="_top" xlink:title="main">
<polygon fill="white" stroke="black" points="374,-44.5 374,-63.5 412,-63.5 412,-44.5 374,-44.5"/>
<text text-anchor="middle" x="393" y="-51.5" font-family="Helvetica,sans-Serif" font-size="10.00">main</text>
</a>
</g>
</g>
<!-- Node8&#45;&gt;Node9 -->
<g id="edge10" class="edge"><title>Node8&#45;&gt;Node9</title>
<path fill="none" stroke="midnightblue" d="M347.94,-54C357.599,-54 366.633,-54 373.975,-54"/>
<polygon fill="midnightblue" stroke="midnightblue" points="347.692,-50.5001 337.692,-54 347.692,-57.5001 347.692,-50.5001"/>
</g>
</g>
</svg>
