<?xml version="1.0" encoding="UTF-8" standalone="no"?>
<!DOCTYPE svg PUBLIC "-//W3C//DTD SVG 1.1//EN"
 "http://www.w3.org/Graphics/SVG/1.1/DTD/svg11.dtd">
<!-- Generated by graphviz version 2.36.0 (20140111.2315)
 -->
<!-- Title: errormsg Pages: 1 -->
<svg width="538pt" height="896pt"
 viewBox="0.00 0.00 538.00 896.09" xmlns="http://www.w3.org/2000/svg" xmlns:xlink="http://www.w3.org/1999/xlink">
<g id="graph0" class="graph" transform="scale(1 1) rotate(0) translate(4 892.093)">
<title>errormsg</title>
<polygon fill="white" stroke="none" points="-4,4 -4,-892.093 534,-892.093 534,4 -4,4"/>
<!-- Node1 -->
<g id="node1" class="node"><title>Node1</title>
<polygon fill="#bfbfbf" stroke="black" points="0.5,-380.5 0.5,-399.5 55.5,-399.5 55.5,-380.5 0.5,-380.5"/>
<text text-anchor="middle" x="28" y="-387.5" font-family="Helvetica,sans-Serif" font-size="10.00">errormsg</text>
</g>
<!-- Node2 -->
<g id="node2" class="node"><title>Node2</title>
<g id="a_node2"><a xlink:href="_g_u_i_2_include_2adc_8h.xhtml#a99fcc8dfc3bb71a3cd06f7e6968c12c3" target="_top" xlink:title="adc_analyzebaseline">
<polygon fill="white" stroke="black" points="422.5,-817.5 422.5,-836.5 529.5,-836.5 529.5,-817.5 422.5,-817.5"/>
<text text-anchor="middle" x="476" y="-824.5" font-family="Helvetica,sans-Serif" font-size="10.00">adc_analyzebaseline</text>
</a>
</g>
</g>
<!-- Node1&#45;&gt;Node2 -->
<g id="edge1" class="edge"><title>Node1&#45;&gt;Node2</title>
<path fill="none" stroke="midnightblue" d="M29.3697,-410.078C31.1396,-485.058 40.9391,-747.558 92,-810 176.203,-912.972 255.81,-893.273 386,-866 412.748,-860.397 441.284,-846.267 458.633,-836.647"/>
<polygon fill="midnightblue" stroke="midnightblue" points="32.8613,-409.637 29.1495,-399.713 25.8628,-409.786 32.8613,-409.637"/>
</g>
<!-- Node3 -->
<g id="node3" class="node"><title>Node3</title>
<g id="a_node3"><a xlink:href="_g_u_i_2_include_2adc_8h.xhtml#a2c682c155ee56ca76245bbcb94f54db2" target="_top" xlink:title="adc_closecrates">
<polygon fill="white" stroke="black" points="107,-570.5 107,-589.5 195,-589.5 195,-570.5 107,-570.5"/>
<text text-anchor="middle" x="151" y="-577.5" font-family="Helvetica,sans-Serif" font-size="10.00">adc_closecrates</text>
</a>
</g>
</g>
<!-- Node1&#45;&gt;Node3 -->
<g id="edge2" class="edge"><title>Node1&#45;&gt;Node3</title>
<path fill="none" stroke="midnightblue" d="M30.7484,-409.697C34.9274,-444.984 48.6371,-519.188 92,-561 96.2715,-565.119 101.45,-568.345 106.933,-570.871"/>
<polygon fill="midnightblue" stroke="midnightblue" points="34.2238,-409.279 29.7009,-399.698 27.2619,-410.009 34.2238,-409.279"/>
</g>
<!-- Node4 -->
<g id="node4" class="node"><title>Node4</title>
<g id="a_node4"><a xlink:href="_g_u_i_2_include_2adc_8h.xhtml#a25f6f40f42d10a2ecc7b970155d9eb53" target="_top" xlink:title="adc_getbaseline">
<polygon fill="white" stroke="black" points="432.5,-722.5 432.5,-741.5 519.5,-741.5 519.5,-722.5 432.5,-722.5"/>
<text text-anchor="middle" x="476" y="-729.5" font-family="Helvetica,sans-Serif" font-size="10.00">adc_getbaseline</text>
</a>
</g>
</g>
<!-- Node1&#45;&gt;Node4 -->
<g id="edge3" class="edge"><title>Node1&#45;&gt;Node4</title>
<path fill="none" stroke="midnightblue" d="M28.1944,-409.637C27.6466,-452.047 33.0141,-552.145 92,-599 194.529,-680.443 270.237,-556.812 386,-618 431.063,-641.819 460.622,-699.546 470.93,-722.427"/>
<polygon fill="midnightblue" stroke="midnightblue" points="31.6964,-409.6 28.4574,-399.512 24.6988,-409.418 31.6964,-409.6"/>
</g>
<!-- Node5 -->
<g id="node5" class="node"><title>Node5</title>
<g id="a_node5"><a xlink:href="_g_u_i_2_include_2adc_8h.xhtml#aa357272f6eac8b5f8104ea1237f2e65c" target="_top" xlink:title="adc_mblt">
<polygon fill="white" stroke="black" points="288,-817.5 288,-836.5 344,-836.5 344,-817.5 288,-817.5"/>
<text text-anchor="middle" x="316" y="-824.5" font-family="Helvetica,sans-Serif" font-size="10.00">adc_mblt</text>
</a>
</g>
</g>
<!-- Node1&#45;&gt;Node5 -->
<g id="edge4" class="edge"><title>Node1&#45;&gt;Node5</title>
<path fill="none" stroke="midnightblue" d="M29.5132,-409.662C31.7463,-479.808 42.8563,-716.44 92,-770 143.06,-825.649 240.275,-830.197 287.663,-828.766"/>
<polygon fill="midnightblue" stroke="midnightblue" points="33.0085,-409.448 29.2177,-399.555 26.0115,-409.653 33.0085,-409.448"/>
</g>
<!-- Node6 -->
<g id="node6" class="node"><title>Node6</title>
<g id="a_node6"><a xlink:href="_g_u_i_2_include_2adc_8h.xhtml#a3e167d474fe419a8fe9a69bd27388ccc" target="_top" xlink:title="adc_readreg">
<polygon fill="white" stroke="black" points="116,-665.5 116,-684.5 186,-684.5 186,-665.5 116,-665.5"/>
<text text-anchor="middle" x="151" y="-672.5" font-family="Helvetica,sans-Serif" font-size="10.00">adc_readreg</text>
</a>
</g>
</g>
<!-- Node1&#45;&gt;Node6 -->
<g id="edge7" class="edge"><title>Node1&#45;&gt;Node6</title>
<path fill="none" stroke="midnightblue" d="M29.7823,-409.868C32.3844,-453.667 43.6158,-560.321 92,-632 101.818,-646.545 118.244,-658.042 131.114,-665.474"/>
<polygon fill="midnightblue" stroke="midnightblue" points="33.269,-409.513 29.2711,-399.701 26.2778,-409.865 33.269,-409.513"/>
</g>
<!-- Node10 -->
<g id="node10" class="node"><title>Node10</title>
<g id="a_node10"><a xlink:href="_g_u_i_2_include_2adc_8h.xhtml#ab2c5b38244f3ea85067f83b5d94409f7" target="_top" xlink:title="adc_writereg">
<polygon fill="white" stroke="black" points="115,-741.5 115,-760.5 187,-760.5 187,-741.5 115,-741.5"/>
<text text-anchor="middle" x="151" y="-748.5" font-family="Helvetica,sans-Serif" font-size="10.00">adc_writereg</text>
</a>
</g>
</g>
<!-- Node1&#45;&gt;Node10 -->
<g id="edge16" class="edge"><title>Node1&#45;&gt;Node10</title>
<path fill="none" stroke="midnightblue" d="M29.206,-409.816C30.5224,-460.369 39.0949,-596.978 92,-694 102.814,-713.832 122.767,-731.14 136.211,-741.332"/>
<polygon fill="midnightblue" stroke="midnightblue" points="32.7019,-409.561 29.013,-399.629 25.7032,-409.693 32.7019,-409.561"/>
</g>
<!-- Node11 -->
<g id="node11" class="node"><title>Node11</title>
<g id="a_node11"><a xlink:href="control_8cpp.xhtml#a05821af400d34bbf265b0eb929f4cee8" target="_top" xlink:title="control_calcrate">
<polygon fill="white" stroke="black" points="273,-494.5 273,-513.5 359,-513.5 359,-494.5 273,-494.5"/>
<text text-anchor="middle" x="316" y="-501.5" font-family="Helvetica,sans-Serif" font-size="10.00">control_calcrate</text>
</a>
</g>
</g>
<!-- Node1&#45;&gt;Node11 -->
<g id="edge21" class="edge"><title>Node1&#45;&gt;Node11</title>
<path fill="none" stroke="midnightblue" d="M42.2326,-407.954C53.7829,-422.319 71.8225,-441.843 92,-453 149.52,-484.806 225.869,-496.803 272.662,-501.31"/>
<polygon fill="midnightblue" stroke="midnightblue" points="44.8076,-405.563 35.9184,-399.798 39.2724,-409.848 44.8076,-405.563"/>
</g>
<!-- Node12 -->
<g id="node12" class="node"><title>Node12</title>
<g id="a_node12"><a xlink:href="mini_d_a_x_8cpp.xhtml#adedb285b02c41bde2158ded9cc9fd7ac" target="_top" xlink:title="main">
<polygon fill="white" stroke="black" points="457,-399.5 457,-418.5 495,-418.5 495,-399.5 457,-399.5"/>
<text text-anchor="middle" x="476" y="-406.5" font-family="Helvetica,sans-Serif" font-size="10.00">main</text>
</a>
</g>
</g>
<!-- Node1&#45;&gt;Node12 -->
<g id="edge38" class="edge"><title>Node1&#45;&gt;Node12</title>
<path fill="none" stroke="midnightblue" d="M65.9651,-381.942C131.287,-369.046 271.086,-347.494 386,-371 412.501,-376.421 440.87,-390.053 458.276,-399.424"/>
<polygon fill="midnightblue" stroke="midnightblue" points="64.8724,-378.592 55.7653,-384.006 66.2608,-385.453 64.8724,-378.592"/>
</g>
<!-- Node13 -->
<g id="node13" class="node"><title>Node13</title>
<g id="a_node13"><a xlink:href="_g_u_i_2_include_2control_8h.xhtml#ac97643773a87a0ab2f3310730174824f" target="_top" xlink:title="control_cmdline">
<polygon fill="white" stroke="black" points="108.5,-266.5 108.5,-285.5 193.5,-285.5 193.5,-266.5 108.5,-266.5"/>
<text text-anchor="middle" x="151" y="-273.5" font-family="Helvetica,sans-Serif" font-size="10.00">control_cmdline</text>
</a>
</g>
</g>
<!-- Node1&#45;&gt;Node13 -->
<g id="edge23" class="edge"><title>Node1&#45;&gt;Node13</title>
<path fill="none" stroke="midnightblue" d="M36.9132,-371.02C46.7788,-349.589 65.6167,-315.094 92,-295 97.0577,-291.148 102.931,-288.058 108.959,-285.584"/>
<polygon fill="midnightblue" stroke="midnightblue" points="33.6224,-369.809 32.797,-380.372 40.0292,-372.629 33.6224,-369.809"/>
</g>
<!-- Node14 -->
<g id="node14" class="node"><title>Node14</title>
<g id="a_node14"><a xlink:href="_g_u_i_2_include_2control_8h.xhtml#aeab8b16e95a01d21a60fdf5490f781d2" target="_top" xlink:title="control_configfile">
<polygon fill="white" stroke="black" points="106,-228.5 106,-247.5 196,-247.5 196,-228.5 106,-228.5"/>
<text text-anchor="middle" x="151" y="-235.5" font-family="Helvetica,sans-Serif" font-size="10.00">control_configfile</text>
</a>
</g>
</g>
<!-- Node1&#45;&gt;Node14 -->
<g id="edge24" class="edge"><title>Node1&#45;&gt;Node14</title>
<path fill="none" stroke="midnightblue" d="M33.1237,-370.305C40.1844,-341.39 57.3134,-287.576 92,-257 96.3718,-253.146 101.542,-250.072 106.966,-247.619"/>
<polygon fill="midnightblue" stroke="midnightblue" points="29.6347,-369.864 30.8267,-380.391 36.4599,-371.418 29.6347,-369.864"/>
</g>
<!-- Node15 -->
<g id="node15" class="node"><title>Node15</title>
<g id="a_node15"><a xlink:href="control_8cpp.xhtml#aa8ca64af815f670c76cdb23c3d1af7b4" target="_top" xlink:title="control_generatefilename">
<polygon fill="white" stroke="black" points="253.5,-456.5 253.5,-475.5 378.5,-475.5 378.5,-456.5 253.5,-456.5"/>
<text text-anchor="middle" x="316" y="-463.5" font-family="Helvetica,sans-Serif" font-size="10.00">control_generatefilename</text>
</a>
</g>
</g>
<!-- Node1&#45;&gt;Node15 -->
<g id="edge25" class="edge"><title>Node1&#45;&gt;Node15</title>
<path fill="none" stroke="midnightblue" d="M51.9635,-405.136C63.544,-412.141 78.0607,-419.999 92,-425 144.614,-443.876 207.471,-454.426 253.02,-460.079"/>
<polygon fill="midnightblue" stroke="midnightblue" points="53.7088,-402.1 43.3727,-399.773 50.0017,-408.038 53.7088,-402.1"/>
</g>
<!-- Node16 -->
<g id="node16" class="node"><title>Node16</title>
<g id="a_node16"><a xlink:href="_g_u_i_2_include_2control_8h.xhtml#ab54cec1fc7617fbb69ba6258f0a9f827" target="_top" xlink:title="control_openfile">
<polygon fill="white" stroke="black" points="108.5,-190.5 108.5,-209.5 193.5,-209.5 193.5,-190.5 108.5,-190.5"/>
<text text-anchor="middle" x="151" y="-197.5" font-family="Helvetica,sans-Serif" font-size="10.00">control_openfile</text>
</a>
</g>
</g>
<!-- Node1&#45;&gt;Node16 -->
<g id="edge27" class="edge"><title>Node1&#45;&gt;Node16</title>
<path fill="none" stroke="midnightblue" d="M30.7484,-370.303C34.9274,-335.016 48.6371,-260.812 92,-219 96.6529,-214.514 102.381,-211.086 108.409,-208.468"/>
<polygon fill="midnightblue" stroke="midnightblue" points="27.2619,-369.991 29.7009,-380.302 34.2238,-370.721 27.2619,-369.991"/>
</g>
<!-- Node17 -->
<g id="node17" class="node"><title>Node17</title>
<g id="a_node17"><a xlink:href="_g_u_i_2_include_2control_8h.xhtml#a3ea9dadf648f70197ec522fb6fedc393" target="_top" xlink:title="control_openlog">
<polygon fill="white" stroke="black" points="108.5,-152.5 108.5,-171.5 193.5,-171.5 193.5,-152.5 108.5,-152.5"/>
<text text-anchor="middle" x="151" y="-159.5" font-family="Helvetica,sans-Serif" font-size="10.00">control_openlog</text>
</a>
</g>
</g>
<!-- Node1&#45;&gt;Node17 -->
<g id="edge28" class="edge"><title>Node1&#45;&gt;Node17</title>
<path fill="none" stroke="midnightblue" d="M29.1958,-370.027C30.6953,-328.927 39.967,-234.286 92,-181 96.5897,-176.3 102.358,-172.762 108.465,-170.099"/>
<polygon fill="midnightblue" stroke="midnightblue" points="25.6946,-370.038 28.9499,-380.12 32.6925,-370.209 25.6946,-370.038"/>
</g>
<!-- Node18 -->
<g id="node18" class="node"><title>Node18</title>
<g id="a_node18"><a xlink:href="control_8cpp.xhtml#a9ed3ffa0b795893db43aac7d83f9cd87" target="_top" xlink:title="control_openrawrootfile">
<polygon fill="white" stroke="black" points="92.5,-114.5 92.5,-133.5 209.5,-133.5 209.5,-114.5 92.5,-114.5"/>
<text text-anchor="middle" x="151" y="-121.5" font-family="Helvetica,sans-Serif" font-size="10.00">control_openrawrootfile</text>
</a>
</g>
</g>
<!-- Node1&#45;&gt;Node18 -->
<g id="edge29" class="edge"><title>Node1&#45;&gt;Node18</title>
<path fill="none" stroke="midnightblue" d="M31.5716,-370.214C38.7704,-317.695 60.6682,-176.499 92,-143 95.619,-139.131 100.037,-136.048 104.803,-133.592"/>
<polygon fill="midnightblue" stroke="midnightblue" points="28.0839,-369.889 30.2264,-380.265 35.0221,-370.818 28.0839,-369.889"/>
</g>
<!-- Node19 -->
<g id="node19" class="node"><title>Node19</title>
<g id="a_node19"><a xlink:href="_g_u_i_2_include_2control_8h.xhtml#ab5bd42385627821b5bbe8f172adc9d10" target="_top" xlink:title="control_scfile">
<polygon fill="white" stroke="black" points="114,-532.5 114,-551.5 188,-551.5 188,-532.5 114,-532.5"/>
<text text-anchor="middle" x="151" y="-539.5" font-family="Helvetica,sans-Serif" font-size="10.00">control_scfile</text>
</a>
</g>
</g>
<!-- Node1&#45;&gt;Node19 -->
<g id="edge30" class="edge"><title>Node1&#45;&gt;Node19</title>
<path fill="none" stroke="midnightblue" d="M33.8617,-409.449C41.6948,-437.065 59.6097,-487.651 92,-518 98.6003,-524.184 107.018,-528.881 115.38,-532.405"/>
<polygon fill="midnightblue" stroke="midnightblue" points="37.236,-408.519 31.265,-399.767 30.4749,-410.332 37.236,-408.519"/>
</g>
<!-- Node20 -->
<g id="node20" class="node"><title>Node20</title>
<g id="a_node20"><a xlink:href="graph_8cpp.xhtml#a47ba0a65658fc0ac6b76a02e4bb0918e" target="_top" xlink:title="graph_checkkey">
<polygon fill="white" stroke="black" points="107,-304.5 107,-323.5 195,-323.5 195,-304.5 107,-304.5"/>
<text text-anchor="middle" x="151" y="-311.5" font-family="Helvetica,sans-Serif" font-size="10.00">graph_checkkey</text>
</a>
</g>
</g>
<!-- Node1&#45;&gt;Node20 -->
<g id="edge32" class="edge"><title>Node1&#45;&gt;Node20</title>
<path fill="none" stroke="midnightblue" d="M46.5207,-373.105C58.5985,-362.094 75.4079,-347.973 92,-338 101.434,-332.33 112.451,-327.398 122.335,-323.505"/>
<polygon fill="midnightblue" stroke="midnightblue" points="43.9018,-370.762 38.9759,-380.142 48.6762,-375.881 43.9018,-370.762"/>
</g>
<!-- Node23 -->
<g id="node23" class="node"><title>Node23</title>
<g id="a_node23"><a xlink:href="graph_8cpp.xhtml#a9d8410ccb8c9da421a55cc7cb556533b" target="_top" xlink:title="graph_display">
<polygon fill="white" stroke="black" points="277.5,-418.5 277.5,-437.5 354.5,-437.5 354.5,-418.5 277.5,-418.5"/>
<text text-anchor="middle" x="316" y="-425.5" font-family="Helvetica,sans-Serif" font-size="10.00">graph_display</text>
</a>
</g>
</g>
<!-- Node1&#45;&gt;Node23 -->
<g id="edge36" class="edge"><title>Node1&#45;&gt;Node23</title>
<path fill="none" stroke="midnightblue" d="M65.3965,-398.812C74.078,-400.712 83.3384,-402.576 92,-404 156.743,-414.644 232.868,-421.673 277.344,-425.236"/>
<polygon fill="midnightblue" stroke="midnightblue" points="66.0668,-395.375 55.5416,-396.587 64.5256,-402.203 66.0668,-395.375"/>
</g>
<!-- Node24 -->
<g id="node24" class="node"><title>Node24</title>
<g id="a_node24"><a xlink:href="mini_d_a_x_8cpp.xhtml#a273bf08d28499853f9fd74863447d6ac" target="_top" xlink:title="sigproc">
<polygon fill="white" stroke="black" points="292,-380.5 292,-399.5 340,-399.5 340,-380.5 292,-380.5"/>
<text text-anchor="middle" x="316" y="-387.5" font-family="Helvetica,sans-Serif" font-size="10.00">sigproc</text>
</a>
</g>
</g>
<!-- Node1&#45;&gt;Node24 -->
<g id="edge39" class="edge"><title>Node1&#45;&gt;Node24</title>
<path fill="none" stroke="midnightblue" d="M65.7912,-390C125.663,-390 242.456,-390 291.95,-390"/>
<polygon fill="midnightblue" stroke="midnightblue" points="65.6494,-386.5 55.6494,-390 65.6493,-393.5 65.6494,-386.5"/>
</g>
<!-- Node25 -->
<g id="node25" class="node"><title>Node25</title>
<g id="a_node25"><a xlink:href="_x_d_a_q_2_core_2_source_2xml_8cpp.xhtml#a294ca441881dbf9ed73205366e498465" target="_top" xlink:title="xml_error">
<polygon fill="white" stroke="black" points="122.5,-76.5 122.5,-95.5 179.5,-95.5 179.5,-76.5 122.5,-76.5"/>
<text text-anchor="middle" x="151" y="-83.5" font-family="Helvetica,sans-Serif" font-size="10.00">xml_error</text>
</a>
</g>
</g>
<!-- Node1&#45;&gt;Node25 -->
<g id="edge41" class="edge"><title>Node1&#45;&gt;Node25</title>
<path fill="none" stroke="midnightblue" d="M30.8342,-370.299C36.5974,-312.443 56.1253,-144.615 92,-105 99.7526,-96.439 111.418,-91.7238 122.259,-89.1314"/>
<polygon fill="midnightblue" stroke="midnightblue" points="27.3427,-370.043 29.8643,-380.334 34.3102,-370.717 27.3427,-370.043"/>
</g>
<!-- Node26 -->
<g id="node26" class="node"><title>Node26</title>
<g id="a_node26"><a xlink:href="_x_d_a_q_2_core_2_source_2xml_8cpp.xhtml#a529bbf1c65c6dd055ba0620b7e7000ed" target="_top" xlink:title="xml_readsettings">
<polygon fill="white" stroke="black" points="105.5,-38.5 105.5,-57.5 196.5,-57.5 196.5,-38.5 105.5,-38.5"/>
<text text-anchor="middle" x="151" y="-45.5" font-family="Helvetica,sans-Serif" font-size="10.00">xml_readsettings</text>
</a>
</g>
</g>
<!-- Node1&#45;&gt;Node26 -->
<g id="edge42" class="edge"><title>Node1&#45;&gt;Node26</title>
<path fill="none" stroke="midnightblue" d="M30.2819,-370.205C34.7453,-307.197 51.5898,-112.757 92,-67 95.7175,-62.7907 100.382,-59.5099 105.441,-56.9536"/>
<polygon fill="midnightblue" stroke="midnightblue" points="26.7769,-370.161 29.5897,-380.375 33.7607,-370.636 26.7769,-370.161"/>
</g>
<!-- Node27 -->
<g id="node27" class="node"><title>Node27</title>
<g id="a_node27"><a xlink:href="_x_d_a_q_2_g_u_i_2_include_2xml_8h.xhtml#a187b952bef7db4d0c253dfee5f8dda6b" target="_top" xlink:title="xml_storefile">
<polygon fill="white" stroke="black" points="115,-0.5 115,-19.5 187,-19.5 187,-0.5 115,-0.5"/>
<text text-anchor="middle" x="151" y="-7.5" font-family="Helvetica,sans-Serif" font-size="10.00">xml_storefile</text>
</a>
</g>
</g>
<!-- Node1&#45;&gt;Node27 -->
<g id="edge43" class="edge"><title>Node1&#45;&gt;Node27</title>
<path fill="none" stroke="midnightblue" d="M29.8397,-370.122C33.0958,-302.243 47.0292,-80.9512 92,-29 97.8947,-22.1904 106.269,-17.8081 114.827,-14.992"/>
<polygon fill="midnightblue" stroke="midnightblue" points="26.3349,-370.152 29.3779,-380.3 33.3277,-370.469 26.3349,-370.152"/>
</g>
<!-- Node5&#45;&gt;Node2 -->
<g id="edge5" class="edge"><title>Node5&#45;&gt;Node2</title>
<path fill="none" stroke="midnightblue" d="M354.268,-827C374.578,-827 400.05,-827 422.357,-827"/>
<polygon fill="midnightblue" stroke="midnightblue" points="354.161,-823.5 344.161,-827 354.161,-830.5 354.161,-823.5"/>
</g>
<!-- Node5&#45;&gt;Node4 -->
<g id="edge6" class="edge"><title>Node5&#45;&gt;Node4</title>
<path fill="none" stroke="midnightblue" d="M354.157,-819.949C364.808,-817.094 376.185,-813.207 386,-808 419.565,-790.194 451.583,-757.849 466.404,-741.707"/>
<polygon fill="midnightblue" stroke="midnightblue" points="353.123,-816.599 344.244,-822.379 354.789,-823.398 353.123,-816.599"/>
</g>
<!-- Node6&#45;&gt;Node4 -->
<g id="edge14" class="edge"><title>Node6&#45;&gt;Node4</title>
<path fill="none" stroke="midnightblue" d="M196.532,-674.389C244.121,-674.71 321.44,-678.045 386,-694 411.77,-700.369 439.632,-713.351 457.188,-722.357"/>
<polygon fill="midnightblue" stroke="midnightblue" points="196.272,-670.889 186.263,-674.364 196.254,-677.889 196.272,-670.889"/>
</g>
<!-- Node7 -->
<g id="node7" class="node"><title>Node7</title>
<g id="a_node7"><a xlink:href="_g_u_i_2_include_2adc_8h.xhtml#a8e0f9bdd9b130dd38116dfaba6e94795" target="_top" xlink:title="adc_disable">
<polygon fill="white" stroke="black" points="282,-703.5 282,-722.5 350,-722.5 350,-703.5 282,-703.5"/>
<text text-anchor="middle" x="316" y="-710.5" font-family="Helvetica,sans-Serif" font-size="10.00">adc_disable</text>
</a>
</g>
</g>
<!-- Node6&#45;&gt;Node7 -->
<g id="edge8" class="edge"><title>Node6&#45;&gt;Node7</title>
<path fill="none" stroke="midnightblue" d="M196.162,-685.296C223.217,-691.603 257.276,-699.543 281.988,-705.304"/>
<polygon fill="midnightblue" stroke="midnightblue" points="196.704,-681.828 186.17,-682.966 195.114,-688.645 196.704,-681.828"/>
</g>
<!-- Node8 -->
<g id="node8" class="node"><title>Node8</title>
<g id="a_node8"><a xlink:href="_g_u_i_2_include_2adc_8h.xhtml#a94f95e39919b3b5969d4231bf5103079" target="_top" xlink:title="adc_enable">
<polygon fill="white" stroke="black" points="283,-779.5 283,-798.5 349,-798.5 349,-779.5 283,-779.5"/>
<text text-anchor="middle" x="316" y="-786.5" font-family="Helvetica,sans-Serif" font-size="10.00">adc_enable</text>
</a>
</g>
</g>
<!-- Node6&#45;&gt;Node8 -->
<g id="edge11" class="edge"><title>Node6&#45;&gt;Node8</title>
<path fill="none" stroke="midnightblue" d="M173.976,-690.37C208.067,-714.213 272.717,-759.428 301.076,-779.262"/>
<polygon fill="midnightblue" stroke="midnightblue" points="175.818,-687.387 165.617,-684.523 171.806,-693.123 175.818,-687.387"/>
</g>
<!-- Node9 -->
<g id="node9" class="node"><title>Node9</title>
<g id="a_node9"><a xlink:href="_g_u_i_2_include_2adc_8h.xhtml#ad4af88f42a1f3b3bc615ab5543f614a3" target="_top" xlink:title="adc_init">
<polygon fill="white" stroke="black" points="291,-627.5 291,-646.5 341,-646.5 341,-627.5 291,-627.5"/>
<text text-anchor="middle" x="316" y="-634.5" font-family="Helvetica,sans-Serif" font-size="10.00">adc_init</text>
</a>
</g>
</g>
<!-- Node6&#45;&gt;Node9 -->
<g id="edge15" class="edge"><title>Node6&#45;&gt;Node9</title>
<path fill="none" stroke="midnightblue" d="M196.136,-664.711C226.63,-657.602 266.03,-648.416 290.916,-642.615"/>
<polygon fill="midnightblue" stroke="midnightblue" points="195.114,-661.355 186.17,-667.034 196.704,-668.172 195.114,-661.355"/>
</g>
<!-- Node7&#45;&gt;Node2 -->
<g id="edge9" class="edge"><title>Node7&#45;&gt;Node2</title>
<path fill="none" stroke="midnightblue" d="M338.726,-728.675C371.88,-752.597 434.131,-797.512 461.503,-817.262"/>
<polygon fill="midnightblue" stroke="midnightblue" points="340.357,-725.536 330.199,-722.523 336.261,-731.213 340.357,-725.536"/>
</g>
<!-- Node7&#45;&gt;Node4 -->
<g id="edge10" class="edge"><title>Node7&#45;&gt;Node4</title>
<path fill="none" stroke="midnightblue" d="M360.058,-718.178C382.515,-720.878 409.897,-724.171 432.301,-726.865"/>
<polygon fill="midnightblue" stroke="midnightblue" points="360.468,-714.702 350.122,-716.983 359.633,-721.652 360.468,-714.702"/>
</g>
<!-- Node8&#45;&gt;Node2 -->
<g id="edge12" class="edge"><title>Node8&#45;&gt;Node2</title>
<path fill="none" stroke="midnightblue" d="M359.117,-799.129C382.789,-804.823 412.159,-811.886 435.407,-817.478"/>
<polygon fill="midnightblue" stroke="midnightblue" points="359.896,-795.717 349.355,-796.782 358.259,-802.523 359.896,-795.717"/>
</g>
<!-- Node8&#45;&gt;Node4 -->
<g id="edge13" class="edge"><title>Node8&#45;&gt;Node4</title>
<path fill="none" stroke="midnightblue" d="M354.423,-776.139C364.675,-772.573 375.779,-768.672 386,-765 407.557,-757.255 431.943,-748.192 449.731,-741.525"/>
<polygon fill="midnightblue" stroke="midnightblue" points="353.213,-772.854 344.911,-779.436 355.506,-779.468 353.213,-772.854"/>
</g>
<!-- Node10&#45;&gt;Node2 -->
<g id="edge17" class="edge"><title>Node10&#45;&gt;Node2</title>
<path fill="none" stroke="midnightblue" d="M163.281,-769.202C178.698,-792.141 208.737,-830.45 246,-846 315.031,-874.808 405.787,-851.224 449.414,-836.541"/>
<polygon fill="midnightblue" stroke="midnightblue" points="166.14,-767.178 157.76,-760.695 160.268,-770.989 166.14,-767.178"/>
</g>
<!-- Node10&#45;&gt;Node4 -->
<g id="edge20" class="edge"><title>Node10&#45;&gt;Node4</title>
<path fill="none" stroke="midnightblue" d="M197.517,-748.323C260.02,-744.646 371.578,-738.084 432.47,-734.502"/>
<polygon fill="midnightblue" stroke="midnightblue" points="196.959,-744.849 187.182,-748.93 197.37,-751.837 196.959,-744.849"/>
</g>
<!-- Node10&#45;&gt;Node7 -->
<g id="edge18" class="edge"><title>Node10&#45;&gt;Node7</title>
<path fill="none" stroke="midnightblue" d="M197.302,-740.439C224.144,-734.181 257.561,-726.391 281.922,-720.711"/>
<polygon fill="midnightblue" stroke="midnightblue" points="196.313,-737.075 187.369,-742.755 197.902,-743.893 196.313,-737.075"/>
</g>
<!-- Node10&#45;&gt;Node8 -->
<g id="edge19" class="edge"><title>Node10&#45;&gt;Node8</title>
<path fill="none" stroke="midnightblue" d="M197.405,-761.585C224.533,-767.909 258.347,-775.792 282.743,-781.48"/>
<polygon fill="midnightblue" stroke="midnightblue" points="197.902,-758.107 187.369,-759.245 196.313,-764.925 197.902,-758.107"/>
</g>
<!-- Node11&#45;&gt;Node12 -->
<g id="edge22" class="edge"><title>Node11&#45;&gt;Node12</title>
<path fill="none" stroke="midnightblue" d="M369.181,-492.295C375.002,-490.214 380.726,-487.798 386,-485 419.565,-467.194 451.583,-434.849 466.404,-418.707"/>
<polygon fill="midnightblue" stroke="midnightblue" points="367.787,-489.068 359.358,-495.486 369.95,-495.725 367.787,-489.068"/>
</g>
<!-- Node15&#45;&gt;Node12 -->
<g id="edge26" class="edge"><title>Node15&#45;&gt;Node12</title>
<path fill="none" stroke="midnightblue" d="M365.349,-453.58C372.325,-451.529 379.38,-449.313 386,-447 411.06,-438.245 439.088,-425.822 456.875,-417.593"/>
<polygon fill="midnightblue" stroke="midnightblue" points="363.904,-450.352 355.245,-456.456 365.821,-457.084 363.904,-450.352"/>
</g>
<!-- Node19&#45;&gt;Node11 -->
<g id="edge31" class="edge"><title>Node19&#45;&gt;Node11</title>
<path fill="none" stroke="midnightblue" d="M198.079,-531.258C221.984,-525.685 250.936,-518.935 274.049,-513.547"/>
<polygon fill="midnightblue" stroke="midnightblue" points="197.119,-527.887 188.175,-533.567 198.709,-534.705 197.119,-527.887"/>
</g>
<!-- Node20&#45;&gt;Node12 -->
<g id="edge35" class="edge"><title>Node20&#45;&gt;Node12</title>
<path fill="none" stroke="midnightblue" d="M205.188,-311.082C254.001,-310.316 327.41,-314.068 386,-338 420.217,-351.977 451.934,-383.419 466.546,-399.353"/>
<polygon fill="midnightblue" stroke="midnightblue" points="205.078,-307.583 195.159,-311.308 205.236,-314.582 205.078,-307.583"/>
</g>
<!-- Node21 -->
<g id="node21" class="node"><title>Node21</title>
<g id="a_node21"><a xlink:href="class_scope_manager.xhtml#adc3b57b668f590969c5379fe27567bba" target="_top" xlink:title="ScopeManager::SetChannel\lTresh">
<polygon fill="white" stroke="black" points="246.5,-255 246.5,-285 385.5,-285 385.5,-255 246.5,-255"/>
<text text-anchor="start" x="254.5" y="-273" font-family="Helvetica,sans-Serif" font-size="10.00">ScopeManager::SetChannel</text>
<text text-anchor="middle" x="316" y="-262" font-family="Helvetica,sans-Serif" font-size="10.00">Tresh</text>
</a>
</g>
</g>
<!-- Node20&#45;&gt;Node21 -->
<g id="edge33" class="edge"><title>Node20&#45;&gt;Node21</title>
<path fill="none" stroke="midnightblue" d="M197.08,-301.831C216.301,-296.643 238.926,-290.535 259.19,-285.065"/>
<polygon fill="midnightblue" stroke="midnightblue" points="196.111,-298.467 187.369,-304.453 197.935,-305.226 196.111,-298.467"/>
</g>
<!-- Node22 -->
<g id="node22" class="node"><title>Node22</title>
<g id="a_node22"><a xlink:href="_multi_d_a_q_8cpp.xhtml#adedb285b02c41bde2158ded9cc9fd7ac" target="_top" xlink:title="main">
<polygon fill="white" stroke="black" points="457,-260.5 457,-279.5 495,-279.5 495,-260.5 457,-260.5"/>
<text text-anchor="middle" x="476" y="-267.5" font-family="Helvetica,sans-Serif" font-size="10.00">main</text>
</a>
</g>
</g>
<!-- Node21&#45;&gt;Node22 -->
<g id="edge34" class="edge"><title>Node21&#45;&gt;Node22</title>
<path fill="none" stroke="midnightblue" d="M395.925,-270C418.694,-270 441.472,-270 456.692,-270"/>
<polygon fill="midnightblue" stroke="midnightblue" points="395.842,-266.5 385.841,-270 395.841,-273.5 395.842,-266.5"/>
</g>
<!-- Node23&#45;&gt;Node12 -->
<g id="edge37" class="edge"><title>Node23&#45;&gt;Node12</title>
<path fill="none" stroke="midnightblue" d="M365.052,-422.222C396.108,-418.487 434.743,-413.841 456.968,-411.168"/>
<polygon fill="midnightblue" stroke="midnightblue" points="364.356,-418.78 354.845,-423.449 365.191,-425.73 364.356,-418.78"/>
</g>
<!-- Node24&#45;&gt;Node12 -->
<g id="edge40" class="edge"><title>Node24&#45;&gt;Node12</title>
<path fill="none" stroke="midnightblue" d="M350.269,-394.001C382.788,-397.911 431.074,-403.718 456.996,-406.835"/>
<polygon fill="midnightblue" stroke="midnightblue" points="350.66,-390.523 340.313,-392.804 349.824,-397.472 350.66,-390.523"/>
</g>
</g>
</svg>
