<?xml version="1.0" encoding="UTF-8" standalone="no"?>
<!DOCTYPE svg PUBLIC "-//W3C//DTD SVG 1.1//EN"
 "http://www.w3.org/Graphics/SVG/1.1/DTD/svg11.dtd">
<!-- Generated by graphviz version 2.36.0 (20140111.2315)
 -->
<!-- Title: control_gettimestring Pages: 1 -->
<!--zoomable 370 -->
<svg id="main" version="1.1" xmlns="http://www.w3.org/2000/svg" xmlns:xlink="http://www.w3.org/1999/xlink" xml:space="preserve" onload="init(evt)">
<style type="text/css"><![CDATA[
.edge:hover path { stroke: red; }
.edge:hover polygon { stroke: red; fill: red; }
]]></style>
<script type="text/javascript"><![CDATA[
var edges = document.getElementsByTagName('g');
if (edges && edges.length) {
  for (var i=0;i<edges.length;i++) {
    if (edges[i].id.substr(0,4)=='edge') {
      edges[i].setAttribute('class','edge');
    }
  }
}
]]></script>
        <defs>
                <circle id="rim" cx="0" cy="0" r="7"/>
                <circle id="rim2" cx="0" cy="0" r="3.5"/>
                <g id="zoomPlus">
                        <use xlink:href="#rim" fill="#404040">
                                <set attributeName="fill" to="#808080" begin="zoomplus.mouseover" end="zoomplus.mouseout"/>
                        </use>
                        <path d="M-4,0h8M0,-4v8" fill="none" stroke="white" stroke-width="1.5" pointer-events="none"/>
                </g>
                <g id="zoomMin">
                        <use xlink:href="#rim" fill="#404040">
                                <set attributeName="fill" to="#808080" begin="zoomminus.mouseover" end="zoomminus.mouseout"/>
                        </use>
                        <path d="M-4,0h8" fill="none" stroke="white" stroke-width="1.5" pointer-events="none"/>
                </g>
                <g id="dirArrow">
                        <path fill="none" stroke="white" stroke-width="1.5" d="M0,-3.0v7 M-2.5,-0.5L0,-3.0L2.5,-0.5"/>
                </g>
               <g id="resetDef">
                       <use xlink:href="#rim2" fill="#404040">
                               <set attributeName="fill" to="#808080" begin="reset.mouseover" end="reset.mouseout"/>
                       </use>
               </g>
        </defs>

<script type="text/javascript">
var viewWidth = 834;
var viewHeight = 370;
var sectionId = 'dynsection-15';
</script>
<script xlink:href="svgpan.js"/>
<svg id="graph" class="graph">
<g id="viewport">
<title>control_gettimestring</title>
<polygon fill="white" stroke="none" points="-4,4 -4,-366 830,-366 830,4 -4,4"/>
<!-- Node1 -->
<g id="node1" class="node"><title>Node1</title>
<polygon fill="#bfbfbf" stroke="black" points="0.5,-209.5 0.5,-228.5 107.5,-228.5 107.5,-209.5 0.5,-209.5"/>
<text text-anchor="middle" x="54" y="-216.5" font-family="Helvetica,sans-Serif" font-size="10.00">control_gettimestring</text>
</g>
<!-- Node2 -->
<g id="node2" class="node"><title>Node2</title>
<g id="a_node2"><a xlink:href="_g_u_i_2_include_2adc_8h.xhtml#a99fcc8dfc3bb71a3cd06f7e6968c12c3" target="_top" xlink:title="adc_analyzebaseline">
<polygon fill="white" stroke="black" points="144.5,-342.5 144.5,-361.5 251.5,-361.5 251.5,-342.5 144.5,-342.5"/>
<text text-anchor="middle" x="198" y="-349.5" font-family="Helvetica,sans-Serif" font-size="10.00">adc_analyzebaseline</text>
</a>
</g>
</g>
<!-- Node1&#45;&gt;Node2 -->
<g id="edge1" class="edge"><title>Node1&#45;&gt;Node2</title>
<path fill="none" stroke="midnightblue" d="M65.0133,-237.614C79.3694,-262.65 108.076,-307.022 144,-333 149.307,-336.838 155.466,-339.968 161.669,-342.498"/>
<polygon fill="midnightblue" stroke="midnightblue" points="67.9994,-235.783 60.0715,-228.754 61.8861,-239.193 67.9994,-235.783"/>
</g>
<!-- Node3 -->
<g id="node3" class="node"><title>Node3</title>
<g id="a_node3"><a xlink:href="_g_u_i_2_include_2adc_8h.xhtml#a25f6f40f42d10a2ecc7b970155d9eb53" target="_top" xlink:title="adc_getbaseline">
<polygon fill="white" stroke="black" points="154.5,-304.5 154.5,-323.5 241.5,-323.5 241.5,-304.5 154.5,-304.5"/>
<text text-anchor="middle" x="198" y="-311.5" font-family="Helvetica,sans-Serif" font-size="10.00">adc_getbaseline</text>
</a>
</g>
</g>
<!-- Node1&#45;&gt;Node3 -->
<g id="edge2" class="edge"><title>Node1&#45;&gt;Node3</title>
<path fill="none" stroke="midnightblue" d="M72.9577,-235.548C90.2629,-250.939 117.633,-273.86 144,-290 152.96,-295.484 163.387,-300.474 172.61,-304.465"/>
<polygon fill="midnightblue" stroke="midnightblue" points="75.0897,-232.758 65.3194,-228.66 70.4018,-237.956 75.0897,-232.758"/>
</g>
<!-- Node4 -->
<g id="node4" class="node"><title>Node4</title>
<g id="a_node4"><a xlink:href="_g_u_i_2_include_2control_8h.xhtml#ac97643773a87a0ab2f3310730174824f" target="_top" xlink:title="control_cmdline">
<polygon fill="white" stroke="black" points="524.5,-266.5 524.5,-285.5 609.5,-285.5 609.5,-266.5 524.5,-266.5"/>
<text text-anchor="middle" x="567" y="-273.5" font-family="Helvetica,sans-Serif" font-size="10.00">control_cmdline</text>
</a>
</g>
</g>
<!-- Node1&#45;&gt;Node4 -->
<g id="edge3" class="edge"><title>Node1&#45;&gt;Node4</title>
<path fill="none" stroke="midnightblue" d="M104.673,-230.71C117.434,-233.414 131.18,-236.062 144,-238 282.558,-258.95 448.583,-269.763 524.471,-273.925"/>
<polygon fill="midnightblue" stroke="midnightblue" points="105.201,-227.243 94.686,-228.542 103.716,-234.084 105.201,-227.243"/>
</g>
<!-- Node5 -->
<g id="node5" class="node"><title>Node5</title>
<g id="a_node5"><a xlink:href="_g_u_i_2_include_2control_8h.xhtml#a11fd8ef2164efa9242cf82c35c240992" target="_top" xlink:title="control_cnts2log">
<polygon fill="white" stroke="black" points="288,-0.5 288,-19.5 376,-19.5 376,-0.5 288,-0.5"/>
<text text-anchor="middle" x="332" y="-7.5" font-family="Helvetica,sans-Serif" font-size="10.00">control_cnts2log</text>
</a>
</g>
</g>
<!-- Node1&#45;&gt;Node5 -->
<g id="edge4" class="edge"><title>Node1&#45;&gt;Node5</title>
<path fill="none" stroke="midnightblue" d="M61.1535,-199.485C72.3558,-167.124 99.1539,-102.418 144,-67 185.95,-33.8688 247.064,-19.9292 287.882,-14.1072"/>
<polygon fill="midnightblue" stroke="midnightblue" points="57.7804,-198.537 57.9488,-209.13 64.4233,-200.744 57.7804,-198.537"/>
</g>
<!-- Node6 -->
<g id="node6" class="node"><title>Node6</title>
<g id="a_node6"><a xlink:href="control_8cpp.xhtml#aa8ca64af815f670c76cdb23c3d1af7b4" target="_top" xlink:title="control_generatefilename">
<polygon fill="white" stroke="black" points="504.5,-228.5 504.5,-247.5 629.5,-247.5 629.5,-228.5 504.5,-228.5"/>
<text text-anchor="middle" x="567" y="-235.5" font-family="Helvetica,sans-Serif" font-size="10.00">control_generatefilename</text>
</a>
</g>
</g>
<!-- Node1&#45;&gt;Node6 -->
<g id="edge5" class="edge"><title>Node1&#45;&gt;Node6</title>
<path fill="none" stroke="midnightblue" d="M117.887,-221.338C216.57,-225.007 406.607,-232.073 504.455,-235.712"/>
<polygon fill="midnightblue" stroke="midnightblue" points="117.884,-217.836 107.761,-220.962 117.624,-224.831 117.884,-217.836"/>
</g>
<!-- Node8 -->
<g id="node8" class="node"><title>Node8</title>
<g id="a_node8"><a xlink:href="_g_u_i_2_include_2control_8h.xhtml#a3ea9dadf648f70197ec522fb6fedc393" target="_top" xlink:title="control_openlog">
<polygon fill="white" stroke="black" points="524.5,-152.5 524.5,-171.5 609.5,-171.5 609.5,-152.5 524.5,-152.5"/>
<text text-anchor="middle" x="567" y="-159.5" font-family="Helvetica,sans-Serif" font-size="10.00">control_openlog</text>
</a>
</g>
</g>
<!-- Node1&#45;&gt;Node8 -->
<g id="edge7" class="edge"><title>Node1&#45;&gt;Node8</title>
<path fill="none" stroke="midnightblue" d="M117.877,-210.301C126.646,-209.152 135.545,-208.021 144,-207 283.165,-190.201 448.553,-173.518 524.328,-166.056"/>
<polygon fill="midnightblue" stroke="midnightblue" points="117.132,-206.869 107.678,-211.651 118.051,-213.808 117.132,-206.869"/>
</g>
<!-- Node9 -->
<g id="node9" class="node"><title>Node9</title>
<g id="a_node9"><a xlink:href="_g_u_i_2_include_2control_8h.xhtml#a6d31350db95da2e061ef2ef9ad11402e" target="_top" xlink:title="control_printlog">
<polygon fill="white" stroke="black" points="156.5,-76.5 156.5,-95.5 239.5,-95.5 239.5,-76.5 156.5,-76.5"/>
<text text-anchor="middle" x="198" y="-83.5" font-family="Helvetica,sans-Serif" font-size="10.00">control_printlog</text>
</a>
</g>
</g>
<!-- Node1&#45;&gt;Node9 -->
<g id="edge8" class="edge"><title>Node1&#45;&gt;Node9</title>
<path fill="none" stroke="midnightblue" d="M72.8273,-202.303C102.801,-174.229 162.377,-118.428 186.497,-95.8372"/>
<polygon fill="midnightblue" stroke="midnightblue" points="70.1183,-200.044 65.2123,-209.435 74.9035,-205.153 70.1183,-200.044"/>
</g>
<!-- Node16 -->
<g id="node16" class="node"><title>Node16</title>
<g id="a_node16"><a xlink:href="_g_u_i_2_include_2control_8h.xhtml#ab5bd42385627821b5bbe8f172adc9d10" target="_top" xlink:title="control_scfile">
<polygon fill="white" stroke="black" points="530,-190.5 530,-209.5 604,-209.5 604,-190.5 530,-190.5"/>
<text text-anchor="middle" x="567" y="-197.5" font-family="Helvetica,sans-Serif" font-size="10.00">control_scfile</text>
</a>
</g>
</g>
<!-- Node1&#45;&gt;Node16 -->
<g id="edge24" class="edge"><title>Node1&#45;&gt;Node16</title>
<path fill="none" stroke="midnightblue" d="M117.874,-216.662C225.99,-212.642 443.789,-204.544 529.838,-201.345"/>
<polygon fill="midnightblue" stroke="midnightblue" points="117.624,-213.169 107.761,-217.038 117.884,-220.164 117.624,-213.169"/>
</g>
<!-- Node7 -->
<g id="node7" class="node"><title>Node7</title>
<g id="a_node7"><a xlink:href="mini_d_a_x_8cpp.xhtml#adedb285b02c41bde2158ded9cc9fd7ac" target="_top" xlink:title="main">
<polygon fill="white" stroke="black" points="788,-209.5 788,-228.5 826,-228.5 826,-209.5 788,-209.5"/>
<text text-anchor="middle" x="807" y="-216.5" font-family="Helvetica,sans-Serif" font-size="10.00">main</text>
</a>
</g>
</g>
<!-- Node6&#45;&gt;Node7 -->
<g id="edge6" class="edge"><title>Node6&#45;&gt;Node7</title>
<path fill="none" stroke="midnightblue" d="M639.682,-232.278C691.099,-228.173 756.595,-222.944 787.834,-220.45"/>
<polygon fill="midnightblue" stroke="midnightblue" points="639.29,-228.798 629.6,-233.082 639.847,-235.775 639.29,-228.798"/>
</g>
<!-- Node9&#45;&gt;Node5 -->
<g id="edge9" class="edge"><title>Node9&#45;&gt;Node5</title>
<path fill="none" stroke="midnightblue" d="M223.991,-71.2217C241.787,-60.7414 266.298,-46.3947 288,-34 296.315,-29.2512 305.585,-24.0638 313.382,-19.7306"/>
<polygon fill="midnightblue" stroke="midnightblue" points="222.183,-68.2245 215.347,-76.319 225.739,-74.2542 222.183,-68.2245"/>
</g>
<!-- Node10 -->
<g id="node10" class="node"><title>Node10</title>
<g id="a_node10"><a xlink:href="_g_u_i_2_include_2control_8h.xhtml#a42c6ce88a95e362f9f257d90bbf8de32" target="_top" xlink:title="control_log">
<polygon fill="white" stroke="black" points="300,-114.5 300,-133.5 364,-133.5 364,-114.5 300,-114.5"/>
<text text-anchor="middle" x="332" y="-121.5" font-family="Helvetica,sans-Serif" font-size="10.00">control_log</text>
</a>
</g>
</g>
<!-- Node9&#45;&gt;Node10 -->
<g id="edge10" class="edge"><title>Node9&#45;&gt;Node10</title>
<path fill="none" stroke="midnightblue" d="M242.164,-98.4259C261.03,-103.857 282.735,-110.106 299.968,-115.067"/>
<polygon fill="midnightblue" stroke="midnightblue" points="242.887,-94.9921 232.309,-95.589 240.951,-101.719 242.887,-94.9921"/>
</g>
<!-- Node14 -->
<g id="node14" class="node"><title>Node14</title>
<g id="a_node14"><a xlink:href="_g_u_i_2_include_2control_8h.xhtml#ab54cec1fc7617fbb69ba6258f0a9f827" target="_top" xlink:title="control_openfile">
<polygon fill="white" stroke="black" points="524.5,-38.5 524.5,-57.5 609.5,-57.5 609.5,-38.5 524.5,-38.5"/>
<text text-anchor="middle" x="567" y="-45.5" font-family="Helvetica,sans-Serif" font-size="10.00">control_openfile</text>
</a>
</g>
</g>
<!-- Node9&#45;&gt;Node14 -->
<g id="edge22" class="edge"><title>Node9&#45;&gt;Node14</title>
<path fill="none" stroke="midnightblue" d="M249.657,-82.2841C303.791,-78.1254 392.085,-70.8028 468,-62 486.438,-59.862 506.761,-57.0362 524.097,-54.4835"/>
<polygon fill="midnightblue" stroke="midnightblue" points="249.333,-78.7985 239.628,-83.0483 249.865,-85.7783 249.333,-78.7985"/>
</g>
<!-- Node15 -->
<g id="node15" class="node"><title>Node15</title>
<g id="a_node15"><a xlink:href="control_8cpp.xhtml#a9ed3ffa0b795893db43aac7d83f9cd87" target="_top" xlink:title="control_openrawrootfile">
<polygon fill="white" stroke="black" points="508.5,-0.5 508.5,-19.5 625.5,-19.5 625.5,-0.5 508.5,-0.5"/>
<text text-anchor="middle" x="567" y="-7.5" font-family="Helvetica,sans-Serif" font-size="10.00">control_openrawrootfile</text>
</a>
</g>
</g>
<!-- Node9&#45;&gt;Node15 -->
<g id="edge23" class="edge"><title>Node9&#45;&gt;Node15</title>
<path fill="none" stroke="midnightblue" d="M249.811,-75.4779C321.437,-60.6453 451.032,-33.8081 519.969,-19.5323"/>
<polygon fill="midnightblue" stroke="midnightblue" points="248.76,-72.1211 239.678,-77.5763 250.18,-78.9757 248.76,-72.1211"/>
</g>
<!-- Node11 -->
<g id="node11" class="node"><title>Node11</title>
<g id="a_node11"><a xlink:href="_g_u_i_2_include_2control_8h.xhtml#a48a6baefa46edb93b59bb0f76385052a" target="_top" xlink:title="errormsg">
<polygon fill="white" stroke="black" points="412.5,-114.5 412.5,-133.5 467.5,-133.5 467.5,-114.5 412.5,-114.5"/>
<text text-anchor="middle" x="440" y="-121.5" font-family="Helvetica,sans-Serif" font-size="10.00">errormsg</text>
</a>
</g>
</g>
<!-- Node10&#45;&gt;Node11 -->
<g id="edge11" class="edge"><title>Node10&#45;&gt;Node11</title>
<path fill="none" stroke="midnightblue" d="M374.6,-124C387.282,-124 400.878,-124 412.295,-124"/>
<polygon fill="midnightblue" stroke="midnightblue" points="374.23,-120.5 364.23,-124 374.23,-127.5 374.23,-120.5"/>
</g>
<!-- Node11&#45;&gt;Node4 -->
<g id="edge14" class="edge"><title>Node11&#45;&gt;Node4</title>
<path fill="none" stroke="midnightblue" d="M445.048,-143.781C452.013,-172.806 469.021,-226.758 504,-257 509.876,-262.08 517.089,-265.803 524.491,-268.529"/>
<polygon fill="midnightblue" stroke="midnightblue" points="448.382,-142.651 442.787,-133.654 441.551,-144.176 448.382,-142.651"/>
</g>
<!-- Node11&#45;&gt;Node6 -->
<g id="edge16" class="edge"><title>Node11&#45;&gt;Node6</title>
<path fill="none" stroke="midnightblue" d="M448.845,-143.071C458.646,-164.587 477.425,-199.16 504,-219 509.232,-222.906 515.276,-226.018 521.495,-228.494"/>
<polygon fill="midnightblue" stroke="midnightblue" points="451.958,-141.453 444.759,-133.679 445.539,-144.245 451.958,-141.453"/>
</g>
<!-- Node11&#45;&gt;Node8 -->
<g id="edge18" class="edge"><title>Node11&#45;&gt;Node8</title>
<path fill="none" stroke="midnightblue" d="M477.19,-135.002C495.379,-140.531 517.206,-147.167 534.669,-152.475"/>
<polygon fill="midnightblue" stroke="midnightblue" points="478.095,-131.619 467.509,-132.059 476.059,-138.316 478.095,-131.619"/>
</g>
<!-- Node12 -->
<g id="node12" class="node"><title>Node12</title>
<g id="a_node12"><a xlink:href="control_8cpp.xhtml#a05821af400d34bbf265b0eb929f4cee8" target="_top" xlink:title="control_calcrate">
<polygon fill="white" stroke="black" points="666,-190.5 666,-209.5 752,-209.5 752,-190.5 666,-190.5"/>
<text text-anchor="middle" x="709" y="-197.5" font-family="Helvetica,sans-Serif" font-size="10.00">control_calcrate</text>
</a>
</g>
</g>
<!-- Node11&#45;&gt;Node12 -->
<g id="edge12" class="edge"><title>Node11&#45;&gt;Node12</title>
<path fill="none" stroke="midnightblue" d="M478.045,-122.087C517.133,-121.342 579.891,-123.816 630,-143 657.881,-153.674 684.7,-177.062 698.454,-190.323"/>
<polygon fill="midnightblue" stroke="midnightblue" points="477.578,-118.599 467.678,-122.371 477.77,-125.596 477.578,-118.599"/>
</g>
<!-- Node13 -->
<g id="node13" class="node"><title>Node13</title>
<g id="a_node13"><a xlink:href="_g_u_i_2_include_2control_8h.xhtml#aeab8b16e95a01d21a60fdf5490f781d2" target="_top" xlink:title="control_configfile">
<polygon fill="white" stroke="black" points="522,-76.5 522,-95.5 612,-95.5 612,-76.5 522,-76.5"/>
<text text-anchor="middle" x="567" y="-83.5" font-family="Helvetica,sans-Serif" font-size="10.00">control_configfile</text>
</a>
</g>
</g>
<!-- Node11&#45;&gt;Node13 -->
<g id="edge15" class="edge"><title>Node11&#45;&gt;Node13</title>
<path fill="none" stroke="midnightblue" d="M477.19,-112.998C495.379,-107.469 517.206,-100.833 534.669,-95.5246"/>
<polygon fill="midnightblue" stroke="midnightblue" points="476.059,-109.684 467.509,-115.941 478.095,-116.381 476.059,-109.684"/>
</g>
<!-- Node11&#45;&gt;Node14 -->
<g id="edge17" class="edge"><title>Node11&#45;&gt;Node14</title>
<path fill="none" stroke="midnightblue" d="M459.511,-107.613C462.36,-105.071 465.263,-102.47 468,-100 484.112,-85.4562 485.16,-77.7784 504,-67 510.645,-63.1985 518.134,-60.0759 525.55,-57.5399"/>
<polygon fill="midnightblue" stroke="midnightblue" points="456.956,-105.201 451.807,-114.461 461.607,-110.433 456.956,-105.201"/>
</g>
<!-- Node11&#45;&gt;Node15 -->
<g id="edge19" class="edge"><title>Node11&#45;&gt;Node15</title>
<path fill="none" stroke="midnightblue" d="M448.845,-104.929C458.646,-83.4131 477.425,-48.8398 504,-29 509.232,-25.0938 515.276,-21.9822 521.495,-19.5059"/>
<polygon fill="midnightblue" stroke="midnightblue" points="445.539,-103.755 444.759,-114.321 451.958,-106.547 445.539,-103.755"/>
</g>
<!-- Node11&#45;&gt;Node16 -->
<g id="edge20" class="edge"><title>Node11&#45;&gt;Node16</title>
<path fill="none" stroke="midnightblue" d="M456.333,-141.496C468.215,-154.082 485.692,-170.605 504,-181 511.93,-185.503 521.049,-189.058 529.81,-191.815"/>
<polygon fill="midnightblue" stroke="midnightblue" points="458.714,-138.913 449.381,-133.898 453.549,-143.638 458.714,-138.913"/>
</g>
<!-- Node12&#45;&gt;Node7 -->
<g id="edge13" class="edge"><title>Node12&#45;&gt;Node7</title>
<path fill="none" stroke="midnightblue" d="M762.113,-210.314C771.32,-212.136 780.324,-213.918 787.756,-215.389"/>
<polygon fill="midnightblue" stroke="midnightblue" points="762.596,-206.842 752.107,-208.334 761.237,-213.709 762.596,-206.842"/>
</g>
<!-- Node16&#45;&gt;Node12 -->
<g id="edge21" class="edge"><title>Node16&#45;&gt;Node12</title>
<path fill="none" stroke="midnightblue" d="M614.132,-200C630.809,-200 649.54,-200 665.857,-200"/>
<polygon fill="midnightblue" stroke="midnightblue" points="614.054,-196.5 604.053,-200 614.053,-203.5 614.054,-196.5"/>
</g>
</g>
</svg>
        <g id="navigator" transform="translate(0 0)" fill="#404254">
                <rect fill="#f2f5e9" fill-opacity="0.5" stroke="#606060" stroke-width=".5" x="0" y="0" width="60" height="60"/>
                <use id="zoomplus" xlink:href="#zoomPlus" x="17" y="9" onmousedown="handleZoom(evt,'in')"/>
                <use id="zoomminus" xlink:href="#zoomMin" x="42" y="9" onmousedown="handleZoom(evt,'out')"/>
                <use id="reset" xlink:href="#resetDef" x="30" y="36" onmousedown="handleReset()"/>
                <g id="arrowUp" xlink:href="#dirArrow" transform="translate(30 24)" onmousedown="handlePan(0,-1)">
                  <use xlink:href="#rim" fill="#404040">
                        <set attributeName="fill" to="#808080" begin="arrowUp.mouseover" end="arrowUp.mouseout"/>
                  </use>
                  <path fill="none" stroke="white" stroke-width="1.5" d="M0,-3.0v7 M-2.5,-0.5L0,-3.0L2.5,-0.5"/>
                </g>
                <g id="arrowRight" xlink:href="#dirArrow" transform="rotate(90) translate(36 -43)" onmousedown="handlePan(1,0)">
                  <use xlink:href="#rim" fill="#404040">
                        <set attributeName="fill" to="#808080" begin="arrowRight.mouseover" end="arrowRight.mouseout"/>
                  </use>
                  <path fill="none" stroke="white" stroke-width="1.5" d="M0,-3.0v7 M-2.5,-0.5L0,-3.0L2.5,-0.5"/>
                </g>
                <g id="arrowDown" xlink:href="#dirArrow" transform="rotate(180) translate(-30 -48)" onmousedown="handlePan(0,1)">
                  <use xlink:href="#rim" fill="#404040">
                        <set attributeName="fill" to="#808080" begin="arrowDown.mouseover" end="arrowDown.mouseout"/>
                  </use>
                  <path fill="none" stroke="white" stroke-width="1.5" d="M0,-3.0v7 M-2.5,-0.5L0,-3.0L2.5,-0.5"/>
                </g>
                <g id="arrowLeft" xlink:href="#dirArrow" transform="rotate(270) translate(-36 17)" onmousedown="handlePan(-1,0)">
                  <use xlink:href="#rim" fill="#404040">
                        <set attributeName="fill" to="#808080" begin="arrowLeft.mouseover" end="arrowLeft.mouseout"/>
                  </use>
                  <path fill="none" stroke="white" stroke-width="1.5" d="M0,-3.0v7 M-2.5,-0.5L0,-3.0L2.5,-0.5"/>
                </g>
        </g>
        <svg viewBox="0 0 15 15" width="100%" height="30px" preserveAspectRatio="xMaxYMin meet">
         <g id="arrow_out" transform="scale(0.3 0.3)">
          <a xlink:href="control_8cpp_a03b1d46384ed092ca3bc35eeb9c47e02_icgraph_org.svg" target="_base">
           <rect id="button" ry="5" rx="5" y="6" x="6" height="38" width="38"
                fill="#f2f5e9" fill-opacity="0.5" stroke="#606060" stroke-width="1.0"/>
           <path id="arrow"
             d="M 11.500037,31.436501 C 11.940474,20.09759 22.043105,11.32322 32.158766,21.979434 L 37.068811,17.246167 C 37.068811,17.246167 37.088388,32 37.088388,32 L 22.160133,31.978069 C 22.160133,31.978069 26.997745,27.140456 26.997745,27.140456 C 18.528582,18.264221 13.291696,25.230495 11.500037,31.436501 z"
             style="fill:#404040;"/>
          </a>
         </g>
        </svg>
</svg>
