<?xml version="1.0" encoding="UTF-8" standalone="no"?>
<!DOCTYPE svg PUBLIC "-//W3C//DTD SVG 1.1//EN"
 "http://www.w3.org/Graphics/SVG/1.1/DTD/svg11.dtd">
<!-- Generated by graphviz version 2.36.0 (20140111.2315)
 -->
<!-- Title: get_time Pages: 1 -->
<svg width="258pt" height="47pt"
 viewBox="0.00 0.00 258.00 47.00" xmlns="http://www.w3.org/2000/svg" xmlns:xlink="http://www.w3.org/1999/xlink">
<g id="graph0" class="graph" transform="scale(1 1) rotate(0) translate(4 43)">
<title>get_time</title>
<polygon fill="white" stroke="none" points="-4,4 -4,-43 254,-43 254,4 -4,4"/>
<!-- Node1 -->
<g id="node1" class="node"><title>Node1</title>
<polygon fill="#bfbfbf" stroke="black" points="0,-0.5 0,-19.5 54,-19.5 54,-0.5 0,-0.5"/>
<text text-anchor="middle" x="27" y="-7.5" font-family="Helvetica,sans-Serif" font-size="10.00">get_time</text>
</g>
<!-- Node2 -->
<g id="node2" class="node"><title>Node2</title>
<g id="a_node2"><a xlink:href="control_8cpp.xhtml#a05821af400d34bbf265b0eb929f4cee8" target="_top" xlink:title="control_calcrate">
<polygon fill="white" stroke="black" points="90,-19.5 90,-38.5 176,-38.5 176,-19.5 90,-19.5"/>
<text text-anchor="middle" x="133" y="-26.5" font-family="Helvetica,sans-Serif" font-size="10.00">control_calcrate</text>
</a>
</g>
</g>
<!-- Node1&#45;&gt;Node2 -->
<g id="edge1" class="edge"><title>Node1&#45;&gt;Node2</title>
<path fill="none" stroke="midnightblue" d="M64.3459,-16.6401C72.6245,-18.1526 81.4869,-19.7717 89.9803,-21.3233"/>
<polygon fill="midnightblue" stroke="midnightblue" points="64.7098,-13.1487 54.2436,-14.7945 63.4517,-20.0348 64.7098,-13.1487"/>
</g>
<!-- Node3 -->
<g id="node3" class="node"><title>Node3</title>
<g id="a_node3"><a xlink:href="mini_d_a_x_8cpp.xhtml#adedb285b02c41bde2158ded9cc9fd7ac" target="_top" xlink:title="main">
<polygon fill="white" stroke="black" points="212,-0.5 212,-19.5 250,-19.5 250,-0.5 212,-0.5"/>
<text text-anchor="middle" x="231" y="-7.5" font-family="Helvetica,sans-Serif" font-size="10.00">main</text>
</a>
</g>
</g>
<!-- Node1&#45;&gt;Node3 -->
<g id="edge3" class="edge"><title>Node1&#45;&gt;Node3</title>
<path fill="none" stroke="midnightblue" d="M64.5697,-10C108.054,-10 178.891,-10 211.946,-10"/>
<polygon fill="midnightblue" stroke="midnightblue" points="64.408,-6.5001 54.408,-10 64.4079,-13.5001 64.408,-6.5001"/>
</g>
<!-- Node2&#45;&gt;Node3 -->
<g id="edge2" class="edge"><title>Node2&#45;&gt;Node3</title>
<path fill="none" stroke="midnightblue" d="M186.113,-18.686C195.32,-16.8637 204.324,-15.0817 211.756,-13.6108"/>
<polygon fill="midnightblue" stroke="midnightblue" points="185.237,-15.2913 176.107,-20.6663 186.596,-22.1581 185.237,-15.2913"/>
</g>
</g>
</svg>
