<?xml version="1.0" encoding="UTF-8" standalone="no"?>
<!DOCTYPE svg PUBLIC "-//W3C//DTD SVG 1.1//EN"
 "http://www.w3.org/Graphics/SVG/1.1/DTD/svg11.dtd">
<!-- Generated by graphviz version 2.36.0 (20140111.2315)
 -->
<!-- Title: control_cnts2log Pages: 1 -->
<svg width="360pt" height="47pt"
 viewBox="0.00 0.00 360.00 47.00" xmlns="http://www.w3.org/2000/svg" xmlns:xlink="http://www.w3.org/1999/xlink">
<g id="graph0" class="graph" transform="scale(1 1) rotate(0) translate(4 43)">
<title>control_cnts2log</title>
<polygon fill="white" stroke="none" points="-4,4 -4,-43 356,-43 356,4 -4,4"/>
<!-- Node1 -->
<g id="node1" class="node"><title>Node1</title>
<polygon fill="#bfbfbf" stroke="black" points="0,-19.5 0,-38.5 88,-38.5 88,-19.5 0,-19.5"/>
<text text-anchor="middle" x="44" y="-26.5" font-family="Helvetica,sans-Serif" font-size="10.00">control_cnts2log</text>
</g>
<!-- Node2 -->
<g id="node2" class="node"><title>Node2</title>
<g id="a_node2"><a xlink:href="control_8cpp.xhtml#a03b1d46384ed092ca3bc35eeb9c47e02" target="_top" xlink:title="control_gettimestring">
<polygon fill="white" stroke="black" points="244.5,-19.5 244.5,-38.5 351.5,-38.5 351.5,-19.5 244.5,-19.5"/>
<text text-anchor="middle" x="298" y="-26.5" font-family="Helvetica,sans-Serif" font-size="10.00">control_gettimestring</text>
</a>
</g>
</g>
<!-- Node1&#45;&gt;Node2 -->
<g id="edge1" class="edge"><title>Node1&#45;&gt;Node2</title>
<path fill="none" stroke="midnightblue" d="M88.034,-29C128.156,-29 188.482,-29 234.019,-29"/>
<polygon fill="midnightblue" stroke="midnightblue" points="234.082,-32.5001 244.082,-29 234.082,-25.5001 234.082,-32.5001"/>
</g>
<!-- Node3 -->
<g id="node3" class="node"><title>Node3</title>
<g id="a_node3"><a xlink:href="control_8cpp.xhtml#a6d31350db95da2e061ef2ef9ad11402e" target="_top" xlink:title="control_printlog">
<polygon fill="white" stroke="black" points="124.5,-0.5 124.5,-19.5 207.5,-19.5 207.5,-0.5 124.5,-0.5"/>
<text text-anchor="middle" x="166" y="-7.5" font-family="Helvetica,sans-Serif" font-size="10.00">control_printlog</text>
</a>
</g>
</g>
<!-- Node1&#45;&gt;Node3 -->
<g id="edge2" class="edge"><title>Node1&#45;&gt;Node3</title>
<path fill="none" stroke="midnightblue" d="M88.3228,-22.1406C96.7187,-20.8112 105.588,-19.4069 114.198,-18.0436"/>
<polygon fill="midnightblue" stroke="midnightblue" points="114.814,-21.4899 124.143,-16.469 113.719,-14.576 114.814,-21.4899"/>
</g>
<!-- Node3&#45;&gt;Node2 -->
<g id="edge3" class="edge"><title>Node3&#45;&gt;Node2</title>
<path fill="none" stroke="midnightblue" d="M207.776,-15.9596C216.216,-17.1931 225.292,-18.5195 234.308,-19.8373"/>
<polygon fill="midnightblue" stroke="midnightblue" points="234.025,-23.333 244.426,-21.316 235.037,-16.4066 234.025,-23.333"/>
</g>
</g>
</svg>
