<?xml version="1.0" encoding="UTF-8" standalone="no"?>
<!DOCTYPE svg PUBLIC "-//W3C//DTD SVG 1.1//EN"
 "http://www.w3.org/Graphics/SVG/1.1/DTD/svg11.dtd">
<!-- Generated by graphviz version 2.36.0 (20140111.2315)
 -->
<!-- Title: control_cmdline Pages: 1 -->
<svg width="590pt" height="83pt"
 viewBox="0.00 0.00 590.00 82.76" xmlns="http://www.w3.org/2000/svg" xmlns:xlink="http://www.w3.org/1999/xlink">
<g id="graph0" class="graph" transform="scale(1 1) rotate(0) translate(4 78.7557)">
<title>control_cmdline</title>
<polygon fill="white" stroke="none" points="-4,4 -4,-78.7557 586,-78.7557 586,4 -4,4"/>
<!-- Node1 -->
<g id="node1" class="node"><title>Node1</title>
<polygon fill="#bfbfbf" stroke="black" points="0.5,-38.5 0.5,-57.5 85.5,-57.5 85.5,-38.5 0.5,-38.5"/>
<text text-anchor="middle" x="43" y="-45.5" font-family="Helvetica,sans-Serif" font-size="10.00">control_cmdline</text>
</g>
<!-- Node2 -->
<g id="node2" class="node"><title>Node2</title>
<g id="a_node2"><a xlink:href="control_8cpp.xhtml#a03b1d46384ed092ca3bc35eeb9c47e02" target="_top" xlink:title="control_gettimestring">
<polygon fill="white" stroke="black" points="474.5,-47.5 474.5,-66.5 581.5,-66.5 581.5,-47.5 474.5,-47.5"/>
<text text-anchor="middle" x="528" y="-54.5" font-family="Helvetica,sans-Serif" font-size="10.00">control_gettimestring</text>
</a>
</g>
</g>
<!-- Node1&#45;&gt;Node2 -->
<g id="edge1" class="edge"><title>Node1&#45;&gt;Node2</title>
<path fill="none" stroke="midnightblue" d="M75.5626,-57.506C89.6341,-61.2702 106.501,-65.1395 122,-67 242.298,-81.4405 384.084,-71.9185 463.967,-64.1445"/>
<polygon fill="midnightblue" stroke="midnightblue" points="464.742,-67.5848 474.345,-63.1103 464.047,-60.6193 464.742,-67.5848"/>
</g>
<!-- Node3 -->
<g id="node3" class="node"><title>Node3</title>
<g id="a_node3"><a xlink:href="control_8cpp.xhtml#a1a91b66f68a4ba6cdf2ed9f75c6df947" target="_top" xlink:title="control_scopehelp">
<polygon fill="white" stroke="black" points="122.5,-38.5 122.5,-57.5 217.5,-57.5 217.5,-38.5 122.5,-38.5"/>
<text text-anchor="middle" x="170" y="-45.5" font-family="Helvetica,sans-Serif" font-size="10.00">control_scopehelp</text>
</a>
</g>
</g>
<!-- Node1&#45;&gt;Node3 -->
<g id="edge2" class="edge"><title>Node1&#45;&gt;Node3</title>
<path fill="none" stroke="midnightblue" d="M85.6232,-48C94.1889,-48 103.346,-48 112.34,-48"/>
<polygon fill="midnightblue" stroke="midnightblue" points="112.385,-51.5001 122.385,-48 112.385,-44.5001 112.385,-51.5001"/>
</g>
<!-- Node5 -->
<g id="node5" class="node"><title>Node5</title>
<g id="a_node5"><a xlink:href="control_8cpp.xhtml#a48a6baefa46edb93b59bb0f76385052a" target="_top" xlink:title="errormsg">
<polygon fill="white" stroke="black" points="142.5,-0.5 142.5,-19.5 197.5,-19.5 197.5,-0.5 142.5,-0.5"/>
<text text-anchor="middle" x="170" y="-7.5" font-family="Helvetica,sans-Serif" font-size="10.00">errormsg</text>
</a>
</g>
</g>
<!-- Node1&#45;&gt;Node5 -->
<g id="edge4" class="edge"><title>Node1&#45;&gt;Node5</title>
<path fill="none" stroke="midnightblue" d="M75.5428,-38.411C92.8736,-33.1424 114.453,-26.5823 132.508,-21.0935"/>
<polygon fill="midnightblue" stroke="midnightblue" points="133.577,-24.4268 142.127,-18.1695 131.541,-17.7294 133.577,-24.4268"/>
</g>
<!-- Node4 -->
<g id="node4" class="node"><title>Node4</title>
<g id="a_node4"><a xlink:href="control_8cpp.xhtml#a3a545ba21c1d05570512e20917c021cf" target="_top" xlink:title="col">
<polygon fill="white" stroke="black" points="271.5,-38.5 271.5,-57.5 300.5,-57.5 300.5,-38.5 271.5,-38.5"/>
<text text-anchor="middle" x="286" y="-45.5" font-family="Helvetica,sans-Serif" font-size="10.00">col</text>
</a>
</g>
</g>
<!-- Node3&#45;&gt;Node4 -->
<g id="edge3" class="edge"><title>Node3&#45;&gt;Node4</title>
<path fill="none" stroke="midnightblue" d="M217.697,-48C232.63,-48 248.54,-48 261.139,-48"/>
<polygon fill="midnightblue" stroke="midnightblue" points="261.252,-51.5001 271.252,-48 261.252,-44.5001 261.252,-51.5001"/>
</g>
<!-- Node6 -->
<g id="node6" class="node"><title>Node6</title>
<g id="a_node6"><a xlink:href="control_8cpp.xhtml#a42c6ce88a95e362f9f257d90bbf8de32" target="_top" xlink:title="control_log">
<polygon fill="white" stroke="black" points="254,-0.5 254,-19.5 318,-19.5 318,-0.5 254,-0.5"/>
<text text-anchor="middle" x="286" y="-7.5" font-family="Helvetica,sans-Serif" font-size="10.00">control_log</text>
</a>
</g>
</g>
<!-- Node5&#45;&gt;Node6 -->
<g id="edge5" class="edge"><title>Node5&#45;&gt;Node6</title>
<path fill="none" stroke="midnightblue" d="M197.728,-10C211.417,-10 228.386,-10 243.712,-10"/>
<polygon fill="midnightblue" stroke="midnightblue" points="244,-13.5001 254,-10 244,-6.5001 244,-13.5001"/>
</g>
<!-- Node7 -->
<g id="node7" class="node"><title>Node7</title>
<g id="a_node7"><a xlink:href="control_8cpp.xhtml#a6d31350db95da2e061ef2ef9ad11402e" target="_top" xlink:title="control_printlog">
<polygon fill="white" stroke="black" points="354.5,-19.5 354.5,-38.5 437.5,-38.5 437.5,-19.5 354.5,-19.5"/>
<text text-anchor="middle" x="396" y="-26.5" font-family="Helvetica,sans-Serif" font-size="10.00">control_printlog</text>
</a>
</g>
</g>
<!-- Node6&#45;&gt;Node7 -->
<g id="edge6" class="edge"><title>Node6&#45;&gt;Node7</title>
<path fill="none" stroke="midnightblue" d="M318.238,-15.4956C326.385,-16.9289 335.379,-18.5111 344.255,-20.0726"/>
<polygon fill="midnightblue" stroke="midnightblue" points="343.719,-23.5321 354.175,-21.8178 344.932,-16.638 343.719,-23.5321"/>
</g>
<!-- Node7&#45;&gt;Node2 -->
<g id="edge7" class="edge"><title>Node7&#45;&gt;Node2</title>
<path fill="none" stroke="midnightblue" d="M437.776,-37.7826C448.834,-40.1642 460.983,-42.7809 472.66,-45.296"/>
<polygon fill="midnightblue" stroke="midnightblue" points="472.248,-48.7875 482.761,-47.4716 473.722,-41.9445 472.248,-48.7875"/>
</g>
</g>
</svg>
