<?xml version="1.0" encoding="UTF-8" standalone="no"?>
<!DOCTYPE svg PUBLIC "-//W3C//DTD SVG 1.1//EN"
 "http://www.w3.org/Graphics/SVG/1.1/DTD/svg11.dtd">
<!-- Generated by graphviz version 2.36.0 (20140111.2315)
 -->
<!-- Title: control_calcrate Pages: 1 -->
<svg width="660pt" height="104pt"
 viewBox="0.00 0.00 660.00 104.00" xmlns="http://www.w3.org/2000/svg" xmlns:xlink="http://www.w3.org/1999/xlink">
<g id="graph0" class="graph" transform="scale(1 1) rotate(0) translate(4 100)">
<title>control_calcrate</title>
<polygon fill="white" stroke="none" points="-4,4 -4,-100 656,-100 656,4 -4,4"/>
<!-- Node1 -->
<g id="node1" class="node"><title>Node1</title>
<polygon fill="#bfbfbf" stroke="black" points="0,-38.5 0,-57.5 86,-57.5 86,-38.5 0,-38.5"/>
<text text-anchor="middle" x="43" y="-45.5" font-family="Helvetica,sans-Serif" font-size="10.00">control_calcrate</text>
</g>
<!-- Node2 -->
<g id="node2" class="node"><title>Node2</title>
<g id="a_node2"><a xlink:href="control_8cpp.xhtml#ab5bd42385627821b5bbe8f172adc9d10" target="_top" xlink:title="control_scfile">
<polygon fill="white" stroke="black" points="122,-76.5 122,-95.5 196,-95.5 196,-76.5 122,-76.5"/>
<text text-anchor="middle" x="159" y="-83.5" font-family="Helvetica,sans-Serif" font-size="10.00">control_scfile</text>
</a>
</g>
</g>
<!-- Node1&#45;&gt;Node2 -->
<g id="edge1" class="edge"><title>Node1&#45;&gt;Node2</title>
<path fill="none" stroke="midnightblue" d="M72.767,-57.589C86.9433,-62.3144 104.237,-68.0789 119.532,-73.1774"/>
<polygon fill="midnightblue" stroke="midnightblue" points="118.649,-76.5721 129.242,-76.4141 120.862,-69.9313 118.649,-76.5721"/>
</g>
<!-- Node4 -->
<g id="node4" class="node"><title>Node4</title>
<g id="a_node4"><a xlink:href="control_8cpp.xhtml#a48a6baefa46edb93b59bb0f76385052a" target="_top" xlink:title="errormsg">
<polygon fill="white" stroke="black" points="232.5,-38.5 232.5,-57.5 287.5,-57.5 287.5,-38.5 232.5,-38.5"/>
<text text-anchor="middle" x="260" y="-45.5" font-family="Helvetica,sans-Serif" font-size="10.00">errormsg</text>
</a>
</g>
</g>
<!-- Node1&#45;&gt;Node4 -->
<g id="edge7" class="edge"><title>Node1&#45;&gt;Node4</title>
<path fill="none" stroke="midnightblue" d="M86.2206,-48C125.903,-48 184.687,-48 222.42,-48"/>
<polygon fill="midnightblue" stroke="midnightblue" points="222.471,-51.5001 232.471,-48 222.471,-44.5001 222.471,-51.5001"/>
</g>
<!-- Node7 -->
<g id="node7" class="node"><title>Node7</title>
<g id="a_node7"><a xlink:href="control_8cpp.xhtml#a949384828bc972aa1da4192e169f2c49" target="_top" xlink:title="get_time">
<polygon fill="white" stroke="black" points="132,-0.5 132,-19.5 186,-19.5 186,-0.5 132,-0.5"/>
<text text-anchor="middle" x="159" y="-7.5" font-family="Helvetica,sans-Serif" font-size="10.00">get_time</text>
</a>
</g>
</g>
<!-- Node1&#45;&gt;Node7 -->
<g id="edge8" class="edge"><title>Node1&#45;&gt;Node7</title>
<path fill="none" stroke="midnightblue" d="M72.767,-38.411C87.843,-33.3857 106.444,-27.1852 122.419,-21.8603"/>
<polygon fill="midnightblue" stroke="midnightblue" points="123.591,-25.159 131.971,-18.6763 121.377,-18.5182 123.591,-25.159"/>
</g>
<!-- Node3 -->
<g id="node3" class="node"><title>Node3</title>
<g id="a_node3"><a xlink:href="control_8cpp.xhtml#a03b1d46384ed092ca3bc35eeb9c47e02" target="_top" xlink:title="control_gettimestring">
<polygon fill="white" stroke="black" points="544.5,-57.5 544.5,-76.5 651.5,-76.5 651.5,-57.5 544.5,-57.5"/>
<text text-anchor="middle" x="598" y="-64.5" font-family="Helvetica,sans-Serif" font-size="10.00">control_gettimestring</text>
</a>
</g>
</g>
<!-- Node2&#45;&gt;Node3 -->
<g id="edge2" class="edge"><title>Node2&#45;&gt;Node3</title>
<path fill="none" stroke="midnightblue" d="M196.133,-84.429C270.441,-81.1982 441.192,-73.7743 534.061,-69.7365"/>
<polygon fill="midnightblue" stroke="midnightblue" points="534.329,-73.2282 544.168,-69.2971 534.025,-66.2348 534.329,-73.2282"/>
</g>
<!-- Node2&#45;&gt;Node4 -->
<g id="edge3" class="edge"><title>Node2&#45;&gt;Node4</title>
<path fill="none" stroke="midnightblue" d="M184.982,-76.411C196.941,-71.8206 211.455,-66.2497 224.451,-61.2612"/>
<polygon fill="midnightblue" stroke="midnightblue" points="225.944,-64.437 234.026,-57.5859 223.436,-57.9019 225.944,-64.437"/>
</g>
<!-- Node5 -->
<g id="node5" class="node"><title>Node5</title>
<g id="a_node5"><a xlink:href="control_8cpp.xhtml#a42c6ce88a95e362f9f257d90bbf8de32" target="_top" xlink:title="control_log">
<polygon fill="white" stroke="black" points="324,-38.5 324,-57.5 388,-57.5 388,-38.5 324,-38.5"/>
<text text-anchor="middle" x="356" y="-45.5" font-family="Helvetica,sans-Serif" font-size="10.00">control_log</text>
</a>
</g>
</g>
<!-- Node4&#45;&gt;Node5 -->
<g id="edge4" class="edge"><title>Node4&#45;&gt;Node5</title>
<path fill="none" stroke="midnightblue" d="M287.685,-48C295.8,-48 304.915,-48 313.754,-48"/>
<polygon fill="midnightblue" stroke="midnightblue" points="313.928,-51.5001 323.928,-48 313.928,-44.5001 313.928,-51.5001"/>
</g>
<!-- Node6 -->
<g id="node6" class="node"><title>Node6</title>
<g id="a_node6"><a xlink:href="control_8cpp.xhtml#a6d31350db95da2e061ef2ef9ad11402e" target="_top" xlink:title="control_printlog">
<polygon fill="white" stroke="black" points="424.5,-38.5 424.5,-57.5 507.5,-57.5 507.5,-38.5 424.5,-38.5"/>
<text text-anchor="middle" x="466" y="-45.5" font-family="Helvetica,sans-Serif" font-size="10.00">control_printlog</text>
</a>
</g>
</g>
<!-- Node5&#45;&gt;Node6 -->
<g id="edge5" class="edge"><title>Node5&#45;&gt;Node6</title>
<path fill="none" stroke="midnightblue" d="M388.238,-48C396.298,-48 405.186,-48 413.969,-48"/>
<polygon fill="midnightblue" stroke="midnightblue" points="414.175,-51.5001 424.175,-48 414.175,-44.5001 414.175,-51.5001"/>
</g>
<!-- Node6&#45;&gt;Node3 -->
<g id="edge6" class="edge"><title>Node6&#45;&gt;Node3</title>
<path fill="none" stroke="midnightblue" d="M507.776,-53.9596C516.216,-55.1931 525.292,-56.5195 534.308,-57.8373"/>
<polygon fill="midnightblue" stroke="midnightblue" points="534.025,-61.333 544.426,-59.316 535.037,-54.4066 534.025,-61.333"/>
</g>
</g>
</svg>
