<?xml version="1.0" encoding="UTF-8" standalone="no"?>
<!DOCTYPE svg PUBLIC "-//W3C//DTD SVG 1.1//EN"
 "http://www.w3.org/Graphics/SVG/1.1/DTD/svg11.dtd">
<!-- Generated by graphviz version 2.36.0 (20140111.2315)
 -->
<!-- Title: control_printlog Pages: 1 -->
<svg width="698pt" height="370pt"
 viewBox="0.00 0.00 698.00 370.00" xmlns="http://www.w3.org/2000/svg" xmlns:xlink="http://www.w3.org/1999/xlink">
<g id="graph0" class="graph" transform="scale(1 1) rotate(0) translate(4 366)">
<title>control_printlog</title>
<polygon fill="white" stroke="none" points="-4,4 -4,-366 694,-366 694,4 -4,4"/>
<!-- Node1 -->
<g id="node1" class="node"><title>Node1</title>
<polygon fill="#bfbfbf" stroke="black" points="0.5,-133.5 0.5,-152.5 83.5,-152.5 83.5,-133.5 0.5,-133.5"/>
<text text-anchor="middle" x="42" y="-140.5" font-family="Helvetica,sans-Serif" font-size="10.00">control_printlog</text>
</g>
<!-- Node2 -->
<g id="node2" class="node"><title>Node2</title>
<g id="a_node2"><a xlink:href="_g_u_i_2_include_2control_8h.xhtml#a11fd8ef2164efa9242cf82c35c240992" target="_top" xlink:title="control_cnts2log">
<polygon fill="white" stroke="black" points="120,-342.5 120,-361.5 208,-361.5 208,-342.5 120,-342.5"/>
<text text-anchor="middle" x="164" y="-349.5" font-family="Helvetica,sans-Serif" font-size="10.00">control_cnts2log</text>
</a>
</g>
</g>
<!-- Node1&#45;&gt;Node2 -->
<g id="edge1" class="edge"><title>Node1&#45;&gt;Node2</title>
<path fill="none" stroke="midnightblue" d="M46.6823,-162.486C54.4365,-198.905 75.5239,-278.108 120,-328 125.234,-333.871 132.259,-338.622 139.113,-342.3"/>
<polygon fill="midnightblue" stroke="midnightblue" points="50.1036,-161.747 44.6927,-152.638 43.2422,-163.133 50.1036,-161.747"/>
</g>
<!-- Node3 -->
<g id="node3" class="node"><title>Node3</title>
<g id="a_node3"><a xlink:href="_g_u_i_2_include_2control_8h.xhtml#a42c6ce88a95e362f9f257d90bbf8de32" target="_top" xlink:title="control_log">
<polygon fill="white" stroke="black" points="132,-133.5 132,-152.5 196,-152.5 196,-133.5 132,-133.5"/>
<text text-anchor="middle" x="164" y="-140.5" font-family="Helvetica,sans-Serif" font-size="10.00">control_log</text>
</a>
</g>
</g>
<!-- Node1&#45;&gt;Node3 -->
<g id="edge2" class="edge"><title>Node1&#45;&gt;Node3</title>
<path fill="none" stroke="midnightblue" d="M93.8286,-143C106.765,-143 120.283,-143 131.902,-143"/>
<polygon fill="midnightblue" stroke="midnightblue" points="93.6266,-139.5 83.6265,-143 93.6265,-146.5 93.6266,-139.5"/>
</g>
<!-- Node6 -->
<g id="node6" class="node"><title>Node6</title>
<g id="a_node6"><a xlink:href="mini_d_a_x_8cpp.xhtml#adedb285b02c41bde2158ded9cc9fd7ac" target="_top" xlink:title="main">
<polygon fill="white" stroke="black" points="652,-142.5 652,-161.5 690,-161.5 690,-142.5 652,-142.5"/>
<text text-anchor="middle" x="671" y="-149.5" font-family="Helvetica,sans-Serif" font-size="10.00">main</text>
</a>
</g>
</g>
<!-- Node1&#45;&gt;Node6 -->
<g id="edge17" class="edge"><title>Node1&#45;&gt;Node6</title>
<path fill="none" stroke="midnightblue" d="M54.7032,-161.004C84.8318,-204.926 169.836,-314 271,-314 271,-314 271,-314 396,-314 516.471,-314 630.458,-196.524 661.644,-161.649"/>
<polygon fill="midnightblue" stroke="midnightblue" points="57.5986,-159.038 49.1209,-152.684 51.7856,-162.938 57.5986,-159.038"/>
</g>
<!-- Node10 -->
<g id="node10" class="node"><title>Node10</title>
<g id="a_node10"><a xlink:href="_g_u_i_2_include_2control_8h.xhtml#ab54cec1fc7617fbb69ba6258f0a9f827" target="_top" xlink:title="control_openfile">
<polygon fill="white" stroke="black" points="352.5,-38.5 352.5,-57.5 437.5,-57.5 437.5,-38.5 352.5,-38.5"/>
<text text-anchor="middle" x="395" y="-45.5" font-family="Helvetica,sans-Serif" font-size="10.00">control_openfile</text>
</a>
</g>
</g>
<!-- Node1&#45;&gt;Node10 -->
<g id="edge15" class="edge"><title>Node1&#45;&gt;Node10</title>
<path fill="none" stroke="midnightblue" d="M88.2257,-130.759C159.051,-111.59 294.654,-74.8885 358.761,-57.5376"/>
<polygon fill="midnightblue" stroke="midnightblue" points="87.0006,-127.465 78.2623,-133.456 88.8294,-134.222 87.0006,-127.465"/>
</g>
<!-- Node12 -->
<g id="node12" class="node"><title>Node12</title>
<g id="a_node12"><a xlink:href="control_8cpp.xhtml#a9ed3ffa0b795893db43aac7d83f9cd87" target="_top" xlink:title="control_openrawrootfile">
<polygon fill="white" stroke="black" points="336.5,-0.5 336.5,-19.5 453.5,-19.5 453.5,-0.5 336.5,-0.5"/>
<text text-anchor="middle" x="395" y="-7.5" font-family="Helvetica,sans-Serif" font-size="10.00">control_openrawrootfile</text>
</a>
</g>
</g>
<!-- Node1&#45;&gt;Node12 -->
<g id="edge16" class="edge"><title>Node1&#45;&gt;Node12</title>
<path fill="none" stroke="midnightblue" d="M64.899,-127.644C79.892,-117.638 100.513,-104.845 120,-96 199.45,-59.9391 298.317,-32.9924 352.928,-19.5503"/>
<polygon fill="midnightblue" stroke="midnightblue" points="62.6541,-124.938 56.3515,-133.454 66.5893,-130.727 62.6541,-124.938"/>
</g>
<!-- Node4 -->
<g id="node4" class="node"><title>Node4</title>
<g id="a_node4"><a xlink:href="_g_u_i_2_include_2control_8h.xhtml#a48a6baefa46edb93b59bb0f76385052a" target="_top" xlink:title="errormsg">
<polygon fill="white" stroke="black" points="244.5,-133.5 244.5,-152.5 299.5,-152.5 299.5,-133.5 244.5,-133.5"/>
<text text-anchor="middle" x="272" y="-140.5" font-family="Helvetica,sans-Serif" font-size="10.00">errormsg</text>
</a>
</g>
</g>
<!-- Node3&#45;&gt;Node4 -->
<g id="edge3" class="edge"><title>Node3&#45;&gt;Node4</title>
<path fill="none" stroke="midnightblue" d="M206.6,-143C219.282,-143 232.878,-143 244.295,-143"/>
<polygon fill="midnightblue" stroke="midnightblue" points="206.23,-139.5 196.23,-143 206.23,-146.5 206.23,-139.5"/>
</g>
<!-- Node5 -->
<g id="node5" class="node"><title>Node5</title>
<g id="a_node5"><a xlink:href="control_8cpp.xhtml#a05821af400d34bbf265b0eb929f4cee8" target="_top" xlink:title="control_calcrate">
<polygon fill="white" stroke="black" points="510,-142.5 510,-161.5 596,-161.5 596,-142.5 510,-142.5"/>
<text text-anchor="middle" x="553" y="-149.5" font-family="Helvetica,sans-Serif" font-size="10.00">control_calcrate</text>
</a>
</g>
</g>
<!-- Node4&#45;&gt;Node5 -->
<g id="edge4" class="edge"><title>Node4&#45;&gt;Node5</title>
<path fill="none" stroke="midnightblue" d="M309.891,-142.012C346.484,-141.266 404.145,-140.716 454,-143 472.262,-143.837 492.379,-145.546 509.609,-147.253"/>
<polygon fill="midnightblue" stroke="midnightblue" points="309.619,-138.517 299.699,-142.237 309.773,-145.516 309.619,-138.517"/>
</g>
<!-- Node7 -->
<g id="node7" class="node"><title>Node7</title>
<g id="a_node7"><a xlink:href="_g_u_i_2_include_2control_8h.xhtml#ac97643773a87a0ab2f3310730174824f" target="_top" xlink:title="control_cmdline">
<polygon fill="white" stroke="black" points="352.5,-266.5 352.5,-285.5 437.5,-285.5 437.5,-266.5 352.5,-266.5"/>
<text text-anchor="middle" x="395" y="-273.5" font-family="Helvetica,sans-Serif" font-size="10.00">control_cmdline</text>
</a>
</g>
</g>
<!-- Node4&#45;&gt;Node7 -->
<g id="edge6" class="edge"><title>Node4&#45;&gt;Node7</title>
<path fill="none" stroke="midnightblue" d="M278.647,-162.061C287.084,-187.323 305.359,-231.646 336,-257 340.817,-260.985 346.494,-264.143 352.379,-266.643"/>
<polygon fill="midnightblue" stroke="midnightblue" points="281.979,-160.991 275.625,-152.513 275.305,-163.103 281.979,-160.991"/>
</g>
<!-- Node8 -->
<g id="node8" class="node"><title>Node8</title>
<g id="a_node8"><a xlink:href="_g_u_i_2_include_2control_8h.xhtml#aeab8b16e95a01d21a60fdf5490f781d2" target="_top" xlink:title="control_configfile">
<polygon fill="white" stroke="black" points="350,-228.5 350,-247.5 440,-247.5 440,-228.5 350,-228.5"/>
<text text-anchor="middle" x="395" y="-235.5" font-family="Helvetica,sans-Serif" font-size="10.00">control_configfile</text>
</a>
</g>
</g>
<!-- Node4&#45;&gt;Node8 -->
<g id="edge7" class="edge"><title>Node4&#45;&gt;Node8</title>
<path fill="none" stroke="midnightblue" d="M283.833,-161.258C294.915,-178.455 313.646,-203.785 336,-219 341.606,-222.816 348.034,-225.911 354.523,-228.408"/>
<polygon fill="midnightblue" stroke="midnightblue" points="286.74,-159.304 278.489,-152.657 280.794,-162.998 286.74,-159.304"/>
</g>
<!-- Node9 -->
<g id="node9" class="node"><title>Node9</title>
<g id="a_node9"><a xlink:href="control_8cpp.xhtml#aa8ca64af815f670c76cdb23c3d1af7b4" target="_top" xlink:title="control_generatefilename">
<polygon fill="white" stroke="black" points="490.5,-85.5 490.5,-104.5 615.5,-104.5 615.5,-85.5 490.5,-85.5"/>
<text text-anchor="middle" x="553" y="-92.5" font-family="Helvetica,sans-Serif" font-size="10.00">control_generatefilename</text>
</a>
</g>
</g>
<!-- Node4&#45;&gt;Node9 -->
<g id="edge8" class="edge"><title>Node4&#45;&gt;Node9</title>
<path fill="none" stroke="midnightblue" d="M309.644,-136.696C357.349,-128.488 441.166,-114.068 496.641,-104.524"/>
<polygon fill="midnightblue" stroke="midnightblue" points="309.013,-133.253 299.752,-138.398 310.2,-140.151 309.013,-133.253"/>
</g>
<!-- Node4&#45;&gt;Node10 -->
<g id="edge10" class="edge"><title>Node4&#45;&gt;Node10</title>
<path fill="none" stroke="midnightblue" d="M287.695,-125.634C304.461,-105.95 330.303,-76.0559 336,-72 344.345,-66.0591 354.381,-61.2452 363.742,-57.5316"/>
<polygon fill="midnightblue" stroke="midnightblue" points="284.956,-123.452 281.15,-133.339 290.291,-127.983 284.956,-123.452"/>
</g>
<!-- Node11 -->
<g id="node11" class="node"><title>Node11</title>
<g id="a_node11"><a xlink:href="_g_u_i_2_include_2control_8h.xhtml#a3ea9dadf648f70197ec522fb6fedc393" target="_top" xlink:title="control_openlog">
<polygon fill="white" stroke="black" points="352.5,-190.5 352.5,-209.5 437.5,-209.5 437.5,-190.5 352.5,-190.5"/>
<text text-anchor="middle" x="395" y="-197.5" font-family="Helvetica,sans-Serif" font-size="10.00">control_openlog</text>
</a>
</g>
</g>
<!-- Node4&#45;&gt;Node11 -->
<g id="edge11" class="edge"><title>Node4&#45;&gt;Node11</title>
<path fill="none" stroke="midnightblue" d="M295.669,-158.385C307.367,-165.876 322.073,-174.618 336,-181 343.706,-184.531 352.26,-187.711 360.379,-190.414"/>
<polygon fill="midnightblue" stroke="midnightblue" points="297.289,-155.262 287.005,-152.715 293.456,-161.119 297.289,-155.262"/>
</g>
<!-- Node4&#45;&gt;Node12 -->
<g id="edge12" class="edge"><title>Node4&#45;&gt;Node12</title>
<path fill="none" stroke="midnightblue" d="M278.647,-123.939C287.084,-98.6771 305.359,-54.3536 336,-29 340.653,-25.1497 346.11,-22.072 351.781,-19.6138"/>
<polygon fill="midnightblue" stroke="midnightblue" points="275.305,-122.897 275.625,-133.487 281.979,-125.009 275.305,-122.897"/>
</g>
<!-- Node13 -->
<g id="node13" class="node"><title>Node13</title>
<g id="a_node13"><a xlink:href="_g_u_i_2_include_2control_8h.xhtml#ab5bd42385627821b5bbe8f172adc9d10" target="_top" xlink:title="control_scfile">
<polygon fill="white" stroke="black" points="358,-152.5 358,-171.5 432,-171.5 432,-152.5 358,-152.5"/>
<text text-anchor="middle" x="395" y="-159.5" font-family="Helvetica,sans-Serif" font-size="10.00">control_scfile</text>
</a>
</g>
</g>
<!-- Node4&#45;&gt;Node13 -->
<g id="edge13" class="edge"><title>Node4&#45;&gt;Node13</title>
<path fill="none" stroke="midnightblue" d="M309.685,-148.761C324.963,-151.159 342.651,-153.937 357.869,-156.327"/>
<polygon fill="midnightblue" stroke="midnightblue" points="309.976,-145.263 299.554,-147.17 308.89,-152.179 309.976,-145.263"/>
</g>
<!-- Node5&#45;&gt;Node6 -->
<g id="edge5" class="edge"><title>Node5&#45;&gt;Node6</title>
<path fill="none" stroke="midnightblue" d="M606.268,-152C622.629,-152 639.605,-152 651.919,-152"/>
<polygon fill="midnightblue" stroke="midnightblue" points="606.207,-148.5 596.207,-152 606.207,-155.5 606.207,-148.5"/>
</g>
<!-- Node9&#45;&gt;Node6 -->
<g id="edge9" class="edge"><title>Node9&#45;&gt;Node6</title>
<path fill="none" stroke="midnightblue" d="M582.452,-108.981C604.039,-119.588 633.077,-133.857 651.67,-142.993"/>
<polygon fill="midnightblue" stroke="midnightblue" points="583.934,-105.809 573.416,-104.541 580.847,-112.092 583.934,-105.809"/>
</g>
<!-- Node13&#45;&gt;Node5 -->
<g id="edge14" class="edge"><title>Node13&#45;&gt;Node5</title>
<path fill="none" stroke="midnightblue" d="M442.359,-159.028C463.792,-157.654 489.063,-156.034 509.938,-154.696"/>
<polygon fill="midnightblue" stroke="midnightblue" points="441.937,-155.548 432.182,-159.681 442.385,-162.534 441.937,-155.548"/>
</g>
</g>
</svg>
