<?xml version="1.0" encoding="UTF-8" standalone="no"?>
<!DOCTYPE svg PUBLIC "-//W3C//DTD SVG 1.1//EN"
 "http://www.w3.org/Graphics/SVG/1.1/DTD/svg11.dtd">
<!-- Generated by graphviz version 2.36.0 (20140111.2315)
 -->
<!-- Title: /data/Software/DAQ Pages: 1 -->
<svg width="398pt" height="111pt"
 viewBox="0.00 0.00 398.00 111.00" xmlns="http://www.w3.org/2000/svg" xmlns:xlink="http://www.w3.org/1999/xlink">
<g id="graph0" class="graph" transform="scale(1 1) rotate(0) translate(4 107)">
<title>/data/Software/DAQ</title>
<polygon fill="white" stroke="none" points="-4,4 -4,-107 394,-107 394,4 -4,4"/>
<g id="clust1" class="cluster"><title>clusterdir_a60e370613dab7e7dc459045dd6e3050</title>
<g id="a_clust1"><a xlink:href="dir_a60e370613dab7e7dc459045dd6e3050.xhtml" target="_top" xlink:title="Software">
<polygon fill="#ddddee" stroke="black" points="8,-8 8,-95 382,-95 382,-8 8,-8"/>
<text text-anchor="middle" x="195" y="-83" font-family="Helvetica,sans-Serif" font-size="10.00">Software</text>
</a>
</g>
</g>
<g id="clust2" class="cluster"><title>clusterdir_b7037f21e3066119b95b62c0b145af72</title>
<g id="a_clust2"><a xlink:href="dir_b7037f21e3066119b95b62c0b145af72.xhtml" target="_top">
<polygon fill="#eeeeff" stroke="black" points="16,-16 16,-68 374,-68 374,-16 16,-16"/>
</a>
</g>
</g>
<!-- dir_b7037f21e3066119b95b62c0b145af72 -->
<g id="node1" class="node"><title>dir_b7037f21e3066119b95b62c0b145af72</title>
<text text-anchor="middle" x="339" y="-39.5" font-family="Helvetica,sans-Serif" font-size="10.00">DAQ</text>
</g>
<!-- dir_9e2899ad002cd997830693b6505dd33f -->
<g id="node2" class="node"><title>dir_9e2899ad002cd997830693b6505dd33f</title>
<g id="a_node2"><a xlink:href="dir_9e2899ad002cd997830693b6505dd33f.xhtml" target="_top" xlink:title="CDAQ">
<polygon fill="white" stroke="red" points="294,-60 240,-60 240,-24 294,-24 294,-60"/>
<text text-anchor="middle" x="267" y="-39.5" font-family="Helvetica,sans-Serif" font-size="10.00">CDAQ</text>
</a>
</g>
</g>
<!-- dir_f16a1199feb0526b88f97700734c6346 -->
<g id="node3" class="node"><title>dir_f16a1199feb0526b88f97700734c6346</title>
<g id="a_node3"><a xlink:href="dir_f16a1199feb0526b88f97700734c6346.xhtml" target="_top" xlink:title="PDAQ">
<polygon fill="white" stroke="red" points="222,-60 168,-60 168,-24 222,-24 222,-60"/>
<text text-anchor="middle" x="195" y="-39.5" font-family="Helvetica,sans-Serif" font-size="10.00">PDAQ</text>
</a>
</g>
</g>
<!-- dir_01ee6060cbb198981d689be41214ca75 -->
<g id="node4" class="node"><title>dir_01ee6060cbb198981d689be41214ca75</title>
<g id="a_node4"><a xlink:href="dir_01ee6060cbb198981d689be41214ca75.xhtml" target="_top" xlink:title="Scaler">
<polygon fill="white" stroke="red" points="150,-60 96,-60 96,-24 150,-24 150,-60"/>
<text text-anchor="middle" x="123" y="-39.5" font-family="Helvetica,sans-Serif" font-size="10.00">Scaler</text>
</a>
</g>
</g>
<!-- dir_da8fd0b054b9d985ac3cf02e13983478 -->
<g id="node5" class="node"><title>dir_da8fd0b054b9d985ac3cf02e13983478</title>
<g id="a_node5"><a xlink:href="dir_da8fd0b054b9d985ac3cf02e13983478.xhtml" target="_top" xlink:title="XDAQ">
<polygon fill="white" stroke="red" points="78,-60 24,-60 24,-24 78,-24 78,-60"/>
<text text-anchor="middle" x="51" y="-39.5" font-family="Helvetica,sans-Serif" font-size="10.00">XDAQ</text>
</a>
</g>
</g>
</g>
</svg>
