<?xml version="1.0" encoding="UTF-8" standalone="no"?>
<!DOCTYPE svg PUBLIC "-//W3C//DTD SVG 1.1//EN"
 "http://www.w3.org/Graphics/SVG/1.1/DTD/svg11.dtd">
<!-- Generated by graphviz version 2.36.0 (20140111.2315)
 -->
<!-- Title: /data/Software/DAQ/CDAQ Pages: 1 -->
<svg width="266pt" height="183pt"
 viewBox="0.00 0.00 266.00 183.00" xmlns="http://www.w3.org/2000/svg" xmlns:xlink="http://www.w3.org/1999/xlink">
<g id="graph0" class="graph" transform="scale(1 1) rotate(0) translate(4 179)">
<title>/data/Software/DAQ/CDAQ</title>
<polygon fill="white" stroke="none" points="-4,4 -4,-179 262,-179 262,4 -4,4"/>
<g id="clust1" class="cluster"><title>clusterdir_b7037f21e3066119b95b62c0b145af72</title>
<g id="a_clust1"><a xlink:href="dir_b7037f21e3066119b95b62c0b145af72.xhtml" target="_top" xlink:title="DAQ">
<polygon fill="#ddddee" stroke="black" points="8,-8 8,-167 250,-167 250,-8 8,-8"/>
<text text-anchor="middle" x="129" y="-155" font-family="Helvetica,sans-Serif" font-size="10.00">DAQ</text>
</a>
</g>
</g>
<g id="clust2" class="cluster"><title>clusterdir_9e2899ad002cd997830693b6505dd33f</title>
<g id="a_clust2"><a xlink:href="dir_9e2899ad002cd997830693b6505dd33f.xhtml" target="_top">
<polygon fill="#eeeeff" stroke="black" points="16,-16 16,-140 242,-140 242,-16 16,-16"/>
</a>
</g>
</g>
<!-- dir_9e2899ad002cd997830693b6505dd33f -->
<g id="node1" class="node"><title>dir_9e2899ad002cd997830693b6505dd33f</title>
<text text-anchor="middle" x="207" y="-111.5" font-family="Helvetica,sans-Serif" font-size="10.00">CDAQ</text>
</g>
<!-- dir_02726bf6a92a3873ec5f352e6b077522 -->
<g id="node2" class="node"><title>dir_02726bf6a92a3873ec5f352e6b077522</title>
<g id="a_node2"><a xlink:href="dir_02726bf6a92a3873ec5f352e6b077522.xhtml" target="_top" xlink:title="Application">
<polygon fill="white" stroke="black" points="161.25,-132 96.75,-132 96.75,-96 161.25,-96 161.25,-132"/>
<text text-anchor="middle" x="129" y="-111.5" font-family="Helvetica,sans-Serif" font-size="10.00">Application</text>
</a>
</g>
</g>
<!-- dir_ce9a88edc2177e6660865acf61a1f7f6 -->
<g id="node3" class="node"><title>dir_ce9a88edc2177e6660865acf61a1f7f6</title>
<g id="a_node3"><a xlink:href="dir_ce9a88edc2177e6660865acf61a1f7f6.xhtml" target="_top" xlink:title="Core">
<polygon fill="white" stroke="red" points="156,-60 102,-60 102,-24 156,-24 156,-60"/>
<text text-anchor="middle" x="129" y="-39.5" font-family="Helvetica,sans-Serif" font-size="10.00">Core</text>
</a>
</g>
</g>
<!-- dir_02726bf6a92a3873ec5f352e6b077522&#45;&gt;dir_ce9a88edc2177e6660865acf61a1f7f6 -->
<g id="edge1" class="edge"><title>dir_02726bf6a92a3873ec5f352e6b077522&#45;&gt;dir_ce9a88edc2177e6660865acf61a1f7f6</title>
<path fill="none" stroke="black" d="M129,-95.6966C129,-87.9827 129,-78.7125 129,-70.1124"/>
<polygon fill="black" stroke="black" points="132.5,-70.1043 129,-60.1043 125.5,-70.1044 132.5,-70.1043"/>
<g id="a_edge1&#45;headlabel"><a xlink:href="dir_000004_000005.xhtml" target="_top" xlink:title="14">
<text text-anchor="middle" x="135.339" y="-71.199" font-family="Helvetica,sans-Serif" font-size="10.00">14</text>
</a>
</g>
</g>
<!-- dir_98f839498286ffc7ef29df53ea08e497 -->
<g id="node4" class="node"><title>dir_98f839498286ffc7ef29df53ea08e497</title>
<g id="a_node4"><a xlink:href="dir_98f839498286ffc7ef29df53ea08e497.xhtml" target="_top" xlink:title="Plugins">
<polygon fill="white" stroke="red" points="78,-132 24,-132 24,-96 78,-96 78,-132"/>
<text text-anchor="middle" x="51" y="-111.5" font-family="Helvetica,sans-Serif" font-size="10.00">Plugins</text>
</a>
</g>
</g>
</g>
</svg>
