<?xml version="1.0" encoding="UTF-8" standalone="no"?>
<!DOCTYPE svg PUBLIC "-//W3C//DTD SVG 1.1//EN"
 "http://www.w3.org/Graphics/SVG/1.1/DTD/svg11.dtd">
<!-- Generated by graphviz version 2.36.0 (20140111.2315)
 -->
<!-- Title: /data/Software/DAQ/PDAQ/Core Pages: 1 -->
<svg width="182pt" height="183pt"
 viewBox="0.00 0.00 182.00 183.00" xmlns="http://www.w3.org/2000/svg" xmlns:xlink="http://www.w3.org/1999/xlink">
<g id="graph0" class="graph" transform="scale(1 1) rotate(0) translate(4 179)">
<title>/data/Software/DAQ/PDAQ/Core</title>
<polygon fill="white" stroke="none" points="-4,4 -4,-179 178,-179 178,4 -4,4"/>
<g id="clust1" class="cluster"><title>clusterdir_f16a1199feb0526b88f97700734c6346</title>
<g id="a_clust1"><a xlink:href="dir_f16a1199feb0526b88f97700734c6346.xhtml" target="_top" xlink:title="PDAQ">
<polygon fill="#ddddee" stroke="black" points="8,-8 8,-167 166,-167 166,-8 8,-8"/>
<text text-anchor="middle" x="87" y="-155" font-family="Helvetica,sans-Serif" font-size="10.00">PDAQ</text>
</a>
</g>
</g>
<g id="clust2" class="cluster"><title>clusterdir_ad10ffc1a59efda2451efef380d4736c</title>
<g id="a_clust2"><a xlink:href="dir_ad10ffc1a59efda2451efef380d4736c.xhtml" target="_top">
<polygon fill="#eeeeff" stroke="black" points="16,-16 16,-140 158,-140 158,-16 16,-16"/>
</a>
</g>
</g>
<!-- dir_ad10ffc1a59efda2451efef380d4736c -->
<g id="node1" class="node"><title>dir_ad10ffc1a59efda2451efef380d4736c</title>
<text text-anchor="middle" x="123" y="-111.5" font-family="Helvetica,sans-Serif" font-size="10.00">Core</text>
</g>
<!-- dir_ef12b0b33126966955a586281bd8f91e -->
<g id="node2" class="node"><title>dir_ef12b0b33126966955a586281bd8f91e</title>
<g id="a_node2"><a xlink:href="dir_ef12b0b33126966955a586281bd8f91e.xhtml" target="_top" xlink:title="Include">
<polygon fill="white" stroke="black" points="78,-60 24,-60 24,-24 78,-24 78,-60"/>
<text text-anchor="middle" x="51" y="-39.5" font-family="Helvetica,sans-Serif" font-size="10.00">Include</text>
</a>
</g>
</g>
<!-- dir_0b6d31dde51969416979aec787093569 -->
<g id="node3" class="node"><title>dir_0b6d31dde51969416979aec787093569</title>
<g id="a_node3"><a xlink:href="dir_0b6d31dde51969416979aec787093569.xhtml" target="_top" xlink:title="Source">
<polygon fill="white" stroke="black" points="78,-132 24,-132 24,-96 78,-96 78,-132"/>
<text text-anchor="middle" x="51" y="-111.5" font-family="Helvetica,sans-Serif" font-size="10.00">Source</text>
</a>
</g>
</g>
<!-- dir_0b6d31dde51969416979aec787093569&#45;&gt;dir_ef12b0b33126966955a586281bd8f91e -->
<g id="edge1" class="edge"><title>dir_0b6d31dde51969416979aec787093569&#45;&gt;dir_ef12b0b33126966955a586281bd8f91e</title>
<path fill="none" stroke="black" d="M51,-95.6966C51,-87.9827 51,-78.7125 51,-70.1124"/>
<polygon fill="black" stroke="black" points="54.5001,-70.1043 51,-60.1043 47.5001,-70.1044 54.5001,-70.1043"/>
<g id="a_edge1&#45;headlabel"><a xlink:href="dir_000028_000025.xhtml" target="_top" xlink:title="11">
<text text-anchor="middle" x="57.3393" y="-71.199" font-family="Helvetica,sans-Serif" font-size="10.00">11</text>
</a>
</g>
</g>
</g>
</svg>
