<?xml version="1.0" encoding="UTF-8" standalone="no"?>
<!DOCTYPE svg PUBLIC "-//W3C//DTD SVG 1.1//EN"
 "http://www.w3.org/Graphics/SVG/1.1/DTD/svg11.dtd">
<!-- Generated by graphviz version 2.36.0 (20140111.2315)
 -->
<!-- Title: /data/Software/DAQ/XDAQ Pages: 1 -->
<svg width="338pt" height="183pt"
 viewBox="0.00 0.00 338.00 183.00" xmlns="http://www.w3.org/2000/svg" xmlns:xlink="http://www.w3.org/1999/xlink">
<g id="graph0" class="graph" transform="scale(1 1) rotate(0) translate(4 179)">
<title>/data/Software/DAQ/XDAQ</title>
<polygon fill="white" stroke="none" points="-4,4 -4,-179 334,-179 334,4 -4,4"/>
<g id="clust1" class="cluster"><title>clusterdir_b7037f21e3066119b95b62c0b145af72</title>
<g id="a_clust1"><a xlink:href="dir_b7037f21e3066119b95b62c0b145af72.xhtml" target="_top" xlink:title="DAQ">
<polygon fill="#ddddee" stroke="black" points="8,-8 8,-167 322,-167 322,-8 8,-8"/>
<text text-anchor="middle" x="165" y="-155" font-family="Helvetica,sans-Serif" font-size="10.00">DAQ</text>
</a>
</g>
</g>
<g id="clust2" class="cluster"><title>clusterdir_da8fd0b054b9d985ac3cf02e13983478</title>
<g id="a_clust2"><a xlink:href="dir_da8fd0b054b9d985ac3cf02e13983478.xhtml" target="_top">
<polygon fill="#eeeeff" stroke="black" points="16,-16 16,-140 314,-140 314,-16 16,-16"/>
</a>
</g>
</g>
<!-- dir_da8fd0b054b9d985ac3cf02e13983478 -->
<g id="node1" class="node"><title>dir_da8fd0b054b9d985ac3cf02e13983478</title>
<text text-anchor="middle" x="279" y="-111.5" font-family="Helvetica,sans-Serif" font-size="10.00">XDAQ</text>
</g>
<!-- dir_99df9da9855802a0f6508dae2455dec3 -->
<g id="node2" class="node"><title>dir_99df9da9855802a0f6508dae2455dec3</title>
<g id="a_node2"><a xlink:href="dir_99df9da9855802a0f6508dae2455dec3.xhtml" target="_top" xlink:title="Application">
<polygon fill="white" stroke="black" points="233.25,-132 168.75,-132 168.75,-96 233.25,-96 233.25,-132"/>
<text text-anchor="middle" x="201" y="-111.5" font-family="Helvetica,sans-Serif" font-size="10.00">Application</text>
</a>
</g>
</g>
<!-- dir_472dbd665ce4ca34dfa11ac3b9472011 -->
<g id="node4" class="node"><title>dir_472dbd665ce4ca34dfa11ac3b9472011</title>
<g id="a_node4"><a xlink:href="dir_472dbd665ce4ca34dfa11ac3b9472011.xhtml" target="_top" xlink:title="GUI">
<polygon fill="white" stroke="red" points="228,-60 174,-60 174,-24 228,-24 228,-60"/>
<text text-anchor="middle" x="201" y="-39.5" font-family="Helvetica,sans-Serif" font-size="10.00">GUI</text>
</a>
</g>
</g>
<!-- dir_99df9da9855802a0f6508dae2455dec3&#45;&gt;dir_472dbd665ce4ca34dfa11ac3b9472011 -->
<g id="edge1" class="edge"><title>dir_99df9da9855802a0f6508dae2455dec3&#45;&gt;dir_472dbd665ce4ca34dfa11ac3b9472011</title>
<path fill="none" stroke="black" d="M201,-95.6966C201,-87.9827 201,-78.7125 201,-70.1124"/>
<polygon fill="black" stroke="black" points="204.5,-70.1043 201,-60.1043 197.5,-70.1044 204.5,-70.1043"/>
<g id="a_edge1&#45;headlabel"><a xlink:href="dir_000036_000021.xhtml" target="_top" xlink:title="1">
<text text-anchor="middle" x="207.339" y="-71.199" font-family="Helvetica,sans-Serif" font-size="10.00">1</text>
</a>
</g>
</g>
<!-- dir_e7f45838860ffcdbcbebb6eb575a2ab2 -->
<g id="node3" class="node"><title>dir_e7f45838860ffcdbcbebb6eb575a2ab2</title>
<g id="a_node3"><a xlink:href="dir_e7f45838860ffcdbcbebb6eb575a2ab2.xhtml" target="_top" xlink:title="Core">
<polygon fill="white" stroke="red" points="150,-132 96,-132 96,-96 150,-96 150,-132"/>
<text text-anchor="middle" x="123" y="-111.5" font-family="Helvetica,sans-Serif" font-size="10.00">Core</text>
</a>
</g>
</g>
<!-- dir_00bac926296180d4257ccc29efa2052a -->
<g id="node5" class="node"><title>dir_00bac926296180d4257ccc29efa2052a</title>
<g id="a_node5"><a xlink:href="dir_00bac926296180d4257ccc29efa2052a.xhtml" target="_top" xlink:title="Plugins">
<polygon fill="white" stroke="red" points="78,-132 24,-132 24,-96 78,-96 78,-132"/>
<text text-anchor="middle" x="51" y="-111.5" font-family="Helvetica,sans-Serif" font-size="10.00">Plugins</text>
</a>
</g>
</g>
</g>
</svg>
