<?xml version="1.0" encoding="UTF-8" standalone="no"?>
<!DOCTYPE svg PUBLIC "-//W3C//DTD SVG 1.1//EN"
 "http://www.w3.org/Graphics/SVG/1.1/DTD/svg11.dtd">
<!-- Generated by graphviz version 2.36.0 (20140111.2315)
 -->
<!-- Title: /data/Software/DAQ/Scaler/Core Pages: 1 -->
<svg width="236pt" height="183pt"
 viewBox="0.00 0.00 236.00 183.00" xmlns="http://www.w3.org/2000/svg" xmlns:xlink="http://www.w3.org/1999/xlink">
<g id="graph0" class="graph" transform="scale(1 1) rotate(0) translate(4 179)">
<title>/data/Software/DAQ/Scaler/Core</title>
<polygon fill="white" stroke="none" points="-4,4 -4,-179 232,-179 232,4 -4,4"/>
<g id="clust1" class="cluster"><title>clusterdir_01ee6060cbb198981d689be41214ca75</title>
<g id="a_clust1"><a xlink:href="dir_01ee6060cbb198981d689be41214ca75.xhtml" target="_top" xlink:title="Scaler">
<polygon fill="#ddddee" stroke="black" points="8,-8 8,-167 166,-167 166,-8 8,-8"/>
<text text-anchor="middle" x="87" y="-155" font-family="Helvetica,sans-Serif" font-size="10.00">Scaler</text>
</a>
</g>
</g>
<g id="clust2" class="cluster"><title>clusterdir_fe2918cd4d97e62de932585c4de2d24f</title>
<g id="a_clust2"><a xlink:href="dir_fe2918cd4d97e62de932585c4de2d24f.xhtml" target="_top">
<polygon fill="#eeeeff" stroke="black" points="16,-16 16,-140 158,-140 158,-16 16,-16"/>
</a>
</g>
</g>
<!-- dir_fe2918cd4d97e62de932585c4de2d24f -->
<g id="node1" class="node"><title>dir_fe2918cd4d97e62de932585c4de2d24f</title>
<text text-anchor="middle" x="123" y="-111.5" font-family="Helvetica,sans-Serif" font-size="10.00">Core</text>
</g>
<!-- dir_e2649e7ff1acd92b4cd6000014ff229c -->
<g id="node2" class="node"><title>dir_e2649e7ff1acd92b4cd6000014ff229c</title>
<g id="a_node2"><a xlink:href="dir_e2649e7ff1acd92b4cd6000014ff229c.xhtml" target="_top" xlink:title="Include">
<polygon fill="white" stroke="black" points="78,-60 24,-60 24,-24 78,-24 78,-60"/>
<text text-anchor="middle" x="51" y="-39.5" font-family="Helvetica,sans-Serif" font-size="10.00">Include</text>
</a>
</g>
</g>
<!-- dir_b6a84f8d8584e16317286984674b97b4 -->
<g id="node3" class="node"><title>dir_b6a84f8d8584e16317286984674b97b4</title>
<g id="a_node3"><a xlink:href="dir_b6a84f8d8584e16317286984674b97b4.xhtml" target="_top" xlink:title="Source">
<polygon fill="white" stroke="black" points="78,-132 24,-132 24,-96 78,-96 78,-132"/>
<text text-anchor="middle" x="51" y="-111.5" font-family="Helvetica,sans-Serif" font-size="10.00">Source</text>
</a>
</g>
</g>
<!-- dir_b6a84f8d8584e16317286984674b97b4&#45;&gt;dir_e2649e7ff1acd92b4cd6000014ff229c -->
<g id="edge1" class="edge"><title>dir_b6a84f8d8584e16317286984674b97b4&#45;&gt;dir_e2649e7ff1acd92b4cd6000014ff229c</title>
<path fill="none" stroke="black" d="M51,-95.6966C51,-87.9827 51,-78.7125 51,-70.1124"/>
<polygon fill="black" stroke="black" points="54.5001,-70.1043 51,-60.1043 47.5001,-70.1044 54.5001,-70.1043"/>
<g id="a_edge1&#45;headlabel"><a xlink:href="dir_000011_000009.xhtml" target="_top" xlink:title="4">
<text text-anchor="middle" x="57.3393" y="-71.199" font-family="Helvetica,sans-Serif" font-size="10.00">4</text>
</a>
</g>
</g>
<!-- dir_364a962be7990a975da94e3508835043 -->
<g id="node4" class="node"><title>dir_364a962be7990a975da94e3508835043</title>
<g id="a_node4"><a xlink:href="dir_364a962be7990a975da94e3508835043.xhtml" target="_top" xlink:title="IO">
<polygon fill="white" stroke="red" points="228,-60 174,-60 174,-24 228,-24 228,-60"/>
<text text-anchor="middle" x="201" y="-39.5" font-family="Helvetica,sans-Serif" font-size="10.00">IO</text>
</a>
</g>
</g>
<!-- dir_b6a84f8d8584e16317286984674b97b4&#45;&gt;dir_364a962be7990a975da94e3508835043 -->
<g id="edge2" class="edge"><title>dir_b6a84f8d8584e16317286984674b97b4&#45;&gt;dir_364a962be7990a975da94e3508835043</title>
<path fill="none" stroke="black" d="M78.1186,-100.173C81.1142,-98.7621 84.1209,-97.349 87,-96 112.94,-83.8454 142.247,-70.2226 164.65,-59.832"/>
<polygon fill="black" stroke="black" points="166.199,-62.9721 173.799,-55.5905 163.254,-56.6214 166.199,-62.9721"/>
<g id="a_edge2&#45;headlabel"><a xlink:href="dir_000011_000033.xhtml" target="_top" xlink:title="1">
<text text-anchor="middle" x="164.132" y="-64.5599" font-family="Helvetica,sans-Serif" font-size="10.00">1</text>
</a>
</g>
</g>
</g>
</svg>
