<?xml version="1.0" encoding="UTF-8" standalone="no"?>
<!DOCTYPE svg PUBLIC "-//W3C//DTD SVG 1.1//EN"
 "http://www.w3.org/Graphics/SVG/1.1/DTD/svg11.dtd">
<!-- Generated by graphviz version 2.36.0 (20140111.2315)
 -->
<!-- Title: /data/Software/DAQ/Scaler/Application Pages: 1 -->
<svg width="106pt" height="151pt"
 viewBox="0.00 0.00 106.00 151.00" xmlns="http://www.w3.org/2000/svg" xmlns:xlink="http://www.w3.org/1999/xlink">
<g id="graph0" class="graph" transform="scale(1 1) rotate(0) translate(4 147)">
<title>/data/Software/DAQ/Scaler/Application</title>
<polygon fill="white" stroke="none" points="-4,4 -4,-147 102,-147 102,4 -4,4"/>
<g id="clust1" class="cluster"><title>clusterdir_01ee6060cbb198981d689be41214ca75</title>
<g id="a_clust1"><a xlink:href="dir_01ee6060cbb198981d689be41214ca75.xhtml" target="_top" xlink:title="Scaler">
<polygon fill="#ddddee" stroke="black" points="8,-64 8,-135 90,-135 90,-64 8,-64"/>
<text text-anchor="middle" x="49" y="-123" font-family="Helvetica,sans-Serif" font-size="10.00">Scaler</text>
</a>
</g>
</g>
<!-- dir_2038d747aa82e10f46e00f4505536125 -->
<g id="node1" class="node"><title>dir_2038d747aa82e10f46e00f4505536125</title>
<g id="a_node1"><a xlink:href="dir_2038d747aa82e10f46e00f4505536125.xhtml" target="_top" xlink:title="Application">
<polygon fill="#eeeeff" stroke="black" points="81.25,-108 16.75,-108 16.75,-72 81.25,-72 81.25,-108"/>
<text text-anchor="middle" x="49" y="-87.5" font-family="Helvetica,sans-Serif" font-size="10.00">Application</text>
</a>
</g>
</g>
<!-- dir_fe2918cd4d97e62de932585c4de2d24f -->
<g id="node2" class="node"><title>dir_fe2918cd4d97e62de932585c4de2d24f</title>
<g id="a_node2"><a xlink:href="dir_fe2918cd4d97e62de932585c4de2d24f.xhtml" target="_top" xlink:title="Core">
<polygon fill="white" stroke="red" points="76,-36 22,-36 22,-0 76,-0 76,-36"/>
<text text-anchor="middle" x="49" y="-15.5" font-family="Helvetica,sans-Serif" font-size="10.00">Core</text>
</a>
</g>
</g>
<!-- dir_2038d747aa82e10f46e00f4505536125&#45;&gt;dir_fe2918cd4d97e62de932585c4de2d24f -->
<g id="edge1" class="edge"><title>dir_2038d747aa82e10f46e00f4505536125&#45;&gt;dir_fe2918cd4d97e62de932585c4de2d24f</title>
<path fill="none" stroke="black" d="M49,-71.6966C49,-63.9827 49,-54.7125 49,-46.1124"/>
<polygon fill="black" stroke="black" points="52.5001,-46.1043 49,-36.1043 45.5001,-46.1044 52.5001,-46.1043"/>
<g id="a_edge1&#45;headlabel"><a xlink:href="dir_000032_000008.xhtml" target="_top" xlink:title="2">
<text text-anchor="middle" x="55.3393" y="-47.199" font-family="Helvetica,sans-Serif" font-size="10.00">2</text>
</a>
</g>
</g>
</g>
</svg>
