<?xml version="1.0" encoding="UTF-8" standalone="no"?>
<!DOCTYPE svg PUBLIC "-//W3C//DTD SVG 1.1//EN"
 "http://www.w3.org/Graphics/SVG/1.1/DTD/svg11.dtd">
<!-- Generated by graphviz version 2.36.0 (20140111.2315)
 -->
<!-- Title: /data/Software/DAQ/Scaler/IO Pages: 1 -->
<svg width="182pt" height="183pt"
 viewBox="0.00 0.00 182.00 183.00" xmlns="http://www.w3.org/2000/svg" xmlns:xlink="http://www.w3.org/1999/xlink">
<g id="graph0" class="graph" transform="scale(1 1) rotate(0) translate(4 179)">
<title>/data/Software/DAQ/Scaler/IO</title>
<polygon fill="white" stroke="none" points="-4,4 -4,-179 178,-179 178,4 -4,4"/>
<g id="clust1" class="cluster"><title>clusterdir_01ee6060cbb198981d689be41214ca75</title>
<g id="a_clust1"><a xlink:href="dir_01ee6060cbb198981d689be41214ca75.xhtml" target="_top" xlink:title="Scaler">
<polygon fill="#ddddee" stroke="black" points="8,-8 8,-167 166,-167 166,-8 8,-8"/>
<text text-anchor="middle" x="87" y="-155" font-family="Helvetica,sans-Serif" font-size="10.00">Scaler</text>
</a>
</g>
</g>
<g id="clust2" class="cluster"><title>clusterdir_364a962be7990a975da94e3508835043</title>
<g id="a_clust2"><a xlink:href="dir_364a962be7990a975da94e3508835043.xhtml" target="_top">
<polygon fill="#eeeeff" stroke="black" points="16,-16 16,-140 158,-140 158,-16 16,-16"/>
</a>
</g>
</g>
<!-- dir_364a962be7990a975da94e3508835043 -->
<g id="node1" class="node"><title>dir_364a962be7990a975da94e3508835043</title>
<text text-anchor="middle" x="123" y="-111.5" font-family="Helvetica,sans-Serif" font-size="10.00">IO</text>
</g>
<!-- dir_de8156fb8f4cd6149da1e196260bd1ee -->
<g id="node2" class="node"><title>dir_de8156fb8f4cd6149da1e196260bd1ee</title>
<g id="a_node2"><a xlink:href="dir_de8156fb8f4cd6149da1e196260bd1ee.xhtml" target="_top" xlink:title="Include">
<polygon fill="white" stroke="black" points="78,-60 24,-60 24,-24 78,-24 78,-60"/>
<text text-anchor="middle" x="51" y="-39.5" font-family="Helvetica,sans-Serif" font-size="10.00">Include</text>
</a>
</g>
</g>
<!-- dir_f87d06a4ece97d2bfbe803d23f76c1ce -->
<g id="node3" class="node"><title>dir_f87d06a4ece97d2bfbe803d23f76c1ce</title>
<g id="a_node3"><a xlink:href="dir_f87d06a4ece97d2bfbe803d23f76c1ce.xhtml" target="_top" xlink:title="Source">
<polygon fill="white" stroke="black" points="78,-132 24,-132 24,-96 78,-96 78,-132"/>
<text text-anchor="middle" x="51" y="-111.5" font-family="Helvetica,sans-Serif" font-size="10.00">Source</text>
</a>
</g>
</g>
<!-- dir_f87d06a4ece97d2bfbe803d23f76c1ce&#45;&gt;dir_de8156fb8f4cd6149da1e196260bd1ee -->
<g id="edge1" class="edge"><title>dir_f87d06a4ece97d2bfbe803d23f76c1ce&#45;&gt;dir_de8156fb8f4cd6149da1e196260bd1ee</title>
<path fill="none" stroke="black" d="M51,-95.6966C51,-87.9827 51,-78.7125 51,-70.1124"/>
<polygon fill="black" stroke="black" points="54.5001,-70.1043 51,-60.1043 47.5001,-70.1044 54.5001,-70.1043"/>
<g id="a_edge1&#45;headlabel"><a xlink:href="dir_000035_000034.xhtml" target="_top" xlink:title="1">
<text text-anchor="middle" x="57.3393" y="-71.199" font-family="Helvetica,sans-Serif" font-size="10.00">1</text>
</a>
</g>
</g>
</g>
</svg>
