<?xml version="1.0" encoding="UTF-8" standalone="no"?>
<!DOCTYPE svg PUBLIC "-//W3C//DTD SVG 1.1//EN"
 "http://www.w3.org/Graphics/SVG/1.1/DTD/svg11.dtd">
<!-- Generated by graphviz version 2.36.0 (20140111.2315)
 -->
<!-- Title: /data/Software/DAQ/Scaler Pages: 1 -->
<svg width="266pt" height="255pt"
 viewBox="0.00 0.00 266.00 255.00" xmlns="http://www.w3.org/2000/svg" xmlns:xlink="http://www.w3.org/1999/xlink">
<g id="graph0" class="graph" transform="scale(1 1) rotate(0) translate(4 251)">
<title>/data/Software/DAQ/Scaler</title>
<polygon fill="white" stroke="none" points="-4,4 -4,-251 262,-251 262,4 -4,4"/>
<g id="clust1" class="cluster"><title>clusterdir_b7037f21e3066119b95b62c0b145af72</title>
<g id="a_clust1"><a xlink:href="dir_b7037f21e3066119b95b62c0b145af72.xhtml" target="_top" xlink:title="DAQ">
<polygon fill="#ddddee" stroke="black" points="8,-8 8,-239 250,-239 250,-8 8,-8"/>
<text text-anchor="middle" x="129" y="-227" font-family="Helvetica,sans-Serif" font-size="10.00">DAQ</text>
</a>
</g>
</g>
<g id="clust2" class="cluster"><title>clusterdir_01ee6060cbb198981d689be41214ca75</title>
<g id="a_clust2"><a xlink:href="dir_01ee6060cbb198981d689be41214ca75.xhtml" target="_top">
<polygon fill="#eeeeff" stroke="black" points="16,-16 16,-212 242,-212 242,-16 16,-16"/>
</a>
</g>
</g>
<!-- dir_01ee6060cbb198981d689be41214ca75 -->
<g id="node1" class="node"><title>dir_01ee6060cbb198981d689be41214ca75</title>
<text text-anchor="middle" x="207" y="-183.5" font-family="Helvetica,sans-Serif" font-size="10.00">Scaler</text>
</g>
<!-- dir_2038d747aa82e10f46e00f4505536125 -->
<g id="node2" class="node"><title>dir_2038d747aa82e10f46e00f4505536125</title>
<g id="a_node2"><a xlink:href="dir_2038d747aa82e10f46e00f4505536125.xhtml" target="_top" xlink:title="Application">
<polygon fill="white" stroke="black" points="161.25,-204 96.75,-204 96.75,-168 161.25,-168 161.25,-204"/>
<text text-anchor="middle" x="129" y="-183.5" font-family="Helvetica,sans-Serif" font-size="10.00">Application</text>
</a>
</g>
</g>
<!-- dir_fe2918cd4d97e62de932585c4de2d24f -->
<g id="node3" class="node"><title>dir_fe2918cd4d97e62de932585c4de2d24f</title>
<g id="a_node3"><a xlink:href="dir_fe2918cd4d97e62de932585c4de2d24f.xhtml" target="_top" xlink:title="Core">
<polygon fill="white" stroke="red" points="156,-132 102,-132 102,-96 156,-96 156,-132"/>
<text text-anchor="middle" x="129" y="-111.5" font-family="Helvetica,sans-Serif" font-size="10.00">Core</text>
</a>
</g>
</g>
<!-- dir_2038d747aa82e10f46e00f4505536125&#45;&gt;dir_fe2918cd4d97e62de932585c4de2d24f -->
<g id="edge2" class="edge"><title>dir_2038d747aa82e10f46e00f4505536125&#45;&gt;dir_fe2918cd4d97e62de932585c4de2d24f</title>
<path fill="none" stroke="black" d="M129,-167.697C129,-159.983 129,-150.712 129,-142.112"/>
<polygon fill="black" stroke="black" points="132.5,-142.104 129,-132.104 125.5,-142.104 132.5,-142.104"/>
<g id="a_edge2&#45;headlabel"><a xlink:href="dir_000032_000008.xhtml" target="_top" xlink:title="2">
<text text-anchor="middle" x="135.339" y="-143.199" font-family="Helvetica,sans-Serif" font-size="10.00">2</text>
</a>
</g>
</g>
<!-- dir_364a962be7990a975da94e3508835043 -->
<g id="node4" class="node"><title>dir_364a962be7990a975da94e3508835043</title>
<g id="a_node4"><a xlink:href="dir_364a962be7990a975da94e3508835043.xhtml" target="_top" xlink:title="IO">
<polygon fill="white" stroke="red" points="156,-60 102,-60 102,-24 156,-24 156,-60"/>
<text text-anchor="middle" x="129" y="-39.5" font-family="Helvetica,sans-Serif" font-size="10.00">IO</text>
</a>
</g>
</g>
<!-- dir_fe2918cd4d97e62de932585c4de2d24f&#45;&gt;dir_364a962be7990a975da94e3508835043 -->
<g id="edge1" class="edge"><title>dir_fe2918cd4d97e62de932585c4de2d24f&#45;&gt;dir_364a962be7990a975da94e3508835043</title>
<path fill="none" stroke="black" d="M129,-95.6966C129,-87.9827 129,-78.7125 129,-70.1124"/>
<polygon fill="black" stroke="black" points="132.5,-70.1043 129,-60.1043 125.5,-70.1044 132.5,-70.1043"/>
<g id="a_edge1&#45;headlabel"><a xlink:href="dir_000008_000033.xhtml" target="_top" xlink:title="1">
<text text-anchor="middle" x="135.339" y="-71.199" font-family="Helvetica,sans-Serif" font-size="10.00">1</text>
</a>
</g>
</g>
<!-- dir_c38bba0c354e49842b25d23146ba65f3 -->
<g id="node5" class="node"><title>dir_c38bba0c354e49842b25d23146ba65f3</title>
<g id="a_node5"><a xlink:href="dir_c38bba0c354e49842b25d23146ba65f3.xhtml" target="_top" xlink:title="Plugins">
<polygon fill="white" stroke="red" points="78,-204 24,-204 24,-168 78,-168 78,-204"/>
<text text-anchor="middle" x="51" y="-183.5" font-family="Helvetica,sans-Serif" font-size="10.00">Plugins</text>
</a>
</g>
</g>
</g>
</svg>
