<?xml version="1.0" encoding="UTF-8" standalone="no"?>
<!DOCTYPE svg PUBLIC "-//W3C//DTD SVG 1.1//EN"
 "http://www.w3.org/Graphics/SVG/1.1/DTD/svg11.dtd">
<!-- Generated by graphviz version 2.36.0 (20140111.2315)
 -->
<!-- Title: /data/Software/DAQ/XDAQ/GUI/Source/graph.cpp Pages: 1 -->
<svg width="1230pt" height="96pt"
 viewBox="0.00 0.00 1230.00 96.00" xmlns="http://www.w3.org/2000/svg" xmlns:xlink="http://www.w3.org/1999/xlink">
<g id="graph0" class="graph" transform="scale(1 1) rotate(0) translate(4 92)">
<title>/data/Software/DAQ/XDAQ/GUI/Source/graph.cpp</title>
<polygon fill="white" stroke="none" points="-4,4 -4,-92 1226,-92 1226,4 -4,4"/>
<!-- Node1 -->
<g id="node1" class="node"><title>Node1</title>
<polygon fill="#bfbfbf" stroke="black" points="504.5,-57 504.5,-87 653.5,-87 653.5,-57 504.5,-57"/>
<text text-anchor="start" x="512.5" y="-75" font-family="Helvetica,sans-Serif" font-size="10.00">/data/Software/DAQ</text>
<text text-anchor="middle" x="579" y="-64" font-family="Helvetica,sans-Serif" font-size="10.00">/XDAQ/GUI/Source/graph.cpp</text>
</g>
<!-- Node2 -->
<g id="node2" class="node"><title>Node2</title>
<polygon fill="white" stroke="#bfbfbf" points="0,-0.5 0,-19.5 46,-19.5 46,-0.5 0,-0.5"/>
<text text-anchor="middle" x="23" y="-7.5" font-family="Helvetica,sans-Serif" font-size="10.00">stdio.h</text>
</g>
<!-- Node1&#45;&gt;Node2 -->
<g id="edge1" class="edge"><title>Node1&#45;&gt;Node2</title>
<path fill="none" stroke="midnightblue" d="M504.222,-67.8904C404.119,-62.802 221.033,-50.2559 56.6079,-19.994"/>
<polygon fill="midnightblue" stroke="midnightblue" points="56.7783,-16.4653 46.3056,-18.0698 55.493,-23.3463 56.7783,-16.4653"/>
</g>
<!-- Node3 -->
<g id="node3" class="node"><title>Node3</title>
<polygon fill="white" stroke="#bfbfbf" points="64.5,-0.5 64.5,-19.5 113.5,-19.5 113.5,-0.5 64.5,-0.5"/>
<text text-anchor="middle" x="89" y="-7.5" font-family="Helvetica,sans-Serif" font-size="10.00">string.h</text>
</g>
<!-- Node1&#45;&gt;Node3 -->
<g id="edge2" class="edge"><title>Node1&#45;&gt;Node3</title>
<path fill="none" stroke="midnightblue" d="M504.257,-66.0375C415.646,-59.3928 263.452,-45.5873 123.817,-19.884"/>
<polygon fill="midnightblue" stroke="midnightblue" points="124.258,-16.4061 113.786,-18.0128 122.975,-23.2873 124.258,-16.4061"/>
</g>
<!-- Node4 -->
<g id="node4" class="node"><title>Node4</title>
<polygon fill="white" stroke="#bfbfbf" points="132,-0.5 132,-19.5 180,-19.5 180,-0.5 132,-0.5"/>
<text text-anchor="middle" x="156" y="-7.5" font-family="Helvetica,sans-Serif" font-size="10.00">stdlib.h</text>
</g>
<!-- Node1&#45;&gt;Node4 -->
<g id="edge3" class="edge"><title>Node1&#45;&gt;Node4</title>
<path fill="none" stroke="midnightblue" d="M504.466,-64.3011C427.844,-56.7256 304.992,-42.6677 190.086,-19.975"/>
<polygon fill="midnightblue" stroke="midnightblue" points="190.553,-16.4991 180.06,-17.9687 189.179,-23.363 190.553,-16.4991"/>
</g>
<!-- Node5 -->
<g id="node5" class="node"><title>Node5</title>
<polygon fill="white" stroke="#bfbfbf" points="198,-0.5 198,-19.5 242,-19.5 242,-0.5 198,-0.5"/>
<text text-anchor="middle" x="220" y="-7.5" font-family="Helvetica,sans-Serif" font-size="10.00">time.h</text>
</g>
<!-- Node1&#45;&gt;Node5 -->
<g id="edge4" class="edge"><title>Node1&#45;&gt;Node5</title>
<path fill="none" stroke="midnightblue" d="M504.239,-62.1536C439.774,-53.8909 344.092,-40.1155 252.282,-20.0522"/>
<polygon fill="midnightblue" stroke="midnightblue" points="252.783,-16.5785 242.263,-17.834 251.27,-23.413 252.783,-16.5785"/>
</g>
<!-- Node6 -->
<g id="node6" class="node"><title>Node6</title>
<polygon fill="white" stroke="#bfbfbf" points="260.5,-0.5 260.5,-19.5 307.5,-19.5 307.5,-0.5 260.5,-0.5"/>
<text text-anchor="middle" x="284" y="-7.5" font-family="Helvetica,sans-Serif" font-size="10.00">math.h</text>
</g>
<!-- Node1&#45;&gt;Node6 -->
<g id="edge5" class="edge"><title>Node1&#45;&gt;Node6</title>
<path fill="none" stroke="midnightblue" d="M504.436,-58.0029C454.302,-48.912 386.547,-35.9485 317.876,-20.0646"/>
<polygon fill="midnightblue" stroke="midnightblue" points="318.273,-16.5634 307.74,-17.7 316.683,-23.3803 318.273,-16.5634"/>
</g>
<!-- Node7 -->
<g id="node7" class="node"><title>Node7</title>
<polygon fill="white" stroke="#bfbfbf" points="326,-0.5 326,-19.5 386,-19.5 386,-0.5 326,-0.5"/>
<text text-anchor="middle" x="356" y="-7.5" font-family="Helvetica,sans-Serif" font-size="10.00">sys/stat.h</text>
</g>
<!-- Node1&#45;&gt;Node7 -->
<g id="edge6" class="edge"><title>Node1&#45;&gt;Node7</title>
<path fill="none" stroke="midnightblue" d="M526.716,-56.9327C486.708,-46.1681 432.37,-31.5481 395.84,-21.7192"/>
<polygon fill="midnightblue" stroke="midnightblue" points="396.601,-18.2996 386.035,-19.0812 394.782,-25.0592 396.601,-18.2996"/>
</g>
<!-- Node8 -->
<g id="node8" class="node"><title>Node8</title>
<polygon fill="white" stroke="#bfbfbf" points="404.5,-0.5 404.5,-19.5 455.5,-19.5 455.5,-0.5 404.5,-0.5"/>
<text text-anchor="middle" x="430" y="-7.5" font-family="Helvetica,sans-Serif" font-size="10.00">unistd.h</text>
</g>
<!-- Node1&#45;&gt;Node8 -->
<g id="edge7" class="edge"><title>Node1&#45;&gt;Node8</title>
<path fill="none" stroke="midnightblue" d="M544.066,-56.9327C518.816,-46.7648 485.023,-33.157 460.784,-23.3963"/>
<polygon fill="midnightblue" stroke="midnightblue" points="461.94,-20.0888 451.357,-19.6 459.325,-26.5821 461.94,-20.0888"/>
</g>
<!-- Node9 -->
<g id="node9" class="node"><title>Node9</title>
<polygon fill="white" stroke="#bfbfbf" points="474,-0.5 474,-19.5 536,-19.5 536,-0.5 474,-0.5"/>
<text text-anchor="middle" x="505" y="-7.5" font-family="Helvetica,sans-Serif" font-size="10.00">sys/time.h</text>
</g>
<!-- Node1&#45;&gt;Node9 -->
<g id="edge8" class="edge"><title>Node1&#45;&gt;Node9</title>
<path fill="none" stroke="midnightblue" d="M561.463,-56.7808C550.045,-47.5228 535.17,-35.4618 523.554,-26.0435"/>
<polygon fill="midnightblue" stroke="midnightblue" points="525.74,-23.3099 515.768,-19.7305 521.331,-28.7472 525.74,-23.3099"/>
</g>
<!-- Node10 -->
<g id="node10" class="node"><title>Node10</title>
<polygon fill="white" stroke="#bfbfbf" points="554,-0.5 554,-19.5 604,-19.5 604,-0.5 554,-0.5"/>
<text text-anchor="middle" x="579" y="-7.5" font-family="Helvetica,sans-Serif" font-size="10.00">global.h</text>
</g>
<!-- Node1&#45;&gt;Node10 -->
<g id="edge9" class="edge"><title>Node1&#45;&gt;Node10</title>
<path fill="none" stroke="midnightblue" d="M579,-56.7808C579,-48.7812 579,-38.6887 579,-30.0168"/>
<polygon fill="midnightblue" stroke="midnightblue" points="582.5,-29.7305 579,-19.7305 575.5,-29.7306 582.5,-29.7305"/>
</g>
<!-- Node11 -->
<g id="node11" class="node"><title>Node11</title>
<polygon fill="white" stroke="#bfbfbf" points="622,-0.5 622,-19.5 676,-19.5 676,-0.5 622,-0.5"/>
<text text-anchor="middle" x="649" y="-7.5" font-family="Helvetica,sans-Serif" font-size="10.00">control.h</text>
</g>
<!-- Node1&#45;&gt;Node11 -->
<g id="edge10" class="edge"><title>Node1&#45;&gt;Node11</title>
<path fill="none" stroke="midnightblue" d="M595.589,-56.7808C606.285,-47.6127 620.188,-35.6957 631.128,-26.3186"/>
<polygon fill="midnightblue" stroke="midnightblue" points="633.5,-28.8959 638.814,-19.7305 628.944,-23.5811 633.5,-28.8959"/>
</g>
<!-- Node12 -->
<g id="node12" class="node"><title>Node12</title>
<polygon fill="white" stroke="#bfbfbf" points="694,-0.5 694,-19.5 764,-19.5 764,-0.5 694,-0.5"/>
<text text-anchor="middle" x="729" y="-7.5" font-family="Helvetica,sans-Serif" font-size="10.00">Riostream.h</text>
</g>
<!-- Node1&#45;&gt;Node12 -->
<g id="edge11" class="edge"><title>Node1&#45;&gt;Node12</title>
<path fill="none" stroke="midnightblue" d="M614.168,-56.9327C639.588,-46.7648 673.608,-33.157 698.009,-23.3963"/>
<polygon fill="midnightblue" stroke="midnightblue" points="699.515,-26.5637 707.5,-19.6 696.915,-20.0643 699.515,-26.5637"/>
</g>
<!-- Node13 -->
<g id="node13" class="node"><title>Node13</title>
<polygon fill="white" stroke="#bfbfbf" points="782.5,-0.5 782.5,-19.5 833.5,-19.5 833.5,-0.5 782.5,-0.5"/>
<text text-anchor="middle" x="808" y="-7.5" font-family="Helvetica,sans-Serif" font-size="10.00">TH1D.h</text>
</g>
<!-- Node1&#45;&gt;Node13 -->
<g id="edge12" class="edge"><title>Node1&#45;&gt;Node13</title>
<path fill="none" stroke="midnightblue" d="M632.69,-56.9327C675.708,-45.6615 734.859,-30.1635 772.26,-20.3643"/>
<polygon fill="midnightblue" stroke="midnightblue" points="773.414,-23.6801 782.2,-17.7598 771.64,-16.9087 773.414,-23.6801"/>
</g>
<!-- Node14 -->
<g id="node14" class="node"><title>Node14</title>
<polygon fill="white" stroke="#bfbfbf" points="851.5,-0.5 851.5,-19.5 930.5,-19.5 930.5,-0.5 851.5,-0.5"/>
<text text-anchor="middle" x="891" y="-7.5" font-family="Helvetica,sans-Serif" font-size="10.00">TApplication.h</text>
</g>
<!-- Node1&#45;&gt;Node14 -->
<g id="edge13" class="edge"><title>Node1&#45;&gt;Node14</title>
<path fill="none" stroke="midnightblue" d="M652.15,-56.9327C710.284,-45.7531 790.042,-30.415 841.058,-20.6041"/>
<polygon fill="midnightblue" stroke="midnightblue" points="842.018,-23.9839 851.177,-18.6583 840.696,-17.1098 842.018,-23.9839"/>
</g>
<!-- Node15 -->
<g id="node15" class="node"><title>Node15</title>
<polygon fill="white" stroke="#bfbfbf" points="948.5,-0.5 948.5,-19.5 1013.5,-19.5 1013.5,-0.5 948.5,-0.5"/>
<text text-anchor="middle" x="981" y="-7.5" font-family="Helvetica,sans-Serif" font-size="10.00">TCanvas.h</text>
</g>
<!-- Node1&#45;&gt;Node15 -->
<g id="edge14" class="edge"><title>Node1&#45;&gt;Node15</title>
<path fill="none" stroke="midnightblue" d="M653.707,-61.9743C724.406,-53.0775 833.711,-38.4069 938.373,-19.9969"/>
<polygon fill="midnightblue" stroke="midnightblue" points="939.25,-23.396 948.485,-18.2037 938.028,-16.5035 939.25,-23.396"/>
</g>
<!-- Node16 -->
<g id="node16" class="node"><title>Node16</title>
<polygon fill="white" stroke="#bfbfbf" points="1031.5,-0.5 1031.5,-19.5 1084.5,-19.5 1084.5,-0.5 1031.5,-0.5"/>
<text text-anchor="middle" x="1058" y="-7.5" font-family="Helvetica,sans-Serif" font-size="10.00">TStyle.h</text>
</g>
<!-- Node1&#45;&gt;Node16 -->
<g id="edge15" class="edge"><title>Node1&#45;&gt;Node16</title>
<path fill="none" stroke="midnightblue" d="M653.507,-65.4073C739.735,-58.2644 886.1,-44.0775 1021.23,-19.9076"/>
<polygon fill="midnightblue" stroke="midnightblue" points="1022.13,-23.3005 1031.35,-18.0742 1020.88,-16.4125 1022.13,-23.3005"/>
</g>
<!-- Node17 -->
<g id="node17" class="node"><title>Node17</title>
<polygon fill="white" stroke="#bfbfbf" points="1102.5,-0.5 1102.5,-19.5 1149.5,-19.5 1149.5,-0.5 1102.5,-0.5"/>
<text text-anchor="middle" x="1126" y="-7.5" font-family="Helvetica,sans-Serif" font-size="10.00">TFile.h</text>
</g>
<!-- Node1&#45;&gt;Node17 -->
<g id="edge16" class="edge"><title>Node1&#45;&gt;Node17</title>
<path fill="none" stroke="midnightblue" d="M653.601,-67.519C752.041,-62.0535 930.72,-49.1189 1092.2,-19.83"/>
<polygon fill="midnightblue" stroke="midnightblue" points="1093.11,-23.2201 1102.32,-17.9688 1091.85,-16.3356 1093.11,-23.2201"/>
</g>
<!-- Node18 -->
<g id="node18" class="node"><title>Node18</title>
<polygon fill="white" stroke="#bfbfbf" points="1167.5,-0.5 1167.5,-19.5 1222.5,-19.5 1222.5,-0.5 1167.5,-0.5"/>
<text text-anchor="middle" x="1195" y="-7.5" font-family="Helvetica,sans-Serif" font-size="10.00">TLatex.h</text>
</g>
<!-- Node1&#45;&gt;Node18 -->
<g id="edge17" class="edge"><title>Node1&#45;&gt;Node18</title>
<path fill="none" stroke="midnightblue" d="M653.942,-68.0107C762.797,-62.8685 971.044,-50.021 1157.24,-19.8701"/>
<polygon fill="midnightblue" stroke="midnightblue" points="1157.91,-23.307 1167.21,-18.235 1156.78,-16.3992 1157.91,-23.307"/>
</g>
</g>
</svg>
