<?xml version="1.0" encoding="UTF-8" standalone="no"?>
<!DOCTYPE svg PUBLIC "-//W3C//DTD SVG 1.1//EN"
 "http://www.w3.org/Graphics/SVG/1.1/DTD/svg11.dtd">
<!-- Generated by graphviz version 2.36.0 (20140111.2315)
 -->
<!-- Title: graph_edit Pages: 1 -->
<svg width="320pt" height="77pt"
 viewBox="0.00 0.00 320.00 77.00" xmlns="http://www.w3.org/2000/svg" xmlns:xlink="http://www.w3.org/1999/xlink">
<g id="graph0" class="graph" transform="scale(1 1) rotate(0) translate(4 73)">
<title>graph_edit</title>
<polygon fill="white" stroke="none" points="-4,4 -4,-73 316,-73 316,4 -4,4"/>
<!-- Node1 -->
<g id="node1" class="node"><title>Node1</title>
<polygon fill="#bfbfbf" stroke="black" points="0,-27.5 0,-46.5 62,-46.5 62,-27.5 0,-27.5"/>
<text text-anchor="middle" x="31" y="-34.5" font-family="Helvetica,sans-Serif" font-size="10.00">graph_edit</text>
</g>
<!-- Node2 -->
<g id="node2" class="node"><title>Node2</title>
<g id="a_node2"><a xlink:href="mini_d_a_x_8cpp.xhtml#adedb285b02c41bde2158ded9cc9fd7ac" target="_top" xlink:title="main">
<polygon fill="white" stroke="black" points="149,-49.5 149,-68.5 187,-68.5 187,-49.5 149,-49.5"/>
<text text-anchor="middle" x="168" y="-56.5" font-family="Helvetica,sans-Serif" font-size="10.00">main</text>
</a>
</g>
</g>
<!-- Node1&#45;&gt;Node2 -->
<g id="edge1" class="edge"><title>Node1&#45;&gt;Node2</title>
<path fill="none" stroke="midnightblue" d="M72.4001,-43.5837C97.8055,-47.7239 129.352,-52.8648 148.829,-56.0389"/>
<polygon fill="midnightblue" stroke="midnightblue" points="72.7294,-40.0913 62.2966,-41.9372 71.6035,-47.0002 72.7294,-40.0913"/>
</g>
<!-- Node3 -->
<g id="node3" class="node"><title>Node3</title>
<g id="a_node3"><a xlink:href="class_scope_manager.xhtml#acd38074847f4b2d4d901a3ff298b8031" target="_top" xlink:title="ScopeManager::SetChannel\lNumber">
<polygon fill="white" stroke="black" points="98.5,-0 98.5,-30 237.5,-30 237.5,-0 98.5,-0"/>
<text text-anchor="start" x="106.5" y="-18" font-family="Helvetica,sans-Serif" font-size="10.00">ScopeManager::SetChannel</text>
<text text-anchor="middle" x="168" y="-7" font-family="Helvetica,sans-Serif" font-size="10.00">Number</text>
</a>
</g>
</g>
<!-- Node1&#45;&gt;Node3 -->
<g id="edge2" class="edge"><title>Node1&#45;&gt;Node3</title>
<path fill="none" stroke="midnightblue" d="M72.3625,-30.4224C80.621,-29.0766 89.5297,-27.6248 98.4626,-26.1691"/>
<polygon fill="midnightblue" stroke="midnightblue" points="71.6035,-26.9998 62.2966,-32.0628 72.7294,-33.9087 71.6035,-26.9998"/>
</g>
<!-- Node4 -->
<g id="node4" class="node"><title>Node4</title>
<g id="a_node4"><a xlink:href="_multi_d_a_q_8cpp.xhtml#adedb285b02c41bde2158ded9cc9fd7ac" target="_top" xlink:title="main">
<polygon fill="white" stroke="black" points="274,-5.5 274,-24.5 312,-24.5 312,-5.5 274,-5.5"/>
<text text-anchor="middle" x="293" y="-12.5" font-family="Helvetica,sans-Serif" font-size="10.00">main</text>
</a>
</g>
</g>
<!-- Node3&#45;&gt;Node4 -->
<g id="edge3" class="edge"><title>Node3&#45;&gt;Node4</title>
<path fill="none" stroke="midnightblue" d="M247.94,-15C257.599,-15 266.633,-15 273.975,-15"/>
<polygon fill="midnightblue" stroke="midnightblue" points="247.692,-11.5001 237.692,-15 247.692,-18.5001 247.692,-11.5001"/>
</g>
</g>
</svg>
