<?xml version="1.0" encoding="UTF-8" standalone="no"?>
<!DOCTYPE svg PUBLIC "-//W3C//DTD SVG 1.1//EN"
 "http://www.w3.org/Graphics/SVG/1.1/DTD/svg11.dtd">
<!-- Generated by graphviz version 2.36.0 (20140111.2315)
 -->
<!-- Title: graph_checkkey Pages: 1 -->
<svg width="346pt" height="77pt"
 viewBox="0.00 0.00 346.00 77.00" xmlns="http://www.w3.org/2000/svg" xmlns:xlink="http://www.w3.org/1999/xlink">
<g id="graph0" class="graph" transform="scale(1 1) rotate(0) translate(4 73)">
<title>graph_checkkey</title>
<polygon fill="white" stroke="none" points="-4,4 -4,-73 342,-73 342,4 -4,4"/>
<!-- Node1 -->
<g id="node1" class="node"><title>Node1</title>
<polygon fill="#bfbfbf" stroke="black" points="0,-27.5 0,-46.5 88,-46.5 88,-27.5 0,-27.5"/>
<text text-anchor="middle" x="44" y="-34.5" font-family="Helvetica,sans-Serif" font-size="10.00">graph_checkkey</text>
</g>
<!-- Node2 -->
<g id="node2" class="node"><title>Node2</title>
<g id="a_node2"><a xlink:href="mini_d_a_x_8cpp.xhtml#adedb285b02c41bde2158ded9cc9fd7ac" target="_top" xlink:title="main">
<polygon fill="white" stroke="black" points="175,-49.5 175,-68.5 213,-68.5 213,-49.5 175,-49.5"/>
<text text-anchor="middle" x="194" y="-56.5" font-family="Helvetica,sans-Serif" font-size="10.00">main</text>
</a>
</g>
</g>
<!-- Node1&#45;&gt;Node2 -->
<g id="edge1" class="edge"><title>Node1&#45;&gt;Node2</title>
<path fill="none" stroke="midnightblue" d="M98.2657,-44.9179C125.106,-48.9076 155.905,-53.4858 174.909,-56.3108"/>
<polygon fill="midnightblue" stroke="midnightblue" points="98.6115,-41.4309 88.2056,-43.4225 97.5823,-48.3548 98.6115,-41.4309"/>
</g>
<!-- Node3 -->
<g id="node3" class="node"><title>Node3</title>
<g id="a_node3"><a xlink:href="class_scope_manager.xhtml#adc3b57b668f590969c5379fe27567bba" target="_top" xlink:title="ScopeManager::SetChannel\lTresh">
<polygon fill="white" stroke="black" points="124.5,-0 124.5,-30 263.5,-30 263.5,-0 124.5,-0"/>
<text text-anchor="start" x="132.5" y="-18" font-family="Helvetica,sans-Serif" font-size="10.00">ScopeManager::SetChannel</text>
<text text-anchor="middle" x="194" y="-7" font-family="Helvetica,sans-Serif" font-size="10.00">Tresh</text>
</a>
</g>
</g>
<!-- Node1&#45;&gt;Node3 -->
<g id="edge2" class="edge"><title>Node1&#45;&gt;Node3</title>
<path fill="none" stroke="midnightblue" d="M98.3076,-29.0759C106.777,-27.817 115.639,-26.4996 124.4,-25.1974"/>
<polygon fill="midnightblue" stroke="midnightblue" points="97.5823,-25.6452 88.2056,-30.5775 98.6115,-32.5691 97.5823,-25.6452"/>
</g>
<!-- Node4 -->
<g id="node4" class="node"><title>Node4</title>
<g id="a_node4"><a xlink:href="_multi_d_a_q_8cpp.xhtml#adedb285b02c41bde2158ded9cc9fd7ac" target="_top" xlink:title="main">
<polygon fill="white" stroke="black" points="300,-5.5 300,-24.5 338,-24.5 338,-5.5 300,-5.5"/>
<text text-anchor="middle" x="319" y="-12.5" font-family="Helvetica,sans-Serif" font-size="10.00">main</text>
</a>
</g>
</g>
<!-- Node3&#45;&gt;Node4 -->
<g id="edge3" class="edge"><title>Node3&#45;&gt;Node4</title>
<path fill="none" stroke="midnightblue" d="M273.94,-15C283.599,-15 292.633,-15 299.975,-15"/>
<polygon fill="midnightblue" stroke="midnightblue" points="273.692,-11.5001 263.692,-15 273.692,-18.5001 273.692,-11.5001"/>
</g>
</g>
</svg>
