<?xml version="1.0" encoding="UTF-8" standalone="no"?>
<!DOCTYPE svg PUBLIC "-//W3C//DTD SVG 1.1//EN"
 "http://www.w3.org/Graphics/SVG/1.1/DTD/svg11.dtd">
<!-- Generated by graphviz version 2.36.0 (20140111.2315)
 -->
<!-- Title: /data/Software/DAQ/XDAQ/GUI/Include/graph.h Pages: 1 -->
<svg width="238pt" height="96pt"
 viewBox="0.00 0.00 238.00 96.00" xmlns="http://www.w3.org/2000/svg" xmlns:xlink="http://www.w3.org/1999/xlink">
<g id="graph0" class="graph" transform="scale(1 1) rotate(0) translate(4 92)">
<title>/data/Software/DAQ/XDAQ/GUI/Include/graph.h</title>
<polygon fill="white" stroke="none" points="-4,4 -4,-92 234,-92 234,4 -4,4"/>
<!-- Node1 -->
<g id="node1" class="node"><title>Node1</title>
<polygon fill="#bfbfbf" stroke="black" points="38.5,-57 38.5,-87 177.5,-87 177.5,-57 38.5,-57"/>
<text text-anchor="start" x="46.5" y="-75" font-family="Helvetica,sans-Serif" font-size="10.00">/data/Software/DAQ</text>
<text text-anchor="middle" x="108" y="-64" font-family="Helvetica,sans-Serif" font-size="10.00">/XDAQ/GUI/Include/graph.h</text>
</g>
<!-- Node2 -->
<g id="node2" class="node"><title>Node2</title>
<polygon fill="white" stroke="#bfbfbf" points="-0.5,-0.5 -0.5,-19.5 50.5,-19.5 50.5,-0.5 -0.5,-0.5"/>
<text text-anchor="middle" x="25" y="-7.5" font-family="Helvetica,sans-Serif" font-size="10.00">TH1D.h</text>
</g>
<!-- Node1&#45;&gt;Node2 -->
<g id="edge1" class="edge"><title>Node1&#45;&gt;Node2</title>
<path fill="none" stroke="midnightblue" d="M88.3302,-56.7808C75.3989,-47.4329 58.5145,-35.2273 45.4318,-25.77"/>
<polygon fill="midnightblue" stroke="midnightblue" points="47.2319,-22.7526 37.0772,-19.7305 43.131,-28.4255 47.2319,-22.7526"/>
</g>
<!-- Node3 -->
<g id="node3" class="node"><title>Node3</title>
<polygon fill="white" stroke="#bfbfbf" points="68.5,-0.5 68.5,-19.5 147.5,-19.5 147.5,-0.5 68.5,-0.5"/>
<text text-anchor="middle" x="108" y="-7.5" font-family="Helvetica,sans-Serif" font-size="10.00">TApplication.h</text>
</g>
<!-- Node1&#45;&gt;Node3 -->
<g id="edge2" class="edge"><title>Node1&#45;&gt;Node3</title>
<path fill="none" stroke="midnightblue" d="M108,-56.7808C108,-48.7812 108,-38.6887 108,-30.0168"/>
<polygon fill="midnightblue" stroke="midnightblue" points="111.5,-29.7305 108,-19.7305 104.5,-29.7306 111.5,-29.7305"/>
</g>
<!-- Node4 -->
<g id="node4" class="node"><title>Node4</title>
<polygon fill="white" stroke="#bfbfbf" points="165.5,-0.5 165.5,-19.5 230.5,-19.5 230.5,-0.5 165.5,-0.5"/>
<text text-anchor="middle" x="198" y="-7.5" font-family="Helvetica,sans-Serif" font-size="10.00">TCanvas.h</text>
</g>
<!-- Node1&#45;&gt;Node4 -->
<g id="edge3" class="edge"><title>Node1&#45;&gt;Node4</title>
<path fill="none" stroke="midnightblue" d="M129.329,-56.7808C143.571,-47.2862 162.235,-34.8434 176.51,-25.3267"/>
<polygon fill="midnightblue" stroke="midnightblue" points="178.787,-28.0149 185.166,-19.5557 174.904,-22.1906 178.787,-28.0149"/>
</g>
</g>
</svg>
