<?xml version="1.0" encoding="UTF-8" standalone="no"?>
<!DOCTYPE svg PUBLIC "-//W3C//DTD SVG 1.1//EN"
 "http://www.w3.org/Graphics/SVG/1.1/DTD/svg11.dtd">
<!-- Generated by graphviz version 2.36.0 (20140111.2315)
 -->
<!-- Title: Graphical Class Hierarchy Pages: 1 -->
<svg width="226pt" height="294pt"
 viewBox="0.00 0.00 226.00 294.00" xmlns="http://www.w3.org/2000/svg" xmlns:xlink="http://www.w3.org/1999/xlink">
<g id="graph0" class="graph" transform="scale(1 1) rotate(0) translate(4 290)">
<title>Graphical Class Hierarchy</title>
<polygon fill="white" stroke="none" points="-4,4 -4,-290 222,-290 222,4 -4,4"/>
<!-- Node1 -->
<g id="node1" class="node"><title>Node1</title>
<g id="a_node1"><a xlink:href="class_a_d_c_manager.xhtml" target="_top" xlink:title="ADCManager">
<polygon fill="white" stroke="black" points="0,-228.5 0,-247.5 76,-247.5 76,-228.5 0,-228.5"/>
<text text-anchor="middle" x="38" y="-235.5" font-family="Helvetica,sans-Serif" font-size="10.00">ADCManager</text>
</a>
</g>
</g>
<!-- Node2 -->
<g id="node2" class="node"><title>Node2</title>
<g id="a_node2"><a xlink:href="class_a_d_c_manager1720.xhtml" target="_top" xlink:title="ADCManager1720">
<polygon fill="white" stroke="black" points="116.5,-266.5 116.5,-285.5 213.5,-285.5 213.5,-266.5 116.5,-266.5"/>
<text text-anchor="middle" x="165" y="-273.5" font-family="Helvetica,sans-Serif" font-size="10.00">ADCManager1720</text>
</a>
</g>
</g>
<!-- Node1&#45;&gt;Node2 -->
<g id="edge1" class="edge"><title>Node1&#45;&gt;Node2</title>
<path fill="none" stroke="midnightblue" d="M80.2345,-250.535C97.2393,-255.705 116.629,-261.599 132.467,-266.414"/>
<polygon fill="midnightblue" stroke="midnightblue" points="81.1285,-247.149 70.5428,-247.589 79.0924,-253.846 81.1285,-247.149"/>
</g>
<!-- Node3 -->
<g id="node3" class="node"><title>Node3</title>
<g id="a_node3"><a xlink:href="class_a_d_c_manager1724.xhtml" target="_top" xlink:title="ADCManager1724">
<polygon fill="white" stroke="black" points="116.5,-228.5 116.5,-247.5 213.5,-247.5 213.5,-228.5 116.5,-228.5"/>
<text text-anchor="middle" x="165" y="-235.5" font-family="Helvetica,sans-Serif" font-size="10.00">ADCManager1724</text>
</a>
</g>
</g>
<!-- Node1&#45;&gt;Node3 -->
<g id="edge2" class="edge"><title>Node1&#45;&gt;Node3</title>
<path fill="none" stroke="midnightblue" d="M86.442,-238C96.1426,-238 106.358,-238 116.075,-238"/>
<polygon fill="midnightblue" stroke="midnightblue" points="86.1657,-234.5 76.1657,-238 86.1657,-241.5 86.1657,-234.5"/>
</g>
<!-- Node4 -->
<g id="node4" class="node"><title>Node4</title>
<g id="a_node4"><a xlink:href="class_a_d_c_manager1730.xhtml" target="_top" xlink:title="ADCManager1730">
<polygon fill="white" stroke="black" points="116.5,-190.5 116.5,-209.5 213.5,-209.5 213.5,-190.5 116.5,-190.5"/>
<text text-anchor="middle" x="165" y="-197.5" font-family="Helvetica,sans-Serif" font-size="10.00">ADCManager1730</text>
</a>
</g>
</g>
<!-- Node1&#45;&gt;Node4 -->
<g id="edge3" class="edge"><title>Node1&#45;&gt;Node4</title>
<path fill="none" stroke="midnightblue" d="M80.2345,-225.465C97.2393,-220.295 116.629,-214.401 132.467,-209.586"/>
<polygon fill="midnightblue" stroke="midnightblue" points="79.0924,-222.154 70.5428,-228.411 81.1285,-228.851 79.0924,-222.154"/>
</g>
<!-- Node5 -->
<g id="node5" class="node"><title>Node5</title>
<g id="a_node5"><a xlink:href="class_common.xhtml" target="_top" xlink:title="Common">
<polygon fill="white" stroke="black" points="10,-133.5 10,-152.5 66,-152.5 66,-133.5 10,-133.5"/>
<text text-anchor="middle" x="38" y="-140.5" font-family="Helvetica,sans-Serif" font-size="10.00">Common</text>
</a>
</g>
</g>
<!-- Node5&#45;&gt;Node2 -->
<g id="edge4" class="edge"><title>Node5&#45;&gt;Node2</title>
<path fill="none" stroke="midnightblue" d="M46.6624,-162.29C57.5807,-187.448 79.911,-231.274 112,-257 116.799,-260.848 122.449,-263.959 128.224,-266.462"/>
<polygon fill="midnightblue" stroke="midnightblue" points="49.7665,-160.64 42.6866,-152.758 43.306,-163.335 49.7665,-160.64"/>
</g>
<!-- Node5&#45;&gt;Node3 -->
<g id="edge5" class="edge"><title>Node5&#45;&gt;Node3</title>
<path fill="none" stroke="midnightblue" d="M51.9441,-160.543C65.3076,-177.562 87.5977,-203.085 112,-219 117.716,-222.728 124.261,-225.85 130.736,-228.414"/>
<polygon fill="midnightblue" stroke="midnightblue" points="54.6598,-158.333 45.8056,-152.514 49.0988,-162.584 54.6598,-158.333"/>
</g>
<!-- Node5&#45;&gt;Node4 -->
<g id="edge6" class="edge"><title>Node5&#45;&gt;Node4</title>
<path fill="none" stroke="midnightblue" d="M64.7213,-157.431C78.5272,-164.909 95.9594,-173.93 112,-181 119.564,-184.334 127.914,-187.572 135.669,-190.402"/>
<polygon fill="midnightblue" stroke="midnightblue" points="66.2558,-154.28 55.8044,-152.543 62.8909,-160.419 66.2558,-154.28"/>
</g>
<!-- Node6 -->
<g id="node6" class="node"><title>Node6</title>
<g id="a_node6"><a xlink:href="class_i_o_manager.xhtml" target="_top" xlink:title="IOManager">
<polygon fill="white" stroke="black" points="132.5,-0.5 132.5,-19.5 197.5,-19.5 197.5,-0.5 132.5,-0.5"/>
<text text-anchor="middle" x="165" y="-7.5" font-family="Helvetica,sans-Serif" font-size="10.00">IOManager</text>
</a>
</g>
</g>
<!-- Node5&#45;&gt;Node6 -->
<g id="edge7" class="edge"><title>Node5&#45;&gt;Node6</title>
<path fill="none" stroke="midnightblue" d="M46.6624,-123.71C57.5807,-98.5517 79.911,-54.7256 112,-29 117.924,-24.2505 125.144,-20.623 132.296,-17.8772"/>
<polygon fill="midnightblue" stroke="midnightblue" points="43.306,-122.665 42.6866,-133.242 49.7665,-125.36 43.306,-122.665"/>
</g>
<!-- Node7 -->
<g id="node7" class="node"><title>Node7</title>
<g id="a_node7"><a xlink:href="class_scaler_manager.xhtml" target="_top" xlink:title="ScalerManager">
<polygon fill="white" stroke="black" points="124,-152.5 124,-171.5 206,-171.5 206,-152.5 124,-152.5"/>
<text text-anchor="middle" x="165" y="-159.5" font-family="Helvetica,sans-Serif" font-size="10.00">ScalerManager</text>
</a>
</g>
</g>
<!-- Node5&#45;&gt;Node7 -->
<g id="edge8" class="edge"><title>Node5&#45;&gt;Node7</title>
<path fill="none" stroke="midnightblue" d="M76.057,-148.633C91.0253,-150.908 108.341,-153.54 123.629,-155.864"/>
<polygon fill="midnightblue" stroke="midnightblue" points="76.5356,-145.165 66.1231,-147.123 75.4836,-152.086 76.5356,-145.165"/>
</g>
<!-- Node8 -->
<g id="node8" class="node"><title>Node8</title>
<g id="a_node8"><a xlink:href="class_scope_manager.xhtml" target="_top" xlink:title="ScopeManager">
<polygon fill="white" stroke="black" points="124,-114.5 124,-133.5 206,-133.5 206,-114.5 124,-114.5"/>
<text text-anchor="middle" x="165" y="-121.5" font-family="Helvetica,sans-Serif" font-size="10.00">ScopeManager</text>
</a>
</g>
</g>
<!-- Node5&#45;&gt;Node8 -->
<g id="edge9" class="edge"><title>Node5&#45;&gt;Node8</title>
<path fill="none" stroke="midnightblue" d="M76.057,-137.367C91.0253,-135.092 108.341,-132.46 123.629,-130.136"/>
<polygon fill="midnightblue" stroke="midnightblue" points="75.4836,-133.914 66.1231,-138.877 76.5356,-140.835 75.4836,-133.914"/>
</g>
<!-- Node9 -->
<g id="node9" class="node"><title>Node9</title>
<g id="a_node9"><a xlink:href="class_slowcontrol_manager.xhtml" target="_top" xlink:title="SlowcontrolManager">
<polygon fill="white" stroke="black" points="112.5,-76.5 112.5,-95.5 217.5,-95.5 217.5,-76.5 112.5,-76.5"/>
<text text-anchor="middle" x="165" y="-83.5" font-family="Helvetica,sans-Serif" font-size="10.00">SlowcontrolManager</text>
</a>
</g>
</g>
<!-- Node5&#45;&gt;Node9 -->
<g id="edge10" class="edge"><title>Node5&#45;&gt;Node9</title>
<path fill="none" stroke="midnightblue" d="M64.7213,-128.569C78.5272,-121.091 95.9594,-112.07 112,-105 119.564,-101.666 127.914,-98.4282 135.669,-95.5976"/>
<polygon fill="midnightblue" stroke="midnightblue" points="62.8909,-125.581 55.8044,-133.457 66.2558,-131.72 62.8909,-125.581"/>
</g>
<!-- Node10 -->
<g id="node10" class="node"><title>Node10</title>
<g id="a_node10"><a xlink:href="class_storage_manager.xhtml" target="_top" xlink:title="StorageManager">
<polygon fill="white" stroke="black" points="121,-38.5 121,-57.5 209,-57.5 209,-38.5 121,-38.5"/>
<text text-anchor="middle" x="165" y="-45.5" font-family="Helvetica,sans-Serif" font-size="10.00">StorageManager</text>
</a>
</g>
</g>
<!-- Node5&#45;&gt;Node10 -->
<g id="edge11" class="edge"><title>Node5&#45;&gt;Node10</title>
<path fill="none" stroke="midnightblue" d="M51.9441,-125.457C65.3076,-108.438 87.5977,-82.9153 112,-67 117.716,-63.2721 124.261,-60.1505 130.736,-57.5857"/>
<polygon fill="midnightblue" stroke="midnightblue" points="49.0988,-123.416 45.8056,-133.486 54.6598,-127.667 49.0988,-123.416"/>
</g>
</g>
</svg>
