<?xml version="1.0" encoding="UTF-8" standalone="no"?>
<!DOCTYPE svg PUBLIC "-//W3C//DTD SVG 1.1//EN"
 "http://www.w3.org/Graphics/SVG/1.1/DTD/svg11.dtd">
<!-- Generated by graphviz version 2.36.0 (20140111.2315)
 -->
<!-- Title: main Pages: 1 -->
<!--zoomable 1434 -->
<svg id="main" version="1.1" xmlns="http://www.w3.org/2000/svg" xmlns:xlink="http://www.w3.org/1999/xlink" xml:space="preserve" onload="init(evt)">
<style type="text/css"><![CDATA[
.edge:hover path { stroke: red; }
.edge:hover polygon { stroke: red; fill: red; }
]]></style>
<script type="text/javascript"><![CDATA[
var edges = document.getElementsByTagName('g');
if (edges && edges.length) {
  for (var i=0;i<edges.length;i++) {
    if (edges[i].id.substr(0,4)=='edge') {
      edges[i].setAttribute('class','edge');
    }
  }
}
]]></script>
        <defs>
                <circle id="rim" cx="0" cy="0" r="7"/>
                <circle id="rim2" cx="0" cy="0" r="3.5"/>
                <g id="zoomPlus">
                        <use xlink:href="#rim" fill="#404040">
                                <set attributeName="fill" to="#808080" begin="zoomplus.mouseover" end="zoomplus.mouseout"/>
                        </use>
                        <path d="M-4,0h8M0,-4v8" fill="none" stroke="white" stroke-width="1.5" pointer-events="none"/>
                </g>
                <g id="zoomMin">
                        <use xlink:href="#rim" fill="#404040">
                                <set attributeName="fill" to="#808080" begin="zoomminus.mouseover" end="zoomminus.mouseout"/>
                        </use>
                        <path d="M-4,0h8" fill="none" stroke="white" stroke-width="1.5" pointer-events="none"/>
                </g>
                <g id="dirArrow">
                        <path fill="none" stroke="white" stroke-width="1.5" d="M0,-3.0v7 M-2.5,-0.5L0,-3.0L2.5,-0.5"/>
                </g>
               <g id="resetDef">
                       <use xlink:href="#rim2" fill="#404040">
                               <set attributeName="fill" to="#808080" begin="reset.mouseover" end="reset.mouseout"/>
                       </use>
               </g>
        </defs>

<script type="text/javascript">
var viewWidth = 530;
var viewHeight = 1434;
var sectionId = 'dynsection-1';
</script>
<script xlink:href="svgpan.js"/>
<svg id="graph" class="graph">
<g id="viewport">
<title>main</title>
<polygon fill="white" stroke="none" points="-4,4 -4,-1430 526,-1430 526,4 -4,4"/>
<!-- Node1 -->
<g id="node1" class="node"><title>Node1</title>
<polygon fill="#bfbfbf" stroke="black" points="0,-760.5 0,-779.5 38,-779.5 38,-760.5 0,-760.5"/>
<text text-anchor="middle" x="19" y="-767.5" font-family="Helvetica,sans-Serif" font-size="10.00">main</text>
</g>
<!-- Node2 -->
<g id="node2" class="node"><title>Node2</title>
<g id="a_node2"><a xlink:href="_core_2_include_2adc_8h.xhtml#a99fcc8dfc3bb71a3cd06f7e6968c12c3" target="_top" xlink:title="adc_analyzebaseline">
<polygon fill="white" stroke="black" points="82.5,-1406.5 82.5,-1425.5 189.5,-1425.5 189.5,-1406.5 82.5,-1406.5"/>
<text text-anchor="middle" x="136" y="-1413.5" font-family="Helvetica,sans-Serif" font-size="10.00">adc_analyzebaseline</text>
</a>
</g>
</g>
<!-- Node1&#45;&gt;Node2 -->
<g id="edge1" class="edge"><title>Node1&#45;&gt;Node2</title>
<path fill="none" stroke="midnightblue" d="M20.1975,-779.963C21.7952,-856.293 33.5985,-1346.77 74,-1397 74.9776,-1398.22 76.0319,-1399.35 77.1515,-1400.42"/>
<polygon fill="midnightblue" stroke="midnightblue" points="75.2421,-1403.36 85.3676,-1406.48 79.3968,-1397.73 75.2421,-1403.36"/>
</g>
<!-- Node3 -->
<g id="node3" class="node"><title>Node3</title>
<g id="a_node3"><a xlink:href="_core_2_include_2adc_8h.xhtml#a2c682c155ee56ca76245bbcb94f54db2" target="_top" xlink:title="adc_closecrates">
<polygon fill="white" stroke="black" points="92,-1368.5 92,-1387.5 180,-1387.5 180,-1368.5 92,-1368.5"/>
<text text-anchor="middle" x="136" y="-1375.5" font-family="Helvetica,sans-Serif" font-size="10.00">adc_closecrates</text>
</a>
</g>
</g>
<!-- Node1&#45;&gt;Node3 -->
<g id="edge2" class="edge"><title>Node1&#45;&gt;Node3</title>
<path fill="none" stroke="midnightblue" d="M20.2519,-779.822C22.2129,-853.027 35.9792,-1312 74,-1359 76.556,-1362.16 79.6299,-1364.8 83.0212,-1367.02"/>
<polygon fill="midnightblue" stroke="midnightblue" points="81.5021,-1370.17 91.9903,-1371.67 84.7266,-1363.96 81.5021,-1370.17"/>
</g>
<!-- Node4 -->
<g id="node4" class="node"><title>Node4</title>
<g id="a_node4"><a xlink:href="_core_2_include_2adc_8h.xhtml#a94f95e39919b3b5969d4231bf5103079" target="_top" xlink:title="adc_enable">
<polygon fill="white" stroke="black" points="103,-1330.5 103,-1349.5 169,-1349.5 169,-1330.5 103,-1330.5"/>
<text text-anchor="middle" x="136" y="-1337.5" font-family="Helvetica,sans-Serif" font-size="10.00">adc_enable</text>
</a>
</g>
</g>
<!-- Node1&#45;&gt;Node4 -->
<g id="edge3" class="edge"><title>Node1&#45;&gt;Node4</title>
<path fill="none" stroke="midnightblue" d="M20.3108,-779.631C22.647,-849.506 38.3492,-1277.21 74,-1321 78.8626,-1326.97 85.5751,-1331.1 92.7764,-1333.95"/>
<polygon fill="midnightblue" stroke="midnightblue" points="92.1819,-1337.43 102.771,-1337.09 94.281,-1330.76 92.1819,-1337.43"/>
</g>
<!-- Node5 -->
<g id="node5" class="node"><title>Node5</title>
<g id="a_node5"><a xlink:href="_core_2_include_2adc_8h.xhtml#a25f6f40f42d10a2ecc7b970155d9eb53" target="_top" xlink:title="adc_getbaseline">
<polygon fill="white" stroke="black" points="92.5,-1292.5 92.5,-1311.5 179.5,-1311.5 179.5,-1292.5 92.5,-1292.5"/>
<text text-anchor="middle" x="136" y="-1299.5" font-family="Helvetica,sans-Serif" font-size="10.00">adc_getbaseline</text>
</a>
</g>
</g>
<!-- Node1&#45;&gt;Node5 -->
<g id="edge4" class="edge"><title>Node1&#45;&gt;Node5</title>
<path fill="none" stroke="midnightblue" d="M20.3918,-779.817C23.1726,-847.421 40.7792,-1242.49 74,-1283 76.6156,-1286.19 79.7586,-1288.85 83.2204,-1291.08"/>
<polygon fill="midnightblue" stroke="midnightblue" points="81.8659,-1294.32 92.3637,-1295.75 85.0493,-1288.08 81.8659,-1294.32"/>
</g>
<!-- Node6 -->
<g id="node6" class="node"><title>Node6</title>
<g id="a_node6"><a xlink:href="_core_2_include_2adc_8h.xhtml#ad4af88f42a1f3b3bc615ab5543f614a3" target="_top" xlink:title="adc_init">
<polygon fill="white" stroke="black" points="111,-1254.5 111,-1273.5 161,-1273.5 161,-1254.5 111,-1254.5"/>
<text text-anchor="middle" x="136" y="-1261.5" font-family="Helvetica,sans-Serif" font-size="10.00">adc_init</text>
</a>
</g>
</g>
<!-- Node1&#45;&gt;Node6 -->
<g id="edge5" class="edge"><title>Node1&#45;&gt;Node6</title>
<path fill="none" stroke="midnightblue" d="M20.4832,-779.911C23.7308,-844.823 43.1883,-1207.75 74,-1245 80.7335,-1253.14 90.9009,-1257.85 101.015,-1260.56"/>
<polygon fill="midnightblue" stroke="midnightblue" points="100.476,-1264.03 110.982,-1262.66 101.915,-1257.18 100.476,-1264.03"/>
</g>
<!-- Node7 -->
<g id="node7" class="node"><title>Node7</title>
<g id="a_node7"><a xlink:href="_core_2_include_2adc_8h.xhtml#aa357272f6eac8b5f8104ea1237f2e65c" target="_top" xlink:title="adc_mblt">
<polygon fill="white" stroke="black" points="108,-1216.5 108,-1235.5 164,-1235.5 164,-1216.5 108,-1216.5"/>
<text text-anchor="middle" x="136" y="-1223.5" font-family="Helvetica,sans-Serif" font-size="10.00">adc_mblt</text>
</a>
</g>
</g>
<!-- Node1&#45;&gt;Node7 -->
<g id="edge6" class="edge"><title>Node1&#45;&gt;Node7</title>
<path fill="none" stroke="midnightblue" d="M19.9127,-779.582C19.5758,-836.787 20.4647,-1133.04 74,-1202 80.0602,-1209.81 89.0278,-1215.08 98.2329,-1218.64"/>
<polygon fill="midnightblue" stroke="midnightblue" points="97.2074,-1221.98 107.8,-1221.76 99.3795,-1215.33 97.2074,-1221.98"/>
</g>
<!-- Node8 -->
<g id="node8" class="node"><title>Node8</title>
<g id="a_node8"><a xlink:href="_core_2_include_2control_8h.xhtml#a3a545ba21c1d05570512e20917c021cf" target="_top" xlink:title="col">
<polygon fill="white" stroke="black" points="291.5,-1178.5 291.5,-1197.5 320.5,-1197.5 320.5,-1178.5 291.5,-1178.5"/>
<text text-anchor="middle" x="306" y="-1185.5" font-family="Helvetica,sans-Serif" font-size="10.00">col</text>
</a>
</g>
</g>
<!-- Node1&#45;&gt;Node8 -->
<g id="edge7" class="edge"><title>Node1&#45;&gt;Node8</title>
<path fill="none" stroke="midnightblue" d="M19.8001,-779.63C18.8737,-834.563 17.1975,-1107.81 74,-1163 130.379,-1217.78 234.783,-1203.65 281.424,-1193.77"/>
<polygon fill="midnightblue" stroke="midnightblue" points="282.482,-1197.12 291.474,-1191.52 280.95,-1190.29 282.482,-1197.12"/>
</g>
<!-- Node9 -->
<g id="node9" class="node"><title>Node9</title>
<g id="a_node9"><a xlink:href="_core_2_include_2control_8h.xhtml#a05821af400d34bbf265b0eb929f4cee8" target="_top" xlink:title="control_calcrate">
<polygon fill="white" stroke="black" points="93,-912.5 93,-931.5 179,-931.5 179,-912.5 93,-912.5"/>
<text text-anchor="middle" x="136" y="-919.5" font-family="Helvetica,sans-Serif" font-size="10.00">control_calcrate</text>
</a>
</g>
</g>
<!-- Node1&#45;&gt;Node9 -->
<g id="edge8" class="edge"><title>Node1&#45;&gt;Node9</title>
<path fill="none" stroke="midnightblue" d="M21.0982,-779.615C24.3893,-803.935 36.3952,-868.419 74,-903 76.9469,-905.71 80.2755,-908.033 83.8195,-910.026"/>
<polygon fill="midnightblue" stroke="midnightblue" points="82.4385,-913.244 92.9779,-914.326 85.414,-906.908 82.4385,-913.244"/>
</g>
<!-- Node14 -->
<g id="node14" class="node"><title>Node14</title>
<g id="a_node14"><a xlink:href="_core_2_include_2control_8h.xhtml#a640ccd0e485986d0cd3766f53e86af34" target="_top" xlink:title="control_calctime">
<polygon fill="white" stroke="black" points="92,-874.5 92,-893.5 180,-893.5 180,-874.5 92,-874.5"/>
<text text-anchor="middle" x="136" y="-881.5" font-family="Helvetica,sans-Serif" font-size="10.00">control_calctime</text>
</a>
</g>
</g>
<!-- Node1&#45;&gt;Node14 -->
<g id="edge14" class="edge"><title>Node1&#45;&gt;Node14</title>
<path fill="none" stroke="midnightblue" d="M22.829,-779.659C28.9369,-798.822 45.1864,-841.798 74,-865 76.7173,-867.188 79.6878,-869.125 82.8081,-870.84"/>
<polygon fill="midnightblue" stroke="midnightblue" points="81.3729,-874.033 91.913,-875.109 84.3443,-867.695 81.3729,-874.033"/>
</g>
<!-- Node15 -->
<g id="node15" class="node"><title>Node15</title>
<g id="a_node15"><a xlink:href="_core_2_include_2control_8h.xhtml#ac97643773a87a0ab2f3310730174824f" target="_top" xlink:title="control_cmdline">
<polygon fill="white" stroke="black" points="93.5,-836.5 93.5,-855.5 178.5,-855.5 178.5,-836.5 93.5,-836.5"/>
<text text-anchor="middle" x="136" y="-843.5" font-family="Helvetica,sans-Serif" font-size="10.00">control_cmdline</text>
</a>
</g>
</g>
<!-- Node1&#45;&gt;Node15 -->
<g id="edge15" class="edge"><title>Node1&#45;&gt;Node15</title>
<path fill="none" stroke="midnightblue" d="M26.5588,-779.503C35.7499,-792.129 53.6373,-814.313 74,-827 77.3465,-829.085 80.9398,-830.957 84.6468,-832.636"/>
<polygon fill="midnightblue" stroke="midnightblue" points="83.4367,-835.922 94.0198,-836.42 86.0571,-829.431 83.4367,-835.922"/>
</g>
<!-- Node16 -->
<g id="node16" class="node"><title>Node16</title>
<g id="a_node16"><a xlink:href="_core_2_include_2control_8h.xhtml#af7203d6482025349821e2764d08e103c" target="_top" xlink:title="control_configbaseline">
<polygon fill="white" stroke="black" points="79.5,-798.5 79.5,-817.5 192.5,-817.5 192.5,-798.5 79.5,-798.5"/>
<text text-anchor="middle" x="136" y="-805.5" font-family="Helvetica,sans-Serif" font-size="10.00">control_configbaseline</text>
</a>
</g>
</g>
<!-- Node1&#45;&gt;Node16 -->
<g id="edge16" class="edge"><title>Node1&#45;&gt;Node16</title>
<path fill="none" stroke="midnightblue" d="M38.4374,-776.674C48.8467,-780.395 62.1139,-785.059 74,-789 80.4372,-791.134 87.2791,-793.333 93.9651,-795.443"/>
<polygon fill="midnightblue" stroke="midnightblue" points="92.9952,-798.807 103.584,-798.454 95.0864,-792.127 92.9952,-798.807"/>
</g>
<!-- Node17 -->
<g id="node17" class="node"><title>Node17</title>
<g id="a_node17"><a xlink:href="_core_2_include_2control_8h.xhtml#aeab8b16e95a01d21a60fdf5490f781d2" target="_top" xlink:title="control_configfile">
<polygon fill="white" stroke="black" points="91,-760.5 91,-779.5 181,-779.5 181,-760.5 91,-760.5"/>
<text text-anchor="middle" x="136" y="-767.5" font-family="Helvetica,sans-Serif" font-size="10.00">control_configfile</text>
</a>
</g>
</g>
<!-- Node1&#45;&gt;Node17 -->
<g id="edge17" class="edge"><title>Node1&#45;&gt;Node17</title>
<path fill="none" stroke="midnightblue" d="M38.2221,-770C49.6459,-770 65.0319,-770 80.1705,-770"/>
<polygon fill="midnightblue" stroke="midnightblue" points="80.5599,-773.5 90.5599,-770 80.5598,-766.5 80.5599,-773.5"/>
</g>
<!-- Node18 -->
<g id="node18" class="node"><title>Node18</title>
<g id="a_node18"><a xlink:href="_core_2_include_2control_8h.xhtml#aa8ca64af815f670c76cdb23c3d1af7b4" target="_top" xlink:title="control_generatefilename">
<polygon fill="white" stroke="black" points="243.5,-969.5 243.5,-988.5 368.5,-988.5 368.5,-969.5 243.5,-969.5"/>
<text text-anchor="middle" x="306" y="-976.5" font-family="Helvetica,sans-Serif" font-size="10.00">control_generatefilename</text>
</a>
</g>
</g>
<!-- Node1&#45;&gt;Node18 -->
<g id="edge18" class="edge"><title>Node1&#45;&gt;Node18</title>
<path fill="none" stroke="midnightblue" d="M19.8167,-779.588C19.8207,-808.873 24.1189,-897.779 74,-941 97.3746,-961.253 174.602,-970.856 233.388,-975.313"/>
<polygon fill="midnightblue" stroke="midnightblue" points="233.166,-978.806 243.392,-976.036 233.67,-971.824 233.166,-978.806"/>
</g>
<!-- Node19 -->
<g id="node19" class="node"><title>Node19</title>
<g id="a_node19"><a xlink:href="_core_2_include_2control_8h.xhtml#a870a5f7c8f98fa5b52edfc9210ac20ac" target="_top" xlink:title="control_getadc">
<polygon fill="white" stroke="black" points="266,-1140.5 266,-1159.5 346,-1159.5 346,-1140.5 266,-1140.5"/>
<text text-anchor="middle" x="306" y="-1147.5" font-family="Helvetica,sans-Serif" font-size="10.00">control_getadc</text>
</a>
</g>
</g>
<!-- Node1&#45;&gt;Node19 -->
<g id="edge21" class="edge"><title>Node1&#45;&gt;Node19</title>
<path fill="none" stroke="midnightblue" d="M19.9072,-779.545C19.6139,-831.675 21.0173,-1081.42 74,-1131 122.895,-1176.75 205.829,-1171.05 257.89,-1161.46"/>
<polygon fill="midnightblue" stroke="midnightblue" points="258.731,-1164.86 267.871,-1159.5 257.385,-1157.99 258.731,-1164.86"/>
</g>
<!-- Node20 -->
<g id="node20" class="node"><title>Node20</title>
<g id="a_node20"><a xlink:href="_core_2_include_2control_8h.xhtml#a42c6ce88a95e362f9f257d90bbf8de32" target="_top" xlink:title="control_log">
<polygon fill="white" stroke="black" points="104,-722.5 104,-741.5 168,-741.5 168,-722.5 104,-722.5"/>
<text text-anchor="middle" x="136" y="-729.5" font-family="Helvetica,sans-Serif" font-size="10.00">control_log</text>
</a>
</g>
</g>
<!-- Node1&#45;&gt;Node20 -->
<g id="edge22" class="edge"><title>Node1&#45;&gt;Node20</title>
<path fill="none" stroke="midnightblue" d="M38.4374,-763.326C48.8467,-759.605 62.1139,-754.941 74,-751 80.508,-748.842 87.4295,-746.619 94.1855,-744.487"/>
<polygon fill="midnightblue" stroke="midnightblue" points="95.3993,-747.775 103.898,-741.448 93.3089,-741.094 95.3993,-747.775"/>
</g>
<!-- Node21 -->
<g id="node21" class="node"><title>Node21</title>
<g id="a_node21"><a xlink:href="_core_2_include_2control_8h.xhtml#ab54cec1fc7617fbb69ba6258f0a9f827" target="_top" xlink:title="control_openfile">
<polygon fill="white" stroke="black" points="93.5,-684.5 93.5,-703.5 178.5,-703.5 178.5,-684.5 93.5,-684.5"/>
<text text-anchor="middle" x="136" y="-691.5" font-family="Helvetica,sans-Serif" font-size="10.00">control_openfile</text>
</a>
</g>
</g>
<!-- Node1&#45;&gt;Node21 -->
<g id="edge23" class="edge"><title>Node1&#45;&gt;Node21</title>
<path fill="none" stroke="midnightblue" d="M26.5588,-760.497C35.7499,-747.871 53.6373,-725.687 74,-713 77.3465,-710.915 80.9398,-709.043 84.6468,-707.364"/>
<polygon fill="midnightblue" stroke="midnightblue" points="86.0571,-710.569 94.0198,-703.58 83.4367,-704.078 86.0571,-710.569"/>
</g>
<!-- Node22 -->
<g id="node22" class="node"><title>Node22</title>
<g id="a_node22"><a xlink:href="_core_2_include_2control_8h.xhtml#a3ea9dadf648f70197ec522fb6fedc393" target="_top" xlink:title="control_openlog">
<polygon fill="white" stroke="black" points="93.5,-646.5 93.5,-665.5 178.5,-665.5 178.5,-646.5 93.5,-646.5"/>
<text text-anchor="middle" x="136" y="-653.5" font-family="Helvetica,sans-Serif" font-size="10.00">control_openlog</text>
</a>
</g>
</g>
<!-- Node1&#45;&gt;Node22 -->
<g id="edge24" class="edge"><title>Node1&#45;&gt;Node22</title>
<path fill="none" stroke="midnightblue" d="M22.829,-760.341C28.9369,-741.178 45.1864,-698.202 74,-675 77.1182,-672.489 80.5698,-670.308 84.1987,-668.415"/>
<polygon fill="midnightblue" stroke="midnightblue" points="85.7841,-671.54 93.4955,-664.275 82.9365,-665.146 85.7841,-671.54"/>
</g>
<!-- Node23 -->
<g id="node23" class="node"><title>Node23</title>
<g id="a_node23"><a xlink:href="_core_2_include_2control_8h.xhtml#a965edc610f926d6cb4987d5aeee13d4a" target="_top" xlink:title="control_openrawrootfile">
<polygon fill="white" stroke="black" points="77.5,-608.5 77.5,-627.5 194.5,-627.5 194.5,-608.5 77.5,-608.5"/>
<text text-anchor="middle" x="136" y="-615.5" font-family="Helvetica,sans-Serif" font-size="10.00">control_openrawrootfile</text>
</a>
</g>
</g>
<!-- Node1&#45;&gt;Node23 -->
<g id="edge25" class="edge"><title>Node1&#45;&gt;Node23</title>
<path fill="none" stroke="midnightblue" d="M21.0982,-760.385C24.3893,-736.065 36.3952,-671.581 74,-637 75.7248,-635.414 77.5803,-633.96 79.5332,-632.628"/>
<polygon fill="midnightblue" stroke="midnightblue" points="81.6095,-635.476 88.6161,-627.529 78.1828,-629.372 81.6095,-635.476"/>
</g>
<!-- Node24 -->
<g id="node24" class="node"><title>Node24</title>
<g id="a_node24"><a xlink:href="_core_2_include_2control_8h.xhtml#a6d31350db95da2e061ef2ef9ad11402e" target="_top" xlink:title="control_printlog">
<polygon fill="white" stroke="black" points="94.5,-570.5 94.5,-589.5 177.5,-589.5 177.5,-570.5 94.5,-570.5"/>
<text text-anchor="middle" x="136" y="-577.5" font-family="Helvetica,sans-Serif" font-size="10.00">control_printlog</text>
</a>
</g>
</g>
<!-- Node1&#45;&gt;Node24 -->
<g id="edge26" class="edge"><title>Node1&#45;&gt;Node24</title>
<path fill="none" stroke="midnightblue" d="M20.1048,-760.304C20.9538,-731.464 27.4592,-645.358 74,-599 77.2257,-595.787 80.9853,-593.116 85.0245,-590.895"/>
<polygon fill="midnightblue" stroke="midnightblue" points="86.5591,-594.042 94.2153,-586.719 83.6632,-587.669 86.5591,-594.042"/>
</g>
<!-- Node25 -->
<g id="node25" class="node"><title>Node25</title>
<g id="a_node25"><a xlink:href="_core_2_include_2control_8h.xhtml#a21a3f1c86f11bb9fb4dafd8fed32840f" target="_top" xlink:title="control_printtitle">
<polygon fill="white" stroke="black" points="93,-532.5 93,-551.5 179,-551.5 179,-532.5 93,-532.5"/>
<text text-anchor="middle" x="136" y="-539.5" font-family="Helvetica,sans-Serif" font-size="10.00">control_printtitle</text>
</a>
</g>
</g>
<!-- Node1&#45;&gt;Node25 -->
<g id="edge27" class="edge"><title>Node1&#45;&gt;Node25</title>
<path fill="none" stroke="midnightblue" d="M19.4364,-760.125C18.1157,-727.108 18.4415,-619.356 74,-561 76.8024,-558.056 80.0522,-555.566 83.564,-553.46"/>
<polygon fill="midnightblue" stroke="midnightblue" points="85.2836,-556.515 92.7271,-548.976 82.2065,-550.228 85.2836,-556.515"/>
</g>
<!-- Node26 -->
<g id="node26" class="node"><title>Node26</title>
<g id="a_node26"><a xlink:href="_core_2_include_2control_8h.xhtml#ab5bd42385627821b5bbe8f172adc9d10" target="_top" xlink:title="control_scfile">
<polygon fill="white" stroke="black" points="99,-494.5 99,-513.5 173,-513.5 173,-494.5 99,-494.5"/>
<text text-anchor="middle" x="136" y="-501.5" font-family="Helvetica,sans-Serif" font-size="10.00">control_scfile</text>
</a>
</g>
</g>
<!-- Node1&#45;&gt;Node26 -->
<g id="edge28" class="edge"><title>Node1&#45;&gt;Node26</title>
<path fill="none" stroke="midnightblue" d="M20.8368,-760.267C24.5711,-719.006 40.999,-558.994 74,-523 78.2797,-518.332 83.6846,-514.801 89.4999,-512.132"/>
<polygon fill="midnightblue" stroke="midnightblue" points="90.7444,-515.404 98.8732,-508.609 88.2812,-508.851 90.7444,-515.404"/>
</g>
<!-- Node27 -->
<g id="node27" class="node"><title>Node27</title>
<g id="a_node27"><a xlink:href="_core_2_include_2control_8h.xhtml#a6131d9649b5714f14df156cad02682d8" target="_top" xlink:title="control_setdefault">
<polygon fill="white" stroke="black" points="89,-456.5 89,-475.5 183,-475.5 183,-456.5 89,-456.5"/>
<text text-anchor="middle" x="136" y="-463.5" font-family="Helvetica,sans-Serif" font-size="10.00">control_setdefault</text>
</a>
</g>
</g>
<!-- Node1&#45;&gt;Node27 -->
<g id="edge29" class="edge"><title>Node1&#45;&gt;Node27</title>
<path fill="none" stroke="midnightblue" d="M20.5253,-760.335C23.1561,-715.398 36.3013,-527.291 74,-485 75.776,-483.008 77.7571,-481.222 79.889,-479.622"/>
<polygon fill="midnightblue" stroke="midnightblue" points="81.9601,-482.461 88.7447,-474.324 78.3662,-476.454 81.9601,-482.461"/>
</g>
<!-- Node28 -->
<g id="node28" class="node"><title>Node28</title>
<g id="a_node28"><a xlink:href="_core_2_include_2control_8h.xhtml#ace4f5698e0ba0d90b0cc7addf2573b00" target="_top" xlink:title="control_writedata">
<polygon fill="white" stroke="black" points="90.5,-418.5 90.5,-437.5 181.5,-437.5 181.5,-418.5 90.5,-418.5"/>
<text text-anchor="middle" x="136" y="-425.5" font-family="Helvetica,sans-Serif" font-size="10.00">control_writedata</text>
</a>
</g>
</g>
<!-- Node1&#45;&gt;Node28 -->
<g id="edge30" class="edge"><title>Node1&#45;&gt;Node28</title>
<path fill="none" stroke="midnightblue" d="M20.2889,-760.376C21.9314,-711.983 31.5836,-495.631 74,-447 76.2238,-444.45 78.7835,-442.239 81.5676,-440.32"/>
<polygon fill="midnightblue" stroke="midnightblue" points="83.4167,-443.298 90.4813,-435.402 80.0348,-437.169 83.4167,-443.298"/>
</g>
<!-- Node29 -->
<g id="node29" class="node"><title>Node29</title>
<g id="a_node29"><a xlink:href="_core_2_include_2control_8h.xhtml#a081b3a65ba13f7644819d673c1ba3798" target="_top" xlink:title="control_writerootrawdata">
<polygon fill="white" stroke="black" points="74.5,-380.5 74.5,-399.5 197.5,-399.5 197.5,-380.5 74.5,-380.5"/>
<text text-anchor="middle" x="136" y="-387.5" font-family="Helvetica,sans-Serif" font-size="10.00">control_writerootrawdata</text>
</a>
</g>
</g>
<!-- Node1&#45;&gt;Node29 -->
<g id="edge31" class="edge"><title>Node1&#45;&gt;Node29</title>
<path fill="none" stroke="midnightblue" d="M20.1043,-760.301C20.8549,-708.417 26.8798,-463.969 74,-409 75.1415,-407.668 76.3747,-406.429 77.684,-405.275"/>
<polygon fill="midnightblue" stroke="midnightblue" points="79.6917,-408.142 85.9045,-399.56 75.6959,-402.394 79.6917,-408.142"/>
</g>
<!-- Node30 -->
<g id="node30" class="node"><title>Node30</title>
<g id="a_node30"><a xlink:href="_core_2_include_2control_8h.xhtml#a48a6baefa46edb93b59bb0f76385052a" target="_top" xlink:title="errormsg">
<polygon fill="white" stroke="black" points="278.5,-1045.5 278.5,-1064.5 333.5,-1064.5 333.5,-1045.5 278.5,-1045.5"/>
<text text-anchor="middle" x="306" y="-1052.5" font-family="Helvetica,sans-Serif" font-size="10.00">errormsg</text>
</a>
</g>
</g>
<!-- Node1&#45;&gt;Node30 -->
<g id="edge32" class="edge"><title>Node1&#45;&gt;Node30</title>
<path fill="none" stroke="midnightblue" d="M20.6909,-779.575C23.8725,-820.889 38.501,-983.307 74,-1017 101.336,-1042.94 210.298,-1051.24 268.273,-1053.84"/>
<polygon fill="midnightblue" stroke="midnightblue" points="268.337,-1057.35 278.473,-1054.27 268.627,-1050.36 268.337,-1057.35"/>
</g>
<!-- Node31 -->
<g id="node31" class="node"><title>Node31</title>
<g id="a_node31"><a xlink:href="_core_2_include_2control_8h.xhtml#a949384828bc972aa1da4192e169f2c49" target="_top" xlink:title="get_time">
<polygon fill="white" stroke="black" points="109,-342.5 109,-361.5 163,-361.5 163,-342.5 109,-342.5"/>
<text text-anchor="middle" x="136" y="-349.5" font-family="Helvetica,sans-Serif" font-size="10.00">get_time</text>
</a>
</g>
</g>
<!-- Node1&#45;&gt;Node31 -->
<g id="edge33" class="edge"><title>Node1&#45;&gt;Node31</title>
<path fill="none" stroke="midnightblue" d="M19.9521,-760.389C19.8715,-705.54 22.1094,-432.397 74,-371 80.3769,-363.455 89.6998,-358.86 99.1472,-356.076"/>
<polygon fill="midnightblue" stroke="midnightblue" points="99.9835,-359.475 108.919,-353.782 98.3838,-352.66 99.9835,-359.475"/>
</g>
<!-- Node32 -->
<g id="node32" class="node"><title>Node32</title>
<g id="a_node32"><a xlink:href="_d_r_s_8cpp.xhtml#aca8ac8de5202a8aa092f29c97b845fd4" target="_top" xlink:title="getch">
<polygon fill="white" stroke="black" points="115.5,-304.5 115.5,-323.5 156.5,-323.5 156.5,-304.5 115.5,-304.5"/>
<text text-anchor="middle" x="136" y="-311.5" font-family="Helvetica,sans-Serif" font-size="10.00">getch</text>
</a>
</g>
</g>
<!-- Node1&#45;&gt;Node32 -->
<g id="edge34" class="edge"><title>Node1&#45;&gt;Node32</title>
<path fill="none" stroke="midnightblue" d="M19.8249,-760.25C18.9766,-702.051 17.397,-400.764 74,-333 81.7308,-323.745 93.897,-318.924 105.337,-316.44"/>
<polygon fill="midnightblue" stroke="midnightblue" points="106.198,-319.845 115.491,-314.756 105.053,-312.94 106.198,-319.845"/>
</g>
<!-- Node33 -->
<g id="node33" class="node"><title>Node33</title>
<g id="a_node33"><a xlink:href="graph_8h.xhtml#a47ba0a65658fc0ac6b76a02e4bb0918e" target="_top" xlink:title="graph_checkkey">
<polygon fill="white" stroke="black" points="92,-1102.5 92,-1121.5 180,-1121.5 180,-1102.5 92,-1102.5"/>
<text text-anchor="middle" x="136" y="-1109.5" font-family="Helvetica,sans-Serif" font-size="10.00">graph_checkkey</text>
</a>
</g>
</g>
<!-- Node1&#45;&gt;Node33 -->
<g id="edge35" class="edge"><title>Node1&#45;&gt;Node33</title>
<path fill="none" stroke="midnightblue" d="M20.2889,-779.624C21.9314,-828.017 31.5836,-1044.37 74,-1093 76.5177,-1095.89 79.466,-1098.34 82.683,-1100.42"/>
<polygon fill="midnightblue" stroke="midnightblue" points="81.2286,-1103.61 91.7149,-1105.13 84.4608,-1097.4 81.2286,-1103.61"/>
</g>
<!-- Node35 -->
<g id="node35" class="node"><title>Node35</title>
<g id="a_node35"><a xlink:href="graph_8h.xhtml#a9d8410ccb8c9da421a55cc7cb556533b" target="_top" xlink:title="graph_display">
<polygon fill="white" stroke="black" points="97.5,-988.5 97.5,-1007.5 174.5,-1007.5 174.5,-988.5 97.5,-988.5"/>
<text text-anchor="middle" x="136" y="-995.5" font-family="Helvetica,sans-Serif" font-size="10.00">graph_display</text>
</a>
</g>
</g>
<!-- Node1&#45;&gt;Node35 -->
<g id="edge40" class="edge"><title>Node1&#45;&gt;Node35</title>
<path fill="none" stroke="midnightblue" d="M19.6741,-779.942C19.1602,-812.231 21.8703,-915.439 74,-974 77.975,-978.465 82.8872,-982.109 88.1846,-985.079"/>
<polygon fill="midnightblue" stroke="midnightblue" points="86.8344,-988.313 97.3659,-989.47 89.8544,-981.998 86.8344,-988.313"/>
</g>
<!-- Node36 -->
<g id="node36" class="node"><title>Node36</title>
<g id="a_node36"><a xlink:href="graph_8h.xhtml#a249588b7726c756c011af362d7948232" target="_top" xlink:title="graph_displayNoZLE">
<polygon fill="white" stroke="black" points="82.5,-266.5 82.5,-285.5 189.5,-285.5 189.5,-266.5 82.5,-266.5"/>
<text text-anchor="middle" x="136" y="-273.5" font-family="Helvetica,sans-Serif" font-size="10.00">graph_displayNoZLE</text>
</a>
</g>
</g>
<!-- Node1&#45;&gt;Node36 -->
<g id="edge42" class="edge"><title>Node1&#45;&gt;Node36</title>
<path fill="none" stroke="midnightblue" d="M20.4832,-760.089C23.7308,-695.177 43.1883,-332.255 74,-295 74.9941,-293.798 76.0631,-292.671 77.1957,-291.614"/>
<polygon fill="midnightblue" stroke="midnightblue" points="79.4367,-294.312 85.4751,-285.606 75.3258,-288.646 79.4367,-294.312"/>
</g>
<!-- Node37 -->
<g id="node37" class="node"><title>Node37</title>
<g id="a_node37"><a xlink:href="graph_8h.xhtml#a279526bef692d8bbc2b23170870a7a9e" target="_top" xlink:title="graph_edit">
<polygon fill="white" stroke="black" points="105,-228.5 105,-247.5 167,-247.5 167,-228.5 105,-228.5"/>
<text text-anchor="middle" x="136" y="-235.5" font-family="Helvetica,sans-Serif" font-size="10.00">graph_edit</text>
</a>
</g>
</g>
<!-- Node1&#45;&gt;Node37 -->
<g id="edge43" class="edge"><title>Node1&#45;&gt;Node37</title>
<path fill="none" stroke="midnightblue" d="M20.3918,-760.183C23.1726,-692.579 40.7792,-297.51 74,-257 79.3505,-250.476 86.9074,-246.151 94.887,-243.295"/>
<polygon fill="midnightblue" stroke="midnightblue" points="96.0552,-246.601 104.71,-240.49 94.1333,-239.87 96.0552,-246.601"/>
</g>
<!-- Node38 -->
<g id="node38" class="node"><title>Node38</title>
<g id="a_node38"><a xlink:href="graph_8h.xhtml#ac62264851ec710499628bb1aaab015e8" target="_top" xlink:title="graph_init">
<polygon fill="white" stroke="black" points="106.5,-190.5 106.5,-209.5 165.5,-209.5 165.5,-190.5 106.5,-190.5"/>
<text text-anchor="middle" x="136" y="-197.5" font-family="Helvetica,sans-Serif" font-size="10.00">graph_init</text>
</a>
</g>
</g>
<!-- Node1&#45;&gt;Node38 -->
<g id="edge44" class="edge"><title>Node1&#45;&gt;Node38</title>
<path fill="none" stroke="midnightblue" d="M20.3108,-760.369C22.647,-690.494 38.3492,-262.793 74,-219 79.6985,-212 87.9378,-207.53 96.5268,-204.69"/>
<polygon fill="midnightblue" stroke="midnightblue" points="97.4774,-208.059 106.256,-202.127 95.6942,-201.29 97.4774,-208.059"/>
</g>
<!-- Node39 -->
<g id="node39" class="node"><title>Node39</title>
<g id="a_node39"><a xlink:href="mini_d_a_x_8cpp.xhtml#a273bf08d28499853f9fd74863447d6ac" target="_top" xlink:title="sigproc">
<polygon fill="white" stroke="black" points="112,-1064.5 112,-1083.5 160,-1083.5 160,-1064.5 112,-1064.5"/>
<text text-anchor="middle" x="136" y="-1071.5" font-family="Helvetica,sans-Serif" font-size="10.00">sigproc</text>
</a>
</g>
</g>
<!-- Node1&#45;&gt;Node39 -->
<g id="edge45" class="edge"><title>Node1&#45;&gt;Node39</title>
<path fill="none" stroke="midnightblue" d="M20.6386,-779.733C23.7322,-824.148 38.4882,-1007.26 74,-1050 81.1094,-1058.56 91.6843,-1064.08 102.041,-1067.64"/>
<polygon fill="midnightblue" stroke="midnightblue" points="101.204,-1071.04 111.784,-1070.48 103.165,-1064.32 101.204,-1071.04"/>
</g>
<!-- Node40 -->
<g id="node40" class="node"><title>Node40</title>
<g id="a_node40"><a xlink:href="_p_d_a_q_2_core_2_include_2xml_8h.xhtml#a8251b051736c5146c1985edc6cb357e6" target="_top" xlink:title="xml_readsettings">
<polygon fill="white" stroke="red" points="90.5,-152.5 90.5,-171.5 181.5,-171.5 181.5,-152.5 90.5,-152.5"/>
<text text-anchor="middle" x="136" y="-159.5" font-family="Helvetica,sans-Serif" font-size="10.00">xml_readsettings</text>
</a>
</g>
</g>
<!-- Node1&#45;&gt;Node40 -->
<g id="edge47" class="edge"><title>Node1&#45;&gt;Node40</title>
<path fill="none" stroke="midnightblue" d="M20.2519,-760.178C22.2129,-686.973 35.9792,-228.004 74,-181 76.1625,-178.327 78.6958,-176.022 81.4783,-174.036"/>
<polygon fill="midnightblue" stroke="midnightblue" points="83.4547,-176.94 90.452,-168.985 80.0209,-170.84 83.4547,-176.94"/>
</g>
<!-- Node50 -->
<g id="node50" class="node"><title>Node50</title>
<g id="a_node50"><a xlink:href="_x_d_a_q_2_core_2_include_2xml_8h.xhtml#a187b952bef7db4d0c253dfee5f8dda6b" target="_top" xlink:title="xml_storefile">
<polygon fill="white" stroke="black" points="100,-114.5 100,-133.5 172,-133.5 172,-114.5 100,-114.5"/>
<text text-anchor="middle" x="136" y="-121.5" font-family="Helvetica,sans-Serif" font-size="10.00">xml_storefile</text>
</a>
</g>
</g>
<!-- Node1&#45;&gt;Node50 -->
<g id="edge57" class="edge"><title>Node1&#45;&gt;Node50</title>
<path fill="none" stroke="midnightblue" d="M20.1975,-760.037C21.7952,-683.707 33.5985,-193.23 74,-143 78.2972,-137.657 84.0756,-133.787 90.3693,-130.99"/>
<polygon fill="midnightblue" stroke="midnightblue" points="91.602,-134.266 99.8467,-127.612 89.252,-127.672 91.602,-134.266"/>
</g>
<!-- Node10 -->
<g id="node10" class="node"><title>Node10</title>
<g id="a_node10"><a xlink:href="control_8cpp.xhtml#a949384828bc972aa1da4192e169f2c49" target="_top" xlink:title="get_time">
<polygon fill="white" stroke="black" points="279,-855.5 279,-874.5 333,-874.5 333,-855.5 279,-855.5"/>
<text text-anchor="middle" x="306" y="-862.5" font-family="Helvetica,sans-Serif" font-size="10.00">get_time</text>
</a>
</g>
</g>
<!-- Node9&#45;&gt;Node10 -->
<g id="edge9" class="edge"><title>Node9&#45;&gt;Node10</title>
<path fill="none" stroke="midnightblue" d="M169.111,-912.453C178.469,-909.548 188.681,-906.259 198,-903 214.205,-897.333 217.864,-894.861 234,-889 245.445,-884.842 258.011,-880.517 269.348,-876.703"/>
<polygon fill="midnightblue" stroke="midnightblue" points="270.561,-879.988 278.936,-873.499 268.343,-873.349 270.561,-879.988"/>
</g>
<!-- Node11 -->
<g id="node11" class="node"><title>Node11</title>
<g id="a_node11"><a xlink:href="control_8cpp.xhtml#ab5bd42385627821b5bbe8f172adc9d10" target="_top" xlink:title="control_scfile">
<polygon fill="white" stroke="black" points="269,-931.5 269,-950.5 343,-950.5 343,-931.5 269,-931.5"/>
<text text-anchor="middle" x="306" y="-938.5" font-family="Helvetica,sans-Serif" font-size="10.00">control_scfile</text>
</a>
</g>
</g>
<!-- Node9&#45;&gt;Node11 -->
<g id="edge10" class="edge"><title>Node9&#45;&gt;Node11</title>
<path fill="none" stroke="midnightblue" d="M179.393,-926.795C203.549,-929.526 233.845,-932.953 258.631,-935.756"/>
<polygon fill="midnightblue" stroke="midnightblue" points="258.552,-939.269 268.882,-936.915 259.339,-932.314 258.552,-939.269"/>
</g>
<!-- Node13 -->
<g id="node13" class="node"><title>Node13</title>
<g id="a_node13"><a xlink:href="control_8cpp.xhtml#a48a6baefa46edb93b59bb0f76385052a" target="_top" xlink:title="errormsg">
<polygon fill="white" stroke="red" points="440.5,-931.5 440.5,-950.5 495.5,-950.5 495.5,-931.5 440.5,-931.5"/>
<text text-anchor="middle" x="468" y="-938.5" font-family="Helvetica,sans-Serif" font-size="10.00">errormsg</text>
</a>
</g>
</g>
<!-- Node9&#45;&gt;Node13 -->
<g id="edge13" class="edge"><title>Node9&#45;&gt;Node13</title>
<path fill="none" stroke="midnightblue" d="M179.37,-919.319C227.614,-916.887 308.721,-914.687 378,-922 395.4,-923.837 414.401,-927.64 430.361,-931.364"/>
<polygon fill="midnightblue" stroke="midnightblue" points="429.821,-934.834 440.363,-933.779 431.464,-928.03 429.821,-934.834"/>
</g>
<!-- Node12 -->
<g id="node12" class="node"><title>Node12</title>
<g id="a_node12"><a xlink:href="control_8cpp.xhtml#a03b1d46384ed092ca3bc35eeb9c47e02" target="_top" xlink:title="control_gettimestring">
<polygon fill="white" stroke="black" points="414.5,-969.5 414.5,-988.5 521.5,-988.5 521.5,-969.5 414.5,-969.5"/>
<text text-anchor="middle" x="468" y="-976.5" font-family="Helvetica,sans-Serif" font-size="10.00">control_gettimestring</text>
</a>
</g>
</g>
<!-- Node11&#45;&gt;Node12 -->
<g id="edge11" class="edge"><title>Node11&#45;&gt;Node12</title>
<path fill="none" stroke="midnightblue" d="M343.306,-949.623C365.089,-954.796 393.105,-961.45 416.965,-967.117"/>
<polygon fill="midnightblue" stroke="midnightblue" points="416.368,-970.572 426.906,-969.478 417.985,-963.762 416.368,-970.572"/>
</g>
<!-- Node11&#45;&gt;Node13 -->
<g id="edge12" class="edge"><title>Node11&#45;&gt;Node13</title>
<path fill="none" stroke="midnightblue" d="M343.306,-941C369.238,-941 404.005,-941 430.075,-941"/>
<polygon fill="midnightblue" stroke="midnightblue" points="430.31,-944.5 440.31,-941 430.31,-937.5 430.31,-944.5"/>
</g>
<!-- Node18&#45;&gt;Node12 -->
<g id="edge19" class="edge"><title>Node18&#45;&gt;Node12</title>
<path fill="none" stroke="midnightblue" d="M368.86,-979C380.491,-979 392.661,-979 404.316,-979"/>
<polygon fill="midnightblue" stroke="midnightblue" points="404.4,-982.5 414.4,-979 404.4,-975.5 404.4,-982.5"/>
</g>
<!-- Node18&#45;&gt;Node13 -->
<g id="edge20" class="edge"><title>Node18&#45;&gt;Node13</title>
<path fill="none" stroke="midnightblue" d="M347.375,-969.411C372.923,-963.343 405.686,-955.562 430.462,-949.678"/>
<polygon fill="midnightblue" stroke="midnightblue" points="431.288,-953.079 440.208,-947.363 429.67,-946.269 431.288,-953.079"/>
</g>
<!-- Node33&#45;&gt;Node8 -->
<g id="edge37" class="edge"><title>Node33&#45;&gt;Node8</title>
<path fill="none" stroke="midnightblue" d="M150.517,-1121.54C168.718,-1134.01 202.468,-1155.8 234,-1169 249.289,-1175.4 267.342,-1180.2 281.417,-1183.37"/>
<polygon fill="midnightblue" stroke="midnightblue" points="280.783,-1186.81 291.294,-1185.48 282.246,-1179.97 280.783,-1186.81"/>
</g>
<!-- Node33&#45;&gt;Node19 -->
<g id="edge36" class="edge"><title>Node33&#45;&gt;Node19</title>
<path fill="none" stroke="midnightblue" d="M179.393,-1121.59C202.613,-1126.84 231.507,-1133.38 255.727,-1138.85"/>
<polygon fill="midnightblue" stroke="midnightblue" points="255.265,-1142.34 265.79,-1141.13 256.809,-1135.51 255.265,-1142.34"/>
</g>
<!-- Node33&#45;&gt;Node30 -->
<g id="edge39" class="edge"><title>Node33&#45;&gt;Node30</title>
<path fill="none" stroke="midnightblue" d="M168.422,-1102.47C177.948,-1099.51 188.424,-1096.19 198,-1093 221.948,-1085.02 248.709,-1075.52 269.477,-1068.01"/>
<polygon fill="midnightblue" stroke="midnightblue" points="270.945,-1071.2 279.153,-1064.5 268.558,-1064.62 270.945,-1071.2"/>
</g>
<!-- Node34 -->
<g id="node34" class="node"><title>Node34</title>
<g id="a_node34"><a xlink:href="_core_2_include_2control_8h.xhtml#a1a91b66f68a4ba6cdf2ed9f75c6df947" target="_top" xlink:title="control_scopehelp">
<polygon fill="white" stroke="black" points="258.5,-1102.5 258.5,-1121.5 353.5,-1121.5 353.5,-1102.5 258.5,-1102.5"/>
<text text-anchor="middle" x="306" y="-1109.5" font-family="Helvetica,sans-Serif" font-size="10.00">control_scopehelp</text>
</a>
</g>
</g>
<!-- Node33&#45;&gt;Node34 -->
<g id="edge38" class="edge"><title>Node33&#45;&gt;Node34</title>
<path fill="none" stroke="midnightblue" d="M180.264,-1112C200.911,-1112 225.89,-1112 248.055,-1112"/>
<polygon fill="midnightblue" stroke="midnightblue" points="248.346,-1115.5 258.346,-1112 248.346,-1108.5 248.346,-1115.5"/>
</g>
<!-- Node35&#45;&gt;Node30 -->
<g id="edge41" class="edge"><title>Node35&#45;&gt;Node30</title>
<path fill="none" stroke="midnightblue" d="M165.119,-1007.54C193.608,-1017.21 237.792,-1032.2 268.863,-1042.74"/>
<polygon fill="midnightblue" stroke="midnightblue" points="267.859,-1046.09 278.454,-1045.99 270.109,-1039.47 267.859,-1046.09"/>
</g>
<!-- Node39&#45;&gt;Node30 -->
<g id="edge46" class="edge"><title>Node39&#45;&gt;Node30</title>
<path fill="none" stroke="midnightblue" d="M160.007,-1071.4C187.902,-1068.24 235.266,-1062.89 268.24,-1059.16"/>
<polygon fill="midnightblue" stroke="midnightblue" points="268.854,-1062.61 278.397,-1058.01 268.067,-1055.65 268.854,-1062.61"/>
</g>
<!-- Node41 -->
<g id="node41" class="node"><title>Node41</title>
<g id="a_node41"><a xlink:href="class_d_r_s_board.xhtml#a66bb03b3ba56cec84d6092768ba33a28" target="_top" xlink:title="DRSBoard::EnableTcal">
<polygon fill="white" stroke="black" points="246.5,-76.5 246.5,-95.5 365.5,-95.5 365.5,-76.5 246.5,-76.5"/>
<text text-anchor="middle" x="306" y="-83.5" font-family="Helvetica,sans-Serif" font-size="10.00">DRSBoard::EnableTcal</text>
</a>
</g>
</g>
<!-- Node40&#45;&gt;Node41 -->
<g id="edge48" class="edge"><title>Node40&#45;&gt;Node41</title>
<path fill="none" stroke="midnightblue" d="M177.98,-152.42C184.936,-149.914 191.881,-146.813 198,-143 217.746,-130.698 214.009,-116.9 234,-105 237.639,-102.834 241.527,-100.91 245.54,-99.2021"/>
<polygon fill="midnightblue" stroke="midnightblue" points="246.954,-102.409 255.068,-95.5963 244.476,-95.8624 246.954,-102.409"/>
</g>
<!-- Node42 -->
<g id="node42" class="node"><title>Node42</title>
<g id="a_node42"><a xlink:href="class_d_r_s_board.xhtml#afa180ff89a95f97dee9aa7b2e5c7c70d" target="_top" xlink:title="DRSBoard::EnableTrigger">
<polygon fill="white" stroke="black" points="241,-38.5 241,-57.5 371,-57.5 371,-38.5 241,-38.5"/>
<text text-anchor="middle" x="306" y="-45.5" font-family="Helvetica,sans-Serif" font-size="10.00">DRSBoard::EnableTrigger</text>
</a>
</g>
</g>
<!-- Node40&#45;&gt;Node42 -->
<g id="edge49" class="edge"><title>Node40&#45;&gt;Node42</title>
<path fill="none" stroke="midnightblue" d="M181.621,-152.922C187.555,-150.388 193.227,-147.146 198,-143 226.218,-118.491 205.292,-90.9334 234,-67 236.015,-65.3199 238.165,-63.787 240.414,-62.3887"/>
<polygon fill="midnightblue" stroke="midnightblue" points="242.27,-65.3683 249.512,-57.6349 239.028,-59.1643 242.27,-65.3683"/>
</g>
<!-- Node43 -->
<g id="node43" class="node"><title>Node43</title>
<g id="a_node43"><a xlink:href="struct_x_m_l_node.xhtml#aa07572a057ce7ffc8843e468d952f490" target="_top" xlink:title="XMLNode::getAttribute">
<polygon fill="white" stroke="black" points="248,-0.5 248,-19.5 364,-19.5 364,-0.5 248,-0.5"/>
<text text-anchor="middle" x="306" y="-7.5" font-family="Helvetica,sans-Serif" font-size="10.00">XMLNode::getAttribute</text>
</a>
</g>
</g>
<!-- Node40&#45;&gt;Node43 -->
<g id="edge50" class="edge"><title>Node40&#45;&gt;Node43</title>
<path fill="none" stroke="midnightblue" d="M181.536,-153.767C187.624,-151.117 193.363,-147.618 198,-143 235.644,-105.503 195.605,-65.7274 234,-29 235.648,-27.4234 237.412,-25.9743 239.268,-24.6426"/>
<polygon fill="midnightblue" stroke="midnightblue" points="241.094,-27.6291 247.918,-19.5246 237.53,-21.6046 241.094,-27.6291"/>
</g>
<!-- Node44 -->
<g id="node44" class="node"><title>Node44</title>
<g id="a_node44"><a xlink:href="class_d_r_s_board.xhtml#a650cf228e0fd1b42e1063bce9426e8d9" target="_top" xlink:title="DRSBoard::GetBoardType">
<polygon fill="white" stroke="black" points="239.5,-304.5 239.5,-323.5 372.5,-323.5 372.5,-304.5 239.5,-304.5"/>
<text text-anchor="middle" x="306" y="-311.5" font-family="Helvetica,sans-Serif" font-size="10.00">DRSBoard::GetBoardType</text>
</a>
</g>
</g>
<!-- Node40&#45;&gt;Node44 -->
<g id="edge51" class="edge"><title>Node40&#45;&gt;Node44</title>
<path fill="none" stroke="midnightblue" d="M181.536,-170.233C187.624,-172.883 193.363,-176.382 198,-181 235.644,-218.497 195.605,-258.273 234,-295 235.648,-296.577 237.412,-298.026 239.268,-299.357"/>
<polygon fill="midnightblue" stroke="midnightblue" points="237.53,-302.395 247.918,-304.475 241.094,-296.371 237.53,-302.395"/>
</g>
<!-- Node45 -->
<g id="node45" class="node"><title>Node45</title>
<g id="a_node45"><a xlink:href="struct_x_m_l_node.xhtml#a77a21438b6d48a52cf8a1270f82f4475" target="_top" xlink:title="XMLNode::getChildNode">
<polygon fill="white" stroke="black" points="243.5,-266.5 243.5,-285.5 368.5,-285.5 368.5,-266.5 243.5,-266.5"/>
<text text-anchor="middle" x="306" y="-273.5" font-family="Helvetica,sans-Serif" font-size="10.00">XMLNode::getChildNode</text>
</a>
</g>
</g>
<!-- Node40&#45;&gt;Node45 -->
<g id="edge52" class="edge"><title>Node40&#45;&gt;Node45</title>
<path fill="none" stroke="midnightblue" d="M181.621,-171.078C187.555,-173.612 193.227,-176.854 198,-181 226.218,-205.509 205.292,-233.067 234,-257 236.015,-258.68 238.165,-260.213 240.414,-261.611"/>
<polygon fill="midnightblue" stroke="midnightblue" points="239.028,-264.836 249.512,-266.365 242.27,-258.632 239.028,-264.836"/>
</g>
<!-- Node46 -->
<g id="node46" class="node"><title>Node46</title>
<g id="a_node46"><a xlink:href="struct_x_m_l_node.xhtml#aeb607292b18d4615b7c169c7c08c0a8b" target="_top" xlink:title="XMLNode::getText">
<polygon fill="white" stroke="black" points="256.5,-228.5 256.5,-247.5 355.5,-247.5 355.5,-228.5 256.5,-228.5"/>
<text text-anchor="middle" x="306" y="-235.5" font-family="Helvetica,sans-Serif" font-size="10.00">XMLNode::getText</text>
</a>
</g>
</g>
<!-- Node40&#45;&gt;Node46 -->
<g id="edge53" class="edge"><title>Node40&#45;&gt;Node46</title>
<path fill="none" stroke="midnightblue" d="M177.98,-171.58C184.936,-174.086 191.881,-177.187 198,-181 217.746,-193.302 214.009,-207.1 234,-219 237.93,-221.34 242.151,-223.396 246.506,-225.204"/>
<polygon fill="midnightblue" stroke="midnightblue" points="245.595,-228.598 256.188,-228.775 248.017,-222.031 245.595,-228.598"/>
</g>
<!-- Node47 -->
<g id="node47" class="node"><title>Node47</title>
<g id="a_node47"><a xlink:href="struct_x_m_l_node.xhtml#acc044148e2b9b8264a320b7b6e398158" target="_top" xlink:title="XMLNode::openFileHelper">
<polygon fill="white" stroke="red" points="240.5,-190.5 240.5,-209.5 371.5,-209.5 371.5,-190.5 240.5,-190.5"/>
<text text-anchor="middle" x="306" y="-197.5" font-family="Helvetica,sans-Serif" font-size="10.00">XMLNode::openFileHelper</text>
</a>
</g>
</g>
<!-- Node40&#45;&gt;Node47 -->
<g id="edge54" class="edge"><title>Node40&#45;&gt;Node47</title>
<path fill="none" stroke="midnightblue" d="M179.393,-171.589C201.763,-176.649 229.398,-182.9 253.047,-188.249"/>
<polygon fill="midnightblue" stroke="midnightblue" points="252.386,-191.687 262.911,-190.48 253.93,-184.86 252.386,-191.687"/>
</g>
<!-- Node48 -->
<g id="node48" class="node"><title>Node48</title>
<g id="a_node48"><a xlink:href="class_d_a_q_container.xhtml#a8c2898cebd574164d09a207dbeaf3786" target="_top" xlink:title="DAQContainer::SetChannel0">
<polygon fill="white" stroke="black" points="234.5,-152.5 234.5,-171.5 377.5,-171.5 377.5,-152.5 234.5,-152.5"/>
<text text-anchor="middle" x="306" y="-159.5" font-family="Helvetica,sans-Serif" font-size="10.00">DAQContainer::SetChannel0</text>
</a>
</g>
</g>
<!-- Node40&#45;&gt;Node48 -->
<g id="edge55" class="edge"><title>Node40&#45;&gt;Node48</title>
<path fill="none" stroke="midnightblue" d="M181.58,-162C194.691,-162 209.459,-162 224.101,-162"/>
<polygon fill="midnightblue" stroke="midnightblue" points="224.196,-165.5 234.196,-162 224.196,-158.5 224.196,-165.5"/>
</g>
<!-- Node49 -->
<g id="node49" class="node"><title>Node49</title>
<g id="a_node49"><a xlink:href="class_d_a_q_container.xhtml#ace630af575da2f385f0feb7f0ffb1162" target="_top" xlink:title="DAQContainer::SetChannel1">
<polygon fill="white" stroke="black" points="234.5,-114.5 234.5,-133.5 377.5,-133.5 377.5,-114.5 234.5,-114.5"/>
<text text-anchor="middle" x="306" y="-121.5" font-family="Helvetica,sans-Serif" font-size="10.00">DAQContainer::SetChannel1</text>
</a>
</g>
</g>
<!-- Node40&#45;&gt;Node49 -->
<g id="edge56" class="edge"><title>Node40&#45;&gt;Node49</title>
<path fill="none" stroke="midnightblue" d="M179.393,-152.411C201.763,-147.351 229.398,-141.1 253.047,-135.751"/>
<polygon fill="midnightblue" stroke="midnightblue" points="253.93,-139.14 262.911,-133.52 252.386,-132.313 253.93,-139.14"/>
</g>
</g>
</svg>
        <g id="navigator" transform="translate(0 0)" fill="#404254">
                <rect fill="#f2f5e9" fill-opacity="0.5" stroke="#606060" stroke-width=".5" x="0" y="0" width="60" height="60"/>
                <use id="zoomplus" xlink:href="#zoomPlus" x="17" y="9" onmousedown="handleZoom(evt,'in')"/>
                <use id="zoomminus" xlink:href="#zoomMin" x="42" y="9" onmousedown="handleZoom(evt,'out')"/>
                <use id="reset" xlink:href="#resetDef" x="30" y="36" onmousedown="handleReset()"/>
                <g id="arrowUp" xlink:href="#dirArrow" transform="translate(30 24)" onmousedown="handlePan(0,-1)">
                  <use xlink:href="#rim" fill="#404040">
                        <set attributeName="fill" to="#808080" begin="arrowUp.mouseover" end="arrowUp.mouseout"/>
                  </use>
                  <path fill="none" stroke="white" stroke-width="1.5" d="M0,-3.0v7 M-2.5,-0.5L0,-3.0L2.5,-0.5"/>
                </g>
                <g id="arrowRight" xlink:href="#dirArrow" transform="rotate(90) translate(36 -43)" onmousedown="handlePan(1,0)">
                  <use xlink:href="#rim" fill="#404040">
                        <set attributeName="fill" to="#808080" begin="arrowRight.mouseover" end="arrowRight.mouseout"/>
                  </use>
                  <path fill="none" stroke="white" stroke-width="1.5" d="M0,-3.0v7 M-2.5,-0.5L0,-3.0L2.5,-0.5"/>
                </g>
                <g id="arrowDown" xlink:href="#dirArrow" transform="rotate(180) translate(-30 -48)" onmousedown="handlePan(0,1)">
                  <use xlink:href="#rim" fill="#404040">
                        <set attributeName="fill" to="#808080" begin="arrowDown.mouseover" end="arrowDown.mouseout"/>
                  </use>
                  <path fill="none" stroke="white" stroke-width="1.5" d="M0,-3.0v7 M-2.5,-0.5L0,-3.0L2.5,-0.5"/>
                </g>
                <g id="arrowLeft" xlink:href="#dirArrow" transform="rotate(270) translate(-36 17)" onmousedown="handlePan(-1,0)">
                  <use xlink:href="#rim" fill="#404040">
                        <set attributeName="fill" to="#808080" begin="arrowLeft.mouseover" end="arrowLeft.mouseout"/>
                  </use>
                  <path fill="none" stroke="white" stroke-width="1.5" d="M0,-3.0v7 M-2.5,-0.5L0,-3.0L2.5,-0.5"/>
                </g>
        </g>
        <svg viewBox="0 0 15 15" width="100%" height="30px" preserveAspectRatio="xMaxYMin meet">
         <g id="arrow_out" transform="scale(0.3 0.3)">
          <a xlink:href="mini_d_a_x_8cpp_adedb285b02c41bde2158ded9cc9fd7ac_cgraph_org.svg" target="_base">
           <rect id="button" ry="5" rx="5" y="6" x="6" height="38" width="38"
                fill="#f2f5e9" fill-opacity="0.5" stroke="#606060" stroke-width="1.0"/>
           <path id="arrow"
             d="M 11.500037,31.436501 C 11.940474,20.09759 22.043105,11.32322 32.158766,21.979434 L 37.068811,17.246167 C 37.068811,17.246167 37.088388,32 37.088388,32 L 22.160133,31.978069 C 22.160133,31.978069 26.997745,27.140456 26.997745,27.140456 C 18.528582,18.264221 13.291696,25.230495 11.500037,31.436501 z"
             style="fill:#404040;"/>
          </a>
         </g>
        </svg>
</svg>
