<?xml version="1.0" encoding="UTF-8" standalone="no"?>
<!DOCTYPE svg PUBLIC "-//W3C//DTD SVG 1.1//EN"
 "http://www.w3.org/Graphics/SVG/1.1/DTD/svg11.dtd">
<!-- Generated by graphviz version 2.36.0 (20140111.2315)
 -->
<!-- Title: /data/Software/DAQ/XDAQ/Application/miniDAX.cpp Pages: 1 -->
<svg width="1659pt" height="152pt"
 viewBox="0.00 0.00 1659.00 152.00" xmlns="http://www.w3.org/2000/svg" xmlns:xlink="http://www.w3.org/1999/xlink">
<g id="graph0" class="graph" transform="scale(1 1) rotate(0) translate(4 148)">
<title>/data/Software/DAQ/XDAQ/Application/miniDAX.cpp</title>
<polygon fill="white" stroke="none" points="-4,4 -4,-148 1655,-148 1655,4 -4,4"/>
<!-- Node1 -->
<g id="node1" class="node"><title>Node1</title>
<polygon fill="#bfbfbf" stroke="black" points="798,-113 798,-143 958,-143 958,-113 798,-113"/>
<text text-anchor="start" x="806" y="-131" font-family="Helvetica,sans-Serif" font-size="10.00">/data/Software/DAQ</text>
<text text-anchor="middle" x="878" y="-120" font-family="Helvetica,sans-Serif" font-size="10.00">/XDAQ/Application/miniDAX.cpp</text>
</g>
<!-- Node2 -->
<g id="node2" class="node"><title>Node2</title>
<polygon fill="white" stroke="#bfbfbf" points="0,-56.5 0,-75.5 46,-75.5 46,-56.5 0,-56.5"/>
<text text-anchor="middle" x="23" y="-63.5" font-family="Helvetica,sans-Serif" font-size="10.00">stdio.h</text>
</g>
<!-- Node1&#45;&gt;Node2 -->
<g id="edge1" class="edge"><title>Node1&#45;&gt;Node2</title>
<path fill="none" stroke="midnightblue" d="M797.908,-127.65C651.828,-127.611 332.496,-121.871 56.5002,-75.8899"/>
<polygon fill="midnightblue" stroke="midnightblue" points="56.7313,-72.3795 46.2883,-74.1667 55.5665,-79.2819 56.7313,-72.3795"/>
</g>
<!-- Node3 -->
<g id="node3" class="node"><title>Node3</title>
<polygon fill="white" stroke="#bfbfbf" points="64,-56.5 64,-75.5 112,-75.5 112,-56.5 64,-56.5"/>
<text text-anchor="middle" x="88" y="-63.5" font-family="Helvetica,sans-Serif" font-size="10.00">stdlib.h</text>
</g>
<!-- Node1&#45;&gt;Node3 -->
<g id="edge2" class="edge"><title>Node1&#45;&gt;Node3</title>
<path fill="none" stroke="midnightblue" d="M797.969,-126.615C659.357,-124.834 366.03,-116.149 122,-76 121.898,-75.9833 121.797,-75.9664 121.695,-75.9493"/>
<polygon fill="midnightblue" stroke="midnightblue" points="122.522,-72.5461 112.023,-73.9677 121.117,-79.4037 122.522,-72.5461"/>
</g>
<!-- Node4 -->
<g id="node4" class="node"><title>Node4</title>
<polygon fill="white" stroke="#bfbfbf" points="130.5,-56.5 130.5,-75.5 179.5,-75.5 179.5,-56.5 130.5,-56.5"/>
<text text-anchor="middle" x="155" y="-63.5" font-family="Helvetica,sans-Serif" font-size="10.00">string.h</text>
</g>
<!-- Node1&#45;&gt;Node4 -->
<g id="edge3" class="edge"><title>Node1&#45;&gt;Node4</title>
<path fill="none" stroke="midnightblue" d="M797.856,-125.861C670.677,-122.999 414.879,-112.939 189.785,-75.7968"/>
<polygon fill="midnightblue" stroke="midnightblue" points="190.207,-72.3189 179.767,-74.1222 189.053,-79.2231 190.207,-72.3189"/>
</g>
<!-- Node5 -->
<g id="node5" class="node"><title>Node5</title>
<polygon fill="white" stroke="#bfbfbf" points="198,-56.5 198,-75.5 242,-75.5 242,-56.5 198,-56.5"/>
<text text-anchor="middle" x="220" y="-63.5" font-family="Helvetica,sans-Serif" font-size="10.00">time.h</text>
</g>
<!-- Node1&#45;&gt;Node5 -->
<g id="edge4" class="edge"><title>Node1&#45;&gt;Node5</title>
<path fill="none" stroke="midnightblue" d="M797.815,-125.403C680.041,-121.965 453.438,-111.199 252.122,-75.6184"/>
<polygon fill="midnightblue" stroke="midnightblue" points="252.712,-72.1685 242.252,-73.8502 251.478,-79.0588 252.712,-72.1685"/>
</g>
<!-- Node6 -->
<g id="node6" class="node"><title>Node6</title>
<polygon fill="white" stroke="#bfbfbf" points="260.5,-56.5 260.5,-75.5 307.5,-75.5 307.5,-56.5 260.5,-56.5"/>
<text text-anchor="middle" x="284" y="-63.5" font-family="Helvetica,sans-Serif" font-size="10.00">math.h</text>
</g>
<!-- Node1&#45;&gt;Node6 -->
<g id="edge5" class="edge"><title>Node1&#45;&gt;Node6</title>
<path fill="none" stroke="midnightblue" d="M797.977,-124.144C690.631,-119.328 494.094,-107.064 317.663,-75.787"/>
<polygon fill="midnightblue" stroke="midnightblue" points="318.141,-72.3167 307.679,-73.9926 316.902,-79.2064 318.141,-72.3167"/>
</g>
<!-- Node7 -->
<g id="node7" class="node"><title>Node7</title>
<polygon fill="white" stroke="#bfbfbf" points="326,-56.5 326,-75.5 386,-75.5 386,-56.5 326,-56.5"/>
<text text-anchor="middle" x="356" y="-63.5" font-family="Helvetica,sans-Serif" font-size="10.00">sys/stat.h</text>
</g>
<!-- Node1&#45;&gt;Node7 -->
<g id="edge6" class="edge"><title>Node1&#45;&gt;Node7</title>
<path fill="none" stroke="midnightblue" d="M797.687,-121.524C703.669,-114.437 543.161,-100.238 396.264,-76.0266"/>
<polygon fill="midnightblue" stroke="midnightblue" points="396.601,-72.5344 386.161,-74.3418 395.449,-79.439 396.601,-72.5344"/>
</g>
<!-- Node8 -->
<g id="node8" class="node"><title>Node8</title>
<polygon fill="white" stroke="#bfbfbf" points="404,-56.5 404,-75.5 472,-75.5 472,-56.5 404,-56.5"/>
<text text-anchor="middle" x="438" y="-63.5" font-family="Helvetica,sans-Serif" font-size="10.00">sys/types.h</text>
</g>
<!-- Node1&#45;&gt;Node8 -->
<g id="edge7" class="edge"><title>Node1&#45;&gt;Node8</title>
<path fill="none" stroke="midnightblue" d="M797.885,-118.579C719.784,-109.943 597.462,-95.2879 482.274,-76.1045"/>
<polygon fill="midnightblue" stroke="midnightblue" points="482.663,-72.6209 472.222,-74.4156 481.503,-79.5242 482.663,-72.6209"/>
</g>
<!-- Node9 -->
<g id="node9" class="node"><title>Node9</title>
<polygon fill="white" stroke="#bfbfbf" points="490,-56.5 490,-75.5 540,-75.5 540,-56.5 490,-56.5"/>
<text text-anchor="middle" x="515" y="-63.5" font-family="Helvetica,sans-Serif" font-size="10.00">global.h</text>
</g>
<!-- Node1&#45;&gt;Node9 -->
<g id="edge8" class="edge"><title>Node1&#45;&gt;Node9</title>
<path fill="none" stroke="midnightblue" d="M797.798,-116.964C733.27,-108.337 640.123,-94.6442 550.017,-76.0344"/>
<polygon fill="midnightblue" stroke="midnightblue" points="550.685,-72.5985 540.181,-73.9805 549.254,-79.4507 550.685,-72.5985"/>
</g>
<!-- Node10 -->
<g id="node10" class="node"><title>Node10</title>
<polygon fill="white" stroke="#bfbfbf" points="558,-56.5 558,-75.5 604,-75.5 604,-56.5 558,-56.5"/>
<text text-anchor="middle" x="581" y="-63.5" font-family="Helvetica,sans-Serif" font-size="10.00">keyb.h</text>
</g>
<!-- Node1&#45;&gt;Node10 -->
<g id="edge9" class="edge"><title>Node1&#45;&gt;Node10</title>
<path fill="none" stroke="midnightblue" d="M797.955,-113.159C745.44,-103.679 675.38,-90.2774 614,-76 613.899,-75.9765 613.797,-75.9528 613.696,-75.9291"/>
<polygon fill="midnightblue" stroke="midnightblue" points="614.572,-72.5405 604.023,-73.5169 612.879,-79.3326 614.572,-72.5405"/>
</g>
<!-- Node11 -->
<g id="node11" class="node"><title>Node11</title>
<polygon fill="white" stroke="#bfbfbf" points="622.5,-56.5 622.5,-75.5 707.5,-75.5 707.5,-56.5 622.5,-56.5"/>
<text text-anchor="middle" x="665" y="-63.5" font-family="Helvetica,sans-Serif" font-size="10.00">CAENVMElib.h</text>
</g>
<!-- Node1&#45;&gt;Node11 -->
<g id="edge10" class="edge"><title>Node1&#45;&gt;Node11</title>
<path fill="none" stroke="midnightblue" d="M828.061,-112.933C790.57,-102.372 739.904,-88.0998 705.051,-78.282"/>
<polygon fill="midnightblue" stroke="midnightblue" points="705.794,-74.8553 695.22,-75.5127 703.896,-81.593 705.794,-74.8553"/>
</g>
<!-- Node12 -->
<g id="node12" class="node"><title>Node12</title>
<polygon fill="white" stroke="#bfbfbf" points="726,-56.5 726,-75.5 780,-75.5 780,-56.5 726,-56.5"/>
<text text-anchor="middle" x="753" y="-63.5" font-family="Helvetica,sans-Serif" font-size="10.00">control.h</text>
</g>
<!-- Node1&#45;&gt;Node12 -->
<g id="edge11" class="edge"><title>Node1&#45;&gt;Node12</title>
<path fill="none" stroke="midnightblue" d="M848.693,-112.933C827.981,-102.991 800.417,-89.7601 780.193,-80.0526"/>
<polygon fill="midnightblue" stroke="midnightblue" points="781.447,-76.7721 770.917,-75.6 778.417,-83.0827 781.447,-76.7721"/>
</g>
<!-- Node13 -->
<g id="node13" class="node"><title>Node13</title>
<polygon fill="white" stroke="#bfbfbf" points="798.5,-56.5 798.5,-75.5 839.5,-75.5 839.5,-56.5 798.5,-56.5"/>
<text text-anchor="middle" x="819" y="-63.5" font-family="Helvetica,sans-Serif" font-size="10.00">adc.h</text>
</g>
<!-- Node1&#45;&gt;Node13 -->
<g id="edge12" class="edge"><title>Node1&#45;&gt;Node13</title>
<path fill="none" stroke="midnightblue" d="M864.018,-112.781C855.179,-103.792 843.743,-92.162 834.609,-82.8731"/>
<polygon fill="midnightblue" stroke="midnightblue" points="837.092,-80.4068 827.585,-75.7305 832.101,-85.3148 837.092,-80.4068"/>
</g>
<!-- Node14 -->
<g id="node14" class="node"><title>Node14</title>
<polygon fill="white" stroke="#bfbfbf" points="857.5,-56.5 857.5,-75.5 898.5,-75.5 898.5,-56.5 857.5,-56.5"/>
<text text-anchor="middle" x="878" y="-63.5" font-family="Helvetica,sans-Serif" font-size="10.00">xml.h</text>
</g>
<!-- Node1&#45;&gt;Node14 -->
<g id="edge13" class="edge"><title>Node1&#45;&gt;Node14</title>
<path fill="none" stroke="midnightblue" d="M878,-112.781C878,-104.781 878,-94.6887 878,-86.0168"/>
<polygon fill="midnightblue" stroke="midnightblue" points="881.5,-85.7305 878,-75.7305 874.5,-85.7306 881.5,-85.7305"/>
</g>
<!-- Node15 -->
<g id="node15" class="node"><title>Node15</title>
<g id="a_node15"><a xlink:href="graph_8h.xhtml" target="_top" xlink:title="graph.h">
<polygon fill="white" stroke="black" points="993.5,-56.5 993.5,-75.5 1042.5,-75.5 1042.5,-56.5 993.5,-56.5"/>
<text text-anchor="middle" x="1018" y="-63.5" font-family="Helvetica,sans-Serif" font-size="10.00">graph.h</text>
</a>
</g>
</g>
<!-- Node1&#45;&gt;Node15 -->
<g id="edge14" class="edge"><title>Node1&#45;&gt;Node15</title>
<path fill="none" stroke="midnightblue" d="M910.824,-112.933C934.338,-102.855 965.737,-89.3986 988.466,-79.6575"/>
<polygon fill="midnightblue" stroke="midnightblue" points="990.121,-82.7563 997.933,-75.6 987.363,-76.3223 990.121,-82.7563"/>
</g>
<!-- Node16 -->
<g id="node16" class="node"><title>Node16</title>
<polygon fill="white" stroke="#bfbfbf" points="886.5,-0.5 886.5,-19.5 937.5,-19.5 937.5,-0.5 886.5,-0.5"/>
<text text-anchor="middle" x="912" y="-7.5" font-family="Helvetica,sans-Serif" font-size="10.00">TH1D.h</text>
</g>
<!-- Node1&#45;&gt;Node16 -->
<g id="edge23" class="edge"><title>Node1&#45;&gt;Node16</title>
<path fill="none" stroke="midnightblue" d="M888.471,-112.619C895.016,-102.812 902.947,-89.2462 907,-76 911.61,-60.9325 912.684,-43.0298 912.706,-29.8317"/>
<polygon fill="midnightblue" stroke="midnightblue" points="916.201,-29.5669 912.516,-19.6339 909.203,-29.6975 916.201,-29.5669"/>
</g>
<!-- Node17 -->
<g id="node17" class="node"><title>Node17</title>
<polygon fill="white" stroke="#bfbfbf" points="955.5,-0.5 955.5,-19.5 1034.5,-19.5 1034.5,-0.5 955.5,-0.5"/>
<text text-anchor="middle" x="995" y="-7.5" font-family="Helvetica,sans-Serif" font-size="10.00">TApplication.h</text>
</g>
<!-- Node1&#45;&gt;Node17 -->
<g id="edge21" class="edge"><title>Node1&#45;&gt;Node17</title>
<path fill="none" stroke="midnightblue" d="M892.346,-112.776C914.289,-91.0207 956.047,-49.6197 978.962,-26.9009"/>
<polygon fill="midnightblue" stroke="midnightblue" points="981.581,-29.2331 986.218,-19.707 976.652,-24.2622 981.581,-29.2331"/>
</g>
<!-- Node18 -->
<g id="node18" class="node"><title>Node18</title>
<polygon fill="white" stroke="#bfbfbf" points="1052.5,-0.5 1052.5,-19.5 1117.5,-19.5 1117.5,-0.5 1052.5,-0.5"/>
<text text-anchor="middle" x="1085" y="-7.5" font-family="Helvetica,sans-Serif" font-size="10.00">TCanvas.h</text>
</g>
<!-- Node1&#45;&gt;Node18 -->
<g id="edge22" class="edge"><title>Node1&#45;&gt;Node18</title>
<path fill="none" stroke="midnightblue" d="M958.409,-117.098C989.997,-109.899 1024.87,-97.4679 1051,-76 1065.58,-64.0172 1074.68,-44.1209 1079.75,-29.4914"/>
<polygon fill="midnightblue" stroke="midnightblue" points="1083.22,-30.1383 1082.87,-19.5491 1076.54,-28.043 1083.22,-30.1383"/>
</g>
<!-- Node19 -->
<g id="node19" class="node"><title>Node19</title>
<polygon fill="white" stroke="#bfbfbf" points="1099,-56.5 1099,-75.5 1149,-75.5 1149,-56.5 1099,-56.5"/>
<text text-anchor="middle" x="1124" y="-63.5" font-family="Helvetica,sans-Serif" font-size="10.00">signal.h</text>
</g>
<!-- Node1&#45;&gt;Node19 -->
<g id="edge18" class="edge"><title>Node1&#45;&gt;Node19</title>
<path fill="none" stroke="midnightblue" d="M935.676,-112.933C983.229,-101.334 1049.13,-85.2603 1089.04,-75.5256"/>
<polygon fill="midnightblue" stroke="midnightblue" points="1089.96,-78.9047 1098.85,-73.1347 1088.3,-72.104 1089.96,-78.9047"/>
</g>
<!-- Node20 -->
<g id="node20" class="node"><title>Node20</title>
<polygon fill="white" stroke="#bfbfbf" points="1167,-56.5 1167,-75.5 1219,-75.5 1219,-56.5 1167,-56.5"/>
<text text-anchor="middle" x="1193" y="-63.5" font-family="Helvetica,sans-Serif" font-size="10.00">sstream</text>
</g>
<!-- Node1&#45;&gt;Node20 -->
<g id="edge19" class="edge"><title>Node1&#45;&gt;Node20</title>
<path fill="none" stroke="midnightblue" d="M958.262,-113.949C1011.88,-104.864 1084.19,-91.9154 1156.48,-76.2175"/>
<polygon fill="midnightblue" stroke="midnightblue" points="1157.66,-79.5426 1166.68,-73.9844 1156.16,-72.7046 1157.66,-79.5426"/>
</g>
<!-- Node21 -->
<g id="node21" class="node"><title>Node21</title>
<polygon fill="white" stroke="#bfbfbf" points="1237,-56.5 1237,-75.5 1291,-75.5 1291,-56.5 1237,-56.5"/>
<text text-anchor="middle" x="1264" y="-63.5" font-family="Helvetica,sans-Serif" font-size="10.00">iostream</text>
</g>
<!-- Node1&#45;&gt;Node21 -->
<g id="edge20" class="edge"><title>Node1&#45;&gt;Node21</title>
<path fill="none" stroke="midnightblue" d="M958.319,-117.622C1027.15,-109.052 1129.09,-95.0951 1226.88,-76.0542"/>
<polygon fill="midnightblue" stroke="midnightblue" points="1227.8,-79.4397 1236.94,-74.0744 1226.45,-72.5714 1227.8,-79.4397"/>
</g>
<!-- Node22 -->
<g id="node22" class="node"><title>Node22</title>
<polygon fill="white" stroke="#bfbfbf" points="1309.5,-56.5 1309.5,-75.5 1362.5,-75.5 1362.5,-56.5 1309.5,-56.5"/>
<text text-anchor="middle" x="1336" y="-63.5" font-family="Helvetica,sans-Serif" font-size="10.00">TStyle.h</text>
</g>
<!-- Node1&#45;&gt;Node22 -->
<g id="edge24" class="edge"><title>Node1&#45;&gt;Node22</title>
<path fill="none" stroke="midnightblue" d="M958.173,-120.312C1041.15,-112.709 1174.63,-98.5822 1299.24,-75.9174"/>
<polygon fill="midnightblue" stroke="midnightblue" points="1300.14,-79.3101 1309.34,-74.0572 1298.88,-72.4258 1300.14,-79.3101"/>
</g>
<!-- Node23 -->
<g id="node23" class="node"><title>Node23</title>
<polygon fill="white" stroke="#bfbfbf" points="1380.5,-56.5 1380.5,-75.5 1437.5,-75.5 1437.5,-56.5 1380.5,-56.5"/>
<text text-anchor="middle" x="1409" y="-63.5" font-family="Helvetica,sans-Serif" font-size="10.00">TGraph.h</text>
</g>
<!-- Node1&#45;&gt;Node23 -->
<g id="edge25" class="edge"><title>Node1&#45;&gt;Node23</title>
<path fill="none" stroke="midnightblue" d="M958.269,-121.903C1054.09,-115.098 1219.28,-101.088 1370.51,-75.8591"/>
<polygon fill="midnightblue" stroke="midnightblue" points="1371.17,-79.2969 1380.45,-74.1811 1370,-72.3946 1371.17,-79.2969"/>
</g>
<!-- Node24 -->
<g id="node24" class="node"><title>Node24</title>
<polygon fill="white" stroke="#bfbfbf" points="1456,-56.5 1456,-75.5 1506,-75.5 1506,-56.5 1456,-56.5"/>
<text text-anchor="middle" x="1481" y="-63.5" font-family="Helvetica,sans-Serif" font-size="10.00">TTree.h</text>
</g>
<!-- Node1&#45;&gt;Node24 -->
<g id="edge26" class="edge"><title>Node1&#45;&gt;Node24</title>
<path fill="none" stroke="midnightblue" d="M958.018,-123.906C1068.46,-118.708 1273.54,-105.713 1446,-76 1446.1,-75.9827 1446.2,-75.9652 1446.3,-75.9476"/>
<polygon fill="midnightblue" stroke="midnightblue" points="1446.78,-79.4227 1455.87,-73.9815 1445.37,-72.5659 1446.78,-79.4227"/>
</g>
<!-- Node25 -->
<g id="node25" class="node"><title>Node25</title>
<polygon fill="white" stroke="#bfbfbf" points="1524,-56.5 1524,-75.5 1586,-75.5 1586,-56.5 1524,-56.5"/>
<text text-anchor="middle" x="1555" y="-63.5" font-family="Helvetica,sans-Serif" font-size="10.00">TBranch.h</text>
</g>
<!-- Node1&#45;&gt;Node25 -->
<g id="edge27" class="edge"><title>Node1&#45;&gt;Node25</title>
<path fill="none" stroke="midnightblue" d="M958.112,-124.222C1077.31,-119.283 1308.45,-106.608 1513.58,-76.0147"/>
<polygon fill="midnightblue" stroke="midnightblue" points="1514.27,-79.4501 1523.64,-74.4971 1513.23,-72.5285 1514.27,-79.4501"/>
</g>
<!-- Node26 -->
<g id="node26" class="node"><title>Node26</title>
<polygon fill="white" stroke="#bfbfbf" points="1604.5,-56.5 1604.5,-75.5 1651.5,-75.5 1651.5,-56.5 1604.5,-56.5"/>
<text text-anchor="middle" x="1628" y="-63.5" font-family="Helvetica,sans-Serif" font-size="10.00">TFile.h</text>
</g>
<!-- Node1&#45;&gt;Node26 -->
<g id="edge28" class="edge"><title>Node1&#45;&gt;Node26</title>
<path fill="none" stroke="midnightblue" d="M958.039,-126.183C1090.99,-123.736 1365.35,-114.059 1594,-76 1594.11,-75.9825 1594.21,-75.9647 1594.32,-75.9468"/>
<polygon fill="midnightblue" stroke="midnightblue" points="1595.26,-79.325 1604.35,-73.8684 1593.84,-72.4707 1595.26,-79.325"/>
</g>
<!-- Node15&#45;&gt;Node16 -->
<g id="edge15" class="edge"><title>Node15&#45;&gt;Node16</title>
<path fill="none" stroke="midnightblue" d="M1000.97,-56.324C983.97,-47.6641 957.624,-34.2424 938.007,-24.249"/>
<polygon fill="midnightblue" stroke="midnightblue" points="939.488,-21.0752 928.988,-19.6545 936.31,-27.3125 939.488,-21.0752"/>
</g>
<!-- Node15&#45;&gt;Node17 -->
<g id="edge16" class="edge"><title>Node15&#45;&gt;Node17</title>
<path fill="none" stroke="midnightblue" d="M1014.2,-56.083C1011.09,-48.77 1006.58,-38.1814 1002.71,-29.1034"/>
<polygon fill="midnightblue" stroke="midnightblue" points="1005.87,-27.5798 998.727,-19.7511 999.426,-30.3229 1005.87,-27.5798"/>
</g>
<!-- Node15&#45;&gt;Node18 -->
<g id="edge17" class="edge"><title>Node15&#45;&gt;Node18</title>
<path fill="none" stroke="midnightblue" d="M1028.76,-56.324C1038.77,-48.2631 1053.89,-36.0765 1065.93,-26.3695"/>
<polygon fill="midnightblue" stroke="midnightblue" points="1068.45,-28.8343 1074.04,-19.8339 1064.06,-23.3841 1068.45,-28.8343"/>
</g>
</g>
</svg>
