<?xml version="1.0" encoding="UTF-8" standalone="no"?>
<!DOCTYPE svg PUBLIC "-//W3C//DTD SVG 1.1//EN"
 "http://www.w3.org/Graphics/SVG/1.1/DTD/svg11.dtd">
<!-- Generated by graphviz version 2.36.0 (20140111.2315)
 -->
<!-- Title: musb_write Pages: 1 -->
<svg width="222pt" height="142pt"
 viewBox="0.00 0.00 222.00 142.00" xmlns="http://www.w3.org/2000/svg" xmlns:xlink="http://www.w3.org/1999/xlink">
<g id="graph0" class="graph" transform="scale(1 1) rotate(0) translate(4 138)">
<title>musb_write</title>
<polygon fill="white" stroke="none" points="-4,4 -4,-138 218,-138 218,4 -4,4"/>
<!-- Node1 -->
<g id="node1" class="node"><title>Node1</title>
<polygon fill="#bfbfbf" stroke="black" points="0.5,-57.5 0.5,-76.5 67.5,-76.5 67.5,-57.5 0.5,-57.5"/>
<text text-anchor="middle" x="34" y="-64.5" font-family="Helvetica,sans-Serif" font-size="10.00">musb_write</text>
</g>
<!-- Node2 -->
<g id="node2" class="node"><title>Node2</title>
<g id="a_node2"><a xlink:href="class_d_r_s.xhtml#acf352402176698daf1d3c96fcff8a7d5" target="_top" xlink:title="DRS::DRS">
<polygon fill="white" stroke="black" points="126,-114.5 126,-133.5 192,-133.5 192,-114.5 126,-114.5"/>
<text text-anchor="middle" x="159" y="-121.5" font-family="Helvetica,sans-Serif" font-size="10.00">DRS::DRS</text>
</a>
</g>
</g>
<!-- Node1&#45;&gt;Node2 -->
<g id="edge1" class="edge"><title>Node1&#45;&gt;Node2</title>
<path fill="none" stroke="midnightblue" d="M59.3072,-81.6746C72.3031,-89.188 88.7326,-98.1662 104,-105 111.62,-108.411 120.053,-111.629 127.946,-114.413"/>
<polygon fill="midnightblue" stroke="midnightblue" points="60.9124,-78.5584 50.5167,-76.5141 57.3686,-84.5951 60.9124,-78.5584"/>
</g>
<!-- Node3 -->
<g id="node3" class="node"><title>Node3</title>
<g id="a_node3"><a xlink:href="class_d_r_s_board.xhtml#a42406c827703200089892802f88172b1" target="_top" xlink:title="DRSBoard::InitFPGA">
<polygon fill="white" stroke="black" points="104,-76.5 104,-95.5 214,-95.5 214,-76.5 104,-76.5"/>
<text text-anchor="middle" x="159" y="-83.5" font-family="Helvetica,sans-Serif" font-size="10.00">DRSBoard::InitFPGA</text>
</a>
</g>
</g>
<!-- Node1&#45;&gt;Node3 -->
<g id="edge2" class="edge"><title>Node1&#45;&gt;Node3</title>
<path fill="none" stroke="midnightblue" d="M77.6249,-73.5843C86.0653,-74.8881 95.0308,-76.2731 103.796,-77.627"/>
<polygon fill="midnightblue" stroke="midnightblue" points="78.0559,-70.1095 67.6388,-72.0418 76.9873,-77.0274 78.0559,-70.1095"/>
</g>
<!-- Node4 -->
<g id="node4" class="node"><title>Node4</title>
<g id="a_node4"><a xlink:href="class_d_r_s_board.xhtml#aa02e77fccd230cc6437c3c1978f73b4d" target="_top" xlink:title="DRSBoard::Read">
<polygon fill="white" stroke="black" points="112.5,-38.5 112.5,-57.5 205.5,-57.5 205.5,-38.5 112.5,-38.5"/>
<text text-anchor="middle" x="159" y="-45.5" font-family="Helvetica,sans-Serif" font-size="10.00">DRSBoard::Read</text>
</a>
</g>
</g>
<!-- Node1&#45;&gt;Node4 -->
<g id="edge3" class="edge"><title>Node1&#45;&gt;Node4</title>
<path fill="none" stroke="midnightblue" d="M77.6035,-60.419C88.7895,-58.691 100.899,-56.8204 112.243,-55.0681"/>
<polygon fill="midnightblue" stroke="midnightblue" points="76.9873,-56.9726 67.6388,-61.9582 78.0559,-63.8905 76.9873,-56.9726"/>
</g>
<!-- Node5 -->
<g id="node5" class="node"><title>Node5</title>
<g id="a_node5"><a xlink:href="class_d_r_s_board.xhtml#af018974f1eba4c58a9e2571db12ffea4" target="_top" xlink:title="DRSBoard::Write">
<polygon fill="white" stroke="black" points="112.5,-0.5 112.5,-19.5 205.5,-19.5 205.5,-0.5 112.5,-0.5"/>
<text text-anchor="middle" x="159" y="-7.5" font-family="Helvetica,sans-Serif" font-size="10.00">DRSBoard::Write</text>
</a>
</g>
</g>
<!-- Node1&#45;&gt;Node5 -->
<g id="edge4" class="edge"><title>Node1&#45;&gt;Node5</title>
<path fill="none" stroke="midnightblue" d="M59.3072,-52.3254C72.3031,-44.812 88.7326,-35.8338 104,-29 111.62,-25.5894 120.053,-22.3713 127.946,-19.5866"/>
<polygon fill="midnightblue" stroke="midnightblue" points="57.3686,-49.4049 50.5167,-57.4859 60.9124,-55.4416 57.3686,-49.4049"/>
</g>
</g>
</svg>
