<?xml version="1.0" encoding="UTF-8" standalone="no"?>
<!DOCTYPE svg PUBLIC "-//W3C//DTD SVG 1.1//EN"
 "http://www.w3.org/Graphics/SVG/1.1/DTD/svg11.dtd">
<!-- Generated by graphviz version 2.36.0 (20140111.2315)
 -->
<!-- Title: /data/Software/DAQ/PDAQ/Core/Source/musbstd.c Pages: 1 -->
<svg width="204pt" height="96pt"
 viewBox="0.00 0.00 204.00 96.00" xmlns="http://www.w3.org/2000/svg" xmlns:xlink="http://www.w3.org/1999/xlink">
<g id="graph0" class="graph" transform="scale(1 1) rotate(0) translate(4 92)">
<title>/data/Software/DAQ/PDAQ/Core/Source/musbstd.c</title>
<polygon fill="white" stroke="none" points="-4,4 -4,-92 200,-92 200,4 -4,4"/>
<!-- Node1 -->
<g id="node1" class="node"><title>Node1</title>
<polygon fill="#bfbfbf" stroke="black" points="12.5,-57 12.5,-87 167.5,-87 167.5,-57 12.5,-57"/>
<text text-anchor="start" x="20.5" y="-75" font-family="Helvetica,sans-Serif" font-size="10.00">/data/Software/DAQ</text>
<text text-anchor="middle" x="90" y="-64" font-family="Helvetica,sans-Serif" font-size="10.00">/PDAQ/Core/Source/musbstd.c</text>
</g>
<!-- Node2 -->
<g id="node2" class="node"><title>Node2</title>
<polygon fill="white" stroke="#bfbfbf" points="0,-0.5 0,-19.5 46,-19.5 46,-0.5 0,-0.5"/>
<text text-anchor="middle" x="23" y="-7.5" font-family="Helvetica,sans-Serif" font-size="10.00">stdio.h</text>
</g>
<!-- Node1&#45;&gt;Node2 -->
<g id="edge1" class="edge"><title>Node1&#45;&gt;Node2</title>
<path fill="none" stroke="midnightblue" d="M74.1219,-56.7808C63.9846,-47.7026 50.8375,-35.9291 40.4146,-26.5951"/>
<polygon fill="midnightblue" stroke="midnightblue" points="42.5336,-23.7944 32.7491,-19.7305 37.8637,-29.0091 42.5336,-23.7944"/>
</g>
<!-- Node3 -->
<g id="node3" class="node"><title>Node3</title>
<polygon fill="white" stroke="#bfbfbf" points="64,-0.5 64,-19.5 116,-19.5 116,-0.5 64,-0.5"/>
<text text-anchor="middle" x="90" y="-7.5" font-family="Helvetica,sans-Serif" font-size="10.00">assert.h</text>
</g>
<!-- Node1&#45;&gt;Node3 -->
<g id="edge2" class="edge"><title>Node1&#45;&gt;Node3</title>
<path fill="none" stroke="midnightblue" d="M90,-56.7808C90,-48.7812 90,-38.6887 90,-30.0168"/>
<polygon fill="midnightblue" stroke="midnightblue" points="93.5001,-29.7305 90,-19.7305 86.5001,-29.7306 93.5001,-29.7305"/>
</g>
<!-- Node4 -->
<g id="node4" class="node"><title>Node4</title>
<g id="a_node4"><a xlink:href="musbstd_8h.xhtml" target="_top" xlink:title="musbstd.h">
<polygon fill="white" stroke="black" points="134,-0.5 134,-19.5 196,-19.5 196,-0.5 134,-0.5"/>
<text text-anchor="middle" x="165" y="-7.5" font-family="Helvetica,sans-Serif" font-size="10.00">musbstd.h</text>
</a>
</g>
</g>
<!-- Node1&#45;&gt;Node4 -->
<g id="edge3" class="edge"><title>Node1&#45;&gt;Node4</title>
<path fill="none" stroke="midnightblue" d="M107.774,-56.7808C119.346,-47.5228 134.423,-35.4618 146.196,-26.0435"/>
<polygon fill="midnightblue" stroke="midnightblue" points="148.465,-28.7106 154.087,-19.7305 144.092,-23.2445 148.465,-28.7106"/>
</g>
</g>
</svg>
