<?xml version="1.0" encoding="UTF-8" standalone="no"?>
<!DOCTYPE svg PUBLIC "-//W3C//DTD SVG 1.1//EN"
 "http://www.w3.org/Graphics/SVG/1.1/DTD/svg11.dtd">
<!-- Generated by graphviz version 2.36.0 (20140111.2315)
 -->
<!-- Title: musb_read Pages: 1 -->
<svg width="204pt" height="104pt"
 viewBox="0.00 0.00 204.00 104.00" xmlns="http://www.w3.org/2000/svg" xmlns:xlink="http://www.w3.org/1999/xlink">
<g id="graph0" class="graph" transform="scale(1 1) rotate(0) translate(4 100)">
<title>musb_read</title>
<polygon fill="white" stroke="none" points="-4,4 -4,-100 200,-100 200,4 -4,4"/>
<!-- Node1 -->
<g id="node1" class="node"><title>Node1</title>
<polygon fill="#bfbfbf" stroke="black" points="0.5,-38.5 0.5,-57.5 65.5,-57.5 65.5,-38.5 0.5,-38.5"/>
<text text-anchor="middle" x="33" y="-45.5" font-family="Helvetica,sans-Serif" font-size="10.00">musb_read</text>
</g>
<!-- Node2 -->
<g id="node2" class="node"><title>Node2</title>
<g id="a_node2"><a xlink:href="class_d_r_s.xhtml#acf352402176698daf1d3c96fcff8a7d5" target="_top" xlink:title="DRS::DRS">
<polygon fill="white" stroke="black" points="116,-76.5 116,-95.5 182,-95.5 182,-76.5 116,-76.5"/>
<text text-anchor="middle" x="149" y="-83.5" font-family="Helvetica,sans-Serif" font-size="10.00">DRS::DRS</text>
</a>
</g>
</g>
<!-- Node1&#45;&gt;Node2 -->
<g id="edge1" class="edge"><title>Node1&#45;&gt;Node2</title>
<path fill="none" stroke="midnightblue" d="M72.4778,-60.8259C87.7742,-65.9247 105.067,-71.6891 119.242,-76.4141"/>
<polygon fill="midnightblue" stroke="midnightblue" points="73.3607,-57.431 62.767,-57.589 71.147,-64.0717 73.3607,-57.431"/>
</g>
<!-- Node3 -->
<g id="node3" class="node"><title>Node3</title>
<g id="a_node3"><a xlink:href="class_d_r_s_board.xhtml#aa02e77fccd230cc6437c3c1978f73b4d" target="_top" xlink:title="DRSBoard::Read">
<polygon fill="white" stroke="black" points="102.5,-38.5 102.5,-57.5 195.5,-57.5 195.5,-38.5 102.5,-38.5"/>
<text text-anchor="middle" x="149" y="-45.5" font-family="Helvetica,sans-Serif" font-size="10.00">DRSBoard::Read</text>
</a>
</g>
</g>
<!-- Node1&#45;&gt;Node3 -->
<g id="edge2" class="edge"><title>Node1&#45;&gt;Node3</title>
<path fill="none" stroke="midnightblue" d="M75.9423,-48C84.5415,-48 93.6333,-48 102.355,-48"/>
<polygon fill="midnightblue" stroke="midnightblue" points="75.7554,-44.5001 65.7554,-48 75.7553,-51.5001 75.7554,-44.5001"/>
</g>
<!-- Node4 -->
<g id="node4" class="node"><title>Node4</title>
<g id="a_node4"><a xlink:href="class_d_r_s_board.xhtml#af018974f1eba4c58a9e2571db12ffea4" target="_top" xlink:title="DRSBoard::Write">
<polygon fill="white" stroke="black" points="102.5,-0.5 102.5,-19.5 195.5,-19.5 195.5,-0.5 102.5,-0.5"/>
<text text-anchor="middle" x="149" y="-7.5" font-family="Helvetica,sans-Serif" font-size="10.00">DRSBoard::Write</text>
</a>
</g>
</g>
<!-- Node1&#45;&gt;Node4 -->
<g id="edge3" class="edge"><title>Node1&#45;&gt;Node4</title>
<path fill="none" stroke="midnightblue" d="M72.4778,-35.1741C87.7742,-30.0753 105.067,-24.3109 119.242,-19.5859"/>
<polygon fill="midnightblue" stroke="midnightblue" points="71.147,-31.9283 62.767,-38.411 73.3607,-38.569 71.147,-31.9283"/>
</g>
</g>
</svg>
