<?xml version="1.0" encoding="UTF-8" standalone="no"?>
<!DOCTYPE svg PUBLIC "-//W3C//DTD SVG 1.1//EN"
 "http://www.w3.org/Graphics/SVG/1.1/DTD/svg11.dtd">
<!-- Generated by graphviz version 2.36.0 (20140111.2315)
 -->
<!-- Title: musb_reset Pages: 1 -->
<svg width="342pt" height="66pt"
 viewBox="0.00 0.00 342.00 66.00" xmlns="http://www.w3.org/2000/svg" xmlns:xlink="http://www.w3.org/1999/xlink">
<g id="graph0" class="graph" transform="scale(1 1) rotate(0) translate(4 62)">
<title>musb_reset</title>
<polygon fill="white" stroke="none" points="-4,4 -4,-62 338,-62 338,4 -4,4"/>
<!-- Node1 -->
<g id="node1" class="node"><title>Node1</title>
<polygon fill="#bfbfbf" stroke="black" points="0,-19.5 0,-38.5 68,-38.5 68,-19.5 0,-19.5"/>
<text text-anchor="middle" x="34" y="-26.5" font-family="Helvetica,sans-Serif" font-size="10.00">musb_reset</text>
</g>
<!-- Node2 -->
<g id="node2" class="node"><title>Node2</title>
<g id="a_node2"><a xlink:href="musbstd_8c.xhtml#a95a69ccb3dedc1a4533f6750b2d495cd" target="_top" xlink:title="musb_close">
<polygon fill="white" stroke="black" points="104.5,-19.5 104.5,-38.5 173.5,-38.5 173.5,-19.5 104.5,-19.5"/>
<text text-anchor="middle" x="139" y="-26.5" font-family="Helvetica,sans-Serif" font-size="10.00">musb_close</text>
</a>
</g>
</g>
<!-- Node1&#45;&gt;Node2 -->
<g id="edge1" class="edge"><title>Node1&#45;&gt;Node2</title>
<path fill="none" stroke="midnightblue" d="M78.4391,-29C87.0489,-29 95.9669,-29 104.198,-29"/>
<polygon fill="midnightblue" stroke="midnightblue" points="78.1568,-25.5001 68.1568,-29 78.1568,-32.5001 78.1568,-25.5001"/>
</g>
<!-- Node3 -->
<g id="node3" class="node"><title>Node3</title>
<g id="a_node3"><a xlink:href="class_d_r_s.xhtml#acf352402176698daf1d3c96fcff8a7d5" target="_top" xlink:title="DRS::DRS">
<polygon fill="white" stroke="black" points="239,-38.5 239,-57.5 305,-57.5 305,-38.5 239,-38.5"/>
<text text-anchor="middle" x="272" y="-45.5" font-family="Helvetica,sans-Serif" font-size="10.00">DRS::DRS</text>
</a>
</g>
</g>
<!-- Node2&#45;&gt;Node3 -->
<g id="edge2" class="edge"><title>Node2&#45;&gt;Node3</title>
<path fill="none" stroke="midnightblue" d="M183.709,-35.3395C201.692,-37.9476 222.147,-40.9144 238.734,-43.3201"/>
<polygon fill="midnightblue" stroke="midnightblue" points="184.135,-31.8647 173.736,-33.893 183.13,-38.7922 184.135,-31.8647"/>
</g>
<!-- Node4 -->
<g id="node4" class="node"><title>Node4</title>
<g id="a_node4"><a xlink:href="class_d_r_s_board.xhtml#a3a166afbfc6e2111acfc1c06d41b918f" target="_top" xlink:title="DRSBoard::~DRSBoard">
<polygon fill="white" stroke="black" points="210.5,-0.5 210.5,-19.5 333.5,-19.5 333.5,-0.5 210.5,-0.5"/>
<text text-anchor="middle" x="272" y="-7.5" font-family="Helvetica,sans-Serif" font-size="10.00">DRSBoard::~DRSBoard</text>
</a>
</g>
</g>
<!-- Node2&#45;&gt;Node4 -->
<g id="edge3" class="edge"><title>Node2&#45;&gt;Node4</title>
<path fill="none" stroke="midnightblue" d="M183.831,-22.6428C192.37,-21.4044 201.463,-20.0856 210.431,-18.7848"/>
<polygon fill="midnightblue" stroke="midnightblue" points="183.13,-19.2078 173.736,-24.107 184.135,-26.1353 183.13,-19.2078"/>
</g>
</g>
</svg>
