<?xml version="1.0" encoding="UTF-8" standalone="no"?>
<!DOCTYPE svg PUBLIC "-//W3C//DTD SVG 1.1//EN"
 "http://www.w3.org/Graphics/SVG/1.1/DTD/svg11.dtd">
<!-- Generated by graphviz version 2.36.0 (20140111.2315)
 -->
<!-- Title: musb_close Pages: 1 -->
<svg width="238pt" height="66pt"
 viewBox="0.00 0.00 238.00 66.00" xmlns="http://www.w3.org/2000/svg" xmlns:xlink="http://www.w3.org/1999/xlink">
<g id="graph0" class="graph" transform="scale(1 1) rotate(0) translate(4 62)">
<title>musb_close</title>
<polygon fill="white" stroke="none" points="-4,4 -4,-62 234,-62 234,4 -4,4"/>
<!-- Node1 -->
<g id="node1" class="node"><title>Node1</title>
<polygon fill="#bfbfbf" stroke="black" points="0.5,-19.5 0.5,-38.5 69.5,-38.5 69.5,-19.5 0.5,-19.5"/>
<text text-anchor="middle" x="35" y="-26.5" font-family="Helvetica,sans-Serif" font-size="10.00">musb_close</text>
</g>
<!-- Node2 -->
<g id="node2" class="node"><title>Node2</title>
<g id="a_node2"><a xlink:href="class_d_r_s.xhtml#acf352402176698daf1d3c96fcff8a7d5" target="_top" xlink:title="DRS::DRS">
<polygon fill="white" stroke="black" points="135,-38.5 135,-57.5 201,-57.5 201,-38.5 135,-38.5"/>
<text text-anchor="middle" x="168" y="-45.5" font-family="Helvetica,sans-Serif" font-size="10.00">DRS::DRS</text>
</a>
</g>
</g>
<!-- Node1&#45;&gt;Node2 -->
<g id="edge1" class="edge"><title>Node1&#45;&gt;Node2</title>
<path fill="none" stroke="midnightblue" d="M79.7094,-35.3395C97.6916,-37.9476 118.147,-40.9144 134.734,-43.3201"/>
<polygon fill="midnightblue" stroke="midnightblue" points="80.1346,-31.8647 69.7358,-33.893 79.1298,-38.7922 80.1346,-31.8647"/>
</g>
<!-- Node3 -->
<g id="node3" class="node"><title>Node3</title>
<g id="a_node3"><a xlink:href="class_d_r_s_board.xhtml#a3a166afbfc6e2111acfc1c06d41b918f" target="_top" xlink:title="DRSBoard::~DRSBoard">
<polygon fill="white" stroke="black" points="106.5,-0.5 106.5,-19.5 229.5,-19.5 229.5,-0.5 106.5,-0.5"/>
<text text-anchor="middle" x="168" y="-7.5" font-family="Helvetica,sans-Serif" font-size="10.00">DRSBoard::~DRSBoard</text>
</a>
</g>
</g>
<!-- Node1&#45;&gt;Node3 -->
<g id="edge2" class="edge"><title>Node1&#45;&gt;Node3</title>
<path fill="none" stroke="midnightblue" d="M79.8311,-22.6428C88.37,-21.4044 97.4626,-20.0856 106.431,-18.7848"/>
<polygon fill="midnightblue" stroke="midnightblue" points="79.1298,-19.2078 69.7358,-24.107 80.1346,-26.1353 79.1298,-19.2078"/>
</g>
</g>
</svg>
