<?xml version="1.0" encoding="UTF-8" standalone="no"?>
<!DOCTYPE svg PUBLIC "-//W3C//DTD SVG 1.1//EN"
 "http://www.w3.org/Graphics/SVG/1.1/DTD/svg11.dtd">
<!-- Generated by graphviz version 2.36.0 (20140111.2315)
 -->
<!-- Title: mxml_end_element Pages: 1 -->
<svg width="380pt" height="142pt"
 viewBox="0.00 0.00 380.00 142.00" xmlns="http://www.w3.org/2000/svg" xmlns:xlink="http://www.w3.org/1999/xlink">
<g id="graph0" class="graph" transform="scale(1 1) rotate(0) translate(4 138)">
<title>mxml_end_element</title>
<polygon fill="white" stroke="none" points="-4,4 -4,-138 376,-138 376,4 -4,4"/>
<!-- Node1 -->
<g id="node1" class="node"><title>Node1</title>
<polygon fill="#bfbfbf" stroke="black" points="0.5,-57.5 0.5,-76.5 101.5,-76.5 101.5,-57.5 0.5,-57.5"/>
<text text-anchor="middle" x="51" y="-64.5" font-family="Helvetica,sans-Serif" font-size="10.00">mxml_end_element</text>
</g>
<!-- Node2 -->
<g id="node2" class="node"><title>Node2</title>
<g id="a_node2"><a xlink:href="mxml_8c.xhtml#aa17f561601949f624351a45b2b3a7678" target="_top" xlink:title="mxml_close_buffer">
<polygon fill="white" stroke="black" points="142.5,-114.5 142.5,-133.5 241.5,-133.5 241.5,-114.5 142.5,-114.5"/>
<text text-anchor="middle" x="192" y="-121.5" font-family="Helvetica,sans-Serif" font-size="10.00">mxml_close_buffer</text>
</a>
</g>
</g>
<!-- Node1&#45;&gt;Node2 -->
<g id="edge1" class="edge"><title>Node1&#45;&gt;Node2</title>
<path fill="none" stroke="midnightblue" d="M81.8033,-80.8003C98.2538,-88.2575 119.12,-97.4561 138,-105 146.079,-108.228 154.946,-111.508 163.077,-114.414"/>
<polygon fill="midnightblue" stroke="midnightblue" points="83.2268,-77.6027 72.6761,-76.6365 80.3214,-83.9713 83.2268,-77.6027"/>
</g>
<!-- Node3 -->
<g id="node3" class="node"><title>Node3</title>
<g id="a_node3"><a xlink:href="mxml_8c.xhtml#a7409705a71ea5d17f3746cd1c49c3b00" target="_top" xlink:title="mxml_close_file">
<polygon fill="white" stroke="black" points="148.5,-76.5 148.5,-95.5 235.5,-95.5 235.5,-76.5 148.5,-76.5"/>
<text text-anchor="middle" x="192" y="-83.5" font-family="Helvetica,sans-Serif" font-size="10.00">mxml_close_file</text>
</a>
</g>
</g>
<!-- Node1&#45;&gt;Node3 -->
<g id="edge2" class="edge"><title>Node1&#45;&gt;Node3</title>
<path fill="none" stroke="midnightblue" d="M111.974,-75.1978C124.252,-76.8761 136.934,-78.6097 148.448,-80.1836"/>
<polygon fill="midnightblue" stroke="midnightblue" points="112.171,-71.6924 101.79,-73.8058 111.223,-78.6279 112.171,-71.6924"/>
</g>
<!-- Node5 -->
<g id="node5" class="node"><title>Node5</title>
<g id="a_node5"><a xlink:href="mxml_8c.xhtml#ac6ccd07b846150067db07ed7086cf7e1" target="_top" xlink:title="mxml_write_element">
<polygon fill="white" stroke="black" points="138.5,-38.5 138.5,-57.5 245.5,-57.5 245.5,-38.5 138.5,-38.5"/>
<text text-anchor="middle" x="192" y="-45.5" font-family="Helvetica,sans-Serif" font-size="10.00">mxml_write_element</text>
</a>
</g>
</g>
<!-- Node1&#45;&gt;Node5 -->
<g id="edge4" class="edge"><title>Node1&#45;&gt;Node5</title>
<path fill="none" stroke="midnightblue" d="M111.943,-58.8063C120.703,-57.6089 129.669,-56.3834 138.27,-55.2076"/>
<polygon fill="midnightblue" stroke="midnightblue" points="111.223,-55.3721 101.79,-60.1942 112.171,-62.3076 111.223,-55.3721"/>
</g>
<!-- Node6 -->
<g id="node6" class="node"><title>Node6</title>
<g id="a_node6"><a xlink:href="mxml_8c.xhtml#aad3952c0c32fc16aa78fde6faa7bd002" target="_top" xlink:title="mxml_write_subtree">
<polygon fill="white" stroke="black" points="140,-0.5 140,-19.5 244,-19.5 244,-0.5 140,-0.5"/>
<text text-anchor="middle" x="192" y="-7.5" font-family="Helvetica,sans-Serif" font-size="10.00">mxml_write_subtree</text>
</a>
</g>
</g>
<!-- Node1&#45;&gt;Node6 -->
<g id="edge5" class="edge"><title>Node1&#45;&gt;Node6</title>
<path fill="none" stroke="midnightblue" d="M81.8033,-53.1997C98.2538,-45.7425 119.12,-36.5439 138,-29 146.079,-25.772 154.946,-22.4921 163.077,-19.5864"/>
<polygon fill="midnightblue" stroke="midnightblue" points="80.3214,-50.0287 72.6761,-57.3635 83.2268,-56.3973 80.3214,-50.0287"/>
</g>
<!-- Node4 -->
<g id="node4" class="node"><title>Node4</title>
<g id="a_node4"><a xlink:href="mxml_8c.xhtml#a6dc934e8374543e6070804f8a5822f5f" target="_top" xlink:title="mxml_write_tree">
<polygon fill="white" stroke="black" points="282.5,-38.5 282.5,-57.5 371.5,-57.5 371.5,-38.5 282.5,-38.5"/>
<text text-anchor="middle" x="327" y="-45.5" font-family="Helvetica,sans-Serif" font-size="10.00">mxml_write_tree</text>
</a>
</g>
</g>
<!-- Node3&#45;&gt;Node4 -->
<g id="edge3" class="edge"><title>Node3&#45;&gt;Node4</title>
<path fill="none" stroke="midnightblue" d="M236.367,-73.6094C254.581,-68.4055 275.439,-62.4459 292.449,-57.5859"/>
<polygon fill="midnightblue" stroke="midnightblue" points="235.215,-70.2984 226.562,-76.411 237.138,-77.029 235.215,-70.2984"/>
</g>
<!-- Node6&#45;&gt;Node4 -->
<g id="edge6" class="edge"><title>Node6&#45;&gt;Node4</title>
<path fill="none" stroke="midnightblue" d="M236.367,-22.3906C254.581,-27.5945 275.439,-33.5541 292.449,-38.4141"/>
<polygon fill="midnightblue" stroke="midnightblue" points="237.138,-18.971 226.562,-19.589 235.215,-25.7016 237.138,-18.971"/>
</g>
</g>
</svg>
