<?xml version="1.0" encoding="UTF-8" standalone="no"?>
<!DOCTYPE svg PUBLIC "-//W3C//DTD SVG 1.1//EN"
 "http://www.w3.org/Graphics/SVG/1.1/DTD/svg11.dtd">
<!-- Generated by graphviz version 2.36.0 (20140111.2315)
 -->
<!-- Title: mxml_subnode Pages: 1 -->
<svg width="484pt" height="123pt"
 viewBox="0.00 0.00 484.00 123.00" xmlns="http://www.w3.org/2000/svg" xmlns:xlink="http://www.w3.org/1999/xlink">
<g id="graph0" class="graph" transform="scale(1 1) rotate(0) translate(4 119)">
<title>mxml_subnode</title>
<polygon fill="white" stroke="none" points="-4,4 -4,-119 480,-119 480,4 -4,4"/>
<!-- Node1 -->
<g id="node1" class="node"><title>Node1</title>
<polygon fill="#bfbfbf" stroke="black" points="0.5,-38.5 0.5,-57.5 83.5,-57.5 83.5,-38.5 0.5,-38.5"/>
<text text-anchor="middle" x="42" y="-45.5" font-family="Helvetica,sans-Serif" font-size="10.00">mxml_subnode</text>
</g>
<!-- Node2 -->
<g id="node2" class="node"><title>Node2</title>
<g id="a_node2"><a xlink:href="mxml_8c.xhtml#ab4b547074c15b19eae1b6f16050c75d9" target="_top" xlink:title="mxml_find_nodes1">
<polygon fill="white" stroke="black" points="120,-38.5 120,-57.5 218,-57.5 218,-38.5 120,-38.5"/>
<text text-anchor="middle" x="169" y="-45.5" font-family="Helvetica,sans-Serif" font-size="10.00">mxml_find_nodes1</text>
</a>
</g>
</g>
<!-- Node1&#45;&gt;Node2 -->
<g id="edge1" class="edge"><title>Node1&#45;&gt;Node2</title>
<path fill="none" stroke="midnightblue" d="M83.5839,-48C91.8845,-48 100.775,-48 109.559,-48"/>
<polygon fill="midnightblue" stroke="midnightblue" points="109.779,-51.5001 119.779,-48 109.779,-44.5001 109.779,-51.5001"/>
</g>
<!-- Node3 -->
<g id="node3" class="node"><title>Node3</title>
<g id="a_node3"><a xlink:href="strlcpy_8h.xhtml#af8c865b1f481801d8d1f0a8644be4bbc" target="_top" xlink:title="strlcpy">
<polygon fill="white" stroke="black" points="287,-95.5 287,-114.5 333,-114.5 333,-95.5 287,-95.5"/>
<text text-anchor="middle" x="310" y="-102.5" font-family="Helvetica,sans-Serif" font-size="10.00">strlcpy</text>
</a>
</g>
</g>
<!-- Node2&#45;&gt;Node3 -->
<g id="edge2" class="edge"><title>Node2&#45;&gt;Node3</title>
<path fill="none" stroke="midnightblue" d="M189.805,-57.5839C206.687,-65.6024 231.692,-77.1229 254,-86 261.44,-88.9607 269.546,-91.9095 277.192,-94.57"/>
<polygon fill="midnightblue" stroke="midnightblue" points="276.289,-97.96 286.883,-97.878 278.55,-91.3353 276.289,-97.96"/>
</g>
<!-- Node4 -->
<g id="node4" class="node"><title>Node4</title>
<g id="a_node4"><a xlink:href="mxml_8c.xhtml#afaf8076733bb1e0a00b2f3248d180bbd" target="_top" xlink:title="mxml_get_attribute">
<polygon fill="white" stroke="black" points="260,-57.5 260,-76.5 360,-76.5 360,-57.5 260,-57.5"/>
<text text-anchor="middle" x="310" y="-64.5" font-family="Helvetica,sans-Serif" font-size="10.00">mxml_get_attribute</text>
</a>
</g>
</g>
<!-- Node2&#45;&gt;Node4 -->
<g id="edge3" class="edge"><title>Node2&#45;&gt;Node4</title>
<path fill="none" stroke="midnightblue" d="M218.225,-54.592C228.446,-55.989 239.345,-57.4789 249.916,-58.9238"/>
<polygon fill="midnightblue" stroke="midnightblue" points="249.536,-62.4042 259.917,-60.2909 250.484,-55.4687 249.536,-62.4042"/>
</g>
<!-- Node5 -->
<g id="node5" class="node"><title>Node5</title>
<g id="a_node5"><a xlink:href="mxml_8c.xhtml#a6bcd06b8ff582dece9ba510e161284d5" target="_top" xlink:title="mxml_add_resultnode">
<polygon fill="white" stroke="black" points="254,-19.5 254,-38.5 366,-38.5 366,-19.5 254,-19.5"/>
<text text-anchor="middle" x="310" y="-26.5" font-family="Helvetica,sans-Serif" font-size="10.00">mxml_add_resultnode</text>
</a>
</g>
</g>
<!-- Node2&#45;&gt;Node5 -->
<g id="edge4" class="edge"><title>Node2&#45;&gt;Node5</title>
<path fill="none" stroke="midnightblue" d="M198.801,-38.4705C211.847,-35.8429 227.847,-33.2735 243.569,-31.2041"/>
<polygon fill="midnightblue" stroke="midnightblue" points="244.338,-34.6352 253.826,-29.9208 243.469,-27.6894 244.338,-34.6352"/>
</g>
<!-- Node5&#45;&gt;Node2 -->
<g id="edge7" class="edge"><title>Node5&#45;&gt;Node2</title>
<path fill="none" stroke="midnightblue" d="M280.31,-38.5072C265.279,-41.5387 246.306,-44.4944 228.351,-46.6961"/>
<polygon fill="midnightblue" stroke="midnightblue" points="227.756,-43.2415 218.225,-47.8687 228.562,-50.1951 227.756,-43.2415"/>
</g>
<!-- Node6 -->
<g id="node6" class="node"><title>Node6</title>
<g id="a_node6"><a xlink:href="mxml_8c.xhtml#a4b4f0fef6a18999e79e85a0bff15f122" target="_top" xlink:title="mxml_malloc">
<polygon fill="white" stroke="black" points="402,-38.5 402,-57.5 476,-57.5 476,-38.5 402,-38.5"/>
<text text-anchor="middle" x="439" y="-45.5" font-family="Helvetica,sans-Serif" font-size="10.00">mxml_malloc</text>
</a>
</g>
</g>
<!-- Node5&#45;&gt;Node6 -->
<g id="edge5" class="edge"><title>Node5&#45;&gt;Node6</title>
<path fill="none" stroke="midnightblue" d="M366.335,-37.2784C374.888,-38.5581 383.643,-39.8679 391.964,-41.1128"/>
<polygon fill="midnightblue" stroke="midnightblue" points="391.449,-44.5745 401.856,-42.5927 392.484,-37.6515 391.449,-44.5745"/>
</g>
<!-- Node7 -->
<g id="node7" class="node"><title>Node7</title>
<g id="a_node7"><a xlink:href="mxml_8c.xhtml#a2bbe1e8a7d3c830714bdfa50d3658ef8" target="_top" xlink:title="mxml_realloc">
<polygon fill="white" stroke="black" points="402,-0.5 402,-19.5 476,-19.5 476,-0.5 402,-0.5"/>
<text text-anchor="middle" x="439" y="-7.5" font-family="Helvetica,sans-Serif" font-size="10.00">mxml_realloc</text>
</a>
</g>
</g>
<!-- Node5&#45;&gt;Node7 -->
<g id="edge6" class="edge"><title>Node5&#45;&gt;Node7</title>
<path fill="none" stroke="midnightblue" d="M366.335,-20.7216C374.888,-19.4419 383.643,-18.1321 391.964,-16.8872"/>
<polygon fill="midnightblue" stroke="midnightblue" points="392.484,-20.3485 401.856,-15.4073 391.449,-13.4255 392.484,-20.3485"/>
</g>
</g>
</svg>
