<?xml version="1.0" encoding="UTF-8" standalone="no"?>
<!DOCTYPE svg PUBLIC "-//W3C//DTD SVG 1.1//EN"
 "http://www.w3.org/Graphics/SVG/1.1/DTD/svg11.dtd">
<!-- Generated by graphviz version 2.36.0 (20140111.2315)
 -->
<!-- Title: mxml_create_root_node Pages: 1 -->
<svg width="580pt" height="66pt"
 viewBox="0.00 0.00 580.00 66.00" xmlns="http://www.w3.org/2000/svg" xmlns:xlink="http://www.w3.org/1999/xlink">
<g id="graph0" class="graph" transform="scale(1 1) rotate(0) translate(4 62)">
<title>mxml_create_root_node</title>
<polygon fill="white" stroke="none" points="-4,4 -4,-62 576,-62 576,4 -4,4"/>
<!-- Node1 -->
<g id="node1" class="node"><title>Node1</title>
<polygon fill="#bfbfbf" stroke="black" points="0.5,-19.5 0.5,-38.5 121.5,-38.5 121.5,-19.5 0.5,-19.5"/>
<text text-anchor="middle" x="61" y="-26.5" font-family="Helvetica,sans-Serif" font-size="10.00">mxml_create_root_node</text>
</g>
<!-- Node2 -->
<g id="node2" class="node"><title>Node2</title>
<g id="a_node2"><a xlink:href="mxml_8c.xhtml#a5ef2edd4f9e5fb7946c0150c3be731b5" target="_top" xlink:title="mxml_parse_buffer">
<polygon fill="white" stroke="black" points="158,-38.5 158,-57.5 258,-57.5 258,-38.5 158,-38.5"/>
<text text-anchor="middle" x="208" y="-45.5" font-family="Helvetica,sans-Serif" font-size="10.00">mxml_parse_buffer</text>
</a>
</g>
</g>
<!-- Node1&#45;&gt;Node2 -->
<g id="edge1" class="edge"><title>Node1&#45;&gt;Node2</title>
<path fill="none" stroke="midnightblue" d="M131.749,-38.1395C140.593,-39.2984 149.493,-40.4646 157.919,-41.5687"/>
<polygon fill="midnightblue" stroke="midnightblue" points="132.184,-34.6667 121.814,-36.8377 131.275,-41.6074 132.184,-34.6667"/>
</g>
<!-- Node5 -->
<g id="node5" class="node"><title>Node5</title>
<g id="a_node5"><a xlink:href="mxml_8c.xhtml#a9c1dde43a12f9e8383227dd5f79bf91d" target="_top" xlink:title="mxml_parse_entity">
<polygon fill="white" stroke="black" points="158.5,-0.5 158.5,-19.5 257.5,-19.5 257.5,-0.5 158.5,-0.5"/>
<text text-anchor="middle" x="208" y="-7.5" font-family="Helvetica,sans-Serif" font-size="10.00">mxml_parse_entity</text>
</a>
</g>
</g>
<!-- Node1&#45;&gt;Node5 -->
<g id="edge4" class="edge"><title>Node1&#45;&gt;Node5</title>
<path fill="none" stroke="midnightblue" d="M131.878,-19.8435C140.838,-18.6694 149.852,-17.4884 158.37,-16.3721"/>
<polygon fill="midnightblue" stroke="midnightblue" points="131.275,-16.3926 121.814,-21.1623 132.184,-23.3333 131.275,-16.3926"/>
</g>
<!-- Node3 -->
<g id="node3" class="node"><title>Node3</title>
<g id="a_node3"><a xlink:href="mxml_8c.xhtml#a0ebae029488c0bca9001b86916abe5ca" target="_top" xlink:title="mxml_parse_file">
<polygon fill="white" stroke="black" points="294,-19.5 294,-38.5 382,-38.5 382,-19.5 294,-19.5"/>
<text text-anchor="middle" x="338" y="-26.5" font-family="Helvetica,sans-Serif" font-size="10.00">mxml_parse_file</text>
</a>
</g>
</g>
<!-- Node2&#45;&gt;Node3 -->
<g id="edge2" class="edge"><title>Node2&#45;&gt;Node3</title>
<path fill="none" stroke="midnightblue" d="M268.126,-39.2235C276.726,-37.9469 285.444,-36.6529 293.654,-35.4342"/>
<polygon fill="midnightblue" stroke="midnightblue" points="267.5,-35.778 258.122,-40.7084 268.528,-42.7021 267.5,-35.778"/>
</g>
<!-- Node4 -->
<g id="node4" class="node"><title>Node4</title>
<g id="a_node4"><a xlink:href="class_d_r_s_board.xhtml#af9f7718b667109421094ec226224b012" target="_top" xlink:title="DRSBoard::GetTimeCalibration">
<polygon fill="white" stroke="black" points="418,-19.5 418,-38.5 572,-38.5 572,-19.5 418,-19.5"/>
<text text-anchor="middle" x="495" y="-26.5" font-family="Helvetica,sans-Serif" font-size="10.00">DRSBoard::GetTimeCalibration</text>
</a>
</g>
</g>
<!-- Node3&#45;&gt;Node4 -->
<g id="edge3" class="edge"><title>Node3&#45;&gt;Node4</title>
<path fill="none" stroke="midnightblue" d="M392.348,-29C400.575,-29 409.204,-29 417.813,-29"/>
<polygon fill="midnightblue" stroke="midnightblue" points="392.176,-25.5001 382.176,-29 392.176,-32.5001 392.176,-25.5001"/>
</g>
<!-- Node5&#45;&gt;Node3 -->
<g id="edge5" class="edge"><title>Node5&#45;&gt;Node3</title>
<path fill="none" stroke="midnightblue" d="M267.908,-18.7442C276.639,-20.0402 285.497,-21.355 293.827,-22.5915"/>
<polygon fill="midnightblue" stroke="midnightblue" points="268.162,-15.2436 257.756,-17.2373 267.134,-22.1677 268.162,-15.2436"/>
</g>
</g>
</svg>
