<?xml version="1.0" encoding="UTF-8" standalone="no"?>
<!DOCTYPE svg PUBLIC "-//W3C//DTD SVG 1.1//EN"
 "http://www.w3.org/Graphics/SVG/1.1/DTD/svg11.dtd">
<!-- Generated by graphviz version 2.36.0 (20140111.2315)
 -->
<!-- Title: mxml_encode Pages: 1 -->
<svg width="310pt" height="142pt"
 viewBox="0.00 0.00 310.00 142.00" xmlns="http://www.w3.org/2000/svg" xmlns:xlink="http://www.w3.org/1999/xlink">
<g id="graph0" class="graph" transform="scale(1 1) rotate(0) translate(4 138)">
<title>mxml_encode</title>
<polygon fill="white" stroke="none" points="-4,4 -4,-138 306,-138 306,4 -4,4"/>
<!-- Node1 -->
<g id="node1" class="node"><title>Node1</title>
<polygon fill="#bfbfbf" stroke="black" points="0.5,-57.5 0.5,-76.5 77.5,-76.5 77.5,-57.5 0.5,-57.5"/>
<text text-anchor="middle" x="39" y="-64.5" font-family="Helvetica,sans-Serif" font-size="10.00">mxml_encode</text>
</g>
<!-- Node2 -->
<g id="node2" class="node"><title>Node2</title>
<g id="a_node2"><a xlink:href="mxml_8c.xhtml#a2fa2fb9cb281f3461fedf2d47ea81ce1" target="_top" xlink:title="mxml_deallocate">
<polygon fill="white" stroke="black" points="114,-114.5 114,-133.5 204,-133.5 204,-114.5 114,-114.5"/>
<text text-anchor="middle" x="159" y="-121.5" font-family="Helvetica,sans-Serif" font-size="10.00">mxml_deallocate</text>
</a>
</g>
</g>
<!-- Node1&#45;&gt;Node2 -->
<g id="edge1" class="edge"><title>Node1&#45;&gt;Node2</title>
<path fill="none" stroke="midnightblue" d="M57.7775,-76.5521C72.6646,-84.4486 94.5402,-95.8145 114,-105 117.809,-106.798 121.833,-108.628 125.836,-110.407"/>
<polygon fill="midnightblue" stroke="midnightblue" points="124.469,-113.629 135.033,-114.426 127.272,-107.214 124.469,-113.629"/>
</g>
<!-- Node4 -->
<g id="node4" class="node"><title>Node4</title>
<g id="a_node4"><a xlink:href="mxml_8c.xhtml#a4b4f0fef6a18999e79e85a0bff15f122" target="_top" xlink:title="mxml_malloc">
<polygon fill="white" stroke="black" points="122,-76.5 122,-95.5 196,-95.5 196,-76.5 122,-76.5"/>
<text text-anchor="middle" x="159" y="-83.5" font-family="Helvetica,sans-Serif" font-size="10.00">mxml_malloc</text>
</a>
</g>
</g>
<!-- Node1&#45;&gt;Node4 -->
<g id="edge3" class="edge"><title>Node1&#45;&gt;Node4</title>
<path fill="none" stroke="midnightblue" d="M77.6604,-73.064C88.5048,-74.8101 100.461,-76.7352 111.761,-78.5547"/>
<polygon fill="midnightblue" stroke="midnightblue" points="111.474,-82.0536 121.903,-80.1878 112.587,-75.1426 111.474,-82.0536"/>
</g>
<!-- Node5 -->
<g id="node5" class="node"><title>Node5</title>
<g id="a_node5"><a xlink:href="mxml_8c.xhtml#a2bbe1e8a7d3c830714bdfa50d3658ef8" target="_top" xlink:title="mxml_realloc">
<polygon fill="white" stroke="black" points="122,-38.5 122,-57.5 196,-57.5 196,-38.5 122,-38.5"/>
<text text-anchor="middle" x="159" y="-45.5" font-family="Helvetica,sans-Serif" font-size="10.00">mxml_realloc</text>
</a>
</g>
</g>
<!-- Node1&#45;&gt;Node5 -->
<g id="edge4" class="edge"><title>Node1&#45;&gt;Node5</title>
<path fill="none" stroke="midnightblue" d="M77.6604,-60.936C88.5048,-59.1899 100.461,-57.2648 111.761,-55.4453"/>
<polygon fill="midnightblue" stroke="midnightblue" points="112.587,-58.8574 121.903,-53.8122 111.474,-51.9464 112.587,-58.8574"/>
</g>
<!-- Node6 -->
<g id="node6" class="node"><title>Node6</title>
<g id="a_node6"><a xlink:href="strlcpy_8h.xhtml#af8c865b1f481801d8d1f0a8644be4bbc" target="_top" xlink:title="strlcpy">
<polygon fill="white" stroke="black" points="136,-0.5 136,-19.5 182,-19.5 182,-0.5 136,-0.5"/>
<text text-anchor="middle" x="159" y="-7.5" font-family="Helvetica,sans-Serif" font-size="10.00">strlcpy</text>
</a>
</g>
</g>
<!-- Node1&#45;&gt;Node6 -->
<g id="edge5" class="edge"><title>Node1&#45;&gt;Node6</title>
<path fill="none" stroke="midnightblue" d="M57.7775,-57.4479C72.6646,-49.5514 94.5402,-38.1855 114,-29 118.089,-27.0698 122.425,-25.103 126.718,-23.2019"/>
<polygon fill="midnightblue" stroke="midnightblue" points="128.168,-26.3882 135.938,-19.1852 125.372,-19.9708 128.168,-26.3882"/>
</g>
<!-- Node3 -->
<g id="node3" class="node"><title>Node3</title>
<g id="a_node3"><a xlink:href="mxml_8c.xhtml#abca607b102fe0f2c063f39eb0259994c" target="_top" xlink:title="mxml_free">
<polygon fill="white" stroke="black" points="240,-114.5 240,-133.5 302,-133.5 302,-114.5 240,-114.5"/>
<text text-anchor="middle" x="271" y="-121.5" font-family="Helvetica,sans-Serif" font-size="10.00">mxml_free</text>
</a>
</g>
</g>
<!-- Node2&#45;&gt;Node3 -->
<g id="edge2" class="edge"><title>Node2&#45;&gt;Node3</title>
<path fill="none" stroke="midnightblue" d="M204.107,-124C212.513,-124 221.272,-124 229.556,-124"/>
<polygon fill="midnightblue" stroke="midnightblue" points="229.733,-127.5 239.733,-124 229.733,-120.5 229.733,-127.5"/>
</g>
</g>
</svg>
