<?xml version="1.0" encoding="UTF-8" standalone="no"?>
<!DOCTYPE svg PUBLIC "-//W3C//DTD SVG 1.1//EN"
 "http://www.w3.org/Graphics/SVG/1.1/DTD/svg11.dtd">
<!-- Generated by graphviz version 2.36.0 (20140111.2315)
 -->
<!-- Title: mxml_start_element1 Pages: 1 -->
<svg width="466pt" height="218pt"
 viewBox="0.00 0.00 466.00 218.00" xmlns="http://www.w3.org/2000/svg" xmlns:xlink="http://www.w3.org/1999/xlink">
<g id="graph0" class="graph" transform="scale(1 1) rotate(0) translate(4 214)">
<title>mxml_start_element1</title>
<polygon fill="white" stroke="none" points="-4,4 -4,-214 462,-214 462,4 -4,4"/>
<!-- Node1 -->
<g id="node1" class="node"><title>Node1</title>
<polygon fill="#bfbfbf" stroke="black" points="0,-95.5 0,-114.5 110,-114.5 110,-95.5 0,-95.5"/>
<text text-anchor="middle" x="55" y="-102.5" font-family="Helvetica,sans-Serif" font-size="10.00">mxml_start_element1</text>
</g>
<!-- Node2 -->
<g id="node2" class="node"><title>Node2</title>
<g id="a_node2"><a xlink:href="mxml_8c.xhtml#acd5df9d9cc5b5f2f75c06585d7867488" target="_top" xlink:title="mxml_encode">
<polygon fill="white" stroke="black" points="151.5,-152.5 151.5,-171.5 228.5,-171.5 228.5,-152.5 151.5,-152.5"/>
<text text-anchor="middle" x="190" y="-159.5" font-family="Helvetica,sans-Serif" font-size="10.00">mxml_encode</text>
</a>
</g>
</g>
<!-- Node1&#45;&gt;Node2 -->
<g id="edge1" class="edge"><title>Node1&#45;&gt;Node2</title>
<path fill="none" stroke="midnightblue" d="M78.2612,-114.541C99.9352,-123.829 133.084,-138.036 157.467,-148.486"/>
<polygon fill="midnightblue" stroke="midnightblue" points="156.096,-151.706 166.666,-152.428 158.853,-145.272 156.096,-151.706"/>
</g>
<!-- Node5 -->
<g id="node5" class="node"><title>Node5</title>
<g id="a_node5"><a xlink:href="mxml_8c.xhtml#a4b4f0fef6a18999e79e85a0bff15f122" target="_top" xlink:title="mxml_malloc">
<polygon fill="white" stroke="black" points="278,-190.5 278,-209.5 352,-209.5 352,-190.5 278,-190.5"/>
<text text-anchor="middle" x="315" y="-197.5" font-family="Helvetica,sans-Serif" font-size="10.00">mxml_malloc</text>
</a>
</g>
</g>
<!-- Node1&#45;&gt;Node5 -->
<g id="edge7" class="edge"><title>Node1&#45;&gt;Node5</title>
<path fill="none" stroke="midnightblue" d="M63.9733,-114.749C78.365,-131.568 110.504,-165.702 146,-181 184.597,-197.635 232.575,-201.605 267.366,-201.874"/>
<polygon fill="midnightblue" stroke="midnightblue" points="267.723,-205.373 277.715,-201.849 267.706,-198.373 267.723,-205.373"/>
</g>
<!-- Node6 -->
<g id="node6" class="node"><title>Node6</title>
<g id="a_node6"><a xlink:href="mxml_8c.xhtml#a2bbe1e8a7d3c830714bdfa50d3658ef8" target="_top" xlink:title="mxml_realloc">
<polygon fill="white" stroke="black" points="278,-114.5 278,-133.5 352,-133.5 352,-114.5 278,-114.5"/>
<text text-anchor="middle" x="315" y="-121.5" font-family="Helvetica,sans-Serif" font-size="10.00">mxml_realloc</text>
</a>
</g>
</g>
<!-- Node1&#45;&gt;Node6 -->
<g id="edge8" class="edge"><title>Node1&#45;&gt;Node6</title>
<path fill="none" stroke="midnightblue" d="M110.085,-108.983C156.732,-112.418 223.379,-117.326 267.629,-120.585"/>
<polygon fill="midnightblue" stroke="midnightblue" points="267.587,-124.091 277.817,-121.335 268.101,-117.11 267.587,-124.091"/>
</g>
<!-- Node7 -->
<g id="node7" class="node"><title>Node7</title>
<g id="a_node7"><a xlink:href="strlcpy_8h.xhtml#af8c865b1f481801d8d1f0a8644be4bbc" target="_top" xlink:title="strlcpy">
<polygon fill="white" stroke="black" points="292,-57.5 292,-76.5 338,-76.5 338,-57.5 292,-57.5"/>
<text text-anchor="middle" x="315" y="-64.5" font-family="Helvetica,sans-Serif" font-size="10.00">strlcpy</text>
</a>
</g>
</g>
<!-- Node1&#45;&gt;Node7 -->
<g id="edge12" class="edge"><title>Node1&#45;&gt;Node7</title>
<path fill="none" stroke="midnightblue" d="M72.9263,-95.4234C90.5393,-86.0514 119.236,-72.4185 146,-67 192.431,-57.5997 247.571,-60.1276 281.679,-63.2318"/>
<polygon fill="midnightblue" stroke="midnightblue" points="281.682,-66.7489 291.977,-64.2455 282.368,-59.7826 281.682,-66.7489"/>
</g>
<!-- Node8 -->
<g id="node8" class="node"><title>Node8</title>
<g id="a_node8"><a xlink:href="mxml_8c.xhtml#a51b3bd43da7f4331d38ed5593953610a" target="_top" xlink:title="mxml_write_line">
<polygon fill="white" stroke="black" points="146.5,-76.5 146.5,-95.5 233.5,-95.5 233.5,-76.5 146.5,-76.5"/>
<text text-anchor="middle" x="190" y="-83.5" font-family="Helvetica,sans-Serif" font-size="10.00">mxml_write_line</text>
</a>
</g>
</g>
<!-- Node1&#45;&gt;Node8 -->
<g id="edge9" class="edge"><title>Node1&#45;&gt;Node8</title>
<path fill="none" stroke="midnightblue" d="M110.096,-97.272C118.78,-96.0314 127.757,-94.749 136.405,-93.5136"/>
<polygon fill="midnightblue" stroke="midnightblue" points="136.965,-96.9692 146.369,-92.0901 135.975,-90.0396 136.965,-96.9692"/>
</g>
<!-- Node9 -->
<g id="node9" class="node"><title>Node9</title>
<g id="a_node9"><a xlink:href="strlcpy_8h.xhtml#aa031012870e97fea95c0b78d51b4471b" target="_top" xlink:title="strlcat">
<polygon fill="white" stroke="black" points="168,-0.5 168,-19.5 212,-19.5 212,-0.5 168,-0.5"/>
<text text-anchor="middle" x="190" y="-7.5" font-family="Helvetica,sans-Serif" font-size="10.00">strlcat</text>
</a>
</g>
</g>
<!-- Node1&#45;&gt;Node9 -->
<g id="edge11" class="edge"><title>Node1&#45;&gt;Node9</title>
<path fill="none" stroke="midnightblue" d="M66.933,-95.4377C83.4536,-81.2091 116.038,-53.9964 146,-34 150.8,-30.7965 156.058,-27.6139 161.199,-24.6637"/>
<polygon fill="midnightblue" stroke="midnightblue" points="163.169,-27.5733 170.203,-19.6503 159.763,-21.4575 163.169,-27.5733"/>
</g>
<!-- Node3 -->
<g id="node3" class="node"><title>Node3</title>
<g id="a_node3"><a xlink:href="mxml_8c.xhtml#a2fa2fb9cb281f3461fedf2d47ea81ce1" target="_top" xlink:title="mxml_deallocate">
<polygon fill="white" stroke="black" points="270,-152.5 270,-171.5 360,-171.5 360,-152.5 270,-152.5"/>
<text text-anchor="middle" x="315" y="-159.5" font-family="Helvetica,sans-Serif" font-size="10.00">mxml_deallocate</text>
</a>
</g>
</g>
<!-- Node2&#45;&gt;Node3 -->
<g id="edge2" class="edge"><title>Node2&#45;&gt;Node3</title>
<path fill="none" stroke="midnightblue" d="M228.572,-162C238.322,-162 249.022,-162 259.452,-162"/>
<polygon fill="midnightblue" stroke="midnightblue" points="259.746,-165.5 269.746,-162 259.746,-158.5 259.746,-165.5"/>
</g>
<!-- Node2&#45;&gt;Node5 -->
<g id="edge4" class="edge"><title>Node2&#45;&gt;Node5</title>
<path fill="none" stroke="midnightblue" d="M222.038,-171.589C237.479,-176.359 256.348,-182.189 272.966,-187.323"/>
<polygon fill="midnightblue" stroke="midnightblue" points="272.384,-190.806 282.972,-190.414 274.451,-184.118 272.384,-190.806"/>
</g>
<!-- Node2&#45;&gt;Node6 -->
<g id="edge5" class="edge"><title>Node2&#45;&gt;Node6</title>
<path fill="none" stroke="midnightblue" d="M222.038,-152.411C237.479,-147.641 256.348,-141.811 272.966,-136.677"/>
<polygon fill="midnightblue" stroke="midnightblue" points="274.451,-139.882 282.972,-133.586 272.384,-133.194 274.451,-139.882"/>
</g>
<!-- Node2&#45;&gt;Node7 -->
<g id="edge6" class="edge"><title>Node2&#45;&gt;Node7</title>
<path fill="none" stroke="midnightblue" d="M203.7,-152.191C224.986,-135.751 268.041,-102.497 293.609,-82.7495"/>
<polygon fill="midnightblue" stroke="midnightblue" points="295.778,-85.4967 301.552,-76.614 291.499,-79.9567 295.778,-85.4967"/>
</g>
<!-- Node4 -->
<g id="node4" class="node"><title>Node4</title>
<g id="a_node4"><a xlink:href="mxml_8c.xhtml#abca607b102fe0f2c063f39eb0259994c" target="_top" xlink:title="mxml_free">
<polygon fill="white" stroke="black" points="396,-152.5 396,-171.5 458,-171.5 458,-152.5 396,-152.5"/>
<text text-anchor="middle" x="427" y="-159.5" font-family="Helvetica,sans-Serif" font-size="10.00">mxml_free</text>
</a>
</g>
</g>
<!-- Node3&#45;&gt;Node4 -->
<g id="edge3" class="edge"><title>Node3&#45;&gt;Node4</title>
<path fill="none" stroke="midnightblue" d="M360.107,-162C368.513,-162 377.272,-162 385.556,-162"/>
<polygon fill="midnightblue" stroke="midnightblue" points="385.733,-165.5 395.733,-162 385.733,-158.5 385.733,-165.5"/>
</g>
<!-- Node8&#45;&gt;Node6 -->
<g id="edge10" class="edge"><title>Node8&#45;&gt;Node6</title>
<path fill="none" stroke="midnightblue" d="M222.038,-95.589C237.479,-100.359 256.348,-106.189 272.966,-111.323"/>
<polygon fill="midnightblue" stroke="midnightblue" points="272.384,-114.806 282.972,-114.414 274.451,-108.118 272.384,-114.806"/>
</g>
</g>
</svg>
