<?xml version="1.0" encoding="UTF-8" standalone="no"?>
<!DOCTYPE svg PUBLIC "-//W3C//DTD SVG 1.1//EN"
 "http://www.w3.org/Graphics/SVG/1.1/DTD/svg11.dtd">
<!-- Generated by graphviz version 2.36.0 (20140111.2315)
 -->
<!-- Title: mxml_find_node Pages: 1 -->
<svg width="618pt" height="123pt"
 viewBox="0.00 0.00 618.00 123.00" xmlns="http://www.w3.org/2000/svg" xmlns:xlink="http://www.w3.org/1999/xlink">
<g id="graph0" class="graph" transform="scale(1 1) rotate(0) translate(4 119)">
<title>mxml_find_node</title>
<polygon fill="white" stroke="none" points="-4,4 -4,-119 614,-119 614,4 -4,4"/>
<!-- Node1 -->
<g id="node1" class="node"><title>Node1</title>
<polygon fill="#bfbfbf" stroke="black" points="0,-19.5 0,-38.5 88,-38.5 88,-19.5 0,-19.5"/>
<text text-anchor="middle" x="44" y="-26.5" font-family="Helvetica,sans-Serif" font-size="10.00">mxml_find_node</text>
</g>
<!-- Node2 -->
<g id="node2" class="node"><title>Node2</title>
<g id="a_node2"><a xlink:href="mxml_8c.xhtml#a6dc97d9bb89977574a5f5cff952f3550" target="_top" xlink:title="mxml_find_nodes">
<polygon fill="white" stroke="black" points="124.5,-38.5 124.5,-57.5 217.5,-57.5 217.5,-38.5 124.5,-38.5"/>
<text text-anchor="middle" x="171" y="-45.5" font-family="Helvetica,sans-Serif" font-size="10.00">mxml_find_nodes</text>
</a>
</g>
</g>
<!-- Node1&#45;&gt;Node2 -->
<g id="edge1" class="edge"><title>Node1&#45;&gt;Node2</title>
<path fill="none" stroke="midnightblue" d="M88.0179,-35.5387C96.5355,-36.8334 105.589,-38.2096 114.454,-39.5571"/>
<polygon fill="midnightblue" stroke="midnightblue" points="113.932,-43.0178 124.344,-41.0603 114.984,-36.0973 113.932,-43.0178"/>
</g>
<!-- Node9 -->
<g id="node9" class="node"><title>Node9</title>
<g id="a_node9"><a xlink:href="mxml_8c.xhtml#abca607b102fe0f2c063f39eb0259994c" target="_top" xlink:title="mxml_free">
<polygon fill="white" stroke="black" points="140,-0.5 140,-19.5 202,-19.5 202,-0.5 140,-0.5"/>
<text text-anchor="middle" x="171" y="-7.5" font-family="Helvetica,sans-Serif" font-size="10.00">mxml_free</text>
</a>
</g>
</g>
<!-- Node1&#45;&gt;Node9 -->
<g id="edge9" class="edge"><title>Node1&#45;&gt;Node9</title>
<path fill="none" stroke="midnightblue" d="M88.0179,-22.4613C101.503,-20.4115 116.333,-18.1574 129.629,-16.1364"/>
<polygon fill="midnightblue" stroke="midnightblue" points="130.547,-19.5371 139.908,-14.574 129.495,-12.6166 130.547,-19.5371"/>
</g>
<!-- Node3 -->
<g id="node3" class="node"><title>Node3</title>
<g id="a_node3"><a xlink:href="mxml_8c.xhtml#ab4b547074c15b19eae1b6f16050c75d9" target="_top" xlink:title="mxml_find_nodes1">
<polygon fill="white" stroke="black" points="254,-38.5 254,-57.5 352,-57.5 352,-38.5 254,-38.5"/>
<text text-anchor="middle" x="303" y="-45.5" font-family="Helvetica,sans-Serif" font-size="10.00">mxml_find_nodes1</text>
</a>
</g>
</g>
<!-- Node2&#45;&gt;Node3 -->
<g id="edge2" class="edge"><title>Node2&#45;&gt;Node3</title>
<path fill="none" stroke="midnightblue" d="M217.833,-48C226.24,-48 235.116,-48 243.827,-48"/>
<polygon fill="midnightblue" stroke="midnightblue" points="243.939,-51.5001 253.939,-48 243.939,-44.5001 243.939,-51.5001"/>
</g>
<!-- Node4 -->
<g id="node4" class="node"><title>Node4</title>
<g id="a_node4"><a xlink:href="strlcpy_8h.xhtml#af8c865b1f481801d8d1f0a8644be4bbc" target="_top" xlink:title="strlcpy">
<polygon fill="white" stroke="black" points="421,-95.5 421,-114.5 467,-114.5 467,-95.5 421,-95.5"/>
<text text-anchor="middle" x="444" y="-102.5" font-family="Helvetica,sans-Serif" font-size="10.00">strlcpy</text>
</a>
</g>
</g>
<!-- Node3&#45;&gt;Node4 -->
<g id="edge3" class="edge"><title>Node3&#45;&gt;Node4</title>
<path fill="none" stroke="midnightblue" d="M323.805,-57.5839C340.687,-65.6024 365.692,-77.1229 388,-86 395.44,-88.9607 403.546,-91.9095 411.192,-94.57"/>
<polygon fill="midnightblue" stroke="midnightblue" points="410.289,-97.96 420.883,-97.878 412.55,-91.3353 410.289,-97.96"/>
</g>
<!-- Node5 -->
<g id="node5" class="node"><title>Node5</title>
<g id="a_node5"><a xlink:href="mxml_8c.xhtml#afaf8076733bb1e0a00b2f3248d180bbd" target="_top" xlink:title="mxml_get_attribute">
<polygon fill="white" stroke="black" points="394,-57.5 394,-76.5 494,-76.5 494,-57.5 394,-57.5"/>
<text text-anchor="middle" x="444" y="-64.5" font-family="Helvetica,sans-Serif" font-size="10.00">mxml_get_attribute</text>
</a>
</g>
</g>
<!-- Node3&#45;&gt;Node5 -->
<g id="edge4" class="edge"><title>Node3&#45;&gt;Node5</title>
<path fill="none" stroke="midnightblue" d="M352.225,-54.592C362.446,-55.989 373.345,-57.4789 383.916,-58.9238"/>
<polygon fill="midnightblue" stroke="midnightblue" points="383.536,-62.4042 393.917,-60.2909 384.484,-55.4687 383.536,-62.4042"/>
</g>
<!-- Node6 -->
<g id="node6" class="node"><title>Node6</title>
<g id="a_node6"><a xlink:href="mxml_8c.xhtml#a6bcd06b8ff582dece9ba510e161284d5" target="_top" xlink:title="mxml_add_resultnode">
<polygon fill="white" stroke="black" points="388,-19.5 388,-38.5 500,-38.5 500,-19.5 388,-19.5"/>
<text text-anchor="middle" x="444" y="-26.5" font-family="Helvetica,sans-Serif" font-size="10.00">mxml_add_resultnode</text>
</a>
</g>
</g>
<!-- Node3&#45;&gt;Node6 -->
<g id="edge5" class="edge"><title>Node3&#45;&gt;Node6</title>
<path fill="none" stroke="midnightblue" d="M332.801,-38.4705C345.847,-35.8429 361.847,-33.2735 377.569,-31.2041"/>
<polygon fill="midnightblue" stroke="midnightblue" points="378.338,-34.6352 387.826,-29.9208 377.469,-27.6894 378.338,-34.6352"/>
</g>
<!-- Node6&#45;&gt;Node3 -->
<g id="edge6" class="edge"><title>Node6&#45;&gt;Node3</title>
<path fill="none" stroke="midnightblue" d="M414.31,-38.5072C399.279,-41.5387 380.306,-44.4944 362.351,-46.6961"/>
<polygon fill="midnightblue" stroke="midnightblue" points="361.756,-43.2415 352.225,-47.8687 362.562,-50.1951 361.756,-43.2415"/>
</g>
<!-- Node7 -->
<g id="node7" class="node"><title>Node7</title>
<g id="a_node7"><a xlink:href="mxml_8c.xhtml#a4b4f0fef6a18999e79e85a0bff15f122" target="_top" xlink:title="mxml_malloc">
<polygon fill="white" stroke="black" points="536,-38.5 536,-57.5 610,-57.5 610,-38.5 536,-38.5"/>
<text text-anchor="middle" x="573" y="-45.5" font-family="Helvetica,sans-Serif" font-size="10.00">mxml_malloc</text>
</a>
</g>
</g>
<!-- Node6&#45;&gt;Node7 -->
<g id="edge7" class="edge"><title>Node6&#45;&gt;Node7</title>
<path fill="none" stroke="midnightblue" d="M500.335,-37.2784C508.888,-38.5581 517.643,-39.8679 525.964,-41.1128"/>
<polygon fill="midnightblue" stroke="midnightblue" points="525.449,-44.5745 535.856,-42.5927 526.484,-37.6515 525.449,-44.5745"/>
</g>
<!-- Node8 -->
<g id="node8" class="node"><title>Node8</title>
<g id="a_node8"><a xlink:href="mxml_8c.xhtml#a2bbe1e8a7d3c830714bdfa50d3658ef8" target="_top" xlink:title="mxml_realloc">
<polygon fill="white" stroke="black" points="536,-0.5 536,-19.5 610,-19.5 610,-0.5 536,-0.5"/>
<text text-anchor="middle" x="573" y="-7.5" font-family="Helvetica,sans-Serif" font-size="10.00">mxml_realloc</text>
</a>
</g>
</g>
<!-- Node6&#45;&gt;Node8 -->
<g id="edge8" class="edge"><title>Node6&#45;&gt;Node8</title>
<path fill="none" stroke="midnightblue" d="M500.335,-20.7216C508.888,-19.4419 517.643,-18.1321 525.964,-16.8872"/>
<polygon fill="midnightblue" stroke="midnightblue" points="526.484,-20.3485 535.856,-15.4073 525.449,-13.4255 526.484,-20.3485"/>
</g>
</g>
</svg>
