<?xml version="1.0" encoding="UTF-8" standalone="no"?>
<!DOCTYPE svg PUBLIC "-//W3C//DTD SVG 1.1//EN"
 "http://www.w3.org/Graphics/SVG/1.1/DTD/svg11.dtd">
<!-- Generated by graphviz version 2.36.0 (20140111.2315)
 -->
<!-- Title: /data/Software/DAQ/PDAQ/Core/Source/mxml.c Pages: 1 -->
<svg width="875pt" height="96pt"
 viewBox="0.00 0.00 875.00 96.00" xmlns="http://www.w3.org/2000/svg" xmlns:xlink="http://www.w3.org/1999/xlink">
<g id="graph0" class="graph" transform="scale(1 1) rotate(0) translate(4 92)">
<title>/data/Software/DAQ/PDAQ/Core/Source/mxml.c</title>
<polygon fill="white" stroke="none" points="-4,4 -4,-92 871,-92 871,4 -4,4"/>
<!-- Node1 -->
<g id="node1" class="node"><title>Node1</title>
<polygon fill="#bfbfbf" stroke="black" points="353.5,-57 353.5,-87 494.5,-87 494.5,-57 353.5,-57"/>
<text text-anchor="start" x="361.5" y="-75" font-family="Helvetica,sans-Serif" font-size="10.00">/data/Software/DAQ</text>
<text text-anchor="middle" x="424" y="-64" font-family="Helvetica,sans-Serif" font-size="10.00">/PDAQ/Core/Source/mxml.c</text>
</g>
<!-- Node2 -->
<g id="node2" class="node"><title>Node2</title>
<polygon fill="white" stroke="#bfbfbf" points="0,-0.5 0,-19.5 46,-19.5 46,-0.5 0,-0.5"/>
<text text-anchor="middle" x="23" y="-7.5" font-family="Helvetica,sans-Serif" font-size="10.00">stdio.h</text>
</g>
<!-- Node1&#45;&gt;Node2 -->
<g id="edge1" class="edge"><title>Node1&#45;&gt;Node2</title>
<path fill="none" stroke="midnightblue" d="M353.456,-64.1523C281.013,-56.465 164.922,-42.3298 56.1543,-20.0029"/>
<polygon fill="midnightblue" stroke="midnightblue" points="56.8308,-16.5688 46.3276,-17.9589 55.4053,-23.4221 56.8308,-16.5688"/>
</g>
<!-- Node3 -->
<g id="node3" class="node"><title>Node3</title>
<polygon fill="white" stroke="#bfbfbf" points="64,-0.5 64,-19.5 108,-19.5 108,-0.5 64,-0.5"/>
<text text-anchor="middle" x="86" y="-7.5" font-family="Helvetica,sans-Serif" font-size="10.00">fcntl.h</text>
</g>
<!-- Node1&#45;&gt;Node3 -->
<g id="edge2" class="edge"><title>Node1&#45;&gt;Node3</title>
<path fill="none" stroke="midnightblue" d="M353.431,-61.6905C293.228,-53.1977 204.245,-39.345 118.202,-20.0598"/>
<polygon fill="midnightblue" stroke="midnightblue" points="118.796,-16.6056 108.269,-17.8059 117.247,-23.432 118.796,-16.6056"/>
</g>
<!-- Node4 -->
<g id="node4" class="node"><title>Node4</title>
<polygon fill="white" stroke="#bfbfbf" points="126.5,-0.5 126.5,-19.5 175.5,-19.5 175.5,-0.5 126.5,-0.5"/>
<text text-anchor="middle" x="151" y="-7.5" font-family="Helvetica,sans-Serif" font-size="10.00">string.h</text>
</g>
<!-- Node1&#45;&gt;Node4 -->
<g id="edge3" class="edge"><title>Node1&#45;&gt;Node4</title>
<path fill="none" stroke="midnightblue" d="M353.992,-56.9936C308.667,-47.7089 248.156,-34.9101 185.859,-20.1171"/>
<polygon fill="midnightblue" stroke="midnightblue" points="186.387,-16.6449 175.847,-17.7261 184.761,-23.4534 186.387,-16.6449"/>
</g>
<!-- Node5 -->
<g id="node5" class="node"><title>Node5</title>
<polygon fill="white" stroke="#bfbfbf" points="194,-0.5 194,-19.5 246,-19.5 246,-0.5 194,-0.5"/>
<text text-anchor="middle" x="220" y="-7.5" font-family="Helvetica,sans-Serif" font-size="10.00">assert.h</text>
</g>
<!-- Node1&#45;&gt;Node5 -->
<g id="edge4" class="edge"><title>Node1&#45;&gt;Node5</title>
<path fill="none" stroke="midnightblue" d="M376.171,-56.9327C339.351,-46.1032 289.263,-31.3715 255.842,-21.5418"/>
<polygon fill="midnightblue" stroke="midnightblue" points="256.62,-18.1223 246.038,-18.6583 254.644,-24.8378 256.62,-18.1223"/>
</g>
<!-- Node6 -->
<g id="node6" class="node"><title>Node6</title>
<polygon fill="white" stroke="#bfbfbf" points="264,-0.5 264,-19.5 312,-19.5 312,-0.5 264,-0.5"/>
<text text-anchor="middle" x="288" y="-7.5" font-family="Helvetica,sans-Serif" font-size="10.00">stdlib.h</text>
</g>
<!-- Node1&#45;&gt;Node6 -->
<g id="edge5" class="edge"><title>Node1&#45;&gt;Node6</title>
<path fill="none" stroke="midnightblue" d="M392.114,-56.9327C369.272,-46.8552 338.77,-33.3986 316.69,-23.6575"/>
<polygon fill="midnightblue" stroke="midnightblue" points="318.055,-20.4343 307.493,-19.6 315.23,-26.8387 318.055,-20.4343"/>
</g>
<!-- Node7 -->
<g id="node7" class="node"><title>Node7</title>
<polygon fill="white" stroke="#bfbfbf" points="330.5,-0.5 330.5,-19.5 381.5,-19.5 381.5,-0.5 330.5,-0.5"/>
<text text-anchor="middle" x="356" y="-7.5" font-family="Helvetica,sans-Serif" font-size="10.00">unistd.h</text>
</g>
<!-- Node1&#45;&gt;Node7 -->
<g id="edge6" class="edge"><title>Node1&#45;&gt;Node7</title>
<path fill="none" stroke="midnightblue" d="M407.885,-56.7808C397.596,-47.7026 384.253,-35.9291 373.674,-26.5951"/>
<polygon fill="midnightblue" stroke="midnightblue" points="375.709,-23.7223 365.895,-19.7305 371.077,-28.9712 375.709,-23.7223"/>
</g>
<!-- Node8 -->
<g id="node8" class="node"><title>Node8</title>
<polygon fill="white" stroke="#bfbfbf" points="399.5,-0.5 399.5,-19.5 448.5,-19.5 448.5,-0.5 399.5,-0.5"/>
<text text-anchor="middle" x="424" y="-7.5" font-family="Helvetica,sans-Serif" font-size="10.00">ctype.h</text>
</g>
<!-- Node1&#45;&gt;Node8 -->
<g id="edge7" class="edge"><title>Node1&#45;&gt;Node8</title>
<path fill="none" stroke="midnightblue" d="M424,-56.7808C424,-48.7812 424,-38.6887 424,-30.0168"/>
<polygon fill="midnightblue" stroke="midnightblue" points="427.5,-29.7305 424,-19.7305 420.5,-29.7306 427.5,-29.7305"/>
</g>
<!-- Node9 -->
<g id="node9" class="node"><title>Node9</title>
<polygon fill="white" stroke="#bfbfbf" points="467,-0.5 467,-19.5 519,-19.5 519,-0.5 467,-0.5"/>
<text text-anchor="middle" x="493" y="-7.5" font-family="Helvetica,sans-Serif" font-size="10.00">stdarg.h</text>
</g>
<!-- Node1&#45;&gt;Node9 -->
<g id="edge8" class="edge"><title>Node1&#45;&gt;Node9</title>
<path fill="none" stroke="midnightblue" d="M440.352,-56.7808C450.895,-47.6127 464.6,-35.6957 475.384,-26.3186"/>
<polygon fill="midnightblue" stroke="midnightblue" points="477.71,-28.9335 482.96,-19.7305 473.117,-23.6512 477.71,-28.9335"/>
</g>
<!-- Node10 -->
<g id="node10" class="node"><title>Node10</title>
<polygon fill="white" stroke="#bfbfbf" points="537.5,-0.5 537.5,-19.5 584.5,-19.5 584.5,-0.5 537.5,-0.5"/>
<text text-anchor="middle" x="561" y="-7.5" font-family="Helvetica,sans-Serif" font-size="10.00">errno.h</text>
</g>
<!-- Node1&#45;&gt;Node10 -->
<g id="edge9" class="edge"><title>Node1&#45;&gt;Node10</title>
<path fill="none" stroke="midnightblue" d="M456.12,-56.9327C479.131,-46.8552 509.856,-33.3986 532.099,-23.6575"/>
<polygon fill="midnightblue" stroke="midnightblue" points="533.607,-26.8178 541.363,-19.6 530.799,-20.4058 533.607,-26.8178"/>
</g>
<!-- Node11 -->
<g id="node11" class="node"><title>Node11</title>
<polygon fill="white" stroke="#bfbfbf" points="603,-0.5 603,-19.5 665,-19.5 665,-0.5 603,-0.5"/>
<text text-anchor="middle" x="634" y="-7.5" font-family="Helvetica,sans-Serif" font-size="10.00">sys/time.h</text>
</g>
<!-- Node1&#45;&gt;Node11 -->
<g id="edge10" class="edge"><title>Node1&#45;&gt;Node11</title>
<path fill="none" stroke="midnightblue" d="M473.236,-56.9327C510.199,-46.3717 560.151,-32.0998 594.513,-22.282"/>
<polygon fill="midnightblue" stroke="midnightblue" points="595.552,-25.6253 604.206,-19.5127 593.629,-18.8946 595.552,-25.6253"/>
</g>
<!-- Node12 -->
<g id="node12" class="node"><title>Node12</title>
<polygon fill="white" stroke="#bfbfbf" points="683,-0.5 683,-19.5 727,-19.5 727,-0.5 683,-0.5"/>
<text text-anchor="middle" x="705" y="-7.5" font-family="Helvetica,sans-Serif" font-size="10.00">time.h</text>
</g>
<!-- Node1&#45;&gt;Node12 -->
<g id="edge11" class="edge"><title>Node1&#45;&gt;Node12</title>
<path fill="none" stroke="midnightblue" d="M494.601,-57.9473C542.272,-48.8074 606.793,-35.8064 672.91,-19.8728"/>
<polygon fill="midnightblue" stroke="midnightblue" points="673.783,-23.2624 682.675,-17.5007 672.131,-16.4603 673.783,-23.2624"/>
</g>
<!-- Node13 -->
<g id="node13" class="node"><title>Node13</title>
<g id="a_node13"><a xlink:href="mxml_8h.xhtml" target="_top" xlink:title="mxml.h">
<polygon fill="white" stroke="black" points="745.5,-0.5 745.5,-19.5 794.5,-19.5 794.5,-0.5 745.5,-0.5"/>
<text text-anchor="middle" x="770" y="-7.5" font-family="Helvetica,sans-Serif" font-size="10.00">mxml.h</text>
</a>
</g>
</g>
<!-- Node1&#45;&gt;Node13 -->
<g id="edge12" class="edge"><title>Node1&#45;&gt;Node13</title>
<path fill="none" stroke="midnightblue" d="M494.737,-61.2358C557.99,-52.0691 653.076,-37.2145 735,-20 735.104,-19.9782 735.207,-19.9564 735.311,-19.9344"/>
<polygon fill="midnightblue" stroke="midnightblue" points="736.243,-23.3118 745.208,-17.6662 734.679,-16.4887 736.243,-23.3118"/>
</g>
<!-- Node14 -->
<g id="node14" class="node"><title>Node14</title>
<g id="a_node14"><a xlink:href="strlcpy_8h.xhtml" target="_top" xlink:title="strlcpy.h">
<polygon fill="white" stroke="black" points="813,-0.5 813,-19.5 867,-19.5 867,-0.5 813,-0.5"/>
<text text-anchor="middle" x="840" y="-7.5" font-family="Helvetica,sans-Serif" font-size="10.00">strlcpy.h</text>
</a>
</g>
</g>
<!-- Node1&#45;&gt;Node14 -->
<g id="edge13" class="edge"><title>Node1&#45;&gt;Node14</title>
<path fill="none" stroke="midnightblue" d="M494.555,-63.7451C570.934,-55.3705 696.163,-40.1246 803,-20 803.102,-19.9809 803.203,-19.9617 803.305,-19.9423"/>
<polygon fill="midnightblue" stroke="midnightblue" points="803.922,-23.3892 812.993,-17.9155 802.488,-16.5375 803.922,-23.3892"/>
</g>
</g>
</svg>
