<?xml version="1.0" encoding="UTF-8" standalone="no"?>
<!DOCTYPE svg PUBLIC "-//W3C//DTD SVG 1.1//EN"
 "http://www.w3.org/Graphics/SVG/1.1/DTD/svg11.dtd">
<!-- Generated by graphviz version 2.36.0 (20140111.2315)
 -->
<!-- Title: mxml_realloc Pages: 1 -->
<svg width="892pt" height="734pt"
 viewBox="0.00 0.00 892.00 733.82" xmlns="http://www.w3.org/2000/svg" xmlns:xlink="http://www.w3.org/1999/xlink">
<g id="graph0" class="graph" transform="scale(1 1) rotate(0) translate(4 729.823)">
<title>mxml_realloc</title>
<polygon fill="white" stroke="none" points="-4,4 -4,-729.823 888,-729.823 888,4 -4,4"/>
<!-- Node1 -->
<g id="node1" class="node"><title>Node1</title>
<polygon fill="#bfbfbf" stroke="black" points="0,-402.323 0,-421.323 74,-421.323 74,-402.323 0,-402.323"/>
<text text-anchor="middle" x="37" y="-409.323" font-family="Helvetica,sans-Serif" font-size="10.00">mxml_realloc</text>
</g>
<!-- Node2 -->
<g id="node2" class="node"><title>Node2</title>
<g id="a_node2"><a xlink:href="mxml_8c.xhtml#a15f4b76ba97d02c8bc1009a416eb51db" target="_top" xlink:title="mxml_add_attribute">
<polygon fill="white" stroke="black" points="295,-554.323 295,-573.323 397,-573.323 397,-554.323 295,-554.323"/>
<text text-anchor="middle" x="346" y="-561.323" font-family="Helvetica,sans-Serif" font-size="10.00">mxml_add_attribute</text>
</a>
</g>
</g>
<!-- Node1&#45;&gt;Node2 -->
<g id="edge1" class="edge"><title>Node1&#45;&gt;Node2</title>
<path fill="none" stroke="midnightblue" d="M47.1176,-430.561C58.6866,-452.307 80.7125,-487.63 110,-506.823 166.357,-543.755 244.419,-556.783 294.818,-561.363"/>
<polygon fill="midnightblue" stroke="midnightblue" points="50.0874,-428.68 42.4205,-421.368 43.854,-431.866 50.0874,-428.68"/>
</g>
<!-- Node7 -->
<g id="node7" class="node"><title>Node7</title>
<g id="a_node7"><a xlink:href="mxml_8c.xhtml#a6bcd06b8ff582dece9ba510e161284d5" target="_top" xlink:title="mxml_add_resultnode">
<polygon fill="white" stroke="black" points="123,-706.323 123,-725.323 235,-725.323 235,-706.323 123,-706.323"/>
<text text-anchor="middle" x="179" y="-713.323" font-family="Helvetica,sans-Serif" font-size="10.00">mxml_add_resultnode</text>
</a>
</g>
</g>
<!-- Node1&#45;&gt;Node7 -->
<g id="edge6" class="edge"><title>Node1&#45;&gt;Node7</title>
<path fill="none" stroke="midnightblue" d="M39.8454,-431.621C44.7505,-475.749 61.2545,-584.162 110,-658.823 123.39,-679.332 146.379,-696.353 161.877,-706.307"/>
<polygon fill="midnightblue" stroke="midnightblue" points="43.3218,-431.211 38.8145,-421.623 36.3587,-431.929 43.3218,-431.211"/>
</g>
<!-- Node12 -->
<g id="node12" class="node"><title>Node12</title>
<g id="a_node12"><a xlink:href="mxml_8c.xhtml#ad030ed9e4ac1bdcf7cda84301f87aa04" target="_top" xlink:title="mxml_add_special_node_at">
<polygon fill="white" stroke="black" points="110.5,-478.323 110.5,-497.323 247.5,-497.323 247.5,-478.323 110.5,-478.323"/>
<text text-anchor="middle" x="179" y="-485.323" font-family="Helvetica,sans-Serif" font-size="10.00">mxml_add_special_node_at</text>
</a>
</g>
</g>
<!-- Node1&#45;&gt;Node12 -->
<g id="edge15" class="edge"><title>Node1&#45;&gt;Node12</title>
<path fill="none" stroke="midnightblue" d="M56.9396,-427.822C70.9157,-439.032 90.7697,-453.753 110,-463.823 120.98,-469.572 133.637,-474.464 145.032,-478.302"/>
<polygon fill="midnightblue" stroke="midnightblue" points="59.0104,-424.994 49.0553,-421.368 54.5766,-430.411 59.0104,-424.994"/>
</g>
<!-- Node16 -->
<g id="node16" class="node"><title>Node16</title>
<g id="a_node16"><a xlink:href="mxml_8c.xhtml#a9977e3be9d90ec5cc0da092c8924269d" target="_top" xlink:title="mxml_add_tree_at">
<polygon fill="white" stroke="black" points="130.5,-582.323 130.5,-601.323 227.5,-601.323 227.5,-582.323 130.5,-582.323"/>
<text text-anchor="middle" x="179" y="-589.323" font-family="Helvetica,sans-Serif" font-size="10.00">mxml_add_tree_at</text>
</a>
</g>
</g>
<!-- Node1&#45;&gt;Node16 -->
<g id="edge21" class="edge"><title>Node1&#45;&gt;Node16</title>
<path fill="none" stroke="midnightblue" d="M43.0405,-431.228C51.8874,-461.889 72.8869,-521.844 110,-558.823 120.504,-569.289 134.984,-576.945 147.884,-582.233"/>
<polygon fill="midnightblue" stroke="midnightblue" points="46.3513,-430.067 40.3237,-421.354 39.6021,-431.924 46.3513,-430.067"/>
</g>
<!-- Node18 -->
<g id="node18" class="node"><title>Node18</title>
<g id="a_node18"><a xlink:href="mxml_8c.xhtml#a8bb5e37ed43a71139bd69efb8cfd2082" target="_top" xlink:title="mxml_delete_attribute">
<polygon fill="white" stroke="black" points="122.5,-402.323 122.5,-421.323 235.5,-421.323 235.5,-402.323 122.5,-402.323"/>
<text text-anchor="middle" x="179" y="-409.323" font-family="Helvetica,sans-Serif" font-size="10.00">mxml_delete_attribute</text>
</a>
</g>
</g>
<!-- Node1&#45;&gt;Node18 -->
<g id="edge24" class="edge"><title>Node1&#45;&gt;Node18</title>
<path fill="none" stroke="midnightblue" d="M84.0714,-411.823C96.3573,-411.823 109.761,-411.823 122.495,-411.823"/>
<polygon fill="midnightblue" stroke="midnightblue" points="84.0535,-408.323 74.0535,-411.823 84.0534,-415.323 84.0535,-408.323"/>
</g>
<!-- Node19 -->
<g id="node19" class="node"><title>Node19</title>
<g id="a_node19"><a xlink:href="mxml_8c.xhtml#a51aea00b138d1c675d541664bcf7b1ab" target="_top" xlink:title="mxml_delete_node">
<polygon fill="white" stroke="black" points="130,-364.323 130,-383.323 228,-383.323 228,-364.323 130,-364.323"/>
<text text-anchor="middle" x="179" y="-371.323" font-family="Helvetica,sans-Serif" font-size="10.00">mxml_delete_node</text>
</a>
</g>
</g>
<!-- Node1&#45;&gt;Node19 -->
<g id="edge25" class="edge"><title>Node1&#45;&gt;Node19</title>
<path fill="none" stroke="midnightblue" d="M83.1176,-399.576C102.415,-394.339 124.612,-388.314 142.683,-383.409"/>
<polygon fill="midnightblue" stroke="midnightblue" points="82.0619,-396.236 73.3279,-402.234 83.8956,-402.992 82.0619,-396.236"/>
</g>
<!-- Node20 -->
<g id="node20" class="node"><title>Node20</title>
<g id="a_node20"><a xlink:href="mxml_8c.xhtml#acd5df9d9cc5b5f2f75c06585d7867488" target="_top" xlink:title="mxml_encode">
<polygon fill="white" stroke="black" points="140.5,-288.323 140.5,-307.323 217.5,-307.323 217.5,-288.323 140.5,-288.323"/>
<text text-anchor="middle" x="179" y="-295.323" font-family="Helvetica,sans-Serif" font-size="10.00">mxml_encode</text>
</a>
</g>
</g>
<!-- Node1&#45;&gt;Node20 -->
<g id="edge26" class="edge"><title>Node1&#45;&gt;Node20</title>
<path fill="none" stroke="midnightblue" d="M48.4305,-393.354C60.724,-373.137 82.9442,-341.043 110,-321.823 118.981,-315.442 129.823,-310.612 140.185,-307.021"/>
<polygon fill="midnightblue" stroke="midnightblue" points="45.2703,-391.824 43.2152,-402.217 51.3033,-395.374 45.2703,-391.824"/>
</g>
<!-- Node21 -->
<g id="node21" class="node"><title>Node21</title>
<g id="a_node21"><a xlink:href="mxml_8c.xhtml#a43879e9508767beaf57424ec1393f661" target="_top" xlink:title="mxml_start_element1">
<polygon fill="white" stroke="black" points="291,-326.323 291,-345.323 401,-345.323 401,-326.323 291,-326.323"/>
<text text-anchor="middle" x="346" y="-333.323" font-family="Helvetica,sans-Serif" font-size="10.00">mxml_start_element1</text>
</a>
</g>
</g>
<!-- Node1&#45;&gt;Node21 -->
<g id="edge44" class="edge"><title>Node1&#45;&gt;Node21</title>
<path fill="none" stroke="midnightblue" d="M53.6914,-394.78C67.1893,-381.359 87.9273,-363.515 110,-354.823 168.651,-331.725 241.779,-329.541 290.741,-331.468"/>
<polygon fill="midnightblue" stroke="midnightblue" points="51.0733,-392.453 46.6253,-402.068 56.0991,-397.325 51.0733,-392.453"/>
</g>
<!-- Node28 -->
<g id="node28" class="node"><title>Node28</title>
<g id="a_node28"><a xlink:href="mxml_8c.xhtml#a9cf33f3456fea00ea438422ebb7bd6be" target="_top" xlink:title="mxml_write_value">
<polygon fill="white" stroke="black" points="298.5,-288.323 298.5,-307.323 393.5,-307.323 393.5,-288.323 298.5,-288.323"/>
<text text-anchor="middle" x="346" y="-295.323" font-family="Helvetica,sans-Serif" font-size="10.00">mxml_write_value</text>
</a>
</g>
</g>
<!-- Node1&#45;&gt;Node28 -->
<g id="edge62" class="edge"><title>Node1&#45;&gt;Node28</title>
<path fill="none" stroke="midnightblue" d="M41.9897,-392.226C49.3841,-361.666 68.4144,-303.598 110,-278.823 141.208,-260.23 242.115,-276.554 301.065,-288.314"/>
<polygon fill="midnightblue" stroke="midnightblue" points="38.5423,-391.604 39.7717,-402.128 45.373,-393.134 38.5423,-391.604"/>
</g>
<!-- Node29 -->
<g id="node29" class="node"><title>Node29</title>
<g id="a_node29"><a xlink:href="mxml_8c.xhtml#a9c1dde43a12f9e8383227dd5f79bf91d" target="_top" xlink:title="mxml_parse_entity">
<polygon fill="white" stroke="black" points="447.5,-446.323 447.5,-465.323 546.5,-465.323 546.5,-446.323 447.5,-446.323"/>
<text text-anchor="middle" x="497" y="-453.323" font-family="Helvetica,sans-Serif" font-size="10.00">mxml_parse_entity</text>
</a>
</g>
</g>
<!-- Node1&#45;&gt;Node29 -->
<g id="edge38" class="edge"><title>Node1&#45;&gt;Node29</title>
<path fill="none" stroke="midnightblue" d="M76.9184,-424.05C87.5382,-426.847 99.1186,-429.411 110,-430.823 241.344,-447.861 276.822,-412.551 408,-430.823 429.079,-433.759 452.202,-440.471 469.453,-446.201"/>
<polygon fill="midnightblue" stroke="midnightblue" points="77.6565,-420.623 67.0851,-421.327 75.7882,-427.369 77.6565,-420.623"/>
</g>
<!-- Node30 -->
<g id="node30" class="node"><title>Node30</title>
<g id="a_node30"><a xlink:href="mxml_8c.xhtml#ad468c6743b173e1ee2a15840215694c5" target="_top" xlink:title="mxml_replace_attribute\l_value">
<polygon fill="white" stroke="black" points="120,-143.823 120,-173.823 238,-173.823 238,-143.823 120,-143.823"/>
<text text-anchor="start" x="128" y="-161.823" font-family="Helvetica,sans-Serif" font-size="10.00">mxml_replace_attribute</text>
<text text-anchor="middle" x="179" y="-150.823" font-family="Helvetica,sans-Serif" font-size="10.00">_value</text>
</a>
</g>
</g>
<!-- Node1&#45;&gt;Node30 -->
<g id="edge40" class="edge"><title>Node1&#45;&gt;Node30</title>
<path fill="none" stroke="midnightblue" d="M38.6282,-391.964C41.0691,-348.412 52.9039,-243.633 110,-183.823 113.648,-180.001 117.929,-176.761 122.538,-174.014"/>
<polygon fill="midnightblue" stroke="midnightblue" points="35.1254,-391.95 38.1733,-402.097 42.1184,-392.264 35.1254,-391.95"/>
</g>
<!-- Node31 -->
<g id="node31" class="node"><title>Node31</title>
<g id="a_node31"><a xlink:href="mxml_8c.xhtml#a57419c0dff3ac219083666a963cbc65d" target="_top" xlink:title="mxml_replace_node_value">
<polygon fill="white" stroke="black" points="113,-630.323 113,-649.323 245,-649.323 245,-630.323 113,-630.323"/>
<text text-anchor="middle" x="179" y="-637.323" font-family="Helvetica,sans-Serif" font-size="10.00">mxml_replace_node_value</text>
</a>
</g>
</g>
<!-- Node1&#45;&gt;Node31 -->
<g id="edge41" class="edge"><title>Node1&#45;&gt;Node31</title>
<path fill="none" stroke="midnightblue" d="M39.9485,-431.604C44.804,-470.756 60.8345,-558.826 110,-610.823 118.289,-619.589 129.659,-625.827 140.729,-630.212"/>
<polygon fill="midnightblue" stroke="midnightblue" points="43.4104,-431.068 38.8161,-421.521 36.4541,-431.849 43.4104,-431.068"/>
</g>
<!-- Node33 -->
<g id="node33" class="node"><title>Node33</title>
<g id="a_node33"><a xlink:href="mxml_8c.xhtml#a51b3bd43da7f4331d38ed5593953610a" target="_top" xlink:title="mxml_write_line">
<polygon fill="white" stroke="black" points="135.5,-193.323 135.5,-212.323 222.5,-212.323 222.5,-193.323 135.5,-193.323"/>
<text text-anchor="middle" x="179" y="-200.323" font-family="Helvetica,sans-Serif" font-size="10.00">mxml_write_line</text>
</a>
</g>
</g>
<!-- Node1&#45;&gt;Node33 -->
<g id="edge45" class="edge"><title>Node1&#45;&gt;Node33</title>
<path fill="none" stroke="midnightblue" d="M42.4415,-392.283C50.8149,-359.015 71.6364,-290.629 110,-245.823 122.537,-231.181 141.317,-219.829 155.967,-212.476"/>
<polygon fill="midnightblue" stroke="midnightblue" points="39.0077,-391.593 40.0717,-402.134 45.8135,-393.23 39.0077,-391.593"/>
</g>
<!-- Node3 -->
<g id="node3" class="node"><title>Node3</title>
<g id="a_node3"><a xlink:href="mxml_8c.xhtml#a73cb7fc1ac4ef0d3a05d880e1de662f4" target="_top" xlink:title="mxml_clone_tree">
<polygon fill="white" stroke="black" points="594.5,-611.323 594.5,-630.323 685.5,-630.323 685.5,-611.323 594.5,-611.323"/>
<text text-anchor="middle" x="640" y="-618.323" font-family="Helvetica,sans-Serif" font-size="10.00">mxml_clone_tree</text>
</a>
</g>
</g>
<!-- Node2&#45;&gt;Node3 -->
<g id="edge2" class="edge"><title>Node2&#45;&gt;Node3</title>
<path fill="none" stroke="midnightblue" d="M407.433,-564.597C448.243,-566.303 503.03,-570.908 550,-582.823 575.73,-589.35 603.602,-602.295 621.17,-611.25"/>
<polygon fill="midnightblue" stroke="midnightblue" points="407.495,-561.097 397.371,-564.223 407.235,-568.092 407.495,-561.097"/>
</g>
<!-- Node4 -->
<g id="node4" class="node"><title>Node4</title>
<g id="a_node4"><a xlink:href="mxml_8c.xhtml#a5ef2edd4f9e5fb7946c0150c3be731b5" target="_top" xlink:title="mxml_parse_buffer">
<polygon fill="white" stroke="black" points="447,-516.323 447,-535.323 547,-535.323 547,-516.323 447,-516.323"/>
<text text-anchor="middle" x="497" y="-523.323" font-family="Helvetica,sans-Serif" font-size="10.00">mxml_parse_buffer</text>
</a>
</g>
</g>
<!-- Node2&#45;&gt;Node4 -->
<g id="edge3" class="edge"><title>Node2&#45;&gt;Node4</title>
<path fill="none" stroke="midnightblue" d="M394.492,-551.711C415.244,-546.418 439.228,-540.301 458.671,-535.343"/>
<polygon fill="midnightblue" stroke="midnightblue" points="393.424,-548.371 384.599,-554.234 395.154,-555.154 393.424,-548.371"/>
</g>
<!-- Node5 -->
<g id="node5" class="node"><title>Node5</title>
<g id="a_node5"><a xlink:href="mxml_8c.xhtml#a0ebae029488c0bca9001b86916abe5ca" target="_top" xlink:title="mxml_parse_file">
<polygon fill="white" stroke="black" points="596,-516.323 596,-535.323 684,-535.323 684,-516.323 596,-516.323"/>
<text text-anchor="middle" x="640" y="-523.323" font-family="Helvetica,sans-Serif" font-size="10.00">mxml_parse_file</text>
</a>
</g>
</g>
<!-- Node4&#45;&gt;Node5 -->
<g id="edge4" class="edge"><title>Node4&#45;&gt;Node5</title>
<path fill="none" stroke="midnightblue" d="M557.439,-525.823C570.238,-525.823 583.535,-525.823 595.587,-525.823"/>
<polygon fill="midnightblue" stroke="midnightblue" points="557.315,-522.323 547.315,-525.823 557.315,-529.323 557.315,-522.323"/>
</g>
<!-- Node6 -->
<g id="node6" class="node"><title>Node6</title>
<g id="a_node6"><a xlink:href="class_d_r_s_board.xhtml#af9f7718b667109421094ec226224b012" target="_top" xlink:title="DRSBoard::GetTimeCalibration">
<polygon fill="white" stroke="black" points="730,-668.323 730,-687.323 884,-687.323 884,-668.323 730,-668.323"/>
<text text-anchor="middle" x="807" y="-675.323" font-family="Helvetica,sans-Serif" font-size="10.00">DRSBoard::GetTimeCalibration</text>
</a>
</g>
</g>
<!-- Node5&#45;&gt;Node6 -->
<g id="edge5" class="edge"><title>Node5&#45;&gt;Node6</title>
<path fill="none" stroke="midnightblue" d="M658.79,-542.211C693.28,-573.984 768.254,-643.051 795.682,-668.318"/>
<polygon fill="midnightblue" stroke="midnightblue" points="661.048,-539.532 651.321,-535.331 656.305,-544.681 661.048,-539.532"/>
</g>
<!-- Node8 -->
<g id="node8" class="node"><title>Node8</title>
<g id="a_node8"><a xlink:href="mxml_8c.xhtml#ab4b547074c15b19eae1b6f16050c75d9" target="_top" xlink:title="mxml_find_nodes1">
<polygon fill="white" stroke="black" points="297,-706.323 297,-725.323 395,-725.323 395,-706.323 297,-706.323"/>
<text text-anchor="middle" x="346" y="-713.323" font-family="Helvetica,sans-Serif" font-size="10.00">mxml_find_nodes1</text>
</a>
</g>
</g>
<!-- Node7&#45;&gt;Node8 -->
<g id="edge7" class="edge"><title>Node7&#45;&gt;Node8</title>
<path fill="none" stroke="midnightblue" d="M245.867,-709.196C262.925,-708.94 280.972,-709.083 296.926,-709.625"/>
<polygon fill="midnightblue" stroke="midnightblue" points="245.329,-705.706 235.402,-709.407 245.47,-712.705 245.329,-705.706"/>
</g>
<!-- Node8&#45;&gt;Node7 -->
<g id="edge8" class="edge"><title>Node8&#45;&gt;Node7</title>
<path fill="none" stroke="midnightblue" d="M286.749,-722.307C270.059,-722.683 251.916,-722.66 235.402,-722.238"/>
<polygon fill="midnightblue" stroke="midnightblue" points="287.028,-725.8 296.926,-722.021 286.832,-718.803 287.028,-725.8"/>
</g>
<!-- Node9 -->
<g id="node9" class="node"><title>Node9</title>
<g id="a_node9"><a xlink:href="mxml_8c.xhtml#a6dc97d9bb89977574a5f5cff952f3550" target="_top" xlink:title="mxml_find_nodes">
<polygon fill="white" stroke="black" points="450.5,-706.323 450.5,-725.323 543.5,-725.323 543.5,-706.323 450.5,-706.323"/>
<text text-anchor="middle" x="497" y="-713.323" font-family="Helvetica,sans-Serif" font-size="10.00">mxml_find_nodes</text>
</a>
</g>
</g>
<!-- Node8&#45;&gt;Node9 -->
<g id="edge9" class="edge"><title>Node8&#45;&gt;Node9</title>
<path fill="none" stroke="midnightblue" d="M405.524,-715.823C420.433,-715.823 436.239,-715.823 450.397,-715.823"/>
<polygon fill="midnightblue" stroke="midnightblue" points="405.376,-712.323 395.376,-715.823 405.376,-719.323 405.376,-712.323"/>
</g>
<!-- Node11 -->
<g id="node11" class="node"><title>Node11</title>
<g id="a_node11"><a xlink:href="mxml_8c.xhtml#a77bc20aac65b3c46df4b08aeb52b2686" target="_top" xlink:title="mxml_subnode">
<polygon fill="white" stroke="black" points="455.5,-668.323 455.5,-687.323 538.5,-687.323 538.5,-668.323 455.5,-668.323"/>
<text text-anchor="middle" x="497" y="-675.323" font-family="Helvetica,sans-Serif" font-size="10.00">mxml_subnode</text>
</a>
</g>
</g>
<!-- Node8&#45;&gt;Node11 -->
<g id="edge12" class="edge"><title>Node8&#45;&gt;Node11</title>
<path fill="none" stroke="midnightblue" d="M394.492,-703.711C415.244,-698.418 439.228,-692.301 458.671,-687.343"/>
<polygon fill="midnightblue" stroke="midnightblue" points="393.424,-700.371 384.599,-706.234 395.154,-707.154 393.424,-700.371"/>
</g>
<!-- Node10 -->
<g id="node10" class="node"><title>Node10</title>
<g id="a_node10"><a xlink:href="mxml_8c.xhtml#a43e02c5111b428f22b1032a318ffe29f" target="_top" xlink:title="mxml_find_node">
<polygon fill="white" stroke="black" points="596,-706.323 596,-725.323 684,-725.323 684,-706.323 596,-706.323"/>
<text text-anchor="middle" x="640" y="-713.323" font-family="Helvetica,sans-Serif" font-size="10.00">mxml_find_node</text>
</a>
</g>
</g>
<!-- Node9&#45;&gt;Node10 -->
<g id="edge10" class="edge"><title>Node9&#45;&gt;Node10</title>
<path fill="none" stroke="midnightblue" d="M553.789,-715.823C567.778,-715.823 582.576,-715.823 595.845,-715.823"/>
<polygon fill="midnightblue" stroke="midnightblue" points="553.779,-712.323 543.779,-715.823 553.779,-719.323 553.779,-712.323"/>
</g>
<!-- Node10&#45;&gt;Node6 -->
<g id="edge11" class="edge"><title>Node10&#45;&gt;Node6</title>
<path fill="none" stroke="midnightblue" d="M692.654,-703.927C715.846,-698.585 742.838,-692.369 764.663,-687.343"/>
<polygon fill="midnightblue" stroke="midnightblue" points="691.596,-700.579 682.636,-706.234 693.167,-707.4 691.596,-700.579"/>
</g>
<!-- Node11&#45;&gt;Node3 -->
<g id="edge14" class="edge"><title>Node11&#45;&gt;Node3</title>
<path fill="none" stroke="midnightblue" d="M531.001,-664.482C556.861,-654.028 592.216,-639.735 615.323,-630.394"/>
<polygon fill="midnightblue" stroke="midnightblue" points="529.56,-661.289 521.6,-668.282 532.183,-667.779 529.56,-661.289"/>
</g>
<!-- Node11&#45;&gt;Node6 -->
<g id="edge13" class="edge"><title>Node11&#45;&gt;Node6</title>
<path fill="none" stroke="midnightblue" d="M548.677,-677.823C597.921,-677.823 673.328,-677.823 729.803,-677.823"/>
<polygon fill="midnightblue" stroke="midnightblue" points="548.582,-674.323 538.582,-677.823 548.582,-681.323 548.582,-674.323"/>
</g>
<!-- Node13 -->
<g id="node13" class="node"><title>Node13</title>
<g id="a_node13"><a xlink:href="mxml_8c.xhtml#afa83c9bacbedeb26f8dbc2d8e26fdfad" target="_top" xlink:title="mxml_add_node">
<polygon fill="white" stroke="black" points="302,-516.323 302,-535.323 390,-535.323 390,-516.323 302,-516.323"/>
<text text-anchor="middle" x="346" y="-523.323" font-family="Helvetica,sans-Serif" font-size="10.00">mxml_add_node</text>
</a>
</g>
</g>
<!-- Node12&#45;&gt;Node13 -->
<g id="edge16" class="edge"><title>Node12&#45;&gt;Node13</title>
<path fill="none" stroke="midnightblue" d="M231.654,-499.719C254.846,-505.06 281.838,-511.276 303.663,-516.303"/>
<polygon fill="midnightblue" stroke="midnightblue" points="232.167,-496.245 221.636,-497.412 230.596,-503.067 232.167,-496.245"/>
</g>
<!-- Node14 -->
<g id="node14" class="node"><title>Node14</title>
<g id="a_node14"><a xlink:href="mxml_8c.xhtml#a92015fcc9635dce8a1d32c653baf3a6b" target="_top" xlink:title="mxml_add_node_at">
<polygon fill="white" stroke="black" points="295.5,-440.323 295.5,-459.323 396.5,-459.323 396.5,-440.323 295.5,-440.323"/>
<text text-anchor="middle" x="346" y="-447.323" font-family="Helvetica,sans-Serif" font-size="10.00">mxml_add_node_at</text>
</a>
</g>
</g>
<!-- Node12&#45;&gt;Node14 -->
<g id="edge18" class="edge"><title>Node12&#45;&gt;Node14</title>
<path fill="none" stroke="midnightblue" d="M231.654,-475.927C254.846,-470.585 281.838,-464.369 303.663,-459.343"/>
<polygon fill="midnightblue" stroke="midnightblue" points="230.596,-472.579 221.636,-478.234 232.167,-479.4 230.596,-472.579"/>
</g>
<!-- Node15 -->
<g id="node15" class="node"><title>Node15</title>
<g id="a_node15"><a xlink:href="mxml_8c.xhtml#a0eed7fed4f2f71e211cf85105b4b007c" target="_top" xlink:title="mxml_add_special_node">
<polygon fill="white" stroke="black" points="284,-478.323 284,-497.323 408,-497.323 408,-478.323 284,-478.323"/>
<text text-anchor="middle" x="346" y="-485.323" font-family="Helvetica,sans-Serif" font-size="10.00">mxml_add_special_node</text>
</a>
</g>
</g>
<!-- Node12&#45;&gt;Node15 -->
<g id="edge19" class="edge"><title>Node12&#45;&gt;Node15</title>
<path fill="none" stroke="midnightblue" d="M257.805,-487.823C266.557,-487.823 275.379,-487.823 283.876,-487.823"/>
<polygon fill="midnightblue" stroke="midnightblue" points="257.588,-484.323 247.588,-487.823 257.588,-491.323 257.588,-484.323"/>
</g>
<!-- Node13&#45;&gt;Node4 -->
<g id="edge17" class="edge"><title>Node13&#45;&gt;Node4</title>
<path fill="none" stroke="midnightblue" d="M400.378,-525.823C415.574,-525.823 432.048,-525.823 446.972,-525.823"/>
<polygon fill="midnightblue" stroke="midnightblue" points="400.097,-522.323 390.097,-525.823 400.097,-529.323 400.097,-522.323"/>
</g>
<!-- Node15&#45;&gt;Node4 -->
<g id="edge20" class="edge"><title>Node15&#45;&gt;Node4</title>
<path fill="none" stroke="midnightblue" d="M394.492,-499.935C415.244,-505.227 439.228,-511.344 458.671,-516.303"/>
<polygon fill="midnightblue" stroke="midnightblue" points="395.154,-496.492 384.599,-497.412 393.424,-503.274 395.154,-496.492"/>
</g>
<!-- Node17 -->
<g id="node17" class="node"><title>Node17</title>
<g id="a_node17"><a xlink:href="mxml_8c.xhtml#afa48c082b68b5ea5ac0986d88fd12d43" target="_top" xlink:title="mxml_add_tree">
<polygon fill="white" stroke="black" points="455.5,-592.323 455.5,-611.323 538.5,-611.323 538.5,-592.323 455.5,-592.323"/>
<text text-anchor="middle" x="497" y="-599.323" font-family="Helvetica,sans-Serif" font-size="10.00">mxml_add_tree</text>
</a>
</g>
</g>
<!-- Node16&#45;&gt;Node17 -->
<g id="edge22" class="edge"><title>Node16&#45;&gt;Node17</title>
<path fill="none" stroke="midnightblue" d="M237.806,-593.652C300.701,-595.642 399.658,-598.774 455.014,-600.526"/>
<polygon fill="midnightblue" stroke="midnightblue" points="237.756,-590.149 227.651,-593.331 237.535,-597.145 237.756,-590.149"/>
</g>
<!-- Node17&#45;&gt;Node3 -->
<g id="edge23" class="edge"><title>Node17&#45;&gt;Node3</title>
<path fill="none" stroke="midnightblue" d="M548.849,-608.675C563.735,-610.681 579.891,-612.858 594.359,-614.807"/>
<polygon fill="midnightblue" stroke="midnightblue" points="549.161,-605.185 538.783,-607.318 548.226,-612.122 549.161,-605.185"/>
</g>
<!-- Node20&#45;&gt;Node21 -->
<g id="edge27" class="edge"><title>Node20&#45;&gt;Node21</title>
<path fill="none" stroke="midnightblue" d="M227.806,-308.832C251.78,-314.354 280.534,-320.976 303.561,-326.279"/>
<polygon fill="midnightblue" stroke="midnightblue" points="228.385,-305.374 217.854,-306.541 226.814,-312.196 228.385,-305.374"/>
</g>
<!-- Node27 -->
<g id="node27" class="node"><title>Node27</title>
<g id="a_node27"><a xlink:href="mxml_8c.xhtml#a7745af802a053bde67f77555ab47a17b" target="_top" xlink:title="mxml_write_attribute">
<polygon fill="white" stroke="black" points="292.5,-250.323 292.5,-269.323 399.5,-269.323 399.5,-250.323 292.5,-250.323"/>
<text text-anchor="middle" x="346" y="-257.323" font-family="Helvetica,sans-Serif" font-size="10.00">mxml_write_attribute</text>
</a>
</g>
</g>
<!-- Node20&#45;&gt;Node27 -->
<g id="edge33" class="edge"><title>Node20&#45;&gt;Node27</title>
<path fill="none" stroke="midnightblue" d="M227.806,-286.813C251.78,-281.291 280.534,-274.669 303.561,-269.366"/>
<polygon fill="midnightblue" stroke="midnightblue" points="226.814,-283.45 217.854,-289.105 228.385,-290.271 226.814,-283.45"/>
</g>
<!-- Node20&#45;&gt;Node28 -->
<g id="edge35" class="edge"><title>Node20&#45;&gt;Node28</title>
<path fill="none" stroke="midnightblue" d="M228.059,-297.823C250.249,-297.823 276.49,-297.823 298.486,-297.823"/>
<polygon fill="midnightblue" stroke="midnightblue" points="227.854,-294.323 217.854,-297.823 227.854,-301.323 227.854,-294.323"/>
</g>
<!-- Node22 -->
<g id="node22" class="node"><title>Node22</title>
<g id="a_node22"><a xlink:href="mxml_8c.xhtml#a1490cd450c6499bab0d70fbeaf88c3be" target="_top" xlink:title="mxml_start_element">
<polygon fill="white" stroke="black" points="444.5,-376.323 444.5,-395.323 549.5,-395.323 549.5,-376.323 444.5,-376.323"/>
<text text-anchor="middle" x="497" y="-383.323" font-family="Helvetica,sans-Serif" font-size="10.00">mxml_start_element</text>
</a>
</g>
</g>
<!-- Node21&#45;&gt;Node22 -->
<g id="edge28" class="edge"><title>Node21&#45;&gt;Node22</title>
<path fill="none" stroke="midnightblue" d="M385.153,-348.626C410.817,-357.238 444.103,-368.407 467.476,-376.251"/>
<polygon fill="midnightblue" stroke="midnightblue" points="385.97,-345.208 375.376,-345.345 383.743,-351.845 385.97,-345.208"/>
</g>
<!-- Node24 -->
<g id="node24" class="node"><title>Node24</title>
<g id="a_node24"><a xlink:href="mxml_8c.xhtml#aef9e08f5651e4905af653c15c6bb0d6e" target="_top" xlink:title="mxml_start_element\l_noindent">
<polygon fill="white" stroke="black" points="444.5,-326.823 444.5,-356.823 549.5,-356.823 549.5,-326.823 444.5,-326.823"/>
<text text-anchor="start" x="452.5" y="-344.823" font-family="Helvetica,sans-Serif" font-size="10.00">mxml_start_element</text>
<text text-anchor="middle" x="497" y="-333.823" font-family="Helvetica,sans-Serif" font-size="10.00">_noindent</text>
</a>
</g>
</g>
<!-- Node21&#45;&gt;Node24 -->
<g id="edge30" class="edge"><title>Node21&#45;&gt;Node24</title>
<path fill="none" stroke="midnightblue" d="M411.521,-338.421C422.396,-338.859 433.56,-339.308 444.064,-339.731"/>
<polygon fill="midnightblue" stroke="midnightblue" points="411.347,-334.911 401.214,-338.006 411.065,-341.905 411.347,-334.911"/>
</g>
<!-- Node25 -->
<g id="node25" class="node"><title>Node25</title>
<g id="a_node25"><a xlink:href="mxml_8c.xhtml#aad3952c0c32fc16aa78fde6faa7bd002" target="_top" xlink:title="mxml_write_subtree">
<polygon fill="white" stroke="black" points="445,-250.323 445,-269.323 549,-269.323 549,-250.323 445,-250.323"/>
<text text-anchor="middle" x="497" y="-257.323" font-family="Helvetica,sans-Serif" font-size="10.00">mxml_write_subtree</text>
</a>
</g>
</g>
<!-- Node21&#45;&gt;Node25 -->
<g id="edge31" class="edge"><title>Node21&#45;&gt;Node25</title>
<path fill="none" stroke="midnightblue" d="M393.173,-322.924C398.253,-321.069 403.287,-319.032 408,-316.823 436.678,-303.379 467.026,-281.878 483.525,-269.483"/>
<polygon fill="midnightblue" stroke="midnightblue" points="391.749,-319.712 383.421,-326.263 394.016,-326.335 391.749,-319.712"/>
</g>
<!-- Node23 -->
<g id="node23" class="node"><title>Node23</title>
<g id="a_node23"><a xlink:href="mxml_8c.xhtml#ac6ccd07b846150067db07ed7086cf7e1" target="_top" xlink:title="mxml_write_element">
<polygon fill="white" stroke="black" points="586.5,-288.323 586.5,-307.323 693.5,-307.323 693.5,-288.323 586.5,-288.323"/>
<text text-anchor="middle" x="640" y="-295.323" font-family="Helvetica,sans-Serif" font-size="10.00">mxml_write_element</text>
</a>
</g>
</g>
<!-- Node22&#45;&gt;Node23 -->
<g id="edge29" class="edge"><title>Node22&#45;&gt;Node23</title>
<path fill="none" stroke="midnightblue" d="M536.658,-372.383C541.246,-370.373 545.789,-368.177 550,-365.823 580.72,-348.647 612.491,-321.766 628.469,-307.49"/>
<polygon fill="midnightblue" stroke="midnightblue" points="535.193,-369.201 527.274,-376.239 537.854,-375.676 535.193,-369.201"/>
</g>
<!-- Node26 -->
<g id="node26" class="node"><title>Node26</title>
<g id="a_node26"><a xlink:href="mxml_8c.xhtml#a6dc934e8374543e6070804f8a5822f5f" target="_top" xlink:title="mxml_write_tree">
<polygon fill="white" stroke="black" points="595.5,-108.323 595.5,-127.323 684.5,-127.323 684.5,-108.323 595.5,-108.323"/>
<text text-anchor="middle" x="640" y="-115.323" font-family="Helvetica,sans-Serif" font-size="10.00">mxml_write_tree</text>
</a>
</g>
</g>
<!-- Node25&#45;&gt;Node26 -->
<g id="edge32" class="edge"><title>Node25&#45;&gt;Node26</title>
<path fill="none" stroke="midnightblue" d="M514.874,-242.829C544.63,-212.862 605.524,-151.536 629.241,-127.651"/>
<polygon fill="midnightblue" stroke="midnightblue" points="512.254,-240.5 507.692,-250.062 517.221,-245.432 512.254,-240.5"/>
</g>
<!-- Node27&#45;&gt;Node25 -->
<g id="edge34" class="edge"><title>Node27&#45;&gt;Node25</title>
<path fill="none" stroke="midnightblue" d="M409.718,-259.823C421.462,-259.823 433.606,-259.823 444.944,-259.823"/>
<polygon fill="midnightblue" stroke="midnightblue" points="409.532,-256.323 399.532,-259.823 409.532,-263.323 409.532,-256.323"/>
</g>
<!-- Node28&#45;&gt;Node23 -->
<g id="edge36" class="edge"><title>Node28&#45;&gt;Node23</title>
<path fill="none" stroke="midnightblue" d="M403.817,-297.823C456.709,-297.823 534.914,-297.823 586.404,-297.823"/>
<polygon fill="midnightblue" stroke="midnightblue" points="403.591,-294.323 393.591,-297.823 403.591,-301.323 403.591,-294.323"/>
</g>
<!-- Node28&#45;&gt;Node25 -->
<g id="edge37" class="edge"><title>Node28&#45;&gt;Node25</title>
<path fill="none" stroke="midnightblue" d="M394.492,-285.711C415.244,-280.418 439.228,-274.301 458.671,-269.343"/>
<polygon fill="midnightblue" stroke="midnightblue" points="393.424,-282.371 384.599,-288.234 395.154,-289.154 393.424,-282.371"/>
</g>
<!-- Node29&#45;&gt;Node5 -->
<g id="edge39" class="edge"><title>Node29&#45;&gt;Node5</title>
<path fill="none" stroke="midnightblue" d="M526.472,-469.958C554.12,-483.684 595.348,-504.152 619.471,-516.127"/>
<polygon fill="midnightblue" stroke="midnightblue" points="527.823,-466.721 517.31,-465.409 524.71,-472.991 527.823,-466.721"/>
</g>
<!-- Node31&#45;&gt;Node3 -->
<g id="edge43" class="edge"><title>Node31&#45;&gt;Node3</title>
<path fill="none" stroke="midnightblue" d="M255.544,-636.696C351.994,-632.703 515.772,-625.924 594.347,-622.671"/>
<polygon fill="midnightblue" stroke="midnightblue" points="255.123,-633.21 245.276,-637.121 255.412,-640.204 255.123,-633.21"/>
</g>
<!-- Node32 -->
<g id="node32" class="node"><title>Node32</title>
<g id="a_node32"><a xlink:href="mxml_8c.xhtml#a36703bf078c15dde39a9e23147bd0423" target="_top" xlink:title="mxml_replace_subvalue">
<polygon fill="white" stroke="black" points="285,-668.323 285,-687.323 407,-687.323 407,-668.323 285,-668.323"/>
<text text-anchor="middle" x="346" y="-675.323" font-family="Helvetica,sans-Serif" font-size="10.00">mxml_replace_subvalue</text>
</a>
</g>
</g>
<!-- Node31&#45;&gt;Node32 -->
<g id="edge42" class="edge"><title>Node31&#45;&gt;Node32</title>
<path fill="none" stroke="midnightblue" d="M231.654,-651.719C254.846,-657.06 281.838,-663.276 303.663,-668.303"/>
<polygon fill="midnightblue" stroke="midnightblue" points="232.167,-648.245 221.636,-649.412 230.596,-655.067 232.167,-648.245"/>
</g>
<!-- Node33&#45;&gt;Node21 -->
<g id="edge49" class="edge"><title>Node33&#45;&gt;Node21</title>
<path fill="none" stroke="midnightblue" d="M195.295,-220.058C222.872,-251.066 278.579,-313.374 284,-316.823 289.99,-320.633 296.797,-323.726 303.639,-326.222"/>
<polygon fill="midnightblue" stroke="midnightblue" points="197.891,-217.71 188.632,-212.559 192.658,-222.36 197.891,-217.71"/>
</g>
<!-- Node33&#45;&gt;Node27 -->
<g id="edge56" class="edge"><title>Node33&#45;&gt;Node27</title>
<path fill="none" stroke="midnightblue" d="M214.496,-215.902C234.672,-223.433 260.683,-232.937 284,-240.823 293.457,-244.021 303.804,-247.319 313.246,-250.251"/>
<polygon fill="midnightblue" stroke="midnightblue" points="215.69,-212.612 205.098,-212.379 213.233,-219.166 215.69,-212.612"/>
</g>
<!-- Node33&#45;&gt;Node28 -->
<g id="edge57" class="edge"><title>Node33&#45;&gt;Node28</title>
<path fill="none" stroke="midnightblue" d="M205.944,-217.734C218.939,-225.572 234.697,-235.649 248,-245.823 265.241,-259.008 265.185,-268.001 284,-278.823 290.538,-282.583 297.907,-285.687 305.204,-288.216"/>
<polygon fill="midnightblue" stroke="midnightblue" points="207.43,-214.546 197.044,-212.453 203.857,-220.566 207.43,-214.546"/>
</g>
<!-- Node34 -->
<g id="node34" class="node"><title>Node34</title>
<g id="a_node34"><a xlink:href="mxml_8c.xhtml#a583d65e147d93c0e1b11fcf7557f3466" target="_top" xlink:title="mxml_open_buffer">
<polygon fill="white" stroke="black" points="297.5,-136.323 297.5,-155.323 394.5,-155.323 394.5,-136.323 297.5,-136.323"/>
<text text-anchor="middle" x="346" y="-143.323" font-family="Helvetica,sans-Serif" font-size="10.00">mxml_open_buffer</text>
</a>
</g>
</g>
<!-- Node33&#45;&gt;Node34 -->
<g id="edge46" class="edge"><title>Node33&#45;&gt;Node34</title>
<path fill="none" stroke="midnightblue" d="M224.011,-190.427C232.027,-188.013 240.29,-185.422 248,-182.823 261.749,-178.187 296.57,-164.747 320.52,-155.412"/>
<polygon fill="midnightblue" stroke="midnightblue" points="223.003,-187.075 214.409,-193.271 224.991,-193.786 223.003,-187.075"/>
</g>
<!-- Node35 -->
<g id="node35" class="node"><title>Node35</title>
<g id="a_node35"><a xlink:href="mxml_8c.xhtml#a63bf060bd7ed517fed1d2399c253f4d8" target="_top" xlink:title="mxml_open_file">
<polygon fill="white" stroke="black" points="454.5,-13.3226 454.5,-32.3226 539.5,-32.3226 539.5,-13.3226 454.5,-13.3226"/>
<text text-anchor="middle" x="497" y="-20.3226" font-family="Helvetica,sans-Serif" font-size="10.00">mxml_open_file</text>
</a>
</g>
</g>
<!-- Node33&#45;&gt;Node35 -->
<g id="edge47" class="edge"><title>Node33&#45;&gt;Node35</title>
<path fill="none" stroke="midnightblue" d="M232.187,-193.908C238.09,-191.134 243.566,-187.521 248,-182.823 296.541,-131.389 229.145,-72.4618 284,-27.8226 335.971,14.4699 421.197,-0.84512 466.126,-13.2329"/>
<polygon fill="midnightblue" stroke="midnightblue" points="230.702,-190.73 222.647,-197.613 233.236,-197.255 230.702,-190.73"/>
</g>
<!-- Node36 -->
<g id="node36" class="node"><title>Node36</title>
<g id="a_node36"><a xlink:href="mxml_8c.xhtml#a31efd9013ec552f43c6ff48c46be7a49" target="_top" xlink:title="mxml_end_element">
<polygon fill="white" stroke="black" points="295.5,-212.323 295.5,-231.323 396.5,-231.323 396.5,-212.323 295.5,-212.323"/>
<text text-anchor="middle" x="346" y="-219.323" font-family="Helvetica,sans-Serif" font-size="10.00">mxml_end_element</text>
</a>
</g>
</g>
<!-- Node33&#45;&gt;Node36 -->
<g id="edge50" class="edge"><title>Node33&#45;&gt;Node36</title>
<path fill="none" stroke="midnightblue" d="M233.086,-208.936C253.042,-211.234 275.639,-213.836 295.278,-216.097"/>
<polygon fill="midnightblue" stroke="midnightblue" points="233.256,-205.432 222.921,-207.765 232.455,-212.386 233.256,-205.432"/>
</g>
<!-- Node37 -->
<g id="node37" class="node"><title>Node37</title>
<g id="a_node37"><a xlink:href="mxml_8c.xhtml#aa17f561601949f624351a45b2b3a7678" target="_top" xlink:title="mxml_close_buffer">
<polygon fill="white" stroke="black" points="447.5,-174.323 447.5,-193.323 546.5,-193.323 546.5,-174.323 447.5,-174.323"/>
<text text-anchor="middle" x="497" y="-181.323" font-family="Helvetica,sans-Serif" font-size="10.00">mxml_close_buffer</text>
</a>
</g>
</g>
<!-- Node33&#45;&gt;Node37 -->
<g id="edge60" class="edge"><title>Node33&#45;&gt;Node37</title>
<path fill="none" stroke="midnightblue" d="M232.609,-199.659C292.407,-196.064 389.228,-190.242 447.336,-186.749"/>
<polygon fill="midnightblue" stroke="midnightblue" points="232.389,-196.166 222.617,-200.26 232.809,-203.154 232.389,-196.166"/>
</g>
<!-- Node38 -->
<g id="node38" class="node"><title>Node38</title>
<g id="a_node38"><a xlink:href="mxml_8c.xhtml#a7409705a71ea5d17f3746cd1c49c3b00" target="_top" xlink:title="mxml_close_file">
<polygon fill="white" stroke="black" points="453.5,-108.323 453.5,-127.323 540.5,-127.323 540.5,-108.323 453.5,-108.323"/>
<text text-anchor="middle" x="497" y="-115.323" font-family="Helvetica,sans-Serif" font-size="10.00">mxml_close_file</text>
</a>
</g>
</g>
<!-- Node33&#45;&gt;Node38 -->
<g id="edge61" class="edge"><title>Node33&#45;&gt;Node38</title>
<path fill="none" stroke="midnightblue" d="M232.242,-193.643C238.088,-190.909 243.534,-187.378 248,-182.823 290.571,-139.4 235.674,-87.7335 284,-50.8226 327.797,-17.3705 355.78,-33.206 408,-50.8226 441.842,-62.2393 472.962,-92.435 487.45,-108.095"/>
<polygon fill="midnightblue" stroke="midnightblue" points="230.858,-190.426 222.81,-197.316 233.398,-196.949 230.858,-190.426"/>
</g>
<!-- Node39 -->
<g id="node39" class="node"><title>Node39</title>
<g id="a_node39"><a xlink:href="mxml_8c.xhtml#a7e98c804d073207620d0f53f323c9187" target="_top" xlink:title="mxml_write_empty_line">
<polygon fill="white" stroke="black" points="286.5,-98.3226 286.5,-117.323 405.5,-117.323 405.5,-98.3226 286.5,-98.3226"/>
<text text-anchor="middle" x="346" y="-105.323" font-family="Helvetica,sans-Serif" font-size="10.00">mxml_write_empty_line</text>
</a>
</g>
</g>
<!-- Node33&#45;&gt;Node39 -->
<g id="edge58" class="edge"><title>Node33&#45;&gt;Node39</title>
<path fill="none" stroke="midnightblue" d="M232.345,-191.687C237.916,-189.285 243.267,-186.367 248,-182.823 271.684,-165.087 260.458,-144.746 284,-126.823 289.119,-122.926 295.049,-119.819 301.161,-117.345"/>
<polygon fill="midnightblue" stroke="midnightblue" points="230.961,-188.468 222.832,-195.263 233.424,-195.021 230.961,-188.468"/>
</g>
<!-- Node40 -->
<g id="node40" class="node"><title>Node40</title>
<g id="a_node40"><a xlink:href="mxml_8c.xhtml#a0a19bf18872be208ce64434f62509f22" target="_top" xlink:title="mxml_write_comment">
<polygon fill="white" stroke="black" points="289.5,-60.3226 289.5,-79.3226 402.5,-79.3226 402.5,-60.3226 289.5,-60.3226"/>
<text text-anchor="middle" x="346" y="-67.3226" font-family="Helvetica,sans-Serif" font-size="10.00">mxml_write_comment</text>
</a>
</g>
</g>
<!-- Node33&#45;&gt;Node40 -->
<g id="edge59" class="edge"><title>Node33&#45;&gt;Node40</title>
<path fill="none" stroke="midnightblue" d="M232.045,-193.107C237.876,-190.46 243.372,-187.096 248,-182.823 280.869,-152.474 251.374,-119.431 284,-88.8226 288.126,-84.9522 293.028,-81.8698 298.235,-79.415"/>
<polygon fill="midnightblue" stroke="midnightblue" points="230.76,-189.851 222.68,-196.705 233.27,-196.385 230.76,-189.851"/>
</g>
<!-- Node35&#45;&gt;Node26 -->
<g id="edge48" class="edge"><title>Node35&#45;&gt;Node26</title>
<path fill="none" stroke="midnightblue" d="M520.669,-38.0964C549.976,-57.8417 600.149,-91.6463 624.666,-108.165"/>
<polygon fill="midnightblue" stroke="midnightblue" points="522.545,-35.1396 512.296,-32.4545 518.633,-40.9449 522.545,-35.1396"/>
</g>
<!-- Node36&#45;&gt;Node23 -->
<g id="edge54" class="edge"><title>Node36&#45;&gt;Node23</title>
<path fill="none" stroke="midnightblue" d="M406.937,-220.076C448.204,-220.629 503.717,-224.893 550,-240.823 580.883,-251.452 611.847,-274.857 627.849,-288.133"/>
<polygon fill="midnightblue" stroke="midnightblue" points="406.789,-216.575 396.767,-220.01 406.744,-223.574 406.789,-216.575"/>
</g>
<!-- Node36&#45;&gt;Node25 -->
<g id="edge55" class="edge"><title>Node36&#45;&gt;Node25</title>
<path fill="none" stroke="midnightblue" d="M394.492,-233.935C415.244,-239.227 439.228,-245.344 458.671,-250.303"/>
<polygon fill="midnightblue" stroke="midnightblue" points="395.154,-230.492 384.599,-231.412 393.424,-237.274 395.154,-230.492"/>
</g>
<!-- Node36&#45;&gt;Node37 -->
<g id="edge51" class="edge"><title>Node36&#45;&gt;Node37</title>
<path fill="none" stroke="midnightblue" d="M394.492,-209.711C415.244,-204.418 439.228,-198.301 458.671,-193.343"/>
<polygon fill="midnightblue" stroke="midnightblue" points="393.424,-206.371 384.599,-212.234 395.154,-213.154 393.424,-206.371"/>
</g>
<!-- Node36&#45;&gt;Node38 -->
<g id="edge52" class="edge"><title>Node36&#45;&gt;Node38</title>
<path fill="none" stroke="midnightblue" d="M369.23,-206.306C400.484,-184.492 456.474,-145.411 482.283,-127.397"/>
<polygon fill="midnightblue" stroke="midnightblue" points="366.947,-203.631 360.75,-212.225 370.954,-209.371 366.947,-203.631"/>
</g>
<!-- Node38&#45;&gt;Node26 -->
<g id="edge53" class="edge"><title>Node38&#45;&gt;Node26</title>
<path fill="none" stroke="midnightblue" d="M550.692,-117.823C565.45,-117.823 581.322,-117.823 595.483,-117.823"/>
<polygon fill="midnightblue" stroke="midnightblue" points="550.687,-114.323 540.687,-117.823 550.687,-121.323 550.687,-114.323"/>
</g>
</g>
</svg>
