<?xml version="1.0" encoding="UTF-8" standalone="no"?>
<!DOCTYPE svg PUBLIC "-//W3C//DTD SVG 1.1//EN"
 "http://www.w3.org/Graphics/SVG/1.1/DTD/svg11.dtd">
<!-- Generated by graphviz version 2.36.0 (20140111.2315)
 -->
<!-- Title: mxml_add_resultnode Pages: 1 -->
<svg width="390pt" height="123pt"
 viewBox="0.00 0.00 390.00 123.00" xmlns="http://www.w3.org/2000/svg" xmlns:xlink="http://www.w3.org/1999/xlink">
<g id="graph0" class="graph" transform="scale(1 1) rotate(0) translate(4 119)">
<title>mxml_add_resultnode</title>
<polygon fill="white" stroke="none" points="-4,4 -4,-119 386,-119 386,4 -4,4"/>
<!-- Node1 -->
<g id="node1" class="node"><title>Node1</title>
<polygon fill="#bfbfbf" stroke="black" points="0,-57.5 0,-76.5 112,-76.5 112,-57.5 0,-57.5"/>
<text text-anchor="middle" x="56" y="-64.5" font-family="Helvetica,sans-Serif" font-size="10.00">mxml_add_resultnode</text>
</g>
<!-- Node2 -->
<g id="node2" class="node"><title>Node2</title>
<g id="a_node2"><a xlink:href="mxml_8c.xhtml#ab4b547074c15b19eae1b6f16050c75d9" target="_top" xlink:title="mxml_find_nodes1">
<polygon fill="white" stroke="black" points="148,-76.5 148,-95.5 246,-95.5 246,-76.5 148,-76.5"/>
<text text-anchor="middle" x="197" y="-83.5" font-family="Helvetica,sans-Serif" font-size="10.00">mxml_find_nodes1</text>
</a>
</g>
</g>
<!-- Node1&#45;&gt;Node2 -->
<g id="edge1" class="edge"><title>Node1&#45;&gt;Node2</title>
<path fill="none" stroke="midnightblue" d="M112.336,-67.9401C127.298,-69.7153 143.174,-72.0486 157.03,-74.539"/>
<polygon fill="midnightblue" stroke="midnightblue" points="156.706,-78.0399 167.183,-76.4673 158.012,-71.1628 156.706,-78.0399"/>
</g>
<!-- Node5 -->
<g id="node5" class="node"><title>Node5</title>
<g id="a_node5"><a xlink:href="mxml_8c.xhtml#a4b4f0fef6a18999e79e85a0bff15f122" target="_top" xlink:title="mxml_malloc">
<polygon fill="white" stroke="black" points="160,-38.5 160,-57.5 234,-57.5 234,-38.5 160,-38.5"/>
<text text-anchor="middle" x="197" y="-45.5" font-family="Helvetica,sans-Serif" font-size="10.00">mxml_malloc</text>
</a>
</g>
</g>
<!-- Node1&#45;&gt;Node5 -->
<g id="edge5" class="edge"><title>Node1&#45;&gt;Node5</title>
<path fill="none" stroke="midnightblue" d="M112.336,-59.4361C124.633,-57.7553 137.547,-55.99 149.45,-54.363"/>
<polygon fill="midnightblue" stroke="midnightblue" points="150.175,-57.7965 159.608,-52.9744 149.227,-50.861 150.175,-57.7965"/>
</g>
<!-- Node6 -->
<g id="node6" class="node"><title>Node6</title>
<g id="a_node6"><a xlink:href="mxml_8c.xhtml#a2bbe1e8a7d3c830714bdfa50d3658ef8" target="_top" xlink:title="mxml_realloc">
<polygon fill="white" stroke="black" points="160,-0.5 160,-19.5 234,-19.5 234,-0.5 160,-0.5"/>
<text text-anchor="middle" x="197" y="-7.5" font-family="Helvetica,sans-Serif" font-size="10.00">mxml_realloc</text>
</a>
</g>
</g>
<!-- Node1&#45;&gt;Node6 -->
<g id="edge6" class="edge"><title>Node1&#45;&gt;Node6</title>
<path fill="none" stroke="midnightblue" d="M79.7641,-57.3557C98.142,-49.6031 124.687,-38.4808 148,-29 152.535,-27.1557 157.32,-25.2334 162.042,-23.3504"/>
<polygon fill="midnightblue" stroke="midnightblue" points="163.543,-26.5205 171.546,-19.5779 160.96,-20.0144 163.543,-26.5205"/>
</g>
<!-- Node2&#45;&gt;Node1 -->
<g id="edge4" class="edge"><title>Node2&#45;&gt;Node1</title>
<path fill="none" stroke="midnightblue" d="M147.807,-85.8722C130.854,-84.0306 112.03,-81.3484 95.9355,-78.4549"/>
<polygon fill="midnightblue" stroke="midnightblue" points="96.2784,-74.9575 85.8009,-76.5295 94.9719,-81.8345 96.2784,-74.9575"/>
</g>
<!-- Node3 -->
<g id="node3" class="node"><title>Node3</title>
<g id="a_node3"><a xlink:href="strlcpy_8h.xhtml#af8c865b1f481801d8d1f0a8644be4bbc" target="_top" xlink:title="strlcpy">
<polygon fill="white" stroke="black" points="309,-95.5 309,-114.5 355,-114.5 355,-95.5 309,-95.5"/>
<text text-anchor="middle" x="332" y="-102.5" font-family="Helvetica,sans-Serif" font-size="10.00">strlcpy</text>
</a>
</g>
</g>
<!-- Node2&#45;&gt;Node3 -->
<g id="edge2" class="edge"><title>Node2&#45;&gt;Node3</title>
<path fill="none" stroke="midnightblue" d="M246.016,-92.8594C263.427,-95.3467 282.675,-98.0964 298.443,-100.349"/>
<polygon fill="midnightblue" stroke="midnightblue" points="298.344,-103.87 308.739,-101.82 299.334,-96.9407 298.344,-103.87"/>
</g>
<!-- Node4 -->
<g id="node4" class="node"><title>Node4</title>
<g id="a_node4"><a xlink:href="mxml_8c.xhtml#afaf8076733bb1e0a00b2f3248d180bbd" target="_top" xlink:title="mxml_get_attribute">
<polygon fill="white" stroke="black" points="282,-57.5 282,-76.5 382,-76.5 382,-57.5 282,-57.5"/>
<text text-anchor="middle" x="332" y="-64.5" font-family="Helvetica,sans-Serif" font-size="10.00">mxml_get_attribute</text>
</a>
</g>
</g>
<!-- Node2&#45;&gt;Node4 -->
<g id="edge3" class="edge"><title>Node2&#45;&gt;Node4</title>
<path fill="none" stroke="midnightblue" d="M246.016,-79.1406C254.359,-77.9487 263.123,-76.6967 271.725,-75.4679"/>
<polygon fill="midnightblue" stroke="midnightblue" points="272.307,-78.9203 281.712,-74.0412 271.317,-71.9906 272.307,-78.9203"/>
</g>
</g>
</svg>
