<?xml version="1.0" encoding="UTF-8" standalone="no"?>
<!DOCTYPE svg PUBLIC "-//W3C//DTD SVG 1.1//EN"
 "http://www.w3.org/Graphics/SVG/1.1/DTD/svg11.dtd">
<!-- Generated by graphviz version 2.36.0 (20140111.2315)
 -->
<!-- Title: mxml_write_subtree Pages: 1 -->
<svg width="606pt" height="231pt"
 viewBox="0.00 0.00 606.00 230.83" xmlns="http://www.w3.org/2000/svg" xmlns:xlink="http://www.w3.org/1999/xlink">
<g id="graph0" class="graph" transform="scale(1 1) rotate(0) translate(4 226.827)">
<title>mxml_write_subtree</title>
<polygon fill="white" stroke="none" points="-4,4 -4,-226.827 602,-226.827 602,4 -4,4"/>
<!-- Node1 -->
<g id="node1" class="node"><title>Node1</title>
<polygon fill="#bfbfbf" stroke="black" points="0,-133.5 0,-152.5 104,-152.5 104,-133.5 0,-133.5"/>
<text text-anchor="middle" x="52" y="-140.5" font-family="Helvetica,sans-Serif" font-size="10.00">mxml_write_subtree</text>
</g>
<!-- Node2 -->
<g id="node2" class="node"><title>Node2</title>
<g id="a_node2"><a xlink:href="mxml_8c.xhtml#a31efd9013ec552f43c6ff48c46be7a49" target="_top" xlink:title="mxml_end_element">
<polygon fill="white" stroke="black" points="144.5,-190.5 144.5,-209.5 245.5,-209.5 245.5,-190.5 144.5,-190.5"/>
<text text-anchor="middle" x="195" y="-197.5" font-family="Helvetica,sans-Serif" font-size="10.00">mxml_end_element</text>
</a>
</g>
</g>
<!-- Node1&#45;&gt;Node2 -->
<g id="edge1" class="edge"><title>Node1&#45;&gt;Node2</title>
<path fill="none" stroke="midnightblue" d="M73.9149,-152.651C91.4258,-160.607 117.149,-172.003 140,-181 145.144,-183.025 150.602,-185.067 155.995,-187.023"/>
<polygon fill="midnightblue" stroke="midnightblue" points="154.955,-190.368 165.549,-190.429 157.305,-183.775 154.955,-190.368"/>
</g>
<!-- Node7 -->
<g id="node7" class="node"><title>Node7</title>
<g id="a_node7"><a xlink:href="mxml_8c.xhtml#a43879e9508767beaf57424ec1393f661" target="_top" xlink:title="mxml_start_element1">
<polygon fill="white" stroke="black" points="140,-114.5 140,-133.5 250,-133.5 250,-114.5 140,-114.5"/>
<text text-anchor="middle" x="195" y="-121.5" font-family="Helvetica,sans-Serif" font-size="10.00">mxml_start_element1</text>
</a>
</g>
</g>
<!-- Node1&#45;&gt;Node7 -->
<g id="edge6" class="edge"><title>Node1&#45;&gt;Node7</title>
<path fill="none" stroke="midnightblue" d="M104.303,-136.087C112.566,-134.973 121.21,-133.809 129.731,-132.66"/>
<polygon fill="midnightblue" stroke="midnightblue" points="130.205,-136.128 139.648,-131.324 129.27,-129.191 130.205,-136.128"/>
</g>
<!-- Node12 -->
<g id="node12" class="node"><title>Node12</title>
<g id="a_node12"><a xlink:href="mxml_8c.xhtml#a7745af802a053bde67f77555ab47a17b" target="_top" xlink:title="mxml_write_attribute">
<polygon fill="white" stroke="black" points="141.5,-152.5 141.5,-171.5 248.5,-171.5 248.5,-152.5 141.5,-152.5"/>
<text text-anchor="middle" x="195" y="-159.5" font-family="Helvetica,sans-Serif" font-size="10.00">mxml_write_attribute</text>
</a>
</g>
</g>
<!-- Node1&#45;&gt;Node12 -->
<g id="edge18" class="edge"><title>Node1&#45;&gt;Node12</title>
<path fill="none" stroke="midnightblue" d="M104.303,-149.913C112.999,-151.085 122.117,-152.314 131.07,-153.52"/>
<polygon fill="midnightblue" stroke="midnightblue" points="130.699,-157.002 141.077,-154.869 131.634,-150.064 130.699,-157.002"/>
</g>
<!-- Node13 -->
<g id="node13" class="node"><title>Node13</title>
<g id="a_node13"><a xlink:href="mxml_8c.xhtml#a9cf33f3456fea00ea438422ebb7bd6be" target="_top" xlink:title="mxml_write_value">
<polygon fill="white" stroke="black" points="147.5,-76.5 147.5,-95.5 242.5,-95.5 242.5,-76.5 147.5,-76.5"/>
<text text-anchor="middle" x="195" y="-83.5" font-family="Helvetica,sans-Serif" font-size="10.00">mxml_write_value</text>
</a>
</g>
</g>
<!-- Node1&#45;&gt;Node13 -->
<g id="edge21" class="edge"><title>Node1&#45;&gt;Node13</title>
<path fill="none" stroke="midnightblue" d="M73.9149,-133.349C91.4258,-125.393 117.149,-113.997 140,-105 145.144,-102.975 150.602,-100.933 155.995,-98.9766"/>
<polygon fill="midnightblue" stroke="midnightblue" points="157.305,-102.225 165.549,-95.5707 154.955,-95.6317 157.305,-102.225"/>
</g>
<!-- Node3 -->
<g id="node3" class="node"><title>Node3</title>
<g id="a_node3"><a xlink:href="mxml_8c.xhtml#abca607b102fe0f2c063f39eb0259994c" target="_top" xlink:title="mxml_free">
<polygon fill="white" stroke="black" points="536,-152.5 536,-171.5 598,-171.5 598,-152.5 536,-152.5"/>
<text text-anchor="middle" x="567" y="-159.5" font-family="Helvetica,sans-Serif" font-size="10.00">mxml_free</text>
</a>
</g>
</g>
<!-- Node2&#45;&gt;Node3 -->
<g id="edge2" class="edge"><title>Node2&#45;&gt;Node3</title>
<path fill="none" stroke="midnightblue" d="M232.508,-209.509C248.761,-213.274 268.211,-217.143 286,-219 324.9,-223.061 335.295,-224.624 374,-219 431.015,-210.716 494.658,-189.277 532.464,-175.182"/>
<polygon fill="midnightblue" stroke="midnightblue" points="533.84,-178.404 541.957,-171.594 531.366,-171.856 533.84,-178.404"/>
</g>
<!-- Node4 -->
<g id="node4" class="node"><title>Node4</title>
<g id="a_node4"><a xlink:href="mxml_8c.xhtml#a51b3bd43da7f4331d38ed5593953610a" target="_top" xlink:title="mxml_write_line">
<polygon fill="white" stroke="black" points="286.5,-152.5 286.5,-171.5 373.5,-171.5 373.5,-152.5 286.5,-152.5"/>
<text text-anchor="middle" x="330" y="-159.5" font-family="Helvetica,sans-Serif" font-size="10.00">mxml_write_line</text>
</a>
</g>
</g>
<!-- Node2&#45;&gt;Node4 -->
<g id="edge3" class="edge"><title>Node2&#45;&gt;Node4</title>
<path fill="none" stroke="midnightblue" d="M229.562,-190.411C246.573,-185.551 267.432,-179.591 285.645,-174.387"/>
<polygon fill="midnightblue" stroke="midnightblue" points="286.796,-177.699 295.449,-171.586 284.872,-170.968 286.796,-177.699"/>
</g>
<!-- Node6 -->
<g id="node6" class="node"><title>Node6</title>
<g id="a_node6"><a xlink:href="strlcpy_8h.xhtml#aa031012870e97fea95c0b78d51b4471b" target="_top" xlink:title="strlcat">
<polygon fill="white" stroke="black" points="308,-190.5 308,-209.5 352,-209.5 352,-190.5 308,-190.5"/>
<text text-anchor="middle" x="330" y="-197.5" font-family="Helvetica,sans-Serif" font-size="10.00">strlcat</text>
</a>
</g>
</g>
<!-- Node2&#45;&gt;Node6 -->
<g id="edge5" class="edge"><title>Node2&#45;&gt;Node6</title>
<path fill="none" stroke="midnightblue" d="M245.524,-200C263.046,-200 282.254,-200 297.822,-200"/>
<polygon fill="midnightblue" stroke="midnightblue" points="297.953,-203.5 307.953,-200 297.953,-196.5 297.953,-203.5"/>
</g>
<!-- Node5 -->
<g id="node5" class="node"><title>Node5</title>
<g id="a_node5"><a xlink:href="mxml_8c.xhtml#a2bbe1e8a7d3c830714bdfa50d3658ef8" target="_top" xlink:title="mxml_realloc">
<polygon fill="white" stroke="black" points="418,-114.5 418,-133.5 492,-133.5 492,-114.5 418,-114.5"/>
<text text-anchor="middle" x="455" y="-121.5" font-family="Helvetica,sans-Serif" font-size="10.00">mxml_realloc</text>
</a>
</g>
</g>
<!-- Node4&#45;&gt;Node5 -->
<g id="edge4" class="edge"><title>Node4&#45;&gt;Node5</title>
<path fill="none" stroke="midnightblue" d="M362.038,-152.411C377.479,-147.641 396.348,-141.811 412.966,-136.677"/>
<polygon fill="midnightblue" stroke="midnightblue" points="414.451,-139.882 422.972,-133.586 412.384,-133.194 414.451,-139.882"/>
</g>
<!-- Node7&#45;&gt;Node4 -->
<g id="edge15" class="edge"><title>Node7&#45;&gt;Node4</title>
<path fill="none" stroke="midnightblue" d="M229.562,-133.589C246.573,-138.449 267.432,-144.409 285.645,-149.613"/>
<polygon fill="midnightblue" stroke="midnightblue" points="284.872,-153.032 295.449,-152.414 286.796,-146.301 284.872,-153.032"/>
</g>
<!-- Node7&#45;&gt;Node5 -->
<g id="edge14" class="edge"><title>Node7&#45;&gt;Node5</title>
<path fill="none" stroke="midnightblue" d="M250.085,-124C296.732,-124 363.379,-124 407.629,-124"/>
<polygon fill="midnightblue" stroke="midnightblue" points="407.817,-127.5 417.817,-124 407.817,-120.5 407.817,-127.5"/>
</g>
<!-- Node7&#45;&gt;Node6 -->
<g id="edge16" class="edge"><title>Node7&#45;&gt;Node6</title>
<path fill="none" stroke="midnightblue" d="M230.852,-133.52C237.481,-136.079 244.163,-139.214 250,-143 269.519,-155.659 266.988,-167.592 286,-181 289.96,-183.793 294.396,-186.312 298.875,-188.535"/>
<polygon fill="midnightblue" stroke="midnightblue" points="297.436,-191.725 307.988,-192.673 300.33,-185.351 297.436,-191.725"/>
</g>
<!-- Node8 -->
<g id="node8" class="node"><title>Node8</title>
<g id="a_node8"><a xlink:href="mxml_8c.xhtml#acd5df9d9cc5b5f2f75c06585d7867488" target="_top" xlink:title="mxml_encode">
<polygon fill="white" stroke="black" points="291.5,-76.5 291.5,-95.5 368.5,-95.5 368.5,-76.5 291.5,-76.5"/>
<text text-anchor="middle" x="330" y="-83.5" font-family="Helvetica,sans-Serif" font-size="10.00">mxml_encode</text>
</a>
</g>
</g>
<!-- Node7&#45;&gt;Node8 -->
<g id="edge7" class="edge"><title>Node7&#45;&gt;Node8</title>
<path fill="none" stroke="midnightblue" d="M229.562,-114.411C246.573,-109.551 267.432,-103.591 285.645,-98.3873"/>
<polygon fill="midnightblue" stroke="midnightblue" points="286.796,-101.699 295.449,-95.5859 284.872,-94.9679 286.796,-101.699"/>
</g>
<!-- Node10 -->
<g id="node10" class="node"><title>Node10</title>
<g id="a_node10"><a xlink:href="mxml_8c.xhtml#a4b4f0fef6a18999e79e85a0bff15f122" target="_top" xlink:title="mxml_malloc">
<polygon fill="white" stroke="black" points="418,-0.5 418,-19.5 492,-19.5 492,-0.5 418,-0.5"/>
<text text-anchor="middle" x="455" y="-7.5" font-family="Helvetica,sans-Serif" font-size="10.00">mxml_malloc</text>
</a>
</g>
</g>
<!-- Node7&#45;&gt;Node10 -->
<g id="edge13" class="edge"><title>Node7&#45;&gt;Node10</title>
<path fill="none" stroke="midnightblue" d="M234.135,-114.452C239.82,-111.969 245.33,-108.866 250,-105 274.544,-84.6799 260.055,-61.497 286,-43 321.466,-17.7156 371.375,-10.5646 407.572,-9.07216"/>
<polygon fill="midnightblue" stroke="midnightblue" points="407.965,-12.5626 417.863,-8.78359 407.769,-5.56534 407.965,-12.5626"/>
</g>
<!-- Node11 -->
<g id="node11" class="node"><title>Node11</title>
<g id="a_node11"><a xlink:href="strlcpy_8h.xhtml#af8c865b1f481801d8d1f0a8644be4bbc" target="_top" xlink:title="strlcpy">
<polygon fill="white" stroke="black" points="432,-38.5 432,-57.5 478,-57.5 478,-38.5 432,-38.5"/>
<text text-anchor="middle" x="455" y="-45.5" font-family="Helvetica,sans-Serif" font-size="10.00">strlcpy</text>
</a>
</g>
</g>
<!-- Node7&#45;&gt;Node11 -->
<g id="edge17" class="edge"><title>Node7&#45;&gt;Node11</title>
<path fill="none" stroke="midnightblue" d="M230.852,-114.48C237.481,-111.921 244.163,-108.786 250,-105 269.519,-92.3407 265.18,-77.3807 286,-67 329.327,-45.3978 386.562,-43.7446 421.798,-45.3019"/>
<polygon fill="midnightblue" stroke="midnightblue" points="421.808,-48.8078 431.987,-45.8697 422.197,-41.8186 421.808,-48.8078"/>
</g>
<!-- Node8&#45;&gt;Node5 -->
<g id="edge11" class="edge"><title>Node8&#45;&gt;Node5</title>
<path fill="none" stroke="midnightblue" d="M362.038,-95.589C377.479,-100.359 396.348,-106.189 412.966,-111.323"/>
<polygon fill="midnightblue" stroke="midnightblue" points="412.384,-114.806 422.972,-114.414 414.451,-108.118 412.384,-114.806"/>
</g>
<!-- Node9 -->
<g id="node9" class="node"><title>Node9</title>
<g id="a_node9"><a xlink:href="mxml_8c.xhtml#a2fa2fb9cb281f3461fedf2d47ea81ce1" target="_top" xlink:title="mxml_deallocate">
<polygon fill="white" stroke="black" points="410,-76.5 410,-95.5 500,-95.5 500,-76.5 410,-76.5"/>
<text text-anchor="middle" x="455" y="-83.5" font-family="Helvetica,sans-Serif" font-size="10.00">mxml_deallocate</text>
</a>
</g>
</g>
<!-- Node8&#45;&gt;Node9 -->
<g id="edge8" class="edge"><title>Node8&#45;&gt;Node9</title>
<path fill="none" stroke="midnightblue" d="M368.572,-86C378.322,-86 389.022,-86 399.452,-86"/>
<polygon fill="midnightblue" stroke="midnightblue" points="399.746,-89.5001 409.746,-86 399.746,-82.5001 399.746,-89.5001"/>
</g>
<!-- Node8&#45;&gt;Node10 -->
<g id="edge10" class="edge"><title>Node8&#45;&gt;Node10</title>
<path fill="none" stroke="midnightblue" d="M342.504,-76.4653C357.423,-64.3973 384.555,-43.4448 410,-29 413.229,-27.1669 416.669,-25.3955 420.149,-23.7201"/>
<polygon fill="midnightblue" stroke="midnightblue" points="421.687,-26.8655 429.334,-19.5326 418.784,-20.4961 421.687,-26.8655"/>
</g>
<!-- Node8&#45;&gt;Node11 -->
<g id="edge12" class="edge"><title>Node8&#45;&gt;Node11</title>
<path fill="none" stroke="midnightblue" d="M362.038,-76.411C380.413,-70.7343 403.641,-63.5582 422.155,-57.8384"/>
<polygon fill="midnightblue" stroke="midnightblue" points="423.373,-61.1252 431.895,-54.8293 421.307,-54.4371 423.373,-61.1252"/>
</g>
<!-- Node9&#45;&gt;Node3 -->
<g id="edge9" class="edge"><title>Node9&#45;&gt;Node3</title>
<path fill="none" stroke="midnightblue" d="M481.798,-95.5796C487.948,-98.2828 494.36,-101.464 500,-105 518.271,-116.455 536.642,-132.809 549.346,-145.064"/>
<polygon fill="midnightblue" stroke="midnightblue" points="546.892,-147.559 556.472,-152.084 551.805,-142.573 546.892,-147.559"/>
</g>
<!-- Node12&#45;&gt;Node4 -->
<g id="edge20" class="edge"><title>Node12&#45;&gt;Node4</title>
<path fill="none" stroke="midnightblue" d="M248.565,-162C257.639,-162 267.075,-162 276.156,-162"/>
<polygon fill="midnightblue" stroke="midnightblue" points="276.22,-165.5 286.22,-162 276.22,-158.5 276.22,-165.5"/>
</g>
<!-- Node12&#45;&gt;Node8 -->
<g id="edge19" class="edge"><title>Node12&#45;&gt;Node8</title>
<path fill="none" stroke="midnightblue" d="M228.052,-152.425C235.433,-149.758 243.13,-146.591 250,-143 272.005,-131.497 294.753,-114.441 310.154,-101.985"/>
<polygon fill="midnightblue" stroke="midnightblue" points="312.41,-104.661 317.904,-95.6019 307.96,-99.258 312.41,-104.661"/>
</g>
<!-- Node13&#45;&gt;Node4 -->
<g id="edge22" class="edge"><title>Node13&#45;&gt;Node4</title>
<path fill="none" stroke="midnightblue" d="M228.052,-95.5747C235.433,-98.2422 243.13,-101.409 250,-105 272.005,-116.503 294.753,-133.559 310.154,-146.015"/>
<polygon fill="midnightblue" stroke="midnightblue" points="307.96,-148.742 317.904,-152.398 312.41,-143.339 307.96,-148.742"/>
</g>
<!-- Node13&#45;&gt;Node5 -->
<g id="edge24" class="edge"><title>Node13&#45;&gt;Node5</title>
<path fill="none" stroke="midnightblue" d="M219.285,-76.4465C254.368,-63.5781 322.183,-44.7118 374,-67 395.371,-76.1925 390.932,-91.6721 410,-105 412.511,-106.755 415.209,-108.398 417.989,-109.925"/>
<polygon fill="midnightblue" stroke="midnightblue" points="416.505,-113.095 427.019,-114.403 419.615,-106.824 416.505,-113.095"/>
</g>
<!-- Node13&#45;&gt;Node8 -->
<g id="edge25" class="edge"><title>Node13&#45;&gt;Node8</title>
<path fill="none" stroke="midnightblue" d="M242.517,-86C254.924,-86 268.354,-86 280.846,-86"/>
<polygon fill="midnightblue" stroke="midnightblue" points="281.077,-89.5001 291.077,-86 281.077,-82.5001 281.077,-89.5001"/>
</g>
<!-- Node13&#45;&gt;Node10 -->
<g id="edge23" class="edge"><title>Node13&#45;&gt;Node10</title>
<path fill="none" stroke="midnightblue" d="M220.22,-76.3645C238.208,-69.3935 263.431,-60.0065 286,-53 326.78,-40.3401 373.939,-28.5096 407.893,-20.4753"/>
<polygon fill="midnightblue" stroke="midnightblue" points="409.049,-23.7992 417.984,-18.107 407.449,-16.9844 409.049,-23.7992"/>
</g>
</g>
</svg>
