<?xml version="1.0" encoding="UTF-8" standalone="no"?>
<!DOCTYPE svg PUBLIC "-//W3C//DTD SVG 1.1//EN"
 "http://www.w3.org/Graphics/SVG/1.1/DTD/svg11.dtd">
<!-- Generated by graphviz version 2.36.0 (20140111.2315)
 -->
<!-- Title: mxml_close_buffer Pages: 1 -->
<svg width="480pt" height="104pt"
 viewBox="0.00 0.00 480.00 104.00" xmlns="http://www.w3.org/2000/svg" xmlns:xlink="http://www.w3.org/1999/xlink">
<g id="graph0" class="graph" transform="scale(1 1) rotate(0) translate(4 100)">
<title>mxml_close_buffer</title>
<polygon fill="white" stroke="none" points="-4,4 -4,-100 476,-100 476,4 -4,4"/>
<!-- Node1 -->
<g id="node1" class="node"><title>Node1</title>
<polygon fill="#bfbfbf" stroke="black" points="0.5,-38.5 0.5,-57.5 99.5,-57.5 99.5,-38.5 0.5,-38.5"/>
<text text-anchor="middle" x="50" y="-45.5" font-family="Helvetica,sans-Serif" font-size="10.00">mxml_close_buffer</text>
</g>
<!-- Node2 -->
<g id="node2" class="node"><title>Node2</title>
<g id="a_node2"><a xlink:href="mxml_8c.xhtml#a31efd9013ec552f43c6ff48c46be7a49" target="_top" xlink:title="mxml_end_element">
<polygon fill="white" stroke="black" points="136.5,-38.5 136.5,-57.5 237.5,-57.5 237.5,-38.5 136.5,-38.5"/>
<text text-anchor="middle" x="187" y="-45.5" font-family="Helvetica,sans-Serif" font-size="10.00">mxml_end_element</text>
</a>
</g>
</g>
<!-- Node1&#45;&gt;Node2 -->
<g id="edge1" class="edge"><title>Node1&#45;&gt;Node2</title>
<path fill="none" stroke="midnightblue" d="M99.7381,-48C108.315,-48 117.331,-48 126.169,-48"/>
<polygon fill="midnightblue" stroke="midnightblue" points="126.426,-51.5001 136.426,-48 126.426,-44.5001 126.426,-51.5001"/>
</g>
<!-- Node3 -->
<g id="node3" class="node"><title>Node3</title>
<g id="a_node3"><a xlink:href="mxml_8c.xhtml#abca607b102fe0f2c063f39eb0259994c" target="_top" xlink:title="mxml_free">
<polygon fill="white" stroke="black" points="287,-76.5 287,-95.5 349,-95.5 349,-76.5 287,-76.5"/>
<text text-anchor="middle" x="318" y="-83.5" font-family="Helvetica,sans-Serif" font-size="10.00">mxml_free</text>
</a>
</g>
</g>
<!-- Node1&#45;&gt;Node3 -->
<g id="edge6" class="edge"><title>Node1&#45;&gt;Node3</title>
<path fill="none" stroke="midnightblue" d="M89.3225,-57.5518C103.868,-60.9169 120.63,-64.484 136,-67 183.962,-74.8509 239.632,-80.1268 276.433,-83.0877"/>
<polygon fill="midnightblue" stroke="midnightblue" points="276.511,-86.6044 286.754,-83.8971 277.058,-79.6258 276.511,-86.6044"/>
</g>
<!-- Node4 -->
<g id="node4" class="node"><title>Node4</title>
<g id="a_node4"><a xlink:href="mxml_8c.xhtml#a51b3bd43da7f4331d38ed5593953610a" target="_top" xlink:title="mxml_write_line">
<polygon fill="white" stroke="black" points="274.5,-0.5 274.5,-19.5 361.5,-19.5 361.5,-0.5 274.5,-0.5"/>
<text text-anchor="middle" x="318" y="-7.5" font-family="Helvetica,sans-Serif" font-size="10.00">mxml_write_line</text>
</a>
</g>
</g>
<!-- Node1&#45;&gt;Node4 -->
<g id="edge7" class="edge"><title>Node1&#45;&gt;Node4</title>
<path fill="none" stroke="midnightblue" d="M89.3225,-38.4482C103.868,-35.0831 120.63,-31.516 136,-29 178.854,-21.9853 227.861,-17.0263 264.064,-13.9375"/>
<polygon fill="midnightblue" stroke="midnightblue" points="264.718,-17.3953 274.392,-13.0773 264.136,-10.4195 264.718,-17.3953"/>
</g>
<!-- Node2&#45;&gt;Node3 -->
<g id="edge2" class="edge"><title>Node2&#45;&gt;Node3</title>
<path fill="none" stroke="midnightblue" d="M220.552,-57.589C237.682,-62.635 258.833,-68.8657 276.96,-74.2052"/>
<polygon fill="midnightblue" stroke="midnightblue" points="276.092,-77.5983 286.674,-77.0667 278.07,-70.8836 276.092,-77.5983"/>
</g>
<!-- Node2&#45;&gt;Node4 -->
<g id="edge3" class="edge"><title>Node2&#45;&gt;Node4</title>
<path fill="none" stroke="midnightblue" d="M220.552,-38.411C236.899,-33.5956 256.909,-27.7012 274.457,-22.532"/>
<polygon fill="midnightblue" stroke="midnightblue" points="275.855,-25.7691 284.458,-19.5859 273.877,-19.0543 275.855,-25.7691"/>
</g>
<!-- Node6 -->
<g id="node6" class="node"><title>Node6</title>
<g id="a_node6"><a xlink:href="strlcpy_8h.xhtml#aa031012870e97fea95c0b78d51b4471b" target="_top" xlink:title="strlcat">
<polygon fill="white" stroke="black" points="296,-38.5 296,-57.5 340,-57.5 340,-38.5 296,-38.5"/>
<text text-anchor="middle" x="318" y="-45.5" font-family="Helvetica,sans-Serif" font-size="10.00">strlcat</text>
</a>
</g>
</g>
<!-- Node2&#45;&gt;Node6 -->
<g id="edge5" class="edge"><title>Node2&#45;&gt;Node6</title>
<path fill="none" stroke="midnightblue" d="M237.506,-48C253.586,-48 270.982,-48 285.389,-48"/>
<polygon fill="midnightblue" stroke="midnightblue" points="285.753,-51.5001 295.752,-48 285.752,-44.5001 285.753,-51.5001"/>
</g>
<!-- Node5 -->
<g id="node5" class="node"><title>Node5</title>
<g id="a_node5"><a xlink:href="mxml_8c.xhtml#a2bbe1e8a7d3c830714bdfa50d3658ef8" target="_top" xlink:title="mxml_realloc">
<polygon fill="white" stroke="black" points="398,-0.5 398,-19.5 472,-19.5 472,-0.5 398,-0.5"/>
<text text-anchor="middle" x="435" y="-7.5" font-family="Helvetica,sans-Serif" font-size="10.00">mxml_realloc</text>
</a>
</g>
</g>
<!-- Node4&#45;&gt;Node5 -->
<g id="edge4" class="edge"><title>Node4&#45;&gt;Node5</title>
<path fill="none" stroke="midnightblue" d="M361.822,-10C370.266,-10 379.163,-10 387.716,-10"/>
<polygon fill="midnightblue" stroke="midnightblue" points="387.924,-13.5001 397.924,-10 387.924,-6.5001 387.924,-13.5001"/>
</g>
</g>
</svg>
