<?xml version="1.0" encoding="UTF-8" standalone="no"?>
<!DOCTYPE svg PUBLIC "-//W3C//DTD SVG 1.1//EN"
 "http://www.w3.org/Graphics/SVG/1.1/DTD/svg11.dtd">
<!-- Generated by graphviz version 2.36.0 (20140111.2315)
 -->
<!-- Title: mxml_find_nodes Pages: 1 -->
<svg width="494pt" height="123pt"
 viewBox="0.00 0.00 494.00 123.00" xmlns="http://www.w3.org/2000/svg" xmlns:xlink="http://www.w3.org/1999/xlink">
<g id="graph0" class="graph" transform="scale(1 1) rotate(0) translate(4 119)">
<title>mxml_find_nodes</title>
<polygon fill="white" stroke="none" points="-4,4 -4,-119 490,-119 490,4 -4,4"/>
<!-- Node1 -->
<g id="node1" class="node"><title>Node1</title>
<polygon fill="#bfbfbf" stroke="black" points="0.5,-38.5 0.5,-57.5 93.5,-57.5 93.5,-38.5 0.5,-38.5"/>
<text text-anchor="middle" x="47" y="-45.5" font-family="Helvetica,sans-Serif" font-size="10.00">mxml_find_nodes</text>
</g>
<!-- Node2 -->
<g id="node2" class="node"><title>Node2</title>
<g id="a_node2"><a xlink:href="mxml_8c.xhtml#ab4b547074c15b19eae1b6f16050c75d9" target="_top" xlink:title="mxml_find_nodes1">
<polygon fill="white" stroke="black" points="130,-38.5 130,-57.5 228,-57.5 228,-38.5 130,-38.5"/>
<text text-anchor="middle" x="179" y="-45.5" font-family="Helvetica,sans-Serif" font-size="10.00">mxml_find_nodes1</text>
</a>
</g>
</g>
<!-- Node1&#45;&gt;Node2 -->
<g id="edge1" class="edge"><title>Node1&#45;&gt;Node2</title>
<path fill="none" stroke="midnightblue" d="M93.8331,-48C102.24,-48 111.116,-48 119.827,-48"/>
<polygon fill="midnightblue" stroke="midnightblue" points="119.939,-51.5001 129.939,-48 119.939,-44.5001 119.939,-51.5001"/>
</g>
<!-- Node3 -->
<g id="node3" class="node"><title>Node3</title>
<g id="a_node3"><a xlink:href="strlcpy_8h.xhtml#af8c865b1f481801d8d1f0a8644be4bbc" target="_top" xlink:title="strlcpy">
<polygon fill="white" stroke="black" points="297,-95.5 297,-114.5 343,-114.5 343,-95.5 297,-95.5"/>
<text text-anchor="middle" x="320" y="-102.5" font-family="Helvetica,sans-Serif" font-size="10.00">strlcpy</text>
</a>
</g>
</g>
<!-- Node2&#45;&gt;Node3 -->
<g id="edge2" class="edge"><title>Node2&#45;&gt;Node3</title>
<path fill="none" stroke="midnightblue" d="M199.805,-57.5839C216.687,-65.6024 241.692,-77.1229 264,-86 271.44,-88.9607 279.546,-91.9095 287.192,-94.57"/>
<polygon fill="midnightblue" stroke="midnightblue" points="286.289,-97.96 296.883,-97.878 288.55,-91.3353 286.289,-97.96"/>
</g>
<!-- Node4 -->
<g id="node4" class="node"><title>Node4</title>
<g id="a_node4"><a xlink:href="mxml_8c.xhtml#afaf8076733bb1e0a00b2f3248d180bbd" target="_top" xlink:title="mxml_get_attribute">
<polygon fill="white" stroke="black" points="270,-57.5 270,-76.5 370,-76.5 370,-57.5 270,-57.5"/>
<text text-anchor="middle" x="320" y="-64.5" font-family="Helvetica,sans-Serif" font-size="10.00">mxml_get_attribute</text>
</a>
</g>
</g>
<!-- Node2&#45;&gt;Node4 -->
<g id="edge3" class="edge"><title>Node2&#45;&gt;Node4</title>
<path fill="none" stroke="midnightblue" d="M228.225,-54.592C238.446,-55.989 249.345,-57.4789 259.916,-58.9238"/>
<polygon fill="midnightblue" stroke="midnightblue" points="259.536,-62.4042 269.917,-60.2909 260.484,-55.4687 259.536,-62.4042"/>
</g>
<!-- Node5 -->
<g id="node5" class="node"><title>Node5</title>
<g id="a_node5"><a xlink:href="mxml_8c.xhtml#a6bcd06b8ff582dece9ba510e161284d5" target="_top" xlink:title="mxml_add_resultnode">
<polygon fill="white" stroke="black" points="264,-19.5 264,-38.5 376,-38.5 376,-19.5 264,-19.5"/>
<text text-anchor="middle" x="320" y="-26.5" font-family="Helvetica,sans-Serif" font-size="10.00">mxml_add_resultnode</text>
</a>
</g>
</g>
<!-- Node2&#45;&gt;Node5 -->
<g id="edge4" class="edge"><title>Node2&#45;&gt;Node5</title>
<path fill="none" stroke="midnightblue" d="M208.801,-38.4705C221.847,-35.8429 237.847,-33.2735 253.569,-31.2041"/>
<polygon fill="midnightblue" stroke="midnightblue" points="254.338,-34.6352 263.826,-29.9208 253.469,-27.6894 254.338,-34.6352"/>
</g>
<!-- Node5&#45;&gt;Node2 -->
<g id="edge5" class="edge"><title>Node5&#45;&gt;Node2</title>
<path fill="none" stroke="midnightblue" d="M290.31,-38.5072C275.279,-41.5387 256.306,-44.4944 238.351,-46.6961"/>
<polygon fill="midnightblue" stroke="midnightblue" points="237.756,-43.2415 228.225,-47.8687 238.562,-50.1951 237.756,-43.2415"/>
</g>
<!-- Node6 -->
<g id="node6" class="node"><title>Node6</title>
<g id="a_node6"><a xlink:href="mxml_8c.xhtml#a4b4f0fef6a18999e79e85a0bff15f122" target="_top" xlink:title="mxml_malloc">
<polygon fill="white" stroke="black" points="412,-38.5 412,-57.5 486,-57.5 486,-38.5 412,-38.5"/>
<text text-anchor="middle" x="449" y="-45.5" font-family="Helvetica,sans-Serif" font-size="10.00">mxml_malloc</text>
</a>
</g>
</g>
<!-- Node5&#45;&gt;Node6 -->
<g id="edge6" class="edge"><title>Node5&#45;&gt;Node6</title>
<path fill="none" stroke="midnightblue" d="M376.335,-37.2784C384.888,-38.5581 393.643,-39.8679 401.964,-41.1128"/>
<polygon fill="midnightblue" stroke="midnightblue" points="401.449,-44.5745 411.856,-42.5927 402.484,-37.6515 401.449,-44.5745"/>
</g>
<!-- Node7 -->
<g id="node7" class="node"><title>Node7</title>
<g id="a_node7"><a xlink:href="mxml_8c.xhtml#a2bbe1e8a7d3c830714bdfa50d3658ef8" target="_top" xlink:title="mxml_realloc">
<polygon fill="white" stroke="black" points="412,-0.5 412,-19.5 486,-19.5 486,-0.5 412,-0.5"/>
<text text-anchor="middle" x="449" y="-7.5" font-family="Helvetica,sans-Serif" font-size="10.00">mxml_realloc</text>
</a>
</g>
</g>
<!-- Node5&#45;&gt;Node7 -->
<g id="edge7" class="edge"><title>Node5&#45;&gt;Node7</title>
<path fill="none" stroke="midnightblue" d="M376.335,-20.7216C384.888,-19.4419 393.643,-18.1321 401.964,-16.8872"/>
<polygon fill="midnightblue" stroke="midnightblue" points="402.484,-20.3485 411.856,-15.4073 401.449,-13.4255 402.484,-20.3485"/>
</g>
</g>
</svg>
