<?xml version="1.0" encoding="UTF-8" standalone="no"?>
<!DOCTYPE svg PUBLIC "-//W3C//DTD SVG 1.1//EN"
 "http://www.w3.org/Graphics/SVG/1.1/DTD/svg11.dtd">
<!-- Generated by graphviz version 2.36.0 (20140111.2315)
 -->
<!-- Title: mxml_parse_entity Pages: 1 -->
<svg width="484pt" height="332pt"
 viewBox="0.00 0.00 484.00 332.00" xmlns="http://www.w3.org/2000/svg" xmlns:xlink="http://www.w3.org/1999/xlink">
<g id="graph0" class="graph" transform="scale(1 1) rotate(0) translate(4 328)">
<title>mxml_parse_entity</title>
<polygon fill="white" stroke="none" points="-4,4 -4,-328 480,-328 480,4 -4,4"/>
<!-- Node1 -->
<g id="node1" class="node"><title>Node1</title>
<polygon fill="#bfbfbf" stroke="black" points="0.5,-190.5 0.5,-209.5 99.5,-209.5 99.5,-190.5 0.5,-190.5"/>
<text text-anchor="middle" x="50" y="-197.5" font-family="Helvetica,sans-Serif" font-size="10.00">mxml_parse_entity</text>
</g>
<!-- Node2 -->
<g id="node2" class="node"><title>Node2</title>
<g id="a_node2"><a xlink:href="mxml_8c.xhtml#a9527b7a643d61316ef74abf5bdc713d9" target="_top" xlink:title="mxml_create_root_node">
<polygon fill="white" stroke="black" points="136.5,-304.5 136.5,-323.5 257.5,-323.5 257.5,-304.5 136.5,-304.5"/>
<text text-anchor="middle" x="197" y="-311.5" font-family="Helvetica,sans-Serif" font-size="10.00">mxml_create_root_node</text>
</a>
</g>
</g>
<!-- Node1&#45;&gt;Node2 -->
<g id="edge1" class="edge"><title>Node1&#45;&gt;Node2</title>
<path fill="none" stroke="midnightblue" d="M57.0048,-209.621C69.4089,-228.716 99.7556,-271.574 136,-295 139.169,-297.048 142.574,-298.889 146.095,-300.542"/>
<polygon fill="midnightblue" stroke="midnightblue" points="145.023,-303.887 155.601,-304.491 147.709,-297.422 145.023,-303.887"/>
</g>
<!-- Node3 -->
<g id="node3" class="node"><title>Node3</title>
<g id="a_node3"><a xlink:href="mxml_8c.xhtml#a7afd3209bc7e21e1d797e49190bf2a58" target="_top" xlink:title="mxml_decode">
<polygon fill="white" stroke="black" points="158.5,-266.5 158.5,-285.5 235.5,-285.5 235.5,-266.5 158.5,-266.5"/>
<text text-anchor="middle" x="197" y="-273.5" font-family="Helvetica,sans-Serif" font-size="10.00">mxml_decode</text>
</a>
</g>
</g>
<!-- Node1&#45;&gt;Node3 -->
<g id="edge2" class="edge"><title>Node1&#45;&gt;Node3</title>
<path fill="none" stroke="midnightblue" d="M63.0021,-209.67C78.887,-222.076 108.144,-243.589 136,-257 140.619,-259.224 145.561,-261.271 150.552,-263.131"/>
<polygon fill="midnightblue" stroke="midnightblue" points="149.543,-266.486 160.138,-266.476 151.849,-259.877 149.543,-266.486"/>
</g>
<!-- Node4 -->
<g id="node4" class="node"><title>Node4</title>
<g id="a_node4"><a xlink:href="mxml_8c.xhtml#a3e179d427c1fac226fff12d8ae75fd63" target="_top" xlink:title="mxml_dirname">
<polygon fill="white" stroke="black" points="157,-228.5 157,-247.5 237,-247.5 237,-228.5 157,-228.5"/>
<text text-anchor="middle" x="197" y="-235.5" font-family="Helvetica,sans-Serif" font-size="10.00">mxml_dirname</text>
</a>
</g>
</g>
<!-- Node1&#45;&gt;Node4 -->
<g id="edge3" class="edge"><title>Node1&#45;&gt;Node4</title>
<path fill="none" stroke="midnightblue" d="M87.5896,-209.589C106.465,-214.536 129.686,-220.621 149.788,-225.889"/>
<polygon fill="midnightblue" stroke="midnightblue" points="149.113,-229.33 159.673,-228.48 150.887,-222.559 149.113,-229.33"/>
</g>
<!-- Node5 -->
<g id="node5" class="node"><title>Node5</title>
<g id="a_node5"><a xlink:href="mxml_8c.xhtml#abca607b102fe0f2c063f39eb0259994c" target="_top" xlink:title="mxml_free">
<polygon fill="white" stroke="black" points="414,-114.5 414,-133.5 476,-133.5 476,-114.5 414,-114.5"/>
<text text-anchor="middle" x="445" y="-121.5" font-family="Helvetica,sans-Serif" font-size="10.00">mxml_free</text>
</a>
</g>
</g>
<!-- Node1&#45;&gt;Node5 -->
<g id="edge4" class="edge"><title>Node1&#45;&gt;Node5</title>
<path fill="none" stroke="midnightblue" d="M99.669,-206.611C165.472,-213.484 285.249,-218.606 378,-181 398.682,-172.614 417.429,-154.987 429.612,-141.542"/>
<polygon fill="midnightblue" stroke="midnightblue" points="432.394,-143.676 436.308,-133.83 427.109,-139.086 432.394,-143.676"/>
</g>
<!-- Node6 -->
<g id="node6" class="node"><title>Node6</title>
<g id="a_node6"><a xlink:href="mxml_8c.xhtml#a4b4f0fef6a18999e79e85a0bff15f122" target="_top" xlink:title="mxml_malloc">
<polygon fill="white" stroke="black" points="299,-152.5 299,-171.5 373,-171.5 373,-152.5 299,-152.5"/>
<text text-anchor="middle" x="336" y="-159.5" font-family="Helvetica,sans-Serif" font-size="10.00">mxml_malloc</text>
</a>
</g>
</g>
<!-- Node1&#45;&gt;Node6 -->
<g id="edge5" class="edge"><title>Node1&#45;&gt;Node6</title>
<path fill="none" stroke="midnightblue" d="M99.9375,-191.569C111.731,-189.639 124.303,-187.668 136,-186 188.291,-178.544 248.533,-171.492 288.913,-166.987"/>
<polygon fill="midnightblue" stroke="midnightblue" points="289.436,-170.45 298.989,-165.869 288.664,-163.493 289.436,-170.45"/>
</g>
<!-- Node7 -->
<g id="node7" class="node"><title>Node7</title>
<g id="a_node7"><a xlink:href="mxml_8c.xhtml#a2bbe1e8a7d3c830714bdfa50d3658ef8" target="_top" xlink:title="mxml_realloc">
<polygon fill="white" stroke="black" points="160,-114.5 160,-133.5 234,-133.5 234,-114.5 160,-114.5"/>
<text text-anchor="middle" x="197" y="-121.5" font-family="Helvetica,sans-Serif" font-size="10.00">mxml_realloc</text>
</a>
</g>
</g>
<!-- Node1&#45;&gt;Node7 -->
<g id="edge6" class="edge"><title>Node1&#45;&gt;Node7</title>
<path fill="none" stroke="midnightblue" d="M65.0169,-190.409C81.5322,-179.35 110.02,-161.026 136,-148 143.558,-144.211 151.865,-140.572 159.826,-137.325"/>
<polygon fill="midnightblue" stroke="midnightblue" points="161.284,-140.512 169.291,-133.573 158.705,-134.004 161.284,-140.512"/>
</g>
<!-- Node8 -->
<g id="node8" class="node"><title>Node8</title>
<g id="a_node8"><a xlink:href="mxml_8c.xhtml#a7a11f9a05fffb677a2d8d189f4b3f370" target="_top" xlink:title="read_error">
<polygon fill="white" stroke="black" points="167,-76.5 167,-95.5 227,-95.5 227,-76.5 167,-76.5"/>
<text text-anchor="middle" x="197" y="-83.5" font-family="Helvetica,sans-Serif" font-size="10.00">read_error</text>
</a>
</g>
</g>
<!-- Node1&#45;&gt;Node8 -->
<g id="edge7" class="edge"><title>Node1&#45;&gt;Node8</title>
<path fill="none" stroke="midnightblue" d="M57.0048,-190.379C69.4089,-171.284 99.7556,-128.426 136,-105 142.372,-100.882 149.702,-97.5995 157.001,-95.003"/>
<polygon fill="midnightblue" stroke="midnightblue" points="158.373,-98.2394 166.842,-91.8732 156.251,-91.5686 158.373,-98.2394"/>
</g>
<!-- Node8&#45;&gt;Node5 -->
<g id="edge11" class="edge"><title>Node8&#45;&gt;Node5</title>
<path fill="none" stroke="midnightblue" d="M227.316,-92.3506C246.277,-96.3223 271.527,-101.357 294,-105 330.97,-110.993 373.324,-116.207 403.577,-119.65"/>
<polygon fill="midnightblue" stroke="midnightblue" points="403.416,-123.153 413.744,-120.792 404.198,-116.197 403.416,-123.153"/>
</g>
<!-- Node8&#45;&gt;Node6 -->
<g id="edge8" class="edge"><title>Node8&#45;&gt;Node6</title>
<path fill="none" stroke="midnightblue" d="M227.15,-92.4738C237.317,-95.4343 248.541,-99.53 258,-105 276.789,-115.866 276.536,-125.112 294,-138 298.287,-141.164 303.02,-144.259 307.703,-147.118"/>
<polygon fill="midnightblue" stroke="midnightblue" points="306.115,-150.245 316.512,-152.284 309.656,-144.206 306.115,-150.245"/>
</g>
<!-- Node9 -->
<g id="node9" class="node"><title>Node9</title>
<g id="a_node9"><a xlink:href="strlcpy_8h.xhtml#af8c865b1f481801d8d1f0a8644be4bbc" target="_top" xlink:title="strlcpy">
<polygon fill="white" stroke="black" points="313,-76.5 313,-95.5 359,-95.5 359,-76.5 313,-76.5"/>
<text text-anchor="middle" x="336" y="-83.5" font-family="Helvetica,sans-Serif" font-size="10.00">strlcpy</text>
</a>
</g>
</g>
<!-- Node8&#45;&gt;Node9 -->
<g id="edge9" class="edge"><title>Node8&#45;&gt;Node9</title>
<path fill="none" stroke="midnightblue" d="M227.054,-86C249.159,-86 279.577,-86 302.491,-86"/>
<polygon fill="midnightblue" stroke="midnightblue" points="302.751,-89.5001 312.751,-86 302.75,-82.5001 302.751,-89.5001"/>
</g>
<!-- Node10 -->
<g id="node10" class="node"><title>Node10</title>
<g id="a_node10"><a xlink:href="strlcpy_8h.xhtml#aa031012870e97fea95c0b78d51b4471b" target="_top" xlink:title="strlcat">
<polygon fill="white" stroke="black" points="314,-38.5 314,-57.5 358,-57.5 358,-38.5 314,-38.5"/>
<text text-anchor="middle" x="336" y="-45.5" font-family="Helvetica,sans-Serif" font-size="10.00">strlcat</text>
</a>
</g>
</g>
<!-- Node8&#45;&gt;Node10 -->
<g id="edge10" class="edge"><title>Node8&#45;&gt;Node10</title>
<path fill="none" stroke="midnightblue" d="M227.054,-77.9412C249.633,-71.6785 280.885,-63.01 303.954,-56.6113"/>
<polygon fill="midnightblue" stroke="midnightblue" points="304.902,-59.9804 313.603,-53.9349 303.031,-53.2351 304.902,-59.9804"/>
</g>
<!-- Node11 -->
<g id="node11" class="node"><title>Node11</title>
<g id="a_node11"><a xlink:href="mxml_8c.xhtml#a028673d16c059e7ee6f012941b0ce54b" target="_top" xlink:title="mxml_free_tree">
<polygon fill="white" stroke="black" points="294,-0.5 294,-19.5 378,-19.5 378,-0.5 294,-0.5"/>
<text text-anchor="middle" x="336" y="-7.5" font-family="Helvetica,sans-Serif" font-size="10.00">mxml_free_tree</text>
</a>
</g>
</g>
<!-- Node8&#45;&gt;Node11 -->
<g id="edge12" class="edge"><title>Node8&#45;&gt;Node11</title>
<path fill="none" stroke="midnightblue" d="M213.024,-76.4306C231.693,-64.6915 264.676,-44.4491 294,-29 297.149,-27.3408 300.47,-25.6728 303.803,-24.0514"/>
<polygon fill="midnightblue" stroke="midnightblue" points="305.555,-27.0943 313.095,-19.6507 302.559,-20.768 305.555,-27.0943"/>
</g>
<!-- Node11&#45;&gt;Node5 -->
<g id="edge13" class="edge"><title>Node11&#45;&gt;Node5</title>
<path fill="none" stroke="midnightblue" d="M363.392,-19.7052C368.54,-22.2737 373.675,-25.3664 378,-29 403.634,-50.5382 423.872,-84.3146 434.87,-105.254"/>
<polygon fill="midnightblue" stroke="midnightblue" points="431.862,-107.061 439.51,-114.393 438.104,-103.892 431.862,-107.061"/>
</g>
</g>
</svg>
