<?xml version="1.0" encoding="UTF-8" standalone="no"?>
<!DOCTYPE svg PUBLIC "-//W3C//DTD SVG 1.1//EN"
 "http://www.w3.org/Graphics/SVG/1.1/DTD/svg11.dtd">
<!-- Generated by graphviz version 2.36.0 (20140111.2315)
 -->
<!-- Title: mxml_open_file Pages: 1 -->
<svg width="328pt" height="104pt"
 viewBox="0.00 0.00 328.00 104.00" xmlns="http://www.w3.org/2000/svg" xmlns:xlink="http://www.w3.org/1999/xlink">
<g id="graph0" class="graph" transform="scale(1 1) rotate(0) translate(4 100)">
<title>mxml_open_file</title>
<polygon fill="white" stroke="none" points="-4,4 -4,-100 324,-100 324,4 -4,4"/>
<!-- Node1 -->
<g id="node1" class="node"><title>Node1</title>
<polygon fill="#bfbfbf" stroke="black" points="0.5,-38.5 0.5,-57.5 85.5,-57.5 85.5,-38.5 0.5,-38.5"/>
<text text-anchor="middle" x="43" y="-45.5" font-family="Helvetica,sans-Serif" font-size="10.00">mxml_open_file</text>
</g>
<!-- Node2 -->
<g id="node2" class="node"><title>Node2</title>
<g id="a_node2"><a xlink:href="mxml_8c.xhtml#abca607b102fe0f2c063f39eb0259994c" target="_top" xlink:title="mxml_free">
<polygon fill="white" stroke="black" points="135,-76.5 135,-95.5 197,-95.5 197,-76.5 135,-76.5"/>
<text text-anchor="middle" x="166" y="-83.5" font-family="Helvetica,sans-Serif" font-size="10.00">mxml_free</text>
</a>
</g>
</g>
<!-- Node1&#45;&gt;Node2 -->
<g id="edge1" class="edge"><title>Node1&#45;&gt;Node2</title>
<path fill="none" stroke="midnightblue" d="M74.5334,-57.589C89.8394,-62.3958 108.569,-68.2778 125.007,-73.4403"/>
<polygon fill="midnightblue" stroke="midnightblue" points="124.306,-76.8886 134.896,-76.5457 126.404,-70.2102 124.306,-76.8886"/>
</g>
<!-- Node3 -->
<g id="node3" class="node"><title>Node3</title>
<g id="a_node3"><a xlink:href="mxml_8c.xhtml#a4b4f0fef6a18999e79e85a0bff15f122" target="_top" xlink:title="mxml_malloc">
<polygon fill="white" stroke="black" points="129,-38.5 129,-57.5 203,-57.5 203,-38.5 129,-38.5"/>
<text text-anchor="middle" x="166" y="-45.5" font-family="Helvetica,sans-Serif" font-size="10.00">mxml_malloc</text>
</a>
</g>
</g>
<!-- Node1&#45;&gt;Node3 -->
<g id="edge2" class="edge"><title>Node1&#45;&gt;Node3</title>
<path fill="none" stroke="midnightblue" d="M85.6413,-48C96.3132,-48 107.855,-48 118.744,-48"/>
<polygon fill="midnightblue" stroke="midnightblue" points="118.934,-51.5001 128.934,-48 118.934,-44.5001 118.934,-51.5001"/>
</g>
<!-- Node4 -->
<g id="node4" class="node"><title>Node4</title>
<g id="a_node4"><a xlink:href="mxml_8c.xhtml#a51b3bd43da7f4331d38ed5593953610a" target="_top" xlink:title="mxml_write_line">
<polygon fill="white" stroke="black" points="122.5,-0.5 122.5,-19.5 209.5,-19.5 209.5,-0.5 122.5,-0.5"/>
<text text-anchor="middle" x="166" y="-7.5" font-family="Helvetica,sans-Serif" font-size="10.00">mxml_write_line</text>
</a>
</g>
</g>
<!-- Node1&#45;&gt;Node4 -->
<g id="edge3" class="edge"><title>Node1&#45;&gt;Node4</title>
<path fill="none" stroke="midnightblue" d="M74.5334,-38.411C89.7234,-33.6406 108.285,-27.8112 124.633,-22.6771"/>
<polygon fill="midnightblue" stroke="midnightblue" points="125.984,-25.9214 134.476,-19.5859 123.887,-19.243 125.984,-25.9214"/>
</g>
<!-- Node5 -->
<g id="node5" class="node"><title>Node5</title>
<g id="a_node5"><a xlink:href="mxml_8c.xhtml#a2bbe1e8a7d3c830714bdfa50d3658ef8" target="_top" xlink:title="mxml_realloc">
<polygon fill="white" stroke="black" points="246,-0.5 246,-19.5 320,-19.5 320,-0.5 246,-0.5"/>
<text text-anchor="middle" x="283" y="-7.5" font-family="Helvetica,sans-Serif" font-size="10.00">mxml_realloc</text>
</a>
</g>
</g>
<!-- Node4&#45;&gt;Node5 -->
<g id="edge4" class="edge"><title>Node4&#45;&gt;Node5</title>
<path fill="none" stroke="midnightblue" d="M209.822,-10C218.266,-10 227.163,-10 235.716,-10"/>
<polygon fill="midnightblue" stroke="midnightblue" points="235.924,-13.5001 245.924,-10 235.924,-6.5001 235.924,-13.5001"/>
</g>
</g>
</svg>
