<?xml version="1.0" encoding="UTF-8" standalone="no"?>
<!DOCTYPE svg PUBLIC "-//W3C//DTD SVG 1.1//EN"
 "http://www.w3.org/Graphics/SVG/1.1/DTD/svg11.dtd">
<!-- Generated by graphviz version 2.36.0 (20140111.2315)
 -->
<!-- Title: mxml_write_element Pages: 1 -->
<svg width="752pt" height="285pt"
 viewBox="0.00 0.00 752.00 285.40" xmlns="http://www.w3.org/2000/svg" xmlns:xlink="http://www.w3.org/1999/xlink">
<g id="graph0" class="graph" transform="scale(1 1) rotate(0) translate(4 281.399)">
<title>mxml_write_element</title>
<polygon fill="white" stroke="none" points="-4,4 -4,-281.399 748,-281.399 748,4 -4,4"/>
<!-- Node1 -->
<g id="node1" class="node"><title>Node1</title>
<polygon fill="#bfbfbf" stroke="black" points="0.5,-137.707 0.5,-156.707 107.5,-156.707 107.5,-137.707 0.5,-137.707"/>
<text text-anchor="middle" x="54" y="-144.707" font-family="Helvetica,sans-Serif" font-size="10.00">mxml_write_element</text>
</g>
<!-- Node2 -->
<g id="node2" class="node"><title>Node2</title>
<g id="a_node2"><a xlink:href="mxml_8c.xhtml#a31efd9013ec552f43c6ff48c46be7a49" target="_top" xlink:title="mxml_end_element">
<polygon fill="white" stroke="black" points="290.5,-223.707 290.5,-242.707 391.5,-242.707 391.5,-223.707 290.5,-223.707"/>
<text text-anchor="middle" x="341" y="-230.707" font-family="Helvetica,sans-Serif" font-size="10.00">mxml_end_element</text>
</a>
</g>
</g>
<!-- Node1&#45;&gt;Node2 -->
<g id="edge1" class="edge"><title>Node1&#45;&gt;Node2</title>
<path fill="none" stroke="midnightblue" d="M86.5889,-156.74C138.269,-172.334 240.883,-203.298 298.415,-220.659"/>
<polygon fill="midnightblue" stroke="midnightblue" points="297.685,-224.094 308.27,-223.633 299.707,-217.393 297.685,-224.094"/>
</g>
<!-- Node7 -->
<g id="node7" class="node"><title>Node7</title>
<g id="a_node7"><a xlink:href="mxml_8c.xhtml#a1490cd450c6499bab0d70fbeaf88c3be" target="_top" xlink:title="mxml_start_element">
<polygon fill="white" stroke="black" points="144.5,-137.707 144.5,-156.707 249.5,-156.707 249.5,-137.707 144.5,-137.707"/>
<text text-anchor="middle" x="197" y="-144.707" font-family="Helvetica,sans-Serif" font-size="10.00">mxml_start_element</text>
</a>
</g>
</g>
<!-- Node1&#45;&gt;Node7 -->
<g id="edge6" class="edge"><title>Node1&#45;&gt;Node7</title>
<path fill="none" stroke="midnightblue" d="M107.503,-147.207C116.264,-147.207 125.422,-147.207 134.385,-147.207"/>
<polygon fill="midnightblue" stroke="midnightblue" points="134.391,-150.708 144.391,-147.207 134.391,-143.708 134.391,-150.708"/>
</g>
<!-- Node13 -->
<g id="node13" class="node"><title>Node13</title>
<g id="a_node13"><a xlink:href="mxml_8c.xhtml#a9cf33f3456fea00ea438422ebb7bd6be" target="_top" xlink:title="mxml_write_value">
<polygon fill="white" stroke="black" points="293.5,-90.7074 293.5,-109.707 388.5,-109.707 388.5,-90.7074 293.5,-90.7074"/>
<text text-anchor="middle" x="341" y="-97.7074" font-family="Helvetica,sans-Serif" font-size="10.00">mxml_write_value</text>
</a>
</g>
</g>
<!-- Node1&#45;&gt;Node13 -->
<g id="edge19" class="edge"><title>Node1&#45;&gt;Node13</title>
<path fill="none" stroke="midnightblue" d="M96.9882,-137.626C111.801,-134.41 128.6,-130.948 144,-128.207 190.598,-119.915 243.773,-112.443 282.968,-107.307"/>
<polygon fill="midnightblue" stroke="midnightblue" points="283.66,-110.747 293.126,-105.987 282.759,-103.805 283.66,-110.747"/>
</g>
<!-- Node3 -->
<g id="node3" class="node"><title>Node3</title>
<g id="a_node3"><a xlink:href="mxml_8c.xhtml#abca607b102fe0f2c063f39eb0259994c" target="_top" xlink:title="mxml_free">
<polygon fill="white" stroke="black" points="682,-171.707 682,-190.707 744,-190.707 744,-171.707 682,-171.707"/>
<text text-anchor="middle" x="713" y="-178.707" font-family="Helvetica,sans-Serif" font-size="10.00">mxml_free</text>
</a>
</g>
</g>
<!-- Node2&#45;&gt;Node3 -->
<g id="edge2" class="edge"><title>Node2&#45;&gt;Node3</title>
<path fill="none" stroke="midnightblue" d="M358.926,-242.784C376.539,-252.156 405.236,-265.789 432,-271.207 470.333,-278.968 481.824,-279.711 520,-271.207 584.981,-256.733 653.966,-217.797 688.872,-196.183"/>
<polygon fill="midnightblue" stroke="midnightblue" points="690.781,-199.117 697.386,-190.833 687.057,-193.19 690.781,-199.117"/>
</g>
<!-- Node4 -->
<g id="node4" class="node"><title>Node4</title>
<g id="a_node4"><a xlink:href="mxml_8c.xhtml#a51b3bd43da7f4331d38ed5593953610a" target="_top" xlink:title="mxml_write_line">
<polygon fill="white" stroke="black" points="432.5,-204.707 432.5,-223.707 519.5,-223.707 519.5,-204.707 432.5,-204.707"/>
<text text-anchor="middle" x="476" y="-211.707" font-family="Helvetica,sans-Serif" font-size="10.00">mxml_write_line</text>
</a>
</g>
</g>
<!-- Node2&#45;&gt;Node4 -->
<g id="edge3" class="edge"><title>Node2&#45;&gt;Node4</title>
<path fill="none" stroke="midnightblue" d="M391.524,-226.133C401.606,-224.692 412.245,-223.173 422.427,-221.718"/>
<polygon fill="midnightblue" stroke="midnightblue" points="423.016,-225.169 432.421,-220.29 422.026,-218.24 423.016,-225.169"/>
</g>
<!-- Node6 -->
<g id="node6" class="node"><title>Node6</title>
<g id="a_node6"><a xlink:href="strlcpy_8h.xhtml#aa031012870e97fea95c0b78d51b4471b" target="_top" xlink:title="strlcat">
<polygon fill="white" stroke="black" points="454,-242.707 454,-261.707 498,-261.707 498,-242.707 454,-242.707"/>
<text text-anchor="middle" x="476" y="-249.707" font-family="Helvetica,sans-Serif" font-size="10.00">strlcat</text>
</a>
</g>
</g>
<!-- Node2&#45;&gt;Node6 -->
<g id="edge5" class="edge"><title>Node2&#45;&gt;Node6</title>
<path fill="none" stroke="midnightblue" d="M391.524,-240.282C409.046,-242.786 428.254,-245.529 443.822,-247.753"/>
<polygon fill="midnightblue" stroke="midnightblue" points="443.559,-251.251 453.953,-249.201 444.549,-244.322 443.559,-251.251"/>
</g>
<!-- Node5 -->
<g id="node5" class="node"><title>Node5</title>
<g id="a_node5"><a xlink:href="mxml_8c.xhtml#a2bbe1e8a7d3c830714bdfa50d3658ef8" target="_top" xlink:title="mxml_realloc">
<polygon fill="white" stroke="black" points="564,-161.707 564,-180.707 638,-180.707 638,-161.707 564,-161.707"/>
<text text-anchor="middle" x="601" y="-168.707" font-family="Helvetica,sans-Serif" font-size="10.00">mxml_realloc</text>
</a>
</g>
</g>
<!-- Node4&#45;&gt;Node5 -->
<g id="edge4" class="edge"><title>Node4&#45;&gt;Node5</title>
<path fill="none" stroke="midnightblue" d="M504.298,-204.664C521.655,-198.596 544.343,-190.665 563.271,-184.048"/>
<polygon fill="midnightblue" stroke="midnightblue" points="564.494,-187.328 572.779,-180.724 562.184,-180.72 564.494,-187.328"/>
</g>
<!-- Node8 -->
<g id="node8" class="node"><title>Node8</title>
<g id="a_node8"><a xlink:href="mxml_8c.xhtml#a43879e9508767beaf57424ec1393f661" target="_top" xlink:title="mxml_start_element1">
<polygon fill="white" stroke="black" points="286,-137.707 286,-156.707 396,-156.707 396,-137.707 286,-137.707"/>
<text text-anchor="middle" x="341" y="-144.707" font-family="Helvetica,sans-Serif" font-size="10.00">mxml_start_element1</text>
</a>
</g>
</g>
<!-- Node7&#45;&gt;Node8 -->
<g id="edge7" class="edge"><title>Node7&#45;&gt;Node8</title>
<path fill="none" stroke="midnightblue" d="M249.667,-147.207C258.102,-147.207 266.932,-147.207 275.628,-147.207"/>
<polygon fill="midnightblue" stroke="midnightblue" points="275.743,-150.708 285.743,-147.207 275.743,-143.708 275.743,-150.708"/>
</g>
<!-- Node8&#45;&gt;Node4 -->
<g id="edge16" class="edge"><title>Node8&#45;&gt;Node4</title>
<path fill="none" stroke="midnightblue" d="M361.056,-156.807C383.475,-168.101 420.905,-186.957 446.713,-199.958"/>
<polygon fill="midnightblue" stroke="midnightblue" points="445.474,-203.253 455.98,-204.626 448.624,-197.001 445.474,-203.253"/>
</g>
<!-- Node8&#45;&gt;Node5 -->
<g id="edge15" class="edge"><title>Node8&#45;&gt;Node5</title>
<path fill="none" stroke="midnightblue" d="M396.085,-152.239C442.732,-156.578 509.379,-162.778 553.629,-166.894"/>
<polygon fill="midnightblue" stroke="midnightblue" points="553.536,-170.4 563.817,-167.842 554.185,-163.43 553.536,-170.4"/>
</g>
<!-- Node8&#45;&gt;Node6 -->
<g id="edge17" class="edge"><title>Node8&#45;&gt;Node6</title>
<path fill="none" stroke="midnightblue" d="M350.055,-156.857C364.824,-174.066 397.865,-210.384 432,-233.207 435.844,-235.778 440.093,-238.141 444.378,-240.263"/>
<polygon fill="midnightblue" stroke="midnightblue" points="443.128,-243.539 453.678,-244.509 446.035,-237.172 443.128,-243.539"/>
</g>
<!-- Node9 -->
<g id="node9" class="node"><title>Node9</title>
<g id="a_node9"><a xlink:href="mxml_8c.xhtml#acd5df9d9cc5b5f2f75c06585d7867488" target="_top" xlink:title="mxml_encode">
<polygon fill="white" stroke="black" points="437.5,-52.7074 437.5,-71.7074 514.5,-71.7074 514.5,-52.7074 437.5,-52.7074"/>
<text text-anchor="middle" x="476" y="-59.7074" font-family="Helvetica,sans-Serif" font-size="10.00">mxml_encode</text>
</a>
</g>
</g>
<!-- Node8&#45;&gt;Node9 -->
<g id="edge8" class="edge"><title>Node8&#45;&gt;Node9</title>
<path fill="none" stroke="midnightblue" d="M362.134,-137.648C372.459,-132.526 385.118,-125.905 396,-119.207 416.782,-106.418 439.232,-89.939 454.869,-77.9919"/>
<polygon fill="midnightblue" stroke="midnightblue" points="457.021,-80.7522 462.802,-71.8731 452.746,-75.2095 457.021,-80.7522"/>
</g>
<!-- Node11 -->
<g id="node11" class="node"><title>Node11</title>
<g id="a_node11"><a xlink:href="mxml_8c.xhtml#a4b4f0fef6a18999e79e85a0bff15f122" target="_top" xlink:title="mxml_malloc">
<polygon fill="white" stroke="black" points="564,-14.7074 564,-33.7074 638,-33.7074 638,-14.7074 564,-14.7074"/>
<text text-anchor="middle" x="601" y="-21.7074" font-family="Helvetica,sans-Serif" font-size="10.00">mxml_malloc</text>
</a>
</g>
</g>
<!-- Node8&#45;&gt;Node11 -->
<g id="edge14" class="edge"><title>Node8&#45;&gt;Node11</title>
<path fill="none" stroke="midnightblue" d="M368.44,-137.676C378.033,-133.215 388.375,-127.112 396,-119.207 421.949,-92.3078 401.592,-64.9398 432,-43.2074 467.102,-18.1202 517.281,-15.5782 553.651,-17.9622"/>
<polygon fill="midnightblue" stroke="midnightblue" points="553.741,-21.4807 563.99,-18.7952 554.303,-14.5033 553.741,-21.4807"/>
</g>
<!-- Node12 -->
<g id="node12" class="node"><title>Node12</title>
<g id="a_node12"><a xlink:href="strlcpy_8h.xhtml#af8c865b1f481801d8d1f0a8644be4bbc" target="_top" xlink:title="strlcpy">
<polygon fill="white" stroke="black" points="578,-104.707 578,-123.707 624,-123.707 624,-104.707 578,-104.707"/>
<text text-anchor="middle" x="601" y="-111.707" font-family="Helvetica,sans-Serif" font-size="10.00">strlcpy</text>
</a>
</g>
</g>
<!-- Node8&#45;&gt;Node12 -->
<g id="edge18" class="edge"><title>Node8&#45;&gt;Node12</title>
<path fill="none" stroke="midnightblue" d="M396.085,-140.29C447.984,-133.651 524.64,-123.847 567.662,-118.344"/>
<polygon fill="midnightblue" stroke="midnightblue" points="568.365,-121.782 577.84,-117.042 567.477,-114.839 568.365,-121.782"/>
</g>
<!-- Node9&#45;&gt;Node5 -->
<g id="edge12" class="edge"><title>Node9&#45;&gt;Node5</title>
<path fill="none" stroke="midnightblue" d="M498.239,-71.8515C505.558,-75.729 513.534,-80.6145 520,-86.2074 539.901,-103.421 537.948,-114.064 556,-133.207 563.221,-140.865 571.86,-148.59 579.564,-155.056"/>
<polygon fill="midnightblue" stroke="midnightblue" points="577.492,-157.883 587.445,-161.516 581.93,-152.47 577.492,-157.883"/>
</g>
<!-- Node10 -->
<g id="node10" class="node"><title>Node10</title>
<g id="a_node10"><a xlink:href="mxml_8c.xhtml#a2fa2fb9cb281f3461fedf2d47ea81ce1" target="_top" xlink:title="mxml_deallocate">
<polygon fill="white" stroke="black" points="556,-57.7074 556,-76.7074 646,-76.7074 646,-57.7074 556,-57.7074"/>
<text text-anchor="middle" x="601" y="-64.7074" font-family="Helvetica,sans-Serif" font-size="10.00">mxml_deallocate</text>
</a>
</g>
</g>
<!-- Node9&#45;&gt;Node10 -->
<g id="edge9" class="edge"><title>Node9&#45;&gt;Node10</title>
<path fill="none" stroke="midnightblue" d="M514.572,-63.7348C524.322,-64.1311 535.022,-64.5661 545.452,-64.99"/>
<polygon fill="midnightblue" stroke="midnightblue" points="545.612,-68.4994 555.746,-65.4085 545.897,-61.5051 545.612,-68.4994"/>
</g>
<!-- Node9&#45;&gt;Node11 -->
<g id="edge11" class="edge"><title>Node9&#45;&gt;Node11</title>
<path fill="none" stroke="midnightblue" d="M508.038,-52.6184C523.479,-47.848 542.348,-42.0187 558.966,-36.8846"/>
<polygon fill="midnightblue" stroke="midnightblue" points="560.451,-40.0893 568.972,-33.7934 558.384,-33.4012 560.451,-40.0893"/>
</g>
<!-- Node9&#45;&gt;Node12 -->
<g id="edge13" class="edge"><title>Node9&#45;&gt;Node12</title>
<path fill="none" stroke="midnightblue" d="M499.56,-71.7451C518.926,-79.9323 547.043,-91.8192 568.606,-100.935"/>
<polygon fill="midnightblue" stroke="midnightblue" points="567.423,-104.235 577.997,-104.905 570.149,-97.7875 567.423,-104.235"/>
</g>
<!-- Node10&#45;&gt;Node3 -->
<g id="edge10" class="edge"><title>Node10&#45;&gt;Node3</title>
<path fill="none" stroke="midnightblue" d="M620.135,-76.8059C628.494,-81.6998 638.254,-88.1138 646,-95.2074 668.339,-115.665 688.676,-144.392 700.699,-162.904"/>
<polygon fill="midnightblue" stroke="midnightblue" points="697.878,-164.991 706.195,-171.555 703.787,-161.238 697.878,-164.991"/>
</g>
<!-- Node13&#45;&gt;Node4 -->
<g id="edge20" class="edge"><title>Node13&#45;&gt;Node4</title>
<path fill="none" stroke="midnightblue" d="M364.586,-109.743C374.684,-114.54 386.439,-120.892 396,-128.207 422.411,-148.414 447.409,-178.031 461.962,-196.706"/>
<polygon fill="midnightblue" stroke="midnightblue" points="459.201,-198.856 468.055,-204.674 464.761,-194.604 459.201,-198.856"/>
</g>
<!-- Node13&#45;&gt;Node5 -->
<g id="edge22" class="edge"><title>Node13&#45;&gt;Node5</title>
<path fill="none" stroke="midnightblue" d="M376.527,-109.709C422.741,-122.427 504.762,-144.998 555.545,-158.974"/>
<polygon fill="midnightblue" stroke="midnightblue" points="554.695,-162.37 565.265,-161.649 556.552,-155.621 554.695,-162.37"/>
</g>
<!-- Node13&#45;&gt;Node9 -->
<g id="edge23" class="edge"><title>Node13&#45;&gt;Node9</title>
<path fill="none" stroke="midnightblue" d="M375.562,-90.6184C392.573,-85.758 413.432,-79.7983 431.645,-74.5947"/>
<polygon fill="midnightblue" stroke="midnightblue" points="432.796,-77.906 441.449,-71.7934 430.872,-71.1753 432.796,-77.906"/>
</g>
<!-- Node13&#45;&gt;Node11 -->
<g id="edge21" class="edge"><title>Node13&#45;&gt;Node11</title>
<path fill="none" stroke="midnightblue" d="M347.92,-90.4247C360.487,-70.7329 391.987,-26.7816 432,-10.2074 474.576,7.42819 528.334,-1.92665 563.411,-11.7418"/>
<polygon fill="midnightblue" stroke="midnightblue" points="562.642,-15.164 573.224,-14.6363 564.623,-8.45003 562.642,-15.164"/>
</g>
</g>
</svg>
