<?xml version="1.0" encoding="UTF-8" standalone="no"?>
<!DOCTYPE svg PUBLIC "-//W3C//DTD SVG 1.1//EN"
 "http://www.w3.org/Graphics/SVG/1.1/DTD/svg11.dtd">
<!-- Generated by graphviz version 2.36.0 (20140111.2315)
 -->
<!-- Title: mxml_add_node Pages: 1 -->
<svg width="546pt" height="28pt"
 viewBox="0.00 0.00 546.00 28.00" xmlns="http://www.w3.org/2000/svg" xmlns:xlink="http://www.w3.org/1999/xlink">
<g id="graph0" class="graph" transform="scale(1 1) rotate(0) translate(4 24)">
<title>mxml_add_node</title>
<polygon fill="white" stroke="none" points="-4,4 -4,-24 542,-24 542,4 -4,4"/>
<!-- Node1 -->
<g id="node1" class="node"><title>Node1</title>
<polygon fill="#bfbfbf" stroke="black" points="0,-0.5 0,-19.5 88,-19.5 88,-0.5 0,-0.5"/>
<text text-anchor="middle" x="44" y="-7.5" font-family="Helvetica,sans-Serif" font-size="10.00">mxml_add_node</text>
</g>
<!-- Node2 -->
<g id="node2" class="node"><title>Node2</title>
<g id="a_node2"><a xlink:href="mxml_8c.xhtml#a5ef2edd4f9e5fb7946c0150c3be731b5" target="_top" xlink:title="mxml_parse_buffer">
<polygon fill="white" stroke="black" points="124,-0.5 124,-19.5 224,-19.5 224,-0.5 124,-0.5"/>
<text text-anchor="middle" x="174" y="-7.5" font-family="Helvetica,sans-Serif" font-size="10.00">mxml_parse_buffer</text>
</a>
</g>
</g>
<!-- Node1&#45;&gt;Node2 -->
<g id="edge1" class="edge"><title>Node1&#45;&gt;Node2</title>
<path fill="none" stroke="midnightblue" d="M98.4794,-10C106.932,-10 115.636,-10 123.981,-10"/>
<polygon fill="midnightblue" stroke="midnightblue" points="98.335,-6.5001 88.335,-10 98.3349,-13.5001 98.335,-6.5001"/>
</g>
<!-- Node3 -->
<g id="node3" class="node"><title>Node3</title>
<g id="a_node3"><a xlink:href="mxml_8c.xhtml#a0ebae029488c0bca9001b86916abe5ca" target="_top" xlink:title="mxml_parse_file">
<polygon fill="white" stroke="black" points="260,-0.5 260,-19.5 348,-19.5 348,-0.5 260,-0.5"/>
<text text-anchor="middle" x="304" y="-7.5" font-family="Helvetica,sans-Serif" font-size="10.00">mxml_parse_file</text>
</a>
</g>
</g>
<!-- Node2&#45;&gt;Node3 -->
<g id="edge2" class="edge"><title>Node2&#45;&gt;Node3</title>
<path fill="none" stroke="midnightblue" d="M234.126,-10C242.726,-10 251.444,-10 259.654,-10"/>
<polygon fill="midnightblue" stroke="midnightblue" points="234.122,-6.5001 224.122,-10 234.122,-13.5001 234.122,-6.5001"/>
</g>
<!-- Node4 -->
<g id="node4" class="node"><title>Node4</title>
<g id="a_node4"><a xlink:href="class_d_r_s_board.xhtml#af9f7718b667109421094ec226224b012" target="_top" xlink:title="DRSBoard::GetTimeCalibration">
<polygon fill="white" stroke="black" points="384,-0.5 384,-19.5 538,-19.5 538,-0.5 384,-0.5"/>
<text text-anchor="middle" x="461" y="-7.5" font-family="Helvetica,sans-Serif" font-size="10.00">DRSBoard::GetTimeCalibration</text>
</a>
</g>
</g>
<!-- Node3&#45;&gt;Node4 -->
<g id="edge3" class="edge"><title>Node3&#45;&gt;Node4</title>
<path fill="none" stroke="midnightblue" d="M358.348,-10C366.575,-10 375.204,-10 383.813,-10"/>
<polygon fill="midnightblue" stroke="midnightblue" points="358.176,-6.5001 348.176,-10 358.176,-13.5001 358.176,-6.5001"/>
</g>
</g>
</svg>
