<?xml version="1.0" encoding="UTF-8" standalone="no"?>
<!DOCTYPE svg PUBLIC "-//W3C//DTD SVG 1.1//EN"
 "http://www.w3.org/Graphics/SVG/1.1/DTD/svg11.dtd">
<!-- Generated by graphviz version 2.36.0 (20140111.2315)
 -->
<!-- Title: mxml_close_file Pages: 1 -->
<svg width="468pt" height="104pt"
 viewBox="0.00 0.00 468.00 104.00" xmlns="http://www.w3.org/2000/svg" xmlns:xlink="http://www.w3.org/1999/xlink">
<g id="graph0" class="graph" transform="scale(1 1) rotate(0) translate(4 100)">
<title>mxml_close_file</title>
<polygon fill="white" stroke="none" points="-4,4 -4,-100 464,-100 464,4 -4,4"/>
<!-- Node1 -->
<g id="node1" class="node"><title>Node1</title>
<polygon fill="#bfbfbf" stroke="black" points="0.5,-38.5 0.5,-57.5 87.5,-57.5 87.5,-38.5 0.5,-38.5"/>
<text text-anchor="middle" x="44" y="-45.5" font-family="Helvetica,sans-Serif" font-size="10.00">mxml_close_file</text>
</g>
<!-- Node2 -->
<g id="node2" class="node"><title>Node2</title>
<g id="a_node2"><a xlink:href="mxml_8c.xhtml#a31efd9013ec552f43c6ff48c46be7a49" target="_top" xlink:title="mxml_end_element">
<polygon fill="white" stroke="black" points="124.5,-38.5 124.5,-57.5 225.5,-57.5 225.5,-38.5 124.5,-38.5"/>
<text text-anchor="middle" x="175" y="-45.5" font-family="Helvetica,sans-Serif" font-size="10.00">mxml_end_element</text>
</a>
</g>
</g>
<!-- Node1&#45;&gt;Node2 -->
<g id="edge1" class="edge"><title>Node1&#45;&gt;Node2</title>
<path fill="none" stroke="midnightblue" d="M87.5969,-48C96.1283,-48 105.24,-48 114.228,-48"/>
<polygon fill="midnightblue" stroke="midnightblue" points="114.287,-51.5001 124.287,-48 114.287,-44.5001 114.287,-51.5001"/>
</g>
<!-- Node3 -->
<g id="node3" class="node"><title>Node3</title>
<g id="a_node3"><a xlink:href="mxml_8c.xhtml#abca607b102fe0f2c063f39eb0259994c" target="_top" xlink:title="mxml_free">
<polygon fill="white" stroke="black" points="275,-76.5 275,-95.5 337,-95.5 337,-76.5 275,-76.5"/>
<text text-anchor="middle" x="306" y="-83.5" font-family="Helvetica,sans-Serif" font-size="10.00">mxml_free</text>
</a>
</g>
</g>
<!-- Node1&#45;&gt;Node3 -->
<g id="edge6" class="edge"><title>Node1&#45;&gt;Node3</title>
<path fill="none" stroke="midnightblue" d="M80.1878,-57.5109C93.7926,-60.9116 109.542,-64.5136 124,-67 171.897,-75.237 227.58,-80.4349 264.402,-83.2722"/>
<polygon fill="midnightblue" stroke="midnightblue" points="264.496,-86.7889 274.729,-84.044 265.018,-79.8084 264.496,-86.7889"/>
</g>
<!-- Node4 -->
<g id="node4" class="node"><title>Node4</title>
<g id="a_node4"><a xlink:href="mxml_8c.xhtml#a51b3bd43da7f4331d38ed5593953610a" target="_top" xlink:title="mxml_write_line">
<polygon fill="white" stroke="black" points="262.5,-0.5 262.5,-19.5 349.5,-19.5 349.5,-0.5 262.5,-0.5"/>
<text text-anchor="middle" x="306" y="-7.5" font-family="Helvetica,sans-Serif" font-size="10.00">mxml_write_line</text>
</a>
</g>
</g>
<!-- Node1&#45;&gt;Node4 -->
<g id="edge7" class="edge"><title>Node1&#45;&gt;Node4</title>
<path fill="none" stroke="midnightblue" d="M80.1878,-38.4891C93.7926,-35.0884 109.542,-31.4864 124,-29 166.796,-21.6403 215.807,-16.7068 252.027,-13.7156"/>
<polygon fill="midnightblue" stroke="midnightblue" points="252.673,-17.1751 262.36,-12.886 252.112,-10.1975 252.673,-17.1751"/>
</g>
<!-- Node2&#45;&gt;Node3 -->
<g id="edge2" class="edge"><title>Node2&#45;&gt;Node3</title>
<path fill="none" stroke="midnightblue" d="M208.552,-57.589C225.682,-62.635 246.833,-68.8657 264.96,-74.2052"/>
<polygon fill="midnightblue" stroke="midnightblue" points="264.092,-77.5983 274.674,-77.0667 266.07,-70.8836 264.092,-77.5983"/>
</g>
<!-- Node2&#45;&gt;Node4 -->
<g id="edge3" class="edge"><title>Node2&#45;&gt;Node4</title>
<path fill="none" stroke="midnightblue" d="M208.552,-38.411C224.899,-33.5956 244.909,-27.7012 262.457,-22.532"/>
<polygon fill="midnightblue" stroke="midnightblue" points="263.855,-25.7691 272.458,-19.5859 261.877,-19.0543 263.855,-25.7691"/>
</g>
<!-- Node6 -->
<g id="node6" class="node"><title>Node6</title>
<g id="a_node6"><a xlink:href="strlcpy_8h.xhtml#aa031012870e97fea95c0b78d51b4471b" target="_top" xlink:title="strlcat">
<polygon fill="white" stroke="black" points="284,-38.5 284,-57.5 328,-57.5 328,-38.5 284,-38.5"/>
<text text-anchor="middle" x="306" y="-45.5" font-family="Helvetica,sans-Serif" font-size="10.00">strlcat</text>
</a>
</g>
</g>
<!-- Node2&#45;&gt;Node6 -->
<g id="edge5" class="edge"><title>Node2&#45;&gt;Node6</title>
<path fill="none" stroke="midnightblue" d="M225.506,-48C241.586,-48 258.982,-48 273.389,-48"/>
<polygon fill="midnightblue" stroke="midnightblue" points="273.753,-51.5001 283.752,-48 273.752,-44.5001 273.753,-51.5001"/>
</g>
<!-- Node5 -->
<g id="node5" class="node"><title>Node5</title>
<g id="a_node5"><a xlink:href="mxml_8c.xhtml#a2bbe1e8a7d3c830714bdfa50d3658ef8" target="_top" xlink:title="mxml_realloc">
<polygon fill="white" stroke="black" points="386,-0.5 386,-19.5 460,-19.5 460,-0.5 386,-0.5"/>
<text text-anchor="middle" x="423" y="-7.5" font-family="Helvetica,sans-Serif" font-size="10.00">mxml_realloc</text>
</a>
</g>
</g>
<!-- Node4&#45;&gt;Node5 -->
<g id="edge4" class="edge"><title>Node4&#45;&gt;Node5</title>
<path fill="none" stroke="midnightblue" d="M349.822,-10C358.266,-10 367.163,-10 375.716,-10"/>
<polygon fill="midnightblue" stroke="midnightblue" points="375.924,-13.5001 385.924,-10 375.924,-6.5001 375.924,-13.5001"/>
</g>
</g>
</svg>
