<?xml version="1.0" encoding="UTF-8" standalone="no"?>
<!DOCTYPE svg PUBLIC "-//W3C//DTD SVG 1.1//EN"
 "http://www.w3.org/Graphics/SVG/1.1/DTD/svg11.dtd">
<!-- Generated by graphviz version 2.36.0 (20140111.2315)
 -->
<!-- Title: mxml_get_attribute Pages: 1 -->
<svg width="708pt" height="104pt"
 viewBox="0.00 0.00 708.00 104.00" xmlns="http://www.w3.org/2000/svg" xmlns:xlink="http://www.w3.org/1999/xlink">
<g id="graph0" class="graph" transform="scale(1 1) rotate(0) translate(4 100)">
<title>mxml_get_attribute</title>
<polygon fill="white" stroke="none" points="-4,4 -4,-100 704,-100 704,4 -4,4"/>
<!-- Node1 -->
<g id="node1" class="node"><title>Node1</title>
<polygon fill="#bfbfbf" stroke="black" points="0,-38.5 0,-57.5 100,-57.5 100,-38.5 0,-38.5"/>
<text text-anchor="middle" x="50" y="-45.5" font-family="Helvetica,sans-Serif" font-size="10.00">mxml_get_attribute</text>
</g>
<!-- Node2 -->
<g id="node2" class="node"><title>Node2</title>
<g id="a_node2"><a xlink:href="mxml_8c.xhtml#ab4b547074c15b19eae1b6f16050c75d9" target="_top" xlink:title="mxml_find_nodes1">
<polygon fill="white" stroke="black" points="136,-38.5 136,-57.5 234,-57.5 234,-38.5 136,-38.5"/>
<text text-anchor="middle" x="185" y="-45.5" font-family="Helvetica,sans-Serif" font-size="10.00">mxml_find_nodes1</text>
</a>
</g>
</g>
<!-- Node1&#45;&gt;Node2 -->
<g id="edge1" class="edge"><title>Node1&#45;&gt;Node2</title>
<path fill="none" stroke="midnightblue" d="M110.158,-48C118.783,-48 127.573,-48 135.941,-48"/>
<polygon fill="midnightblue" stroke="midnightblue" points="110.146,-44.5001 100.146,-48 110.146,-51.5001 110.146,-44.5001"/>
</g>
<!-- Node3 -->
<g id="node3" class="node"><title>Node3</title>
<g id="a_node3"><a xlink:href="mxml_8c.xhtml#a77bc20aac65b3c46df4b08aeb52b2686" target="_top" xlink:title="mxml_subnode">
<polygon fill="white" stroke="black" points="284.5,-76.5 284.5,-95.5 367.5,-95.5 367.5,-76.5 284.5,-76.5"/>
<text text-anchor="middle" x="326" y="-83.5" font-family="Helvetica,sans-Serif" font-size="10.00">mxml_subnode</text>
</a>
</g>
</g>
<!-- Node2&#45;&gt;Node3 -->
<g id="edge2" class="edge"><title>Node2&#45;&gt;Node3</title>
<path fill="none" stroke="midnightblue" d="M230.795,-60.2462C249.955,-65.484 271.994,-71.5091 289.936,-76.4141"/>
<polygon fill="midnightblue" stroke="midnightblue" points="231.645,-56.85 221.076,-57.589 229.799,-63.6022 231.645,-56.85"/>
</g>
<!-- Node6 -->
<g id="node6" class="node"><title>Node6</title>
<g id="a_node6"><a xlink:href="mxml_8c.xhtml#a6bcd06b8ff582dece9ba510e161284d5" target="_top" xlink:title="mxml_add_resultnode">
<polygon fill="white" stroke="black" points="270,-38.5 270,-57.5 382,-57.5 382,-38.5 270,-38.5"/>
<text text-anchor="middle" x="326" y="-45.5" font-family="Helvetica,sans-Serif" font-size="10.00">mxml_add_resultnode</text>
</a>
</g>
</g>
<!-- Node2&#45;&gt;Node6 -->
<g id="edge5" class="edge"><title>Node2&#45;&gt;Node6</title>
<path fill="none" stroke="midnightblue" d="M244.332,-41.3281C252.737,-41.2096 261.366,-41.226 269.709,-41.377"/>
<polygon fill="midnightblue" stroke="midnightblue" points="244.15,-37.831 234.225,-41.5393 244.296,-44.8295 244.15,-37.831"/>
</g>
<!-- Node7 -->
<g id="node7" class="node"><title>Node7</title>
<g id="a_node7"><a xlink:href="mxml_8c.xhtml#a6dc97d9bb89977574a5f5cff952f3550" target="_top" xlink:title="mxml_find_nodes">
<polygon fill="white" stroke="black" points="279.5,-0.5 279.5,-19.5 372.5,-19.5 372.5,-0.5 279.5,-0.5"/>
<text text-anchor="middle" x="326" y="-7.5" font-family="Helvetica,sans-Serif" font-size="10.00">mxml_find_nodes</text>
</a>
</g>
</g>
<!-- Node2&#45;&gt;Node7 -->
<g id="edge7" class="edge"><title>Node2&#45;&gt;Node7</title>
<path fill="none" stroke="midnightblue" d="M230.795,-35.7538C249.955,-30.516 271.994,-24.4909 289.936,-19.5859"/>
<polygon fill="midnightblue" stroke="midnightblue" points="229.799,-32.3978 221.076,-38.411 231.645,-39.15 229.799,-32.3978"/>
</g>
<!-- Node4 -->
<g id="node4" class="node"><title>Node4</title>
<g id="a_node4"><a xlink:href="class_d_r_s_board.xhtml#af9f7718b667109421094ec226224b012" target="_top" xlink:title="DRSBoard::GetTimeCalibration">
<polygon fill="white" stroke="black" points="546,-38.5 546,-57.5 700,-57.5 700,-38.5 546,-38.5"/>
<text text-anchor="middle" x="623" y="-45.5" font-family="Helvetica,sans-Serif" font-size="10.00">DRSBoard::GetTimeCalibration</text>
</a>
</g>
</g>
<!-- Node3&#45;&gt;Node4 -->
<g id="edge3" class="edge"><title>Node3&#45;&gt;Node4</title>
<path fill="none" stroke="midnightblue" d="M377.777,-81.6153C414.563,-78.2228 465.451,-73.0849 510,-67 529.639,-64.3176 551.119,-60.8131 569.968,-57.5453"/>
<polygon fill="midnightblue" stroke="midnightblue" points="377.434,-78.132 367.793,-82.5252 378.069,-85.1031 377.434,-78.132"/>
</g>
<!-- Node5 -->
<g id="node5" class="node"><title>Node5</title>
<g id="a_node5"><a xlink:href="mxml_8c.xhtml#a73cb7fc1ac4ef0d3a05d880e1de662f4" target="_top" xlink:title="mxml_clone_tree">
<polygon fill="white" stroke="black" points="418.5,-38.5 418.5,-57.5 509.5,-57.5 509.5,-38.5 418.5,-38.5"/>
<text text-anchor="middle" x="464" y="-45.5" font-family="Helvetica,sans-Serif" font-size="10.00">mxml_clone_tree</text>
</a>
</g>
</g>
<!-- Node3&#45;&gt;Node5 -->
<g id="edge4" class="edge"><title>Node3&#45;&gt;Node5</title>
<path fill="none" stroke="midnightblue" d="M371.087,-73.6817C389.772,-68.4607 411.218,-62.4684 428.692,-57.5859"/>
<polygon fill="midnightblue" stroke="midnightblue" points="370.008,-70.349 361.319,-76.411 371.892,-77.0908 370.008,-70.349"/>
</g>
<!-- Node6&#45;&gt;Node2 -->
<g id="edge6" class="edge"><title>Node6&#45;&gt;Node2</title>
<path fill="none" stroke="midnightblue" d="M259.705,-54.739C251.122,-54.7839 242.454,-54.6912 234.225,-54.4607"/>
<polygon fill="midnightblue" stroke="midnightblue" points="259.751,-58.2388 269.709,-54.623 259.669,-51.2393 259.751,-58.2388"/>
</g>
<!-- Node8 -->
<g id="node8" class="node"><title>Node8</title>
<g id="a_node8"><a xlink:href="mxml_8c.xhtml#a43e02c5111b428f22b1032a318ffe29f" target="_top" xlink:title="mxml_find_node">
<polygon fill="white" stroke="black" points="420,-0.5 420,-19.5 508,-19.5 508,-0.5 420,-0.5"/>
<text text-anchor="middle" x="464" y="-7.5" font-family="Helvetica,sans-Serif" font-size="10.00">mxml_find_node</text>
</a>
</g>
</g>
<!-- Node7&#45;&gt;Node8 -->
<g id="edge8" class="edge"><title>Node7&#45;&gt;Node8</title>
<path fill="none" stroke="midnightblue" d="M382.897,-10C395.277,-10 408.211,-10 419.985,-10"/>
<polygon fill="midnightblue" stroke="midnightblue" points="382.664,-6.5001 372.664,-10 382.664,-13.5001 382.664,-6.5001"/>
</g>
<!-- Node8&#45;&gt;Node4 -->
<g id="edge9" class="edge"><title>Node8&#45;&gt;Node4</title>
<path fill="none" stroke="midnightblue" d="M514.447,-21.968C536.448,-27.2931 561.994,-33.4762 582.667,-38.4799"/>
<polygon fill="midnightblue" stroke="midnightblue" points="515.16,-18.5398 504.618,-19.589 513.514,-25.3433 515.16,-18.5398"/>
</g>
</g>
</svg>
