<?xml version="1.0" encoding="UTF-8" standalone="no"?>
<!DOCTYPE svg PUBLIC "-//W3C//DTD SVG 1.1//EN"
 "http://www.w3.org/Graphics/SVG/1.1/DTD/svg11.dtd">
<!-- Generated by graphviz version 2.36.0 (20140111.2315)
 -->
<!-- Title: mxml_add_resultnode Pages: 1 -->
<svg width="702pt" height="78pt"
 viewBox="0.00 0.00 702.00 78.18" xmlns="http://www.w3.org/2000/svg" xmlns:xlink="http://www.w3.org/1999/xlink">
<g id="graph0" class="graph" transform="scale(1 1) rotate(0) translate(4 74.1803)">
<title>mxml_add_resultnode</title>
<polygon fill="white" stroke="none" points="-4,4 -4,-74.1803 698,-74.1803 698,4 -4,4"/>
<!-- Node1 -->
<g id="node1" class="node"><title>Node1</title>
<polygon fill="#bfbfbf" stroke="black" points="0,-19.5 0,-38.5 112,-38.5 112,-19.5 0,-19.5"/>
<text text-anchor="middle" x="56" y="-26.5" font-family="Helvetica,sans-Serif" font-size="10.00">mxml_add_resultnode</text>
</g>
<!-- Node2 -->
<g id="node2" class="node"><title>Node2</title>
<g id="a_node2"><a xlink:href="mxml_8c.xhtml#ab4b547074c15b19eae1b6f16050c75d9" target="_top" xlink:title="mxml_find_nodes1">
<polygon fill="white" stroke="black" points="148,-19.5 148,-38.5 246,-38.5 246,-19.5 148,-19.5"/>
<text text-anchor="middle" x="197" y="-26.5" font-family="Helvetica,sans-Serif" font-size="10.00">mxml_find_nodes1</text>
</a>
</g>
</g>
<!-- Node1&#45;&gt;Node2 -->
<g id="edge1" class="edge"><title>Node1&#45;&gt;Node2</title>
<path fill="none" stroke="midnightblue" d="M122.552,-22.2597C130.987,-22.2182 139.499,-22.3097 147.59,-22.5342"/>
<polygon fill="midnightblue" stroke="midnightblue" points="122.295,-18.7623 112.336,-22.3762 122.375,-25.7618 122.295,-18.7623"/>
</g>
<!-- Node2&#45;&gt;Node1 -->
<g id="edge5" class="edge"><title>Node2&#45;&gt;Node1</title>
<path fill="none" stroke="midnightblue" d="M137.546,-35.6737C129.194,-35.79 120.625,-35.7734 112.336,-35.6238"/>
<polygon fill="midnightblue" stroke="midnightblue" points="137.665,-39.172 147.59,-35.4658 137.52,-32.1735 137.665,-39.172"/>
</g>
<!-- Node3 -->
<g id="node3" class="node"><title>Node3</title>
<g id="a_node3"><a xlink:href="mxml_8c.xhtml#a77bc20aac65b3c46df4b08aeb52b2686" target="_top" xlink:title="mxml_subnode">
<polygon fill="white" stroke="black" points="287.5,-38.5 287.5,-57.5 370.5,-57.5 370.5,-38.5 287.5,-38.5"/>
<text text-anchor="middle" x="329" y="-45.5" font-family="Helvetica,sans-Serif" font-size="10.00">mxml_subnode</text>
</a>
</g>
</g>
<!-- Node2&#45;&gt;Node3 -->
<g id="edge2" class="edge"><title>Node2&#45;&gt;Node3</title>
<path fill="none" stroke="midnightblue" d="M256.068,-37.4868C266.647,-39.033 277.474,-40.6154 287.41,-42.0677"/>
<polygon fill="midnightblue" stroke="midnightblue" points="256.439,-34.004 246.038,-36.0209 255.427,-40.9304 256.439,-34.004"/>
</g>
<!-- Node6 -->
<g id="node6" class="node"><title>Node6</title>
<g id="a_node6"><a xlink:href="mxml_8c.xhtml#a6dc97d9bb89977574a5f5cff952f3550" target="_top" xlink:title="mxml_find_nodes">
<polygon fill="white" stroke="black" points="282.5,-0.5 282.5,-19.5 375.5,-19.5 375.5,-0.5 282.5,-0.5"/>
<text text-anchor="middle" x="329" y="-7.5" font-family="Helvetica,sans-Serif" font-size="10.00">mxml_find_nodes</text>
</a>
</g>
</g>
<!-- Node2&#45;&gt;Node6 -->
<g id="edge6" class="edge"><title>Node2&#45;&gt;Node6</title>
<path fill="none" stroke="midnightblue" d="M256.2,-20.4939C264.955,-19.2143 273.876,-17.9105 282.318,-16.6766"/>
<polygon fill="midnightblue" stroke="midnightblue" points="255.427,-17.0696 246.038,-21.9791 256.439,-23.996 255.427,-17.0696"/>
</g>
<!-- Node4 -->
<g id="node4" class="node"><title>Node4</title>
<g id="a_node4"><a xlink:href="class_d_r_s_board.xhtml#af9f7718b667109421094ec226224b012" target="_top" xlink:title="DRSBoard::GetTimeCalibration">
<polygon fill="white" stroke="black" points="540,-38.5 540,-57.5 694,-57.5 694,-38.5 540,-38.5"/>
<text text-anchor="middle" x="617" y="-45.5" font-family="Helvetica,sans-Serif" font-size="10.00">DRSBoard::GetTimeCalibration</text>
</a>
</g>
</g>
<!-- Node3&#45;&gt;Node4 -->
<g id="edge3" class="edge"><title>Node3&#45;&gt;Node4</title>
<path fill="none" stroke="midnightblue" d="M372.927,-59.8835C385.425,-62.8145 399.169,-65.5329 412,-67 452.624,-71.6449 463.255,-70.4315 504,-67 526.011,-65.1462 550.2,-61.2778 570.448,-57.5123"/>
<polygon fill="midnightblue" stroke="midnightblue" points="373.758,-56.4835 363.212,-57.5071 372.094,-63.2831 373.758,-56.4835"/>
</g>
<!-- Node5 -->
<g id="node5" class="node"><title>Node5</title>
<g id="a_node5"><a xlink:href="mxml_8c.xhtml#a73cb7fc1ac4ef0d3a05d880e1de662f4" target="_top" xlink:title="mxml_clone_tree">
<polygon fill="white" stroke="black" points="412.5,-38.5 412.5,-57.5 503.5,-57.5 503.5,-38.5 412.5,-38.5"/>
<text text-anchor="middle" x="458" y="-45.5" font-family="Helvetica,sans-Serif" font-size="10.00">mxml_clone_tree</text>
</a>
</g>
</g>
<!-- Node3&#45;&gt;Node5 -->
<g id="edge4" class="edge"><title>Node3&#45;&gt;Node5</title>
<path fill="none" stroke="midnightblue" d="M380.8,-48C391.272,-48 402.224,-48 412.453,-48"/>
<polygon fill="midnightblue" stroke="midnightblue" points="380.533,-44.5001 370.533,-48 380.533,-51.5001 380.533,-44.5001"/>
</g>
<!-- Node7 -->
<g id="node7" class="node"><title>Node7</title>
<g id="a_node7"><a xlink:href="mxml_8c.xhtml#a43e02c5111b428f22b1032a318ffe29f" target="_top" xlink:title="mxml_find_node">
<polygon fill="white" stroke="black" points="414,-0.5 414,-19.5 502,-19.5 502,-0.5 414,-0.5"/>
<text text-anchor="middle" x="458" y="-7.5" font-family="Helvetica,sans-Serif" font-size="10.00">mxml_find_node</text>
</a>
</g>
</g>
<!-- Node6&#45;&gt;Node7 -->
<g id="edge7" class="edge"><title>Node6&#45;&gt;Node7</title>
<path fill="none" stroke="midnightblue" d="M385.868,-10C395.217,-10 404.789,-10 413.76,-10"/>
<polygon fill="midnightblue" stroke="midnightblue" points="385.85,-6.5001 375.85,-10 385.85,-13.5001 385.85,-6.5001"/>
</g>
<!-- Node7&#45;&gt;Node4 -->
<g id="edge8" class="edge"><title>Node7&#45;&gt;Node4</title>
<path fill="none" stroke="midnightblue" d="M508.447,-21.968C530.448,-27.2931 555.994,-33.4762 576.667,-38.4799"/>
<polygon fill="midnightblue" stroke="midnightblue" points="509.16,-18.5398 498.618,-19.589 507.514,-25.3433 509.16,-18.5398"/>
</g>
</g>
</svg>
