<?xml version="1.0" encoding="UTF-8" standalone="no"?>
<!DOCTYPE svg PUBLIC "-//W3C//DTD SVG 1.1//EN"
 "http://www.w3.org/Graphics/SVG/1.1/DTD/svg11.dtd">
<!-- Generated by graphviz version 2.36.0 (20140111.2315)
 -->
<!-- Title: mxml_find_nodes1 Pages: 1 -->
<svg width="572pt" height="142pt"
 viewBox="0.00 0.00 572.00 142.00" xmlns="http://www.w3.org/2000/svg" xmlns:xlink="http://www.w3.org/1999/xlink">
<g id="graph0" class="graph" transform="scale(1 1) rotate(0) translate(4 138)">
<title>mxml_find_nodes1</title>
<polygon fill="white" stroke="none" points="-4,4 -4,-138 568,-138 568,4 -4,4"/>
<!-- Node1 -->
<g id="node1" class="node"><title>Node1</title>
<polygon fill="#bfbfbf" stroke="black" points="0,-95.5 0,-114.5 98,-114.5 98,-95.5 0,-95.5"/>
<text text-anchor="middle" x="49" y="-102.5" font-family="Helvetica,sans-Serif" font-size="10.00">mxml_find_nodes1</text>
</g>
<!-- Node2 -->
<g id="node2" class="node"><title>Node2</title>
<g id="a_node2"><a xlink:href="mxml_8c.xhtml#a6bcd06b8ff582dece9ba510e161284d5" target="_top" xlink:title="mxml_add_resultnode">
<polygon fill="white" stroke="black" points="134,-114.5 134,-133.5 246,-133.5 246,-114.5 134,-114.5"/>
<text text-anchor="middle" x="190" y="-121.5" font-family="Helvetica,sans-Serif" font-size="10.00">mxml_add_resultnode</text>
</a>
</g>
</g>
<!-- Node1&#45;&gt;Node2 -->
<g id="edge1" class="edge"><title>Node1&#45;&gt;Node2</title>
<path fill="none" stroke="midnightblue" d="M108.351,-106.304C126.306,-108.506 145.279,-111.461 160.31,-114.493"/>
<polygon fill="midnightblue" stroke="midnightblue" points="108.562,-102.805 98.2254,-105.131 107.756,-109.758 108.562,-102.805"/>
</g>
<!-- Node3 -->
<g id="node3" class="node"><title>Node3</title>
<g id="a_node3"><a xlink:href="mxml_8c.xhtml#a6dc97d9bb89977574a5f5cff952f3550" target="_top" xlink:title="mxml_find_nodes">
<polygon fill="white" stroke="black" points="143.5,-76.5 143.5,-95.5 236.5,-95.5 236.5,-76.5 143.5,-76.5"/>
<text text-anchor="middle" x="190" y="-83.5" font-family="Helvetica,sans-Serif" font-size="10.00">mxml_find_nodes</text>
</a>
</g>
</g>
<!-- Node1&#45;&gt;Node3 -->
<g id="edge3" class="edge"><title>Node1&#45;&gt;Node3</title>
<path fill="none" stroke="midnightblue" d="M108.317,-97.0286C119.966,-95.4363 132.045,-93.7852 143.199,-92.2606"/>
<polygon fill="midnightblue" stroke="midnightblue" points="107.659,-93.5859 98.2254,-98.408 108.607,-100.521 107.659,-93.5859"/>
</g>
<!-- Node6 -->
<g id="node6" class="node"><title>Node6</title>
<g id="a_node6"><a xlink:href="mxml_8c.xhtml#a77bc20aac65b3c46df4b08aeb52b2686" target="_top" xlink:title="mxml_subnode">
<polygon fill="white" stroke="black" points="148.5,-38.5 148.5,-57.5 231.5,-57.5 231.5,-38.5 148.5,-38.5"/>
<text text-anchor="middle" x="190" y="-45.5" font-family="Helvetica,sans-Serif" font-size="10.00">mxml_subnode</text>
</a>
</g>
</g>
<!-- Node1&#45;&gt;Node6 -->
<g id="edge6" class="edge"><title>Node1&#45;&gt;Node6</title>
<path fill="none" stroke="midnightblue" d="M79.1746,-91.0024C95.203,-83.5155 115.526,-74.3513 134,-67 142.26,-63.713 151.34,-60.4407 159.701,-57.5614"/>
<polygon fill="midnightblue" stroke="midnightblue" points="77.3597,-87.9884 69.8046,-95.4161 80.3427,-94.321 77.3597,-87.9884"/>
</g>
<!-- Node2&#45;&gt;Node1 -->
<g id="edge2" class="edge"><title>Node2&#45;&gt;Node1</title>
<path fill="none" stroke="midnightblue" d="M123.569,-121.796C107.847,-119.727 91.847,-117.157 78.8009,-114.53"/>
<polygon fill="midnightblue" stroke="midnightblue" points="123.469,-125.311 133.826,-123.079 124.338,-118.365 123.469,-125.311"/>
</g>
<!-- Node4 -->
<g id="node4" class="node"><title>Node4</title>
<g id="a_node4"><a xlink:href="mxml_8c.xhtml#a43e02c5111b428f22b1032a318ffe29f" target="_top" xlink:title="mxml_find_node">
<polygon fill="white" stroke="black" points="284,-76.5 284,-95.5 372,-95.5 372,-76.5 284,-76.5"/>
<text text-anchor="middle" x="328" y="-83.5" font-family="Helvetica,sans-Serif" font-size="10.00">mxml_find_node</text>
</a>
</g>
</g>
<!-- Node3&#45;&gt;Node4 -->
<g id="edge4" class="edge"><title>Node3&#45;&gt;Node4</title>
<path fill="none" stroke="midnightblue" d="M246.897,-86C259.277,-86 272.211,-86 283.985,-86"/>
<polygon fill="midnightblue" stroke="midnightblue" points="246.664,-82.5001 236.664,-86 246.664,-89.5001 246.664,-82.5001"/>
</g>
<!-- Node5 -->
<g id="node5" class="node"><title>Node5</title>
<g id="a_node5"><a xlink:href="class_d_r_s_board.xhtml#af9f7718b667109421094ec226224b012" target="_top" xlink:title="DRSBoard::GetTimeCalibration">
<polygon fill="white" stroke="black" points="410,-57.5 410,-76.5 564,-76.5 564,-57.5 410,-57.5"/>
<text text-anchor="middle" x="487" y="-64.5" font-family="Helvetica,sans-Serif" font-size="10.00">DRSBoard::GetTimeCalibration</text>
</a>
</g>
</g>
<!-- Node4&#45;&gt;Node5 -->
<g id="edge5" class="edge"><title>Node4&#45;&gt;Node5</title>
<path fill="none" stroke="midnightblue" d="M382.477,-79.5283C391.345,-78.4551 400.688,-77.3243 409.985,-76.1992"/>
<polygon fill="midnightblue" stroke="midnightblue" points="381.824,-76.0817 372.317,-80.7579 382.665,-83.031 381.824,-76.0817"/>
</g>
<!-- Node6&#45;&gt;Node5 -->
<g id="edge7" class="edge"><title>Node6&#45;&gt;Node5</title>
<path fill="none" stroke="midnightblue" d="M241.801,-51.2719C288.07,-54.252 357.036,-58.6938 409.888,-62.0979"/>
<polygon fill="midnightblue" stroke="midnightblue" points="241.913,-47.772 231.709,-50.6219 241.463,-54.7575 241.913,-47.772"/>
</g>
<!-- Node7 -->
<g id="node7" class="node"><title>Node7</title>
<g id="a_node7"><a xlink:href="mxml_8c.xhtml#a73cb7fc1ac4ef0d3a05d880e1de662f4" target="_top" xlink:title="mxml_clone_tree">
<polygon fill="white" stroke="black" points="282.5,-0.5 282.5,-19.5 373.5,-19.5 373.5,-0.5 282.5,-0.5"/>
<text text-anchor="middle" x="328" y="-7.5" font-family="Helvetica,sans-Serif" font-size="10.00">mxml_clone_tree</text>
</a>
</g>
</g>
<!-- Node6&#45;&gt;Node7 -->
<g id="edge8" class="edge"><title>Node6&#45;&gt;Node7</title>
<path fill="none" stroke="midnightblue" d="M235.087,-35.6817C253.772,-30.4607 275.218,-24.4684 292.692,-19.5859"/>
<polygon fill="midnightblue" stroke="midnightblue" points="234.008,-32.349 225.319,-38.411 235.892,-39.0908 234.008,-32.349"/>
</g>
</g>
</svg>
