<?xml version="1.0" encoding="UTF-8" standalone="no"?>
<!DOCTYPE svg PUBLIC "-//W3C//DTD SVG 1.1//EN"
 "http://www.w3.org/Graphics/SVG/1.1/DTD/svg11.dtd">
<!-- Generated by graphviz version 2.36.0 (20140111.2315)
 -->
<!-- Title: mxml_free_tree Pages: 1 -->
<svg width="676pt" height="86pt"
 viewBox="0.00 0.00 676.00 86.21" xmlns="http://www.w3.org/2000/svg" xmlns:xlink="http://www.w3.org/1999/xlink">
<g id="graph0" class="graph" transform="scale(1 1) rotate(0) translate(4 82.2053)">
<title>mxml_free_tree</title>
<polygon fill="white" stroke="none" points="-4,4 -4,-82.2053 672,-82.2053 672,4 -4,4"/>
<!-- Node1 -->
<g id="node1" class="node"><title>Node1</title>
<polygon fill="#bfbfbf" stroke="black" points="0,-38.5 0,-57.5 84,-57.5 84,-38.5 0,-38.5"/>
<text text-anchor="middle" x="42" y="-45.5" font-family="Helvetica,sans-Serif" font-size="10.00">mxml_free_tree</text>
</g>
<!-- Node2 -->
<g id="node2" class="node"><title>Node2</title>
<g id="a_node2"><a xlink:href="class_d_r_s_board.xhtml#af9f7718b667109421094ec226224b012" target="_top" xlink:title="DRSBoard::GetTimeCalibration">
<polygon fill="white" stroke="black" points="514,-57.5 514,-76.5 668,-76.5 668,-57.5 514,-57.5"/>
<text text-anchor="middle" x="591" y="-64.5" font-family="Helvetica,sans-Serif" font-size="10.00">DRSBoard::GetTimeCalibration</text>
</a>
</g>
</g>
<!-- Node1&#45;&gt;Node2 -->
<g id="edge1" class="edge"><title>Node1&#45;&gt;Node2</title>
<path fill="none" stroke="midnightblue" d="M83.9681,-60.0557C95.516,-62.92 108.16,-65.5608 120,-67 258.107,-83.7874 420.732,-78.2134 513.956,-72.6177"/>
<polygon fill="midnightblue" stroke="midnightblue" points="84.7087,-56.632 74.1499,-57.5056 82.9489,-63.4072 84.7087,-56.632"/>
</g>
<!-- Node3 -->
<g id="node3" class="node"><title>Node3</title>
<g id="a_node3"><a xlink:href="mxml_8c.xhtml#a51aea00b138d1c675d541664bcf7b1ab" target="_top" xlink:title="mxml_delete_node">
<polygon fill="white" stroke="black" points="120,-38.5 120,-57.5 218,-57.5 218,-38.5 120,-38.5"/>
<text text-anchor="middle" x="169" y="-45.5" font-family="Helvetica,sans-Serif" font-size="10.00">mxml_delete_node</text>
</a>
</g>
</g>
<!-- Node1&#45;&gt;Node3 -->
<g id="edge2" class="edge"><title>Node1&#45;&gt;Node3</title>
<path fill="none" stroke="midnightblue" d="M94.367,-48C102.788,-48 111.488,-48 119.828,-48"/>
<polygon fill="midnightblue" stroke="midnightblue" points="94.2761,-44.5001 84.2761,-48 94.2761,-51.5001 94.2761,-44.5001"/>
</g>
<!-- Node4 -->
<g id="node4" class="node"><title>Node4</title>
<g id="a_node4"><a xlink:href="mxml_8c.xhtml#a7a11f9a05fffb677a2d8d189f4b3f370" target="_top" xlink:title="read_error">
<polygon fill="white" stroke="black" points="139,-0.5 139,-19.5 199,-19.5 199,-0.5 139,-0.5"/>
<text text-anchor="middle" x="169" y="-7.5" font-family="Helvetica,sans-Serif" font-size="10.00">read_error</text>
</a>
</g>
</g>
<!-- Node1&#45;&gt;Node4 -->
<g id="edge3" class="edge"><title>Node1&#45;&gt;Node4</title>
<path fill="none" stroke="midnightblue" d="M84.1218,-35.499C101.929,-30.0854 122.37,-23.8716 138.614,-18.9333"/>
<polygon fill="midnightblue" stroke="midnightblue" points="83.0924,-32.1537 74.5428,-38.411 85.1285,-38.851 83.0924,-32.1537"/>
</g>
<!-- Node5 -->
<g id="node5" class="node"><title>Node5</title>
<g id="a_node5"><a xlink:href="mxml_8c.xhtml#a5ef2edd4f9e5fb7946c0150c3be731b5" target="_top" xlink:title="mxml_parse_buffer">
<polygon fill="white" stroke="black" points="254,-38.5 254,-57.5 354,-57.5 354,-38.5 254,-38.5"/>
<text text-anchor="middle" x="304" y="-45.5" font-family="Helvetica,sans-Serif" font-size="10.00">mxml_parse_buffer</text>
</a>
</g>
</g>
<!-- Node4&#45;&gt;Node5 -->
<g id="edge4" class="edge"><title>Node4&#45;&gt;Node5</title>
<path fill="none" stroke="midnightblue" d="M208.881,-21.1089C228.159,-26.6169 251.203,-33.2008 269.664,-38.4754"/>
<polygon fill="midnightblue" stroke="midnightblue" points="209.764,-17.7212 199.187,-18.3393 207.841,-24.4519 209.764,-17.7212"/>
</g>
<!-- Node7 -->
<g id="node7" class="node"><title>Node7</title>
<g id="a_node7"><a xlink:href="mxml_8c.xhtml#a9c1dde43a12f9e8383227dd5f79bf91d" target="_top" xlink:title="mxml_parse_entity">
<polygon fill="white" stroke="black" points="254.5,-0.5 254.5,-19.5 353.5,-19.5 353.5,-0.5 254.5,-0.5"/>
<text text-anchor="middle" x="304" y="-7.5" font-family="Helvetica,sans-Serif" font-size="10.00">mxml_parse_entity</text>
</a>
</g>
</g>
<!-- Node4&#45;&gt;Node7 -->
<g id="edge7" class="edge"><title>Node4&#45;&gt;Node7</title>
<path fill="none" stroke="midnightblue" d="M209.503,-10C223.555,-10 239.544,-10 254.277,-10"/>
<polygon fill="midnightblue" stroke="midnightblue" points="209.187,-6.5001 199.187,-10 209.187,-13.5001 209.187,-6.5001"/>
</g>
<!-- Node6 -->
<g id="node6" class="node"><title>Node6</title>
<g id="a_node6"><a xlink:href="mxml_8c.xhtml#a0ebae029488c0bca9001b86916abe5ca" target="_top" xlink:title="mxml_parse_file">
<polygon fill="white" stroke="black" points="390,-38.5 390,-57.5 478,-57.5 478,-38.5 390,-38.5"/>
<text text-anchor="middle" x="434" y="-45.5" font-family="Helvetica,sans-Serif" font-size="10.00">mxml_parse_file</text>
</a>
</g>
</g>
<!-- Node5&#45;&gt;Node6 -->
<g id="edge5" class="edge"><title>Node5&#45;&gt;Node6</title>
<path fill="none" stroke="midnightblue" d="M364.126,-48C372.726,-48 381.444,-48 389.654,-48"/>
<polygon fill="midnightblue" stroke="midnightblue" points="364.122,-44.5001 354.122,-48 364.122,-51.5001 364.122,-44.5001"/>
</g>
<!-- Node6&#45;&gt;Node2 -->
<g id="edge6" class="edge"><title>Node6&#45;&gt;Node2</title>
<path fill="none" stroke="midnightblue" d="M488.348,-54.5395C496.575,-55.5479 505.204,-56.6057 513.813,-57.6609"/>
<polygon fill="midnightblue" stroke="midnightblue" points="488.528,-51.0353 478.176,-53.2926 487.676,-57.9833 488.528,-51.0353"/>
</g>
<!-- Node7&#45;&gt;Node6 -->
<g id="edge8" class="edge"><title>Node7&#45;&gt;Node6</title>
<path fill="none" stroke="midnightblue" d="M347.224,-22.5353C364.637,-27.7048 384.492,-33.5991 400.711,-38.4141"/>
<polygon fill="midnightblue" stroke="midnightblue" points="347.882,-19.0798 337.3,-19.589 345.89,-25.7903 347.882,-19.0798"/>
</g>
</g>
</svg>
