<?xml version="1.0" encoding="UTF-8" standalone="no"?>
<!DOCTYPE svg PUBLIC "-//W3C//DTD SVG 1.1//EN"
 "http://www.w3.org/Graphics/SVG/1.1/DTD/svg11.dtd">
<!-- Generated by graphviz version 2.36.0 (20140111.2315)
 -->
<!-- Title: mxml_delete_node Pages: 1 -->
<svg width="324pt" height="85pt"
 viewBox="0.00 0.00 324.00 85.00" xmlns="http://www.w3.org/2000/svg" xmlns:xlink="http://www.w3.org/1999/xlink">
<g id="graph0" class="graph" transform="scale(1 1) rotate(0) translate(4 81)">
<title>mxml_delete_node</title>
<polygon fill="white" stroke="none" points="-4,4 -4,-81 320,-81 320,4 -4,4"/>
<!-- Node1 -->
<g id="node1" class="node"><title>Node1</title>
<polygon fill="#bfbfbf" stroke="black" points="0,-38.5 0,-57.5 98,-57.5 98,-38.5 0,-38.5"/>
<text text-anchor="middle" x="49" y="-45.5" font-family="Helvetica,sans-Serif" font-size="10.00">mxml_delete_node</text>
</g>
<!-- Node2 -->
<g id="node2" class="node"><title>Node2</title>
<g id="a_node2"><a xlink:href="mxml_8c.xhtml#abca607b102fe0f2c063f39eb0259994c" target="_top" xlink:title="mxml_free">
<polygon fill="white" stroke="black" points="254,-57.5 254,-76.5 316,-76.5 316,-57.5 254,-57.5"/>
<text text-anchor="middle" x="285" y="-64.5" font-family="Helvetica,sans-Serif" font-size="10.00">mxml_free</text>
</a>
</g>
</g>
<!-- Node1&#45;&gt;Node2 -->
<g id="edge1" class="edge"><title>Node1&#45;&gt;Node2</title>
<path fill="none" stroke="midnightblue" d="M84.0366,-57.5077C99.1991,-61.2722 117.358,-65.1413 134,-67 170.926,-71.1241 213.285,-70.6512 243.551,-69.4244"/>
<polygon fill="midnightblue" stroke="midnightblue" points="243.891,-72.9127 253.723,-68.9653 243.576,-65.9198 243.891,-72.9127"/>
</g>
<!-- Node3 -->
<g id="node3" class="node"><title>Node3</title>
<g id="a_node3"><a xlink:href="mxml_8c.xhtml#a028673d16c059e7ee6f012941b0ce54b" target="_top" xlink:title="mxml_free_tree">
<polygon fill="white" stroke="black" points="134,-38.5 134,-57.5 218,-57.5 218,-38.5 134,-38.5"/>
<text text-anchor="middle" x="176" y="-45.5" font-family="Helvetica,sans-Serif" font-size="10.00">mxml_free_tree</text>
</a>
</g>
</g>
<!-- Node1&#45;&gt;Node3 -->
<g id="edge2" class="edge"><title>Node1&#45;&gt;Node3</title>
<path fill="none" stroke="midnightblue" d="M98.3283,-48C106.631,-48 115.287,-48 123.666,-48"/>
<polygon fill="midnightblue" stroke="midnightblue" points="123.706,-51.5001 133.706,-48 123.706,-44.5001 123.706,-51.5001"/>
</g>
<!-- Node4 -->
<g id="node4" class="node"><title>Node4</title>
<g id="a_node4"><a xlink:href="mxml_8c.xhtml#a2bbe1e8a7d3c830714bdfa50d3658ef8" target="_top" xlink:title="mxml_realloc">
<polygon fill="white" stroke="black" points="139,-0.5 139,-19.5 213,-19.5 213,-0.5 139,-0.5"/>
<text text-anchor="middle" x="176" y="-7.5" font-family="Helvetica,sans-Serif" font-size="10.00">mxml_realloc</text>
</a>
</g>
</g>
<!-- Node1&#45;&gt;Node4 -->
<g id="edge4" class="edge"><title>Node1&#45;&gt;Node4</title>
<path fill="none" stroke="midnightblue" d="M81.5428,-38.411C97.383,-33.5956 116.773,-27.7012 133.776,-22.532"/>
<polygon fill="midnightblue" stroke="midnightblue" points="134.918,-25.8433 143.467,-19.5859 132.882,-19.1459 134.918,-25.8433"/>
</g>
<!-- Node3&#45;&gt;Node2 -->
<g id="edge3" class="edge"><title>Node3&#45;&gt;Node2</title>
<path fill="none" stroke="midnightblue" d="M218.063,-55.2916C226.527,-56.7944 235.43,-58.3754 243.86,-59.8724"/>
<polygon fill="midnightblue" stroke="midnightblue" points="243.389,-63.3435 253.847,-61.6458 244.613,-56.4513 243.389,-63.3435"/>
</g>
</g>
</svg>
