<?xml version="1.0" encoding="UTF-8" standalone="no"?>
<!DOCTYPE svg PUBLIC "-//W3C//DTD SVG 1.1//EN"
 "http://www.w3.org/Graphics/SVG/1.1/DTD/svg11.dtd">
<!-- Generated by graphviz version 2.36.0 (20140111.2315)
 -->
<!-- Title: mxml_clone_tree Pages: 1 -->
<!--zoomable 241 -->
<svg id="main" version="1.1" xmlns="http://www.w3.org/2000/svg" xmlns:xlink="http://www.w3.org/1999/xlink" xml:space="preserve" onload="init(evt)">
<style type="text/css"><![CDATA[
.edge:hover path { stroke: red; }
.edge:hover polygon { stroke: red; fill: red; }
]]></style>
<script type="text/javascript"><![CDATA[
var edges = document.getElementsByTagName('g');
if (edges && edges.length) {
  for (var i=0;i<edges.length;i++) {
    if (edges[i].id.substr(0,4)=='edge') {
      edges[i].setAttribute('class','edge');
    }
  }
}
]]></script>
        <defs>
                <circle id="rim" cx="0" cy="0" r="7"/>
                <circle id="rim2" cx="0" cy="0" r="3.5"/>
                <g id="zoomPlus">
                        <use xlink:href="#rim" fill="#404040">
                                <set attributeName="fill" to="#808080" begin="zoomplus.mouseover" end="zoomplus.mouseout"/>
                        </use>
                        <path d="M-4,0h8M0,-4v8" fill="none" stroke="white" stroke-width="1.5" pointer-events="none"/>
                </g>
                <g id="zoomMin">
                        <use xlink:href="#rim" fill="#404040">
                                <set attributeName="fill" to="#808080" begin="zoomminus.mouseover" end="zoomminus.mouseout"/>
                        </use>
                        <path d="M-4,0h8" fill="none" stroke="white" stroke-width="1.5" pointer-events="none"/>
                </g>
                <g id="dirArrow">
                        <path fill="none" stroke="white" stroke-width="1.5" d="M0,-3.0v7 M-2.5,-0.5L0,-3.0L2.5,-0.5"/>
                </g>
               <g id="resetDef">
                       <use xlink:href="#rim2" fill="#404040">
                               <set attributeName="fill" to="#808080" begin="reset.mouseover" end="reset.mouseout"/>
                       </use>
               </g>
        </defs>

<script type="text/javascript">
var viewWidth = 636;
var viewHeight = 241;
var sectionId = 'dynsection-16';
</script>
<script xlink:href="svgpan.js"/>
<svg id="graph" class="graph">
<g id="viewport">
<title>mxml_clone_tree</title>
<polygon fill="white" stroke="none" points="-4,4 -4,-236.897 632,-236.897 632,4 -4,4"/>
<!-- Node1 -->
<g id="node1" class="node"><title>Node1</title>
<polygon fill="#bfbfbf" stroke="black" points="0.5,-133.5 0.5,-152.5 91.5,-152.5 91.5,-133.5 0.5,-133.5"/>
<text text-anchor="middle" x="46" y="-140.5" font-family="Helvetica,sans-Serif" font-size="10.00">mxml_clone_tree</text>
</g>
<!-- Node2 -->
<g id="node2" class="node"><title>Node2</title>
<g id="a_node2"><a xlink:href="mxml_8c.xhtml#a15f4b76ba97d02c8bc1009a416eb51db" target="_top" xlink:title="mxml_add_attribute">
<polygon fill="white" stroke="black" points="248,-114.5 248,-133.5 350,-133.5 350,-114.5 248,-114.5"/>
<text text-anchor="middle" x="299" y="-121.5" font-family="Helvetica,sans-Serif" font-size="10.00">mxml_add_attribute</text>
</a>
</g>
</g>
<!-- Node1&#45;&gt;Node2 -->
<g id="edge1" class="edge"><title>Node1&#45;&gt;Node2</title>
<path fill="none" stroke="midnightblue" d="M91.5845,-139.625C132.23,-136.548 192.616,-131.977 237.586,-128.573"/>
<polygon fill="midnightblue" stroke="midnightblue" points="238.09,-132.045 247.797,-127.8 237.562,-125.065 238.09,-132.045"/>
</g>
<!-- Node6 -->
<g id="node6" class="node"><title>Node6</title>
<g id="a_node6"><a xlink:href="mxml_8c.xhtml#afa48c082b68b5ea5ac0986d88fd12d43" target="_top" xlink:title="mxml_add_tree">
<polygon fill="white" stroke="black" points="128.5,-190.5 128.5,-209.5 211.5,-209.5 211.5,-190.5 128.5,-190.5"/>
<text text-anchor="middle" x="170" y="-197.5" font-family="Helvetica,sans-Serif" font-size="10.00">mxml_add_tree</text>
</a>
</g>
</g>
<!-- Node1&#45;&gt;Node6 -->
<g id="edge5" class="edge"><title>Node1&#45;&gt;Node6</title>
<path fill="none" stroke="midnightblue" d="M67.4201,-152.541C87.0375,-161.706 116.903,-175.659 139.18,-186.068"/>
<polygon fill="midnightblue" stroke="midnightblue" points="137.972,-189.366 148.513,-190.428 140.935,-183.024 137.972,-189.366"/>
</g>
<!-- Node8 -->
<g id="node8" class="node"><title>Node8</title>
<g id="a_node8"><a xlink:href="mxml_8c.xhtml#a57419c0dff3ac219083666a963cbc65d" target="_top" xlink:title="mxml_replace_node_value">
<polygon fill="white" stroke="black" points="386,-152.5 386,-171.5 518,-171.5 518,-152.5 386,-152.5"/>
<text text-anchor="middle" x="452" y="-159.5" font-family="Helvetica,sans-Serif" font-size="10.00">mxml_replace_node_value</text>
</a>
</g>
</g>
<!-- Node1&#45;&gt;Node8 -->
<g id="edge9" class="edge"><title>Node1&#45;&gt;Node8</title>
<path fill="none" stroke="midnightblue" d="M91.5621,-145.224C103.405,-145.809 116.187,-146.434 128,-147 212.761,-151.061 310.042,-155.556 375.504,-158.557"/>
<polygon fill="midnightblue" stroke="midnightblue" points="375.581,-162.064 385.73,-159.025 375.901,-155.071 375.581,-162.064"/>
</g>
<!-- Node9 -->
<g id="node9" class="node"><title>Node9</title>
<g id="a_node9"><a xlink:href="mxml_8c.xhtml#a77bc20aac65b3c46df4b08aeb52b2686" target="_top" xlink:title="mxml_subnode">
<polygon fill="white" stroke="black" points="128.5,-57.5 128.5,-76.5 211.5,-76.5 211.5,-57.5 128.5,-57.5"/>
<text text-anchor="middle" x="170" y="-64.5" font-family="Helvetica,sans-Serif" font-size="10.00">mxml_subnode</text>
</a>
</g>
</g>
<!-- Node1&#45;&gt;Node9 -->
<g id="edge12" class="edge"><title>Node1&#45;&gt;Node9</title>
<path fill="none" stroke="midnightblue" d="M62.4514,-133.375C83.2602,-120.412 120.499,-97.2139 144.978,-81.9646"/>
<polygon fill="midnightblue" stroke="midnightblue" points="147.037,-84.8056 153.674,-76.5473 143.336,-78.8641 147.037,-84.8056"/>
</g>
<!-- Node3 -->
<g id="node3" class="node"><title>Node3</title>
<g id="a_node3"><a xlink:href="mxml_8c.xhtml#a4b4f0fef6a18999e79e85a0bff15f122" target="_top" xlink:title="mxml_malloc">
<polygon fill="white" stroke="black" points="554,-180.5 554,-199.5 628,-199.5 628,-180.5 554,-180.5"/>
<text text-anchor="middle" x="591" y="-187.5" font-family="Helvetica,sans-Serif" font-size="10.00">mxml_malloc</text>
</a>
</g>
</g>
<!-- Node2&#45;&gt;Node3 -->
<g id="edge2" class="edge"><title>Node2&#45;&gt;Node3</title>
<path fill="none" stroke="midnightblue" d="M305.042,-133.669C316.309,-154.076 345.735,-201.137 386,-219 439.627,-242.79 460.405,-230.163 518,-219 533.286,-216.037 549.442,-209.841 562.567,-203.934"/>
<polygon fill="midnightblue" stroke="midnightblue" points="564.383,-206.948 571.949,-199.531 561.409,-200.611 564.383,-206.948"/>
</g>
<!-- Node4 -->
<g id="node4" class="node"><title>Node4</title>
<g id="a_node4"><a xlink:href="mxml_8c.xhtml#a2bbe1e8a7d3c830714bdfa50d3658ef8" target="_top" xlink:title="mxml_realloc">
<polygon fill="white" stroke="black" points="554,-123.5 554,-142.5 628,-142.5 628,-123.5 554,-123.5"/>
<text text-anchor="middle" x="591" y="-130.5" font-family="Helvetica,sans-Serif" font-size="10.00">mxml_realloc</text>
</a>
</g>
</g>
<!-- Node2&#45;&gt;Node4 -->
<g id="edge3" class="edge"><title>Node2&#45;&gt;Node4</title>
<path fill="none" stroke="midnightblue" d="M350.183,-125.557C404.592,-127.246 490.719,-129.919 543.601,-131.56"/>
<polygon fill="midnightblue" stroke="midnightblue" points="543.611,-135.062 553.715,-131.874 543.828,-128.065 543.611,-135.062"/>
</g>
<!-- Node5 -->
<g id="node5" class="node"><title>Node5</title>
<g id="a_node5"><a xlink:href="strlcpy_8h.xhtml#af8c865b1f481801d8d1f0a8644be4bbc" target="_top" xlink:title="strlcpy">
<polygon fill="white" stroke="black" points="429,-76.5 429,-95.5 475,-95.5 475,-76.5 429,-76.5"/>
<text text-anchor="middle" x="452" y="-83.5" font-family="Helvetica,sans-Serif" font-size="10.00">strlcpy</text>
</a>
</g>
</g>
<!-- Node2&#45;&gt;Node5 -->
<g id="edge4" class="edge"><title>Node2&#45;&gt;Node5</title>
<path fill="none" stroke="midnightblue" d="M338.104,-114.411C363.066,-108.129 395.326,-100.011 418.965,-94.0619"/>
<polygon fill="midnightblue" stroke="midnightblue" points="419.998,-97.4111 428.841,-91.5764 418.289,-90.6228 419.998,-97.4111"/>
</g>
<!-- Node7 -->
<g id="node7" class="node"><title>Node7</title>
<g id="a_node7"><a xlink:href="mxml_8c.xhtml#a9977e3be9d90ec5cc0da092c8924269d" target="_top" xlink:title="mxml_add_tree_at">
<polygon fill="white" stroke="black" points="403.5,-190.5 403.5,-209.5 500.5,-209.5 500.5,-190.5 403.5,-190.5"/>
<text text-anchor="middle" x="452" y="-197.5" font-family="Helvetica,sans-Serif" font-size="10.00">mxml_add_tree_at</text>
</a>
</g>
</g>
<!-- Node6&#45;&gt;Node7 -->
<g id="edge6" class="edge"><title>Node6&#45;&gt;Node7</title>
<path fill="none" stroke="midnightblue" d="M211.714,-200C259.449,-200 338.91,-200 393.059,-200"/>
<polygon fill="midnightblue" stroke="midnightblue" points="393.198,-203.5 403.198,-200 393.198,-196.5 393.198,-203.5"/>
</g>
<!-- Node7&#45;&gt;Node3 -->
<g id="edge7" class="edge"><title>Node7&#45;&gt;Node3</title>
<path fill="none" stroke="midnightblue" d="M500.531,-196.531C514.45,-195.515 529.646,-194.405 543.499,-193.394"/>
<polygon fill="midnightblue" stroke="midnightblue" points="544.069,-196.862 553.788,-192.643 543.56,-189.881 544.069,-196.862"/>
</g>
<!-- Node7&#45;&gt;Node4 -->
<g id="edge8" class="edge"><title>Node7&#45;&gt;Node4</title>
<path fill="none" stroke="midnightblue" d="M492.89,-190.418C501.357,-187.814 510.114,-184.676 518,-181 536.653,-172.305 555.961,-159.17 569.881,-148.838"/>
<polygon fill="midnightblue" stroke="midnightblue" points="572.343,-151.363 578.189,-142.527 568.109,-145.789 572.343,-151.363"/>
</g>
<!-- Node8&#45;&gt;Node3 -->
<g id="edge11" class="edge"><title>Node8&#45;&gt;Node3</title>
<path fill="none" stroke="midnightblue" d="M499.764,-171.558C513.986,-174.464 529.602,-177.656 543.787,-180.555"/>
<polygon fill="midnightblue" stroke="midnightblue" points="543.325,-184.033 553.823,-182.606 544.726,-177.175 543.325,-184.033"/>
</g>
<!-- Node8&#45;&gt;Node4 -->
<g id="edge10" class="edge"><title>Node8&#45;&gt;Node4</title>
<path fill="none" stroke="midnightblue" d="M498.239,-152.424C512.93,-149.314 529.242,-145.861 543.989,-142.74"/>
<polygon fill="midnightblue" stroke="midnightblue" points="544.851,-146.135 553.91,-140.64 543.402,-139.286 544.851,-146.135"/>
</g>
<!-- Node10 -->
<g id="node10" class="node"><title>Node10</title>
<g id="a_node10"><a xlink:href="mxml_8c.xhtml#ab4b547074c15b19eae1b6f16050c75d9" target="_top" xlink:title="mxml_find_nodes1">
<polygon fill="white" stroke="black" points="250,-38.5 250,-57.5 348,-57.5 348,-38.5 250,-38.5"/>
<text text-anchor="middle" x="299" y="-45.5" font-family="Helvetica,sans-Serif" font-size="10.00">mxml_find_nodes1</text>
</a>
</g>
</g>
<!-- Node9&#45;&gt;Node10 -->
<g id="edge13" class="edge"><title>Node9&#45;&gt;Node10</title>
<path fill="none" stroke="midnightblue" d="M211.533,-60.936C220.584,-59.5819 230.355,-58.1201 239.958,-56.6834"/>
<polygon fill="midnightblue" stroke="midnightblue" points="240.496,-60.142 249.868,-55.2009 239.46,-53.2191 240.496,-60.142"/>
</g>
<!-- Node10&#45;&gt;Node5 -->
<g id="edge14" class="edge"><title>Node10&#45;&gt;Node5</title>
<path fill="none" stroke="midnightblue" d="M338.104,-57.589C363.066,-63.871 395.326,-71.9893 418.965,-77.9381"/>
<polygon fill="midnightblue" stroke="midnightblue" points="418.289,-81.3772 428.841,-80.4236 419.998,-74.5889 418.289,-81.3772"/>
</g>
<!-- Node11 -->
<g id="node11" class="node"><title>Node11</title>
<g id="a_node11"><a xlink:href="mxml_8c.xhtml#afaf8076733bb1e0a00b2f3248d180bbd" target="_top" xlink:title="mxml_get_attribute">
<polygon fill="white" stroke="black" points="402,-0.5 402,-19.5 502,-19.5 502,-0.5 402,-0.5"/>
<text text-anchor="middle" x="452" y="-7.5" font-family="Helvetica,sans-Serif" font-size="10.00">mxml_get_attribute</text>
</a>
</g>
</g>
<!-- Node10&#45;&gt;Node11 -->
<g id="edge15" class="edge"><title>Node10&#45;&gt;Node11</title>
<path fill="none" stroke="midnightblue" d="M338.104,-38.411C357.94,-33.4191 382.384,-27.2676 403.448,-21.9666"/>
<polygon fill="midnightblue" stroke="midnightblue" points="404.327,-25.3548 413.17,-19.5201 402.618,-18.5664 404.327,-25.3548"/>
</g>
<!-- Node12 -->
<g id="node12" class="node"><title>Node12</title>
<g id="a_node12"><a xlink:href="mxml_8c.xhtml#a6bcd06b8ff582dece9ba510e161284d5" target="_top" xlink:title="mxml_add_resultnode">
<polygon fill="white" stroke="black" points="396,-38.5 396,-57.5 508,-57.5 508,-38.5 396,-38.5"/>
<text text-anchor="middle" x="452" y="-45.5" font-family="Helvetica,sans-Serif" font-size="10.00">mxml_add_resultnode</text>
</a>
</g>
</g>
<!-- Node10&#45;&gt;Node12 -->
<g id="edge16" class="edge"><title>Node10&#45;&gt;Node12</title>
<path fill="none" stroke="midnightblue" d="M348.193,-41.6588C360.179,-41.2845 373.227,-41.1672 385.878,-41.307"/>
<polygon fill="midnightblue" stroke="midnightblue" points="385.854,-44.807 395.911,-41.4742 385.971,-37.808 385.854,-44.807"/>
</g>
<!-- Node12&#45;&gt;Node3 -->
<g id="edge18" class="edge"><title>Node12&#45;&gt;Node3</title>
<path fill="none" stroke="midnightblue" d="M503,-57.5167C508.453,-59.9854 513.609,-63.0918 518,-67 548.646,-94.2759 531.534,-117.672 554,-152 558.899,-159.485 565.353,-166.832 571.442,-173.041"/>
<polygon fill="midnightblue" stroke="midnightblue" points="569.209,-175.752 578.815,-180.221 574.093,-170.737 569.209,-175.752"/>
</g>
<!-- Node12&#45;&gt;Node4 -->
<g id="edge19" class="edge"><title>Node12&#45;&gt;Node4</title>
<path fill="none" stroke="midnightblue" d="M496.095,-57.5673C503.645,-60.0824 511.24,-63.1905 518,-67 540.686,-79.7839 562.063,-100.979 575.538,-115.895"/>
<polygon fill="midnightblue" stroke="midnightblue" points="572.939,-118.24 582.169,-123.442 578.198,-113.62 572.939,-118.24"/>
</g>
<!-- Node12&#45;&gt;Node10 -->
<g id="edge17" class="edge"><title>Node12&#45;&gt;Node10</title>
<path fill="none" stroke="midnightblue" d="M395.911,-54.5258C383.698,-54.8002 370.714,-54.8227 358.375,-54.5932"/>
<polygon fill="midnightblue" stroke="midnightblue" points="358.276,-51.0898 348.193,-54.3412 358.103,-58.0877 358.276,-51.0898"/>
</g>
</g>
</svg>
        <g id="navigator" transform="translate(0 0)" fill="#404254">
                <rect fill="#f2f5e9" fill-opacity="0.5" stroke="#606060" stroke-width=".5" x="0" y="0" width="60" height="60"/>
                <use id="zoomplus" xlink:href="#zoomPlus" x="17" y="9" onmousedown="handleZoom(evt,'in')"/>
                <use id="zoomminus" xlink:href="#zoomMin" x="42" y="9" onmousedown="handleZoom(evt,'out')"/>
                <use id="reset" xlink:href="#resetDef" x="30" y="36" onmousedown="handleReset()"/>
                <g id="arrowUp" xlink:href="#dirArrow" transform="translate(30 24)" onmousedown="handlePan(0,-1)">
                  <use xlink:href="#rim" fill="#404040">
                        <set attributeName="fill" to="#808080" begin="arrowUp.mouseover" end="arrowUp.mouseout"/>
                  </use>
                  <path fill="none" stroke="white" stroke-width="1.5" d="M0,-3.0v7 M-2.5,-0.5L0,-3.0L2.5,-0.5"/>
                </g>
                <g id="arrowRight" xlink:href="#dirArrow" transform="rotate(90) translate(36 -43)" onmousedown="handlePan(1,0)">
                  <use xlink:href="#rim" fill="#404040">
                        <set attributeName="fill" to="#808080" begin="arrowRight.mouseover" end="arrowRight.mouseout"/>
                  </use>
                  <path fill="none" stroke="white" stroke-width="1.5" d="M0,-3.0v7 M-2.5,-0.5L0,-3.0L2.5,-0.5"/>
                </g>
                <g id="arrowDown" xlink:href="#dirArrow" transform="rotate(180) translate(-30 -48)" onmousedown="handlePan(0,1)">
                  <use xlink:href="#rim" fill="#404040">
                        <set attributeName="fill" to="#808080" begin="arrowDown.mouseover" end="arrowDown.mouseout"/>
                  </use>
                  <path fill="none" stroke="white" stroke-width="1.5" d="M0,-3.0v7 M-2.5,-0.5L0,-3.0L2.5,-0.5"/>
                </g>
                <g id="arrowLeft" xlink:href="#dirArrow" transform="rotate(270) translate(-36 17)" onmousedown="handlePan(-1,0)">
                  <use xlink:href="#rim" fill="#404040">
                        <set attributeName="fill" to="#808080" begin="arrowLeft.mouseover" end="arrowLeft.mouseout"/>
                  </use>
                  <path fill="none" stroke="white" stroke-width="1.5" d="M0,-3.0v7 M-2.5,-0.5L0,-3.0L2.5,-0.5"/>
                </g>
        </g>
        <svg viewBox="0 0 15 15" width="100%" height="30px" preserveAspectRatio="xMaxYMin meet">
         <g id="arrow_out" transform="scale(0.3 0.3)">
          <a xlink:href="mxml_8c_a73cb7fc1ac4ef0d3a05d880e1de662f4_cgraph_org.svg" target="_base">
           <rect id="button" ry="5" rx="5" y="6" x="6" height="38" width="38"
                fill="#f2f5e9" fill-opacity="0.5" stroke="#606060" stroke-width="1.0"/>
           <path id="arrow"
             d="M 11.500037,31.436501 C 11.940474,20.09759 22.043105,11.32322 32.158766,21.979434 L 37.068811,17.246167 C 37.068811,17.246167 37.088388,32 37.088388,32 L 22.160133,31.978069 C 22.160133,31.978069 26.997745,27.140456 26.997745,27.140456 C 18.528582,18.264221 13.291696,25.230495 11.500037,31.436501 z"
             style="fill:#404040;"/>
          </a>
         </g>
        </svg>
</svg>
