<?xml version="1.0" encoding="UTF-8" standalone="no"?>
<!DOCTYPE svg PUBLIC "-//W3C//DTD SVG 1.1//EN"
 "http://www.w3.org/Graphics/SVG/1.1/DTD/svg11.dtd">
<!-- Generated by graphviz version 2.36.0 (20140111.2315)
 -->
<!-- Title: mxml_write_value Pages: 1 -->
<svg width="452pt" height="142pt"
 viewBox="0.00 0.00 452.00 142.00" xmlns="http://www.w3.org/2000/svg" xmlns:xlink="http://www.w3.org/1999/xlink">
<g id="graph0" class="graph" transform="scale(1 1) rotate(0) translate(4 138)">
<title>mxml_write_value</title>
<polygon fill="white" stroke="none" points="-4,4 -4,-138 448,-138 448,4 -4,4"/>
<!-- Node1 -->
<g id="node1" class="node"><title>Node1</title>
<polygon fill="#bfbfbf" stroke="black" points="0.5,-57.5 0.5,-76.5 95.5,-76.5 95.5,-57.5 0.5,-57.5"/>
<text text-anchor="middle" x="48" y="-64.5" font-family="Helvetica,sans-Serif" font-size="10.00">mxml_write_value</text>
</g>
<!-- Node2 -->
<g id="node2" class="node"><title>Node2</title>
<g id="a_node2"><a xlink:href="mxml_8c.xhtml#acd5df9d9cc5b5f2f75c06585d7867488" target="_top" xlink:title="mxml_encode">
<polygon fill="white" stroke="black" points="137.5,-76.5 137.5,-95.5 214.5,-95.5 214.5,-76.5 137.5,-76.5"/>
<text text-anchor="middle" x="176" y="-83.5" font-family="Helvetica,sans-Serif" font-size="10.00">mxml_encode</text>
</a>
</g>
</g>
<!-- Node1&#45;&gt;Node2 -->
<g id="edge1" class="edge"><title>Node1&#45;&gt;Node2</title>
<path fill="none" stroke="midnightblue" d="M95.5598,-74.0209C105.865,-75.5749 116.801,-77.224 127.156,-78.7855"/>
<polygon fill="midnightblue" stroke="midnightblue" points="126.863,-82.2808 137.273,-80.311 127.907,-75.359 126.863,-82.2808"/>
</g>
<!-- Node5 -->
<g id="node5" class="node"><title>Node5</title>
<g id="a_node5"><a xlink:href="mxml_8c.xhtml#a4b4f0fef6a18999e79e85a0bff15f122" target="_top" xlink:title="mxml_malloc">
<polygon fill="white" stroke="black" points="264,-114.5 264,-133.5 338,-133.5 338,-114.5 264,-114.5"/>
<text text-anchor="middle" x="301" y="-121.5" font-family="Helvetica,sans-Serif" font-size="10.00">mxml_malloc</text>
</a>
</g>
</g>
<!-- Node1&#45;&gt;Node5 -->
<g id="edge7" class="edge"><title>Node1&#45;&gt;Node5</title>
<path fill="none" stroke="midnightblue" d="M65.8819,-76.6653C82.2405,-85.5564 108.026,-98.3398 132,-105 172.239,-116.179 219.645,-120.801 253.821,-122.701"/>
<polygon fill="midnightblue" stroke="midnightblue" points="253.818,-126.205 263.98,-123.208 254.166,-119.214 253.818,-126.205"/>
</g>
<!-- Node6 -->
<g id="node6" class="node"><title>Node6</title>
<g id="a_node6"><a xlink:href="mxml_8c.xhtml#a2bbe1e8a7d3c830714bdfa50d3658ef8" target="_top" xlink:title="mxml_realloc">
<polygon fill="white" stroke="black" points="264,-0.5 264,-19.5 338,-19.5 338,-0.5 264,-0.5"/>
<text text-anchor="middle" x="301" y="-7.5" font-family="Helvetica,sans-Serif" font-size="10.00">mxml_realloc</text>
</a>
</g>
</g>
<!-- Node1&#45;&gt;Node6 -->
<g id="edge8" class="edge"><title>Node1&#45;&gt;Node6</title>
<path fill="none" stroke="midnightblue" d="M92.6152,-57.4905C127.194,-49.9072 176.727,-38.9462 220,-29 230.971,-26.4783 242.775,-23.7072 253.856,-21.0797"/>
<polygon fill="midnightblue" stroke="midnightblue" points="254.867,-24.4371 263.786,-18.7184 253.247,-17.627 254.867,-24.4371"/>
</g>
<!-- Node8 -->
<g id="node8" class="node"><title>Node8</title>
<g id="a_node8"><a xlink:href="mxml_8c.xhtml#a51b3bd43da7f4331d38ed5593953610a" target="_top" xlink:title="mxml_write_line">
<polygon fill="white" stroke="black" points="132.5,-0.5 132.5,-19.5 219.5,-19.5 219.5,-0.5 132.5,-0.5"/>
<text text-anchor="middle" x="176" y="-7.5" font-family="Helvetica,sans-Serif" font-size="10.00">mxml_write_line</text>
</a>
</g>
</g>
<!-- Node1&#45;&gt;Node8 -->
<g id="edge9" class="edge"><title>Node1&#45;&gt;Node8</title>
<path fill="none" stroke="midnightblue" d="M70.0896,-57.4595C90.4411,-48.2528 121.472,-34.2153 144.511,-23.7926"/>
<polygon fill="midnightblue" stroke="midnightblue" points="146.173,-26.8823 153.842,-19.5716 143.288,-20.5045 146.173,-26.8823"/>
</g>
<!-- Node3 -->
<g id="node3" class="node"><title>Node3</title>
<g id="a_node3"><a xlink:href="mxml_8c.xhtml#a2fa2fb9cb281f3461fedf2d47ea81ce1" target="_top" xlink:title="mxml_deallocate">
<polygon fill="white" stroke="black" points="256,-76.5 256,-95.5 346,-95.5 346,-76.5 256,-76.5"/>
<text text-anchor="middle" x="301" y="-83.5" font-family="Helvetica,sans-Serif" font-size="10.00">mxml_deallocate</text>
</a>
</g>
</g>
<!-- Node2&#45;&gt;Node3 -->
<g id="edge2" class="edge"><title>Node2&#45;&gt;Node3</title>
<path fill="none" stroke="midnightblue" d="M214.572,-86C224.322,-86 235.022,-86 245.452,-86"/>
<polygon fill="midnightblue" stroke="midnightblue" points="245.746,-89.5001 255.746,-86 245.746,-82.5001 245.746,-89.5001"/>
</g>
<!-- Node2&#45;&gt;Node5 -->
<g id="edge4" class="edge"><title>Node2&#45;&gt;Node5</title>
<path fill="none" stroke="midnightblue" d="M208.038,-95.589C223.479,-100.359 242.348,-106.189 258.966,-111.323"/>
<polygon fill="midnightblue" stroke="midnightblue" points="258.384,-114.806 268.972,-114.414 260.451,-108.118 258.384,-114.806"/>
</g>
<!-- Node2&#45;&gt;Node6 -->
<g id="edge5" class="edge"><title>Node2&#45;&gt;Node6</title>
<path fill="none" stroke="midnightblue" d="M196.422,-76.4018C204.019,-72.3328 212.653,-67.3061 220,-62 237.596,-49.2914 237.783,-40.8001 256,-29 258.724,-27.2358 261.639,-25.5682 264.623,-24.0086"/>
<polygon fill="midnightblue" stroke="midnightblue" points="266.167,-27.1502 273.666,-19.6658 263.136,-20.8402 266.167,-27.1502"/>
</g>
<!-- Node7 -->
<g id="node7" class="node"><title>Node7</title>
<g id="a_node7"><a xlink:href="strlcpy_8h.xhtml#af8c865b1f481801d8d1f0a8644be4bbc" target="_top" xlink:title="strlcpy">
<polygon fill="white" stroke="black" points="278,-38.5 278,-57.5 324,-57.5 324,-38.5 278,-38.5"/>
<text text-anchor="middle" x="301" y="-45.5" font-family="Helvetica,sans-Serif" font-size="10.00">strlcpy</text>
</a>
</g>
</g>
<!-- Node2&#45;&gt;Node7 -->
<g id="edge6" class="edge"><title>Node2&#45;&gt;Node7</title>
<path fill="none" stroke="midnightblue" d="M208.038,-76.411C226.413,-70.7343 249.641,-63.5582 268.155,-57.8384"/>
<polygon fill="midnightblue" stroke="midnightblue" points="269.373,-61.1252 277.895,-54.8293 267.307,-54.4371 269.373,-61.1252"/>
</g>
<!-- Node4 -->
<g id="node4" class="node"><title>Node4</title>
<g id="a_node4"><a xlink:href="mxml_8c.xhtml#abca607b102fe0f2c063f39eb0259994c" target="_top" xlink:title="mxml_free">
<polygon fill="white" stroke="black" points="382,-76.5 382,-95.5 444,-95.5 444,-76.5 382,-76.5"/>
<text text-anchor="middle" x="413" y="-83.5" font-family="Helvetica,sans-Serif" font-size="10.00">mxml_free</text>
</a>
</g>
</g>
<!-- Node3&#45;&gt;Node4 -->
<g id="edge3" class="edge"><title>Node3&#45;&gt;Node4</title>
<path fill="none" stroke="midnightblue" d="M346.107,-86C354.513,-86 363.272,-86 371.556,-86"/>
<polygon fill="midnightblue" stroke="midnightblue" points="371.733,-89.5001 381.733,-86 371.733,-82.5001 371.733,-89.5001"/>
</g>
<!-- Node8&#45;&gt;Node6 -->
<g id="edge10" class="edge"><title>Node8&#45;&gt;Node6</title>
<path fill="none" stroke="midnightblue" d="M219.674,-10C230.724,-10 242.671,-10 253.888,-10"/>
<polygon fill="midnightblue" stroke="midnightblue" points="253.937,-13.5001 263.937,-10 253.937,-6.5001 253.937,-13.5001"/>
</g>
</g>
</svg>
