<?xml version="1.0" encoding="UTF-8" standalone="no"?>
<!DOCTYPE svg PUBLIC "-//W3C//DTD SVG 1.1//EN"
 "http://www.w3.org/Graphics/SVG/1.1/DTD/svg11.dtd">
<!-- Generated by graphviz version 2.36.0 (20140111.2315)
 -->
<!-- Title: mxml_write_tree Pages: 1 -->
<!--zoomable 368 -->
<svg id="main" version="1.1" xmlns="http://www.w3.org/2000/svg" xmlns:xlink="http://www.w3.org/1999/xlink" xml:space="preserve" onload="init(evt)">
<style type="text/css"><![CDATA[
.edge:hover path { stroke: red; }
.edge:hover polygon { stroke: red; fill: red; }
]]></style>
<script type="text/javascript"><![CDATA[
var edges = document.getElementsByTagName('g');
if (edges && edges.length) {
  for (var i=0;i<edges.length;i++) {
    if (edges[i].id.substr(0,4)=='edge') {
      edges[i].setAttribute('class','edge');
    }
  }
}
]]></script>
        <defs>
                <circle id="rim" cx="0" cy="0" r="7"/>
                <circle id="rim2" cx="0" cy="0" r="3.5"/>
                <g id="zoomPlus">
                        <use xlink:href="#rim" fill="#404040">
                                <set attributeName="fill" to="#808080" begin="zoomplus.mouseover" end="zoomplus.mouseout"/>
                        </use>
                        <path d="M-4,0h8M0,-4v8" fill="none" stroke="white" stroke-width="1.5" pointer-events="none"/>
                </g>
                <g id="zoomMin">
                        <use xlink:href="#rim" fill="#404040">
                                <set attributeName="fill" to="#808080" begin="zoomminus.mouseover" end="zoomminus.mouseout"/>
                        </use>
                        <path d="M-4,0h8" fill="none" stroke="white" stroke-width="1.5" pointer-events="none"/>
                </g>
                <g id="dirArrow">
                        <path fill="none" stroke="white" stroke-width="1.5" d="M0,-3.0v7 M-2.5,-0.5L0,-3.0L2.5,-0.5"/>
                </g>
               <g id="resetDef">
                       <use xlink:href="#rim2" fill="#404040">
                               <set attributeName="fill" to="#808080" begin="reset.mouseover" end="reset.mouseout"/>
                       </use>
               </g>
        </defs>

<script type="text/javascript">
var viewWidth = 732;
var viewHeight = 368;
var sectionId = 'dynsection-75';
</script>
<script xlink:href="svgpan.js"/>
<svg id="graph" class="graph">
<g id="viewport">
<title>mxml_write_tree</title>
<polygon fill="white" stroke="none" points="-4,4 -4,-364.029 728,-364.029 728,4 -4,4"/>
<!-- Node1 -->
<g id="node1" class="node"><title>Node1</title>
<polygon fill="#bfbfbf" stroke="black" points="0.5,-171.152 0.5,-190.152 89.5,-190.152 89.5,-171.152 0.5,-171.152"/>
<text text-anchor="middle" x="45" y="-178.152" font-family="Helvetica,sans-Serif" font-size="10.00">mxml_write_tree</text>
</g>
<!-- Node2 -->
<g id="node2" class="node"><title>Node2</title>
<g id="a_node2"><a xlink:href="mxml_8c.xhtml#a7409705a71ea5d17f3746cd1c49c3b00" target="_top" xlink:title="mxml_close_file">
<polygon fill="white" stroke="black" points="134.5,-133.152 134.5,-152.152 221.5,-152.152 221.5,-133.152 134.5,-133.152"/>
<text text-anchor="middle" x="178" y="-140.152" font-family="Helvetica,sans-Serif" font-size="10.00">mxml_close_file</text>
</a>
</g>
</g>
<!-- Node1&#45;&gt;Node2 -->
<g id="edge1" class="edge"><title>Node1&#45;&gt;Node2</title>
<path fill="none" stroke="midnightblue" d="M79.0568,-171.063C95.8125,-166.203 116.358,-160.243 134.297,-155.039"/>
<polygon fill="midnightblue" stroke="midnightblue" points="135.325,-158.385 143.954,-152.238 133.375,-151.663 135.325,-158.385"/>
</g>
<!-- Node8 -->
<g id="node8" class="node"><title>Node8</title>
<g id="a_node8"><a xlink:href="mxml_8c.xhtml#a63bf060bd7ed517fed1d2399c253f4d8" target="_top" xlink:title="mxml_open_file">
<polygon fill="white" stroke="black" points="278.5,-323.152 278.5,-342.152 363.5,-342.152 363.5,-323.152 278.5,-323.152"/>
<text text-anchor="middle" x="321" y="-330.152" font-family="Helvetica,sans-Serif" font-size="10.00">mxml_open_file</text>
</a>
</g>
</g>
<!-- Node1&#45;&gt;Node8 -->
<g id="edge9" class="edge"><title>Node1&#45;&gt;Node8</title>
<path fill="none" stroke="midnightblue" d="M63.1399,-190.16C109.656,-215.965 238.486,-287.433 293.998,-318.228"/>
<polygon fill="midnightblue" stroke="midnightblue" points="292.424,-321.357 302.867,-323.147 295.82,-315.236 292.424,-321.357"/>
</g>
<!-- Node10 -->
<g id="node10" class="node"><title>Node10</title>
<g id="a_node10"><a xlink:href="mxml_8c.xhtml#aad3952c0c32fc16aa78fde6faa7bd002" target="_top" xlink:title="mxml_write_subtree">
<polygon fill="white" stroke="black" points="126,-171.152 126,-190.152 230,-190.152 230,-171.152 126,-171.152"/>
<text text-anchor="middle" x="178" y="-178.152" font-family="Helvetica,sans-Serif" font-size="10.00">mxml_write_subtree</text>
</a>
</g>
</g>
<!-- Node1&#45;&gt;Node10 -->
<g id="edge13" class="edge"><title>Node1&#45;&gt;Node10</title>
<path fill="none" stroke="midnightblue" d="M89.6211,-180.652C97.9665,-180.652 106.847,-180.652 115.629,-180.652"/>
<polygon fill="midnightblue" stroke="midnightblue" points="115.854,-184.152 125.854,-180.652 115.854,-177.152 115.854,-184.152"/>
</g>
<!-- Node3 -->
<g id="node3" class="node"><title>Node3</title>
<g id="a_node3"><a xlink:href="mxml_8c.xhtml#a31efd9013ec552f43c6ff48c46be7a49" target="_top" xlink:title="mxml_end_element">
<polygon fill="white" stroke="black" points="270.5,-95.1521 270.5,-114.152 371.5,-114.152 371.5,-95.1521 270.5,-95.1521"/>
<text text-anchor="middle" x="321" y="-102.152" font-family="Helvetica,sans-Serif" font-size="10.00">mxml_end_element</text>
</a>
</g>
</g>
<!-- Node2&#45;&gt;Node3 -->
<g id="edge2" class="edge"><title>Node2&#45;&gt;Node3</title>
<path fill="none" stroke="midnightblue" d="M214.58,-133.063C232.782,-128.158 255.138,-122.132 274.572,-116.895"/>
<polygon fill="midnightblue" stroke="midnightblue" points="275.686,-120.22 284.431,-114.238 273.865,-113.461 275.686,-120.22"/>
</g>
<!-- Node4 -->
<g id="node4" class="node"><title>Node4</title>
<g id="a_node4"><a xlink:href="mxml_8c.xhtml#abca607b102fe0f2c063f39eb0259994c" target="_top" xlink:title="mxml_free">
<polygon fill="white" stroke="black" points="662,-114.152 662,-133.152 724,-133.152 724,-114.152 662,-114.152"/>
<text text-anchor="middle" x="693" y="-121.152" font-family="Helvetica,sans-Serif" font-size="10.00">mxml_free</text>
</a>
</g>
</g>
<!-- Node2&#45;&gt;Node4 -->
<g id="edge7" class="edge"><title>Node2&#45;&gt;Node4</title>
<path fill="none" stroke="midnightblue" d="M191.132,-132.862C224.102,-107.013 319.116,-37.4954 412,-16.6521 505.249,4.2732 544.064,11.5392 626,-37.6521 652.641,-53.6466 672.371,-84.7818 683.023,-104.875"/>
<polygon fill="midnightblue" stroke="midnightblue" points="679.996,-106.645 687.634,-113.987 686.242,-103.484 679.996,-106.645"/>
</g>
<!-- Node5 -->
<g id="node5" class="node"><title>Node5</title>
<g id="a_node5"><a xlink:href="mxml_8c.xhtml#a51b3bd43da7f4331d38ed5593953610a" target="_top" xlink:title="mxml_write_line">
<polygon fill="white" stroke="black" points="412.5,-190.152 412.5,-209.152 499.5,-209.152 499.5,-190.152 412.5,-190.152"/>
<text text-anchor="middle" x="456" y="-197.152" font-family="Helvetica,sans-Serif" font-size="10.00">mxml_write_line</text>
</a>
</g>
</g>
<!-- Node2&#45;&gt;Node5 -->
<g id="edge8" class="edge"><title>Node2&#45;&gt;Node5</title>
<path fill="none" stroke="midnightblue" d="M221.893,-152.168C235.939,-155.244 251.626,-158.638 266,-161.652 312.006,-171.3 364.42,-181.799 402.362,-189.312"/>
<polygon fill="midnightblue" stroke="midnightblue" points="401.684,-192.746 412.173,-191.252 403.042,-185.879 401.684,-192.746"/>
</g>
<!-- Node3&#45;&gt;Node4 -->
<g id="edge3" class="edge"><title>Node3&#45;&gt;Node4</title>
<path fill="none" stroke="midnightblue" d="M329.365,-95.0363C343.272,-77.7712 375.316,-42.0691 412,-28.6521 448.731,-15.2178 461.916,-19.7457 500,-28.6521 566.153,-44.1229 635.66,-85.8878 670.05,-108.543"/>
<polygon fill="midnightblue" stroke="midnightblue" points="668.143,-111.478 678.401,-114.127 672.033,-105.659 668.143,-111.478"/>
</g>
<!-- Node3&#45;&gt;Node5 -->
<g id="edge4" class="edge"><title>Node3&#45;&gt;Node5</title>
<path fill="none" stroke="midnightblue" d="M356.147,-114.172C362.971,-116.754 369.908,-119.899 376,-123.652 401.802,-139.549 426.072,-165.076 440.732,-182.101"/>
<polygon fill="midnightblue" stroke="midnightblue" points="438.368,-184.728 447.48,-190.133 443.728,-180.225 438.368,-184.728"/>
</g>
<!-- Node7 -->
<g id="node7" class="node"><title>Node7</title>
<g id="a_node7"><a xlink:href="strlcpy_8h.xhtml#aa031012870e97fea95c0b78d51b4471b" target="_top" xlink:title="strlcat">
<polygon fill="white" stroke="black" points="434,-38.1521 434,-57.1521 478,-57.1521 478,-38.1521 434,-38.1521"/>
<text text-anchor="middle" x="456" y="-45.1521" font-family="Helvetica,sans-Serif" font-size="10.00">strlcat</text>
</a>
</g>
</g>
<!-- Node3&#45;&gt;Node7 -->
<g id="edge6" class="edge"><title>Node3&#45;&gt;Node7</title>
<path fill="none" stroke="midnightblue" d="M344.261,-95.1115C366.327,-85.6548 400.285,-71.1012 424.78,-60.6035"/>
<polygon fill="midnightblue" stroke="midnightblue" points="426.172,-63.8151 433.984,-56.6588 423.414,-57.3811 426.172,-63.8151"/>
</g>
<!-- Node6 -->
<g id="node6" class="node"><title>Node6</title>
<g id="a_node6"><a xlink:href="mxml_8c.xhtml#a2bbe1e8a7d3c830714bdfa50d3658ef8" target="_top" xlink:title="mxml_realloc">
<polygon fill="white" stroke="black" points="544,-190.152 544,-209.152 618,-209.152 618,-190.152 544,-190.152"/>
<text text-anchor="middle" x="581" y="-197.152" font-family="Helvetica,sans-Serif" font-size="10.00">mxml_realloc</text>
</a>
</g>
</g>
<!-- Node5&#45;&gt;Node6 -->
<g id="edge5" class="edge"><title>Node5&#45;&gt;Node6</title>
<path fill="none" stroke="midnightblue" d="M499.674,-199.652C510.724,-199.652 522.671,-199.652 533.888,-199.652"/>
<polygon fill="midnightblue" stroke="midnightblue" points="533.937,-203.152 543.937,-199.652 533.937,-196.152 533.937,-203.152"/>
</g>
<!-- Node8&#45;&gt;Node4 -->
<g id="edge10" class="edge"><title>Node8&#45;&gt;Node4</title>
<path fill="none" stroke="midnightblue" d="M354.032,-342.18C415.509,-358.292 550.616,-382.843 626,-313.652 675.892,-267.859 688.069,-182.406 691.041,-143.664"/>
<polygon fill="midnightblue" stroke="midnightblue" points="694.562,-143.437 691.699,-133.236 687.576,-142.996 694.562,-143.437"/>
</g>
<!-- Node8&#45;&gt;Node5 -->
<g id="edge12" class="edge"><title>Node8&#45;&gt;Node5</title>
<path fill="none" stroke="midnightblue" d="M332.18,-323.095C343.529,-312.18 362.111,-293.516 376,-275.652 394.391,-251.997 389.312,-238.223 412,-218.652 413.757,-217.136 415.655,-215.722 417.64,-214.407"/>
<polygon fill="midnightblue" stroke="midnightblue" points="419.759,-217.229 426.738,-209.257 416.311,-211.138 419.759,-217.229"/>
</g>
<!-- Node9 -->
<g id="node9" class="node"><title>Node9</title>
<g id="a_node9"><a xlink:href="mxml_8c.xhtml#a4b4f0fef6a18999e79e85a0bff15f122" target="_top" xlink:title="mxml_malloc">
<polygon fill="white" stroke="black" points="544,-285.152 544,-304.152 618,-304.152 618,-285.152 544,-285.152"/>
<text text-anchor="middle" x="581" y="-292.152" font-family="Helvetica,sans-Serif" font-size="10.00">mxml_malloc</text>
</a>
</g>
</g>
<!-- Node8&#45;&gt;Node9 -->
<g id="edge11" class="edge"><title>Node8&#45;&gt;Node9</title>
<path fill="none" stroke="midnightblue" d="M363.506,-335.689C399.904,-337.361 454.038,-337.432 500,-327.652 518.323,-323.753 537.775,-315.824 552.91,-308.715"/>
<polygon fill="midnightblue" stroke="midnightblue" points="554.712,-311.731 562.177,-304.213 551.653,-305.435 554.712,-311.731"/>
</g>
<!-- Node10&#45;&gt;Node3 -->
<g id="edge14" class="edge"><title>Node10&#45;&gt;Node3</title>
<path fill="none" stroke="midnightblue" d="M211.374,-171.133C217.81,-168.551 224.326,-165.406 230,-161.652 249.402,-148.815 246.481,-136.311 266,-123.652 269.101,-121.641 272.44,-119.813 275.883,-118.158"/>
<polygon fill="midnightblue" stroke="midnightblue" points="277.345,-121.339 285.148,-114.172 274.579,-114.909 277.345,-121.339"/>
</g>
<!-- Node11 -->
<g id="node11" class="node"><title>Node11</title>
<g id="a_node11"><a xlink:href="mxml_8c.xhtml#a43879e9508767beaf57424ec1393f661" target="_top" xlink:title="mxml_start_element1">
<polygon fill="white" stroke="black" points="266,-133.152 266,-152.152 376,-152.152 376,-133.152 266,-133.152"/>
<text text-anchor="middle" x="321" y="-140.152" font-family="Helvetica,sans-Serif" font-size="10.00">mxml_start_element1</text>
</a>
</g>
</g>
<!-- Node10&#45;&gt;Node11 -->
<g id="edge15" class="edge"><title>Node10&#45;&gt;Node11</title>
<path fill="none" stroke="midnightblue" d="M214.58,-171.063C232.782,-166.158 255.138,-160.132 274.572,-154.895"/>
<polygon fill="midnightblue" stroke="midnightblue" points="275.686,-158.22 284.431,-152.238 273.865,-151.461 275.686,-158.22"/>
</g>
<!-- Node15 -->
<g id="node15" class="node"><title>Node15</title>
<g id="a_node15"><a xlink:href="mxml_8c.xhtml#a7745af802a053bde67f77555ab47a17b" target="_top" xlink:title="mxml_write_attribute">
<polygon fill="white" stroke="black" points="267.5,-209.152 267.5,-228.152 374.5,-228.152 374.5,-209.152 267.5,-209.152"/>
<text text-anchor="middle" x="321" y="-216.152" font-family="Helvetica,sans-Serif" font-size="10.00">mxml_write_attribute</text>
</a>
</g>
</g>
<!-- Node10&#45;&gt;Node15 -->
<g id="edge27" class="edge"><title>Node10&#45;&gt;Node15</title>
<path fill="none" stroke="midnightblue" d="M214.58,-190.241C232.782,-195.147 255.138,-201.172 274.572,-206.409"/>
<polygon fill="midnightblue" stroke="midnightblue" points="273.865,-209.843 284.431,-209.066 275.686,-203.084 273.865,-209.843"/>
</g>
<!-- Node16 -->
<g id="node16" class="node"><title>Node16</title>
<g id="a_node16"><a xlink:href="mxml_8c.xhtml#a9cf33f3456fea00ea438422ebb7bd6be" target="_top" xlink:title="mxml_write_value">
<polygon fill="white" stroke="black" points="273.5,-247.152 273.5,-266.152 368.5,-266.152 368.5,-247.152 273.5,-247.152"/>
<text text-anchor="middle" x="321" y="-254.152" font-family="Helvetica,sans-Serif" font-size="10.00">mxml_write_value</text>
</a>
</g>
</g>
<!-- Node10&#45;&gt;Node16 -->
<g id="edge30" class="edge"><title>Node10&#45;&gt;Node16</title>
<path fill="none" stroke="midnightblue" d="M191.391,-190.164C207.765,-202.399 237.835,-223.727 266,-237.652 270.12,-239.689 274.515,-241.61 278.949,-243.391"/>
<polygon fill="midnightblue" stroke="midnightblue" points="278.039,-246.789 288.631,-247.055 280.517,-240.242 278.039,-246.789"/>
</g>
<!-- Node11&#45;&gt;Node5 -->
<g id="edge24" class="edge"><title>Node11&#45;&gt;Node5</title>
<path fill="none" stroke="midnightblue" d="M344.261,-152.193C365.935,-161.481 399.084,-175.688 423.467,-186.138"/>
<polygon fill="midnightblue" stroke="midnightblue" points="422.096,-189.358 432.666,-190.08 424.853,-182.924 422.096,-189.358"/>
</g>
<!-- Node11&#45;&gt;Node6 -->
<g id="edge23" class="edge"><title>Node11&#45;&gt;Node6</title>
<path fill="none" stroke="midnightblue" d="M376.208,-136.669C412.134,-134.509 459.861,-135.138 500,-147.652 523.267,-154.906 546.213,-170.997 561.523,-183.372"/>
<polygon fill="midnightblue" stroke="midnightblue" points="559.685,-186.398 569.6,-190.134 564.179,-181.031 559.685,-186.398"/>
</g>
<!-- Node11&#45;&gt;Node7 -->
<g id="edge25" class="edge"><title>Node11&#45;&gt;Node7</title>
<path fill="none" stroke="midnightblue" d="M359.029,-133.132C365.04,-130.627 370.943,-127.51 376,-123.652 398.347,-106.601 391.189,-90.5467 412,-71.6521 415.857,-68.1501 420.315,-64.9555 424.868,-62.1203"/>
<polygon fill="midnightblue" stroke="midnightblue" points="426.664,-65.1253 433.609,-57.1248 423.19,-59.0477 426.664,-65.1253"/>
</g>
<!-- Node11&#45;&gt;Node9 -->
<g id="edge22" class="edge"><title>Node11&#45;&gt;Node9</title>
<path fill="none" stroke="midnightblue" d="M376.051,-148.872C421.165,-155.009 481.043,-165.653 500,-180.652 529.31,-203.843 513.369,-226.907 536,-256.652 542.194,-264.793 550.379,-272.443 558.009,-278.716"/>
<polygon fill="midnightblue" stroke="midnightblue" points="555.919,-281.525 565.949,-284.94 560.237,-276.016 555.919,-281.525"/>
</g>
<!-- Node12 -->
<g id="node12" class="node"><title>Node12</title>
<g id="a_node12"><a xlink:href="mxml_8c.xhtml#acd5df9d9cc5b5f2f75c06585d7867488" target="_top" xlink:title="mxml_encode">
<polygon fill="white" stroke="black" points="417.5,-228.152 417.5,-247.152 494.5,-247.152 494.5,-228.152 417.5,-228.152"/>
<text text-anchor="middle" x="456" y="-235.152" font-family="Helvetica,sans-Serif" font-size="10.00">mxml_encode</text>
</a>
</g>
</g>
<!-- Node11&#45;&gt;Node12 -->
<g id="edge16" class="edge"><title>Node11&#45;&gt;Node12</title>
<path fill="none" stroke="midnightblue" d="M331.781,-152.572C347.557,-168.171 380.092,-198.707 412,-218.652 414.768,-220.382 417.721,-222.036 420.734,-223.594"/>
<polygon fill="midnightblue" stroke="midnightblue" points="419.295,-226.786 429.824,-227.966 422.329,-220.478 419.295,-226.786"/>
</g>
<!-- Node14 -->
<g id="node14" class="node"><title>Node14</title>
<g id="a_node14"><a xlink:href="strlcpy_8h.xhtml#af8c865b1f481801d8d1f0a8644be4bbc" target="_top" xlink:title="strlcpy">
<polygon fill="white" stroke="black" points="558,-114.152 558,-133.152 604,-133.152 604,-114.152 558,-114.152"/>
<text text-anchor="middle" x="581" y="-121.152" font-family="Helvetica,sans-Serif" font-size="10.00">strlcpy</text>
</a>
</g>
</g>
<!-- Node11&#45;&gt;Node14 -->
<g id="edge26" class="edge"><title>Node11&#45;&gt;Node14</title>
<path fill="none" stroke="midnightblue" d="M349.811,-133.061C358.244,-130.101 367.519,-126.792 376,-123.652 392.099,-117.691 395.127,-112.817 412,-109.652 458.794,-100.873 513.954,-108.904 547.953,-115.926"/>
<polygon fill="midnightblue" stroke="midnightblue" points="547.279,-119.361 557.792,-118.054 548.758,-112.52 547.279,-119.361"/>
</g>
<!-- Node12&#45;&gt;Node6 -->
<g id="edge20" class="edge"><title>Node12&#45;&gt;Node6</title>
<path fill="none" stroke="midnightblue" d="M488.038,-228.063C503.479,-223.293 522.348,-217.463 538.966,-212.329"/>
<polygon fill="midnightblue" stroke="midnightblue" points="540.451,-215.534 548.972,-209.238 538.384,-208.846 540.451,-215.534"/>
</g>
<!-- Node12&#45;&gt;Node9 -->
<g id="edge19" class="edge"><title>Node12&#45;&gt;Node9</title>
<path fill="none" stroke="midnightblue" d="M477.587,-247.193C497.454,-256.399 527.746,-270.437 550.237,-280.859"/>
<polygon fill="midnightblue" stroke="midnightblue" points="548.801,-284.051 559.345,-285.08 551.744,-277.7 548.801,-284.051"/>
</g>
<!-- Node13 -->
<g id="node13" class="node"><title>Node13</title>
<g id="a_node13"><a xlink:href="mxml_8c.xhtml#a2fa2fb9cb281f3461fedf2d47ea81ce1" target="_top" xlink:title="mxml_deallocate">
<polygon fill="white" stroke="black" points="536,-228.152 536,-247.152 626,-247.152 626,-228.152 536,-228.152"/>
<text text-anchor="middle" x="581" y="-235.152" font-family="Helvetica,sans-Serif" font-size="10.00">mxml_deallocate</text>
</a>
</g>
</g>
<!-- Node12&#45;&gt;Node13 -->
<g id="edge17" class="edge"><title>Node12&#45;&gt;Node13</title>
<path fill="none" stroke="midnightblue" d="M494.572,-237.652C504.322,-237.652 515.022,-237.652 525.452,-237.652"/>
<polygon fill="midnightblue" stroke="midnightblue" points="525.746,-241.152 535.746,-237.652 525.746,-234.152 525.746,-241.152"/>
</g>
<!-- Node12&#45;&gt;Node14 -->
<g id="edge21" class="edge"><title>Node12&#45;&gt;Node14</title>
<path fill="none" stroke="midnightblue" d="M483.972,-227.992C489.537,-225.392 495.168,-222.276 500,-218.652 515.363,-207.13 548.078,-165.649 566.56,-141.478"/>
<polygon fill="midnightblue" stroke="midnightblue" points="569.402,-143.523 572.667,-133.444 563.829,-139.287 569.402,-143.523"/>
</g>
<!-- Node13&#45;&gt;Node4 -->
<g id="edge18" class="edge"><title>Node13&#45;&gt;Node4</title>
<path fill="none" stroke="midnightblue" d="M610.79,-227.977C616.159,-225.431 621.492,-222.34 626,-218.652 651.916,-197.453 672.068,-163.574 682.973,-142.522"/>
<polygon fill="midnightblue" stroke="midnightblue" points="686.227,-143.839 687.568,-133.329 679.966,-140.709 686.227,-143.839"/>
</g>
<!-- Node15&#45;&gt;Node5 -->
<g id="edge29" class="edge"><title>Node15&#45;&gt;Node5</title>
<path fill="none" stroke="midnightblue" d="M374.565,-211.143C383.639,-209.846 393.075,-208.498 402.156,-207.201"/>
<polygon fill="midnightblue" stroke="midnightblue" points="402.816,-210.643 412.22,-205.763 401.826,-203.713 402.816,-210.643"/>
</g>
<!-- Node15&#45;&gt;Node12 -->
<g id="edge28" class="edge"><title>Node15&#45;&gt;Node12</title>
<path fill="none" stroke="midnightblue" d="M374.565,-226.161C385.35,-227.702 396.646,-229.316 407.25,-230.831"/>
<polygon fill="midnightblue" stroke="midnightblue" points="406.771,-234.298 417.166,-232.247 407.761,-227.368 406.771,-234.298"/>
</g>
<!-- Node16&#45;&gt;Node5 -->
<g id="edge31" class="edge"><title>Node16&#45;&gt;Node5</title>
<path fill="none" stroke="midnightblue" d="M351.732,-247.073C359.706,-244.266 368.259,-241.035 376,-237.652 392.578,-230.408 395.716,-226.535 412,-218.652 415.616,-216.902 419.43,-215.122 423.234,-213.389"/>
<polygon fill="midnightblue" stroke="midnightblue" points="424.849,-216.501 432.547,-209.221 421.99,-210.112 424.849,-216.501"/>
</g>
<!-- Node16&#45;&gt;Node6 -->
<g id="edge33" class="edge"><title>Node16&#45;&gt;Node6</title>
<path fill="none" stroke="midnightblue" d="M367.126,-266.187C404.342,-271.861 457.702,-274.846 500,-256.652 521.371,-247.46 516.932,-231.98 536,-218.652 538.511,-216.897 541.209,-215.254 543.989,-213.727"/>
<polygon fill="midnightblue" stroke="midnightblue" points="545.615,-216.828 553.019,-209.25 542.505,-210.557 545.615,-216.828"/>
</g>
<!-- Node16&#45;&gt;Node9 -->
<g id="edge32" class="edge"><title>Node16&#45;&gt;Node9</title>
<path fill="none" stroke="midnightblue" d="M342.194,-266.193C360.091,-274.125 387.162,-284.86 412,-289.652 452.635,-297.492 499.81,-298.18 533.806,-297.234"/>
<polygon fill="midnightblue" stroke="midnightblue" points="534.035,-300.728 543.912,-296.894 533.8,-293.732 534.035,-300.728"/>
</g>
<!-- Node16&#45;&gt;Node12 -->
<g id="edge34" class="edge"><title>Node16&#45;&gt;Node12</title>
<path fill="none" stroke="midnightblue" d="M368.517,-250.007C380.924,-248.234 394.354,-246.316 406.846,-244.531"/>
<polygon fill="midnightblue" stroke="midnightblue" points="407.672,-247.949 417.077,-243.07 406.682,-241.019 407.672,-247.949"/>
</g>
</g>
</svg>
        <g id="navigator" transform="translate(0 0)" fill="#404254">
                <rect fill="#f2f5e9" fill-opacity="0.5" stroke="#606060" stroke-width=".5" x="0" y="0" width="60" height="60"/>
                <use id="zoomplus" xlink:href="#zoomPlus" x="17" y="9" onmousedown="handleZoom(evt,'in')"/>
                <use id="zoomminus" xlink:href="#zoomMin" x="42" y="9" onmousedown="handleZoom(evt,'out')"/>
                <use id="reset" xlink:href="#resetDef" x="30" y="36" onmousedown="handleReset()"/>
                <g id="arrowUp" xlink:href="#dirArrow" transform="translate(30 24)" onmousedown="handlePan(0,-1)">
                  <use xlink:href="#rim" fill="#404040">
                        <set attributeName="fill" to="#808080" begin="arrowUp.mouseover" end="arrowUp.mouseout"/>
                  </use>
                  <path fill="none" stroke="white" stroke-width="1.5" d="M0,-3.0v7 M-2.5,-0.5L0,-3.0L2.5,-0.5"/>
                </g>
                <g id="arrowRight" xlink:href="#dirArrow" transform="rotate(90) translate(36 -43)" onmousedown="handlePan(1,0)">
                  <use xlink:href="#rim" fill="#404040">
                        <set attributeName="fill" to="#808080" begin="arrowRight.mouseover" end="arrowRight.mouseout"/>
                  </use>
                  <path fill="none" stroke="white" stroke-width="1.5" d="M0,-3.0v7 M-2.5,-0.5L0,-3.0L2.5,-0.5"/>
                </g>
                <g id="arrowDown" xlink:href="#dirArrow" transform="rotate(180) translate(-30 -48)" onmousedown="handlePan(0,1)">
                  <use xlink:href="#rim" fill="#404040">
                        <set attributeName="fill" to="#808080" begin="arrowDown.mouseover" end="arrowDown.mouseout"/>
                  </use>
                  <path fill="none" stroke="white" stroke-width="1.5" d="M0,-3.0v7 M-2.5,-0.5L0,-3.0L2.5,-0.5"/>
                </g>
                <g id="arrowLeft" xlink:href="#dirArrow" transform="rotate(270) translate(-36 17)" onmousedown="handlePan(-1,0)">
                  <use xlink:href="#rim" fill="#404040">
                        <set attributeName="fill" to="#808080" begin="arrowLeft.mouseover" end="arrowLeft.mouseout"/>
                  </use>
                  <path fill="none" stroke="white" stroke-width="1.5" d="M0,-3.0v7 M-2.5,-0.5L0,-3.0L2.5,-0.5"/>
                </g>
        </g>
        <svg viewBox="0 0 15 15" width="100%" height="30px" preserveAspectRatio="xMaxYMin meet">
         <g id="arrow_out" transform="scale(0.3 0.3)">
          <a xlink:href="mxml_8c_a6dc934e8374543e6070804f8a5822f5f_cgraph_org.svg" target="_base">
           <rect id="button" ry="5" rx="5" y="6" x="6" height="38" width="38"
                fill="#f2f5e9" fill-opacity="0.5" stroke="#606060" stroke-width="1.0"/>
           <path id="arrow"
             d="M 11.500037,31.436501 C 11.940474,20.09759 22.043105,11.32322 32.158766,21.979434 L 37.068811,17.246167 C 37.068811,17.246167 37.088388,32 37.088388,32 L 22.160133,31.978069 C 22.160133,31.978069 26.997745,27.140456 26.997745,27.140456 C 18.528582,18.264221 13.291696,25.230495 11.500037,31.436501 z"
             style="fill:#404040;"/>
          </a>
         </g>
        </svg>
</svg>
