<?xml version="1.0" encoding="UTF-8" standalone="no"?>
<!DOCTYPE svg PUBLIC "-//W3C//DTD SVG 1.1//EN"
 "http://www.w3.org/Graphics/SVG/1.1/DTD/svg11.dtd">
<!-- Generated by graphviz version 2.36.0 (20140111.2315)
 -->
<!-- Title: mxml_start_element Pages: 1 -->
<svg width="608pt" height="197pt"
 viewBox="0.00 0.00 608.00 197.40" xmlns="http://www.w3.org/2000/svg" xmlns:xlink="http://www.w3.org/1999/xlink">
<g id="graph0" class="graph" transform="scale(1 1) rotate(0) translate(4 193.398)">
<title>mxml_start_element</title>
<polygon fill="white" stroke="none" points="-4,4 -4,-193.398 604,-193.398 604,4 -4,4"/>
<!-- Node1 -->
<g id="node1" class="node"><title>Node1</title>
<polygon fill="#bfbfbf" stroke="black" points="0.5,-95.5 0.5,-114.5 105.5,-114.5 105.5,-95.5 0.5,-95.5"/>
<text text-anchor="middle" x="53" y="-102.5" font-family="Helvetica,sans-Serif" font-size="10.00">mxml_start_element</text>
</g>
<!-- Node2 -->
<g id="node2" class="node"><title>Node2</title>
<g id="a_node2"><a xlink:href="mxml_8c.xhtml#a43879e9508767beaf57424ec1393f661" target="_top" xlink:title="mxml_start_element1">
<polygon fill="white" stroke="black" points="142,-95.5 142,-114.5 252,-114.5 252,-95.5 142,-95.5"/>
<text text-anchor="middle" x="197" y="-102.5" font-family="Helvetica,sans-Serif" font-size="10.00">mxml_start_element1</text>
</a>
</g>
</g>
<!-- Node1&#45;&gt;Node2 -->
<g id="edge1" class="edge"><title>Node1&#45;&gt;Node2</title>
<path fill="none" stroke="midnightblue" d="M105.667,-105C114.102,-105 122.932,-105 131.628,-105"/>
<polygon fill="midnightblue" stroke="midnightblue" points="131.743,-108.5 141.743,-105 131.743,-101.5 131.743,-108.5"/>
</g>
<!-- Node3 -->
<g id="node3" class="node"><title>Node3</title>
<g id="a_node3"><a xlink:href="mxml_8c.xhtml#a51b3bd43da7f4331d38ed5593953610a" target="_top" xlink:title="mxml_write_line">
<polygon fill="white" stroke="black" points="288.5,-152.5 288.5,-171.5 375.5,-171.5 375.5,-152.5 288.5,-152.5"/>
<text text-anchor="middle" x="332" y="-159.5" font-family="Helvetica,sans-Serif" font-size="10.00">mxml_write_line</text>
</a>
</g>
</g>
<!-- Node2&#45;&gt;Node3 -->
<g id="edge2" class="edge"><title>Node2&#45;&gt;Node3</title>
<path fill="none" stroke="midnightblue" d="M220.261,-114.541C241.935,-123.829 275.084,-138.036 299.467,-148.486"/>
<polygon fill="midnightblue" stroke="midnightblue" points="298.096,-151.706 308.666,-152.428 300.853,-145.272 298.096,-151.706"/>
</g>
<!-- Node4 -->
<g id="node4" class="node"><title>Node4</title>
<g id="a_node4"><a xlink:href="mxml_8c.xhtml#a2bbe1e8a7d3c830714bdfa50d3658ef8" target="_top" xlink:title="mxml_realloc">
<polygon fill="white" stroke="black" points="420,-152.5 420,-171.5 494,-171.5 494,-152.5 420,-152.5"/>
<text text-anchor="middle" x="457" y="-159.5" font-family="Helvetica,sans-Serif" font-size="10.00">mxml_realloc</text>
</a>
</g>
</g>
<!-- Node2&#45;&gt;Node4 -->
<g id="edge13" class="edge"><title>Node2&#45;&gt;Node4</title>
<path fill="none" stroke="midnightblue" d="M205.365,-114.616C219.272,-131.881 251.316,-167.583 288,-181 332.284,-197.196 387.144,-185.584 421.869,-174.686"/>
<polygon fill="midnightblue" stroke="midnightblue" points="423.128,-177.957 431.534,-171.507 420.941,-171.307 423.128,-177.957"/>
</g>
<!-- Node5 -->
<g id="node5" class="node"><title>Node5</title>
<g id="a_node5"><a xlink:href="strlcpy_8h.xhtml#aa031012870e97fea95c0b78d51b4471b" target="_top" xlink:title="strlcat">
<polygon fill="white" stroke="black" points="310,-0.5 310,-19.5 354,-19.5 354,-0.5 310,-0.5"/>
<text text-anchor="middle" x="332" y="-7.5" font-family="Helvetica,sans-Serif" font-size="10.00">strlcat</text>
</a>
</g>
</g>
<!-- Node2&#45;&gt;Node5 -->
<g id="edge4" class="edge"><title>Node2&#45;&gt;Node5</title>
<path fill="none" stroke="midnightblue" d="M208.933,-95.4377C225.454,-81.2091 258.038,-53.9964 288,-34 292.8,-30.7965 298.058,-27.6139 303.199,-24.6637"/>
<polygon fill="midnightblue" stroke="midnightblue" points="305.169,-27.5733 312.203,-19.6503 301.763,-21.4575 305.169,-27.5733"/>
</g>
<!-- Node6 -->
<g id="node6" class="node"><title>Node6</title>
<g id="a_node6"><a xlink:href="strlcpy_8h.xhtml#af8c865b1f481801d8d1f0a8644be4bbc" target="_top" xlink:title="strlcpy">
<polygon fill="white" stroke="black" points="434,-114.5 434,-133.5 480,-133.5 480,-114.5 434,-114.5"/>
<text text-anchor="middle" x="457" y="-121.5" font-family="Helvetica,sans-Serif" font-size="10.00">strlcpy</text>
</a>
</g>
</g>
<!-- Node2&#45;&gt;Node6 -->
<g id="edge5" class="edge"><title>Node2&#45;&gt;Node6</title>
<path fill="none" stroke="midnightblue" d="M252.085,-108.983C303.984,-112.805 380.64,-118.45 423.662,-121.619"/>
<polygon fill="midnightblue" stroke="midnightblue" points="423.61,-125.124 433.84,-122.368 424.124,-118.143 423.61,-125.124"/>
</g>
<!-- Node7 -->
<g id="node7" class="node"><title>Node7</title>
<g id="a_node7"><a xlink:href="mxml_8c.xhtml#acd5df9d9cc5b5f2f75c06585d7867488" target="_top" xlink:title="mxml_encode">
<polygon fill="white" stroke="black" points="293.5,-76.5 293.5,-95.5 370.5,-95.5 370.5,-76.5 293.5,-76.5"/>
<text text-anchor="middle" x="332" y="-83.5" font-family="Helvetica,sans-Serif" font-size="10.00">mxml_encode</text>
</a>
</g>
</g>
<!-- Node2&#45;&gt;Node7 -->
<g id="edge6" class="edge"><title>Node2&#45;&gt;Node7</title>
<path fill="none" stroke="midnightblue" d="M252.096,-97.272C262.344,-95.8079 273,-94.2857 283.043,-92.851"/>
<polygon fill="midnightblue" stroke="midnightblue" points="283.839,-96.2729 293.243,-91.3938 282.849,-89.3433 283.839,-96.2729"/>
</g>
<!-- Node10 -->
<g id="node10" class="node"><title>Node10</title>
<g id="a_node10"><a xlink:href="mxml_8c.xhtml#a4b4f0fef6a18999e79e85a0bff15f122" target="_top" xlink:title="mxml_malloc">
<polygon fill="white" stroke="black" points="420,-38.5 420,-57.5 494,-57.5 494,-38.5 420,-38.5"/>
<text text-anchor="middle" x="457" y="-45.5" font-family="Helvetica,sans-Serif" font-size="10.00">mxml_malloc</text>
</a>
</g>
</g>
<!-- Node2&#45;&gt;Node10 -->
<g id="edge12" class="edge"><title>Node2&#45;&gt;Node10</title>
<path fill="none" stroke="midnightblue" d="M216.411,-95.3724C234.226,-86.5086 262.24,-73.7443 288,-67 328.273,-56.456 375.487,-51.7634 409.59,-49.6749"/>
<polygon fill="midnightblue" stroke="midnightblue" points="409.942,-53.1607 419.731,-49.1067 409.551,-46.1717 409.942,-53.1607"/>
</g>
<!-- Node3&#45;&gt;Node4 -->
<g id="edge3" class="edge"><title>Node3&#45;&gt;Node4</title>
<path fill="none" stroke="midnightblue" d="M375.674,-162C386.724,-162 398.671,-162 409.888,-162"/>
<polygon fill="midnightblue" stroke="midnightblue" points="409.937,-165.5 419.937,-162 409.937,-158.5 409.937,-165.5"/>
</g>
<!-- Node7&#45;&gt;Node4 -->
<g id="edge10" class="edge"><title>Node7&#45;&gt;Node4</title>
<path fill="none" stroke="midnightblue" d="M344.504,-95.5347C359.423,-107.603 386.555,-128.555 412,-143 415.229,-144.833 418.669,-146.604 422.149,-148.28"/>
<polygon fill="midnightblue" stroke="midnightblue" points="420.784,-151.504 431.334,-152.467 423.687,-145.135 420.784,-151.504"/>
</g>
<!-- Node7&#45;&gt;Node6 -->
<g id="edge11" class="edge"><title>Node7&#45;&gt;Node6</title>
<path fill="none" stroke="midnightblue" d="M364.038,-95.589C382.413,-101.266 405.641,-108.442 424.155,-114.162"/>
<polygon fill="midnightblue" stroke="midnightblue" points="423.307,-117.563 433.895,-117.171 425.373,-110.875 423.307,-117.563"/>
</g>
<!-- Node8 -->
<g id="node8" class="node"><title>Node8</title>
<g id="a_node8"><a xlink:href="mxml_8c.xhtml#a2fa2fb9cb281f3461fedf2d47ea81ce1" target="_top" xlink:title="mxml_deallocate">
<polygon fill="white" stroke="black" points="412,-76.5 412,-95.5 502,-95.5 502,-76.5 412,-76.5"/>
<text text-anchor="middle" x="457" y="-83.5" font-family="Helvetica,sans-Serif" font-size="10.00">mxml_deallocate</text>
</a>
</g>
</g>
<!-- Node7&#45;&gt;Node8 -->
<g id="edge7" class="edge"><title>Node7&#45;&gt;Node8</title>
<path fill="none" stroke="midnightblue" d="M370.572,-86C380.322,-86 391.022,-86 401.452,-86"/>
<polygon fill="midnightblue" stroke="midnightblue" points="401.746,-89.5001 411.746,-86 401.746,-82.5001 401.746,-89.5001"/>
</g>
<!-- Node7&#45;&gt;Node10 -->
<g id="edge9" class="edge"><title>Node7&#45;&gt;Node10</title>
<path fill="none" stroke="midnightblue" d="M364.038,-76.411C379.479,-71.6406 398.348,-65.8112 414.966,-60.6771"/>
<polygon fill="midnightblue" stroke="midnightblue" points="416.451,-63.8818 424.972,-57.5859 414.384,-57.1937 416.451,-63.8818"/>
</g>
<!-- Node9 -->
<g id="node9" class="node"><title>Node9</title>
<g id="a_node9"><a xlink:href="mxml_8c.xhtml#abca607b102fe0f2c063f39eb0259994c" target="_top" xlink:title="mxml_free">
<polygon fill="white" stroke="black" points="538,-76.5 538,-95.5 600,-95.5 600,-76.5 538,-76.5"/>
<text text-anchor="middle" x="569" y="-83.5" font-family="Helvetica,sans-Serif" font-size="10.00">mxml_free</text>
</a>
</g>
</g>
<!-- Node8&#45;&gt;Node9 -->
<g id="edge8" class="edge"><title>Node8&#45;&gt;Node9</title>
<path fill="none" stroke="midnightblue" d="M502.107,-86C510.513,-86 519.272,-86 527.556,-86"/>
<polygon fill="midnightblue" stroke="midnightblue" points="527.733,-89.5001 537.733,-86 527.733,-82.5001 527.733,-89.5001"/>
</g>
</g>
</svg>
