<?xml version="1.0" encoding="UTF-8" standalone="no"?>
<!DOCTYPE svg PUBLIC "-//W3C//DTD SVG 1.1//EN"
 "http://www.w3.org/Graphics/SVG/1.1/DTD/svg11.dtd">
<!-- Generated by graphviz version 2.36.0 (20140111.2315)
 -->
<!-- Title: mxml_free Pages: 1 -->
<svg width="834pt" height="543pt"
 viewBox="0.00 0.00 834.00 542.94" xmlns="http://www.w3.org/2000/svg" xmlns:xlink="http://www.w3.org/1999/xlink">
<g id="graph0" class="graph" transform="scale(1 1) rotate(0) translate(4 538.935)">
<title>mxml_free</title>
<polygon fill="white" stroke="none" points="-4,4 -4,-538.935 830,-538.935 830,4 -4,4"/>
<!-- Node1 -->
<g id="node1" class="node"><title>Node1</title>
<polygon fill="#bfbfbf" stroke="black" points="0,-229.106 0,-248.106 62,-248.106 62,-229.106 0,-229.106"/>
<text text-anchor="middle" x="31" y="-236.106" font-family="Helvetica,sans-Serif" font-size="10.00">mxml_free</text>
</g>
<!-- Node2 -->
<g id="node2" class="node"><title>Node2</title>
<g id="a_node2"><a xlink:href="mxml_8c.xhtml#aa17f561601949f624351a45b2b3a7678" target="_top" xlink:title="mxml_close_buffer">
<polygon fill="white" stroke="black" points="248.5,-456.106 248.5,-475.106 347.5,-475.106 347.5,-456.106 248.5,-456.106"/>
<text text-anchor="middle" x="298" y="-463.106" font-family="Helvetica,sans-Serif" font-size="10.00">mxml_close_buffer</text>
</a>
</g>
</g>
<!-- Node1&#45;&gt;Node2 -->
<g id="edge1" class="edge"><title>Node1&#45;&gt;Node2</title>
<path fill="none" stroke="midnightblue" d="M32.1461,-258.681C33.6205,-299.438 43.184,-391.886 98,-437.606 139.663,-472.355 204.135,-475.221 248.335,-472.115"/>
<polygon fill="midnightblue" stroke="midnightblue" points="35.6394,-258.344 31.9119,-248.427 28.6412,-258.504 35.6394,-258.344"/>
</g>
<!-- Node3 -->
<g id="node3" class="node"><title>Node3</title>
<g id="a_node3"><a xlink:href="mxml_8c.xhtml#a7409705a71ea5d17f3746cd1c49c3b00" target="_top" xlink:title="mxml_close_file">
<polygon fill="white" stroke="black" points="254.5,-418.106 254.5,-437.106 341.5,-437.106 341.5,-418.106 254.5,-418.106"/>
<text text-anchor="middle" x="298" y="-425.106" font-family="Helvetica,sans-Serif" font-size="10.00">mxml_close_file</text>
</a>
</g>
</g>
<!-- Node1&#45;&gt;Node3 -->
<g id="edge2" class="edge"><title>Node1&#45;&gt;Node3</title>
<path fill="none" stroke="midnightblue" d="M33.262,-258.691C36.7341,-295.205 49.7059,-372.058 98,-408.606 142.832,-442.534 210.613,-441.131 254.346,-435.525"/>
<polygon fill="midnightblue" stroke="midnightblue" points="36.7216,-258.045 32.4357,-248.356 29.7438,-258.603 36.7216,-258.045"/>
</g>
<!-- Node5 -->
<g id="node5" class="node"><title>Node5</title>
<g id="a_node5"><a xlink:href="mxml_8c.xhtml#a2fa2fb9cb281f3461fedf2d47ea81ce1" target="_top" xlink:title="mxml_deallocate">
<polygon fill="white" stroke="black" points="110,-286.106 110,-305.106 200,-305.106 200,-286.106 110,-286.106"/>
<text text-anchor="middle" x="155" y="-293.106" font-family="Helvetica,sans-Serif" font-size="10.00">mxml_deallocate</text>
</a>
</g>
</g>
<!-- Node1&#45;&gt;Node5 -->
<g id="edge4" class="edge"><title>Node1&#45;&gt;Node5</title>
<path fill="none" stroke="midnightblue" d="M55.505,-253.639C67.8492,-261.145 83.4081,-270.006 98,-276.606 105.671,-280.075 114.173,-283.271 122.187,-286.013"/>
<polygon fill="midnightblue" stroke="midnightblue" points="57.1057,-250.514 46.7612,-248.224 53.42,-256.465 57.1057,-250.514"/>
</g>
<!-- Node14 -->
<g id="node14" class="node"><title>Node14</title>
<g id="a_node14"><a xlink:href="mxml_8c.xhtml#a8bb5e37ed43a71139bd69efb8cfd2082" target="_top" xlink:title="mxml_delete_attribute">
<polygon fill="white" stroke="black" points="98.5,-248.106 98.5,-267.106 211.5,-267.106 211.5,-248.106 98.5,-248.106"/>
<text text-anchor="middle" x="155" y="-255.106" font-family="Helvetica,sans-Serif" font-size="10.00">mxml_delete_attribute</text>
</a>
</g>
</g>
<!-- Node1&#45;&gt;Node14 -->
<g id="edge17" class="edge"><title>Node1&#45;&gt;Node14</title>
<path fill="none" stroke="midnightblue" d="M72.2502,-244.874C80.5036,-246.16 89.3323,-247.535 98.024,-248.888"/>
<polygon fill="midnightblue" stroke="midnightblue" points="72.5768,-241.383 62.1573,-243.302 71.4996,-248.3 72.5768,-241.383"/>
</g>
<!-- Node15 -->
<g id="node15" class="node"><title>Node15</title>
<g id="a_node15"><a xlink:href="mxml_8c.xhtml#a51aea00b138d1c675d541664bcf7b1ab" target="_top" xlink:title="mxml_delete_node">
<polygon fill="white" stroke="black" points="249,-172.106 249,-191.106 347,-191.106 347,-172.106 249,-172.106"/>
<text text-anchor="middle" x="298" y="-179.106" font-family="Helvetica,sans-Serif" font-size="10.00">mxml_delete_node</text>
</a>
</g>
</g>
<!-- Node1&#45;&gt;Node15 -->
<g id="edge18" class="edge"><title>Node1&#45;&gt;Node15</title>
<path fill="none" stroke="midnightblue" d="M53.1591,-223.298C65.5981,-215.122 81.9848,-205.715 98,-200.606 147.762,-184.732 207.792,-180.956 248.819,-180.539"/>
<polygon fill="midnightblue" stroke="midnightblue" points="51.1524,-220.43 44.8611,-228.954 55.0953,-226.214 51.1524,-220.43"/>
</g>
<!-- Node16 -->
<g id="node16" class="node"><title>Node16</title>
<g id="a_node16"><a xlink:href="mxml_8c.xhtml#a31efd9013ec552f43c6ff48c46be7a49" target="_top" xlink:title="mxml_end_element">
<polygon fill="white" stroke="black" points="104.5,-380.106 104.5,-399.106 205.5,-399.106 205.5,-380.106 104.5,-380.106"/>
<text text-anchor="middle" x="155" y="-387.106" font-family="Helvetica,sans-Serif" font-size="10.00">mxml_end_element</text>
</a>
</g>
</g>
<!-- Node1&#45;&gt;Node16 -->
<g id="edge19" class="edge"><title>Node1&#45;&gt;Node16</title>
<path fill="none" stroke="midnightblue" d="M46.5487,-256.613C72.5173,-288.754 126.012,-354.965 146.124,-379.858"/>
<polygon fill="midnightblue" stroke="midnightblue" points="49.0118,-254.092 40.0048,-248.513 43.5669,-258.491 49.0118,-254.092"/>
</g>
<!-- Node17 -->
<g id="node17" class="node"><title>Node17</title>
<g id="a_node17"><a xlink:href="mxml_8c.xhtml#a43e02c5111b428f22b1032a318ffe29f" target="_top" xlink:title="mxml_find_node">
<polygon fill="white" stroke="black" points="111,-210.106 111,-229.106 199,-229.106 199,-210.106 111,-210.106"/>
<text text-anchor="middle" x="155" y="-217.106" font-family="Helvetica,sans-Serif" font-size="10.00">mxml_find_node</text>
</a>
</g>
</g>
<!-- Node1&#45;&gt;Node17 -->
<g id="edge24" class="edge"><title>Node1&#45;&gt;Node17</title>
<path fill="none" stroke="midnightblue" d="M72.2002,-232.345C84.5827,-230.417 98.2642,-228.286 110.837,-226.328"/>
<polygon fill="midnightblue" stroke="midnightblue" points="71.4996,-228.912 62.1573,-233.909 72.5768,-235.829 71.4996,-228.912"/>
</g>
<!-- Node19 -->
<g id="node19" class="node"><title>Node19</title>
<g id="a_node19"><a xlink:href="mxml_8c.xhtml#a028673d16c059e7ee6f012941b0ce54b" target="_top" xlink:title="mxml_free_tree">
<polygon fill="white" stroke="black" points="113,-134.106 113,-153.106 197,-153.106 197,-134.106 113,-134.106"/>
<text text-anchor="middle" x="155" y="-141.106" font-family="Helvetica,sans-Serif" font-size="10.00">mxml_free_tree</text>
</a>
</g>
</g>
<!-- Node1&#45;&gt;Node19 -->
<g id="edge26" class="edge"><title>Node1&#45;&gt;Node19</title>
<path fill="none" stroke="midnightblue" d="M45.4368,-220.307C57.7011,-204.642 77.063,-182.345 98,-167.606 106.303,-161.761 116.254,-156.924 125.449,-153.162"/>
<polygon fill="midnightblue" stroke="midnightblue" points="42.3519,-218.581 39.0777,-228.658 47.9209,-222.823 42.3519,-218.581"/>
</g>
<!-- Node20 -->
<g id="node20" class="node"><title>Node20</title>
<g id="a_node20"><a xlink:href="mxml_8c.xhtml#a7a11f9a05fffb677a2d8d189f4b3f370" target="_top" xlink:title="read_error">
<polygon fill="white" stroke="black" points="268,-96.1059 268,-115.106 328,-115.106 328,-96.1059 268,-96.1059"/>
<text text-anchor="middle" x="298" y="-103.106" font-family="Helvetica,sans-Serif" font-size="10.00">read_error</text>
</a>
</g>
</g>
<!-- Node1&#45;&gt;Node20 -->
<g id="edge39" class="edge"><title>Node1&#45;&gt;Node20</title>
<path fill="none" stroke="midnightblue" d="M37.1697,-219.224C45.3115,-192.878 63.8303,-146.536 98,-124.606 150.136,-91.1448 226.316,-95.1088 267.663,-100.576"/>
<polygon fill="midnightblue" stroke="midnightblue" points="33.7992,-218.28 34.3815,-228.859 40.5234,-220.226 33.7992,-218.28"/>
</g>
<!-- Node22 -->
<g id="node22" class="node"><title>Node22</title>
<g id="a_node22"><a xlink:href="mxml_8c.xhtml#a0ebae029488c0bca9001b86916abe5ca" target="_top" xlink:title="mxml_parse_file">
<polygon fill="white" stroke="black" points="539,-77.1059 539,-96.1059 627,-96.1059 627,-77.1059 539,-77.1059"/>
<text text-anchor="middle" x="583" y="-84.1059" font-family="Helvetica,sans-Serif" font-size="10.00">mxml_parse_file</text>
</a>
</g>
</g>
<!-- Node1&#45;&gt;Node22 -->
<g id="edge38" class="edge"><title>Node1&#45;&gt;Node22</title>
<path fill="none" stroke="midnightblue" d="M32.0938,-218.94C33.4715,-179.103 42.8656,-89.22 98,-48.6059 245.6,60.1215 491.764,-43.3325 562.467,-76.9086"/>
<polygon fill="midnightblue" stroke="midnightblue" points="28.5939,-218.902 31.885,-228.973 35.5924,-219.048 28.5939,-218.902"/>
</g>
<!-- Node23 -->
<g id="node23" class="node"><title>Node23</title>
<g id="a_node23"><a xlink:href="mxml_8c.xhtml#a9c1dde43a12f9e8383227dd5f79bf91d" target="_top" xlink:title="mxml_parse_entity">
<polygon fill="white" stroke="black" points="389.5,-58.1059 389.5,-77.1059 488.5,-77.1059 488.5,-58.1059 389.5,-58.1059"/>
<text text-anchor="middle" x="439" y="-65.1059" font-family="Helvetica,sans-Serif" font-size="10.00">mxml_parse_entity</text>
</a>
</g>
</g>
<!-- Node1&#45;&gt;Node23 -->
<g id="edge37" class="edge"><title>Node1&#45;&gt;Node23</title>
<path fill="none" stroke="midnightblue" d="M34.5638,-219.118C39.9376,-186.918 55.6157,-123.228 98,-93.6059 187.89,-30.7818 325.725,-45.2661 395.045,-58.0705"/>
<polygon fill="midnightblue" stroke="midnightblue" points="31.0907,-218.678 33.0658,-229.087 38.013,-219.718 31.0907,-218.678"/>
</g>
<!-- Node24 -->
<g id="node24" class="node"><title>Node24</title>
<g id="a_node24"><a xlink:href="mxml_8c.xhtml#a63bf060bd7ed517fed1d2399c253f4d8" target="_top" xlink:title="mxml_open_file">
<polygon fill="white" stroke="black" points="540.5,-475.106 540.5,-494.106 625.5,-494.106 625.5,-475.106 540.5,-475.106"/>
<text text-anchor="middle" x="583" y="-482.106" font-family="Helvetica,sans-Serif" font-size="10.00">mxml_open_file</text>
</a>
</g>
</g>
<!-- Node1&#45;&gt;Node24 -->
<g id="edge35" class="edge"><title>Node1&#45;&gt;Node24</title>
<path fill="none" stroke="midnightblue" d="M34.7773,-258.063C42.3807,-308.422 65.1787,-441.028 98,-468.606 233.333,-582.32 472.837,-520.042 554.118,-494.151"/>
<polygon fill="midnightblue" stroke="midnightblue" points="38.2342,-257.513 33.3151,-248.13 31.3088,-258.533 38.2342,-257.513"/>
</g>
<!-- Node4 -->
<g id="node4" class="node"><title>Node4</title>
<g id="a_node4"><a xlink:href="mxml_8c.xhtml#a6dc934e8374543e6070804f8a5822f5f" target="_top" xlink:title="mxml_write_tree">
<polygon fill="white" stroke="black" points="704.5,-418.106 704.5,-437.106 793.5,-437.106 793.5,-418.106 704.5,-418.106"/>
<text text-anchor="middle" x="749" y="-425.106" font-family="Helvetica,sans-Serif" font-size="10.00">mxml_write_tree</text>
</a>
</g>
</g>
<!-- Node3&#45;&gt;Node4 -->
<g id="edge3" class="edge"><title>Node3&#45;&gt;Node4</title>
<path fill="none" stroke="midnightblue" d="M351.848,-427.606C441.421,-427.606 621.387,-427.606 704.321,-427.606"/>
<polygon fill="midnightblue" stroke="midnightblue" points="351.646,-424.106 341.646,-427.606 351.646,-431.106 351.646,-424.106"/>
</g>
<!-- Node6 -->
<g id="node6" class="node"><title>Node6</title>
<g id="a_node6"><a xlink:href="mxml_8c.xhtml#acd5df9d9cc5b5f2f75c06585d7867488" target="_top" xlink:title="mxml_encode">
<polygon fill="white" stroke="black" points="259.5,-279.106 259.5,-298.106 336.5,-298.106 336.5,-279.106 259.5,-279.106"/>
<text text-anchor="middle" x="298" y="-286.106" font-family="Helvetica,sans-Serif" font-size="10.00">mxml_encode</text>
</a>
</g>
</g>
<!-- Node5&#45;&gt;Node6 -->
<g id="edge5" class="edge"><title>Node5&#45;&gt;Node6</title>
<path fill="none" stroke="midnightblue" d="M210.66,-292.892C226.854,-292.088 244.223,-291.226 259.106,-290.487"/>
<polygon fill="midnightblue" stroke="midnightblue" points="210.041,-289.419 200.226,-293.41 210.388,-296.41 210.041,-289.419"/>
</g>
<!-- Node7 -->
<g id="node7" class="node"><title>Node7</title>
<g id="a_node7"><a xlink:href="mxml_8c.xhtml#a43879e9508767beaf57424ec1393f661" target="_top" xlink:title="mxml_start_element1">
<polygon fill="white" stroke="black" points="384,-228.106 384,-247.106 494,-247.106 494,-228.106 384,-228.106"/>
<text text-anchor="middle" x="439" y="-235.106" font-family="Helvetica,sans-Serif" font-size="10.00">mxml_start_element1</text>
</a>
</g>
</g>
<!-- Node6&#45;&gt;Node7 -->
<g id="edge6" class="edge"><title>Node6&#45;&gt;Node7</title>
<path fill="none" stroke="midnightblue" d="M333.518,-275.417C348.936,-269.575 367.349,-262.669 384,-256.606 392.592,-253.478 401.982,-250.144 410.488,-247.156"/>
<polygon fill="midnightblue" stroke="midnightblue" points="331.973,-272.259 323.867,-279.082 334.458,-278.803 331.973,-272.259"/>
</g>
<!-- Node12 -->
<g id="node12" class="node"><title>Node12</title>
<g id="a_node12"><a xlink:href="mxml_8c.xhtml#a7745af802a053bde67f77555ab47a17b" target="_top" xlink:title="mxml_write_attribute">
<polygon fill="white" stroke="black" points="385.5,-304.106 385.5,-323.106 492.5,-323.106 492.5,-304.106 385.5,-304.106"/>
<text text-anchor="middle" x="439" y="-311.106" font-family="Helvetica,sans-Serif" font-size="10.00">mxml_write_attribute</text>
</a>
</g>
</g>
<!-- Node6&#45;&gt;Node12 -->
<g id="edge12" class="edge"><title>Node6&#45;&gt;Node12</title>
<path fill="none" stroke="midnightblue" d="M346.807,-297.204C359.277,-299.447 372.783,-301.876 385.483,-304.16"/>
<polygon fill="midnightblue" stroke="midnightblue" points="347.077,-293.697 336.615,-295.371 345.838,-300.586 347.077,-293.697"/>
</g>
<!-- Node13 -->
<g id="node13" class="node"><title>Node13</title>
<g id="a_node13"><a xlink:href="mxml_8c.xhtml#a9cf33f3456fea00ea438422ebb7bd6be" target="_top" xlink:title="mxml_write_value">
<polygon fill="white" stroke="black" points="391.5,-266.106 391.5,-285.106 486.5,-285.106 486.5,-266.106 391.5,-266.106"/>
<text text-anchor="middle" x="439" y="-273.106" font-family="Helvetica,sans-Serif" font-size="10.00">mxml_write_value</text>
</a>
</g>
</g>
<!-- Node6&#45;&gt;Node13 -->
<g id="edge14" class="edge"><title>Node6&#45;&gt;Node13</title>
<path fill="none" stroke="midnightblue" d="M346.835,-284.132C361.261,-282.783 377.071,-281.304 391.414,-279.963"/>
<polygon fill="midnightblue" stroke="midnightblue" points="346.246,-280.672 336.615,-285.088 346.898,-287.641 346.246,-280.672"/>
</g>
<!-- Node8 -->
<g id="node8" class="node"><title>Node8</title>
<g id="a_node8"><a xlink:href="mxml_8c.xhtml#a1490cd450c6499bab0d70fbeaf88c3be" target="_top" xlink:title="mxml_start_element">
<polygon fill="white" stroke="black" points="530.5,-216.106 530.5,-235.106 635.5,-235.106 635.5,-216.106 530.5,-216.106"/>
<text text-anchor="middle" x="583" y="-223.106" font-family="Helvetica,sans-Serif" font-size="10.00">mxml_start_element</text>
</a>
</g>
</g>
<!-- Node7&#45;&gt;Node8 -->
<g id="edge7" class="edge"><title>Node7&#45;&gt;Node8</title>
<path fill="none" stroke="midnightblue" d="M504.269,-232.175C513.022,-231.435 521.912,-230.684 530.402,-229.966"/>
<polygon fill="midnightblue" stroke="midnightblue" points="503.759,-228.705 494.089,-233.035 504.348,-235.68 503.759,-228.705"/>
</g>
<!-- Node10 -->
<g id="node10" class="node"><title>Node10</title>
<g id="a_node10"><a xlink:href="mxml_8c.xhtml#aef9e08f5651e4905af653c15c6bb0d6e" target="_top" xlink:title="mxml_start_element\l_noindent">
<polygon fill="white" stroke="black" points="530.5,-254.606 530.5,-284.606 635.5,-284.606 635.5,-254.606 530.5,-254.606"/>
<text text-anchor="start" x="538.5" y="-272.606" font-family="Helvetica,sans-Serif" font-size="10.00">mxml_start_element</text>
<text text-anchor="middle" x="583" y="-261.606" font-family="Helvetica,sans-Serif" font-size="10.00">_noindent</text>
</a>
</g>
</g>
<!-- Node7&#45;&gt;Node10 -->
<g id="edge9" class="edge"><title>Node7&#45;&gt;Node10</title>
<path fill="none" stroke="midnightblue" d="M492.038,-249.333C504.548,-252.152 517.905,-255.162 530.395,-257.977"/>
<polygon fill="midnightblue" stroke="midnightblue" points="492.745,-245.904 482.22,-247.12 491.206,-252.733 492.745,-245.904"/>
</g>
<!-- Node11 -->
<g id="node11" class="node"><title>Node11</title>
<g id="a_node11"><a xlink:href="mxml_8c.xhtml#aad3952c0c32fc16aa78fde6faa7bd002" target="_top" xlink:title="mxml_write_subtree">
<polygon fill="white" stroke="black" points="531,-342.106 531,-361.106 635,-361.106 635,-342.106 531,-342.106"/>
<text text-anchor="middle" x="583" y="-349.106" font-family="Helvetica,sans-Serif" font-size="10.00">mxml_write_subtree</text>
</a>
</g>
</g>
<!-- Node7&#45;&gt;Node11 -->
<g id="edge10" class="edge"><title>Node7&#45;&gt;Node11</title>
<path fill="none" stroke="midnightblue" d="M484.587,-251.291C487.867,-252.897 491.044,-254.665 494,-256.606 498.792,-259.752 551.828,-318.21 573.176,-341.829"/>
<polygon fill="midnightblue" stroke="midnightblue" points="485.735,-247.973 475.17,-247.184 482.937,-254.39 485.735,-247.973"/>
</g>
<!-- Node9 -->
<g id="node9" class="node"><title>Node9</title>
<g id="a_node9"><a xlink:href="mxml_8c.xhtml#ac6ccd07b846150067db07ed7086cf7e1" target="_top" xlink:title="mxml_write_element">
<polygon fill="white" stroke="black" points="695.5,-304.106 695.5,-323.106 802.5,-323.106 802.5,-304.106 695.5,-304.106"/>
<text text-anchor="middle" x="749" y="-311.106" font-family="Helvetica,sans-Serif" font-size="10.00">mxml_write_element</text>
</a>
</g>
</g>
<!-- Node8&#45;&gt;Node9 -->
<g id="edge8" class="edge"><title>Node8&#45;&gt;Node9</title>
<path fill="none" stroke="midnightblue" d="M622.983,-238.87C627.428,-240.67 631.85,-242.595 636,-244.606 673.2,-262.632 713.785,-289.661 734.372,-303.951"/>
<polygon fill="midnightblue" stroke="midnightblue" points="623.9,-235.472 613.31,-235.143 621.383,-242.004 623.9,-235.472"/>
</g>
<!-- Node11&#45;&gt;Node4 -->
<g id="edge11" class="edge"><title>Node11&#45;&gt;Node4</title>
<path fill="none" stroke="midnightblue" d="M613.913,-365.468C646.805,-380.711 698.777,-404.795 727.398,-418.059"/>
<polygon fill="midnightblue" stroke="midnightblue" points="615.315,-362.26 604.771,-361.231 612.372,-368.612 615.315,-362.26"/>
</g>
<!-- Node12&#45;&gt;Node11 -->
<g id="edge13" class="edge"><title>Node12&#45;&gt;Node11</title>
<path fill="none" stroke="midnightblue" d="M485.493,-325.78C505.128,-331.035 527.766,-337.092 546.179,-342.02"/>
<polygon fill="midnightblue" stroke="midnightblue" points="486.397,-322.399 475.833,-323.195 484.588,-329.161 486.397,-322.399"/>
</g>
<!-- Node13&#45;&gt;Node9 -->
<g id="edge15" class="edge"><title>Node13&#45;&gt;Node9</title>
<path fill="none" stroke="midnightblue" d="M492.871,-287.151C505.026,-289.534 517.927,-291.85 530,-293.606 586.228,-301.784 651.129,-307.231 695.398,-310.348"/>
<polygon fill="midnightblue" stroke="midnightblue" points="493.365,-283.68 482.871,-285.143 491.987,-290.543 493.365,-283.68"/>
</g>
<!-- Node13&#45;&gt;Node11 -->
<g id="edge16" class="edge"><title>Node13&#45;&gt;Node11</title>
<path fill="none" stroke="midnightblue" d="M483.197,-289.003C486.943,-290.699 490.597,-292.566 494,-294.606 512.615,-305.768 511.93,-315.581 530,-327.606 538.443,-333.225 548.413,-338.176 557.353,-342.1"/>
<polygon fill="midnightblue" stroke="midnightblue" points="484.372,-285.702 473.793,-285.133 481.708,-292.175 484.372,-285.702"/>
</g>
<!-- Node16&#45;&gt;Node2 -->
<g id="edge20" class="edge"><title>Node16&#45;&gt;Node2</title>
<path fill="none" stroke="midnightblue" d="M178.269,-405.027C196.497,-417.247 223.225,-434.26 248,-446.606 254.86,-450.024 262.493,-453.245 269.655,-456.03"/>
<polygon fill="midnightblue" stroke="midnightblue" points="179.807,-401.841 169.567,-399.124 175.877,-407.634 179.807,-401.841"/>
</g>
<!-- Node16&#45;&gt;Node3 -->
<g id="edge21" class="edge"><title>Node16&#45;&gt;Node3</title>
<path fill="none" stroke="midnightblue" d="M201.44,-401.852C220.875,-407.09 243.231,-413.115 261.431,-418.02"/>
<polygon fill="midnightblue" stroke="midnightblue" points="202.147,-398.418 191.58,-399.195 200.325,-405.177 202.147,-398.418"/>
</g>
<!-- Node16&#45;&gt;Node9 -->
<g id="edge22" class="edge"><title>Node16&#45;&gt;Node9</title>
<path fill="none" stroke="midnightblue" d="M215.974,-395.338C308.032,-402.341 488.946,-408.965 636,-370.606 673.789,-360.749 713.49,-336.808 733.954,-323.299"/>
<polygon fill="midnightblue" stroke="midnightblue" points="215.978,-391.828 205.734,-394.529 215.427,-398.806 215.978,-391.828"/>
</g>
<!-- Node16&#45;&gt;Node11 -->
<g id="edge23" class="edge"><title>Node16&#45;&gt;Node11</title>
<path fill="none" stroke="midnightblue" d="M215.705,-379.817C226.437,-378.258 237.536,-376.776 248,-375.606 347.951,-364.428 465.344,-357.397 530.958,-354.013"/>
<polygon fill="midnightblue" stroke="midnightblue" points="214.936,-376.393 205.561,-381.327 215.967,-383.316 214.936,-376.393"/>
</g>
<!-- Node18 -->
<g id="node18" class="node"><title>Node18</title>
<g id="a_node18"><a xlink:href="class_d_r_s_board.xhtml#af9f7718b667109421094ec226224b012" target="_top" xlink:title="DRSBoard::GetTimeCalibration">
<polygon fill="white" stroke="black" points="672,-134.106 672,-153.106 826,-153.106 826,-134.106 672,-134.106"/>
<text text-anchor="middle" x="749" y="-141.106" font-family="Helvetica,sans-Serif" font-size="10.00">DRSBoard::GetTimeCalibration</text>
</a>
</g>
</g>
<!-- Node17&#45;&gt;Node18 -->
<g id="edge25" class="edge"><title>Node17&#45;&gt;Node18</title>
<path fill="none" stroke="midnightblue" d="M209.114,-214.967C247.697,-211.447 301.141,-206.26 348,-200.606 468.479,-186.067 608.795,-165.148 687.117,-153.111"/>
<polygon fill="midnightblue" stroke="midnightblue" points="208.786,-211.482 199.142,-215.87 209.417,-218.454 208.786,-211.482"/>
</g>
<!-- Node19&#45;&gt;Node15 -->
<g id="edge28" class="edge"><title>Node19&#45;&gt;Node15</title>
<path fill="none" stroke="midnightblue" d="M201.44,-155.852C220.875,-161.09 243.231,-167.115 261.431,-172.02"/>
<polygon fill="midnightblue" stroke="midnightblue" points="202.147,-152.418 191.58,-153.195 200.325,-159.177 202.147,-152.418"/>
</g>
<!-- Node19&#45;&gt;Node18 -->
<g id="edge27" class="edge"><title>Node19&#45;&gt;Node18</title>
<path fill="none" stroke="midnightblue" d="M207.444,-143.606C311.939,-143.606 549.479,-143.606 671.909,-143.606"/>
<polygon fill="midnightblue" stroke="midnightblue" points="207.158,-140.106 197.158,-143.606 207.158,-147.106 207.158,-140.106"/>
</g>
<!-- Node19&#45;&gt;Node20 -->
<g id="edge29" class="edge"><title>Node19&#45;&gt;Node20</title>
<path fill="none" stroke="midnightblue" d="M201.272,-131.405C223.009,-125.547 248.432,-118.695 267.613,-113.526"/>
<polygon fill="midnightblue" stroke="midnightblue" points="200.325,-128.035 191.58,-134.017 202.147,-134.794 200.325,-128.035"/>
</g>
<!-- Node21 -->
<g id="node21" class="node"><title>Node21</title>
<g id="a_node21"><a xlink:href="mxml_8c.xhtml#a5ef2edd4f9e5fb7946c0150c3be731b5" target="_top" xlink:title="mxml_parse_buffer">
<polygon fill="white" stroke="black" points="389,-96.1059 389,-115.106 489,-115.106 489,-96.1059 389,-96.1059"/>
<text text-anchor="middle" x="439" y="-103.106" font-family="Helvetica,sans-Serif" font-size="10.00">mxml_parse_buffer</text>
</a>
</g>
</g>
<!-- Node20&#45;&gt;Node21 -->
<g id="edge30" class="edge"><title>Node20&#45;&gt;Node21</title>
<path fill="none" stroke="midnightblue" d="M338.54,-105.606C354.22,-105.606 372.416,-105.606 388.924,-105.606"/>
<polygon fill="midnightblue" stroke="midnightblue" points="338.139,-102.106 328.139,-105.606 338.139,-109.106 338.139,-102.106"/>
</g>
<!-- Node20&#45;&gt;Node23 -->
<g id="edge33" class="edge"><title>Node20&#45;&gt;Node23</title>
<path fill="none" stroke="midnightblue" d="M337.818,-94.9938C358.351,-89.3804 383.355,-82.5449 403.246,-77.107"/>
<polygon fill="midnightblue" stroke="midnightblue" points="336.862,-91.6266 328.139,-97.6398 338.708,-98.3788 336.862,-91.6266"/>
</g>
<!-- Node21&#45;&gt;Node22 -->
<g id="edge31" class="edge"><title>Node21&#45;&gt;Node22</title>
<path fill="none" stroke="midnightblue" d="M499.301,-97.6713C512.608,-95.8907 526.48,-94.0346 538.975,-92.3627"/>
<polygon fill="midnightblue" stroke="midnightblue" points="498.714,-94.2185 489.266,-99.0139 499.642,-101.157 498.714,-94.2185"/>
</g>
<!-- Node22&#45;&gt;Node18 -->
<g id="edge32" class="edge"><title>Node22&#45;&gt;Node18</title>
<path fill="none" stroke="midnightblue" d="M621.198,-99.5343C651.373,-110.022 693.23,-124.57 720.461,-134.034"/>
<polygon fill="midnightblue" stroke="midnightblue" points="622.045,-96.1234 611.45,-96.1464 619.747,-102.735 622.045,-96.1234"/>
</g>
<!-- Node23&#45;&gt;Node22 -->
<g id="edge34" class="edge"><title>Node23&#45;&gt;Node22</title>
<path fill="none" stroke="midnightblue" d="M498.923,-75.4899C512.263,-77.2748 526.188,-79.1381 538.742,-80.8178"/>
<polygon fill="midnightblue" stroke="midnightblue" points="499.244,-72.0018 488.868,-74.1446 498.316,-78.94 499.244,-72.0018"/>
</g>
<!-- Node24&#45;&gt;Node4 -->
<g id="edge36" class="edge"><title>Node24&#45;&gt;Node4</title>
<path fill="none" stroke="midnightblue" d="M621.198,-471.677C651.373,-461.189 693.23,-446.642 720.461,-437.178"/>
<polygon fill="midnightblue" stroke="midnightblue" points="619.747,-468.476 611.45,-475.065 622.045,-475.088 619.747,-468.476"/>
</g>
</g>
</svg>
