<?xml version="1.0" encoding="UTF-8" standalone="no"?>
<!DOCTYPE svg PUBLIC "-//W3C//DTD SVG 1.1//EN"
 "http://www.w3.org/Graphics/SVG/1.1/DTD/svg11.dtd">
<!-- Generated by graphviz version 2.36.0 (20140111.2315)
 -->
<!-- Title: mxml_encode Pages: 1 -->
<svg width="518pt" height="154pt"
 viewBox="0.00 0.00 518.00 154.00" xmlns="http://www.w3.org/2000/svg" xmlns:xlink="http://www.w3.org/1999/xlink">
<g id="graph0" class="graph" transform="scale(1 1) rotate(0) translate(4 150)">
<title>mxml_encode</title>
<polygon fill="white" stroke="none" points="-4,4 -4,-150 514,-150 514,4 -4,4"/>
<!-- Node1 -->
<g id="node1" class="node"><title>Node1</title>
<polygon fill="#bfbfbf" stroke="black" points="0.5,-38.5 0.5,-57.5 77.5,-57.5 77.5,-38.5 0.5,-38.5"/>
<text text-anchor="middle" x="39" y="-45.5" font-family="Helvetica,sans-Serif" font-size="10.00">mxml_encode</text>
</g>
<!-- Node2 -->
<g id="node2" class="node"><title>Node2</title>
<g id="a_node2"><a xlink:href="mxml_8c.xhtml#a43879e9508767beaf57424ec1393f661" target="_top" xlink:title="mxml_start_element1">
<polygon fill="white" stroke="black" points="114,-79.5 114,-98.5 224,-98.5 224,-79.5 114,-79.5"/>
<text text-anchor="middle" x="169" y="-86.5" font-family="Helvetica,sans-Serif" font-size="10.00">mxml_start_element1</text>
</a>
</g>
</g>
<!-- Node1&#45;&gt;Node2 -->
<g id="edge1" class="edge"><title>Node1&#45;&gt;Node2</title>
<path fill="none" stroke="midnightblue" d="M79.2288,-60.5655C98.1533,-66.6272 120.495,-73.7835 138.03,-79.4003"/>
<polygon fill="midnightblue" stroke="midnightblue" points="80.2786,-57.2266 69.6875,-57.5093 78.1432,-63.893 80.2786,-57.2266"/>
</g>
<!-- Node8 -->
<g id="node8" class="node"><title>Node8</title>
<g id="a_node8"><a xlink:href="mxml_8c.xhtml#a7745af802a053bde67f77555ab47a17b" target="_top" xlink:title="mxml_write_attribute">
<polygon fill="white" stroke="black" points="115.5,-0.5 115.5,-19.5 222.5,-19.5 222.5,-0.5 115.5,-0.5"/>
<text text-anchor="middle" x="169" y="-7.5" font-family="Helvetica,sans-Serif" font-size="10.00">mxml_write_attribute</text>
</a>
</g>
</g>
<!-- Node1&#45;&gt;Node8 -->
<g id="edge7" class="edge"><title>Node1&#45;&gt;Node8</title>
<path fill="none" stroke="midnightblue" d="M82.2242,-35.4647C99.6371,-30.2952 119.492,-24.4009 135.711,-19.5859"/>
<polygon fill="midnightblue" stroke="midnightblue" points="80.8902,-32.2097 72.2998,-38.411 82.8824,-38.9202 80.8902,-32.2097"/>
</g>
<!-- Node9 -->
<g id="node9" class="node"><title>Node9</title>
<g id="a_node9"><a xlink:href="mxml_8c.xhtml#a9cf33f3456fea00ea438422ebb7bd6be" target="_top" xlink:title="mxml_write_value">
<polygon fill="white" stroke="black" points="121.5,-38.5 121.5,-57.5 216.5,-57.5 216.5,-38.5 121.5,-38.5"/>
<text text-anchor="middle" x="169" y="-45.5" font-family="Helvetica,sans-Serif" font-size="10.00">mxml_write_value</text>
</a>
</g>
</g>
<!-- Node1&#45;&gt;Node9 -->
<g id="edge9" class="edge"><title>Node1&#45;&gt;Node9</title>
<path fill="none" stroke="midnightblue" d="M87.975,-48C98.9417,-48 110.579,-48 121.484,-48"/>
<polygon fill="midnightblue" stroke="midnightblue" points="87.7119,-44.5001 77.7119,-48 87.7119,-51.5001 87.7119,-44.5001"/>
</g>
<!-- Node3 -->
<g id="node3" class="node"><title>Node3</title>
<g id="a_node3"><a xlink:href="mxml_8c.xhtml#a1490cd450c6499bab0d70fbeaf88c3be" target="_top" xlink:title="mxml_start_element">
<polygon fill="white" stroke="black" points="260.5,-126.5 260.5,-145.5 365.5,-145.5 365.5,-126.5 260.5,-126.5"/>
<text text-anchor="middle" x="313" y="-133.5" font-family="Helvetica,sans-Serif" font-size="10.00">mxml_start_element</text>
</a>
</g>
</g>
<!-- Node2&#45;&gt;Node3 -->
<g id="edge2" class="edge"><title>Node2&#45;&gt;Node3</title>
<path fill="none" stroke="midnightblue" d="M208.367,-101.699C231.8,-109.455 261.294,-119.217 282.82,-126.342"/>
<polygon fill="midnightblue" stroke="midnightblue" points="209.329,-98.3307 198.736,-98.5112 207.13,-104.976 209.329,-98.3307"/>
</g>
<!-- Node5 -->
<g id="node5" class="node"><title>Node5</title>
<g id="a_node5"><a xlink:href="mxml_8c.xhtml#aef9e08f5651e4905af653c15c6bb0d6e" target="_top" xlink:title="mxml_start_element\l_noindent">
<polygon fill="white" stroke="black" points="260.5,-77 260.5,-107 365.5,-107 365.5,-77 260.5,-77"/>
<text text-anchor="start" x="268.5" y="-95" font-family="Helvetica,sans-Serif" font-size="10.00">mxml_start_element</text>
<text text-anchor="middle" x="313" y="-84" font-family="Helvetica,sans-Serif" font-size="10.00">_noindent</text>
</a>
</g>
</g>
<!-- Node2&#45;&gt;Node5 -->
<g id="edge4" class="edge"><title>Node2&#45;&gt;Node5</title>
<path fill="none" stroke="midnightblue" d="M234.269,-90.3578C243.022,-90.5427 251.912,-90.7305 260.402,-90.9099"/>
<polygon fill="midnightblue" stroke="midnightblue" points="234.161,-86.8548 224.089,-90.1427 234.013,-93.8533 234.161,-86.8548"/>
</g>
<!-- Node6 -->
<g id="node6" class="node"><title>Node6</title>
<g id="a_node6"><a xlink:href="mxml_8c.xhtml#aad3952c0c32fc16aa78fde6faa7bd002" target="_top" xlink:title="mxml_write_subtree">
<polygon fill="white" stroke="black" points="261,-0.5 261,-19.5 365,-19.5 365,-0.5 261,-0.5"/>
<text text-anchor="middle" x="313" y="-7.5" font-family="Helvetica,sans-Serif" font-size="10.00">mxml_write_subtree</text>
</a>
</g>
</g>
<!-- Node2&#45;&gt;Node6 -->
<g id="edge5" class="edge"><title>Node2&#45;&gt;Node6</title>
<path fill="none" stroke="midnightblue" d="M205.779,-75.5326C211.948,-72.8979 218.228,-70.0112 224,-67 251.759,-52.5194 281.941,-31.7664 298.76,-19.7063"/>
<polygon fill="midnightblue" stroke="midnightblue" points="204.182,-72.4048 196.267,-79.4471 206.846,-78.8781 204.182,-72.4048"/>
</g>
<!-- Node4 -->
<g id="node4" class="node"><title>Node4</title>
<g id="a_node4"><a xlink:href="mxml_8c.xhtml#ac6ccd07b846150067db07ed7086cf7e1" target="_top" xlink:title="mxml_write_element">
<polygon fill="white" stroke="black" points="402.5,-82.5 402.5,-101.5 509.5,-101.5 509.5,-82.5 402.5,-82.5"/>
<text text-anchor="middle" x="456" y="-89.5" font-family="Helvetica,sans-Serif" font-size="10.00">mxml_write_element</text>
</a>
</g>
</g>
<!-- Node3&#45;&gt;Node4 -->
<g id="edge3" class="edge"><title>Node3&#45;&gt;Node4</title>
<path fill="none" stroke="midnightblue" d="M354.148,-123.472C376.497,-116.497 403.876,-107.954 424.465,-101.529"/>
<polygon fill="midnightblue" stroke="midnightblue" points="353.098,-120.133 344.595,-126.453 355.184,-126.815 353.098,-120.133"/>
</g>
<!-- Node7 -->
<g id="node7" class="node"><title>Node7</title>
<g id="a_node7"><a xlink:href="mxml_8c.xhtml#a6dc934e8374543e6070804f8a5822f5f" target="_top" xlink:title="mxml_write_tree">
<polygon fill="white" stroke="black" points="411.5,-0.5 411.5,-19.5 500.5,-19.5 500.5,-0.5 411.5,-0.5"/>
<text text-anchor="middle" x="456" y="-7.5" font-family="Helvetica,sans-Serif" font-size="10.00">mxml_write_tree</text>
</a>
</g>
</g>
<!-- Node6&#45;&gt;Node7 -->
<g id="edge6" class="edge"><title>Node6&#45;&gt;Node7</title>
<path fill="none" stroke="midnightblue" d="M375.375,-10C387.507,-10 400.005,-10 411.4,-10"/>
<polygon fill="midnightblue" stroke="midnightblue" points="375.303,-6.5001 365.303,-10 375.303,-13.5001 375.303,-6.5001"/>
</g>
<!-- Node8&#45;&gt;Node6 -->
<g id="edge8" class="edge"><title>Node8&#45;&gt;Node6</title>
<path fill="none" stroke="midnightblue" d="M232.941,-10C242.315,-10 251.878,-10 260.967,-10"/>
<polygon fill="midnightblue" stroke="midnightblue" points="232.876,-6.5001 222.876,-10 232.876,-13.5001 232.876,-6.5001"/>
</g>
<!-- Node9&#45;&gt;Node4 -->
<g id="edge10" class="edge"><title>Node9&#45;&gt;Node4</title>
<path fill="none" stroke="midnightblue" d="M226.851,-50.8417C266.177,-53.4574 319.577,-58.3009 366,-67 386.35,-70.8133 408.79,-77.1315 426.046,-82.4619"/>
<polygon fill="midnightblue" stroke="midnightblue" points="226.862,-47.3354 216.66,-50.1926 226.417,-54.3212 226.862,-47.3354"/>
</g>
<!-- Node9&#45;&gt;Node6 -->
<g id="edge11" class="edge"><title>Node9&#45;&gt;Node6</title>
<path fill="none" stroke="midnightblue" d="M215.493,-35.8258C235.128,-30.5713 257.766,-24.5134 276.179,-19.5859"/>
<polygon fill="midnightblue" stroke="midnightblue" points="214.588,-32.4448 205.833,-38.411 216.397,-39.2069 214.588,-32.4448"/>
</g>
</g>
</svg>
