<?xml version="1.0" encoding="UTF-8" standalone="no"?>
<!DOCTYPE svg PUBLIC "-//W3C//DTD SVG 1.1//EN"
 "http://www.w3.org/Graphics/SVG/1.1/DTD/svg11.dtd">
<!-- Generated by graphviz version 2.36.0 (20140111.2315)
 -->
<!-- Title: mxml_replace_node_value Pages: 1 -->
<svg width="298pt" height="66pt"
 viewBox="0.00 0.00 298.00 66.00" xmlns="http://www.w3.org/2000/svg" xmlns:xlink="http://www.w3.org/1999/xlink">
<g id="graph0" class="graph" transform="scale(1 1) rotate(0) translate(4 62)">
<title>mxml_replace_node_value</title>
<polygon fill="white" stroke="none" points="-4,4 -4,-62 294,-62 294,4 -4,4"/>
<!-- Node1 -->
<g id="node1" class="node"><title>Node1</title>
<polygon fill="#bfbfbf" stroke="black" points="0,-19.5 0,-38.5 132,-38.5 132,-19.5 0,-19.5"/>
<text text-anchor="middle" x="66" y="-26.5" font-family="Helvetica,sans-Serif" font-size="10.00">mxml_replace_node_value</text>
</g>
<!-- Node2 -->
<g id="node2" class="node"><title>Node2</title>
<g id="a_node2"><a xlink:href="mxml_8c.xhtml#a73cb7fc1ac4ef0d3a05d880e1de662f4" target="_top" xlink:title="mxml_clone_tree">
<polygon fill="white" stroke="black" points="183.5,-38.5 183.5,-57.5 274.5,-57.5 274.5,-38.5 183.5,-38.5"/>
<text text-anchor="middle" x="229" y="-45.5" font-family="Helvetica,sans-Serif" font-size="10.00">mxml_clone_tree</text>
</a>
</g>
</g>
<!-- Node1&#45;&gt;Node2 -->
<g id="edge1" class="edge"><title>Node1&#45;&gt;Node2</title>
<path fill="none" stroke="midnightblue" d="M142.234,-37.8785C156.347,-39.544 170.677,-41.2351 183.478,-42.7459"/>
<polygon fill="midnightblue" stroke="midnightblue" points="142.362,-34.3695 132.021,-36.6733 141.542,-41.3212 142.362,-34.3695"/>
</g>
<!-- Node3 -->
<g id="node3" class="node"><title>Node3</title>
<g id="a_node3"><a xlink:href="mxml_8c.xhtml#a36703bf078c15dde39a9e23147bd0423" target="_top" xlink:title="mxml_replace_subvalue">
<polygon fill="white" stroke="black" points="168,-0.5 168,-19.5 290,-19.5 290,-0.5 168,-0.5"/>
<text text-anchor="middle" x="229" y="-7.5" font-family="Helvetica,sans-Serif" font-size="10.00">mxml_replace_subvalue</text>
</a>
</g>
</g>
<!-- Node1&#45;&gt;Node3 -->
<g id="edge2" class="edge"><title>Node1&#45;&gt;Node3</title>
<path fill="none" stroke="midnightblue" d="M142.122,-20.1347C150.78,-19.113 159.521,-18.0814 167.942,-17.0876"/>
<polygon fill="midnightblue" stroke="midnightblue" points="141.542,-16.6788 132.021,-21.3267 142.362,-23.6305 141.542,-16.6788"/>
</g>
</g>
</svg>
