<?xml version="1.0" encoding="UTF-8" standalone="no"?>
<!DOCTYPE svg PUBLIC "-//W3C//DTD SVG 1.1//EN"
 "http://www.w3.org/Graphics/SVG/1.1/DTD/svg11.dtd">
<!-- Generated by graphviz version 2.36.0 (20140111.2315)
 -->
<!-- Title: mxml_parse_buffer Pages: 1 -->
<svg width="660pt" height="248pt"
 viewBox="0.00 0.00 660.00 248.05" xmlns="http://www.w3.org/2000/svg" xmlns:xlink="http://www.w3.org/1999/xlink">
<g id="graph0" class="graph" transform="scale(1 1) rotate(0) translate(4 244.046)">
<title>mxml_parse_buffer</title>
<polygon fill="white" stroke="none" points="-4,4 -4,-244.046 656,-244.046 656,4 -4,4"/>
<!-- Node1 -->
<g id="node1" class="node"><title>Node1</title>
<polygon fill="#bfbfbf" stroke="black" points="0,-114.5 0,-133.5 100,-133.5 100,-114.5 0,-114.5"/>
<text text-anchor="middle" x="50" y="-121.5" font-family="Helvetica,sans-Serif" font-size="10.00">mxml_parse_buffer</text>
</g>
<!-- Node2 -->
<g id="node2" class="node"><title>Node2</title>
<g id="a_node2"><a xlink:href="mxml_8c.xhtml#a15f4b76ba97d02c8bc1009a416eb51db" target="_top" xlink:title="mxml_add_attribute">
<polygon fill="white" stroke="black" points="314,-190.5 314,-209.5 416,-209.5 416,-190.5 314,-190.5"/>
<text text-anchor="middle" x="365" y="-197.5" font-family="Helvetica,sans-Serif" font-size="10.00">mxml_add_attribute</text>
</a>
</g>
</g>
<!-- Node1&#45;&gt;Node2 -->
<g id="edge1" class="edge"><title>Node1&#45;&gt;Node2</title>
<path fill="none" stroke="midnightblue" d="M61.2971,-133.515C76.3863,-146.807 105.984,-170.486 136,-181 190.482,-200.084 256.589,-203.623 303.561,-203.117"/>
<polygon fill="midnightblue" stroke="midnightblue" points="303.641,-206.616 313.58,-202.945 303.521,-199.617 303.641,-206.616"/>
</g>
<!-- Node3 -->
<g id="node3" class="node"><title>Node3</title>
<g id="a_node3"><a xlink:href="mxml_8c.xhtml#a4b4f0fef6a18999e79e85a0bff15f122" target="_top" xlink:title="mxml_malloc">
<polygon fill="white" stroke="black" points="475,-209.5 475,-228.5 549,-228.5 549,-209.5 475,-209.5"/>
<text text-anchor="middle" x="512" y="-216.5" font-family="Helvetica,sans-Serif" font-size="10.00">mxml_malloc</text>
</a>
</g>
</g>
<!-- Node1&#45;&gt;Node3 -->
<g id="edge14" class="edge"><title>Node1&#45;&gt;Node3</title>
<path fill="none" stroke="midnightblue" d="M57.5936,-133.635C70.3537,-151.381 100.332,-188.888 136,-205 245.218,-254.337 391.102,-239.999 464.565,-228.021"/>
<polygon fill="midnightblue" stroke="midnightblue" points="465.589,-231.397 474.865,-226.278 464.421,-224.495 465.589,-231.397"/>
</g>
<!-- Node6 -->
<g id="node6" class="node"><title>Node6</title>
<g id="a_node6"><a xlink:href="mxml_8c.xhtml#afa83c9bacbedeb26f8dbc2d8e26fdfad" target="_top" xlink:title="mxml_add_node">
<polygon fill="white" stroke="black" points="154,-114.5 154,-133.5 242,-133.5 242,-114.5 154,-114.5"/>
<text text-anchor="middle" x="198" y="-121.5" font-family="Helvetica,sans-Serif" font-size="10.00">mxml_add_node</text>
</a>
</g>
</g>
<!-- Node1&#45;&gt;Node6 -->
<g id="edge5" class="edge"><title>Node1&#45;&gt;Node6</title>
<path fill="none" stroke="midnightblue" d="M100.022,-124C114.021,-124 129.343,-124 143.59,-124"/>
<polygon fill="midnightblue" stroke="midnightblue" points="143.74,-127.5 153.74,-124 143.74,-120.5 143.74,-127.5"/>
</g>
<!-- Node8 -->
<g id="node8" class="node"><title>Node8</title>
<g id="a_node8"><a xlink:href="mxml_8c.xhtml#a0eed7fed4f2f71e211cf85105b4b007c" target="_top" xlink:title="mxml_add_special_node">
<polygon fill="white" stroke="black" points="136,-152.5 136,-171.5 260,-171.5 260,-152.5 136,-152.5"/>
<text text-anchor="middle" x="198" y="-159.5" font-family="Helvetica,sans-Serif" font-size="10.00">mxml_add_special_node</text>
</a>
</g>
</g>
<!-- Node1&#45;&gt;Node8 -->
<g id="edge10" class="edge"><title>Node1&#45;&gt;Node8</title>
<path fill="none" stroke="midnightblue" d="M87.842,-133.589C106.848,-138.536 130.229,-144.621 150.469,-149.889"/>
<polygon fill="midnightblue" stroke="midnightblue" points="149.864,-153.348 160.423,-152.48 151.627,-146.574 149.864,-153.348"/>
</g>
<!-- Node9 -->
<g id="node9" class="node"><title>Node9</title>
<g id="a_node9"><a xlink:href="mxml_8c.xhtml#a9527b7a643d61316ef74abf5bdc713d9" target="_top" xlink:title="mxml_create_root_node">
<polygon fill="white" stroke="black" points="137.5,-38.5 137.5,-57.5 258.5,-57.5 258.5,-38.5 137.5,-38.5"/>
<text text-anchor="middle" x="198" y="-45.5" font-family="Helvetica,sans-Serif" font-size="10.00">mxml_create_root_node</text>
</a>
</g>
</g>
<!-- Node1&#45;&gt;Node9 -->
<g id="edge12" class="edge"><title>Node1&#45;&gt;Node9</title>
<path fill="none" stroke="midnightblue" d="M65.0038,-114.382C81.5069,-103.3 109.983,-84.9528 136,-72 143.762,-68.1357 152.306,-64.4459 160.48,-61.1688"/>
<polygon fill="midnightblue" stroke="midnightblue" points="161.788,-64.4157 169.837,-57.5258 159.248,-57.8927 161.788,-64.4157"/>
</g>
<!-- Node10 -->
<g id="node10" class="node"><title>Node10</title>
<g id="a_node10"><a xlink:href="mxml_8c.xhtml#a7afd3209bc7e21e1d797e49190bf2a58" target="_top" xlink:title="mxml_decode">
<polygon fill="white" stroke="black" points="159.5,-0.5 159.5,-19.5 236.5,-19.5 236.5,-0.5 159.5,-0.5"/>
<text text-anchor="middle" x="198" y="-7.5" font-family="Helvetica,sans-Serif" font-size="10.00">mxml_decode</text>
</a>
</g>
</g>
<!-- Node1&#45;&gt;Node10 -->
<g id="edge13" class="edge"><title>Node1&#45;&gt;Node10</title>
<path fill="none" stroke="midnightblue" d="M56.9954,-114.364C69.3826,-95.2434 99.7003,-52.3399 136,-29 140.321,-26.2217 145.075,-23.8269 149.964,-21.7676"/>
<polygon fill="midnightblue" stroke="midnightblue" points="151.319,-24.9974 159.453,-18.2086 148.861,-18.4432 151.319,-24.9974"/>
</g>
<!-- Node11 -->
<g id="node11" class="node"><title>Node11</title>
<g id="a_node11"><a xlink:href="mxml_8c.xhtml#a7a11f9a05fffb677a2d8d189f4b3f370" target="_top" xlink:title="read_error">
<polygon fill="white" stroke="black" points="335,-85.5 335,-104.5 395,-104.5 395,-85.5 335,-85.5"/>
<text text-anchor="middle" x="365" y="-92.5" font-family="Helvetica,sans-Serif" font-size="10.00">read_error</text>
</a>
</g>
</g>
<!-- Node1&#45;&gt;Node11 -->
<g id="edge15" class="edge"><title>Node1&#45;&gt;Node11</title>
<path fill="none" stroke="midnightblue" d="M87.1474,-114.445C102.153,-110.864 119.811,-107.147 136,-105 201.772,-96.2758 279.055,-94.6862 324.646,-94.6303"/>
<polygon fill="midnightblue" stroke="midnightblue" points="324.699,-98.1303 334.703,-94.6425 324.707,-91.1303 324.699,-98.1303"/>
</g>
<!-- Node2&#45;&gt;Node3 -->
<g id="edge2" class="edge"><title>Node2&#45;&gt;Node3</title>
<path fill="none" stroke="midnightblue" d="M416.307,-206.592C431.991,-208.647 449.209,-210.903 464.612,-212.922"/>
<polygon fill="midnightblue" stroke="midnightblue" points="464.575,-216.447 474.945,-214.276 465.484,-209.506 464.575,-216.447"/>
</g>
<!-- Node4 -->
<g id="node4" class="node"><title>Node4</title>
<g id="a_node4"><a xlink:href="mxml_8c.xhtml#a2bbe1e8a7d3c830714bdfa50d3658ef8" target="_top" xlink:title="mxml_realloc">
<polygon fill="white" stroke="black" points="475,-171.5 475,-190.5 549,-190.5 549,-171.5 475,-171.5"/>
<text text-anchor="middle" x="512" y="-178.5" font-family="Helvetica,sans-Serif" font-size="10.00">mxml_realloc</text>
</a>
</g>
</g>
<!-- Node2&#45;&gt;Node4 -->
<g id="edge3" class="edge"><title>Node2&#45;&gt;Node4</title>
<path fill="none" stroke="midnightblue" d="M416.307,-193.408C431.991,-191.353 449.209,-189.097 464.612,-187.078"/>
<polygon fill="midnightblue" stroke="midnightblue" points="465.484,-190.494 474.945,-185.724 464.575,-183.553 465.484,-190.494"/>
</g>
<!-- Node5 -->
<g id="node5" class="node"><title>Node5</title>
<g id="a_node5"><a xlink:href="strlcpy_8h.xhtml#af8c865b1f481801d8d1f0a8644be4bbc" target="_top" xlink:title="strlcpy">
<polygon fill="white" stroke="black" points="489,-133.5 489,-152.5 535,-152.5 535,-133.5 489,-133.5"/>
<text text-anchor="middle" x="512" y="-140.5" font-family="Helvetica,sans-Serif" font-size="10.00">strlcpy</text>
</a>
</g>
</g>
<!-- Node2&#45;&gt;Node5 -->
<g id="edge4" class="edge"><title>Node2&#45;&gt;Node5</title>
<path fill="none" stroke="midnightblue" d="M405.668,-190.45C415.084,-187.764 425.004,-184.583 434,-181 450.808,-174.306 453.787,-170.028 470,-162 473.361,-160.335 476.897,-158.63 480.426,-156.957"/>
<polygon fill="midnightblue" stroke="midnightblue" points="482.047,-160.062 489.621,-152.654 479.08,-153.722 482.047,-160.062"/>
</g>
<!-- Node7 -->
<g id="node7" class="node"><title>Node7</title>
<g id="a_node7"><a xlink:href="mxml_8c.xhtml#ad030ed9e4ac1bdcf7cda84301f87aa04" target="_top" xlink:title="mxml_add_special_node_at">
<polygon fill="white" stroke="black" points="296.5,-152.5 296.5,-171.5 433.5,-171.5 433.5,-152.5 296.5,-152.5"/>
<text text-anchor="middle" x="365" y="-159.5" font-family="Helvetica,sans-Serif" font-size="10.00">mxml_add_special_node_at</text>
</a>
</g>
</g>
<!-- Node6&#45;&gt;Node7 -->
<g id="edge6" class="edge"><title>Node6&#45;&gt;Node7</title>
<path fill="none" stroke="midnightblue" d="M240.636,-133.589C262.508,-138.626 289.506,-144.844 312.664,-150.177"/>
<polygon fill="midnightblue" stroke="midnightblue" points="312.133,-153.646 322.663,-152.48 313.704,-146.825 312.133,-153.646"/>
</g>
<!-- Node7&#45;&gt;Node3 -->
<g id="edge7" class="edge"><title>Node7&#45;&gt;Node3</title>
<path fill="none" stroke="midnightblue" d="M405.668,-171.55C415.084,-174.236 425.004,-177.417 434,-181 450.808,-187.694 453.787,-191.972 470,-200 473.361,-201.665 476.897,-203.37 480.426,-205.043"/>
<polygon fill="midnightblue" stroke="midnightblue" points="479.08,-208.278 489.621,-209.346 482.047,-201.938 479.08,-208.278"/>
</g>
<!-- Node7&#45;&gt;Node4 -->
<g id="edge8" class="edge"><title>Node7&#45;&gt;Node4</title>
<path fill="none" stroke="midnightblue" d="M433.83,-170.888C444.333,-172.264 454.968,-173.658 464.847,-174.952"/>
<polygon fill="midnightblue" stroke="midnightblue" points="464.461,-178.432 474.831,-176.261 465.371,-171.491 464.461,-178.432"/>
</g>
<!-- Node7&#45;&gt;Node5 -->
<g id="edge9" class="edge"><title>Node7&#45;&gt;Node5</title>
<path fill="none" stroke="midnightblue" d="M433.83,-153.112C449.533,-151.054 465.529,-148.958 478.856,-147.212"/>
<polygon fill="midnightblue" stroke="midnightblue" points="479.454,-150.664 488.915,-145.894 478.545,-143.723 479.454,-150.664"/>
</g>
<!-- Node8&#45;&gt;Node7 -->
<g id="edge11" class="edge"><title>Node8&#45;&gt;Node7</title>
<path fill="none" stroke="midnightblue" d="M260.44,-162C268.869,-162 277.613,-162 286.286,-162"/>
<polygon fill="midnightblue" stroke="midnightblue" points="286.412,-165.5 296.412,-162 286.412,-158.5 286.412,-165.5"/>
</g>
<!-- Node11&#45;&gt;Node3 -->
<g id="edge16" class="edge"><title>Node11&#45;&gt;Node3</title>
<path fill="none" stroke="midnightblue" d="M383.35,-104.617C398.014,-113.323 418.972,-127.18 434,-143 454.636,-164.724 447.488,-180.227 470,-200 471.724,-201.514 473.589,-202.931 475.541,-204.252"/>
<polygon fill="midnightblue" stroke="midnightblue" points="474.077,-207.448 484.483,-209.44 477.59,-201.394 474.077,-207.448"/>
</g>
<!-- Node11&#45;&gt;Node5 -->
<g id="edge17" class="edge"><title>Node11&#45;&gt;Node5</title>
<path fill="none" stroke="midnightblue" d="M394.994,-104.598C419.256,-112.629 453.831,-124.075 478.918,-132.38"/>
<polygon fill="midnightblue" stroke="midnightblue" points="478.102,-135.796 488.695,-135.616 480.302,-129.151 478.102,-135.796"/>
</g>
<!-- Node12 -->
<g id="node12" class="node"><title>Node12</title>
<g id="a_node12"><a xlink:href="strlcpy_8h.xhtml#aa031012870e97fea95c0b78d51b4471b" target="_top" xlink:title="strlcat">
<polygon fill="white" stroke="black" points="490,-95.5 490,-114.5 534,-114.5 534,-95.5 490,-95.5"/>
<text text-anchor="middle" x="512" y="-102.5" font-family="Helvetica,sans-Serif" font-size="10.00">strlcat</text>
</a>
</g>
</g>
<!-- Node11&#45;&gt;Node12 -->
<g id="edge18" class="edge"><title>Node11&#45;&gt;Node12</title>
<path fill="none" stroke="midnightblue" d="M395.343,-97.0236C419.817,-98.7115 454.607,-101.111 479.63,-102.837"/>
<polygon fill="midnightblue" stroke="midnightblue" points="479.48,-106.334 489.697,-103.531 479.962,-99.351 479.48,-106.334"/>
</g>
<!-- Node13 -->
<g id="node13" class="node"><title>Node13</title>
<g id="a_node13"><a xlink:href="mxml_8c.xhtml#abca607b102fe0f2c063f39eb0259994c" target="_top" xlink:title="mxml_free">
<polygon fill="white" stroke="black" points="590,-38.5 590,-57.5 652,-57.5 652,-38.5 590,-38.5"/>
<text text-anchor="middle" x="621" y="-45.5" font-family="Helvetica,sans-Serif" font-size="10.00">mxml_free</text>
</a>
</g>
</g>
<!-- Node11&#45;&gt;Node13 -->
<g id="edge19" class="edge"><title>Node11&#45;&gt;Node13</title>
<path fill="none" stroke="midnightblue" d="M395.137,-89.6085C440.487,-81.2169 528.08,-65.0087 579.535,-55.4876"/>
<polygon fill="midnightblue" stroke="midnightblue" points="580.433,-58.8809 589.63,-53.6197 579.16,-51.9977 580.433,-58.8809"/>
</g>
<!-- Node14 -->
<g id="node14" class="node"><title>Node14</title>
<g id="a_node14"><a xlink:href="mxml_8c.xhtml#a028673d16c059e7ee6f012941b0ce54b" target="_top" xlink:title="mxml_free_tree">
<polygon fill="white" stroke="black" points="470,-19.5 470,-38.5 554,-38.5 554,-19.5 470,-19.5"/>
<text text-anchor="middle" x="512" y="-26.5" font-family="Helvetica,sans-Serif" font-size="10.00">mxml_free_tree</text>
</a>
</g>
</g>
<!-- Node11&#45;&gt;Node14 -->
<g id="edge20" class="edge"><title>Node11&#45;&gt;Node14</title>
<path fill="none" stroke="midnightblue" d="M387.084,-85.403C411.676,-74.2096 452.528,-55.615 480.558,-42.8564"/>
<polygon fill="midnightblue" stroke="midnightblue" points="482.239,-45.9369 489.89,-38.6085 479.339,-39.5658 482.239,-45.9369"/>
</g>
<!-- Node14&#45;&gt;Node13 -->
<g id="edge21" class="edge"><title>Node14&#45;&gt;Node13</title>
<path fill="none" stroke="midnightblue" d="M554.063,-36.2916C562.527,-37.7944 571.43,-39.3754 579.86,-40.8724"/>
<polygon fill="midnightblue" stroke="midnightblue" points="579.389,-44.3435 589.847,-42.6458 580.613,-37.4513 579.389,-44.3435"/>
</g>
</g>
</svg>
