<?xml version="1.0" encoding="UTF-8" standalone="no"?>
<!DOCTYPE svg PUBLIC "-//W3C//DTD SVG 1.1//EN"
 "http://www.w3.org/Graphics/SVG/1.1/DTD/svg11.dtd">
<!-- Generated by graphviz version 2.36.0 (20140111.2315)
 -->
<!-- Title: mxml_add_special_node_at Pages: 1 -->
<svg width="756pt" height="104pt"
 viewBox="0.00 0.00 756.00 104.00" xmlns="http://www.w3.org/2000/svg" xmlns:xlink="http://www.w3.org/1999/xlink">
<g id="graph0" class="graph" transform="scale(1 1) rotate(0) translate(4 100)">
<title>mxml_add_special_node_at</title>
<polygon fill="white" stroke="none" points="-4,4 -4,-100 752,-100 752,4 -4,4"/>
<!-- Node1 -->
<g id="node1" class="node"><title>Node1</title>
<polygon fill="#bfbfbf" stroke="black" points="0.5,-38.5 0.5,-57.5 137.5,-57.5 137.5,-38.5 0.5,-38.5"/>
<text text-anchor="middle" x="69" y="-45.5" font-family="Helvetica,sans-Serif" font-size="10.00">mxml_add_special_node_at</text>
</g>
<!-- Node2 -->
<g id="node2" class="node"><title>Node2</title>
<g id="a_node2"><a xlink:href="mxml_8c.xhtml#afa83c9bacbedeb26f8dbc2d8e26fdfad" target="_top" xlink:title="mxml_add_node">
<polygon fill="white" stroke="black" points="192,-76.5 192,-95.5 280,-95.5 280,-76.5 192,-76.5"/>
<text text-anchor="middle" x="236" y="-83.5" font-family="Helvetica,sans-Serif" font-size="10.00">mxml_add_node</text>
</a>
</g>
</g>
<!-- Node1&#45;&gt;Node2 -->
<g id="edge1" class="edge"><title>Node1&#45;&gt;Node2</title>
<path fill="none" stroke="midnightblue" d="M121.654,-59.8961C144.846,-65.2374 171.838,-71.4537 193.663,-76.4799"/>
<polygon fill="midnightblue" stroke="midnightblue" points="122.167,-56.4226 111.636,-57.589 120.596,-63.2441 122.167,-56.4226"/>
</g>
<!-- Node6 -->
<g id="node6" class="node"><title>Node6</title>
<g id="a_node6"><a xlink:href="mxml_8c.xhtml#a92015fcc9635dce8a1d32c653baf3a6b" target="_top" xlink:title="mxml_add_node_at">
<polygon fill="white" stroke="black" points="185.5,-38.5 185.5,-57.5 286.5,-57.5 286.5,-38.5 185.5,-38.5"/>
<text text-anchor="middle" x="236" y="-45.5" font-family="Helvetica,sans-Serif" font-size="10.00">mxml_add_node_at</text>
</a>
</g>
</g>
<!-- Node1&#45;&gt;Node6 -->
<g id="edge5" class="edge"><title>Node1&#45;&gt;Node6</title>
<path fill="none" stroke="midnightblue" d="M147.805,-48C160.615,-48 173.577,-48 185.449,-48"/>
<polygon fill="midnightblue" stroke="midnightblue" points="147.588,-44.5001 137.588,-48 147.588,-51.5001 147.588,-44.5001"/>
</g>
<!-- Node7 -->
<g id="node7" class="node"><title>Node7</title>
<g id="a_node7"><a xlink:href="mxml_8c.xhtml#a0eed7fed4f2f71e211cf85105b4b007c" target="_top" xlink:title="mxml_add_special_node">
<polygon fill="white" stroke="black" points="174,-0.5 174,-19.5 298,-19.5 298,-0.5 174,-0.5"/>
<text text-anchor="middle" x="236" y="-7.5" font-family="Helvetica,sans-Serif" font-size="10.00">mxml_add_special_node</text>
</a>
</g>
</g>
<!-- Node1&#45;&gt;Node7 -->
<g id="edge6" class="edge"><title>Node1&#45;&gt;Node7</title>
<path fill="none" stroke="midnightblue" d="M121.654,-36.1039C144.846,-30.7626 171.838,-24.5463 193.663,-19.5201"/>
<polygon fill="midnightblue" stroke="midnightblue" points="120.596,-32.7559 111.636,-38.411 122.167,-39.5774 120.596,-32.7559"/>
</g>
<!-- Node3 -->
<g id="node3" class="node"><title>Node3</title>
<g id="a_node3"><a xlink:href="mxml_8c.xhtml#a5ef2edd4f9e5fb7946c0150c3be731b5" target="_top" xlink:title="mxml_parse_buffer">
<polygon fill="white" stroke="black" points="334,-38.5 334,-57.5 434,-57.5 434,-38.5 334,-38.5"/>
<text text-anchor="middle" x="384" y="-45.5" font-family="Helvetica,sans-Serif" font-size="10.00">mxml_parse_buffer</text>
</a>
</g>
</g>
<!-- Node2&#45;&gt;Node3 -->
<g id="edge2" class="edge"><title>Node2&#45;&gt;Node3</title>
<path fill="none" stroke="midnightblue" d="M283.536,-73.8879C303.87,-68.5956 327.371,-62.4787 346.423,-57.5201"/>
<polygon fill="midnightblue" stroke="midnightblue" points="282.638,-70.5049 273.842,-76.411 284.401,-77.2793 282.638,-70.5049"/>
</g>
<!-- Node4 -->
<g id="node4" class="node"><title>Node4</title>
<g id="a_node4"><a xlink:href="mxml_8c.xhtml#a0ebae029488c0bca9001b86916abe5ca" target="_top" xlink:title="mxml_parse_file">
<polygon fill="white" stroke="black" points="470,-38.5 470,-57.5 558,-57.5 558,-38.5 470,-38.5"/>
<text text-anchor="middle" x="514" y="-45.5" font-family="Helvetica,sans-Serif" font-size="10.00">mxml_parse_file</text>
</a>
</g>
</g>
<!-- Node3&#45;&gt;Node4 -->
<g id="edge3" class="edge"><title>Node3&#45;&gt;Node4</title>
<path fill="none" stroke="midnightblue" d="M444.126,-48C452.726,-48 461.444,-48 469.654,-48"/>
<polygon fill="midnightblue" stroke="midnightblue" points="444.122,-44.5001 434.122,-48 444.122,-51.5001 444.122,-44.5001"/>
</g>
<!-- Node5 -->
<g id="node5" class="node"><title>Node5</title>
<g id="a_node5"><a xlink:href="class_d_r_s_board.xhtml#af9f7718b667109421094ec226224b012" target="_top" xlink:title="DRSBoard::GetTimeCalibration">
<polygon fill="white" stroke="black" points="594,-38.5 594,-57.5 748,-57.5 748,-38.5 594,-38.5"/>
<text text-anchor="middle" x="671" y="-45.5" font-family="Helvetica,sans-Serif" font-size="10.00">DRSBoard::GetTimeCalibration</text>
</a>
</g>
</g>
<!-- Node4&#45;&gt;Node5 -->
<g id="edge4" class="edge"><title>Node4&#45;&gt;Node5</title>
<path fill="none" stroke="midnightblue" d="M568.348,-48C576.575,-48 585.204,-48 593.813,-48"/>
<polygon fill="midnightblue" stroke="midnightblue" points="568.176,-44.5001 558.176,-48 568.176,-51.5001 568.176,-44.5001"/>
</g>
<!-- Node7&#45;&gt;Node3 -->
<g id="edge7" class="edge"><title>Node7&#45;&gt;Node3</title>
<path fill="none" stroke="midnightblue" d="M283.536,-22.1121C303.87,-27.4044 327.371,-33.5213 346.423,-38.4799"/>
<polygon fill="midnightblue" stroke="midnightblue" points="284.401,-18.7207 273.842,-19.589 282.638,-25.4951 284.401,-18.7207"/>
</g>
</g>
</svg>
