<?xml version="1.0" encoding="UTF-8" standalone="no"?>
<!DOCTYPE svg PUBLIC "-//W3C//DTD SVG 1.1//EN"
 "http://www.w3.org/Graphics/SVG/1.1/DTD/svg11.dtd">
<!-- Generated by graphviz version 2.36.0 (20140111.2315)
 -->
<!-- Title: mxml_add_tree Pages: 1 -->
<svg width="336pt" height="66pt"
 viewBox="0.00 0.00 336.00 66.00" xmlns="http://www.w3.org/2000/svg" xmlns:xlink="http://www.w3.org/1999/xlink">
<g id="graph0" class="graph" transform="scale(1 1) rotate(0) translate(4 62)">
<title>mxml_add_tree</title>
<polygon fill="white" stroke="none" points="-4,4 -4,-62 332,-62 332,4 -4,4"/>
<!-- Node1 -->
<g id="node1" class="node"><title>Node1</title>
<polygon fill="#bfbfbf" stroke="black" points="0.5,-19.5 0.5,-38.5 83.5,-38.5 83.5,-19.5 0.5,-19.5"/>
<text text-anchor="middle" x="42" y="-26.5" font-family="Helvetica,sans-Serif" font-size="10.00">mxml_add_tree</text>
</g>
<!-- Node2 -->
<g id="node2" class="node"><title>Node2</title>
<g id="a_node2"><a xlink:href="mxml_8c.xhtml#a9977e3be9d90ec5cc0da092c8924269d" target="_top" xlink:title="mxml_add_tree_at">
<polygon fill="white" stroke="black" points="120.5,-19.5 120.5,-38.5 217.5,-38.5 217.5,-19.5 120.5,-19.5"/>
<text text-anchor="middle" x="169" y="-26.5" font-family="Helvetica,sans-Serif" font-size="10.00">mxml_add_tree_at</text>
</a>
</g>
</g>
<!-- Node1&#45;&gt;Node2 -->
<g id="edge1" class="edge"><title>Node1&#45;&gt;Node2</title>
<path fill="none" stroke="midnightblue" d="M83.5839,-29C92.0783,-29 101.191,-29 110.174,-29"/>
<polygon fill="midnightblue" stroke="midnightblue" points="110.222,-32.5001 120.222,-29 110.222,-25.5001 110.222,-32.5001"/>
</g>
<!-- Node3 -->
<g id="node3" class="node"><title>Node3</title>
<g id="a_node3"><a xlink:href="mxml_8c.xhtml#a4b4f0fef6a18999e79e85a0bff15f122" target="_top" xlink:title="mxml_malloc">
<polygon fill="white" stroke="black" points="254,-38.5 254,-57.5 328,-57.5 328,-38.5 254,-38.5"/>
<text text-anchor="middle" x="291" y="-45.5" font-family="Helvetica,sans-Serif" font-size="10.00">mxml_malloc</text>
</a>
</g>
</g>
<!-- Node2&#45;&gt;Node3 -->
<g id="edge2" class="edge"><title>Node2&#45;&gt;Node3</title>
<path fill="none" stroke="midnightblue" d="M217.772,-36.5639C226.322,-37.9176 235.218,-39.3261 243.725,-40.673"/>
<polygon fill="midnightblue" stroke="midnightblue" points="243.434,-44.1706 253.859,-42.2776 244.529,-37.2568 243.434,-44.1706"/>
</g>
<!-- Node4 -->
<g id="node4" class="node"><title>Node4</title>
<g id="a_node4"><a xlink:href="mxml_8c.xhtml#a2bbe1e8a7d3c830714bdfa50d3658ef8" target="_top" xlink:title="mxml_realloc">
<polygon fill="white" stroke="black" points="254,-0.5 254,-19.5 328,-19.5 328,-0.5 254,-0.5"/>
<text text-anchor="middle" x="291" y="-7.5" font-family="Helvetica,sans-Serif" font-size="10.00">mxml_realloc</text>
</a>
</g>
</g>
<!-- Node2&#45;&gt;Node4 -->
<g id="edge3" class="edge"><title>Node2&#45;&gt;Node4</title>
<path fill="none" stroke="midnightblue" d="M217.772,-21.4361C226.322,-20.0824 235.218,-18.6739 243.725,-17.327"/>
<polygon fill="midnightblue" stroke="midnightblue" points="244.529,-20.7432 253.859,-15.7224 243.434,-13.8294 244.529,-20.7432"/>
</g>
</g>
</svg>
