<?xml version="1.0" encoding="UTF-8" standalone="no"?>
<!DOCTYPE svg PUBLIC "-//W3C//DTD SVG 1.1//EN"
 "http://www.w3.org/Graphics/SVG/1.1/DTD/svg11.dtd">
<!-- Generated by graphviz version 2.36.0 (20140111.2315)
 -->
<!-- Title: mxml_get_attribute Pages: 1 -->
<svg width="708pt" height="142pt"
 viewBox="0.00 0.00 708.00 142.00" xmlns="http://www.w3.org/2000/svg" xmlns:xlink="http://www.w3.org/1999/xlink">
<g id="graph0" class="graph" transform="scale(1 1) rotate(0) translate(4 138)">
<title>mxml_get_attribute</title>
<polygon fill="white" stroke="none" points="-4,4 -4,-138 704,-138 704,4 -4,4"/>
<!-- Node1 -->
<g id="node1" class="node"><title>Node1</title>
<polygon fill="#bfbfbf" stroke="black" points="0,-95.5 0,-114.5 100,-114.5 100,-95.5 0,-95.5"/>
<text text-anchor="middle" x="50" y="-102.5" font-family="Helvetica,sans-Serif" font-size="10.00">mxml_get_attribute</text>
</g>
<!-- Node2 -->
<g id="node2" class="node"><title>Node2</title>
<g id="a_node2"><a xlink:href="mxml_8c.xhtml#ab4b547074c15b19eae1b6f16050c75d9" target="_top" xlink:title="mxml_find_nodes1">
<polygon fill="white" stroke="black" points="136,-95.5 136,-114.5 234,-114.5 234,-95.5 136,-95.5"/>
<text text-anchor="middle" x="185" y="-102.5" font-family="Helvetica,sans-Serif" font-size="10.00">mxml_find_nodes1</text>
</a>
</g>
</g>
<!-- Node1&#45;&gt;Node2 -->
<g id="edge1" class="edge"><title>Node1&#45;&gt;Node2</title>
<path fill="none" stroke="midnightblue" d="M110.158,-105C118.783,-105 127.573,-105 135.941,-105"/>
<polygon fill="midnightblue" stroke="midnightblue" points="110.146,-101.5 100.146,-105 110.146,-108.5 110.146,-101.5"/>
</g>
<!-- Node3 -->
<g id="node3" class="node"><title>Node3</title>
<g id="a_node3"><a xlink:href="mxml_8c.xhtml#a6bcd06b8ff582dece9ba510e161284d5" target="_top" xlink:title="mxml_add_resultnode">
<polygon fill="white" stroke="black" points="270,-114.5 270,-133.5 382,-133.5 382,-114.5 270,-114.5"/>
<text text-anchor="middle" x="326" y="-121.5" font-family="Helvetica,sans-Serif" font-size="10.00">mxml_add_resultnode</text>
</a>
</g>
</g>
<!-- Node2&#45;&gt;Node3 -->
<g id="edge2" class="edge"><title>Node2&#45;&gt;Node3</title>
<path fill="none" stroke="midnightblue" d="M244.351,-106.304C262.306,-108.506 281.279,-111.461 296.31,-114.493"/>
<polygon fill="midnightblue" stroke="midnightblue" points="244.562,-102.805 234.225,-105.131 243.756,-109.758 244.562,-102.805"/>
</g>
<!-- Node4 -->
<g id="node4" class="node"><title>Node4</title>
<g id="a_node4"><a xlink:href="mxml_8c.xhtml#a6dc97d9bb89977574a5f5cff952f3550" target="_top" xlink:title="mxml_find_nodes">
<polygon fill="white" stroke="black" points="279.5,-76.5 279.5,-95.5 372.5,-95.5 372.5,-76.5 279.5,-76.5"/>
<text text-anchor="middle" x="326" y="-83.5" font-family="Helvetica,sans-Serif" font-size="10.00">mxml_find_nodes</text>
</a>
</g>
</g>
<!-- Node2&#45;&gt;Node4 -->
<g id="edge4" class="edge"><title>Node2&#45;&gt;Node4</title>
<path fill="none" stroke="midnightblue" d="M244.317,-97.0286C255.966,-95.4363 268.045,-93.7852 279.199,-92.2606"/>
<polygon fill="midnightblue" stroke="midnightblue" points="243.659,-93.5859 234.225,-98.408 244.607,-100.521 243.659,-93.5859"/>
</g>
<!-- Node7 -->
<g id="node7" class="node"><title>Node7</title>
<g id="a_node7"><a xlink:href="mxml_8c.xhtml#a77bc20aac65b3c46df4b08aeb52b2686" target="_top" xlink:title="mxml_subnode">
<polygon fill="white" stroke="black" points="284.5,-38.5 284.5,-57.5 367.5,-57.5 367.5,-38.5 284.5,-38.5"/>
<text text-anchor="middle" x="326" y="-45.5" font-family="Helvetica,sans-Serif" font-size="10.00">mxml_subnode</text>
</a>
</g>
</g>
<!-- Node2&#45;&gt;Node7 -->
<g id="edge7" class="edge"><title>Node2&#45;&gt;Node7</title>
<path fill="none" stroke="midnightblue" d="M215.175,-91.0024C231.203,-83.5155 251.526,-74.3513 270,-67 278.26,-63.713 287.34,-60.4407 295.701,-57.5614"/>
<polygon fill="midnightblue" stroke="midnightblue" points="213.36,-87.9884 205.805,-95.4161 216.343,-94.321 213.36,-87.9884"/>
</g>
<!-- Node3&#45;&gt;Node2 -->
<g id="edge3" class="edge"><title>Node3&#45;&gt;Node2</title>
<path fill="none" stroke="midnightblue" d="M259.569,-121.796C243.847,-119.727 227.847,-117.157 214.801,-114.53"/>
<polygon fill="midnightblue" stroke="midnightblue" points="259.469,-125.311 269.826,-123.079 260.338,-118.365 259.469,-125.311"/>
</g>
<!-- Node5 -->
<g id="node5" class="node"><title>Node5</title>
<g id="a_node5"><a xlink:href="mxml_8c.xhtml#a43e02c5111b428f22b1032a318ffe29f" target="_top" xlink:title="mxml_find_node">
<polygon fill="white" stroke="black" points="420,-76.5 420,-95.5 508,-95.5 508,-76.5 420,-76.5"/>
<text text-anchor="middle" x="464" y="-83.5" font-family="Helvetica,sans-Serif" font-size="10.00">mxml_find_node</text>
</a>
</g>
</g>
<!-- Node4&#45;&gt;Node5 -->
<g id="edge5" class="edge"><title>Node4&#45;&gt;Node5</title>
<path fill="none" stroke="midnightblue" d="M382.897,-86C395.277,-86 408.211,-86 419.985,-86"/>
<polygon fill="midnightblue" stroke="midnightblue" points="382.664,-82.5001 372.664,-86 382.664,-89.5001 382.664,-82.5001"/>
</g>
<!-- Node6 -->
<g id="node6" class="node"><title>Node6</title>
<g id="a_node6"><a xlink:href="class_d_r_s_board.xhtml#af9f7718b667109421094ec226224b012" target="_top" xlink:title="DRSBoard::GetTimeCalibration">
<polygon fill="white" stroke="black" points="546,-57.5 546,-76.5 700,-76.5 700,-57.5 546,-57.5"/>
<text text-anchor="middle" x="623" y="-64.5" font-family="Helvetica,sans-Serif" font-size="10.00">DRSBoard::GetTimeCalibration</text>
</a>
</g>
</g>
<!-- Node5&#45;&gt;Node6 -->
<g id="edge6" class="edge"><title>Node5&#45;&gt;Node6</title>
<path fill="none" stroke="midnightblue" d="M518.477,-79.5283C527.345,-78.4551 536.688,-77.3243 545.985,-76.1992"/>
<polygon fill="midnightblue" stroke="midnightblue" points="517.824,-76.0817 508.317,-80.7579 518.665,-83.031 517.824,-76.0817"/>
</g>
<!-- Node7&#45;&gt;Node6 -->
<g id="edge8" class="edge"><title>Node7&#45;&gt;Node6</title>
<path fill="none" stroke="midnightblue" d="M377.801,-51.2719C424.07,-54.252 493.036,-58.6938 545.888,-62.0979"/>
<polygon fill="midnightblue" stroke="midnightblue" points="377.913,-47.772 367.709,-50.6219 377.463,-54.7575 377.913,-47.772"/>
</g>
<!-- Node8 -->
<g id="node8" class="node"><title>Node8</title>
<g id="a_node8"><a xlink:href="mxml_8c.xhtml#a73cb7fc1ac4ef0d3a05d880e1de662f4" target="_top" xlink:title="mxml_clone_tree">
<polygon fill="white" stroke="black" points="418.5,-0.5 418.5,-19.5 509.5,-19.5 509.5,-0.5 418.5,-0.5"/>
<text text-anchor="middle" x="464" y="-7.5" font-family="Helvetica,sans-Serif" font-size="10.00">mxml_clone_tree</text>
</a>
</g>
</g>
<!-- Node7&#45;&gt;Node8 -->
<g id="edge9" class="edge"><title>Node7&#45;&gt;Node8</title>
<path fill="none" stroke="midnightblue" d="M371.087,-35.6817C389.772,-30.4607 411.218,-24.4684 428.692,-19.5859"/>
<polygon fill="midnightblue" stroke="midnightblue" points="370.008,-32.349 361.319,-38.411 371.892,-39.0908 370.008,-32.349"/>
</g>
</g>
</svg>
