<?xml version="1.0" encoding="UTF-8" standalone="no"?>
<!DOCTYPE svg PUBLIC "-//W3C//DTD SVG 1.1//EN"
 "http://www.w3.org/Graphics/SVG/1.1/DTD/svg11.dtd">
<!-- Generated by graphviz version 2.36.0 (20140111.2315)
 -->
<!-- Title: mxml_replace_node_value Pages: 1 -->
<svg width="250pt" height="66pt"
 viewBox="0.00 0.00 250.00 66.00" xmlns="http://www.w3.org/2000/svg" xmlns:xlink="http://www.w3.org/1999/xlink">
<g id="graph0" class="graph" transform="scale(1 1) rotate(0) translate(4 62)">
<title>mxml_replace_node_value</title>
<polygon fill="white" stroke="none" points="-4,4 -4,-62 246,-62 246,4 -4,4"/>
<!-- Node1 -->
<g id="node1" class="node"><title>Node1</title>
<polygon fill="#bfbfbf" stroke="black" points="0,-19.5 0,-38.5 132,-38.5 132,-19.5 0,-19.5"/>
<text text-anchor="middle" x="66" y="-26.5" font-family="Helvetica,sans-Serif" font-size="10.00">mxml_replace_node_value</text>
</g>
<!-- Node2 -->
<g id="node2" class="node"><title>Node2</title>
<g id="a_node2"><a xlink:href="mxml_8c.xhtml#a4b4f0fef6a18999e79e85a0bff15f122" target="_top" xlink:title="mxml_malloc">
<polygon fill="white" stroke="black" points="168,-38.5 168,-57.5 242,-57.5 242,-38.5 168,-38.5"/>
<text text-anchor="middle" x="205" y="-45.5" font-family="Helvetica,sans-Serif" font-size="10.00">mxml_malloc</text>
</a>
</g>
</g>
<!-- Node1&#45;&gt;Node2 -->
<g id="edge1" class="edge"><title>Node1&#45;&gt;Node2</title>
<path fill="none" stroke="midnightblue" d="M132.29,-38.0548C140.916,-39.2511 149.609,-40.4567 157.822,-41.5957"/>
<polygon fill="midnightblue" stroke="midnightblue" points="157.54,-45.0901 167.926,-42.9971 158.502,-38.1565 157.54,-45.0901"/>
</g>
<!-- Node3 -->
<g id="node3" class="node"><title>Node3</title>
<g id="a_node3"><a xlink:href="mxml_8c.xhtml#a2bbe1e8a7d3c830714bdfa50d3658ef8" target="_top" xlink:title="mxml_realloc">
<polygon fill="white" stroke="black" points="168,-0.5 168,-19.5 242,-19.5 242,-0.5 168,-0.5"/>
<text text-anchor="middle" x="205" y="-7.5" font-family="Helvetica,sans-Serif" font-size="10.00">mxml_realloc</text>
</a>
</g>
</g>
<!-- Node1&#45;&gt;Node3 -->
<g id="edge2" class="edge"><title>Node1&#45;&gt;Node3</title>
<path fill="none" stroke="midnightblue" d="M132.29,-19.9452C140.916,-18.7489 149.609,-17.5433 157.822,-16.4043"/>
<polygon fill="midnightblue" stroke="midnightblue" points="158.502,-19.8435 167.926,-15.0029 157.54,-12.9099 158.502,-19.8435"/>
</g>
</g>
</svg>
