<?xml version="1.0" encoding="UTF-8" standalone="no"?>
<!DOCTYPE svg PUBLIC "-//W3C//DTD SVG 1.1//EN"
 "http://www.w3.org/Graphics/SVG/1.1/DTD/svg11.dtd">
<!-- Generated by graphviz version 2.36.0 (20140111.2315)
 -->
<!-- Title: mxml_malloc Pages: 1 -->
<!--zoomable 674 -->
<svg id="main" version="1.1" xmlns="http://www.w3.org/2000/svg" xmlns:xlink="http://www.w3.org/1999/xlink" xml:space="preserve" onload="init(evt)">
<style type="text/css"><![CDATA[
.edge:hover path { stroke: red; }
.edge:hover polygon { stroke: red; fill: red; }
]]></style>
<script type="text/javascript"><![CDATA[
var edges = document.getElementsByTagName('g');
if (edges && edges.length) {
  for (var i=0;i<edges.length;i++) {
    if (edges[i].id.substr(0,4)=='edge') {
      edges[i].setAttribute('class','edge');
    }
  }
}
]]></script>
        <defs>
                <circle id="rim" cx="0" cy="0" r="7"/>
                <circle id="rim2" cx="0" cy="0" r="3.5"/>
                <g id="zoomPlus">
                        <use xlink:href="#rim" fill="#404040">
                                <set attributeName="fill" to="#808080" begin="zoomplus.mouseover" end="zoomplus.mouseout"/>
                        </use>
                        <path d="M-4,0h8M0,-4v8" fill="none" stroke="white" stroke-width="1.5" pointer-events="none"/>
                </g>
                <g id="zoomMin">
                        <use xlink:href="#rim" fill="#404040">
                                <set attributeName="fill" to="#808080" begin="zoomminus.mouseover" end="zoomminus.mouseout"/>
                        </use>
                        <path d="M-4,0h8" fill="none" stroke="white" stroke-width="1.5" pointer-events="none"/>
                </g>
                <g id="dirArrow">
                        <path fill="none" stroke="white" stroke-width="1.5" d="M0,-3.0v7 M-2.5,-0.5L0,-3.0L2.5,-0.5"/>
                </g>
               <g id="resetDef">
                       <use xlink:href="#rim2" fill="#404040">
                               <set attributeName="fill" to="#808080" begin="reset.mouseover" end="reset.mouseout"/>
                       </use>
               </g>
        </defs>

<script type="text/javascript">
var viewWidth = 892;
var viewHeight = 674;
var sectionId = 'dynsection-42';
</script>
<script xlink:href="svgpan.js"/>
<svg id="graph" class="graph">
<g id="viewport">
<title>mxml_malloc</title>
<polygon fill="white" stroke="none" points="-4,4 -4,-670 888,-670 888,4 -4,4"/>
<!-- Node1 -->
<g id="node1" class="node"><title>Node1</title>
<polygon fill="#bfbfbf" stroke="black" points="0,-247.5 0,-266.5 74,-266.5 74,-247.5 0,-247.5"/>
<text text-anchor="middle" x="37" y="-254.5" font-family="Helvetica,sans-Serif" font-size="10.00">mxml_malloc</text>
</g>
<!-- Node2 -->
<g id="node2" class="node"><title>Node2</title>
<g id="a_node2"><a xlink:href="mxml_8c.xhtml#a15f4b76ba97d02c8bc1009a416eb51db" target="_top" xlink:title="mxml_add_attribute">
<polygon fill="white" stroke="black" points="295,-418.5 295,-437.5 397,-437.5 397,-418.5 295,-418.5"/>
<text text-anchor="middle" x="346" y="-425.5" font-family="Helvetica,sans-Serif" font-size="10.00">mxml_add_attribute</text>
</a>
</g>
</g>
<!-- Node1&#45;&gt;Node2 -->
<g id="edge1" class="edge"><title>Node1&#45;&gt;Node2</title>
<path fill="none" stroke="midnightblue" d="M47.5673,-275.674C59.4408,-297.07 81.6347,-331.775 110,-352 166.035,-391.955 244.179,-411.683 294.684,-420.842"/>
<polygon fill="midnightblue" stroke="midnightblue" points="50.5253,-273.784 42.7191,-266.621 44.3544,-277.088 50.5253,-273.784"/>
</g>
<!-- Node4 -->
<g id="node4" class="node"><title>Node4</title>
<g id="a_node4"><a xlink:href="mxml_8c.xhtml#a5ef2edd4f9e5fb7946c0150c3be731b5" target="_top" xlink:title="mxml_parse_buffer">
<polygon fill="white" stroke="black" points="447,-325.5 447,-344.5 547,-344.5 547,-325.5 447,-325.5"/>
<text text-anchor="middle" x="497" y="-332.5" font-family="Helvetica,sans-Serif" font-size="10.00">mxml_parse_buffer</text>
</a>
</g>
</g>
<!-- Node1&#45;&gt;Node4 -->
<g id="edge39" class="edge"><title>Node1&#45;&gt;Node4</title>
<path fill="none" stroke="midnightblue" d="M84.5428,-256.99C155.544,-258.038 294.617,-264.292 408,-295 434.08,-302.063 462.162,-316.063 479.413,-325.481"/>
<polygon fill="midnightblue" stroke="midnightblue" points="84.1999,-253.486 74.1592,-256.867 84.117,-260.485 84.1999,-253.486"/>
</g>
<!-- Node5 -->
<g id="node5" class="node"><title>Node5</title>
<g id="a_node5"><a xlink:href="mxml_8c.xhtml#a0ebae029488c0bca9001b86916abe5ca" target="_top" xlink:title="mxml_parse_file">
<polygon fill="white" stroke="black" points="596,-391.5 596,-410.5 684,-410.5 684,-391.5 596,-391.5"/>
<text text-anchor="middle" x="640" y="-398.5" font-family="Helvetica,sans-Serif" font-size="10.00">mxml_parse_file</text>
</a>
</g>
</g>
<!-- Node1&#45;&gt;Node5 -->
<g id="edge42" class="edge"><title>Node1&#45;&gt;Node5</title>
<path fill="none" stroke="midnightblue" d="M42.8568,-276.354C51.3546,-306.234 71.7672,-363.435 110,-395 172.241,-446.386 204.136,-435.322 284,-447 403.912,-464.535 547.122,-428.666 608.562,-410.577"/>
<polygon fill="midnightblue" stroke="midnightblue" points="46.232,-275.428 40.2541,-266.681 39.4724,-277.247 46.232,-275.428"/>
</g>
<!-- Node7 -->
<g id="node7" class="node"><title>Node7</title>
<g id="a_node7"><a xlink:href="mxml_8c.xhtml#a6bcd06b8ff582dece9ba510e161284d5" target="_top" xlink:title="mxml_add_resultnode">
<polygon fill="white" stroke="black" points="123,-608.5 123,-627.5 235,-627.5 235,-608.5 123,-608.5"/>
<text text-anchor="middle" x="179" y="-615.5" font-family="Helvetica,sans-Serif" font-size="10.00">mxml_add_resultnode</text>
</a>
</g>
</g>
<!-- Node1&#45;&gt;Node7 -->
<g id="edge6" class="edge"><title>Node1&#45;&gt;Node7</title>
<path fill="none" stroke="midnightblue" d="M40.2935,-276.923C47.8215,-339.501 73.4072,-530.879 110,-580 119.776,-593.123 135.502,-602.33 149.369,-608.391"/>
<polygon fill="midnightblue" stroke="midnightblue" points="43.7469,-276.321 39.0994,-266.8 36.7951,-277.141 43.7469,-276.321"/>
</g>
<!-- Node12 -->
<g id="node12" class="node"><title>Node12</title>
<g id="a_node12"><a xlink:href="mxml_8c.xhtml#ad030ed9e4ac1bdcf7cda84301f87aa04" target="_top" xlink:title="mxml_add_special_node_at">
<polygon fill="white" stroke="black" points="110.5,-323.5 110.5,-342.5 247.5,-342.5 247.5,-323.5 110.5,-323.5"/>
<text text-anchor="middle" x="179" y="-330.5" font-family="Helvetica,sans-Serif" font-size="10.00">mxml_add_special_node_at</text>
</a>
</g>
</g>
<!-- Node1&#45;&gt;Node12 -->
<g id="edge15" class="edge"><title>Node1&#45;&gt;Node12</title>
<path fill="none" stroke="midnightblue" d="M64.6279,-271.455C92.7532,-286.723 136.295,-310.36 160.413,-323.453"/>
<polygon fill="midnightblue" stroke="midnightblue" points="66.1895,-268.32 55.7311,-266.625 62.8498,-274.472 66.1895,-268.32"/>
</g>
<!-- Node16 -->
<g id="node16" class="node"><title>Node16</title>
<g id="a_node16"><a xlink:href="mxml_8c.xhtml#a9977e3be9d90ec5cc0da092c8924269d" target="_top" xlink:title="mxml_add_tree_at">
<polygon fill="white" stroke="black" points="130.5,-551.5 130.5,-570.5 227.5,-570.5 227.5,-551.5 130.5,-551.5"/>
<text text-anchor="middle" x="179" y="-558.5" font-family="Helvetica,sans-Serif" font-size="10.00">mxml_add_tree_at</text>
</a>
</g>
</g>
<!-- Node1&#45;&gt;Node16 -->
<g id="edge21" class="edge"><title>Node1&#45;&gt;Node16</title>
<path fill="none" stroke="midnightblue" d="M38.3018,-276.793C40.005,-324.304 50.3062,-446.524 110,-523 120.152,-536.006 136.071,-545.246 149.956,-551.356"/>
<polygon fill="midnightblue" stroke="midnightblue" points="41.7963,-276.536 38.033,-266.632 34.7987,-276.721 41.7963,-276.536"/>
</g>
<!-- Node18 -->
<g id="node18" class="node"><title>Node18</title>
<g id="a_node18"><a xlink:href="mxml_8c.xhtml#acd5df9d9cc5b5f2f75c06585d7867488" target="_top" xlink:title="mxml_encode">
<polygon fill="white" stroke="black" points="140.5,-76.5 140.5,-95.5 217.5,-95.5 217.5,-76.5 140.5,-76.5"/>
<text text-anchor="middle" x="179" y="-83.5" font-family="Helvetica,sans-Serif" font-size="10.00">mxml_encode</text>
</a>
</g>
</g>
<!-- Node1&#45;&gt;Node18 -->
<g id="edge24" class="edge"><title>Node1&#45;&gt;Node18</title>
<path fill="none" stroke="midnightblue" d="M42.5658,-237.091C50.7564,-205.733 70.8663,-144.833 110,-110 118.51,-102.425 129.562,-97.2033 140.274,-93.6183"/>
<polygon fill="midnightblue" stroke="midnightblue" points="39.0681,-236.657 40.0743,-247.204 45.8649,-238.331 39.0681,-236.657"/>
</g>
<!-- Node19 -->
<g id="node19" class="node"><title>Node19</title>
<g id="a_node19"><a xlink:href="mxml_8c.xhtml#a43879e9508767beaf57424ec1393f661" target="_top" xlink:title="mxml_start_element1">
<polygon fill="white" stroke="black" points="291,-114.5 291,-133.5 401,-133.5 401,-114.5 291,-114.5"/>
<text text-anchor="middle" x="346" y="-121.5" font-family="Helvetica,sans-Serif" font-size="10.00">mxml_start_element1</text>
</a>
</g>
</g>
<!-- Node1&#45;&gt;Node19 -->
<g id="edge46" class="edge"><title>Node1&#45;&gt;Node19</title>
<path fill="none" stroke="midnightblue" d="M44.7169,-237.722C54.6581,-212.378 75.879,-168.658 110,-148 164.903,-114.759 240.504,-113.191 290.977,-116.994"/>
<polygon fill="midnightblue" stroke="midnightblue" points="41.3462,-236.745 41.1423,-247.337 47.9075,-239.184 41.3462,-236.745"/>
</g>
<!-- Node26 -->
<g id="node26" class="node"><title>Node26</title>
<g id="a_node26"><a xlink:href="mxml_8c.xhtml#a9cf33f3456fea00ea438422ebb7bd6be" target="_top" xlink:title="mxml_write_value">
<polygon fill="white" stroke="black" points="298.5,-38.5 298.5,-57.5 393.5,-57.5 393.5,-38.5 298.5,-38.5"/>
<text text-anchor="middle" x="346" y="-45.5" font-family="Helvetica,sans-Serif" font-size="10.00">mxml_write_value</text>
</a>
</g>
</g>
<!-- Node1&#45;&gt;Node26 -->
<g id="edge47" class="edge"><title>Node1&#45;&gt;Node26</title>
<path fill="none" stroke="midnightblue" d="M38.9185,-237.236C41.9311,-197.561 54.8244,-108.478 110,-67 164.802,-25.8021 248.495,-30.3815 299.812,-38.4714"/>
<polygon fill="midnightblue" stroke="midnightblue" points="35.4109,-237.25 38.284,-247.447 42.3975,-237.684 35.4109,-237.25"/>
</g>
<!-- Node27 -->
<g id="node27" class="node"><title>Node27</title>
<g id="a_node27"><a xlink:href="mxml_8c.xhtml#a583d65e147d93c0e1b11fcf7557f3466" target="_top" xlink:title="mxml_open_buffer">
<polygon fill="white" stroke="black" points="130.5,-0.5 130.5,-19.5 227.5,-19.5 227.5,-0.5 130.5,-0.5"/>
<text text-anchor="middle" x="179" y="-7.5" font-family="Helvetica,sans-Serif" font-size="10.00">mxml_open_buffer</text>
</a>
</g>
</g>
<!-- Node1&#45;&gt;Node27 -->
<g id="edge36" class="edge"><title>Node1&#45;&gt;Node27</title>
<path fill="none" stroke="midnightblue" d="M38.7292,-237.24C41.3741,-194.354 53.5944,-91.9488 110,-34 116.2,-27.6305 124.191,-22.948 132.504,-19.5067"/>
<polygon fill="midnightblue" stroke="midnightblue" points="35.2223,-237.292 38.2166,-247.455 42.2135,-237.643 35.2223,-237.292"/>
</g>
<!-- Node28 -->
<g id="node28" class="node"><title>Node28</title>
<g id="a_node28"><a xlink:href="mxml_8c.xhtml#a63bf060bd7ed517fed1d2399c253f4d8" target="_top" xlink:title="mxml_open_file">
<polygon fill="white" stroke="black" points="454.5,-196.5 454.5,-215.5 539.5,-215.5 539.5,-196.5 454.5,-196.5"/>
<text text-anchor="middle" x="497" y="-203.5" font-family="Helvetica,sans-Serif" font-size="10.00">mxml_open_file</text>
</a>
</g>
</g>
<!-- Node1&#45;&gt;Node28 -->
<g id="edge37" class="edge"><title>Node1&#45;&gt;Node28</title>
<path fill="none" stroke="midnightblue" d="M53.016,-239.278C66.3625,-224.884 87.2415,-205.473 110,-196 232.429,-145.039 276.656,-162.705 408,-181 429.079,-183.936 452.202,-190.648 469.453,-196.379"/>
<polygon fill="midnightblue" stroke="midnightblue" points="50.1181,-237.268 46.0709,-247.06 55.3408,-241.929 50.1181,-237.268"/>
</g>
<!-- Node29 -->
<g id="node29" class="node"><title>Node29</title>
<g id="a_node29"><a xlink:href="mxml_8c.xhtml#a9c1dde43a12f9e8383227dd5f79bf91d" target="_top" xlink:title="mxml_parse_entity">
<polygon fill="white" stroke="black" points="296.5,-190.5 296.5,-209.5 395.5,-209.5 395.5,-190.5 296.5,-190.5"/>
<text text-anchor="middle" x="346" y="-197.5" font-family="Helvetica,sans-Serif" font-size="10.00">mxml_parse_entity</text>
</a>
</g>
</g>
<!-- Node1&#45;&gt;Node29 -->
<g id="edge40" class="edge"><title>Node1&#45;&gt;Node29</title>
<path fill="none" stroke="midnightblue" d="M60.5926,-242.02C74.2947,-233.731 92.4676,-224.101 110,-219 172.49,-200.818 248.009,-197.892 296.266,-198.285"/>
<polygon fill="midnightblue" stroke="midnightblue" points="58.5026,-239.199 51.8836,-247.472 62.2169,-245.132 58.5026,-239.199"/>
</g>
<!-- Node30 -->
<g id="node30" class="node"><title>Node30</title>
<g id="a_node30"><a xlink:href="mxml_8c.xhtml#a57419c0dff3ac219083666a963cbc65d" target="_top" xlink:title="mxml_replace_node_value">
<polygon fill="white" stroke="black" points="113,-494.5 113,-513.5 245,-513.5 245,-494.5 113,-494.5"/>
<text text-anchor="middle" x="179" y="-501.5" font-family="Helvetica,sans-Serif" font-size="10.00">mxml_replace_node_value</text>
</a>
</g>
</g>
<!-- Node1&#45;&gt;Node30 -->
<g id="edge43" class="edge"><title>Node1&#45;&gt;Node30</title>
<path fill="none" stroke="midnightblue" d="M38.7292,-276.76C41.3741,-319.646 53.5944,-422.051 110,-480 116.2,-486.369 124.191,-491.052 132.504,-494.493"/>
<polygon fill="midnightblue" stroke="midnightblue" points="42.2135,-276.357 38.2166,-266.545 35.2223,-276.708 42.2135,-276.357"/>
</g>
<!-- Node32 -->
<g id="node32" class="node"><title>Node32</title>
<g id="a_node32"><a xlink:href="mxml_8c.xhtml#a7a11f9a05fffb677a2d8d189f4b3f370" target="_top" xlink:title="read_error">
<polygon fill="white" stroke="black" points="149,-228.5 149,-247.5 209,-247.5 209,-228.5 149,-228.5"/>
<text text-anchor="middle" x="179" y="-235.5" font-family="Helvetica,sans-Serif" font-size="10.00">read_error</text>
</a>
</g>
</g>
<!-- Node1&#45;&gt;Node32 -->
<g id="edge48" class="edge"><title>Node1&#45;&gt;Node32</title>
<path fill="none" stroke="midnightblue" d="M84.1768,-250.733C105.425,-247.849 129.998,-244.515 148.665,-241.981"/>
<polygon fill="midnightblue" stroke="midnightblue" points="83.4919,-247.294 74.0535,-252.107 84.4334,-254.23 83.4919,-247.294"/>
</g>
<!-- Node3 -->
<g id="node3" class="node"><title>Node3</title>
<g id="a_node3"><a xlink:href="mxml_8c.xhtml#a73cb7fc1ac4ef0d3a05d880e1de662f4" target="_top" xlink:title="mxml_clone_tree">
<polygon fill="white" stroke="black" points="594.5,-551.5 594.5,-570.5 685.5,-570.5 685.5,-551.5 594.5,-551.5"/>
<text text-anchor="middle" x="640" y="-558.5" font-family="Helvetica,sans-Serif" font-size="10.00">mxml_clone_tree</text>
</a>
</g>
</g>
<!-- Node2&#45;&gt;Node3 -->
<g id="edge2" class="edge"><title>Node2&#45;&gt;Node3</title>
<path fill="none" stroke="midnightblue" d="M377.214,-441.762C436.486,-468.759 566.678,-528.059 617.798,-551.343"/>
<polygon fill="midnightblue" stroke="midnightblue" points="378.551,-438.525 368,-437.565 375.65,-444.895 378.551,-438.525"/>
</g>
<!-- Node2&#45;&gt;Node4 -->
<g id="edge3" class="edge"><title>Node2&#45;&gt;Node4</title>
<path fill="none" stroke="midnightblue" d="M395.35,-414.93C399.724,-413.158 404.006,-411.185 408,-409 440.573,-391.181 472.268,-360.191 487.166,-344.576"/>
<polygon fill="midnightblue" stroke="midnightblue" points="393.869,-411.746 385.702,-418.495 396.295,-418.312 393.869,-411.746"/>
</g>
<!-- Node4&#45;&gt;Node5 -->
<g id="edge4" class="edge"><title>Node4&#45;&gt;Node5</title>
<path fill="none" stroke="midnightblue" d="M527.574,-348.843C554.823,-361.598 594.549,-380.193 618.473,-391.391"/>
<polygon fill="midnightblue" stroke="midnightblue" points="529.043,-345.667 518.503,-344.597 526.076,-352.006 529.043,-345.667"/>
</g>
<!-- Node6 -->
<g id="node6" class="node"><title>Node6</title>
<g id="a_node6"><a xlink:href="class_d_r_s_board.xhtml#af9f7718b667109421094ec226224b012" target="_top" xlink:title="DRSBoard::GetTimeCalibration">
<polygon fill="white" stroke="black" points="730,-608.5 730,-627.5 884,-627.5 884,-608.5 730,-608.5"/>
<text text-anchor="middle" x="807" y="-615.5" font-family="Helvetica,sans-Serif" font-size="10.00">DRSBoard::GetTimeCalibration</text>
</a>
</g>
</g>
<!-- Node5&#45;&gt;Node6 -->
<g id="edge5" class="edge"><title>Node5&#45;&gt;Node6</title>
<path fill="none" stroke="midnightblue" d="M654.372,-418.587C687.491,-462.143 772.515,-573.962 798.405,-608.011"/>
<polygon fill="midnightblue" stroke="midnightblue" points="657.142,-416.446 648.303,-410.604 651.569,-420.683 657.142,-416.446"/>
</g>
<!-- Node8 -->
<g id="node8" class="node"><title>Node8</title>
<g id="a_node8"><a xlink:href="mxml_8c.xhtml#ab4b547074c15b19eae1b6f16050c75d9" target="_top" xlink:title="mxml_find_nodes1">
<polygon fill="white" stroke="black" points="297,-608.5 297,-627.5 395,-627.5 395,-608.5 297,-608.5"/>
<text text-anchor="middle" x="346" y="-615.5" font-family="Helvetica,sans-Serif" font-size="10.00">mxml_find_nodes1</text>
</a>
</g>
</g>
<!-- Node7&#45;&gt;Node8 -->
<g id="edge7" class="edge"><title>Node7&#45;&gt;Node8</title>
<path fill="none" stroke="midnightblue" d="M245.867,-611.373C262.925,-611.117 280.972,-611.26 296.926,-611.802"/>
<polygon fill="midnightblue" stroke="midnightblue" points="245.329,-607.883 235.402,-611.585 245.47,-614.882 245.329,-607.883"/>
</g>
<!-- Node8&#45;&gt;Node7 -->
<g id="edge8" class="edge"><title>Node8&#45;&gt;Node7</title>
<path fill="none" stroke="midnightblue" d="M286.749,-624.484C270.059,-624.86 251.916,-624.837 235.402,-624.415"/>
<polygon fill="midnightblue" stroke="midnightblue" points="287.028,-627.978 296.926,-624.198 286.832,-620.98 287.028,-627.978"/>
</g>
<!-- Node9 -->
<g id="node9" class="node"><title>Node9</title>
<g id="a_node9"><a xlink:href="mxml_8c.xhtml#a6dc97d9bb89977574a5f5cff952f3550" target="_top" xlink:title="mxml_find_nodes">
<polygon fill="white" stroke="black" points="450.5,-646.5 450.5,-665.5 543.5,-665.5 543.5,-646.5 450.5,-646.5"/>
<text text-anchor="middle" x="497" y="-653.5" font-family="Helvetica,sans-Serif" font-size="10.00">mxml_find_nodes</text>
</a>
</g>
</g>
<!-- Node8&#45;&gt;Node9 -->
<g id="edge9" class="edge"><title>Node8&#45;&gt;Node9</title>
<path fill="none" stroke="midnightblue" d="M394.492,-630.112C415.244,-635.404 439.228,-641.521 458.671,-646.48"/>
<polygon fill="midnightblue" stroke="midnightblue" points="395.154,-626.669 384.599,-627.589 393.424,-633.452 395.154,-626.669"/>
</g>
<!-- Node11 -->
<g id="node11" class="node"><title>Node11</title>
<g id="a_node11"><a xlink:href="mxml_8c.xhtml#a77bc20aac65b3c46df4b08aeb52b2686" target="_top" xlink:title="mxml_subnode">
<polygon fill="white" stroke="black" points="455.5,-608.5 455.5,-627.5 538.5,-627.5 538.5,-608.5 455.5,-608.5"/>
<text text-anchor="middle" x="497" y="-615.5" font-family="Helvetica,sans-Serif" font-size="10.00">mxml_subnode</text>
</a>
</g>
</g>
<!-- Node8&#45;&gt;Node11 -->
<g id="edge12" class="edge"><title>Node8&#45;&gt;Node11</title>
<path fill="none" stroke="midnightblue" d="M405.573,-618C422.233,-618 440.008,-618 455.35,-618"/>
<polygon fill="midnightblue" stroke="midnightblue" points="405.376,-614.5 395.376,-618 405.376,-621.5 405.376,-614.5"/>
</g>
<!-- Node10 -->
<g id="node10" class="node"><title>Node10</title>
<g id="a_node10"><a xlink:href="mxml_8c.xhtml#a43e02c5111b428f22b1032a318ffe29f" target="_top" xlink:title="mxml_find_node">
<polygon fill="white" stroke="black" points="596,-646.5 596,-665.5 684,-665.5 684,-646.5 596,-646.5"/>
<text text-anchor="middle" x="640" y="-653.5" font-family="Helvetica,sans-Serif" font-size="10.00">mxml_find_node</text>
</a>
</g>
</g>
<!-- Node9&#45;&gt;Node10 -->
<g id="edge10" class="edge"><title>Node9&#45;&gt;Node10</title>
<path fill="none" stroke="midnightblue" d="M553.789,-656C567.778,-656 582.576,-656 595.845,-656"/>
<polygon fill="midnightblue" stroke="midnightblue" points="553.779,-652.5 543.779,-656 553.779,-659.5 553.779,-652.5"/>
</g>
<!-- Node10&#45;&gt;Node6 -->
<g id="edge11" class="edge"><title>Node10&#45;&gt;Node6</title>
<path fill="none" stroke="midnightblue" d="M692.654,-644.104C715.846,-638.763 742.838,-632.546 764.663,-627.52"/>
<polygon fill="midnightblue" stroke="midnightblue" points="691.596,-640.756 682.636,-646.411 693.167,-647.577 691.596,-640.756"/>
</g>
<!-- Node11&#45;&gt;Node3 -->
<g id="edge14" class="edge"><title>Node11&#45;&gt;Node3</title>
<path fill="none" stroke="midnightblue" d="M534.784,-604.836C539.911,-602.921 545.099,-600.94 550,-599 573.276,-589.786 599.607,-578.425 617.552,-570.537"/>
<polygon fill="midnightblue" stroke="midnightblue" points="533.264,-601.666 525.092,-608.41 535.686,-608.234 533.264,-601.666"/>
</g>
<!-- Node11&#45;&gt;Node6 -->
<g id="edge13" class="edge"><title>Node11&#45;&gt;Node6</title>
<path fill="none" stroke="midnightblue" d="M548.677,-618C597.921,-618 673.328,-618 729.803,-618"/>
<polygon fill="midnightblue" stroke="midnightblue" points="548.582,-614.5 538.582,-618 548.582,-621.5 548.582,-614.5"/>
</g>
<!-- Node13 -->
<g id="node13" class="node"><title>Node13</title>
<g id="a_node13"><a xlink:href="mxml_8c.xhtml#afa83c9bacbedeb26f8dbc2d8e26fdfad" target="_top" xlink:title="mxml_add_node">
<polygon fill="white" stroke="black" points="302,-342.5 302,-361.5 390,-361.5 390,-342.5 302,-342.5"/>
<text text-anchor="middle" x="346" y="-349.5" font-family="Helvetica,sans-Serif" font-size="10.00">mxml_add_node</text>
</a>
</g>
</g>
<!-- Node12&#45;&gt;Node13 -->
<g id="edge16" class="edge"><title>Node12&#45;&gt;Node13</title>
<path fill="none" stroke="midnightblue" d="M257.547,-341.93C272.786,-343.684 288.251,-345.465 301.852,-347.031"/>
<polygon fill="midnightblue" stroke="midnightblue" points="257.923,-338.45 247.588,-340.783 257.122,-345.404 257.923,-338.45"/>
</g>
<!-- Node14 -->
<g id="node14" class="node"><title>Node14</title>
<g id="a_node14"><a xlink:href="mxml_8c.xhtml#a92015fcc9635dce8a1d32c653baf3a6b" target="_top" xlink:title="mxml_add_node_at">
<polygon fill="white" stroke="black" points="295.5,-380.5 295.5,-399.5 396.5,-399.5 396.5,-380.5 295.5,-380.5"/>
<text text-anchor="middle" x="346" y="-387.5" font-family="Helvetica,sans-Serif" font-size="10.00">mxml_add_node_at</text>
</a>
</g>
</g>
<!-- Node12&#45;&gt;Node14 -->
<g id="edge18" class="edge"><title>Node12&#45;&gt;Node14</title>
<path fill="none" stroke="midnightblue" d="M214.496,-346.079C234.672,-353.61 260.683,-363.114 284,-371 293.457,-374.198 303.804,-377.496 313.246,-380.428"/>
<polygon fill="midnightblue" stroke="midnightblue" points="215.69,-342.789 205.098,-342.557 213.233,-349.344 215.69,-342.789"/>
</g>
<!-- Node15 -->
<g id="node15" class="node"><title>Node15</title>
<g id="a_node15"><a xlink:href="mxml_8c.xhtml#a0eed7fed4f2f71e211cf85105b4b007c" target="_top" xlink:title="mxml_add_special_node">
<polygon fill="white" stroke="black" points="284,-304.5 284,-323.5 408,-323.5 408,-304.5 284,-304.5"/>
<text text-anchor="middle" x="346" y="-311.5" font-family="Helvetica,sans-Serif" font-size="10.00">mxml_add_special_node</text>
</a>
</g>
</g>
<!-- Node12&#45;&gt;Node15 -->
<g id="edge19" class="edge"><title>Node12&#45;&gt;Node15</title>
<path fill="none" stroke="midnightblue" d="M257.805,-324.041C266.557,-323.033 275.379,-322.017 283.876,-321.039"/>
<polygon fill="midnightblue" stroke="midnightblue" points="257.122,-320.596 247.588,-325.217 257.923,-327.55 257.122,-320.596"/>
</g>
<!-- Node13&#45;&gt;Node4 -->
<g id="edge17" class="edge"><title>Node13&#45;&gt;Node4</title>
<path fill="none" stroke="midnightblue" d="M400.378,-345.91C415.574,-344.176 432.048,-342.297 446.972,-340.594"/>
<polygon fill="midnightblue" stroke="midnightblue" points="399.636,-342.472 390.097,-347.083 400.429,-349.427 399.636,-342.472"/>
</g>
<!-- Node15&#45;&gt;Node4 -->
<g id="edge20" class="edge"><title>Node15&#45;&gt;Node4</title>
<path fill="none" stroke="midnightblue" d="M418.062,-324.016C427.739,-325.379 437.493,-326.754 446.67,-328.047"/>
<polygon fill="midnightblue" stroke="midnightblue" points="418.425,-320.532 408.034,-322.602 417.448,-327.464 418.425,-320.532"/>
</g>
<!-- Node17 -->
<g id="node17" class="node"><title>Node17</title>
<g id="a_node17"><a xlink:href="mxml_8c.xhtml#afa48c082b68b5ea5ac0986d88fd12d43" target="_top" xlink:title="mxml_add_tree">
<polygon fill="white" stroke="black" points="455.5,-570.5 455.5,-589.5 538.5,-589.5 538.5,-570.5 455.5,-570.5"/>
<text text-anchor="middle" x="497" y="-577.5" font-family="Helvetica,sans-Serif" font-size="10.00">mxml_add_tree</text>
</a>
</g>
</g>
<!-- Node16&#45;&gt;Node17 -->
<g id="edge22" class="edge"><title>Node16&#45;&gt;Node17</title>
<path fill="none" stroke="midnightblue" d="M237.806,-564.476C300.701,-568.257 399.658,-574.207 455.014,-577.536"/>
<polygon fill="midnightblue" stroke="midnightblue" points="237.843,-560.972 227.651,-563.865 237.422,-567.959 237.843,-560.972"/>
</g>
<!-- Node17&#45;&gt;Node3 -->
<g id="edge23" class="edge"><title>Node17&#45;&gt;Node3</title>
<path fill="none" stroke="midnightblue" d="M548.849,-573.148C563.735,-571.142 579.891,-568.965 594.359,-567.015"/>
<polygon fill="midnightblue" stroke="midnightblue" points="548.226,-569.7 538.783,-574.504 549.161,-576.638 548.226,-569.7"/>
</g>
<!-- Node18&#45;&gt;Node19 -->
<g id="edge25" class="edge"><title>Node18&#45;&gt;Node19</title>
<path fill="none" stroke="midnightblue" d="M227.806,-97.0098C251.78,-102.531 280.534,-109.153 303.561,-114.456"/>
<polygon fill="midnightblue" stroke="midnightblue" points="228.385,-93.5516 217.854,-94.718 226.814,-100.373 228.385,-93.5516"/>
</g>
<!-- Node25 -->
<g id="node25" class="node"><title>Node25</title>
<g id="a_node25"><a xlink:href="mxml_8c.xhtml#a7745af802a053bde67f77555ab47a17b" target="_top" xlink:title="mxml_write_attribute">
<polygon fill="white" stroke="black" points="292.5,-76.5 292.5,-95.5 399.5,-95.5 399.5,-76.5 292.5,-76.5"/>
<text text-anchor="middle" x="346" y="-83.5" font-family="Helvetica,sans-Serif" font-size="10.00">mxml_write_attribute</text>
</a>
</g>
</g>
<!-- Node18&#45;&gt;Node25 -->
<g id="edge31" class="edge"><title>Node18&#45;&gt;Node25</title>
<path fill="none" stroke="midnightblue" d="M228.054,-86C248.205,-86 271.697,-86 292.318,-86"/>
<polygon fill="midnightblue" stroke="midnightblue" points="227.854,-82.5001 217.854,-86 227.854,-89.5001 227.854,-82.5001"/>
</g>
<!-- Node18&#45;&gt;Node26 -->
<g id="edge33" class="edge"><title>Node18&#45;&gt;Node26</title>
<path fill="none" stroke="midnightblue" d="M227.806,-74.9902C251.78,-69.4688 280.534,-62.8466 303.561,-57.5436"/>
<polygon fill="midnightblue" stroke="midnightblue" points="226.814,-71.627 217.854,-77.282 228.385,-78.4484 226.814,-71.627"/>
</g>
<!-- Node20 -->
<g id="node20" class="node"><title>Node20</title>
<g id="a_node20"><a xlink:href="mxml_8c.xhtml#a1490cd450c6499bab0d70fbeaf88c3be" target="_top" xlink:title="mxml_start_element">
<polygon fill="white" stroke="black" points="444.5,-158.5 444.5,-177.5 549.5,-177.5 549.5,-158.5 444.5,-158.5"/>
<text text-anchor="middle" x="497" y="-165.5" font-family="Helvetica,sans-Serif" font-size="10.00">mxml_start_element</text>
</a>
</g>
</g>
<!-- Node19&#45;&gt;Node20 -->
<g id="edge26" class="edge"><title>Node19&#45;&gt;Node20</title>
<path fill="none" stroke="midnightblue" d="M389.109,-136.435C412.784,-143.426 441.878,-152.018 463.732,-158.471"/>
<polygon fill="midnightblue" stroke="midnightblue" points="389.913,-133.023 379.331,-133.547 387.93,-139.736 389.913,-133.023"/>
</g>
<!-- Node22 -->
<g id="node22" class="node"><title>Node22</title>
<g id="a_node22"><a xlink:href="mxml_8c.xhtml#aef9e08f5651e4905af653c15c6bb0d6e" target="_top" xlink:title="mxml_start_element\l_noindent">
<polygon fill="white" stroke="black" points="444.5,-109 444.5,-139 549.5,-139 549.5,-109 444.5,-109"/>
<text text-anchor="start" x="452.5" y="-127" font-family="Helvetica,sans-Serif" font-size="10.00">mxml_start_element</text>
<text text-anchor="middle" x="497" y="-116" font-family="Helvetica,sans-Serif" font-size="10.00">_noindent</text>
</a>
</g>
</g>
<!-- Node19&#45;&gt;Node22 -->
<g id="edge28" class="edge"><title>Node19&#45;&gt;Node22</title>
<path fill="none" stroke="midnightblue" d="M411.521,-124C422.396,-124 433.56,-124 444.064,-124"/>
<polygon fill="midnightblue" stroke="midnightblue" points="411.214,-120.5 401.214,-124 411.214,-127.5 411.214,-120.5"/>
</g>
<!-- Node23 -->
<g id="node23" class="node"><title>Node23</title>
<g id="a_node23"><a xlink:href="mxml_8c.xhtml#aad3952c0c32fc16aa78fde6faa7bd002" target="_top" xlink:title="mxml_write_subtree">
<polygon fill="white" stroke="black" points="445,-70.5 445,-89.5 549,-89.5 549,-70.5 445,-70.5"/>
<text text-anchor="middle" x="497" y="-77.5" font-family="Helvetica,sans-Serif" font-size="10.00">mxml_write_subtree</text>
</a>
</g>
</g>
<!-- Node19&#45;&gt;Node23 -->
<g id="edge29" class="edge"><title>Node19&#45;&gt;Node23</title>
<path fill="none" stroke="midnightblue" d="M389.109,-111.565C412.784,-104.574 441.878,-95.9823 463.732,-89.5287"/>
<polygon fill="midnightblue" stroke="midnightblue" points="387.93,-108.264 379.331,-114.453 389.913,-114.977 387.93,-108.264"/>
</g>
<!-- Node21 -->
<g id="node21" class="node"><title>Node21</title>
<g id="a_node21"><a xlink:href="mxml_8c.xhtml#ac6ccd07b846150067db07ed7086cf7e1" target="_top" xlink:title="mxml_write_element">
<polygon fill="white" stroke="black" points="586.5,-63.5 586.5,-82.5 693.5,-82.5 693.5,-63.5 586.5,-63.5"/>
<text text-anchor="middle" x="640" y="-70.5" font-family="Helvetica,sans-Serif" font-size="10.00">mxml_write_element</text>
</a>
</g>
</g>
<!-- Node20&#45;&gt;Node21 -->
<g id="edge27" class="edge"><title>Node20&#45;&gt;Node21</title>
<path fill="none" stroke="midnightblue" d="M537.448,-154.45C541.784,-152.487 546.052,-150.333 550,-148 582.009,-129.086 613.982,-98.6157 629.436,-82.9723"/>
<polygon fill="midnightblue" stroke="midnightblue" points="535.817,-151.338 527.949,-158.434 538.524,-157.794 535.817,-151.338"/>
</g>
<!-- Node24 -->
<g id="node24" class="node"><title>Node24</title>
<g id="a_node24"><a xlink:href="mxml_8c.xhtml#a6dc934e8374543e6070804f8a5822f5f" target="_top" xlink:title="mxml_write_tree">
<polygon fill="white" stroke="black" points="595.5,-164.5 595.5,-183.5 684.5,-183.5 684.5,-164.5 595.5,-164.5"/>
<text text-anchor="middle" x="640" y="-171.5" font-family="Helvetica,sans-Serif" font-size="10.00">mxml_write_tree</text>
</a>
</g>
</g>
<!-- Node23&#45;&gt;Node24 -->
<g id="edge30" class="edge"><title>Node23&#45;&gt;Node24</title>
<path fill="none" stroke="midnightblue" d="M539.058,-93.4435C542.839,-95.1432 546.544,-96.9968 550,-99 582.517,-117.846 614.765,-148.899 629.97,-164.471"/>
<polygon fill="midnightblue" stroke="midnightblue" points="540.178,-90.1193 529.599,-89.5378 537.506,-96.5894 540.178,-90.1193"/>
</g>
<!-- Node25&#45;&gt;Node23 -->
<g id="edge32" class="edge"><title>Node25&#45;&gt;Node23</title>
<path fill="none" stroke="midnightblue" d="M409.718,-83.4744C421.462,-83.0015 433.606,-82.5125 444.944,-82.0559"/>
<polygon fill="midnightblue" stroke="midnightblue" points="409.383,-79.985 399.532,-83.8846 409.665,-86.9793 409.383,-79.985"/>
</g>
<!-- Node26&#45;&gt;Node21 -->
<g id="edge34" class="edge"><title>Node26&#45;&gt;Node21</title>
<path fill="none" stroke="midnightblue" d="M403.854,-50.5733C444.601,-52.6779 500.757,-56.1095 550,-61 561.791,-62.171 574.426,-63.7044 586.363,-65.2817"/>
<polygon fill="midnightblue" stroke="midnightblue" points="404.004,-47.0765 393.84,-50.0668 403.651,-54.0676 404.004,-47.0765"/>
</g>
<!-- Node26&#45;&gt;Node23 -->
<g id="edge35" class="edge"><title>Node26&#45;&gt;Node23</title>
<path fill="none" stroke="midnightblue" d="M401.37,-59.6767C417.888,-63.2242 435.833,-67.0783 451.612,-70.467"/>
<polygon fill="midnightblue" stroke="midnightblue" points="401.814,-56.1923 391.301,-57.5144 400.344,-63.0362 401.814,-56.1923"/>
</g>
<!-- Node28&#45;&gt;Node24 -->
<g id="edge38" class="edge"><title>Node28&#45;&gt;Node24</title>
<path fill="none" stroke="midnightblue" d="M549.525,-194.306C565.06,-190.781 581.923,-186.954 596.779,-183.582"/>
<polygon fill="midnightblue" stroke="midnightblue" points="548.519,-190.946 539.542,-196.572 550.069,-197.772 548.519,-190.946"/>
</g>
<!-- Node29&#45;&gt;Node5 -->
<g id="edge41" class="edge"><title>Node29&#45;&gt;Node5</title>
<path fill="none" stroke="midnightblue" d="M373.841,-214.273C384.515,-220.014 396.88,-226.745 408,-233 471.712,-268.841 491.615,-272.012 550,-316 582.082,-340.171 615.042,-374.682 630.288,-391.31"/>
<polygon fill="midnightblue" stroke="midnightblue" points="375.436,-211.158 364.969,-209.52 372.13,-217.328 375.436,-211.158"/>
</g>
<!-- Node30&#45;&gt;Node3 -->
<g id="edge45" class="edge"><title>Node30&#45;&gt;Node3</title>
<path fill="none" stroke="midnightblue" d="M238.146,-515.408C253.057,-518.117 269.093,-520.843 284,-523 395.189,-539.085 526.885,-551.442 594.314,-557.287"/>
<polygon fill="midnightblue" stroke="midnightblue" points="238.501,-511.914 228.032,-513.542 237.231,-518.798 238.501,-511.914"/>
</g>
<!-- Node31 -->
<g id="node31" class="node"><title>Node31</title>
<g id="a_node31"><a xlink:href="mxml_8c.xhtml#a36703bf078c15dde39a9e23147bd0423" target="_top" xlink:title="mxml_replace_subvalue">
<polygon fill="white" stroke="black" points="285,-494.5 285,-513.5 407,-513.5 407,-494.5 285,-494.5"/>
<text text-anchor="middle" x="346" y="-501.5" font-family="Helvetica,sans-Serif" font-size="10.00">mxml_replace_subvalue</text>
</a>
</g>
</g>
<!-- Node30&#45;&gt;Node31 -->
<g id="edge44" class="edge"><title>Node30&#45;&gt;Node31</title>
<path fill="none" stroke="midnightblue" d="M255.411,-504C265.269,-504 275.262,-504 284.822,-504"/>
<polygon fill="midnightblue" stroke="midnightblue" points="255.212,-500.5 245.212,-504 255.212,-507.5 255.212,-500.5"/>
</g>
<!-- Node32&#45;&gt;Node4 -->
<g id="edge49" class="edge"><title>Node32&#45;&gt;Node4</title>
<path fill="none" stroke="midnightblue" d="M219.067,-235.403C265.874,-233.776 345.765,-235.784 408,-262 442.392,-276.487 473.73,-309.066 487.951,-325.351"/>
<polygon fill="midnightblue" stroke="midnightblue" points="218.881,-231.908 209.037,-235.826 219.175,-238.901 218.881,-231.908"/>
</g>
<!-- Node32&#45;&gt;Node29 -->
<g id="edge50" class="edge"><title>Node32&#45;&gt;Node29</title>
<path fill="none" stroke="midnightblue" d="M219.144,-228.985C244.55,-223.134 277.617,-215.519 303.481,-209.562"/>
<polygon fill="midnightblue" stroke="midnightblue" points="218.078,-225.639 209.119,-231.294 219.649,-232.46 218.078,-225.639"/>
</g>
</g>
</svg>
        <g id="navigator" transform="translate(0 0)" fill="#404254">
                <rect fill="#f2f5e9" fill-opacity="0.5" stroke="#606060" stroke-width=".5" x="0" y="0" width="60" height="60"/>
                <use id="zoomplus" xlink:href="#zoomPlus" x="17" y="9" onmousedown="handleZoom(evt,'in')"/>
                <use id="zoomminus" xlink:href="#zoomMin" x="42" y="9" onmousedown="handleZoom(evt,'out')"/>
                <use id="reset" xlink:href="#resetDef" x="30" y="36" onmousedown="handleReset()"/>
                <g id="arrowUp" xlink:href="#dirArrow" transform="translate(30 24)" onmousedown="handlePan(0,-1)">
                  <use xlink:href="#rim" fill="#404040">
                        <set attributeName="fill" to="#808080" begin="arrowUp.mouseover" end="arrowUp.mouseout"/>
                  </use>
                  <path fill="none" stroke="white" stroke-width="1.5" d="M0,-3.0v7 M-2.5,-0.5L0,-3.0L2.5,-0.5"/>
                </g>
                <g id="arrowRight" xlink:href="#dirArrow" transform="rotate(90) translate(36 -43)" onmousedown="handlePan(1,0)">
                  <use xlink:href="#rim" fill="#404040">
                        <set attributeName="fill" to="#808080" begin="arrowRight.mouseover" end="arrowRight.mouseout"/>
                  </use>
                  <path fill="none" stroke="white" stroke-width="1.5" d="M0,-3.0v7 M-2.5,-0.5L0,-3.0L2.5,-0.5"/>
                </g>
                <g id="arrowDown" xlink:href="#dirArrow" transform="rotate(180) translate(-30 -48)" onmousedown="handlePan(0,1)">
                  <use xlink:href="#rim" fill="#404040">
                        <set attributeName="fill" to="#808080" begin="arrowDown.mouseover" end="arrowDown.mouseout"/>
                  </use>
                  <path fill="none" stroke="white" stroke-width="1.5" d="M0,-3.0v7 M-2.5,-0.5L0,-3.0L2.5,-0.5"/>
                </g>
                <g id="arrowLeft" xlink:href="#dirArrow" transform="rotate(270) translate(-36 17)" onmousedown="handlePan(-1,0)">
                  <use xlink:href="#rim" fill="#404040">
                        <set attributeName="fill" to="#808080" begin="arrowLeft.mouseover" end="arrowLeft.mouseout"/>
                  </use>
                  <path fill="none" stroke="white" stroke-width="1.5" d="M0,-3.0v7 M-2.5,-0.5L0,-3.0L2.5,-0.5"/>
                </g>
        </g>
        <svg viewBox="0 0 15 15" width="100%" height="30px" preserveAspectRatio="xMaxYMin meet">
         <g id="arrow_out" transform="scale(0.3 0.3)">
          <a xlink:href="mxml_8c_a4b4f0fef6a18999e79e85a0bff15f122_icgraph_org.svg" target="_base">
           <rect id="button" ry="5" rx="5" y="6" x="6" height="38" width="38"
                fill="#f2f5e9" fill-opacity="0.5" stroke="#606060" stroke-width="1.0"/>
           <path id="arrow"
             d="M 11.500037,31.436501 C 11.940474,20.09759 22.043105,11.32322 32.158766,21.979434 L 37.068811,17.246167 C 37.068811,17.246167 37.088388,32 37.088388,32 L 22.160133,31.978069 C 22.160133,31.978069 26.997745,27.140456 26.997745,27.140456 C 18.528582,18.264221 13.291696,25.230495 11.500037,31.436501 z"
             style="fill:#404040;"/>
          </a>
         </g>
        </svg>
</svg>
