<?xml version="1.0" encoding="UTF-8" standalone="no"?>
<!DOCTYPE svg PUBLIC "-//W3C//DTD SVG 1.1//EN"
 "http://www.w3.org/Graphics/SVG/1.1/DTD/svg11.dtd">
<!-- Generated by graphviz version 2.36.0 (20140111.2315)
 -->
<!-- Title: mxml_decode Pages: 1 -->
<svg width="536pt" height="66pt"
 viewBox="0.00 0.00 536.00 66.00" xmlns="http://www.w3.org/2000/svg" xmlns:xlink="http://www.w3.org/1999/xlink">
<g id="graph0" class="graph" transform="scale(1 1) rotate(0) translate(4 62)">
<title>mxml_decode</title>
<polygon fill="white" stroke="none" points="-4,4 -4,-62 532,-62 532,4 -4,4"/>
<!-- Node1 -->
<g id="node1" class="node"><title>Node1</title>
<polygon fill="#bfbfbf" stroke="black" points="0.5,-19.5 0.5,-38.5 77.5,-38.5 77.5,-19.5 0.5,-19.5"/>
<text text-anchor="middle" x="39" y="-26.5" font-family="Helvetica,sans-Serif" font-size="10.00">mxml_decode</text>
</g>
<!-- Node2 -->
<g id="node2" class="node"><title>Node2</title>
<g id="a_node2"><a xlink:href="mxml_8c.xhtml#a5ef2edd4f9e5fb7946c0150c3be731b5" target="_top" xlink:title="mxml_parse_buffer">
<polygon fill="white" stroke="black" points="114,-38.5 114,-57.5 214,-57.5 214,-38.5 114,-38.5"/>
<text text-anchor="middle" x="164" y="-45.5" font-family="Helvetica,sans-Serif" font-size="10.00">mxml_parse_buffer</text>
</a>
</g>
</g>
<!-- Node1&#45;&gt;Node2 -->
<g id="edge1" class="edge"><title>Node1&#45;&gt;Node2</title>
<path fill="none" stroke="midnightblue" d="M87.4961,-36.3368C96.1395,-37.672 105.173,-39.0673 113.862,-40.4096"/>
<polygon fill="midnightblue" stroke="midnightblue" points="87.9895,-32.8716 77.5724,-34.8039 86.9208,-39.7895 87.9895,-32.8716"/>
</g>
<!-- Node5 -->
<g id="node5" class="node"><title>Node5</title>
<g id="a_node5"><a xlink:href="mxml_8c.xhtml#a9c1dde43a12f9e8383227dd5f79bf91d" target="_top" xlink:title="mxml_parse_entity">
<polygon fill="white" stroke="black" points="114.5,-0.5 114.5,-19.5 213.5,-19.5 213.5,-0.5 114.5,-0.5"/>
<text text-anchor="middle" x="164" y="-7.5" font-family="Helvetica,sans-Serif" font-size="10.00">mxml_parse_entity</text>
</a>
</g>
</g>
<!-- Node1&#45;&gt;Node5 -->
<g id="edge4" class="edge"><title>Node1&#45;&gt;Node5</title>
<path fill="none" stroke="midnightblue" d="M87.6214,-21.6439C96.3753,-20.2916 105.525,-18.8782 114.31,-17.5212"/>
<polygon fill="midnightblue" stroke="midnightblue" points="86.9208,-18.2105 77.5724,-23.1961 87.9895,-25.1284 86.9208,-18.2105"/>
</g>
<!-- Node3 -->
<g id="node3" class="node"><title>Node3</title>
<g id="a_node3"><a xlink:href="mxml_8c.xhtml#a0ebae029488c0bca9001b86916abe5ca" target="_top" xlink:title="mxml_parse_file">
<polygon fill="white" stroke="black" points="250,-19.5 250,-38.5 338,-38.5 338,-19.5 250,-19.5"/>
<text text-anchor="middle" x="294" y="-26.5" font-family="Helvetica,sans-Serif" font-size="10.00">mxml_parse_file</text>
</a>
</g>
</g>
<!-- Node2&#45;&gt;Node3 -->
<g id="edge2" class="edge"><title>Node2&#45;&gt;Node3</title>
<path fill="none" stroke="midnightblue" d="M224.126,-39.2235C232.726,-37.9469 241.444,-36.6529 249.654,-35.4342"/>
<polygon fill="midnightblue" stroke="midnightblue" points="223.5,-35.778 214.122,-40.7084 224.528,-42.7021 223.5,-35.778"/>
</g>
<!-- Node4 -->
<g id="node4" class="node"><title>Node4</title>
<g id="a_node4"><a xlink:href="class_d_r_s_board.xhtml#af9f7718b667109421094ec226224b012" target="_top" xlink:title="DRSBoard::GetTimeCalibration">
<polygon fill="white" stroke="black" points="374,-19.5 374,-38.5 528,-38.5 528,-19.5 374,-19.5"/>
<text text-anchor="middle" x="451" y="-26.5" font-family="Helvetica,sans-Serif" font-size="10.00">DRSBoard::GetTimeCalibration</text>
</a>
</g>
</g>
<!-- Node3&#45;&gt;Node4 -->
<g id="edge3" class="edge"><title>Node3&#45;&gt;Node4</title>
<path fill="none" stroke="midnightblue" d="M348.348,-29C356.575,-29 365.204,-29 373.813,-29"/>
<polygon fill="midnightblue" stroke="midnightblue" points="348.176,-25.5001 338.176,-29 348.176,-32.5001 348.176,-25.5001"/>
</g>
<!-- Node5&#45;&gt;Node3 -->
<g id="edge5" class="edge"><title>Node5&#45;&gt;Node3</title>
<path fill="none" stroke="midnightblue" d="M223.908,-18.7442C232.639,-20.0402 241.497,-21.355 249.827,-22.5915"/>
<polygon fill="midnightblue" stroke="midnightblue" points="224.162,-15.2436 213.756,-17.2373 223.134,-22.1677 224.162,-15.2436"/>
</g>
</g>
</svg>
