<?xml version="1.0" encoding="UTF-8" standalone="no"?>
<!DOCTYPE svg PUBLIC "-//W3C//DTD SVG 1.1//EN"
 "http://www.w3.org/Graphics/SVG/1.1/DTD/svg11.dtd">
<!-- Generated by graphviz version 2.36.0 (20140111.2315)
 -->
<!-- Title: mxml_replace_subvalue Pages: 1 -->
<svg width="408pt" height="66pt"
 viewBox="0.00 0.00 408.00 66.00" xmlns="http://www.w3.org/2000/svg" xmlns:xlink="http://www.w3.org/1999/xlink">
<g id="graph0" class="graph" transform="scale(1 1) rotate(0) translate(4 62)">
<title>mxml_replace_subvalue</title>
<polygon fill="white" stroke="none" points="-4,4 -4,-62 404,-62 404,4 -4,4"/>
<!-- Node1 -->
<g id="node1" class="node"><title>Node1</title>
<polygon fill="#bfbfbf" stroke="black" points="0,-19.5 0,-38.5 122,-38.5 122,-19.5 0,-19.5"/>
<text text-anchor="middle" x="61" y="-26.5" font-family="Helvetica,sans-Serif" font-size="10.00">mxml_replace_subvalue</text>
</g>
<!-- Node2 -->
<g id="node2" class="node"><title>Node2</title>
<g id="a_node2"><a xlink:href="mxml_8c.xhtml#a57419c0dff3ac219083666a963cbc65d" target="_top" xlink:title="mxml_replace_node_value">
<polygon fill="white" stroke="black" points="158,-19.5 158,-38.5 290,-38.5 290,-19.5 158,-19.5"/>
<text text-anchor="middle" x="224" y="-26.5" font-family="Helvetica,sans-Serif" font-size="10.00">mxml_replace_node_value</text>
</a>
</g>
</g>
<!-- Node1&#45;&gt;Node2 -->
<g id="edge1" class="edge"><title>Node1&#45;&gt;Node2</title>
<path fill="none" stroke="midnightblue" d="M122.409,-29C130.655,-29 139.202,-29 147.673,-29"/>
<polygon fill="midnightblue" stroke="midnightblue" points="147.941,-32.5001 157.941,-29 147.941,-25.5001 147.941,-32.5001"/>
</g>
<!-- Node3 -->
<g id="node3" class="node"><title>Node3</title>
<g id="a_node3"><a xlink:href="mxml_8c.xhtml#a4b4f0fef6a18999e79e85a0bff15f122" target="_top" xlink:title="mxml_malloc">
<polygon fill="white" stroke="black" points="326,-38.5 326,-57.5 400,-57.5 400,-38.5 326,-38.5"/>
<text text-anchor="middle" x="363" y="-45.5" font-family="Helvetica,sans-Serif" font-size="10.00">mxml_malloc</text>
</a>
</g>
</g>
<!-- Node2&#45;&gt;Node3 -->
<g id="edge2" class="edge"><title>Node2&#45;&gt;Node3</title>
<path fill="none" stroke="midnightblue" d="M290.29,-38.0548C298.916,-39.2511 307.609,-40.4567 315.822,-41.5957"/>
<polygon fill="midnightblue" stroke="midnightblue" points="315.54,-45.0901 325.926,-42.9971 316.502,-38.1565 315.54,-45.0901"/>
</g>
<!-- Node4 -->
<g id="node4" class="node"><title>Node4</title>
<g id="a_node4"><a xlink:href="mxml_8c.xhtml#a2bbe1e8a7d3c830714bdfa50d3658ef8" target="_top" xlink:title="mxml_realloc">
<polygon fill="white" stroke="black" points="326,-0.5 326,-19.5 400,-19.5 400,-0.5 326,-0.5"/>
<text text-anchor="middle" x="363" y="-7.5" font-family="Helvetica,sans-Serif" font-size="10.00">mxml_realloc</text>
</a>
</g>
</g>
<!-- Node2&#45;&gt;Node4 -->
<g id="edge3" class="edge"><title>Node2&#45;&gt;Node4</title>
<path fill="none" stroke="midnightblue" d="M290.29,-19.9452C298.916,-18.7489 307.609,-17.5433 315.822,-16.4043"/>
<polygon fill="midnightblue" stroke="midnightblue" points="316.502,-19.8435 325.926,-15.0029 315.54,-12.9099 316.502,-19.8435"/>
</g>
</g>
</svg>
