<?xml version="1.0" encoding="UTF-8" standalone="no"?>
<!DOCTYPE svg PUBLIC "-//W3C//DTD SVG 1.1//EN"
 "http://www.w3.org/Graphics/SVG/1.1/DTD/svg11.dtd">
<!-- Generated by graphviz version 2.36.0 (20140111.2315)
 -->
<!-- Title: mxml_parse_file Pages: 1 -->
<!--zoomable 530 -->
<svg id="main" version="1.1" xmlns="http://www.w3.org/2000/svg" xmlns:xlink="http://www.w3.org/1999/xlink" xml:space="preserve" onload="init(evt)">
<style type="text/css"><![CDATA[
.edge:hover path { stroke: red; }
.edge:hover polygon { stroke: red; fill: red; }
]]></style>
<script type="text/javascript"><![CDATA[
var edges = document.getElementsByTagName('g');
if (edges && edges.length) {
  for (var i=0;i<edges.length;i++) {
    if (edges[i].id.substr(0,4)=='edge') {
      edges[i].setAttribute('class','edge');
    }
  }
}
]]></script>
        <defs>
                <circle id="rim" cx="0" cy="0" r="7"/>
                <circle id="rim2" cx="0" cy="0" r="3.5"/>
                <g id="zoomPlus">
                        <use xlink:href="#rim" fill="#404040">
                                <set attributeName="fill" to="#808080" begin="zoomplus.mouseover" end="zoomplus.mouseout"/>
                        </use>
                        <path d="M-4,0h8M0,-4v8" fill="none" stroke="white" stroke-width="1.5" pointer-events="none"/>
                </g>
                <g id="zoomMin">
                        <use xlink:href="#rim" fill="#404040">
                                <set attributeName="fill" to="#808080" begin="zoomminus.mouseover" end="zoomminus.mouseout"/>
                        </use>
                        <path d="M-4,0h8" fill="none" stroke="white" stroke-width="1.5" pointer-events="none"/>
                </g>
                <g id="dirArrow">
                        <path fill="none" stroke="white" stroke-width="1.5" d="M0,-3.0v7 M-2.5,-0.5L0,-3.0L2.5,-0.5"/>
                </g>
               <g id="resetDef">
                       <use xlink:href="#rim2" fill="#404040">
                               <set attributeName="fill" to="#808080" begin="reset.mouseover" end="reset.mouseout"/>
                       </use>
               </g>
        </defs>

<script type="text/javascript">
var viewWidth = 676;
var viewHeight = 530;
var sectionId = 'dynsection-39';
</script>
<script xlink:href="svgpan.js"/>
<svg id="graph" class="graph">
<g id="viewport">
<title>mxml_parse_file</title>
<polygon fill="white" stroke="none" points="-4,4 -4,-525.948 672,-525.948 672,4 -4,4"/>
<!-- Node1 -->
<g id="node1" class="node"><title>Node1</title>
<polygon fill="#bfbfbf" stroke="black" points="0,-142.863 0,-161.863 88,-161.863 88,-142.863 0,-142.863"/>
<text text-anchor="middle" x="44" y="-149.863" font-family="Helvetica,sans-Serif" font-size="10.00">mxml_parse_file</text>
</g>
<!-- Node2 -->
<g id="node2" class="node"><title>Node2</title>
<g id="a_node2"><a xlink:href="mxml_8c.xhtml#abca607b102fe0f2c063f39eb0259994c" target="_top" xlink:title="mxml_free">
<polygon fill="white" stroke="black" points="600,-133.863 600,-152.863 662,-152.863 662,-133.863 600,-133.863"/>
<text text-anchor="middle" x="631" y="-140.863" font-family="Helvetica,sans-Serif" font-size="10.00">mxml_free</text>
</a>
</g>
</g>
<!-- Node1&#45;&gt;Node2 -->
<g id="edge1" class="edge"><title>Node1&#45;&gt;Node2</title>
<path fill="none" stroke="midnightblue" d="M48.4668,-142.654C57.1285,-120.018 82.0811,-63.8809 124,-40.3626 176.83,-10.7227 199.47,-33.742 260,-31.3626 392.345,-26.1601 442.005,34.5703 558,-29.3626 594.577,-49.5228 615.143,-96.9554 624.248,-123.853"/>
<polygon fill="midnightblue" stroke="midnightblue" points="621.006,-125.207 627.371,-133.677 627.677,-123.086 621.006,-125.207"/>
</g>
<!-- Node3 -->
<g id="node3" class="node"><title>Node3</title>
<g id="a_node3"><a xlink:href="mxml_8c.xhtml#a4b4f0fef6a18999e79e85a0bff15f122" target="_top" xlink:title="mxml_malloc">
<polygon fill="white" stroke="black" points="594,-399.863 594,-418.863 668,-418.863 668,-399.863 594,-399.863"/>
<text text-anchor="middle" x="631" y="-406.863" font-family="Helvetica,sans-Serif" font-size="10.00">mxml_malloc</text>
</a>
</g>
</g>
<!-- Node1&#45;&gt;Node3 -->
<g id="edge2" class="edge"><title>Node1&#45;&gt;Node3</title>
<path fill="none" stroke="midnightblue" d="M46.0991,-161.912C50.4207,-195.992 68.8086,-313.687 124,-390.363 168.139,-451.684 188.322,-468.47 260,-492.363 385.786,-534.291 437.053,-532.695 558,-478.363 582.785,-467.229 604.24,-443.815 617.134,-427.361"/>
<polygon fill="midnightblue" stroke="midnightblue" points="620.166,-429.153 623.383,-419.058 614.573,-424.943 620.166,-429.153"/>
</g>
<!-- Node4 -->
<g id="node4" class="node"><title>Node4</title>
<g id="a_node4"><a xlink:href="mxml_8c.xhtml#a5ef2edd4f9e5fb7946c0150c3be731b5" target="_top" xlink:title="mxml_parse_buffer">
<polygon fill="white" stroke="black" points="124,-361.863 124,-380.863 224,-380.863 224,-361.863 124,-361.863"/>
<text text-anchor="middle" x="174" y="-368.863" font-family="Helvetica,sans-Serif" font-size="10.00">mxml_parse_buffer</text>
</a>
</g>
</g>
<!-- Node1&#45;&gt;Node4 -->
<g id="edge3" class="edge"><title>Node1&#45;&gt;Node4</title>
<path fill="none" stroke="midnightblue" d="M50.6652,-162.055C70.3667,-195.763 136.111,-308.248 162.199,-352.882"/>
<polygon fill="midnightblue" stroke="midnightblue" points="159.332,-354.914 167.4,-361.782 165.376,-351.382 159.332,-354.914"/>
</g>
<!-- Node7 -->
<g id="node7" class="node"><title>Node7</title>
<g id="a_node7"><a xlink:href="strlcpy_8h.xhtml#af8c865b1f481801d8d1f0a8644be4bbc" target="_top" xlink:title="strlcpy">
<polygon fill="white" stroke="black" points="608,-247.863 608,-266.863 654,-266.863 654,-247.863 608,-247.863"/>
<text text-anchor="middle" x="631" y="-254.863" font-family="Helvetica,sans-Serif" font-size="10.00">strlcpy</text>
</a>
</g>
</g>
<!-- Node1&#45;&gt;Node7 -->
<g id="edge34" class="edge"><title>Node1&#45;&gt;Node7</title>
<path fill="none" stroke="midnightblue" d="M72.8696,-142.849C153.922,-116.969 394.176,-53.0679 558,-143.363 594.577,-163.523 615.143,-210.955 624.248,-237.853"/>
<polygon fill="midnightblue" stroke="midnightblue" points="621.006,-239.207 627.371,-247.677 627.677,-237.086 621.006,-239.207"/>
</g>
<!-- Node8 -->
<g id="node8" class="node"><title>Node8</title>
<g id="a_node8"><a xlink:href="strlcpy_8h.xhtml#aa031012870e97fea95c0b78d51b4471b" target="_top" xlink:title="strlcat">
<polygon fill="white" stroke="black" points="467,-38.8626 467,-57.8626 511,-57.8626 511,-38.8626 467,-38.8626"/>
<text text-anchor="middle" x="489" y="-45.8626" font-family="Helvetica,sans-Serif" font-size="10.00">strlcat</text>
</a>
</g>
</g>
<!-- Node1&#45;&gt;Node8 -->
<g id="edge33" class="edge"><title>Node1&#45;&gt;Node8</title>
<path fill="none" stroke="midnightblue" d="M50.9528,-142.784C62.52,-125.153 89.915,-87.9437 124,-72.3626 237.215,-20.6092 391.162,-34.1801 456.55,-43.2727"/>
<polygon fill="midnightblue" stroke="midnightblue" points="456.226,-46.7622 466.625,-44.7376 457.233,-39.835 456.226,-46.7622"/>
</g>
<!-- Node16 -->
<g id="node16" class="node"><title>Node16</title>
<g id="a_node16"><a xlink:href="mxml_8c.xhtml#a9c1dde43a12f9e8383227dd5f79bf91d" target="_top" xlink:title="mxml_parse_entity">
<polygon fill="white" stroke="black" points="124.5,-209.863 124.5,-228.863 223.5,-228.863 223.5,-209.863 124.5,-209.863"/>
<text text-anchor="middle" x="174" y="-216.863" font-family="Helvetica,sans-Serif" font-size="10.00">mxml_parse_entity</text>
</a>
</g>
</g>
<!-- Node1&#45;&gt;Node16 -->
<g id="edge25" class="edge"><title>Node1&#45;&gt;Node16</title>
<path fill="none" stroke="midnightblue" d="M63.3393,-161.962C84.9156,-173.256 120.939,-192.112 145.777,-205.113"/>
<polygon fill="midnightblue" stroke="midnightblue" points="144.212,-208.244 154.695,-209.781 147.458,-202.043 144.212,-208.244"/>
</g>
<!-- Node4&#45;&gt;Node3 -->
<g id="edge17" class="edge"><title>Node4&#45;&gt;Node3</title>
<path fill="none" stroke="midnightblue" d="M179.73,-380.912C190.566,-401.556 219.417,-449.965 260,-468.363 379.22,-522.408 539.635,-455.03 602.814,-423.728"/>
<polygon fill="midnightblue" stroke="midnightblue" points="604.75,-426.671 612.098,-419.038 601.594,-420.423 604.75,-426.671"/>
</g>
<!-- Node5 -->
<g id="node5" class="node"><title>Node5</title>
<g id="a_node5"><a xlink:href="mxml_8c.xhtml#a9527b7a643d61316ef74abf5bdc713d9" target="_top" xlink:title="mxml_create_root_node">
<polygon fill="white" stroke="black" points="261.5,-342.863 261.5,-361.863 382.5,-361.863 382.5,-342.863 261.5,-342.863"/>
<text text-anchor="middle" x="322" y="-349.863" font-family="Helvetica,sans-Serif" font-size="10.00">mxml_create_root_node</text>
</a>
</g>
</g>
<!-- Node4&#45;&gt;Node5 -->
<g id="edge4" class="edge"><title>Node4&#45;&gt;Node5</title>
<path fill="none" stroke="midnightblue" d="M224.022,-364.983C232.843,-363.835 242.19,-362.619 251.462,-361.412"/>
<polygon fill="midnightblue" stroke="midnightblue" points="252.001,-364.872 261.466,-360.11 251.098,-357.93 252.001,-364.872"/>
</g>
<!-- Node6 -->
<g id="node6" class="node"><title>Node6</title>
<g id="a_node6"><a xlink:href="mxml_8c.xhtml#a7a11f9a05fffb677a2d8d189f4b3f370" target="_top" xlink:title="read_error">
<polygon fill="white" stroke="black" points="292,-190.863 292,-209.863 352,-209.863 352,-190.863 292,-190.863"/>
<text text-anchor="middle" x="322" y="-197.863" font-family="Helvetica,sans-Serif" font-size="10.00">read_error</text>
</a>
</g>
</g>
<!-- Node4&#45;&gt;Node6 -->
<g id="edge5" class="edge"><title>Node4&#45;&gt;Node6</title>
<path fill="none" stroke="midnightblue" d="M183.268,-361.679C207.058,-333.815 275.919,-253.163 306.301,-217.579"/>
<polygon fill="midnightblue" stroke="midnightblue" points="308.991,-219.818 312.823,-209.94 303.668,-215.273 308.991,-219.818"/>
</g>
<!-- Node10 -->
<g id="node10" class="node"><title>Node10</title>
<g id="a_node10"><a xlink:href="mxml_8c.xhtml#a0eed7fed4f2f71e211cf85105b4b007c" target="_top" xlink:title="mxml_add_special_node">
<polygon fill="white" stroke="black" points="260,-380.863 260,-399.863 384,-399.863 384,-380.863 260,-380.863"/>
<text text-anchor="middle" x="322" y="-387.863" font-family="Helvetica,sans-Serif" font-size="10.00">mxml_add_special_node</text>
</a>
</g>
</g>
<!-- Node4&#45;&gt;Node10 -->
<g id="edge12" class="edge"><title>Node4&#45;&gt;Node10</title>
<path fill="none" stroke="midnightblue" d="M224.022,-377.742C232.298,-378.819 241.037,-379.957 249.743,-381.089"/>
<polygon fill="midnightblue" stroke="midnightblue" points="249.55,-384.594 259.918,-382.414 250.453,-377.652 249.55,-384.594"/>
</g>
<!-- Node13 -->
<g id="node13" class="node"><title>Node13</title>
<g id="a_node13"><a xlink:href="mxml_8c.xhtml#a7afd3209bc7e21e1d797e49190bf2a58" target="_top" xlink:title="mxml_decode">
<polygon fill="white" stroke="black" points="283.5,-304.863 283.5,-323.863 360.5,-323.863 360.5,-304.863 283.5,-304.863"/>
<text text-anchor="middle" x="322" y="-311.863" font-family="Helvetica,sans-Serif" font-size="10.00">mxml_decode</text>
</a>
</g>
</g>
<!-- Node4&#45;&gt;Node13 -->
<g id="edge18" class="edge"><title>Node4&#45;&gt;Node13</title>
<path fill="none" stroke="midnightblue" d="M194.644,-361.782C211.696,-353.659 237.166,-341.988 260,-333.363 265.856,-331.15 272.095,-328.99 278.263,-326.967"/>
<polygon fill="midnightblue" stroke="midnightblue" points="279.371,-330.287 287.833,-323.911 277.242,-323.619 279.371,-330.287"/>
</g>
<!-- Node14 -->
<g id="node14" class="node"><title>Node14</title>
<g id="a_node14"><a xlink:href="mxml_8c.xhtml#afa83c9bacbedeb26f8dbc2d8e26fdfad" target="_top" xlink:title="mxml_add_node">
<polygon fill="white" stroke="black" points="278,-418.863 278,-437.863 366,-437.863 366,-418.863 278,-418.863"/>
<text text-anchor="middle" x="322" y="-425.863" font-family="Helvetica,sans-Serif" font-size="10.00">mxml_add_node</text>
</a>
</g>
</g>
<!-- Node4&#45;&gt;Node14 -->
<g id="edge19" class="edge"><title>Node4&#45;&gt;Node14</title>
<path fill="none" stroke="midnightblue" d="M194.644,-380.944C211.696,-389.066 237.166,-400.737 260,-409.363 265.856,-411.575 272.095,-413.735 278.263,-415.759"/>
<polygon fill="midnightblue" stroke="midnightblue" points="277.242,-419.107 287.833,-418.814 279.371,-412.438 277.242,-419.107"/>
</g>
<!-- Node15 -->
<g id="node15" class="node"><title>Node15</title>
<g id="a_node15"><a xlink:href="mxml_8c.xhtml#a15f4b76ba97d02c8bc1009a416eb51db" target="_top" xlink:title="mxml_add_attribute">
<polygon fill="white" stroke="black" points="438,-342.863 438,-361.863 540,-361.863 540,-342.863 438,-342.863"/>
<text text-anchor="middle" x="489" y="-349.863" font-family="Helvetica,sans-Serif" font-size="10.00">mxml_add_attribute</text>
</a>
</g>
</g>
<!-- Node4&#45;&gt;Node15 -->
<g id="edge21" class="edge"><title>Node4&#45;&gt;Node15</title>
<path fill="none" stroke="midnightblue" d="M181.825,-380.965C194.747,-398.207 224.678,-433.874 260,-447.363 311.485,-467.023 332.62,-467.297 384,-447.363 423.851,-431.901 457.768,-393.263 475.275,-370.307"/>
<polygon fill="midnightblue" stroke="midnightblue" points="478.224,-372.207 481.355,-362.085 472.595,-368.045 478.224,-372.207"/>
</g>
<!-- Node6&#45;&gt;Node2 -->
<g id="edge9" class="edge"><title>Node6&#45;&gt;Node2</title>
<path fill="none" stroke="midnightblue" d="M352.253,-201.724C397.384,-203.003 486.274,-202.232 558,-181.363 575.532,-176.261 593.705,-166.632 607.407,-158.343"/>
<polygon fill="midnightblue" stroke="midnightblue" points="609.497,-161.164 616.116,-152.891 605.783,-155.23 609.497,-161.164"/>
</g>
<!-- Node6&#45;&gt;Node3 -->
<g id="edge6" class="edge"><title>Node6&#45;&gt;Node3</title>
<path fill="none" stroke="midnightblue" d="M335.474,-210.031C349.167,-221.251 370.938,-240.969 384,-262.363 410.585,-305.907 381.49,-337.898 420,-371.363 465.11,-410.562 536.745,-415.45 583.57,-413.702"/>
<polygon fill="midnightblue" stroke="midnightblue" points="583.929,-417.189 593.746,-413.204 583.587,-410.197 583.929,-417.189"/>
</g>
<!-- Node6&#45;&gt;Node7 -->
<g id="edge7" class="edge"><title>Node6&#45;&gt;Node7</title>
<path fill="none" stroke="midnightblue" d="M352.159,-205.776C409.766,-216.472 537.774,-240.239 597.781,-251.381"/>
<polygon fill="midnightblue" stroke="midnightblue" points="597.354,-254.861 607.825,-253.245 598.632,-247.979 597.354,-254.861"/>
</g>
<!-- Node6&#45;&gt;Node8 -->
<g id="edge8" class="edge"><title>Node6&#45;&gt;Node8</title>
<path fill="none" stroke="midnightblue" d="M352.249,-195.073C362.889,-192.201 374.6,-187.856 384,-181.363 407.047,-165.441 453.652,-99.1556 475.791,-66.5862"/>
<polygon fill="midnightblue" stroke="midnightblue" points="478.889,-68.2534 481.586,-58.0077 473.088,-64.3352 478.889,-68.2534"/>
</g>
<!-- Node9 -->
<g id="node9" class="node"><title>Node9</title>
<g id="a_node9"><a xlink:href="mxml_8c.xhtml#a028673d16c059e7ee6f012941b0ce54b" target="_top" xlink:title="mxml_free_tree">
<polygon fill="white" stroke="black" points="447,-152.863 447,-171.863 531,-171.863 531,-152.863 447,-152.863"/>
<text text-anchor="middle" x="489" y="-159.863" font-family="Helvetica,sans-Serif" font-size="10.00">mxml_free_tree</text>
</a>
</g>
</g>
<!-- Node6&#45;&gt;Node9 -->
<g id="edge10" class="edge"><title>Node6&#45;&gt;Node9</title>
<path fill="none" stroke="midnightblue" d="M352.119,-193.656C375.52,-188.267 408.962,-180.565 436.813,-174.151"/>
<polygon fill="midnightblue" stroke="midnightblue" points="437.833,-177.508 446.792,-171.853 436.262,-170.686 437.833,-177.508"/>
</g>
<!-- Node9&#45;&gt;Node2 -->
<g id="edge11" class="edge"><title>Node9&#45;&gt;Node2</title>
<path fill="none" stroke="midnightblue" d="M531.247,-156.765C549.673,-154.264 571.315,-151.327 589.635,-148.841"/>
<polygon fill="midnightblue" stroke="midnightblue" points="590.27,-152.287 599.708,-147.474 589.328,-145.35 590.27,-152.287"/>
</g>
<!-- Node11 -->
<g id="node11" class="node"><title>Node11</title>
<g id="a_node11"><a xlink:href="mxml_8c.xhtml#ad030ed9e4ac1bdcf7cda84301f87aa04" target="_top" xlink:title="mxml_add_special_node_at">
<polygon fill="white" stroke="black" points="420.5,-304.863 420.5,-323.863 557.5,-323.863 557.5,-304.863 420.5,-304.863"/>
<text text-anchor="middle" x="489" y="-311.863" font-family="Helvetica,sans-Serif" font-size="10.00">mxml_add_special_node_at</text>
</a>
</g>
</g>
<!-- Node10&#45;&gt;Node11 -->
<g id="edge13" class="edge"><title>Node10&#45;&gt;Node11</title>
<path fill="none" stroke="midnightblue" d="M363.98,-380.782C370.936,-378.277 377.881,-375.175 384,-371.363 403.746,-359.06 400.075,-345.372 420,-333.363 423.602,-331.191 427.46,-329.261 431.441,-327.546"/>
<polygon fill="midnightblue" stroke="midnightblue" points="432.806,-330.771 440.89,-323.922 430.299,-324.235 432.806,-330.771"/>
</g>
<!-- Node11&#45;&gt;Node3 -->
<g id="edge14" class="edge"><title>Node11&#45;&gt;Node3</title>
<path fill="none" stroke="midnightblue" d="M537.11,-323.922C544.383,-326.403 551.596,-329.503 558,-333.363 582.921,-348.384 604.83,-374.34 617.749,-391.679"/>
<polygon fill="midnightblue" stroke="midnightblue" points="614.962,-393.799 623.653,-399.858 620.637,-389.701 614.962,-393.799"/>
</g>
<!-- Node11&#45;&gt;Node7 -->
<g id="edge16" class="edge"><title>Node11&#45;&gt;Node7</title>
<path fill="none" stroke="midnightblue" d="M513.433,-304.822C536.763,-295.324 572.722,-280.683 598.531,-270.175"/>
<polygon fill="midnightblue" stroke="midnightblue" points="599.936,-273.382 607.878,-266.369 597.297,-266.899 599.936,-273.382"/>
</g>
<!-- Node12 -->
<g id="node12" class="node"><title>Node12</title>
<g id="a_node12"><a xlink:href="mxml_8c.xhtml#a2bbe1e8a7d3c830714bdfa50d3658ef8" target="_top" xlink:title="mxml_realloc">
<polygon fill="white" stroke="black" points="594,-304.863 594,-323.863 668,-323.863 668,-304.863 594,-304.863"/>
<text text-anchor="middle" x="631" y="-311.863" font-family="Helvetica,sans-Serif" font-size="10.00">mxml_realloc</text>
</a>
</g>
</g>
<!-- Node11&#45;&gt;Node12 -->
<g id="edge15" class="edge"><title>Node11&#45;&gt;Node12</title>
<path fill="none" stroke="midnightblue" d="M557.54,-314.363C566.487,-314.363 575.489,-314.363 583.959,-314.363"/>
<polygon fill="midnightblue" stroke="midnightblue" points="583.986,-317.863 593.986,-314.363 583.986,-310.863 583.986,-317.863"/>
</g>
<!-- Node14&#45;&gt;Node11 -->
<g id="edge20" class="edge"><title>Node14&#45;&gt;Node11</title>
<path fill="none" stroke="midnightblue" d="M366.054,-419.936C372.553,-417.312 378.808,-413.872 384,-409.363 412.218,-384.853 391.424,-357.453 420,-333.363 422.009,-331.669 424.158,-330.126 426.411,-328.719"/>
<polygon fill="midnightblue" stroke="midnightblue" points="428.291,-331.686 435.527,-323.947 425.045,-325.484 428.291,-331.686"/>
</g>
<!-- Node15&#45;&gt;Node3 -->
<g id="edge22" class="edge"><title>Node15&#45;&gt;Node3</title>
<path fill="none" stroke="midnightblue" d="M519.002,-361.951C531.145,-366.133 545.35,-371.244 558,-376.363 572.322,-382.158 587.941,-389.223 600.961,-395.327"/>
<polygon fill="midnightblue" stroke="midnightblue" points="599.81,-398.655 610.346,-399.771 602.805,-392.328 599.81,-398.655"/>
</g>
<!-- Node15&#45;&gt;Node7 -->
<g id="edge24" class="edge"><title>Node15&#45;&gt;Node7</title>
<path fill="none" stroke="midnightblue" d="M537.11,-342.804C544.383,-340.322 551.596,-337.223 558,-333.363 558.108,-333.298 592.577,-296.895 613.777,-274.501"/>
<polygon fill="midnightblue" stroke="midnightblue" points="616.566,-276.646 620.899,-266.977 611.483,-271.833 616.566,-276.646"/>
</g>
<!-- Node15&#45;&gt;Node12 -->
<g id="edge23" class="edge"><title>Node15&#45;&gt;Node12</title>
<path fill="none" stroke="midnightblue" d="M525.328,-342.774C543.401,-337.868 565.598,-331.843 584.895,-326.606"/>
<polygon fill="midnightblue" stroke="midnightblue" points="585.949,-329.946 594.683,-323.949 584.116,-323.19 585.949,-329.946"/>
</g>
<!-- Node16&#45;&gt;Node2 -->
<g id="edge31" class="edge"><title>Node16&#45;&gt;Node2</title>
<path fill="none" stroke="midnightblue" d="M181.825,-209.761C194.747,-192.518 224.678,-156.851 260,-143.363 373.017,-100.205 519.996,-120.547 589.801,-134.316"/>
<polygon fill="midnightblue" stroke="midnightblue" points="589.429,-137.812 599.926,-136.376 590.824,-130.953 589.429,-137.812"/>
</g>
<!-- Node16&#45;&gt;Node3 -->
<g id="edge28" class="edge"><title>Node16&#45;&gt;Node3</title>
<path fill="none" stroke="midnightblue" d="M193.209,-228.957C210.18,-237.65 236.352,-250.429 260,-259.363 313.684,-279.643 342.796,-255.419 384,-295.363 421.238,-331.461 378.269,-375.568 420,-406.363 469.233,-442.693 544.155,-432.683 589.933,-421.475"/>
<polygon fill="midnightblue" stroke="midnightblue" points="590.987,-424.818 599.795,-418.931 589.238,-418.039 590.987,-424.818"/>
</g>
<!-- Node16&#45;&gt;Node5 -->
<g id="edge26" class="edge"><title>Node16&#45;&gt;Node5</title>
<path fill="none" stroke="midnightblue" d="M179.476,-228.917C190.197,-250.765 219.5,-304.691 260,-333.363 262.716,-335.285 265.633,-337.018 268.667,-338.58"/>
<polygon fill="midnightblue" stroke="midnightblue" points="267.476,-341.881 278.034,-342.767 270.333,-335.491 267.476,-341.881"/>
</g>
<!-- Node16&#45;&gt;Node6 -->
<g id="edge29" class="edge"><title>Node16&#45;&gt;Node6</title>
<path fill="none" stroke="midnightblue" d="M223.616,-213.036C242.477,-210.581 263.792,-207.808 281.661,-205.482"/>
<polygon fill="midnightblue" stroke="midnightblue" points="282.275,-208.932 291.74,-204.17 281.372,-201.99 282.275,-208.932"/>
</g>
<!-- Node16&#45;&gt;Node12 -->
<g id="edge32" class="edge"><title>Node16&#45;&gt;Node12</title>
<path fill="none" stroke="midnightblue" d="M223.574,-228.001C296.49,-241.194 438.447,-267.755 558,-295.363 567.065,-297.456 576.724,-299.874 585.926,-302.269"/>
<polygon fill="midnightblue" stroke="midnightblue" points="585.12,-305.676 595.682,-304.842 586.905,-298.907 585.12,-305.676"/>
</g>
<!-- Node16&#45;&gt;Node13 -->
<g id="edge30" class="edge"><title>Node16&#45;&gt;Node13</title>
<path fill="none" stroke="midnightblue" d="M184.656,-229.255C199.638,-244.156 229.902,-272.51 260,-290.363 266.813,-294.404 274.432,-298.022 281.913,-301.148"/>
<polygon fill="midnightblue" stroke="midnightblue" points="280.66,-304.416 291.246,-304.84 283.234,-297.907 280.66,-304.416"/>
</g>
<!-- Node17 -->
<g id="node17" class="node"><title>Node17</title>
<g id="a_node17"><a xlink:href="mxml_8c.xhtml#a3e179d427c1fac226fff12d8ae75fd63" target="_top" xlink:title="mxml_dirname">
<polygon fill="white" stroke="black" points="282,-152.863 282,-171.863 362,-171.863 362,-152.863 282,-152.863"/>
<text text-anchor="middle" x="322" y="-159.863" font-family="Helvetica,sans-Serif" font-size="10.00">mxml_dirname</text>
</a>
</g>
</g>
<!-- Node16&#45;&gt;Node17 -->
<g id="edge27" class="edge"><title>Node16&#45;&gt;Node17</title>
<path fill="none" stroke="midnightblue" d="M194.644,-209.782C211.696,-201.659 237.166,-189.988 260,-181.363 265.856,-179.15 272.095,-176.99 278.263,-174.967"/>
<polygon fill="midnightblue" stroke="midnightblue" points="279.371,-178.287 287.833,-171.911 277.242,-171.619 279.371,-178.287"/>
</g>
</g>
</svg>
        <g id="navigator" transform="translate(0 0)" fill="#404254">
                <rect fill="#f2f5e9" fill-opacity="0.5" stroke="#606060" stroke-width=".5" x="0" y="0" width="60" height="60"/>
                <use id="zoomplus" xlink:href="#zoomPlus" x="17" y="9" onmousedown="handleZoom(evt,'in')"/>
                <use id="zoomminus" xlink:href="#zoomMin" x="42" y="9" onmousedown="handleZoom(evt,'out')"/>
                <use id="reset" xlink:href="#resetDef" x="30" y="36" onmousedown="handleReset()"/>
                <g id="arrowUp" xlink:href="#dirArrow" transform="translate(30 24)" onmousedown="handlePan(0,-1)">
                  <use xlink:href="#rim" fill="#404040">
                        <set attributeName="fill" to="#808080" begin="arrowUp.mouseover" end="arrowUp.mouseout"/>
                  </use>
                  <path fill="none" stroke="white" stroke-width="1.5" d="M0,-3.0v7 M-2.5,-0.5L0,-3.0L2.5,-0.5"/>
                </g>
                <g id="arrowRight" xlink:href="#dirArrow" transform="rotate(90) translate(36 -43)" onmousedown="handlePan(1,0)">
                  <use xlink:href="#rim" fill="#404040">
                        <set attributeName="fill" to="#808080" begin="arrowRight.mouseover" end="arrowRight.mouseout"/>
                  </use>
                  <path fill="none" stroke="white" stroke-width="1.5" d="M0,-3.0v7 M-2.5,-0.5L0,-3.0L2.5,-0.5"/>
                </g>
                <g id="arrowDown" xlink:href="#dirArrow" transform="rotate(180) translate(-30 -48)" onmousedown="handlePan(0,1)">
                  <use xlink:href="#rim" fill="#404040">
                        <set attributeName="fill" to="#808080" begin="arrowDown.mouseover" end="arrowDown.mouseout"/>
                  </use>
                  <path fill="none" stroke="white" stroke-width="1.5" d="M0,-3.0v7 M-2.5,-0.5L0,-3.0L2.5,-0.5"/>
                </g>
                <g id="arrowLeft" xlink:href="#dirArrow" transform="rotate(270) translate(-36 17)" onmousedown="handlePan(-1,0)">
                  <use xlink:href="#rim" fill="#404040">
                        <set attributeName="fill" to="#808080" begin="arrowLeft.mouseover" end="arrowLeft.mouseout"/>
                  </use>
                  <path fill="none" stroke="white" stroke-width="1.5" d="M0,-3.0v7 M-2.5,-0.5L0,-3.0L2.5,-0.5"/>
                </g>
        </g>
        <svg viewBox="0 0 15 15" width="100%" height="30px" preserveAspectRatio="xMaxYMin meet">
         <g id="arrow_out" transform="scale(0.3 0.3)">
          <a xlink:href="mxml_8h_a0ebae029488c0bca9001b86916abe5ca_cgraph_org.svg" target="_base">
           <rect id="button" ry="5" rx="5" y="6" x="6" height="38" width="38"
                fill="#f2f5e9" fill-opacity="0.5" stroke="#606060" stroke-width="1.0"/>
           <path id="arrow"
             d="M 11.500037,31.436501 C 11.940474,20.09759 22.043105,11.32322 32.158766,21.979434 L 37.068811,17.246167 C 37.068811,17.246167 37.088388,32 37.088388,32 L 22.160133,31.978069 C 22.160133,31.978069 26.997745,27.140456 26.997745,27.140456 C 18.528582,18.264221 13.291696,25.230495 11.500037,31.436501 z"
             style="fill:#404040;"/>
          </a>
         </g>
        </svg>
</svg>
