<?xml version="1.0" encoding="UTF-8" standalone="no"?>
<!DOCTYPE svg PUBLIC "-//W3C//DTD SVG 1.1//EN"
 "http://www.w3.org/Graphics/SVG/1.1/DTD/svg11.dtd">
<!-- Generated by graphviz version 2.36.0 (20140111.2315)
 -->
<!-- Title: mxml_write_attribute Pages: 1 -->
<svg width="464pt" height="142pt"
 viewBox="0.00 0.00 464.00 142.00" xmlns="http://www.w3.org/2000/svg" xmlns:xlink="http://www.w3.org/1999/xlink">
<g id="graph0" class="graph" transform="scale(1 1) rotate(0) translate(4 138)">
<title>mxml_write_attribute</title>
<polygon fill="white" stroke="none" points="-4,4 -4,-138 460,-138 460,4 -4,4"/>
<!-- Node1 -->
<g id="node1" class="node"><title>Node1</title>
<polygon fill="#bfbfbf" stroke="black" points="0.5,-19.5 0.5,-38.5 107.5,-38.5 107.5,-19.5 0.5,-19.5"/>
<text text-anchor="middle" x="54" y="-26.5" font-family="Helvetica,sans-Serif" font-size="10.00">mxml_write_attribute</text>
</g>
<!-- Node2 -->
<g id="node2" class="node"><title>Node2</title>
<g id="a_node2"><a xlink:href="mxml_8c.xhtml#acd5df9d9cc5b5f2f75c06585d7867488" target="_top" xlink:title="mxml_encode">
<polygon fill="white" stroke="black" points="149.5,-38.5 149.5,-57.5 226.5,-57.5 226.5,-38.5 149.5,-38.5"/>
<text text-anchor="middle" x="188" y="-45.5" font-family="Helvetica,sans-Serif" font-size="10.00">mxml_encode</text>
</a>
</g>
</g>
<!-- Node1&#45;&gt;Node2 -->
<g id="edge1" class="edge"><title>Node1&#45;&gt;Node2</title>
<path fill="none" stroke="midnightblue" d="M107.549,-36.5639C118.01,-38.0696 128.942,-39.6431 139.232,-41.1242"/>
<polygon fill="midnightblue" stroke="midnightblue" points="138.87,-44.6082 149.267,-42.5687 139.867,-37.6796 138.87,-44.6082"/>
</g>
<!-- Node8 -->
<g id="node8" class="node"><title>Node8</title>
<g id="a_node8"><a xlink:href="mxml_8c.xhtml#a51b3bd43da7f4331d38ed5593953610a" target="_top" xlink:title="mxml_write_line">
<polygon fill="white" stroke="black" points="144.5,-0.5 144.5,-19.5 231.5,-19.5 231.5,-0.5 144.5,-0.5"/>
<text text-anchor="middle" x="188" y="-7.5" font-family="Helvetica,sans-Serif" font-size="10.00">mxml_write_line</text>
</a>
</g>
</g>
<!-- Node1&#45;&gt;Node8 -->
<g id="edge7" class="edge"><title>Node1&#45;&gt;Node8</title>
<path fill="none" stroke="midnightblue" d="M107.549,-21.4361C116.334,-20.1716 125.451,-18.8594 134.241,-17.5941"/>
<polygon fill="midnightblue" stroke="midnightblue" points="134.97,-21.0253 144.37,-16.1362 133.973,-14.0967 134.97,-21.0253"/>
</g>
<!-- Node3 -->
<g id="node3" class="node"><title>Node3</title>
<g id="a_node3"><a xlink:href="mxml_8c.xhtml#a4b4f0fef6a18999e79e85a0bff15f122" target="_top" xlink:title="mxml_malloc">
<polygon fill="white" stroke="black" points="276,-114.5 276,-133.5 350,-133.5 350,-114.5 276,-114.5"/>
<text text-anchor="middle" x="313" y="-121.5" font-family="Helvetica,sans-Serif" font-size="10.00">mxml_malloc</text>
</a>
</g>
</g>
<!-- Node2&#45;&gt;Node3 -->
<g id="edge2" class="edge"><title>Node2&#45;&gt;Node3</title>
<path fill="none" stroke="midnightblue" d="M200.504,-57.5347C215.423,-69.6027 242.555,-90.5552 268,-105 271.229,-106.833 274.669,-108.604 278.149,-110.28"/>
<polygon fill="midnightblue" stroke="midnightblue" points="276.784,-113.504 287.334,-114.467 279.687,-107.135 276.784,-113.504"/>
</g>
<!-- Node4 -->
<g id="node4" class="node"><title>Node4</title>
<g id="a_node4"><a xlink:href="mxml_8c.xhtml#a2fa2fb9cb281f3461fedf2d47ea81ce1" target="_top" xlink:title="mxml_deallocate">
<polygon fill="white" stroke="black" points="268,-76.5 268,-95.5 358,-95.5 358,-76.5 268,-76.5"/>
<text text-anchor="middle" x="313" y="-83.5" font-family="Helvetica,sans-Serif" font-size="10.00">mxml_deallocate</text>
</a>
</g>
</g>
<!-- Node2&#45;&gt;Node4 -->
<g id="edge3" class="edge"><title>Node2&#45;&gt;Node4</title>
<path fill="none" stroke="midnightblue" d="M220.038,-57.589C235.479,-62.3594 254.348,-68.1888 270.966,-73.3229"/>
<polygon fill="midnightblue" stroke="midnightblue" points="270.384,-76.8063 280.972,-76.4141 272.451,-70.1182 270.384,-76.8063"/>
</g>
<!-- Node6 -->
<g id="node6" class="node"><title>Node6</title>
<g id="a_node6"><a xlink:href="mxml_8c.xhtml#a2bbe1e8a7d3c830714bdfa50d3658ef8" target="_top" xlink:title="mxml_realloc">
<polygon fill="white" stroke="black" points="276,-0.5 276,-19.5 350,-19.5 350,-0.5 276,-0.5"/>
<text text-anchor="middle" x="313" y="-7.5" font-family="Helvetica,sans-Serif" font-size="10.00">mxml_realloc</text>
</a>
</g>
</g>
<!-- Node2&#45;&gt;Node6 -->
<g id="edge5" class="edge"><title>Node2&#45;&gt;Node6</title>
<path fill="none" stroke="midnightblue" d="M220.038,-38.411C235.479,-33.6406 254.348,-27.8112 270.966,-22.6771"/>
<polygon fill="midnightblue" stroke="midnightblue" points="272.451,-25.8818 280.972,-19.5859 270.384,-19.1937 272.451,-25.8818"/>
</g>
<!-- Node7 -->
<g id="node7" class="node"><title>Node7</title>
<g id="a_node7"><a xlink:href="strlcpy_8h.xhtml#af8c865b1f481801d8d1f0a8644be4bbc" target="_top" xlink:title="strlcpy">
<polygon fill="white" stroke="black" points="290,-38.5 290,-57.5 336,-57.5 336,-38.5 290,-38.5"/>
<text text-anchor="middle" x="313" y="-45.5" font-family="Helvetica,sans-Serif" font-size="10.00">strlcpy</text>
</a>
</g>
</g>
<!-- Node2&#45;&gt;Node7 -->
<g id="edge6" class="edge"><title>Node2&#45;&gt;Node7</title>
<path fill="none" stroke="midnightblue" d="M226.572,-48C243.495,-48 263.281,-48 279.548,-48"/>
<polygon fill="midnightblue" stroke="midnightblue" points="279.663,-51.5001 289.663,-48 279.663,-44.5001 279.663,-51.5001"/>
</g>
<!-- Node5 -->
<g id="node5" class="node"><title>Node5</title>
<g id="a_node5"><a xlink:href="mxml_8c.xhtml#abca607b102fe0f2c063f39eb0259994c" target="_top" xlink:title="mxml_free">
<polygon fill="white" stroke="black" points="394,-76.5 394,-95.5 456,-95.5 456,-76.5 394,-76.5"/>
<text text-anchor="middle" x="425" y="-83.5" font-family="Helvetica,sans-Serif" font-size="10.00">mxml_free</text>
</a>
</g>
</g>
<!-- Node4&#45;&gt;Node5 -->
<g id="edge4" class="edge"><title>Node4&#45;&gt;Node5</title>
<path fill="none" stroke="midnightblue" d="M358.107,-86C366.513,-86 375.272,-86 383.556,-86"/>
<polygon fill="midnightblue" stroke="midnightblue" points="383.733,-89.5001 393.733,-86 383.733,-82.5001 383.733,-89.5001"/>
</g>
<!-- Node8&#45;&gt;Node6 -->
<g id="edge8" class="edge"><title>Node8&#45;&gt;Node6</title>
<path fill="none" stroke="midnightblue" d="M231.674,-10C242.724,-10 254.671,-10 265.888,-10"/>
<polygon fill="midnightblue" stroke="midnightblue" points="265.937,-13.5001 275.937,-10 265.937,-6.5001 265.937,-13.5001"/>
</g>
</g>
</svg>
