<?xml version="1.0" encoding="UTF-8" standalone="no"?>
<!DOCTYPE svg PUBLIC "-//W3C//DTD SVG 1.1//EN"
 "http://www.w3.org/Graphics/SVG/1.1/DTD/svg11.dtd">
<!-- Generated by graphviz version 2.36.0 (20140111.2315)
 -->
<!-- Title: mxml_write_line Pages: 1 -->
<svg width="538pt" height="370pt"
 viewBox="0.00 0.00 538.00 370.00" xmlns="http://www.w3.org/2000/svg" xmlns:xlink="http://www.w3.org/1999/xlink">
<g id="graph0" class="graph" transform="scale(1 1) rotate(0) translate(4 366)">
<title>mxml_write_line</title>
<polygon fill="white" stroke="none" points="-4,4 -4,-366 534,-366 534,4 -4,4"/>
<!-- Node1 -->
<g id="node1" class="node"><title>Node1</title>
<polygon fill="#bfbfbf" stroke="black" points="0.5,-171.5 0.5,-190.5 87.5,-190.5 87.5,-171.5 0.5,-171.5"/>
<text text-anchor="middle" x="44" y="-178.5" font-family="Helvetica,sans-Serif" font-size="10.00">mxml_write_line</text>
</g>
<!-- Node2 -->
<g id="node2" class="node"><title>Node2</title>
<g id="a_node2"><a xlink:href="mxml_8c.xhtml#aa17f561601949f624351a45b2b3a7678" target="_top" xlink:title="mxml_close_buffer">
<polygon fill="white" stroke="black" points="283.5,-304.5 283.5,-323.5 382.5,-323.5 382.5,-304.5 283.5,-304.5"/>
<text text-anchor="middle" x="333" y="-311.5" font-family="Helvetica,sans-Serif" font-size="10.00">mxml_close_buffer</text>
</a>
</g>
</g>
<!-- Node1&#45;&gt;Node2 -->
<g id="edge1" class="edge"><title>Node1&#45;&gt;Node2</title>
<path fill="none" stroke="midnightblue" d="M53.9949,-199.727C66.3029,-223.141 90.7199,-262.508 124,-282 172.866,-310.621 238.81,-316.314 283.237,-316.352"/>
<polygon fill="midnightblue" stroke="midnightblue" points="57.1047,-198.12 49.4709,-190.774 50.857,-201.277 57.1047,-198.12"/>
</g>
<!-- Node3 -->
<g id="node3" class="node"><title>Node3</title>
<g id="a_node3"><a xlink:href="mxml_8c.xhtml#a7409705a71ea5d17f3746cd1c49c3b00" target="_top" xlink:title="mxml_close_file">
<polygon fill="white" stroke="black" points="289.5,-266.5 289.5,-285.5 376.5,-285.5 376.5,-266.5 289.5,-266.5"/>
<text text-anchor="middle" x="333" y="-273.5" font-family="Helvetica,sans-Serif" font-size="10.00">mxml_close_file</text>
</a>
</g>
</g>
<!-- Node1&#45;&gt;Node3 -->
<g id="edge2" class="edge"><title>Node1&#45;&gt;Node3</title>
<path fill="none" stroke="midnightblue" d="M57.4593,-198.605C71.388,-216.728 95.7353,-244.086 124,-257 177.101,-281.261 245.68,-282.521 289.265,-280.116"/>
<polygon fill="midnightblue" stroke="midnightblue" points="60.2557,-196.5 51.487,-190.553 54.6336,-200.67 60.2557,-196.5"/>
</g>
<!-- Node5 -->
<g id="node5" class="node"><title>Node5</title>
<g id="a_node5"><a xlink:href="mxml_8c.xhtml#a31efd9013ec552f43c6ff48c46be7a49" target="_top" xlink:title="mxml_end_element">
<polygon fill="white" stroke="black" points="133.5,-228.5 133.5,-247.5 234.5,-247.5 234.5,-228.5 133.5,-228.5"/>
<text text-anchor="middle" x="184" y="-235.5" font-family="Helvetica,sans-Serif" font-size="10.00">mxml_end_element</text>
</a>
</g>
</g>
<!-- Node1&#45;&gt;Node5 -->
<g id="edge4" class="edge"><title>Node1&#45;&gt;Node5</title>
<path fill="none" stroke="midnightblue" d="M72.4201,-195.332C87.432,-202.886 106.492,-212.008 124,-219 132.495,-222.392 141.853,-225.627 150.564,-228.434"/>
<polygon fill="midnightblue" stroke="midnightblue" points="73.6959,-192.054 63.1969,-190.633 70.5179,-198.291 73.6959,-192.054"/>
</g>
<!-- Node8 -->
<g id="node8" class="node"><title>Node8</title>
<g id="a_node8"><a xlink:href="mxml_8c.xhtml#a583d65e147d93c0e1b11fcf7557f3466" target="_top" xlink:title="mxml_open_buffer">
<polygon fill="white" stroke="black" points="135.5,-76.5 135.5,-95.5 232.5,-95.5 232.5,-76.5 135.5,-76.5"/>
<text text-anchor="middle" x="184" y="-83.5" font-family="Helvetica,sans-Serif" font-size="10.00">mxml_open_buffer</text>
</a>
</g>
</g>
<!-- Node1&#45;&gt;Node8 -->
<g id="edge10" class="edge"><title>Node1&#45;&gt;Node8</title>
<path fill="none" stroke="midnightblue" d="M59.1774,-163.301C73.7687,-146.162 97.9872,-120.55 124,-105 130.373,-101.19 137.597,-98.0537 144.75,-95.5045"/>
<polygon fill="midnightblue" stroke="midnightblue" points="56.156,-161.461 52.4661,-171.393 61.544,-165.93 56.156,-161.461"/>
</g>
<!-- Node9 -->
<g id="node9" class="node"><title>Node9</title>
<g id="a_node9"><a xlink:href="mxml_8c.xhtml#a63bf060bd7ed517fed1d2399c253f4d8" target="_top" xlink:title="mxml_open_file">
<polygon fill="white" stroke="black" points="290.5,-342.5 290.5,-361.5 375.5,-361.5 375.5,-342.5 290.5,-342.5"/>
<text text-anchor="middle" x="333" y="-349.5" font-family="Helvetica,sans-Serif" font-size="10.00">mxml_open_file</text>
</a>
</g>
</g>
<!-- Node1&#45;&gt;Node9 -->
<g id="edge11" class="edge"><title>Node1&#45;&gt;Node9</title>
<path fill="none" stroke="midnightblue" d="M51.0861,-200.685C61.208,-229.935 84.4036,-284.381 124,-312 173.614,-346.607 245.351,-353.255 290.293,-353.586"/>
<polygon fill="midnightblue" stroke="midnightblue" points="54.2896,-199.223 47.84,-190.817 47.6401,-201.41 54.2896,-199.223"/>
</g>
<!-- Node10 -->
<g id="node10" class="node"><title>Node10</title>
<g id="a_node10"><a xlink:href="mxml_8c.xhtml#a43879e9508767beaf57424ec1393f661" target="_top" xlink:title="mxml_start_element1">
<polygon fill="white" stroke="black" points="129,-114.5 129,-133.5 239,-133.5 239,-114.5 129,-114.5"/>
<text text-anchor="middle" x="184" y="-121.5" font-family="Helvetica,sans-Serif" font-size="10.00">mxml_start_element1</text>
</a>
</g>
</g>
<!-- Node1&#45;&gt;Node10 -->
<g id="edge13" class="edge"><title>Node1&#45;&gt;Node10</title>
<path fill="none" stroke="midnightblue" d="M72.4201,-166.668C87.432,-159.114 106.492,-149.992 124,-143 132.495,-139.608 141.853,-136.373 150.564,-133.566"/>
<polygon fill="midnightblue" stroke="midnightblue" points="70.5179,-163.709 63.1969,-171.367 73.6959,-169.946 70.5179,-163.709"/>
</g>
<!-- Node13 -->
<g id="node13" class="node"><title>Node13</title>
<g id="a_node13"><a xlink:href="mxml_8c.xhtml#a7745af802a053bde67f77555ab47a17b" target="_top" xlink:title="mxml_write_attribute">
<polygon fill="white" stroke="black" points="130.5,-190.5 130.5,-209.5 237.5,-209.5 237.5,-190.5 130.5,-190.5"/>
<text text-anchor="middle" x="184" y="-197.5" font-family="Helvetica,sans-Serif" font-size="10.00">mxml_write_attribute</text>
</a>
</g>
</g>
<!-- Node1&#45;&gt;Node13 -->
<g id="edge18" class="edge"><title>Node1&#45;&gt;Node13</title>
<path fill="none" stroke="midnightblue" d="M97.5552,-188.236C108.227,-189.705 119.455,-191.251 130.137,-192.722"/>
<polygon fill="midnightblue" stroke="midnightblue" points="97.9145,-184.752 87.5306,-186.856 96.9597,-191.687 97.9145,-184.752"/>
</g>
<!-- Node14 -->
<g id="node14" class="node"><title>Node14</title>
<g id="a_node14"><a xlink:href="mxml_8c.xhtml#a0a19bf18872be208ce64434f62509f22" target="_top" xlink:title="mxml_write_comment">
<polygon fill="white" stroke="black" points="127.5,-38.5 127.5,-57.5 240.5,-57.5 240.5,-38.5 127.5,-38.5"/>
<text text-anchor="middle" x="184" y="-45.5" font-family="Helvetica,sans-Serif" font-size="10.00">mxml_write_comment</text>
</a>
</g>
</g>
<!-- Node1&#45;&gt;Node14 -->
<g id="edge20" class="edge"><title>Node1&#45;&gt;Node14</title>
<path fill="none" stroke="midnightblue" d="M53.2155,-162.24C65.2016,-136.996 89.8334,-92.3415 124,-67 129.186,-63.1536 135.182,-60.0665 141.323,-57.5941"/>
<polygon fill="midnightblue" stroke="midnightblue" points="49.9712,-160.918 48.9896,-171.468 56.3356,-163.833 49.9712,-160.918"/>
</g>
<!-- Node15 -->
<g id="node15" class="node"><title>Node15</title>
<g id="a_node15"><a xlink:href="mxml_8c.xhtml#a7e98c804d073207620d0f53f323c9187" target="_top" xlink:title="mxml_write_empty_line">
<polygon fill="white" stroke="black" points="124.5,-0.5 124.5,-19.5 243.5,-19.5 243.5,-0.5 124.5,-0.5"/>
<text text-anchor="middle" x="184" y="-7.5" font-family="Helvetica,sans-Serif" font-size="10.00">mxml_write_empty_line</text>
</a>
</g>
</g>
<!-- Node1&#45;&gt;Node15 -->
<g id="edge21" class="edge"><title>Node1&#45;&gt;Node15</title>
<path fill="none" stroke="midnightblue" d="M50.0027,-161.161C59.1733,-128.806 81.7312,-64.7122 124,-29 128.603,-25.1108 134.016,-22.014 139.663,-19.5489"/>
<polygon fill="midnightblue" stroke="midnightblue" points="46.5246,-160.617 47.3069,-171.183 53.2843,-162.436 46.5246,-160.617"/>
</g>
<!-- Node16 -->
<g id="node16" class="node"><title>Node16</title>
<g id="a_node16"><a xlink:href="mxml_8c.xhtml#a9cf33f3456fea00ea438422ebb7bd6be" target="_top" xlink:title="mxml_write_value">
<polygon fill="white" stroke="black" points="136.5,-152.5 136.5,-171.5 231.5,-171.5 231.5,-152.5 136.5,-152.5"/>
<text text-anchor="middle" x="184" y="-159.5" font-family="Helvetica,sans-Serif" font-size="10.00">mxml_write_value</text>
</a>
</g>
</g>
<!-- Node1&#45;&gt;Node16 -->
<g id="edge22" class="edge"><title>Node1&#45;&gt;Node16</title>
<path fill="none" stroke="midnightblue" d="M97.4931,-173.773C110.171,-172.027 123.638,-170.173 136.043,-168.465"/>
<polygon fill="midnightblue" stroke="midnightblue" points="96.9597,-170.313 87.5306,-175.144 97.9145,-177.248 96.9597,-170.313"/>
</g>
<!-- Node4 -->
<g id="node4" class="node"><title>Node4</title>
<g id="a_node4"><a xlink:href="mxml_8c.xhtml#a6dc934e8374543e6070804f8a5822f5f" target="_top" xlink:title="mxml_write_tree">
<polygon fill="white" stroke="black" points="431.5,-266.5 431.5,-285.5 520.5,-285.5 520.5,-266.5 431.5,-266.5"/>
<text text-anchor="middle" x="476" y="-273.5" font-family="Helvetica,sans-Serif" font-size="10.00">mxml_write_tree</text>
</a>
</g>
</g>
<!-- Node3&#45;&gt;Node4 -->
<g id="edge3" class="edge"><title>Node3&#45;&gt;Node4</title>
<path fill="none" stroke="midnightblue" d="M386.692,-276C401.45,-276 417.322,-276 431.483,-276"/>
<polygon fill="midnightblue" stroke="midnightblue" points="386.687,-272.5 376.687,-276 386.687,-279.5 386.687,-272.5"/>
</g>
<!-- Node5&#45;&gt;Node2 -->
<g id="edge5" class="edge"><title>Node5&#45;&gt;Node2</title>
<path fill="none" stroke="midnightblue" d="M207.485,-253.16C226.321,-265.446 254.194,-282.681 280,-295 287.199,-298.437 295.197,-301.642 302.717,-304.405"/>
<polygon fill="midnightblue" stroke="midnightblue" points="209.288,-250.156 199.013,-247.569 205.432,-255.999 209.288,-250.156"/>
</g>
<!-- Node5&#45;&gt;Node3 -->
<g id="edge6" class="edge"><title>Node5&#45;&gt;Node3</title>
<path fill="none" stroke="midnightblue" d="M231.855,-250.112C252.328,-255.404 275.99,-261.521 295.172,-266.48"/>
<polygon fill="midnightblue" stroke="midnightblue" points="232.652,-246.703 222.094,-247.589 230.9,-253.48 232.652,-246.703"/>
</g>
<!-- Node6 -->
<g id="node6" class="node"><title>Node6</title>
<g id="a_node6"><a xlink:href="mxml_8c.xhtml#ac6ccd07b846150067db07ed7086cf7e1" target="_top" xlink:title="mxml_write_element">
<polygon fill="white" stroke="black" points="422.5,-152.5 422.5,-171.5 529.5,-171.5 529.5,-152.5 422.5,-152.5"/>
<text text-anchor="middle" x="476" y="-159.5" font-family="Helvetica,sans-Serif" font-size="10.00">mxml_write_element</text>
</a>
</g>
</g>
<!-- Node5&#45;&gt;Node6 -->
<g id="edge7" class="edge"><title>Node5&#45;&gt;Node6</title>
<path fill="none" stroke="midnightblue" d="M244.758,-239.656C285.577,-239.041 340.329,-234.742 386,-219 416.878,-208.357 447.844,-184.957 463.848,-171.686"/>
<polygon fill="midnightblue" stroke="midnightblue" points="244.666,-236.156 234.695,-239.737 244.723,-243.156 244.666,-236.156"/>
</g>
<!-- Node7 -->
<g id="node7" class="node"><title>Node7</title>
<g id="a_node7"><a xlink:href="mxml_8c.xhtml#aad3952c0c32fc16aa78fde6faa7bd002" target="_top" xlink:title="mxml_write_subtree">
<polygon fill="white" stroke="black" points="281,-190.5 281,-209.5 385,-209.5 385,-190.5 281,-190.5"/>
<text text-anchor="middle" x="333" y="-197.5" font-family="Helvetica,sans-Serif" font-size="10.00">mxml_write_subtree</text>
</a>
</g>
</g>
<!-- Node5&#45;&gt;Node7 -->
<g id="edge8" class="edge"><title>Node5&#45;&gt;Node7</title>
<path fill="none" stroke="midnightblue" d="M231.855,-225.888C252.328,-220.596 275.99,-214.479 295.172,-209.52"/>
<polygon fill="midnightblue" stroke="midnightblue" points="230.9,-222.52 222.094,-228.411 232.652,-229.297 230.9,-222.52"/>
</g>
<!-- Node7&#45;&gt;Node4 -->
<g id="edge9" class="edge"><title>Node7&#45;&gt;Node4</title>
<path fill="none" stroke="midnightblue" d="M360.818,-214.455C389.144,-229.723 432.997,-253.36 457.287,-266.453"/>
<polygon fill="midnightblue" stroke="midnightblue" points="362.321,-211.289 351.858,-209.625 359,-217.451 362.321,-211.289"/>
</g>
<!-- Node9&#45;&gt;Node4 -->
<g id="edge12" class="edge"><title>Node9&#45;&gt;Node4</title>
<path fill="none" stroke="midnightblue" d="M373.179,-338.742C377.563,-336.948 381.917,-335.023 386,-333 414.444,-318.908 445.089,-297.832 461.97,-285.646"/>
<polygon fill="midnightblue" stroke="midnightblue" points="371.682,-335.569 363.624,-342.448 374.213,-342.095 371.682,-335.569"/>
</g>
<!-- Node10&#45;&gt;Node7 -->
<g id="edge17" class="edge"><title>Node10&#45;&gt;Node7</title>
<path fill="none" stroke="midnightblue" d="M229.461,-136.915C234.44,-138.773 239.379,-140.807 244,-143 272.613,-156.581 302.984,-178.033 319.505,-190.382"/>
<polygon fill="midnightblue" stroke="midnightblue" points="230.503,-133.571 219.908,-133.563 228.185,-140.177 230.503,-133.571"/>
</g>
<!-- Node11 -->
<g id="node11" class="node"><title>Node11</title>
<g id="a_node11"><a xlink:href="mxml_8c.xhtml#a1490cd450c6499bab0d70fbeaf88c3be" target="_top" xlink:title="mxml_start_element">
<polygon fill="white" stroke="black" points="280.5,-64.5 280.5,-83.5 385.5,-83.5 385.5,-64.5 280.5,-64.5"/>
<text text-anchor="middle" x="333" y="-71.5" font-family="Helvetica,sans-Serif" font-size="10.00">mxml_start_element</text>
</a>
</g>
</g>
<!-- Node10&#45;&gt;Node11 -->
<g id="edge14" class="edge"><title>Node10&#45;&gt;Node11</title>
<path fill="none" stroke="midnightblue" d="M224.918,-111.307C231.309,-109.229 237.843,-107.075 244,-105 264.722,-98.015 288.061,-89.7762 305.494,-83.5484"/>
<polygon fill="midnightblue" stroke="midnightblue" points="223.506,-108.086 215.067,-114.491 225.658,-114.746 223.506,-108.086"/>
</g>
<!-- Node12 -->
<g id="node12" class="node"><title>Node12</title>
<g id="a_node12"><a xlink:href="mxml_8c.xhtml#aef9e08f5651e4905af653c15c6bb0d6e" target="_top" xlink:title="mxml_start_element\l_noindent">
<polygon fill="white" stroke="black" points="280.5,-103 280.5,-133 385.5,-133 385.5,-103 280.5,-103"/>
<text text-anchor="start" x="288.5" y="-121" font-family="Helvetica,sans-Serif" font-size="10.00">mxml_start_element</text>
<text text-anchor="middle" x="333" y="-110" font-family="Helvetica,sans-Serif" font-size="10.00">_noindent</text>
</a>
</g>
</g>
<!-- Node10&#45;&gt;Node12 -->
<g id="edge16" class="edge"><title>Node10&#45;&gt;Node12</title>
<path fill="none" stroke="midnightblue" d="M249.521,-121.367C259.832,-120.946 270.383,-120.515 280.344,-120.108"/>
<polygon fill="midnightblue" stroke="midnightblue" points="249.169,-117.878 239.32,-121.783 249.454,-124.872 249.169,-117.878"/>
</g>
<!-- Node11&#45;&gt;Node6 -->
<g id="edge15" class="edge"><title>Node11&#45;&gt;Node6</title>
<path fill="none" stroke="midnightblue" d="M372.658,-87.4396C377.246,-89.4498 381.789,-91.6458 386,-94 416.72,-111.176 448.491,-138.057 464.469,-152.333"/>
<polygon fill="midnightblue" stroke="midnightblue" points="373.854,-84.1471 363.274,-83.5836 371.193,-90.6218 373.854,-84.1471"/>
</g>
<!-- Node13&#45;&gt;Node7 -->
<g id="edge19" class="edge"><title>Node13&#45;&gt;Node7</title>
<path fill="none" stroke="midnightblue" d="M247.992,-200C258.908,-200 270.14,-200 280.698,-200"/>
<polygon fill="midnightblue" stroke="midnightblue" points="247.655,-196.5 237.655,-200 247.655,-203.5 247.655,-196.5"/>
</g>
<!-- Node16&#45;&gt;Node6 -->
<g id="edge23" class="edge"><title>Node16&#45;&gt;Node6</title>
<path fill="none" stroke="midnightblue" d="M241.726,-162C294.122,-162 371.341,-162 422.385,-162"/>
<polygon fill="midnightblue" stroke="midnightblue" points="241.594,-158.5 231.594,-162 241.593,-165.5 241.594,-158.5"/>
</g>
<!-- Node16&#45;&gt;Node7 -->
<g id="edge24" class="edge"><title>Node16&#45;&gt;Node7</title>
<path fill="none" stroke="midnightblue" d="M231.855,-174.112C252.328,-179.404 275.99,-185.521 295.172,-190.48"/>
<polygon fill="midnightblue" stroke="midnightblue" points="232.652,-170.703 222.094,-171.589 230.9,-177.48 232.652,-170.703"/>
</g>
</g>
</svg>
