<?xml version="1.0" encoding="UTF-8" standalone="no"?>
<!DOCTYPE svg PUBLIC "-//W3C//DTD SVG 1.1//EN"
 "http://www.w3.org/Graphics/SVG/1.1/DTD/svg11.dtd">
<!-- Generated by graphviz version 2.36.0 (20140111.2315)
 -->
<!-- Title: read_error Pages: 1 -->
<svg width="286pt" height="162pt"
 viewBox="0.00 0.00 286.00 161.97" xmlns="http://www.w3.org/2000/svg" xmlns:xlink="http://www.w3.org/1999/xlink">
<g id="graph0" class="graph" transform="scale(1 1) rotate(0) translate(4 157.967)">
<title>read_error</title>
<polygon fill="white" stroke="none" points="-4,4 -4,-157.967 282,-157.967 282,4 -4,4"/>
<!-- Node1 -->
<g id="node1" class="node"><title>Node1</title>
<polygon fill="#bfbfbf" stroke="black" points="0,-76.5 0,-95.5 60,-95.5 60,-76.5 0,-76.5"/>
<text text-anchor="middle" x="30" y="-83.5" font-family="Helvetica,sans-Serif" font-size="10.00">read_error</text>
</g>
<!-- Node2 -->
<g id="node2" class="node"><title>Node2</title>
<g id="a_node2"><a xlink:href="mxml_8c.xhtml#abca607b102fe0f2c063f39eb0259994c" target="_top" xlink:title="mxml_free">
<polygon fill="white" stroke="black" points="216,-133.5 216,-152.5 278,-152.5 278,-133.5 216,-133.5"/>
<text text-anchor="middle" x="247" y="-140.5" font-family="Helvetica,sans-Serif" font-size="10.00">mxml_free</text>
</a>
</g>
</g>
<!-- Node1&#45;&gt;Node2 -->
<g id="edge1" class="edge"><title>Node1&#45;&gt;Node2</title>
<path fill="none" stroke="midnightblue" d="M38.0994,-95.5721C48.8521,-109.17 70.7151,-133.484 96,-143 131.364,-156.31 174.828,-154.532 205.849,-150.494"/>
<polygon fill="midnightblue" stroke="midnightblue" points="206.461,-153.942 215.862,-149.056 205.466,-147.013 206.461,-153.942"/>
</g>
<!-- Node3 -->
<g id="node3" class="node"><title>Node3</title>
<g id="a_node3"><a xlink:href="mxml_8c.xhtml#a028673d16c059e7ee6f012941b0ce54b" target="_top" xlink:title="mxml_free_tree">
<polygon fill="white" stroke="black" points="96,-114.5 96,-133.5 180,-133.5 180,-114.5 96,-114.5"/>
<text text-anchor="middle" x="138" y="-121.5" font-family="Helvetica,sans-Serif" font-size="10.00">mxml_free_tree</text>
</a>
</g>
</g>
<!-- Node1&#45;&gt;Node3 -->
<g id="edge2" class="edge"><title>Node1&#45;&gt;Node3</title>
<path fill="none" stroke="midnightblue" d="M57.7483,-95.589C70.8042,-100.269 86.7035,-105.969 100.825,-111.032"/>
<polygon fill="midnightblue" stroke="midnightblue" points="99.6657,-114.334 110.26,-114.414 102.028,-107.745 99.6657,-114.334"/>
</g>
<!-- Node4 -->
<g id="node4" class="node"><title>Node4</title>
<g id="a_node4"><a xlink:href="mxml_8c.xhtml#a4b4f0fef6a18999e79e85a0bff15f122" target="_top" xlink:title="mxml_malloc">
<polygon fill="white" stroke="black" points="101,-76.5 101,-95.5 175,-95.5 175,-76.5 101,-76.5"/>
<text text-anchor="middle" x="138" y="-83.5" font-family="Helvetica,sans-Serif" font-size="10.00">mxml_malloc</text>
</a>
</g>
</g>
<!-- Node1&#45;&gt;Node4 -->
<g id="edge4" class="edge"><title>Node1&#45;&gt;Node4</title>
<path fill="none" stroke="midnightblue" d="M60.2456,-86C69.6214,-86 80.2478,-86 90.54,-86"/>
<polygon fill="midnightblue" stroke="midnightblue" points="90.6622,-89.5001 100.662,-86 90.6621,-82.5001 90.6622,-89.5001"/>
</g>
<!-- Node5 -->
<g id="node5" class="node"><title>Node5</title>
<g id="a_node5"><a xlink:href="strlcpy_8h.xhtml#aa031012870e97fea95c0b78d51b4471b" target="_top" xlink:title="strlcat">
<polygon fill="white" stroke="black" points="116,-38.5 116,-57.5 160,-57.5 160,-38.5 116,-38.5"/>
<text text-anchor="middle" x="138" y="-45.5" font-family="Helvetica,sans-Serif" font-size="10.00">strlcat</text>
</a>
</g>
</g>
<!-- Node1&#45;&gt;Node5 -->
<g id="edge5" class="edge"><title>Node1&#45;&gt;Node5</title>
<path fill="none" stroke="midnightblue" d="M57.7483,-76.411C72.5397,-71.1084 90.9806,-64.4975 106.351,-58.9874"/>
<polygon fill="midnightblue" stroke="midnightblue" points="107.707,-62.2195 115.939,-55.5502 105.344,-55.6302 107.707,-62.2195"/>
</g>
<!-- Node6 -->
<g id="node6" class="node"><title>Node6</title>
<g id="a_node6"><a xlink:href="strlcpy_8h.xhtml#af8c865b1f481801d8d1f0a8644be4bbc" target="_top" xlink:title="strlcpy">
<polygon fill="white" stroke="black" points="115,-0.5 115,-19.5 161,-19.5 161,-0.5 115,-0.5"/>
<text text-anchor="middle" x="138" y="-7.5" font-family="Helvetica,sans-Serif" font-size="10.00">strlcpy</text>
</a>
</g>
</g>
<!-- Node1&#45;&gt;Node6 -->
<g id="edge6" class="edge"><title>Node1&#45;&gt;Node6</title>
<path fill="none" stroke="midnightblue" d="M40.4135,-76.1647C52.4586,-63.9716 74.363,-43.0813 96,-29 98.9836,-27.0583 102.198,-25.208 105.467,-23.4777"/>
<polygon fill="midnightblue" stroke="midnightblue" points="107.253,-26.4994 114.679,-18.9429 104.162,-20.219 107.253,-26.4994"/>
</g>
<!-- Node3&#45;&gt;Node2 -->
<g id="edge3" class="edge"><title>Node3&#45;&gt;Node2</title>
<path fill="none" stroke="midnightblue" d="M180.063,-131.292C188.527,-132.794 197.43,-134.375 205.86,-135.872"/>
<polygon fill="midnightblue" stroke="midnightblue" points="205.389,-139.343 215.847,-137.646 206.613,-132.451 205.389,-139.343"/>
</g>
</g>
</svg>
