<?xml version="1.0" encoding="UTF-8" standalone="no"?>
<!DOCTYPE svg PUBLIC "-//W3C//DTD SVG 1.1//EN"
 "http://www.w3.org/Graphics/SVG/1.1/DTD/svg11.dtd">
<!-- Generated by graphviz version 2.36.0 (20140111.2315)
 -->
<!-- Title: mxml_deallocate Pages: 1 -->
<svg width="644pt" height="154pt"
 viewBox="0.00 0.00 644.00 154.00" xmlns="http://www.w3.org/2000/svg" xmlns:xlink="http://www.w3.org/1999/xlink">
<g id="graph0" class="graph" transform="scale(1 1) rotate(0) translate(4 150)">
<title>mxml_deallocate</title>
<polygon fill="white" stroke="none" points="-4,4 -4,-150 640,-150 640,4 -4,4"/>
<!-- Node1 -->
<g id="node1" class="node"><title>Node1</title>
<polygon fill="#bfbfbf" stroke="black" points="0,-38.5 0,-57.5 90,-57.5 90,-38.5 0,-38.5"/>
<text text-anchor="middle" x="45" y="-45.5" font-family="Helvetica,sans-Serif" font-size="10.00">mxml_deallocate</text>
</g>
<!-- Node2 -->
<g id="node2" class="node"><title>Node2</title>
<g id="a_node2"><a xlink:href="mxml_8c.xhtml#acd5df9d9cc5b5f2f75c06585d7867488" target="_top" xlink:title="mxml_encode">
<polygon fill="white" stroke="black" points="126.5,-38.5 126.5,-57.5 203.5,-57.5 203.5,-38.5 126.5,-38.5"/>
<text text-anchor="middle" x="165" y="-45.5" font-family="Helvetica,sans-Serif" font-size="10.00">mxml_encode</text>
</a>
</g>
</g>
<!-- Node1&#45;&gt;Node2 -->
<g id="edge1" class="edge"><title>Node1&#45;&gt;Node2</title>
<path fill="none" stroke="midnightblue" d="M100.473,-48C109.253,-48 118.167,-48 126.432,-48"/>
<polygon fill="midnightblue" stroke="midnightblue" points="100.275,-44.5001 90.2746,-48 100.275,-51.5001 100.275,-44.5001"/>
</g>
<!-- Node3 -->
<g id="node3" class="node"><title>Node3</title>
<g id="a_node3"><a xlink:href="mxml_8c.xhtml#a43879e9508767beaf57424ec1393f661" target="_top" xlink:title="mxml_start_element1">
<polygon fill="white" stroke="black" points="240,-79.5 240,-98.5 350,-98.5 350,-79.5 240,-79.5"/>
<text text-anchor="middle" x="295" y="-86.5" font-family="Helvetica,sans-Serif" font-size="10.00">mxml_start_element1</text>
</a>
</g>
</g>
<!-- Node2&#45;&gt;Node3 -->
<g id="edge2" class="edge"><title>Node2&#45;&gt;Node3</title>
<path fill="none" stroke="midnightblue" d="M205.229,-60.5655C224.153,-66.6272 246.495,-73.7835 264.03,-79.4003"/>
<polygon fill="midnightblue" stroke="midnightblue" points="206.279,-57.2266 195.688,-57.5093 204.143,-63.893 206.279,-57.2266"/>
</g>
<!-- Node9 -->
<g id="node9" class="node"><title>Node9</title>
<g id="a_node9"><a xlink:href="mxml_8c.xhtml#a7745af802a053bde67f77555ab47a17b" target="_top" xlink:title="mxml_write_attribute">
<polygon fill="white" stroke="black" points="241.5,-0.5 241.5,-19.5 348.5,-19.5 348.5,-0.5 241.5,-0.5"/>
<text text-anchor="middle" x="295" y="-7.5" font-family="Helvetica,sans-Serif" font-size="10.00">mxml_write_attribute</text>
</a>
</g>
</g>
<!-- Node2&#45;&gt;Node9 -->
<g id="edge8" class="edge"><title>Node2&#45;&gt;Node9</title>
<path fill="none" stroke="midnightblue" d="M208.224,-35.4647C225.637,-30.2952 245.492,-24.4009 261.711,-19.5859"/>
<polygon fill="midnightblue" stroke="midnightblue" points="206.89,-32.2097 198.3,-38.411 208.882,-38.9202 206.89,-32.2097"/>
</g>
<!-- Node10 -->
<g id="node10" class="node"><title>Node10</title>
<g id="a_node10"><a xlink:href="mxml_8c.xhtml#a9cf33f3456fea00ea438422ebb7bd6be" target="_top" xlink:title="mxml_write_value">
<polygon fill="white" stroke="black" points="247.5,-38.5 247.5,-57.5 342.5,-57.5 342.5,-38.5 247.5,-38.5"/>
<text text-anchor="middle" x="295" y="-45.5" font-family="Helvetica,sans-Serif" font-size="10.00">mxml_write_value</text>
</a>
</g>
</g>
<!-- Node2&#45;&gt;Node10 -->
<g id="edge10" class="edge"><title>Node2&#45;&gt;Node10</title>
<path fill="none" stroke="midnightblue" d="M213.975,-48C224.942,-48 236.579,-48 247.484,-48"/>
<polygon fill="midnightblue" stroke="midnightblue" points="213.712,-44.5001 203.712,-48 213.712,-51.5001 213.712,-44.5001"/>
</g>
<!-- Node4 -->
<g id="node4" class="node"><title>Node4</title>
<g id="a_node4"><a xlink:href="mxml_8c.xhtml#a1490cd450c6499bab0d70fbeaf88c3be" target="_top" xlink:title="mxml_start_element">
<polygon fill="white" stroke="black" points="386.5,-126.5 386.5,-145.5 491.5,-145.5 491.5,-126.5 386.5,-126.5"/>
<text text-anchor="middle" x="439" y="-133.5" font-family="Helvetica,sans-Serif" font-size="10.00">mxml_start_element</text>
</a>
</g>
</g>
<!-- Node3&#45;&gt;Node4 -->
<g id="edge3" class="edge"><title>Node3&#45;&gt;Node4</title>
<path fill="none" stroke="midnightblue" d="M334.367,-101.699C357.8,-109.455 387.294,-119.217 408.82,-126.342"/>
<polygon fill="midnightblue" stroke="midnightblue" points="335.329,-98.3307 324.736,-98.5112 333.13,-104.976 335.329,-98.3307"/>
</g>
<!-- Node6 -->
<g id="node6" class="node"><title>Node6</title>
<g id="a_node6"><a xlink:href="mxml_8c.xhtml#aef9e08f5651e4905af653c15c6bb0d6e" target="_top" xlink:title="mxml_start_element\l_noindent">
<polygon fill="white" stroke="black" points="386.5,-77 386.5,-107 491.5,-107 491.5,-77 386.5,-77"/>
<text text-anchor="start" x="394.5" y="-95" font-family="Helvetica,sans-Serif" font-size="10.00">mxml_start_element</text>
<text text-anchor="middle" x="439" y="-84" font-family="Helvetica,sans-Serif" font-size="10.00">_noindent</text>
</a>
</g>
</g>
<!-- Node3&#45;&gt;Node6 -->
<g id="edge5" class="edge"><title>Node3&#45;&gt;Node6</title>
<path fill="none" stroke="midnightblue" d="M360.269,-90.3578C369.022,-90.5427 377.912,-90.7305 386.402,-90.9099"/>
<polygon fill="midnightblue" stroke="midnightblue" points="360.161,-86.8548 350.089,-90.1427 360.013,-93.8533 360.161,-86.8548"/>
</g>
<!-- Node7 -->
<g id="node7" class="node"><title>Node7</title>
<g id="a_node7"><a xlink:href="mxml_8c.xhtml#aad3952c0c32fc16aa78fde6faa7bd002" target="_top" xlink:title="mxml_write_subtree">
<polygon fill="white" stroke="black" points="387,-0.5 387,-19.5 491,-19.5 491,-0.5 387,-0.5"/>
<text text-anchor="middle" x="439" y="-7.5" font-family="Helvetica,sans-Serif" font-size="10.00">mxml_write_subtree</text>
</a>
</g>
</g>
<!-- Node3&#45;&gt;Node7 -->
<g id="edge6" class="edge"><title>Node3&#45;&gt;Node7</title>
<path fill="none" stroke="midnightblue" d="M331.779,-75.5326C337.948,-72.8979 344.228,-70.0112 350,-67 377.759,-52.5194 407.941,-31.7664 424.76,-19.7063"/>
<polygon fill="midnightblue" stroke="midnightblue" points="330.182,-72.4048 322.267,-79.4471 332.846,-78.8781 330.182,-72.4048"/>
</g>
<!-- Node5 -->
<g id="node5" class="node"><title>Node5</title>
<g id="a_node5"><a xlink:href="mxml_8c.xhtml#ac6ccd07b846150067db07ed7086cf7e1" target="_top" xlink:title="mxml_write_element">
<polygon fill="white" stroke="black" points="528.5,-82.5 528.5,-101.5 635.5,-101.5 635.5,-82.5 528.5,-82.5"/>
<text text-anchor="middle" x="582" y="-89.5" font-family="Helvetica,sans-Serif" font-size="10.00">mxml_write_element</text>
</a>
</g>
</g>
<!-- Node4&#45;&gt;Node5 -->
<g id="edge4" class="edge"><title>Node4&#45;&gt;Node5</title>
<path fill="none" stroke="midnightblue" d="M480.148,-123.472C502.497,-116.497 529.876,-107.954 550.465,-101.529"/>
<polygon fill="midnightblue" stroke="midnightblue" points="479.098,-120.133 470.595,-126.453 481.184,-126.815 479.098,-120.133"/>
</g>
<!-- Node8 -->
<g id="node8" class="node"><title>Node8</title>
<g id="a_node8"><a xlink:href="mxml_8c.xhtml#a6dc934e8374543e6070804f8a5822f5f" target="_top" xlink:title="mxml_write_tree">
<polygon fill="white" stroke="black" points="537.5,-0.5 537.5,-19.5 626.5,-19.5 626.5,-0.5 537.5,-0.5"/>
<text text-anchor="middle" x="582" y="-7.5" font-family="Helvetica,sans-Serif" font-size="10.00">mxml_write_tree</text>
</a>
</g>
</g>
<!-- Node7&#45;&gt;Node8 -->
<g id="edge7" class="edge"><title>Node7&#45;&gt;Node8</title>
<path fill="none" stroke="midnightblue" d="M501.375,-10C513.507,-10 526.005,-10 537.4,-10"/>
<polygon fill="midnightblue" stroke="midnightblue" points="501.303,-6.5001 491.303,-10 501.303,-13.5001 501.303,-6.5001"/>
</g>
<!-- Node9&#45;&gt;Node7 -->
<g id="edge9" class="edge"><title>Node9&#45;&gt;Node7</title>
<path fill="none" stroke="midnightblue" d="M358.941,-10C368.315,-10 377.878,-10 386.967,-10"/>
<polygon fill="midnightblue" stroke="midnightblue" points="358.876,-6.5001 348.876,-10 358.876,-13.5001 358.876,-6.5001"/>
</g>
<!-- Node10&#45;&gt;Node5 -->
<g id="edge11" class="edge"><title>Node10&#45;&gt;Node5</title>
<path fill="none" stroke="midnightblue" d="M352.851,-50.8417C392.177,-53.4574 445.577,-58.3009 492,-67 512.35,-70.8133 534.79,-77.1315 552.046,-82.4619"/>
<polygon fill="midnightblue" stroke="midnightblue" points="352.862,-47.3354 342.66,-50.1926 352.417,-54.3212 352.862,-47.3354"/>
</g>
<!-- Node10&#45;&gt;Node7 -->
<g id="edge12" class="edge"><title>Node10&#45;&gt;Node7</title>
<path fill="none" stroke="midnightblue" d="M341.493,-35.8258C361.128,-30.5713 383.766,-24.5134 402.179,-19.5859"/>
<polygon fill="midnightblue" stroke="midnightblue" points="340.588,-32.4448 331.833,-38.411 342.397,-39.2069 340.588,-32.4448"/>
</g>
</g>
</svg>
