<?xml version="1.0" encoding="UTF-8" standalone="no"?>
<!DOCTYPE svg PUBLIC "-//W3C//DTD SVG 1.1//EN"
 "http://www.w3.org/Graphics/SVG/1.1/DTD/svg11.dtd">
<!-- Generated by graphviz version 2.36.0 (20140111.2315)
 -->
<!-- Title: mxml_write_tree Pages: 1 -->
<svg width="732pt" height="368pt"
 viewBox="0.00 0.00 732.00 368.20" xmlns="http://www.w3.org/2000/svg" xmlns:xlink="http://www.w3.org/1999/xlink">
<g id="graph0" class="graph" transform="scale(1 1) rotate(0) translate(4 364.196)">
<title>mxml_write_tree</title>
<polygon fill="white" stroke="none" points="-4,4 -4,-364.196 728,-364.196 728,4 -4,4"/>
<!-- Node1 -->
<g id="node1" class="node"><title>Node1</title>
<polygon fill="#bfbfbf" stroke="black" points="0.5,-149.919 0.5,-168.919 89.5,-168.919 89.5,-149.919 0.5,-149.919"/>
<text text-anchor="middle" x="45" y="-156.919" font-family="Helvetica,sans-Serif" font-size="10.00">mxml_write_tree</text>
</g>
<!-- Node2 -->
<g id="node2" class="node"><title>Node2</title>
<g id="a_node2"><a xlink:href="mxml_8c.xhtml#a7409705a71ea5d17f3746cd1c49c3b00" target="_top" xlink:title="mxml_close_file">
<polygon fill="white" stroke="black" points="134.5,-225.919 134.5,-244.919 221.5,-244.919 221.5,-225.919 134.5,-225.919"/>
<text text-anchor="middle" x="178" y="-232.919" font-family="Helvetica,sans-Serif" font-size="10.00">mxml_close_file</text>
</a>
</g>
</g>
<!-- Node1&#45;&gt;Node2 -->
<g id="edge1" class="edge"><title>Node1&#45;&gt;Node2</title>
<path fill="none" stroke="midnightblue" d="M62.5912,-169.045C85.0336,-182.065 125.273,-205.41 151.552,-220.656"/>
<polygon fill="midnightblue" stroke="midnightblue" points="150.137,-223.881 160.543,-225.872 153.65,-217.826 150.137,-223.881"/>
</g>
<!-- Node8 -->
<g id="node8" class="node"><title>Node8</title>
<g id="a_node8"><a xlink:href="mxml_8c.xhtml#a63bf060bd7ed517fed1d2399c253f4d8" target="_top" xlink:title="mxml_open_file">
<polygon fill="white" stroke="black" points="278.5,-16.9194 278.5,-35.9194 363.5,-35.9194 363.5,-16.9194 278.5,-16.9194"/>
<text text-anchor="middle" x="321" y="-23.9194" font-family="Helvetica,sans-Serif" font-size="10.00">mxml_open_file</text>
</a>
</g>
</g>
<!-- Node1&#45;&gt;Node8 -->
<g id="edge9" class="edge"><title>Node1&#45;&gt;Node8</title>
<path fill="none" stroke="midnightblue" d="M65.7054,-149.854C113.38,-126.713 235.131,-67.6151 291.082,-40.4562"/>
<polygon fill="midnightblue" stroke="midnightblue" points="292.637,-43.5919 300.105,-36.0765 289.58,-37.2946 292.637,-43.5919"/>
</g>
<!-- Node10 -->
<g id="node10" class="node"><title>Node10</title>
<g id="a_node10"><a xlink:href="mxml_8c.xhtml#aad3952c0c32fc16aa78fde6faa7bd002" target="_top" xlink:title="mxml_write_subtree">
<polygon fill="white" stroke="black" points="126,-149.919 126,-168.919 230,-168.919 230,-149.919 126,-149.919"/>
<text text-anchor="middle" x="178" y="-156.919" font-family="Helvetica,sans-Serif" font-size="10.00">mxml_write_subtree</text>
</a>
</g>
</g>
<!-- Node1&#45;&gt;Node10 -->
<g id="edge13" class="edge"><title>Node1&#45;&gt;Node10</title>
<path fill="none" stroke="midnightblue" d="M89.6211,-159.419C97.9665,-159.419 106.847,-159.419 115.629,-159.419"/>
<polygon fill="midnightblue" stroke="midnightblue" points="115.854,-162.919 125.854,-159.419 115.854,-155.919 115.854,-162.919"/>
</g>
<!-- Node3 -->
<g id="node3" class="node"><title>Node3</title>
<g id="a_node3"><a xlink:href="mxml_8c.xhtml#a51b3bd43da7f4331d38ed5593953610a" target="_top" xlink:title="mxml_write_line">
<polygon fill="white" stroke="black" points="412.5,-149.919 412.5,-168.919 499.5,-168.919 499.5,-149.919 412.5,-149.919"/>
<text text-anchor="middle" x="456" y="-156.919" font-family="Helvetica,sans-Serif" font-size="10.00">mxml_write_line</text>
</a>
</g>
</g>
<!-- Node2&#45;&gt;Node3 -->
<g id="edge2" class="edge"><title>Node2&#45;&gt;Node3</title>
<path fill="none" stroke="midnightblue" d="M197.898,-225.76C215.224,-217.247 241.79,-205.044 266,-197.419 311.129,-183.206 364.05,-173.103 402.396,-166.904"/>
<polygon fill="midnightblue" stroke="midnightblue" points="402.98,-170.355 412.311,-165.336 401.887,-163.441 402.98,-170.355"/>
</g>
<!-- Node5 -->
<g id="node5" class="node"><title>Node5</title>
<g id="a_node5"><a xlink:href="mxml_8c.xhtml#a31efd9013ec552f43c6ff48c46be7a49" target="_top" xlink:title="mxml_end_element">
<polygon fill="white" stroke="black" points="270.5,-244.919 270.5,-263.919 371.5,-263.919 371.5,-244.919 270.5,-244.919"/>
<text text-anchor="middle" x="321" y="-251.919" font-family="Helvetica,sans-Serif" font-size="10.00">mxml_end_element</text>
</a>
</g>
</g>
<!-- Node2&#45;&gt;Node5 -->
<g id="edge4" class="edge"><title>Node2&#45;&gt;Node5</title>
<path fill="none" stroke="midnightblue" d="M221.687,-241.172C233.775,-242.8 247.162,-244.604 260.066,-246.343"/>
<polygon fill="midnightblue" stroke="midnightblue" points="259.899,-249.852 270.277,-247.719 260.834,-242.915 259.899,-249.852"/>
</g>
<!-- Node6 -->
<g id="node6" class="node"><title>Node6</title>
<g id="a_node6"><a xlink:href="mxml_8c.xhtml#abca607b102fe0f2c063f39eb0259994c" target="_top" xlink:title="mxml_free">
<polygon fill="white" stroke="black" points="662,-225.919 662,-244.919 724,-244.919 724,-225.919 662,-225.919"/>
<text text-anchor="middle" x="693" y="-232.919" font-family="Helvetica,sans-Serif" font-size="10.00">mxml_free</text>
</a>
</g>
</g>
<!-- Node2&#45;&gt;Node6 -->
<g id="edge8" class="edge"><title>Node2&#45;&gt;Node6</title>
<path fill="none" stroke="midnightblue" d="M192.871,-244.971C227.73,-268.322 322.614,-327.888 412,-348.419 506.073,-370.027 544.772,-363.56 626,-311.419 649.204,-296.525 668.876,-271.12 680.556,-253.819"/>
<polygon fill="midnightblue" stroke="midnightblue" points="683.671,-255.449 686.194,-245.159 677.805,-251.63 683.671,-255.449"/>
</g>
<!-- Node4 -->
<g id="node4" class="node"><title>Node4</title>
<g id="a_node4"><a xlink:href="mxml_8c.xhtml#a2bbe1e8a7d3c830714bdfa50d3658ef8" target="_top" xlink:title="mxml_realloc">
<polygon fill="white" stroke="black" points="544,-149.919 544,-168.919 618,-168.919 618,-149.919 544,-149.919"/>
<text text-anchor="middle" x="581" y="-156.919" font-family="Helvetica,sans-Serif" font-size="10.00">mxml_realloc</text>
</a>
</g>
</g>
<!-- Node3&#45;&gt;Node4 -->
<g id="edge3" class="edge"><title>Node3&#45;&gt;Node4</title>
<path fill="none" stroke="midnightblue" d="M499.674,-159.419C510.724,-159.419 522.671,-159.419 533.888,-159.419"/>
<polygon fill="midnightblue" stroke="midnightblue" points="533.937,-162.919 543.937,-159.419 533.937,-155.919 533.937,-162.919"/>
</g>
<!-- Node5&#45;&gt;Node3 -->
<g id="edge6" class="edge"><title>Node5&#45;&gt;Node3</title>
<path fill="none" stroke="midnightblue" d="M356.147,-244.9C362.971,-242.318 369.908,-239.173 376,-235.419 401.802,-219.522 426.072,-193.995 440.732,-176.97"/>
<polygon fill="midnightblue" stroke="midnightblue" points="443.728,-178.846 447.48,-168.938 438.368,-174.344 443.728,-178.846"/>
</g>
<!-- Node5&#45;&gt;Node6 -->
<g id="edge5" class="edge"><title>Node5&#45;&gt;Node6</title>
<path fill="none" stroke="midnightblue" d="M329.365,-264.035C343.272,-281.3 375.316,-317.002 412,-330.419 448.731,-343.854 461.916,-339.326 500,-330.419 566.153,-314.949 635.66,-273.184 670.05,-250.528"/>
<polygon fill="midnightblue" stroke="midnightblue" points="672.033,-253.412 678.401,-244.945 668.143,-247.593 672.033,-253.412"/>
</g>
<!-- Node7 -->
<g id="node7" class="node"><title>Node7</title>
<g id="a_node7"><a xlink:href="strlcpy_8h.xhtml#aa031012870e97fea95c0b78d51b4471b" target="_top" xlink:title="strlcat">
<polygon fill="white" stroke="black" points="434,-301.919 434,-320.919 478,-320.919 478,-301.919 434,-301.919"/>
<text text-anchor="middle" x="456" y="-308.919" font-family="Helvetica,sans-Serif" font-size="10.00">strlcat</text>
</a>
</g>
</g>
<!-- Node5&#45;&gt;Node7 -->
<g id="edge7" class="edge"><title>Node5&#45;&gt;Node7</title>
<path fill="none" stroke="midnightblue" d="M344.261,-263.96C366.327,-273.417 400.285,-287.97 424.78,-298.468"/>
<polygon fill="midnightblue" stroke="midnightblue" points="423.414,-301.69 433.984,-302.413 426.172,-295.256 423.414,-301.69"/>
</g>
<!-- Node8&#45;&gt;Node3 -->
<g id="edge12" class="edge"><title>Node8&#45;&gt;Node3</title>
<path fill="none" stroke="midnightblue" d="M332.18,-35.9769C343.529,-46.8916 362.111,-65.555 376,-83.4194 394.391,-107.074 389.312,-120.848 412,-140.419 413.757,-141.935 415.655,-143.349 417.64,-144.664"/>
<polygon fill="midnightblue" stroke="midnightblue" points="416.311,-147.934 426.738,-149.814 419.759,-141.842 416.311,-147.934"/>
</g>
<!-- Node8&#45;&gt;Node6 -->
<g id="edge11" class="edge"><title>Node8&#45;&gt;Node6</title>
<path fill="none" stroke="midnightblue" d="M355.188,-16.8357C416.834,-1.25862 549.667,21.5271 626,-45.4194 677.134,-90.2658 688.664,-176.856 691.255,-215.709"/>
<polygon fill="midnightblue" stroke="midnightblue" points="687.762,-215.935 691.79,-225.734 694.752,-215.561 687.762,-215.935"/>
</g>
<!-- Node9 -->
<g id="node9" class="node"><title>Node9</title>
<g id="a_node9"><a xlink:href="mxml_8c.xhtml#a4b4f0fef6a18999e79e85a0bff15f122" target="_top" xlink:title="mxml_malloc">
<polygon fill="white" stroke="black" points="544,-54.9194 544,-73.9194 618,-73.9194 618,-54.9194 544,-54.9194"/>
<text text-anchor="middle" x="581" y="-61.9194" font-family="Helvetica,sans-Serif" font-size="10.00">mxml_malloc</text>
</a>
</g>
</g>
<!-- Node8&#45;&gt;Node9 -->
<g id="edge10" class="edge"><title>Node8&#45;&gt;Node9</title>
<path fill="none" stroke="midnightblue" d="M363.506,-23.3822C399.904,-21.7104 454.038,-21.6394 500,-31.4194 518.323,-35.3183 537.775,-43.2477 552.91,-50.3565"/>
<polygon fill="midnightblue" stroke="midnightblue" points="551.653,-53.6369 562.177,-54.8589 554.712,-47.3407 551.653,-53.6369"/>
</g>
<!-- Node10&#45;&gt;Node5 -->
<g id="edge34" class="edge"><title>Node10&#45;&gt;Node5</title>
<path fill="none" stroke="midnightblue" d="M187.73,-169.142C202.453,-185.019 233.78,-216.62 266,-235.419 269.474,-237.446 273.199,-239.307 277.009,-241.004"/>
<polygon fill="midnightblue" stroke="midnightblue" points="275.978,-244.363 286.56,-244.884 278.612,-237.877 275.978,-244.363"/>
</g>
<!-- Node11 -->
<g id="node11" class="node"><title>Node11</title>
<g id="a_node11"><a xlink:href="mxml_8c.xhtml#a43879e9508767beaf57424ec1393f661" target="_top" xlink:title="mxml_start_element1">
<polygon fill="white" stroke="black" points="266,-206.919 266,-225.919 376,-225.919 376,-206.919 266,-206.919"/>
<text text-anchor="middle" x="321" y="-213.919" font-family="Helvetica,sans-Serif" font-size="10.00">mxml_start_element1</text>
</a>
</g>
</g>
<!-- Node10&#45;&gt;Node11 -->
<g id="edge14" class="edge"><title>Node10&#45;&gt;Node11</title>
<path fill="none" stroke="midnightblue" d="M202.6,-168.96C225.68,-178.29 261.031,-192.581 286.913,-203.044"/>
<polygon fill="midnightblue" stroke="midnightblue" points="285.74,-206.345 296.323,-206.848 288.363,-199.855 285.74,-206.345"/>
</g>
<!-- Node15 -->
<g id="node15" class="node"><title>Node15</title>
<g id="a_node15"><a xlink:href="mxml_8c.xhtml#a7745af802a053bde67f77555ab47a17b" target="_top" xlink:title="mxml_write_attribute">
<polygon fill="white" stroke="black" points="267.5,-130.919 267.5,-149.919 374.5,-149.919 374.5,-130.919 267.5,-130.919"/>
<text text-anchor="middle" x="321" y="-137.919" font-family="Helvetica,sans-Serif" font-size="10.00">mxml_write_attribute</text>
</a>
</g>
</g>
<!-- Node10&#45;&gt;Node15 -->
<g id="edge26" class="edge"><title>Node10&#45;&gt;Node15</title>
<path fill="none" stroke="midnightblue" d="M230.303,-152.506C238.999,-151.334 248.117,-150.106 257.07,-148.899"/>
<polygon fill="midnightblue" stroke="midnightblue" points="257.634,-152.355 267.077,-147.551 256.699,-145.418 257.634,-152.355"/>
</g>
<!-- Node16 -->
<g id="node16" class="node"><title>Node16</title>
<g id="a_node16"><a xlink:href="mxml_8c.xhtml#a9cf33f3456fea00ea438422ebb7bd6be" target="_top" xlink:title="mxml_write_value">
<polygon fill="white" stroke="black" points="273.5,-92.9194 273.5,-111.919 368.5,-111.919 368.5,-92.9194 273.5,-92.9194"/>
<text text-anchor="middle" x="321" y="-99.9194" font-family="Helvetica,sans-Serif" font-size="10.00">mxml_write_value</text>
</a>
</g>
</g>
<!-- Node10&#45;&gt;Node16 -->
<g id="edge29" class="edge"><title>Node10&#45;&gt;Node16</title>
<path fill="none" stroke="midnightblue" d="M199.915,-149.768C217.426,-141.813 243.149,-130.416 266,-121.419 271.144,-119.394 276.602,-117.352 281.995,-115.396"/>
<polygon fill="midnightblue" stroke="midnightblue" points="283.305,-118.645 291.549,-111.99 280.955,-112.051 283.305,-118.645"/>
</g>
<!-- Node11&#45;&gt;Node3 -->
<g id="edge15" class="edge"><title>Node11&#45;&gt;Node3</title>
<path fill="none" stroke="midnightblue" d="M344.261,-206.879C365.935,-197.59 399.084,-183.384 423.467,-172.934"/>
<polygon fill="midnightblue" stroke="midnightblue" points="424.853,-176.147 432.666,-168.991 422.096,-169.713 424.853,-176.147"/>
</g>
<!-- Node11&#45;&gt;Node4 -->
<g id="edge25" class="edge"><title>Node11&#45;&gt;Node4</title>
<path fill="none" stroke="midnightblue" d="M376.208,-222.403C412.134,-224.563 459.861,-223.934 500,-211.419 523.267,-204.165 546.213,-188.074 561.523,-175.699"/>
<polygon fill="midnightblue" stroke="midnightblue" points="564.179,-178.041 569.6,-168.938 559.685,-172.673 564.179,-178.041"/>
</g>
<!-- Node11&#45;&gt;Node7 -->
<g id="edge16" class="edge"><title>Node11&#45;&gt;Node7</title>
<path fill="none" stroke="midnightblue" d="M359.029,-225.94C365.04,-228.444 370.943,-231.561 376,-235.419 398.347,-252.471 391.189,-268.525 412,-287.419 415.857,-290.921 420.315,-294.116 424.868,-296.951"/>
<polygon fill="midnightblue" stroke="midnightblue" points="423.19,-300.024 433.609,-301.947 426.664,-293.946 423.19,-300.024"/>
</g>
<!-- Node11&#45;&gt;Node9 -->
<g id="edge24" class="edge"><title>Node11&#45;&gt;Node9</title>
<path fill="none" stroke="midnightblue" d="M376.051,-210.199C421.165,-204.063 481.043,-193.419 500,-178.419 529.31,-155.228 513.369,-132.164 536,-102.419 542.194,-94.2788 550.379,-86.6283 558.009,-80.3556"/>
<polygon fill="midnightblue" stroke="midnightblue" points="560.237,-83.0556 565.949,-74.1318 555.919,-77.5463 560.237,-83.0556"/>
</g>
<!-- Node12 -->
<g id="node12" class="node"><title>Node12</title>
<g id="a_node12"><a xlink:href="strlcpy_8h.xhtml#af8c865b1f481801d8d1f0a8644be4bbc" target="_top" xlink:title="strlcpy">
<polygon fill="white" stroke="black" points="558,-225.919 558,-244.919 604,-244.919 604,-225.919 558,-225.919"/>
<text text-anchor="middle" x="581" y="-232.919" font-family="Helvetica,sans-Serif" font-size="10.00">strlcpy</text>
</a>
</g>
</g>
<!-- Node11&#45;&gt;Node12 -->
<g id="edge17" class="edge"><title>Node11&#45;&gt;Node12</title>
<path fill="none" stroke="midnightblue" d="M349.811,-226.01C358.244,-228.971 367.519,-232.279 376,-235.419 392.099,-241.38 395.127,-246.254 412,-249.419 458.794,-258.198 513.954,-250.167 547.953,-243.145"/>
<polygon fill="midnightblue" stroke="midnightblue" points="548.758,-246.552 557.792,-241.018 547.279,-239.71 548.758,-246.552"/>
</g>
<!-- Node13 -->
<g id="node13" class="node"><title>Node13</title>
<g id="a_node13"><a xlink:href="mxml_8c.xhtml#acd5df9d9cc5b5f2f75c06585d7867488" target="_top" xlink:title="mxml_encode">
<polygon fill="white" stroke="black" points="417.5,-111.919 417.5,-130.919 494.5,-130.919 494.5,-111.919 417.5,-111.919"/>
<text text-anchor="middle" x="456" y="-118.919" font-family="Helvetica,sans-Serif" font-size="10.00">mxml_encode</text>
</a>
</g>
</g>
<!-- Node11&#45;&gt;Node13 -->
<g id="edge18" class="edge"><title>Node11&#45;&gt;Node13</title>
<path fill="none" stroke="midnightblue" d="M331.781,-206.499C347.557,-190.9 380.092,-160.365 412,-140.419 414.768,-138.689 417.721,-137.035 420.734,-135.477"/>
<polygon fill="midnightblue" stroke="midnightblue" points="422.329,-138.594 429.824,-131.105 419.295,-132.285 422.329,-138.594"/>
</g>
<!-- Node13&#45;&gt;Node4 -->
<g id="edge22" class="edge"><title>Node13&#45;&gt;Node4</title>
<path fill="none" stroke="midnightblue" d="M488.038,-131.008C503.479,-135.779 522.348,-141.608 538.966,-146.742"/>
<polygon fill="midnightblue" stroke="midnightblue" points="538.384,-150.226 548.972,-149.833 540.451,-143.538 538.384,-150.226"/>
</g>
<!-- Node13&#45;&gt;Node9 -->
<g id="edge19" class="edge"><title>Node13&#45;&gt;Node9</title>
<path fill="none" stroke="midnightblue" d="M477.587,-111.879C497.454,-102.672 527.746,-88.6347 550.237,-78.212"/>
<polygon fill="midnightblue" stroke="midnightblue" points="551.744,-81.3713 559.345,-73.991 548.801,-75.0201 551.744,-81.3713"/>
</g>
<!-- Node13&#45;&gt;Node12 -->
<g id="edge23" class="edge"><title>Node13&#45;&gt;Node12</title>
<path fill="none" stroke="midnightblue" d="M483.972,-131.08C489.537,-133.679 495.168,-136.796 500,-140.419 515.363,-151.941 548.078,-193.423 566.56,-217.593"/>
<polygon fill="midnightblue" stroke="midnightblue" points="563.829,-219.784 572.667,-225.628 569.402,-215.548 563.829,-219.784"/>
</g>
<!-- Node14 -->
<g id="node14" class="node"><title>Node14</title>
<g id="a_node14"><a xlink:href="mxml_8c.xhtml#a2fa2fb9cb281f3461fedf2d47ea81ce1" target="_top" xlink:title="mxml_deallocate">
<polygon fill="white" stroke="black" points="536,-111.919 536,-130.919 626,-130.919 626,-111.919 536,-111.919"/>
<text text-anchor="middle" x="581" y="-118.919" font-family="Helvetica,sans-Serif" font-size="10.00">mxml_deallocate</text>
</a>
</g>
</g>
<!-- Node13&#45;&gt;Node14 -->
<g id="edge20" class="edge"><title>Node13&#45;&gt;Node14</title>
<path fill="none" stroke="midnightblue" d="M494.572,-121.419C504.322,-121.419 515.022,-121.419 525.452,-121.419"/>
<polygon fill="midnightblue" stroke="midnightblue" points="525.746,-124.919 535.746,-121.419 525.746,-117.919 525.746,-124.919"/>
</g>
<!-- Node14&#45;&gt;Node6 -->
<g id="edge21" class="edge"><title>Node14&#45;&gt;Node6</title>
<path fill="none" stroke="midnightblue" d="M610.79,-131.094C616.159,-133.64 621.492,-136.732 626,-140.419 651.916,-161.618 672.068,-195.497 682.973,-216.55"/>
<polygon fill="midnightblue" stroke="midnightblue" points="679.966,-218.363 687.568,-225.742 686.227,-215.233 679.966,-218.363"/>
</g>
<!-- Node15&#45;&gt;Node3 -->
<g id="edge28" class="edge"><title>Node15&#45;&gt;Node3</title>
<path fill="none" stroke="midnightblue" d="M374.565,-147.929C383.639,-149.225 393.075,-150.573 402.156,-151.87"/>
<polygon fill="midnightblue" stroke="midnightblue" points="401.826,-155.359 412.22,-153.308 402.816,-148.429 401.826,-155.359"/>
</g>
<!-- Node15&#45;&gt;Node13 -->
<g id="edge27" class="edge"><title>Node15&#45;&gt;Node13</title>
<path fill="none" stroke="midnightblue" d="M374.565,-132.91C385.35,-131.369 396.646,-129.756 407.25,-128.241"/>
<polygon fill="midnightblue" stroke="midnightblue" points="407.761,-131.703 417.166,-126.824 406.771,-124.774 407.761,-131.703"/>
</g>
<!-- Node16&#45;&gt;Node3 -->
<g id="edge30" class="edge"><title>Node16&#45;&gt;Node3</title>
<path fill="none" stroke="midnightblue" d="M351.732,-111.999C359.706,-114.806 368.259,-118.037 376,-121.419 392.578,-128.664 395.716,-132.536 412,-140.419 415.616,-142.17 419.43,-143.949 423.234,-145.682"/>
<polygon fill="midnightblue" stroke="midnightblue" points="421.99,-148.96 432.547,-149.85 424.849,-142.57 421.99,-148.96"/>
</g>
<!-- Node16&#45;&gt;Node4 -->
<g id="edge32" class="edge"><title>Node16&#45;&gt;Node4</title>
<path fill="none" stroke="midnightblue" d="M367.126,-92.8841C404.342,-87.2105 457.702,-84.2256 500,-102.419 521.371,-111.612 516.932,-127.091 536,-140.419 538.511,-142.174 541.209,-143.817 543.989,-145.344"/>
<polygon fill="midnightblue" stroke="midnightblue" points="542.505,-148.515 553.019,-149.822 545.615,-142.244 542.505,-148.515"/>
</g>
<!-- Node16&#45;&gt;Node9 -->
<g id="edge31" class="edge"><title>Node16&#45;&gt;Node9</title>
<path fill="none" stroke="midnightblue" d="M342.194,-92.8784C360.091,-84.9469 387.162,-74.2117 412,-69.4194 452.635,-61.5791 499.81,-60.8915 533.806,-61.8375"/>
<polygon fill="midnightblue" stroke="midnightblue" points="533.8,-65.3392 543.912,-62.1775 534.035,-58.3432 533.8,-65.3392"/>
</g>
<!-- Node16&#45;&gt;Node13 -->
<g id="edge33" class="edge"><title>Node16&#45;&gt;Node13</title>
<path fill="none" stroke="midnightblue" d="M368.517,-109.065C380.924,-110.837 394.354,-112.756 406.846,-114.54"/>
<polygon fill="midnightblue" stroke="midnightblue" points="406.682,-118.052 417.077,-116.002 407.672,-111.123 406.682,-118.052"/>
</g>
</g>
</svg>
