<?xml version="1.0" encoding="UTF-8" standalone="no"?>
<!DOCTYPE svg PUBLIC "-//W3C//DTD SVG 1.1//EN"
 "http://www.w3.org/Graphics/SVG/1.1/DTD/svg11.dtd">
<!-- Generated by graphviz version 2.36.0 (20140111.2315)
 -->
<!-- Title: main Pages: 1 -->
<!--zoomable 1510 -->
<svg id="main" version="1.1" xmlns="http://www.w3.org/2000/svg" xmlns:xlink="http://www.w3.org/1999/xlink" xml:space="preserve" onload="init(evt)">
<style type="text/css"><![CDATA[
.edge:hover path { stroke: red; }
.edge:hover polygon { stroke: red; fill: red; }
]]></style>
<script type="text/javascript"><![CDATA[
var edges = document.getElementsByTagName('g');
if (edges && edges.length) {
  for (var i=0;i<edges.length;i++) {
    if (edges[i].id.substr(0,4)=='edge') {
      edges[i].setAttribute('class','edge');
    }
  }
}
]]></script>
        <defs>
                <circle id="rim" cx="0" cy="0" r="7"/>
                <circle id="rim2" cx="0" cy="0" r="3.5"/>
                <g id="zoomPlus">
                        <use xlink:href="#rim" fill="#404040">
                                <set attributeName="fill" to="#808080" begin="zoomplus.mouseover" end="zoomplus.mouseout"/>
                        </use>
                        <path d="M-4,0h8M0,-4v8" fill="none" stroke="white" stroke-width="1.5" pointer-events="none"/>
                </g>
                <g id="zoomMin">
                        <use xlink:href="#rim" fill="#404040">
                                <set attributeName="fill" to="#808080" begin="zoomminus.mouseover" end="zoomminus.mouseout"/>
                        </use>
                        <path d="M-4,0h8" fill="none" stroke="white" stroke-width="1.5" pointer-events="none"/>
                </g>
                <g id="dirArrow">
                        <path fill="none" stroke="white" stroke-width="1.5" d="M0,-3.0v7 M-2.5,-0.5L0,-3.0L2.5,-0.5"/>
                </g>
               <g id="resetDef">
                       <use xlink:href="#rim2" fill="#404040">
                               <set attributeName="fill" to="#808080" begin="reset.mouseover" end="reset.mouseout"/>
                       </use>
               </g>
        </defs>

<script type="text/javascript">
var viewWidth = 634;
var viewHeight = 1510;
var sectionId = 'dynsection-1';
</script>
<script xlink:href="svgpan.js"/>
<svg id="graph" class="graph">
<g id="viewport">
<title>main</title>
<polygon fill="white" stroke="none" points="-4,4 -4,-1506 630,-1506 630,4 -4,4"/>
<!-- Node1 -->
<g id="node1" class="node"><title>Node1</title>
<polygon fill="#bfbfbf" stroke="black" points="0,-1250.5 0,-1269.5 38,-1269.5 38,-1250.5 0,-1250.5"/>
<text text-anchor="middle" x="19" y="-1257.5" font-family="Helvetica,sans-Serif" font-size="10.00">main</text>
</g>
<!-- Node2 -->
<g id="node2" class="node"><title>Node2</title>
<g id="a_node2"><a xlink:href="class_v_m_e_manager.xhtml#a7bebd5232bd420d9d9bf9cf6b4e2d13d" target="_top" xlink:title="VMEManager::Close">
<polygon fill="white" stroke="black" points="99.5,-1482.5 99.5,-1501.5 206.5,-1501.5 206.5,-1482.5 99.5,-1482.5"/>
<text text-anchor="middle" x="153" y="-1489.5" font-family="Helvetica,sans-Serif" font-size="10.00">VMEManager::Close</text>
</a>
</g>
</g>
<!-- Node1&#45;&gt;Node2 -->
<g id="edge1" class="edge"><title>Node1&#45;&gt;Node2</title>
<path fill="none" stroke="midnightblue" d="M21.1347,-1269.7C25.7352,-1307.39 44.1886,-1443.47 74,-1473 78.5484,-1477.51 83.9761,-1481.01 89.821,-1483.72"/>
<polygon fill="midnightblue" stroke="midnightblue" points="88.693,-1487.03 99.2828,-1487.36 91.2071,-1480.5 88.693,-1487.03"/>
</g>
<!-- Node3 -->
<g id="node3" class="node"><title>Node3</title>
<g id="a_node3"><a xlink:href="class_scaler_manager.xhtml#aa273ebc4c4277fb58e1947be7fdc64f7" target="_top" xlink:title="ScalerManager::GetActive">
<polygon fill="white" stroke="black" points="87.5,-1444.5 87.5,-1463.5 218.5,-1463.5 218.5,-1444.5 87.5,-1444.5"/>
<text text-anchor="middle" x="153" y="-1451.5" font-family="Helvetica,sans-Serif" font-size="10.00">ScalerManager::GetActive</text>
</a>
</g>
</g>
<!-- Node1&#45;&gt;Node3 -->
<g id="edge2" class="edge"><title>Node1&#45;&gt;Node3</title>
<path fill="none" stroke="midnightblue" d="M19.8876,-1269.64C20.096,-1299.1 24.9198,-1388.8 74,-1435 75.5222,-1436.43 77.1339,-1437.76 78.8193,-1439"/>
<polygon fill="midnightblue" stroke="midnightblue" points="77.4169,-1442.24 87.7875,-1444.41 81.0327,-1436.25 77.4169,-1442.24"/>
</g>
<!-- Node4 -->
<g id="node4" class="node"><title>Node4</title>
<g id="a_node4"><a xlink:href="class_v_m_e_manager.xhtml#ab119e0334e91d592e9ef4fb961551ddc" target="_top" xlink:title="VMEManager::GetCrateHandle">
<polygon fill="white" stroke="black" points="77,-1406.5 77,-1425.5 229,-1425.5 229,-1406.5 77,-1406.5"/>
<text text-anchor="middle" x="153" y="-1413.5" font-family="Helvetica,sans-Serif" font-size="10.00">VMEManager::GetCrateHandle</text>
</a>
</g>
</g>
<!-- Node1&#45;&gt;Node4 -->
<g id="edge3" class="edge"><title>Node1&#45;&gt;Node4</title>
<path fill="none" stroke="midnightblue" d="M20.8802,-1269.58C23.6909,-1294.43 34.7221,-1361.42 74,-1396 76.3887,-1398.1 78.9693,-1399.99 81.6889,-1401.68"/>
<polygon fill="midnightblue" stroke="midnightblue" points="80.3016,-1404.91 90.7826,-1406.46 83.555,-1398.71 80.3016,-1404.91"/>
</g>
<!-- Node5 -->
<g id="node5" class="node"><title>Node5</title>
<g id="a_node5"><a xlink:href="class_discriminator_manager.xhtml#a7854d13c866ab49e81b0523fad91c4ca" target="_top" xlink:title="DiscriminatorManager\l::GetNthresholds">
<polygon fill="white" stroke="black" points="97,-1357 97,-1387 209,-1387 209,-1357 97,-1357"/>
<text text-anchor="start" x="105" y="-1375" font-family="Helvetica,sans-Serif" font-size="10.00">DiscriminatorManager</text>
<text text-anchor="middle" x="153" y="-1364" font-family="Helvetica,sans-Serif" font-size="10.00">::GetNthresholds</text>
</a>
</g>
</g>
<!-- Node1&#45;&gt;Node5 -->
<g id="edge4" class="edge"><title>Node1&#45;&gt;Node5</title>
<path fill="none" stroke="midnightblue" d="M23.3925,-1269.66C30.1716,-1287.56 47.0933,-1326 74,-1347 78.0986,-1350.2 82.6176,-1352.99 87.3532,-1355.44"/>
<polygon fill="midnightblue" stroke="midnightblue" points="86.1246,-1358.72 96.6735,-1359.71 89.0414,-1352.36 86.1246,-1358.72"/>
</g>
<!-- Node6 -->
<g id="node6" class="node"><title>Node6</title>
<g id="a_node6"><a xlink:href="class_discriminator_manager.xhtml#ac78b1cee106d7f3c4ba53d1c35756efc" target="_top" xlink:title="DiscriminatorManager\l::Init">
<polygon fill="white" stroke="black" points="97,-1308 97,-1338 209,-1338 209,-1308 97,-1308"/>
<text text-anchor="start" x="105" y="-1326" font-family="Helvetica,sans-Serif" font-size="10.00">DiscriminatorManager</text>
<text text-anchor="middle" x="153" y="-1315" font-family="Helvetica,sans-Serif" font-size="10.00">::Init</text>
</a>
</g>
</g>
<!-- Node1&#45;&gt;Node6 -->
<g id="edge5" class="edge"><title>Node1&#45;&gt;Node6</title>
<path fill="none" stroke="midnightblue" d="M31.359,-1269.55C41.8635,-1277.98 58.1944,-1290.14 74,-1298 78.4998,-1300.24 83.2438,-1302.34 88.0789,-1304.29"/>
<polygon fill="midnightblue" stroke="midnightblue" points="86.8582,-1307.57 97.449,-1307.86 89.3528,-1301.03 86.8582,-1307.57"/>
</g>
<!-- Node7 -->
<g id="node7" class="node"><title>Node7</title>
<g id="a_node7"><a xlink:href="class_scaler_manager.xhtml#aadba17e677604523405e21db2acbe27f" target="_top" xlink:title="ScalerManager::Init">
<polygon fill="white" stroke="black" points="102.5,-1269.5 102.5,-1288.5 203.5,-1288.5 203.5,-1269.5 102.5,-1269.5"/>
<text text-anchor="middle" x="153" y="-1276.5" font-family="Helvetica,sans-Serif" font-size="10.00">ScalerManager::Init</text>
</a>
</g>
</g>
<!-- Node1&#45;&gt;Node7 -->
<g id="edge6" class="edge"><title>Node1&#45;&gt;Node7</title>
<path fill="none" stroke="midnightblue" d="M38.0773,-1262.6C52.1471,-1264.63 72.521,-1267.56 92.1609,-1270.39"/>
<polygon fill="midnightblue" stroke="midnightblue" points="91.9305,-1273.89 102.327,-1271.85 92.9278,-1266.96 91.9305,-1273.89"/>
</g>
<!-- Node8 -->
<g id="node8" class="node"><title>Node8</title>
<g id="a_node8"><a xlink:href="class_v_m_e_manager.xhtml#aea2fb3f6829160ea2502f4a3d828e44b" target="_top" xlink:title="VMEManager::Init">
<polygon fill="white" stroke="black" points="105.5,-1231.5 105.5,-1250.5 200.5,-1250.5 200.5,-1231.5 105.5,-1231.5"/>
<text text-anchor="middle" x="153" y="-1238.5" font-family="Helvetica,sans-Serif" font-size="10.00">VMEManager::Init</text>
</a>
</g>
</g>
<!-- Node1&#45;&gt;Node8 -->
<g id="edge7" class="edge"><title>Node1&#45;&gt;Node8</title>
<path fill="none" stroke="midnightblue" d="M38.0773,-1257.4C52.9436,-1255.26 74.8481,-1252.11 95.4883,-1249.13"/>
<polygon fill="midnightblue" stroke="midnightblue" points="96.0835,-1252.58 105.483,-1247.7 95.0861,-1245.66 96.0835,-1252.58"/>
</g>
<!-- Node9 -->
<g id="node9" class="node"><title>Node9</title>
<g id="a_node9"><a xlink:href="class_scaler_manager.xhtml#ac7e2293e35ac55984d223eff9c6d4b6c" target="_top" xlink:title="ScalerManager::ReadMultiple\lCycles">
<polygon fill="white" stroke="black" points="80.5,-1182 80.5,-1212 225.5,-1212 225.5,-1182 80.5,-1182"/>
<text text-anchor="start" x="88.5" y="-1200" font-family="Helvetica,sans-Serif" font-size="10.00">ScalerManager::ReadMultiple</text>
<text text-anchor="middle" x="153" y="-1189" font-family="Helvetica,sans-Serif" font-size="10.00">Cycles</text>
</a>
</g>
</g>
<!-- Node1&#45;&gt;Node9 -->
<g id="edge8" class="edge"><title>Node1&#45;&gt;Node9</title>
<path fill="none" stroke="midnightblue" d="M31.359,-1250.45C41.8635,-1242.02 58.1944,-1229.86 74,-1222 78.4998,-1219.76 83.2438,-1217.66 88.0789,-1215.71"/>
<polygon fill="midnightblue" stroke="midnightblue" points="89.3528,-1218.97 97.449,-1212.14 86.8582,-1212.43 89.3528,-1218.97"/>
</g>
<!-- Node15 -->
<g id="node15" class="node"><title>Node15</title>
<g id="a_node15"><a xlink:href="class_scaler_manager.xhtml#aae47b43dbbfc19879f4d47198d3d43f9" target="_top" xlink:title="ScalerManager::SetCrateHandle">
<polygon fill="white" stroke="black" points="74,-1143.5 74,-1162.5 232,-1162.5 232,-1143.5 74,-1143.5"/>
<text text-anchor="middle" x="153" y="-1150.5" font-family="Helvetica,sans-Serif" font-size="10.00">ScalerManager::SetCrateHandle</text>
</a>
</g>
</g>
<!-- Node1&#45;&gt;Node15 -->
<g id="edge14" class="edge"><title>Node1&#45;&gt;Node15</title>
<path fill="none" stroke="midnightblue" d="M23.1761,-1250.47C29.6941,-1232.44 46.3405,-1193.3 74,-1173 77.2665,-1170.6 80.7933,-1168.49 84.4794,-1166.63"/>
<polygon fill="midnightblue" stroke="midnightblue" points="86.1495,-1169.72 93.913,-1162.51 83.348,-1163.31 86.1495,-1169.72"/>
</g>
<!-- Node16 -->
<g id="node16" class="node"><title>Node16</title>
<g id="a_node16"><a xlink:href="class_discriminator_manager.xhtml#a1353bcb4be24acbc86e9c932258a804b" target="_top" xlink:title="DiscriminatorManager\l::SetCrateHandle">
<polygon fill="white" stroke="black" points="97,-1094 97,-1124 209,-1124 209,-1094 97,-1094"/>
<text text-anchor="start" x="105" y="-1112" font-family="Helvetica,sans-Serif" font-size="10.00">DiscriminatorManager</text>
<text text-anchor="middle" x="153" y="-1101" font-family="Helvetica,sans-Serif" font-size="10.00">::SetCrateHandle</text>
</a>
</g>
</g>
<!-- Node1&#45;&gt;Node16 -->
<g id="edge15" class="edge"><title>Node1&#45;&gt;Node16</title>
<path fill="none" stroke="midnightblue" d="M21.3895,-1250.21C25.2457,-1226.69 38.2588,-1166.51 74,-1134 78.0765,-1130.29 82.706,-1127.13 87.6278,-1124.44"/>
<polygon fill="midnightblue" stroke="midnightblue" points="89.23,-1127.56 96.7462,-1120.09 86.214,-1121.24 89.23,-1127.56"/>
</g>
<!-- Node17 -->
<g id="node17" class="node"><title>Node17</title>
<g id="a_node17"><a xlink:href="class_discriminator_manager.xhtml#a06ea12c9030de22c93cdf21515a7202c" target="_top" xlink:title="DiscriminatorManager\l::SetThresholdsDisc">
<polygon fill="white" stroke="black" points="97,-1045 97,-1075 209,-1075 209,-1045 97,-1045"/>
<text text-anchor="start" x="105" y="-1063" font-family="Helvetica,sans-Serif" font-size="10.00">DiscriminatorManager</text>
<text text-anchor="middle" x="153" y="-1052" font-family="Helvetica,sans-Serif" font-size="10.00">::SetThresholdsDisc</text>
</a>
</g>
</g>
<!-- Node1&#45;&gt;Node17 -->
<g id="edge16" class="edge"><title>Node1&#45;&gt;Node17</title>
<path fill="none" stroke="midnightblue" d="M20.0456,-1250.1C20.729,-1220.65 26.8197,-1132.7 74,-1085 78.0002,-1080.96 82.6546,-1077.57 87.6611,-1074.72"/>
<polygon fill="midnightblue" stroke="midnightblue" points="89.5335,-1077.7 96.988,-1070.18 86.4656,-1071.41 89.5335,-1077.7"/>
</g>
<!-- Node18 -->
<g id="node18" class="node"><title>Node18</title>
<g id="a_node18"><a xlink:href="_p_d_a_q_2_core_2_include_2xml_8h.xhtml#a8251b051736c5146c1985edc6cb357e6" target="_top" xlink:title="xml_readsettings">
<polygon fill="white" stroke="black" points="107.5,-578.5 107.5,-597.5 198.5,-597.5 198.5,-578.5 107.5,-578.5"/>
<text text-anchor="middle" x="153" y="-585.5" font-family="Helvetica,sans-Serif" font-size="10.00">xml_readsettings</text>
</a>
</g>
</g>
<!-- Node1&#45;&gt;Node18 -->
<g id="edge17" class="edge"><title>Node1&#45;&gt;Node18</title>
<path fill="none" stroke="midnightblue" d="M21.9169,-1250.24C36.3712,-1176.66 128.226,-709.029 148.179,-607.453"/>
<polygon fill="midnightblue" stroke="midnightblue" points="151.619,-608.1 150.112,-597.613 144.75,-606.751 151.619,-608.1"/>
</g>
<!-- Node10 -->
<g id="node10" class="node"><title>Node10</title>
<g id="a_node10"><a xlink:href="class_common.xhtml#ac9abf0903e33d0fc910cf17685b3063d" target="_top" xlink:title="Common::get_time">
<polygon fill="white" stroke="black" points="302,-1263.5 302,-1282.5 402,-1282.5 402,-1263.5 302,-1263.5"/>
<text text-anchor="middle" x="352" y="-1270.5" font-family="Helvetica,sans-Serif" font-size="10.00">Common::get_time</text>
</a>
</g>
</g>
<!-- Node9&#45;&gt;Node10 -->
<g id="edge9" class="edge"><title>Node9&#45;&gt;Node10</title>
<path fill="none" stroke="midnightblue" d="M210.594,-1212.03C218.003,-1214.88 225.33,-1218.2 232,-1222 250.595,-1232.61 248.971,-1244.19 268,-1254 275.461,-1257.85 283.696,-1260.92 291.994,-1263.38"/>
<polygon fill="midnightblue" stroke="midnightblue" points="291.156,-1266.77 301.721,-1265.98 292.969,-1260.01 291.156,-1266.77"/>
</g>
<!-- Node11 -->
<g id="node11" class="node"><title>Node11</title>
<g id="a_node11"><a xlink:href="class_i_o_manager.xhtml#a2b106680fee9901a2501ad4128195858" target="_top" xlink:title="IOManager::FillContainer">
<polygon fill="white" stroke="black" points="289.5,-1225.5 289.5,-1244.5 414.5,-1244.5 414.5,-1225.5 289.5,-1225.5"/>
<text text-anchor="middle" x="352" y="-1232.5" font-family="Helvetica,sans-Serif" font-size="10.00">IOManager::FillContainer</text>
</a>
</g>
</g>
<!-- Node9&#45;&gt;Node11 -->
<g id="edge10" class="edge"><title>Node9&#45;&gt;Node11</title>
<path fill="none" stroke="midnightblue" d="M225.679,-1210.83C247.329,-1215 270.851,-1219.54 291.607,-1223.54"/>
<polygon fill="midnightblue" stroke="midnightblue" points="291.072,-1227 301.554,-1225.46 292.398,-1220.13 291.072,-1227"/>
</g>
<!-- Node13 -->
<g id="node13" class="node"><title>Node13</title>
<g id="a_node13"><a xlink:href="_d_r_s_8cpp.xhtml#aca8ac8de5202a8aa092f29c97b845fd4" target="_top" xlink:title="getch">
<polygon fill="white" stroke="black" points="331.5,-1187.5 331.5,-1206.5 372.5,-1206.5 372.5,-1187.5 331.5,-1187.5"/>
<text text-anchor="middle" x="352" y="-1194.5" font-family="Helvetica,sans-Serif" font-size="10.00">getch</text>
</a>
</g>
</g>
<!-- Node9&#45;&gt;Node13 -->
<g id="edge12" class="edge"><title>Node9&#45;&gt;Node13</title>
<path fill="none" stroke="midnightblue" d="M225.679,-1197C258.6,-1197 295.849,-1197 321.121,-1197"/>
<polygon fill="midnightblue" stroke="midnightblue" points="321.171,-1200.5 331.17,-1197 321.17,-1193.5 321.171,-1200.5"/>
</g>
<!-- Node14 -->
<g id="node14" class="node"><title>Node14</title>
<g id="a_node14"><a xlink:href="class_i_o_manager.xhtml#a704dcea90caae5af7e03fc9355c81637" target="_top" xlink:title="IOManager::SaveContainer">
<polygon fill="white" stroke="black" points="284.5,-1149.5 284.5,-1168.5 419.5,-1168.5 419.5,-1149.5 284.5,-1149.5"/>
<text text-anchor="middle" x="352" y="-1156.5" font-family="Helvetica,sans-Serif" font-size="10.00">IOManager::SaveContainer</text>
</a>
</g>
</g>
<!-- Node9&#45;&gt;Node14 -->
<g id="edge13" class="edge"><title>Node9&#45;&gt;Node14</title>
<path fill="none" stroke="midnightblue" d="M225.679,-1183.17C247.329,-1179 270.851,-1174.46 291.607,-1170.46"/>
<polygon fill="midnightblue" stroke="midnightblue" points="292.398,-1173.87 301.554,-1168.54 291.072,-1167 292.398,-1173.87"/>
</g>
<!-- Node12 -->
<g id="node12" class="node"><title>Node12</title>
<g id="a_node12"><a xlink:href="class_common.xhtml#ac61de06bc876a8ae68021065daacf71a" target="_top" xlink:title="Common::GetUnixTime">
<polygon fill="white" stroke="black" points="489,-1225.5 489,-1244.5 609,-1244.5 609,-1225.5 489,-1225.5"/>
<text text-anchor="middle" x="549" y="-1232.5" font-family="Helvetica,sans-Serif" font-size="10.00">Common::GetUnixTime</text>
</a>
</g>
</g>
<!-- Node11&#45;&gt;Node12 -->
<g id="edge11" class="edge"><title>Node11&#45;&gt;Node12</title>
<path fill="none" stroke="midnightblue" d="M414.699,-1235C435.028,-1235 457.767,-1235 478.628,-1235"/>
<polygon fill="midnightblue" stroke="midnightblue" points="478.699,-1238.5 488.699,-1235 478.699,-1231.5 478.699,-1238.5"/>
</g>
<!-- Node19 -->
<g id="node19" class="node"><title>Node19</title>
<g id="a_node19"><a xlink:href="class_d_r_s_board.xhtml#a66bb03b3ba56cec84d6092768ba33a28" target="_top" xlink:title="DRSBoard::EnableTcal">
<polygon fill="white" stroke="black" points="292.5,-1111.5 292.5,-1130.5 411.5,-1130.5 411.5,-1111.5 292.5,-1111.5"/>
<text text-anchor="middle" x="352" y="-1118.5" font-family="Helvetica,sans-Serif" font-size="10.00">DRSBoard::EnableTcal</text>
</a>
</g>
</g>
<!-- Node18&#45;&gt;Node19 -->
<g id="edge18" class="edge"><title>Node18&#45;&gt;Node19</title>
<path fill="none" stroke="midnightblue" d="M155.546,-597.895C166.275,-666.027 230.318,-1064.06 268,-1102 272.271,-1106.3 277.303,-1109.71 282.743,-1112.41"/>
<polygon fill="midnightblue" stroke="midnightblue" points="281.639,-1115.74 292.219,-1116.3 284.298,-1109.26 281.639,-1115.74"/>
</g>
<!-- Node20 -->
<g id="node20" class="node"><title>Node20</title>
<g id="a_node20"><a xlink:href="class_d_r_s_board.xhtml#afa180ff89a95f97dee9aa7b2e5c7c70d" target="_top" xlink:title="DRSBoard::EnableTrigger">
<polygon fill="white" stroke="black" points="287,-1073.5 287,-1092.5 417,-1092.5 417,-1073.5 287,-1073.5"/>
<text text-anchor="middle" x="352" y="-1080.5" font-family="Helvetica,sans-Serif" font-size="10.00">DRSBoard::EnableTrigger</text>
</a>
</g>
</g>
<!-- Node18&#45;&gt;Node20 -->
<g id="edge19" class="edge"><title>Node18&#45;&gt;Node20</title>
<path fill="none" stroke="midnightblue" d="M154.931,-597.54C161.081,-658.62 197.799,-994.5 268,-1064 270.93,-1066.9 274.207,-1069.39 277.72,-1071.54"/>
<polygon fill="midnightblue" stroke="midnightblue" points="276.373,-1074.78 286.876,-1076.17 279.531,-1068.53 276.373,-1074.78"/>
</g>
<!-- Node21 -->
<g id="node21" class="node"><title>Node21</title>
<g id="a_node21"><a xlink:href="struct_x_m_l_node.xhtml#aa07572a057ce7ffc8843e468d952f490" target="_top" xlink:title="XMLNode::getAttribute">
<polygon fill="white" stroke="black" points="294,-1035.5 294,-1054.5 410,-1054.5 410,-1035.5 294,-1035.5"/>
<text text-anchor="middle" x="352" y="-1042.5" font-family="Helvetica,sans-Serif" font-size="10.00">XMLNode::getAttribute</text>
</a>
</g>
</g>
<!-- Node18&#45;&gt;Node21 -->
<g id="edge20" class="edge"><title>Node18&#45;&gt;Node21</title>
<path fill="none" stroke="midnightblue" d="M155.139,-597.526C162.286,-655.698 202.744,-962.647 268,-1026 272.663,-1030.53 278.173,-1034.06 284.101,-1036.81"/>
<polygon fill="midnightblue" stroke="midnightblue" points="283.11,-1040.18 293.7,-1040.5 285.627,-1033.64 283.11,-1040.18"/>
</g>
<!-- Node22 -->
<g id="node22" class="node"><title>Node22</title>
<g id="a_node22"><a xlink:href="class_d_r_s_board.xhtml#a650cf228e0fd1b42e1063bce9426e8d9" target="_top" xlink:title="DRSBoard::GetBoardType">
<polygon fill="white" stroke="black" points="285.5,-997.5 285.5,-1016.5 418.5,-1016.5 418.5,-997.5 285.5,-997.5"/>
<text text-anchor="middle" x="352" y="-1004.5" font-family="Helvetica,sans-Serif" font-size="10.00">DRSBoard::GetBoardType</text>
</a>
</g>
</g>
<!-- Node18&#45;&gt;Node22 -->
<g id="edge21" class="edge"><title>Node18&#45;&gt;Node22</title>
<path fill="none" stroke="midnightblue" d="M155.425,-597.771C163.744,-653.515 207.757,-930.845 268,-988 270.599,-990.466 273.45,-992.635 276.481,-994.541"/>
<polygon fill="midnightblue" stroke="midnightblue" points="274.963,-997.698 285.444,-999.248 278.218,-991.5 274.963,-997.698"/>
</g>
<!-- Node23 -->
<g id="node23" class="node"><title>Node23</title>
<g id="a_node23"><a xlink:href="struct_x_m_l_node.xhtml#a77a21438b6d48a52cf8a1270f82f4475" target="_top" xlink:title="XMLNode::getChildNode">
<polygon fill="white" stroke="black" points="289.5,-959.5 289.5,-978.5 414.5,-978.5 414.5,-959.5 289.5,-959.5"/>
<text text-anchor="middle" x="352" y="-966.5" font-family="Helvetica,sans-Serif" font-size="10.00">XMLNode::getChildNode</text>
</a>
</g>
</g>
<!-- Node18&#45;&gt;Node23 -->
<g id="edge22" class="edge"><title>Node18&#45;&gt;Node23</title>
<path fill="none" stroke="midnightblue" d="M153.822,-597.588C153.507,-644.201 158.575,-849.001 268,-950 271.612,-953.334 275.686,-956.122 280.04,-958.45"/>
<polygon fill="midnightblue" stroke="midnightblue" points="278.759,-961.711 289.316,-962.61 281.624,-955.324 278.759,-961.711"/>
</g>
<!-- Node24 -->
<g id="node24" class="node"><title>Node24</title>
<g id="a_node24"><a xlink:href="struct_x_m_l_node.xhtml#aeb607292b18d4615b7c169c7c08c0a8b" target="_top" xlink:title="XMLNode::getText">
<polygon fill="white" stroke="black" points="302.5,-921.5 302.5,-940.5 401.5,-940.5 401.5,-921.5 302.5,-921.5"/>
<text text-anchor="middle" x="352" y="-928.5" font-family="Helvetica,sans-Serif" font-size="10.00">XMLNode::getText</text>
</a>
</g>
</g>
<!-- Node18&#45;&gt;Node24 -->
<g id="edge23" class="edge"><title>Node18&#45;&gt;Node24</title>
<path fill="none" stroke="midnightblue" d="M154.228,-597.752C155.807,-641.7 168.355,-823.049 268,-912 274.965,-918.217 283.545,-922.523 292.519,-925.483"/>
<polygon fill="midnightblue" stroke="midnightblue" points="291.783,-928.91 302.354,-928.192 293.643,-922.162 291.783,-928.91"/>
</g>
<!-- Node25 -->
<g id="node25" class="node"><title>Node25</title>
<g id="a_node25"><a xlink:href="struct_x_m_l_node.xhtml#acc044148e2b9b8264a320b7b6e398158" target="_top" xlink:title="XMLNode::openFileHelper">
<polygon fill="white" stroke="red" points="286.5,-883.5 286.5,-902.5 417.5,-902.5 417.5,-883.5 286.5,-883.5"/>
<text text-anchor="middle" x="352" y="-890.5" font-family="Helvetica,sans-Serif" font-size="10.00">XMLNode::openFileHelper</text>
</a>
</g>
</g>
<!-- Node18&#45;&gt;Node25 -->
<g id="edge24" class="edge"><title>Node18&#45;&gt;Node25</title>
<path fill="none" stroke="midnightblue" d="M154.729,-597.71C158.331,-638.42 177.876,-796.807 268,-874 270.863,-876.452 273.979,-878.604 277.269,-880.492"/>
<polygon fill="midnightblue" stroke="midnightblue" points="275.808,-883.673 286.332,-884.895 278.867,-877.377 275.808,-883.673"/>
</g>
<!-- Node29 -->
<g id="node29" class="node"><title>Node29</title>
<g id="a_node29"><a xlink:href="class_d_a_q_container.xhtml#a8c2898cebd574164d09a207dbeaf3786" target="_top" xlink:title="DAQContainer::SetChannel0">
<polygon fill="white" stroke="black" points="280.5,-845.5 280.5,-864.5 423.5,-864.5 423.5,-845.5 280.5,-845.5"/>
<text text-anchor="middle" x="352" y="-852.5" font-family="Helvetica,sans-Serif" font-size="10.00">DAQContainer::SetChannel0</text>
</a>
</g>
</g>
<!-- Node18&#45;&gt;Node29 -->
<g id="edge28" class="edge"><title>Node18&#45;&gt;Node29</title>
<path fill="none" stroke="midnightblue" d="M155.369,-597.686C161.174,-634.97 187.284,-770.397 268,-836 270.058,-837.672 272.234,-839.204 274.504,-840.606"/>
<polygon fill="midnightblue" stroke="midnightblue" points="273.174,-843.86 283.657,-845.395 276.419,-837.658 273.174,-843.86"/>
</g>
<!-- Node30 -->
<g id="node30" class="node"><title>Node30</title>
<g id="a_node30"><a xlink:href="class_d_a_q_container.xhtml#ace630af575da2f385f0feb7f0ffb1162" target="_top" xlink:title="DAQContainer::SetChannel1">
<polygon fill="white" stroke="black" points="280.5,-807.5 280.5,-826.5 423.5,-826.5 423.5,-807.5 280.5,-807.5"/>
<text text-anchor="middle" x="352" y="-814.5" font-family="Helvetica,sans-Serif" font-size="10.00">DAQContainer::SetChannel1</text>
</a>
</g>
</g>
<!-- Node18&#45;&gt;Node30 -->
<g id="edge29" class="edge"><title>Node18&#45;&gt;Node30</title>
<path fill="none" stroke="midnightblue" d="M156.252,-597.811C164.537,-631.569 196.626,-743.826 268,-798 270.373,-799.801 272.888,-801.437 275.506,-802.922"/>
<polygon fill="midnightblue" stroke="midnightblue" points="274.229,-806.192 284.754,-807.409 277.285,-799.895 274.229,-806.192"/>
</g>
<!-- Node31 -->
<g id="node31" class="node"><title>Node31</title>
<g id="a_node31"><a xlink:href="class_d_a_q_container.xhtml#aee7c5278c25dcc6f78bd9125364f5b72" target="_top" xlink:title="DAQContainer::SetChannel2">
<polygon fill="white" stroke="black" points="280.5,-769.5 280.5,-788.5 423.5,-788.5 423.5,-769.5 280.5,-769.5"/>
<text text-anchor="middle" x="352" y="-776.5" font-family="Helvetica,sans-Serif" font-size="10.00">DAQContainer::SetChannel2</text>
</a>
</g>
</g>
<!-- Node18&#45;&gt;Node31 -->
<g id="edge30" class="edge"><title>Node18&#45;&gt;Node31</title>
<path fill="none" stroke="midnightblue" d="M157.41,-597.667C168.351,-627.19 205.544,-716.787 268,-760 270.883,-761.995 273.945,-763.783 277.127,-765.386"/>
<polygon fill="midnightblue" stroke="midnightblue" points="275.801,-768.626 286.365,-769.43 278.608,-762.214 275.801,-768.626"/>
</g>
<!-- Node32 -->
<g id="node32" class="node"><title>Node32</title>
<g id="a_node32"><a xlink:href="class_d_a_q_container.xhtml#aef41b7e947db3479f09724215ad1fe0e" target="_top" xlink:title="DAQContainer::SetChannel3">
<polygon fill="white" stroke="black" points="280.5,-731.5 280.5,-750.5 423.5,-750.5 423.5,-731.5 280.5,-731.5"/>
<text text-anchor="middle" x="352" y="-738.5" font-family="Helvetica,sans-Serif" font-size="10.00">DAQContainer::SetChannel3</text>
</a>
</g>
</g>
<!-- Node18&#45;&gt;Node32 -->
<g id="edge31" class="edge"><title>Node18&#45;&gt;Node32</title>
<path fill="none" stroke="midnightblue" d="M159.192,-597.603C173.171,-622.481 214.21,-689.357 268,-722 271.625,-724.2 275.48,-726.146 279.468,-727.866"/>
<polygon fill="midnightblue" stroke="midnightblue" points="278.378,-731.196 288.969,-731.486 280.87,-724.655 278.378,-731.196"/>
</g>
<!-- Node33 -->
<g id="node33" class="node"><title>Node33</title>
<g id="a_node33"><a xlink:href="class_d_r_s_board.xhtml#ad03f8e0db5e5089ffd9d946cb5cd8fe3" target="_top" xlink:title="DRSBoard::SetFrequency">
<polygon fill="white" stroke="red" points="286.5,-693.5 286.5,-712.5 417.5,-712.5 417.5,-693.5 286.5,-693.5"/>
<text text-anchor="middle" x="352" y="-700.5" font-family="Helvetica,sans-Serif" font-size="10.00">DRSBoard::SetFrequency</text>
</a>
</g>
</g>
<!-- Node18&#45;&gt;Node33 -->
<g id="edge32" class="edge"><title>Node18&#45;&gt;Node33</title>
<path fill="none" stroke="midnightblue" d="M162.687,-597.769C180.462,-617.131 223.11,-660.445 268,-683 273.65,-685.839 279.721,-688.286 285.916,-690.395"/>
<polygon fill="midnightblue" stroke="midnightblue" points="285.124,-693.814 295.712,-693.437 287.2,-687.129 285.124,-693.814"/>
</g>
<!-- Node34 -->
<g id="node34" class="node"><title>Node34</title>
<g id="a_node34"><a xlink:href="class_d_a_q_container.xhtml#ae032fbc7a7392f1aeddfc1c23b91dbe9" target="_top" xlink:title="DAQContainer::SetGraphic\lModeType">
<polygon fill="white" stroke="black" points="284.5,-644 284.5,-674 419.5,-674 419.5,-644 284.5,-644"/>
<text text-anchor="start" x="292.5" y="-662" font-family="Helvetica,sans-Serif" font-size="10.00">DAQContainer::SetGraphic</text>
<text text-anchor="middle" x="352" y="-651" font-family="Helvetica,sans-Serif" font-size="10.00">ModeType</text>
</a>
</g>
</g>
<!-- Node18&#45;&gt;Node34 -->
<g id="edge33" class="edge"><title>Node18&#45;&gt;Node34</title>
<path fill="none" stroke="midnightblue" d="M176.053,-597.595C198.851,-607.348 235.584,-622.604 268,-634 274.735,-636.368 281.824,-638.716 288.904,-640.971"/>
<polygon fill="midnightblue" stroke="midnightblue" points="287.931,-644.334 298.52,-643.982 290.023,-637.654 287.931,-644.334"/>
</g>
<!-- Node35 -->
<g id="node35" class="node"><title>Node35</title>
<g id="a_node35"><a xlink:href="class_d_a_q_container.xhtml#ac573a11f08ce33360117285b8e9179b3" target="_top" xlink:title="DAQContainer::SetGraphic\lYHigh">
<polygon fill="white" stroke="black" points="284.5,-595 284.5,-625 419.5,-625 419.5,-595 284.5,-595"/>
<text text-anchor="start" x="292.5" y="-613" font-family="Helvetica,sans-Serif" font-size="10.00">DAQContainer::SetGraphic</text>
<text text-anchor="middle" x="352" y="-602" font-family="Helvetica,sans-Serif" font-size="10.00">YHigh</text>
</a>
</g>
</g>
<!-- Node18&#45;&gt;Node35 -->
<g id="edge34" class="edge"><title>Node18&#45;&gt;Node35</title>
<path fill="none" stroke="midnightblue" d="M198.702,-592.992C221.051,-595.488 248.73,-598.579 274.336,-601.438"/>
<polygon fill="midnightblue" stroke="midnightblue" points="274.079,-604.932 284.406,-602.563 274.856,-597.975 274.079,-604.932"/>
</g>
<!-- Node36 -->
<g id="node36" class="node"><title>Node36</title>
<g id="a_node36"><a xlink:href="class_d_a_q_container.xhtml#a11598cd419f53fb9c52b26b5d507770b" target="_top" xlink:title="DAQContainer::SetGraphicYLow">
<polygon fill="white" stroke="black" points="272,-556.5 272,-575.5 432,-575.5 432,-556.5 272,-556.5"/>
<text text-anchor="middle" x="352" y="-563.5" font-family="Helvetica,sans-Serif" font-size="10.00">DAQContainer::SetGraphicYLow</text>
</a>
</g>
</g>
<!-- Node18&#45;&gt;Node36 -->
<g id="edge35" class="edge"><title>Node18&#45;&gt;Node36</title>
<path fill="none" stroke="midnightblue" d="M198.702,-583.008C217.407,-580.919 239.845,-578.413 261.676,-575.975"/>
<polygon fill="midnightblue" stroke="midnightblue" points="262.099,-579.45 271.649,-574.862 261.322,-572.493 262.099,-579.45"/>
</g>
<!-- Node37 -->
<g id="node37" class="node"><title>Node37</title>
<g id="a_node37"><a xlink:href="class_d_r_s_board.xhtml#a10c4618b17871aba670a1e365c9a4a60" target="_top" xlink:title="DRSBoard::SetIndividualTrigger\lLevel">
<polygon fill="white" stroke="black" points="274,-507 274,-537 430,-537 430,-507 274,-507"/>
<text text-anchor="start" x="282" y="-525" font-family="Helvetica,sans-Serif" font-size="10.00">DRSBoard::SetIndividualTrigger</text>
<text text-anchor="middle" x="352" y="-514" font-family="Helvetica,sans-Serif" font-size="10.00">Level</text>
</a>
</g>
</g>
<!-- Node18&#45;&gt;Node37 -->
<g id="edge36" class="edge"><title>Node18&#45;&gt;Node37</title>
<path fill="none" stroke="midnightblue" d="M179.223,-578.497C202.236,-569.929 237.243,-557.155 268,-547 274.976,-544.697 282.309,-542.363 289.609,-540.094"/>
<polygon fill="midnightblue" stroke="midnightblue" points="290.979,-543.335 299.508,-537.049 288.921,-536.644 290.979,-543.335"/>
</g>
<!-- Node38 -->
<g id="node38" class="node"><title>Node38</title>
<g id="a_node38"><a xlink:href="class_d_r_s_board.xhtml#a76c09f56ecfafc6343a7dc3eefb56eb9" target="_top" xlink:title="DRSBoard::SetInputRange">
<polygon fill="white" stroke="black" points="284.5,-468.5 284.5,-487.5 419.5,-487.5 419.5,-468.5 284.5,-468.5"/>
<text text-anchor="middle" x="352" y="-475.5" font-family="Helvetica,sans-Serif" font-size="10.00">DRSBoard::SetInputRange</text>
</a>
</g>
</g>
<!-- Node18&#45;&gt;Node38 -->
<g id="edge37" class="edge"><title>Node18&#45;&gt;Node38</title>
<path fill="none" stroke="midnightblue" d="M163.079,-578.483C181.22,-560.042 224.001,-519.383 268,-498 274.001,-495.084 280.458,-492.574 287.025,-490.419"/>
<polygon fill="midnightblue" stroke="midnightblue" points="288.12,-493.745 296.685,-487.509 286.101,-487.043 288.12,-493.745"/>
</g>
<!-- Node39 -->
<g id="node39" class="node"><title>Node39</title>
<g id="a_node39"><a xlink:href="class_d_a_q_container.xhtml#aa4b60b525b6033949d00af459b1dec5c" target="_top" xlink:title="DAQContainer::SetNumberOf\lEvents">
<polygon fill="white" stroke="black" points="279,-419 279,-449 425,-449 425,-419 279,-419"/>
<text text-anchor="start" x="287" y="-437" font-family="Helvetica,sans-Serif" font-size="10.00">DAQContainer::SetNumberOf</text>
<text text-anchor="middle" x="352" y="-426" font-family="Helvetica,sans-Serif" font-size="10.00">Events</text>
</a>
</g>
</g>
<!-- Node18&#45;&gt;Node39 -->
<g id="edge38" class="edge"><title>Node18&#45;&gt;Node39</title>
<path fill="none" stroke="midnightblue" d="M159.845,-578.266C174.753,-554.279 216.662,-491.892 268,-459 271.164,-456.973 274.5,-455.103 277.945,-453.38"/>
<polygon fill="midnightblue" stroke="midnightblue" points="279.611,-456.468 287.274,-449.152 276.721,-450.092 279.611,-456.468"/>
</g>
<!-- Node40 -->
<g id="node40" class="node"><title>Node40</title>
<g id="a_node40"><a xlink:href="class_d_a_q_container.xhtml#a42c7e8e384ed83827efe3c1a74c20972" target="_top" xlink:title="DAQContainer::SetNumberPerFile">
<polygon fill="white" stroke="black" points="268.5,-380.5 268.5,-399.5 435.5,-399.5 435.5,-380.5 268.5,-380.5"/>
<text text-anchor="middle" x="352" y="-387.5" font-family="Helvetica,sans-Serif" font-size="10.00">DAQContainer::SetNumberPerFile</text>
</a>
</g>
</g>
<!-- Node18&#45;&gt;Node40 -->
<g id="edge39" class="edge"><title>Node18&#45;&gt;Node40</title>
<path fill="none" stroke="midnightblue" d="M157.179,-578.459C167.691,-548.457 204.329,-455.341 268,-410 271.301,-407.649 274.844,-405.572 278.54,-403.738"/>
<polygon fill="midnightblue" stroke="midnightblue" points="280.195,-406.835 287.989,-399.658 277.421,-400.409 280.195,-406.835"/>
</g>
<!-- Node41 -->
<g id="node41" class="node"><title>Node41</title>
<g id="a_node41"><a xlink:href="class_d_a_q_container.xhtml#aa14506878e2eadb1058fdd51d5fd90b5" target="_top" xlink:title="DAQContainer::SetOutputDir">
<polygon fill="white" stroke="black" points="280.5,-342.5 280.5,-361.5 423.5,-361.5 423.5,-342.5 280.5,-342.5"/>
<text text-anchor="middle" x="352" y="-349.5" font-family="Helvetica,sans-Serif" font-size="10.00">DAQContainer::SetOutputDir</text>
</a>
</g>
</g>
<!-- Node18&#45;&gt;Node41 -->
<g id="edge40" class="edge"><title>Node18&#45;&gt;Node41</title>
<path fill="none" stroke="midnightblue" d="M156.036,-578.348C163.793,-544.082 194.824,-427.331 268,-371 270.361,-369.182 272.865,-367.533 275.474,-366.037"/>
<polygon fill="midnightblue" stroke="midnightblue" points="277.258,-369.061 284.699,-361.519 274.179,-362.775 277.258,-369.061"/>
</g>
<!-- Node42 -->
<g id="node42" class="node"><title>Node42</title>
<g id="a_node42"><a xlink:href="class_d_a_q_container.xhtml#a5509c784df11a27a766b323aa4173f3a" target="_top" xlink:title="DAQContainer::SetSaveType">
<polygon fill="white" stroke="black" points="279,-304.5 279,-323.5 425,-323.5 425,-304.5 279,-304.5"/>
<text text-anchor="middle" x="352" y="-311.5" font-family="Helvetica,sans-Serif" font-size="10.00">DAQContainer::SetSaveType</text>
</a>
</g>
</g>
<!-- Node18&#45;&gt;Node42 -->
<g id="edge41" class="edge"><title>Node18&#45;&gt;Node42</title>
<path fill="none" stroke="midnightblue" d="M155.239,-578.308C160.623,-540.371 185.564,-400.721 268,-333 270.049,-331.317 272.218,-329.776 274.481,-328.367"/>
<polygon fill="midnightblue" stroke="midnightblue" points="276.4,-331.312 283.615,-323.553 273.136,-325.119 276.4,-331.312"/>
</g>
<!-- Node43 -->
<g id="node43" class="node"><title>Node43</title>
<g id="a_node43"><a xlink:href="class_d_r_s_board.xhtml#a520fa0808fb8669a8b1bc802a6b9937b" target="_top" xlink:title="DRSBoard::SetTranspMode">
<polygon fill="white" stroke="black" points="282.5,-266.5 282.5,-285.5 421.5,-285.5 421.5,-266.5 282.5,-266.5"/>
<text text-anchor="middle" x="352" y="-273.5" font-family="Helvetica,sans-Serif" font-size="10.00">DRSBoard::SetTranspMode</text>
</a>
</g>
</g>
<!-- Node18&#45;&gt;Node43 -->
<g id="edge42" class="edge"><title>Node18&#45;&gt;Node43</title>
<path fill="none" stroke="midnightblue" d="M154.624,-578.339C157.829,-537.11 176.089,-374.383 268,-295 269.773,-293.469 271.644,-292.055 273.594,-290.749"/>
<polygon fill="midnightblue" stroke="midnightblue" points="275.595,-293.639 282.597,-285.689 272.165,-287.537 275.595,-293.639"/>
</g>
<!-- Node44 -->
<g id="node44" class="node"><title>Node44</title>
<g id="a_node44"><a xlink:href="class_d_r_s_board.xhtml#a20c3700f4039b494015fb35f2e043c24" target="_top" xlink:title="DRSBoard::SetTriggerDelayNs">
<polygon fill="white" stroke="black" points="275.5,-228.5 275.5,-247.5 428.5,-247.5 428.5,-228.5 275.5,-228.5"/>
<text text-anchor="middle" x="352" y="-235.5" font-family="Helvetica,sans-Serif" font-size="10.00">DRSBoard::SetTriggerDelayNs</text>
</a>
</g>
</g>
<!-- Node18&#45;&gt;Node44 -->
<g id="edge43" class="edge"><title>Node18&#45;&gt;Node44</title>
<path fill="none" stroke="midnightblue" d="M154.144,-578.341C155.353,-533.999 166.512,-348.203 268,-257 269.742,-255.435 271.586,-253.99 273.514,-252.658"/>
<polygon fill="midnightblue" stroke="midnightblue" points="275.526,-255.537 282.435,-247.505 272.025,-249.475 275.526,-255.537"/>
</g>
<!-- Node45 -->
<g id="node45" class="node"><title>Node45</title>
<g id="a_node45"><a xlink:href="class_d_r_s_board.xhtml#ad850d978ccd56a8f012ec1efb5e1aa19" target="_top" xlink:title="DRSBoard::SetTriggerLevel">
<polygon fill="white" stroke="black" points="283,-190.5 283,-209.5 421,-209.5 421,-190.5 283,-190.5"/>
<text text-anchor="middle" x="352" y="-197.5" font-family="Helvetica,sans-Serif" font-size="10.00">DRSBoard::SetTriggerLevel</text>
</a>
</g>
</g>
<!-- Node18&#45;&gt;Node45 -->
<g id="edge44" class="edge"><title>Node18&#45;&gt;Node45</title>
<path fill="none" stroke="midnightblue" d="M153.754,-578.232C153.121,-530.742 156.928,-322.08 268,-219 269.761,-217.366 271.632,-215.863 273.594,-214.48"/>
<polygon fill="midnightblue" stroke="midnightblue" points="275.831,-217.227 282.702,-209.163 272.302,-211.182 275.831,-217.227"/>
</g>
<!-- Node46 -->
<g id="node46" class="node"><title>Node46</title>
<g id="a_node46"><a xlink:href="class_d_r_s_board.xhtml#ac7659769a8e15ad6cb468394f786d899" target="_top" xlink:title="DRSBoard::SetTriggerPolarity">
<polygon fill="white" stroke="black" points="278,-152.5 278,-171.5 426,-171.5 426,-152.5 278,-152.5"/>
<text text-anchor="middle" x="352" y="-159.5" font-family="Helvetica,sans-Serif" font-size="10.00">DRSBoard::SetTriggerPolarity</text>
</a>
</g>
</g>
<!-- Node18&#45;&gt;Node46 -->
<g id="edge45" class="edge"><title>Node18&#45;&gt;Node46</title>
<path fill="none" stroke="midnightblue" d="M155.346,-578.426C163.384,-522.58 206.781,-239.346 268,-181 269.485,-179.585 271.052,-178.267 272.69,-177.041"/>
<polygon fill="midnightblue" stroke="midnightblue" points="274.742,-179.887 281.393,-171.639 271.051,-173.939 274.742,-179.887"/>
</g>
<!-- Node47 -->
<g id="node47" class="node"><title>Node47</title>
<g id="a_node47"><a xlink:href="class_d_a_q_container.xhtml#ac19b2fa7a15d2eac49ee0a82cae5976d" target="_top" xlink:title="DAQContainer::SetTriggerRate">
<polygon fill="white" stroke="black" points="276,-114.5 276,-133.5 428,-133.5 428,-114.5 276,-114.5"/>
<text text-anchor="middle" x="352" y="-121.5" font-family="Helvetica,sans-Serif" font-size="10.00">DAQContainer::SetTriggerRate</text>
</a>
</g>
</g>
<!-- Node18&#45;&gt;Node47 -->
<g id="edge46" class="edge"><title>Node18&#45;&gt;Node47</title>
<path fill="none" stroke="midnightblue" d="M155.116,-578.323C162.122,-519.232 201.89,-207.429 268,-143 269.469,-141.568 271.022,-140.236 272.647,-138.997"/>
<polygon fill="midnightblue" stroke="midnightblue" points="274.706,-141.836 281.3,-133.543 270.974,-135.914 274.706,-141.836"/>
</g>
<!-- Node48 -->
<g id="node48" class="node"><title>Node48</title>
<g id="a_node48"><a xlink:href="class_d_r_s_board.xhtml#a8e73241c9de2ccd85a4d2e18af80e843" target="_top" xlink:title="DRSBoard::SetTriggerSource">
<polygon fill="white" stroke="black" points="279,-76.5 279,-95.5 425,-95.5 425,-76.5 279,-76.5"/>
<text text-anchor="middle" x="352" y="-83.5" font-family="Helvetica,sans-Serif" font-size="10.00">DRSBoard::SetTriggerSource</text>
</a>
</g>
</g>
<!-- Node18&#45;&gt;Node48 -->
<g id="edge47" class="edge"><title>Node18&#45;&gt;Node48</title>
<path fill="none" stroke="midnightblue" d="M154.909,-578.321C160.923,-516.353 196.939,-175.584 268,-105 269.298,-103.711 270.664,-102.502 272.089,-101.368"/>
<polygon fill="midnightblue" stroke="midnightblue" points="274.364,-104.064 280.828,-95.6694 270.54,-98.2006 274.364,-104.064"/>
</g>
<!-- Node49 -->
<g id="node49" class="node"><title>Node49</title>
<g id="a_node49"><a xlink:href="class_d_a_q_container.xhtml#af91a7737b4d359eec0ea987285d715c2" target="_top" xlink:title="DAQContainer::SetTriggerType">
<polygon fill="white" stroke="black" points="275.5,-38.5 275.5,-57.5 428.5,-57.5 428.5,-38.5 275.5,-38.5"/>
<text text-anchor="middle" x="352" y="-45.5" font-family="Helvetica,sans-Serif" font-size="10.00">DAQContainer::SetTriggerType</text>
</a>
</g>
</g>
<!-- Node18&#45;&gt;Node49 -->
<g id="edge48" class="edge"><title>Node18&#45;&gt;Node49</title>
<path fill="none" stroke="midnightblue" d="M154.724,-578.414C159.787,-513.944 191.93,-143.805 268,-67 269.287,-65.7003 270.644,-64.4818 272.061,-63.3397"/>
<polygon fill="midnightblue" stroke="midnightblue" points="274.339,-66.0295 280.759,-57.6012 270.485,-60.1863 274.339,-66.0295"/>
</g>
<!-- Node50 -->
<g id="node50" class="node"><title>Node50</title>
<g id="a_node50"><a xlink:href="_p_d_a_q_2_core_2_source_2xml_8cpp.xhtml#a294ca441881dbf9ed73205366e498465" target="_top" xlink:title="xml_error">
<polygon fill="white" stroke="black" points="323.5,-0.5 323.5,-19.5 380.5,-19.5 380.5,-0.5 323.5,-0.5"/>
<text text-anchor="middle" x="352" y="-7.5" font-family="Helvetica,sans-Serif" font-size="10.00">xml_error</text>
</a>
</g>
</g>
<!-- Node18&#45;&gt;Node50 -->
<g id="edge49" class="edge"><title>Node18&#45;&gt;Node50</title>
<path fill="none" stroke="midnightblue" d="M154.587,-578.162C158.837,-510.301 187.041,-111.914 268,-29 279.691,-17.0268 297.272,-11.9274 313.248,-9.96391"/>
<polygon fill="midnightblue" stroke="midnightblue" points="313.775,-13.4316 323.437,-9.0857 313.174,-6.45747 313.775,-13.4316"/>
</g>
<!-- Node26 -->
<g id="node26" class="node"><title>Node26</title>
<g id="a_node26"><a xlink:href="_c_d_a_q_2_plugins_2_source_2xml_parser_8cpp.xhtml#a8dd6e6cada28ea03e5cacd075b1be7f6" target="_top" xlink:title="xfopen">
<polygon fill="white" stroke="black" points="526,-921.5 526,-940.5 572,-940.5 572,-921.5 526,-921.5"/>
<text text-anchor="middle" x="549" y="-928.5" font-family="Helvetica,sans-Serif" font-size="10.00">xfopen</text>
</a>
</g>
</g>
<!-- Node25&#45;&gt;Node26 -->
<g id="edge25" class="edge"><title>Node25&#45;&gt;Node26</title>
<path fill="none" stroke="midnightblue" d="M401.955,-902.54C437.634,-909.493 484.956,-918.715 515.926,-924.75"/>
<polygon fill="midnightblue" stroke="midnightblue" points="515.277,-928.189 525.762,-926.666 516.616,-921.318 515.277,-928.189"/>
</g>
<!-- Node27 -->
<g id="node27" class="node"><title>Node27</title>
<g id="a_node27"><a xlink:href="struct_x_m_l_node.xhtml#a006cabe59176e05bc5a3f06c0cf6d8c1" target="_top" xlink:title="XMLNode::setGlobalOptions">
<polygon fill="white" stroke="black" points="478.5,-883.5 478.5,-902.5 619.5,-902.5 619.5,-883.5 478.5,-883.5"/>
<text text-anchor="middle" x="549" y="-890.5" font-family="Helvetica,sans-Serif" font-size="10.00">XMLNode::setGlobalOptions</text>
</a>
</g>
</g>
<!-- Node25&#45;&gt;Node27 -->
<g id="edge26" class="edge"><title>Node25&#45;&gt;Node27</title>
<path fill="none" stroke="midnightblue" d="M417.661,-893C433.82,-893 451.341,-893 468.139,-893"/>
<polygon fill="midnightblue" stroke="midnightblue" points="468.487,-896.5 478.487,-893 468.486,-889.5 468.487,-896.5"/>
</g>
<!-- Node28 -->
<g id="node28" class="node"><title>Node28</title>
<g id="a_node28"><a xlink:href="struct_x_m_l_node.xhtml#ac7af7e3bab8d21722dd4f191a4aa7c1d" target="_top" xlink:title="XMLNode::guessCharEncoding">
<polygon fill="white" stroke="red" points="472,-845.5 472,-864.5 626,-864.5 626,-845.5 472,-845.5"/>
<text text-anchor="middle" x="549" y="-852.5" font-family="Helvetica,sans-Serif" font-size="10.00">XMLNode::guessCharEncoding</text>
</a>
</g>
</g>
<!-- Node25&#45;&gt;Node28 -->
<g id="edge27" class="edge"><title>Node25&#45;&gt;Node28</title>
<path fill="none" stroke="midnightblue" d="M401.955,-883.46C428.381,-878.31 461.194,-871.916 489.02,-866.494"/>
<polygon fill="midnightblue" stroke="midnightblue" points="489.879,-869.892 499.025,-864.544 488.54,-863.021 489.879,-869.892"/>
</g>
</g>
</svg>
        <g id="navigator" transform="translate(0 0)" fill="#404254">
                <rect fill="#f2f5e9" fill-opacity="0.5" stroke="#606060" stroke-width=".5" x="0" y="0" width="60" height="60"/>
                <use id="zoomplus" xlink:href="#zoomPlus" x="17" y="9" onmousedown="handleZoom(evt,'in')"/>
                <use id="zoomminus" xlink:href="#zoomMin" x="42" y="9" onmousedown="handleZoom(evt,'out')"/>
                <use id="reset" xlink:href="#resetDef" x="30" y="36" onmousedown="handleReset()"/>
                <g id="arrowUp" xlink:href="#dirArrow" transform="translate(30 24)" onmousedown="handlePan(0,-1)">
                  <use xlink:href="#rim" fill="#404040">
                        <set attributeName="fill" to="#808080" begin="arrowUp.mouseover" end="arrowUp.mouseout"/>
                  </use>
                  <path fill="none" stroke="white" stroke-width="1.5" d="M0,-3.0v7 M-2.5,-0.5L0,-3.0L2.5,-0.5"/>
                </g>
                <g id="arrowRight" xlink:href="#dirArrow" transform="rotate(90) translate(36 -43)" onmousedown="handlePan(1,0)">
                  <use xlink:href="#rim" fill="#404040">
                        <set attributeName="fill" to="#808080" begin="arrowRight.mouseover" end="arrowRight.mouseout"/>
                  </use>
                  <path fill="none" stroke="white" stroke-width="1.5" d="M0,-3.0v7 M-2.5,-0.5L0,-3.0L2.5,-0.5"/>
                </g>
                <g id="arrowDown" xlink:href="#dirArrow" transform="rotate(180) translate(-30 -48)" onmousedown="handlePan(0,1)">
                  <use xlink:href="#rim" fill="#404040">
                        <set attributeName="fill" to="#808080" begin="arrowDown.mouseover" end="arrowDown.mouseout"/>
                  </use>
                  <path fill="none" stroke="white" stroke-width="1.5" d="M0,-3.0v7 M-2.5,-0.5L0,-3.0L2.5,-0.5"/>
                </g>
                <g id="arrowLeft" xlink:href="#dirArrow" transform="rotate(270) translate(-36 17)" onmousedown="handlePan(-1,0)">
                  <use xlink:href="#rim" fill="#404040">
                        <set attributeName="fill" to="#808080" begin="arrowLeft.mouseover" end="arrowLeft.mouseout"/>
                  </use>
                  <path fill="none" stroke="white" stroke-width="1.5" d="M0,-3.0v7 M-2.5,-0.5L0,-3.0L2.5,-0.5"/>
                </g>
        </g>
        <svg viewBox="0 0 15 15" width="100%" height="30px" preserveAspectRatio="xMaxYMin meet">
         <g id="arrow_out" transform="scale(0.3 0.3)">
          <a xlink:href="scaler_8cpp_a0ddf1224851353fc92bfbff6f499fa97_cgraph_org.svg" target="_base">
           <rect id="button" ry="5" rx="5" y="6" x="6" height="38" width="38"
                fill="#f2f5e9" fill-opacity="0.5" stroke="#606060" stroke-width="1.0"/>
           <path id="arrow"
             d="M 11.500037,31.436501 C 11.940474,20.09759 22.043105,11.32322 32.158766,21.979434 L 37.068811,17.246167 C 37.068811,17.246167 37.088388,32 37.088388,32 L 22.160133,31.978069 C 22.160133,31.978069 26.997745,27.140456 26.997745,27.140456 C 18.528582,18.264221 13.291696,25.230495 11.500037,31.436501 z"
             style="fill:#404040;"/>
          </a>
         </g>
        </svg>
</svg>
