<?xml version="1.0" encoding="UTF-8" standalone="no"?>
<!DOCTYPE svg PUBLIC "-//W3C//DTD SVG 1.1//EN"
 "http://www.w3.org/Graphics/SVG/1.1/DTD/svg11.dtd">
<!-- Generated by graphviz version 2.36.0 (20140111.2315)
 -->
<!-- Title: /data/Software/DAQ/Scaler/Application/scaler.cpp Pages: 1 -->
<!--zoomable 162 -->
<svg id="main" version="1.1" xmlns="http://www.w3.org/2000/svg" xmlns:xlink="http://www.w3.org/1999/xlink" xml:space="preserve" onload="init(evt)">
<style type="text/css"><![CDATA[
.edge:hover path { stroke: red; }
.edge:hover polygon { stroke: red; fill: red; }
]]></style>
<script type="text/javascript"><![CDATA[
var edges = document.getElementsByTagName('g');
if (edges && edges.length) {
  for (var i=0;i<edges.length;i++) {
    if (edges[i].id.substr(0,4)=='edge') {
      edges[i].setAttribute('class','edge');
    }
  }
}
]]></script>
        <defs>
                <circle id="rim" cx="0" cy="0" r="7"/>
                <circle id="rim2" cx="0" cy="0" r="3.5"/>
                <g id="zoomPlus">
                        <use xlink:href="#rim" fill="#404040">
                                <set attributeName="fill" to="#808080" begin="zoomplus.mouseover" end="zoomplus.mouseout"/>
                        </use>
                        <path d="M-4,0h8M0,-4v8" fill="none" stroke="white" stroke-width="1.5" pointer-events="none"/>
                </g>
                <g id="zoomMin">
                        <use xlink:href="#rim" fill="#404040">
                                <set attributeName="fill" to="#808080" begin="zoomminus.mouseover" end="zoomminus.mouseout"/>
                        </use>
                        <path d="M-4,0h8" fill="none" stroke="white" stroke-width="1.5" pointer-events="none"/>
                </g>
                <g id="dirArrow">
                        <path fill="none" stroke="white" stroke-width="1.5" d="M0,-3.0v7 M-2.5,-0.5L0,-3.0L2.5,-0.5"/>
                </g>
               <g id="resetDef">
                       <use xlink:href="#rim2" fill="#404040">
                               <set attributeName="fill" to="#808080" begin="reset.mouseover" end="reset.mouseout"/>
                       </use>
               </g>
        </defs>

<script type="text/javascript">
var viewWidth = 1193;
var viewHeight = 162;
var sectionId = 'dynsection-0';
</script>
<script xlink:href="svgpan.js"/>
<svg id="graph" class="graph">
<g id="viewport">
<title>/data/Software/DAQ/Scaler/Application/scaler.cpp</title>
<polygon fill="white" stroke="none" points="-4,4 -4,-158 1189,-158 1189,4 -4,4"/>
<!-- Node1 -->
<g id="node1" class="node"><title>Node1</title>
<polygon fill="#bfbfbf" stroke="black" points="462.5,-112.5 462.5,-153.5 567.5,-153.5 567.5,-112.5 462.5,-112.5"/>
<text text-anchor="start" x="470.5" y="-141.5" font-family="Helvetica,sans-Serif" font-size="10.00">/data/Software/DAQ</text>
<text text-anchor="start" x="470.5" y="-130.5" font-family="Helvetica,sans-Serif" font-size="10.00">/Scaler/Application</text>
<text text-anchor="middle" x="515" y="-119.5" font-family="Helvetica,sans-Serif" font-size="10.00">/scaler.cpp</text>
</g>
<!-- Node2 -->
<g id="node2" class="node"><title>Node2</title>
<polygon fill="white" stroke="#bfbfbf" points="0,-56.5 0,-75.5 54,-75.5 54,-56.5 0,-56.5"/>
<text text-anchor="middle" x="27" y="-63.5" font-family="Helvetica,sans-Serif" font-size="10.00">iostream</text>
</g>
<!-- Node1&#45;&gt;Node2 -->
<g id="edge1" class="edge"><title>Node1&#45;&gt;Node2</title>
<path fill="none" stroke="midnightblue" d="M462.275,-127.438C377.777,-119.683 206.996,-102.179 64,-76 63.8984,-75.9814 63.7966,-75.9627 63.6948,-75.9439"/>
<polygon fill="midnightblue" stroke="midnightblue" points="64.5014,-72.5366 54.0009,-73.9478 63.0895,-79.3928 64.5014,-72.5366"/>
</g>
<!-- Node3 -->
<g id="node3" class="node"><title>Node3</title>
<polygon fill="white" stroke="#bfbfbf" points="72.5,-56.5 72.5,-75.5 123.5,-75.5 123.5,-56.5 72.5,-56.5"/>
<text text-anchor="middle" x="98" y="-63.5" font-family="Helvetica,sans-Serif" font-size="10.00">unistd.h</text>
</g>
<!-- Node1&#45;&gt;Node3 -->
<g id="edge2" class="edge"><title>Node1&#45;&gt;Node3</title>
<path fill="none" stroke="midnightblue" d="M462.485,-126.092C390.515,-117.6 257.073,-100.445 133.554,-75.9111"/>
<polygon fill="midnightblue" stroke="midnightblue" points="134.035,-72.438 123.542,-73.9017 132.658,-79.3011 134.035,-72.438"/>
</g>
<!-- Node4 -->
<g id="node4" class="node"><title>Node4</title>
<polygon fill="white" stroke="#bfbfbf" points="142,-56.5 142,-75.5 192,-75.5 192,-56.5 142,-56.5"/>
<text text-anchor="middle" x="167" y="-63.5" font-family="Helvetica,sans-Serif" font-size="10.00">fstream</text>
</g>
<!-- Node1&#45;&gt;Node4 -->
<g id="edge3" class="edge"><title>Node1&#45;&gt;Node4</title>
<path fill="none" stroke="midnightblue" d="M462.235,-123.95C401.71,-114.413 299.322,-97.3564 202.182,-76.1189"/>
<polygon fill="midnightblue" stroke="midnightblue" points="202.714,-72.652 192.195,-73.9161 201.206,-79.4878 202.714,-72.652"/>
</g>
<!-- Node5 -->
<g id="node5" class="node"><title>Node5</title>
<polygon fill="white" stroke="#bfbfbf" points="210,-56.5 210,-75.5 262,-75.5 262,-56.5 210,-56.5"/>
<text text-anchor="middle" x="236" y="-63.5" font-family="Helvetica,sans-Serif" font-size="10.00">sstream</text>
</g>
<!-- Node1&#45;&gt;Node5 -->
<g id="edge4" class="edge"><title>Node1&#45;&gt;Node5</title>
<path fill="none" stroke="midnightblue" d="M462.074,-120.271C414.81,-109.703 343.436,-93.5115 272.377,-76.2916"/>
<polygon fill="midnightblue" stroke="midnightblue" points="272.899,-72.8165 262.355,-73.8554 271.245,-79.6185 272.899,-72.8165"/>
</g>
<!-- Node6 -->
<g id="node6" class="node"><title>Node6</title>
<polygon fill="white" stroke="#bfbfbf" points="280,-56.5 280,-75.5 324,-75.5 324,-56.5 280,-56.5"/>
<text text-anchor="middle" x="302" y="-63.5" font-family="Helvetica,sans-Serif" font-size="10.00">cmath</text>
</g>
<!-- Node1&#45;&gt;Node6 -->
<g id="edge5" class="edge"><title>Node1&#45;&gt;Node6</title>
<path fill="none" stroke="midnightblue" d="M462.348,-115.933C422.045,-103.633 367.778,-87.0732 333.849,-76.7191"/>
<polygon fill="midnightblue" stroke="midnightblue" points="334.596,-73.2878 324.01,-73.7165 332.553,-79.983 334.596,-73.2878"/>
</g>
<!-- Node7 -->
<g id="node7" class="node"><title>Node7</title>
<polygon fill="white" stroke="#bfbfbf" points="342.5,-56.5 342.5,-75.5 377.5,-75.5 377.5,-56.5 342.5,-56.5"/>
<text text-anchor="middle" x="360" y="-63.5" font-family="Helvetica,sans-Serif" font-size="10.00">map</text>
</g>
<!-- Node1&#45;&gt;Node7 -->
<g id="edge6" class="edge"><title>Node1&#45;&gt;Node7</title>
<path fill="none" stroke="midnightblue" d="M468.495,-112.498C441.929,-101.357 409.546,-87.7774 387.11,-78.3686"/>
<polygon fill="midnightblue" stroke="midnightblue" points="388.429,-75.1267 377.854,-74.4871 385.722,-81.5821 388.429,-75.1267"/>
</g>
<!-- Node8 -->
<g id="node8" class="node"><title>Node8</title>
<polygon fill="white" stroke="#bfbfbf" points="395.5,-56.5 395.5,-75.5 442.5,-75.5 442.5,-56.5 395.5,-56.5"/>
<text text-anchor="middle" x="419" y="-63.5" font-family="Helvetica,sans-Serif" font-size="10.00">math.h</text>
</g>
<!-- Node1&#45;&gt;Node8 -->
<g id="edge7" class="edge"><title>Node1&#45;&gt;Node8</title>
<path fill="none" stroke="midnightblue" d="M486.197,-112.498C471.478,-102.532 453.876,-90.6142 440.38,-81.4764"/>
<polygon fill="midnightblue" stroke="midnightblue" points="442.022,-78.3609 431.779,-75.6525 438.097,-84.1573 442.022,-78.3609"/>
</g>
<!-- Node9 -->
<g id="node9" class="node"><title>Node9</title>
<polygon fill="white" stroke="#bfbfbf" points="345,-0.5 345,-19.5 389,-19.5 389,-0.5 345,-0.5"/>
<text text-anchor="middle" x="367" y="-7.5" font-family="Helvetica,sans-Serif" font-size="10.00">vector</text>
</g>
<!-- Node1&#45;&gt;Node9 -->
<g id="edge8" class="edge"><title>Node1&#45;&gt;Node9</title>
<path fill="none" stroke="midnightblue" d="M501.743,-112.412C489.862,-95.8993 471.231,-72.4056 451,-56 434.78,-42.8468 414.133,-31.7242 397.368,-23.8275"/>
<polygon fill="midnightblue" stroke="midnightblue" points="398.56,-20.5241 388.009,-19.5598 395.655,-26.8932 398.56,-20.5241"/>
</g>
<!-- Node10 -->
<g id="node10" class="node"><title>Node10</title>
<polygon fill="white" stroke="#bfbfbf" points="745,-56.5 745,-75.5 807,-75.5 807,-56.5 745,-56.5"/>
<text text-anchor="middle" x="776" y="-63.5" font-family="Helvetica,sans-Serif" font-size="10.00">sys/time.h</text>
</g>
<!-- Node1&#45;&gt;Node10 -->
<g id="edge9" class="edge"><title>Node1&#45;&gt;Node10</title>
<path fill="none" stroke="midnightblue" d="M567.503,-118.924C616.91,-106.62 689.875,-88.4488 735.094,-77.1872"/>
<polygon fill="midnightblue" stroke="midnightblue" points="735.998,-80.5691 744.856,-74.7562 734.306,-73.7766 735.998,-80.5691"/>
</g>
<!-- Node11 -->
<g id="node11" class="node"><title>Node11</title>
<polygon fill="white" stroke="#bfbfbf" points="825.5,-56.5 825.5,-75.5 866.5,-75.5 866.5,-56.5 825.5,-56.5"/>
<text text-anchor="middle" x="846" y="-63.5" font-family="Helvetica,sans-Serif" font-size="10.00">string</text>
</g>
<!-- Node1&#45;&gt;Node11 -->
<g id="edge10" class="edge"><title>Node1&#45;&gt;Node11</title>
<path fill="none" stroke="midnightblue" d="M567.625,-123.782C627.786,-114.016 729.049,-96.4468 815,-76 815.211,-75.9497 815.423,-75.8989 815.636,-75.8476"/>
<polygon fill="midnightblue" stroke="midnightblue" points="816.613,-79.2097 825.398,-73.2866 814.837,-72.4388 816.613,-79.2097"/>
</g>
<!-- Node12 -->
<g id="node12" class="node"><title>Node12</title>
<polygon fill="white" stroke="#bfbfbf" points="885,-56.5 885,-75.5 955,-75.5 955,-56.5 885,-56.5"/>
<text text-anchor="middle" x="920" y="-63.5" font-family="Helvetica,sans-Serif" font-size="10.00">Riostream.h</text>
</g>
<!-- Node1&#45;&gt;Node12 -->
<g id="edge11" class="edge"><title>Node1&#45;&gt;Node12</title>
<path fill="none" stroke="midnightblue" d="M567.583,-124.545C635.817,-114.71 758.801,-96.4378 874.553,-76.0102"/>
<polygon fill="midnightblue" stroke="midnightblue" points="875.419,-79.4113 884.654,-74.2187 874.196,-72.5189 875.419,-79.4113"/>
</g>
<!-- Node13 -->
<g id="node13" class="node"><title>Node13</title>
<polygon fill="white" stroke="#bfbfbf" points="973.5,-56.5 973.5,-75.5 1014.5,-75.5 1014.5,-56.5 973.5,-56.5"/>
<text text-anchor="middle" x="994" y="-63.5" font-family="Helvetica,sans-Serif" font-size="10.00">xml.h</text>
</g>
<!-- Node1&#45;&gt;Node13 -->
<g id="edge12" class="edge"><title>Node1&#45;&gt;Node13</title>
<path fill="none" stroke="midnightblue" d="M567.665,-128.305C650.133,-121.892 814.766,-106.565 963.252,-75.801"/>
<polygon fill="midnightblue" stroke="midnightblue" points="964.394,-79.1376 973.46,-73.6559 962.954,-72.2872 964.394,-79.1376"/>
</g>
<!-- Node14 -->
<g id="node14" class="node"><title>Node14</title>
<polygon fill="white" stroke="#bfbfbf" points="1033,-56.5 1033,-75.5 1083,-75.5 1083,-56.5 1033,-56.5"/>
<text text-anchor="middle" x="1058" y="-63.5" font-family="Helvetica,sans-Serif" font-size="10.00">global.h</text>
</g>
<!-- Node1&#45;&gt;Node14 -->
<g id="edge13" class="edge"><title>Node1&#45;&gt;Node14</title>
<path fill="none" stroke="midnightblue" d="M567.644,-128.669C660.285,-122.26 858.253,-106.105 1023,-76 1023.1,-75.9817 1023.2,-75.9632 1023.3,-75.9446"/>
<polygon fill="midnightblue" stroke="midnightblue" points="1023.8,-79.4163 1032.86,-73.9196 1022.35,-72.5683 1023.8,-79.4163"/>
</g>
<!-- Node15 -->
<g id="node15" class="node"><title>Node15</title>
<polygon fill="white" stroke="#bfbfbf" points="1101,-56.5 1101,-75.5 1185,-75.5 1185,-56.5 1101,-56.5"/>
<text text-anchor="middle" x="1143" y="-63.5" font-family="Helvetica,sans-Serif" font-size="10.00">VMEManager.h</text>
</g>
<!-- Node1&#45;&gt;Node15 -->
<g id="edge14" class="edge"><title>Node1&#45;&gt;Node15</title>
<path fill="none" stroke="midnightblue" d="M567.667,-128.27C667.635,-120.888 891.934,-102.891 1090.7,-76.0844"/>
<polygon fill="midnightblue" stroke="midnightblue" points="1091.3,-79.5342 1100.74,-74.7192 1090.36,-72.598 1091.3,-79.5342"/>
</g>
<!-- Node16 -->
<g id="node16" class="node"><title>Node16</title>
<g id="a_node16"><a xlink:href="_discriminator_manager_8h.xhtml" target="_top" xlink:title="DiscriminatorManager.h">
<polygon fill="white" stroke="black" points="499,-56.5 499,-75.5 619,-75.5 619,-56.5 499,-56.5"/>
<text text-anchor="middle" x="559" y="-63.5" font-family="Helvetica,sans-Serif" font-size="10.00">DiscriminatorManager.h</text>
</a>
</g>
</g>
<!-- Node1&#45;&gt;Node16 -->
<g id="edge15" class="edge"><title>Node1&#45;&gt;Node16</title>
<path fill="none" stroke="midnightblue" d="M528.201,-112.498C534.299,-103.49 541.476,-92.8881 547.367,-84.1852"/>
<polygon fill="midnightblue" stroke="midnightblue" points="550.436,-85.8956 553.143,-75.6525 544.639,-81.9716 550.436,-85.8956"/>
</g>
<!-- Node24 -->
<g id="node24" class="node"><title>Node24</title>
<g id="a_node24"><a xlink:href="_scaler_manager_8h.xhtml" target="_top" xlink:title="ScalerManager.h">
<polygon fill="white" stroke="black" points="637,-56.5 637,-75.5 727,-75.5 727,-56.5 637,-56.5"/>
<text text-anchor="middle" x="682" y="-63.5" font-family="Helvetica,sans-Serif" font-size="10.00">ScalerManager.h</text>
</a>
</g>
</g>
<!-- Node1&#45;&gt;Node24 -->
<g id="edge24" class="edge"><title>Node1&#45;&gt;Node24</title>
<path fill="none" stroke="midnightblue" d="M565.106,-112.498C592.802,-101.718 626.368,-88.6531 650.414,-79.2941"/>
<polygon fill="midnightblue" stroke="midnightblue" points="651.72,-82.5414 659.77,-75.6525 649.181,-76.0181 651.72,-82.5414"/>
</g>
<!-- Node16&#45;&gt;Node9 -->
<g id="edge21" class="edge"><title>Node16&#45;&gt;Node9</title>
<path fill="none" stroke="midnightblue" d="M528.109,-56.4648C497.643,-48.025 449.497,-34.6298 398.831,-20.2171"/>
<polygon fill="midnightblue" stroke="midnightblue" points="399.584,-16.7924 389.008,-17.4188 397.666,-23.5245 399.584,-16.7924"/>
</g>
<!-- Node17 -->
<g id="node17" class="node"><title>Node17</title>
<polygon fill="white" stroke="#bfbfbf" points="842.5,-0.5 842.5,-19.5 891.5,-19.5 891.5,-0.5 842.5,-0.5"/>
<text text-anchor="middle" x="867" y="-7.5" font-family="Helvetica,sans-Serif" font-size="10.00">string.h</text>
</g>
<!-- Node16&#45;&gt;Node17 -->
<g id="edge16" class="edge"><title>Node16&#45;&gt;Node17</title>
<path fill="none" stroke="midnightblue" d="M619.176,-56.8136C672.614,-49.1594 753.007,-36.7068 832.051,-20.0267"/>
<polygon fill="midnightblue" stroke="midnightblue" points="833.135,-23.3743 842.184,-17.8633 831.673,-16.5286 833.135,-23.3743"/>
</g>
<!-- Node18 -->
<g id="node18" class="node"><title>Node18</title>
<polygon fill="white" stroke="#bfbfbf" points="407,-0.5 407,-19.5 453,-19.5 453,-0.5 407,-0.5"/>
<text text-anchor="middle" x="430" y="-7.5" font-family="Helvetica,sans-Serif" font-size="10.00">stdio.h</text>
</g>
<!-- Node16&#45;&gt;Node18 -->
<g id="edge17" class="edge"><title>Node16&#45;&gt;Node18</title>
<path fill="none" stroke="midnightblue" d="M538.56,-56.4435C517.33,-47.5566 483.901,-33.5632 459.745,-23.4514"/>
<polygon fill="midnightblue" stroke="midnightblue" points="460.921,-20.1493 450.345,-19.5164 458.218,-26.6064 460.921,-20.1493"/>
</g>
<!-- Node19 -->
<g id="node19" class="node"><title>Node19</title>
<polygon fill="white" stroke="#bfbfbf" points="471,-0.5 471,-19.5 519,-19.5 519,-0.5 471,-0.5"/>
<text text-anchor="middle" x="495" y="-7.5" font-family="Helvetica,sans-Serif" font-size="10.00">stdlib.h</text>
</g>
<!-- Node16&#45;&gt;Node19 -->
<g id="edge18" class="edge"><title>Node16&#45;&gt;Node19</title>
<path fill="none" stroke="midnightblue" d="M548.717,-56.324C539.164,-48.2631 524.72,-36.0765 513.216,-26.3695"/>
<polygon fill="midnightblue" stroke="midnightblue" points="515.37,-23.6076 505.47,-19.8339 510.856,-28.9577 515.37,-23.6076"/>
</g>
<!-- Node20 -->
<g id="node20" class="node"><title>Node20</title>
<polygon fill="white" stroke="#bfbfbf" points="537,-0.5 537,-19.5 581,-19.5 581,-0.5 537,-0.5"/>
<text text-anchor="middle" x="559" y="-7.5" font-family="Helvetica,sans-Serif" font-size="10.00">time.h</text>
</g>
<!-- Node16&#45;&gt;Node20 -->
<g id="edge19" class="edge"><title>Node16&#45;&gt;Node20</title>
<path fill="none" stroke="midnightblue" d="M559,-56.083C559,-49.0059 559,-38.8611 559,-29.9865"/>
<polygon fill="midnightblue" stroke="midnightblue" points="562.5,-29.751 559,-19.7511 555.5,-29.7511 562.5,-29.751"/>
</g>
<!-- Node21 -->
<g id="node21" class="node"><title>Node21</title>
<polygon fill="white" stroke="#bfbfbf" points="599.5,-0.5 599.5,-19.5 684.5,-19.5 684.5,-0.5 599.5,-0.5"/>
<text text-anchor="middle" x="642" y="-7.5" font-family="Helvetica,sans-Serif" font-size="10.00">CAENVMElib.h</text>
</g>
<!-- Node16&#45;&gt;Node21 -->
<g id="edge20" class="edge"><title>Node16&#45;&gt;Node21</title>
<path fill="none" stroke="midnightblue" d="M572.335,-56.324C585.162,-47.979 604.785,-35.2122 619.94,-25.3524"/>
<polygon fill="midnightblue" stroke="midnightblue" points="622.224,-28.0417 628.698,-19.6545 618.407,-22.1742 622.224,-28.0417"/>
</g>
<!-- Node22 -->
<g id="node22" class="node"><title>Node22</title>
<polygon fill="white" stroke="#bfbfbf" points="703,-0.5 703,-19.5 755,-19.5 755,-0.5 703,-0.5"/>
<text text-anchor="middle" x="729" y="-7.5" font-family="Helvetica,sans-Serif" font-size="10.00">memory</text>
</g>
<!-- Node16&#45;&gt;Node22 -->
<g id="edge22" class="edge"><title>Node16&#45;&gt;Node22</title>
<path fill="none" stroke="midnightblue" d="M585.937,-56.4435C614.829,-47.2659 660.866,-32.6424 692.884,-22.472"/>
<polygon fill="midnightblue" stroke="midnightblue" points="694.277,-25.7022 702.748,-19.339 692.157,-19.0307 694.277,-25.7022"/>
</g>
<!-- Node23 -->
<g id="node23" class="node"><title>Node23</title>
<polygon fill="white" stroke="#bfbfbf" points="773.5,-0.5 773.5,-19.5 824.5,-19.5 824.5,-0.5 773.5,-0.5"/>
<text text-anchor="middle" x="799" y="-7.5" font-family="Helvetica,sans-Serif" font-size="10.00">typeinfo</text>
</g>
<!-- Node16&#45;&gt;Node23 -->
<g id="edge23" class="edge"><title>Node16&#45;&gt;Node23</title>
<path fill="none" stroke="midnightblue" d="M599.938,-56.462C639.282,-48.1563 700.657,-34.9399 763.343,-20.0888"/>
<polygon fill="midnightblue" stroke="midnightblue" points="764.494,-23.4127 773.412,-17.6918 762.873,-16.603 764.494,-23.4127"/>
</g>
<!-- Node24&#45;&gt;Node9 -->
<g id="edge30" class="edge"><title>Node24&#45;&gt;Node9</title>
<path fill="none" stroke="midnightblue" d="M636.981,-57.6096C633.604,-57.0625 630.248,-56.5211 627,-56 528.452,-40.191 500.304,-42.2557 399.273,-20.055"/>
<polygon fill="midnightblue" stroke="midnightblue" points="399.785,-16.5834 389.264,-17.8294 398.266,-23.4166 399.785,-16.5834"/>
</g>
<!-- Node24&#45;&gt;Node17 -->
<g id="edge25" class="edge"><title>Node24&#45;&gt;Node17</title>
<path fill="none" stroke="midnightblue" d="M711.314,-56.4435C744.233,-46.8346 797.605,-31.2558 832.506,-21.0686"/>
<polygon fill="midnightblue" stroke="midnightblue" points="833.645,-24.3822 842.264,-18.2203 831.684,-17.6626 833.645,-24.3822"/>
</g>
<!-- Node24&#45;&gt;Node18 -->
<g id="edge26" class="edge"><title>Node24&#45;&gt;Node18</title>
<path fill="none" stroke="midnightblue" d="M636.704,-56.7283C594.254,-48.7545 528.828,-35.8986 463.136,-20.139"/>
<polygon fill="midnightblue" stroke="midnightblue" points="463.562,-16.6412 453.02,-17.6892 461.915,-23.4446 463.562,-16.6412"/>
</g>
<!-- Node24&#45;&gt;Node19 -->
<g id="edge27" class="edge"><title>Node24&#45;&gt;Node19</title>
<path fill="none" stroke="midnightblue" d="M652.369,-56.4435C618.813,-46.7534 564.232,-30.9921 528.977,-20.8115"/>
<polygon fill="midnightblue" stroke="midnightblue" points="529.719,-17.3828 519.14,-17.971 527.777,-24.108 529.719,-17.3828"/>
</g>
<!-- Node24&#45;&gt;Node20 -->
<g id="edge28" class="edge"><title>Node24&#45;&gt;Node20</title>
<path fill="none" stroke="midnightblue" d="M662.51,-56.4435C642.358,-47.5961 610.677,-33.6875 587.669,-23.5865"/>
<polygon fill="midnightblue" stroke="midnightblue" points="588.962,-20.3316 578.399,-19.5164 586.148,-26.7411 588.962,-20.3316"/>
</g>
<!-- Node24&#45;&gt;Node21 -->
<g id="edge29" class="edge"><title>Node24&#45;&gt;Node21</title>
<path fill="none" stroke="midnightblue" d="M675.395,-56.083C669.745,-48.4554 661.455,-37.2645 654.549,-27.9408"/>
<polygon fill="midnightblue" stroke="midnightblue" points="657.247,-25.7034 648.482,-19.7511 651.622,-29.87 657.247,-25.7034"/>
</g>
<!-- Node24&#45;&gt;Node22 -->
<g id="edge31" class="edge"><title>Node24&#45;&gt;Node22</title>
<path fill="none" stroke="midnightblue" d="M689.761,-56.083C696.537,-48.2982 706.543,-36.8015 714.755,-27.3665"/>
<polygon fill="midnightblue" stroke="midnightblue" points="717.458,-29.592 721.383,-19.7511 712.178,-24.9963 717.458,-29.592"/>
</g>
<!-- Node24&#45;&gt;Node23 -->
<g id="edge32" class="edge"><title>Node24&#45;&gt;Node23</title>
<path fill="none" stroke="midnightblue" d="M700.539,-56.4435C719.623,-47.6356 749.575,-33.8116 771.436,-23.722"/>
<polygon fill="midnightblue" stroke="midnightblue" points="772.935,-26.8849 780.548,-19.5164 770.001,-20.5292 772.935,-26.8849"/>
</g>
<!-- Node25 -->
<g id="node25" class="node"><title>Node25</title>
<polygon fill="white" stroke="#bfbfbf" points="910,-0.5 910,-19.5 956,-19.5 956,-0.5 910,-0.5"/>
<text text-anchor="middle" x="933" y="-7.5" font-family="Helvetica,sans-Serif" font-size="10.00">keyb.h</text>
</g>
<!-- Node24&#45;&gt;Node25 -->
<g id="edge33" class="edge"><title>Node24&#45;&gt;Node25</title>
<path fill="none" stroke="midnightblue" d="M727.275,-56.5133C771.495,-48.0223 840.618,-34.2117 900,-20 900.101,-19.9758 900.202,-19.9515 900.304,-19.9272"/>
<polygon fill="midnightblue" stroke="midnightblue" points="901.134,-23.3275 909.968,-17.4791 899.415,-16.5418 901.134,-23.3275"/>
</g>
<!-- Node26 -->
<g id="node26" class="node"><title>Node26</title>
<polygon fill="white" stroke="#bfbfbf" points="974,-0.5 974,-19.5 1036,-19.5 1036,-0.5 974,-0.5"/>
<text text-anchor="middle" x="1005" y="-7.5" font-family="Helvetica,sans-Serif" font-size="10.00">common.h</text>
</g>
<!-- Node24&#45;&gt;Node26 -->
<g id="edge34" class="edge"><title>Node24&#45;&gt;Node26</title>
<path fill="none" stroke="midnightblue" d="M727.076,-57.4554C730.096,-56.9599 733.092,-56.471 736,-56 834.525,-40.0457 862.095,-39.3474 963.544,-20.1827"/>
<polygon fill="midnightblue" stroke="midnightblue" points="964.428,-23.5774 973.598,-18.2693 963.12,-16.7008 964.428,-23.5774"/>
</g>
</g>
</svg>
        <g id="navigator" transform="translate(0 0)" fill="#404254">
                <rect fill="#f2f5e9" fill-opacity="0.5" stroke="#606060" stroke-width=".5" x="0" y="0" width="60" height="60"/>
                <use id="zoomplus" xlink:href="#zoomPlus" x="17" y="9" onmousedown="handleZoom(evt,'in')"/>
                <use id="zoomminus" xlink:href="#zoomMin" x="42" y="9" onmousedown="handleZoom(evt,'out')"/>
                <use id="reset" xlink:href="#resetDef" x="30" y="36" onmousedown="handleReset()"/>
                <g id="arrowUp" xlink:href="#dirArrow" transform="translate(30 24)" onmousedown="handlePan(0,-1)">
                  <use xlink:href="#rim" fill="#404040">
                        <set attributeName="fill" to="#808080" begin="arrowUp.mouseover" end="arrowUp.mouseout"/>
                  </use>
                  <path fill="none" stroke="white" stroke-width="1.5" d="M0,-3.0v7 M-2.5,-0.5L0,-3.0L2.5,-0.5"/>
                </g>
                <g id="arrowRight" xlink:href="#dirArrow" transform="rotate(90) translate(36 -43)" onmousedown="handlePan(1,0)">
                  <use xlink:href="#rim" fill="#404040">
                        <set attributeName="fill" to="#808080" begin="arrowRight.mouseover" end="arrowRight.mouseout"/>
                  </use>
                  <path fill="none" stroke="white" stroke-width="1.5" d="M0,-3.0v7 M-2.5,-0.5L0,-3.0L2.5,-0.5"/>
                </g>
                <g id="arrowDown" xlink:href="#dirArrow" transform="rotate(180) translate(-30 -48)" onmousedown="handlePan(0,1)">
                  <use xlink:href="#rim" fill="#404040">
                        <set attributeName="fill" to="#808080" begin="arrowDown.mouseover" end="arrowDown.mouseout"/>
                  </use>
                  <path fill="none" stroke="white" stroke-width="1.5" d="M0,-3.0v7 M-2.5,-0.5L0,-3.0L2.5,-0.5"/>
                </g>
                <g id="arrowLeft" xlink:href="#dirArrow" transform="rotate(270) translate(-36 17)" onmousedown="handlePan(-1,0)">
                  <use xlink:href="#rim" fill="#404040">
                        <set attributeName="fill" to="#808080" begin="arrowLeft.mouseover" end="arrowLeft.mouseout"/>
                  </use>
                  <path fill="none" stroke="white" stroke-width="1.5" d="M0,-3.0v7 M-2.5,-0.5L0,-3.0L2.5,-0.5"/>
                </g>
        </g>
        <svg viewBox="0 0 15 15" width="100%" height="30px" preserveAspectRatio="xMaxYMin meet">
         <g id="arrow_out" transform="scale(0.3 0.3)">
          <a xlink:href="scaler_8cpp__incl_org.svg" target="_base">
           <rect id="button" ry="5" rx="5" y="6" x="6" height="38" width="38"
                fill="#f2f5e9" fill-opacity="0.5" stroke="#606060" stroke-width="1.0"/>
           <path id="arrow"
             d="M 11.500037,31.436501 C 11.940474,20.09759 22.043105,11.32322 32.158766,21.979434 L 37.068811,17.246167 C 37.068811,17.246167 37.088388,32 37.088388,32 L 22.160133,31.978069 C 22.160133,31.978069 26.997745,27.140456 26.997745,27.140456 C 18.528582,18.264221 13.291696,25.230495 11.500037,31.436501 z"
             style="fill:#404040;"/>
          </a>
         </g>
        </svg>
</svg>
