<?xml version="1.0" encoding="UTF-8" standalone="no"?>
<!DOCTYPE svg PUBLIC "-//W3C//DTD SVG 1.1//EN"
 "http://www.w3.org/Graphics/SVG/1.1/DTD/svg11.dtd">
<!-- Generated by graphviz version 2.36.0 (20140111.2315)
 -->
<!-- Title: strlcpy Pages: 1 -->
<!--zoomable 528 -->
<svg id="main" version="1.1" xmlns="http://www.w3.org/2000/svg" xmlns:xlink="http://www.w3.org/1999/xlink" xml:space="preserve" onload="init(evt)">
<style type="text/css"><![CDATA[
.edge:hover path { stroke: red; }
.edge:hover polygon { stroke: red; fill: red; }
]]></style>
<script type="text/javascript"><![CDATA[
var edges = document.getElementsByTagName('g');
if (edges && edges.length) {
  for (var i=0;i<edges.length;i++) {
    if (edges[i].id.substr(0,4)=='edge') {
      edges[i].setAttribute('class','edge');
    }
  }
}
]]></script>
        <defs>
                <circle id="rim" cx="0" cy="0" r="7"/>
                <circle id="rim2" cx="0" cy="0" r="3.5"/>
                <g id="zoomPlus">
                        <use xlink:href="#rim" fill="#404040">
                                <set attributeName="fill" to="#808080" begin="zoomplus.mouseover" end="zoomplus.mouseout"/>
                        </use>
                        <path d="M-4,0h8M0,-4v8" fill="none" stroke="white" stroke-width="1.5" pointer-events="none"/>
                </g>
                <g id="zoomMin">
                        <use xlink:href="#rim" fill="#404040">
                                <set attributeName="fill" to="#808080" begin="zoomminus.mouseover" end="zoomminus.mouseout"/>
                        </use>
                        <path d="M-4,0h8" fill="none" stroke="white" stroke-width="1.5" pointer-events="none"/>
                </g>
                <g id="dirArrow">
                        <path fill="none" stroke="white" stroke-width="1.5" d="M0,-3.0v7 M-2.5,-0.5L0,-3.0L2.5,-0.5"/>
                </g>
               <g id="resetDef">
                       <use xlink:href="#rim2" fill="#404040">
                               <set attributeName="fill" to="#808080" begin="reset.mouseover" end="reset.mouseout"/>
                       </use>
               </g>
        </defs>

<script type="text/javascript">
var viewWidth = 874;
var viewHeight = 528;
var sectionId = 'dynsection-2';
</script>
<script xlink:href="svgpan.js"/>
<svg id="graph" class="graph">
<g id="viewport">
<title>strlcpy</title>
<polygon fill="white" stroke="none" points="-4,4 -4,-523.958 870,-523.958 870,4 -4,4"/>
<!-- Node1 -->
<g id="node1" class="node"><title>Node1</title>
<polygon fill="#bfbfbf" stroke="black" points="0,-203.458 0,-222.458 46,-222.458 46,-203.458 0,-203.458"/>
<text text-anchor="middle" x="23" y="-210.458" font-family="Helvetica,sans-Serif" font-size="10.00">strlcpy</text>
</g>
<!-- Node2 -->
<g id="node2" class="node"><title>Node2</title>
<g id="a_node2"><a xlink:href="class_d_r_s.xhtml#a60c67f755b90e211f1f10c549a2f16b7" target="_top" xlink:title="DRS::GetError">
<polygon fill="white" stroke="black" points="115.5,-450.458 115.5,-469.458 196.5,-469.458 196.5,-450.458 115.5,-450.458"/>
<text text-anchor="middle" x="156" y="-457.458" font-family="Helvetica,sans-Serif" font-size="10.00">DRS::GetError</text>
</a>
</g>
</g>
<!-- Node1&#45;&gt;Node2 -->
<g id="edge1" class="edge"><title>Node1&#45;&gt;Node2</title>
<path fill="none" stroke="midnightblue" d="M23.2406,-232.714C22.7011,-275.593 27.5772,-377.983 82,-435.958 90.7656,-445.296 103.223,-451.005 115.37,-454.494"/>
<polygon fill="midnightblue" stroke="midnightblue" points="26.7447,-232.584 23.4915,-222.501 19.7469,-232.412 26.7447,-232.584"/>
</g>
<!-- Node3 -->
<g id="node3" class="node"><title>Node3</title>
<g id="a_node3"><a xlink:href="mxml_8c.xhtml#a15f4b76ba97d02c8bc1009a416eb51db" target="_top" xlink:title="mxml_add_attribute">
<polygon fill="white" stroke="black" points="277,-222.458 277,-241.458 379,-241.458 379,-222.458 277,-222.458"/>
<text text-anchor="middle" x="328" y="-229.458" font-family="Helvetica,sans-Serif" font-size="10.00">mxml_add_attribute</text>
</a>
</g>
</g>
<!-- Node1&#45;&gt;Node3 -->
<g id="edge2" class="edge"><title>Node1&#45;&gt;Node3</title>
<path fill="none" stroke="midnightblue" d="M56.4273,-214.991C109.269,-218.305 214.317,-224.892 276.839,-228.813"/>
<polygon fill="midnightblue" stroke="midnightblue" points="56.4798,-211.488 46.2803,-214.355 56.0416,-218.474 56.4798,-211.488"/>
</g>
<!-- Node6 -->
<g id="node6" class="node"><title>Node6</title>
<g id="a_node6"><a xlink:href="mxml_8c.xhtml#a0ebae029488c0bca9001b86916abe5ca" target="_top" xlink:title="mxml_parse_file">
<polygon fill="white" stroke="black" points="578,-89.458 578,-108.458 666,-108.458 666,-89.458 578,-89.458"/>
<text text-anchor="middle" x="622" y="-96.458" font-family="Helvetica,sans-Serif" font-size="10.00">mxml_parse_file</text>
</a>
</g>
</g>
<!-- Node1&#45;&gt;Node6 -->
<g id="edge34" class="edge"><title>Node1&#45;&gt;Node6</title>
<path fill="none" stroke="midnightblue" d="M24.8182,-193.22C27.4114,-159.419 38.1125,-91.1856 82,-60.958 246.712,52.4874 336.057,-20.8778 532,-60.958 558.501,-66.3788 586.87,-80.0111 604.276,-89.3824"/>
<polygon fill="midnightblue" stroke="midnightblue" points="21.3213,-193.065 24.2134,-203.258 28.3086,-193.486 21.3213,-193.065"/>
</g>
<!-- Node8 -->
<g id="node8" class="node"><title>Node8</title>
<g id="a_node8"><a xlink:href="mxml_8c.xhtml#ad030ed9e4ac1bdcf7cda84301f87aa04" target="_top" xlink:title="mxml_add_special_node_at">
<polygon fill="white" stroke="black" points="87.5,-184.458 87.5,-203.458 224.5,-203.458 224.5,-184.458 87.5,-184.458"/>
<text text-anchor="middle" x="156" y="-191.458" font-family="Helvetica,sans-Serif" font-size="10.00">mxml_add_special_node_at</text>
</a>
</g>
</g>
<!-- Node1&#45;&gt;Node8 -->
<g id="edge7" class="edge"><title>Node1&#45;&gt;Node8</title>
<path fill="none" stroke="midnightblue" d="M56.1824,-208.29C66.3001,-206.823 77.8633,-205.146 89.4295,-203.468"/>
<polygon fill="midnightblue" stroke="midnightblue" points="55.6164,-204.836 46.2224,-209.735 56.6212,-211.763 55.6164,-204.836"/>
</g>
<!-- Node12 -->
<g id="node12" class="node"><title>Node12</title>
<g id="a_node12"><a xlink:href="mxml_8c.xhtml#acd5df9d9cc5b5f2f75c06585d7867488" target="_top" xlink:title="mxml_encode">
<polygon fill="white" stroke="black" points="117.5,-374.458 117.5,-393.458 194.5,-393.458 194.5,-374.458 117.5,-374.458"/>
<text text-anchor="middle" x="156" y="-381.458" font-family="Helvetica,sans-Serif" font-size="10.00">mxml_encode</text>
</a>
</g>
</g>
<!-- Node1&#45;&gt;Node12 -->
<g id="edge13" class="edge"><title>Node1&#45;&gt;Node12</title>
<path fill="none" stroke="midnightblue" d="M37.7016,-230.947C49.4438,-246.354 66.8157,-269.13 82,-288.958 105.901,-320.17 134.3,-357.076 147.528,-374.256"/>
<polygon fill="midnightblue" stroke="midnightblue" points="40.3421,-228.637 31.4976,-222.804 34.7741,-232.88 40.3421,-228.637"/>
</g>
<!-- Node13 -->
<g id="node13" class="node"><title>Node13</title>
<g id="a_node13"><a xlink:href="mxml_8c.xhtml#a43879e9508767beaf57424ec1393f661" target="_top" xlink:title="mxml_start_element1">
<polygon fill="white" stroke="black" points="273,-450.458 273,-469.458 383,-469.458 383,-450.458 273,-450.458"/>
<text text-anchor="middle" x="328" y="-457.458" font-family="Helvetica,sans-Serif" font-size="10.00">mxml_start_element1</text>
</a>
</g>
</g>
<!-- Node1&#45;&gt;Node13 -->
<g id="edge37" class="edge"><title>Node1&#45;&gt;Node13</title>
<path fill="none" stroke="midnightblue" d="M23.9571,-232.992C25.0182,-271.772 33.1306,-357.29 82,-402.958 89.3087,-409.788 211.692,-436.047 280.659,-450.419"/>
<polygon fill="midnightblue" stroke="midnightblue" points="27.4509,-232.505 23.8168,-222.553 20.4516,-232.599 27.4509,-232.505"/>
</g>
<!-- Node21 -->
<g id="node21" class="node"><title>Node21</title>
<g id="a_node21"><a xlink:href="mxml_8c.xhtml#ab4b547074c15b19eae1b6f16050c75d9" target="_top" xlink:title="mxml_find_nodes1">
<polygon fill="white" stroke="black" points="107,-260.458 107,-279.458 205,-279.458 205,-260.458 107,-260.458"/>
<text text-anchor="middle" x="156" y="-267.458" font-family="Helvetica,sans-Serif" font-size="10.00">mxml_find_nodes1</text>
</a>
</g>
</g>
<!-- Node1&#45;&gt;Node21 -->
<g id="edge25" class="edge"><title>Node1&#45;&gt;Node21</title>
<path fill="none" stroke="midnightblue" d="M47.6397,-227.832C57.9478,-233.941 70.3242,-240.779 82,-245.958 94.5611,-251.529 108.832,-256.503 121.403,-260.457"/>
<polygon fill="midnightblue" stroke="midnightblue" points="49.2002,-224.686 38.834,-222.496 45.5725,-230.672 49.2002,-224.686"/>
</g>
<!-- Node26 -->
<g id="node26" class="node"><title>Node26</title>
<g id="a_node26"><a xlink:href="mxml_8c.xhtml#a595fcbc469797e35a18099dc53cdbb11" target="_top" xlink:title="mxml_replace_attribute_name">
<polygon fill="white" stroke="black" points="82.5,-108.458 82.5,-127.458 229.5,-127.458 229.5,-108.458 82.5,-108.458"/>
<text text-anchor="middle" x="156" y="-115.458" font-family="Helvetica,sans-Serif" font-size="10.00">mxml_replace_attribute_name</text>
</a>
</g>
</g>
<!-- Node1&#45;&gt;Node26 -->
<g id="edge35" class="edge"><title>Node1&#45;&gt;Node26</title>
<path fill="none" stroke="midnightblue" d="M34.6998,-194.675C44.9505,-178.652 61.8186,-155.816 82,-141.958 91.0181,-135.765 101.749,-131.078 112.17,-127.566"/>
<polygon fill="midnightblue" stroke="midnightblue" points="31.7126,-192.851 29.4539,-203.203 37.6748,-196.519 31.7126,-192.851"/>
</g>
<!-- Node27 -->
<g id="node27" class="node"><title>Node27</title>
<g id="a_node27"><a xlink:href="mxml_8c.xhtml#a8a4449328097653273b0295330fb0a44" target="_top" xlink:title="mxml_replace_node_name">
<polygon fill="white" stroke="black" points="89.5,-70.458 89.5,-89.458 222.5,-89.458 222.5,-70.458 89.5,-70.458"/>
<text text-anchor="middle" x="156" y="-77.458" font-family="Helvetica,sans-Serif" font-size="10.00">mxml_replace_node_name</text>
</a>
</g>
</g>
<!-- Node1&#45;&gt;Node27 -->
<g id="edge36" class="edge"><title>Node1&#45;&gt;Node27</title>
<path fill="none" stroke="midnightblue" d="M28.6399,-193.296C35.7183,-167.689 51.704,-123.327 82,-98.958 86.7961,-95.1003 92.2917,-92.0186 98.0683,-89.5581"/>
<polygon fill="midnightblue" stroke="midnightblue" points="25.1665,-192.75 26.0651,-203.307 31.9458,-194.494 25.1665,-192.75"/>
</g>
<!-- Node28 -->
<g id="node28" class="node"><title>Node28</title>
<g id="a_node28"><a xlink:href="mxml_8c.xhtml#a7a11f9a05fffb677a2d8d189f4b3f370" target="_top" xlink:title="read_error">
<polygon fill="white" stroke="black" points="298,-70.458 298,-89.458 358,-89.458 358,-70.458 298,-70.458"/>
<text text-anchor="middle" x="328" y="-77.458" font-family="Helvetica,sans-Serif" font-size="10.00">read_error</text>
</a>
</g>
</g>
<!-- Node1&#45;&gt;Node28 -->
<g id="edge38" class="edge"><title>Node1&#45;&gt;Node28</title>
<path fill="none" stroke="midnightblue" d="M44.4423,-197.177C55.1435,-189.551 68.7499,-180.806 82,-174.958 144.129,-147.536 171.47,-171.399 230,-136.958 250.051,-125.16 246.254,-111.26 266,-98.958 275.603,-92.9752 287.237,-88.7437 297.76,-85.8176"/>
<polygon fill="midnightblue" stroke="midnightblue" points="42.1908,-194.489 36.2082,-203.233 46.3379,-200.128 42.1908,-194.489"/>
</g>
<!-- Node4 -->
<g id="node4" class="node"><title>Node4</title>
<g id="a_node4"><a xlink:href="mxml_8c.xhtml#a73cb7fc1ac4ef0d3a05d880e1de662f4" target="_top" xlink:title="mxml_clone_tree">
<polygon fill="white" stroke="black" points="433.5,-241.458 433.5,-260.458 524.5,-260.458 524.5,-241.458 433.5,-241.458"/>
<text text-anchor="middle" x="479" y="-248.458" font-family="Helvetica,sans-Serif" font-size="10.00">mxml_clone_tree</text>
</a>
</g>
</g>
<!-- Node3&#45;&gt;Node4 -->
<g id="edge3" class="edge"><title>Node3&#45;&gt;Node4</title>
<path fill="none" stroke="midnightblue" d="M389.107,-239.623C403.887,-241.507 419.454,-243.492 433.358,-245.265"/>
<polygon fill="midnightblue" stroke="midnightblue" points="389.392,-236.131 379.029,-238.338 388.506,-243.075 389.392,-236.131"/>
</g>
<!-- Node5 -->
<g id="node5" class="node"><title>Node5</title>
<g id="a_node5"><a xlink:href="mxml_8c.xhtml#a5ef2edd4f9e5fb7946c0150c3be731b5" target="_top" xlink:title="mxml_parse_buffer">
<polygon fill="white" stroke="black" points="429,-108.458 429,-127.458 529,-127.458 529,-108.458 429,-108.458"/>
<text text-anchor="middle" x="479" y="-115.458" font-family="Helvetica,sans-Serif" font-size="10.00">mxml_parse_buffer</text>
</a>
</g>
</g>
<!-- Node3&#45;&gt;Node5 -->
<g id="edge4" class="edge"><title>Node3&#45;&gt;Node5</title>
<path fill="none" stroke="midnightblue" d="M379.379,-218.635C383.08,-216.948 386.665,-215.062 390,-212.958 427.078,-189.568 458.729,-146.691 471.707,-127.585"/>
<polygon fill="midnightblue" stroke="midnightblue" points="377.966,-215.432 370.016,-222.435 380.598,-221.918 377.966,-215.432"/>
</g>
<!-- Node5&#45;&gt;Node6 -->
<g id="edge5" class="edge"><title>Node5&#45;&gt;Node6</title>
<path fill="none" stroke="midnightblue" d="M539.439,-109.949C552.238,-108.224 565.535,-106.432 577.587,-104.808"/>
<polygon fill="midnightblue" stroke="midnightblue" points="538.758,-106.509 529.315,-111.313 539.693,-113.446 538.758,-106.509"/>
</g>
<!-- Node7 -->
<g id="node7" class="node"><title>Node7</title>
<g id="a_node7"><a xlink:href="class_d_r_s_board.xhtml#af9f7718b667109421094ec226224b012" target="_top" xlink:title="DRSBoard::GetTimeCalibration">
<polygon fill="white" stroke="black" points="712,-298.458 712,-317.458 866,-317.458 866,-298.458 712,-298.458"/>
<text text-anchor="middle" x="789" y="-305.458" font-family="Helvetica,sans-Serif" font-size="10.00">DRSBoard::GetTimeCalibration</text>
</a>
</g>
</g>
<!-- Node6&#45;&gt;Node7 -->
<g id="edge6" class="edge"><title>Node6&#45;&gt;Node7</title>
<path fill="none" stroke="midnightblue" d="M636.846,-116.497C670.309,-158.883 754.708,-265.788 780.437,-298.379"/>
<polygon fill="midnightblue" stroke="midnightblue" points="639.462,-114.162 630.518,-108.481 633.968,-118.499 639.462,-114.162"/>
</g>
<!-- Node9 -->
<g id="node9" class="node"><title>Node9</title>
<g id="a_node9"><a xlink:href="mxml_8c.xhtml#afa83c9bacbedeb26f8dbc2d8e26fdfad" target="_top" xlink:title="mxml_add_node">
<polygon fill="white" stroke="black" points="284,-108.458 284,-127.458 372,-127.458 372,-108.458 284,-108.458"/>
<text text-anchor="middle" x="328" y="-115.458" font-family="Helvetica,sans-Serif" font-size="10.00">mxml_add_node</text>
</a>
</g>
</g>
<!-- Node8&#45;&gt;Node9 -->
<g id="edge8" class="edge"><title>Node8&#45;&gt;Node9</title>
<path fill="none" stroke="midnightblue" d="M205.896,-181.088C214.209,-178.009 222.553,-174.319 230,-169.958 248.73,-158.989 247.185,-147.78 266,-136.958 272.538,-133.198 279.907,-130.094 287.204,-127.564"/>
<polygon fill="midnightblue" stroke="midnightblue" points="204.522,-177.859 196.207,-184.425 206.802,-184.477 204.522,-177.859"/>
</g>
<!-- Node10 -->
<g id="node10" class="node"><title>Node10</title>
<g id="a_node10"><a xlink:href="mxml_8c.xhtml#a92015fcc9635dce8a1d32c653baf3a6b" target="_top" xlink:title="mxml_add_node_at">
<polygon fill="white" stroke="black" points="277.5,-184.458 277.5,-203.458 378.5,-203.458 378.5,-184.458 277.5,-184.458"/>
<text text-anchor="middle" x="328" y="-191.458" font-family="Helvetica,sans-Serif" font-size="10.00">mxml_add_node_at</text>
</a>
</g>
</g>
<!-- Node8&#45;&gt;Node10 -->
<g id="edge10" class="edge"><title>Node8&#45;&gt;Node10</title>
<path fill="none" stroke="midnightblue" d="M235.08,-193.958C249.463,-193.958 264.113,-193.958 277.367,-193.958"/>
<polygon fill="midnightblue" stroke="midnightblue" points="234.677,-190.458 224.677,-193.958 234.677,-197.458 234.677,-190.458"/>
</g>
<!-- Node11 -->
<g id="node11" class="node"><title>Node11</title>
<g id="a_node11"><a xlink:href="mxml_8c.xhtml#a0eed7fed4f2f71e211cf85105b4b007c" target="_top" xlink:title="mxml_add_special_node">
<polygon fill="white" stroke="black" points="266,-146.458 266,-165.458 390,-165.458 390,-146.458 266,-146.458"/>
<text text-anchor="middle" x="328" y="-153.458" font-family="Helvetica,sans-Serif" font-size="10.00">mxml_add_special_node</text>
</a>
</g>
</g>
<!-- Node8&#45;&gt;Node11 -->
<g id="edge11" class="edge"><title>Node8&#45;&gt;Node11</title>
<path fill="none" stroke="midnightblue" d="M209.898,-182.134C233.865,-176.776 261.824,-170.527 284.41,-165.478"/>
<polygon fill="midnightblue" stroke="midnightblue" points="208.894,-178.772 199.898,-184.369 210.421,-185.603 208.894,-178.772"/>
</g>
<!-- Node9&#45;&gt;Node5 -->
<g id="edge9" class="edge"><title>Node9&#45;&gt;Node5</title>
<path fill="none" stroke="midnightblue" d="M382.378,-117.958C397.574,-117.958 414.048,-117.958 428.972,-117.958"/>
<polygon fill="midnightblue" stroke="midnightblue" points="382.097,-114.458 372.097,-117.958 382.097,-121.458 382.097,-114.458"/>
</g>
<!-- Node11&#45;&gt;Node5 -->
<g id="edge12" class="edge"><title>Node11&#45;&gt;Node5</title>
<path fill="none" stroke="midnightblue" d="M376.492,-143.846C397.244,-138.554 421.228,-132.437 440.671,-127.478"/>
<polygon fill="midnightblue" stroke="midnightblue" points="375.424,-140.506 366.599,-146.369 377.154,-147.289 375.424,-140.506"/>
</g>
<!-- Node12&#45;&gt;Node13 -->
<g id="edge14" class="edge"><title>Node12&#45;&gt;Node13</title>
<path fill="none" stroke="midnightblue" d="M204.222,-396.216C213.084,-399.415 222.053,-403.304 230,-407.958 248.73,-418.927 247.185,-430.137 266,-440.958 272.538,-444.719 279.907,-447.822 287.204,-450.352"/>
<polygon fill="midnightblue" stroke="midnightblue" points="205.295,-392.885 194.701,-393.013 203.063,-399.519 205.295,-392.885"/>
</g>
<!-- Node19 -->
<g id="node19" class="node"><title>Node19</title>
<g id="a_node19"><a xlink:href="mxml_8c.xhtml#a7745af802a053bde67f77555ab47a17b" target="_top" xlink:title="mxml_write_attribute">
<polygon fill="white" stroke="black" points="274.5,-374.458 274.5,-393.458 381.5,-393.458 381.5,-374.458 274.5,-374.458"/>
<text text-anchor="middle" x="328" y="-381.458" font-family="Helvetica,sans-Serif" font-size="10.00">mxml_write_attribute</text>
</a>
</g>
</g>
<!-- Node12&#45;&gt;Node19 -->
<g id="edge20" class="edge"><title>Node12&#45;&gt;Node19</title>
<path fill="none" stroke="midnightblue" d="M204.974,-383.958C226.559,-383.958 252.102,-383.958 274.226,-383.958"/>
<polygon fill="midnightblue" stroke="midnightblue" points="204.729,-380.458 194.729,-383.958 204.728,-387.458 204.729,-380.458"/>
</g>
<!-- Node20 -->
<g id="node20" class="node"><title>Node20</title>
<g id="a_node20"><a xlink:href="mxml_8c.xhtml#a9cf33f3456fea00ea438422ebb7bd6be" target="_top" xlink:title="mxml_write_value">
<polygon fill="white" stroke="black" points="280.5,-412.458 280.5,-431.458 375.5,-431.458 375.5,-412.458 280.5,-412.458"/>
<text text-anchor="middle" x="328" y="-419.458" font-family="Helvetica,sans-Serif" font-size="10.00">mxml_write_value</text>
</a>
</g>
</g>
<!-- Node12&#45;&gt;Node20 -->
<g id="edge22" class="edge"><title>Node12&#45;&gt;Node20</title>
<path fill="none" stroke="midnightblue" d="M204.724,-394.626C229.719,-400.213 260.077,-406.999 284.29,-412.411"/>
<polygon fill="midnightblue" stroke="midnightblue" points="205.251,-391.157 194.729,-392.391 203.724,-397.989 205.251,-391.157"/>
</g>
<!-- Node14 -->
<g id="node14" class="node"><title>Node14</title>
<g id="a_node14"><a xlink:href="mxml_8c.xhtml#a1490cd450c6499bab0d70fbeaf88c3be" target="_top" xlink:title="mxml_start_element">
<polygon fill="white" stroke="black" points="426.5,-500.458 426.5,-519.458 531.5,-519.458 531.5,-500.458 426.5,-500.458"/>
<text text-anchor="middle" x="479" y="-507.458" font-family="Helvetica,sans-Serif" font-size="10.00">mxml_start_element</text>
</a>
</g>
</g>
<!-- Node13&#45;&gt;Node14 -->
<g id="edge15" class="edge"><title>Node13&#45;&gt;Node14</title>
<path fill="none" stroke="midnightblue" d="M367.153,-472.761C392.817,-481.373 426.103,-492.543 449.476,-500.386"/>
<polygon fill="midnightblue" stroke="midnightblue" points="367.97,-469.344 357.376,-469.48 365.743,-475.98 367.97,-469.344"/>
</g>
<!-- Node16 -->
<g id="node16" class="node"><title>Node16</title>
<g id="a_node16"><a xlink:href="mxml_8c.xhtml#aef9e08f5651e4905af653c15c6bb0d6e" target="_top" xlink:title="mxml_start_element\l_noindent">
<polygon fill="white" stroke="black" points="426.5,-450.958 426.5,-480.958 531.5,-480.958 531.5,-450.958 426.5,-450.958"/>
<text text-anchor="start" x="434.5" y="-468.958" font-family="Helvetica,sans-Serif" font-size="10.00">mxml_start_element</text>
<text text-anchor="middle" x="479" y="-457.958" font-family="Helvetica,sans-Serif" font-size="10.00">_noindent</text>
</a>
</g>
</g>
<!-- Node13&#45;&gt;Node16 -->
<g id="edge17" class="edge"><title>Node13&#45;&gt;Node16</title>
<path fill="none" stroke="midnightblue" d="M393.521,-462.556C404.396,-462.994 415.56,-463.444 426.064,-463.867"/>
<polygon fill="midnightblue" stroke="midnightblue" points="393.347,-459.046 383.214,-462.141 393.065,-466.041 393.347,-459.046"/>
</g>
<!-- Node17 -->
<g id="node17" class="node"><title>Node17</title>
<g id="a_node17"><a xlink:href="mxml_8c.xhtml#aad3952c0c32fc16aa78fde6faa7bd002" target="_top" xlink:title="mxml_write_subtree">
<polygon fill="white" stroke="black" points="427,-374.458 427,-393.458 531,-393.458 531,-374.458 427,-374.458"/>
<text text-anchor="middle" x="479" y="-381.458" font-family="Helvetica,sans-Serif" font-size="10.00">mxml_write_subtree</text>
</a>
</g>
</g>
<!-- Node13&#45;&gt;Node17 -->
<g id="edge18" class="edge"><title>Node13&#45;&gt;Node17</title>
<path fill="none" stroke="midnightblue" d="M375.173,-447.06C380.253,-445.205 385.287,-443.167 390,-440.958 418.678,-427.514 449.026,-406.013 465.525,-393.618"/>
<polygon fill="midnightblue" stroke="midnightblue" points="373.749,-443.848 365.421,-450.398 376.016,-450.471 373.749,-443.848"/>
</g>
<!-- Node15 -->
<g id="node15" class="node"><title>Node15</title>
<g id="a_node15"><a xlink:href="mxml_8c.xhtml#ac6ccd07b846150067db07ed7086cf7e1" target="_top" xlink:title="mxml_write_element">
<polygon fill="white" stroke="black" points="568.5,-456.458 568.5,-475.458 675.5,-475.458 675.5,-456.458 568.5,-456.458"/>
<text text-anchor="middle" x="622" y="-463.458" font-family="Helvetica,sans-Serif" font-size="10.00">mxml_write_element</text>
</a>
</g>
</g>
<!-- Node14&#45;&gt;Node15 -->
<g id="edge16" class="edge"><title>Node14&#45;&gt;Node15</title>
<path fill="none" stroke="midnightblue" d="M520.148,-497.43C542.497,-490.455 569.876,-481.912 590.465,-475.487"/>
<polygon fill="midnightblue" stroke="midnightblue" points="519.098,-494.091 510.595,-500.411 521.184,-500.773 519.098,-494.091"/>
</g>
<!-- Node18 -->
<g id="node18" class="node"><title>Node18</title>
<g id="a_node18"><a xlink:href="mxml_8c.xhtml#a6dc934e8374543e6070804f8a5822f5f" target="_top" xlink:title="mxml_write_tree">
<polygon fill="white" stroke="black" points="577.5,-374.458 577.5,-393.458 666.5,-393.458 666.5,-374.458 577.5,-374.458"/>
<text text-anchor="middle" x="622" y="-381.458" font-family="Helvetica,sans-Serif" font-size="10.00">mxml_write_tree</text>
</a>
</g>
</g>
<!-- Node17&#45;&gt;Node18 -->
<g id="edge19" class="edge"><title>Node17&#45;&gt;Node18</title>
<path fill="none" stroke="midnightblue" d="M541.375,-383.958C553.507,-383.958 566.005,-383.958 577.4,-383.958"/>
<polygon fill="midnightblue" stroke="midnightblue" points="541.303,-380.458 531.303,-383.958 541.303,-387.458 541.303,-380.458"/>
</g>
<!-- Node19&#45;&gt;Node17 -->
<g id="edge21" class="edge"><title>Node19&#45;&gt;Node17</title>
<path fill="none" stroke="midnightblue" d="M391.718,-383.958C403.462,-383.958 415.606,-383.958 426.944,-383.958"/>
<polygon fill="midnightblue" stroke="midnightblue" points="391.532,-380.458 381.532,-383.958 391.532,-387.458 391.532,-380.458"/>
</g>
<!-- Node20&#45;&gt;Node15 -->
<g id="edge23" class="edge"><title>Node20&#45;&gt;Node15</title>
<path fill="none" stroke="midnightblue" d="M385.744,-424.522C426.663,-427.037 483.073,-431.874 532,-440.958 552.356,-444.738 574.796,-451.056 592.051,-456.395"/>
<polygon fill="midnightblue" stroke="midnightblue" points="385.877,-421.024 375.689,-423.932 385.466,-428.012 385.877,-421.024"/>
</g>
<!-- Node20&#45;&gt;Node17 -->
<g id="edge24" class="edge"><title>Node20&#45;&gt;Node17</title>
<path fill="none" stroke="midnightblue" d="M376.492,-409.846C397.244,-404.554 421.228,-398.437 440.671,-393.478"/>
<polygon fill="midnightblue" stroke="midnightblue" points="375.424,-406.506 366.599,-412.369 377.154,-413.289 375.424,-406.506"/>
</g>
<!-- Node22 -->
<g id="node22" class="node"><title>Node22</title>
<g id="a_node22"><a xlink:href="mxml_8c.xhtml#a6bcd06b8ff582dece9ba510e161284d5" target="_top" xlink:title="mxml_add_resultnode">
<polygon fill="white" stroke="black" points="272,-260.458 272,-279.458 384,-279.458 384,-260.458 272,-260.458"/>
<text text-anchor="middle" x="328" y="-267.458" font-family="Helvetica,sans-Serif" font-size="10.00">mxml_add_resultnode</text>
</a>
</g>
</g>
<!-- Node21&#45;&gt;Node22 -->
<g id="edge26" class="edge"><title>Node21&#45;&gt;Node22</title>
<path fill="none" stroke="midnightblue" d="M215.463,-263.509C233.688,-263.083 253.722,-263.109 271.721,-263.589"/>
<polygon fill="midnightblue" stroke="midnightblue" points="215.156,-260.017 205.26,-263.803 215.357,-267.014 215.156,-260.017"/>
</g>
<!-- Node23 -->
<g id="node23" class="node"><title>Node23</title>
<g id="a_node23"><a xlink:href="mxml_8c.xhtml#a6dc97d9bb89977574a5f5cff952f3550" target="_top" xlink:title="mxml_find_nodes">
<polygon fill="white" stroke="black" points="432.5,-336.458 432.5,-355.458 525.5,-355.458 525.5,-336.458 432.5,-336.458"/>
<text text-anchor="middle" x="479" y="-343.458" font-family="Helvetica,sans-Serif" font-size="10.00">mxml_find_nodes</text>
</a>
</g>
</g>
<!-- Node21&#45;&gt;Node23 -->
<g id="edge28" class="edge"><title>Node21&#45;&gt;Node23</title>
<path fill="none" stroke="midnightblue" d="M179.659,-285.205C200.958,-298.69 234.23,-317.629 266,-326.958 321.666,-343.303 388.79,-346.746 432.382,-346.965"/>
<polygon fill="midnightblue" stroke="midnightblue" points="181.331,-282.118 171.033,-279.626 177.529,-287.996 181.331,-282.118"/>
</g>
<!-- Node25 -->
<g id="node25" class="node"><title>Node25</title>
<g id="a_node25"><a xlink:href="mxml_8c.xhtml#a77bc20aac65b3c46df4b08aeb52b2686" target="_top" xlink:title="mxml_subnode">
<polygon fill="white" stroke="black" points="286.5,-298.458 286.5,-317.458 369.5,-317.458 369.5,-298.458 286.5,-298.458"/>
<text text-anchor="middle" x="328" y="-305.458" font-family="Helvetica,sans-Serif" font-size="10.00">mxml_subnode</text>
</a>
</g>
</g>
<!-- Node21&#45;&gt;Node25 -->
<g id="edge31" class="edge"><title>Node21&#45;&gt;Node25</title>
<path fill="none" stroke="midnightblue" d="M209.842,-281.77C234.55,-287.293 263.511,-293.766 286.456,-298.895"/>
<polygon fill="midnightblue" stroke="midnightblue" points="210.421,-278.313 199.898,-279.547 208.894,-285.144 210.421,-278.313"/>
</g>
<!-- Node22&#45;&gt;Node21 -->
<g id="edge27" class="edge"><title>Node22&#45;&gt;Node21</title>
<path fill="none" stroke="midnightblue" d="M261.489,-276.548C242.778,-276.86 222.737,-276.716 205.26,-276.113"/>
<polygon fill="midnightblue" stroke="midnightblue" points="261.799,-280.042 271.721,-276.327 261.648,-273.044 261.799,-280.042"/>
</g>
<!-- Node24 -->
<g id="node24" class="node"><title>Node24</title>
<g id="a_node24"><a xlink:href="mxml_8c.xhtml#a43e02c5111b428f22b1032a318ffe29f" target="_top" xlink:title="mxml_find_node">
<polygon fill="white" stroke="black" points="578,-336.458 578,-355.458 666,-355.458 666,-336.458 578,-336.458"/>
<text text-anchor="middle" x="622" y="-343.458" font-family="Helvetica,sans-Serif" font-size="10.00">mxml_find_node</text>
</a>
</g>
</g>
<!-- Node23&#45;&gt;Node24 -->
<g id="edge29" class="edge"><title>Node23&#45;&gt;Node24</title>
<path fill="none" stroke="midnightblue" d="M535.789,-345.958C549.778,-345.958 564.576,-345.958 577.845,-345.958"/>
<polygon fill="midnightblue" stroke="midnightblue" points="535.779,-342.458 525.779,-345.958 535.779,-349.458 535.779,-342.458"/>
</g>
<!-- Node24&#45;&gt;Node7 -->
<g id="edge30" class="edge"><title>Node24&#45;&gt;Node7</title>
<path fill="none" stroke="midnightblue" d="M674.654,-334.062C697.846,-328.721 724.838,-322.504 746.663,-317.478"/>
<polygon fill="midnightblue" stroke="midnightblue" points="673.596,-330.714 664.636,-336.369 675.167,-337.535 673.596,-330.714"/>
</g>
<!-- Node25&#45;&gt;Node4 -->
<g id="edge33" class="edge"><title>Node25&#45;&gt;Node4</title>
<path fill="none" stroke="midnightblue" d="M371.496,-295.356C377.738,-293.322 384.062,-291.158 390,-288.958 413.563,-280.229 439.946,-268.576 457.624,-260.486"/>
<polygon fill="midnightblue" stroke="midnightblue" points="370.291,-292.066 361.822,-298.433 372.413,-298.737 370.291,-292.066"/>
</g>
<!-- Node25&#45;&gt;Node7 -->
<g id="edge32" class="edge"><title>Node25&#45;&gt;Node7</title>
<path fill="none" stroke="midnightblue" d="M380.12,-307.958C460.771,-307.958 618.002,-307.958 711.94,-307.958"/>
<polygon fill="midnightblue" stroke="midnightblue" points="379.733,-304.458 369.733,-307.958 379.733,-311.458 379.733,-304.458"/>
</g>
<!-- Node28&#45;&gt;Node5 -->
<g id="edge39" class="edge"><title>Node28&#45;&gt;Node5</title>
<path fill="none" stroke="midnightblue" d="M367.94,-89.889C390.343,-95.6024 418.35,-102.745 440.505,-108.395"/>
<polygon fill="midnightblue" stroke="midnightblue" points="368.637,-86.4549 358.082,-87.375 366.907,-93.2378 368.637,-86.4549"/>
</g>
<!-- Node29 -->
<g id="node29" class="node"><title>Node29</title>
<g id="a_node29"><a xlink:href="mxml_8c.xhtml#a9c1dde43a12f9e8383227dd5f79bf91d" target="_top" xlink:title="mxml_parse_entity">
<polygon fill="white" stroke="black" points="429.5,-70.458 429.5,-89.458 528.5,-89.458 528.5,-70.458 429.5,-70.458"/>
<text text-anchor="middle" x="479" y="-77.458" font-family="Helvetica,sans-Serif" font-size="10.00">mxml_parse_entity</text>
</a>
</g>
</g>
<!-- Node28&#45;&gt;Node29 -->
<g id="edge40" class="edge"><title>Node28&#45;&gt;Node29</title>
<path fill="none" stroke="midnightblue" d="M368.318,-79.958C387.023,-79.958 409.568,-79.958 429.342,-79.958"/>
<polygon fill="midnightblue" stroke="midnightblue" points="368.082,-76.4581 358.082,-79.958 368.082,-83.4581 368.082,-76.4581"/>
</g>
<!-- Node29&#45;&gt;Node6 -->
<g id="edge41" class="edge"><title>Node29&#45;&gt;Node6</title>
<path fill="none" stroke="midnightblue" d="M538.793,-87.8805C551.788,-89.6316 565.328,-91.4561 577.581,-93.1072"/>
<polygon fill="midnightblue" stroke="midnightblue" points="538.902,-84.3636 528.524,-86.4968 537.967,-91.3009 538.902,-84.3636"/>
</g>
</g>
</svg>
        <g id="navigator" transform="translate(0 0)" fill="#404254">
                <rect fill="#f2f5e9" fill-opacity="0.5" stroke="#606060" stroke-width=".5" x="0" y="0" width="60" height="60"/>
                <use id="zoomplus" xlink:href="#zoomPlus" x="17" y="9" onmousedown="handleZoom(evt,'in')"/>
                <use id="zoomminus" xlink:href="#zoomMin" x="42" y="9" onmousedown="handleZoom(evt,'out')"/>
                <use id="reset" xlink:href="#resetDef" x="30" y="36" onmousedown="handleReset()"/>
                <g id="arrowUp" xlink:href="#dirArrow" transform="translate(30 24)" onmousedown="handlePan(0,-1)">
                  <use xlink:href="#rim" fill="#404040">
                        <set attributeName="fill" to="#808080" begin="arrowUp.mouseover" end="arrowUp.mouseout"/>
                  </use>
                  <path fill="none" stroke="white" stroke-width="1.5" d="M0,-3.0v7 M-2.5,-0.5L0,-3.0L2.5,-0.5"/>
                </g>
                <g id="arrowRight" xlink:href="#dirArrow" transform="rotate(90) translate(36 -43)" onmousedown="handlePan(1,0)">
                  <use xlink:href="#rim" fill="#404040">
                        <set attributeName="fill" to="#808080" begin="arrowRight.mouseover" end="arrowRight.mouseout"/>
                  </use>
                  <path fill="none" stroke="white" stroke-width="1.5" d="M0,-3.0v7 M-2.5,-0.5L0,-3.0L2.5,-0.5"/>
                </g>
                <g id="arrowDown" xlink:href="#dirArrow" transform="rotate(180) translate(-30 -48)" onmousedown="handlePan(0,1)">
                  <use xlink:href="#rim" fill="#404040">
                        <set attributeName="fill" to="#808080" begin="arrowDown.mouseover" end="arrowDown.mouseout"/>
                  </use>
                  <path fill="none" stroke="white" stroke-width="1.5" d="M0,-3.0v7 M-2.5,-0.5L0,-3.0L2.5,-0.5"/>
                </g>
                <g id="arrowLeft" xlink:href="#dirArrow" transform="rotate(270) translate(-36 17)" onmousedown="handlePan(-1,0)">
                  <use xlink:href="#rim" fill="#404040">
                        <set attributeName="fill" to="#808080" begin="arrowLeft.mouseover" end="arrowLeft.mouseout"/>
                  </use>
                  <path fill="none" stroke="white" stroke-width="1.5" d="M0,-3.0v7 M-2.5,-0.5L0,-3.0L2.5,-0.5"/>
                </g>
        </g>
        <svg viewBox="0 0 15 15" width="100%" height="30px" preserveAspectRatio="xMaxYMin meet">
         <g id="arrow_out" transform="scale(0.3 0.3)">
          <a xlink:href="strlcpy_8c_a4637af6f79bac4043e1064f0837d0ddc_icgraph_org.svg" target="_base">
           <rect id="button" ry="5" rx="5" y="6" x="6" height="38" width="38"
                fill="#f2f5e9" fill-opacity="0.5" stroke="#606060" stroke-width="1.0"/>
           <path id="arrow"
             d="M 11.500037,31.436501 C 11.940474,20.09759 22.043105,11.32322 32.158766,21.979434 L 37.068811,17.246167 C 37.068811,17.246167 37.088388,32 37.088388,32 L 22.160133,31.978069 C 22.160133,31.978069 26.997745,27.140456 26.997745,27.140456 C 18.528582,18.264221 13.291696,25.230495 11.500037,31.436501 z"
             style="fill:#404040;"/>
          </a>
         </g>
        </svg>
</svg>
