<?xml version="1.0" encoding="UTF-8" standalone="no"?>
<!DOCTYPE svg PUBLIC "-//W3C//DTD SVG 1.1//EN"
 "http://www.w3.org/Graphics/SVG/1.1/DTD/svg11.dtd">
<!-- Generated by graphviz version 2.36.0 (20140111.2315)
 -->
<!-- Title: strlcat Pages: 1 -->
<svg width="678pt" height="344pt"
 viewBox="0.00 0.00 678.00 344.00" xmlns="http://www.w3.org/2000/svg" xmlns:xlink="http://www.w3.org/1999/xlink">
<g id="graph0" class="graph" transform="scale(1 1) rotate(0) translate(4 340)">
<title>strlcat</title>
<polygon fill="white" stroke="none" points="-4,4 -4,-340 674,-340 674,4 -4,4"/>
<!-- Node1 -->
<g id="node1" class="node"><title>Node1</title>
<polygon fill="#bfbfbf" stroke="black" points="0,-76.5 0,-95.5 44,-95.5 44,-76.5 0,-76.5"/>
<text text-anchor="middle" x="22" y="-83.5" font-family="Helvetica,sans-Serif" font-size="10.00">strlcat</text>
</g>
<!-- Node2 -->
<g id="node2" class="node"><title>Node2</title>
<g id="a_node2"><a xlink:href="mxml_8c.xhtml#a31efd9013ec552f43c6ff48c46be7a49" target="_top" xlink:title="mxml_end_element">
<polygon fill="white" stroke="black" points="86.5,-240.5 86.5,-259.5 187.5,-259.5 187.5,-240.5 86.5,-240.5"/>
<text text-anchor="middle" x="137" y="-247.5" font-family="Helvetica,sans-Serif" font-size="10.00">mxml_end_element</text>
</a>
</g>
</g>
<!-- Node1&#45;&gt;Node2 -->
<g id="edge1" class="edge"><title>Node1&#45;&gt;Node2</title>
<path fill="none" stroke="midnightblue" d="M35.0742,-104.3C46.5197,-121.577 64.2558,-148.168 80,-171 97.3693,-196.189 118.346,-225.492 129.022,-240.327"/>
<polygon fill="midnightblue" stroke="midnightblue" points="37.8508,-102.154 29.4154,-95.7434 32.012,-106.015 37.8508,-102.154"/>
</g>
<!-- Node8 -->
<g id="node8" class="node"><title>Node8</title>
<g id="a_node8"><a xlink:href="mxml_8c.xhtml#a0ebae029488c0bca9001b86916abe5ca" target="_top" xlink:title="mxml_parse_file">
<polygon fill="white" stroke="black" points="382,-38.5 382,-57.5 470,-57.5 470,-38.5 382,-38.5"/>
<text text-anchor="middle" x="426" y="-45.5" font-family="Helvetica,sans-Serif" font-size="10.00">mxml_parse_file</text>
</a>
</g>
</g>
<!-- Node1&#45;&gt;Node8 -->
<g id="edge8" class="edge"><title>Node1&#45;&gt;Node8</title>
<path fill="none" stroke="midnightblue" d="M54.455,-85.6447C111.038,-84.6605 233.636,-80.9535 336,-67 352.594,-64.738 370.705,-61.0917 386.232,-57.5953"/>
<polygon fill="midnightblue" stroke="midnightblue" points="54.3043,-82.1465 44.3604,-85.8031 54.4141,-89.1457 54.3043,-82.1465"/>
</g>
<!-- Node10 -->
<g id="node10" class="node"><title>Node10</title>
<g id="a_node10"><a xlink:href="mxml_8c.xhtml#a43879e9508767beaf57424ec1393f661" target="_top" xlink:title="mxml_start_element1">
<polygon fill="white" stroke="black" points="82,-142.5 82,-161.5 192,-161.5 192,-142.5 82,-142.5"/>
<text text-anchor="middle" x="137" y="-149.5" font-family="Helvetica,sans-Serif" font-size="10.00">mxml_start_element1</text>
</a>
</g>
</g>
<!-- Node1&#45;&gt;Node10 -->
<g id="edge10" class="edge"><title>Node1&#45;&gt;Node10</title>
<path fill="none" stroke="midnightblue" d="M48.4029,-100.837C70.1951,-113.565 100.952,-131.529 119.625,-142.436"/>
<polygon fill="midnightblue" stroke="midnightblue" points="50.0738,-97.7598 39.6735,-95.7385 46.5433,-103.804 50.0738,-97.7598"/>
</g>
<!-- Node13 -->
<g id="node13" class="node"><title>Node13</title>
<g id="a_node13"><a xlink:href="mxml_8c.xhtml#a0a19bf18872be208ce64434f62509f22" target="_top" xlink:title="mxml_write_comment">
<polygon fill="white" stroke="black" points="80.5,-0.5 80.5,-19.5 193.5,-19.5 193.5,-0.5 80.5,-0.5"/>
<text text-anchor="middle" x="137" y="-7.5" font-family="Helvetica,sans-Serif" font-size="10.00">mxml_write_comment</text>
</a>
</g>
</g>
<!-- Node1&#45;&gt;Node13 -->
<g id="edge15" class="edge"><title>Node1&#45;&gt;Node13</title>
<path fill="none" stroke="midnightblue" d="M36.9434,-68.2339C47.5697,-55.7387 63.1976,-39.4466 80,-29 86.1032,-25.2054 93.0557,-22.0655 99.9367,-19.5058"/>
<polygon fill="midnightblue" stroke="midnightblue" points="34.076,-66.2106 30.4328,-76.1594 39.485,-70.654 34.076,-66.2106"/>
</g>
<!-- Node14 -->
<g id="node14" class="node"><title>Node14</title>
<g id="a_node14"><a xlink:href="mxml_8c.xhtml#a7a11f9a05fffb677a2d8d189f4b3f370" target="_top" xlink:title="read_error">
<polygon fill="white" stroke="black" points="107,-38.5 107,-57.5 167,-57.5 167,-38.5 107,-38.5"/>
<text text-anchor="middle" x="137" y="-45.5" font-family="Helvetica,sans-Serif" font-size="10.00">read_error</text>
</a>
</g>
</g>
<!-- Node1&#45;&gt;Node14 -->
<g id="edge16" class="edge"><title>Node1&#45;&gt;Node14</title>
<path fill="none" stroke="midnightblue" d="M54.1103,-75.5381C70.8307,-69.9153 91.2966,-63.033 107.586,-57.5553"/>
<polygon fill="midnightblue" stroke="midnightblue" points="52.6172,-72.3475 44.2544,-78.8525 54.8485,-78.9824 52.6172,-72.3475"/>
</g>
<!-- Node3 -->
<g id="node3" class="node"><title>Node3</title>
<g id="a_node3"><a xlink:href="mxml_8c.xhtml#ac6ccd07b846150067db07ed7086cf7e1" target="_top" xlink:title="mxml_write_element">
<polygon fill="white" stroke="black" points="372.5,-183.5 372.5,-202.5 479.5,-202.5 479.5,-183.5 372.5,-183.5"/>
<text text-anchor="middle" x="426" y="-190.5" font-family="Helvetica,sans-Serif" font-size="10.00">mxml_write_element</text>
</a>
</g>
</g>
<!-- Node2&#45;&gt;Node3 -->
<g id="edge2" class="edge"><title>Node2&#45;&gt;Node3</title>
<path fill="none" stroke="midnightblue" d="M197.602,-249.043C237.338,-247.248 290.441,-242.614 336,-231 361.723,-224.443 389.596,-211.505 407.167,-202.56"/>
<polygon fill="midnightblue" stroke="midnightblue" points="197.393,-245.548 187.543,-249.449 197.676,-252.542 197.393,-245.548"/>
</g>
<!-- Node4 -->
<g id="node4" class="node"><title>Node4</title>
<g id="a_node4"><a xlink:href="mxml_8c.xhtml#aa17f561601949f624351a45b2b3a7678" target="_top" xlink:title="mxml_close_buffer">
<polygon fill="white" stroke="black" points="233.5,-316.5 233.5,-335.5 332.5,-335.5 332.5,-316.5 233.5,-316.5"/>
<text text-anchor="middle" x="283" y="-323.5" font-family="Helvetica,sans-Serif" font-size="10.00">mxml_close_buffer</text>
</a>
</g>
</g>
<!-- Node2&#45;&gt;Node4 -->
<g id="edge3" class="edge"><title>Node2&#45;&gt;Node4</title>
<path fill="none" stroke="midnightblue" d="M160.204,-265.553C178.396,-277.848 205.105,-294.898 230,-307 237.175,-310.488 245.163,-313.711 252.684,-316.475"/>
<polygon fill="midnightblue" stroke="midnightblue" points="161.751,-262.37 151.522,-259.608 157.796,-268.146 161.751,-262.37"/>
</g>
<!-- Node5 -->
<g id="node5" class="node"><title>Node5</title>
<g id="a_node5"><a xlink:href="mxml_8c.xhtml#a7409705a71ea5d17f3746cd1c49c3b00" target="_top" xlink:title="mxml_close_file">
<polygon fill="white" stroke="black" points="239.5,-278.5 239.5,-297.5 326.5,-297.5 326.5,-278.5 239.5,-278.5"/>
<text text-anchor="middle" x="283" y="-285.5" font-family="Helvetica,sans-Serif" font-size="10.00">mxml_close_file</text>
</a>
</g>
</g>
<!-- Node2&#45;&gt;Node5 -->
<g id="edge4" class="edge"><title>Node2&#45;&gt;Node5</title>
<path fill="none" stroke="midnightblue" d="M184.172,-262.184C204.164,-267.46 227.219,-273.544 245.924,-278.48"/>
<polygon fill="midnightblue" stroke="midnightblue" points="184.899,-258.756 174.337,-259.589 183.113,-265.525 184.899,-258.756"/>
</g>
<!-- Node7 -->
<g id="node7" class="node"><title>Node7</title>
<g id="a_node7"><a xlink:href="mxml_8c.xhtml#aad3952c0c32fc16aa78fde6faa7bd002" target="_top" xlink:title="mxml_write_subtree">
<polygon fill="white" stroke="black" points="231,-202.5 231,-221.5 335,-221.5 335,-202.5 231,-202.5"/>
<text text-anchor="middle" x="283" y="-209.5" font-family="Helvetica,sans-Serif" font-size="10.00">mxml_write_subtree</text>
</a>
</g>
</g>
<!-- Node2&#45;&gt;Node7 -->
<g id="edge6" class="edge"><title>Node2&#45;&gt;Node7</title>
<path fill="none" stroke="midnightblue" d="M184.172,-237.816C204.164,-232.54 227.219,-226.456 245.924,-221.52"/>
<polygon fill="midnightblue" stroke="midnightblue" points="183.113,-234.475 174.337,-240.411 184.899,-241.244 183.113,-234.475"/>
</g>
<!-- Node6 -->
<g id="node6" class="node"><title>Node6</title>
<g id="a_node6"><a xlink:href="mxml_8c.xhtml#a6dc934e8374543e6070804f8a5822f5f" target="_top" xlink:title="mxml_write_tree">
<polygon fill="white" stroke="black" points="381.5,-259.5 381.5,-278.5 470.5,-278.5 470.5,-259.5 381.5,-259.5"/>
<text text-anchor="middle" x="426" y="-266.5" font-family="Helvetica,sans-Serif" font-size="10.00">mxml_write_tree</text>
</a>
</g>
</g>
<!-- Node5&#45;&gt;Node6 -->
<g id="edge5" class="edge"><title>Node5&#45;&gt;Node6</title>
<path fill="none" stroke="midnightblue" d="M336.692,-280.9C351.45,-278.911 367.322,-276.772 381.483,-274.864"/>
<polygon fill="midnightblue" stroke="midnightblue" points="336.13,-277.444 326.687,-282.248 337.065,-284.381 336.13,-277.444"/>
</g>
<!-- Node7&#45;&gt;Node6 -->
<g id="edge7" class="edge"><title>Node7&#45;&gt;Node6</title>
<path fill="none" stroke="midnightblue" d="M317.001,-225.341C342.861,-235.795 378.216,-250.087 401.323,-259.428"/>
<polygon fill="midnightblue" stroke="midnightblue" points="318.183,-222.044 307.6,-221.541 315.56,-228.533 318.183,-222.044"/>
</g>
<!-- Node9 -->
<g id="node9" class="node"><title>Node9</title>
<g id="a_node9"><a xlink:href="class_d_r_s_board.xhtml#af9f7718b667109421094ec226224b012" target="_top" xlink:title="DRSBoard::GetTimeCalibration">
<polygon fill="white" stroke="black" points="516,-38.5 516,-57.5 670,-57.5 670,-38.5 516,-38.5"/>
<text text-anchor="middle" x="593" y="-45.5" font-family="Helvetica,sans-Serif" font-size="10.00">DRSBoard::GetTimeCalibration</text>
</a>
</g>
</g>
<!-- Node8&#45;&gt;Node9 -->
<g id="edge9" class="edge"><title>Node8&#45;&gt;Node9</title>
<path fill="none" stroke="midnightblue" d="M480.445,-48C491.72,-48 503.826,-48 515.756,-48"/>
<polygon fill="midnightblue" stroke="midnightblue" points="480.352,-44.5001 470.352,-48 480.352,-51.5001 480.352,-44.5001"/>
</g>
<!-- Node10&#45;&gt;Node7 -->
<g id="edge14" class="edge"><title>Node10&#45;&gt;Node7</title>
<path fill="none" stroke="midnightblue" d="M167.635,-165.83C185.557,-174.038 208.94,-184.471 230,-193 238.018,-196.247 246.825,-199.559 254.876,-202.49"/>
<polygon fill="midnightblue" stroke="midnightblue" points="168.837,-162.53 158.29,-161.526 165.908,-168.888 168.837,-162.53"/>
</g>
<!-- Node11 -->
<g id="node11" class="node"><title>Node11</title>
<g id="a_node11"><a xlink:href="mxml_8c.xhtml#a1490cd450c6499bab0d70fbeaf88c3be" target="_top" xlink:title="mxml_start_element">
<polygon fill="white" stroke="black" points="230.5,-164.5 230.5,-183.5 335.5,-183.5 335.5,-164.5 230.5,-164.5"/>
<text text-anchor="middle" x="283" y="-171.5" font-family="Helvetica,sans-Serif" font-size="10.00">mxml_start_element</text>
</a>
</g>
</g>
<!-- Node10&#45;&gt;Node11 -->
<g id="edge11" class="edge"><title>Node10&#45;&gt;Node11</title>
<path fill="none" stroke="midnightblue" d="M202.083,-161.79C211.44,-163.22 220.978,-164.677 230.054,-166.064"/>
<polygon fill="midnightblue" stroke="midnightblue" points="202.444,-158.305 192.03,-160.255 201.387,-165.225 202.444,-158.305"/>
</g>
<!-- Node12 -->
<g id="node12" class="node"><title>Node12</title>
<g id="a_node12"><a xlink:href="mxml_8c.xhtml#aef9e08f5651e4905af653c15c6bb0d6e" target="_top" xlink:title="mxml_start_element\l_noindent">
<polygon fill="white" stroke="black" points="230.5,-115 230.5,-145 335.5,-145 335.5,-115 230.5,-115"/>
<text text-anchor="start" x="238.5" y="-133" font-family="Helvetica,sans-Serif" font-size="10.00">mxml_start_element</text>
<text text-anchor="middle" x="283" y="-122" font-family="Helvetica,sans-Serif" font-size="10.00">_noindent</text>
</a>
</g>
</g>
<!-- Node10&#45;&gt;Node12 -->
<g id="edge13" class="edge"><title>Node10&#45;&gt;Node12</title>
<path fill="none" stroke="midnightblue" d="M202.083,-142.21C211.44,-140.78 220.978,-139.323 230.054,-137.936"/>
<polygon fill="midnightblue" stroke="midnightblue" points="201.387,-138.775 192.03,-143.745 202.444,-145.695 201.387,-138.775"/>
</g>
<!-- Node11&#45;&gt;Node3 -->
<g id="edge12" class="edge"><title>Node11&#45;&gt;Node3</title>
<path fill="none" stroke="midnightblue" d="M345.646,-182.307C354.552,-183.507 363.65,-184.733 372.359,-185.907"/>
<polygon fill="midnightblue" stroke="midnightblue" points="346.08,-178.834 335.703,-180.967 345.146,-185.771 346.08,-178.834"/>
</g>
<!-- Node15 -->
<g id="node15" class="node"><title>Node15</title>
<g id="a_node15"><a xlink:href="mxml_8c.xhtml#a5ef2edd4f9e5fb7946c0150c3be731b5" target="_top" xlink:title="mxml_parse_buffer">
<polygon fill="white" stroke="black" points="233,-0.5 233,-19.5 333,-19.5 333,-0.5 233,-0.5"/>
<text text-anchor="middle" x="283" y="-7.5" font-family="Helvetica,sans-Serif" font-size="10.00">mxml_parse_buffer</text>
</a>
</g>
</g>
<!-- Node14&#45;&gt;Node15 -->
<g id="edge17" class="edge"><title>Node14&#45;&gt;Node15</title>
<path fill="none" stroke="midnightblue" d="M176.903,-37.734C198.328,-32.08 224.752,-25.1071 245.744,-19.5675"/>
<polygon fill="midnightblue" stroke="midnightblue" points="175.916,-34.3744 167.141,-40.3101 177.703,-41.1427 175.916,-34.3744"/>
</g>
<!-- Node16 -->
<g id="node16" class="node"><title>Node16</title>
<g id="a_node16"><a xlink:href="mxml_8c.xhtml#a9c1dde43a12f9e8383227dd5f79bf91d" target="_top" xlink:title="mxml_parse_entity">
<polygon fill="white" stroke="black" points="233.5,-38.5 233.5,-57.5 332.5,-57.5 332.5,-38.5 233.5,-38.5"/>
<text text-anchor="middle" x="283" y="-45.5" font-family="Helvetica,sans-Serif" font-size="10.00">mxml_parse_entity</text>
</a>
</g>
</g>
<!-- Node14&#45;&gt;Node16 -->
<g id="edge19" class="edge"><title>Node14&#45;&gt;Node16</title>
<path fill="none" stroke="midnightblue" d="M177.435,-48C194.703,-48 215.137,-48 233.339,-48"/>
<polygon fill="midnightblue" stroke="midnightblue" points="177.141,-44.5001 167.141,-48 177.141,-51.5001 177.141,-44.5001"/>
</g>
<!-- Node15&#45;&gt;Node8 -->
<g id="edge18" class="edge"><title>Node15&#45;&gt;Node8</title>
<path fill="none" stroke="midnightblue" d="M329.44,-22.2462C348.875,-27.484 371.231,-33.5091 389.431,-38.4141"/>
<polygon fill="midnightblue" stroke="midnightblue" points="330.147,-18.8118 319.58,-19.589 328.325,-25.5707 330.147,-18.8118"/>
</g>
<!-- Node16&#45;&gt;Node8 -->
<g id="edge20" class="edge"><title>Node16&#45;&gt;Node8</title>
<path fill="none" stroke="midnightblue" d="M342.793,-48C355.788,-48 369.328,-48 381.581,-48"/>
<polygon fill="midnightblue" stroke="midnightblue" points="342.524,-44.5001 332.524,-48 342.524,-51.5001 342.524,-44.5001"/>
</g>
</g>
</svg>
