<?xml version="1.0" encoding="UTF-8" standalone="no"?>
<!DOCTYPE svg PUBLIC "-//W3C//DTD SVG 1.1//EN"
 "http://www.w3.org/Graphics/SVG/1.1/DTD/svg11.dtd">
<!-- Generated by graphviz version 2.36.0 (20140111.2315)
 -->
<!-- Title: strlcpy Pages: 1 -->
<!--zoomable 496 -->
<svg id="main" version="1.1" xmlns="http://www.w3.org/2000/svg" xmlns:xlink="http://www.w3.org/1999/xlink" xml:space="preserve" onload="init(evt)">
<style type="text/css"><![CDATA[
.edge:hover path { stroke: red; }
.edge:hover polygon { stroke: red; fill: red; }
]]></style>
<script type="text/javascript"><![CDATA[
var edges = document.getElementsByTagName('g');
if (edges && edges.length) {
  for (var i=0;i<edges.length;i++) {
    if (edges[i].id.substr(0,4)=='edge') {
      edges[i].setAttribute('class','edge');
    }
  }
}
]]></script>
        <defs>
                <circle id="rim" cx="0" cy="0" r="7"/>
                <circle id="rim2" cx="0" cy="0" r="3.5"/>
                <g id="zoomPlus">
                        <use xlink:href="#rim" fill="#404040">
                                <set attributeName="fill" to="#808080" begin="zoomplus.mouseover" end="zoomplus.mouseout"/>
                        </use>
                        <path d="M-4,0h8M0,-4v8" fill="none" stroke="white" stroke-width="1.5" pointer-events="none"/>
                </g>
                <g id="zoomMin">
                        <use xlink:href="#rim" fill="#404040">
                                <set attributeName="fill" to="#808080" begin="zoomminus.mouseover" end="zoomminus.mouseout"/>
                        </use>
                        <path d="M-4,0h8" fill="none" stroke="white" stroke-width="1.5" pointer-events="none"/>
                </g>
                <g id="dirArrow">
                        <path fill="none" stroke="white" stroke-width="1.5" d="M0,-3.0v7 M-2.5,-0.5L0,-3.0L2.5,-0.5"/>
                </g>
               <g id="resetDef">
                       <use xlink:href="#rim2" fill="#404040">
                               <set attributeName="fill" to="#808080" begin="reset.mouseover" end="reset.mouseout"/>
                       </use>
               </g>
        </defs>

<script type="text/javascript">
var viewWidth = 874;
var viewHeight = 496;
var sectionId = 'dynsection-2';
</script>
<script xlink:href="svgpan.js"/>
<svg id="graph" class="graph">
<g id="viewport">
<title>strlcpy</title>
<polygon fill="white" stroke="none" points="-4,4 -4,-492 870,-492 870,4 -4,4"/>
<!-- Node1 -->
<g id="node1" class="node"><title>Node1</title>
<polygon fill="#bfbfbf" stroke="black" points="0,-183.5 0,-202.5 46,-202.5 46,-183.5 0,-183.5"/>
<text text-anchor="middle" x="23" y="-190.5" font-family="Helvetica,sans-Serif" font-size="10.00">strlcpy</text>
</g>
<!-- Node2 -->
<g id="node2" class="node"><title>Node2</title>
<g id="a_node2"><a xlink:href="class_d_r_s.xhtml#a60c67f755b90e211f1f10c549a2f16b7" target="_top" xlink:title="DRS::GetError">
<polygon fill="white" stroke="black" points="115.5,-430.5 115.5,-449.5 196.5,-449.5 196.5,-430.5 115.5,-430.5"/>
<text text-anchor="middle" x="156" y="-437.5" font-family="Helvetica,sans-Serif" font-size="10.00">DRS::GetError</text>
</a>
</g>
</g>
<!-- Node1&#45;&gt;Node2 -->
<g id="edge1" class="edge"><title>Node1&#45;&gt;Node2</title>
<path fill="none" stroke="midnightblue" d="M26.4264,-212.648C32.9516,-262.349 52.4077,-391.244 82,-421 90.8652,-429.914 103.347,-434.815 115.487,-437.458"/>
<polygon fill="midnightblue" stroke="midnightblue" points="29.8767,-212.035 25.1383,-202.559 22.9331,-212.922 29.8767,-212.035"/>
</g>
<!-- Node3 -->
<g id="node3" class="node"><title>Node3</title>
<g id="a_node3"><a xlink:href="mxml_8c.xhtml#a15f4b76ba97d02c8bc1009a416eb51db" target="_top" xlink:title="mxml_add_attribute">
<polygon fill="white" stroke="black" points="277,-354.5 277,-373.5 379,-373.5 379,-354.5 277,-354.5"/>
<text text-anchor="middle" x="328" y="-361.5" font-family="Helvetica,sans-Serif" font-size="10.00">mxml_add_attribute</text>
</a>
</g>
</g>
<!-- Node1&#45;&gt;Node3 -->
<g id="edge2" class="edge"><title>Node1&#45;&gt;Node3</title>
<path fill="none" stroke="midnightblue" d="M30.8348,-212.05C39.4986,-233.546 56.4524,-268.101 82,-288 139.445,-332.743 223.449,-351.334 276.655,-358.928"/>
<polygon fill="midnightblue" stroke="midnightblue" points="34.0877,-210.757 27.2463,-202.667 27.5496,-213.258 34.0877,-210.757"/>
</g>
<!-- Node5 -->
<g id="node5" class="node"><title>Node5</title>
<g id="a_node5"><a xlink:href="mxml_8c.xhtml#a0ebae029488c0bca9001b86916abe5ca" target="_top" xlink:title="mxml_parse_file">
<polygon fill="white" stroke="black" points="578,-221.5 578,-240.5 666,-240.5 666,-221.5 578,-221.5"/>
<text text-anchor="middle" x="622" y="-228.5" font-family="Helvetica,sans-Serif" font-size="10.00">mxml_parse_file</text>
</a>
</g>
</g>
<!-- Node1&#45;&gt;Node5 -->
<g id="edge34" class="edge"><title>Node1&#45;&gt;Node5</title>
<path fill="none" stroke="midnightblue" d="M56.158,-188.586C137.11,-178.421 355.451,-156.887 532,-193 558.501,-198.421 586.87,-212.053 604.276,-221.424"/>
<polygon fill="midnightblue" stroke="midnightblue" points="55.5728,-185.132 46.1014,-189.88 56.4663,-192.075 55.5728,-185.132"/>
</g>
<!-- Node8 -->
<g id="node8" class="node"><title>Node8</title>
<g id="a_node8"><a xlink:href="mxml_8c.xhtml#ad030ed9e4ac1bdcf7cda84301f87aa04" target="_top" xlink:title="mxml_add_special_node_at">
<polygon fill="white" stroke="black" points="87.5,-259.5 87.5,-278.5 224.5,-278.5 224.5,-259.5 87.5,-259.5"/>
<text text-anchor="middle" x="156" y="-266.5" font-family="Helvetica,sans-Serif" font-size="10.00">mxml_add_special_node_at</text>
</a>
</g>
</g>
<!-- Node1&#45;&gt;Node8 -->
<g id="edge7" class="edge"><title>Node1&#45;&gt;Node8</title>
<path fill="none" stroke="midnightblue" d="M49.2602,-207.655C75.5873,-222.929 116.074,-246.417 138.543,-259.453"/>
<polygon fill="midnightblue" stroke="midnightblue" points="50.9974,-204.616 40.5912,-202.625 47.4846,-210.671 50.9974,-204.616"/>
</g>
<!-- Node12 -->
<g id="node12" class="node"><title>Node12</title>
<g id="a_node12"><a xlink:href="mxml_8c.xhtml#acd5df9d9cc5b5f2f75c06585d7867488" target="_top" xlink:title="mxml_encode">
<polygon fill="white" stroke="black" points="117.5,-88.5 117.5,-107.5 194.5,-107.5 194.5,-88.5 117.5,-88.5"/>
<text text-anchor="middle" x="156" y="-95.5" font-family="Helvetica,sans-Serif" font-size="10.00">mxml_encode</text>
</a>
</g>
</g>
<!-- Node1&#45;&gt;Node12 -->
<g id="edge13" class="edge"><title>Node1&#45;&gt;Node12</title>
<path fill="none" stroke="midnightblue" d="M34.6998,-174.717C44.9505,-158.694 61.8186,-135.858 82,-122 92.5578,-114.75 105.463,-109.563 117.47,-105.91"/>
<polygon fill="midnightblue" stroke="midnightblue" points="31.7126,-172.893 29.4539,-183.245 37.6748,-176.561 31.7126,-172.893"/>
</g>
<!-- Node13 -->
<g id="node13" class="node"><title>Node13</title>
<g id="a_node13"><a xlink:href="mxml_8c.xhtml#a43879e9508767beaf57424ec1393f661" target="_top" xlink:title="mxml_start_element1">
<polygon fill="white" stroke="black" points="273,-88.5 273,-107.5 383,-107.5 383,-88.5 273,-88.5"/>
<text text-anchor="middle" x="328" y="-95.5" font-family="Helvetica,sans-Serif" font-size="10.00">mxml_start_element1</text>
</a>
</g>
</g>
<!-- Node1&#45;&gt;Node13 -->
<g id="edge37" class="edge"><title>Node1&#45;&gt;Node13</title>
<path fill="none" stroke="midnightblue" d="M46.7274,-178.175C57.1488,-171.88 69.8635,-164.884 82,-160 118.379,-145.361 223.403,-120.938 283.474,-107.531"/>
<polygon fill="midnightblue" stroke="midnightblue" points="44.8772,-175.203 38.2316,-183.455 48.5724,-181.149 44.8772,-175.203"/>
</g>
<!-- Node21 -->
<g id="node21" class="node"><title>Node21</title>
<g id="a_node21"><a xlink:href="mxml_8c.xhtml#ab4b547074c15b19eae1b6f16050c75d9" target="_top" xlink:title="mxml_find_nodes1">
<polygon fill="white" stroke="black" points="107,-392.5 107,-411.5 205,-411.5 205,-392.5 107,-392.5"/>
<text text-anchor="middle" x="156" y="-399.5" font-family="Helvetica,sans-Serif" font-size="10.00">mxml_find_nodes1</text>
</a>
</g>
</g>
<!-- Node1&#45;&gt;Node21 -->
<g id="edge25" class="edge"><title>Node1&#45;&gt;Node21</title>
<path fill="none" stroke="midnightblue" d="M28.4791,-212.679C35.9243,-242.368 52.9721,-299.447 82,-340 97.8723,-362.174 123.367,-381.383 139.642,-392.325"/>
<polygon fill="midnightblue" stroke="midnightblue" points="31.829,-211.639 26.0908,-202.733 25.0225,-213.273 31.829,-211.639"/>
</g>
<!-- Node26 -->
<g id="node26" class="node"><title>Node26</title>
<g id="a_node26"><a xlink:href="mxml_8c.xhtml#a595fcbc469797e35a18099dc53cdbb11" target="_top" xlink:title="mxml_replace_attribute_name">
<polygon fill="white" stroke="black" points="82.5,-50.5 82.5,-69.5 229.5,-69.5 229.5,-50.5 82.5,-50.5"/>
<text text-anchor="middle" x="156" y="-57.5" font-family="Helvetica,sans-Serif" font-size="10.00">mxml_replace_attribute_name</text>
</a>
</g>
</g>
<!-- Node1&#45;&gt;Node26 -->
<g id="edge35" class="edge"><title>Node1&#45;&gt;Node26</title>
<path fill="none" stroke="midnightblue" d="M28.6399,-173.338C35.7183,-147.731 51.704,-103.369 82,-79 86.7961,-75.1423 92.2917,-72.0606 98.0683,-69.6001"/>
<polygon fill="midnightblue" stroke="midnightblue" points="25.1665,-172.792 26.0651,-183.349 31.9458,-174.536 25.1665,-172.792"/>
</g>
<!-- Node27 -->
<g id="node27" class="node"><title>Node27</title>
<g id="a_node27"><a xlink:href="mxml_8c.xhtml#a8a4449328097653273b0295330fb0a44" target="_top" xlink:title="mxml_replace_node_name">
<polygon fill="white" stroke="black" points="89.5,-12.5 89.5,-31.5 222.5,-31.5 222.5,-12.5 89.5,-12.5"/>
<text text-anchor="middle" x="156" y="-19.5" font-family="Helvetica,sans-Serif" font-size="10.00">mxml_replace_node_name</text>
</a>
</g>
</g>
<!-- Node1&#45;&gt;Node27 -->
<g id="edge36" class="edge"><title>Node1&#45;&gt;Node27</title>
<path fill="none" stroke="midnightblue" d="M25.7976,-173.483C29.8498,-141.072 42.6664,-76.232 82,-41 86.2921,-37.1555 91.2653,-34.0712 96.5586,-31.5994"/>
<polygon fill="midnightblue" stroke="midnightblue" points="22.3109,-173.172 24.7007,-183.494 29.2693,-173.934 22.3109,-173.172"/>
</g>
<!-- Node28 -->
<g id="node28" class="node"><title>Node28</title>
<g id="a_node28"><a xlink:href="mxml_8c.xhtml#a7a11f9a05fffb677a2d8d189f4b3f370" target="_top" xlink:title="read_error">
<polygon fill="white" stroke="black" points="298,-202.5 298,-221.5 358,-221.5 358,-202.5 298,-202.5"/>
<text text-anchor="middle" x="328" y="-209.5" font-family="Helvetica,sans-Serif" font-size="10.00">read_error</text>
</a>
</g>
</g>
<!-- Node1&#45;&gt;Node28 -->
<g id="edge38" class="edge"><title>Node1&#45;&gt;Node28</title>
<path fill="none" stroke="midnightblue" d="M56.572,-195.042C115.943,-198.765 240.875,-206.599 297.721,-210.164"/>
<polygon fill="midnightblue" stroke="midnightblue" points="56.4798,-191.53 46.2803,-194.397 56.0416,-198.516 56.4798,-191.53"/>
</g>
<!-- Node4 -->
<g id="node4" class="node"><title>Node4</title>
<g id="a_node4"><a xlink:href="mxml_8c.xhtml#a5ef2edd4f9e5fb7946c0150c3be731b5" target="_top" xlink:title="mxml_parse_buffer">
<polygon fill="white" stroke="black" points="429,-240.5 429,-259.5 529,-259.5 529,-240.5 429,-240.5"/>
<text text-anchor="middle" x="479" y="-247.5" font-family="Helvetica,sans-Serif" font-size="10.00">mxml_parse_buffer</text>
</a>
</g>
</g>
<!-- Node3&#45;&gt;Node4 -->
<g id="edge3" class="edge"><title>Node3&#45;&gt;Node4</title>
<path fill="none" stroke="midnightblue" d="M379.379,-350.677C383.08,-348.99 386.665,-347.104 390,-345 427.078,-321.609 458.729,-278.732 471.707,-259.627"/>
<polygon fill="midnightblue" stroke="midnightblue" points="377.966,-347.474 370.016,-354.477 380.598,-353.96 377.966,-347.474"/>
</g>
<!-- Node7 -->
<g id="node7" class="node"><title>Node7</title>
<g id="a_node7"><a xlink:href="mxml_8c.xhtml#a73cb7fc1ac4ef0d3a05d880e1de662f4" target="_top" xlink:title="mxml_clone_tree">
<polygon fill="white" stroke="black" points="433.5,-373.5 433.5,-392.5 524.5,-392.5 524.5,-373.5 433.5,-373.5"/>
<text text-anchor="middle" x="479" y="-380.5" font-family="Helvetica,sans-Serif" font-size="10.00">mxml_clone_tree</text>
</a>
</g>
</g>
<!-- Node3&#45;&gt;Node7 -->
<g id="edge6" class="edge"><title>Node3&#45;&gt;Node7</title>
<path fill="none" stroke="midnightblue" d="M389.107,-371.665C403.887,-373.549 419.454,-375.534 433.358,-377.307"/>
<polygon fill="midnightblue" stroke="midnightblue" points="389.392,-368.173 379.029,-370.38 388.506,-375.116 389.392,-368.173"/>
</g>
<!-- Node4&#45;&gt;Node5 -->
<g id="edge4" class="edge"><title>Node4&#45;&gt;Node5</title>
<path fill="none" stroke="midnightblue" d="M539.439,-241.99C552.238,-240.266 565.535,-238.474 577.587,-236.85"/>
<polygon fill="midnightblue" stroke="midnightblue" points="538.758,-238.551 529.315,-243.355 539.693,-245.488 538.758,-238.551"/>
</g>
<!-- Node6 -->
<g id="node6" class="node"><title>Node6</title>
<g id="a_node6"><a xlink:href="class_d_r_s_board.xhtml#af9f7718b667109421094ec226224b012" target="_top" xlink:title="DRSBoard::GetTimeCalibration">
<polygon fill="white" stroke="black" points="712,-430.5 712,-449.5 866,-449.5 866,-430.5 712,-430.5"/>
<text text-anchor="middle" x="789" y="-437.5" font-family="Helvetica,sans-Serif" font-size="10.00">DRSBoard::GetTimeCalibration</text>
</a>
</g>
</g>
<!-- Node5&#45;&gt;Node6 -->
<g id="edge5" class="edge"><title>Node5&#45;&gt;Node6</title>
<path fill="none" stroke="midnightblue" d="M636.846,-248.539C670.309,-290.925 754.708,-397.83 780.437,-430.421"/>
<polygon fill="midnightblue" stroke="midnightblue" points="639.462,-246.203 630.518,-240.523 633.968,-250.541 639.462,-246.203"/>
</g>
<!-- Node9 -->
<g id="node9" class="node"><title>Node9</title>
<g id="a_node9"><a xlink:href="mxml_8c.xhtml#a0eed7fed4f2f71e211cf85105b4b007c" target="_top" xlink:title="mxml_add_special_node">
<polygon fill="white" stroke="black" points="266,-316.5 266,-335.5 390,-335.5 390,-316.5 266,-316.5"/>
<text text-anchor="middle" x="328" y="-323.5" font-family="Helvetica,sans-Serif" font-size="10.00">mxml_add_special_node</text>
</a>
</g>
</g>
<!-- Node8&#45;&gt;Node9 -->
<g id="edge8" class="edge"><title>Node8&#45;&gt;Node9</title>
<path fill="none" stroke="midnightblue" d="M193.346,-282.013C214.49,-289.497 241.684,-298.977 266,-307 275.586,-310.163 286.064,-313.478 295.59,-316.437"/>
<polygon fill="midnightblue" stroke="midnightblue" points="194.386,-278.668 183.791,-278.621 192.044,-285.265 194.386,-278.668"/>
</g>
<!-- Node10 -->
<g id="node10" class="node"><title>Node10</title>
<g id="a_node10"><a xlink:href="mxml_8c.xhtml#afa83c9bacbedeb26f8dbc2d8e26fdfad" target="_top" xlink:title="mxml_add_node">
<polygon fill="white" stroke="black" points="284,-240.5 284,-259.5 372,-259.5 372,-240.5 284,-240.5"/>
<text text-anchor="middle" x="328" y="-247.5" font-family="Helvetica,sans-Serif" font-size="10.00">mxml_add_node</text>
</a>
</g>
</g>
<!-- Node8&#45;&gt;Node10 -->
<g id="edge10" class="edge"><title>Node8&#45;&gt;Node10</title>
<path fill="none" stroke="midnightblue" d="M235.084,-260.273C251.912,-258.392 269.105,-256.471 283.999,-254.806"/>
<polygon fill="midnightblue" stroke="midnightblue" points="234.226,-256.847 224.677,-261.436 235.004,-263.804 234.226,-256.847"/>
</g>
<!-- Node11 -->
<g id="node11" class="node"><title>Node11</title>
<g id="a_node11"><a xlink:href="mxml_8c.xhtml#a92015fcc9635dce8a1d32c653baf3a6b" target="_top" xlink:title="mxml_add_node_at">
<polygon fill="white" stroke="black" points="277.5,-278.5 277.5,-297.5 378.5,-297.5 378.5,-278.5 277.5,-278.5"/>
<text text-anchor="middle" x="328" y="-285.5" font-family="Helvetica,sans-Serif" font-size="10.00">mxml_add_node_at</text>
</a>
</g>
</g>
<!-- Node8&#45;&gt;Node11 -->
<g id="edge12" class="edge"><title>Node8&#45;&gt;Node11</title>
<path fill="none" stroke="midnightblue" d="M234.661,-277.68C249.179,-279.302 263.984,-280.957 277.367,-282.453"/>
<polygon fill="midnightblue" stroke="midnightblue" points="235.004,-274.196 224.677,-276.564 234.226,-281.153 235.004,-274.196"/>
</g>
<!-- Node9&#45;&gt;Node4 -->
<g id="edge9" class="edge"><title>Node9&#45;&gt;Node4</title>
<path fill="none" stroke="midnightblue" d="M375.173,-313.102C380.253,-311.247 385.287,-309.209 390,-307 418.678,-293.556 449.026,-272.055 465.525,-259.66"/>
<polygon fill="midnightblue" stroke="midnightblue" points="373.749,-309.89 365.421,-316.44 376.016,-316.512 373.749,-309.89"/>
</g>
<!-- Node10&#45;&gt;Node4 -->
<g id="edge11" class="edge"><title>Node10&#45;&gt;Node4</title>
<path fill="none" stroke="midnightblue" d="M382.378,-250C397.574,-250 414.048,-250 428.972,-250"/>
<polygon fill="midnightblue" stroke="midnightblue" points="382.097,-246.5 372.097,-250 382.097,-253.5 382.097,-246.5"/>
</g>
<!-- Node12&#45;&gt;Node13 -->
<g id="edge14" class="edge"><title>Node12&#45;&gt;Node13</title>
<path fill="none" stroke="midnightblue" d="M204.797,-98C225.999,-98 251.048,-98 272.93,-98"/>
<polygon fill="midnightblue" stroke="midnightblue" points="204.729,-94.5001 194.729,-98 204.728,-101.5 204.729,-94.5001"/>
</g>
<!-- Node19 -->
<g id="node19" class="node"><title>Node19</title>
<g id="a_node19"><a xlink:href="mxml_8c.xhtml#a7745af802a053bde67f77555ab47a17b" target="_top" xlink:title="mxml_write_attribute">
<polygon fill="white" stroke="black" points="274.5,-0.5 274.5,-19.5 381.5,-19.5 381.5,-0.5 274.5,-0.5"/>
<text text-anchor="middle" x="328" y="-7.5" font-family="Helvetica,sans-Serif" font-size="10.00">mxml_write_attribute</text>
</a>
</g>
</g>
<!-- Node12&#45;&gt;Node19 -->
<g id="edge20" class="edge"><title>Node12&#45;&gt;Node19</title>
<path fill="none" stroke="midnightblue" d="M204.443,-90.7492C213.426,-88.0036 222.384,-84.2184 230,-79 252.589,-63.5226 243.783,-45.0075 266,-29 271.4,-25.1095 277.619,-21.9989 283.977,-19.5165"/>
<polygon fill="midnightblue" stroke="midnightblue" points="203.507,-87.3766 194.749,-93.339 205.313,-94.1395 203.507,-87.3766"/>
</g>
<!-- Node20 -->
<g id="node20" class="node"><title>Node20</title>
<g id="a_node20"><a xlink:href="mxml_8c.xhtml#a9cf33f3456fea00ea438422ebb7bd6be" target="_top" xlink:title="mxml_write_value">
<polygon fill="white" stroke="black" points="280.5,-38.5 280.5,-57.5 375.5,-57.5 375.5,-38.5 280.5,-38.5"/>
<text text-anchor="middle" x="328" y="-45.5" font-family="Helvetica,sans-Serif" font-size="10.00">mxml_write_value</text>
</a>
</g>
</g>
<!-- Node12&#45;&gt;Node20 -->
<g id="edge22" class="edge"><title>Node12&#45;&gt;Node20</title>
<path fill="none" stroke="midnightblue" d="M204.459,-86.0503C212.984,-83.7892 221.773,-81.3834 230,-79 253.094,-72.3097 279.027,-63.9788 298.264,-57.6386"/>
<polygon fill="midnightblue" stroke="midnightblue" points="203.406,-82.7078 194.62,-88.6282 205.181,-89.4792 203.406,-82.7078"/>
</g>
<!-- Node14 -->
<g id="node14" class="node"><title>Node14</title>
<g id="a_node14"><a xlink:href="mxml_8c.xhtml#a1490cd450c6499bab0d70fbeaf88c3be" target="_top" xlink:title="mxml_start_element">
<polygon fill="white" stroke="black" points="426.5,-126.5 426.5,-145.5 531.5,-145.5 531.5,-126.5 426.5,-126.5"/>
<text text-anchor="middle" x="479" y="-133.5" font-family="Helvetica,sans-Serif" font-size="10.00">mxml_start_element</text>
</a>
</g>
</g>
<!-- Node13&#45;&gt;Node14 -->
<g id="edge15" class="edge"><title>Node13&#45;&gt;Node14</title>
<path fill="none" stroke="midnightblue" d="M376.492,-110.112C397.244,-115.404 421.228,-121.521 440.671,-126.48"/>
<polygon fill="midnightblue" stroke="midnightblue" points="377.154,-106.669 366.599,-107.589 375.424,-113.452 377.154,-106.669"/>
</g>
<!-- Node16 -->
<g id="node16" class="node"><title>Node16</title>
<g id="a_node16"><a xlink:href="mxml_8c.xhtml#aef9e08f5651e4905af653c15c6bb0d6e" target="_top" xlink:title="mxml_start_element\l_noindent">
<polygon fill="white" stroke="black" points="426.5,-77 426.5,-107 531.5,-107 531.5,-77 426.5,-77"/>
<text text-anchor="start" x="434.5" y="-95" font-family="Helvetica,sans-Serif" font-size="10.00">mxml_start_element</text>
<text text-anchor="middle" x="479" y="-84" font-family="Helvetica,sans-Serif" font-size="10.00">_noindent</text>
</a>
</g>
</g>
<!-- Node13&#45;&gt;Node16 -->
<g id="edge17" class="edge"><title>Node13&#45;&gt;Node16</title>
<path fill="none" stroke="midnightblue" d="M393.521,-95.4018C404.396,-94.9639 415.56,-94.5144 426.064,-94.0914"/>
<polygon fill="midnightblue" stroke="midnightblue" points="393.065,-91.9173 383.214,-95.8169 393.347,-98.9116 393.065,-91.9173"/>
</g>
<!-- Node17 -->
<g id="node17" class="node"><title>Node17</title>
<g id="a_node17"><a xlink:href="mxml_8c.xhtml#aad3952c0c32fc16aa78fde6faa7bd002" target="_top" xlink:title="mxml_write_subtree">
<polygon fill="white" stroke="black" points="427,-0.5 427,-19.5 531,-19.5 531,-0.5 427,-0.5"/>
<text text-anchor="middle" x="479" y="-7.5" font-family="Helvetica,sans-Serif" font-size="10.00">mxml_write_subtree</text>
</a>
</g>
</g>
<!-- Node13&#45;&gt;Node17 -->
<g id="edge18" class="edge"><title>Node13&#45;&gt;Node17</title>
<path fill="none" stroke="midnightblue" d="M358.024,-84.0268C368.254,-78.8987 379.754,-72.9004 390,-67 416.974,-51.4669 447.176,-31.2526 464.259,-19.5416"/>
<polygon fill="midnightblue" stroke="midnightblue" points="356.469,-80.8913 349.059,-88.464 359.574,-87.165 356.469,-80.8913"/>
</g>
<!-- Node15 -->
<g id="node15" class="node"><title>Node15</title>
<g id="a_node15"><a xlink:href="mxml_8c.xhtml#ac6ccd07b846150067db07ed7086cf7e1" target="_top" xlink:title="mxml_write_element">
<polygon fill="white" stroke="black" points="568.5,-82.5 568.5,-101.5 675.5,-101.5 675.5,-82.5 568.5,-82.5"/>
<text text-anchor="middle" x="622" y="-89.5" font-family="Helvetica,sans-Serif" font-size="10.00">mxml_write_element</text>
</a>
</g>
</g>
<!-- Node14&#45;&gt;Node15 -->
<g id="edge16" class="edge"><title>Node14&#45;&gt;Node15</title>
<path fill="none" stroke="midnightblue" d="M520.148,-123.472C542.497,-116.497 569.876,-107.954 590.465,-101.529"/>
<polygon fill="midnightblue" stroke="midnightblue" points="519.098,-120.133 510.595,-126.453 521.184,-126.815 519.098,-120.133"/>
</g>
<!-- Node18 -->
<g id="node18" class="node"><title>Node18</title>
<g id="a_node18"><a xlink:href="mxml_8c.xhtml#a6dc934e8374543e6070804f8a5822f5f" target="_top" xlink:title="mxml_write_tree">
<polygon fill="white" stroke="black" points="577.5,-0.5 577.5,-19.5 666.5,-19.5 666.5,-0.5 577.5,-0.5"/>
<text text-anchor="middle" x="622" y="-7.5" font-family="Helvetica,sans-Serif" font-size="10.00">mxml_write_tree</text>
</a>
</g>
</g>
<!-- Node17&#45;&gt;Node18 -->
<g id="edge19" class="edge"><title>Node17&#45;&gt;Node18</title>
<path fill="none" stroke="midnightblue" d="M541.375,-10C553.507,-10 566.005,-10 577.4,-10"/>
<polygon fill="midnightblue" stroke="midnightblue" points="541.303,-6.5001 531.303,-10 541.303,-13.5001 541.303,-6.5001"/>
</g>
<!-- Node19&#45;&gt;Node17 -->
<g id="edge21" class="edge"><title>Node19&#45;&gt;Node17</title>
<path fill="none" stroke="midnightblue" d="M391.718,-10C403.462,-10 415.606,-10 426.944,-10"/>
<polygon fill="midnightblue" stroke="midnightblue" points="391.532,-6.5001 381.532,-10 391.532,-13.5001 391.532,-6.5001"/>
</g>
<!-- Node20&#45;&gt;Node15 -->
<g id="edge23" class="edge"><title>Node20&#45;&gt;Node15</title>
<path fill="none" stroke="midnightblue" d="M385.744,-50.564C426.663,-53.0787 483.073,-57.9155 532,-67 552.356,-70.7795 574.796,-77.0981 592.051,-82.437"/>
<polygon fill="midnightblue" stroke="midnightblue" points="385.877,-47.0659 375.689,-49.9735 385.466,-54.0538 385.877,-47.0659"/>
</g>
<!-- Node20&#45;&gt;Node17 -->
<g id="edge24" class="edge"><title>Node20&#45;&gt;Node17</title>
<path fill="none" stroke="midnightblue" d="M376.492,-35.8879C397.244,-30.5956 421.228,-24.4787 440.671,-19.5201"/>
<polygon fill="midnightblue" stroke="midnightblue" points="375.424,-32.5482 366.599,-38.411 377.154,-39.3311 375.424,-32.5482"/>
</g>
<!-- Node22 -->
<g id="node22" class="node"><title>Node22</title>
<g id="a_node22"><a xlink:href="mxml_8c.xhtml#a77bc20aac65b3c46df4b08aeb52b2686" target="_top" xlink:title="mxml_subnode">
<polygon fill="white" stroke="black" points="286.5,-430.5 286.5,-449.5 369.5,-449.5 369.5,-430.5 286.5,-430.5"/>
<text text-anchor="middle" x="328" y="-437.5" font-family="Helvetica,sans-Serif" font-size="10.00">mxml_subnode</text>
</a>
</g>
</g>
<!-- Node21&#45;&gt;Node22 -->
<g id="edge26" class="edge"><title>Node21&#45;&gt;Node22</title>
<path fill="none" stroke="midnightblue" d="M209.842,-413.812C234.55,-419.335 263.511,-425.808 286.456,-430.937"/>
<polygon fill="midnightblue" stroke="midnightblue" points="210.421,-410.355 199.898,-411.589 208.894,-417.186 210.421,-410.355"/>
</g>
<!-- Node23 -->
<g id="node23" class="node"><title>Node23</title>
<g id="a_node23"><a xlink:href="mxml_8c.xhtml#a6bcd06b8ff582dece9ba510e161284d5" target="_top" xlink:title="mxml_add_resultnode">
<polygon fill="white" stroke="black" points="272,-392.5 272,-411.5 384,-411.5 384,-392.5 272,-392.5"/>
<text text-anchor="middle" x="328" y="-399.5" font-family="Helvetica,sans-Serif" font-size="10.00">mxml_add_resultnode</text>
</a>
</g>
</g>
<!-- Node21&#45;&gt;Node23 -->
<g id="edge29" class="edge"><title>Node21&#45;&gt;Node23</title>
<path fill="none" stroke="midnightblue" d="M215.463,-395.551C233.688,-395.125 253.722,-395.151 271.721,-395.631"/>
<polygon fill="midnightblue" stroke="midnightblue" points="215.156,-392.059 205.26,-395.845 215.357,-399.056 215.156,-392.059"/>
</g>
<!-- Node24 -->
<g id="node24" class="node"><title>Node24</title>
<g id="a_node24"><a xlink:href="mxml_8c.xhtml#a6dc97d9bb89977574a5f5cff952f3550" target="_top" xlink:title="mxml_find_nodes">
<polygon fill="white" stroke="black" points="281.5,-468.5 281.5,-487.5 374.5,-487.5 374.5,-468.5 281.5,-468.5"/>
<text text-anchor="middle" x="328" y="-475.5" font-family="Helvetica,sans-Serif" font-size="10.00">mxml_find_nodes</text>
</a>
</g>
</g>
<!-- Node21&#45;&gt;Node24 -->
<g id="edge31" class="edge"><title>Node21&#45;&gt;Node24</title>
<path fill="none" stroke="midnightblue" d="M214.869,-413.788C220.148,-415.826 225.278,-418.211 230,-421 250.031,-432.832 246.254,-446.698 266,-459 272.119,-462.813 279.064,-465.914 286.02,-468.42"/>
<polygon fill="midnightblue" stroke="midnightblue" points="215.858,-410.427 205.263,-410.48 213.579,-417.045 215.858,-410.427"/>
</g>
<!-- Node22&#45;&gt;Node6 -->
<g id="edge27" class="edge"><title>Node22&#45;&gt;Node6</title>
<path fill="none" stroke="midnightblue" d="M380.12,-440C460.771,-440 618.002,-440 711.94,-440"/>
<polygon fill="midnightblue" stroke="midnightblue" points="379.733,-436.5 369.733,-440 379.733,-443.5 379.733,-436.5"/>
</g>
<!-- Node22&#45;&gt;Node7 -->
<g id="edge28" class="edge"><title>Node22&#45;&gt;Node7</title>
<path fill="none" stroke="midnightblue" d="M371.496,-427.398C377.738,-425.364 384.062,-423.2 390,-421 413.563,-412.271 439.946,-400.618 457.624,-392.528"/>
<polygon fill="midnightblue" stroke="midnightblue" points="370.291,-424.108 361.822,-430.475 372.413,-430.779 370.291,-424.108"/>
</g>
<!-- Node23&#45;&gt;Node21 -->
<g id="edge30" class="edge"><title>Node23&#45;&gt;Node21</title>
<path fill="none" stroke="midnightblue" d="M261.489,-408.59C242.778,-408.902 222.737,-408.758 205.26,-408.155"/>
<polygon fill="midnightblue" stroke="midnightblue" points="261.799,-412.084 271.721,-408.369 261.648,-405.086 261.799,-412.084"/>
</g>
<!-- Node25 -->
<g id="node25" class="node"><title>Node25</title>
<g id="a_node25"><a xlink:href="mxml_8c.xhtml#a43e02c5111b428f22b1032a318ffe29f" target="_top" xlink:title="mxml_find_node">
<polygon fill="white" stroke="black" points="578,-468.5 578,-487.5 666,-487.5 666,-468.5 578,-468.5"/>
<text text-anchor="middle" x="622" y="-475.5" font-family="Helvetica,sans-Serif" font-size="10.00">mxml_find_node</text>
</a>
</g>
</g>
<!-- Node24&#45;&gt;Node25 -->
<g id="edge32" class="edge"><title>Node24&#45;&gt;Node25</title>
<path fill="none" stroke="midnightblue" d="M384.752,-478C440.89,-478 526.319,-478 577.6,-478"/>
<polygon fill="midnightblue" stroke="midnightblue" points="384.625,-474.5 374.625,-478 384.625,-481.5 384.625,-474.5"/>
</g>
<!-- Node25&#45;&gt;Node6 -->
<g id="edge33" class="edge"><title>Node25&#45;&gt;Node6</title>
<path fill="none" stroke="midnightblue" d="M674.654,-466.104C697.846,-460.763 724.838,-454.546 746.663,-449.52"/>
<polygon fill="midnightblue" stroke="midnightblue" points="673.596,-462.756 664.636,-468.411 675.167,-469.577 673.596,-462.756"/>
</g>
<!-- Node28&#45;&gt;Node4 -->
<g id="edge39" class="edge"><title>Node28&#45;&gt;Node4</title>
<path fill="none" stroke="midnightblue" d="M367.94,-221.931C390.343,-227.644 418.35,-234.787 440.505,-240.437"/>
<polygon fill="midnightblue" stroke="midnightblue" points="368.637,-218.497 358.082,-219.417 366.907,-225.28 368.637,-218.497"/>
</g>
<!-- Node29 -->
<g id="node29" class="node"><title>Node29</title>
<g id="a_node29"><a xlink:href="mxml_8c.xhtml#a9c1dde43a12f9e8383227dd5f79bf91d" target="_top" xlink:title="mxml_parse_entity">
<polygon fill="white" stroke="black" points="429.5,-202.5 429.5,-221.5 528.5,-221.5 528.5,-202.5 429.5,-202.5"/>
<text text-anchor="middle" x="479" y="-209.5" font-family="Helvetica,sans-Serif" font-size="10.00">mxml_parse_entity</text>
</a>
</g>
</g>
<!-- Node28&#45;&gt;Node29 -->
<g id="edge40" class="edge"><title>Node28&#45;&gt;Node29</title>
<path fill="none" stroke="midnightblue" d="M368.318,-212C387.023,-212 409.568,-212 429.342,-212"/>
<polygon fill="midnightblue" stroke="midnightblue" points="368.082,-208.5 358.082,-212 368.082,-215.5 368.082,-208.5"/>
</g>
<!-- Node29&#45;&gt;Node5 -->
<g id="edge41" class="edge"><title>Node29&#45;&gt;Node5</title>
<path fill="none" stroke="midnightblue" d="M538.793,-219.923C551.788,-221.674 565.328,-223.498 577.581,-225.149"/>
<polygon fill="midnightblue" stroke="midnightblue" points="538.902,-216.406 528.524,-218.539 537.967,-223.343 538.902,-216.406"/>
</g>
</g>
</svg>
        <g id="navigator" transform="translate(0 0)" fill="#404254">
                <rect fill="#f2f5e9" fill-opacity="0.5" stroke="#606060" stroke-width=".5" x="0" y="0" width="60" height="60"/>
                <use id="zoomplus" xlink:href="#zoomPlus" x="17" y="9" onmousedown="handleZoom(evt,'in')"/>
                <use id="zoomminus" xlink:href="#zoomMin" x="42" y="9" onmousedown="handleZoom(evt,'out')"/>
                <use id="reset" xlink:href="#resetDef" x="30" y="36" onmousedown="handleReset()"/>
                <g id="arrowUp" xlink:href="#dirArrow" transform="translate(30 24)" onmousedown="handlePan(0,-1)">
                  <use xlink:href="#rim" fill="#404040">
                        <set attributeName="fill" to="#808080" begin="arrowUp.mouseover" end="arrowUp.mouseout"/>
                  </use>
                  <path fill="none" stroke="white" stroke-width="1.5" d="M0,-3.0v7 M-2.5,-0.5L0,-3.0L2.5,-0.5"/>
                </g>
                <g id="arrowRight" xlink:href="#dirArrow" transform="rotate(90) translate(36 -43)" onmousedown="handlePan(1,0)">
                  <use xlink:href="#rim" fill="#404040">
                        <set attributeName="fill" to="#808080" begin="arrowRight.mouseover" end="arrowRight.mouseout"/>
                  </use>
                  <path fill="none" stroke="white" stroke-width="1.5" d="M0,-3.0v7 M-2.5,-0.5L0,-3.0L2.5,-0.5"/>
                </g>
                <g id="arrowDown" xlink:href="#dirArrow" transform="rotate(180) translate(-30 -48)" onmousedown="handlePan(0,1)">
                  <use xlink:href="#rim" fill="#404040">
                        <set attributeName="fill" to="#808080" begin="arrowDown.mouseover" end="arrowDown.mouseout"/>
                  </use>
                  <path fill="none" stroke="white" stroke-width="1.5" d="M0,-3.0v7 M-2.5,-0.5L0,-3.0L2.5,-0.5"/>
                </g>
                <g id="arrowLeft" xlink:href="#dirArrow" transform="rotate(270) translate(-36 17)" onmousedown="handlePan(-1,0)">
                  <use xlink:href="#rim" fill="#404040">
                        <set attributeName="fill" to="#808080" begin="arrowLeft.mouseover" end="arrowLeft.mouseout"/>
                  </use>
                  <path fill="none" stroke="white" stroke-width="1.5" d="M0,-3.0v7 M-2.5,-0.5L0,-3.0L2.5,-0.5"/>
                </g>
        </g>
        <svg viewBox="0 0 15 15" width="100%" height="30px" preserveAspectRatio="xMaxYMin meet">
         <g id="arrow_out" transform="scale(0.3 0.3)">
          <a xlink:href="strlcpy_8h_af8c865b1f481801d8d1f0a8644be4bbc_icgraph_org.svg" target="_base">
           <rect id="button" ry="5" rx="5" y="6" x="6" height="38" width="38"
                fill="#f2f5e9" fill-opacity="0.5" stroke="#606060" stroke-width="1.0"/>
           <path id="arrow"
             d="M 11.500037,31.436501 C 11.940474,20.09759 22.043105,11.32322 32.158766,21.979434 L 37.068811,17.246167 C 37.068811,17.246167 37.088388,32 37.088388,32 L 22.160133,31.978069 C 22.160133,31.978069 26.997745,27.140456 26.997745,27.140456 C 18.528582,18.264221 13.291696,25.230495 11.500037,31.436501 z"
             style="fill:#404040;"/>
          </a>
         </g>
        </svg>
</svg>
