<?xml version="1.0" encoding="UTF-8" standalone="no"?>
<!DOCTYPE svg PUBLIC "-//W3C//DTD SVG 1.1//EN"
 "http://www.w3.org/Graphics/SVG/1.1/DTD/svg11.dtd">
<!-- Generated by graphviz version 2.36.0 (20140111.2315)
 -->
<!-- Title: strlcat Pages: 1 -->
<svg width="678pt" height="344pt"
 viewBox="0.00 0.00 678.00 344.00" xmlns="http://www.w3.org/2000/svg" xmlns:xlink="http://www.w3.org/1999/xlink">
<g id="graph0" class="graph" transform="scale(1 1) rotate(0) translate(4 340)">
<title>strlcat</title>
<polygon fill="white" stroke="none" points="-4,4 -4,-340 674,-340 674,4 -4,4"/>
<!-- Node1 -->
<g id="node1" class="node"><title>Node1</title>
<polygon fill="#bfbfbf" stroke="black" points="0,-76.5 0,-95.5 44,-95.5 44,-76.5 0,-76.5"/>
<text text-anchor="middle" x="22" y="-83.5" font-family="Helvetica,sans-Serif" font-size="10.00">strlcat</text>
</g>
<!-- Node2 -->
<g id="node2" class="node"><title>Node2</title>
<g id="a_node2"><a xlink:href="mxml_8c.xhtml#a31efd9013ec552f43c6ff48c46be7a49" target="_top" xlink:title="mxml_end_element">
<polygon fill="white" stroke="black" points="86.5,-240.5 86.5,-259.5 187.5,-259.5 187.5,-240.5 86.5,-240.5"/>
<text text-anchor="middle" x="137" y="-247.5" font-family="Helvetica,sans-Serif" font-size="10.00">mxml_end_element</text>
</a>
</g>
</g>
<!-- Node1&#45;&gt;Node2 -->
<g id="edge1" class="edge"><title>Node1&#45;&gt;Node2</title>
<path fill="none" stroke="midnightblue" d="M35.4419,-104.057C59.3961,-138.823 111.168,-213.96 129.447,-240.489"/>
<polygon fill="midnightblue" stroke="midnightblue" points="38.2862,-102.017 29.7303,-95.7678 32.522,-105.988 38.2862,-102.017"/>
</g>
<!-- Node8 -->
<g id="node8" class="node"><title>Node8</title>
<g id="a_node8"><a xlink:href="mxml_8c.xhtml#a0ebae029488c0bca9001b86916abe5ca" target="_top" xlink:title="mxml_parse_file">
<polygon fill="white" stroke="black" points="382,-38.5 382,-57.5 470,-57.5 470,-38.5 382,-38.5"/>
<text text-anchor="middle" x="426" y="-45.5" font-family="Helvetica,sans-Serif" font-size="10.00">mxml_parse_file</text>
</a>
</g>
</g>
<!-- Node1&#45;&gt;Node8 -->
<g id="edge8" class="edge"><title>Node1&#45;&gt;Node8</title>
<path fill="none" stroke="midnightblue" d="M54.455,-85.6447C111.038,-84.6605 233.636,-80.9535 336,-67 352.594,-64.738 370.705,-61.0917 386.232,-57.5953"/>
<polygon fill="midnightblue" stroke="midnightblue" points="54.3043,-82.1465 44.3604,-85.8031 54.4141,-89.1457 54.3043,-82.1465"/>
</g>
<!-- Node10 -->
<g id="node10" class="node"><title>Node10</title>
<g id="a_node10"><a xlink:href="mxml_8c.xhtml#a43879e9508767beaf57424ec1393f661" target="_top" xlink:title="mxml_start_element1">
<polygon fill="white" stroke="black" points="82,-136.5 82,-155.5 192,-155.5 192,-136.5 82,-136.5"/>
<text text-anchor="middle" x="137" y="-143.5" font-family="Helvetica,sans-Serif" font-size="10.00">mxml_start_element1</text>
</a>
</g>
</g>
<!-- Node1&#45;&gt;Node10 -->
<g id="edge10" class="edge"><title>Node1&#45;&gt;Node10</title>
<path fill="none" stroke="midnightblue" d="M49.9458,-100.307C70.9194,-111.444 99.4552,-126.596 117.804,-136.339"/>
<polygon fill="midnightblue" stroke="midnightblue" points="51.3788,-97.1056 40.9052,-95.5072 48.096,-103.288 51.3788,-97.1056"/>
</g>
<!-- Node13 -->
<g id="node13" class="node"><title>Node13</title>
<g id="a_node13"><a xlink:href="mxml_8c.xhtml#a0a19bf18872be208ce64434f62509f22" target="_top" xlink:title="mxml_write_comment">
<polygon fill="white" stroke="black" points="80.5,-0.5 80.5,-19.5 193.5,-19.5 193.5,-0.5 80.5,-0.5"/>
<text text-anchor="middle" x="137" y="-7.5" font-family="Helvetica,sans-Serif" font-size="10.00">mxml_write_comment</text>
</a>
</g>
</g>
<!-- Node1&#45;&gt;Node13 -->
<g id="edge15" class="edge"><title>Node1&#45;&gt;Node13</title>
<path fill="none" stroke="midnightblue" d="M36.9434,-68.2339C47.5697,-55.7387 63.1976,-39.4466 80,-29 86.1032,-25.2054 93.0557,-22.0655 99.9367,-19.5058"/>
<polygon fill="midnightblue" stroke="midnightblue" points="34.076,-66.2106 30.4328,-76.1594 39.485,-70.654 34.076,-66.2106"/>
</g>
<!-- Node14 -->
<g id="node14" class="node"><title>Node14</title>
<g id="a_node14"><a xlink:href="mxml_8c.xhtml#a7a11f9a05fffb677a2d8d189f4b3f370" target="_top" xlink:title="read_error">
<polygon fill="white" stroke="black" points="107,-38.5 107,-57.5 167,-57.5 167,-38.5 107,-38.5"/>
<text text-anchor="middle" x="137" y="-45.5" font-family="Helvetica,sans-Serif" font-size="10.00">read_error</text>
</a>
</g>
</g>
<!-- Node1&#45;&gt;Node14 -->
<g id="edge16" class="edge"><title>Node1&#45;&gt;Node14</title>
<path fill="none" stroke="midnightblue" d="M54.1103,-75.5381C70.8307,-69.9153 91.2966,-63.033 107.586,-57.5553"/>
<polygon fill="midnightblue" stroke="midnightblue" points="52.6172,-72.3475 44.2544,-78.8525 54.8485,-78.9824 52.6172,-72.3475"/>
</g>
<!-- Node3 -->
<g id="node3" class="node"><title>Node3</title>
<g id="a_node3"><a xlink:href="mxml_8c.xhtml#aa17f561601949f624351a45b2b3a7678" target="_top" xlink:title="mxml_close_buffer">
<polygon fill="white" stroke="black" points="233.5,-316.5 233.5,-335.5 332.5,-335.5 332.5,-316.5 233.5,-316.5"/>
<text text-anchor="middle" x="283" y="-323.5" font-family="Helvetica,sans-Serif" font-size="10.00">mxml_close_buffer</text>
</a>
</g>
</g>
<!-- Node2&#45;&gt;Node3 -->
<g id="edge2" class="edge"><title>Node2&#45;&gt;Node3</title>
<path fill="none" stroke="midnightblue" d="M160.204,-265.553C178.396,-277.848 205.105,-294.898 230,-307 237.175,-310.488 245.163,-313.711 252.684,-316.475"/>
<polygon fill="midnightblue" stroke="midnightblue" points="161.751,-262.37 151.522,-259.608 157.796,-268.146 161.751,-262.37"/>
</g>
<!-- Node4 -->
<g id="node4" class="node"><title>Node4</title>
<g id="a_node4"><a xlink:href="mxml_8c.xhtml#a7409705a71ea5d17f3746cd1c49c3b00" target="_top" xlink:title="mxml_close_file">
<polygon fill="white" stroke="black" points="239.5,-278.5 239.5,-297.5 326.5,-297.5 326.5,-278.5 239.5,-278.5"/>
<text text-anchor="middle" x="283" y="-285.5" font-family="Helvetica,sans-Serif" font-size="10.00">mxml_close_file</text>
</a>
</g>
</g>
<!-- Node2&#45;&gt;Node4 -->
<g id="edge3" class="edge"><title>Node2&#45;&gt;Node4</title>
<path fill="none" stroke="midnightblue" d="M184.172,-262.184C204.164,-267.46 227.219,-273.544 245.924,-278.48"/>
<polygon fill="midnightblue" stroke="midnightblue" points="184.899,-258.756 174.337,-259.589 183.113,-265.525 184.899,-258.756"/>
</g>
<!-- Node6 -->
<g id="node6" class="node"><title>Node6</title>
<g id="a_node6"><a xlink:href="mxml_8c.xhtml#ac6ccd07b846150067db07ed7086cf7e1" target="_top" xlink:title="mxml_write_element">
<polygon fill="white" stroke="black" points="372.5,-158.5 372.5,-177.5 479.5,-177.5 479.5,-158.5 372.5,-158.5"/>
<text text-anchor="middle" x="426" y="-165.5" font-family="Helvetica,sans-Serif" font-size="10.00">mxml_write_element</text>
</a>
</g>
</g>
<!-- Node2&#45;&gt;Node6 -->
<g id="edge5" class="edge"><title>Node2&#45;&gt;Node6</title>
<path fill="none" stroke="midnightblue" d="M197.768,-252.185C238.012,-251.768 291.631,-247.489 336,-231 368.473,-218.931 399.999,-191.924 415.338,-177.503"/>
<polygon fill="midnightblue" stroke="midnightblue" points="197.569,-248.685 187.578,-252.211 197.587,-255.685 197.569,-248.685"/>
</g>
<!-- Node7 -->
<g id="node7" class="node"><title>Node7</title>
<g id="a_node7"><a xlink:href="mxml_8c.xhtml#aad3952c0c32fc16aa78fde6faa7bd002" target="_top" xlink:title="mxml_write_subtree">
<polygon fill="white" stroke="black" points="231,-202.5 231,-221.5 335,-221.5 335,-202.5 231,-202.5"/>
<text text-anchor="middle" x="283" y="-209.5" font-family="Helvetica,sans-Serif" font-size="10.00">mxml_write_subtree</text>
</a>
</g>
</g>
<!-- Node2&#45;&gt;Node7 -->
<g id="edge6" class="edge"><title>Node2&#45;&gt;Node7</title>
<path fill="none" stroke="midnightblue" d="M184.172,-237.816C204.164,-232.54 227.219,-226.456 245.924,-221.52"/>
<polygon fill="midnightblue" stroke="midnightblue" points="183.113,-234.475 174.337,-240.411 184.899,-241.244 183.113,-234.475"/>
</g>
<!-- Node5 -->
<g id="node5" class="node"><title>Node5</title>
<g id="a_node5"><a xlink:href="mxml_8c.xhtml#a6dc934e8374543e6070804f8a5822f5f" target="_top" xlink:title="mxml_write_tree">
<polygon fill="white" stroke="black" points="381.5,-240.5 381.5,-259.5 470.5,-259.5 470.5,-240.5 381.5,-240.5"/>
<text text-anchor="middle" x="426" y="-247.5" font-family="Helvetica,sans-Serif" font-size="10.00">mxml_write_tree</text>
</a>
</g>
</g>
<!-- Node4&#45;&gt;Node5 -->
<g id="edge4" class="edge"><title>Node4&#45;&gt;Node5</title>
<path fill="none" stroke="midnightblue" d="M329.44,-275.754C348.875,-270.516 371.231,-264.491 389.431,-259.586"/>
<polygon fill="midnightblue" stroke="midnightblue" points="328.325,-272.429 319.58,-278.411 330.147,-279.188 328.325,-272.429"/>
</g>
<!-- Node7&#45;&gt;Node5 -->
<g id="edge7" class="edge"><title>Node7&#45;&gt;Node5</title>
<path fill="none" stroke="midnightblue" d="M329.44,-224.246C348.875,-229.484 371.231,-235.509 389.431,-240.414"/>
<polygon fill="midnightblue" stroke="midnightblue" points="330.147,-220.812 319.58,-221.589 328.325,-227.571 330.147,-220.812"/>
</g>
<!-- Node9 -->
<g id="node9" class="node"><title>Node9</title>
<g id="a_node9"><a xlink:href="class_d_r_s_board.xhtml#af9f7718b667109421094ec226224b012" target="_top" xlink:title="DRSBoard::GetTimeCalibration">
<polygon fill="white" stroke="black" points="516,-38.5 516,-57.5 670,-57.5 670,-38.5 516,-38.5"/>
<text text-anchor="middle" x="593" y="-45.5" font-family="Helvetica,sans-Serif" font-size="10.00">DRSBoard::GetTimeCalibration</text>
</a>
</g>
</g>
<!-- Node8&#45;&gt;Node9 -->
<g id="edge9" class="edge"><title>Node8&#45;&gt;Node9</title>
<path fill="none" stroke="midnightblue" d="M480.445,-48C491.72,-48 503.826,-48 515.756,-48"/>
<polygon fill="midnightblue" stroke="midnightblue" points="480.352,-44.5001 470.352,-48 480.352,-51.5001 480.352,-44.5001"/>
</g>
<!-- Node10&#45;&gt;Node7 -->
<g id="edge14" class="edge"><title>Node10&#45;&gt;Node7</title>
<path fill="none" stroke="midnightblue" d="M164.606,-160.157C182.805,-169.629 207.599,-182.12 230,-192 238.23,-195.63 247.343,-199.262 255.612,-202.416"/>
<polygon fill="midnightblue" stroke="midnightblue" points="166.22,-157.051 155.737,-155.509 162.97,-163.251 166.22,-157.051"/>
</g>
<!-- Node11 -->
<g id="node11" class="node"><title>Node11</title>
<g id="a_node11"><a xlink:href="mxml_8c.xhtml#a1490cd450c6499bab0d70fbeaf88c3be" target="_top" xlink:title="mxml_start_element">
<polygon fill="white" stroke="black" points="230.5,-114.5 230.5,-133.5 335.5,-133.5 335.5,-114.5 230.5,-114.5"/>
<text text-anchor="middle" x="283" y="-121.5" font-family="Helvetica,sans-Serif" font-size="10.00">mxml_start_element</text>
</a>
</g>
</g>
<!-- Node10&#45;&gt;Node11 -->
<g id="edge11" class="edge"><title>Node10&#45;&gt;Node11</title>
<path fill="none" stroke="midnightblue" d="M202.083,-136.21C211.44,-134.78 220.978,-133.323 230.054,-131.936"/>
<polygon fill="midnightblue" stroke="midnightblue" points="201.387,-132.775 192.03,-137.745 202.444,-139.695 201.387,-132.775"/>
</g>
<!-- Node12 -->
<g id="node12" class="node"><title>Node12</title>
<g id="a_node12"><a xlink:href="mxml_8c.xhtml#aef9e08f5651e4905af653c15c6bb0d6e" target="_top" xlink:title="mxml_start_element\l_noindent">
<polygon fill="white" stroke="black" points="230.5,-153 230.5,-183 335.5,-183 335.5,-153 230.5,-153"/>
<text text-anchor="start" x="238.5" y="-171" font-family="Helvetica,sans-Serif" font-size="10.00">mxml_start_element</text>
<text text-anchor="middle" x="283" y="-160" font-family="Helvetica,sans-Serif" font-size="10.00">_noindent</text>
</a>
</g>
</g>
<!-- Node10&#45;&gt;Node12 -->
<g id="edge13" class="edge"><title>Node10&#45;&gt;Node12</title>
<path fill="none" stroke="midnightblue" d="M202.083,-155.79C211.44,-157.22 220.978,-158.677 230.054,-160.064"/>
<polygon fill="midnightblue" stroke="midnightblue" points="202.444,-152.305 192.03,-154.255 201.387,-159.225 202.444,-152.305"/>
</g>
<!-- Node11&#45;&gt;Node6 -->
<g id="edge12" class="edge"><title>Node11&#45;&gt;Node6</title>
<path fill="none" stroke="midnightblue" d="M324.148,-136.528C346.497,-143.503 373.876,-152.046 394.465,-158.471"/>
<polygon fill="midnightblue" stroke="midnightblue" points="325.184,-133.185 314.595,-133.547 323.098,-139.867 325.184,-133.185"/>
</g>
<!-- Node15 -->
<g id="node15" class="node"><title>Node15</title>
<g id="a_node15"><a xlink:href="mxml_8c.xhtml#a5ef2edd4f9e5fb7946c0150c3be731b5" target="_top" xlink:title="mxml_parse_buffer">
<polygon fill="white" stroke="black" points="233,-0.5 233,-19.5 333,-19.5 333,-0.5 233,-0.5"/>
<text text-anchor="middle" x="283" y="-7.5" font-family="Helvetica,sans-Serif" font-size="10.00">mxml_parse_buffer</text>
</a>
</g>
</g>
<!-- Node14&#45;&gt;Node15 -->
<g id="edge17" class="edge"><title>Node14&#45;&gt;Node15</title>
<path fill="none" stroke="midnightblue" d="M176.903,-37.734C198.328,-32.08 224.752,-25.1071 245.744,-19.5675"/>
<polygon fill="midnightblue" stroke="midnightblue" points="175.916,-34.3744 167.141,-40.3101 177.703,-41.1427 175.916,-34.3744"/>
</g>
<!-- Node16 -->
<g id="node16" class="node"><title>Node16</title>
<g id="a_node16"><a xlink:href="mxml_8c.xhtml#a9c1dde43a12f9e8383227dd5f79bf91d" target="_top" xlink:title="mxml_parse_entity">
<polygon fill="white" stroke="black" points="233.5,-38.5 233.5,-57.5 332.5,-57.5 332.5,-38.5 233.5,-38.5"/>
<text text-anchor="middle" x="283" y="-45.5" font-family="Helvetica,sans-Serif" font-size="10.00">mxml_parse_entity</text>
</a>
</g>
</g>
<!-- Node14&#45;&gt;Node16 -->
<g id="edge19" class="edge"><title>Node14&#45;&gt;Node16</title>
<path fill="none" stroke="midnightblue" d="M177.435,-48C194.703,-48 215.137,-48 233.339,-48"/>
<polygon fill="midnightblue" stroke="midnightblue" points="177.141,-44.5001 167.141,-48 177.141,-51.5001 177.141,-44.5001"/>
</g>
<!-- Node15&#45;&gt;Node8 -->
<g id="edge18" class="edge"><title>Node15&#45;&gt;Node8</title>
<path fill="none" stroke="midnightblue" d="M329.44,-22.2462C348.875,-27.484 371.231,-33.5091 389.431,-38.4141"/>
<polygon fill="midnightblue" stroke="midnightblue" points="330.147,-18.8118 319.58,-19.589 328.325,-25.5707 330.147,-18.8118"/>
</g>
<!-- Node16&#45;&gt;Node8 -->
<g id="edge20" class="edge"><title>Node16&#45;&gt;Node8</title>
<path fill="none" stroke="midnightblue" d="M342.793,-48C355.788,-48 369.328,-48 381.581,-48"/>
<polygon fill="midnightblue" stroke="midnightblue" points="342.524,-44.5001 332.524,-48 342.524,-51.5001 342.524,-44.5001"/>
</g>
</g>
</svg>
