<?xml version="1.0" encoding="UTF-8" standalone="no"?>
<!DOCTYPE svg PUBLIC "-//W3C//DTD SVG 1.1//EN"
 "http://www.w3.org/Graphics/SVG/1.1/DTD/svg11.dtd">
<!-- Generated by graphviz version 2.36.0 (20140111.2315)
 -->
<!-- Title: /data/Software/DAQ/PDAQ/Core/Include/strlcpy.h Pages: 1 -->
<svg width="802pt" height="108pt"
 viewBox="0.00 0.00 802.00 108.00" xmlns="http://www.w3.org/2000/svg" xmlns:xlink="http://www.w3.org/1999/xlink">
<g id="graph0" class="graph" transform="scale(1 1) rotate(0) translate(4 104)">
<title>/data/Software/DAQ/PDAQ/Core/Include/strlcpy.h</title>
<polygon fill="white" stroke="none" points="-4,4 -4,-104 798,-104 798,4 -4,4"/>
<!-- Node1 -->
<g id="node1" class="node"><title>Node1</title>
<polygon fill="#bfbfbf" stroke="black" points="322.5,-69 322.5,-99 469.5,-99 469.5,-69 322.5,-69"/>
<text text-anchor="start" x="330.5" y="-87" font-family="Helvetica,sans-Serif" font-size="10.00">/data/Software/DAQ</text>
<text text-anchor="middle" x="396" y="-76" font-family="Helvetica,sans-Serif" font-size="10.00">/PDAQ/Core/Include/strlcpy.h</text>
</g>
<!-- Node2 -->
<g id="node2" class="node"><title>Node2</title>
<g id="a_node2"><a xlink:href="test_8cpp.xhtml" target="_top" xlink:title="/data/Software/DAQ\l/PDAQ/Application/test.cpp">
<polygon fill="white" stroke="black" points="-0.5,-1 -0.5,-31 136.5,-31 136.5,-1 -0.5,-1"/>
<text text-anchor="start" x="7.5" y="-19" font-family="Helvetica,sans-Serif" font-size="10.00">/data/Software/DAQ</text>
<text text-anchor="middle" x="68" y="-8" font-family="Helvetica,sans-Serif" font-size="10.00">/PDAQ/Application/test.cpp</text>
</a>
</g>
</g>
<!-- Node1&#45;&gt;Node2 -->
<g id="edge1" class="edge"><title>Node1&#45;&gt;Node2</title>
<path fill="none" stroke="midnightblue" d="M315.998,-66.902C261.109,-55.8574 189.026,-41.3528 136.729,-30.8296"/>
<polygon fill="midnightblue" stroke="midnightblue" points="315.544,-70.3808 326.038,-68.9223 316.925,-63.5183 315.544,-70.3808"/>
</g>
<!-- Node3 -->
<g id="node3" class="node"><title>Node3</title>
<g id="a_node3"><a xlink:href="_z_d_a_q_8cpp.xhtml" target="_top" xlink:title="/data/Software/DAQ\l/PDAQ/Application/ZDAQ.cpp">
<polygon fill="white" stroke="black" points="154.5,-1 154.5,-31 303.5,-31 303.5,-1 154.5,-1"/>
<text text-anchor="start" x="162.5" y="-19" font-family="Helvetica,sans-Serif" font-size="10.00">/data/Software/DAQ</text>
<text text-anchor="middle" x="229" y="-8" font-family="Helvetica,sans-Serif" font-size="10.00">/PDAQ/Application/ZDAQ.cpp</text>
</a>
</g>
</g>
<!-- Node1&#45;&gt;Node3 -->
<g id="edge2" class="edge"><title>Node1&#45;&gt;Node3</title>
<path fill="none" stroke="midnightblue" d="M350.533,-65.0308C323.45,-54.3276 289.58,-40.9417 264.479,-31.0218"/>
<polygon fill="midnightblue" stroke="midnightblue" points="349.588,-68.4208 360.174,-68.8413 352.161,-61.9108 349.588,-68.4208"/>
</g>
<!-- Node4 -->
<g id="node4" class="node"><title>Node4</title>
<g id="a_node4"><a xlink:href="_d_r_s_8cpp.xhtml" target="_top" xlink:title="/data/Software/DAQ\l/PDAQ/Core/Source/DRS.cpp">
<polygon fill="white" stroke="black" points="321.5,-1 321.5,-31 470.5,-31 470.5,-1 321.5,-1"/>
<text text-anchor="start" x="329.5" y="-19" font-family="Helvetica,sans-Serif" font-size="10.00">/data/Software/DAQ</text>
<text text-anchor="middle" x="396" y="-8" font-family="Helvetica,sans-Serif" font-size="10.00">/PDAQ/Core/Source/DRS.cpp</text>
</a>
</g>
</g>
<!-- Node1&#45;&gt;Node4 -->
<g id="edge3" class="edge"><title>Node1&#45;&gt;Node4</title>
<path fill="none" stroke="midnightblue" d="M396,-58.5322C396,-49.3606 396,-39.2449 396,-31.2931"/>
<polygon fill="midnightblue" stroke="midnightblue" points="392.5,-58.6789 396,-68.679 399.5,-58.679 392.5,-58.6789"/>
</g>
<!-- Node5 -->
<g id="node5" class="node"><title>Node5</title>
<g id="a_node5"><a xlink:href="mxml_8c.xhtml" target="_top" xlink:title="/data/Software/DAQ\l/PDAQ/Core/Source/mxml.c">
<polygon fill="white" stroke="black" points="488.5,-1 488.5,-31 629.5,-31 629.5,-1 488.5,-1"/>
<text text-anchor="start" x="496.5" y="-19" font-family="Helvetica,sans-Serif" font-size="10.00">/data/Software/DAQ</text>
<text text-anchor="middle" x="559" y="-8" font-family="Helvetica,sans-Serif" font-size="10.00">/PDAQ/Core/Source/mxml.c</text>
</a>
</g>
</g>
<!-- Node1&#45;&gt;Node5 -->
<g id="edge4" class="edge"><title>Node1&#45;&gt;Node5</title>
<path fill="none" stroke="midnightblue" d="M440.378,-65.0308C466.812,-54.3276 499.871,-40.9417 524.37,-31.0218"/>
<polygon fill="midnightblue" stroke="midnightblue" points="438.923,-61.844 430.968,-68.8413 441.55,-68.3323 438.923,-61.844"/>
</g>
<!-- Node6 -->
<g id="node6" class="node"><title>Node6</title>
<g id="a_node6"><a xlink:href="strlcpy_8c.xhtml" target="_top" xlink:title="/data/Software/DAQ\l/PDAQ/Core/Source/strlcpy.c">
<polygon fill="white" stroke="black" points="648,-1 648,-31 794,-31 794,-1 648,-1"/>
<text text-anchor="start" x="656" y="-19" font-family="Helvetica,sans-Serif" font-size="10.00">/data/Software/DAQ</text>
<text text-anchor="middle" x="721" y="-8" font-family="Helvetica,sans-Serif" font-size="10.00">/PDAQ/Core/Source/strlcpy.c</text>
</a>
</g>
</g>
<!-- Node1&#45;&gt;Node6 -->
<g id="edge5" class="edge"><title>Node1&#45;&gt;Node6</title>
<path fill="none" stroke="midnightblue" d="M475.202,-66.9159C529.208,-55.9485 600.038,-41.5646 651.785,-31.0561"/>
<polygon fill="midnightblue" stroke="midnightblue" points="474.425,-63.5021 465.322,-68.9223 475.819,-70.3621 474.425,-63.5021"/>
</g>
</g>
</svg>
