<?xml version="1.0" encoding="UTF-8" standalone="no"?>
<!DOCTYPE svg PUBLIC "-//W3C//DTD SVG 1.1//EN"
 "http://www.w3.org/Graphics/SVG/1.1/DTD/svg11.dtd">
<!-- Generated by graphviz version 2.36.0 (20140111.2315)
 -->
<!-- Title: XMLNode::isDeclaration Pages: 1 -->
<svg width="984pt" height="496pt"
 viewBox="0.00 0.00 984.00 496.00" xmlns="http://www.w3.org/2000/svg" xmlns:xlink="http://www.w3.org/1999/xlink">
<g id="graph0" class="graph" transform="scale(1 1) rotate(0) translate(4 492)">
<title>XMLNode::isDeclaration</title>
<polygon fill="white" stroke="none" points="-4,4 -4,-492 980,-492 980,4 -4,4"/>
<!-- Node1 -->
<g id="node1" class="node"><title>Node1</title>
<polygon fill="#bfbfbf" stroke="black" points="0.5,-114.5 0.5,-133.5 123.5,-133.5 123.5,-114.5 0.5,-114.5"/>
<text text-anchor="middle" x="62" y="-121.5" font-family="Helvetica,sans-Serif" font-size="10.00">XMLNode::isDeclaration</text>
</g>
<!-- Node2 -->
<g id="node2" class="node"><title>Node2</title>
<g id="a_node2"><a xlink:href="_p_d_a_q_2_core_2_source_2xml_parser_8cpp.xhtml#a9a625f17c09a36e3ad532cdf16072609" target="_top" xlink:title="charmemset">
<polygon fill="white" stroke="black" points="889.5,-133.5 889.5,-152.5 960.5,-152.5 960.5,-133.5 889.5,-133.5"/>
<text text-anchor="middle" x="925" y="-140.5" font-family="Helvetica,sans-Serif" font-size="10.00">charmemset</text>
</a>
</g>
</g>
<!-- Node1&#45;&gt;Node2 -->
<g id="edge1" class="edge"><title>Node1&#45;&gt;Node2</title>
<path fill="none" stroke="midnightblue" d="M115.928,-135.548C130.181,-138.334 145.631,-141.062 160,-143 272.189,-158.129 300.796,-162 414,-162 414,-162 414,-162 579,-162 692.675,-162 827.099,-151.589 889.266,-146.18"/>
<polygon fill="midnightblue" stroke="midnightblue" points="116.286,-132.05 105.794,-133.52 114.912,-138.914 116.286,-132.05"/>
</g>
<!-- Node3 -->
<g id="node3" class="node"><title>Node3</title>
<g id="a_node3"><a xlink:href="_p_d_a_q_2_core_2_source_2xml_parser_8cpp.xhtml#ae6aa5a367ab3cc92b47fd92f81add72a" target="_top" xlink:title="CountLinesAndColumns">
<polygon fill="white" stroke="black" points="517,-304.5 517,-323.5 639,-323.5 639,-304.5 517,-304.5"/>
<text text-anchor="middle" x="578" y="-311.5" font-family="Helvetica,sans-Serif" font-size="10.00">CountLinesAndColumns</text>
</a>
</g>
</g>
<!-- Node1&#45;&gt;Node3 -->
<g id="edge2" class="edge"><title>Node1&#45;&gt;Node3</title>
<path fill="none" stroke="midnightblue" d="M71.0497,-142.914C84.6918,-172.485 115.299,-229.156 160,-257 271.018,-326.152 430.658,-326.467 516.648,-320.4"/>
<polygon fill="midnightblue" stroke="midnightblue" points="74.2016,-141.388 66.9366,-133.677 67.8069,-144.236 74.2016,-141.388"/>
</g>
<!-- Node4 -->
<g id="node4" class="node"><title>Node4</title>
<g id="a_node4"><a xlink:href="_p_d_a_q_2_core_2_source_2xml_parser_8cpp.xhtml#acf103e2756ced6c7d3f14f38f198c920" target="_top" xlink:title="GetNextToken">
<polygon fill="white" stroke="black" points="375,-38.5 375,-57.5 455,-57.5 455,-38.5 375,-38.5"/>
<text text-anchor="middle" x="415" y="-45.5" font-family="Helvetica,sans-Serif" font-size="10.00">GetNextToken</text>
</a>
</g>
</g>
<!-- Node1&#45;&gt;Node4 -->
<g id="edge3" class="edge"><title>Node1&#45;&gt;Node4</title>
<path fill="none" stroke="midnightblue" d="M117.228,-112.258C188.54,-96.8174 312.127,-70.0581 374.933,-56.4589"/>
<polygon fill="midnightblue" stroke="midnightblue" points="116.132,-108.914 107.099,-114.452 117.613,-115.756 116.132,-108.914"/>
</g>
<!-- Node6 -->
<g id="node6" class="node"><title>Node6</title>
<g id="a_node6"><a xlink:href="_c_d_a_q_2_plugins_2_source_2xml_parser_8cpp.xhtml#a8415cb910267a0487e1003a34069d012" target="_top" xlink:title="myRealloc">
<polygon fill="white" stroke="black" points="207.5,-38.5 207.5,-57.5 270.5,-57.5 270.5,-38.5 207.5,-38.5"/>
<text text-anchor="middle" x="239" y="-45.5" font-family="Helvetica,sans-Serif" font-size="10.00">myRealloc</text>
</a>
</g>
</g>
<!-- Node1&#45;&gt;Node6 -->
<g id="edge5" class="edge"><title>Node1&#45;&gt;Node6</title>
<path fill="none" stroke="midnightblue" d="M87.3802,-109.221C106.618,-97.9838 134.389,-82.6863 160,-72 175.168,-65.6711 192.605,-60.1501 207.14,-56.0042"/>
<polygon fill="midnightblue" stroke="midnightblue" points="85.4942,-106.27 78.6686,-114.373 89.0576,-112.295 85.4942,-106.27"/>
</g>
<!-- Node7 -->
<g id="node7" class="node"><title>Node7</title>
<g id="a_node7"><a xlink:href="struct_x_m_l_node.xhtml#acb95f4f00e4cf3756aac0e3a53765248" target="_top" xlink:title="XMLNode::parseString">
<polygon fill="white" stroke="black" points="181,-228.5 181,-247.5 297,-247.5 297,-228.5 181,-228.5"/>
<text text-anchor="middle" x="239" y="-235.5" font-family="Helvetica,sans-Serif" font-size="10.00">XMLNode::parseString</text>
</a>
</g>
</g>
<!-- Node1&#45;&gt;Node7 -->
<g id="edge6" class="edge"><title>Node1&#45;&gt;Node7</title>
<path fill="none" stroke="midnightblue" d="M86.1288,-139.067C122.603,-162.827 192.475,-208.344 223.051,-228.262"/>
<polygon fill="midnightblue" stroke="midnightblue" points="87.9088,-136.049 77.6194,-133.523 84.088,-141.914 87.9088,-136.049"/>
</g>
<!-- Node21 -->
<g id="node21" class="node"><title>Node21</title>
<g id="a_node21"><a xlink:href="struct_x_m_l_node.xhtml#a5f35571651c6b629f5c8e5d02942a1c7" target="_top" xlink:title="XMLNode::updateName_WOSD">
<polygon fill="white" stroke="black" points="160,-114.5 160,-133.5 318,-133.5 318,-114.5 160,-114.5"/>
<text text-anchor="middle" x="239" y="-121.5" font-family="Helvetica,sans-Serif" font-size="10.00">XMLNode::updateName_WOSD</text>
</a>
</g>
</g>
<!-- Node1&#45;&gt;Node21 -->
<g id="edge26" class="edge"><title>Node1&#45;&gt;Node21</title>
<path fill="none" stroke="midnightblue" d="M133.97,-124C142.484,-124 151.214,-124 159.823,-124"/>
<polygon fill="midnightblue" stroke="midnightblue" points="133.715,-120.5 123.715,-124 133.715,-127.5 133.715,-120.5"/>
</g>
<!-- Node23 -->
<g id="node23" class="node"><title>Node23</title>
<g id="a_node23"><a xlink:href="struct_x_m_l_node.xhtml#ab8d92d057c0072cc195b1935b2f53d80" target="_top" xlink:title="XMLNode::writeToFile">
<polygon fill="white" stroke="black" points="182,-0.5 182,-19.5 296,-19.5 296,-0.5 182,-0.5"/>
<text text-anchor="middle" x="239" y="-7.5" font-family="Helvetica,sans-Serif" font-size="10.00">XMLNode::writeToFile</text>
</a>
</g>
</g>
<!-- Node1&#45;&gt;Node23 -->
<g id="edge31" class="edge"><title>Node1&#45;&gt;Node23</title>
<path fill="none" stroke="midnightblue" d="M75.9506,-106.485C92.8551,-84.9141 124.502,-48.7149 160,-29 166.945,-25.1428 174.665,-22.0613 182.469,-19.6013"/>
<polygon fill="midnightblue" stroke="midnightblue" points="73.1259,-104.418 69.8315,-114.487 78.6864,-108.67 73.1259,-104.418"/>
</g>
<!-- Node5 -->
<g id="node5" class="node"><title>Node5</title>
<g id="a_node5"><a xlink:href="_p_d_a_q_2_core_2_source_2xml_parser_8cpp.xhtml#a8415cb910267a0487e1003a34069d012" target="_top" xlink:title="myRealloc">
<polygon fill="white" stroke="black" points="546.5,-38.5 546.5,-57.5 609.5,-57.5 609.5,-38.5 546.5,-38.5"/>
<text text-anchor="middle" x="578" y="-45.5" font-family="Helvetica,sans-Serif" font-size="10.00">myRealloc</text>
</a>
</g>
</g>
<!-- Node4&#45;&gt;Node5 -->
<g id="edge4" class="edge"><title>Node4&#45;&gt;Node5</title>
<path fill="none" stroke="midnightblue" d="M465.578,-48C491.948,-48 523.539,-48 546.337,-48"/>
<polygon fill="midnightblue" stroke="midnightblue" points="465.385,-44.5001 455.385,-48 465.385,-51.5001 465.385,-44.5001"/>
</g>
<!-- Node7&#45;&gt;Node3 -->
<g id="edge25" class="edge"><title>Node7&#45;&gt;Node3</title>
<path fill="none" stroke="midnightblue" d="M292.234,-249.78C359.004,-264.838 473.306,-290.615 534.833,-304.491"/>
<polygon fill="midnightblue" stroke="midnightblue" points="292.865,-246.334 282.34,-247.548 291.325,-253.163 292.865,-246.334"/>
</g>
<!-- Node8 -->
<g id="node8" class="node"><title>Node8</title>
<g id="a_node8"><a xlink:href="struct_x_m_l_node.xhtml#a5e5968e052d58350918cd91e3535624b" target="_top" xlink:title="XMLNode::parseFile">
<polygon fill="white" stroke="black" points="362,-228.5 362,-247.5 468,-247.5 468,-228.5 362,-228.5"/>
<text text-anchor="middle" x="415" y="-235.5" font-family="Helvetica,sans-Serif" font-size="10.00">XMLNode::parseFile</text>
</a>
</g>
</g>
<!-- Node7&#45;&gt;Node8 -->
<g id="edge7" class="edge"><title>Node7&#45;&gt;Node8</title>
<path fill="none" stroke="midnightblue" d="M307.618,-238C325.643,-238 344.837,-238 361.888,-238"/>
<polygon fill="midnightblue" stroke="midnightblue" points="307.456,-234.5 297.456,-238 307.456,-241.5 307.456,-234.5"/>
</g>
<!-- Node8&#45;&gt;Node3 -->
<g id="edge24" class="edge"><title>Node8&#45;&gt;Node3</title>
<path fill="none" stroke="midnightblue" d="M455.515,-251.43C462.56,-254.482 469.666,-258.018 476,-262 494.376,-273.552 493.091,-284.344 512,-295 518.76,-298.809 526.355,-301.918 533.905,-304.433"/>
<polygon fill="midnightblue" stroke="midnightblue" points="456.605,-248.095 446.023,-247.571 453.969,-254.58 456.605,-248.095"/>
</g>
<!-- Node9 -->
<g id="node9" class="node"><title>Node9</title>
<g id="a_node9"><a xlink:href="struct_x_m_l_node.xhtml#acc044148e2b9b8264a320b7b6e398158" target="_top" xlink:title="XMLNode::openFileHelper">
<polygon fill="white" stroke="black" points="512.5,-266.5 512.5,-285.5 643.5,-285.5 643.5,-266.5 512.5,-266.5"/>
<text text-anchor="middle" x="578" y="-273.5" font-family="Helvetica,sans-Serif" font-size="10.00">XMLNode::openFileHelper</text>
</a>
</g>
</g>
<!-- Node8&#45;&gt;Node9 -->
<g id="edge8" class="edge"><title>Node8&#45;&gt;Node9</title>
<path fill="none" stroke="midnightblue" d="M466.402,-249.896C489.032,-255.237 515.37,-261.454 536.665,-266.48"/>
<polygon fill="midnightblue" stroke="midnightblue" points="467.164,-246.48 456.627,-247.589 465.556,-253.293 467.164,-246.48"/>
</g>
<!-- Node17 -->
<g id="node17" class="node"><title>Node17</title>
<g id="a_node17"><a xlink:href="_p_d_a_q_2_core_2_source_2xml_parser_8cpp.xhtml#af77e3e2685487b9c492b20c36f3b864a" target="_top" xlink:title="_strnicmp">
<polygon fill="white" stroke="black" points="729.5,-190.5 729.5,-209.5 788.5,-209.5 788.5,-190.5 729.5,-190.5"/>
<text text-anchor="middle" x="759" y="-197.5" font-family="Helvetica,sans-Serif" font-size="10.00">_strnicmp</text>
</a>
</g>
</g>
<!-- Node8&#45;&gt;Node17 -->
<g id="edge23" class="edge"><title>Node8&#45;&gt;Node17</title>
<path fill="none" stroke="midnightblue" d="M478.509,-231.055C553.043,-222.773 674.423,-209.286 729.368,-203.181"/>
<polygon fill="midnightblue" stroke="midnightblue" points="477.867,-227.604 468.315,-232.187 478.64,-234.561 477.867,-227.604"/>
</g>
<!-- Node10 -->
<g id="node10" class="node"><title>Node10</title>
<g id="a_node10"><a xlink:href="class_a_d_c_manager1720.xhtml#aae342ccd8bf1c253c455e195bfd82dfe" target="_top" xlink:title="ADCManager1720::Init">
<polygon fill="white" stroke="black" points="701,-304.5 701,-323.5 817,-323.5 817,-304.5 701,-304.5"/>
<text text-anchor="middle" x="759" y="-311.5" font-family="Helvetica,sans-Serif" font-size="10.00">ADCManager1720::Init</text>
</a>
</g>
</g>
<!-- Node9&#45;&gt;Node10 -->
<g id="edge9" class="edge"><title>Node9&#45;&gt;Node10</title>
<path fill="none" stroke="midnightblue" d="M634.024,-287.681C659.408,-293.07 689.161,-299.386 713.156,-304.48"/>
<polygon fill="midnightblue" stroke="midnightblue" points="634.678,-284.242 624.169,-285.589 633.224,-291.089 634.678,-284.242"/>
</g>
<!-- Node11 -->
<g id="node11" class="node"><title>Node11</title>
<g id="a_node11"><a xlink:href="class_a_d_c_manager1724.xhtml#a6de2521b9c793edcf14aeaeefeb62787" target="_top" xlink:title="ADCManager1724::Init">
<polygon fill="white" stroke="black" points="701,-266.5 701,-285.5 817,-285.5 817,-266.5 701,-266.5"/>
<text text-anchor="middle" x="759" y="-273.5" font-family="Helvetica,sans-Serif" font-size="10.00">ADCManager1724::Init</text>
</a>
</g>
</g>
<!-- Node9&#45;&gt;Node11 -->
<g id="edge10" class="edge"><title>Node9&#45;&gt;Node11</title>
<path fill="none" stroke="midnightblue" d="M653.85,-276C669.58,-276 685.93,-276 700.887,-276"/>
<polygon fill="midnightblue" stroke="midnightblue" points="653.623,-272.5 643.623,-276 653.623,-279.5 653.623,-272.5"/>
</g>
<!-- Node12 -->
<g id="node12" class="node"><title>Node12</title>
<g id="a_node12"><a xlink:href="class_a_d_c_manager1730.xhtml#adb6d45f2024f4a52d366a88d1c7f229d" target="_top" xlink:title="ADCManager1730::Init">
<polygon fill="white" stroke="black" points="701,-228.5 701,-247.5 817,-247.5 817,-228.5 701,-228.5"/>
<text text-anchor="middle" x="759" y="-235.5" font-family="Helvetica,sans-Serif" font-size="10.00">ADCManager1730::Init</text>
</a>
</g>
</g>
<!-- Node9&#45;&gt;Node12 -->
<g id="edge11" class="edge"><title>Node9&#45;&gt;Node12</title>
<path fill="none" stroke="midnightblue" d="M634.024,-264.319C659.408,-258.93 689.161,-252.614 713.156,-247.52"/>
<polygon fill="midnightblue" stroke="midnightblue" points="633.224,-260.911 624.169,-266.411 634.678,-267.758 633.224,-260.911"/>
</g>
<!-- Node13 -->
<g id="node13" class="node"><title>Node13</title>
<g id="a_node13"><a xlink:href="class_scope_manager.xhtml#abe246d1b817d85a9cba7af3441a4df04" target="_top" xlink:title="ScopeManager::ShowEvent">
<polygon fill="white" stroke="black" points="690,-392.5 690,-411.5 828,-411.5 828,-392.5 690,-392.5"/>
<text text-anchor="middle" x="759" y="-399.5" font-family="Helvetica,sans-Serif" font-size="10.00">ScopeManager::ShowEvent</text>
</a>
</g>
</g>
<!-- Node9&#45;&gt;Node13 -->
<g id="edge12" class="edge"><title>Node9&#45;&gt;Node13</title>
<path fill="none" stroke="midnightblue" d="M638.438,-290.685C640.394,-292.002 642.258,-293.437 644,-295 675.143,-322.95 648.395,-354.573 680,-382 684.962,-386.306 690.732,-389.706 696.845,-392.386"/>
<polygon fill="midnightblue" stroke="midnightblue" points="639.798,-287.436 629.358,-285.631 636.393,-293.552 639.798,-287.436"/>
</g>
<!-- Node15 -->
<g id="node15" class="node"><title>Node15</title>
<g id="a_node15"><a xlink:href="class_slowcontrol_manager.xhtml#a36ab5157f5a740b9058517b77d1ce38f" target="_top" xlink:title="SlowcontrolManager\l::ShowStatus">
<polygon fill="white" stroke="black" points="706.5,-343 706.5,-373 811.5,-373 811.5,-343 706.5,-343"/>
<text text-anchor="start" x="714.5" y="-361" font-family="Helvetica,sans-Serif" font-size="10.00">SlowcontrolManager</text>
<text text-anchor="middle" x="759" y="-350" font-family="Helvetica,sans-Serif" font-size="10.00">::ShowStatus</text>
</a>
</g>
</g>
<!-- Node9&#45;&gt;Node15 -->
<g id="edge14" class="edge"><title>Node9&#45;&gt;Node15</title>
<path fill="none" stroke="midnightblue" d="M632.691,-289.172C636.628,-290.893 640.445,-292.828 644,-295 663.853,-307.128 660.305,-320.617 680,-333 688.066,-338.071 697.252,-342.201 706.421,-345.533"/>
<polygon fill="midnightblue" stroke="midnightblue" points="633.939,-285.902 623.35,-285.53 631.396,-292.424 633.939,-285.902"/>
</g>
<!-- Node16 -->
<g id="node16" class="node"><title>Node16</title>
<g id="a_node16"><a xlink:href="class_storage_manager.xhtml#ab16a945d003852d02556daf3610a9aac" target="_top" xlink:title="StorageManager::SaveContainer">
<polygon fill="white" stroke="black" points="680,-430.5 680,-449.5 838,-449.5 838,-430.5 680,-430.5"/>
<text text-anchor="middle" x="759" y="-437.5" font-family="Helvetica,sans-Serif" font-size="10.00">StorageManager::SaveContainer</text>
</a>
</g>
</g>
<!-- Node9&#45;&gt;Node16 -->
<g id="edge16" class="edge"><title>Node9&#45;&gt;Node16</title>
<path fill="none" stroke="midnightblue" d="M639.424,-291C641.038,-292.231 642.57,-293.562 644,-295 685.057,-336.308 638.015,-380.636 680,-421 684.019,-424.864 688.686,-427.984 693.701,-430.499"/>
<polygon fill="midnightblue" stroke="midnightblue" points="641.106,-287.925 630.762,-285.637 637.422,-293.876 641.106,-287.925"/>
</g>
<!-- Node9&#45;&gt;Node17 -->
<g id="edge18" class="edge"><title>Node9&#45;&gt;Node17</title>
<path fill="none" stroke="midnightblue" d="M601.736,-260.757C621.637,-248.015 651.711,-230.18 680,-219 695.814,-212.75 714.27,-208.142 729.258,-205.03"/>
<polygon fill="midnightblue" stroke="midnightblue" points="599.566,-257.993 593.094,-266.381 603.384,-263.86 599.566,-257.993"/>
</g>
<!-- Node19 -->
<g id="node19" class="node"><title>Node19</title>
<g id="a_node19"><a xlink:href="_p_d_a_q_2_core_2_source_2xml_8cpp.xhtml#a8251b051736c5146c1985edc6cb357e6" target="_top" xlink:title="xml_readsettings">
<polygon fill="white" stroke="black" points="713.5,-468.5 713.5,-487.5 804.5,-487.5 804.5,-468.5 713.5,-468.5"/>
<text text-anchor="middle" x="759" y="-475.5" font-family="Helvetica,sans-Serif" font-size="10.00">xml_readsettings</text>
</a>
</g>
</g>
<!-- Node9&#45;&gt;Node19 -->
<g id="edge21" class="edge"><title>Node9&#45;&gt;Node19</title>
<path fill="none" stroke="midnightblue" d="M640.029,-291.28C641.43,-292.433 642.759,-293.671 644,-295 694.935,-349.538 627.839,-405.633 680,-459 688.768,-467.971 701.011,-472.982 713.203,-475.709"/>
<polygon fill="midnightblue" stroke="midnightblue" points="641.602,-288.126 631.321,-285.565 637.761,-293.978 641.602,-288.126"/>
</g>
<!-- Node14 -->
<g id="node14" class="node"><title>Node14</title>
<g id="a_node14"><a xlink:href="_multi_d_a_q_8cpp.xhtml#adedb285b02c41bde2158ded9cc9fd7ac" target="_top" xlink:title="main">
<polygon fill="white" stroke="black" points="906,-392.5 906,-411.5 944,-411.5 944,-392.5 906,-392.5"/>
<text text-anchor="middle" x="925" y="-399.5" font-family="Helvetica,sans-Serif" font-size="10.00">main</text>
</a>
</g>
</g>
<!-- Node13&#45;&gt;Node14 -->
<g id="edge13" class="edge"><title>Node13&#45;&gt;Node14</title>
<path fill="none" stroke="midnightblue" d="M838.16,-402C863.477,-402 889.284,-402 905.898,-402"/>
<polygon fill="midnightblue" stroke="midnightblue" points="838.126,-398.5 828.126,-402 838.126,-405.5 838.126,-398.5"/>
</g>
<!-- Node15&#45;&gt;Node14 -->
<g id="edge15" class="edge"><title>Node15&#45;&gt;Node14</title>
<path fill="none" stroke="midnightblue" d="M821.865,-374.598C851.783,-382.625 885.511,-391.674 905.744,-397.102"/>
<polygon fill="midnightblue" stroke="midnightblue" points="822.456,-371.133 811.891,-371.922 820.642,-377.894 822.456,-371.133"/>
</g>
<!-- Node16&#45;&gt;Node14 -->
<g id="edge17" class="edge"><title>Node16&#45;&gt;Node14</title>
<path fill="none" stroke="midnightblue" d="M811.543,-428.057C843.714,-420.603 883.177,-411.459 905.773,-406.223"/>
<polygon fill="midnightblue" stroke="midnightblue" points="810.336,-424.744 801.384,-430.411 811.916,-431.563 810.336,-424.744"/>
</g>
<!-- Node17&#45;&gt;Node2 -->
<g id="edge19" class="edge"><title>Node17&#45;&gt;Node2</title>
<path fill="none" stroke="midnightblue" d="M798.462,-188.732C811.115,-184.875 825.213,-180.415 838,-176 859.314,-168.641 883.238,-159.378 900.432,-152.54"/>
<polygon fill="midnightblue" stroke="midnightblue" points="797.24,-185.445 788.677,-191.684 799.261,-192.147 797.24,-185.445"/>
</g>
<!-- Node18 -->
<g id="node18" class="node"><title>Node18</title>
<g id="a_node18"><a xlink:href="_p_d_a_q_2_core_2_source_2xml_parser_8cpp.xhtml#ad9a5c911a8e21bb89427d29d33e2797e" target="_top" xlink:title="myIsTextWideChar">
<polygon fill="white" stroke="black" points="874.5,-190.5 874.5,-209.5 975.5,-209.5 975.5,-190.5 874.5,-190.5"/>
<text text-anchor="middle" x="925" y="-197.5" font-family="Helvetica,sans-Serif" font-size="10.00">myIsTextWideChar</text>
</a>
</g>
</g>
<!-- Node17&#45;&gt;Node18 -->
<g id="edge20" class="edge"><title>Node17&#45;&gt;Node18</title>
<path fill="none" stroke="midnightblue" d="M798.784,-200C821.346,-200 850.018,-200 874.231,-200"/>
<polygon fill="midnightblue" stroke="midnightblue" points="798.567,-196.5 788.567,-200 798.567,-203.5 798.567,-196.5"/>
</g>
<!-- Node20 -->
<g id="node20" class="node"><title>Node20</title>
<g id="a_node20"><a xlink:href="_z_d_a_q_8cpp.xhtml#a0ddf1224851353fc92bfbff6f499fa97" target="_top" xlink:title="main">
<polygon fill="white" stroke="black" points="906,-468.5 906,-487.5 944,-487.5 944,-468.5 906,-468.5"/>
<text text-anchor="middle" x="925" y="-475.5" font-family="Helvetica,sans-Serif" font-size="10.00">main</text>
</a>
</g>
</g>
<!-- Node19&#45;&gt;Node20 -->
<g id="edge22" class="edge"><title>Node19&#45;&gt;Node20</title>
<path fill="none" stroke="midnightblue" d="M815.216,-478C846.646,-478 883.974,-478 905.724,-478"/>
<polygon fill="midnightblue" stroke="midnightblue" points="814.814,-474.5 804.814,-478 814.814,-481.5 814.814,-474.5"/>
</g>
<!-- Node21&#45;&gt;Node2 -->
<g id="edge30" class="edge"><title>Node21&#45;&gt;Node2</title>
<path fill="none" stroke="midnightblue" d="M328.385,-126.455C480.73,-130.687 786.335,-139.176 889.258,-142.035"/>
<polygon fill="midnightblue" stroke="midnightblue" points="328.224,-122.949 318.13,-126.17 328.029,-129.947 328.224,-122.949"/>
</g>
<!-- Node21&#45;&gt;Node4 -->
<g id="edge29" class="edge"><title>Node21&#45;&gt;Node4</title>
<path fill="none" stroke="midnightblue" d="M292.86,-111.241C301.54,-108.168 310.229,-104.452 318,-100 336.834,-89.211 335.211,-77.8659 354,-67 360.527,-63.2257 367.894,-60.1057 375.174,-57.5615"/>
<polygon fill="midnightblue" stroke="midnightblue" points="291.522,-107.997 283.114,-114.442 293.707,-114.647 291.522,-107.997"/>
</g>
<!-- Node22 -->
<g id="node22" class="node"><title>Node22</title>
<g id="a_node22"><a xlink:href="struct_x_m_l_node.xhtml#ae08b643a2b87a77bad3c70eb57ea3043" target="_top" xlink:title="XMLNode::updateName">
<polygon fill="white" stroke="black" points="354,-76.5 354,-95.5 476,-95.5 476,-76.5 354,-76.5"/>
<text text-anchor="middle" x="415" y="-83.5" font-family="Helvetica,sans-Serif" font-size="10.00">XMLNode::updateName</text>
</a>
</g>
</g>
<!-- Node21&#45;&gt;Node22 -->
<g id="edge27" class="edge"><title>Node21&#45;&gt;Node22</title>
<path fill="none" stroke="midnightblue" d="M293.814,-112.247C318.418,-106.874 347.187,-100.591 370.408,-95.5201"/>
<polygon fill="midnightblue" stroke="midnightblue" points="292.93,-108.858 283.908,-114.411 294.424,-115.697 292.93,-108.858"/>
</g>
<!-- Node22&#45;&gt;Node2 -->
<g id="edge28" class="edge"><title>Node22&#45;&gt;Node2</title>
<path fill="none" stroke="midnightblue" d="M486.428,-83.419C570.934,-81.8263 716.439,-83.8865 838,-110 861.609,-115.072 887.288,-125.642 904.38,-133.459"/>
<polygon fill="midnightblue" stroke="midnightblue" points="486.102,-79.925 476.179,-83.6359 486.251,-86.9234 486.102,-79.925"/>
</g>
</g>
</svg>
