<?xml version="1.0" encoding="UTF-8" standalone="no"?>
<!DOCTYPE svg PUBLIC "-//W3C//DTD SVG 1.1//EN"
 "http://www.w3.org/Graphics/SVG/1.1/DTD/svg11.dtd">
<!-- Generated by graphviz version 2.36.0 (20140111.2315)
 -->
<!-- Title: XMLNode::openFileHelper Pages: 1 -->
<svg width="472pt" height="325pt"
 viewBox="0.00 0.00 472.00 325.00" xmlns="http://www.w3.org/2000/svg" xmlns:xlink="http://www.w3.org/1999/xlink">
<g id="graph0" class="graph" transform="scale(1 1) rotate(0) translate(4 321)">
<title>XMLNode::openFileHelper</title>
<polygon fill="white" stroke="none" points="-4,4 -4,-321 468,-321 468,4 -4,4"/>
<!-- Node1 -->
<g id="node1" class="node"><title>Node1</title>
<polygon fill="#bfbfbf" stroke="black" points="0.5,-145.5 0.5,-164.5 131.5,-164.5 131.5,-145.5 0.5,-145.5"/>
<text text-anchor="middle" x="66" y="-152.5" font-family="Helvetica,sans-Serif" font-size="10.00">XMLNode::openFileHelper</text>
</g>
<!-- Node2 -->
<g id="node2" class="node"><title>Node2</title>
<g id="a_node2"><a xlink:href="_p_d_a_q_2_core_2_source_2xml_parser_8cpp.xhtml#af77e3e2685487b9c492b20c36f3b864a" target="_top" xlink:title="_strnicmp">
<polygon fill="white" stroke="black" points="217.5,-278.5 217.5,-297.5 276.5,-297.5 276.5,-278.5 217.5,-278.5"/>
<text text-anchor="middle" x="247" y="-285.5" font-family="Helvetica,sans-Serif" font-size="10.00">_strnicmp</text>
</a>
</g>
</g>
<!-- Node1&#45;&gt;Node2 -->
<g id="edge1" class="edge"><title>Node1&#45;&gt;Node2</title>
<path fill="none" stroke="midnightblue" d="M78.1244,-173.435C94.5197,-198.963 127.636,-244.675 168,-269 182.922,-277.993 201.868,-282.733 217.351,-285.23"/>
<polygon fill="midnightblue" stroke="midnightblue" points="80.9484,-171.35 72.6792,-164.726 75.013,-175.061 80.9484,-171.35"/>
</g>
<!-- Node5 -->
<g id="node5" class="node"><title>Node5</title>
<g id="a_node5"><a xlink:href="class_a_d_c_manager1724.xhtml#a6de2521b9c793edcf14aeaeefeb62787" target="_top" xlink:title="ADCManager1724::Init">
<polygon fill="white" stroke="black" points="189,-240.5 189,-259.5 305,-259.5 305,-240.5 189,-240.5"/>
<text text-anchor="middle" x="247" y="-247.5" font-family="Helvetica,sans-Serif" font-size="10.00">ADCManager1724::Init</text>
</a>
</g>
</g>
<!-- Node1&#45;&gt;Node5 -->
<g id="edge4" class="edge"><title>Node1&#45;&gt;Node5</title>
<path fill="none" stroke="midnightblue" d="M84.2348,-171.501C103.261,-188.822 135.516,-215.627 168,-231 176.063,-234.816 184.969,-237.911 193.793,-240.408"/>
<polygon fill="midnightblue" stroke="midnightblue" points="86.4087,-168.743 76.6995,-164.503 81.645,-173.873 86.4087,-168.743"/>
</g>
<!-- Node6 -->
<g id="node6" class="node"><title>Node6</title>
<g id="a_node6"><a xlink:href="class_a_d_c_manager1720.xhtml#aae342ccd8bf1c253c455e195bfd82dfe" target="_top" xlink:title="ADCManager1720::Init">
<polygon fill="white" stroke="black" points="189,-202.5 189,-221.5 305,-221.5 305,-202.5 189,-202.5"/>
<text text-anchor="middle" x="247" y="-209.5" font-family="Helvetica,sans-Serif" font-size="10.00">ADCManager1720::Init</text>
</a>
</g>
</g>
<!-- Node1&#45;&gt;Node6 -->
<g id="edge5" class="edge"><title>Node1&#45;&gt;Node6</title>
<path fill="none" stroke="midnightblue" d="M99.3897,-168.329C119.034,-176.125 144.723,-185.815 168,-193 179.187,-196.453 191.43,-199.686 202.832,-202.471"/>
<polygon fill="midnightblue" stroke="midnightblue" points="100.575,-165.033 89.9912,-164.56 97.9704,-171.53 100.575,-165.033"/>
</g>
<!-- Node7 -->
<g id="node7" class="node"><title>Node7</title>
<g id="a_node7"><a xlink:href="class_a_d_c_manager1730.xhtml#adb6d45f2024f4a52d366a88d1c7f229d" target="_top" xlink:title="ADCManager1730::Init">
<polygon fill="white" stroke="black" points="189,-164.5 189,-183.5 305,-183.5 305,-164.5 189,-164.5"/>
<text text-anchor="middle" x="247" y="-171.5" font-family="Helvetica,sans-Serif" font-size="10.00">ADCManager1730::Init</text>
</a>
</g>
</g>
<!-- Node1&#45;&gt;Node7 -->
<g id="edge6" class="edge"><title>Node1&#45;&gt;Node7</title>
<path fill="none" stroke="midnightblue" d="M141.85,-162.945C157.58,-164.615 173.93,-166.35 188.887,-167.938"/>
<polygon fill="midnightblue" stroke="midnightblue" points="141.937,-159.435 131.623,-161.859 141.198,-166.395 141.937,-159.435"/>
</g>
<!-- Node8 -->
<g id="node8" class="node"><title>Node8</title>
<g id="a_node8"><a xlink:href="class_storage_manager.xhtml#ab16a945d003852d02556daf3610a9aac" target="_top" xlink:title="StorageManager::SaveContainer">
<polygon fill="white" stroke="black" points="168,-126.5 168,-145.5 326,-145.5 326,-126.5 168,-126.5"/>
<text text-anchor="middle" x="247" y="-133.5" font-family="Helvetica,sans-Serif" font-size="10.00">StorageManager::SaveContainer</text>
</a>
</g>
</g>
<!-- Node1&#45;&gt;Node8 -->
<g id="edge7" class="edge"><title>Node1&#45;&gt;Node8</title>
<path fill="none" stroke="midnightblue" d="M141.636,-147.078C150.256,-146.163 159.065,-145.228 167.732,-144.308"/>
<polygon fill="midnightblue" stroke="midnightblue" points="141.198,-143.605 131.623,-148.141 141.937,-150.565 141.198,-143.605"/>
</g>
<!-- Node10 -->
<g id="node10" class="node"><title>Node10</title>
<g id="a_node10"><a xlink:href="class_scope_manager.xhtml#abe246d1b817d85a9cba7af3441a4df04" target="_top" xlink:title="ScopeManager::ShowEvent">
<polygon fill="white" stroke="black" points="178,-88.5 178,-107.5 316,-107.5 316,-88.5 178,-88.5"/>
<text text-anchor="middle" x="247" y="-95.5" font-family="Helvetica,sans-Serif" font-size="10.00">ScopeManager::ShowEvent</text>
</a>
</g>
</g>
<!-- Node1&#45;&gt;Node10 -->
<g id="edge9" class="edge"><title>Node1&#45;&gt;Node10</title>
<path fill="none" stroke="midnightblue" d="M99.3897,-141.671C119.034,-133.875 144.723,-124.185 168,-117 179.187,-113.547 191.43,-110.314 202.832,-107.529"/>
<polygon fill="midnightblue" stroke="midnightblue" points="97.9704,-138.47 89.9912,-145.44 100.575,-144.967 97.9704,-138.47"/>
</g>
<!-- Node11 -->
<g id="node11" class="node"><title>Node11</title>
<g id="a_node11"><a xlink:href="class_slowcontrol_manager.xhtml#a36ab5157f5a740b9058517b77d1ce38f" target="_top" xlink:title="SlowcontrolManager\l::ShowStatus">
<polygon fill="white" stroke="black" points="194.5,-39 194.5,-69 299.5,-69 299.5,-39 194.5,-39"/>
<text text-anchor="start" x="202.5" y="-57" font-family="Helvetica,sans-Serif" font-size="10.00">SlowcontrolManager</text>
<text text-anchor="middle" x="247" y="-46" font-family="Helvetica,sans-Serif" font-size="10.00">::ShowStatus</text>
</a>
</g>
</g>
<!-- Node1&#45;&gt;Node11 -->
<g id="edge11" class="edge"><title>Node1&#45;&gt;Node11</title>
<path fill="none" stroke="midnightblue" d="M85.0737,-138.402C104.36,-121.443 136.424,-95.3437 168,-79 176.209,-74.7512 185.278,-71.0483 194.24,-67.8879"/>
<polygon fill="midnightblue" stroke="midnightblue" points="82.5154,-135.994 77.3942,-145.269 87.1816,-141.212 82.5154,-135.994"/>
</g>
<!-- Node12 -->
<g id="node12" class="node"><title>Node12</title>
<g id="a_node12"><a xlink:href="_p_d_a_q_2_core_2_source_2xml_8cpp.xhtml#a8251b051736c5146c1985edc6cb357e6" target="_top" xlink:title="xml_readsettings">
<polygon fill="white" stroke="black" points="201.5,-0.5 201.5,-19.5 292.5,-19.5 292.5,-0.5 201.5,-0.5"/>
<text text-anchor="middle" x="247" y="-7.5" font-family="Helvetica,sans-Serif" font-size="10.00">xml_readsettings</text>
</a>
</g>
</g>
<!-- Node1&#45;&gt;Node12 -->
<g id="edge13" class="edge"><title>Node1&#45;&gt;Node12</title>
<path fill="none" stroke="midnightblue" d="M76.7297,-136.228C92.1821,-108.35 125.034,-56.3589 168,-29 177.993,-22.6368 189.949,-18.4045 201.463,-15.5896"/>
<polygon fill="midnightblue" stroke="midnightblue" points="73.4947,-134.854 71.8374,-145.318 79.6587,-138.171 73.4947,-134.854"/>
</g>
<!-- Node3 -->
<g id="node3" class="node"><title>Node3</title>
<g id="a_node3"><a xlink:href="_p_d_a_q_2_core_2_source_2xml_parser_8cpp.xhtml#a9a625f17c09a36e3ad532cdf16072609" target="_top" xlink:title="charmemset">
<polygon fill="white" stroke="black" points="377.5,-297.5 377.5,-316.5 448.5,-316.5 448.5,-297.5 377.5,-297.5"/>
<text text-anchor="middle" x="413" y="-304.5" font-family="Helvetica,sans-Serif" font-size="10.00">charmemset</text>
</a>
</g>
</g>
<!-- Node2&#45;&gt;Node3 -->
<g id="edge2" class="edge"><title>Node2&#45;&gt;Node3</title>
<path fill="none" stroke="midnightblue" d="M286.605,-292.473C314.068,-295.654 350.653,-299.893 377.214,-302.97"/>
<polygon fill="midnightblue" stroke="midnightblue" points="286.903,-288.984 276.567,-291.31 286.097,-295.937 286.903,-288.984"/>
</g>
<!-- Node4 -->
<g id="node4" class="node"><title>Node4</title>
<g id="a_node4"><a xlink:href="_p_d_a_q_2_core_2_source_2xml_parser_8cpp.xhtml#ad9a5c911a8e21bb89427d29d33e2797e" target="_top" xlink:title="myIsTextWideChar">
<polygon fill="white" stroke="black" points="362.5,-259.5 362.5,-278.5 463.5,-278.5 463.5,-259.5 362.5,-259.5"/>
<text text-anchor="middle" x="413" y="-266.5" font-family="Helvetica,sans-Serif" font-size="10.00">myIsTextWideChar</text>
</a>
</g>
</g>
<!-- Node2&#45;&gt;Node4 -->
<g id="edge3" class="edge"><title>Node2&#45;&gt;Node4</title>
<path fill="none" stroke="midnightblue" d="M286.784,-283.507C309.346,-280.893 338.018,-277.571 362.231,-274.766"/>
<polygon fill="midnightblue" stroke="midnightblue" points="286.097,-280.063 276.567,-284.69 286.903,-287.016 286.097,-280.063"/>
</g>
<!-- Node9 -->
<g id="node9" class="node"><title>Node9</title>
<g id="a_node9"><a xlink:href="_multi_d_a_q_8cpp.xhtml#adedb285b02c41bde2158ded9cc9fd7ac" target="_top" xlink:title="main">
<polygon fill="white" stroke="black" points="394,-88.5 394,-107.5 432,-107.5 432,-88.5 394,-88.5"/>
<text text-anchor="middle" x="413" y="-95.5" font-family="Helvetica,sans-Serif" font-size="10.00">main</text>
</a>
</g>
</g>
<!-- Node8&#45;&gt;Node9 -->
<g id="edge8" class="edge"><title>Node8&#45;&gt;Node9</title>
<path fill="none" stroke="midnightblue" d="M299.543,-124.057C331.714,-116.603 371.177,-107.459 393.773,-102.223"/>
<polygon fill="midnightblue" stroke="midnightblue" points="298.336,-120.744 289.384,-126.411 299.916,-127.563 298.336,-120.744"/>
</g>
<!-- Node10&#45;&gt;Node9 -->
<g id="edge10" class="edge"><title>Node10&#45;&gt;Node9</title>
<path fill="none" stroke="midnightblue" d="M326.16,-98C351.477,-98 377.284,-98 393.898,-98"/>
<polygon fill="midnightblue" stroke="midnightblue" points="326.126,-94.5001 316.126,-98 326.126,-101.5 326.126,-94.5001"/>
</g>
<!-- Node11&#45;&gt;Node9 -->
<g id="edge12" class="edge"><title>Node11&#45;&gt;Node9</title>
<path fill="none" stroke="midnightblue" d="M309.865,-70.598C339.783,-78.6246 373.511,-87.6738 393.744,-93.1019"/>
<polygon fill="midnightblue" stroke="midnightblue" points="310.456,-67.1328 299.891,-67.9219 308.642,-73.8937 310.456,-67.1328"/>
</g>
<!-- Node13 -->
<g id="node13" class="node"><title>Node13</title>
<g id="a_node13"><a xlink:href="_z_d_a_q_8cpp.xhtml#a0ddf1224851353fc92bfbff6f499fa97" target="_top" xlink:title="main">
<polygon fill="white" stroke="black" points="394,-0.5 394,-19.5 432,-19.5 432,-0.5 394,-0.5"/>
<text text-anchor="middle" x="413" y="-7.5" font-family="Helvetica,sans-Serif" font-size="10.00">main</text>
</a>
</g>
</g>
<!-- Node12&#45;&gt;Node13 -->
<g id="edge14" class="edge"><title>Node12&#45;&gt;Node13</title>
<path fill="none" stroke="midnightblue" d="M303.216,-10C334.646,-10 371.974,-10 393.724,-10"/>
<polygon fill="midnightblue" stroke="midnightblue" points="302.814,-6.5001 292.814,-10 302.814,-13.5001 302.814,-6.5001"/>
</g>
</g>
</svg>
