<?xml version="1.0" encoding="UTF-8" standalone="no"?>
<!DOCTYPE svg PUBLIC "-//W3C//DTD SVG 1.1//EN"
 "http://www.w3.org/Graphics/SVG/1.1/DTD/svg11.dtd">
<!-- Generated by graphviz version 2.36.0 (20140111.2315)
 -->
<!-- Title: XMLNode::addText_WOSD Pages: 1 -->
<svg width="630pt" height="123pt"
 viewBox="0.00 0.00 630.00 123.00" xmlns="http://www.w3.org/2000/svg" xmlns:xlink="http://www.w3.org/1999/xlink">
<g id="graph0" class="graph" transform="scale(1 1) rotate(0) translate(4 119)">
<title>XMLNode::addText_WOSD</title>
<polygon fill="white" stroke="none" points="-4,4 -4,-119 626,-119 626,4 -4,4"/>
<!-- Node1 -->
<g id="node1" class="node"><title>Node1</title>
<polygon fill="#bfbfbf" stroke="black" points="0,-95.5 0,-114.5 138,-114.5 138,-95.5 0,-95.5"/>
<text text-anchor="middle" x="69" y="-102.5" font-family="Helvetica,sans-Serif" font-size="10.00">XMLNode::addText_WOSD</text>
</g>
<!-- Node2 -->
<g id="node2" class="node"><title>Node2</title>
<g id="a_node2"><a xlink:href="_p_d_a_q_2_core_2_source_2xml_parser_8cpp.xhtml#a9a625f17c09a36e3ad532cdf16072609" target="_top" xlink:title="charmemset">
<polygon fill="white" stroke="black" points="550.5,-76.5 550.5,-95.5 621.5,-95.5 621.5,-76.5 550.5,-76.5"/>
<text text-anchor="middle" x="586" y="-83.5" font-family="Helvetica,sans-Serif" font-size="10.00">charmemset</text>
</a>
</g>
</g>
<!-- Node1&#45;&gt;Node2 -->
<g id="edge1" class="edge"><title>Node1&#45;&gt;Node2</title>
<path fill="none" stroke="midnightblue" d="M148.364,-103.447C237.106,-101.476 386.013,-97.522 514,-91 525.847,-90.3963 538.793,-89.5422 550.348,-88.7105"/>
<polygon fill="midnightblue" stroke="midnightblue" points="148.032,-99.9538 138.111,-103.672 148.185,-106.952 148.032,-99.9538"/>
</g>
<!-- Node3 -->
<g id="node3" class="node"><title>Node3</title>
<g id="a_node3"><a xlink:href="struct_x_m_l_node.xhtml#a8809eddad474e8bd7ad5f57aea7c77ac" target="_top" xlink:title="XMLNode::updateText_WOSD">
<polygon fill="white" stroke="black" points="174,-57.5 174,-76.5 326,-76.5 326,-57.5 174,-57.5"/>
<text text-anchor="middle" x="250" y="-64.5" font-family="Helvetica,sans-Serif" font-size="10.00">XMLNode::updateText_WOSD</text>
</a>
</g>
</g>
<!-- Node1&#45;&gt;Node3 -->
<g id="edge2" class="edge"><title>Node1&#45;&gt;Node3</title>
<path fill="none" stroke="midnightblue" d="M125.024,-93.319C150.408,-87.9301 180.161,-81.6139 204.156,-76.5201"/>
<polygon fill="midnightblue" stroke="midnightblue" points="124.224,-89.9106 115.169,-95.411 125.678,-96.758 124.224,-89.9106"/>
</g>
<!-- Node3&#45;&gt;Node2 -->
<g id="edge6" class="edge"><title>Node3&#45;&gt;Node2</title>
<path fill="none" stroke="midnightblue" d="M336.418,-71.8591C405.785,-75.8051 500.047,-81.1674 550.218,-84.0214"/>
<polygon fill="midnightblue" stroke="midnightblue" points="336.555,-68.3613 326.373,-71.2877 336.158,-75.3501 336.555,-68.3613"/>
</g>
<!-- Node4 -->
<g id="node4" class="node"><title>Node4</title>
<g id="a_node4"><a xlink:href="struct_x_m_l_node.xhtml#ae2c448a74bf74bcd502d4ba27c63eabc" target="_top" xlink:title="XMLNode::updateText_WOSD">
<polygon fill="white" stroke="black" points="362,-38.5 362,-57.5 514,-57.5 514,-38.5 362,-38.5"/>
<text text-anchor="middle" x="438" y="-45.5" font-family="Helvetica,sans-Serif" font-size="10.00">XMLNode::updateText_WOSD</text>
</a>
</g>
</g>
<!-- Node3&#45;&gt;Node4 -->
<g id="edge3" class="edge"><title>Node3&#45;&gt;Node4</title>
<path fill="none" stroke="midnightblue" d="M336.147,-58.3022C344.742,-57.4242 353.426,-56.5371 361.905,-55.671"/>
<polygon fill="midnightblue" stroke="midnightblue" points="335.71,-54.8286 326.117,-59.3267 336.421,-61.7923 335.71,-54.8286"/>
</g>
<!-- Node5 -->
<g id="node5" class="node"><title>Node5</title>
<g id="a_node5"><a xlink:href="struct_x_m_l_node.xhtml#aad04ffd86ca67253bbc81f941608f8d2" target="_top" xlink:title="XMLNode::updateText">
<polygon fill="white" stroke="black" points="380.5,-0.5 380.5,-19.5 495.5,-19.5 495.5,-0.5 380.5,-0.5"/>
<text text-anchor="middle" x="438" y="-7.5" font-family="Helvetica,sans-Serif" font-size="10.00">XMLNode::updateText</text>
</a>
</g>
</g>
<!-- Node3&#45;&gt;Node5 -->
<g id="edge4" class="edge"><title>Node3&#45;&gt;Node5</title>
<path fill="none" stroke="midnightblue" d="M286.282,-54.0969C307.98,-46.368 336.434,-36.6007 362,-29 373.201,-25.6698 385.451,-22.4088 396.744,-19.5544"/>
<polygon fill="midnightblue" stroke="midnightblue" points="285.054,-50.8189 276.823,-57.4894 287.418,-57.408 285.054,-50.8189"/>
</g>
<!-- Node5&#45;&gt;Node2 -->
<g id="edge5" class="edge"><title>Node5&#45;&gt;Node2</title>
<path fill="none" stroke="midnightblue" d="M499.202,-22.7753C504.311,-24.5982 509.311,-26.6636 514,-29 538.9,-41.4079 563.121,-63.6963 575.828,-76.4149"/>
<polygon fill="midnightblue" stroke="midnightblue" points="499.889,-19.3188 489.297,-19.5613 497.729,-25.977 499.889,-19.3188"/>
</g>
</g>
</svg>
