<?xml version="1.0" encoding="UTF-8" standalone="no"?>
<!DOCTYPE svg PUBLIC "-//W3C//DTD SVG 1.1//EN"
 "http://www.w3.org/Graphics/SVG/1.1/DTD/svg11.dtd">
<!-- Generated by graphviz version 2.36.0 (20140111.2315)
 -->
<!-- Title: XMLNode::setGlobalOptions Pages: 1 -->
<svg width="650pt" height="344pt"
 viewBox="0.00 0.00 650.00 344.00" xmlns="http://www.w3.org/2000/svg" xmlns:xlink="http://www.w3.org/1999/xlink">
<g id="graph0" class="graph" transform="scale(1 1) rotate(0) translate(4 340)">
<title>XMLNode::setGlobalOptions</title>
<polygon fill="white" stroke="none" points="-4,4 -4,-340 646,-340 646,4 -4,4"/>
<!-- Node1 -->
<g id="node1" class="node"><title>Node1</title>
<polygon fill="#bfbfbf" stroke="black" points="0.5,-278.5 0.5,-297.5 141.5,-297.5 141.5,-278.5 0.5,-278.5"/>
<text text-anchor="middle" x="71" y="-285.5" font-family="Helvetica,sans-Serif" font-size="10.00">XMLNode::setGlobalOptions</text>
</g>
<!-- Node2 -->
<g id="node2" class="node"><title>Node2</title>
<g id="a_node2"><a xlink:href="_p_d_a_q_2_core_2_source_2xml_parser_8cpp.xhtml#af77e3e2685487b9c492b20c36f3b864a" target="_top" xlink:title="_strnicmp">
<polygon fill="white" stroke="black" points="395.5,-278.5 395.5,-297.5 454.5,-297.5 454.5,-278.5 395.5,-278.5"/>
<text text-anchor="middle" x="425" y="-285.5" font-family="Helvetica,sans-Serif" font-size="10.00">_strnicmp</text>
</a>
</g>
</g>
<!-- Node1&#45;&gt;Node2 -->
<g id="edge1" class="edge"><title>Node1&#45;&gt;Node2</title>
<path fill="none" stroke="midnightblue" d="M151.748,-288C229.181,-288 342.513,-288 395.152,-288"/>
<polygon fill="midnightblue" stroke="midnightblue" points="151.544,-284.5 141.544,-288 151.544,-291.5 151.544,-284.5"/>
</g>
<!-- Node3 -->
<g id="node3" class="node"><title>Node3</title>
<g id="a_node3"><a xlink:href="_p_d_a_q_2_core_2_source_2xml_parser_8cpp.xhtml#a9a625f17c09a36e3ad532cdf16072609" target="_top" xlink:title="charmemset">
<polygon fill="white" stroke="black" points="555.5,-316.5 555.5,-335.5 626.5,-335.5 626.5,-316.5 555.5,-316.5"/>
<text text-anchor="middle" x="591" y="-323.5" font-family="Helvetica,sans-Serif" font-size="10.00">charmemset</text>
</a>
</g>
</g>
<!-- Node1&#45;&gt;Node3 -->
<g id="edge4" class="edge"><title>Node1&#45;&gt;Node3</title>
<path fill="none" stroke="midnightblue" d="M148.59,-298.791C158.474,-299.985 168.468,-301.094 178,-302 317.624,-315.269 484.613,-322.278 555.481,-324.843"/>
<polygon fill="midnightblue" stroke="midnightblue" points="148.71,-295.279 138.355,-297.521 147.848,-302.226 148.71,-295.279"/>
</g>
<!-- Node5 -->
<g id="node5" class="node"><title>Node5</title>
<g id="a_node5"><a xlink:href="struct_x_m_l_node.xhtml#acc044148e2b9b8264a320b7b6e398158" target="_top" xlink:title="XMLNode::openFileHelper">
<polygon fill="white" stroke="black" points="178.5,-164.5 178.5,-183.5 309.5,-183.5 309.5,-164.5 178.5,-164.5"/>
<text text-anchor="middle" x="244" y="-171.5" font-family="Helvetica,sans-Serif" font-size="10.00">XMLNode::openFileHelper</text>
</a>
</g>
</g>
<!-- Node1&#45;&gt;Node5 -->
<g id="edge5" class="edge"><title>Node1&#45;&gt;Node5</title>
<path fill="none" stroke="midnightblue" d="M95.0549,-272.63C130.819,-248.787 198.642,-203.572 228.393,-183.738"/>
<polygon fill="midnightblue" stroke="midnightblue" points="92.6643,-270.017 86.2852,-278.477 96.5472,-275.842 92.6643,-270.017"/>
</g>
<!-- Node2&#45;&gt;Node3 -->
<g id="edge2" class="edge"><title>Node2&#45;&gt;Node3</title>
<path fill="none" stroke="midnightblue" d="M464.605,-296.945C492.068,-303.308 528.653,-311.785 555.214,-317.94"/>
<polygon fill="midnightblue" stroke="midnightblue" points="465.099,-293.467 454.567,-294.619 463.518,-300.286 465.099,-293.467"/>
</g>
<!-- Node4 -->
<g id="node4" class="node"><title>Node4</title>
<g id="a_node4"><a xlink:href="_p_d_a_q_2_core_2_source_2xml_parser_8cpp.xhtml#ad9a5c911a8e21bb89427d29d33e2797e" target="_top" xlink:title="myIsTextWideChar">
<polygon fill="white" stroke="black" points="540.5,-278.5 540.5,-297.5 641.5,-297.5 641.5,-278.5 540.5,-278.5"/>
<text text-anchor="middle" x="591" y="-285.5" font-family="Helvetica,sans-Serif" font-size="10.00">myIsTextWideChar</text>
</a>
</g>
</g>
<!-- Node2&#45;&gt;Node4 -->
<g id="edge3" class="edge"><title>Node2&#45;&gt;Node4</title>
<path fill="none" stroke="midnightblue" d="M464.784,-288C487.346,-288 516.018,-288 540.231,-288"/>
<polygon fill="midnightblue" stroke="midnightblue" points="464.567,-284.5 454.567,-288 464.567,-291.5 464.567,-284.5"/>
</g>
<!-- Node5&#45;&gt;Node2 -->
<g id="edge6" class="edge"><title>Node5&#45;&gt;Node2</title>
<path fill="none" stroke="midnightblue" d="M258.648,-191.498C276.419,-213.052 309.546,-249.233 346,-269 361.193,-277.238 379.968,-281.953 395.29,-284.626"/>
<polygon fill="midnightblue" stroke="midnightblue" points="261.207,-189.096 252.208,-183.503 255.755,-193.487 261.207,-189.096"/>
</g>
<!-- Node6 -->
<g id="node6" class="node"><title>Node6</title>
<g id="a_node6"><a xlink:href="class_a_d_c_manager1724.xhtml#a6de2521b9c793edcf14aeaeefeb62787" target="_top" xlink:title="ADCManager1724::Init">
<polygon fill="white" stroke="black" points="367,-240.5 367,-259.5 483,-259.5 483,-240.5 367,-240.5"/>
<text text-anchor="middle" x="425" y="-247.5" font-family="Helvetica,sans-Serif" font-size="10.00">ADCManager1724::Init</text>
</a>
</g>
</g>
<!-- Node5&#45;&gt;Node6 -->
<g id="edge7" class="edge"><title>Node5&#45;&gt;Node6</title>
<path fill="none" stroke="midnightblue" d="M267.736,-189.243C287.637,-201.985 317.711,-219.82 346,-231 355.462,-234.74 365.871,-237.891 375.916,-240.487"/>
<polygon fill="midnightblue" stroke="midnightblue" points="269.384,-186.14 259.094,-183.619 265.566,-192.007 269.384,-186.14"/>
</g>
<!-- Node7 -->
<g id="node7" class="node"><title>Node7</title>
<g id="a_node7"><a xlink:href="class_a_d_c_manager1720.xhtml#aae342ccd8bf1c253c455e195bfd82dfe" target="_top" xlink:title="ADCManager1720::Init">
<polygon fill="white" stroke="black" points="367,-202.5 367,-221.5 483,-221.5 483,-202.5 367,-202.5"/>
<text text-anchor="middle" x="425" y="-209.5" font-family="Helvetica,sans-Serif" font-size="10.00">ADCManager1720::Init</text>
</a>
</g>
</g>
<!-- Node5&#45;&gt;Node7 -->
<g id="edge8" class="edge"><title>Node5&#45;&gt;Node7</title>
<path fill="none" stroke="midnightblue" d="M300.024,-185.681C325.408,-191.07 355.161,-197.386 379.156,-202.48"/>
<polygon fill="midnightblue" stroke="midnightblue" points="300.678,-182.242 290.169,-183.589 299.224,-189.089 300.678,-182.242"/>
</g>
<!-- Node8 -->
<g id="node8" class="node"><title>Node8</title>
<g id="a_node8"><a xlink:href="class_a_d_c_manager1730.xhtml#adb6d45f2024f4a52d366a88d1c7f229d" target="_top" xlink:title="ADCManager1730::Init">
<polygon fill="white" stroke="black" points="367,-164.5 367,-183.5 483,-183.5 483,-164.5 367,-164.5"/>
<text text-anchor="middle" x="425" y="-171.5" font-family="Helvetica,sans-Serif" font-size="10.00">ADCManager1730::Init</text>
</a>
</g>
</g>
<!-- Node5&#45;&gt;Node8 -->
<g id="edge9" class="edge"><title>Node5&#45;&gt;Node8</title>
<path fill="none" stroke="midnightblue" d="M319.85,-174C335.58,-174 351.93,-174 366.887,-174"/>
<polygon fill="midnightblue" stroke="midnightblue" points="319.623,-170.5 309.623,-174 319.623,-177.5 319.623,-170.5"/>
</g>
<!-- Node9 -->
<g id="node9" class="node"><title>Node9</title>
<g id="a_node9"><a xlink:href="class_storage_manager.xhtml#ab16a945d003852d02556daf3610a9aac" target="_top" xlink:title="StorageManager::SaveContainer">
<polygon fill="white" stroke="black" points="346,-126.5 346,-145.5 504,-145.5 504,-126.5 346,-126.5"/>
<text text-anchor="middle" x="425" y="-133.5" font-family="Helvetica,sans-Serif" font-size="10.00">StorageManager::SaveContainer</text>
</a>
</g>
</g>
<!-- Node5&#45;&gt;Node9 -->
<g id="edge10" class="edge"><title>Node5&#45;&gt;Node9</title>
<path fill="none" stroke="midnightblue" d="M300.024,-162.319C325.408,-156.93 355.161,-150.614 379.156,-145.52"/>
<polygon fill="midnightblue" stroke="midnightblue" points="299.224,-158.911 290.169,-164.411 300.678,-165.758 299.224,-158.911"/>
</g>
<!-- Node11 -->
<g id="node11" class="node"><title>Node11</title>
<g id="a_node11"><a xlink:href="class_scope_manager.xhtml#abe246d1b817d85a9cba7af3441a4df04" target="_top" xlink:title="ScopeManager::ShowEvent">
<polygon fill="white" stroke="black" points="356,-88.5 356,-107.5 494,-107.5 494,-88.5 356,-88.5"/>
<text text-anchor="middle" x="425" y="-95.5" font-family="Helvetica,sans-Serif" font-size="10.00">ScopeManager::ShowEvent</text>
</a>
</g>
</g>
<!-- Node5&#45;&gt;Node11 -->
<g id="edge12" class="edge"><title>Node5&#45;&gt;Node11</title>
<path fill="none" stroke="midnightblue" d="M267.736,-158.757C287.637,-146.015 317.711,-128.18 346,-117 355.462,-113.26 365.871,-110.109 375.916,-107.513"/>
<polygon fill="midnightblue" stroke="midnightblue" points="265.566,-155.993 259.094,-164.381 269.384,-161.86 265.566,-155.993"/>
</g>
<!-- Node12 -->
<g id="node12" class="node"><title>Node12</title>
<g id="a_node12"><a xlink:href="class_slowcontrol_manager.xhtml#a36ab5157f5a740b9058517b77d1ce38f" target="_top" xlink:title="SlowcontrolManager\l::ShowStatus">
<polygon fill="white" stroke="black" points="372.5,-39 372.5,-69 477.5,-69 477.5,-39 372.5,-39"/>
<text text-anchor="start" x="380.5" y="-57" font-family="Helvetica,sans-Serif" font-size="10.00">SlowcontrolManager</text>
<text text-anchor="middle" x="425" y="-46" font-family="Helvetica,sans-Serif" font-size="10.00">::ShowStatus</text>
</a>
</g>
</g>
<!-- Node5&#45;&gt;Node12 -->
<g id="edge14" class="edge"><title>Node5&#45;&gt;Node12</title>
<path fill="none" stroke="midnightblue" d="M259.158,-156.59C277.235,-135.425 310.455,-99.9451 346,-79 354.086,-74.2353 363.187,-70.2657 372.242,-66.998"/>
<polygon fill="midnightblue" stroke="midnightblue" points="256.316,-154.533 252.582,-164.448 261.684,-159.025 256.316,-154.533"/>
</g>
<!-- Node13 -->
<g id="node13" class="node"><title>Node13</title>
<g id="a_node13"><a xlink:href="_p_d_a_q_2_core_2_source_2xml_8cpp.xhtml#a8251b051736c5146c1985edc6cb357e6" target="_top" xlink:title="xml_readsettings">
<polygon fill="white" stroke="black" points="379.5,-0.5 379.5,-19.5 470.5,-19.5 470.5,-0.5 379.5,-0.5"/>
<text text-anchor="middle" x="425" y="-7.5" font-family="Helvetica,sans-Serif" font-size="10.00">xml_readsettings</text>
</a>
</g>
</g>
<!-- Node5&#45;&gt;Node13 -->
<g id="edge16" class="edge"><title>Node5&#45;&gt;Node13</title>
<path fill="none" stroke="midnightblue" d="M252.77,-155.081C266.639,-123.765 298.704,-61.4027 346,-29 355.773,-22.3042 367.656,-17.9602 379.169,-15.1444"/>
<polygon fill="midnightblue" stroke="midnightblue" points="249.489,-153.852 248.769,-164.422 255.923,-156.608 249.489,-153.852"/>
</g>
<!-- Node10 -->
<g id="node10" class="node"><title>Node10</title>
<g id="a_node10"><a xlink:href="_multi_d_a_q_8cpp.xhtml#adedb285b02c41bde2158ded9cc9fd7ac" target="_top" xlink:title="main">
<polygon fill="white" stroke="black" points="572,-88.5 572,-107.5 610,-107.5 610,-88.5 572,-88.5"/>
<text text-anchor="middle" x="591" y="-95.5" font-family="Helvetica,sans-Serif" font-size="10.00">main</text>
</a>
</g>
</g>
<!-- Node9&#45;&gt;Node10 -->
<g id="edge11" class="edge"><title>Node9&#45;&gt;Node10</title>
<path fill="none" stroke="midnightblue" d="M477.543,-124.057C509.714,-116.603 549.177,-107.459 571.773,-102.223"/>
<polygon fill="midnightblue" stroke="midnightblue" points="476.336,-120.744 467.384,-126.411 477.916,-127.563 476.336,-120.744"/>
</g>
<!-- Node11&#45;&gt;Node10 -->
<g id="edge13" class="edge"><title>Node11&#45;&gt;Node10</title>
<path fill="none" stroke="midnightblue" d="M504.16,-98C529.477,-98 555.284,-98 571.898,-98"/>
<polygon fill="midnightblue" stroke="midnightblue" points="504.126,-94.5001 494.126,-98 504.126,-101.5 504.126,-94.5001"/>
</g>
<!-- Node12&#45;&gt;Node10 -->
<g id="edge15" class="edge"><title>Node12&#45;&gt;Node10</title>
<path fill="none" stroke="midnightblue" d="M487.865,-70.598C517.783,-78.6246 551.511,-87.6738 571.744,-93.1019"/>
<polygon fill="midnightblue" stroke="midnightblue" points="488.456,-67.1328 477.891,-67.9219 486.642,-73.8937 488.456,-67.1328"/>
</g>
<!-- Node14 -->
<g id="node14" class="node"><title>Node14</title>
<g id="a_node14"><a xlink:href="_z_d_a_q_8cpp.xhtml#a0ddf1224851353fc92bfbff6f499fa97" target="_top" xlink:title="main">
<polygon fill="white" stroke="black" points="572,-0.5 572,-19.5 610,-19.5 610,-0.5 572,-0.5"/>
<text text-anchor="middle" x="591" y="-7.5" font-family="Helvetica,sans-Serif" font-size="10.00">main</text>
</a>
</g>
</g>
<!-- Node13&#45;&gt;Node14 -->
<g id="edge17" class="edge"><title>Node13&#45;&gt;Node14</title>
<path fill="none" stroke="midnightblue" d="M481.216,-10C512.646,-10 549.974,-10 571.724,-10"/>
<polygon fill="midnightblue" stroke="midnightblue" points="480.814,-6.5001 470.814,-10 480.814,-13.5001 480.814,-6.5001"/>
</g>
</g>
</svg>
