<?xml version="1.0" encoding="UTF-8" standalone="no"?>
<!DOCTYPE svg PUBLIC "-//W3C//DTD SVG 1.1//EN"
 "http://www.w3.org/Graphics/SVG/1.1/DTD/svg11.dtd">
<!-- Generated by graphviz version 2.36.0 (20140111.2315)
 -->
<!-- Title: XMLNode::updateName Pages: 1 -->
<svg width="484pt" height="85pt"
 viewBox="0.00 0.00 484.00 85.00" xmlns="http://www.w3.org/2000/svg" xmlns:xlink="http://www.w3.org/1999/xlink">
<g id="graph0" class="graph" transform="scale(1 1) rotate(0) translate(4 81)">
<title>XMLNode::updateName</title>
<polygon fill="white" stroke="none" points="-4,4 -4,-81 480,-81 480,4 -4,4"/>
<!-- Node1 -->
<g id="node1" class="node"><title>Node1</title>
<polygon fill="#bfbfbf" stroke="black" points="0,-38.5 0,-57.5 122,-57.5 122,-38.5 0,-38.5"/>
<text text-anchor="middle" x="61" y="-45.5" font-family="Helvetica,sans-Serif" font-size="10.00">XMLNode::updateName</text>
</g>
<!-- Node2 -->
<g id="node2" class="node"><title>Node2</title>
<g id="a_node2"><a xlink:href="_c_d_a_q_2_plugins_2_source_2xml_parser_8cpp.xhtml#a5ba11fcf2496bd498e46fc958dba3d06" target="_top" xlink:title="stringDup">
<polygon fill="white" stroke="black" points="207.5,-57.5 207.5,-76.5 266.5,-76.5 266.5,-57.5 207.5,-57.5"/>
<text text-anchor="middle" x="237" y="-64.5" font-family="Helvetica,sans-Serif" font-size="10.00">stringDup</text>
</a>
</g>
</g>
<!-- Node1&#45;&gt;Node2 -->
<g id="edge1" class="edge"><title>Node1&#45;&gt;Node2</title>
<path fill="none" stroke="midnightblue" d="M122.368,-54.592C147.281,-57.3123 175.417,-60.3846 197.459,-62.7915"/>
<polygon fill="midnightblue" stroke="midnightblue" points="197.116,-66.2747 207.436,-63.881 197.875,-59.3161 197.116,-66.2747"/>
</g>
<!-- Node3 -->
<g id="node3" class="node"><title>Node3</title>
<g id="a_node3"><a xlink:href="struct_x_m_l_node.xhtml#a5f35571651c6b629f5c8e5d02942a1c7" target="_top" xlink:title="XMLNode::updateName_WOSD">
<polygon fill="white" stroke="black" points="158,-19.5 158,-38.5 316,-38.5 316,-19.5 158,-19.5"/>
<text text-anchor="middle" x="237" y="-26.5" font-family="Helvetica,sans-Serif" font-size="10.00">XMLNode::updateName_WOSD</text>
</a>
</g>
</g>
<!-- Node1&#45;&gt;Node3 -->
<g id="edge2" class="edge"><title>Node1&#45;&gt;Node3</title>
<path fill="none" stroke="midnightblue" d="M122.368,-41.408C130.623,-40.5067 139.231,-39.5667 147.854,-38.6251"/>
<polygon fill="midnightblue" stroke="midnightblue" points="148.403,-42.0861 157.963,-37.5212 147.643,-35.1275 148.403,-42.0861"/>
</g>
<!-- Node4 -->
<g id="node4" class="node"><title>Node4</title>
<g id="a_node4"><a xlink:href="struct_x_m_l_node.xhtml#a719b115adfb642594107854189559ff2" target="_top" xlink:title="XMLNode::XMLNode">
<polygon fill="white" stroke="black" points="359,-38.5 359,-57.5 469,-57.5 469,-38.5 359,-38.5"/>
<text text-anchor="middle" x="414" y="-45.5" font-family="Helvetica,sans-Serif" font-size="10.00">XMLNode::XMLNode</text>
</a>
</g>
</g>
<!-- Node3&#45;&gt;Node4 -->
<g id="edge3" class="edge"><title>Node3&#45;&gt;Node4</title>
<path fill="none" stroke="midnightblue" d="M316.032,-37.472C327.014,-38.6644 338.198,-39.8786 348.88,-41.0384"/>
<polygon fill="midnightblue" stroke="midnightblue" points="348.625,-44.5312 358.945,-42.1311 349.381,-37.5721 348.625,-44.5312"/>
</g>
<!-- Node5 -->
<g id="node5" class="node"><title>Node5</title>
<g id="a_node5"><a xlink:href="struct_x_m_l_node.xhtml#a71df27d54a2dc09b0a456406a7e8c6d3" target="_top" xlink:title="XMLNode::isDeclaration">
<polygon fill="white" stroke="black" points="352.5,-0.5 352.5,-19.5 475.5,-19.5 475.5,-0.5 352.5,-0.5"/>
<text text-anchor="middle" x="414" y="-7.5" font-family="Helvetica,sans-Serif" font-size="10.00">XMLNode::isDeclaration</text>
</a>
</g>
</g>
<!-- Node3&#45;&gt;Node5 -->
<g id="edge4" class="edge"><title>Node3&#45;&gt;Node5</title>
<path fill="none" stroke="midnightblue" d="M316.032,-20.528C324.81,-19.5749 333.717,-18.6078 342.394,-17.6658"/>
<polygon fill="midnightblue" stroke="midnightblue" points="342.889,-21.1328 352.452,-16.5738 342.133,-14.1737 342.889,-21.1328"/>
</g>
</g>
</svg>
