<?xml version="1.0" encoding="UTF-8" standalone="no"?>
<!DOCTYPE svg PUBLIC "-//W3C//DTD SVG 1.1//EN"
 "http://www.w3.org/Graphics/SVG/1.1/DTD/svg11.dtd">
<!-- Generated by graphviz version 2.36.0 (20140111.2315)
 -->
<!-- Title: multipurposemodule Pages: 1 -->
<svg width="120pt" height="106pt"
 viewBox="0.00 0.00 120.00 106.00" xmlns="http://www.w3.org/2000/svg" xmlns:xlink="http://www.w3.org/1999/xlink">
<g id="graph0" class="graph" transform="scale(1 1) rotate(0) translate(4 102)">
<title>multipurposemodule</title>
<polygon fill="white" stroke="none" points="-4,4 -4,-102 116,-102 116,4 -4,4"/>
<!-- Node1 -->
<g id="node1" class="node"><title>Node1</title>
<polygon fill="#bfbfbf" stroke="black" points="6,-0.5 6,-19.5 110,-19.5 110,-0.5 6,-0.5"/>
<text text-anchor="middle" x="58" y="-7.5" font-family="Helvetica,sans-Serif" font-size="10.00">multipurposemodule</text>
</g>
<!-- Node2 -->
<g id="node2" class="node"><title>Node2</title>
<polygon fill="white" stroke="#bfbfbf" points="-1,-78.5 -1,-97.5 55,-97.5 55,-78.5 -1,-78.5"/>
<text text-anchor="middle" x="27" y="-85.5" font-family="Helvetica,sans-Serif" font-size="10.00">u_int32_t</text>
</g>
<!-- Node2&#45;&gt;Node1 -->
<g id="edge1" class="edge"><title>Node2&#45;&gt;Node1</title>
<path fill="none" stroke="#9a32cd" stroke-dasharray="5,2" d="M23.9623,-68.2437C23.2598,-58.7732 23.7245,-47.3424 28,-38 31.4408,-30.4816 38.0835,-24.1577 44.2453,-19.5245"/>
<polygon fill="#9a32cd" stroke="#9a32cd" points="20.4929,-68.709 25.1645,-78.2183 27.4426,-67.8713 20.4929,-68.709"/>
<text text-anchor="middle" x="48" y="-46.5" font-family="Helvetica,sans-Serif" font-size="10.00"> Address</text>
</g>
<!-- Node3 -->
<g id="node3" class="node"><title>Node3</title>
<polygon fill="white" stroke="#bfbfbf" points="75.5,-78.5 75.5,-97.5 104.5,-97.5 104.5,-78.5 75.5,-78.5"/>
<text text-anchor="middle" x="90" y="-85.5" font-family="Helvetica,sans-Serif" font-size="10.00">int</text>
</g>
<!-- Node3&#45;&gt;Node1 -->
<g id="edge2" class="edge"><title>Node3&#45;&gt;Node1</title>
<path fill="none" stroke="#9a32cd" stroke-dasharray="5,2" d="M82.284,-68.6744C75.7317,-53.1127 66.6199,-31.4722 61.628,-19.6165"/>
<polygon fill="#9a32cd" stroke="#9a32cd" points="79.2228,-70.4237 86.3292,-78.2818 85.6743,-67.7073 79.2228,-70.4237"/>
<text text-anchor="middle" x="94.5" y="-52" font-family="Helvetica,sans-Serif" font-size="10.00"> Crate</text>
<text text-anchor="middle" x="94.5" y="-41" font-family="Helvetica,sans-Serif" font-size="10.00">HEVeto</text>
</g>
</g>
</svg>
