<?xml version="1.0" encoding="UTF-8" standalone="no"?>
<!DOCTYPE svg PUBLIC "-//W3C//DTD SVG 1.1//EN"
 "http://www.w3.org/Graphics/SVG/1.1/DTD/svg11.dtd">
<!-- Generated by graphviz version 2.36.0 (20140111.2315)
 -->
<!-- Title: XMLNode::parseString Pages: 1 -->
<svg width="766pt" height="325pt"
 viewBox="0.00 0.00 766.00 325.00" xmlns="http://www.w3.org/2000/svg" xmlns:xlink="http://www.w3.org/1999/xlink">
<g id="graph0" class="graph" transform="scale(1 1) rotate(0) translate(4 321)">
<title>XMLNode::parseString</title>
<polygon fill="white" stroke="none" points="-4,4 -4,-321 762,-321 762,4 -4,4"/>
<!-- Node1 -->
<g id="node1" class="node"><title>Node1</title>
<polygon fill="#bfbfbf" stroke="black" points="0,-259.5 0,-278.5 116,-278.5 116,-259.5 0,-259.5"/>
<text text-anchor="middle" x="58" y="-266.5" font-family="Helvetica,sans-Serif" font-size="10.00">XMLNode::parseString</text>
</g>
<!-- Node2 -->
<g id="node2" class="node"><title>Node2</title>
<g id="a_node2"><a xlink:href="_p_d_a_q_2_core_2_source_2xml_parser_8cpp.xhtml#ae6aa5a367ab3cc92b47fd92f81add72a" target="_top" xlink:title="CountLinesAndColumns">
<polygon fill="white" stroke="black" points="299,-278.5 299,-297.5 421,-297.5 421,-278.5 299,-278.5"/>
<text text-anchor="middle" x="360" y="-285.5" font-family="Helvetica,sans-Serif" font-size="10.00">CountLinesAndColumns</text>
</a>
</g>
</g>
<!-- Node1&#45;&gt;Node2 -->
<g id="edge1" class="edge"><title>Node1&#45;&gt;Node2</title>
<path fill="none" stroke="midnightblue" d="M126.231,-273.258C178.058,-276.54 249.075,-281.038 298.995,-284.2"/>
<polygon fill="midnightblue" stroke="midnightblue" points="126.335,-269.758 116.134,-272.618 125.893,-276.744 126.335,-269.758"/>
</g>
<!-- Node3 -->
<g id="node3" class="node"><title>Node3</title>
<g id="a_node3"><a xlink:href="struct_x_m_l_node.xhtml#a5e5968e052d58350918cd91e3535624b" target="_top" xlink:title="XMLNode::parseFile">
<polygon fill="white" stroke="black" points="152,-240.5 152,-259.5 258,-259.5 258,-240.5 152,-240.5"/>
<text text-anchor="middle" x="205" y="-247.5" font-family="Helvetica,sans-Serif" font-size="10.00">XMLNode::parseFile</text>
</a>
</g>
</g>
<!-- Node1&#45;&gt;Node3 -->
<g id="edge2" class="edge"><title>Node1&#45;&gt;Node3</title>
<path fill="none" stroke="midnightblue" d="M126.296,-260.182C134.866,-259.059 143.535,-257.923 151.818,-256.838"/>
<polygon fill="midnightblue" stroke="midnightblue" points="125.768,-256.721 116.308,-261.491 126.678,-263.662 125.768,-256.721"/>
</g>
<!-- Node3&#45;&gt;Node2 -->
<g id="edge6" class="edge"><title>Node3&#45;&gt;Node2</title>
<path fill="none" stroke="midnightblue" d="M254.477,-262.04C275.852,-267.349 300.613,-273.499 320.669,-278.48"/>
<polygon fill="midnightblue" stroke="midnightblue" points="255.157,-258.603 244.608,-259.589 253.47,-265.396 255.157,-258.603"/>
</g>
<!-- Node4 -->
<g id="node4" class="node"><title>Node4</title>
<g id="a_node4"><a xlink:href="_p_d_a_q_2_core_2_source_2xml_parser_8cpp.xhtml#af77e3e2685487b9c492b20c36f3b864a" target="_top" xlink:title="_strnicmp">
<polygon fill="white" stroke="black" points="511.5,-278.5 511.5,-297.5 570.5,-297.5 570.5,-278.5 511.5,-278.5"/>
<text text-anchor="middle" x="541" y="-285.5" font-family="Helvetica,sans-Serif" font-size="10.00">_strnicmp</text>
</a>
</g>
</g>
<!-- Node3&#45;&gt;Node4 -->
<g id="edge3" class="edge"><title>Node3&#45;&gt;Node4</title>
<path fill="none" stroke="midnightblue" d="M268.134,-254.051C312.274,-257.249 372.895,-262.292 426,-269 455.063,-272.671 488.056,-278.335 511.042,-282.524"/>
<polygon fill="midnightblue" stroke="midnightblue" points="268.354,-250.558 258.13,-253.337 267.856,-257.54 268.354,-250.558"/>
</g>
<!-- Node7 -->
<g id="node7" class="node"><title>Node7</title>
<g id="a_node7"><a xlink:href="struct_x_m_l_node.xhtml#acc044148e2b9b8264a320b7b6e398158" target="_top" xlink:title="XMLNode::openFileHelper">
<polygon fill="white" stroke="black" points="294.5,-164.5 294.5,-183.5 425.5,-183.5 425.5,-164.5 294.5,-164.5"/>
<text text-anchor="middle" x="360" y="-171.5" font-family="Helvetica,sans-Serif" font-size="10.00">XMLNode::openFileHelper</text>
</a>
</g>
</g>
<!-- Node3&#45;&gt;Node7 -->
<g id="edge7" class="edge"><title>Node3&#45;&gt;Node7</title>
<path fill="none" stroke="midnightblue" d="M234.701,-235.744C265.423,-220.483 313.308,-196.697 339.78,-183.547"/>
<polygon fill="midnightblue" stroke="midnightblue" points="232.776,-232.791 225.378,-240.375 235.891,-239.06 232.776,-232.791"/>
</g>
<!-- Node5 -->
<g id="node5" class="node"><title>Node5</title>
<g id="a_node5"><a xlink:href="_p_d_a_q_2_core_2_source_2xml_parser_8cpp.xhtml#a9a625f17c09a36e3ad532cdf16072609" target="_top" xlink:title="charmemset">
<polygon fill="white" stroke="black" points="671.5,-297.5 671.5,-316.5 742.5,-316.5 742.5,-297.5 671.5,-297.5"/>
<text text-anchor="middle" x="707" y="-304.5" font-family="Helvetica,sans-Serif" font-size="10.00">charmemset</text>
</a>
</g>
</g>
<!-- Node4&#45;&gt;Node5 -->
<g id="edge4" class="edge"><title>Node4&#45;&gt;Node5</title>
<path fill="none" stroke="midnightblue" d="M580.605,-292.473C608.068,-295.654 644.653,-299.893 671.214,-302.97"/>
<polygon fill="midnightblue" stroke="midnightblue" points="580.903,-288.984 570.567,-291.31 580.097,-295.937 580.903,-288.984"/>
</g>
<!-- Node6 -->
<g id="node6" class="node"><title>Node6</title>
<g id="a_node6"><a xlink:href="_p_d_a_q_2_core_2_source_2xml_parser_8cpp.xhtml#ad9a5c911a8e21bb89427d29d33e2797e" target="_top" xlink:title="myIsTextWideChar">
<polygon fill="white" stroke="black" points="656.5,-259.5 656.5,-278.5 757.5,-278.5 757.5,-259.5 656.5,-259.5"/>
<text text-anchor="middle" x="707" y="-266.5" font-family="Helvetica,sans-Serif" font-size="10.00">myIsTextWideChar</text>
</a>
</g>
</g>
<!-- Node4&#45;&gt;Node6 -->
<g id="edge5" class="edge"><title>Node4&#45;&gt;Node6</title>
<path fill="none" stroke="midnightblue" d="M580.784,-283.507C603.346,-280.893 632.018,-277.571 656.231,-274.766"/>
<polygon fill="midnightblue" stroke="midnightblue" points="580.097,-280.063 570.567,-284.69 580.903,-287.016 580.097,-280.063"/>
</g>
<!-- Node7&#45;&gt;Node4 -->
<g id="edge8" class="edge"><title>Node7&#45;&gt;Node4</title>
<path fill="none" stroke="midnightblue" d="M378.708,-190.872C407.01,-217.81 459.532,-267.662 462,-269 477.193,-277.238 495.968,-281.953 511.29,-284.626"/>
<polygon fill="midnightblue" stroke="midnightblue" points="380.761,-187.995 371.106,-183.634 375.934,-193.064 380.761,-187.995"/>
</g>
<!-- Node8 -->
<g id="node8" class="node"><title>Node8</title>
<g id="a_node8"><a xlink:href="class_a_d_c_manager1724.xhtml#a6de2521b9c793edcf14aeaeefeb62787" target="_top" xlink:title="ADCManager1724::Init">
<polygon fill="white" stroke="black" points="483,-240.5 483,-259.5 599,-259.5 599,-240.5 483,-240.5"/>
<text text-anchor="middle" x="541" y="-247.5" font-family="Helvetica,sans-Serif" font-size="10.00">ADCManager1724::Init</text>
</a>
</g>
</g>
<!-- Node7&#45;&gt;Node8 -->
<g id="edge9" class="edge"><title>Node7&#45;&gt;Node8</title>
<path fill="none" stroke="midnightblue" d="M383.736,-189.243C403.637,-201.985 433.711,-219.82 462,-231 471.462,-234.74 481.871,-237.891 491.916,-240.487"/>
<polygon fill="midnightblue" stroke="midnightblue" points="385.384,-186.14 375.094,-183.619 381.566,-192.007 385.384,-186.14"/>
</g>
<!-- Node9 -->
<g id="node9" class="node"><title>Node9</title>
<g id="a_node9"><a xlink:href="class_a_d_c_manager1720.xhtml#aae342ccd8bf1c253c455e195bfd82dfe" target="_top" xlink:title="ADCManager1720::Init">
<polygon fill="white" stroke="black" points="483,-202.5 483,-221.5 599,-221.5 599,-202.5 483,-202.5"/>
<text text-anchor="middle" x="541" y="-209.5" font-family="Helvetica,sans-Serif" font-size="10.00">ADCManager1720::Init</text>
</a>
</g>
</g>
<!-- Node7&#45;&gt;Node9 -->
<g id="edge10" class="edge"><title>Node7&#45;&gt;Node9</title>
<path fill="none" stroke="midnightblue" d="M416.024,-185.681C441.408,-191.07 471.161,-197.386 495.156,-202.48"/>
<polygon fill="midnightblue" stroke="midnightblue" points="416.678,-182.242 406.169,-183.589 415.224,-189.089 416.678,-182.242"/>
</g>
<!-- Node10 -->
<g id="node10" class="node"><title>Node10</title>
<g id="a_node10"><a xlink:href="class_a_d_c_manager1730.xhtml#adb6d45f2024f4a52d366a88d1c7f229d" target="_top" xlink:title="ADCManager1730::Init">
<polygon fill="white" stroke="black" points="483,-164.5 483,-183.5 599,-183.5 599,-164.5 483,-164.5"/>
<text text-anchor="middle" x="541" y="-171.5" font-family="Helvetica,sans-Serif" font-size="10.00">ADCManager1730::Init</text>
</a>
</g>
</g>
<!-- Node7&#45;&gt;Node10 -->
<g id="edge11" class="edge"><title>Node7&#45;&gt;Node10</title>
<path fill="none" stroke="midnightblue" d="M435.85,-174C451.58,-174 467.93,-174 482.887,-174"/>
<polygon fill="midnightblue" stroke="midnightblue" points="435.623,-170.5 425.623,-174 435.623,-177.5 435.623,-170.5"/>
</g>
<!-- Node11 -->
<g id="node11" class="node"><title>Node11</title>
<g id="a_node11"><a xlink:href="class_storage_manager.xhtml#ab16a945d003852d02556daf3610a9aac" target="_top" xlink:title="StorageManager::SaveContainer">
<polygon fill="white" stroke="black" points="462,-126.5 462,-145.5 620,-145.5 620,-126.5 462,-126.5"/>
<text text-anchor="middle" x="541" y="-133.5" font-family="Helvetica,sans-Serif" font-size="10.00">StorageManager::SaveContainer</text>
</a>
</g>
</g>
<!-- Node7&#45;&gt;Node11 -->
<g id="edge12" class="edge"><title>Node7&#45;&gt;Node11</title>
<path fill="none" stroke="midnightblue" d="M416.024,-162.319C441.408,-156.93 471.161,-150.614 495.156,-145.52"/>
<polygon fill="midnightblue" stroke="midnightblue" points="415.224,-158.911 406.169,-164.411 416.678,-165.758 415.224,-158.911"/>
</g>
<!-- Node13 -->
<g id="node13" class="node"><title>Node13</title>
<g id="a_node13"><a xlink:href="class_scope_manager.xhtml#abe246d1b817d85a9cba7af3441a4df04" target="_top" xlink:title="ScopeManager::ShowEvent">
<polygon fill="white" stroke="black" points="472,-88.5 472,-107.5 610,-107.5 610,-88.5 472,-88.5"/>
<text text-anchor="middle" x="541" y="-95.5" font-family="Helvetica,sans-Serif" font-size="10.00">ScopeManager::ShowEvent</text>
</a>
</g>
</g>
<!-- Node7&#45;&gt;Node13 -->
<g id="edge14" class="edge"><title>Node7&#45;&gt;Node13</title>
<path fill="none" stroke="midnightblue" d="M383.736,-158.757C403.637,-146.015 433.711,-128.18 462,-117 471.462,-113.26 481.871,-110.109 491.916,-107.513"/>
<polygon fill="midnightblue" stroke="midnightblue" points="381.566,-155.993 375.094,-164.381 385.384,-161.86 381.566,-155.993"/>
</g>
<!-- Node14 -->
<g id="node14" class="node"><title>Node14</title>
<g id="a_node14"><a xlink:href="class_slowcontrol_manager.xhtml#a36ab5157f5a740b9058517b77d1ce38f" target="_top" xlink:title="SlowcontrolManager\l::ShowStatus">
<polygon fill="white" stroke="black" points="488.5,-39 488.5,-69 593.5,-69 593.5,-39 488.5,-39"/>
<text text-anchor="start" x="496.5" y="-57" font-family="Helvetica,sans-Serif" font-size="10.00">SlowcontrolManager</text>
<text text-anchor="middle" x="541" y="-46" font-family="Helvetica,sans-Serif" font-size="10.00">::ShowStatus</text>
</a>
</g>
</g>
<!-- Node7&#45;&gt;Node14 -->
<g id="edge16" class="edge"><title>Node7&#45;&gt;Node14</title>
<path fill="none" stroke="midnightblue" d="M375.158,-156.59C393.235,-135.425 426.455,-99.9451 462,-79 470.086,-74.2353 479.187,-70.2657 488.242,-66.998"/>
<polygon fill="midnightblue" stroke="midnightblue" points="372.316,-154.533 368.582,-164.448 377.684,-159.025 372.316,-154.533"/>
</g>
<!-- Node15 -->
<g id="node15" class="node"><title>Node15</title>
<g id="a_node15"><a xlink:href="_p_d_a_q_2_core_2_source_2xml_8cpp.xhtml#a8251b051736c5146c1985edc6cb357e6" target="_top" xlink:title="xml_readsettings">
<polygon fill="white" stroke="black" points="495.5,-0.5 495.5,-19.5 586.5,-19.5 586.5,-0.5 495.5,-0.5"/>
<text text-anchor="middle" x="541" y="-7.5" font-family="Helvetica,sans-Serif" font-size="10.00">xml_readsettings</text>
</a>
</g>
</g>
<!-- Node7&#45;&gt;Node15 -->
<g id="edge18" class="edge"><title>Node7&#45;&gt;Node15</title>
<path fill="none" stroke="midnightblue" d="M368.77,-155.081C382.639,-123.765 414.704,-61.4027 462,-29 471.773,-22.3042 483.656,-17.9602 495.169,-15.1444"/>
<polygon fill="midnightblue" stroke="midnightblue" points="365.489,-153.852 364.769,-164.422 371.923,-156.608 365.489,-153.852"/>
</g>
<!-- Node12 -->
<g id="node12" class="node"><title>Node12</title>
<g id="a_node12"><a xlink:href="_multi_d_a_q_8cpp.xhtml#adedb285b02c41bde2158ded9cc9fd7ac" target="_top" xlink:title="main">
<polygon fill="white" stroke="black" points="688,-88.5 688,-107.5 726,-107.5 726,-88.5 688,-88.5"/>
<text text-anchor="middle" x="707" y="-95.5" font-family="Helvetica,sans-Serif" font-size="10.00">main</text>
</a>
</g>
</g>
<!-- Node11&#45;&gt;Node12 -->
<g id="edge13" class="edge"><title>Node11&#45;&gt;Node12</title>
<path fill="none" stroke="midnightblue" d="M593.543,-124.057C625.714,-116.603 665.177,-107.459 687.773,-102.223"/>
<polygon fill="midnightblue" stroke="midnightblue" points="592.336,-120.744 583.384,-126.411 593.916,-127.563 592.336,-120.744"/>
</g>
<!-- Node13&#45;&gt;Node12 -->
<g id="edge15" class="edge"><title>Node13&#45;&gt;Node12</title>
<path fill="none" stroke="midnightblue" d="M620.16,-98C645.477,-98 671.284,-98 687.898,-98"/>
<polygon fill="midnightblue" stroke="midnightblue" points="620.126,-94.5001 610.126,-98 620.126,-101.5 620.126,-94.5001"/>
</g>
<!-- Node14&#45;&gt;Node12 -->
<g id="edge17" class="edge"><title>Node14&#45;&gt;Node12</title>
<path fill="none" stroke="midnightblue" d="M603.865,-70.598C633.783,-78.6246 667.511,-87.6738 687.744,-93.1019"/>
<polygon fill="midnightblue" stroke="midnightblue" points="604.456,-67.1328 593.891,-67.9219 602.642,-73.8937 604.456,-67.1328"/>
</g>
<!-- Node16 -->
<g id="node16" class="node"><title>Node16</title>
<g id="a_node16"><a xlink:href="_z_d_a_q_8cpp.xhtml#a0ddf1224851353fc92bfbff6f499fa97" target="_top" xlink:title="main">
<polygon fill="white" stroke="black" points="688,-0.5 688,-19.5 726,-19.5 726,-0.5 688,-0.5"/>
<text text-anchor="middle" x="707" y="-7.5" font-family="Helvetica,sans-Serif" font-size="10.00">main</text>
</a>
</g>
</g>
<!-- Node15&#45;&gt;Node16 -->
<g id="edge19" class="edge"><title>Node15&#45;&gt;Node16</title>
<path fill="none" stroke="midnightblue" d="M597.216,-10C628.646,-10 665.974,-10 687.724,-10"/>
<polygon fill="midnightblue" stroke="midnightblue" points="596.814,-6.5001 586.814,-10 596.814,-13.5001 596.814,-6.5001"/>
</g>
</g>
</svg>
