<?xml version="1.0" encoding="UTF-8" standalone="no"?>
<!DOCTYPE svg PUBLIC "-//W3C//DTD SVG 1.1//EN"
 "http://www.w3.org/Graphics/SVG/1.1/DTD/svg11.dtd">
<!-- Generated by graphviz version 2.36.0 (20140111.2315)
 -->
<!-- Title: XML Pages: 1 -->
<svg width="287pt" height="140pt"
 viewBox="0.00 0.00 287.00 140.00" xmlns="http://www.w3.org/2000/svg" xmlns:xlink="http://www.w3.org/1999/xlink">
<g id="graph0" class="graph" transform="scale(1 1) rotate(0) translate(4 136)">
<title>XML</title>
<polygon fill="white" stroke="none" points="-4,4 -4,-136 283,-136 283,4 -4,4"/>
<!-- Node1 -->
<g id="node1" class="node"><title>Node1</title>
<polygon fill="#bfbfbf" stroke="black" points="103.5,-0.5 103.5,-19.5 140.5,-19.5 140.5,-0.5 103.5,-0.5"/>
<text text-anchor="middle" x="122" y="-7.5" font-family="Helvetica,sans-Serif" font-size="10.00">XML</text>
</g>
<!-- Node2 -->
<g id="node2" class="node"><title>Node2</title>
<polygon fill="white" stroke="#bfbfbf" points="-0.5,-112.5 -0.5,-131.5 64.5,-131.5 64.5,-112.5 -0.5,-112.5"/>
<text text-anchor="middle" x="32" y="-119.5" font-family="Helvetica,sans-Serif" font-size="10.00">XMLCSTR</text>
</g>
<!-- Node2&#45;&gt;Node1 -->
<g id="edge1" class="edge"><title>Node2&#45;&gt;Node1</title>
<path fill="none" stroke="#9a32cd" stroke-dasharray="5,2" d="M31.4622,-102.205C31.9394,-83.7422 35.4883,-55.8213 51,-38 64.247,-22.7806 87.0204,-16.109 103.201,-13.2041"/>
<polygon fill="#9a32cd" stroke="#9a32cd" points="27.9623,-102.311 31.4825,-112.304 34.9623,-102.297 27.9623,-102.311"/>
<text text-anchor="middle" x="84.5" y="-80" font-family="Helvetica,sans-Serif" font-size="10.00"> lpNewElement</text>
<text text-anchor="middle" x="84.5" y="-69" font-family="Helvetica,sans-Serif" font-size="10.00">lpEndTag</text>
<text text-anchor="middle" x="84.5" y="-58" font-family="Helvetica,sans-Serif" font-size="10.00">lpszText</text>
<text text-anchor="middle" x="84.5" y="-47" font-family="Helvetica,sans-Serif" font-size="10.00">lpXML</text>
</g>
<!-- Node3 -->
<g id="node3" class="node"><title>Node3</title>
<polygon fill="white" stroke="#bfbfbf" points="107.5,-112.5 107.5,-131.5 136.5,-131.5 136.5,-112.5 107.5,-112.5"/>
<text text-anchor="middle" x="122" y="-119.5" font-family="Helvetica,sans-Serif" font-size="10.00">int</text>
</g>
<!-- Node3&#45;&gt;Node1 -->
<g id="edge2" class="edge"><title>Node3&#45;&gt;Node1</title>
<path fill="none" stroke="#9a32cd" stroke-dasharray="5,2" d="M122,-102.348C122,-78.2538 122,-37.3079 122,-19.5914"/>
<polygon fill="#9a32cd" stroke="#9a32cd" points="118.5,-102.368 122,-112.368 125.5,-102.369 118.5,-102.368"/>
<text text-anchor="middle" x="168" y="-85.5" font-family="Helvetica,sans-Serif" font-size="10.00"> nFirst</text>
<text text-anchor="middle" x="168" y="-74.5" font-family="Helvetica,sans-Serif" font-size="10.00">nIndexMissigEndTag</text>
<text text-anchor="middle" x="168" y="-63.5" font-family="Helvetica,sans-Serif" font-size="10.00">nIndex</text>
<text text-anchor="middle" x="168" y="-52.5" font-family="Helvetica,sans-Serif" font-size="10.00">cbNewElement</text>
<text text-anchor="middle" x="168" y="-41.5" font-family="Helvetica,sans-Serif" font-size="10.00">cbEndTag</text>
</g>
<!-- Node4 -->
<g id="node4" class="node"><title>Node4</title>
<polygon fill="white" stroke="#bfbfbf" points="194.5,-112.5 194.5,-131.5 279.5,-131.5 279.5,-112.5 194.5,-112.5"/>
<text text-anchor="middle" x="237" y="-119.5" font-family="Helvetica,sans-Serif" font-size="10.00">enum XMLError</text>
</g>
<!-- Node4&#45;&gt;Node1 -->
<g id="edge3" class="edge"><title>Node4&#45;&gt;Node1</title>
<path fill="none" stroke="#9a32cd" stroke-dasharray="5,2" d="M237.082,-102.166C236.13,-83.4498 231.735,-55.1323 215,-38 195.381,-17.9152 161.782,-12.5449 140.792,-11.2384"/>
<polygon fill="#9a32cd" stroke="#9a32cd" points="233.588,-102.474 237.31,-112.393 240.586,-102.318 233.588,-102.474"/>
<text text-anchor="middle" x="247.5" y="-63.5" font-family="Helvetica,sans-Serif" font-size="10.00"> error</text>
</g>
</g>
</svg>
