<?xml version="1.0" encoding="UTF-8" standalone="no"?>
<!DOCTYPE svg PUBLIC "-//W3C//DTD SVG 1.1//EN"
 "http://www.w3.org/Graphics/SVG/1.1/DTD/svg11.dtd">
<!-- Generated by graphviz version 2.36.0 (20140111.2315)
 -->
<!-- Title: XMLResults Pages: 1 -->
<svg width="139pt" height="106pt"
 viewBox="0.00 0.00 139.00 106.00" xmlns="http://www.w3.org/2000/svg" xmlns:xlink="http://www.w3.org/1999/xlink">
<g id="graph0" class="graph" transform="scale(1 1) rotate(0) translate(4 102)">
<title>XMLResults</title>
<polygon fill="white" stroke="none" points="-4,4 -4,-102 135,-102 135,4 -4,4"/>
<!-- Node1 -->
<g id="node1" class="node"><title>Node1</title>
<polygon fill="#bfbfbf" stroke="black" points="15.5,-0.5 15.5,-19.5 86.5,-19.5 86.5,-0.5 15.5,-0.5"/>
<text text-anchor="middle" x="51" y="-7.5" font-family="Helvetica,sans-Serif" font-size="10.00">XMLResults</text>
</g>
<!-- Node2 -->
<g id="node2" class="node"><title>Node2</title>
<polygon fill="white" stroke="#bfbfbf" points="-0.5,-78.5 -0.5,-97.5 28.5,-97.5 28.5,-78.5 -0.5,-78.5"/>
<text text-anchor="middle" x="14" y="-85.5" font-family="Helvetica,sans-Serif" font-size="10.00">int</text>
</g>
<!-- Node2&#45;&gt;Node1 -->
<g id="edge1" class="edge"><title>Node2&#45;&gt;Node1</title>
<path fill="none" stroke="#9a32cd" stroke-dasharray="5,2" d="M15.2668,-68.1526C16.529,-58.6582 19.035,-47.2336 24,-38 27.8301,-30.8769 34.1417,-24.411 39.6997,-19.5936"/>
<polygon fill="#9a32cd" stroke="#9a32cd" points="11.7778,-67.8704 14.2838,-78.1646 18.7443,-68.5545 11.7778,-67.8704"/>
<text text-anchor="middle" x="45.5" y="-52" font-family="Helvetica,sans-Serif" font-size="10.00"> nColumn</text>
<text text-anchor="middle" x="45.5" y="-41" font-family="Helvetica,sans-Serif" font-size="10.00">nLine</text>
</g>
<!-- Node3 -->
<g id="node3" class="node"><title>Node3</title>
<polygon fill="white" stroke="#bfbfbf" points="46.5,-78.5 46.5,-97.5 131.5,-97.5 131.5,-78.5 46.5,-78.5"/>
<text text-anchor="middle" x="89" y="-85.5" font-family="Helvetica,sans-Serif" font-size="10.00">enum XMLError</text>
</g>
<!-- Node3&#45;&gt;Node1 -->
<g id="edge2" class="edge"><title>Node3&#45;&gt;Node1</title>
<path fill="none" stroke="#9a32cd" stroke-dasharray="5,2" d="M81.3936,-68.7579C77.3606,-59.4365 72.1784,-47.9838 67,-38 63.7888,-31.8089 59.7888,-25.0589 56.5916,-19.8567"/>
<polygon fill="#9a32cd" stroke="#9a32cd" points="78.2665,-70.3486 85.3972,-78.1847 84.7095,-67.6122 78.2665,-70.3486"/>
<text text-anchor="middle" x="88.5" y="-46.5" font-family="Helvetica,sans-Serif" font-size="10.00"> error</text>
</g>
</g>
</svg>
