<?xml version="1.0" encoding="UTF-8" standalone="no"?>
<!DOCTYPE svg PUBLIC "-//W3C//DTD SVG 1.1//EN"
 "http://www.w3.org/Graphics/SVG/1.1/DTD/svg11.dtd">
<!-- Generated by graphviz version 2.36.0 (20140111.2315)
 -->
<!-- Title: NextToken Pages: 1 -->
<svg width="177pt" height="174pt"
 viewBox="0.00 0.00 177.00 174.00" xmlns="http://www.w3.org/2000/svg" xmlns:xlink="http://www.w3.org/1999/xlink">
<g id="graph0" class="graph" transform="scale(1 1) rotate(0) translate(4 170)">
<title>NextToken</title>
<polygon fill="white" stroke="none" points="-4,4 -4,-170 173,-170 173,4 -4,4"/>
<!-- Node1 -->
<g id="node1" class="node"><title>Node1</title>
<polygon fill="#bfbfbf" stroke="black" points="13.5,-0.5 13.5,-19.5 78.5,-19.5 78.5,-0.5 13.5,-0.5"/>
<text text-anchor="middle" x="46" y="-7.5" font-family="Helvetica,sans-Serif" font-size="10.00">NextToken</text>
</g>
<!-- Node2 -->
<g id="node2" class="node"><title>Node2</title>
<polygon fill="white" stroke="#bfbfbf" points="-0.5,-146.5 -0.5,-165.5 64.5,-165.5 64.5,-146.5 -0.5,-146.5"/>
<text text-anchor="middle" x="32" y="-153.5" font-family="Helvetica,sans-Serif" font-size="10.00">XMLCSTR</text>
</g>
<!-- Node2&#45;&gt;Node1 -->
<g id="edge1" class="edge"><title>Node2&#45;&gt;Node1</title>
<path fill="none" stroke="#9a32cd" stroke-dasharray="5,2" d="M27.7692,-136.403C24.384,-118.697 20.8335,-91.3612 25,-68 28.1849,-50.1425 36.5698,-30.5503 41.7295,-19.6156"/>
<polygon fill="#9a32cd" stroke="#9a32cd" points="24.3629,-137.214 29.8361,-146.285 31.2147,-135.781 24.3629,-137.214"/>
<text text-anchor="middle" x="36" y="-75.5" font-family="Helvetica,sans-Serif" font-size="10.00"> pStr</text>
</g>
<!-- Node3 -->
<g id="node3" class="node"><title>Node3</title>
<g id="a_node3"><a xlink:href="struct_a_l_l_x_m_l_clear_tag.xhtml" target="_top" xlink:title="ALLXMLClearTag">
<polygon fill="white" stroke="black" points="56,-68.5 56,-87.5 150,-87.5 150,-68.5 56,-68.5"/>
<text text-anchor="middle" x="103" y="-75.5" font-family="Helvetica,sans-Serif" font-size="10.00">ALLXMLClearTag</text>
</a>
</g>
</g>
<!-- Node2&#45;&gt;Node3 -->
<g id="edge3" class="edge"><title>Node2&#45;&gt;Node3</title>
<path fill="none" stroke="#9a32cd" stroke-dasharray="5,2" d="M38.8257,-136.776C43.2018,-126.843 49.6369,-114.815 58,-106 65.2741,-98.333 75.1955,-92.0705 83.8716,-87.5139"/>
<polygon fill="#9a32cd" stroke="#9a32cd" points="35.5401,-135.565 35.0162,-146.147 42.0247,-138.201 35.5401,-135.565"/>
<text text-anchor="middle" x="81.5" y="-120" font-family="Helvetica,sans-Serif" font-size="10.00"> lpszClose</text>
<text text-anchor="middle" x="81.5" y="-109" font-family="Helvetica,sans-Serif" font-size="10.00">lpszOpen</text>
</g>
<!-- Node3&#45;&gt;Node1 -->
<g id="edge2" class="edge"><title>Node3&#45;&gt;Node1</title>
<path fill="none" stroke="#9a32cd" stroke-dasharray="5,2" d="M88.9055,-60.68C77.7618,-47.7768 62.6315,-30.2575 53.6355,-19.8411"/>
<polygon fill="#9a32cd" stroke="#9a32cd" points="86.3631,-63.0911 95.5482,-68.3717 91.6609,-58.5157 86.3631,-63.0911"/>
<text text-anchor="middle" x="90" y="-41.5" font-family="Helvetica,sans-Serif" font-size="10.00"> pClr</text>
</g>
<!-- Node4 -->
<g id="node4" class="node"><title>Node4</title>
<polygon fill="white" stroke="#bfbfbf" points="104.5,-146.5 104.5,-165.5 133.5,-165.5 133.5,-146.5 104.5,-146.5"/>
<text text-anchor="middle" x="119" y="-153.5" font-family="Helvetica,sans-Serif" font-size="10.00">int</text>
</g>
<!-- Node4&#45;&gt;Node3 -->
<g id="edge4" class="edge"><title>Node4&#45;&gt;Node3</title>
<path fill="none" stroke="#9a32cd" stroke-dasharray="5,2" d="M115.047,-136.224C111.778,-120.697 107.286,-99.3582 104.814,-87.6165"/>
<polygon fill="#9a32cd" stroke="#9a32cd" points="111.679,-137.217 117.165,-146.282 118.529,-135.775 111.679,-137.217"/>
<text text-anchor="middle" x="140.5" y="-114.5" font-family="Helvetica,sans-Serif" font-size="10.00"> openTagLen</text>
</g>
</g>
</svg>
