<?xml version="1.0" encoding="UTF-8" standalone="no"?>
<!DOCTYPE svg PUBLIC "-//W3C//DTD SVG 1.1//EN"
 "http://www.w3.org/Graphics/SVG/1.1/DTD/svg11.dtd">
<!-- Generated by graphviz version 2.36.0 (20140111.2315)
 -->
<!-- Title: XMLNode::getChildNodeWithAttribute Pages: 1 -->
<svg width="406pt" height="180pt"
 viewBox="0.00 0.00 406.00 180.00" xmlns="http://www.w3.org/2000/svg" xmlns:xlink="http://www.w3.org/1999/xlink">
<g id="graph0" class="graph" transform="scale(1 1) rotate(0) translate(4 176)">
<title>XMLNode::getChildNodeWithAttribute</title>
<polygon fill="white" stroke="none" points="-4,4 -4,-176 402,-176 402,4 -4,4"/>
<!-- Node1 -->
<g id="node1" class="node"><title>Node1</title>
<polygon fill="#bfbfbf" stroke="black" points="0,-71 0,-101 146,-101 146,-71 0,-71"/>
<text text-anchor="start" x="8" y="-89" font-family="Helvetica,sans-Serif" font-size="10.00">XMLNode::getChildNodeWith</text>
<text text-anchor="middle" x="73" y="-78" font-family="Helvetica,sans-Serif" font-size="10.00">Attribute</text>
</g>
<!-- Node2 -->
<g id="node2" class="node"><title>Node2</title>
<g id="a_node2"><a xlink:href="struct_x_m_l_node.xhtml#aa07572a057ce7ffc8843e468d952f490" target="_top" xlink:title="XMLNode::getAttribute">
<polygon fill="white" stroke="black" points="187,-152.5 187,-171.5 303,-171.5 303,-152.5 187,-152.5"/>
<text text-anchor="middle" x="245" y="-159.5" font-family="Helvetica,sans-Serif" font-size="10.00">XMLNode::getAttribute</text>
</a>
</g>
</g>
<!-- Node1&#45;&gt;Node2 -->
<g id="edge1" class="edge"><title>Node1&#45;&gt;Node2</title>
<path fill="none" stroke="midnightblue" d="M99.5268,-101.232C121.005,-113.615 152.8,-130.946 182,-143 187.467,-145.257 193.3,-147.387 199.12,-149.348"/>
<polygon fill="midnightblue" stroke="midnightblue" points="198.243,-152.743 208.835,-152.481 200.392,-146.081 198.243,-152.743"/>
</g>
<!-- Node3 -->
<g id="node3" class="node"><title>Node3</title>
<g id="a_node3"><a xlink:href="struct_x_m_l_node.xhtml#a77a21438b6d48a52cf8a1270f82f4475" target="_top" xlink:title="XMLNode::getChildNode">
<polygon fill="white" stroke="black" points="182.5,-114.5 182.5,-133.5 307.5,-133.5 307.5,-114.5 182.5,-114.5"/>
<text text-anchor="middle" x="245" y="-121.5" font-family="Helvetica,sans-Serif" font-size="10.00">XMLNode::getChildNode</text>
</a>
</g>
</g>
<!-- Node1&#45;&gt;Node3 -->
<g id="edge2" class="edge"><title>Node1&#45;&gt;Node3</title>
<path fill="none" stroke="midnightblue" d="M141.189,-101.019C157.785,-104.728 175.331,-108.65 191.137,-112.184"/>
<polygon fill="midnightblue" stroke="midnightblue" points="190.723,-115.677 201.246,-114.443 192.25,-108.846 190.723,-115.677"/>
</g>
<!-- Node4 -->
<g id="node4" class="node"><title>Node4</title>
<g id="a_node4"><a xlink:href="struct_x_m_l_node.xhtml#a8059888e8dd5d9caf04f765059c1b934" target="_top" xlink:title="XMLNode::isAttributeSet">
<polygon fill="white" stroke="black" points="182.5,-76.5 182.5,-95.5 307.5,-95.5 307.5,-76.5 182.5,-76.5"/>
<text text-anchor="middle" x="245" y="-83.5" font-family="Helvetica,sans-Serif" font-size="10.00">XMLNode::isAttributeSet</text>
</a>
</g>
</g>
<!-- Node1&#45;&gt;Node4 -->
<g id="edge3" class="edge"><title>Node1&#45;&gt;Node4</title>
<path fill="none" stroke="midnightblue" d="M146.095,-86C154.746,-86 163.579,-86 172.226,-86"/>
<polygon fill="midnightblue" stroke="midnightblue" points="172.267,-89.5001 182.267,-86 172.267,-82.5001 172.267,-89.5001"/>
</g>
<!-- Node5 -->
<g id="node5" class="node"><title>Node5</title>
<g id="a_node5"><a xlink:href="_c_d_a_q_2_plugins_2_source_2xml_parser_8cpp.xhtml#a2e64ea95685df2d289c31a50419b532d" target="_top" xlink:title="xstricmp">
<polygon fill="white" stroke="black" points="344,-57.5 344,-76.5 398,-76.5 398,-57.5 344,-57.5"/>
<text text-anchor="middle" x="371" y="-64.5" font-family="Helvetica,sans-Serif" font-size="10.00">xstricmp</text>
</a>
</g>
</g>
<!-- Node1&#45;&gt;Node5 -->
<g id="edge6" class="edge"><title>Node1&#45;&gt;Node5</title>
<path fill="none" stroke="midnightblue" d="M146.097,-71.526C158.043,-69.6437 170.336,-68.0182 182,-67 234.606,-62.4079 295.808,-63.6201 333.73,-65.1342"/>
<polygon fill="midnightblue" stroke="midnightblue" points="333.641,-68.6335 343.782,-65.5647 333.941,-61.64 333.641,-68.6335"/>
</g>
<!-- Node6 -->
<g id="node6" class="node"><title>Node6</title>
<g id="a_node6"><a xlink:href="struct_x_m_l_node.xhtml#a764ce0ff117af3e30ab0959114d36f9c" target="_top" xlink:title="XMLNode::isEmpty">
<polygon fill="white" stroke="black" points="194,-0.5 194,-19.5 296,-19.5 296,-0.5 194,-0.5"/>
<text text-anchor="middle" x="245" y="-7.5" font-family="Helvetica,sans-Serif" font-size="10.00">XMLNode::isEmpty</text>
</a>
</g>
</g>
<!-- Node1&#45;&gt;Node6 -->
<g id="edge5" class="edge"><title>Node1&#45;&gt;Node6</title>
<path fill="none" stroke="midnightblue" d="M103.963,-70.7829C125.475,-60.0527 155.269,-45.5872 182,-34 190.464,-30.3312 199.686,-26.6139 208.368,-23.2361"/>
<polygon fill="midnightblue" stroke="midnightblue" points="209.79,-26.4392 217.871,-19.5873 207.281,-19.9043 209.79,-26.4392"/>
</g>
<!-- Node4&#45;&gt;Node5 -->
<g id="edge4" class="edge"><title>Node4&#45;&gt;Node5</title>
<path fill="none" stroke="midnightblue" d="M307.637,-76.5557C316.612,-75.1805 325.597,-73.8037 333.84,-72.5407"/>
<polygon fill="midnightblue" stroke="midnightblue" points="334.473,-75.9847 343.827,-71.0104 333.412,-69.0654 334.473,-75.9847"/>
</g>
</g>
</svg>
