<?xml version="1.0" encoding="UTF-8" standalone="no"?>
<!DOCTYPE svg PUBLIC "-//W3C//DTD SVG 1.1//EN"
 "http://www.w3.org/Graphics/SVG/1.1/DTD/svg11.dtd">
<!-- Generated by graphviz version 2.36.0 (20140111.2315)
 -->
<!-- Title: XMLNodeContents Pages: 1 -->
<svg width="429pt" height="254pt"
 viewBox="0.00 0.00 429.33 254.00" xmlns="http://www.w3.org/2000/svg" xmlns:xlink="http://www.w3.org/1999/xlink">
<g id="graph0" class="graph" transform="scale(1 1) rotate(0) translate(4 250)">
<title>XMLNodeContents</title>
<polygon fill="white" stroke="none" points="-4,4 -4,-250 425.33,-250 425.33,4 -4,4"/>
<!-- Node1 -->
<g id="node1" class="node"><title>Node1</title>
<polygon fill="#bfbfbf" stroke="black" points="47.33,-0.5 47.33,-19.5 147.33,-19.5 147.33,-0.5 47.33,-0.5"/>
<text text-anchor="middle" x="97.33" y="-7.5" font-family="Helvetica,sans-Serif" font-size="10.00">XMLNodeContents</text>
</g>
<!-- Node2 -->
<g id="node2" class="node"><title>Node2</title>
<polygon fill="white" stroke="#bfbfbf" points="16.83,-226.5 16.83,-245.5 81.83,-245.5 81.83,-226.5 16.83,-226.5"/>
<text text-anchor="middle" x="49.33" y="-233.5" font-family="Helvetica,sans-Serif" font-size="10.00">XMLCSTR</text>
</g>
<!-- Node2&#45;&gt;Node1 -->
<g id="edge1" class="edge"><title>Node2&#45;&gt;Node1</title>
<path fill="none" stroke="#9a32cd" stroke-dasharray="5,2" d="M35.9183,-218.123C24.729,-202.89 9.63219,-179.348 3.33002,-156 -2.48998,-134.439 1.64994,-127.311 8.33002,-106 18.3781,-73.9449 17.4059,-61.5824 41.33,-38 49.5548,-29.8927 60.6872,-23.8458 70.8599,-19.5532"/>
<polygon fill="#9a32cd" stroke="#9a32cd" points="33.4232,-220.624 42.2667,-226.458 38.992,-216.382 33.4232,-220.624"/>
<text text-anchor="middle" x="18.33" y="-109.5" font-family="Helvetica,sans-Serif" font-size="10.00"> text</text>
</g>
<!-- Node4 -->
<g id="node4" class="node"><title>Node4</title>
<g id="a_node4"><a xlink:href="struct_x_m_l_attribute.xhtml" target="_top" xlink:title="XMLAttribute">
<polygon fill="white" stroke="black" points="12.33,-136.5 12.33,-155.5 86.33,-155.5 86.33,-136.5 12.33,-136.5"/>
<text text-anchor="middle" x="49.33" y="-143.5" font-family="Helvetica,sans-Serif" font-size="10.00">XMLAttribute</text>
</a>
</g>
</g>
<!-- Node2&#45;&gt;Node4 -->
<g id="edge5" class="edge"><title>Node2&#45;&gt;Node4</title>
<path fill="none" stroke="#9a32cd" stroke-dasharray="5,2" d="M49.33,-215.978C49.33,-197.31 49.33,-169.67 49.33,-155.724"/>
<polygon fill="#9a32cd" stroke="#9a32cd" points="45.8301,-216.24 49.33,-226.241 52.8301,-216.241 45.8301,-216.24"/>
<text text-anchor="middle" x="73.33" y="-194" font-family="Helvetica,sans-Serif" font-size="10.00"> lpszName</text>
<text text-anchor="middle" x="73.33" y="-183" font-family="Helvetica,sans-Serif" font-size="10.00">lpszValue</text>
</g>
<!-- Node5 -->
<g id="node5" class="node"><title>Node5</title>
<g id="a_node5"><a xlink:href="struct_x_m_l_clear.xhtml" target="_top" xlink:title="XMLClear">
<polygon fill="white" stroke="black" points="137.33,-136.5 137.33,-155.5 197.33,-155.5 197.33,-136.5 137.33,-136.5"/>
<text text-anchor="middle" x="167.33" y="-143.5" font-family="Helvetica,sans-Serif" font-size="10.00">XMLClear</text>
</a>
</g>
</g>
<!-- Node2&#45;&gt;Node5 -->
<g id="edge7" class="edge"><title>Node2&#45;&gt;Node5</title>
<path fill="none" stroke="#9a32cd" stroke-dasharray="5,2" d="M77.9996,-221.85C85.8146,-217.807 94.111,-213.072 101.33,-208 124.31,-191.854 147.604,-168.256 159.409,-155.667"/>
<polygon fill="#9a32cd" stroke="#9a32cd" points="76.2086,-218.832 68.8104,-226.416 79.3233,-225.101 76.2086,-218.832"/>
<text text-anchor="middle" x="171.83" y="-199.5" font-family="Helvetica,sans-Serif" font-size="10.00"> lpszOpenTag</text>
<text text-anchor="middle" x="171.83" y="-188.5" font-family="Helvetica,sans-Serif" font-size="10.00">lpszCloseTag</text>
<text text-anchor="middle" x="171.83" y="-177.5" font-family="Helvetica,sans-Serif" font-size="10.00">lpszValue</text>
</g>
<!-- Node3 -->
<g id="node3" class="node"><title>Node3</title>
<g id="a_node3"><a xlink:href="struct_x_m_l_node.xhtml" target="_top" xlink:title="XMLNode">
<polygon fill="white" stroke="black" points="67.33,-68.5 67.33,-87.5 127.33,-87.5 127.33,-68.5 67.33,-68.5"/>
<text text-anchor="middle" x="97.33" y="-75.5" font-family="Helvetica,sans-Serif" font-size="10.00">XMLNode</text>
</a>
</g>
</g>
<!-- Node3&#45;&gt;Node1 -->
<g id="edge2" class="edge"><title>Node3&#45;&gt;Node1</title>
<path fill="none" stroke="#9a32cd" stroke-dasharray="5,2" d="M97.33,-58.0413C97.33,-45.4724 97.33,-29.5631 97.33,-19.8411"/>
<polygon fill="#9a32cd" stroke="#9a32cd" points="93.8301,-58.3716 97.33,-68.3717 100.83,-58.3717 93.8301,-58.3716"/>
<text text-anchor="middle" x="109.33" y="-41.5" font-family="Helvetica,sans-Serif" font-size="10.00"> child</text>
</g>
<!-- Node3&#45;&gt;Node3 -->
<g id="edge3" class="edge"><title>Node3&#45;&gt;Node3</title>
<path fill="none" stroke="#9a32cd" stroke-dasharray="5,2" d="M137.673,-83.2246C141.738,-82.1861 144.33,-80.4446 144.33,-78 144.33,-73.8828 136.979,-71.7599 127.617,-71.6312"/>
<polygon fill="#9a32cd" stroke="#9a32cd" points="137.157,-79.7606 127.617,-84.3688 137.949,-86.7157 137.157,-79.7606"/>
<text text-anchor="middle" x="181.33" y="-75.5" font-family="Helvetica,sans-Serif" font-size="10.00"> emptyXMLNode</text>
</g>
<!-- Node4&#45;&gt;Node1 -->
<g id="edge9" class="edge"><title>Node4&#45;&gt;Node1</title>
<path fill="none" stroke="#9a32cd" stroke-dasharray="5,2" d="M39.4319,-126.76C32.1256,-110.711 24.8051,-87.0083 33.33,-68 43.1937,-46.0066 66.2026,-29.0229 81.7698,-19.5157"/>
<polygon fill="#9a32cd" stroke="#9a32cd" points="36.4775,-128.679 44.0643,-136.075 42.7452,-125.562 36.4775,-128.679"/>
<text text-anchor="middle" x="45.83" y="-75.5" font-family="Helvetica,sans-Serif" font-size="10.00"> attrib</text>
</g>
<!-- Node4&#45;&gt;Node3 -->
<g id="edge4" class="edge"><title>Node4&#45;&gt;Node3</title>
<path fill="none" stroke="#9a32cd" stroke-dasharray="5,2" d="M50.3005,-125.846C51.3749,-119.128 53.4395,-111.815 57.33,-106 62.5484,-98.2009 70.8569,-92.0581 78.5529,-87.6151"/>
<polygon fill="#9a32cd" stroke="#9a32cd" points="46.7758,-125.926 49.2796,-136.22 53.7422,-126.611 46.7758,-125.926"/>
<text text-anchor="middle" x="101.33" y="-109.5" font-family="Helvetica,sans-Serif" font-size="10.00"> emptyXMLAttribute</text>
</g>
<!-- Node5&#45;&gt;Node1 -->
<g id="edge8" class="edge"><title>Node5&#45;&gt;Node1</title>
<path fill="none" stroke="#9a32cd" stroke-dasharray="5,2" d="M207.221,-137.154C217.415,-133.153 227.212,-127.113 233.33,-118 239.924,-108.178 242.029,-86.185 228.33,-68 208.482,-41.6517 173.899,-27.2959 145.248,-19.5834"/>
<polygon fill="#9a32cd" stroke="#9a32cd" points="205.823,-133.93 197.433,-140.4 208.026,-140.575 205.823,-133.93"/>
<text text-anchor="middle" x="248.83" y="-75.5" font-family="Helvetica,sans-Serif" font-size="10.00"> clear</text>
</g>
<!-- Node5&#45;&gt;Node3 -->
<g id="edge6" class="edge"><title>Node5&#45;&gt;Node3</title>
<path fill="none" stroke="#9a32cd" stroke-dasharray="5,2" d="M159.679,-126.817C156.069,-119.728 151.243,-111.906 145.33,-106 137.618,-98.2974 127.256,-92.1007 118.133,-87.5962"/>
<polygon fill="#9a32cd" stroke="#9a32cd" points="156.717,-128.752 164.082,-136.368 163.074,-125.822 156.717,-128.752"/>
<text text-anchor="middle" x="192.33" y="-109.5" font-family="Helvetica,sans-Serif" font-size="10.00"> emptyXMLClear</text>
</g>
<!-- Node6 -->
<g id="node6" class="node"><title>Node6</title>
<polygon fill="white" stroke="#bfbfbf" points="299.33,-68.5 299.33,-87.5 421.33,-87.5 421.33,-68.5 299.33,-68.5"/>
<text text-anchor="middle" x="360.33" y="-75.5" font-family="Helvetica,sans-Serif" font-size="10.00">enum XMLElementType</text>
</g>
<!-- Node6&#45;&gt;Node1 -->
<g id="edge10" class="edge"><title>Node6&#45;&gt;Node1</title>
<path fill="none" stroke="#9a32cd" stroke-dasharray="5,2" d="M334.8,-63.8592C317.126,-55.2852 292.826,-44.5142 270.33,-38 229.89,-26.2896 182.57,-19.3473 147.652,-15.4416"/>
<polygon fill="#9a32cd" stroke="#9a32cd" points="333.368,-67.0558 343.883,-68.3554 336.474,-60.7823 333.368,-67.0558"/>
<text text-anchor="middle" x="316.33" y="-41.5" font-family="Helvetica,sans-Serif" font-size="10.00"> etype</text>
</g>
</g>
</svg>
