<?xml version="1.0" encoding="UTF-8" standalone="no"?>
<!DOCTYPE svg PUBLIC "-//W3C//DTD SVG 1.1//EN"
 "http://www.w3.org/Graphics/SVG/1.1/DTD/svg11.dtd">
<!-- Generated by graphviz version 2.36.0 (20140111.2315)
 -->
<!-- Title: XMLNode::updateText_WOSD Pages: 1 -->
<svg width="456pt" height="85pt"
 viewBox="0.00 0.00 456.00 85.00" xmlns="http://www.w3.org/2000/svg" xmlns:xlink="http://www.w3.org/1999/xlink">
<g id="graph0" class="graph" transform="scale(1 1) rotate(0) translate(4 81)">
<title>XMLNode::updateText_WOSD</title>
<polygon fill="white" stroke="none" points="-4,4 -4,-81 452,-81 452,4 -4,4"/>
<!-- Node1 -->
<g id="node1" class="node"><title>Node1</title>
<polygon fill="#bfbfbf" stroke="black" points="0,-38.5 0,-57.5 152,-57.5 152,-38.5 0,-38.5"/>
<text text-anchor="middle" x="76" y="-45.5" font-family="Helvetica,sans-Serif" font-size="10.00">XMLNode::updateText_WOSD</text>
</g>
<!-- Node2 -->
<g id="node2" class="node"><title>Node2</title>
<g id="a_node2"><a xlink:href="_p_d_a_q_2_core_2_source_2xml_parser_8cpp.xhtml#a9a625f17c09a36e3ad532cdf16072609" target="_top" xlink:title="charmemset">
<polygon fill="white" stroke="black" points="376.5,-57.5 376.5,-76.5 447.5,-76.5 447.5,-57.5 376.5,-57.5"/>
<text text-anchor="middle" x="412" y="-64.5" font-family="Helvetica,sans-Serif" font-size="10.00">charmemset</text>
</a>
</g>
</g>
<!-- Node1&#45;&gt;Node2 -->
<g id="edge1" class="edge"><title>Node1&#45;&gt;Node2</title>
<path fill="none" stroke="midnightblue" d="M132.307,-59.3645C150.016,-62.4928 169.761,-65.4503 188,-67 254.351,-72.6377 332.209,-70.6997 376.159,-68.821"/>
<polygon fill="midnightblue" stroke="midnightblue" points="132.607,-55.8617 122.141,-57.5122 131.352,-62.7483 132.607,-55.8617"/>
</g>
<!-- Node3 -->
<g id="node3" class="node"><title>Node3</title>
<g id="a_node3"><a xlink:href="struct_x_m_l_node.xhtml#aad04ffd86ca67253bbc81f941608f8d2" target="_top" xlink:title="XMLNode::updateText">
<polygon fill="white" stroke="black" points="206.5,-38.5 206.5,-57.5 321.5,-57.5 321.5,-38.5 206.5,-38.5"/>
<text text-anchor="middle" x="264" y="-45.5" font-family="Helvetica,sans-Serif" font-size="10.00">XMLNode::updateText</text>
</a>
</g>
</g>
<!-- Node1&#45;&gt;Node3 -->
<g id="edge2" class="edge"><title>Node1&#45;&gt;Node3</title>
<path fill="none" stroke="midnightblue" d="M162.406,-48C177.356,-48 192.57,-48 206.488,-48"/>
<polygon fill="midnightblue" stroke="midnightblue" points="162.117,-44.5001 152.117,-48 162.117,-51.5001 162.117,-44.5001"/>
</g>
<!-- Node4 -->
<g id="node4" class="node"><title>Node4</title>
<g id="a_node4"><a xlink:href="struct_x_m_l_node.xhtml#ae2c448a74bf74bcd502d4ba27c63eabc" target="_top" xlink:title="XMLNode::updateText_WOSD">
<polygon fill="white" stroke="black" points="188,-0.5 188,-19.5 340,-19.5 340,-0.5 188,-0.5"/>
<text text-anchor="middle" x="264" y="-7.5" font-family="Helvetica,sans-Serif" font-size="10.00">XMLNode::updateText_WOSD</text>
</a>
</g>
</g>
<!-- Node1&#45;&gt;Node4 -->
<g id="edge4" class="edge"><title>Node1&#45;&gt;Node4</title>
<path fill="none" stroke="midnightblue" d="M133.825,-36.3905C160.279,-30.986 191.358,-24.6365 216.402,-19.5201"/>
<polygon fill="midnightblue" stroke="midnightblue" points="133.033,-32.9801 123.936,-38.411 134.434,-39.8384 133.033,-32.9801"/>
</g>
<!-- Node3&#45;&gt;Node2 -->
<g id="edge3" class="edge"><title>Node3&#45;&gt;Node2</title>
<path fill="none" stroke="midnightblue" d="M331.903,-56.7066C347.302,-58.7105 363.065,-60.7619 376.426,-62.5007"/>
<polygon fill="midnightblue" stroke="midnightblue" points="332.234,-53.2201 321.865,-55.4003 331.33,-60.1616 332.234,-53.2201"/>
</g>
</g>
</svg>
