<?xml version="1.0" encoding="UTF-8" standalone="no"?>
<!DOCTYPE svg PUBLIC "-//W3C//DTD SVG 1.1//EN"
 "http://www.w3.org/Graphics/SVG/1.1/DTD/svg11.dtd">
<!-- Generated by graphviz version 2.36.0 (20140111.2315)
 -->
<!-- Title: XMLNode::isAttributeSet Pages: 1 -->
<svg width="424pt" height="55pt"
 viewBox="0.00 0.00 424.00 55.00" xmlns="http://www.w3.org/2000/svg" xmlns:xlink="http://www.w3.org/1999/xlink">
<g id="graph0" class="graph" transform="scale(1 1) rotate(0) translate(4 51)">
<title>XMLNode::isAttributeSet</title>
<polygon fill="white" stroke="none" points="-4,4 -4,-51 420,-51 420,4 -4,4"/>
<!-- Node1 -->
<g id="node1" class="node"><title>Node1</title>
<polygon fill="#bfbfbf" stroke="black" points="0.5,-27.5 0.5,-46.5 125.5,-46.5 125.5,-27.5 0.5,-27.5"/>
<text text-anchor="middle" x="63" y="-34.5" font-family="Helvetica,sans-Serif" font-size="10.00">XMLNode::isAttributeSet</text>
</g>
<!-- Node2 -->
<g id="node2" class="node"><title>Node2</title>
<g id="a_node2"><a xlink:href="_p_d_a_q_2_core_2_source_2xml_parser_8cpp.xhtml#a9a625f17c09a36e3ad532cdf16072609" target="_top" xlink:title="charmemset">
<polygon fill="white" stroke="black" points="344.5,-27.5 344.5,-46.5 415.5,-46.5 415.5,-27.5 344.5,-27.5"/>
<text text-anchor="middle" x="380" y="-34.5" font-family="Helvetica,sans-Serif" font-size="10.00">charmemset</text>
</a>
</g>
</g>
<!-- Node1&#45;&gt;Node2 -->
<g id="edge1" class="edge"><title>Node1&#45;&gt;Node2</title>
<path fill="none" stroke="midnightblue" d="M135.933,-38.636C144.714,-38.7861 153.561,-38.9139 162,-39 226.886,-39.662 243.118,-39.9137 308,-39 319.837,-38.8333 332.78,-38.5104 344.336,-38.1719"/>
<polygon fill="midnightblue" stroke="midnightblue" points="135.746,-35.1321 125.684,-38.4507 135.62,-42.131 135.746,-35.1321"/>
</g>
<!-- Node3 -->
<g id="node3" class="node"><title>Node3</title>
<g id="a_node3"><a xlink:href="struct_x_m_l_node.xhtml#a5d2775ee0704a2c028d76d267db7960a" target="_top" xlink:title="XMLNode::getChildNodeWith\lAttribute">
<polygon fill="white" stroke="black" points="162,-0 162,-30 308,-30 308,-0 162,-0"/>
<text text-anchor="start" x="170" y="-18" font-family="Helvetica,sans-Serif" font-size="10.00">XMLNode::getChildNodeWith</text>
<text text-anchor="middle" x="235" y="-7" font-family="Helvetica,sans-Serif" font-size="10.00">Attribute</text>
</a>
</g>
</g>
<!-- Node1&#45;&gt;Node3 -->
<g id="edge2" class="edge"><title>Node1&#45;&gt;Node3</title>
<path fill="none" stroke="midnightblue" d="M135.835,-27.7037C144.428,-26.5917 153.204,-25.4559 161.802,-24.3433"/>
<polygon fill="midnightblue" stroke="midnightblue" points="135.323,-24.2407 125.855,-28.9953 136.221,-31.1828 135.323,-24.2407"/>
</g>
<!-- Node3&#45;&gt;Node2 -->
<g id="edge3" class="edge"><title>Node3&#45;&gt;Node2</title>
<path fill="none" stroke="midnightblue" d="M318.348,-27.6689C327.512,-29.0788 336.433,-30.4512 344.489,-31.6906"/>
<polygon fill="midnightblue" stroke="midnightblue" points="318.754,-24.1903 308.338,-26.1289 317.689,-31.1089 318.754,-24.1903"/>
</g>
</g>
</svg>
