<?xml version="1.0" encoding="UTF-8" standalone="no"?>
<!DOCTYPE svg PUBLIC "-//W3C//DTD SVG 1.1//EN"
 "http://www.w3.org/Graphics/SVG/1.1/DTD/svg11.dtd">
<!-- Generated by graphviz version 2.36.0 (20140111.2315)
 -->
<!-- Title: var_graphics Pages: 1 -->
<svg width="98pt" height="206pt"
 viewBox="0.00 0.00 98.00 206.00" xmlns="http://www.w3.org/2000/svg" xmlns:xlink="http://www.w3.org/1999/xlink">
<g id="graph0" class="graph" transform="scale(1 1) rotate(0) translate(4 202)">
<title>var_graphics</title>
<polygon fill="white" stroke="none" points="-4,4 -4,-202 94,-202 94,4 -4,4"/>
<!-- Node1 -->
<g id="node1" class="node"><title>Node1</title>
<polygon fill="#bfbfbf" stroke="black" points="0,-0.5 0,-19.5 72,-19.5 72,-0.5 0,-0.5"/>
<text text-anchor="middle" x="36" y="-7.5" font-family="Helvetica,sans-Serif" font-size="10.00">var_graphics</text>
</g>
<!-- Node2 -->
<g id="node2" class="node"><title>Node2</title>
<polygon fill="white" stroke="#bfbfbf" points="21.5,-178.5 21.5,-197.5 50.5,-197.5 50.5,-178.5 21.5,-178.5"/>
<text text-anchor="middle" x="36" y="-185.5" font-family="Helvetica,sans-Serif" font-size="10.00">int</text>
</g>
<!-- Node2&#45;&gt;Node1 -->
<g id="edge1" class="edge"><title>Node2&#45;&gt;Node1</title>
<path fill="none" stroke="#9a32cd" stroke-dasharray="5,2" d="M36,-167.842C36,-129.973 36,-46.8574 36,-19.7429"/>
<polygon fill="#9a32cd" stroke="#9a32cd" points="32.5001,-168.03 36,-178.03 39.5001,-168.03 32.5001,-168.03"/>
<text text-anchor="middle" x="63" y="-151.5" font-family="Helvetica,sans-Serif" font-size="10.00"> channel</text>
<text text-anchor="middle" x="63" y="-140.5" font-family="Helvetica,sans-Serif" font-size="10.00">pmtNb</text>
<text text-anchor="middle" x="63" y="-129.5" font-family="Helvetica,sans-Serif" font-size="10.00">x_low</text>
<text text-anchor="middle" x="63" y="-118.5" font-family="Helvetica,sans-Serif" font-size="10.00">y_low</text>
<text text-anchor="middle" x="63" y="-107.5" font-family="Helvetica,sans-Serif" font-size="10.00">y_high</text>
<text text-anchor="middle" x="63" y="-96.5" font-family="Helvetica,sans-Serif" font-size="10.00">x_display</text>
<text text-anchor="middle" x="63" y="-85.5" font-family="Helvetica,sans-Serif" font-size="10.00">x_high</text>
<text text-anchor="middle" x="63" y="-74.5" font-family="Helvetica,sans-Serif" font-size="10.00">y_display</text>
<text text-anchor="middle" x="63" y="-63.5" font-family="Helvetica,sans-Serif" font-size="10.00">x_autorange</text>
<text text-anchor="middle" x="63" y="-52.5" font-family="Helvetica,sans-Serif" font-size="10.00">module</text>
<text text-anchor="middle" x="63" y="-41.5" font-family="Helvetica,sans-Serif" font-size="10.00">...</text>
</g>
</g>
</svg>
