<?xml version="1.0" encoding="UTF-8" standalone="no"?>
<!DOCTYPE svg PUBLIC "-//W3C//DTD SVG 1.1//EN"
 "http://www.w3.org/Graphics/SVG/1.1/DTD/svg11.dtd">
<!-- Generated by graphviz version 2.36.0 (20140111.2315)
 -->
<!-- Title: XMLCharacterEntity Pages: 1 -->
<svg width="204pt" height="96pt"
 viewBox="0.00 0.00 204.00 96.00" xmlns="http://www.w3.org/2000/svg" xmlns:xlink="http://www.w3.org/1999/xlink">
<g id="graph0" class="graph" transform="scale(1 1) rotate(0) translate(4 92)">
<title>XMLCharacterEntity</title>
<polygon fill="white" stroke="none" points="-4,4 -4,-92 200,-92 200,4 -4,4"/>
<!-- Node1 -->
<g id="node1" class="node"><title>Node1</title>
<polygon fill="#bfbfbf" stroke="black" points="44.5,-0.5 44.5,-19.5 149.5,-19.5 149.5,-0.5 44.5,-0.5"/>
<text text-anchor="middle" x="97" y="-7.5" font-family="Helvetica,sans-Serif" font-size="10.00">XMLCharacterEntity</text>
</g>
<!-- Node2 -->
<g id="node2" class="node"><title>Node2</title>
<polygon fill="white" stroke="#bfbfbf" points="-0.5,-68.5 -0.5,-87.5 64.5,-87.5 64.5,-68.5 -0.5,-68.5"/>
<text text-anchor="middle" x="32" y="-75.5" font-family="Helvetica,sans-Serif" font-size="10.00">XMLCSTR</text>
</g>
<!-- Node2&#45;&gt;Node1 -->
<g id="edge1" class="edge"><title>Node2&#45;&gt;Node1</title>
<path fill="none" stroke="#9a32cd" stroke-dasharray="5,2" d="M47.7109,-61.0474C60.4512,-48.1111 77.9365,-30.3567 88.2928,-19.8411"/>
<polygon fill="#9a32cd" stroke="#9a32cd" points="45.0208,-58.7909 40.4976,-68.3717 50.0082,-63.7027 45.0208,-58.7909"/>
<text text-anchor="middle" x="75.5" y="-41.5" font-family="Helvetica,sans-Serif" font-size="10.00"> s</text>
</g>
<!-- Node3 -->
<g id="node3" class="node"><title>Node3</title>
<polygon fill="white" stroke="#bfbfbf" points="82.5,-68.5 82.5,-87.5 111.5,-87.5 111.5,-68.5 82.5,-68.5"/>
<text text-anchor="middle" x="97" y="-75.5" font-family="Helvetica,sans-Serif" font-size="10.00">int</text>
</g>
<!-- Node3&#45;&gt;Node1 -->
<g id="edge2" class="edge"><title>Node3&#45;&gt;Node1</title>
<path fill="none" stroke="#9a32cd" stroke-dasharray="5,2" d="M97,-58.0413C97,-45.4724 97,-29.5631 97,-19.8411"/>
<polygon fill="#9a32cd" stroke="#9a32cd" points="93.5001,-58.3716 97,-68.3717 100.5,-58.3717 93.5001,-58.3716"/>
<text text-anchor="middle" x="100" y="-41.5" font-family="Helvetica,sans-Serif" font-size="10.00"> l</text>
</g>
<!-- Node4 -->
<g id="node4" class="node"><title>Node4</title>
<polygon fill="white" stroke="#bfbfbf" points="130,-68.5 130,-87.5 196,-87.5 196,-68.5 130,-68.5"/>
<text text-anchor="middle" x="163" y="-75.5" font-family="Helvetica,sans-Serif" font-size="10.00">XMLCHAR</text>
</g>
<!-- Node4&#45;&gt;Node1 -->
<g id="edge3" class="edge"><title>Node4&#45;&gt;Node1</title>
<path fill="none" stroke="#9a32cd" stroke-dasharray="5,2" d="M147.047,-61.0474C134.111,-48.1111 116.357,-30.3567 105.841,-19.8411"/>
<polygon fill="#9a32cd" stroke="#9a32cd" points="144.826,-63.7754 154.372,-68.3717 149.775,-58.8257 144.826,-63.7754"/>
<text text-anchor="middle" x="140.5" y="-41.5" font-family="Helvetica,sans-Serif" font-size="10.00"> c</text>
</g>
</g>
</svg>
