<?xml version="1.0" encoding="UTF-8" standalone="no"?>
<!DOCTYPE svg PUBLIC "-//W3C//DTD SVG 1.1//EN"
 "http://www.w3.org/Graphics/SVG/1.1/DTD/svg11.dtd">
<!-- Generated by graphviz version 2.36.0 (20140111.2315)
 -->
<!-- Title: XMLNode::isEmpty Pages: 1 -->
<svg width="400pt" height="94pt"
 viewBox="0.00 0.00 400.00 94.00" xmlns="http://www.w3.org/2000/svg" xmlns:xlink="http://www.w3.org/1999/xlink">
<g id="graph0" class="graph" transform="scale(1 1) rotate(0) translate(4 90)">
<title>XMLNode::isEmpty</title>
<polygon fill="white" stroke="none" points="-4,4 -4,-90 396,-90 396,4 -4,4"/>
<!-- Node1 -->
<g id="node1" class="node"><title>Node1</title>
<polygon fill="#bfbfbf" stroke="black" points="0,-44.5 0,-63.5 102,-63.5 102,-44.5 0,-44.5"/>
<text text-anchor="middle" x="51" y="-51.5" font-family="Helvetica,sans-Serif" font-size="10.00">XMLNode::isEmpty</text>
</g>
<!-- Node2 -->
<g id="node2" class="node"><title>Node2</title>
<g id="a_node2"><a xlink:href="_p_d_a_q_2_core_2_source_2xml_parser_8cpp.xhtml#a9a625f17c09a36e3ad532cdf16072609" target="_top" xlink:title="charmemset">
<polygon fill="white" stroke="black" points="320.5,-66.5 320.5,-85.5 391.5,-85.5 391.5,-66.5 320.5,-66.5"/>
<text text-anchor="middle" x="356" y="-73.5" font-family="Helvetica,sans-Serif" font-size="10.00">charmemset</text>
</a>
</g>
</g>
<!-- Node1&#45;&gt;Node2 -->
<g id="edge1" class="edge"><title>Node1&#45;&gt;Node2</title>
<path fill="none" stroke="midnightblue" d="M89.0245,-66.7118C104.033,-71.2361 121.654,-75.7619 138,-78 201.829,-86.7394 277.208,-82.9112 320.228,-79.4055"/>
<polygon fill="midnightblue" stroke="midnightblue" points="89.6874,-63.252 79.0986,-63.6079 87.5982,-69.933 89.6874,-63.252"/>
</g>
<!-- Node3 -->
<g id="node3" class="node"><title>Node3</title>
<g id="a_node3"><a xlink:href="struct_x_m_l_node.xhtml#a5d2775ee0704a2c028d76d267db7960a" target="_top" xlink:title="XMLNode::getChildNodeWith\lAttribute">
<polygon fill="white" stroke="black" points="138,-39 138,-69 284,-69 284,-39 138,-39"/>
<text text-anchor="start" x="146" y="-57" font-family="Helvetica,sans-Serif" font-size="10.00">XMLNode::getChildNodeWith</text>
<text text-anchor="middle" x="211" y="-46" font-family="Helvetica,sans-Serif" font-size="10.00">Attribute</text>
</a>
</g>
</g>
<!-- Node1&#45;&gt;Node3 -->
<g id="edge2" class="edge"><title>Node1&#45;&gt;Node3</title>
<path fill="none" stroke="midnightblue" d="M112.69,-54C120.934,-54 129.46,-54 137.88,-54"/>
<polygon fill="midnightblue" stroke="midnightblue" points="112.427,-50.5001 102.427,-54 112.427,-57.5001 112.427,-50.5001"/>
</g>
<!-- Node4 -->
<g id="node4" class="node"><title>Node4</title>
<g id="a_node4"><a xlink:href="_c_d_a_q_2_plugins_2_source_2xml_parser_8cpp.xhtml#a8415cb910267a0487e1003a34069d012" target="_top" xlink:title="myRealloc">
<polygon fill="white" stroke="black" points="179.5,-0.5 179.5,-19.5 242.5,-19.5 242.5,-0.5 179.5,-0.5"/>
<text text-anchor="middle" x="211" y="-7.5" font-family="Helvetica,sans-Serif" font-size="10.00">myRealloc</text>
</a>
</g>
</g>
<!-- Node1&#45;&gt;Node4 -->
<g id="edge4" class="edge"><title>Node1&#45;&gt;Node4</title>
<path fill="none" stroke="midnightblue" d="M96.2589,-41.6377C109.667,-37.8956 124.434,-33.777 138,-30 151.498,-26.2419 166.421,-22.0951 179.165,-18.5565"/>
<polygon fill="midnightblue" stroke="midnightblue" points="95.0038,-38.3542 86.3131,-44.4141 96.8859,-45.0964 95.0038,-38.3542"/>
</g>
<!-- Node3&#45;&gt;Node2 -->
<g id="edge3" class="edge"><title>Node3&#45;&gt;Node2</title>
<path fill="none" stroke="midnightblue" d="M294.348,-66.6689C303.512,-68.0788 312.433,-69.4512 320.489,-70.6906"/>
<polygon fill="midnightblue" stroke="midnightblue" points="294.754,-63.1903 284.338,-65.1289 293.689,-70.1089 294.754,-63.1903"/>
</g>
</g>
</svg>
