<?xml version="1.0" encoding="UTF-8" standalone="no"?>
<!DOCTYPE svg PUBLIC "-//W3C//DTD SVG 1.1//EN"
 "http://www.w3.org/Graphics/SVG/1.1/DTD/svg11.dtd">
<!-- Generated by graphviz version 2.36.0 (20140111.2315)
 -->
<!-- Title: XMLNode::openFileHelper Pages: 1 -->
<!--zoomable 788 -->
<svg id="main" version="1.1" xmlns="http://www.w3.org/2000/svg" xmlns:xlink="http://www.w3.org/1999/xlink" xml:space="preserve" onload="init(evt)">
<style type="text/css"><![CDATA[
.edge:hover path { stroke: red; }
.edge:hover polygon { stroke: red; fill: red; }
]]></style>
<script type="text/javascript"><![CDATA[
var edges = document.getElementsByTagName('g');
if (edges && edges.length) {
  for (var i=0;i<edges.length;i++) {
    if (edges[i].id.substr(0,4)=='edge') {
      edges[i].setAttribute('class','edge');
    }
  }
}
]]></script>
        <defs>
                <circle id="rim" cx="0" cy="0" r="7"/>
                <circle id="rim2" cx="0" cy="0" r="3.5"/>
                <g id="zoomPlus">
                        <use xlink:href="#rim" fill="#404040">
                                <set attributeName="fill" to="#808080" begin="zoomplus.mouseover" end="zoomplus.mouseout"/>
                        </use>
                        <path d="M-4,0h8M0,-4v8" fill="none" stroke="white" stroke-width="1.5" pointer-events="none"/>
                </g>
                <g id="zoomMin">
                        <use xlink:href="#rim" fill="#404040">
                                <set attributeName="fill" to="#808080" begin="zoomminus.mouseover" end="zoomminus.mouseout"/>
                        </use>
                        <path d="M-4,0h8" fill="none" stroke="white" stroke-width="1.5" pointer-events="none"/>
                </g>
                <g id="dirArrow">
                        <path fill="none" stroke="white" stroke-width="1.5" d="M0,-3.0v7 M-2.5,-0.5L0,-3.0L2.5,-0.5"/>
                </g>
               <g id="resetDef">
                       <use xlink:href="#rim2" fill="#404040">
                               <set attributeName="fill" to="#808080" begin="reset.mouseover" end="reset.mouseout"/>
                       </use>
               </g>
        </defs>

<script type="text/javascript">
var viewWidth = 752;
var viewHeight = 788;
var sectionId = 'dynsection-65';
</script>
<script xlink:href="svgpan.js"/>
<svg id="graph" class="graph">
<g id="viewport">
<title>XMLNode::openFileHelper</title>
<polygon fill="white" stroke="none" points="-4,4 -4,-784 748,-784 748,4 -4,4"/>
<!-- Node1 -->
<g id="node1" class="node"><title>Node1</title>
<polygon fill="#bfbfbf" stroke="black" points="0.5,-332.5 0.5,-351.5 131.5,-351.5 131.5,-332.5 0.5,-332.5"/>
<text text-anchor="middle" x="66" y="-339.5" font-family="Helvetica,sans-Serif" font-size="10.00">XMLNode::openFileHelper</text>
</g>
<!-- Node2 -->
<g id="node2" class="node"><title>Node2</title>
<g id="a_node2"><a xlink:href="struct_x_m_l_node.xhtml#a4496629c7a268db5435946c7bdd4eb28" target="_top" xlink:title="XMLNode::getError">
<polygon fill="white" stroke="black" points="194.5,-503.5 194.5,-522.5 295.5,-522.5 295.5,-503.5 194.5,-503.5"/>
<text text-anchor="middle" x="245" y="-510.5" font-family="Helvetica,sans-Serif" font-size="10.00">XMLNode::getError</text>
</a>
</g>
</g>
<!-- Node1&#45;&gt;Node2 -->
<g id="edge1" class="edge"><title>Node1&#45;&gt;Node2</title>
<path fill="none" stroke="midnightblue" d="M77.0234,-351.684C105.987,-379.665 190.052,-460.881 226.643,-496.232"/>
<polygon fill="midnightblue" stroke="midnightblue" points="224.463,-498.992 234.087,-503.423 229.326,-493.957 224.463,-498.992"/>
</g>
<!-- Node7 -->
<g id="node7" class="node"><title>Node7</title>
<g id="a_node7"><a xlink:href="_c_d_a_q_2_plugins_2_source_2xml_parser_8cpp.xhtml#a8dd6e6cada28ea03e5cacd075b1be7f6" target="_top" xlink:title="xfopen">
<polygon fill="white" stroke="black" points="685,-76.5 685,-95.5 731,-95.5 731,-76.5 685,-76.5"/>
<text text-anchor="middle" x="708" y="-83.5" font-family="Helvetica,sans-Serif" font-size="10.00">xfopen</text>
</a>
</g>
</g>
<!-- Node1&#45;&gt;Node7 -->
<g id="edge40" class="edge"><title>Node1&#45;&gt;Node7</title>
<path fill="none" stroke="midnightblue" d="M76.5903,-332.354C111.219,-298.072 234.296,-180.917 358,-120 470.044,-64.8252 511.259,-72.8657 636,-79 648.726,-79.6258 662.689,-80.8789 674.839,-82.1542"/>
<polygon fill="midnightblue" stroke="midnightblue" points="674.652,-85.6546 684.974,-83.2653 675.415,-78.6963 674.652,-85.6546"/>
</g>
<!-- Node14 -->
<g id="node14" class="node"><title>Node14</title>
<g id="a_node14"><a xlink:href="struct_x_m_l_node.xhtml#ac7af7e3bab8d21722dd4f191a4aa7c1d" target="_top" xlink:title="XMLNode::guessCharEncoding">
<polygon fill="white" stroke="black" points="168,-617.5 168,-636.5 322,-636.5 322,-617.5 168,-617.5"/>
<text text-anchor="middle" x="245" y="-624.5" font-family="Helvetica,sans-Serif" font-size="10.00">XMLNode::guessCharEncoding</text>
</a>
</g>
</g>
<!-- Node1&#45;&gt;Node14 -->
<g id="edge20" class="edge"><title>Node1&#45;&gt;Node14</title>
<path fill="none" stroke="midnightblue" d="M71.4363,-351.85C84.5462,-380.59 124.898,-466.451 168,-532 186.919,-560.772 212.564,-591.426 228.696,-609.897"/>
<polygon fill="midnightblue" stroke="midnightblue" points="226.14,-612.29 235.38,-617.475 231.39,-607.66 226.14,-612.29"/>
</g>
<!-- Node15 -->
<g id="node15" class="node"><title>Node15</title>
<g id="a_node15"><a xlink:href="struct_x_m_l_node.xhtml#a5e5968e052d58350918cd91e3535624b" target="_top" xlink:title="XMLNode::parseFile">
<polygon fill="white" stroke="black" points="192,-332.5 192,-351.5 298,-351.5 298,-332.5 192,-332.5"/>
<text text-anchor="middle" x="245" y="-339.5" font-family="Helvetica,sans-Serif" font-size="10.00">XMLNode::parseFile</text>
</a>
</g>
</g>
<!-- Node1&#45;&gt;Node15 -->
<g id="edge24" class="edge"><title>Node1&#45;&gt;Node15</title>
<path fill="none" stroke="midnightblue" d="M131.652,-342C147.935,-342 165.382,-342 181.555,-342"/>
<polygon fill="midnightblue" stroke="midnightblue" points="181.973,-345.5 191.973,-342 181.973,-338.5 181.973,-345.5"/>
</g>
<!-- Node24 -->
<g id="node24" class="node"><title>Node24</title>
<g id="a_node24"><a xlink:href="struct_x_m_l_node.xhtml#a006cabe59176e05bc5a3f06c0cf6d8c1" target="_top" xlink:title="XMLNode::setGlobalOptions">
<polygon fill="white" stroke="black" points="174.5,-0.5 174.5,-19.5 315.5,-19.5 315.5,-0.5 174.5,-0.5"/>
<text text-anchor="middle" x="245" y="-7.5" font-family="Helvetica,sans-Serif" font-size="10.00">XMLNode::setGlobalOptions</text>
</a>
</g>
</g>
<!-- Node1&#45;&gt;Node24 -->
<g id="edge39" class="edge"><title>Node1&#45;&gt;Node24</title>
<path fill="none" stroke="midnightblue" d="M67.1545,-332.365C68.3583,-290.463 78.7783,-122.246 168,-34 171.997,-30.0471 176.639,-26.7445 181.621,-23.9852"/>
<polygon fill="midnightblue" stroke="midnightblue" points="183.358,-27.0345 190.889,-19.5822 180.355,-20.7116 183.358,-27.0345"/>
</g>
<!-- Node3 -->
<g id="node3" class="node"><title>Node3</title>
<g id="a_node3"><a xlink:href="_c_d_a_q_2_plugins_2_source_2xml_parser_8cpp.xhtml#ad9a5c911a8e21bb89427d29d33e2797e" target="_top" xlink:title="myIsTextWideChar">
<polygon fill="white" stroke="black" points="365.5,-570.5 365.5,-589.5 466.5,-589.5 466.5,-570.5 365.5,-570.5"/>
<text text-anchor="middle" x="416" y="-577.5" font-family="Helvetica,sans-Serif" font-size="10.00">myIsTextWideChar</text>
</a>
</g>
</g>
<!-- Node2&#45;&gt;Node3 -->
<g id="edge2" class="edge"><title>Node2&#45;&gt;Node3</title>
<path fill="none" stroke="midnightblue" d="M270.214,-522.599C299.329,-534.142 348.368,-553.584 381.202,-566.601"/>
<polygon fill="midnightblue" stroke="midnightblue" points="380.245,-569.986 390.831,-570.418 382.825,-563.479 380.245,-569.986"/>
</g>
<!-- Node4 -->
<g id="node4" class="node"><title>Node4</title>
<g id="a_node4"><a xlink:href="_c_d_a_q_2_plugins_2_source_2xml_parser_8cpp.xhtml#af77e3e2685487b9c492b20c36f3b864a" target="_top" xlink:title="_strnicmp">
<polygon fill="white" stroke="black" points="543.5,-722.5 543.5,-741.5 602.5,-741.5 602.5,-722.5 543.5,-722.5"/>
<text text-anchor="middle" x="573" y="-729.5" font-family="Helvetica,sans-Serif" font-size="10.00">_strnicmp</text>
</a>
</g>
</g>
<!-- Node3&#45;&gt;Node4 -->
<g id="edge3" class="edge"><title>Node3&#45;&gt;Node4</title>
<path fill="none" stroke="midnightblue" d="M423.786,-589.651C444.238,-618.693 504.231,-703.561 510,-708 517.035,-713.414 525.438,-717.741 533.753,-721.145"/>
<polygon fill="midnightblue" stroke="midnightblue" points="532.794,-724.522 543.386,-724.728 535.234,-717.961 532.794,-724.522"/>
</g>
<!-- Node5 -->
<g id="node5" class="node"><title>Node5</title>
<g id="a_node5"><a xlink:href="_c_d_a_q_2_plugins_2_source_2xml_parser_8cpp.xhtml#ae4635e3ac4b32772021240a9c16864ee" target="_top" xlink:title="mmin">
<polygon fill="white" stroke="black" points="552.5,-760.5 552.5,-779.5 593.5,-779.5 593.5,-760.5 552.5,-760.5"/>
<text text-anchor="middle" x="573" y="-767.5" font-family="Helvetica,sans-Serif" font-size="10.00">mmin</text>
</a>
</g>
</g>
<!-- Node3&#45;&gt;Node5 -->
<g id="edge4" class="edge"><title>Node3&#45;&gt;Node5</title>
<path fill="none" stroke="midnightblue" d="M419.492,-589.812C427.409,-618.973 454.781,-705.886 510,-751 519.211,-758.526 531.38,-763.076 542.496,-765.825"/>
<polygon fill="midnightblue" stroke="midnightblue" points="541.789,-769.252 552.294,-767.876 543.224,-762.401 541.789,-769.252"/>
</g>
<!-- Node6 -->
<g id="node6" class="node"><title>Node6</title>
<g id="a_node6"><a xlink:href="_c_d_a_q_2_plugins_2_source_2xml_parser_8cpp.xhtml#ad7ec02a171e7641c1d364d5d367199a3" target="_top" xlink:title="myWideCharToMultiByte">
<polygon fill="white" stroke="black" points="510,-532.5 510,-551.5 636,-551.5 636,-532.5 510,-532.5"/>
<text text-anchor="middle" x="573" y="-539.5" font-family="Helvetica,sans-Serif" font-size="10.00">myWideCharToMultiByte</text>
</a>
</g>
</g>
<!-- Node3&#45;&gt;Node6 -->
<g id="edge5" class="edge"><title>Node3&#45;&gt;Node6</title>
<path fill="none" stroke="midnightblue" d="M456.113,-570.411C476.475,-565.419 501.566,-559.268 523.189,-553.967"/>
<polygon fill="midnightblue" stroke="midnightblue" points="524.289,-557.301 533.168,-551.52 522.622,-550.502 524.289,-557.301"/>
</g>
<!-- Node3&#45;&gt;Node7 -->
<g id="edge13" class="edge"><title>Node3&#45;&gt;Node7</title>
<path fill="none" stroke="midnightblue" d="M420.774,-570.415C431.28,-544.808 463.204,-473.905 510,-432 556.35,-390.494 599.485,-421.375 636,-371 706.017,-274.408 604.246,-203.193 672,-105 673.308,-103.104 674.868,-101.38 676.593,-99.8152"/>
<polygon fill="midnightblue" stroke="midnightblue" points="678.779,-102.556 684.935,-93.9333 674.745,-96.8354 678.779,-102.556"/>
</g>
<!-- Node8 -->
<g id="node8" class="node"><title>Node8</title>
<g id="a_node8"><a xlink:href="_c_d_a_q_2_plugins_2_source_2xml_parser_8cpp.xhtml#a73c2349b2f386ee50130a3961bd2dbab" target="_top" xlink:title="xstrcpy">
<polygon fill="white" stroke="black" points="683.5,-577.5 683.5,-596.5 732.5,-596.5 732.5,-577.5 683.5,-577.5"/>
<text text-anchor="middle" x="708" y="-584.5" font-family="Helvetica,sans-Serif" font-size="10.00">xstrcpy</text>
</a>
</g>
</g>
<!-- Node3&#45;&gt;Node8 -->
<g id="edge14" class="edge"><title>Node3&#45;&gt;Node8</title>
<path fill="none" stroke="midnightblue" d="M466.557,-588.862C480.556,-590.983 495.834,-592.94 510,-594 565.844,-598.18 580.068,-596.751 636,-594 648.124,-593.404 661.37,-592.238 673.103,-591.027"/>
<polygon fill="midnightblue" stroke="midnightblue" points="673.81,-594.471 683.376,-589.916 673.058,-587.511 673.81,-594.471"/>
</g>
<!-- Node9 -->
<g id="node9" class="node"><title>Node9</title>
<g id="a_node9"><a xlink:href="_c_d_a_q_2_plugins_2_source_2xml_parser_8cpp.xhtml#a2e64ea95685df2d289c31a50419b532d" target="_top" xlink:title="xstricmp">
<polygon fill="white" stroke="black" points="681,-399.5 681,-418.5 735,-418.5 735,-399.5 681,-399.5"/>
<text text-anchor="middle" x="708" y="-406.5" font-family="Helvetica,sans-Serif" font-size="10.00">xstricmp</text>
</a>
</g>
</g>
<!-- Node3&#45;&gt;Node9 -->
<g id="edge15" class="edge"><title>Node3&#45;&gt;Node9</title>
<path fill="none" stroke="midnightblue" d="M426.292,-570.246C442.235,-553.914 476.346,-520.692 510,-499 562.848,-464.937 630.706,-436.974 671.418,-421.676"/>
<polygon fill="midnightblue" stroke="midnightblue" points="672.753,-424.914 680.911,-418.154 670.318,-418.351 672.753,-424.914"/>
</g>
<!-- Node10 -->
<g id="node10" class="node"><title>Node10</title>
<g id="a_node10"><a xlink:href="_c_d_a_q_2_plugins_2_source_2xml_parser_8cpp.xhtml#a49fa66f65d2d28ce7b7e0b1752425915" target="_top" xlink:title="xstrlen">
<polygon fill="white" stroke="black" points="685,-494.5 685,-513.5 731,-513.5 731,-494.5 685,-494.5"/>
<text text-anchor="middle" x="708" y="-501.5" font-family="Helvetica,sans-Serif" font-size="10.00">xstrlen</text>
</a>
</g>
</g>
<!-- Node3&#45;&gt;Node10 -->
<g id="edge16" class="edge"><title>Node3&#45;&gt;Node10</title>
<path fill="none" stroke="midnightblue" d="M428.737,-570.33C445.56,-557.077 478.035,-533.699 510,-523 565.664,-504.368 634.766,-502.142 674.581,-502.723"/>
<polygon fill="midnightblue" stroke="midnightblue" points="674.688,-506.226 684.761,-502.943 674.839,-499.228 674.688,-506.226"/>
</g>
<!-- Node11 -->
<g id="node11" class="node"><title>Node11</title>
<g id="a_node11"><a xlink:href="_c_d_a_q_2_plugins_2_source_2xml_parser_8cpp.xhtml#a3165858f70cd74ffab31ebc2ddc9e104" target="_top" xlink:title="xstrncmp">
<polygon fill="white" stroke="black" points="679.5,-534.5 679.5,-553.5 736.5,-553.5 736.5,-534.5 679.5,-534.5"/>
<text text-anchor="middle" x="708" y="-541.5" font-family="Helvetica,sans-Serif" font-size="10.00">xstrncmp</text>
</a>
</g>
</g>
<!-- Node3&#45;&gt;Node11 -->
<g id="edge17" class="edge"><title>Node3&#45;&gt;Node11</title>
<path fill="none" stroke="midnightblue" d="M466.837,-577.787C511.395,-575.308 578.363,-570.347 636,-561 646.903,-559.232 658.611,-556.697 669.312,-554.123"/>
<polygon fill="midnightblue" stroke="midnightblue" points="670.343,-557.474 679.205,-551.667 668.656,-550.68 670.343,-557.474"/>
</g>
<!-- Node12 -->
<g id="node12" class="node"><title>Node12</title>
<g id="a_node12"><a xlink:href="_c_d_a_q_2_plugins_2_source_2xml_parser_8cpp.xhtml#a17c9570640aed10b61deec9047cb0940" target="_top" xlink:title="xstrnicmp">
<polygon fill="white" stroke="black" points="678.5,-681.5 678.5,-700.5 737.5,-700.5 737.5,-681.5 678.5,-681.5"/>
<text text-anchor="middle" x="708" y="-688.5" font-family="Helvetica,sans-Serif" font-size="10.00">xstrnicmp</text>
</a>
</g>
</g>
<!-- Node3&#45;&gt;Node12 -->
<g id="edge18" class="edge"><title>Node3&#45;&gt;Node12</title>
<path fill="none" stroke="midnightblue" d="M431.63,-589.512C449.532,-600.833 481.04,-619.742 510,-632 563.232,-654.532 627.929,-672.163 668.297,-682.079"/>
<polygon fill="midnightblue" stroke="midnightblue" points="667.719,-685.54 678.262,-684.492 669.366,-678.737 667.719,-685.54"/>
</g>
<!-- Node13 -->
<g id="node13" class="node"><title>Node13</title>
<g id="a_node13"><a xlink:href="_c_d_a_q_2_plugins_2_source_2xml_parser_8cpp.xhtml#a696ca59a310359980c57de039f137697" target="_top" xlink:title="xstrstr">
<polygon fill="white" stroke="black" points="686,-624.5 686,-643.5 730,-643.5 730,-624.5 686,-624.5"/>
<text text-anchor="middle" x="708" y="-631.5" font-family="Helvetica,sans-Serif" font-size="10.00">xstrstr</text>
</a>
</g>
</g>
<!-- Node3&#45;&gt;Node13 -->
<g id="edge19" class="edge"><title>Node3&#45;&gt;Node13</title>
<path fill="none" stroke="midnightblue" d="M443.126,-589.503C461.585,-595.882 487.029,-604.002 510,-609 567.736,-621.563 636.462,-628.51 675.585,-631.729"/>
<polygon fill="midnightblue" stroke="midnightblue" points="675.555,-635.238 685.801,-632.54 676.109,-628.26 675.555,-635.238"/>
</g>
<!-- Node6&#45;&gt;Node7 -->
<g id="edge6" class="edge"><title>Node6&#45;&gt;Node7</title>
<path fill="none" stroke="midnightblue" d="M579.583,-532.344C592.005,-510.372 621.936,-454.613 636,-404 671.836,-275.038 596.795,-215.723 672,-105 673.294,-103.095 674.844,-101.364 676.561,-99.7935"/>
<polygon fill="midnightblue" stroke="midnightblue" points="678.747,-102.535 684.887,-93.9007 674.703,-96.8209 678.747,-102.535"/>
</g>
<!-- Node6&#45;&gt;Node8 -->
<g id="edge7" class="edge"><title>Node6&#45;&gt;Node8</title>
<path fill="none" stroke="midnightblue" d="M602.206,-551.543C623.101,-558.613 651.649,-568.272 673.671,-575.723"/>
<polygon fill="midnightblue" stroke="midnightblue" points="672.686,-579.085 683.28,-578.974 674.929,-572.454 672.686,-579.085"/>
</g>
<!-- Node6&#45;&gt;Node9 -->
<g id="edge8" class="edge"><title>Node6&#45;&gt;Node9</title>
<path fill="none" stroke="midnightblue" d="M583.565,-532.435C605.887,-510.113 661.664,-454.336 689.961,-426.039"/>
<polygon fill="midnightblue" stroke="midnightblue" points="692.567,-428.383 697.163,-418.837 687.617,-423.433 692.567,-428.383"/>
</g>
<!-- Node6&#45;&gt;Node10 -->
<g id="edge9" class="edge"><title>Node6&#45;&gt;Node10</title>
<path fill="none" stroke="midnightblue" d="M607.562,-532.411C628.233,-526.505 654.584,-518.976 674.966,-513.153"/>
<polygon fill="midnightblue" stroke="midnightblue" points="676.076,-516.476 684.729,-510.363 674.153,-509.745 676.076,-516.476"/>
</g>
<!-- Node6&#45;&gt;Node11 -->
<g id="edge10" class="edge"><title>Node6&#45;&gt;Node11</title>
<path fill="none" stroke="midnightblue" d="M636.217,-542.936C647.456,-543.105 658.86,-543.276 669.136,-543.431"/>
<polygon fill="midnightblue" stroke="midnightblue" points="669.33,-546.934 679.382,-543.585 669.436,-539.935 669.33,-546.934"/>
</g>
<!-- Node6&#45;&gt;Node12 -->
<g id="edge11" class="edge"><title>Node6&#45;&gt;Node12</title>
<path fill="none" stroke="midnightblue" d="M582.323,-551.563C599.14,-570.855 638.429,-615.773 672,-653 678.166,-659.838 685.015,-667.302 691.008,-673.791"/>
<polygon fill="midnightblue" stroke="midnightblue" points="688.662,-676.409 698.025,-681.368 693.798,-671.653 688.662,-676.409"/>
</g>
<!-- Node6&#45;&gt;Node13 -->
<g id="edge12" class="edge"><title>Node6&#45;&gt;Node13</title>
<path fill="none" stroke="midnightblue" d="M588.233,-551.846C611.332,-567.824 657.159,-599.524 684.643,-618.535"/>
<polygon fill="midnightblue" stroke="midnightblue" points="682.654,-621.415 692.869,-624.225 686.636,-615.658 682.654,-621.415"/>
</g>
<!-- Node14&#45;&gt;Node3 -->
<g id="edge23" class="edge"><title>Node14&#45;&gt;Node3</title>
<path fill="none" stroke="midnightblue" d="M280.2,-617.489C306.342,-610.219 342.583,-600.14 370.904,-592.263"/>
<polygon fill="midnightblue" stroke="midnightblue" points="371.865,-595.629 380.562,-589.578 369.989,-588.885 371.865,-595.629"/>
</g>
<!-- Node14&#45;&gt;Node4 -->
<g id="edge21" class="edge"><title>Node14&#45;&gt;Node4</title>
<path fill="none" stroke="midnightblue" d="M275.505,-636.503C334.69,-655.566 467.852,-698.456 533.677,-719.657"/>
<polygon fill="midnightblue" stroke="midnightblue" points="532.671,-723.01 543.263,-722.744 534.817,-716.347 532.671,-723.01"/>
</g>
<!-- Node14&#45;&gt;Node5 -->
<g id="edge22" class="edge"><title>Node14&#45;&gt;Node5</title>
<path fill="none" stroke="midnightblue" d="M260.037,-636.529C280.813,-650.366 321.257,-676.299 358,-694 423,-725.313 441.699,-727.752 510,-751 520.551,-754.591 532.214,-758.246 542.55,-761.379"/>
<polygon fill="midnightblue" stroke="midnightblue" points="541.771,-764.799 552.354,-764.315 543.779,-758.093 541.771,-764.799"/>
</g>
<!-- Node15&#45;&gt;Node3 -->
<g id="edge26" class="edge"><title>Node15&#45;&gt;Node3</title>
<path fill="none" stroke="midnightblue" d="M252.834,-351.625C278.365,-387.579 368.404,-514.379 402.123,-561.866"/>
<polygon fill="midnightblue" stroke="midnightblue" points="399.437,-564.128 408.081,-570.256 405.145,-560.076 399.437,-564.128"/>
</g>
<!-- Node15&#45;&gt;Node6 -->
<g id="edge27" class="edge"><title>Node15&#45;&gt;Node6</title>
<path fill="none" stroke="midnightblue" d="M261.724,-351.646C314.335,-383.924 484.464,-488.297 547.879,-527.202"/>
<polygon fill="midnightblue" stroke="midnightblue" points="546.08,-530.204 556.434,-532.45 549.741,-524.238 546.08,-530.204"/>
</g>
<!-- Node15&#45;&gt;Node7 -->
<g id="edge25" class="edge"><title>Node15&#45;&gt;Node7</title>
<path fill="none" stroke="midnightblue" d="M252.834,-332.491C280.136,-295.356 385.935,-159.492 510,-105 564.148,-81.2173 634.536,-80.8259 674.85,-83.1228"/>
<polygon fill="midnightblue" stroke="midnightblue" points="674.694,-86.6201 684.904,-83.7882 675.157,-79.6354 674.694,-86.6201"/>
</g>
<!-- Node16 -->
<g id="node16" class="node"><title>Node16</title>
<g id="a_node16"><a xlink:href="struct_x_m_l_node.xhtml#acb95f4f00e4cf3756aac0e3a53765248" target="_top" xlink:title="XMLNode::parseString">
<polygon fill="white" stroke="black" points="358,-266.5 358,-285.5 474,-285.5 474,-266.5 358,-266.5"/>
<text text-anchor="middle" x="416" y="-273.5" font-family="Helvetica,sans-Serif" font-size="10.00">XMLNode::parseString</text>
</a>
</g>
</g>
<!-- Node15&#45;&gt;Node16 -->
<g id="edge28" class="edge"><title>Node15&#45;&gt;Node16</title>
<path fill="none" stroke="midnightblue" d="M270.574,-332.403C299.694,-321.031 348.377,-302.018 381.075,-289.249"/>
<polygon fill="midnightblue" stroke="midnightblue" points="382.629,-292.399 390.67,-285.501 380.082,-285.879 382.629,-292.399"/>
</g>
<!-- Node16&#45;&gt;Node9 -->
<g id="edge35" class="edge"><title>Node16&#45;&gt;Node9</title>
<path fill="none" stroke="midnightblue" d="M458.935,-285.583C518.142,-299.314 620.767,-323.931 636,-333 660.838,-347.788 682.377,-373.803 695.03,-391.219"/>
<polygon fill="midnightblue" stroke="midnightblue" points="692.193,-393.269 700.807,-399.438 697.92,-389.244 692.193,-393.269"/>
</g>
<!-- Node16&#45;&gt;Node10 -->
<g id="edge34" class="edge"><title>Node16&#45;&gt;Node10</title>
<path fill="none" stroke="midnightblue" d="M425.149,-285.523C440.669,-303.374 475.962,-342.624 510,-371 567.563,-418.989 642.598,-465.824 681.345,-488.992"/>
<polygon fill="midnightblue" stroke="midnightblue" points="679.996,-492.261 690.382,-494.358 683.571,-486.243 679.996,-492.261"/>
</g>
<!-- Node17 -->
<g id="node17" class="node"><title>Node17</title>
<g id="a_node17"><a xlink:href="struct_x_m_l_node.xhtml#a8e52198f258167cd796dae21f1ffc352" target="_top" xlink:title="XMLNode::nChildNode">
<polygon fill="white" stroke="black" points="514.5,-342.5 514.5,-361.5 631.5,-361.5 631.5,-342.5 514.5,-342.5"/>
<text text-anchor="middle" x="573" y="-349.5" font-family="Helvetica,sans-Serif" font-size="10.00">XMLNode::nChildNode</text>
</a>
</g>
</g>
<!-- Node16&#45;&gt;Node17 -->
<g id="edge29" class="edge"><title>Node16&#45;&gt;Node17</title>
<path fill="none" stroke="midnightblue" d="M432.443,-285.521C450.614,-296.513 481.877,-314.775 510,-328 518.033,-331.778 526.835,-335.451 535.219,-338.743"/>
<polygon fill="midnightblue" stroke="midnightblue" points="534.207,-342.104 544.798,-342.415 536.713,-335.567 534.207,-342.104"/>
</g>
<!-- Node18 -->
<g id="node18" class="node"><title>Node18</title>
<g id="a_node18"><a xlink:href="struct_x_m_l_node.xhtml#a8e9538deb9144dcab39b3a510a8202f1" target="_top" xlink:title="XMLNode::nElement">
<polygon fill="white" stroke="black" points="519.5,-228.5 519.5,-247.5 626.5,-247.5 626.5,-228.5 519.5,-228.5"/>
<text text-anchor="middle" x="573" y="-235.5" font-family="Helvetica,sans-Serif" font-size="10.00">XMLNode::nElement</text>
</a>
</g>
</g>
<!-- Node16&#45;&gt;Node18 -->
<g id="edge31" class="edge"><title>Node16&#45;&gt;Node18</title>
<path fill="none" stroke="midnightblue" d="M456.113,-266.411C476.475,-261.419 501.566,-255.268 523.189,-249.967"/>
<polygon fill="midnightblue" stroke="midnightblue" points="524.289,-253.301 533.168,-247.52 522.622,-246.502 524.289,-253.301"/>
</g>
<!-- Node19 -->
<g id="node19" class="node"><title>Node19</title>
<g id="a_node19"><a xlink:href="struct_x_m_l_node.xhtml#a77a21438b6d48a52cf8a1270f82f4475" target="_top" xlink:title="XMLNode::getChildNode">
<polygon fill="white" stroke="black" points="510.5,-190.5 510.5,-209.5 635.5,-209.5 635.5,-190.5 510.5,-190.5"/>
<text text-anchor="middle" x="573" y="-197.5" font-family="Helvetica,sans-Serif" font-size="10.00">XMLNode::getChildNode</text>
</a>
</g>
</g>
<!-- Node16&#45;&gt;Node19 -->
<g id="edge32" class="edge"><title>Node16&#45;&gt;Node19</title>
<path fill="none" stroke="midnightblue" d="M430.267,-266.371C447.793,-254.01 479.962,-232.544 510,-219 515.003,-216.744 520.349,-214.658 525.726,-212.76"/>
<polygon fill="midnightblue" stroke="midnightblue" points="526.988,-216.028 535.37,-209.548 524.777,-209.387 526.988,-216.028"/>
</g>
<!-- Node20 -->
<g id="node20" class="node"><title>Node20</title>
<g id="a_node20"><a xlink:href="struct_x_m_l_node.xhtml#a7e07715aa0ed894da96bd66c90d423f0" target="_top" xlink:title="XMLNode::getName">
<polygon fill="white" stroke="black" points="520,-152.5 520,-171.5 626,-171.5 626,-152.5 520,-152.5"/>
<text text-anchor="middle" x="573" y="-159.5" font-family="Helvetica,sans-Serif" font-size="10.00">XMLNode::getName</text>
</a>
</g>
</g>
<!-- Node16&#45;&gt;Node20 -->
<g id="edge33" class="edge"><title>Node16&#45;&gt;Node20</title>
<path fill="none" stroke="midnightblue" d="M423.776,-266.374C437.718,-247.271 471.553,-204.398 510,-181 513.419,-178.92 517.083,-177.051 520.86,-175.374"/>
<polygon fill="midnightblue" stroke="midnightblue" points="522.393,-178.532 530.4,-171.594 519.814,-172.024 522.393,-178.532"/>
</g>
<!-- Node21 -->
<g id="node21" class="node"><title>Node21</title>
<g id="a_node21"><a xlink:href="struct_x_m_l_node.xhtml#a71df27d54a2dc09b0a456406a7e8c6d3" target="_top" xlink:title="XMLNode::isDeclaration">
<polygon fill="white" stroke="black" points="511.5,-266.5 511.5,-285.5 634.5,-285.5 634.5,-266.5 511.5,-266.5"/>
<text text-anchor="middle" x="573" y="-273.5" font-family="Helvetica,sans-Serif" font-size="10.00">XMLNode::isDeclaration</text>
</a>
</g>
</g>
<!-- Node16&#45;&gt;Node21 -->
<g id="edge36" class="edge"><title>Node16&#45;&gt;Node21</title>
<path fill="none" stroke="midnightblue" d="M474.276,-276C483.048,-276 492.192,-276 501.213,-276"/>
<polygon fill="midnightblue" stroke="midnightblue" points="501.32,-279.5 511.32,-276 501.32,-272.5 501.32,-279.5"/>
</g>
<!-- Node22 -->
<g id="node22" class="node"><title>Node22</title>
<g id="a_node22"><a xlink:href="_c_d_a_q_2_plugins_2_source_2xml_parser_8cpp.xhtml#ae6aa5a367ab3cc92b47fd92f81add72a" target="_top" xlink:title="CountLinesAndColumns">
<polygon fill="white" stroke="black" points="512,-114.5 512,-133.5 634,-133.5 634,-114.5 512,-114.5"/>
<text text-anchor="middle" x="573" y="-121.5" font-family="Helvetica,sans-Serif" font-size="10.00">CountLinesAndColumns</text>
</a>
</g>
</g>
<!-- Node16&#45;&gt;Node22 -->
<g id="edge37" class="edge"><title>Node16&#45;&gt;Node22</title>
<path fill="none" stroke="midnightblue" d="M421.041,-266.313C431.754,-241.825 463.294,-176.981 510,-143 512.64,-141.079 515.478,-139.35 518.434,-137.793"/>
<polygon fill="midnightblue" stroke="midnightblue" points="519.935,-140.956 527.581,-133.622 517.03,-134.587 519.935,-140.956"/>
</g>
<!-- Node17&#45;&gt;Node9 -->
<g id="edge30" class="edge"><title>Node17&#45;&gt;Node9</title>
<path fill="none" stroke="midnightblue" d="M596.261,-361.541C617.935,-370.829 651.084,-385.036 675.467,-395.486"/>
<polygon fill="midnightblue" stroke="midnightblue" points="674.096,-398.706 684.666,-399.428 676.853,-392.272 674.096,-398.706"/>
</g>
<!-- Node23 -->
<g id="node23" class="node"><title>Node23</title>
<g id="a_node23"><a xlink:href="_c_d_a_q_2_plugins_2_source_2xml_parser_8cpp.xhtml#af03c1c87ed4ddb95f7b49d53d9117c53" target="_top" xlink:title="getNextChar">
<polygon fill="white" stroke="black" points="672,-114.5 672,-133.5 744,-133.5 744,-114.5 672,-114.5"/>
<text text-anchor="middle" x="708" y="-121.5" font-family="Helvetica,sans-Serif" font-size="10.00">getNextChar</text>
</a>
</g>
</g>
<!-- Node22&#45;&gt;Node23 -->
<g id="edge38" class="edge"><title>Node22&#45;&gt;Node23</title>
<path fill="none" stroke="midnightblue" d="M634.274,-124C643.462,-124 652.811,-124 661.609,-124"/>
<polygon fill="midnightblue" stroke="midnightblue" points="661.642,-127.5 671.642,-124 661.642,-120.5 661.642,-127.5"/>
</g>
</g>
</svg>
        <g id="navigator" transform="translate(0 0)" fill="#404254">
                <rect fill="#f2f5e9" fill-opacity="0.5" stroke="#606060" stroke-width=".5" x="0" y="0" width="60" height="60"/>
                <use id="zoomplus" xlink:href="#zoomPlus" x="17" y="9" onmousedown="handleZoom(evt,'in')"/>
                <use id="zoomminus" xlink:href="#zoomMin" x="42" y="9" onmousedown="handleZoom(evt,'out')"/>
                <use id="reset" xlink:href="#resetDef" x="30" y="36" onmousedown="handleReset()"/>
                <g id="arrowUp" xlink:href="#dirArrow" transform="translate(30 24)" onmousedown="handlePan(0,-1)">
                  <use xlink:href="#rim" fill="#404040">
                        <set attributeName="fill" to="#808080" begin="arrowUp.mouseover" end="arrowUp.mouseout"/>
                  </use>
                  <path fill="none" stroke="white" stroke-width="1.5" d="M0,-3.0v7 M-2.5,-0.5L0,-3.0L2.5,-0.5"/>
                </g>
                <g id="arrowRight" xlink:href="#dirArrow" transform="rotate(90) translate(36 -43)" onmousedown="handlePan(1,0)">
                  <use xlink:href="#rim" fill="#404040">
                        <set attributeName="fill" to="#808080" begin="arrowRight.mouseover" end="arrowRight.mouseout"/>
                  </use>
                  <path fill="none" stroke="white" stroke-width="1.5" d="M0,-3.0v7 M-2.5,-0.5L0,-3.0L2.5,-0.5"/>
                </g>
                <g id="arrowDown" xlink:href="#dirArrow" transform="rotate(180) translate(-30 -48)" onmousedown="handlePan(0,1)">
                  <use xlink:href="#rim" fill="#404040">
                        <set attributeName="fill" to="#808080" begin="arrowDown.mouseover" end="arrowDown.mouseout"/>
                  </use>
                  <path fill="none" stroke="white" stroke-width="1.5" d="M0,-3.0v7 M-2.5,-0.5L0,-3.0L2.5,-0.5"/>
                </g>
                <g id="arrowLeft" xlink:href="#dirArrow" transform="rotate(270) translate(-36 17)" onmousedown="handlePan(-1,0)">
                  <use xlink:href="#rim" fill="#404040">
                        <set attributeName="fill" to="#808080" begin="arrowLeft.mouseover" end="arrowLeft.mouseout"/>
                  </use>
                  <path fill="none" stroke="white" stroke-width="1.5" d="M0,-3.0v7 M-2.5,-0.5L0,-3.0L2.5,-0.5"/>
                </g>
        </g>
        <svg viewBox="0 0 15 15" width="100%" height="30px" preserveAspectRatio="xMaxYMin meet">
         <g id="arrow_out" transform="scale(0.3 0.3)">
          <a xlink:href="struct_x_m_l_node_acc044148e2b9b8264a320b7b6e398158_cgraph_org.svg" target="_base">
           <rect id="button" ry="5" rx="5" y="6" x="6" height="38" width="38"
                fill="#f2f5e9" fill-opacity="0.5" stroke="#606060" stroke-width="1.0"/>
           <path id="arrow"
             d="M 11.500037,31.436501 C 11.940474,20.09759 22.043105,11.32322 32.158766,21.979434 L 37.068811,17.246167 C 37.068811,17.246167 37.088388,32 37.088388,32 L 22.160133,31.978069 C 22.160133,31.978069 26.997745,27.140456 26.997745,27.140456 C 18.528582,18.264221 13.291696,25.230495 11.500037,31.436501 z"
             style="fill:#404040;"/>
          </a>
         </g>
        </svg>
</svg>
