<?xml version="1.0" encoding="UTF-8" standalone="no"?>
<!DOCTYPE svg PUBLIC "-//W3C//DTD SVG 1.1//EN"
 "http://www.w3.org/Graphics/SVG/1.1/DTD/svg11.dtd">
<!-- Generated by graphviz version 2.36.0 (20140111.2315)
 -->
<!-- Title: XMLNode::createXMLTopNode_WOSD Pages: 1 -->
<svg width="414pt" height="28pt"
 viewBox="0.00 0.00 414.00 28.00" xmlns="http://www.w3.org/2000/svg" xmlns:xlink="http://www.w3.org/1999/xlink">
<g id="graph0" class="graph" transform="scale(1 1) rotate(0) translate(4 24)">
<title>XMLNode::createXMLTopNode_WOSD</title>
<polygon fill="white" stroke="none" points="-4,4 -4,-24 410,-24 410,4 -4,4"/>
<!-- Node1 -->
<g id="node1" class="node"><title>Node1</title>
<polygon fill="#bfbfbf" stroke="black" points="0,-0.5 0,-19.5 190,-19.5 190,-0.5 0,-0.5"/>
<text text-anchor="middle" x="95" y="-7.5" font-family="Helvetica,sans-Serif" font-size="10.00">XMLNode::createXMLTopNode_WOSD</text>
</g>
<!-- Node2 -->
<g id="node2" class="node"><title>Node2</title>
<g id="a_node2"><a xlink:href="_p_d_a_q_2_core_2_source_2xml_parser_8cpp.xhtml#acf103e2756ced6c7d3f14f38f198c920" target="_top" xlink:title="GetNextToken">
<polygon fill="white" stroke="black" points="226,-0.5 226,-19.5 306,-19.5 306,-0.5 226,-0.5"/>
<text text-anchor="middle" x="266" y="-7.5" font-family="Helvetica,sans-Serif" font-size="10.00">GetNextToken</text>
</a>
</g>
</g>
<!-- Node1&#45;&gt;Node2 -->
<g id="edge1" class="edge"><title>Node1&#45;&gt;Node2</title>
<path fill="none" stroke="midnightblue" d="M200.467,-10C209.303,-10 217.83,-10 225.63,-10"/>
<polygon fill="midnightblue" stroke="midnightblue" points="200.382,-6.5001 190.382,-10 200.382,-13.5001 200.382,-6.5001"/>
</g>
<!-- Node3 -->
<g id="node3" class="node"><title>Node3</title>
<g id="a_node3"><a xlink:href="_p_d_a_q_2_core_2_source_2xml_parser_8cpp.xhtml#a8415cb910267a0487e1003a34069d012" target="_top" xlink:title="myRealloc">
<polygon fill="white" stroke="black" points="342.5,-0.5 342.5,-19.5 405.5,-19.5 405.5,-0.5 342.5,-0.5"/>
<text text-anchor="middle" x="374" y="-7.5" font-family="Helvetica,sans-Serif" font-size="10.00">myRealloc</text>
</a>
</g>
</g>
<!-- Node2&#45;&gt;Node3 -->
<g id="edge2" class="edge"><title>Node2&#45;&gt;Node3</title>
<path fill="none" stroke="midnightblue" d="M316.4,-10C325.217,-10 334.168,-10 342.27,-10"/>
<polygon fill="midnightblue" stroke="midnightblue" points="316.169,-6.5001 306.169,-10 316.169,-13.5001 316.169,-6.5001"/>
</g>
</g>
</svg>
