<?xml version="1.0" encoding="UTF-8" standalone="no"?>
<!DOCTYPE svg PUBLIC "-//W3C//DTD SVG 1.1//EN"
 "http://www.w3.org/Graphics/SVG/1.1/DTD/svg11.dtd">
<!-- Generated by graphviz version 2.36.0 (20140111.2315)
 -->
<!-- Title: XMLNode::nChildNode Pages: 1 -->
<svg width="920pt" height="325pt"
 viewBox="0.00 0.00 920.00 325.00" xmlns="http://www.w3.org/2000/svg" xmlns:xlink="http://www.w3.org/1999/xlink">
<g id="graph0" class="graph" transform="scale(1 1) rotate(0) translate(4 321)">
<title>XMLNode::nChildNode</title>
<polygon fill="white" stroke="none" points="-4,4 -4,-321 916,-321 916,4 -4,4"/>
<!-- Node1 -->
<g id="node1" class="node"><title>Node1</title>
<polygon fill="#bfbfbf" stroke="black" points="0.5,-183.5 0.5,-202.5 117.5,-202.5 117.5,-183.5 0.5,-183.5"/>
<text text-anchor="middle" x="59" y="-190.5" font-family="Helvetica,sans-Serif" font-size="10.00">XMLNode::nChildNode</text>
</g>
<!-- Node2 -->
<g id="node2" class="node"><title>Node2</title>
<g id="a_node2"><a xlink:href="_p_d_a_q_2_core_2_source_2xml_parser_8cpp.xhtml#ae6aa5a367ab3cc92b47fd92f81add72a" target="_top" xlink:title="CountLinesAndColumns">
<polygon fill="white" stroke="black" points="453,-183.5 453,-202.5 575,-202.5 575,-183.5 453,-183.5"/>
<text text-anchor="middle" x="514" y="-190.5" font-family="Helvetica,sans-Serif" font-size="10.00">CountLinesAndColumns</text>
</a>
</g>
</g>
<!-- Node1&#45;&gt;Node2 -->
<g id="edge1" class="edge"><title>Node1&#45;&gt;Node2</title>
<path fill="none" stroke="midnightblue" d="M108.023,-204.625C122.689,-207.655 138.924,-210.492 154,-212 268.118,-223.418 297.74,-216.904 412,-207 425.227,-205.853 439.373,-204.177 452.764,-202.38"/>
<polygon fill="midnightblue" stroke="midnightblue" points="108.665,-201.183 98.1541,-202.51 107.199,-208.028 108.665,-201.183"/>
</g>
<!-- Node3 -->
<g id="node3" class="node"><title>Node3</title>
<g id="a_node3"><a xlink:href="struct_x_m_l_node.xhtml#acb95f4f00e4cf3756aac0e3a53765248" target="_top" xlink:title="XMLNode::parseString">
<polygon fill="white" stroke="black" points="154,-183.5 154,-202.5 270,-202.5 270,-183.5 154,-183.5"/>
<text text-anchor="middle" x="212" y="-190.5" font-family="Helvetica,sans-Serif" font-size="10.00">XMLNode::parseString</text>
</a>
</g>
</g>
<!-- Node1&#45;&gt;Node3 -->
<g id="edge2" class="edge"><title>Node1&#45;&gt;Node3</title>
<path fill="none" stroke="midnightblue" d="M127.696,-193C136.445,-193 145.337,-193 153.892,-193"/>
<polygon fill="midnightblue" stroke="midnightblue" points="127.517,-189.5 117.517,-193 127.517,-196.5 127.517,-189.5"/>
</g>
<!-- Node18 -->
<g id="node18" class="node"><title>Node18</title>
<g id="a_node18"><a xlink:href="_x_d_a_q_2_core_2_source_2xml_8cpp.xhtml#a529bbf1c65c6dd055ba0620b7e7000ed" target="_top" xlink:title="xml_readsettings">
<polygon fill="white" stroke="black" points="166.5,-145.5 166.5,-164.5 257.5,-164.5 257.5,-145.5 166.5,-145.5"/>
<text text-anchor="middle" x="212" y="-152.5" font-family="Helvetica,sans-Serif" font-size="10.00">xml_readsettings</text>
</a>
</g>
</g>
<!-- Node1&#45;&gt;Node18 -->
<g id="edge22" class="edge"><title>Node1&#45;&gt;Node18</title>
<path fill="none" stroke="midnightblue" d="M107.843,-180.96C128.939,-175.651 153.377,-169.501 173.17,-164.52"/>
<polygon fill="midnightblue" stroke="midnightblue" points="106.947,-177.576 98.1037,-183.411 108.656,-184.365 106.947,-177.576"/>
</g>
<!-- Node3&#45;&gt;Node2 -->
<g id="edge21" class="edge"><title>Node3&#45;&gt;Node2</title>
<path fill="none" stroke="midnightblue" d="M280.231,-193C332.058,-193 403.075,-193 452.995,-193"/>
<polygon fill="midnightblue" stroke="midnightblue" points="280.134,-189.5 270.134,-193 280.134,-196.5 280.134,-189.5"/>
</g>
<!-- Node4 -->
<g id="node4" class="node"><title>Node4</title>
<g id="a_node4"><a xlink:href="struct_x_m_l_node.xhtml#a5e5968e052d58350918cd91e3535624b" target="_top" xlink:title="XMLNode::parseFile">
<polygon fill="white" stroke="black" points="306,-145.5 306,-164.5 412,-164.5 412,-145.5 306,-145.5"/>
<text text-anchor="middle" x="359" y="-152.5" font-family="Helvetica,sans-Serif" font-size="10.00">XMLNode::parseFile</text>
</a>
</g>
</g>
<!-- Node3&#45;&gt;Node4 -->
<g id="edge3" class="edge"><title>Node3&#45;&gt;Node4</title>
<path fill="none" stroke="midnightblue" d="M259.493,-180.816C279.624,-175.54 302.838,-169.456 321.673,-164.52"/>
<polygon fill="midnightblue" stroke="midnightblue" points="258.376,-177.49 249.59,-183.411 260.15,-184.262 258.376,-177.49"/>
</g>
<!-- Node4&#45;&gt;Node2 -->
<g id="edge20" class="edge"><title>Node4&#45;&gt;Node2</title>
<path fill="none" stroke="midnightblue" d="M408.477,-167.04C429.852,-172.349 454.613,-178.499 474.669,-183.48"/>
<polygon fill="midnightblue" stroke="midnightblue" points="409.157,-163.603 398.608,-164.589 407.47,-170.396 409.157,-163.603"/>
</g>
<!-- Node5 -->
<g id="node5" class="node"><title>Node5</title>
<g id="a_node5"><a xlink:href="struct_x_m_l_node.xhtml#acc044148e2b9b8264a320b7b6e398158" target="_top" xlink:title="XMLNode::openFileHelper">
<polygon fill="white" stroke="black" points="448.5,-145.5 448.5,-164.5 579.5,-164.5 579.5,-145.5 448.5,-145.5"/>
<text text-anchor="middle" x="514" y="-152.5" font-family="Helvetica,sans-Serif" font-size="10.00">XMLNode::openFileHelper</text>
</a>
</g>
</g>
<!-- Node4&#45;&gt;Node5 -->
<g id="edge4" class="edge"><title>Node4&#45;&gt;Node5</title>
<path fill="none" stroke="midnightblue" d="M422.464,-155C430.979,-155 439.735,-155 448.289,-155"/>
<polygon fill="midnightblue" stroke="midnightblue" points="422.226,-151.5 412.226,-155 422.226,-158.5 422.226,-151.5"/>
</g>
<!-- Node13 -->
<g id="node13" class="node"><title>Node13</title>
<g id="a_node13"><a xlink:href="_p_d_a_q_2_core_2_source_2xml_parser_8cpp.xhtml#af77e3e2685487b9c492b20c36f3b864a" target="_top" xlink:title="_strnicmp">
<polygon fill="white" stroke="black" points="665.5,-19.5 665.5,-38.5 724.5,-38.5 724.5,-19.5 665.5,-19.5"/>
<text text-anchor="middle" x="695" y="-26.5" font-family="Helvetica,sans-Serif" font-size="10.00">_strnicmp</text>
</a>
</g>
</g>
<!-- Node4&#45;&gt;Node13 -->
<g id="edge19" class="edge"><title>Node4&#45;&gt;Node13</title>
<path fill="none" stroke="midnightblue" d="M389.083,-141.072C435.985,-119.018 531.618,-75.7217 616,-48 632.022,-42.7363 650.324,-38.2038 665.171,-34.8872"/>
<polygon fill="midnightblue" stroke="midnightblue" points="387.381,-138.005 379.835,-145.443 390.372,-144.334 387.381,-138.005"/>
</g>
<!-- Node6 -->
<g id="node6" class="node"><title>Node6</title>
<g id="a_node6"><a xlink:href="class_a_d_c_manager1720.xhtml#aae342ccd8bf1c253c455e195bfd82dfe" target="_top" xlink:title="ADCManager1720::Init">
<polygon fill="white" stroke="black" points="637,-259.5 637,-278.5 753,-278.5 753,-259.5 637,-259.5"/>
<text text-anchor="middle" x="695" y="-266.5" font-family="Helvetica,sans-Serif" font-size="10.00">ADCManager1720::Init</text>
</a>
</g>
</g>
<!-- Node5&#45;&gt;Node6 -->
<g id="edge5" class="edge"><title>Node5&#45;&gt;Node6</title>
<path fill="none" stroke="midnightblue" d="M573.616,-169.336C575.863,-170.747 578.004,-172.297 580,-174 608.432,-198.261 587.024,-226.392 616,-250 622.051,-254.93 629.187,-258.612 636.644,-261.357"/>
<polygon fill="midnightblue" stroke="midnightblue" points="574.994,-166.106 564.514,-164.551 571.737,-172.302 574.994,-166.106"/>
</g>
<!-- Node7 -->
<g id="node7" class="node"><title>Node7</title>
<g id="a_node7"><a xlink:href="class_a_d_c_manager1724.xhtml#a6de2521b9c793edcf14aeaeefeb62787" target="_top" xlink:title="ADCManager1724::Init">
<polygon fill="white" stroke="black" points="637,-221.5 637,-240.5 753,-240.5 753,-221.5 637,-221.5"/>
<text text-anchor="middle" x="695" y="-228.5" font-family="Helvetica,sans-Serif" font-size="10.00">ADCManager1724::Init</text>
</a>
</g>
</g>
<!-- Node5&#45;&gt;Node7 -->
<g id="edge6" class="edge"><title>Node5&#45;&gt;Node7</title>
<path fill="none" stroke="midnightblue" d="M568.691,-168.172C572.628,-169.893 576.445,-171.828 580,-174 599.853,-186.128 595.877,-200.326 616,-212 622.631,-215.847 630.013,-218.917 637.517,-221.368"/>
<polygon fill="midnightblue" stroke="midnightblue" points="569.939,-164.902 559.35,-164.53 567.396,-171.424 569.939,-164.902"/>
</g>
<!-- Node8 -->
<g id="node8" class="node"><title>Node8</title>
<g id="a_node8"><a xlink:href="class_a_d_c_manager1730.xhtml#adb6d45f2024f4a52d366a88d1c7f229d" target="_top" xlink:title="ADCManager1730::Init">
<polygon fill="white" stroke="black" points="637,-183.5 637,-202.5 753,-202.5 753,-183.5 637,-183.5"/>
<text text-anchor="middle" x="695" y="-190.5" font-family="Helvetica,sans-Serif" font-size="10.00">ADCManager1730::Init</text>
</a>
</g>
</g>
<!-- Node5&#45;&gt;Node8 -->
<g id="edge7" class="edge"><title>Node5&#45;&gt;Node8</title>
<path fill="none" stroke="midnightblue" d="M570.024,-166.681C595.408,-172.07 625.161,-178.386 649.156,-183.48"/>
<polygon fill="midnightblue" stroke="midnightblue" points="570.678,-163.242 560.169,-164.589 569.224,-170.089 570.678,-163.242"/>
</g>
<!-- Node9 -->
<g id="node9" class="node"><title>Node9</title>
<g id="a_node9"><a xlink:href="class_scope_manager.xhtml#abe246d1b817d85a9cba7af3441a4df04" target="_top" xlink:title="ScopeManager::ShowEvent">
<polygon fill="white" stroke="black" points="626,-145.5 626,-164.5 764,-164.5 764,-145.5 626,-145.5"/>
<text text-anchor="middle" x="695" y="-152.5" font-family="Helvetica,sans-Serif" font-size="10.00">ScopeManager::ShowEvent</text>
</a>
</g>
</g>
<!-- Node5&#45;&gt;Node9 -->
<g id="edge8" class="edge"><title>Node5&#45;&gt;Node9</title>
<path fill="none" stroke="midnightblue" d="M589.967,-155C601.866,-155 614.118,-155 625.849,-155"/>
<polygon fill="midnightblue" stroke="midnightblue" points="589.623,-151.5 579.623,-155 589.623,-158.5 589.623,-151.5"/>
</g>
<!-- Node11 -->
<g id="node11" class="node"><title>Node11</title>
<g id="a_node11"><a xlink:href="class_slowcontrol_manager.xhtml#a36ab5157f5a740b9058517b77d1ce38f" target="_top" xlink:title="SlowcontrolManager\l::ShowStatus">
<polygon fill="white" stroke="black" points="642.5,-96 642.5,-126 747.5,-126 747.5,-96 642.5,-96"/>
<text text-anchor="start" x="650.5" y="-114" font-family="Helvetica,sans-Serif" font-size="10.00">SlowcontrolManager</text>
<text text-anchor="middle" x="695" y="-103" font-family="Helvetica,sans-Serif" font-size="10.00">::ShowStatus</text>
</a>
</g>
</g>
<!-- Node5&#45;&gt;Node11 -->
<g id="edge10" class="edge"><title>Node5&#45;&gt;Node11</title>
<path fill="none" stroke="midnightblue" d="M563.599,-143.054C587.983,-137.06 617.527,-129.798 642.323,-123.703"/>
<polygon fill="midnightblue" stroke="midnightblue" points="562.716,-139.667 553.84,-145.453 564.387,-146.464 562.716,-139.667"/>
</g>
<!-- Node12 -->
<g id="node12" class="node"><title>Node12</title>
<g id="a_node12"><a xlink:href="class_storage_manager.xhtml#ab16a945d003852d02556daf3610a9aac" target="_top" xlink:title="StorageManager::SaveContainer">
<polygon fill="white" stroke="black" points="616,-57.5 616,-76.5 774,-76.5 774,-57.5 616,-57.5"/>
<text text-anchor="middle" x="695" y="-64.5" font-family="Helvetica,sans-Serif" font-size="10.00">StorageManager::SaveContainer</text>
</a>
</g>
</g>
<!-- Node5&#45;&gt;Node12 -->
<g id="edge12" class="edge"><title>Node5&#45;&gt;Node12</title>
<path fill="none" stroke="midnightblue" d="M533.761,-139.084C553.158,-123.407 584.909,-99.8523 616,-86 624.53,-82.1996 633.938,-79.087 643.18,-76.5626"/>
<polygon fill="midnightblue" stroke="midnightblue" points="531.5,-136.412 526.004,-145.47 535.949,-141.817 531.5,-136.412"/>
</g>
<!-- Node5&#45;&gt;Node13 -->
<g id="edge14" class="edge"><title>Node5&#45;&gt;Node13</title>
<path fill="none" stroke="midnightblue" d="M531.344,-138.066C544.539,-124.356 563.549,-104.513 580,-87 596.15,-69.8067 595.673,-59.9689 616,-48 631.013,-39.1602 649.961,-34.423 665.423,-31.8896"/>
<polygon fill="midnightblue" stroke="midnightblue" points="528.728,-135.736 524.31,-145.366 533.769,-140.593 528.728,-135.736"/>
</g>
<!-- Node16 -->
<g id="node16" class="node"><title>Node16</title>
<g id="a_node16"><a xlink:href="_p_d_a_q_2_core_2_source_2xml_8cpp.xhtml#a8251b051736c5146c1985edc6cb357e6" target="_top" xlink:title="xml_readsettings">
<polygon fill="white" stroke="black" points="649.5,-297.5 649.5,-316.5 740.5,-316.5 740.5,-297.5 649.5,-297.5"/>
<text text-anchor="middle" x="695" y="-304.5" font-family="Helvetica,sans-Serif" font-size="10.00">xml_readsettings</text>
</a>
</g>
</g>
<!-- Node5&#45;&gt;Node16 -->
<g id="edge17" class="edge"><title>Node5&#45;&gt;Node16</title>
<path fill="none" stroke="midnightblue" d="M575.266,-169.972C576.934,-171.211 578.519,-172.551 580,-174 617.972,-211.165 577.193,-251.708 616,-288 625.06,-296.473 637.248,-301.351 649.294,-304.109"/>
<polygon fill="midnightblue" stroke="midnightblue" points="576.706,-166.753 566.335,-164.585 573.091,-172.747 576.706,-166.753"/>
</g>
<!-- Node10 -->
<g id="node10" class="node"><title>Node10</title>
<g id="a_node10"><a xlink:href="_multi_d_a_q_8cpp.xhtml#adedb285b02c41bde2158ded9cc9fd7ac" target="_top" xlink:title="main">
<polygon fill="white" stroke="black" points="842,-101.5 842,-120.5 880,-120.5 880,-101.5 842,-101.5"/>
<text text-anchor="middle" x="861" y="-108.5" font-family="Helvetica,sans-Serif" font-size="10.00">main</text>
</a>
</g>
</g>
<!-- Node9&#45;&gt;Node10 -->
<g id="edge9" class="edge"><title>Node9&#45;&gt;Node10</title>
<path fill="none" stroke="midnightblue" d="M743.581,-142.97C753.636,-140.38 764.176,-137.63 774,-135 797.509,-128.707 824.528,-121.106 841.911,-116.168"/>
<polygon fill="midnightblue" stroke="midnightblue" points="742.549,-139.622 733.732,-145.496 744.288,-146.402 742.549,-139.622"/>
</g>
<!-- Node11&#45;&gt;Node10 -->
<g id="edge11" class="edge"><title>Node11&#45;&gt;Node10</title>
<path fill="none" stroke="midnightblue" d="M758.256,-111C788.076,-111 821.599,-111 841.744,-111"/>
<polygon fill="midnightblue" stroke="midnightblue" points="757.891,-107.5 747.891,-111 757.891,-114.5 757.891,-107.5"/>
</g>
<!-- Node12&#45;&gt;Node10 -->
<g id="edge13" class="edge"><title>Node12&#45;&gt;Node10</title>
<path fill="none" stroke="midnightblue" d="M746.394,-78.9314C755.596,-81.2078 765.1,-83.6236 774,-86 797.585,-92.2973 824.587,-100.273 841.945,-105.501"/>
<polygon fill="midnightblue" stroke="midnightblue" points="747.115,-75.5047 736.57,-76.5244 745.449,-82.3036 747.115,-75.5047"/>
</g>
<!-- Node14 -->
<g id="node14" class="node"><title>Node14</title>
<g id="a_node14"><a xlink:href="_p_d_a_q_2_core_2_source_2xml_parser_8cpp.xhtml#a9a625f17c09a36e3ad532cdf16072609" target="_top" xlink:title="charmemset">
<polygon fill="white" stroke="black" points="825.5,-0.5 825.5,-19.5 896.5,-19.5 896.5,-0.5 825.5,-0.5"/>
<text text-anchor="middle" x="861" y="-7.5" font-family="Helvetica,sans-Serif" font-size="10.00">charmemset</text>
</a>
</g>
</g>
<!-- Node13&#45;&gt;Node14 -->
<g id="edge15" class="edge"><title>Node13&#45;&gt;Node14</title>
<path fill="none" stroke="midnightblue" d="M734.605,-24.5274C762.068,-21.3458 798.653,-17.1073 825.214,-14.0301"/>
<polygon fill="midnightblue" stroke="midnightblue" points="734.097,-21.0628 724.567,-25.6905 734.903,-28.0163 734.097,-21.0628"/>
</g>
<!-- Node15 -->
<g id="node15" class="node"><title>Node15</title>
<g id="a_node15"><a xlink:href="_p_d_a_q_2_core_2_source_2xml_parser_8cpp.xhtml#ad9a5c911a8e21bb89427d29d33e2797e" target="_top" xlink:title="myIsTextWideChar">
<polygon fill="white" stroke="black" points="810.5,-38.5 810.5,-57.5 911.5,-57.5 911.5,-38.5 810.5,-38.5"/>
<text text-anchor="middle" x="861" y="-45.5" font-family="Helvetica,sans-Serif" font-size="10.00">myIsTextWideChar</text>
</a>
</g>
</g>
<!-- Node13&#45;&gt;Node15 -->
<g id="edge16" class="edge"><title>Node13&#45;&gt;Node15</title>
<path fill="none" stroke="midnightblue" d="M734.784,-33.4933C757.346,-36.1071 786.018,-39.4289 810.231,-42.2341"/>
<polygon fill="midnightblue" stroke="midnightblue" points="734.903,-29.9837 724.567,-32.3095 734.097,-36.9372 734.903,-29.9837"/>
</g>
<!-- Node17 -->
<g id="node17" class="node"><title>Node17</title>
<g id="a_node17"><a xlink:href="_z_d_a_q_8cpp.xhtml#a0ddf1224851353fc92bfbff6f499fa97" target="_top" xlink:title="main">
<polygon fill="white" stroke="black" points="842,-297.5 842,-316.5 880,-316.5 880,-297.5 842,-297.5"/>
<text text-anchor="middle" x="861" y="-304.5" font-family="Helvetica,sans-Serif" font-size="10.00">main</text>
</a>
</g>
</g>
<!-- Node16&#45;&gt;Node17 -->
<g id="edge18" class="edge"><title>Node16&#45;&gt;Node17</title>
<path fill="none" stroke="midnightblue" d="M751.216,-307C782.646,-307 819.974,-307 841.724,-307"/>
<polygon fill="midnightblue" stroke="midnightblue" points="750.814,-303.5 740.814,-307 750.814,-310.5 750.814,-303.5"/>
</g>
</g>
</svg>
