<?xml version="1.0" encoding="UTF-8" standalone="no"?>
<!DOCTYPE svg PUBLIC "-//W3C//DTD SVG 1.1//EN"
 "http://www.w3.org/Graphics/SVG/1.1/DTD/svg11.dtd">
<!-- Generated by graphviz version 2.36.0 (20140111.2315)
 -->
<!-- Title: XMLNode::getText Pages: 1 -->
<svg width="376pt" height="306pt"
 viewBox="0.00 0.00 376.00 306.00" xmlns="http://www.w3.org/2000/svg" xmlns:xlink="http://www.w3.org/1999/xlink">
<g id="graph0" class="graph" transform="scale(1 1) rotate(0) translate(4 302)">
<title>XMLNode::getText</title>
<polygon fill="white" stroke="none" points="-4,4 -4,-302 372,-302 372,4 -4,4"/>
<!-- Node1 -->
<g id="node1" class="node"><title>Node1</title>
<polygon fill="#bfbfbf" stroke="black" points="0.5,-145.5 0.5,-164.5 99.5,-164.5 99.5,-145.5 0.5,-145.5"/>
<text text-anchor="middle" x="50" y="-152.5" font-family="Helvetica,sans-Serif" font-size="10.00">XMLNode::getText</text>
</g>
<!-- Node2 -->
<g id="node2" class="node"><title>Node2</title>
<g id="a_node2"><a xlink:href="_p_d_a_q_2_core_2_source_2xml_parser_8cpp.xhtml#a9a625f17c09a36e3ad532cdf16072609" target="_top" xlink:title="charmemset">
<polygon fill="white" stroke="black" points="179.5,-278.5 179.5,-297.5 250.5,-297.5 250.5,-278.5 179.5,-278.5"/>
<text text-anchor="middle" x="215" y="-285.5" font-family="Helvetica,sans-Serif" font-size="10.00">charmemset</text>
</a>
</g>
</g>
<!-- Node1&#45;&gt;Node2 -->
<g id="edge1" class="edge"><title>Node1&#45;&gt;Node2</title>
<path fill="none" stroke="midnightblue" d="M59.7788,-173.787C72.7405,-199.394 99.466,-244.827 136,-269 148.786,-277.46 164.985,-282.158 179.304,-284.764"/>
<polygon fill="midnightblue" stroke="midnightblue" points="62.8896,-172.181 55.3539,-164.733 56.6006,-175.255 62.8896,-172.181"/>
</g>
<!-- Node3 -->
<g id="node3" class="node"><title>Node3</title>
<g id="a_node3"><a xlink:href="class_a_d_c_manager1724.xhtml#a6de2521b9c793edcf14aeaeefeb62787" target="_top" xlink:title="ADCManager1724::Init">
<polygon fill="white" stroke="black" points="157,-240.5 157,-259.5 273,-259.5 273,-240.5 157,-240.5"/>
<text text-anchor="middle" x="215" y="-247.5" font-family="Helvetica,sans-Serif" font-size="10.00">ADCManager1724::Init</text>
</a>
</g>
</g>
<!-- Node1&#45;&gt;Node3 -->
<g id="edge2" class="edge"><title>Node1&#45;&gt;Node3</title>
<path fill="none" stroke="midnightblue" d="M65.6118,-172.318C81.262,-189.745 107.695,-216.111 136,-231 143.401,-234.893 151.618,-238.005 159.861,-240.488"/>
<polygon fill="midnightblue" stroke="midnightblue" points="68.0528,-169.793 58.8342,-164.571 62.7843,-174.402 68.0528,-169.793"/>
</g>
<!-- Node4 -->
<g id="node4" class="node"><title>Node4</title>
<g id="a_node4"><a xlink:href="class_a_d_c_manager1720.xhtml#aae342ccd8bf1c253c455e195bfd82dfe" target="_top" xlink:title="ADCManager1720::Init">
<polygon fill="white" stroke="black" points="157,-202.5 157,-221.5 273,-221.5 273,-202.5 157,-202.5"/>
<text text-anchor="middle" x="215" y="-209.5" font-family="Helvetica,sans-Serif" font-size="10.00">ADCManager1720::Init</text>
</a>
</g>
</g>
<!-- Node1&#45;&gt;Node4 -->
<g id="edge3" class="edge"><title>Node1&#45;&gt;Node4</title>
<path fill="none" stroke="midnightblue" d="M78.8567,-168.995C95.2074,-176.817 116.439,-186.307 136,-193 146.418,-196.565 157.834,-199.738 168.64,-202.423"/>
<polygon fill="midnightblue" stroke="midnightblue" points="80.3674,-165.838 69.8432,-164.616 77.3085,-172.134 80.3674,-165.838"/>
</g>
<!-- Node5 -->
<g id="node5" class="node"><title>Node5</title>
<g id="a_node5"><a xlink:href="class_a_d_c_manager1730.xhtml#adb6d45f2024f4a52d366a88d1c7f229d" target="_top" xlink:title="ADCManager1730::Init">
<polygon fill="white" stroke="black" points="157,-164.5 157,-183.5 273,-183.5 273,-164.5 157,-164.5"/>
<text text-anchor="middle" x="215" y="-171.5" font-family="Helvetica,sans-Serif" font-size="10.00">ADCManager1730::Init</text>
</a>
</g>
</g>
<!-- Node1&#45;&gt;Node5 -->
<g id="edge4" class="edge"><title>Node1&#45;&gt;Node5</title>
<path fill="none" stroke="midnightblue" d="M110.217,-161.903C125.411,-163.674 141.724,-165.575 156.813,-167.334"/>
<polygon fill="midnightblue" stroke="midnightblue" points="110.243,-158.382 99.9054,-160.701 109.433,-165.335 110.243,-158.382"/>
</g>
<!-- Node6 -->
<g id="node6" class="node"><title>Node6</title>
<g id="a_node6"><a xlink:href="class_storage_manager.xhtml#ab16a945d003852d02556daf3610a9aac" target="_top" xlink:title="StorageManager::SaveContainer">
<polygon fill="white" stroke="black" points="136,-126.5 136,-145.5 294,-145.5 294,-126.5 136,-126.5"/>
<text text-anchor="middle" x="215" y="-133.5" font-family="Helvetica,sans-Serif" font-size="10.00">StorageManager::SaveContainer</text>
</a>
</g>
</g>
<!-- Node1&#45;&gt;Node6 -->
<g id="edge5" class="edge"><title>Node1&#45;&gt;Node6</title>
<path fill="none" stroke="midnightblue" d="M109.971,-148.126C118.387,-147.145 127.15,-146.124 135.862,-145.108"/>
<polygon fill="midnightblue" stroke="midnightblue" points="109.433,-144.665 99.9054,-149.299 110.243,-151.618 109.433,-144.665"/>
</g>
<!-- Node8 -->
<g id="node8" class="node"><title>Node8</title>
<g id="a_node8"><a xlink:href="class_scope_manager.xhtml#abe246d1b817d85a9cba7af3441a4df04" target="_top" xlink:title="ScopeManager::ShowEvent">
<polygon fill="white" stroke="black" points="146,-88.5 146,-107.5 284,-107.5 284,-88.5 146,-88.5"/>
<text text-anchor="middle" x="215" y="-95.5" font-family="Helvetica,sans-Serif" font-size="10.00">ScopeManager::ShowEvent</text>
</a>
</g>
</g>
<!-- Node1&#45;&gt;Node8 -->
<g id="edge7" class="edge"><title>Node1&#45;&gt;Node8</title>
<path fill="none" stroke="midnightblue" d="M78.8567,-141.005C95.2074,-133.183 116.439,-123.693 136,-117 146.418,-113.435 157.834,-110.262 168.64,-107.577"/>
<polygon fill="midnightblue" stroke="midnightblue" points="77.3085,-137.866 69.8432,-145.384 80.3674,-144.162 77.3085,-137.866"/>
</g>
<!-- Node9 -->
<g id="node9" class="node"><title>Node9</title>
<g id="a_node9"><a xlink:href="class_slowcontrol_manager.xhtml#a36ab5157f5a740b9058517b77d1ce38f" target="_top" xlink:title="SlowcontrolManager\l::ShowStatus">
<polygon fill="white" stroke="black" points="162.5,-39 162.5,-69 267.5,-69 267.5,-39 162.5,-39"/>
<text text-anchor="start" x="170.5" y="-57" font-family="Helvetica,sans-Serif" font-size="10.00">SlowcontrolManager</text>
<text text-anchor="middle" x="215" y="-46" font-family="Helvetica,sans-Serif" font-size="10.00">::ShowStatus</text>
</a>
</g>
</g>
<!-- Node1&#45;&gt;Node9 -->
<g id="edge9" class="edge"><title>Node1&#45;&gt;Node9</title>
<path fill="none" stroke="midnightblue" d="M66.0891,-137.816C81.9492,-120.714 108.391,-94.8029 136,-79 144.145,-74.3377 153.275,-70.4178 162.341,-67.1672"/>
<polygon fill="midnightblue" stroke="midnightblue" points="63.3183,-135.661 59.1945,-145.42 68.5042,-140.363 63.3183,-135.661"/>
</g>
<!-- Node10 -->
<g id="node10" class="node"><title>Node10</title>
<g id="a_node10"><a xlink:href="_p_d_a_q_2_core_2_source_2xml_8cpp.xhtml#a8251b051736c5146c1985edc6cb357e6" target="_top" xlink:title="xml_readsettings">
<polygon fill="white" stroke="black" points="169.5,-0.5 169.5,-19.5 260.5,-19.5 260.5,-0.5 169.5,-0.5"/>
<text text-anchor="middle" x="215" y="-7.5" font-family="Helvetica,sans-Serif" font-size="10.00">xml_readsettings</text>
</a>
</g>
</g>
<!-- Node1&#45;&gt;Node10 -->
<g id="edge11" class="edge"><title>Node1&#45;&gt;Node10</title>
<path fill="none" stroke="midnightblue" d="M58.5406,-135.868C70.5731,-107.913 96.8255,-56.2708 136,-29 145.723,-22.2314 157.588,-17.863 169.102,-15.047"/>
<polygon fill="midnightblue" stroke="midnightblue" points="55.218,-134.744 54.628,-145.323 61.686,-137.421 55.218,-134.744"/>
</g>
<!-- Node7 -->
<g id="node7" class="node"><title>Node7</title>
<g id="a_node7"><a xlink:href="_multi_d_a_q_8cpp.xhtml#adedb285b02c41bde2158ded9cc9fd7ac" target="_top" xlink:title="main">
<polygon fill="white" stroke="black" points="330,-88.5 330,-107.5 368,-107.5 368,-88.5 330,-88.5"/>
<text text-anchor="middle" x="349" y="-95.5" font-family="Helvetica,sans-Serif" font-size="10.00">main</text>
</a>
</g>
</g>
<!-- Node6&#45;&gt;Node7 -->
<g id="edge6" class="edge"><title>Node6&#45;&gt;Node7</title>
<path fill="none" stroke="midnightblue" d="M268.598,-123.945C277.128,-121.773 285.837,-119.424 294,-117 306.004,-113.436 319.273,-108.777 329.654,-104.965"/>
<polygon fill="midnightblue" stroke="midnightblue" points="267.569,-120.594 258.711,-126.407 269.261,-127.387 267.569,-120.594"/>
</g>
<!-- Node8&#45;&gt;Node7 -->
<g id="edge8" class="edge"><title>Node8&#45;&gt;Node7</title>
<path fill="none" stroke="midnightblue" d="M294.532,-98C307.756,-98 320.284,-98 329.884,-98"/>
<polygon fill="midnightblue" stroke="midnightblue" points="294.32,-94.5001 284.32,-98 294.32,-101.5 294.32,-94.5001"/>
</g>
<!-- Node9&#45;&gt;Node7 -->
<g id="edge10" class="edge"><title>Node9&#45;&gt;Node7</title>
<path fill="none" stroke="midnightblue" d="M273.83,-72.3345C280.638,-74.5523 287.479,-76.8084 294,-79 305.87,-82.9895 319.137,-87.6546 329.55,-91.3638"/>
<polygon fill="midnightblue" stroke="midnightblue" points="274.512,-68.8765 263.92,-69.1244 272.355,-75.5358 274.512,-68.8765"/>
</g>
<!-- Node11 -->
<g id="node11" class="node"><title>Node11</title>
<g id="a_node11"><a xlink:href="_z_d_a_q_8cpp.xhtml#a0ddf1224851353fc92bfbff6f499fa97" target="_top" xlink:title="main">
<polygon fill="white" stroke="black" points="330,-0.5 330,-19.5 368,-19.5 368,-0.5 330,-0.5"/>
<text text-anchor="middle" x="349" y="-7.5" font-family="Helvetica,sans-Serif" font-size="10.00">main</text>
</a>
</g>
</g>
<!-- Node10&#45;&gt;Node11 -->
<g id="edge12" class="edge"><title>Node10&#45;&gt;Node11</title>
<path fill="none" stroke="midnightblue" d="M270.863,-10C291.923,-10 314.54,-10 329.802,-10"/>
<polygon fill="midnightblue" stroke="midnightblue" points="270.689,-6.5001 260.689,-10 270.689,-13.5001 270.689,-6.5001"/>
</g>
</g>
</svg>
