<?xml version="1.0" encoding="UTF-8" standalone="no"?>
<!DOCTYPE svg PUBLIC "-//W3C//DTD SVG 1.1//EN"
 "http://www.w3.org/Graphics/SVG/1.1/DTD/svg11.dtd">
<!-- Generated by graphviz version 2.36.0 (20140111.2315)
 -->
<!-- Title: MXML_WRITER Pages: 1 -->
<svg width="150pt" height="162pt"
 viewBox="0.00 0.00 150.00 162.00" xmlns="http://www.w3.org/2000/svg" xmlns:xlink="http://www.w3.org/1999/xlink">
<g id="graph0" class="graph" transform="scale(1 1) rotate(0) translate(4 158)">
<title>MXML_WRITER</title>
<polygon fill="white" stroke="none" points="-4,4 -4,-158 146,-158 146,4 -4,4"/>
<!-- Node1 -->
<g id="node1" class="node"><title>Node1</title>
<polygon fill="#bfbfbf" stroke="black" points="-0.5,-0.5 -0.5,-19.5 90.5,-19.5 90.5,-0.5 -0.5,-0.5"/>
<text text-anchor="middle" x="45" y="-7.5" font-family="Helvetica,sans-Serif" font-size="10.00">MXML_WRITER</text>
</g>
<!-- Node2 -->
<g id="node2" class="node"><title>Node2</title>
<polygon fill="white" stroke="#bfbfbf" points="2.5,-134.5 2.5,-153.5 37.5,-153.5 37.5,-134.5 2.5,-134.5"/>
<text text-anchor="middle" x="20" y="-141.5" font-family="Helvetica,sans-Serif" font-size="10.00">char</text>
</g>
<!-- Node2&#45;&gt;Node1 -->
<g id="edge1" class="edge"><title>Node2&#45;&gt;Node1</title>
<path fill="none" stroke="#9a32cd" stroke-dasharray="5,2" d="M16.3568,-124.375C12.9871,-102.794 9.99055,-66.5471 21,-38 23.7532,-30.8611 29.3329,-24.3944 34.4199,-19.5806"/>
<polygon fill="#9a32cd" stroke="#9a32cd" points="12.9511,-125.217 18.1307,-134.459 19.8453,-124.004 12.9511,-125.217"/>
<text text-anchor="middle" x="35" y="-80" font-family="Helvetica,sans-Serif" font-size="10.00"> stack</text>
<text text-anchor="middle" x="35" y="-69" font-family="Helvetica,sans-Serif" font-size="10.00">buffer</text>
</g>
<!-- Node3 -->
<g id="node3" class="node"><title>Node3</title>
<polygon fill="white" stroke="#bfbfbf" points="56.5,-134.5 56.5,-153.5 85.5,-153.5 85.5,-134.5 56.5,-134.5"/>
<text text-anchor="middle" x="71" y="-141.5" font-family="Helvetica,sans-Serif" font-size="10.00">int</text>
</g>
<!-- Node3&#45;&gt;Node1 -->
<g id="edge2" class="edge"><title>Node3&#45;&gt;Node1</title>
<path fill="none" stroke="#9a32cd" stroke-dasharray="5,2" d="M67.3118,-124.275C61.5939,-95.2462 50.8181,-40.5381 46.6784,-19.5212"/>
<polygon fill="#9a32cd" stroke="#9a32cd" points="63.9274,-125.204 69.2941,-134.339 70.7954,-123.851 63.9274,-125.204"/>
<text text-anchor="middle" x="103.5" y="-107.5" font-family="Helvetica,sans-Serif" font-size="10.00"> fh</text>
<text text-anchor="middle" x="103.5" y="-96.5" font-family="Helvetica,sans-Serif" font-size="10.00">buffer_len</text>
<text text-anchor="middle" x="103.5" y="-85.5" font-family="Helvetica,sans-Serif" font-size="10.00">buffer_size</text>
<text text-anchor="middle" x="103.5" y="-74.5" font-family="Helvetica,sans-Serif" font-size="10.00">level</text>
<text text-anchor="middle" x="103.5" y="-63.5" font-family="Helvetica,sans-Serif" font-size="10.00">translate</text>
<text text-anchor="middle" x="103.5" y="-52.5" font-family="Helvetica,sans-Serif" font-size="10.00">data_was_written</text>
<text text-anchor="middle" x="103.5" y="-41.5" font-family="Helvetica,sans-Serif" font-size="10.00">element_is_open</text>
</g>
</g>
</svg>
