<?xml version="1.0" encoding="UTF-8" standalone="no"?>
<!DOCTYPE svg PUBLIC "-//W3C//DTD SVG 1.1//EN"
 "http://www.w3.org/Graphics/SVG/1.1/DTD/svg11.dtd">
<!-- Generated by graphviz version 2.36.0 (20140111.2315)
 -->
<!-- Title: XMLNode::getError Pages: 1 -->
<!--zoomable 370 -->
<svg id="main" version="1.1" xmlns="http://www.w3.org/2000/svg" xmlns:xlink="http://www.w3.org/1999/xlink" xml:space="preserve" onload="init(evt)">
<style type="text/css"><![CDATA[
.edge:hover path { stroke: red; }
.edge:hover polygon { stroke: red; fill: red; }
]]></style>
<script type="text/javascript"><![CDATA[
var edges = document.getElementsByTagName('g');
if (edges && edges.length) {
  for (var i=0;i<edges.length;i++) {
    if (edges[i].id.substr(0,4)=='edge') {
      edges[i].setAttribute('class','edge');
    }
  }
}
]]></script>
        <defs>
                <circle id="rim" cx="0" cy="0" r="7"/>
                <circle id="rim2" cx="0" cy="0" r="3.5"/>
                <g id="zoomPlus">
                        <use xlink:href="#rim" fill="#404040">
                                <set attributeName="fill" to="#808080" begin="zoomplus.mouseover" end="zoomplus.mouseout"/>
                        </use>
                        <path d="M-4,0h8M0,-4v8" fill="none" stroke="white" stroke-width="1.5" pointer-events="none"/>
                </g>
                <g id="zoomMin">
                        <use xlink:href="#rim" fill="#404040">
                                <set attributeName="fill" to="#808080" begin="zoomminus.mouseover" end="zoomminus.mouseout"/>
                        </use>
                        <path d="M-4,0h8" fill="none" stroke="white" stroke-width="1.5" pointer-events="none"/>
                </g>
                <g id="dirArrow">
                        <path fill="none" stroke="white" stroke-width="1.5" d="M0,-3.0v7 M-2.5,-0.5L0,-3.0L2.5,-0.5"/>
                </g>
               <g id="resetDef">
                       <use xlink:href="#rim2" fill="#404040">
                               <set attributeName="fill" to="#808080" begin="reset.mouseover" end="reset.mouseout"/>
                       </use>
               </g>
        </defs>

<script type="text/javascript">
var viewWidth = 506;
var viewHeight = 370;
var sectionId = 'dynsection-46';
</script>
<script xlink:href="svgpan.js"/>
<svg id="graph" class="graph">
<g id="viewport">
<title>XMLNode::getError</title>
<polygon fill="white" stroke="none" points="-4,4 -4,-366 502,-366 502,4 -4,4"/>
<!-- Node1 -->
<g id="node1" class="node"><title>Node1</title>
<polygon fill="#bfbfbf" stroke="black" points="0.5,-171.5 0.5,-190.5 101.5,-190.5 101.5,-171.5 0.5,-171.5"/>
<text text-anchor="middle" x="51" y="-178.5" font-family="Helvetica,sans-Serif" font-size="10.00">XMLNode::getError</text>
</g>
<!-- Node2 -->
<g id="node2" class="node"><title>Node2</title>
<g id="a_node2"><a xlink:href="_c_d_a_q_2_plugins_2_source_2xml_parser_8cpp.xhtml#ad9a5c911a8e21bb89427d29d33e2797e" target="_top" xlink:title="myIsTextWideChar">
<polygon fill="white" stroke="black" points="138.5,-171.5 138.5,-190.5 239.5,-190.5 239.5,-171.5 138.5,-171.5"/>
<text text-anchor="middle" x="189" y="-178.5" font-family="Helvetica,sans-Serif" font-size="10.00">myIsTextWideChar</text>
</a>
</g>
</g>
<!-- Node1&#45;&gt;Node2 -->
<g id="edge1" class="edge"><title>Node1&#45;&gt;Node2</title>
<path fill="none" stroke="midnightblue" d="M101.869,-181C110.369,-181 119.277,-181 128.006,-181"/>
<polygon fill="midnightblue" stroke="midnightblue" points="128.137,-184.5 138.137,-181 128.137,-177.5 128.137,-184.5"/>
</g>
<!-- Node3 -->
<g id="node3" class="node"><title>Node3</title>
<g id="a_node3"><a xlink:href="_c_d_a_q_2_plugins_2_source_2xml_parser_8cpp.xhtml#af77e3e2685487b9c492b20c36f3b864a" target="_top" xlink:title="_strnicmp">
<polygon fill="white" stroke="black" points="309.5,-342.5 309.5,-361.5 368.5,-361.5 368.5,-342.5 309.5,-342.5"/>
<text text-anchor="middle" x="339" y="-349.5" font-family="Helvetica,sans-Serif" font-size="10.00">_strnicmp</text>
</a>
</g>
</g>
<!-- Node2&#45;&gt;Node3 -->
<g id="edge2" class="edge"><title>Node2&#45;&gt;Node3</title>
<path fill="none" stroke="midnightblue" d="M192.751,-190.862C200.787,-217.848 226.829,-293.51 276,-333 282.814,-338.472 291.196,-342.373 299.569,-345.152"/>
<polygon fill="midnightblue" stroke="midnightblue" points="298.722,-348.55 309.299,-347.925 300.642,-341.818 298.722,-348.55"/>
</g>
<!-- Node4 -->
<g id="node4" class="node"><title>Node4</title>
<g id="a_node4"><a xlink:href="_c_d_a_q_2_plugins_2_source_2xml_parser_8cpp.xhtml#ae4635e3ac4b32772021240a9c16864ee" target="_top" xlink:title="mmin">
<polygon fill="white" stroke="black" points="318.5,-304.5 318.5,-323.5 359.5,-323.5 359.5,-304.5 318.5,-304.5"/>
<text text-anchor="middle" x="339" y="-311.5" font-family="Helvetica,sans-Serif" font-size="10.00">mmin</text>
</a>
</g>
</g>
<!-- Node2&#45;&gt;Node4 -->
<g id="edge3" class="edge"><title>Node2&#45;&gt;Node4</title>
<path fill="none" stroke="midnightblue" d="M195.153,-190.567C206.85,-211.446 237.413,-261.505 276,-290 285.668,-297.139 297.728,-302.441 308.635,-306.22"/>
<polygon fill="midnightblue" stroke="midnightblue" points="307.636,-309.575 318.226,-309.27 309.758,-302.904 307.636,-309.575"/>
</g>
<!-- Node5 -->
<g id="node5" class="node"><title>Node5</title>
<g id="a_node5"><a xlink:href="_c_d_a_q_2_plugins_2_source_2xml_parser_8cpp.xhtml#ad7ec02a171e7641c1d364d5d367199a3" target="_top" xlink:title="myWideCharToMultiByte">
<polygon fill="white" stroke="black" points="276,-152.5 276,-171.5 402,-171.5 402,-152.5 276,-152.5"/>
<text text-anchor="middle" x="339" y="-159.5" font-family="Helvetica,sans-Serif" font-size="10.00">myWideCharToMultiByte</text>
</a>
</g>
</g>
<!-- Node2&#45;&gt;Node5 -->
<g id="edge4" class="edge"><title>Node2&#45;&gt;Node5</title>
<path fill="none" stroke="midnightblue" d="M239.694,-174.62C248.113,-173.539 257.006,-172.398 265.862,-171.261"/>
<polygon fill="midnightblue" stroke="midnightblue" points="266.346,-174.728 275.819,-169.983 265.455,-167.785 266.346,-174.728"/>
</g>
<!-- Node6 -->
<g id="node6" class="node"><title>Node6</title>
<g id="a_node6"><a xlink:href="_c_d_a_q_2_plugins_2_source_2xml_parser_8cpp.xhtml#a8dd6e6cada28ea03e5cacd075b1be7f6" target="_top" xlink:title="xfopen">
<polygon fill="white" stroke="black" points="445,-264.5 445,-283.5 491,-283.5 491,-264.5 445,-264.5"/>
<text text-anchor="middle" x="468" y="-271.5" font-family="Helvetica,sans-Serif" font-size="10.00">xfopen</text>
</a>
</g>
</g>
<!-- Node2&#45;&gt;Node6 -->
<g id="edge12" class="edge"><title>Node2&#45;&gt;Node6</title>
<path fill="none" stroke="midnightblue" d="M208.786,-190.51C225.984,-198.976 252.289,-211.328 276,-220 330.726,-240.016 396.492,-257.151 434.835,-266.477"/>
<polygon fill="midnightblue" stroke="midnightblue" points="434.349,-269.96 444.89,-268.896 435.986,-263.154 434.349,-269.96"/>
</g>
<!-- Node7 -->
<g id="node7" class="node"><title>Node7</title>
<g id="a_node7"><a xlink:href="_c_d_a_q_2_plugins_2_source_2xml_parser_8cpp.xhtml#a73c2349b2f386ee50130a3961bd2dbab" target="_top" xlink:title="xstrcpy">
<polygon fill="white" stroke="black" points="443.5,-217.5 443.5,-236.5 492.5,-236.5 492.5,-217.5 443.5,-217.5"/>
<text text-anchor="middle" x="468" y="-224.5" font-family="Helvetica,sans-Serif" font-size="10.00">xstrcpy</text>
</a>
</g>
</g>
<!-- Node2&#45;&gt;Node7 -->
<g id="edge13" class="edge"><title>Node2&#45;&gt;Node7</title>
<path fill="none" stroke="midnightblue" d="M239.552,-189.746C251.483,-191.823 264.193,-194.012 276,-196 331.111,-205.278 395.253,-215.589 433.416,-221.672"/>
<polygon fill="midnightblue" stroke="midnightblue" points="433.036,-225.155 443.462,-223.271 434.136,-218.242 433.036,-225.155"/>
</g>
<!-- Node8 -->
<g id="node8" class="node"><title>Node8</title>
<g id="a_node8"><a xlink:href="_c_d_a_q_2_plugins_2_source_2xml_parser_8cpp.xhtml#a2e64ea95685df2d289c31a50419b532d" target="_top" xlink:title="xstricmp">
<polygon fill="white" stroke="black" points="441,-160.5 441,-179.5 495,-179.5 495,-160.5 441,-160.5"/>
<text text-anchor="middle" x="468" y="-167.5" font-family="Helvetica,sans-Serif" font-size="10.00">xstricmp</text>
</a>
</g>
</g>
<!-- Node2&#45;&gt;Node8 -->
<g id="edge14" class="edge"><title>Node2&#45;&gt;Node8</title>
<path fill="none" stroke="midnightblue" d="M239.787,-183.348C282.812,-184.817 346.619,-185.653 402,-181 411.364,-180.213 421.407,-178.8 430.731,-177.242"/>
<polygon fill="midnightblue" stroke="midnightblue" points="431.639,-180.636 440.877,-175.449 430.421,-173.743 431.639,-180.636"/>
</g>
<!-- Node9 -->
<g id="node9" class="node"><title>Node9</title>
<g id="a_node9"><a xlink:href="_c_d_a_q_2_plugins_2_source_2xml_parser_8cpp.xhtml#a49fa66f65d2d28ce7b7e0b1752425915" target="_top" xlink:title="xstrlen">
<polygon fill="white" stroke="black" points="445,-117.5 445,-136.5 491,-136.5 491,-117.5 445,-117.5"/>
<text text-anchor="middle" x="468" y="-124.5" font-family="Helvetica,sans-Serif" font-size="10.00">xstrlen</text>
</a>
</g>
</g>
<!-- Node2&#45;&gt;Node9 -->
<g id="edge15" class="edge"><title>Node2&#45;&gt;Node9</title>
<path fill="none" stroke="midnightblue" d="M207.173,-171.361C224.108,-162.357 251.01,-149.376 276,-143 330.523,-129.088 396.355,-126.574 434.765,-126.47"/>
<polygon fill="midnightblue" stroke="midnightblue" points="434.83,-129.97 444.839,-126.497 434.848,-122.97 434.83,-129.97"/>
</g>
<!-- Node10 -->
<g id="node10" class="node"><title>Node10</title>
<g id="a_node10"><a xlink:href="_c_d_a_q_2_plugins_2_source_2xml_parser_8cpp.xhtml#a3165858f70cd74ffab31ebc2ddc9e104" target="_top" xlink:title="xstrncmp">
<polygon fill="white" stroke="black" points="439.5,-77.5 439.5,-96.5 496.5,-96.5 496.5,-77.5 439.5,-77.5"/>
<text text-anchor="middle" x="468" y="-84.5" font-family="Helvetica,sans-Serif" font-size="10.00">xstrncmp</text>
</a>
</g>
</g>
<!-- Node2&#45;&gt;Node10 -->
<g id="edge16" class="edge"><title>Node2&#45;&gt;Node10</title>
<path fill="none" stroke="midnightblue" d="M201.091,-171.3C216.691,-158.203 246.516,-135.113 276,-123 326.713,-102.164 389.993,-93.2752 429.459,-89.5611"/>
<polygon fill="midnightblue" stroke="midnightblue" points="429.787,-93.0458 439.442,-88.6845 429.174,-86.0727 429.787,-93.0458"/>
</g>
<!-- Node11 -->
<g id="node11" class="node"><title>Node11</title>
<g id="a_node11"><a xlink:href="_c_d_a_q_2_plugins_2_source_2xml_parser_8cpp.xhtml#a17c9570640aed10b61deec9047cb0940" target="_top" xlink:title="xstrnicmp">
<polygon fill="white" stroke="black" points="438.5,-38.5 438.5,-57.5 497.5,-57.5 497.5,-38.5 438.5,-38.5"/>
<text text-anchor="middle" x="468" y="-45.5" font-family="Helvetica,sans-Serif" font-size="10.00">xstrnicmp</text>
</a>
</g>
</g>
<!-- Node2&#45;&gt;Node11 -->
<g id="edge17" class="edge"><title>Node2&#45;&gt;Node11</title>
<path fill="none" stroke="midnightblue" d="M195.966,-171.276C208.321,-152.034 238.689,-109.138 276,-88 323.861,-60.8844 387.843,-52.074 428.245,-49.2565"/>
<polygon fill="midnightblue" stroke="midnightblue" points="428.464,-52.7498 438.233,-48.6489 428.039,-45.7627 428.464,-52.7498"/>
</g>
<!-- Node12 -->
<g id="node12" class="node"><title>Node12</title>
<g id="a_node12"><a xlink:href="_c_d_a_q_2_plugins_2_source_2xml_parser_8cpp.xhtml#a696ca59a310359980c57de039f137697" target="_top" xlink:title="xstrstr">
<polygon fill="white" stroke="black" points="446,-0.5 446,-19.5 490,-19.5 490,-0.5 446,-0.5"/>
<text text-anchor="middle" x="468" y="-7.5" font-family="Helvetica,sans-Serif" font-size="10.00">xstrstr</text>
</a>
</g>
</g>
<!-- Node2&#45;&gt;Node12 -->
<g id="edge18" class="edge"><title>Node2&#45;&gt;Node12</title>
<path fill="none" stroke="midnightblue" d="M193.166,-171.319C201.902,-146.25 228.867,-78.9546 276,-47 324.632,-14.0291 395.364,-8.78222 435.706,-8.80559"/>
<polygon fill="midnightblue" stroke="midnightblue" points="435.716,-12.3058 445.756,-8.92209 435.797,-5.30631 435.716,-12.3058"/>
</g>
<!-- Node5&#45;&gt;Node6 -->
<g id="edge5" class="edge"><title>Node5&#45;&gt;Node6</title>
<path fill="none" stroke="midnightblue" d="M350.828,-171.549C372.572,-190.725 421.761,-234.104 448.632,-257.801"/>
<polygon fill="midnightblue" stroke="midnightblue" points="446.384,-260.486 456.199,-264.475 451.014,-255.236 446.384,-260.486"/>
</g>
<!-- Node5&#45;&gt;Node7 -->
<g id="edge6" class="edge"><title>Node5&#45;&gt;Node7</title>
<path fill="none" stroke="midnightblue" d="M358.739,-171.591C379.937,-182.44 414.674,-200.219 439.071,-212.706"/>
<polygon fill="midnightblue" stroke="midnightblue" points="437.687,-215.929 448.184,-217.37 440.877,-209.698 437.687,-215.929"/>
</g>
<!-- Node5&#45;&gt;Node8 -->
<g id="edge7" class="edge"><title>Node5&#45;&gt;Node8</title>
<path fill="none" stroke="midnightblue" d="M402.012,-165.906C411.878,-166.528 421.792,-167.152 430.8,-167.72"/>
<polygon fill="midnightblue" stroke="midnightblue" points="430.702,-171.22 440.902,-168.356 431.142,-164.234 430.702,-171.22"/>
</g>
<!-- Node5&#45;&gt;Node9 -->
<g id="edge8" class="edge"><title>Node5&#45;&gt;Node9</title>
<path fill="none" stroke="midnightblue" d="M374.703,-152.436C393.541,-147.245 416.669,-140.871 435.06,-135.802"/>
<polygon fill="midnightblue" stroke="midnightblue" points="436.022,-139.168 444.733,-133.137 434.162,-132.419 436.022,-139.168"/>
</g>
<!-- Node5&#45;&gt;Node10 -->
<g id="edge9" class="edge"><title>Node5&#45;&gt;Node10</title>
<path fill="none" stroke="midnightblue" d="M356.343,-152.349C378.061,-139.523 416.641,-116.74 442.022,-101.751"/>
<polygon fill="midnightblue" stroke="midnightblue" points="443.889,-104.713 450.72,-96.6144 440.329,-98.6857 443.889,-104.713"/>
</g>
<!-- Node5&#45;&gt;Node11 -->
<g id="edge10" class="edge"><title>Node5&#45;&gt;Node11</title>
<path fill="none" stroke="midnightblue" d="M348.996,-152.401C365.728,-134.778 403.105,-96.4592 438,-68 439.81,-66.5239 441.725,-65.0431 443.674,-63.592"/>
<polygon fill="midnightblue" stroke="midnightblue" points="446.087,-66.1712 452.211,-57.5256 442.032,-60.4652 446.087,-66.1712"/>
</g>
<!-- Node5&#45;&gt;Node12 -->
<g id="edge11" class="edge"><title>Node5&#45;&gt;Node12</title>
<path fill="none" stroke="midnightblue" d="M345.425,-152.405C358.868,-129.202 395.713,-69.0222 438,-29 439.232,-27.8338 440.545,-26.694 441.905,-25.589"/>
<polygon fill="midnightblue" stroke="midnightblue" points="443.968,-28.4166 449.988,-19.6986 439.845,-22.7593 443.968,-28.4166"/>
</g>
</g>
</svg>
        <g id="navigator" transform="translate(0 0)" fill="#404254">
                <rect fill="#f2f5e9" fill-opacity="0.5" stroke="#606060" stroke-width=".5" x="0" y="0" width="60" height="60"/>
                <use id="zoomplus" xlink:href="#zoomPlus" x="17" y="9" onmousedown="handleZoom(evt,'in')"/>
                <use id="zoomminus" xlink:href="#zoomMin" x="42" y="9" onmousedown="handleZoom(evt,'out')"/>
                <use id="reset" xlink:href="#resetDef" x="30" y="36" onmousedown="handleReset()"/>
                <g id="arrowUp" xlink:href="#dirArrow" transform="translate(30 24)" onmousedown="handlePan(0,-1)">
                  <use xlink:href="#rim" fill="#404040">
                        <set attributeName="fill" to="#808080" begin="arrowUp.mouseover" end="arrowUp.mouseout"/>
                  </use>
                  <path fill="none" stroke="white" stroke-width="1.5" d="M0,-3.0v7 M-2.5,-0.5L0,-3.0L2.5,-0.5"/>
                </g>
                <g id="arrowRight" xlink:href="#dirArrow" transform="rotate(90) translate(36 -43)" onmousedown="handlePan(1,0)">
                  <use xlink:href="#rim" fill="#404040">
                        <set attributeName="fill" to="#808080" begin="arrowRight.mouseover" end="arrowRight.mouseout"/>
                  </use>
                  <path fill="none" stroke="white" stroke-width="1.5" d="M0,-3.0v7 M-2.5,-0.5L0,-3.0L2.5,-0.5"/>
                </g>
                <g id="arrowDown" xlink:href="#dirArrow" transform="rotate(180) translate(-30 -48)" onmousedown="handlePan(0,1)">
                  <use xlink:href="#rim" fill="#404040">
                        <set attributeName="fill" to="#808080" begin="arrowDown.mouseover" end="arrowDown.mouseout"/>
                  </use>
                  <path fill="none" stroke="white" stroke-width="1.5" d="M0,-3.0v7 M-2.5,-0.5L0,-3.0L2.5,-0.5"/>
                </g>
                <g id="arrowLeft" xlink:href="#dirArrow" transform="rotate(270) translate(-36 17)" onmousedown="handlePan(-1,0)">
                  <use xlink:href="#rim" fill="#404040">
                        <set attributeName="fill" to="#808080" begin="arrowLeft.mouseover" end="arrowLeft.mouseout"/>
                  </use>
                  <path fill="none" stroke="white" stroke-width="1.5" d="M0,-3.0v7 M-2.5,-0.5L0,-3.0L2.5,-0.5"/>
                </g>
        </g>
        <svg viewBox="0 0 15 15" width="100%" height="30px" preserveAspectRatio="xMaxYMin meet">
         <g id="arrow_out" transform="scale(0.3 0.3)">
          <a xlink:href="struct_x_m_l_node_a4496629c7a268db5435946c7bdd4eb28_cgraph_org.svg" target="_base">
           <rect id="button" ry="5" rx="5" y="6" x="6" height="38" width="38"
                fill="#f2f5e9" fill-opacity="0.5" stroke="#606060" stroke-width="1.0"/>
           <path id="arrow"
             d="M 11.500037,31.436501 C 11.940474,20.09759 22.043105,11.32322 32.158766,21.979434 L 37.068811,17.246167 C 37.068811,17.246167 37.088388,32 37.088388,32 L 22.160133,31.978069 C 22.160133,31.978069 26.997745,27.140456 26.997745,27.140456 C 18.528582,18.264221 13.291696,25.230495 11.500037,31.436501 z"
             style="fill:#404040;"/>
          </a>
         </g>
        </svg>
</svg>
