<?xml version="1.0" encoding="UTF-8" standalone="no"?>
<!DOCTYPE svg PUBLIC "-//W3C//DTD SVG 1.1//EN"
 "http://www.w3.org/Graphics/SVG/1.1/DTD/svg11.dtd">
<!-- Generated by graphviz version 2.36.0 (20140111.2315)
 -->
<!-- Title: XMLNode::getError Pages: 1 -->
<svg width="610pt" height="325pt"
 viewBox="0.00 0.00 610.00 325.00" xmlns="http://www.w3.org/2000/svg" xmlns:xlink="http://www.w3.org/1999/xlink">
<g id="graph0" class="graph" transform="scale(1 1) rotate(0) translate(4 321)">
<title>XMLNode::getError</title>
<polygon fill="white" stroke="none" points="-4,4 -4,-321 606,-321 606,4 -4,4"/>
<!-- Node1 -->
<g id="node1" class="node"><title>Node1</title>
<polygon fill="#bfbfbf" stroke="black" points="0.5,-202.5 0.5,-221.5 101.5,-221.5 101.5,-202.5 0.5,-202.5"/>
<text text-anchor="middle" x="51" y="-209.5" font-family="Helvetica,sans-Serif" font-size="10.00">XMLNode::getError</text>
</g>
<!-- Node2 -->
<g id="node2" class="node"><title>Node2</title>
<g id="a_node2"><a xlink:href="_p_d_a_q_2_core_2_source_2xml_parser_8cpp.xhtml#af77e3e2685487b9c492b20c36f3b864a" target="_top" xlink:title="_strnicmp">
<polygon fill="white" stroke="black" points="355.5,-278.5 355.5,-297.5 414.5,-297.5 414.5,-278.5 355.5,-278.5"/>
<text text-anchor="middle" x="385" y="-285.5" font-family="Helvetica,sans-Serif" font-size="10.00">_strnicmp</text>
</a>
</g>
</g>
<!-- Node1&#45;&gt;Node2 -->
<g id="edge1" class="edge"><title>Node1&#45;&gt;Node2</title>
<path fill="none" stroke="midnightblue" d="M103.757,-223.848C174.59,-240.063 299.314,-268.614 355.337,-281.439"/>
<polygon fill="midnightblue" stroke="midnightblue" points="104.241,-220.368 93.7119,-221.548 102.679,-227.192 104.241,-220.368"/>
</g>
<!-- Node5 -->
<g id="node5" class="node"><title>Node5</title>
<g id="a_node5"><a xlink:href="struct_x_m_l_node.xhtml#acc044148e2b9b8264a320b7b6e398158" target="_top" xlink:title="XMLNode::openFileHelper">
<polygon fill="white" stroke="black" points="138.5,-164.5 138.5,-183.5 269.5,-183.5 269.5,-164.5 138.5,-164.5"/>
<text text-anchor="middle" x="204" y="-171.5" font-family="Helvetica,sans-Serif" font-size="10.00">XMLNode::openFileHelper</text>
</a>
</g>
</g>
<!-- Node1&#45;&gt;Node5 -->
<g id="edge4" class="edge"><title>Node1&#45;&gt;Node5</title>
<path fill="none" stroke="midnightblue" d="M99.8431,-199.96C120.939,-194.651 145.377,-188.501 165.17,-183.52"/>
<polygon fill="midnightblue" stroke="midnightblue" points="98.9471,-196.576 90.1037,-202.411 100.656,-203.365 98.9471,-196.576"/>
</g>
<!-- Node3 -->
<g id="node3" class="node"><title>Node3</title>
<g id="a_node3"><a xlink:href="_p_d_a_q_2_core_2_source_2xml_parser_8cpp.xhtml#a9a625f17c09a36e3ad532cdf16072609" target="_top" xlink:title="charmemset">
<polygon fill="white" stroke="black" points="515.5,-297.5 515.5,-316.5 586.5,-316.5 586.5,-297.5 515.5,-297.5"/>
<text text-anchor="middle" x="551" y="-304.5" font-family="Helvetica,sans-Serif" font-size="10.00">charmemset</text>
</a>
</g>
</g>
<!-- Node2&#45;&gt;Node3 -->
<g id="edge2" class="edge"><title>Node2&#45;&gt;Node3</title>
<path fill="none" stroke="midnightblue" d="M424.605,-292.473C452.068,-295.654 488.653,-299.893 515.214,-302.97"/>
<polygon fill="midnightblue" stroke="midnightblue" points="424.903,-288.984 414.567,-291.31 424.097,-295.937 424.903,-288.984"/>
</g>
<!-- Node4 -->
<g id="node4" class="node"><title>Node4</title>
<g id="a_node4"><a xlink:href="_p_d_a_q_2_core_2_source_2xml_parser_8cpp.xhtml#ad9a5c911a8e21bb89427d29d33e2797e" target="_top" xlink:title="myIsTextWideChar">
<polygon fill="white" stroke="black" points="500.5,-259.5 500.5,-278.5 601.5,-278.5 601.5,-259.5 500.5,-259.5"/>
<text text-anchor="middle" x="551" y="-266.5" font-family="Helvetica,sans-Serif" font-size="10.00">myIsTextWideChar</text>
</a>
</g>
</g>
<!-- Node2&#45;&gt;Node4 -->
<g id="edge3" class="edge"><title>Node2&#45;&gt;Node4</title>
<path fill="none" stroke="midnightblue" d="M424.784,-283.507C447.346,-280.893 476.018,-277.571 500.231,-274.766"/>
<polygon fill="midnightblue" stroke="midnightblue" points="424.097,-280.063 414.567,-284.69 424.903,-287.016 424.097,-280.063"/>
</g>
<!-- Node5&#45;&gt;Node2 -->
<g id="edge14" class="edge"><title>Node5&#45;&gt;Node2</title>
<path fill="none" stroke="midnightblue" d="M222.708,-190.872C251.01,-217.81 303.532,-267.662 306,-269 321.193,-277.238 339.968,-281.953 355.29,-284.626"/>
<polygon fill="midnightblue" stroke="midnightblue" points="224.761,-187.995 215.106,-183.634 219.934,-193.064 224.761,-187.995"/>
</g>
<!-- Node6 -->
<g id="node6" class="node"><title>Node6</title>
<g id="a_node6"><a xlink:href="class_a_d_c_manager1720.xhtml#aae342ccd8bf1c253c455e195bfd82dfe" target="_top" xlink:title="ADCManager1720::Init">
<polygon fill="white" stroke="black" points="327,-240.5 327,-259.5 443,-259.5 443,-240.5 327,-240.5"/>
<text text-anchor="middle" x="385" y="-247.5" font-family="Helvetica,sans-Serif" font-size="10.00">ADCManager1720::Init</text>
</a>
</g>
</g>
<!-- Node5&#45;&gt;Node6 -->
<g id="edge5" class="edge"><title>Node5&#45;&gt;Node6</title>
<path fill="none" stroke="midnightblue" d="M227.736,-189.243C247.637,-201.985 277.711,-219.82 306,-231 315.462,-234.74 325.871,-237.891 335.916,-240.487"/>
<polygon fill="midnightblue" stroke="midnightblue" points="229.384,-186.14 219.094,-183.619 225.566,-192.007 229.384,-186.14"/>
</g>
<!-- Node7 -->
<g id="node7" class="node"><title>Node7</title>
<g id="a_node7"><a xlink:href="class_a_d_c_manager1724.xhtml#a6de2521b9c793edcf14aeaeefeb62787" target="_top" xlink:title="ADCManager1724::Init">
<polygon fill="white" stroke="black" points="327,-202.5 327,-221.5 443,-221.5 443,-202.5 327,-202.5"/>
<text text-anchor="middle" x="385" y="-209.5" font-family="Helvetica,sans-Serif" font-size="10.00">ADCManager1724::Init</text>
</a>
</g>
</g>
<!-- Node5&#45;&gt;Node7 -->
<g id="edge6" class="edge"><title>Node5&#45;&gt;Node7</title>
<path fill="none" stroke="midnightblue" d="M260.024,-185.681C285.408,-191.07 315.161,-197.386 339.156,-202.48"/>
<polygon fill="midnightblue" stroke="midnightblue" points="260.678,-182.242 250.169,-183.589 259.224,-189.089 260.678,-182.242"/>
</g>
<!-- Node8 -->
<g id="node8" class="node"><title>Node8</title>
<g id="a_node8"><a xlink:href="class_a_d_c_manager1730.xhtml#adb6d45f2024f4a52d366a88d1c7f229d" target="_top" xlink:title="ADCManager1730::Init">
<polygon fill="white" stroke="black" points="327,-164.5 327,-183.5 443,-183.5 443,-164.5 327,-164.5"/>
<text text-anchor="middle" x="385" y="-171.5" font-family="Helvetica,sans-Serif" font-size="10.00">ADCManager1730::Init</text>
</a>
</g>
</g>
<!-- Node5&#45;&gt;Node8 -->
<g id="edge7" class="edge"><title>Node5&#45;&gt;Node8</title>
<path fill="none" stroke="midnightblue" d="M279.85,-174C295.58,-174 311.93,-174 326.887,-174"/>
<polygon fill="midnightblue" stroke="midnightblue" points="279.623,-170.5 269.623,-174 279.623,-177.5 279.623,-170.5"/>
</g>
<!-- Node9 -->
<g id="node9" class="node"><title>Node9</title>
<g id="a_node9"><a xlink:href="class_scope_manager.xhtml#abe246d1b817d85a9cba7af3441a4df04" target="_top" xlink:title="ScopeManager::ShowEvent">
<polygon fill="white" stroke="black" points="316,-126.5 316,-145.5 454,-145.5 454,-126.5 316,-126.5"/>
<text text-anchor="middle" x="385" y="-133.5" font-family="Helvetica,sans-Serif" font-size="10.00">ScopeManager::ShowEvent</text>
</a>
</g>
</g>
<!-- Node5&#45;&gt;Node9 -->
<g id="edge8" class="edge"><title>Node5&#45;&gt;Node9</title>
<path fill="none" stroke="midnightblue" d="M260.024,-162.319C285.408,-156.93 315.161,-150.614 339.156,-145.52"/>
<polygon fill="midnightblue" stroke="midnightblue" points="259.224,-158.911 250.169,-164.411 260.678,-165.758 259.224,-158.911"/>
</g>
<!-- Node11 -->
<g id="node11" class="node"><title>Node11</title>
<g id="a_node11"><a xlink:href="class_slowcontrol_manager.xhtml#a36ab5157f5a740b9058517b77d1ce38f" target="_top" xlink:title="SlowcontrolManager\l::ShowStatus">
<polygon fill="white" stroke="black" points="332.5,-77 332.5,-107 437.5,-107 437.5,-77 332.5,-77"/>
<text text-anchor="start" x="340.5" y="-95" font-family="Helvetica,sans-Serif" font-size="10.00">SlowcontrolManager</text>
<text text-anchor="middle" x="385" y="-84" font-family="Helvetica,sans-Serif" font-size="10.00">::ShowStatus</text>
</a>
</g>
</g>
<!-- Node5&#45;&gt;Node11 -->
<g id="edge10" class="edge"><title>Node5&#45;&gt;Node11</title>
<path fill="none" stroke="midnightblue" d="M228.636,-158.833C248.667,-146.432 278.446,-129.041 306,-117 314.339,-113.356 323.384,-109.971 332.26,-106.944"/>
<polygon fill="midnightblue" stroke="midnightblue" points="226.515,-156.032 219.901,-164.309 230.233,-161.963 226.515,-156.032"/>
</g>
<!-- Node12 -->
<g id="node12" class="node"><title>Node12</title>
<g id="a_node12"><a xlink:href="class_storage_manager.xhtml#ab16a945d003852d02556daf3610a9aac" target="_top" xlink:title="StorageManager::SaveContainer">
<polygon fill="white" stroke="black" points="306,-38.5 306,-57.5 464,-57.5 464,-38.5 306,-38.5"/>
<text text-anchor="middle" x="385" y="-45.5" font-family="Helvetica,sans-Serif" font-size="10.00">StorageManager::SaveContainer</text>
</a>
</g>
</g>
<!-- Node5&#45;&gt;Node12 -->
<g id="edge12" class="edge"><title>Node5&#45;&gt;Node12</title>
<path fill="none" stroke="midnightblue" d="M216.906,-155.99C233.797,-131.915 267.031,-89.6545 306,-67 312.627,-63.1473 320.007,-60.0731 327.51,-57.6207"/>
<polygon fill="midnightblue" stroke="midnightblue" points="214.015,-154.019 211.255,-164.248 219.791,-157.972 214.015,-154.019"/>
</g>
<!-- Node13 -->
<g id="node13" class="node"><title>Node13</title>
<g id="a_node13"><a xlink:href="_p_d_a_q_2_core_2_source_2xml_8cpp.xhtml#a8251b051736c5146c1985edc6cb357e6" target="_top" xlink:title="xml_readsettings">
<polygon fill="white" stroke="black" points="339.5,-0.5 339.5,-19.5 430.5,-19.5 430.5,-0.5 339.5,-0.5"/>
<text text-anchor="middle" x="385" y="-7.5" font-family="Helvetica,sans-Serif" font-size="10.00">xml_readsettings</text>
</a>
</g>
</g>
<!-- Node5&#45;&gt;Node13 -->
<g id="edge15" class="edge"><title>Node5&#45;&gt;Node13</title>
<path fill="none" stroke="midnightblue" d="M212.77,-155.081C226.639,-123.765 258.704,-61.4027 306,-29 315.773,-22.3042 327.656,-17.9602 339.169,-15.1444"/>
<polygon fill="midnightblue" stroke="midnightblue" points="209.489,-153.852 208.769,-164.422 215.923,-156.608 209.489,-153.852"/>
</g>
<!-- Node10 -->
<g id="node10" class="node"><title>Node10</title>
<g id="a_node10"><a xlink:href="_multi_d_a_q_8cpp.xhtml#adedb285b02c41bde2158ded9cc9fd7ac" target="_top" xlink:title="main">
<polygon fill="white" stroke="black" points="532,-82.5 532,-101.5 570,-101.5 570,-82.5 532,-82.5"/>
<text text-anchor="middle" x="551" y="-89.5" font-family="Helvetica,sans-Serif" font-size="10.00">main</text>
</a>
</g>
</g>
<!-- Node9&#45;&gt;Node10 -->
<g id="edge9" class="edge"><title>Node9&#45;&gt;Node10</title>
<path fill="none" stroke="midnightblue" d="M433.581,-123.97C443.636,-121.38 454.176,-118.63 464,-116 487.509,-109.707 514.528,-102.106 531.911,-97.168"/>
<polygon fill="midnightblue" stroke="midnightblue" points="432.549,-120.622 423.732,-126.496 434.288,-127.402 432.549,-120.622"/>
</g>
<!-- Node11&#45;&gt;Node10 -->
<g id="edge11" class="edge"><title>Node11&#45;&gt;Node10</title>
<path fill="none" stroke="midnightblue" d="M448.256,-92C478.076,-92 511.599,-92 531.744,-92"/>
<polygon fill="midnightblue" stroke="midnightblue" points="447.891,-88.5001 437.891,-92 447.891,-95.5001 447.891,-88.5001"/>
</g>
<!-- Node12&#45;&gt;Node10 -->
<g id="edge13" class="edge"><title>Node12&#45;&gt;Node10</title>
<path fill="none" stroke="midnightblue" d="M436.394,-59.9314C445.596,-62.2078 455.1,-64.6236 464,-67 487.585,-73.2973 514.587,-81.2735 531.945,-86.5007"/>
<polygon fill="midnightblue" stroke="midnightblue" points="437.115,-56.5047 426.57,-57.5244 435.449,-63.3036 437.115,-56.5047"/>
</g>
<!-- Node14 -->
<g id="node14" class="node"><title>Node14</title>
<g id="a_node14"><a xlink:href="_z_d_a_q_8cpp.xhtml#a0ddf1224851353fc92bfbff6f499fa97" target="_top" xlink:title="main">
<polygon fill="white" stroke="black" points="532,-0.5 532,-19.5 570,-19.5 570,-0.5 532,-0.5"/>
<text text-anchor="middle" x="551" y="-7.5" font-family="Helvetica,sans-Serif" font-size="10.00">main</text>
</a>
</g>
</g>
<!-- Node13&#45;&gt;Node14 -->
<g id="edge16" class="edge"><title>Node13&#45;&gt;Node14</title>
<path fill="none" stroke="midnightblue" d="M441.216,-10C472.646,-10 509.974,-10 531.724,-10"/>
<polygon fill="midnightblue" stroke="midnightblue" points="440.814,-6.5001 430.814,-10 440.814,-13.5001 440.814,-6.5001"/>
</g>
</g>
</svg>
