<?xml version="1.0" encoding="UTF-8" standalone="no"?>
<!DOCTYPE svg PUBLIC "-//W3C//DTD SVG 1.1//EN"
 "http://www.w3.org/Graphics/SVG/1.1/DTD/svg11.dtd">
<!-- Generated by graphviz version 2.36.0 (20140111.2315)
 -->
<!-- Title: XMLNode::parseString Pages: 1 -->
<svg width="394pt" height="294pt"
 viewBox="0.00 0.00 394.00 294.00" xmlns="http://www.w3.org/2000/svg" xmlns:xlink="http://www.w3.org/1999/xlink">
<g id="graph0" class="graph" transform="scale(1 1) rotate(0) translate(4 290)">
<title>XMLNode::parseString</title>
<polygon fill="white" stroke="none" points="-4,4 -4,-290 390,-290 390,4 -4,4"/>
<!-- Node1 -->
<g id="node1" class="node"><title>Node1</title>
<polygon fill="#bfbfbf" stroke="black" points="0,-133.5 0,-152.5 116,-152.5 116,-133.5 0,-133.5"/>
<text text-anchor="middle" x="58" y="-140.5" font-family="Helvetica,sans-Serif" font-size="10.00">XMLNode::parseString</text>
</g>
<!-- Node2 -->
<g id="node2" class="node"><title>Node2</title>
<g id="a_node2"><a xlink:href="_c_d_a_q_2_plugins_2_source_2xml_parser_8cpp.xhtml#ae6aa5a367ab3cc92b47fd92f81add72a" target="_top" xlink:title="CountLinesAndColumns">
<polygon fill="white" stroke="black" points="154,-266.5 154,-285.5 276,-285.5 276,-266.5 154,-266.5"/>
<text text-anchor="middle" x="215" y="-273.5" font-family="Helvetica,sans-Serif" font-size="10.00">CountLinesAndColumns</text>
</a>
</g>
</g>
<!-- Node1&#45;&gt;Node2 -->
<g id="edge1" class="edge"><title>Node1&#45;&gt;Node2</title>
<path fill="none" stroke="midnightblue" d="M64.1339,-152.558C76.3615,-174.414 109.395,-228.354 152,-257 154.939,-258.976 158.091,-260.753 161.36,-262.35"/>
<polygon fill="midnightblue" stroke="midnightblue" points="160.232,-265.675 170.803,-266.392 162.987,-259.239 160.232,-265.675"/>
</g>
<!-- Node4 -->
<g id="node4" class="node"><title>Node4</title>
<g id="a_node4"><a xlink:href="struct_x_m_l_node.xhtml#a77a21438b6d48a52cf8a1270f82f4475" target="_top" xlink:title="XMLNode::getChildNode">
<polygon fill="white" stroke="black" points="152.5,-228.5 152.5,-247.5 277.5,-247.5 277.5,-228.5 152.5,-228.5"/>
<text text-anchor="middle" x="215" y="-235.5" font-family="Helvetica,sans-Serif" font-size="10.00">XMLNode::getChildNode</text>
</a>
</g>
</g>
<!-- Node1&#45;&gt;Node4 -->
<g id="edge3" class="edge"><title>Node1&#45;&gt;Node4</title>
<path fill="none" stroke="midnightblue" d="M68.1335,-152.578C83.8431,-168.532 117.619,-200.606 152,-219 156.185,-221.239 160.672,-223.256 165.25,-225.063"/>
<polygon fill="midnightblue" stroke="midnightblue" points="164.109,-228.372 174.704,-228.481 166.49,-221.789 164.109,-228.372"/>
</g>
<!-- Node5 -->
<g id="node5" class="node"><title>Node5</title>
<g id="a_node5"><a xlink:href="struct_x_m_l_node.xhtml#a7e07715aa0ed894da96bd66c90d423f0" target="_top" xlink:title="XMLNode::getName">
<polygon fill="white" stroke="black" points="162,-190.5 162,-209.5 268,-209.5 268,-190.5 162,-190.5"/>
<text text-anchor="middle" x="215" y="-197.5" font-family="Helvetica,sans-Serif" font-size="10.00">XMLNode::getName</text>
</a>
</g>
</g>
<!-- Node1&#45;&gt;Node5 -->
<g id="edge4" class="edge"><title>Node1&#45;&gt;Node5</title>
<path fill="none" stroke="midnightblue" d="M80.9555,-152.629C99.6645,-160.675 127.358,-172.21 152,-181 158.124,-183.184 164.639,-185.35 171.059,-187.394"/>
<polygon fill="midnightblue" stroke="midnightblue" points="170.409,-190.858 180.998,-190.492 172.492,-184.175 170.409,-190.858"/>
</g>
<!-- Node6 -->
<g id="node6" class="node"><title>Node6</title>
<g id="a_node6"><a xlink:href="struct_x_m_l_node.xhtml#a71df27d54a2dc09b0a456406a7e8c6d3" target="_top" xlink:title="XMLNode::isDeclaration">
<polygon fill="white" stroke="black" points="153.5,-152.5 153.5,-171.5 276.5,-171.5 276.5,-152.5 153.5,-152.5"/>
<text text-anchor="middle" x="215" y="-159.5" font-family="Helvetica,sans-Serif" font-size="10.00">XMLNode::isDeclaration</text>
</a>
</g>
</g>
<!-- Node1&#45;&gt;Node6 -->
<g id="edge5" class="edge"><title>Node1&#45;&gt;Node6</title>
<path fill="none" stroke="midnightblue" d="M116.276,-150.021C125.048,-151.096 134.192,-152.217 143.213,-153.323"/>
<polygon fill="midnightblue" stroke="midnightblue" points="142.969,-156.819 153.32,-154.562 143.82,-149.871 142.969,-156.819"/>
</g>
<!-- Node7 -->
<g id="node7" class="node"><title>Node7</title>
<g id="a_node7"><a xlink:href="struct_x_m_l_node.xhtml#a8e52198f258167cd796dae21f1ffc352" target="_top" xlink:title="XMLNode::nChildNode">
<polygon fill="white" stroke="black" points="156.5,-114.5 156.5,-133.5 273.5,-133.5 273.5,-114.5 156.5,-114.5"/>
<text text-anchor="middle" x="215" y="-121.5" font-family="Helvetica,sans-Serif" font-size="10.00">XMLNode::nChildNode</text>
</a>
</g>
</g>
<!-- Node1&#45;&gt;Node7 -->
<g id="edge6" class="edge"><title>Node1&#45;&gt;Node7</title>
<path fill="none" stroke="midnightblue" d="M116.276,-135.979C126.107,-134.774 136.405,-133.512 146.474,-132.277"/>
<polygon fill="midnightblue" stroke="midnightblue" points="146.942,-135.746 156.442,-131.055 146.09,-128.798 146.942,-135.746"/>
</g>
<!-- Node8 -->
<g id="node8" class="node"><title>Node8</title>
<g id="a_node8"><a xlink:href="_c_d_a_q_2_plugins_2_source_2xml_parser_8cpp.xhtml#a2e64ea95685df2d289c31a50419b532d" target="_top" xlink:title="xstricmp">
<polygon fill="white" stroke="black" points="323,-95.5 323,-114.5 377,-114.5 377,-95.5 323,-95.5"/>
<text text-anchor="middle" x="350" y="-102.5" font-family="Helvetica,sans-Serif" font-size="10.00">xstricmp</text>
</a>
</g>
</g>
<!-- Node1&#45;&gt;Node8 -->
<g id="edge9" class="edge"><title>Node1&#45;&gt;Node8</title>
<path fill="none" stroke="midnightblue" d="M76.5323,-133.421C94.7657,-124.047 124.445,-110.412 152,-105 207.299,-94.1383 273.026,-97.2589 312.848,-100.862"/>
<polygon fill="midnightblue" stroke="midnightblue" points="312.587,-104.353 322.877,-101.83 313.259,-97.3856 312.587,-104.353"/>
</g>
<!-- Node9 -->
<g id="node9" class="node"><title>Node9</title>
<g id="a_node9"><a xlink:href="struct_x_m_l_node.xhtml#a8e9538deb9144dcab39b3a510a8202f1" target="_top" xlink:title="XMLNode::nElement">
<polygon fill="white" stroke="black" points="161.5,-38.5 161.5,-57.5 268.5,-57.5 268.5,-38.5 161.5,-38.5"/>
<text text-anchor="middle" x="215" y="-45.5" font-family="Helvetica,sans-Serif" font-size="10.00">XMLNode::nElement</text>
</a>
</g>
</g>
<!-- Node1&#45;&gt;Node9 -->
<g id="edge8" class="edge"><title>Node1&#45;&gt;Node9</title>
<path fill="none" stroke="midnightblue" d="M69.4627,-133.405C85.9815,-118.643 119.57,-90.1695 152,-72 159.08,-68.0333 166.948,-64.435 174.637,-61.3021"/>
<polygon fill="midnightblue" stroke="midnightblue" points="176.15,-64.4693 184.208,-57.5899 173.619,-57.943 176.15,-64.4693"/>
</g>
<!-- Node10 -->
<g id="node10" class="node"><title>Node10</title>
<g id="a_node10"><a xlink:href="_c_d_a_q_2_plugins_2_source_2xml_parser_8cpp.xhtml#a49fa66f65d2d28ce7b7e0b1752425915" target="_top" xlink:title="xstrlen">
<polygon fill="white" stroke="black" points="192,-0.5 192,-19.5 238,-19.5 238,-0.5 192,-0.5"/>
<text text-anchor="middle" x="215" y="-7.5" font-family="Helvetica,sans-Serif" font-size="10.00">xstrlen</text>
</a>
</g>
</g>
<!-- Node1&#45;&gt;Node10 -->
<g id="edge10" class="edge"><title>Node1&#45;&gt;Node10</title>
<path fill="none" stroke="midnightblue" d="M64.1339,-133.442C76.3615,-111.586 109.395,-57.6458 152,-29 160.969,-22.9697 171.93,-18.7902 182.128,-15.9215"/>
<polygon fill="midnightblue" stroke="midnightblue" points="183.112,-19.2834 191.969,-13.4697 181.419,-12.491 183.112,-19.2834"/>
</g>
<!-- Node3 -->
<g id="node3" class="node"><title>Node3</title>
<g id="a_node3"><a xlink:href="_c_d_a_q_2_plugins_2_source_2xml_parser_8cpp.xhtml#af03c1c87ed4ddb95f7b49d53d9117c53" target="_top" xlink:title="getNextChar">
<polygon fill="white" stroke="black" points="314,-266.5 314,-285.5 386,-285.5 386,-266.5 314,-266.5"/>
<text text-anchor="middle" x="350" y="-273.5" font-family="Helvetica,sans-Serif" font-size="10.00">getNextChar</text>
</a>
</g>
</g>
<!-- Node2&#45;&gt;Node3 -->
<g id="edge2" class="edge"><title>Node2&#45;&gt;Node3</title>
<path fill="none" stroke="midnightblue" d="M276.274,-276C285.462,-276 294.811,-276 303.609,-276"/>
<polygon fill="midnightblue" stroke="midnightblue" points="303.642,-279.5 313.642,-276 303.642,-272.5 303.642,-279.5"/>
</g>
<!-- Node7&#45;&gt;Node8 -->
<g id="edge7" class="edge"><title>Node7&#45;&gt;Node8</title>
<path fill="none" stroke="midnightblue" d="M273.562,-115.777C286.811,-113.884 300.542,-111.923 312.6,-110.2"/>
<polygon fill="midnightblue" stroke="midnightblue" points="313.307,-113.635 322.711,-108.756 312.317,-106.705 313.307,-113.635"/>
</g>
</g>
</svg>
