<?xml version="1.0" encoding="UTF-8" standalone="no"?>
<!DOCTYPE svg PUBLIC "-//W3C//DTD SVG 1.1//EN"
 "http://www.w3.org/Graphics/SVG/1.1/DTD/svg11.dtd">
<!-- Generated by graphviz version 2.36.0 (20140111.2315)
 -->
<!-- Title: XMLNode::updateName_WOSD Pages: 1 -->
<svg width="432pt" height="85pt"
 viewBox="0.00 0.00 432.00 85.00" xmlns="http://www.w3.org/2000/svg" xmlns:xlink="http://www.w3.org/1999/xlink">
<g id="graph0" class="graph" transform="scale(1 1) rotate(0) translate(4 81)">
<title>XMLNode::updateName_WOSD</title>
<polygon fill="white" stroke="none" points="-4,4 -4,-81 428,-81 428,4 -4,4"/>
<!-- Node1 -->
<g id="node1" class="node"><title>Node1</title>
<polygon fill="#bfbfbf" stroke="black" points="0,-38.5 0,-57.5 158,-57.5 158,-38.5 0,-38.5"/>
<text text-anchor="middle" x="79" y="-45.5" font-family="Helvetica,sans-Serif" font-size="10.00">XMLNode::updateName_WOSD</text>
</g>
<!-- Node2 -->
<g id="node2" class="node"><title>Node2</title>
<g id="a_node2"><a xlink:href="_p_d_a_q_2_core_2_source_2xml_parser_8cpp.xhtml#a9a625f17c09a36e3ad532cdf16072609" target="_top" xlink:title="charmemset">
<polygon fill="white" stroke="black" points="352.5,-57.5 352.5,-76.5 423.5,-76.5 423.5,-57.5 352.5,-57.5"/>
<text text-anchor="middle" x="388" y="-64.5" font-family="Helvetica,sans-Serif" font-size="10.00">charmemset</text>
</a>
</g>
</g>
<!-- Node1&#45;&gt;Node2 -->
<g id="edge1" class="edge"><title>Node1&#45;&gt;Node2</title>
<path fill="none" stroke="midnightblue" d="M136.305,-59.2771C154.624,-62.4377 175.103,-65.4361 194,-67 249.265,-71.5739 313.737,-70.2339 352.414,-68.7148"/>
<polygon fill="midnightblue" stroke="midnightblue" points="136.831,-55.816 126.373,-57.5126 135.607,-62.708 136.831,-55.816"/>
</g>
<!-- Node3 -->
<g id="node3" class="node"><title>Node3</title>
<g id="a_node3"><a xlink:href="_p_d_a_q_2_core_2_source_2xml_parser_8cpp.xhtml#acf103e2756ced6c7d3f14f38f198c920" target="_top" xlink:title="GetNextToken">
<polygon fill="white" stroke="black" points="215,-0.5 215,-19.5 295,-19.5 295,-0.5 215,-0.5"/>
<text text-anchor="middle" x="255" y="-7.5" font-family="Helvetica,sans-Serif" font-size="10.00">GetNextToken</text>
</a>
</g>
</g>
<!-- Node1&#45;&gt;Node3 -->
<g id="edge2" class="edge"><title>Node1&#45;&gt;Node3</title>
<path fill="none" stroke="midnightblue" d="M133.701,-36.2722C159.925,-30.5451 190.903,-23.7797 214.856,-18.5487"/>
<polygon fill="midnightblue" stroke="midnightblue" points="132.93,-32.8579 123.908,-38.411 134.424,-39.6967 132.93,-32.8579"/>
</g>
<!-- Node5 -->
<g id="node5" class="node"><title>Node5</title>
<g id="a_node5"><a xlink:href="struct_x_m_l_node.xhtml#ae08b643a2b87a77bad3c70eb57ea3043" target="_top" xlink:title="XMLNode::updateName">
<polygon fill="white" stroke="black" points="194,-38.5 194,-57.5 316,-57.5 316,-38.5 194,-38.5"/>
<text text-anchor="middle" x="255" y="-45.5" font-family="Helvetica,sans-Serif" font-size="10.00">XMLNode::updateName</text>
</a>
</g>
</g>
<!-- Node1&#45;&gt;Node5 -->
<g id="edge4" class="edge"><title>Node1&#45;&gt;Node5</title>
<path fill="none" stroke="midnightblue" d="M168.265,-48C176.941,-48 185.6,-48 193.898,-48"/>
<polygon fill="midnightblue" stroke="midnightblue" points="168.093,-44.5001 158.093,-48 168.093,-51.5001 168.093,-44.5001"/>
</g>
<!-- Node4 -->
<g id="node4" class="node"><title>Node4</title>
<g id="a_node4"><a xlink:href="_p_d_a_q_2_core_2_source_2xml_parser_8cpp.xhtml#a8415cb910267a0487e1003a34069d012" target="_top" xlink:title="myRealloc">
<polygon fill="white" stroke="black" points="356.5,-0.5 356.5,-19.5 419.5,-19.5 419.5,-0.5 356.5,-0.5"/>
<text text-anchor="middle" x="388" y="-7.5" font-family="Helvetica,sans-Serif" font-size="10.00">myRealloc</text>
</a>
</g>
</g>
<!-- Node3&#45;&gt;Node4 -->
<g id="edge3" class="edge"><title>Node3&#45;&gt;Node4</title>
<path fill="none" stroke="midnightblue" d="M305.695,-10C322.771,-10 341.372,-10 356.467,-10"/>
<polygon fill="midnightblue" stroke="midnightblue" points="305.304,-6.5001 295.304,-10 305.304,-13.5001 305.304,-6.5001"/>
</g>
<!-- Node5&#45;&gt;Node2 -->
<g id="edge5" class="edge"><title>Node5&#45;&gt;Node2</title>
<path fill="none" stroke="midnightblue" d="M326.306,-58.197C335.303,-59.502 344.179,-60.7893 352.249,-61.9598"/>
<polygon fill="midnightblue" stroke="midnightblue" points="326.531,-54.6932 316.132,-56.7215 325.526,-61.6207 326.531,-54.6932"/>
</g>
</g>
</svg>
