<?xml version="1.0" encoding="UTF-8" standalone="no"?>
<!DOCTYPE svg PUBLIC "-//W3C//DTD SVG 1.1//EN"
 "http://www.w3.org/Graphics/SVG/1.1/DTD/svg11.dtd">
<!-- Generated by graphviz version 2.36.0 (20140111.2315)
 -->
<!-- Title: timeandtrigger Pages: 1 -->
<svg width="254pt" height="140pt"
 viewBox="0.00 0.00 254.00 140.00" xmlns="http://www.w3.org/2000/svg" xmlns:xlink="http://www.w3.org/1999/xlink">
<g id="graph0" class="graph" transform="scale(1 1) rotate(0) translate(4 136)">
<title>timeandtrigger</title>
<polygon fill="white" stroke="none" points="-4,4 -4,-136 250,-136 250,4 -4,4"/>
<!-- Node1 -->
<g id="node1" class="node"><title>Node1</title>
<polygon fill="#bfbfbf" stroke="black" points="58,-0.5 58,-19.5 136,-19.5 136,-0.5 58,-0.5"/>
<text text-anchor="middle" x="97" y="-7.5" font-family="Helvetica,sans-Serif" font-size="10.00">timeandtrigger</text>
</g>
<!-- Node2 -->
<g id="node2" class="node"><title>Node2</title>
<polygon fill="white" stroke="#bfbfbf" points="0,-112.5 0,-131.5 56,-131.5 56,-112.5 0,-112.5"/>
<text text-anchor="middle" x="28" y="-119.5" font-family="Helvetica,sans-Serif" font-size="10.00">u_int32_t</text>
</g>
<!-- Node2&#45;&gt;Node1 -->
<g id="edge1" class="edge"><title>Node2&#45;&gt;Node1</title>
<path fill="none" stroke="#9a32cd" stroke-dasharray="5,2" d="M28.5953,-102.109C30.0599,-83.9827 34.7067,-56.6811 49,-38 55.1586,-29.9509 64.4466,-23.9383 73.2166,-19.6559"/>
<polygon fill="#9a32cd" stroke="#9a32cd" points="25.0903,-102.102 28.0297,-112.281 32.0795,-102.491 25.0903,-102.102"/>
<text text-anchor="middle" x="71" y="-85.5" font-family="Helvetica,sans-Serif" font-size="10.00"> tottrg</text>
<text text-anchor="middle" x="71" y="-74.5" font-family="Helvetica,sans-Serif" font-size="10.00">last_totnb</text>
<text text-anchor="middle" x="71" y="-63.5" font-family="Helvetica,sans-Serif" font-size="10.00">totnb</text>
<text text-anchor="middle" x="71" y="-52.5" font-family="Helvetica,sans-Serif" font-size="10.00">last_ave</text>
<text text-anchor="middle" x="71" y="-41.5" font-family="Helvetica,sans-Serif" font-size="10.00">last_tottrg</text>
</g>
<!-- Node3 -->
<g id="node3" class="node"><title>Node3</title>
<polygon fill="white" stroke="#bfbfbf" points="74,-112.5 74,-131.5 120,-131.5 120,-112.5 74,-112.5"/>
<text text-anchor="middle" x="97" y="-119.5" font-family="Helvetica,sans-Serif" font-size="10.00">int32_t</text>
</g>
<!-- Node3&#45;&gt;Node1 -->
<g id="edge2" class="edge"><title>Node3&#45;&gt;Node1</title>
<path fill="none" stroke="#9a32cd" stroke-dasharray="5,2" d="M97,-102.348C97,-78.2538 97,-37.3079 97,-19.5914"/>
<polygon fill="#9a32cd" stroke="#9a32cd" points="93.5001,-102.368 97,-112.368 100.5,-102.369 93.5001,-102.368"/>
<text text-anchor="middle" x="129" y="-69" font-family="Helvetica,sans-Serif" font-size="10.00"> PreviousTime</text>
<text text-anchor="middle" x="129" y="-58" font-family="Helvetica,sans-Serif" font-size="10.00">CurrentTime</text>
</g>
<!-- Node4 -->
<g id="node4" class="node"><title>Node4</title>
<polygon fill="white" stroke="#bfbfbf" points="169.5,-112.5 169.5,-131.5 198.5,-131.5 198.5,-112.5 169.5,-112.5"/>
<text text-anchor="middle" x="184" y="-119.5" font-family="Helvetica,sans-Serif" font-size="10.00">int</text>
</g>
<!-- Node4&#45;&gt;Node1 -->
<g id="edge3" class="edge"><title>Node4&#45;&gt;Node1</title>
<path fill="none" stroke="#9a32cd" stroke-dasharray="5,2" d="M183.635,-101.969C182.305,-83.5444 177.595,-55.8494 162,-38 154.603,-29.5341 144.128,-23.6661 133.743,-19.622"/>
<polygon fill="#9a32cd" stroke="#9a32cd" points="180.144,-102.242 184.094,-112.073 187.136,-101.924 180.144,-102.242"/>
<text text-anchor="middle" x="214.5" y="-74.5" font-family="Helvetica,sans-Serif" font-size="10.00"> store10</text>
<text text-anchor="middle" x="214.5" y="-63.5" font-family="Helvetica,sans-Serif" font-size="10.00">MeasSeconds</text>
<text text-anchor="middle" x="214.5" y="-52.5" font-family="Helvetica,sans-Serif" font-size="10.00">DisplayTime</text>
</g>
</g>
</svg>
