<?xml version="1.0" encoding="UTF-8" standalone="no"?>
<!DOCTYPE svg PUBLIC "-//W3C//DTD SVG 1.1//EN"
 "http://www.w3.org/Graphics/SVG/1.1/DTD/svg11.dtd">
<!-- Generated by graphviz version 2.36.0 (20140111.2315)
 -->
<!-- Title: XMLNode::addAttribute_WOSD Pages: 1 -->
<svg width="370pt" height="66pt"
 viewBox="0.00 0.00 370.00 66.00" xmlns="http://www.w3.org/2000/svg" xmlns:xlink="http://www.w3.org/1999/xlink">
<g id="graph0" class="graph" transform="scale(1 1) rotate(0) translate(4 62)">
<title>XMLNode::addAttribute_WOSD</title>
<polygon fill="white" stroke="none" points="-4,4 -4,-62 366,-62 366,4 -4,4"/>
<!-- Node1 -->
<g id="node1" class="node"><title>Node1</title>
<polygon fill="#bfbfbf" stroke="black" points="0.5,-19.5 0.5,-38.5 155.5,-38.5 155.5,-19.5 0.5,-19.5"/>
<text text-anchor="middle" x="78" y="-26.5" font-family="Helvetica,sans-Serif" font-size="10.00">XMLNode::addAttribute_WOSD</text>
</g>
<!-- Node2 -->
<g id="node2" class="node"><title>Node2</title>
<g id="a_node2"><a xlink:href="_p_d_a_q_2_core_2_source_2xml_parser_8cpp.xhtml#a9a625f17c09a36e3ad532cdf16072609" target="_top" xlink:title="charmemset">
<polygon fill="white" stroke="black" points="241.5,-38.5 241.5,-57.5 312.5,-57.5 312.5,-38.5 241.5,-38.5"/>
<text text-anchor="middle" x="277" y="-45.5" font-family="Helvetica,sans-Serif" font-size="10.00">charmemset</text>
</a>
</g>
</g>
<!-- Node1&#45;&gt;Node2 -->
<g id="edge1" class="edge"><title>Node1&#45;&gt;Node2</title>
<path fill="none" stroke="midnightblue" d="M165.879,-37.3792C192.552,-39.9517 220.378,-42.6355 241.386,-44.6616"/>
<polygon fill="midnightblue" stroke="midnightblue" points="166.019,-33.8766 155.729,-36.4003 165.347,-40.8442 166.019,-33.8766"/>
</g>
<!-- Node3 -->
<g id="node3" class="node"><title>Node3</title>
<g id="a_node3"><a xlink:href="struct_x_m_l_node.xhtml#a33cd934820a069cb42acd904d88170d2" target="_top" xlink:title="XMLNode::updateAttribute_WOSD">
<polygon fill="white" stroke="black" points="192.5,-0.5 192.5,-19.5 361.5,-19.5 361.5,-0.5 192.5,-0.5"/>
<text text-anchor="middle" x="277" y="-7.5" font-family="Helvetica,sans-Serif" font-size="10.00">XMLNode::updateAttribute_WOSD</text>
</a>
</g>
</g>
<!-- Node1&#45;&gt;Node3 -->
<g id="edge2" class="edge"><title>Node1&#45;&gt;Node3</title>
<path fill="none" stroke="midnightblue" d="M165.938,-20.6151C174.698,-19.7703 183.58,-18.9136 192.305,-18.0721"/>
<polygon fill="midnightblue" stroke="midnightblue" points="165.347,-17.1558 155.729,-21.5997 166.019,-24.1234 165.347,-17.1558"/>
</g>
</g>
</svg>
