<?xml version="1.0" encoding="UTF-8" standalone="no"?>
<!DOCTYPE svg PUBLIC "-//W3C//DTD SVG 1.1//EN"
 "http://www.w3.org/Graphics/SVG/1.1/DTD/svg11.dtd">
<!-- Generated by graphviz version 2.36.0 (20140111.2315)
 -->
<!-- Title: XMLNode::updateText Pages: 1 -->
<svg width="486pt" height="66pt"
 viewBox="0.00 0.00 486.00 66.00" xmlns="http://www.w3.org/2000/svg" xmlns:xlink="http://www.w3.org/1999/xlink">
<g id="graph0" class="graph" transform="scale(1 1) rotate(0) translate(4 62)">
<title>XMLNode::updateText</title>
<polygon fill="white" stroke="none" points="-4,4 -4,-62 482,-62 482,4 -4,4"/>
<!-- Node1 -->
<g id="node1" class="node"><title>Node1</title>
<polygon fill="#bfbfbf" stroke="black" points="0.5,-19.5 0.5,-38.5 115.5,-38.5 115.5,-19.5 0.5,-19.5"/>
<text text-anchor="middle" x="58" y="-26.5" font-family="Helvetica,sans-Serif" font-size="10.00">XMLNode::updateText</text>
</g>
<!-- Node2 -->
<g id="node2" class="node"><title>Node2</title>
<g id="a_node2"><a xlink:href="_c_d_a_q_2_plugins_2_source_2xml_parser_8cpp.xhtml#a5ba11fcf2496bd498e46fc958dba3d06" target="_top" xlink:title="stringDup">
<polygon fill="white" stroke="black" points="198.5,-38.5 198.5,-57.5 257.5,-57.5 257.5,-38.5 198.5,-38.5"/>
<text text-anchor="middle" x="228" y="-45.5" font-family="Helvetica,sans-Serif" font-size="10.00">stringDup</text>
</a>
</g>
</g>
<!-- Node1&#45;&gt;Node2 -->
<g id="edge1" class="edge"><title>Node1&#45;&gt;Node2</title>
<path fill="none" stroke="midnightblue" d="M115.877,-35.4325C139.764,-38.1341 166.929,-41.2063 188.422,-43.637"/>
<polygon fill="midnightblue" stroke="midnightblue" points="188.147,-47.1282 198.477,-44.7742 188.934,-40.1725 188.147,-47.1282"/>
</g>
<!-- Node3 -->
<g id="node3" class="node"><title>Node3</title>
<g id="a_node3"><a xlink:href="struct_x_m_l_node.xhtml#a8809eddad474e8bd7ad5f57aea7c77ac" target="_top" xlink:title="XMLNode::updateText_WOSD">
<polygon fill="white" stroke="black" points="152,-0.5 152,-19.5 304,-19.5 304,-0.5 152,-0.5"/>
<text text-anchor="middle" x="228" y="-7.5" font-family="Helvetica,sans-Serif" font-size="10.00">XMLNode::updateText_WOSD</text>
</a>
</g>
</g>
<!-- Node1&#45;&gt;Node3 -->
<g id="edge2" class="edge"><title>Node1&#45;&gt;Node3</title>
<path fill="none" stroke="midnightblue" d="M115.877,-22.5675C124.156,-21.6312 132.828,-20.6504 141.522,-19.6672"/>
<polygon fill="midnightblue" stroke="midnightblue" points="142.171,-23.1161 151.715,-18.5144 141.385,-16.1605 142.171,-23.1161"/>
</g>
<!-- Node4 -->
<g id="node4" class="node"><title>Node4</title>
<g id="a_node4"><a xlink:href="struct_x_m_l_node.xhtml#a90944eacfeb994486e3ca83a68c35b6a" target="_top" xlink:title="XMLNode::addText_WOSD">
<polygon fill="white" stroke="black" points="340,-0.5 340,-19.5 478,-19.5 478,-0.5 340,-0.5"/>
<text text-anchor="middle" x="409" y="-7.5" font-family="Helvetica,sans-Serif" font-size="10.00">XMLNode::addText_WOSD</text>
</a>
</g>
</g>
<!-- Node3&#45;&gt;Node4 -->
<g id="edge3" class="edge"><title>Node3&#45;&gt;Node4</title>
<path fill="none" stroke="midnightblue" d="M304.134,-10C312.568,-10 321.177,-10 329.651,-10"/>
<polygon fill="midnightblue" stroke="midnightblue" points="329.899,-13.5001 339.899,-10 329.899,-6.5001 329.899,-13.5001"/>
</g>
</g>
</svg>
