<?xml version="1.0" encoding="UTF-8" standalone="no"?>
<!DOCTYPE svg PUBLIC "-//W3C//DTD SVG 1.1//EN"
 "http://www.w3.org/Graphics/SVG/1.1/DTD/svg11.dtd">
<!-- Generated by graphviz version 2.36.0 (20140111.2315)
 -->
<!-- Title: XMLNode::nElement Pages: 1 -->
<svg width="910pt" height="343pt"
 viewBox="0.00 0.00 910.00 343.00" xmlns="http://www.w3.org/2000/svg" xmlns:xlink="http://www.w3.org/1999/xlink">
<g id="graph0" class="graph" transform="scale(1 1) rotate(0) translate(4 339)">
<title>XMLNode::nElement</title>
<polygon fill="white" stroke="none" points="-4,4 -4,-339 906,-339 906,4 -4,4"/>
<!-- Node1 -->
<g id="node1" class="node"><title>Node1</title>
<polygon fill="#bfbfbf" stroke="black" points="0.5,-277.5 0.5,-296.5 107.5,-296.5 107.5,-277.5 0.5,-277.5"/>
<text text-anchor="middle" x="54" y="-284.5" font-family="Helvetica,sans-Serif" font-size="10.00">XMLNode::nElement</text>
</g>
<!-- Node2 -->
<g id="node2" class="node"><title>Node2</title>
<g id="a_node2"><a xlink:href="_p_d_a_q_2_core_2_source_2xml_parser_8cpp.xhtml#a9a625f17c09a36e3ad532cdf16072609" target="_top" xlink:title="charmemset">
<polygon fill="white" stroke="black" points="815.5,-315.5 815.5,-334.5 886.5,-334.5 886.5,-315.5 815.5,-315.5"/>
<text text-anchor="middle" x="851" y="-322.5" font-family="Helvetica,sans-Serif" font-size="10.00">charmemset</text>
</a>
</g>
</g>
<!-- Node1&#45;&gt;Node2 -->
<g id="edge1" class="edge"><title>Node1&#45;&gt;Node2</title>
<path fill="none" stroke="midnightblue" d="M110.611,-298.554C169.341,-309.734 264.771,-325 348,-325 348,-325 348,-325 505,-325 618.503,-325 753.01,-325 815.232,-325"/>
<polygon fill="midnightblue" stroke="midnightblue" points="110.922,-295.05 100.44,-296.589 109.594,-301.923 110.922,-295.05"/>
</g>
<!-- Node3 -->
<g id="node3" class="node"><title>Node3</title>
<g id="a_node3"><a xlink:href="_p_d_a_q_2_core_2_source_2xml_parser_8cpp.xhtml#ae6aa5a367ab3cc92b47fd92f81add72a" target="_top" xlink:title="CountLinesAndColumns">
<polygon fill="white" stroke="black" points="443,-239.5 443,-258.5 565,-258.5 565,-239.5 443,-239.5"/>
<text text-anchor="middle" x="504" y="-246.5" font-family="Helvetica,sans-Serif" font-size="10.00">CountLinesAndColumns</text>
</a>
</g>
</g>
<!-- Node1&#45;&gt;Node3 -->
<g id="edge2" class="edge"><title>Node1&#45;&gt;Node3</title>
<path fill="none" stroke="midnightblue" d="M118.063,-283.943C187.684,-280.263 303.019,-273.271 402,-263 415.294,-261.621 429.531,-259.837 443,-258.008"/>
<polygon fill="midnightblue" stroke="midnightblue" points="117.515,-280.466 107.711,-284.483 117.88,-287.457 117.515,-280.466"/>
</g>
<!-- Node4 -->
<g id="node4" class="node"><title>Node4</title>
<g id="a_node4"><a xlink:href="struct_x_m_l_node.xhtml#acb95f4f00e4cf3756aac0e3a53765248" target="_top" xlink:title="XMLNode::parseString">
<polygon fill="white" stroke="black" points="144,-239.5 144,-258.5 260,-258.5 260,-239.5 144,-239.5"/>
<text text-anchor="middle" x="202" y="-246.5" font-family="Helvetica,sans-Serif" font-size="10.00">XMLNode::parseString</text>
</a>
</g>
</g>
<!-- Node1&#45;&gt;Node4 -->
<g id="edge3" class="edge"><title>Node1&#45;&gt;Node4</title>
<path fill="none" stroke="midnightblue" d="M101.536,-274.888C121.87,-269.596 145.371,-263.479 164.423,-258.52"/>
<polygon fill="midnightblue" stroke="midnightblue" points="100.638,-271.505 91.842,-277.411 102.401,-278.279 100.638,-271.505"/>
</g>
<!-- Node4&#45;&gt;Node3 -->
<g id="edge22" class="edge"><title>Node4&#45;&gt;Node3</title>
<path fill="none" stroke="midnightblue" d="M270.231,-249C322.058,-249 393.075,-249 442.995,-249"/>
<polygon fill="midnightblue" stroke="midnightblue" points="270.134,-245.5 260.134,-249 270.134,-252.5 270.134,-245.5"/>
</g>
<!-- Node5 -->
<g id="node5" class="node"><title>Node5</title>
<g id="a_node5"><a xlink:href="struct_x_m_l_node.xhtml#a5e5968e052d58350918cd91e3535624b" target="_top" xlink:title="XMLNode::parseFile">
<polygon fill="white" stroke="black" points="296,-201.5 296,-220.5 402,-220.5 402,-201.5 296,-201.5"/>
<text text-anchor="middle" x="349" y="-208.5" font-family="Helvetica,sans-Serif" font-size="10.00">XMLNode::parseFile</text>
</a>
</g>
</g>
<!-- Node4&#45;&gt;Node5 -->
<g id="edge4" class="edge"><title>Node4&#45;&gt;Node5</title>
<path fill="none" stroke="midnightblue" d="M249.493,-236.816C269.624,-231.54 292.838,-225.456 311.673,-220.52"/>
<polygon fill="midnightblue" stroke="midnightblue" points="248.376,-233.49 239.59,-239.411 250.15,-240.262 248.376,-233.49"/>
</g>
<!-- Node5&#45;&gt;Node3 -->
<g id="edge21" class="edge"><title>Node5&#45;&gt;Node3</title>
<path fill="none" stroke="midnightblue" d="M398.477,-223.04C419.852,-228.349 444.613,-234.499 464.669,-239.48"/>
<polygon fill="midnightblue" stroke="midnightblue" points="399.157,-219.603 388.608,-220.589 397.47,-226.396 399.157,-219.603"/>
</g>
<!-- Node6 -->
<g id="node6" class="node"><title>Node6</title>
<g id="a_node6"><a xlink:href="struct_x_m_l_node.xhtml#acc044148e2b9b8264a320b7b6e398158" target="_top" xlink:title="XMLNode::openFileHelper">
<polygon fill="white" stroke="black" points="438.5,-163.5 438.5,-182.5 569.5,-182.5 569.5,-163.5 438.5,-163.5"/>
<text text-anchor="middle" x="504" y="-170.5" font-family="Helvetica,sans-Serif" font-size="10.00">XMLNode::openFileHelper</text>
</a>
</g>
</g>
<!-- Node5&#45;&gt;Node6 -->
<g id="edge5" class="edge"><title>Node5&#45;&gt;Node6</title>
<path fill="none" stroke="midnightblue" d="M398.477,-198.96C419.852,-193.651 444.613,-187.501 464.669,-182.52"/>
<polygon fill="midnightblue" stroke="midnightblue" points="397.47,-195.604 388.608,-201.411 399.157,-202.397 397.47,-195.604"/>
</g>
<!-- Node14 -->
<g id="node14" class="node"><title>Node14</title>
<g id="a_node14"><a xlink:href="_p_d_a_q_2_core_2_source_2xml_parser_8cpp.xhtml#af77e3e2685487b9c492b20c36f3b864a" target="_top" xlink:title="_strnicmp">
<polygon fill="white" stroke="black" points="655.5,-277.5 655.5,-296.5 714.5,-296.5 714.5,-277.5 655.5,-277.5"/>
<text text-anchor="middle" x="685" y="-284.5" font-family="Helvetica,sans-Serif" font-size="10.00">_strnicmp</text>
</a>
</g>
</g>
<!-- Node5&#45;&gt;Node14 -->
<g id="edge20" class="edge"><title>Node5&#45;&gt;Node14</title>
<path fill="none" stroke="midnightblue" d="M412.171,-204.909C458.018,-203.065 520.72,-206.239 570,-230 590.956,-240.104 585.877,-256.326 606,-268 621.07,-276.742 640.02,-281.477 655.468,-284.034"/>
<polygon fill="midnightblue" stroke="midnightblue" points="411.886,-201.419 402.071,-205.407 412.231,-208.41 411.886,-201.419"/>
</g>
<!-- Node7 -->
<g id="node7" class="node"><title>Node7</title>
<g id="a_node7"><a xlink:href="class_a_d_c_manager1720.xhtml#aae342ccd8bf1c253c455e195bfd82dfe" target="_top" xlink:title="ADCManager1720::Init">
<polygon fill="white" stroke="black" points="627,-201.5 627,-220.5 743,-220.5 743,-201.5 627,-201.5"/>
<text text-anchor="middle" x="685" y="-208.5" font-family="Helvetica,sans-Serif" font-size="10.00">ADCManager1720::Init</text>
</a>
</g>
</g>
<!-- Node6&#45;&gt;Node7 -->
<g id="edge6" class="edge"><title>Node6&#45;&gt;Node7</title>
<path fill="none" stroke="midnightblue" d="M560.024,-184.681C585.408,-190.07 615.161,-196.386 639.156,-201.48"/>
<polygon fill="midnightblue" stroke="midnightblue" points="560.678,-181.242 550.169,-182.589 559.224,-188.089 560.678,-181.242"/>
</g>
<!-- Node8 -->
<g id="node8" class="node"><title>Node8</title>
<g id="a_node8"><a xlink:href="class_a_d_c_manager1724.xhtml#a6de2521b9c793edcf14aeaeefeb62787" target="_top" xlink:title="ADCManager1724::Init">
<polygon fill="white" stroke="black" points="627,-163.5 627,-182.5 743,-182.5 743,-163.5 627,-163.5"/>
<text text-anchor="middle" x="685" y="-170.5" font-family="Helvetica,sans-Serif" font-size="10.00">ADCManager1724::Init</text>
</a>
</g>
</g>
<!-- Node6&#45;&gt;Node8 -->
<g id="edge7" class="edge"><title>Node6&#45;&gt;Node8</title>
<path fill="none" stroke="midnightblue" d="M579.85,-173C595.58,-173 611.93,-173 626.887,-173"/>
<polygon fill="midnightblue" stroke="midnightblue" points="579.623,-169.5 569.623,-173 579.623,-176.5 579.623,-169.5"/>
</g>
<!-- Node9 -->
<g id="node9" class="node"><title>Node9</title>
<g id="a_node9"><a xlink:href="class_a_d_c_manager1730.xhtml#adb6d45f2024f4a52d366a88d1c7f229d" target="_top" xlink:title="ADCManager1730::Init">
<polygon fill="white" stroke="black" points="627,-125.5 627,-144.5 743,-144.5 743,-125.5 627,-125.5"/>
<text text-anchor="middle" x="685" y="-132.5" font-family="Helvetica,sans-Serif" font-size="10.00">ADCManager1730::Init</text>
</a>
</g>
</g>
<!-- Node6&#45;&gt;Node9 -->
<g id="edge8" class="edge"><title>Node6&#45;&gt;Node9</title>
<path fill="none" stroke="midnightblue" d="M560.024,-161.319C585.408,-155.93 615.161,-149.614 639.156,-144.52"/>
<polygon fill="midnightblue" stroke="midnightblue" points="559.224,-157.911 550.169,-163.411 560.678,-164.758 559.224,-157.911"/>
</g>
<!-- Node10 -->
<g id="node10" class="node"><title>Node10</title>
<g id="a_node10"><a xlink:href="class_scope_manager.xhtml#abe246d1b817d85a9cba7af3441a4df04" target="_top" xlink:title="ScopeManager::ShowEvent">
<polygon fill="white" stroke="black" points="616,-49.5 616,-68.5 754,-68.5 754,-49.5 616,-49.5"/>
<text text-anchor="middle" x="685" y="-56.5" font-family="Helvetica,sans-Serif" font-size="10.00">ScopeManager::ShowEvent</text>
</a>
</g>
</g>
<!-- Node6&#45;&gt;Node10 -->
<g id="edge9" class="edge"><title>Node6&#45;&gt;Node10</title>
<path fill="none" stroke="midnightblue" d="M518.648,-155.502C536.419,-133.948 569.546,-97.767 606,-78 613.106,-74.1467 620.996,-71.0641 628.95,-68.6008"/>
<polygon fill="midnightblue" stroke="midnightblue" points="515.755,-153.513 512.208,-163.497 521.207,-157.904 515.755,-153.513"/>
</g>
<!-- Node12 -->
<g id="node12" class="node"><title>Node12</title>
<g id="a_node12"><a xlink:href="class_slowcontrol_manager.xhtml#a36ab5157f5a740b9058517b77d1ce38f" target="_top" xlink:title="SlowcontrolManager\l::ShowStatus">
<polygon fill="white" stroke="black" points="632.5,-0 632.5,-30 737.5,-30 737.5,-0 632.5,-0"/>
<text text-anchor="start" x="640.5" y="-18" font-family="Helvetica,sans-Serif" font-size="10.00">SlowcontrolManager</text>
<text text-anchor="middle" x="685" y="-7" font-family="Helvetica,sans-Serif" font-size="10.00">::ShowStatus</text>
</a>
</g>
</g>
<!-- Node6&#45;&gt;Node12 -->
<g id="edge11" class="edge"><title>Node6&#45;&gt;Node12</title>
<path fill="none" stroke="midnightblue" d="M514.293,-154.377C529.55,-125.667 562.596,-70.7078 606,-40 613.894,-34.4151 623.098,-30.0333 632.358,-26.6095"/>
<polygon fill="midnightblue" stroke="midnightblue" points="511.135,-152.865 509.651,-163.355 517.353,-156.08 511.135,-152.865"/>
</g>
<!-- Node13 -->
<g id="node13" class="node"><title>Node13</title>
<g id="a_node13"><a xlink:href="class_storage_manager.xhtml#ab16a945d003852d02556daf3610a9aac" target="_top" xlink:title="StorageManager::SaveContainer">
<polygon fill="white" stroke="black" points="606,-87.5 606,-106.5 764,-106.5 764,-87.5 606,-87.5"/>
<text text-anchor="middle" x="685" y="-94.5" font-family="Helvetica,sans-Serif" font-size="10.00">StorageManager::SaveContainer</text>
</a>
</g>
</g>
<!-- Node6&#45;&gt;Node13 -->
<g id="edge13" class="edge"><title>Node6&#45;&gt;Node13</title>
<path fill="none" stroke="midnightblue" d="M527.736,-157.757C547.637,-145.015 577.711,-127.18 606,-116 615.462,-112.26 625.871,-109.109 635.916,-106.513"/>
<polygon fill="midnightblue" stroke="midnightblue" points="525.566,-154.993 519.094,-163.381 529.384,-160.86 525.566,-154.993"/>
</g>
<!-- Node6&#45;&gt;Node14 -->
<g id="edge15" class="edge"><title>Node6&#45;&gt;Node14</title>
<path fill="none" stroke="midnightblue" d="M554.815,-186.845C560.298,-189.651 565.511,-193.002 570,-197 596.421,-220.531 578.273,-246.023 606,-268 619.981,-279.082 639.481,-283.832 655.486,-285.811"/>
<polygon fill="midnightblue" stroke="midnightblue" points="555.968,-183.527 545.412,-182.623 553.1,-189.912 555.968,-183.527"/>
</g>
<!-- Node16 -->
<g id="node16" class="node"><title>Node16</title>
<g id="a_node16"><a xlink:href="_p_d_a_q_2_core_2_source_2xml_8cpp.xhtml#a8251b051736c5146c1985edc6cb357e6" target="_top" xlink:title="xml_readsettings">
<polygon fill="white" stroke="black" points="639.5,-239.5 639.5,-258.5 730.5,-258.5 730.5,-239.5 639.5,-239.5"/>
<text text-anchor="middle" x="685" y="-246.5" font-family="Helvetica,sans-Serif" font-size="10.00">xml_readsettings</text>
</a>
</g>
</g>
<!-- Node6&#45;&gt;Node16 -->
<g id="edge18" class="edge"><title>Node6&#45;&gt;Node16</title>
<path fill="none" stroke="midnightblue" d="M548.034,-186.19C555.598,-189.257 563.213,-192.859 570,-197 588.529,-208.305 586.853,-219.777 606,-230 616.205,-235.449 627.991,-239.362 639.262,-242.162"/>
<polygon fill="midnightblue" stroke="midnightblue" points="549.139,-182.866 538.548,-182.594 546.658,-189.412 549.139,-182.866"/>
</g>
<!-- Node11 -->
<g id="node11" class="node"><title>Node11</title>
<g id="a_node11"><a xlink:href="_multi_d_a_q_8cpp.xhtml#adedb285b02c41bde2158ded9cc9fd7ac" target="_top" xlink:title="main">
<polygon fill="white" stroke="black" points="832,-49.5 832,-68.5 870,-68.5 870,-49.5 832,-49.5"/>
<text text-anchor="middle" x="851" y="-56.5" font-family="Helvetica,sans-Serif" font-size="10.00">main</text>
</a>
</g>
</g>
<!-- Node10&#45;&gt;Node11 -->
<g id="edge10" class="edge"><title>Node10&#45;&gt;Node11</title>
<path fill="none" stroke="midnightblue" d="M764.16,-59C789.477,-59 815.284,-59 831.898,-59"/>
<polygon fill="midnightblue" stroke="midnightblue" points="764.126,-55.5001 754.126,-59 764.126,-62.5001 764.126,-55.5001"/>
</g>
<!-- Node12&#45;&gt;Node11 -->
<g id="edge12" class="edge"><title>Node12&#45;&gt;Node11</title>
<path fill="none" stroke="midnightblue" d="M747.865,-31.598C777.783,-39.6246 811.511,-48.6738 831.744,-54.1019"/>
<polygon fill="midnightblue" stroke="midnightblue" points="748.456,-28.1328 737.891,-28.9219 746.642,-34.8937 748.456,-28.1328"/>
</g>
<!-- Node13&#45;&gt;Node11 -->
<g id="edge14" class="edge"><title>Node13&#45;&gt;Node11</title>
<path fill="none" stroke="midnightblue" d="M737.543,-85.0572C769.714,-77.6028 809.177,-68.4589 831.773,-63.2233"/>
<polygon fill="midnightblue" stroke="midnightblue" points="736.336,-81.744 727.384,-87.411 737.916,-88.5633 736.336,-81.744"/>
</g>
<!-- Node14&#45;&gt;Node2 -->
<g id="edge16" class="edge"><title>Node14&#45;&gt;Node2</title>
<path fill="none" stroke="midnightblue" d="M724.605,-295.945C752.068,-302.308 788.653,-310.785 815.214,-316.94"/>
<polygon fill="midnightblue" stroke="midnightblue" points="725.099,-292.467 714.567,-293.619 723.518,-299.286 725.099,-292.467"/>
</g>
<!-- Node15 -->
<g id="node15" class="node"><title>Node15</title>
<g id="a_node15"><a xlink:href="_p_d_a_q_2_core_2_source_2xml_parser_8cpp.xhtml#ad9a5c911a8e21bb89427d29d33e2797e" target="_top" xlink:title="myIsTextWideChar">
<polygon fill="white" stroke="black" points="800.5,-277.5 800.5,-296.5 901.5,-296.5 901.5,-277.5 800.5,-277.5"/>
<text text-anchor="middle" x="851" y="-284.5" font-family="Helvetica,sans-Serif" font-size="10.00">myIsTextWideChar</text>
</a>
</g>
</g>
<!-- Node14&#45;&gt;Node15 -->
<g id="edge17" class="edge"><title>Node14&#45;&gt;Node15</title>
<path fill="none" stroke="midnightblue" d="M724.784,-287C747.346,-287 776.018,-287 800.231,-287"/>
<polygon fill="midnightblue" stroke="midnightblue" points="724.567,-283.5 714.567,-287 724.567,-290.5 724.567,-283.5"/>
</g>
<!-- Node17 -->
<g id="node17" class="node"><title>Node17</title>
<g id="a_node17"><a xlink:href="_z_d_a_q_8cpp.xhtml#a0ddf1224851353fc92bfbff6f499fa97" target="_top" xlink:title="main">
<polygon fill="white" stroke="black" points="832,-239.5 832,-258.5 870,-258.5 870,-239.5 832,-239.5"/>
<text text-anchor="middle" x="851" y="-246.5" font-family="Helvetica,sans-Serif" font-size="10.00">main</text>
</a>
</g>
</g>
<!-- Node16&#45;&gt;Node17 -->
<g id="edge19" class="edge"><title>Node16&#45;&gt;Node17</title>
<path fill="none" stroke="midnightblue" d="M741.216,-249C772.646,-249 809.974,-249 831.724,-249"/>
<polygon fill="midnightblue" stroke="midnightblue" points="740.814,-245.5 730.814,-249 740.814,-252.5 740.814,-245.5"/>
</g>
</g>
</svg>
