<?xml version="1.0" encoding="UTF-8" standalone="no"?>
<!DOCTYPE svg PUBLIC "-//W3C//DTD SVG 1.1//EN"
 "http://www.w3.org/Graphics/SVG/1.1/DTD/svg11.dtd">
<!-- Generated by graphviz version 2.36.0 (20140111.2315)
 -->
<!-- Title: XMLNode::updateClear_WOSD Pages: 1 -->
<svg width="534pt" height="47pt"
 viewBox="0.00 0.00 534.00 47.00" xmlns="http://www.w3.org/2000/svg" xmlns:xlink="http://www.w3.org/1999/xlink">
<g id="graph0" class="graph" transform="scale(1 1) rotate(0) translate(4 43)">
<title>XMLNode::updateClear_WOSD</title>
<polygon fill="white" stroke="none" points="-4,4 -4,-43 530,-43 530,4 -4,4"/>
<!-- Node1 -->
<g id="node1" class="node"><title>Node1</title>
<polygon fill="#bfbfbf" stroke="black" points="0.5,-19.5 0.5,-38.5 155.5,-38.5 155.5,-19.5 0.5,-19.5"/>
<text text-anchor="middle" x="78" y="-26.5" font-family="Helvetica,sans-Serif" font-size="10.00">XMLNode::updateClear_WOSD</text>
</g>
<!-- Node2 -->
<g id="node2" class="node"><title>Node2</title>
<g id="a_node2"><a xlink:href="struct_x_m_l_node.xhtml#ad92450b1a8380678f52ad53a54fd068c" target="_top" xlink:title="XMLNode::addClear_WOSD">
<polygon fill="white" stroke="black" points="384,-19.5 384,-38.5 526,-38.5 526,-19.5 384,-19.5"/>
<text text-anchor="middle" x="455" y="-26.5" font-family="Helvetica,sans-Serif" font-size="10.00">XMLNode::addClear_WOSD</text>
</a>
</g>
</g>
<!-- Node1&#45;&gt;Node2 -->
<g id="edge1" class="edge"><title>Node1&#45;&gt;Node2</title>
<path fill="none" stroke="midnightblue" d="M155.792,-29C219.354,-29 309.361,-29 373.835,-29"/>
<polygon fill="midnightblue" stroke="midnightblue" points="373.956,-32.5001 383.956,-29 373.956,-25.5001 373.956,-32.5001"/>
</g>
<!-- Node3 -->
<g id="node3" class="node"><title>Node3</title>
<g id="a_node3"><a xlink:href="struct_x_m_l_node.xhtml#a78712972d283700f8bd24d1e83ea7c55" target="_top" xlink:title="XMLNode::updateClear_WOSD">
<polygon fill="white" stroke="black" points="192.5,-0.5 192.5,-19.5 347.5,-19.5 347.5,-0.5 192.5,-0.5"/>
<text text-anchor="middle" x="270" y="-7.5" font-family="Helvetica,sans-Serif" font-size="10.00">XMLNode::updateClear_WOSD</text>
</a>
</g>
</g>
<!-- Node1&#45;&gt;Node3 -->
<g id="edge2" class="edge"><title>Node1&#45;&gt;Node3</title>
<path fill="none" stroke="midnightblue" d="M155.733,-21.3267C164.488,-20.4512 173.458,-19.5542 182.331,-18.6669"/>
<polygon fill="midnightblue" stroke="midnightblue" points="182.688,-22.1488 192.29,-17.671 181.991,-15.1835 182.688,-22.1488"/>
</g>
<!-- Node3&#45;&gt;Node2 -->
<g id="edge3" class="edge"><title>Node3&#45;&gt;Node2</title>
<path fill="none" stroke="midnightblue" d="M347.548,-17.9476C356.207,-18.8466 365.049,-19.7647 373.754,-20.6684"/>
<polygon fill="midnightblue" stroke="midnightblue" points="373.581,-24.1692 383.889,-21.7207 374.304,-17.2067 373.581,-24.1692"/>
</g>
</g>
</svg>
