<?xml version="1.0" encoding="UTF-8" standalone="no"?>
<!DOCTYPE svg PUBLIC "-//W3C//DTD SVG 1.1//EN"
 "http://www.w3.org/Graphics/SVG/1.1/DTD/svg11.dtd">
<!-- Generated by graphviz version 2.36.0 (20140111.2315)
 -->
<!-- Title: XMLNode::getAttribute Pages: 1 -->
<svg width="496pt" height="279pt"
 viewBox="0.00 0.00 496.00 279.00" xmlns="http://www.w3.org/2000/svg" xmlns:xlink="http://www.w3.org/1999/xlink">
<g id="graph0" class="graph" transform="scale(1 1) rotate(0) translate(4 275)">
<title>XMLNode::getAttribute</title>
<polygon fill="white" stroke="none" points="-4,4 -4,-275 492,-275 492,4 -4,4"/>
<!-- Node1 -->
<g id="node1" class="node"><title>Node1</title>
<polygon fill="#bfbfbf" stroke="black" points="0,-126.5 0,-145.5 116,-145.5 116,-126.5 0,-126.5"/>
<text text-anchor="middle" x="58" y="-133.5" font-family="Helvetica,sans-Serif" font-size="10.00">XMLNode::getAttribute</text>
</g>
<!-- Node2 -->
<g id="node2" class="node"><title>Node2</title>
<g id="a_node2"><a xlink:href="_p_d_a_q_2_core_2_source_2xml_parser_8cpp.xhtml#a9a625f17c09a36e3ad532cdf16072609" target="_top" xlink:title="charmemset">
<polygon fill="white" stroke="black" points="387.5,-202.5 387.5,-221.5 458.5,-221.5 458.5,-202.5 387.5,-202.5"/>
<text text-anchor="middle" x="423" y="-209.5" font-family="Helvetica,sans-Serif" font-size="10.00">charmemset</text>
</a>
</g>
</g>
<!-- Node1&#45;&gt;Node2 -->
<g id="edge1" class="edge"><title>Node1&#45;&gt;Node2</title>
<path fill="none" stroke="midnightblue" d="M78.36,-151.744C96.2766,-165.324 124.258,-184.112 152,-193 233.222,-219.022 334.991,-217.696 387.346,-214.721"/>
<polygon fill="midnightblue" stroke="midnightblue" points="80.4591,-148.942 70.4182,-145.561 76.1591,-154.466 80.4591,-148.942"/>
</g>
<!-- Node3 -->
<g id="node3" class="node"><title>Node3</title>
<g id="a_node3"><a xlink:href="struct_x_m_l_node.xhtml#a2b21339e5b370f1d7ebde2dc51217eed" target="_top" xlink:title="XMLNode::deleteAttribute">
<polygon fill="white" stroke="black" points="172.5,-126.5 172.5,-145.5 301.5,-145.5 301.5,-126.5 172.5,-126.5"/>
<text text-anchor="middle" x="237" y="-133.5" font-family="Helvetica,sans-Serif" font-size="10.00">XMLNode::deleteAttribute</text>
</a>
</g>
</g>
<!-- Node1&#45;&gt;Node3 -->
<g id="edge2" class="edge"><title>Node1&#45;&gt;Node3</title>
<path fill="none" stroke="midnightblue" d="M126.698,-136C141.704,-136 157.557,-136 172.393,-136"/>
<polygon fill="midnightblue" stroke="midnightblue" points="126.467,-132.5 116.467,-136 126.467,-139.5 126.467,-132.5"/>
</g>
<!-- Node5 -->
<g id="node5" class="node"><title>Node5</title>
<g id="a_node5"><a xlink:href="struct_x_m_l_node.xhtml#aba897c342d3c55d71f4d987332789f69" target="_top" xlink:title="XMLNode::getAttribute">
<polygon fill="white" stroke="black" points="179,-164.5 179,-183.5 295,-183.5 295,-164.5 179,-164.5"/>
<text text-anchor="middle" x="237" y="-171.5" font-family="Helvetica,sans-Serif" font-size="10.00">XMLNode::getAttribute</text>
</a>
</g>
</g>
<!-- Node1&#45;&gt;Node5 -->
<g id="edge5" class="edge"><title>Node1&#45;&gt;Node5</title>
<path fill="none" stroke="midnightblue" d="M113.742,-147.753C138.77,-153.126 168.035,-159.409 191.657,-164.48"/>
<polygon fill="midnightblue" stroke="midnightblue" points="114.176,-144.266 103.665,-145.589 112.707,-151.11 114.176,-144.266"/>
</g>
<!-- Node6 -->
<g id="node6" class="node"><title>Node6</title>
<g id="a_node6"><a xlink:href="struct_x_m_l_node.xhtml#a5d2775ee0704a2c028d76d267db7960a" target="_top" xlink:title="XMLNode::getChildNodeWith\lAttribute">
<polygon fill="white" stroke="black" points="164,-241 164,-271 310,-271 310,-241 164,-241"/>
<text text-anchor="start" x="172" y="-259" font-family="Helvetica,sans-Serif" font-size="10.00">XMLNode::getChildNodeWith</text>
<text text-anchor="middle" x="237" y="-248" font-family="Helvetica,sans-Serif" font-size="10.00">Attribute</text>
</a>
</g>
</g>
<!-- Node1&#45;&gt;Node6 -->
<g id="edge6" class="edge"><title>Node1&#45;&gt;Node6</title>
<path fill="none" stroke="midnightblue" d="M73.0109,-153.487C89.8631,-173.496 119.916,-206.063 152,-226 161.47,-231.885 172.258,-236.832 182.873,-240.905"/>
<polygon fill="midnightblue" stroke="midnightblue" points="75.4955,-150.999 66.4328,-145.511 70.095,-155.452 75.4955,-150.999"/>
</g>
<!-- Node7 -->
<g id="node7" class="node"><title>Node7</title>
<g id="a_node7"><a xlink:href="class_slowcontrol_manager.xhtml#a36ab5157f5a740b9058517b77d1ce38f" target="_top" xlink:title="SlowcontrolManager\l::ShowStatus">
<polygon fill="white" stroke="black" points="184.5,-77 184.5,-107 289.5,-107 289.5,-77 184.5,-77"/>
<text text-anchor="start" x="192.5" y="-95" font-family="Helvetica,sans-Serif" font-size="10.00">SlowcontrolManager</text>
<text text-anchor="middle" x="237" y="-84" font-family="Helvetica,sans-Serif" font-size="10.00">::ShowStatus</text>
</a>
</g>
</g>
<!-- Node1&#45;&gt;Node7 -->
<g id="edge8" class="edge"><title>Node1&#45;&gt;Node7</title>
<path fill="none" stroke="midnightblue" d="M107.296,-123.994C131.143,-118.066 159.935,-110.909 184.235,-104.868"/>
<polygon fill="midnightblue" stroke="midnightblue" points="106.267,-120.644 97.4064,-126.453 107.955,-127.437 106.267,-120.644"/>
</g>
<!-- Node9 -->
<g id="node9" class="node"><title>Node9</title>
<g id="a_node9"><a xlink:href="struct_x_m_l_node.xhtml#a4e1f2b9413ef0b87a073c861b1400d68" target="_top" xlink:title="XMLNode::updateAttribute_WOSD">
<polygon fill="white" stroke="black" points="152.5,-38.5 152.5,-57.5 321.5,-57.5 321.5,-38.5 152.5,-38.5"/>
<text text-anchor="middle" x="237" y="-45.5" font-family="Helvetica,sans-Serif" font-size="10.00">XMLNode::updateAttribute_WOSD</text>
</a>
</g>
</g>
<!-- Node1&#45;&gt;Node9 -->
<g id="edge10" class="edge"><title>Node1&#45;&gt;Node9</title>
<path fill="none" stroke="midnightblue" d="M76.7181,-119.271C94.4268,-103.467 123.109,-80.2635 152,-67 160.425,-63.1323 169.696,-60.0236 178.909,-57.5331"/>
<polygon fill="midnightblue" stroke="midnightblue" points="73.9795,-117.032 68.9535,-126.359 78.6988,-122.202 73.9795,-117.032"/>
</g>
<!-- Node10 -->
<g id="node10" class="node"><title>Node10</title>
<g id="a_node10"><a xlink:href="_p_d_a_q_2_core_2_source_2xml_8cpp.xhtml#a8251b051736c5146c1985edc6cb357e6" target="_top" xlink:title="xml_readsettings">
<polygon fill="white" stroke="black" points="191.5,-0.5 191.5,-19.5 282.5,-19.5 282.5,-0.5 191.5,-0.5"/>
<text text-anchor="middle" x="237" y="-7.5" font-family="Helvetica,sans-Serif" font-size="10.00">xml_readsettings</text>
</a>
</g>
</g>
<!-- Node1&#45;&gt;Node10 -->
<g id="edge11" class="edge"><title>Node1&#45;&gt;Node10</title>
<path fill="none" stroke="midnightblue" d="M69.7602,-117.563C84.9152,-93.3137 114.888,-51.1886 152,-29 163.806,-21.9411 177.975,-17.502 191.284,-14.7113"/>
<polygon fill="midnightblue" stroke="midnightblue" points="66.7228,-115.822 64.5263,-126.186 72.7069,-119.454 66.7228,-115.822"/>
</g>
<!-- Node3&#45;&gt;Node2 -->
<g id="edge3" class="edge"><title>Node3&#45;&gt;Node2</title>
<path fill="none" stroke="midnightblue" d="M300.942,-148.088C308.138,-150.1 315.292,-152.396 322,-155 354.601,-167.654 389.36,-189.644 408.093,-202.292"/>
<polygon fill="midnightblue" stroke="midnightblue" points="301.702,-144.669 291.141,-145.517 299.926,-151.44 301.702,-144.669"/>
</g>
<!-- Node4 -->
<g id="node4" class="node"><title>Node4</title>
<g id="a_node4"><a xlink:href="struct_x_m_l_node.xhtml#a6f00d7c1b4eaa29cfdd9d4a709495aca" target="_top" xlink:title="XMLNode::deleteAttribute">
<polygon fill="white" stroke="black" points="358.5,-126.5 358.5,-145.5 487.5,-145.5 487.5,-126.5 358.5,-126.5"/>
<text text-anchor="middle" x="423" y="-133.5" font-family="Helvetica,sans-Serif" font-size="10.00">XMLNode::deleteAttribute</text>
</a>
</g>
</g>
<!-- Node3&#45;&gt;Node4 -->
<g id="edge4" class="edge"><title>Node3&#45;&gt;Node4</title>
<path fill="none" stroke="midnightblue" d="M311.634,-136C327.123,-136 343.335,-136 358.417,-136"/>
<polygon fill="midnightblue" stroke="midnightblue" points="311.58,-132.5 301.58,-136 311.58,-139.5 311.58,-132.5"/>
</g>
<!-- Node6&#45;&gt;Node2 -->
<g id="edge7" class="edge"><title>Node6&#45;&gt;Node2</title>
<path fill="none" stroke="midnightblue" d="M310.79,-238.594C337.167,-232.286 365.749,-225.451 387.332,-220.29"/>
<polygon fill="midnightblue" stroke="midnightblue" points="309.719,-235.251 300.808,-240.981 311.348,-242.059 309.719,-235.251"/>
</g>
<!-- Node8 -->
<g id="node8" class="node"><title>Node8</title>
<g id="a_node8"><a xlink:href="_multi_d_a_q_8cpp.xhtml#adedb285b02c41bde2158ded9cc9fd7ac" target="_top" xlink:title="main">
<polygon fill="white" stroke="black" points="404,-82.5 404,-101.5 442,-101.5 442,-82.5 404,-82.5"/>
<text text-anchor="middle" x="423" y="-89.5" font-family="Helvetica,sans-Serif" font-size="10.00">main</text>
</a>
</g>
</g>
<!-- Node7&#45;&gt;Node8 -->
<g id="edge9" class="edge"><title>Node7&#45;&gt;Node8</title>
<path fill="none" stroke="midnightblue" d="M299.786,-92C336.134,-92 379.559,-92 403.63,-92"/>
<polygon fill="midnightblue" stroke="midnightblue" points="299.744,-88.5001 289.744,-92 299.744,-95.5001 299.744,-88.5001"/>
</g>
<!-- Node11 -->
<g id="node11" class="node"><title>Node11</title>
<g id="a_node11"><a xlink:href="_z_d_a_q_8cpp.xhtml#a0ddf1224851353fc92bfbff6f499fa97" target="_top" xlink:title="main">
<polygon fill="white" stroke="black" points="404,-0.5 404,-19.5 442,-19.5 442,-0.5 404,-0.5"/>
<text text-anchor="middle" x="423" y="-7.5" font-family="Helvetica,sans-Serif" font-size="10.00">main</text>
</a>
</g>
</g>
<!-- Node10&#45;&gt;Node11 -->
<g id="edge12" class="edge"><title>Node10&#45;&gt;Node11</title>
<path fill="none" stroke="midnightblue" d="M292.896,-10C330.645,-10 378.406,-10 403.943,-10"/>
<polygon fill="midnightblue" stroke="midnightblue" points="292.541,-6.5001 282.541,-10 292.541,-13.5001 292.541,-6.5001"/>
</g>
</g>
</svg>
