<?xml version="1.0" encoding="UTF-8" standalone="no"?>
<!DOCTYPE svg PUBLIC "-//W3C//DTD SVG 1.1//EN"
 "http://www.w3.org/Graphics/SVG/1.1/DTD/svg11.dtd">
<!-- Generated by graphviz version 2.36.0 (20140111.2315)
 -->
<!-- Title: XMLNode::updateAttribute_WOSD Pages: 1 -->
<svg width="576pt" height="122pt"
 viewBox="0.00 0.00 576.00 121.94" xmlns="http://www.w3.org/2000/svg" xmlns:xlink="http://www.w3.org/1999/xlink">
<g id="graph0" class="graph" transform="scale(1 1) rotate(0) translate(4 117.944)">
<title>XMLNode::updateAttribute_WOSD</title>
<polygon fill="white" stroke="none" points="-4,4 -4,-117.944 572,-117.944 572,4 -4,4"/>
<!-- Node1 -->
<g id="node1" class="node"><title>Node1</title>
<polygon fill="#bfbfbf" stroke="black" points="0.5,-57.5 0.5,-76.5 169.5,-76.5 169.5,-57.5 0.5,-57.5"/>
<text text-anchor="middle" x="85" y="-64.5" font-family="Helvetica,sans-Serif" font-size="10.00">XMLNode::updateAttribute_WOSD</text>
</g>
<!-- Node2 -->
<g id="node2" class="node"><title>Node2</title>
<g id="a_node2"><a xlink:href="struct_x_m_l_node.xhtml#a45d1c57025ef576313d7412920d7a326" target="_top" xlink:title="XMLNode::addAttribute_WOSD">
<polygon fill="white" stroke="black" points="412.5,-57.5 412.5,-76.5 567.5,-76.5 567.5,-57.5 412.5,-57.5"/>
<text text-anchor="middle" x="490" y="-64.5" font-family="Helvetica,sans-Serif" font-size="10.00">XMLNode::addAttribute_WOSD</text>
</a>
</g>
</g>
<!-- Node1&#45;&gt;Node2 -->
<g id="edge1" class="edge"><title>Node1&#45;&gt;Node2</title>
<path fill="none" stroke="midnightblue" d="M108.946,-76.595C132.731,-85.9817 171.23,-99.6262 206,-105 280.669,-116.54 301.436,-117.202 376,-105 404.647,-100.312 435.82,-89.356 458.154,-80.4064"/>
<polygon fill="midnightblue" stroke="midnightblue" points="459.529,-83.6257 467.452,-76.5919 456.872,-77.1495 459.529,-83.6257"/>
</g>
<!-- Node3 -->
<g id="node3" class="node"><title>Node3</title>
<g id="a_node3"><a xlink:href="struct_x_m_l_node.xhtml#aa07572a057ce7ffc8843e468d952f490" target="_top" xlink:title="XMLNode::getAttribute">
<polygon fill="white" stroke="black" points="233,-76.5 233,-95.5 349,-95.5 349,-76.5 233,-76.5"/>
<text text-anchor="middle" x="291" y="-83.5" font-family="Helvetica,sans-Serif" font-size="10.00">XMLNode::getAttribute</text>
</a>
</g>
</g>
<!-- Node1&#45;&gt;Node3 -->
<g id="edge2" class="edge"><title>Node1&#45;&gt;Node3</title>
<path fill="none" stroke="midnightblue" d="M169.563,-74.7828C187.15,-76.4208 205.493,-78.1292 222.406,-79.7045"/>
<polygon fill="midnightblue" stroke="midnightblue" points="222.451,-83.2237 232.733,-80.6663 223.1,-76.2539 222.451,-83.2237"/>
</g>
<!-- Node4 -->
<g id="node4" class="node"><title>Node4</title>
<g id="a_node4"><a xlink:href="_c_d_a_q_2_plugins_2_source_2xml_parser_8cpp.xhtml#a5ba11fcf2496bd498e46fc958dba3d06" target="_top" xlink:title="stringDup">
<polygon fill="white" stroke="black" points="261.5,-38.5 261.5,-57.5 320.5,-57.5 320.5,-38.5 261.5,-38.5"/>
<text text-anchor="middle" x="291" y="-45.5" font-family="Helvetica,sans-Serif" font-size="10.00">stringDup</text>
</a>
</g>
</g>
<!-- Node1&#45;&gt;Node4 -->
<g id="edge3" class="edge"><title>Node1&#45;&gt;Node4</title>
<path fill="none" stroke="midnightblue" d="M169.563,-59.2172C197.808,-56.5866 228.003,-53.7742 251.094,-51.6236"/>
<polygon fill="midnightblue" stroke="midnightblue" points="251.538,-55.0974 261.171,-50.6851 250.889,-48.1276 251.538,-55.0974"/>
</g>
<!-- Node5 -->
<g id="node5" class="node"><title>Node5</title>
<g id="a_node5"><a xlink:href="struct_x_m_l_node.xhtml#a62a2c0cad7809a03afc485351c9560da" target="_top" xlink:title="XMLNode::updateAttribute_WOSD">
<polygon fill="white" stroke="black" points="206.5,-0.5 206.5,-19.5 375.5,-19.5 375.5,-0.5 206.5,-0.5"/>
<text text-anchor="middle" x="291" y="-7.5" font-family="Helvetica,sans-Serif" font-size="10.00">XMLNode::updateAttribute_WOSD</text>
</a>
</g>
</g>
<!-- Node1&#45;&gt;Node5 -->
<g id="edge4" class="edge"><title>Node1&#45;&gt;Node5</title>
<path fill="none" stroke="midnightblue" d="M113.928,-57.4207C138.123,-49.2989 174.15,-37.6285 206,-29 215.211,-26.5045 225.051,-24.0723 234.634,-21.8269"/>
<polygon fill="midnightblue" stroke="midnightblue" points="235.528,-25.2126 244.489,-19.5598 233.959,-18.3908 235.528,-25.2126"/>
</g>
<!-- Node5&#45;&gt;Node2 -->
<g id="edge5" class="edge"><title>Node5&#45;&gt;Node2</title>
<path fill="none" stroke="midnightblue" d="M337.988,-19.5134C350.392,-22.3207 363.763,-25.5682 376,-29 402.269,-36.367 431.444,-46.2219 453.569,-54.0496"/>
<polygon fill="midnightblue" stroke="midnightblue" points="452.608,-57.4228 463.202,-57.4873 454.96,-50.8299 452.608,-57.4228"/>
</g>
</g>
</svg>
