<?xml version="1.0" encoding="UTF-8" standalone="no"?>
<!DOCTYPE svg PUBLIC "-//W3C//DTD SVG 1.1//EN"
 "http://www.w3.org/Graphics/SVG/1.1/DTD/svg11.dtd">
<!-- Generated by graphviz version 2.36.0 (20140111.2315)
 -->
<!-- Title: XMLNode::getName Pages: 1 -->
<svg width="908pt" height="343pt"
 viewBox="0.00 0.00 908.00 343.00" xmlns="http://www.w3.org/2000/svg" xmlns:xlink="http://www.w3.org/1999/xlink">
<g id="graph0" class="graph" transform="scale(1 1) rotate(0) translate(4 339)">
<title>XMLNode::getName</title>
<polygon fill="white" stroke="none" points="-4,4 -4,-339 904,-339 904,4 -4,4"/>
<!-- Node1 -->
<g id="node1" class="node"><title>Node1</title>
<polygon fill="#bfbfbf" stroke="black" points="0,-277.5 0,-296.5 106,-296.5 106,-277.5 0,-277.5"/>
<text text-anchor="middle" x="53" y="-284.5" font-family="Helvetica,sans-Serif" font-size="10.00">XMLNode::getName</text>
</g>
<!-- Node2 -->
<g id="node2" class="node"><title>Node2</title>
<g id="a_node2"><a xlink:href="_p_d_a_q_2_core_2_source_2xml_parser_8cpp.xhtml#a9a625f17c09a36e3ad532cdf16072609" target="_top" xlink:title="charmemset">
<polygon fill="white" stroke="black" points="813.5,-315.5 813.5,-334.5 884.5,-334.5 884.5,-315.5 813.5,-315.5"/>
<text text-anchor="middle" x="849" y="-322.5" font-family="Helvetica,sans-Serif" font-size="10.00">charmemset</text>
</a>
</g>
</g>
<!-- Node1&#45;&gt;Node2 -->
<g id="edge1" class="edge"><title>Node1&#45;&gt;Node2</title>
<path fill="none" stroke="midnightblue" d="M109.419,-298.554C167.947,-309.734 263.051,-325 346,-325 346,-325 346,-325 503,-325 616.503,-325 751.01,-325 813.232,-325"/>
<polygon fill="midnightblue" stroke="midnightblue" points="109.766,-295.057 99.2828,-296.589 108.434,-301.929 109.766,-295.057"/>
</g>
<!-- Node3 -->
<g id="node3" class="node"><title>Node3</title>
<g id="a_node3"><a xlink:href="_p_d_a_q_2_core_2_source_2xml_parser_8cpp.xhtml#ae6aa5a367ab3cc92b47fd92f81add72a" target="_top" xlink:title="CountLinesAndColumns">
<polygon fill="white" stroke="black" points="441,-239.5 441,-258.5 563,-258.5 563,-239.5 441,-239.5"/>
<text text-anchor="middle" x="502" y="-246.5" font-family="Helvetica,sans-Serif" font-size="10.00">CountLinesAndColumns</text>
</a>
</g>
</g>
<!-- Node1&#45;&gt;Node3 -->
<g id="edge2" class="edge"><title>Node1&#45;&gt;Node3</title>
<path fill="none" stroke="midnightblue" d="M116.581,-283.951C185.969,-280.27 301.162,-273.266 400,-263 413.294,-261.619 427.531,-259.835 440.999,-258.006"/>
<polygon fill="midnightblue" stroke="midnightblue" points="116.069,-280.473 106.266,-284.492 116.435,-287.463 116.069,-280.473"/>
</g>
<!-- Node4 -->
<g id="node4" class="node"><title>Node4</title>
<g id="a_node4"><a xlink:href="struct_x_m_l_node.xhtml#acb95f4f00e4cf3756aac0e3a53765248" target="_top" xlink:title="XMLNode::parseString">
<polygon fill="white" stroke="black" points="142,-239.5 142,-258.5 258,-258.5 258,-239.5 142,-239.5"/>
<text text-anchor="middle" x="200" y="-246.5" font-family="Helvetica,sans-Serif" font-size="10.00">XMLNode::parseString</text>
</a>
</g>
</g>
<!-- Node1&#45;&gt;Node4 -->
<g id="edge3" class="edge"><title>Node1&#45;&gt;Node4</title>
<path fill="none" stroke="midnightblue" d="M100.493,-274.816C120.624,-269.54 143.838,-263.456 162.673,-258.52"/>
<polygon fill="midnightblue" stroke="midnightblue" points="99.3757,-271.49 90.5896,-277.411 101.15,-278.262 99.3757,-271.49"/>
</g>
<!-- Node4&#45;&gt;Node3 -->
<g id="edge22" class="edge"><title>Node4&#45;&gt;Node3</title>
<path fill="none" stroke="midnightblue" d="M268.231,-249C320.058,-249 391.075,-249 440.995,-249"/>
<polygon fill="midnightblue" stroke="midnightblue" points="268.134,-245.5 258.134,-249 268.134,-252.5 268.134,-245.5"/>
</g>
<!-- Node5 -->
<g id="node5" class="node"><title>Node5</title>
<g id="a_node5"><a xlink:href="struct_x_m_l_node.xhtml#a5e5968e052d58350918cd91e3535624b" target="_top" xlink:title="XMLNode::parseFile">
<polygon fill="white" stroke="black" points="294,-201.5 294,-220.5 400,-220.5 400,-201.5 294,-201.5"/>
<text text-anchor="middle" x="347" y="-208.5" font-family="Helvetica,sans-Serif" font-size="10.00">XMLNode::parseFile</text>
</a>
</g>
</g>
<!-- Node4&#45;&gt;Node5 -->
<g id="edge4" class="edge"><title>Node4&#45;&gt;Node5</title>
<path fill="none" stroke="midnightblue" d="M247.493,-236.816C267.624,-231.54 290.838,-225.456 309.673,-220.52"/>
<polygon fill="midnightblue" stroke="midnightblue" points="246.376,-233.49 237.59,-239.411 248.15,-240.262 246.376,-233.49"/>
</g>
<!-- Node5&#45;&gt;Node3 -->
<g id="edge21" class="edge"><title>Node5&#45;&gt;Node3</title>
<path fill="none" stroke="midnightblue" d="M396.477,-223.04C417.852,-228.349 442.613,-234.499 462.669,-239.48"/>
<polygon fill="midnightblue" stroke="midnightblue" points="397.157,-219.603 386.608,-220.589 395.47,-226.396 397.157,-219.603"/>
</g>
<!-- Node6 -->
<g id="node6" class="node"><title>Node6</title>
<g id="a_node6"><a xlink:href="struct_x_m_l_node.xhtml#acc044148e2b9b8264a320b7b6e398158" target="_top" xlink:title="XMLNode::openFileHelper">
<polygon fill="white" stroke="black" points="436.5,-163.5 436.5,-182.5 567.5,-182.5 567.5,-163.5 436.5,-163.5"/>
<text text-anchor="middle" x="502" y="-170.5" font-family="Helvetica,sans-Serif" font-size="10.00">XMLNode::openFileHelper</text>
</a>
</g>
</g>
<!-- Node5&#45;&gt;Node6 -->
<g id="edge5" class="edge"><title>Node5&#45;&gt;Node6</title>
<path fill="none" stroke="midnightblue" d="M396.477,-198.96C417.852,-193.651 442.613,-187.501 462.669,-182.52"/>
<polygon fill="midnightblue" stroke="midnightblue" points="395.47,-195.604 386.608,-201.411 397.157,-202.397 395.47,-195.604"/>
</g>
<!-- Node14 -->
<g id="node14" class="node"><title>Node14</title>
<g id="a_node14"><a xlink:href="_p_d_a_q_2_core_2_source_2xml_parser_8cpp.xhtml#af77e3e2685487b9c492b20c36f3b864a" target="_top" xlink:title="_strnicmp">
<polygon fill="white" stroke="black" points="653.5,-277.5 653.5,-296.5 712.5,-296.5 712.5,-277.5 653.5,-277.5"/>
<text text-anchor="middle" x="683" y="-284.5" font-family="Helvetica,sans-Serif" font-size="10.00">_strnicmp</text>
</a>
</g>
</g>
<!-- Node5&#45;&gt;Node14 -->
<g id="edge20" class="edge"><title>Node5&#45;&gt;Node14</title>
<path fill="none" stroke="midnightblue" d="M410.171,-204.909C456.018,-203.065 518.72,-206.239 568,-230 588.956,-240.104 583.877,-256.326 604,-268 619.07,-276.742 638.02,-281.477 653.468,-284.034"/>
<polygon fill="midnightblue" stroke="midnightblue" points="409.886,-201.419 400.071,-205.407 410.231,-208.41 409.886,-201.419"/>
</g>
<!-- Node7 -->
<g id="node7" class="node"><title>Node7</title>
<g id="a_node7"><a xlink:href="class_a_d_c_manager1720.xhtml#aae342ccd8bf1c253c455e195bfd82dfe" target="_top" xlink:title="ADCManager1720::Init">
<polygon fill="white" stroke="black" points="625,-201.5 625,-220.5 741,-220.5 741,-201.5 625,-201.5"/>
<text text-anchor="middle" x="683" y="-208.5" font-family="Helvetica,sans-Serif" font-size="10.00">ADCManager1720::Init</text>
</a>
</g>
</g>
<!-- Node6&#45;&gt;Node7 -->
<g id="edge6" class="edge"><title>Node6&#45;&gt;Node7</title>
<path fill="none" stroke="midnightblue" d="M558.024,-184.681C583.408,-190.07 613.161,-196.386 637.156,-201.48"/>
<polygon fill="midnightblue" stroke="midnightblue" points="558.678,-181.242 548.169,-182.589 557.224,-188.089 558.678,-181.242"/>
</g>
<!-- Node8 -->
<g id="node8" class="node"><title>Node8</title>
<g id="a_node8"><a xlink:href="class_a_d_c_manager1724.xhtml#a6de2521b9c793edcf14aeaeefeb62787" target="_top" xlink:title="ADCManager1724::Init">
<polygon fill="white" stroke="black" points="625,-163.5 625,-182.5 741,-182.5 741,-163.5 625,-163.5"/>
<text text-anchor="middle" x="683" y="-170.5" font-family="Helvetica,sans-Serif" font-size="10.00">ADCManager1724::Init</text>
</a>
</g>
</g>
<!-- Node6&#45;&gt;Node8 -->
<g id="edge7" class="edge"><title>Node6&#45;&gt;Node8</title>
<path fill="none" stroke="midnightblue" d="M577.85,-173C593.58,-173 609.93,-173 624.887,-173"/>
<polygon fill="midnightblue" stroke="midnightblue" points="577.623,-169.5 567.623,-173 577.623,-176.5 577.623,-169.5"/>
</g>
<!-- Node9 -->
<g id="node9" class="node"><title>Node9</title>
<g id="a_node9"><a xlink:href="class_a_d_c_manager1730.xhtml#adb6d45f2024f4a52d366a88d1c7f229d" target="_top" xlink:title="ADCManager1730::Init">
<polygon fill="white" stroke="black" points="625,-125.5 625,-144.5 741,-144.5 741,-125.5 625,-125.5"/>
<text text-anchor="middle" x="683" y="-132.5" font-family="Helvetica,sans-Serif" font-size="10.00">ADCManager1730::Init</text>
</a>
</g>
</g>
<!-- Node6&#45;&gt;Node9 -->
<g id="edge8" class="edge"><title>Node6&#45;&gt;Node9</title>
<path fill="none" stroke="midnightblue" d="M558.024,-161.319C583.408,-155.93 613.161,-149.614 637.156,-144.52"/>
<polygon fill="midnightblue" stroke="midnightblue" points="557.224,-157.911 548.169,-163.411 558.678,-164.758 557.224,-157.911"/>
</g>
<!-- Node10 -->
<g id="node10" class="node"><title>Node10</title>
<g id="a_node10"><a xlink:href="class_scope_manager.xhtml#abe246d1b817d85a9cba7af3441a4df04" target="_top" xlink:title="ScopeManager::ShowEvent">
<polygon fill="white" stroke="black" points="614,-49.5 614,-68.5 752,-68.5 752,-49.5 614,-49.5"/>
<text text-anchor="middle" x="683" y="-56.5" font-family="Helvetica,sans-Serif" font-size="10.00">ScopeManager::ShowEvent</text>
</a>
</g>
</g>
<!-- Node6&#45;&gt;Node10 -->
<g id="edge9" class="edge"><title>Node6&#45;&gt;Node10</title>
<path fill="none" stroke="midnightblue" d="M516.648,-155.502C534.419,-133.948 567.546,-97.767 604,-78 611.106,-74.1467 618.996,-71.0641 626.95,-68.6008"/>
<polygon fill="midnightblue" stroke="midnightblue" points="513.755,-153.513 510.208,-163.497 519.207,-157.904 513.755,-153.513"/>
</g>
<!-- Node12 -->
<g id="node12" class="node"><title>Node12</title>
<g id="a_node12"><a xlink:href="class_slowcontrol_manager.xhtml#a36ab5157f5a740b9058517b77d1ce38f" target="_top" xlink:title="SlowcontrolManager\l::ShowStatus">
<polygon fill="white" stroke="black" points="630.5,-0 630.5,-30 735.5,-30 735.5,-0 630.5,-0"/>
<text text-anchor="start" x="638.5" y="-18" font-family="Helvetica,sans-Serif" font-size="10.00">SlowcontrolManager</text>
<text text-anchor="middle" x="683" y="-7" font-family="Helvetica,sans-Serif" font-size="10.00">::ShowStatus</text>
</a>
</g>
</g>
<!-- Node6&#45;&gt;Node12 -->
<g id="edge11" class="edge"><title>Node6&#45;&gt;Node12</title>
<path fill="none" stroke="midnightblue" d="M512.293,-154.377C527.55,-125.667 560.596,-70.7078 604,-40 611.894,-34.4151 621.098,-30.0333 630.358,-26.6095"/>
<polygon fill="midnightblue" stroke="midnightblue" points="509.135,-152.865 507.651,-163.355 515.353,-156.08 509.135,-152.865"/>
</g>
<!-- Node13 -->
<g id="node13" class="node"><title>Node13</title>
<g id="a_node13"><a xlink:href="class_storage_manager.xhtml#ab16a945d003852d02556daf3610a9aac" target="_top" xlink:title="StorageManager::SaveContainer">
<polygon fill="white" stroke="black" points="604,-87.5 604,-106.5 762,-106.5 762,-87.5 604,-87.5"/>
<text text-anchor="middle" x="683" y="-94.5" font-family="Helvetica,sans-Serif" font-size="10.00">StorageManager::SaveContainer</text>
</a>
</g>
</g>
<!-- Node6&#45;&gt;Node13 -->
<g id="edge13" class="edge"><title>Node6&#45;&gt;Node13</title>
<path fill="none" stroke="midnightblue" d="M525.736,-157.757C545.637,-145.015 575.711,-127.18 604,-116 613.462,-112.26 623.871,-109.109 633.916,-106.513"/>
<polygon fill="midnightblue" stroke="midnightblue" points="523.566,-154.993 517.094,-163.381 527.384,-160.86 523.566,-154.993"/>
</g>
<!-- Node6&#45;&gt;Node14 -->
<g id="edge15" class="edge"><title>Node6&#45;&gt;Node14</title>
<path fill="none" stroke="midnightblue" d="M552.815,-186.845C558.298,-189.651 563.511,-193.002 568,-197 594.421,-220.531 576.273,-246.023 604,-268 617.981,-279.082 637.481,-283.832 653.486,-285.811"/>
<polygon fill="midnightblue" stroke="midnightblue" points="553.968,-183.527 543.412,-182.623 551.1,-189.912 553.968,-183.527"/>
</g>
<!-- Node16 -->
<g id="node16" class="node"><title>Node16</title>
<g id="a_node16"><a xlink:href="_p_d_a_q_2_core_2_source_2xml_8cpp.xhtml#a8251b051736c5146c1985edc6cb357e6" target="_top" xlink:title="xml_readsettings">
<polygon fill="white" stroke="black" points="637.5,-239.5 637.5,-258.5 728.5,-258.5 728.5,-239.5 637.5,-239.5"/>
<text text-anchor="middle" x="683" y="-246.5" font-family="Helvetica,sans-Serif" font-size="10.00">xml_readsettings</text>
</a>
</g>
</g>
<!-- Node6&#45;&gt;Node16 -->
<g id="edge18" class="edge"><title>Node6&#45;&gt;Node16</title>
<path fill="none" stroke="midnightblue" d="M546.034,-186.19C553.598,-189.257 561.213,-192.859 568,-197 586.529,-208.305 584.853,-219.777 604,-230 614.205,-235.449 625.991,-239.362 637.262,-242.162"/>
<polygon fill="midnightblue" stroke="midnightblue" points="547.139,-182.866 536.548,-182.594 544.658,-189.412 547.139,-182.866"/>
</g>
<!-- Node11 -->
<g id="node11" class="node"><title>Node11</title>
<g id="a_node11"><a xlink:href="_multi_d_a_q_8cpp.xhtml#adedb285b02c41bde2158ded9cc9fd7ac" target="_top" xlink:title="main">
<polygon fill="white" stroke="black" points="830,-49.5 830,-68.5 868,-68.5 868,-49.5 830,-49.5"/>
<text text-anchor="middle" x="849" y="-56.5" font-family="Helvetica,sans-Serif" font-size="10.00">main</text>
</a>
</g>
</g>
<!-- Node10&#45;&gt;Node11 -->
<g id="edge10" class="edge"><title>Node10&#45;&gt;Node11</title>
<path fill="none" stroke="midnightblue" d="M762.16,-59C787.477,-59 813.284,-59 829.898,-59"/>
<polygon fill="midnightblue" stroke="midnightblue" points="762.126,-55.5001 752.126,-59 762.126,-62.5001 762.126,-55.5001"/>
</g>
<!-- Node12&#45;&gt;Node11 -->
<g id="edge12" class="edge"><title>Node12&#45;&gt;Node11</title>
<path fill="none" stroke="midnightblue" d="M745.865,-31.598C775.783,-39.6246 809.511,-48.6738 829.744,-54.1019"/>
<polygon fill="midnightblue" stroke="midnightblue" points="746.456,-28.1328 735.891,-28.9219 744.642,-34.8937 746.456,-28.1328"/>
</g>
<!-- Node13&#45;&gt;Node11 -->
<g id="edge14" class="edge"><title>Node13&#45;&gt;Node11</title>
<path fill="none" stroke="midnightblue" d="M735.543,-85.0572C767.714,-77.6028 807.177,-68.4589 829.773,-63.2233"/>
<polygon fill="midnightblue" stroke="midnightblue" points="734.336,-81.744 725.384,-87.411 735.916,-88.5633 734.336,-81.744"/>
</g>
<!-- Node14&#45;&gt;Node2 -->
<g id="edge16" class="edge"><title>Node14&#45;&gt;Node2</title>
<path fill="none" stroke="midnightblue" d="M722.605,-295.945C750.068,-302.308 786.653,-310.785 813.214,-316.94"/>
<polygon fill="midnightblue" stroke="midnightblue" points="723.099,-292.467 712.567,-293.619 721.518,-299.286 723.099,-292.467"/>
</g>
<!-- Node15 -->
<g id="node15" class="node"><title>Node15</title>
<g id="a_node15"><a xlink:href="_p_d_a_q_2_core_2_source_2xml_parser_8cpp.xhtml#ad9a5c911a8e21bb89427d29d33e2797e" target="_top" xlink:title="myIsTextWideChar">
<polygon fill="white" stroke="black" points="798.5,-277.5 798.5,-296.5 899.5,-296.5 899.5,-277.5 798.5,-277.5"/>
<text text-anchor="middle" x="849" y="-284.5" font-family="Helvetica,sans-Serif" font-size="10.00">myIsTextWideChar</text>
</a>
</g>
</g>
<!-- Node14&#45;&gt;Node15 -->
<g id="edge17" class="edge"><title>Node14&#45;&gt;Node15</title>
<path fill="none" stroke="midnightblue" d="M722.784,-287C745.346,-287 774.018,-287 798.231,-287"/>
<polygon fill="midnightblue" stroke="midnightblue" points="722.567,-283.5 712.567,-287 722.567,-290.5 722.567,-283.5"/>
</g>
<!-- Node17 -->
<g id="node17" class="node"><title>Node17</title>
<g id="a_node17"><a xlink:href="_z_d_a_q_8cpp.xhtml#a0ddf1224851353fc92bfbff6f499fa97" target="_top" xlink:title="main">
<polygon fill="white" stroke="black" points="830,-239.5 830,-258.5 868,-258.5 868,-239.5 830,-239.5"/>
<text text-anchor="middle" x="849" y="-246.5" font-family="Helvetica,sans-Serif" font-size="10.00">main</text>
</a>
</g>
</g>
<!-- Node16&#45;&gt;Node17 -->
<g id="edge19" class="edge"><title>Node16&#45;&gt;Node17</title>
<path fill="none" stroke="midnightblue" d="M739.216,-249C770.646,-249 807.974,-249 829.724,-249"/>
<polygon fill="midnightblue" stroke="midnightblue" points="738.814,-245.5 728.814,-249 738.814,-252.5 738.814,-245.5"/>
</g>
</g>
</svg>
