<?xml version="1.0" encoding="UTF-8" standalone="no"?>
<!DOCTYPE svg PUBLIC "-//W3C//DTD SVG 1.1//EN"
 "http://www.w3.org/Graphics/SVG/1.1/DTD/svg11.dtd">
<!-- Generated by graphviz version 2.36.0 (20140111.2315)
 -->
<!-- Title: XMLNode::updateClear_WOSD Pages: 1 -->
<svg width="464pt" height="85pt"
 viewBox="0.00 0.00 464.00 85.00" xmlns="http://www.w3.org/2000/svg" xmlns:xlink="http://www.w3.org/1999/xlink">
<g id="graph0" class="graph" transform="scale(1 1) rotate(0) translate(4 81)">
<title>XMLNode::updateClear_WOSD</title>
<polygon fill="white" stroke="none" points="-4,4 -4,-81 460,-81 460,4 -4,4"/>
<!-- Node1 -->
<g id="node1" class="node"><title>Node1</title>
<polygon fill="#bfbfbf" stroke="black" points="0.5,-38.5 0.5,-57.5 155.5,-57.5 155.5,-38.5 0.5,-38.5"/>
<text text-anchor="middle" x="78" y="-45.5" font-family="Helvetica,sans-Serif" font-size="10.00">XMLNode::updateClear_WOSD</text>
</g>
<!-- Node2 -->
<g id="node2" class="node"><title>Node2</title>
<g id="a_node2"><a xlink:href="_p_d_a_q_2_core_2_source_2xml_parser_8cpp.xhtml#a9a625f17c09a36e3ad532cdf16072609" target="_top" xlink:title="charmemset">
<polygon fill="white" stroke="black" points="384.5,-57.5 384.5,-76.5 455.5,-76.5 455.5,-57.5 384.5,-57.5"/>
<text text-anchor="middle" x="420" y="-64.5" font-family="Helvetica,sans-Serif" font-size="10.00">charmemset</text>
</a>
</g>
</g>
<!-- Node1&#45;&gt;Node2 -->
<g id="edge1" class="edge"><title>Node1&#45;&gt;Node2</title>
<path fill="none" stroke="midnightblue" d="M134.807,-59.277C152.965,-62.4376 173.266,-65.436 192,-67 259.942,-72.6722 339.723,-70.678 384.314,-68.7887"/>
<polygon fill="midnightblue" stroke="midnightblue" points="135.423,-55.8318 124.963,-57.5125 134.188,-62.722 135.423,-55.8318"/>
</g>
<!-- Node3 -->
<g id="node3" class="node"><title>Node3</title>
<g id="a_node3"><a xlink:href="struct_x_m_l_node.xhtml#a6b48e123943ea53272f6d4be33ca6d04" target="_top" xlink:title="XMLNode::updateClear">
<polygon fill="white" stroke="black" points="210.5,-38.5 210.5,-57.5 329.5,-57.5 329.5,-38.5 210.5,-38.5"/>
<text text-anchor="middle" x="270" y="-45.5" font-family="Helvetica,sans-Serif" font-size="10.00">XMLNode::updateClear</text>
</a>
</g>
</g>
<!-- Node1&#45;&gt;Node3 -->
<g id="edge2" class="edge"><title>Node1&#45;&gt;Node3</title>
<path fill="none" stroke="midnightblue" d="M166.067,-48C181.082,-48 196.363,-48 210.396,-48"/>
<polygon fill="midnightblue" stroke="midnightblue" points="165.733,-44.5001 155.733,-48 165.733,-51.5001 165.733,-44.5001"/>
</g>
<!-- Node4 -->
<g id="node4" class="node"><title>Node4</title>
<g id="a_node4"><a xlink:href="struct_x_m_l_node.xhtml#a88e5fde717bc53a879805b2f46d55429" target="_top" xlink:title="XMLNode::updateClear_WOSD">
<polygon fill="white" stroke="black" points="192.5,-0.5 192.5,-19.5 347.5,-19.5 347.5,-0.5 192.5,-0.5"/>
<text text-anchor="middle" x="270" y="-7.5" font-family="Helvetica,sans-Serif" font-size="10.00">XMLNode::updateClear_WOSD</text>
</a>
</g>
</g>
<!-- Node1&#45;&gt;Node4 -->
<g id="edge4" class="edge"><title>Node1&#45;&gt;Node4</title>
<path fill="none" stroke="midnightblue" d="M137.048,-36.3905C164.07,-30.986 195.818,-24.6365 221.4,-19.5201"/>
<polygon fill="midnightblue" stroke="midnightblue" points="136.064,-33.0177 126.945,-38.411 137.437,-39.8818 136.064,-33.0177"/>
</g>
<!-- Node3&#45;&gt;Node2 -->
<g id="edge3" class="edge"><title>Node3&#45;&gt;Node2</title>
<path fill="none" stroke="midnightblue" d="M339.924,-56.8483C355.256,-58.8166 370.879,-60.8223 384.146,-62.5255"/>
<polygon fill="midnightblue" stroke="midnightblue" points="340.283,-53.3658 329.919,-55.5639 339.392,-60.3088 340.283,-53.3658"/>
</g>
</g>
</svg>
