<?xml version="1.0" encoding="UTF-8" standalone="no"?>
<!DOCTYPE svg PUBLIC "-//W3C//DTD SVG 1.1//EN"
 "http://www.w3.org/Graphics/SVG/1.1/DTD/svg11.dtd">
<!-- Generated by graphviz version 2.36.0 (20140111.2315)
 -->
<!-- Title: XMLNode::deleteText Pages: 1 -->
<svg width="268pt" height="66pt"
 viewBox="0.00 0.00 268.00 66.00" xmlns="http://www.w3.org/2000/svg" xmlns:xlink="http://www.w3.org/1999/xlink">
<g id="graph0" class="graph" transform="scale(1 1) rotate(0) translate(4 62)">
<title>XMLNode::deleteText</title>
<polygon fill="white" stroke="none" points="-4,4 -4,-62 264,-62 264,4 -4,4"/>
<!-- Node1 -->
<g id="node1" class="node"><title>Node1</title>
<polygon fill="#bfbfbf" stroke="black" points="0,-19.5 0,-38.5 112,-38.5 112,-19.5 0,-19.5"/>
<text text-anchor="middle" x="56" y="-26.5" font-family="Helvetica,sans-Serif" font-size="10.00">XMLNode::deleteText</text>
</g>
<!-- Node2 -->
<g id="node2" class="node"><title>Node2</title>
<g id="a_node2"><a xlink:href="_p_d_a_q_2_core_2_source_2xml_parser_8cpp.xhtml#a9a625f17c09a36e3ad532cdf16072609" target="_top" xlink:title="charmemset">
<polygon fill="white" stroke="black" points="168.5,-38.5 168.5,-57.5 239.5,-57.5 239.5,-38.5 168.5,-38.5"/>
<text text-anchor="middle" x="204" y="-45.5" font-family="Helvetica,sans-Serif" font-size="10.00">charmemset</text>
</a>
</g>
</g>
<!-- Node1&#45;&gt;Node2 -->
<g id="edge1" class="edge"><title>Node1&#45;&gt;Node2</title>
<path fill="none" stroke="midnightblue" d="M122.515,-37.5259C138.369,-39.5891 154.7,-41.7143 168.472,-43.5067"/>
<polygon fill="midnightblue" stroke="midnightblue" points="122.564,-34.0029 112.196,-36.1831 121.661,-40.9444 122.564,-34.0029"/>
</g>
<!-- Node3 -->
<g id="node3" class="node"><title>Node3</title>
<g id="a_node3"><a xlink:href="struct_x_m_l_node.xhtml#a21ee499630d71ab6026753a85f02f582" target="_top" xlink:title="XMLNode::deleteText">
<polygon fill="white" stroke="black" points="148,-0.5 148,-19.5 260,-19.5 260,-0.5 148,-0.5"/>
<text text-anchor="middle" x="204" y="-7.5" font-family="Helvetica,sans-Serif" font-size="10.00">XMLNode::deleteText</text>
</a>
</g>
</g>
<!-- Node1&#45;&gt;Node3 -->
<g id="edge2" class="edge"><title>Node1&#45;&gt;Node3</title>
<path fill="none" stroke="midnightblue" d="M122.131,-20.524C130.676,-19.412 139.366,-18.2812 147.726,-17.1932"/>
<polygon fill="midnightblue" stroke="midnightblue" points="121.661,-17.0556 112.196,-21.8169 122.564,-23.9971 121.661,-17.0556"/>
</g>
</g>
</svg>
