<?xml version="1.0" encoding="UTF-8" standalone="no"?>
<!DOCTYPE svg PUBLIC "-//W3C//DTD SVG 1.1//EN"
 "http://www.w3.org/Graphics/SVG/1.1/DTD/svg11.dtd">
<!-- Generated by graphviz version 2.36.0 (20140111.2315)
 -->
<!-- Title: XMLNode::updateClear Pages: 1 -->
<svg width="498pt" height="66pt"
 viewBox="0.00 0.00 498.00 66.00" xmlns="http://www.w3.org/2000/svg" xmlns:xlink="http://www.w3.org/1999/xlink">
<g id="graph0" class="graph" transform="scale(1 1) rotate(0) translate(4 62)">
<title>XMLNode::updateClear</title>
<polygon fill="white" stroke="none" points="-4,4 -4,-62 494,-62 494,4 -4,4"/>
<!-- Node1 -->
<g id="node1" class="node"><title>Node1</title>
<polygon fill="#bfbfbf" stroke="black" points="0.5,-19.5 0.5,-38.5 119.5,-38.5 119.5,-19.5 0.5,-19.5"/>
<text text-anchor="middle" x="60" y="-26.5" font-family="Helvetica,sans-Serif" font-size="10.00">XMLNode::updateClear</text>
</g>
<!-- Node2 -->
<g id="node2" class="node"><title>Node2</title>
<g id="a_node2"><a xlink:href="_c_d_a_q_2_plugins_2_source_2xml_parser_8cpp.xhtml#a5ba11fcf2496bd498e46fc958dba3d06" target="_top" xlink:title="stringDup">
<polygon fill="white" stroke="black" points="204.5,-38.5 204.5,-57.5 263.5,-57.5 263.5,-38.5 204.5,-38.5"/>
<text text-anchor="middle" x="234" y="-45.5" font-family="Helvetica,sans-Serif" font-size="10.00">stringDup</text>
</a>
</g>
</g>
<!-- Node1&#45;&gt;Node2 -->
<g id="edge1" class="edge"><title>Node1&#45;&gt;Node2</title>
<path fill="none" stroke="midnightblue" d="M119.712,-35.4856C144.411,-38.2141 172.462,-41.3126 194.471,-43.7439"/>
<polygon fill="midnightblue" stroke="midnightblue" points="194.112,-47.2255 204.436,-44.8447 194.881,-40.2678 194.112,-47.2255"/>
</g>
<!-- Node3 -->
<g id="node3" class="node"><title>Node3</title>
<g id="a_node3"><a xlink:href="struct_x_m_l_node.xhtml#a78712972d283700f8bd24d1e83ea7c55" target="_top" xlink:title="XMLNode::updateClear_WOSD">
<polygon fill="white" stroke="black" points="156.5,-0.5 156.5,-19.5 311.5,-19.5 311.5,-0.5 156.5,-0.5"/>
<text text-anchor="middle" x="234" y="-7.5" font-family="Helvetica,sans-Serif" font-size="10.00">XMLNode::updateClear_WOSD</text>
</a>
</g>
</g>
<!-- Node1&#45;&gt;Node3 -->
<g id="edge2" class="edge"><title>Node1&#45;&gt;Node3</title>
<path fill="none" stroke="midnightblue" d="M119.712,-22.5144C128.267,-21.5693 137.225,-20.5798 146.194,-19.589"/>
<polygon fill="midnightblue" stroke="midnightblue" points="146.75,-23.049 156.305,-18.4721 145.981,-16.0913 146.75,-23.049"/>
</g>
<!-- Node4 -->
<g id="node4" class="node"><title>Node4</title>
<g id="a_node4"><a xlink:href="struct_x_m_l_node.xhtml#ad92450b1a8380678f52ad53a54fd068c" target="_top" xlink:title="XMLNode::addClear_WOSD">
<polygon fill="white" stroke="black" points="348,-0.5 348,-19.5 490,-19.5 490,-0.5 348,-0.5"/>
<text text-anchor="middle" x="419" y="-7.5" font-family="Helvetica,sans-Serif" font-size="10.00">XMLNode::addClear_WOSD</text>
</a>
</g>
</g>
<!-- Node3&#45;&gt;Node4 -->
<g id="edge3" class="edge"><title>Node3&#45;&gt;Node4</title>
<path fill="none" stroke="midnightblue" d="M311.548,-10C320.207,-10 329.049,-10 337.754,-10"/>
<polygon fill="midnightblue" stroke="midnightblue" points="337.889,-13.5001 347.889,-10 337.889,-6.5001 337.889,-13.5001"/>
</g>
</g>
</svg>
