<?xml version="1.0" encoding="UTF-8" standalone="no"?>
<!DOCTYPE svg PUBLIC "-//W3C//DTD SVG 1.1//EN"
 "http://www.w3.org/Graphics/SVG/1.1/DTD/svg11.dtd">
<!-- Generated by graphviz version 2.36.0 (20140111.2315)
 -->
<!-- Title: XMLNode Pages: 1 -->
<svg width="209pt" height="186pt"
 viewBox="0.00 0.00 209.00 186.00" xmlns="http://www.w3.org/2000/svg" xmlns:xlink="http://www.w3.org/1999/xlink">
<g id="graph0" class="graph" transform="scale(1 1) rotate(0) translate(4 182)">
<title>XMLNode</title>
<polygon fill="white" stroke="none" points="-4,4 -4,-182 205,-182 205,4 -4,4"/>
<!-- Node1 -->
<g id="node1" class="node"><title>Node1</title>
<polygon fill="#bfbfbf" stroke="black" points="49,-0.5 49,-19.5 109,-19.5 109,-0.5 49,-0.5"/>
<text text-anchor="middle" x="79" y="-7.5" font-family="Helvetica,sans-Serif" font-size="10.00">XMLNode</text>
</g>
<!-- Node1&#45;&gt;Node1 -->
<g id="edge1" class="edge"><title>Node1&#45;&gt;Node1</title>
<path fill="none" stroke="#9a32cd" stroke-dasharray="5,2" d="M119.343,-15.2246C123.408,-14.1861 126,-12.4446 126,-10 126,-5.88281 118.649,-3.75989 109.287,-3.63123"/>
<polygon fill="#9a32cd" stroke="#9a32cd" points="118.827,-11.7606 109.287,-16.3688 119.619,-18.7157 118.827,-11.7606"/>
<text text-anchor="middle" x="163" y="-7.5" font-family="Helvetica,sans-Serif" font-size="10.00"> emptyXMLNode</text>
</g>
<!-- Node2 -->
<g id="node2" class="node"><title>Node2</title>
<g id="a_node2"><a xlink:href="struct_x_m_l_attribute.xhtml" target="_top" xlink:title="XMLAttribute">
<polygon fill="white" stroke="black" points="0,-68.5 0,-87.5 74,-87.5 74,-68.5 0,-68.5"/>
<text text-anchor="middle" x="37" y="-75.5" font-family="Helvetica,sans-Serif" font-size="10.00">XMLAttribute</text>
</a>
</g>
</g>
<!-- Node2&#45;&gt;Node1 -->
<g id="edge2" class="edge"><title>Node2&#45;&gt;Node1</title>
<path fill="none" stroke="#9a32cd" stroke-dasharray="5,2" d="M25.6259,-59.6144C22.5026,-52.5584 20.9544,-44.5458 25,-38 30.4003,-29.2622 39.5794,-23.2575 48.8528,-19.1739"/>
<polygon fill="#9a32cd" stroke="#9a32cd" points="22.5872,-61.3521 30.4837,-68.4158 28.7157,-57.9695 22.5872,-61.3521"/>
<text text-anchor="middle" x="69" y="-41.5" font-family="Helvetica,sans-Serif" font-size="10.00"> emptyXMLAttribute</text>
</g>
<!-- Node3 -->
<g id="node3" class="node"><title>Node3</title>
<polygon fill="white" stroke="#bfbfbf" points="52.5,-158.5 52.5,-177.5 117.5,-177.5 117.5,-158.5 52.5,-158.5"/>
<text text-anchor="middle" x="85" y="-165.5" font-family="Helvetica,sans-Serif" font-size="10.00">XMLCSTR</text>
</g>
<!-- Node3&#45;&gt;Node2 -->
<g id="edge3" class="edge"><title>Node3&#45;&gt;Node2</title>
<path fill="none" stroke="#9a32cd" stroke-dasharray="5,2" d="M58.7184,-152.564C54.1983,-149.003 49.9985,-144.806 47,-140 36.7757,-123.611 35.9855,-100.111 36.4174,-87.6031"/>
<polygon fill="#9a32cd" stroke="#9a32cd" points="56.7906,-155.486 67.01,-158.282 60.7644,-149.723 56.7906,-155.486"/>
<text text-anchor="middle" x="71" y="-126" font-family="Helvetica,sans-Serif" font-size="10.00"> lpszName</text>
<text text-anchor="middle" x="71" y="-115" font-family="Helvetica,sans-Serif" font-size="10.00">lpszValue</text>
</g>
<!-- Node4 -->
<g id="node4" class="node"><title>Node4</title>
<g id="a_node4"><a xlink:href="struct_x_m_l_clear.xhtml" target="_top" xlink:title="XMLClear">
<polygon fill="white" stroke="black" points="98,-68.5 98,-87.5 158,-87.5 158,-68.5 98,-68.5"/>
<text text-anchor="middle" x="128" y="-75.5" font-family="Helvetica,sans-Serif" font-size="10.00">XMLClear</text>
</a>
</g>
</g>
<!-- Node3&#45;&gt;Node4 -->
<g id="edge5" class="edge"><title>Node3&#45;&gt;Node4</title>
<path fill="none" stroke="#9a32cd" stroke-dasharray="5,2" d="M94.425,-149.035C95.9713,-146.027 97.5435,-142.932 99,-140 108.182,-121.517 118.446,-99.6161 123.964,-87.733"/>
<polygon fill="#9a32cd" stroke="#9a32cd" points="91.2511,-147.552 89.7448,-158.04 97.4622,-150.781 91.2511,-147.552"/>
<text text-anchor="middle" x="144.5" y="-131.5" font-family="Helvetica,sans-Serif" font-size="10.00"> lpszOpenTag</text>
<text text-anchor="middle" x="144.5" y="-120.5" font-family="Helvetica,sans-Serif" font-size="10.00">lpszCloseTag</text>
<text text-anchor="middle" x="144.5" y="-109.5" font-family="Helvetica,sans-Serif" font-size="10.00">lpszValue</text>
</g>
<!-- Node4&#45;&gt;Node1 -->
<g id="edge4" class="edge"><title>Node4&#45;&gt;Node1</title>
<path fill="none" stroke="#9a32cd" stroke-dasharray="5,2" d="M123.117,-58.4495C120.759,-51.6122 117.452,-44.0627 113,-38 107.646,-30.7095 99.8409,-24.3213 93.0587,-19.5913"/>
<polygon fill="#9a32cd" stroke="#9a32cd" points="119.844,-59.7198 126.071,-68.2915 126.548,-57.7074 119.844,-59.7198"/>
<text text-anchor="middle" x="156" y="-41.5" font-family="Helvetica,sans-Serif" font-size="10.00"> emptyXMLClear</text>
</g>
</g>
</svg>
