<?xml version="1.0" encoding="UTF-8" standalone="no"?>
<!DOCTYPE svg PUBLIC "-//W3C//DTD SVG 1.1//EN"
 "http://www.w3.org/Graphics/SVG/1.1/DTD/svg11.dtd">
<!-- Generated by graphviz version 2.36.0 (20140111.2315)
 -->
<!-- Title: scaler Pages: 1 -->
<svg width="266pt" height="150pt"
 viewBox="0.00 0.00 266.00 150.00" xmlns="http://www.w3.org/2000/svg" xmlns:xlink="http://www.w3.org/1999/xlink">
<g id="graph0" class="graph" transform="scale(1 1) rotate(0) translate(4 146)">
<title>scaler</title>
<polygon fill="white" stroke="none" points="-4,4 -4,-146 262,-146 262,4 -4,4"/>
<!-- Node1 -->
<g id="node1" class="node"><title>Node1</title>
<polygon fill="#bfbfbf" stroke="black" points="107.5,-0.5 107.5,-19.5 150.5,-19.5 150.5,-0.5 107.5,-0.5"/>
<text text-anchor="middle" x="129" y="-7.5" font-family="Helvetica,sans-Serif" font-size="10.00">scaler</text>
</g>
<!-- Node2 -->
<g id="node2" class="node"><title>Node2</title>
<polygon fill="white" stroke="#bfbfbf" points="0,-122.5 0,-141.5 56,-141.5 56,-122.5 0,-122.5"/>
<text text-anchor="middle" x="28" y="-129.5" font-family="Helvetica,sans-Serif" font-size="10.00">u_int32_t</text>
</g>
<!-- Node2&#45;&gt;Node1 -->
<g id="edge1" class="edge"><title>Node2&#45;&gt;Node1</title>
<path fill="none" stroke="#9a32cd" stroke-dasharray="5,2" d="M26.6531,-112.258C26.2187,-91.5609 28.7922,-58.4642 47,-38 62.2431,-20.868 88.5557,-14.5698 107.262,-12.2752"/>
<polygon fill="#9a32cd" stroke="#9a32cd" points="23.1604,-112.497 27.1238,-122.322 30.1527,-112.17 23.1604,-112.497"/>
<text text-anchor="middle" x="67" y="-79.5" font-family="Helvetica,sans-Serif" font-size="10.00"> Address</text>
<text text-anchor="middle" x="67" y="-68.5" font-family="Helvetica,sans-Serif" font-size="10.00">cnt</text>
<text text-anchor="middle" x="67" y="-57.5" font-family="Helvetica,sans-Serif" font-size="10.00">events</text>
</g>
<!-- Node3 -->
<g id="node3" class="node"><title>Node3</title>
<polygon fill="white" stroke="#bfbfbf" points="74.5,-122.5 74.5,-141.5 119.5,-141.5 119.5,-122.5 74.5,-122.5"/>
<text text-anchor="middle" x="97" y="-129.5" font-family="Helvetica,sans-Serif" font-size="10.00">double</text>
</g>
<!-- Node3&#45;&gt;Node1 -->
<g id="edge2" class="edge"><title>Node3&#45;&gt;Node1</title>
<path fill="none" stroke="#9a32cd" stroke-dasharray="5,2" d="M93.2116,-112.274C90.1988,-92.7736 88.0883,-61.8087 99,-38 102.445,-30.4834 109.088,-24.1597 115.249,-19.5261"/>
<polygon fill="#9a32cd" stroke="#9a32cd" points="89.7964,-113.059 94.9982,-122.289 96.6877,-111.83 89.7964,-113.059"/>
<text text-anchor="middle" x="119" y="-79.5" font-family="Helvetica,sans-Serif" font-size="10.00"> lifetime</text>
<text text-anchor="middle" x="119" y="-68.5" font-family="Helvetica,sans-Serif" font-size="10.00">deadtime</text>
<text text-anchor="middle" x="119" y="-57.5" font-family="Helvetica,sans-Serif" font-size="10.00">totaltime</text>
</g>
<!-- Node4 -->
<g id="node4" class="node"><title>Node4</title>
<polygon fill="white" stroke="#bfbfbf" points="138,-122.5 138,-141.5 184,-141.5 184,-122.5 138,-122.5"/>
<text text-anchor="middle" x="161" y="-129.5" font-family="Helvetica,sans-Serif" font-size="10.00">int32_t</text>
</g>
<!-- Node4&#45;&gt;Node1 -->
<g id="edge3" class="edge"><title>Node4&#45;&gt;Node1</title>
<path fill="none" stroke="#9a32cd" stroke-dasharray="5,2" d="M157.261,-112.206C153.333,-93.2928 146.668,-63.3714 139,-38 137.149,-31.8753 134.649,-25.1253 132.612,-19.9065"/>
<polygon fill="#9a32cd" stroke="#9a32cd" points="153.868,-113.084 159.29,-122.186 160.727,-111.689 153.868,-113.084"/>
<text text-anchor="middle" x="166" y="-79.5" font-family="Helvetica,sans-Serif" font-size="10.00"> old</text>
<text text-anchor="middle" x="166" y="-68.5" font-family="Helvetica,sans-Serif" font-size="10.00">stop</text>
<text text-anchor="middle" x="166" y="-57.5" font-family="Helvetica,sans-Serif" font-size="10.00">start</text>
</g>
<!-- Node5 -->
<g id="node5" class="node"><title>Node5</title>
<polygon fill="white" stroke="#bfbfbf" points="202.5,-122.5 202.5,-141.5 231.5,-141.5 231.5,-122.5 202.5,-122.5"/>
<text text-anchor="middle" x="217" y="-129.5" font-family="Helvetica,sans-Serif" font-size="10.00">int</text>
</g>
<!-- Node5&#45;&gt;Node1 -->
<g id="edge4" class="edge"><title>Node5&#45;&gt;Node1</title>
<path fill="none" stroke="#9a32cd" stroke-dasharray="5,2" d="M213.587,-112.329C209.028,-91.9538 199.191,-59.3895 180,-38 172.105,-29.2008 160.653,-22.7768 150.6,-18.408"/>
<polygon fill="#9a32cd" stroke="#9a32cd" points="210.181,-113.144 215.604,-122.246 217.041,-111.75 210.181,-113.144"/>
<text text-anchor="middle" x="235" y="-96" font-family="Helvetica,sans-Serif" font-size="10.00"> lifecnt</text>
<text text-anchor="middle" x="235" y="-85" font-family="Helvetica,sans-Serif" font-size="10.00">Crate</text>
<text text-anchor="middle" x="235" y="-74" font-family="Helvetica,sans-Serif" font-size="10.00">scalertime</text>
<text text-anchor="middle" x="235" y="-63" font-family="Helvetica,sans-Serif" font-size="10.00">deadcnt</text>
<text text-anchor="middle" x="235" y="-52" font-family="Helvetica,sans-Serif" font-size="10.00">totalcnt</text>
<text text-anchor="middle" x="235" y="-41" font-family="Helvetica,sans-Serif" font-size="10.00">timecnt</text>
</g>
</g>
</svg>
