<?xml version="1.0" encoding="UTF-8" standalone="no"?>
<!DOCTYPE svg PUBLIC "-//W3C//DTD SVG 1.1//EN"
 "http://www.w3.org/Graphics/SVG/1.1/DTD/svg11.dtd">
<!-- Generated by graphviz version 2.36.0 (20140111.2315)
 -->
<!-- Title: digitizer Pages: 1 -->
<svg width="296pt" height="206pt"
 viewBox="0.00 0.00 296.00 206.00" xmlns="http://www.w3.org/2000/svg" xmlns:xlink="http://www.w3.org/1999/xlink">
<g id="graph0" class="graph" transform="scale(1 1) rotate(0) translate(4 202)">
<title>digitizer</title>
<polygon fill="white" stroke="none" points="-4,4 -4,-202 292,-202 292,4 -4,4"/>
<!-- Node1 -->
<g id="node1" class="node"><title>Node1</title>
<polygon fill="#bfbfbf" stroke="black" points="99,-0.5 99,-19.5 149,-19.5 149,-0.5 99,-0.5"/>
<text text-anchor="middle" x="124" y="-7.5" font-family="Helvetica,sans-Serif" font-size="10.00">digitizer</text>
</g>
<!-- Node2 -->
<g id="node2" class="node"><title>Node2</title>
<polygon fill="white" stroke="#bfbfbf" points="0,-178.5 0,-197.5 56,-197.5 56,-178.5 0,-178.5"/>
<text text-anchor="middle" x="28" y="-185.5" font-family="Helvetica,sans-Serif" font-size="10.00">u_int32_t</text>
</g>
<!-- Node2&#45;&gt;Node1 -->
<g id="edge1" class="edge"><title>Node2&#45;&gt;Node1</title>
<path fill="none" stroke="#9a32cd" stroke-dasharray="5,2" d="M24.657,-168.234C20.2956,-137.418 16.4592,-75.7526 47,-38 59.5625,-22.471 81.6454,-15.8574 98.9503,-13.0493"/>
<polygon fill="#9a32cd" stroke="#9a32cd" points="21.2504,-169.097 26.2837,-178.42 28.1628,-167.993 21.2504,-169.097"/>
<text text-anchor="middle" x="83.5" y="-107.5" font-family="Helvetica,sans-Serif" font-size="10.00"> Address</text>
<text text-anchor="middle" x="83.5" y="-96.5" font-family="Helvetica,sans-Serif" font-size="10.00">ExpectedEvSize</text>
<text text-anchor="middle" x="83.5" y="-85.5" font-family="Helvetica,sans-Serif" font-size="10.00">trigmask</text>
</g>
<!-- Node3 -->
<g id="node3" class="node"><title>Node3</title>
<polygon fill="white" stroke="#bfbfbf" points="106.5,-178.5 106.5,-197.5 141.5,-197.5 141.5,-178.5 106.5,-178.5"/>
<text text-anchor="middle" x="124" y="-185.5" font-family="Helvetica,sans-Serif" font-size="10.00">float</text>
</g>
<!-- Node3&#45;&gt;Node1 -->
<g id="edge2" class="edge"><title>Node3&#45;&gt;Node1</title>
<path fill="none" stroke="#9a32cd" stroke-dasharray="5,2" d="M124,-167.842C124,-129.973 124,-46.8574 124,-19.7429"/>
<polygon fill="#9a32cd" stroke="#9a32cd" points="120.5,-168.03 124,-178.03 127.5,-168.03 120.5,-168.03"/>
<text text-anchor="middle" x="156" y="-96.5" font-family="Helvetica,sans-Serif" font-size="10.00"> voltage_range</text>
</g>
<!-- Node4 -->
<g id="node4" class="node"><title>Node4</title>
<polygon fill="white" stroke="#bfbfbf" points="196.5,-178.5 196.5,-197.5 225.5,-197.5 225.5,-178.5 196.5,-178.5"/>
<text text-anchor="middle" x="211" y="-185.5" font-family="Helvetica,sans-Serif" font-size="10.00">int</text>
</g>
<!-- Node4&#45;&gt;Node1 -->
<g id="edge3" class="edge"><title>Node4&#45;&gt;Node1</title>
<path fill="none" stroke="#9a32cd" stroke-dasharray="5,2" d="M213.658,-168.381C216.956,-137.777 218.924,-76.4107 189,-38 179.387,-25.6614 163.137,-18.9114 149.291,-15.2461"/>
<polygon fill="#9a32cd" stroke="#9a32cd" points="210.162,-168.135 212.393,-178.492 217.108,-169.004 210.162,-168.135"/>
<text text-anchor="middle" x="251.5" y="-151.5" font-family="Helvetica,sans-Serif" font-size="10.00"> pmt</text>
<text text-anchor="middle" x="251.5" y="-140.5" font-family="Helvetica,sans-Serif" font-size="10.00">channel</text>
<text text-anchor="middle" x="251.5" y="-129.5" font-family="Helvetica,sans-Serif" font-size="10.00">Crate</text>
<text text-anchor="middle" x="251.5" y="-118.5" font-family="Helvetica,sans-Serif" font-size="10.00">NumberOfADCs</text>
<text text-anchor="middle" x="251.5" y="-107.5" font-family="Helvetica,sans-Serif" font-size="10.00">TriggerLatency</text>
<text text-anchor="middle" x="251.5" y="-96.5" font-family="Helvetica,sans-Serif" font-size="10.00">sample_size</text>
<text text-anchor="middle" x="251.5" y="-85.5" font-family="Helvetica,sans-Serif" font-size="10.00">sampling_freq</text>
<text text-anchor="middle" x="251.5" y="-74.5" font-family="Helvetica,sans-Serif" font-size="10.00">BufferSize</text>
<text text-anchor="middle" x="251.5" y="-63.5" font-family="Helvetica,sans-Serif" font-size="10.00">BltSize</text>
<text text-anchor="middle" x="251.5" y="-52.5" font-family="Helvetica,sans-Serif" font-size="10.00">busy</text>
<text text-anchor="middle" x="251.5" y="-41.5" font-family="Helvetica,sans-Serif" font-size="10.00">...</text>
</g>
</g>
</svg>
