<?xml version="1.0" encoding="UTF-8" standalone="no"?>
<!DOCTYPE svg PUBLIC "-//W3C//DTD SVG 1.1//EN"
 "http://www.w3.org/Graphics/SVG/1.1/DTD/svg11.dtd">
<!-- Generated by graphviz version 2.36.0 (20140111.2315)
 -->
<!-- Title: mxml_struct Pages: 1 -->
<svg width="188pt" height="142pt"
 viewBox="0.00 0.00 188.00 142.00" xmlns="http://www.w3.org/2000/svg" xmlns:xlink="http://www.w3.org/1999/xlink">
<g id="graph0" class="graph" transform="scale(1 1) rotate(0) translate(4 138)">
<title>mxml_struct</title>
<polygon fill="white" stroke="none" points="-4,4 -4,-138 184,-138 184,4 -4,4"/>
<!-- Node1 -->
<g id="node1" class="node"><title>Node1</title>
<polygon fill="#bfbfbf" stroke="black" points="26.5,-1.5 26.5,-20.5 97.5,-20.5 97.5,-1.5 26.5,-1.5"/>
<text text-anchor="middle" x="62" y="-8.5" font-family="Helvetica,sans-Serif" font-size="10.00">mxml_struct</text>
</g>
<!-- Node1&#45;&gt;Node1 -->
<g id="edge3" class="edge"><title>Node1&#45;&gt;Node1</title>
<path fill="none" stroke="#9a32cd" stroke-dasharray="5,2" d="M94.8232,-21.4991C106.005,-21.5634 115,-18.0637 115,-11 115,-1.86719 99.9638,1.30789 84.6046,-1.47476"/>
<polygon fill="#9a32cd" stroke="#9a32cd" points="94.8916,-17.9899 84.6046,-20.5252 94.2274,-24.9583 94.8916,-17.9899"/>
<text text-anchor="middle" x="129" y="-14" font-family="Helvetica,sans-Serif" font-size="10.00"> child</text>
<text text-anchor="middle" x="129" y="-3" font-family="Helvetica,sans-Serif" font-size="10.00">parent</text>
</g>
<!-- Node2 -->
<g id="node2" class="node"><title>Node2</title>
<polygon fill="white" stroke="#bfbfbf" points="-0.5,-114.5 -0.5,-133.5 34.5,-133.5 34.5,-114.5 -0.5,-114.5"/>
<text text-anchor="middle" x="17" y="-121.5" font-family="Helvetica,sans-Serif" font-size="10.00">char</text>
</g>
<!-- Node2&#45;&gt;Node1 -->
<g id="edge1" class="edge"><title>Node2&#45;&gt;Node1</title>
<path fill="none" stroke="#9a32cd" stroke-dasharray="5,2" d="M12.4216,-104.375C9.12256,-86.6512 6.96357,-59.8208 18,-40 22.7572,-31.4563 31.3316,-25.138 39.6557,-20.6879"/>
<polygon fill="#9a32cd" stroke="#9a32cd" points="9.03658,-105.281 14.5709,-114.316 15.8785,-103.802 9.03658,-105.281"/>
<text text-anchor="middle" x="51.5" y="-82" font-family="Helvetica,sans-Serif" font-size="10.00"> attribute_value</text>
<text text-anchor="middle" x="51.5" y="-71" font-family="Helvetica,sans-Serif" font-size="10.00">attribute_name</text>
<text text-anchor="middle" x="51.5" y="-60" font-family="Helvetica,sans-Serif" font-size="10.00">value</text>
<text text-anchor="middle" x="51.5" y="-49" font-family="Helvetica,sans-Serif" font-size="10.00">name</text>
</g>
<!-- Node3 -->
<g id="node3" class="node"><title>Node3</title>
<polygon fill="white" stroke="#bfbfbf" points="92.5,-114.5 92.5,-133.5 121.5,-133.5 121.5,-114.5 92.5,-114.5"/>
<text text-anchor="middle" x="107" y="-121.5" font-family="Helvetica,sans-Serif" font-size="10.00">int</text>
</g>
<!-- Node3&#45;&gt;Node1 -->
<g id="edge2" class="edge"><title>Node3&#45;&gt;Node1</title>
<path fill="none" stroke="#9a32cd" stroke-dasharray="5,2" d="M104.397,-104.328C101.442,-86.944 95.5927,-60.6794 85,-40 81.3289,-32.8332 75.5789,-25.8332 70.7467,-20.6249"/>
<polygon fill="#9a32cd" stroke="#9a32cd" points="100.955,-104.973 105.942,-114.321 107.873,-103.904 100.955,-104.973"/>
<text text-anchor="middle" x="141" y="-87.5" font-family="Helvetica,sans-Serif" font-size="10.00"> line_number_end</text>
<text text-anchor="middle" x="141" y="-76.5" font-family="Helvetica,sans-Serif" font-size="10.00">line_number_start</text>
<text text-anchor="middle" x="141" y="-65.5" font-family="Helvetica,sans-Serif" font-size="10.00">n_attributes</text>
<text text-anchor="middle" x="141" y="-54.5" font-family="Helvetica,sans-Serif" font-size="10.00">n_children</text>
<text text-anchor="middle" x="141" y="-43.5" font-family="Helvetica,sans-Serif" font-size="10.00">node_type</text>
</g>
</g>
</svg>
