<?xml version="1.0" encoding="UTF-8" standalone="no"?>
<!DOCTYPE svg PUBLIC "-//W3C//DTD SVG 1.1//EN"
 "http://www.w3.org/Graphics/SVG/1.1/DTD/svg11.dtd">
<!-- Generated by graphviz version 2.36.0 (20140111.2315)
 -->
<!-- Title: XMLNode::XMLNode Pages: 1 -->
<svg width="620pt" height="259pt"
 viewBox="0.00 0.00 620.00 258.74" xmlns="http://www.w3.org/2000/svg" xmlns:xlink="http://www.w3.org/1999/xlink">
<g id="graph0" class="graph" transform="scale(1 1) rotate(0) translate(4 254.743)">
<title>XMLNode::XMLNode</title>
<polygon fill="white" stroke="none" points="-4,4 -4,-254.743 616,-254.743 616,4 -4,4"/>
<!-- Node1 -->
<g id="node1" class="node"><title>Node1</title>
<polygon fill="#bfbfbf" stroke="black" points="0,-114.5 0,-133.5 110,-133.5 110,-114.5 0,-114.5"/>
<text text-anchor="middle" x="55" y="-121.5" font-family="Helvetica,sans-Serif" font-size="10.00">XMLNode::XMLNode</text>
</g>
<!-- Node2 -->
<g id="node2" class="node"><title>Node2</title>
<g id="a_node2"><a xlink:href="_p_d_a_q_2_core_2_source_2xml_parser_8cpp.xhtml#a9a625f17c09a36e3ad532cdf16072609" target="_top" xlink:title="charmemset">
<polygon fill="white" stroke="black" points="540.5,-171.5 540.5,-190.5 611.5,-190.5 611.5,-171.5 540.5,-171.5"/>
<text text-anchor="middle" x="576" y="-178.5" font-family="Helvetica,sans-Serif" font-size="10.00">charmemset</text>
</a>
</g>
</g>
<!-- Node1&#45;&gt;Node2 -->
<g id="edge1" class="edge"><title>Node1&#45;&gt;Node2</title>
<path fill="none" stroke="midnightblue" d="M68.8949,-141.719C84.5779,-161.672 113.073,-193.117 146,-207 292.695,-268.849 349.581,-257.725 504,-219 525.833,-213.525 548.286,-199.906 561.944,-190.553"/>
<polygon fill="midnightblue" stroke="midnightblue" points="71.6419,-139.549 62.8013,-133.71 66.0711,-143.788 71.6419,-139.549"/>
</g>
<!-- Node3 -->
<g id="node3" class="node"><title>Node3</title>
<g id="a_node3"><a xlink:href="struct_x_m_l_node.xhtml#a6fe7676c3f08c3dab3faec106264d50d" target="_top" xlink:title="XMLNode::createXMLTopNode">
<polygon fill="white" stroke="black" points="164.5,-76.5 164.5,-95.5 317.5,-95.5 317.5,-76.5 164.5,-76.5"/>
<text text-anchor="middle" x="241" y="-83.5" font-family="Helvetica,sans-Serif" font-size="10.00">XMLNode::createXMLTopNode</text>
</a>
</g>
</g>
<!-- Node1&#45;&gt;Node3 -->
<g id="edge2" class="edge"><title>Node1&#45;&gt;Node3</title>
<path fill="none" stroke="midnightblue" d="M112.561,-112.319C138.654,-106.93 169.238,-100.614 193.903,-95.5201"/>
<polygon fill="midnightblue" stroke="midnightblue" points="111.516,-108.961 102.431,-114.411 112.932,-115.816 111.516,-108.961"/>
</g>
<!-- Node4 -->
<g id="node4" class="node"><title>Node4</title>
<g id="a_node4"><a xlink:href="_p_d_a_q_2_core_2_source_2xml_parser_8cpp.xhtml#acf103e2756ced6c7d3f14f38f198c920" target="_top" xlink:title="GetNextToken">
<polygon fill="white" stroke="black" points="398,-76.5 398,-95.5 478,-95.5 478,-76.5 398,-76.5"/>
<text text-anchor="middle" x="438" y="-83.5" font-family="Helvetica,sans-Serif" font-size="10.00">GetNextToken</text>
</a>
</g>
</g>
<!-- Node1&#45;&gt;Node4 -->
<g id="edge7" class="edge"><title>Node1&#45;&gt;Node4</title>
<path fill="none" stroke="midnightblue" d="M120.408,-121.793C177.295,-119.328 262.405,-114.386 336,-105 356.531,-102.382 379.193,-98.235 397.84,-94.4828"/>
<polygon fill="midnightblue" stroke="midnightblue" points="119.967,-118.308 110.123,-122.224 120.261,-125.302 119.967,-118.308"/>
</g>
<!-- Node6 -->
<g id="node6" class="node"><title>Node6</title>
<g id="a_node6"><a xlink:href="struct_x_m_l_node.xhtml#ab80f3739b26ae3f826f99769158e7bea" target="_top" xlink:title="XMLNode::createXMLTopNode_WOSD">
<polygon fill="white" stroke="black" points="146,-38.5 146,-57.5 336,-57.5 336,-38.5 146,-38.5"/>
<text text-anchor="middle" x="241" y="-45.5" font-family="Helvetica,sans-Serif" font-size="10.00">XMLNode::createXMLTopNode_WOSD</text>
</a>
</g>
</g>
<!-- Node1&#45;&gt;Node6 -->
<g id="edge5" class="edge"><title>Node1&#45;&gt;Node6</title>
<path fill="none" stroke="midnightblue" d="M76.3158,-108.062C93.8267,-95.1042 120.279,-77.3333 146,-67 155.656,-63.1209 166.2,-60.0033 176.623,-57.5068"/>
<polygon fill="midnightblue" stroke="midnightblue" points="73.888,-105.51 68.0249,-114.335 78.1114,-111.092 73.888,-105.51"/>
</g>
<!-- Node7 -->
<g id="node7" class="node"><title>Node7</title>
<g id="a_node7"><a xlink:href="struct_x_m_l_node.xhtml#ad30a8420556e220742c681e353a875d8" target="_top" xlink:title="XMLNode::getParentNode">
<polygon fill="white" stroke="black" points="372.5,-190.5 372.5,-209.5 503.5,-209.5 503.5,-190.5 372.5,-190.5"/>
<text text-anchor="middle" x="438" y="-197.5" font-family="Helvetica,sans-Serif" font-size="10.00">XMLNode::getParentNode</text>
</a>
</g>
</g>
<!-- Node1&#45;&gt;Node7 -->
<g id="edge8" class="edge"><title>Node1&#45;&gt;Node7</title>
<path fill="none" stroke="midnightblue" d="M75.111,-140.153C92.4021,-153.727 119.194,-172.269 146,-181 220.856,-205.382 312.142,-207.154 372.278,-204.788"/>
<polygon fill="midnightblue" stroke="midnightblue" points="76.9627,-137.149 66.9852,-133.585 72.5627,-142.593 76.9627,-137.149"/>
</g>
<!-- Node8 -->
<g id="node8" class="node"><title>Node8</title>
<g id="a_node8"><a xlink:href="_c_d_a_q_2_plugins_2_source_2xml_parser_8cpp.xhtml#a8415cb910267a0487e1003a34069d012" target="_top" xlink:title="myRealloc">
<polygon fill="white" stroke="black" points="209.5,-0.5 209.5,-19.5 272.5,-19.5 272.5,-0.5 209.5,-0.5"/>
<text text-anchor="middle" x="241" y="-7.5" font-family="Helvetica,sans-Serif" font-size="10.00">myRealloc</text>
</a>
</g>
</g>
<!-- Node1&#45;&gt;Node8 -->
<g id="edge10" class="edge"><title>Node1&#45;&gt;Node8</title>
<path fill="none" stroke="midnightblue" d="M67.8037,-105.954C83.1088,-84.1009 111.918,-47.8825 146,-29 165.37,-18.2687 189.985,-13.5595 209.167,-11.5116"/>
<polygon fill="midnightblue" stroke="midnightblue" points="64.8249,-104.11 62.0952,-114.347 70.6131,-108.046 64.8249,-104.11"/>
</g>
<!-- Node9 -->
<g id="node9" class="node"><title>Node9</title>
<g id="a_node9"><a xlink:href="struct_x_m_l_node.xhtml#a5f35571651c6b629f5c8e5d02942a1c7" target="_top" xlink:title="XMLNode::updateName_WOSD">
<polygon fill="white" stroke="black" points="162,-152.5 162,-171.5 320,-171.5 320,-152.5 162,-152.5"/>
<text text-anchor="middle" x="241" y="-159.5" font-family="Helvetica,sans-Serif" font-size="10.00">XMLNode::updateName_WOSD</text>
</a>
</g>
</g>
<!-- Node1&#45;&gt;Node9 -->
<g id="edge11" class="edge"><title>Node1&#45;&gt;Node9</title>
<path fill="none" stroke="midnightblue" d="M112.561,-135.681C138.654,-141.07 169.238,-147.386 193.903,-152.48"/>
<polygon fill="midnightblue" stroke="midnightblue" points="112.932,-132.184 102.431,-133.589 111.516,-139.039 112.932,-132.184"/>
</g>
<!-- Node3&#45;&gt;Node4 -->
<g id="edge3" class="edge"><title>Node3&#45;&gt;Node4</title>
<path fill="none" stroke="midnightblue" d="M327.718,-86C352.202,-86 377.693,-86 397.891,-86"/>
<polygon fill="midnightblue" stroke="midnightblue" points="327.671,-82.5001 317.671,-86 327.671,-89.5001 327.671,-82.5001"/>
</g>
<!-- Node5 -->
<g id="node5" class="node"><title>Node5</title>
<g id="a_node5"><a xlink:href="_p_d_a_q_2_core_2_source_2xml_parser_8cpp.xhtml#a8415cb910267a0487e1003a34069d012" target="_top" xlink:title="myRealloc">
<polygon fill="white" stroke="black" points="544.5,-76.5 544.5,-95.5 607.5,-95.5 607.5,-76.5 544.5,-76.5"/>
<text text-anchor="middle" x="576" y="-83.5" font-family="Helvetica,sans-Serif" font-size="10.00">myRealloc</text>
</a>
</g>
</g>
<!-- Node4&#45;&gt;Node5 -->
<g id="edge4" class="edge"><title>Node4&#45;&gt;Node5</title>
<path fill="none" stroke="midnightblue" d="M488.48,-86C507.184,-86 527.911,-86 544.389,-86"/>
<polygon fill="midnightblue" stroke="midnightblue" points="488.337,-82.5001 478.337,-86 488.337,-89.5001 488.337,-82.5001"/>
</g>
<!-- Node6&#45;&gt;Node4 -->
<g id="edge6" class="edge"><title>Node6&#45;&gt;Node4</title>
<path fill="none" stroke="midnightblue" d="M300.905,-59.4788C332.302,-65.5973 370.067,-72.9566 397.842,-78.3691"/>
<polygon fill="midnightblue" stroke="midnightblue" points="301.44,-56.0174 290.955,-57.54 300.101,-62.8882 301.44,-56.0174"/>
</g>
<!-- Node7&#45;&gt;Node2 -->
<g id="edge9" class="edge"><title>Node7&#45;&gt;Node2</title>
<path fill="none" stroke="midnightblue" d="M513.843,-189.544C523.055,-188.257 532.098,-186.994 540.286,-185.85"/>
<polygon fill="midnightblue" stroke="midnightblue" points="513.233,-186.095 503.814,-190.945 514.202,-193.028 513.233,-186.095"/>
</g>
<!-- Node9&#45;&gt;Node2 -->
<g id="edge15" class="edge"><title>Node9&#45;&gt;Node2</title>
<path fill="none" stroke="midnightblue" d="M330.466,-167.048C399.183,-170.968 490.815,-176.197 540.098,-179.009"/>
<polygon fill="midnightblue" stroke="midnightblue" points="330.257,-163.53 320.074,-166.455 329.858,-170.519 330.257,-163.53"/>
</g>
<!-- Node9&#45;&gt;Node4 -->
<g id="edge14" class="edge"><title>Node9&#45;&gt;Node4</title>
<path fill="none" stroke="midnightblue" d="M308.044,-149.559C317.72,-146.488 327.334,-142.689 336,-138 355.09,-127.671 353.091,-115.656 372,-105 379.887,-100.556 388.91,-97.0659 397.672,-94.3586"/>
<polygon fill="midnightblue" stroke="midnightblue" points="306.99,-146.221 298.38,-152.394 308.961,-152.938 306.99,-146.221"/>
</g>
<!-- Node10 -->
<g id="node10" class="node"><title>Node10</title>
<g id="a_node10"><a xlink:href="struct_x_m_l_node.xhtml#ae08b643a2b87a77bad3c70eb57ea3043" target="_top" xlink:title="XMLNode::updateName">
<polygon fill="white" stroke="black" points="377,-114.5 377,-133.5 499,-133.5 499,-114.5 377,-114.5"/>
<text text-anchor="middle" x="438" y="-121.5" font-family="Helvetica,sans-Serif" font-size="10.00">XMLNode::updateName</text>
</a>
</g>
</g>
<!-- Node9&#45;&gt;Node10 -->
<g id="edge12" class="edge"><title>Node9&#45;&gt;Node10</title>
<path fill="none" stroke="midnightblue" d="M300.959,-150.511C328.782,-145.089 361.596,-138.694 388.025,-133.544"/>
<polygon fill="midnightblue" stroke="midnightblue" points="300.101,-147.112 290.955,-152.46 301.44,-153.983 300.101,-147.112"/>
</g>
<!-- Node10&#45;&gt;Node2 -->
<g id="edge13" class="edge"><title>Node10&#45;&gt;Node2</title>
<path fill="none" stroke="midnightblue" d="M476.059,-137.091C485.247,-140.499 495.029,-144.266 504,-148 521.694,-155.364 541.436,-164.627 555.602,-171.463"/>
<polygon fill="midnightblue" stroke="midnightblue" points="476.984,-133.703 466.39,-133.553 474.578,-140.276 476.984,-133.703"/>
</g>
</g>
</svg>
