<?xml version="1.0" encoding="UTF-8" standalone="no"?>
<!DOCTYPE svg PUBLIC "-//W3C//DTD SVG 1.1//EN"
 "http://www.w3.org/Graphics/SVG/1.1/DTD/svg11.dtd">
<!-- Generated by graphviz version 2.36.0 (20140111.2315)
 -->
<!-- Title: XMLNode::addClear_WOSD Pages: 1 -->
<svg width="642pt" height="123pt"
 viewBox="0.00 0.00 642.00 123.00" xmlns="http://www.w3.org/2000/svg" xmlns:xlink="http://www.w3.org/1999/xlink">
<g id="graph0" class="graph" transform="scale(1 1) rotate(0) translate(4 119)">
<title>XMLNode::addClear_WOSD</title>
<polygon fill="white" stroke="none" points="-4,4 -4,-119 638,-119 638,4 -4,4"/>
<!-- Node1 -->
<g id="node1" class="node"><title>Node1</title>
<polygon fill="#bfbfbf" stroke="black" points="0,-95.5 0,-114.5 142,-114.5 142,-95.5 0,-95.5"/>
<text text-anchor="middle" x="71" y="-102.5" font-family="Helvetica,sans-Serif" font-size="10.00">XMLNode::addClear_WOSD</text>
</g>
<!-- Node2 -->
<g id="node2" class="node"><title>Node2</title>
<g id="a_node2"><a xlink:href="_p_d_a_q_2_core_2_source_2xml_parser_8cpp.xhtml#a9a625f17c09a36e3ad532cdf16072609" target="_top" xlink:title="charmemset">
<polygon fill="white" stroke="black" points="562.5,-76.5 562.5,-95.5 633.5,-95.5 633.5,-76.5 562.5,-76.5"/>
<text text-anchor="middle" x="598" y="-83.5" font-family="Helvetica,sans-Serif" font-size="10.00">charmemset</text>
</a>
</g>
</g>
<!-- Node1&#45;&gt;Node2 -->
<g id="edge1" class="edge"><title>Node1&#45;&gt;Node2</title>
<path fill="none" stroke="midnightblue" d="M152.247,-103.482C243.002,-101.543 395.187,-97.6204 526,-91 537.847,-90.4004 550.794,-89.5474 562.349,-88.7153"/>
<polygon fill="midnightblue" stroke="midnightblue" points="151.956,-99.9876 142.032,-103.698 152.104,-106.986 151.956,-99.9876"/>
</g>
<!-- Node3 -->
<g id="node3" class="node"><title>Node3</title>
<g id="a_node3"><a xlink:href="struct_x_m_l_node.xhtml#a78712972d283700f8bd24d1e83ea7c55" target="_top" xlink:title="XMLNode::updateClear_WOSD">
<polygon fill="white" stroke="black" points="178.5,-57.5 178.5,-76.5 333.5,-76.5 333.5,-57.5 178.5,-57.5"/>
<text text-anchor="middle" x="256" y="-64.5" font-family="Helvetica,sans-Serif" font-size="10.00">XMLNode::updateClear_WOSD</text>
</a>
</g>
</g>
<!-- Node1&#45;&gt;Node3 -->
<g id="edge2" class="edge"><title>Node1&#45;&gt;Node3</title>
<path fill="none" stroke="midnightblue" d="M128.253,-93.319C154.205,-87.9301 184.622,-81.6139 209.153,-76.5201"/>
<polygon fill="midnightblue" stroke="midnightblue" points="127.258,-89.9509 118.179,-95.411 128.681,-96.8047 127.258,-89.9509"/>
</g>
<!-- Node3&#45;&gt;Node2 -->
<g id="edge6" class="edge"><title>Node3&#45;&gt;Node2</title>
<path fill="none" stroke="midnightblue" d="M344.01,-71.8623C415.025,-75.8308 511.642,-81.23 562.472,-84.0705"/>
<polygon fill="midnightblue" stroke="midnightblue" points="343.906,-68.3512 333.727,-71.2877 343.516,-75.3403 343.906,-68.3512"/>
</g>
<!-- Node4 -->
<g id="node4" class="node"><title>Node4</title>
<g id="a_node4"><a xlink:href="struct_x_m_l_node.xhtml#a88e5fde717bc53a879805b2f46d55429" target="_top" xlink:title="XMLNode::updateClear_WOSD">
<polygon fill="white" stroke="black" points="370.5,-38.5 370.5,-57.5 525.5,-57.5 525.5,-38.5 370.5,-38.5"/>
<text text-anchor="middle" x="448" y="-45.5" font-family="Helvetica,sans-Serif" font-size="10.00">XMLNode::updateClear_WOSD</text>
</a>
</g>
</g>
<!-- Node3&#45;&gt;Node4 -->
<g id="edge3" class="edge"><title>Node3&#45;&gt;Node4</title>
<path fill="none" stroke="midnightblue" d="M343.692,-58.3308C352.565,-57.4435 361.535,-56.5465 370.29,-55.671"/>
<polygon fill="midnightblue" stroke="midnightblue" points="343.335,-54.849 333.733,-59.3267 344.031,-61.8142 343.335,-54.849"/>
</g>
<!-- Node5 -->
<g id="node5" class="node"><title>Node5</title>
<g id="a_node5"><a xlink:href="struct_x_m_l_node.xhtml#a6b48e123943ea53272f6d4be33ca6d04" target="_top" xlink:title="XMLNode::updateClear">
<polygon fill="white" stroke="black" points="388.5,-0.5 388.5,-19.5 507.5,-19.5 507.5,-0.5 388.5,-0.5"/>
<text text-anchor="middle" x="448" y="-7.5" font-family="Helvetica,sans-Serif" font-size="10.00">XMLNode::updateClear</text>
</a>
</g>
</g>
<!-- Node3&#45;&gt;Node5 -->
<g id="edge4" class="edge"><title>Node3&#45;&gt;Node5</title>
<path fill="none" stroke="midnightblue" d="M292.921,-54.0765C315.011,-46.3402 343.977,-36.5723 370,-29 381.502,-25.6531 394.079,-22.3867 405.673,-19.5326"/>
<polygon fill="midnightblue" stroke="midnightblue" points="291.557,-50.8461 283.29,-57.4729 293.885,-57.4476 291.557,-50.8461"/>
</g>
<!-- Node5&#45;&gt;Node2 -->
<g id="edge5" class="edge"><title>Node5&#45;&gt;Node2</title>
<path fill="none" stroke="midnightblue" d="M510.656,-22.628C515.954,-24.4838 521.14,-26.5971 526,-29 550.939,-41.3307 575.145,-63.6481 587.839,-76.3923"/>
<polygon fill="midnightblue" stroke="midnightblue" points="511.637,-19.2674 501.046,-19.5586 509.507,-25.9354 511.637,-19.2674"/>
</g>
</g>
</svg>
