<?xml version="1.0" encoding="UTF-8" standalone="no"?>
<!DOCTYPE svg PUBLIC "-//W3C//DTD SVG 1.1//EN"
 "http://www.w3.org/Graphics/SVG/1.1/DTD/svg11.dtd">
<!-- Generated by graphviz version 2.36.0 (20140111.2315)
 -->
<!-- Title: XMLNode::updateText_WOSD Pages: 1 -->
<svg width="522pt" height="47pt"
 viewBox="0.00 0.00 522.00 47.00" xmlns="http://www.w3.org/2000/svg" xmlns:xlink="http://www.w3.org/1999/xlink">
<g id="graph0" class="graph" transform="scale(1 1) rotate(0) translate(4 43)">
<title>XMLNode::updateText_WOSD</title>
<polygon fill="white" stroke="none" points="-4,4 -4,-43 518,-43 518,4 -4,4"/>
<!-- Node1 -->
<g id="node1" class="node"><title>Node1</title>
<polygon fill="#bfbfbf" stroke="black" points="0,-19.5 0,-38.5 152,-38.5 152,-19.5 0,-19.5"/>
<text text-anchor="middle" x="76" y="-26.5" font-family="Helvetica,sans-Serif" font-size="10.00">XMLNode::updateText_WOSD</text>
</g>
<!-- Node2 -->
<g id="node2" class="node"><title>Node2</title>
<g id="a_node2"><a xlink:href="struct_x_m_l_node.xhtml#a90944eacfeb994486e3ca83a68c35b6a" target="_top" xlink:title="XMLNode::addText_WOSD">
<polygon fill="white" stroke="black" points="376,-19.5 376,-38.5 514,-38.5 514,-19.5 376,-19.5"/>
<text text-anchor="middle" x="445" y="-26.5" font-family="Helvetica,sans-Serif" font-size="10.00">XMLNode::addText_WOSD</text>
</a>
</g>
</g>
<!-- Node1&#45;&gt;Node2 -->
<g id="edge1" class="edge"><title>Node1&#45;&gt;Node2</title>
<path fill="none" stroke="midnightblue" d="M152.154,-29C214.331,-29 302.365,-29 365.458,-29"/>
<polygon fill="midnightblue" stroke="midnightblue" points="365.755,-32.5001 375.755,-29 365.755,-25.5001 365.755,-32.5001"/>
</g>
<!-- Node3 -->
<g id="node3" class="node"><title>Node3</title>
<g id="a_node3"><a xlink:href="struct_x_m_l_node.xhtml#a8809eddad474e8bd7ad5f57aea7c77ac" target="_top" xlink:title="XMLNode::updateText_WOSD">
<polygon fill="white" stroke="black" points="188,-0.5 188,-19.5 340,-19.5 340,-0.5 188,-0.5"/>
<text text-anchor="middle" x="264" y="-7.5" font-family="Helvetica,sans-Serif" font-size="10.00">XMLNode::updateText_WOSD</text>
</a>
</g>
</g>
<!-- Node1&#45;&gt;Node3 -->
<g id="edge2" class="edge"><title>Node1&#45;&gt;Node3</title>
<path fill="none" stroke="midnightblue" d="M152.117,-21.3267C160.596,-20.4606 169.281,-19.5735 177.875,-18.6956"/>
<polygon fill="midnightblue" stroke="midnightblue" points="178.312,-22.1692 187.905,-17.671 177.601,-15.2054 178.312,-22.1692"/>
</g>
<!-- Node3&#45;&gt;Node2 -->
<g id="edge3" class="edge"><title>Node3&#45;&gt;Node2</title>
<path fill="none" stroke="midnightblue" d="M340.134,-17.9751C348.661,-18.8802 357.367,-19.8043 365.93,-20.7133"/>
<polygon fill="midnightblue" stroke="midnightblue" points="365.585,-24.1962 375.899,-21.7714 366.324,-17.2353 365.585,-24.1962"/>
</g>
</g>
</svg>
