<?xml version="1.0" encoding="UTF-8" standalone="no"?>
<!DOCTYPE svg PUBLIC "-//W3C//DTD SVG 1.1//EN"
 "http://www.w3.org/Graphics/SVG/1.1/DTD/svg11.dtd">
<!-- Generated by graphviz version 2.36.0 (20140111.2315)
 -->
<!-- Title: XMLNode::guessCharEncoding Pages: 1 -->
<svg width="662pt" height="344pt"
 viewBox="0.00 0.00 662.00 344.00" xmlns="http://www.w3.org/2000/svg" xmlns:xlink="http://www.w3.org/1999/xlink">
<g id="graph0" class="graph" transform="scale(1 1) rotate(0) translate(4 340)">
<title>XMLNode::guessCharEncoding</title>
<polygon fill="white" stroke="none" points="-4,4 -4,-340 658,-340 658,4 -4,4"/>
<!-- Node1 -->
<g id="node1" class="node"><title>Node1</title>
<polygon fill="#bfbfbf" stroke="black" points="0,-278.5 0,-297.5 154,-297.5 154,-278.5 0,-278.5"/>
<text text-anchor="middle" x="77" y="-285.5" font-family="Helvetica,sans-Serif" font-size="10.00">XMLNode::guessCharEncoding</text>
</g>
<!-- Node2 -->
<g id="node2" class="node"><title>Node2</title>
<g id="a_node2"><a xlink:href="_p_d_a_q_2_core_2_source_2xml_parser_8cpp.xhtml#af77e3e2685487b9c492b20c36f3b864a" target="_top" xlink:title="_strnicmp">
<polygon fill="white" stroke="black" points="407.5,-278.5 407.5,-297.5 466.5,-297.5 466.5,-278.5 407.5,-278.5"/>
<text text-anchor="middle" x="437" y="-285.5" font-family="Helvetica,sans-Serif" font-size="10.00">_strnicmp</text>
</a>
</g>
</g>
<!-- Node1&#45;&gt;Node2 -->
<g id="edge1" class="edge"><title>Node1&#45;&gt;Node2</title>
<path fill="none" stroke="midnightblue" d="M164.767,-288C243.563,-288 355.167,-288 407.204,-288"/>
<polygon fill="midnightblue" stroke="midnightblue" points="164.361,-284.5 154.361,-288 164.361,-291.5 164.361,-284.5"/>
</g>
<!-- Node3 -->
<g id="node3" class="node"><title>Node3</title>
<g id="a_node3"><a xlink:href="_p_d_a_q_2_core_2_source_2xml_parser_8cpp.xhtml#a9a625f17c09a36e3ad532cdf16072609" target="_top" xlink:title="charmemset">
<polygon fill="white" stroke="black" points="567.5,-316.5 567.5,-335.5 638.5,-335.5 638.5,-316.5 567.5,-316.5"/>
<text text-anchor="middle" x="603" y="-323.5" font-family="Helvetica,sans-Serif" font-size="10.00">charmemset</text>
</a>
</g>
</g>
<!-- Node1&#45;&gt;Node3 -->
<g id="edge4" class="edge"><title>Node1&#45;&gt;Node3</title>
<path fill="none" stroke="midnightblue" d="M158.507,-298.712C169.088,-299.93 179.796,-301.066 190,-302 329.669,-314.783 496.634,-322.05 567.488,-324.762"/>
<polygon fill="midnightblue" stroke="midnightblue" points="158.764,-295.218 148.423,-297.524 157.945,-302.17 158.764,-295.218"/>
</g>
<!-- Node5 -->
<g id="node5" class="node"><title>Node5</title>
<g id="a_node5"><a xlink:href="struct_x_m_l_node.xhtml#acc044148e2b9b8264a320b7b6e398158" target="_top" xlink:title="XMLNode::openFileHelper">
<polygon fill="white" stroke="black" points="190.5,-164.5 190.5,-183.5 321.5,-183.5 321.5,-164.5 190.5,-164.5"/>
<text text-anchor="middle" x="256" y="-171.5" font-family="Helvetica,sans-Serif" font-size="10.00">XMLNode::openFileHelper</text>
</a>
</g>
</g>
<!-- Node1&#45;&gt;Node5 -->
<g id="edge5" class="edge"><title>Node1&#45;&gt;Node5</title>
<path fill="none" stroke="midnightblue" d="M101.393,-272.933C138.284,-249.173 208.955,-203.656 239.88,-183.738"/>
<polygon fill="midnightblue" stroke="midnightblue" points="99.2985,-270.119 92.7865,-278.477 103.089,-276.004 99.2985,-270.119"/>
</g>
<!-- Node2&#45;&gt;Node3 -->
<g id="edge2" class="edge"><title>Node2&#45;&gt;Node3</title>
<path fill="none" stroke="midnightblue" d="M476.605,-296.945C504.068,-303.308 540.653,-311.785 567.214,-317.94"/>
<polygon fill="midnightblue" stroke="midnightblue" points="477.099,-293.467 466.567,-294.619 475.518,-300.286 477.099,-293.467"/>
</g>
<!-- Node4 -->
<g id="node4" class="node"><title>Node4</title>
<g id="a_node4"><a xlink:href="_p_d_a_q_2_core_2_source_2xml_parser_8cpp.xhtml#ad9a5c911a8e21bb89427d29d33e2797e" target="_top" xlink:title="myIsTextWideChar">
<polygon fill="white" stroke="black" points="552.5,-278.5 552.5,-297.5 653.5,-297.5 653.5,-278.5 552.5,-278.5"/>
<text text-anchor="middle" x="603" y="-285.5" font-family="Helvetica,sans-Serif" font-size="10.00">myIsTextWideChar</text>
</a>
</g>
</g>
<!-- Node2&#45;&gt;Node4 -->
<g id="edge3" class="edge"><title>Node2&#45;&gt;Node4</title>
<path fill="none" stroke="midnightblue" d="M476.784,-288C499.346,-288 528.018,-288 552.231,-288"/>
<polygon fill="midnightblue" stroke="midnightblue" points="476.567,-284.5 466.567,-288 476.567,-291.5 476.567,-284.5"/>
</g>
<!-- Node5&#45;&gt;Node2 -->
<g id="edge15" class="edge"><title>Node5&#45;&gt;Node2</title>
<path fill="none" stroke="midnightblue" d="M270.648,-191.498C288.419,-213.052 321.546,-249.233 358,-269 373.193,-277.238 391.968,-281.953 407.29,-284.626"/>
<polygon fill="midnightblue" stroke="midnightblue" points="273.207,-189.096 264.208,-183.503 267.755,-193.487 273.207,-189.096"/>
</g>
<!-- Node6 -->
<g id="node6" class="node"><title>Node6</title>
<g id="a_node6"><a xlink:href="class_a_d_c_manager1720.xhtml#aae342ccd8bf1c253c455e195bfd82dfe" target="_top" xlink:title="ADCManager1720::Init">
<polygon fill="white" stroke="black" points="379,-240.5 379,-259.5 495,-259.5 495,-240.5 379,-240.5"/>
<text text-anchor="middle" x="437" y="-247.5" font-family="Helvetica,sans-Serif" font-size="10.00">ADCManager1720::Init</text>
</a>
</g>
</g>
<!-- Node5&#45;&gt;Node6 -->
<g id="edge6" class="edge"><title>Node5&#45;&gt;Node6</title>
<path fill="none" stroke="midnightblue" d="M279.736,-189.243C299.637,-201.985 329.711,-219.82 358,-231 367.462,-234.74 377.871,-237.891 387.916,-240.487"/>
<polygon fill="midnightblue" stroke="midnightblue" points="281.384,-186.14 271.094,-183.619 277.566,-192.007 281.384,-186.14"/>
</g>
<!-- Node7 -->
<g id="node7" class="node"><title>Node7</title>
<g id="a_node7"><a xlink:href="class_a_d_c_manager1724.xhtml#a6de2521b9c793edcf14aeaeefeb62787" target="_top" xlink:title="ADCManager1724::Init">
<polygon fill="white" stroke="black" points="379,-202.5 379,-221.5 495,-221.5 495,-202.5 379,-202.5"/>
<text text-anchor="middle" x="437" y="-209.5" font-family="Helvetica,sans-Serif" font-size="10.00">ADCManager1724::Init</text>
</a>
</g>
</g>
<!-- Node5&#45;&gt;Node7 -->
<g id="edge7" class="edge"><title>Node5&#45;&gt;Node7</title>
<path fill="none" stroke="midnightblue" d="M312.024,-185.681C337.408,-191.07 367.161,-197.386 391.156,-202.48"/>
<polygon fill="midnightblue" stroke="midnightblue" points="312.678,-182.242 302.169,-183.589 311.224,-189.089 312.678,-182.242"/>
</g>
<!-- Node8 -->
<g id="node8" class="node"><title>Node8</title>
<g id="a_node8"><a xlink:href="class_a_d_c_manager1730.xhtml#adb6d45f2024f4a52d366a88d1c7f229d" target="_top" xlink:title="ADCManager1730::Init">
<polygon fill="white" stroke="black" points="379,-164.5 379,-183.5 495,-183.5 495,-164.5 379,-164.5"/>
<text text-anchor="middle" x="437" y="-171.5" font-family="Helvetica,sans-Serif" font-size="10.00">ADCManager1730::Init</text>
</a>
</g>
</g>
<!-- Node5&#45;&gt;Node8 -->
<g id="edge8" class="edge"><title>Node5&#45;&gt;Node8</title>
<path fill="none" stroke="midnightblue" d="M331.85,-174C347.58,-174 363.93,-174 378.887,-174"/>
<polygon fill="midnightblue" stroke="midnightblue" points="331.623,-170.5 321.623,-174 331.623,-177.5 331.623,-170.5"/>
</g>
<!-- Node9 -->
<g id="node9" class="node"><title>Node9</title>
<g id="a_node9"><a xlink:href="class_scope_manager.xhtml#abe246d1b817d85a9cba7af3441a4df04" target="_top" xlink:title="ScopeManager::ShowEvent">
<polygon fill="white" stroke="black" points="368,-126.5 368,-145.5 506,-145.5 506,-126.5 368,-126.5"/>
<text text-anchor="middle" x="437" y="-133.5" font-family="Helvetica,sans-Serif" font-size="10.00">ScopeManager::ShowEvent</text>
</a>
</g>
</g>
<!-- Node5&#45;&gt;Node9 -->
<g id="edge9" class="edge"><title>Node5&#45;&gt;Node9</title>
<path fill="none" stroke="midnightblue" d="M312.024,-162.319C337.408,-156.93 367.161,-150.614 391.156,-145.52"/>
<polygon fill="midnightblue" stroke="midnightblue" points="311.224,-158.911 302.169,-164.411 312.678,-165.758 311.224,-158.911"/>
</g>
<!-- Node11 -->
<g id="node11" class="node"><title>Node11</title>
<g id="a_node11"><a xlink:href="class_slowcontrol_manager.xhtml#a36ab5157f5a740b9058517b77d1ce38f" target="_top" xlink:title="SlowcontrolManager\l::ShowStatus">
<polygon fill="white" stroke="black" points="384.5,-77 384.5,-107 489.5,-107 489.5,-77 384.5,-77"/>
<text text-anchor="start" x="392.5" y="-95" font-family="Helvetica,sans-Serif" font-size="10.00">SlowcontrolManager</text>
<text text-anchor="middle" x="437" y="-84" font-family="Helvetica,sans-Serif" font-size="10.00">::ShowStatus</text>
</a>
</g>
</g>
<!-- Node5&#45;&gt;Node11 -->
<g id="edge11" class="edge"><title>Node5&#45;&gt;Node11</title>
<path fill="none" stroke="midnightblue" d="M280.636,-158.833C300.667,-146.432 330.446,-129.041 358,-117 366.339,-113.356 375.384,-109.971 384.26,-106.944"/>
<polygon fill="midnightblue" stroke="midnightblue" points="278.515,-156.032 271.901,-164.309 282.233,-161.963 278.515,-156.032"/>
</g>
<!-- Node12 -->
<g id="node12" class="node"><title>Node12</title>
<g id="a_node12"><a xlink:href="class_storage_manager.xhtml#ab16a945d003852d02556daf3610a9aac" target="_top" xlink:title="StorageManager::SaveContainer">
<polygon fill="white" stroke="black" points="358,-38.5 358,-57.5 516,-57.5 516,-38.5 358,-38.5"/>
<text text-anchor="middle" x="437" y="-45.5" font-family="Helvetica,sans-Serif" font-size="10.00">StorageManager::SaveContainer</text>
</a>
</g>
</g>
<!-- Node5&#45;&gt;Node12 -->
<g id="edge13" class="edge"><title>Node5&#45;&gt;Node12</title>
<path fill="none" stroke="midnightblue" d="M268.906,-155.99C285.797,-131.915 319.031,-89.6545 358,-67 364.627,-63.1473 372.007,-60.0731 379.51,-57.6207"/>
<polygon fill="midnightblue" stroke="midnightblue" points="266.015,-154.019 263.255,-164.248 271.791,-157.972 266.015,-154.019"/>
</g>
<!-- Node13 -->
<g id="node13" class="node"><title>Node13</title>
<g id="a_node13"><a xlink:href="_p_d_a_q_2_core_2_source_2xml_8cpp.xhtml#a8251b051736c5146c1985edc6cb357e6" target="_top" xlink:title="xml_readsettings">
<polygon fill="white" stroke="black" points="391.5,-0.5 391.5,-19.5 482.5,-19.5 482.5,-0.5 391.5,-0.5"/>
<text text-anchor="middle" x="437" y="-7.5" font-family="Helvetica,sans-Serif" font-size="10.00">xml_readsettings</text>
</a>
</g>
</g>
<!-- Node5&#45;&gt;Node13 -->
<g id="edge16" class="edge"><title>Node5&#45;&gt;Node13</title>
<path fill="none" stroke="midnightblue" d="M264.77,-155.081C278.639,-123.765 310.704,-61.4027 358,-29 367.773,-22.3042 379.656,-17.9602 391.169,-15.1444"/>
<polygon fill="midnightblue" stroke="midnightblue" points="261.489,-153.852 260.769,-164.422 267.923,-156.608 261.489,-153.852"/>
</g>
<!-- Node10 -->
<g id="node10" class="node"><title>Node10</title>
<g id="a_node10"><a xlink:href="_multi_d_a_q_8cpp.xhtml#adedb285b02c41bde2158ded9cc9fd7ac" target="_top" xlink:title="main">
<polygon fill="white" stroke="black" points="584,-82.5 584,-101.5 622,-101.5 622,-82.5 584,-82.5"/>
<text text-anchor="middle" x="603" y="-89.5" font-family="Helvetica,sans-Serif" font-size="10.00">main</text>
</a>
</g>
</g>
<!-- Node9&#45;&gt;Node10 -->
<g id="edge10" class="edge"><title>Node9&#45;&gt;Node10</title>
<path fill="none" stroke="midnightblue" d="M485.581,-123.97C495.636,-121.38 506.176,-118.63 516,-116 539.509,-109.707 566.528,-102.106 583.911,-97.168"/>
<polygon fill="midnightblue" stroke="midnightblue" points="484.549,-120.622 475.732,-126.496 486.288,-127.402 484.549,-120.622"/>
</g>
<!-- Node11&#45;&gt;Node10 -->
<g id="edge12" class="edge"><title>Node11&#45;&gt;Node10</title>
<path fill="none" stroke="midnightblue" d="M500.256,-92C530.076,-92 563.599,-92 583.744,-92"/>
<polygon fill="midnightblue" stroke="midnightblue" points="499.891,-88.5001 489.891,-92 499.891,-95.5001 499.891,-88.5001"/>
</g>
<!-- Node12&#45;&gt;Node10 -->
<g id="edge14" class="edge"><title>Node12&#45;&gt;Node10</title>
<path fill="none" stroke="midnightblue" d="M488.394,-59.9314C497.596,-62.2078 507.1,-64.6236 516,-67 539.585,-73.2973 566.587,-81.2735 583.945,-86.5007"/>
<polygon fill="midnightblue" stroke="midnightblue" points="489.115,-56.5047 478.57,-57.5244 487.449,-63.3036 489.115,-56.5047"/>
</g>
<!-- Node14 -->
<g id="node14" class="node"><title>Node14</title>
<g id="a_node14"><a xlink:href="_z_d_a_q_8cpp.xhtml#a0ddf1224851353fc92bfbff6f499fa97" target="_top" xlink:title="main">
<polygon fill="white" stroke="black" points="584,-0.5 584,-19.5 622,-19.5 622,-0.5 584,-0.5"/>
<text text-anchor="middle" x="603" y="-7.5" font-family="Helvetica,sans-Serif" font-size="10.00">main</text>
</a>
</g>
</g>
<!-- Node13&#45;&gt;Node14 -->
<g id="edge17" class="edge"><title>Node13&#45;&gt;Node14</title>
<path fill="none" stroke="midnightblue" d="M493.216,-10C524.646,-10 561.974,-10 583.724,-10"/>
<polygon fill="midnightblue" stroke="midnightblue" points="492.814,-6.5001 482.814,-10 492.814,-13.5001 492.814,-6.5001"/>
</g>
</g>
</svg>
