<?xml version="1.0" encoding="UTF-8" standalone="no"?>
<!DOCTYPE svg PUBLIC "-//W3C//DTD SVG 1.1//EN"
 "http://www.w3.org/Graphics/SVG/1.1/DTD/svg11.dtd">
<!-- Generated by graphviz version 2.36.0 (20140111.2315)
 -->
<!-- Title: XMLNode::guessCharEncoding Pages: 1 -->
<!--zoomable 370 -->
<svg id="main" version="1.1" xmlns="http://www.w3.org/2000/svg" xmlns:xlink="http://www.w3.org/1999/xlink" xml:space="preserve" onload="init(evt)">
<style type="text/css"><![CDATA[
.edge:hover path { stroke: red; }
.edge:hover polygon { stroke: red; fill: red; }
]]></style>
<script type="text/javascript"><![CDATA[
var edges = document.getElementsByTagName('g');
if (edges && edges.length) {
  for (var i=0;i<edges.length;i++) {
    if (edges[i].id.substr(0,4)=='edge') {
      edges[i].setAttribute('class','edge');
    }
  }
}
]]></script>
        <defs>
                <circle id="rim" cx="0" cy="0" r="7"/>
                <circle id="rim2" cx="0" cy="0" r="3.5"/>
                <g id="zoomPlus">
                        <use xlink:href="#rim" fill="#404040">
                                <set attributeName="fill" to="#808080" begin="zoomplus.mouseover" end="zoomplus.mouseout"/>
                        </use>
                        <path d="M-4,0h8M0,-4v8" fill="none" stroke="white" stroke-width="1.5" pointer-events="none"/>
                </g>
                <g id="zoomMin">
                        <use xlink:href="#rim" fill="#404040">
                                <set attributeName="fill" to="#808080" begin="zoomminus.mouseover" end="zoomminus.mouseout"/>
                        </use>
                        <path d="M-4,0h8" fill="none" stroke="white" stroke-width="1.5" pointer-events="none"/>
                </g>
                <g id="dirArrow">
                        <path fill="none" stroke="white" stroke-width="1.5" d="M0,-3.0v7 M-2.5,-0.5L0,-3.0L2.5,-0.5"/>
                </g>
               <g id="resetDef">
                       <use xlink:href="#rim2" fill="#404040">
                               <set attributeName="fill" to="#808080" begin="reset.mouseover" end="reset.mouseout"/>
                       </use>
               </g>
        </defs>

<script type="text/javascript">
var viewWidth = 558;
var viewHeight = 370;
var sectionId = 'dynsection-52';
</script>
<script xlink:href="svgpan.js"/>
<svg id="graph" class="graph">
<g id="viewport">
<title>XMLNode::guessCharEncoding</title>
<polygon fill="white" stroke="none" points="-4,4 -4,-366 554,-366 554,4 -4,4"/>
<!-- Node1 -->
<g id="node1" class="node"><title>Node1</title>
<polygon fill="#bfbfbf" stroke="black" points="0,-304.5 0,-323.5 154,-323.5 154,-304.5 0,-304.5"/>
<text text-anchor="middle" x="77" y="-311.5" font-family="Helvetica,sans-Serif" font-size="10.00">XMLNode::guessCharEncoding</text>
</g>
<!-- Node2 -->
<g id="node2" class="node"><title>Node2</title>
<g id="a_node2"><a xlink:href="_c_d_a_q_2_plugins_2_source_2xml_parser_8cpp.xhtml#af77e3e2685487b9c492b20c36f3b864a" target="_top" xlink:title="_strnicmp">
<polygon fill="white" stroke="black" points="361.5,-342.5 361.5,-361.5 420.5,-361.5 420.5,-342.5 361.5,-342.5"/>
<text text-anchor="middle" x="391" y="-349.5" font-family="Helvetica,sans-Serif" font-size="10.00">_strnicmp</text>
</a>
</g>
</g>
<!-- Node1&#45;&gt;Node2 -->
<g id="edge1" class="edge"><title>Node1&#45;&gt;Node2</title>
<path fill="none" stroke="midnightblue" d="M153.602,-323.502C165.772,-325.016 178.233,-326.558 190,-328 246.041,-334.865 310.941,-342.616 351.238,-347.406"/>
<polygon fill="midnightblue" stroke="midnightblue" points="350.837,-350.883 361.18,-348.587 351.663,-343.932 350.837,-350.883"/>
</g>
<!-- Node3 -->
<g id="node3" class="node"><title>Node3</title>
<g id="a_node3"><a xlink:href="_c_d_a_q_2_plugins_2_source_2xml_parser_8cpp.xhtml#ae4635e3ac4b32772021240a9c16864ee" target="_top" xlink:title="mmin">
<polygon fill="white" stroke="black" points="370.5,-304.5 370.5,-323.5 411.5,-323.5 411.5,-304.5 370.5,-304.5"/>
<text text-anchor="middle" x="391" y="-311.5" font-family="Helvetica,sans-Serif" font-size="10.00">mmin</text>
</a>
</g>
</g>
<!-- Node1&#45;&gt;Node3 -->
<g id="edge2" class="edge"><title>Node1&#45;&gt;Node3</title>
<path fill="none" stroke="midnightblue" d="M154.324,-314C220.601,-314 313.107,-314 360.077,-314"/>
<polygon fill="midnightblue" stroke="midnightblue" points="360.191,-317.5 370.191,-314 360.191,-310.5 360.191,-317.5"/>
</g>
<!-- Node4 -->
<g id="node4" class="node"><title>Node4</title>
<g id="a_node4"><a xlink:href="_c_d_a_q_2_plugins_2_source_2xml_parser_8cpp.xhtml#ad9a5c911a8e21bb89427d29d33e2797e" target="_top" xlink:title="myIsTextWideChar">
<polygon fill="white" stroke="black" points="190.5,-190.5 190.5,-209.5 291.5,-209.5 291.5,-190.5 190.5,-190.5"/>
<text text-anchor="middle" x="241" y="-197.5" font-family="Helvetica,sans-Serif" font-size="10.00">myIsTextWideChar</text>
</a>
</g>
</g>
<!-- Node1&#45;&gt;Node4 -->
<g id="edge3" class="edge"><title>Node1&#45;&gt;Node4</title>
<path fill="none" stroke="midnightblue" d="M91.5334,-304.477C119.456,-284.827 183.688,-239.627 217.789,-215.63"/>
<polygon fill="midnightblue" stroke="midnightblue" points="219.998,-218.355 226.162,-209.738 215.969,-212.631 219.998,-218.355"/>
</g>
<!-- Node4&#45;&gt;Node2 -->
<g id="edge4" class="edge"><title>Node4&#45;&gt;Node2</title>
<path fill="none" stroke="midnightblue" d="M245.525,-209.686C254.933,-234.174 283.026,-299.017 328,-333 334.908,-338.22 343.261,-342.018 351.567,-344.778"/>
<polygon fill="midnightblue" stroke="midnightblue" points="350.628,-348.15 361.207,-347.563 352.572,-341.425 350.628,-348.15"/>
</g>
<!-- Node4&#45;&gt;Node3 -->
<g id="edge5" class="edge"><title>Node4&#45;&gt;Node3</title>
<path fill="none" stroke="midnightblue" d="M248.967,-209.742C262.371,-227.854 293.491,-266.958 328,-290 337.82,-296.557 349.693,-301.706 360.41,-305.526"/>
<polygon fill="midnightblue" stroke="midnightblue" points="359.632,-308.955 370.226,-308.783 361.837,-302.311 359.632,-308.955"/>
</g>
<!-- Node5 -->
<g id="node5" class="node"><title>Node5</title>
<g id="a_node5"><a xlink:href="_c_d_a_q_2_plugins_2_source_2xml_parser_8cpp.xhtml#ad7ec02a171e7641c1d364d5d367199a3" target="_top" xlink:title="myWideCharToMultiByte">
<polygon fill="white" stroke="black" points="328,-114.5 328,-133.5 454,-133.5 454,-114.5 328,-114.5"/>
<text text-anchor="middle" x="391" y="-121.5" font-family="Helvetica,sans-Serif" font-size="10.00">myWideCharToMultiByte</text>
</a>
</g>
</g>
<!-- Node4&#45;&gt;Node5 -->
<g id="edge6" class="edge"><title>Node4&#45;&gt;Node5</title>
<path fill="none" stroke="midnightblue" d="M256.173,-190.372C272.875,-179.279 301.69,-160.923 328,-148 335.893,-144.123 344.579,-140.428 352.888,-137.15"/>
<polygon fill="midnightblue" stroke="midnightblue" points="354.311,-140.353 362.397,-133.508 351.807,-133.816 354.311,-140.353"/>
</g>
<!-- Node6 -->
<g id="node6" class="node"><title>Node6</title>
<g id="a_node6"><a xlink:href="_c_d_a_q_2_plugins_2_source_2xml_parser_8cpp.xhtml#a8dd6e6cada28ea03e5cacd075b1be7f6" target="_top" xlink:title="xfopen">
<polygon fill="white" stroke="black" points="497,-0.5 497,-19.5 543,-19.5 543,-0.5 497,-0.5"/>
<text text-anchor="middle" x="520" y="-7.5" font-family="Helvetica,sans-Serif" font-size="10.00">xfopen</text>
</a>
</g>
</g>
<!-- Node4&#45;&gt;Node6 -->
<g id="edge14" class="edge"><title>Node4&#45;&gt;Node6</title>
<path fill="none" stroke="midnightblue" d="M244.129,-190.142C250.825,-161.715 274.283,-79.1826 328,-41 375.38,-7.32222 445.972,-5.00866 486.751,-7.04611"/>
<polygon fill="midnightblue" stroke="midnightblue" points="486.733,-10.5517 496.931,-7.67728 487.167,-3.56507 486.733,-10.5517"/>
</g>
<!-- Node7 -->
<g id="node7" class="node"><title>Node7</title>
<g id="a_node7"><a xlink:href="_c_d_a_q_2_plugins_2_source_2xml_parser_8cpp.xhtml#a73c2349b2f386ee50130a3961bd2dbab" target="_top" xlink:title="xstrcpy">
<polygon fill="white" stroke="black" points="495.5,-264.5 495.5,-283.5 544.5,-283.5 544.5,-264.5 495.5,-264.5"/>
<text text-anchor="middle" x="520" y="-271.5" font-family="Helvetica,sans-Serif" font-size="10.00">xstrcpy</text>
</a>
</g>
</g>
<!-- Node4&#45;&gt;Node7 -->
<g id="edge15" class="edge"><title>Node4&#45;&gt;Node7</title>
<path fill="none" stroke="midnightblue" d="M266.98,-209.526C284.02,-215.822 307.186,-223.992 328,-230 382.388,-245.7 446.747,-259.576 485.15,-267.369"/>
<polygon fill="midnightblue" stroke="midnightblue" points="484.77,-270.862 495.264,-269.402 486.15,-263.999 484.77,-270.862"/>
</g>
<!-- Node8 -->
<g id="node8" class="node"><title>Node8</title>
<g id="a_node8"><a xlink:href="_c_d_a_q_2_plugins_2_source_2xml_parser_8cpp.xhtml#a2e64ea95685df2d289c31a50419b532d" target="_top" xlink:title="xstricmp">
<polygon fill="white" stroke="black" points="493,-221.5 493,-240.5 547,-240.5 547,-221.5 493,-221.5"/>
<text text-anchor="middle" x="520" y="-228.5" font-family="Helvetica,sans-Serif" font-size="10.00">xstricmp</text>
</a>
</g>
</g>
<!-- Node4&#45;&gt;Node8 -->
<g id="edge16" class="edge"><title>Node4&#45;&gt;Node8</title>
<path fill="none" stroke="midnightblue" d="M291.522,-205.542C346.469,-211.691 433.816,-221.467 482.743,-226.942"/>
<polygon fill="midnightblue" stroke="midnightblue" points="482.537,-230.441 492.865,-228.075 483.316,-223.485 482.537,-230.441"/>
</g>
<!-- Node9 -->
<g id="node9" class="node"><title>Node9</title>
<g id="a_node9"><a xlink:href="_c_d_a_q_2_plugins_2_source_2xml_parser_8cpp.xhtml#a49fa66f65d2d28ce7b7e0b1752425915" target="_top" xlink:title="xstrlen">
<polygon fill="white" stroke="black" points="497,-174.5 497,-193.5 543,-193.5 543,-174.5 497,-174.5"/>
<text text-anchor="middle" x="520" y="-181.5" font-family="Helvetica,sans-Serif" font-size="10.00">xstrlen</text>
</a>
</g>
</g>
<!-- Node4&#45;&gt;Node9 -->
<g id="edge17" class="edge"><title>Node4&#45;&gt;Node9</title>
<path fill="none" stroke="midnightblue" d="M291.522,-197.14C347.945,-193.88 438.533,-188.648 486.602,-185.871"/>
<polygon fill="midnightblue" stroke="midnightblue" points="486.964,-189.356 496.746,-185.285 486.56,-182.368 486.964,-189.356"/>
</g>
<!-- Node10 -->
<g id="node10" class="node"><title>Node10</title>
<g id="a_node10"><a xlink:href="_c_d_a_q_2_plugins_2_source_2xml_parser_8cpp.xhtml#a3165858f70cd74ffab31ebc2ddc9e104" target="_top" xlink:title="xstrncmp">
<polygon fill="white" stroke="black" points="491.5,-117.5 491.5,-136.5 548.5,-136.5 548.5,-117.5 491.5,-117.5"/>
<text text-anchor="middle" x="520" y="-124.5" font-family="Helvetica,sans-Serif" font-size="10.00">xstrncmp</text>
</a>
</g>
</g>
<!-- Node4&#45;&gt;Node10 -->
<g id="edge18" class="edge"><title>Node4&#45;&gt;Node10</title>
<path fill="none" stroke="midnightblue" d="M278.213,-190.457C330.841,-176.587 427.989,-150.985 481.391,-136.911"/>
<polygon fill="midnightblue" stroke="midnightblue" points="482.37,-140.273 491.148,-134.34 480.586,-133.504 482.37,-140.273"/>
</g>
<!-- Node11 -->
<g id="node11" class="node"><title>Node11</title>
<g id="a_node11"><a xlink:href="_c_d_a_q_2_plugins_2_source_2xml_parser_8cpp.xhtml#a17c9570640aed10b61deec9047cb0940" target="_top" xlink:title="xstrnicmp">
<polygon fill="white" stroke="black" points="490.5,-77.5 490.5,-96.5 549.5,-96.5 549.5,-77.5 490.5,-77.5"/>
<text text-anchor="middle" x="520" y="-84.5" font-family="Helvetica,sans-Serif" font-size="10.00">xstrnicmp</text>
</a>
</g>
</g>
<!-- Node4&#45;&gt;Node11 -->
<g id="edge19" class="edge"><title>Node4&#45;&gt;Node11</title>
<path fill="none" stroke="midnightblue" d="M247.355,-190.317C259.012,-170.307 288.817,-124.634 328,-105 376.246,-80.8244 439.929,-80.0401 480.184,-82.7222"/>
<polygon fill="midnightblue" stroke="midnightblue" points="480.147,-86.2297 490.386,-83.5101 480.686,-79.2505 480.147,-86.2297"/>
</g>
<!-- Node12 -->
<g id="node12" class="node"><title>Node12</title>
<g id="a_node12"><a xlink:href="_c_d_a_q_2_plugins_2_source_2xml_parser_8cpp.xhtml#a696ca59a310359980c57de039f137697" target="_top" xlink:title="xstrstr">
<polygon fill="white" stroke="black" points="498,-38.5 498,-57.5 542,-57.5 542,-38.5 498,-38.5"/>
<text text-anchor="middle" x="520" y="-45.5" font-family="Helvetica,sans-Serif" font-size="10.00">xstrstr</text>
</a>
</g>
</g>
<!-- Node4&#45;&gt;Node12 -->
<g id="edge20" class="edge"><title>Node4&#45;&gt;Node12</title>
<path fill="none" stroke="midnightblue" d="M245.614,-190.307C255.044,-166.497 282.842,-105.039 328,-77 377.461,-46.2893 447.663,-43.8929 487.738,-45.5329"/>
<polygon fill="midnightblue" stroke="midnightblue" points="487.793,-49.0404 497.962,-46.067 488.158,-42.05 487.793,-49.0404"/>
</g>
<!-- Node5&#45;&gt;Node6 -->
<g id="edge7" class="edge"><title>Node5&#45;&gt;Node6</title>
<path fill="none" stroke="midnightblue" d="M400.652,-114.486C417.114,-96.6514 454.479,-57.4278 490,-29 491.551,-27.7589 493.184,-26.522 494.852,-25.3089"/>
<polygon fill="midnightblue" stroke="midnightblue" points="497.004,-28.0771 503.267,-19.5321 493.042,-22.3059 497.004,-28.0771"/>
</g>
<!-- Node5&#45;&gt;Node7 -->
<g id="edge8" class="edge"><title>Node5&#45;&gt;Node7</title>
<path fill="none" stroke="midnightblue" d="M398.476,-133.739C413.301,-155.692 451.407,-210.219 490,-250 492.534,-252.612 495.338,-255.223 498.174,-257.711"/>
<polygon fill="midnightblue" stroke="midnightblue" points="496.137,-260.569 506.057,-264.29 500.622,-255.195 496.137,-260.569"/>
</g>
<!-- Node5&#45;&gt;Node8 -->
<g id="edge9" class="edge"><title>Node5&#45;&gt;Node8</title>
<path fill="none" stroke="midnightblue" d="M403.72,-133.875C425.662,-152.361 473.127,-192.351 499.802,-214.825"/>
<polygon fill="midnightblue" stroke="midnightblue" points="497.771,-217.691 507.674,-221.457 502.281,-212.338 497.771,-217.691"/>
</g>
<!-- Node5&#45;&gt;Node9 -->
<g id="edge10" class="edge"><title>Node5&#45;&gt;Node9</title>
<path fill="none" stroke="midnightblue" d="M412.124,-133.507C432.901,-143.323 465.548,-158.747 489.296,-169.966"/>
<polygon fill="midnightblue" stroke="midnightblue" points="488.013,-173.231 498.55,-174.339 491.003,-166.902 488.013,-173.231"/>
</g>
<!-- Node5&#45;&gt;Node10 -->
<g id="edge11" class="edge"><title>Node5&#45;&gt;Node10</title>
<path fill="none" stroke="midnightblue" d="M454.012,-125.465C463.323,-125.685 472.677,-125.906 481.272,-126.109"/>
<polygon fill="midnightblue" stroke="midnightblue" points="481.246,-129.609 491.325,-126.346 481.411,-122.611 481.246,-129.609"/>
</g>
<!-- Node5&#45;&gt;Node11 -->
<g id="edge12" class="edge"><title>Node5&#45;&gt;Node11</title>
<path fill="none" stroke="midnightblue" d="M424.706,-114.472C441.662,-109.531 462.484,-103.465 480.245,-98.2909"/>
<polygon fill="midnightblue" stroke="midnightblue" points="481.674,-101.52 490.296,-95.3626 479.716,-94.7995 481.674,-101.52"/>
</g>
<!-- Node5&#45;&gt;Node12 -->
<g id="edge13" class="edge"><title>Node5&#45;&gt;Node12</title>
<path fill="none" stroke="midnightblue" d="M408.085,-114.375C429.842,-101.355 468.853,-78.0093 494.329,-62.7636"/>
<polygon fill="midnightblue" stroke="midnightblue" points="496.262,-65.6857 503.046,-57.5473 492.668,-59.679 496.262,-65.6857"/>
</g>
</g>
</svg>
        <g id="navigator" transform="translate(0 0)" fill="#404254">
                <rect fill="#f2f5e9" fill-opacity="0.5" stroke="#606060" stroke-width=".5" x="0" y="0" width="60" height="60"/>
                <use id="zoomplus" xlink:href="#zoomPlus" x="17" y="9" onmousedown="handleZoom(evt,'in')"/>
                <use id="zoomminus" xlink:href="#zoomMin" x="42" y="9" onmousedown="handleZoom(evt,'out')"/>
                <use id="reset" xlink:href="#resetDef" x="30" y="36" onmousedown="handleReset()"/>
                <g id="arrowUp" xlink:href="#dirArrow" transform="translate(30 24)" onmousedown="handlePan(0,-1)">
                  <use xlink:href="#rim" fill="#404040">
                        <set attributeName="fill" to="#808080" begin="arrowUp.mouseover" end="arrowUp.mouseout"/>
                  </use>
                  <path fill="none" stroke="white" stroke-width="1.5" d="M0,-3.0v7 M-2.5,-0.5L0,-3.0L2.5,-0.5"/>
                </g>
                <g id="arrowRight" xlink:href="#dirArrow" transform="rotate(90) translate(36 -43)" onmousedown="handlePan(1,0)">
                  <use xlink:href="#rim" fill="#404040">
                        <set attributeName="fill" to="#808080" begin="arrowRight.mouseover" end="arrowRight.mouseout"/>
                  </use>
                  <path fill="none" stroke="white" stroke-width="1.5" d="M0,-3.0v7 M-2.5,-0.5L0,-3.0L2.5,-0.5"/>
                </g>
                <g id="arrowDown" xlink:href="#dirArrow" transform="rotate(180) translate(-30 -48)" onmousedown="handlePan(0,1)">
                  <use xlink:href="#rim" fill="#404040">
                        <set attributeName="fill" to="#808080" begin="arrowDown.mouseover" end="arrowDown.mouseout"/>
                  </use>
                  <path fill="none" stroke="white" stroke-width="1.5" d="M0,-3.0v7 M-2.5,-0.5L0,-3.0L2.5,-0.5"/>
                </g>
                <g id="arrowLeft" xlink:href="#dirArrow" transform="rotate(270) translate(-36 17)" onmousedown="handlePan(-1,0)">
                  <use xlink:href="#rim" fill="#404040">
                        <set attributeName="fill" to="#808080" begin="arrowLeft.mouseover" end="arrowLeft.mouseout"/>
                  </use>
                  <path fill="none" stroke="white" stroke-width="1.5" d="M0,-3.0v7 M-2.5,-0.5L0,-3.0L2.5,-0.5"/>
                </g>
        </g>
        <svg viewBox="0 0 15 15" width="100%" height="30px" preserveAspectRatio="xMaxYMin meet">
         <g id="arrow_out" transform="scale(0.3 0.3)">
          <a xlink:href="struct_x_m_l_node_ac7af7e3bab8d21722dd4f191a4aa7c1d_cgraph_org.svg" target="_base">
           <rect id="button" ry="5" rx="5" y="6" x="6" height="38" width="38"
                fill="#f2f5e9" fill-opacity="0.5" stroke="#606060" stroke-width="1.0"/>
           <path id="arrow"
             d="M 11.500037,31.436501 C 11.940474,20.09759 22.043105,11.32322 32.158766,21.979434 L 37.068811,17.246167 C 37.068811,17.246167 37.088388,32 37.088388,32 L 22.160133,31.978069 C 22.160133,31.978069 26.997745,27.140456 26.997745,27.140456 C 18.528582,18.264221 13.291696,25.230495 11.500037,31.436501 z"
             style="fill:#404040;"/>
          </a>
         </g>
        </svg>
</svg>
