<?xml version="1.0" encoding="UTF-8" standalone="no"?>
<!DOCTYPE svg PUBLIC "-//W3C//DTD SVG 1.1//EN"
 "http://www.w3.org/Graphics/SVG/1.1/DTD/svg11.dtd">
<!-- Generated by graphviz version 2.36.0 (20140111.2315)
 -->
<!-- Title: XMLNode::updateAttribute Pages: 1 -->
<svg width="538pt" height="66pt"
 viewBox="0.00 0.00 538.00 66.00" xmlns="http://www.w3.org/2000/svg" xmlns:xlink="http://www.w3.org/1999/xlink">
<g id="graph0" class="graph" transform="scale(1 1) rotate(0) translate(4 62)">
<title>XMLNode::updateAttribute</title>
<polygon fill="white" stroke="none" points="-4,4 -4,-62 534,-62 534,4 -4,4"/>
<!-- Node1 -->
<g id="node1" class="node"><title>Node1</title>
<polygon fill="#bfbfbf" stroke="black" points="0,-19.5 0,-38.5 132,-38.5 132,-19.5 0,-19.5"/>
<text text-anchor="middle" x="66" y="-26.5" font-family="Helvetica,sans-Serif" font-size="10.00">XMLNode::updateAttribute</text>
</g>
<!-- Node2 -->
<g id="node2" class="node"><title>Node2</title>
<g id="a_node2"><a xlink:href="_c_d_a_q_2_plugins_2_source_2xml_parser_8cpp.xhtml#a5ba11fcf2496bd498e46fc958dba3d06" target="_top" xlink:title="stringDup">
<polygon fill="white" stroke="black" points="223.5,-38.5 223.5,-57.5 282.5,-57.5 282.5,-38.5 223.5,-38.5"/>
<text text-anchor="middle" x="253" y="-45.5" font-family="Helvetica,sans-Serif" font-size="10.00">stringDup</text>
</a>
</g>
</g>
<!-- Node1&#45;&gt;Node2 -->
<g id="edge1" class="edge"><title>Node1&#45;&gt;Node2</title>
<path fill="none" stroke="midnightblue" d="M132.224,-35.6987C159.288,-38.4782 189.773,-41.6091 213.214,-44.0166"/>
<polygon fill="midnightblue" stroke="midnightblue" points="213.146,-47.528 223.452,-45.068 213.862,-40.5646 213.146,-47.528"/>
</g>
<!-- Node3 -->
<g id="node3" class="node"><title>Node3</title>
<g id="a_node3"><a xlink:href="struct_x_m_l_node.xhtml#a62a2c0cad7809a03afc485351c9560da" target="_top" xlink:title="XMLNode::updateAttribute_WOSD">
<polygon fill="white" stroke="black" points="168.5,-0.5 168.5,-19.5 337.5,-19.5 337.5,-0.5 168.5,-0.5"/>
<text text-anchor="middle" x="253" y="-7.5" font-family="Helvetica,sans-Serif" font-size="10.00">XMLNode::updateAttribute_WOSD</text>
</a>
</g>
</g>
<!-- Node1&#45;&gt;Node3 -->
<g id="edge2" class="edge"><title>Node1&#45;&gt;Node3</title>
<path fill="none" stroke="midnightblue" d="M132.224,-22.3013C140.598,-21.4412 149.3,-20.5475 158.02,-19.652"/>
<polygon fill="midnightblue" stroke="midnightblue" points="158.655,-23.1053 168.245,-18.6019 157.94,-16.1419 158.655,-23.1053"/>
</g>
<!-- Node4 -->
<g id="node4" class="node"><title>Node4</title>
<g id="a_node4"><a xlink:href="struct_x_m_l_node.xhtml#a45d1c57025ef576313d7412920d7a326" target="_top" xlink:title="XMLNode::addAttribute_WOSD">
<polygon fill="white" stroke="black" points="374.5,-0.5 374.5,-19.5 529.5,-19.5 529.5,-0.5 374.5,-0.5"/>
<text text-anchor="middle" x="452" y="-7.5" font-family="Helvetica,sans-Serif" font-size="10.00">XMLNode::addAttribute_WOSD</text>
</a>
</g>
</g>
<!-- Node3&#45;&gt;Node4 -->
<g id="edge3" class="edge"><title>Node3&#45;&gt;Node4</title>
<path fill="none" stroke="midnightblue" d="M337.546,-10C346.289,-10 355.193,-10 363.974,-10"/>
<polygon fill="midnightblue" stroke="midnightblue" points="364.209,-13.5001 374.209,-10 364.209,-6.5001 364.209,-13.5001"/>
</g>
</g>
</svg>
