<?xml version="1.0" encoding="UTF-8" standalone="no"?>
<!DOCTYPE svg PUBLIC "-//W3C//DTD SVG 1.1//EN"
 "http://www.w3.org/Graphics/SVG/1.1/DTD/svg11.dtd">
<!-- Generated by graphviz version 2.36.0 (20140111.2315)
 -->
<!-- Title: XMLClear Pages: 1 -->
<svg width="101pt" height="118pt"
 viewBox="0.00 0.00 101.00 118.00" xmlns="http://www.w3.org/2000/svg" xmlns:xlink="http://www.w3.org/1999/xlink">
<g id="graph0" class="graph" transform="scale(1 1) rotate(0) translate(4 114)">
<title>XMLClear</title>
<polygon fill="white" stroke="none" points="-4,4 -4,-114 97,-114 97,4 -4,4"/>
<!-- Node1 -->
<g id="node1" class="node"><title>Node1</title>
<polygon fill="#bfbfbf" stroke="black" points="2,-0.5 2,-19.5 62,-19.5 62,-0.5 2,-0.5"/>
<text text-anchor="middle" x="32" y="-7.5" font-family="Helvetica,sans-Serif" font-size="10.00">XMLClear</text>
</g>
<!-- Node2 -->
<g id="node2" class="node"><title>Node2</title>
<polygon fill="white" stroke="#bfbfbf" points="-0.5,-90.5 -0.5,-109.5 64.5,-109.5 64.5,-90.5 -0.5,-90.5"/>
<text text-anchor="middle" x="32" y="-97.5" font-family="Helvetica,sans-Serif" font-size="10.00">XMLCSTR</text>
</g>
<!-- Node2&#45;&gt;Node1 -->
<g id="edge1" class="edge"><title>Node2&#45;&gt;Node1</title>
<path fill="none" stroke="#9a32cd" stroke-dasharray="5,2" d="M32,-79.9784C32,-61.3096 32,-33.6696 32,-19.7241"/>
<polygon fill="#9a32cd" stroke="#9a32cd" points="28.5001,-80.2405 32,-90.2405 35.5001,-80.2405 28.5001,-80.2405"/>
<text text-anchor="middle" x="62.5" y="-63.5" font-family="Helvetica,sans-Serif" font-size="10.00"> lpszOpenTag</text>
<text text-anchor="middle" x="62.5" y="-52.5" font-family="Helvetica,sans-Serif" font-size="10.00">lpszCloseTag</text>
<text text-anchor="middle" x="62.5" y="-41.5" font-family="Helvetica,sans-Serif" font-size="10.00">lpszValue</text>
</g>
</g>
</svg>
