<?xml version="1.0" encoding="UTF-8" standalone="no"?>
<!DOCTYPE svg PUBLIC "-//W3C//DTD SVG 1.1//EN"
 "http://www.w3.org/Graphics/SVG/1.1/DTD/svg11.dtd">
<!-- Generated by graphviz version 2.36.0 (20140111.2315)
 -->
<!-- Title: XMLNode::getChildNode Pages: 1 -->
<svg width="1008pt" height="563pt"
 viewBox="0.00 0.00 1008.00 562.92" xmlns="http://www.w3.org/2000/svg" xmlns:xlink="http://www.w3.org/1999/xlink">
<g id="graph0" class="graph" transform="scale(1 1) rotate(0) translate(4 558.918)">
<title>XMLNode::getChildNode</title>
<polygon fill="white" stroke="none" points="-4,4 -4,-558.918 1004,-558.918 1004,4 -4,4"/>
<!-- Node1 -->
<g id="node1" class="node"><title>Node1</title>
<polygon fill="#bfbfbf" stroke="black" points="0.5,-285.5 0.5,-304.5 125.5,-304.5 125.5,-285.5 0.5,-285.5"/>
<text text-anchor="middle" x="63" y="-292.5" font-family="Helvetica,sans-Serif" font-size="10.00">XMLNode::getChildNode</text>
</g>
<!-- Node2 -->
<g id="node2" class="node"><title>Node2</title>
<g id="a_node2"><a xlink:href="_p_d_a_q_2_core_2_source_2xml_parser_8cpp.xhtml#a9a625f17c09a36e3ad532cdf16072609" target="_top" xlink:title="charmemset">
<polygon fill="white" stroke="black" points="913.5,-488.5 913.5,-507.5 984.5,-507.5 984.5,-488.5 913.5,-488.5"/>
<text text-anchor="middle" x="949" y="-495.5" font-family="Helvetica,sans-Serif" font-size="10.00">charmemset</text>
</a>
</g>
</g>
<!-- Node1&#45;&gt;Node2 -->
<g id="edge1" class="edge"><title>Node1&#45;&gt;Node2</title>
<path fill="none" stroke="midnightblue" d="M66.2435,-314.575C72.4372,-358.683 94.0886,-465.814 162,-515 257.523,-584.184 308.055,-542 426,-542 426,-542 426,-542 603,-542 717.422,-542 851.487,-517.89 913.418,-505.365"/>
<polygon fill="midnightblue" stroke="midnightblue" points="69.7037,-314.041 64.9571,-304.569 62.7609,-314.934 69.7037,-314.041"/>
</g>
<!-- Node3 -->
<g id="node3" class="node"><title>Node3</title>
<g id="a_node3"><a xlink:href="_p_d_a_q_2_core_2_source_2xml_parser_8cpp.xhtml#ae6aa5a367ab3cc92b47fd92f81add72a" target="_top" xlink:title="CountLinesAndColumns">
<polygon fill="white" stroke="black" points="541,-304.5 541,-323.5 663,-323.5 663,-304.5 541,-304.5"/>
<text text-anchor="middle" x="602" y="-311.5" font-family="Helvetica,sans-Serif" font-size="10.00">CountLinesAndColumns</text>
</a>
</g>
</g>
<!-- Node1&#45;&gt;Node3 -->
<g id="edge2" class="edge"><title>Node1&#45;&gt;Node3</title>
<path fill="none" stroke="midnightblue" d="M135.638,-297.535C242.4,-301.312 441.336,-308.351 540.938,-311.875"/>
<polygon fill="midnightblue" stroke="midnightblue" points="135.718,-294.035 125.601,-297.18 135.471,-301.031 135.718,-294.035"/>
</g>
<!-- Node4 -->
<g id="node4" class="node"><title>Node4</title>
<g id="a_node4"><a xlink:href="struct_x_m_l_node.xhtml#af46d002a855acb46c18e47b70e686808" target="_top" xlink:title="XMLNode::getChildNode">
<polygon fill="white" stroke="black" points="177.5,-456.5 177.5,-475.5 302.5,-475.5 302.5,-456.5 177.5,-456.5"/>
<text text-anchor="middle" x="240" y="-463.5" font-family="Helvetica,sans-Serif" font-size="10.00">XMLNode::getChildNode</text>
</a>
</g>
</g>
<!-- Node1&#45;&gt;Node4 -->
<g id="edge3" class="edge"><title>Node1&#45;&gt;Node4</title>
<path fill="none" stroke="midnightblue" d="M71.5393,-313.853C84.996,-345.121 116.11,-407.656 162,-442 170.408,-448.292 180.498,-452.958 190.564,-456.409"/>
<polygon fill="midnightblue" stroke="midnightblue" points="74.7334,-312.419 67.6568,-304.534 68.2718,-315.111 74.7334,-312.419"/>
</g>
<!-- Node5 -->
<g id="node5" class="node"><title>Node5</title>
<g id="a_node5"><a xlink:href="struct_x_m_l_node.xhtml#a5d2775ee0704a2c028d76d267db7960a" target="_top" xlink:title="XMLNode::getChildNodeWith\lAttribute">
<polygon fill="white" stroke="black" points="354,-483 354,-513 500,-513 500,-483 354,-483"/>
<text text-anchor="start" x="362" y="-501" font-family="Helvetica,sans-Serif" font-size="10.00">XMLNode::getChildNodeWith</text>
<text text-anchor="middle" x="427" y="-490" font-family="Helvetica,sans-Serif" font-size="10.00">Attribute</text>
</a>
</g>
</g>
<!-- Node1&#45;&gt;Node5 -->
<g id="edge4" class="edge"><title>Node1&#45;&gt;Node5</title>
<path fill="none" stroke="midnightblue" d="M67.4795,-314.609C75.7475,-354.686 100.666,-445.522 162,-485 218.626,-521.448 297.083,-520.38 353.735,-512.832"/>
<polygon fill="midnightblue" stroke="midnightblue" points="70.9055,-313.891 65.5726,-304.736 64.0326,-315.218 70.9055,-313.891"/>
</g>
<!-- Node6 -->
<g id="node6" class="node"><title>Node6</title>
<g id="a_node6"><a xlink:href="class_a_d_c_manager1724.xhtml#a6de2521b9c793edcf14aeaeefeb62787" target="_top" xlink:title="ADCManager1724::Init">
<polygon fill="white" stroke="black" points="725,-418.5 725,-437.5 841,-437.5 841,-418.5 725,-418.5"/>
<text text-anchor="middle" x="783" y="-425.5" font-family="Helvetica,sans-Serif" font-size="10.00">ADCManager1724::Init</text>
</a>
</g>
</g>
<!-- Node1&#45;&gt;Node6 -->
<g id="edge6" class="edge"><title>Node1&#45;&gt;Node6</title>
<path fill="none" stroke="midnightblue" d="M81.8291,-311.324C100.391,-327.311 131.033,-350.968 162,-363 357.709,-439.044 612.85,-437.162 724.955,-431.79"/>
<polygon fill="midnightblue" stroke="midnightblue" points="84.0074,-308.579 74.1927,-304.588 79.3768,-313.828 84.0074,-308.579"/>
</g>
<!-- Node7 -->
<g id="node7" class="node"><title>Node7</title>
<g id="a_node7"><a xlink:href="class_a_d_c_manager1720.xhtml#aae342ccd8bf1c253c455e195bfd82dfe" target="_top" xlink:title="ADCManager1720::Init">
<polygon fill="white" stroke="black" points="725,-380.5 725,-399.5 841,-399.5 841,-380.5 725,-380.5"/>
<text text-anchor="middle" x="783" y="-387.5" font-family="Helvetica,sans-Serif" font-size="10.00">ADCManager1720::Init</text>
</a>
</g>
</g>
<!-- Node1&#45;&gt;Node7 -->
<g id="edge7" class="edge"><title>Node1&#45;&gt;Node7</title>
<path fill="none" stroke="midnightblue" d="M91.674,-308.903C110.907,-317.908 137.403,-329.033 162,-335 364.68,-384.17 614.149,-390.461 724.66,-390.58"/>
<polygon fill="midnightblue" stroke="midnightblue" points="93.1232,-305.716 82.5921,-304.555 90.1005,-312.03 93.1232,-305.716"/>
</g>
<!-- Node8 -->
<g id="node8" class="node"><title>Node8</title>
<g id="a_node8"><a xlink:href="class_a_d_c_manager1730.xhtml#adb6d45f2024f4a52d366a88d1c7f229d" target="_top" xlink:title="ADCManager1730::Init">
<polygon fill="white" stroke="black" points="725,-323.5 725,-342.5 841,-342.5 841,-323.5 725,-323.5"/>
<text text-anchor="middle" x="783" y="-330.5" font-family="Helvetica,sans-Serif" font-size="10.00">ADCManager1730::Init</text>
</a>
</g>
</g>
<!-- Node1&#45;&gt;Node8 -->
<g id="edge8" class="edge"><title>Node1&#45;&gt;Node8</title>
<path fill="none" stroke="midnightblue" d="M113.673,-306.674C129.08,-309.88 146.17,-313.016 162,-315 367.95,-340.817 615.248,-337.961 724.876,-334.974"/>
<polygon fill="midnightblue" stroke="midnightblue" points="114.333,-303.236 103.822,-304.569 112.87,-310.082 114.333,-303.236"/>
</g>
<!-- Node9 -->
<g id="node9" class="node"><title>Node9</title>
<g id="a_node9"><a xlink:href="struct_x_m_l_node.xhtml#acb95f4f00e4cf3756aac0e3a53765248" target="_top" xlink:title="XMLNode::parseString">
<polygon fill="white" stroke="black" points="182,-266.5 182,-285.5 298,-285.5 298,-266.5 182,-266.5"/>
<text text-anchor="middle" x="240" y="-273.5" font-family="Helvetica,sans-Serif" font-size="10.00">XMLNode::parseString</text>
</a>
</g>
</g>
<!-- Node1&#45;&gt;Node9 -->
<g id="edge9" class="edge"><title>Node1&#45;&gt;Node9</title>
<path fill="none" stroke="midnightblue" d="M135.704,-287.215C151.111,-285.542 167.193,-283.796 181.954,-282.194"/>
<polygon fill="midnightblue" stroke="midnightblue" points="135.262,-283.742 125.698,-288.301 136.018,-290.701 135.262,-283.742"/>
</g>
<!-- Node12 -->
<g id="node12" class="node"><title>Node12</title>
<g id="a_node12"><a xlink:href="class_scope_manager.xhtml#abe246d1b817d85a9cba7af3441a4df04" target="_top" xlink:title="ScopeManager::ShowEvent">
<polygon fill="white" stroke="black" points="714,-215.5 714,-234.5 852,-234.5 852,-215.5 714,-215.5"/>
<text text-anchor="middle" x="783" y="-222.5" font-family="Helvetica,sans-Serif" font-size="10.00">ScopeManager::ShowEvent</text>
</a>
</g>
</g>
<!-- Node1&#45;&gt;Node12 -->
<g id="edge31" class="edge"><title>Node1&#45;&gt;Node12</title>
<path fill="none" stroke="midnightblue" d="M94.7965,-281.462C113.866,-273.482 139.019,-263.674 162,-257 378.573,-194.102 442.556,-213.071 668,-219 682.859,-219.391 698.796,-220.068 713.905,-220.829"/>
<polygon fill="midnightblue" stroke="midnightblue" points="93.2596,-278.312 85.4228,-285.442 95.9954,-284.756 93.2596,-278.312"/>
</g>
<!-- Node14 -->
<g id="node14" class="node"><title>Node14</title>
<g id="a_node14"><a xlink:href="class_slowcontrol_manager.xhtml#a36ab5157f5a740b9058517b77d1ce38f" target="_top" xlink:title="SlowcontrolManager\l::ShowStatus">
<polygon fill="white" stroke="black" points="730.5,-166 730.5,-196 835.5,-196 835.5,-166 730.5,-166"/>
<text text-anchor="start" x="738.5" y="-184" font-family="Helvetica,sans-Serif" font-size="10.00">SlowcontrolManager</text>
<text text-anchor="middle" x="783" y="-173" font-family="Helvetica,sans-Serif" font-size="10.00">::ShowStatus</text>
</a>
</g>
</g>
<!-- Node1&#45;&gt;Node14 -->
<g id="edge32" class="edge"><title>Node1&#45;&gt;Node14</title>
<path fill="none" stroke="midnightblue" d="M79.1973,-277.764C96.9439,-258.992 128.206,-229.918 162,-217 360.656,-141.061 621.263,-160.773 730.415,-173.819"/>
<polygon fill="midnightblue" stroke="midnightblue" points="76.4294,-275.604 72.2422,-285.336 81.5847,-280.339 76.4294,-275.604"/>
</g>
<!-- Node15 -->
<g id="node15" class="node"><title>Node15</title>
<g id="a_node15"><a xlink:href="class_storage_manager.xhtml#ab16a945d003852d02556daf3610a9aac" target="_top" xlink:title="StorageManager::SaveContainer">
<polygon fill="white" stroke="black" points="704,-127.5 704,-146.5 862,-146.5 862,-127.5 704,-127.5"/>
<text text-anchor="middle" x="783" y="-134.5" font-family="Helvetica,sans-Serif" font-size="10.00">StorageManager::SaveContainer</text>
</a>
</g>
</g>
<!-- Node1&#45;&gt;Node15 -->
<g id="edge30" class="edge"><title>Node1&#45;&gt;Node15</title>
<path fill="none" stroke="midnightblue" d="M72.694,-276.219C86.8959,-247.971 117.969,-195.373 162,-172 354.594,-69.766 629.855,-107.224 736.952,-127.46"/>
<polygon fill="midnightblue" stroke="midnightblue" points="69.4439,-274.899 68.2323,-285.425 75.7432,-277.952 69.4439,-274.899"/>
</g>
<!-- Node18 -->
<g id="node18" class="node"><title>Node18</title>
<g id="a_node18"><a xlink:href="_p_d_a_q_2_core_2_source_2xml_8cpp.xhtml#a8251b051736c5146c1985edc6cb357e6" target="_top" xlink:title="xml_readsettings">
<polygon fill="white" stroke="black" points="737.5,-83.5 737.5,-102.5 828.5,-102.5 828.5,-83.5 737.5,-83.5"/>
<text text-anchor="middle" x="783" y="-90.5" font-family="Helvetica,sans-Serif" font-size="10.00">xml_readsettings</text>
</a>
</g>
</g>
<!-- Node1&#45;&gt;Node18 -->
<g id="edge34" class="edge"><title>Node1&#45;&gt;Node18</title>
<path fill="none" stroke="midnightblue" d="M68.208,-275.636C77.5981,-237.61 104.147,-153.616 162,-116 256.593,-54.4963 611.585,-78.2535 737.426,-88.9132"/>
<polygon fill="midnightblue" stroke="midnightblue" points="64.7786,-274.93 65.9152,-285.464 71.5956,-276.521 64.7786,-274.93"/>
</g>
<!-- Node20 -->
<g id="node20" class="node"><title>Node20</title>
<g id="a_node20"><a xlink:href="struct_x_m_l_node.xhtml#a102dcd93d13144e2a87b664e6f810725" target="_top" xlink:title="XMLNode::positionOfChildNode">
<polygon fill="white" stroke="black" points="162,-38.5 162,-57.5 318,-57.5 318,-38.5 162,-38.5"/>
<text text-anchor="middle" x="240" y="-45.5" font-family="Helvetica,sans-Serif" font-size="10.00">XMLNode::positionOfChildNode</text>
</a>
</g>
</g>
<!-- Node1&#45;&gt;Node20 -->
<g id="edge29" class="edge"><title>Node1&#45;&gt;Node20</title>
<path fill="none" stroke="midnightblue" d="M67.0572,-275.228C74.7939,-231.934 99.1959,-128.141 162,-72 169.099,-65.6543 177.859,-60.9864 186.898,-57.5527"/>
<polygon fill="midnightblue" stroke="midnightblue" points="63.5689,-274.867 65.3668,-285.309 70.4725,-276.025 63.5689,-274.867"/>
</g>
<!-- Node21 -->
<g id="node21" class="node"><title>Node21</title>
<g id="a_node21"><a xlink:href="struct_x_m_l_node.xhtml#ab8d92d057c0072cc195b1935b2f53d80" target="_top" xlink:title="XMLNode::writeToFile">
<polygon fill="white" stroke="black" points="183,-0.5 183,-19.5 297,-19.5 297,-0.5 183,-0.5"/>
<text text-anchor="middle" x="240" y="-7.5" font-family="Helvetica,sans-Serif" font-size="10.00">XMLNode::writeToFile</text>
</a>
</g>
</g>
<!-- Node1&#45;&gt;Node21 -->
<g id="edge33" class="edge"><title>Node1&#45;&gt;Node21</title>
<path fill="none" stroke="midnightblue" d="M65.1919,-275.231C69.2737,-225.825 86.969,-96.1281 162,-29 167.952,-23.6752 175.159,-19.7879 182.747,-16.9601"/>
<polygon fill="midnightblue" stroke="midnightblue" points="61.6981,-275.02 64.4652,-285.247 68.6798,-275.527 61.6981,-275.02"/>
</g>
<!-- Node5&#45;&gt;Node2 -->
<g id="edge5" class="edge"><title>Node5&#45;&gt;Node2</title>
<path fill="none" stroke="midnightblue" d="M510.251,-498C625.907,-498 831.583,-498 913.216,-498"/>
<polygon fill="midnightblue" stroke="midnightblue" points="510.031,-494.5 500.031,-498 510.031,-501.5 510.031,-494.5"/>
</g>
<!-- Node9&#45;&gt;Node3 -->
<g id="edge28" class="edge"><title>Node9&#45;&gt;Node3</title>
<path fill="none" stroke="midnightblue" d="M308.336,-281.397C360.662,-285.795 435.024,-292.49 500,-300 513.277,-301.535 527.507,-303.382 540.974,-305.223"/>
<polygon fill="midnightblue" stroke="midnightblue" points="308.43,-277.893 298.173,-280.549 307.847,-284.869 308.43,-277.893"/>
</g>
<!-- Node10 -->
<g id="node10" class="node"><title>Node10</title>
<g id="a_node10"><a xlink:href="struct_x_m_l_node.xhtml#a5e5968e052d58350918cd91e3535624b" target="_top" xlink:title="XMLNode::parseFile">
<polygon fill="white" stroke="black" points="374,-228.5 374,-247.5 480,-247.5 480,-228.5 374,-228.5"/>
<text text-anchor="middle" x="427" y="-235.5" font-family="Helvetica,sans-Serif" font-size="10.00">XMLNode::parseFile</text>
</a>
</g>
</g>
<!-- Node9&#45;&gt;Node10 -->
<g id="edge10" class="edge"><title>Node9&#45;&gt;Node10</title>
<path fill="none" stroke="midnightblue" d="M297.52,-264.39C323.831,-258.986 354.743,-252.636 379.652,-247.52"/>
<polygon fill="midnightblue" stroke="midnightblue" points="296.775,-260.97 287.683,-266.411 298.183,-267.827 296.775,-260.97"/>
</g>
<!-- Node10&#45;&gt;Node3 -->
<g id="edge27" class="edge"><title>Node10&#45;&gt;Node3</title>
<path fill="none" stroke="midnightblue" d="M474.005,-250.738C482.861,-253.907 491.895,-257.662 500,-262 517.871,-271.564 518.284,-280.151 536,-290 546.304,-295.728 558.244,-300.588 569.058,-304.404"/>
<polygon fill="midnightblue" stroke="midnightblue" points="475.112,-247.417 464.518,-247.529 472.87,-254.049 475.112,-247.417"/>
</g>
<!-- Node11 -->
<g id="node11" class="node"><title>Node11</title>
<g id="a_node11"><a xlink:href="struct_x_m_l_node.xhtml#acc044148e2b9b8264a320b7b6e398158" target="_top" xlink:title="XMLNode::openFileHelper">
<polygon fill="white" stroke="black" points="536.5,-228.5 536.5,-247.5 667.5,-247.5 667.5,-228.5 536.5,-228.5"/>
<text text-anchor="middle" x="602" y="-235.5" font-family="Helvetica,sans-Serif" font-size="10.00">XMLNode::openFileHelper</text>
</a>
</g>
</g>
<!-- Node10&#45;&gt;Node11 -->
<g id="edge11" class="edge"><title>Node10&#45;&gt;Node11</title>
<path fill="none" stroke="midnightblue" d="M490.489,-238C505.371,-238 521.283,-238 536.263,-238"/>
<polygon fill="midnightblue" stroke="midnightblue" points="490.375,-234.5 480.375,-238 490.375,-241.5 490.375,-234.5"/>
</g>
<!-- Node16 -->
<g id="node16" class="node"><title>Node16</title>
<g id="a_node16"><a xlink:href="_p_d_a_q_2_core_2_source_2xml_parser_8cpp.xhtml#af77e3e2685487b9c492b20c36f3b864a" target="_top" xlink:title="_strnicmp">
<polygon fill="white" stroke="black" points="753.5,-266.5 753.5,-285.5 812.5,-285.5 812.5,-266.5 753.5,-266.5"/>
<text text-anchor="middle" x="783" y="-273.5" font-family="Helvetica,sans-Serif" font-size="10.00">_strnicmp</text>
</a>
</g>
</g>
<!-- Node10&#45;&gt;Node16 -->
<g id="edge26" class="edge"><title>Node10&#45;&gt;Node16</title>
<path fill="none" stroke="midnightblue" d="M486.521,-249.362C502.518,-252.176 519.886,-254.965 536,-257 614.409,-266.901 707.574,-272.4 753.5,-274.699"/>
<polygon fill="midnightblue" stroke="midnightblue" points="486.695,-245.838 476.234,-247.517 485.459,-252.728 486.695,-245.838"/>
</g>
<!-- Node11&#45;&gt;Node6 -->
<g id="edge13" class="edge"><title>Node11&#45;&gt;Node6</title>
<path fill="none" stroke="midnightblue" d="M626.196,-253.371C640.098,-263.663 657.128,-278.348 668,-295 697.046,-339.491 665.193,-372.708 704,-409 709.904,-414.522 717.137,-418.517 724.793,-421.393"/>
<polygon fill="midnightblue" stroke="midnightblue" points="628.203,-250.504 618.028,-247.552 624.142,-256.205 628.203,-250.504"/>
</g>
<!-- Node11&#45;&gt;Node7 -->
<g id="edge12" class="edge"><title>Node11&#45;&gt;Node7</title>
<path fill="none" stroke="midnightblue" d="M624.155,-253.952C637.601,-264.691 654.883,-279.649 668,-295 687.465,-317.779 681.681,-332.009 704,-352 718.25,-364.763 737.558,-374.215 753.398,-380.5"/>
<polygon fill="midnightblue" stroke="midnightblue" points="625.989,-250.944 615.955,-247.543 621.678,-256.459 625.989,-250.944"/>
</g>
<!-- Node11&#45;&gt;Node8 -->
<g id="edge14" class="edge"><title>Node11&#45;&gt;Node8</title>
<path fill="none" stroke="midnightblue" d="M628.187,-252.775C648.48,-264.542 677.839,-281.262 704,-295 723.337,-305.155 745.793,-315.997 761.63,-323.49"/>
<polygon fill="midnightblue" stroke="midnightblue" points="629.68,-249.594 619.277,-247.588 626.159,-255.644 629.68,-249.594"/>
</g>
<!-- Node11&#45;&gt;Node12 -->
<g id="edge15" class="edge"><title>Node11&#45;&gt;Node12</title>
<path fill="none" stroke="midnightblue" d="M677.607,-232.582C689.619,-231.709 701.999,-230.81 713.849,-229.95"/>
<polygon fill="midnightblue" stroke="midnightblue" points="677.343,-229.091 667.623,-233.307 677.85,-236.073 677.343,-229.091"/>
</g>
<!-- Node11&#45;&gt;Node14 -->
<g id="edge17" class="edge"><title>Node11&#45;&gt;Node14</title>
<path fill="none" stroke="midnightblue" d="M642.543,-225.408C669.75,-216.745 706.017,-205.196 734.748,-196.047"/>
<polygon fill="midnightblue" stroke="midnightblue" points="641.427,-222.09 632.961,-228.459 643.551,-228.76 641.427,-222.09"/>
</g>
<!-- Node11&#45;&gt;Node15 -->
<g id="edge19" class="edge"><title>Node11&#45;&gt;Node15</title>
<path fill="none" stroke="midnightblue" d="M619.212,-221.273C637.967,-202.874 670.574,-173.706 704,-157 712.628,-152.688 722.272,-149.247 731.757,-146.521"/>
<polygon fill="midnightblue" stroke="midnightblue" points="616.653,-218.883 612.061,-228.432 621.605,-223.831 616.653,-218.883"/>
</g>
<!-- Node11&#45;&gt;Node16 -->
<g id="edge21" class="edge"><title>Node11&#45;&gt;Node16</title>
<path fill="none" stroke="midnightblue" d="M658.133,-249.704C689.619,-256.388 727.796,-264.493 753.371,-269.922"/>
<polygon fill="midnightblue" stroke="midnightblue" points="658.678,-246.242 648.169,-247.589 657.224,-253.089 658.678,-246.242"/>
</g>
<!-- Node11&#45;&gt;Node18 -->
<g id="edge24" class="edge"><title>Node11&#45;&gt;Node18</title>
<path fill="none" stroke="midnightblue" d="M613.681,-219.727C629.93,-193.483 663.311,-145.283 704,-118 714.039,-111.268 726.011,-106.251 737.525,-102.551"/>
<polygon fill="midnightblue" stroke="midnightblue" points="610.663,-217.954 608.488,-228.324 616.654,-221.574 610.663,-217.954"/>
</g>
<!-- Node13 -->
<g id="node13" class="node"><title>Node13</title>
<g id="a_node13"><a xlink:href="_multi_d_a_q_8cpp.xhtml#adedb285b02c41bde2158ded9cc9fd7ac" target="_top" xlink:title="main">
<polygon fill="white" stroke="black" points="930,-171.5 930,-190.5 968,-190.5 968,-171.5 930,-171.5"/>
<text text-anchor="middle" x="949" y="-178.5" font-family="Helvetica,sans-Serif" font-size="10.00">main</text>
</a>
</g>
</g>
<!-- Node12&#45;&gt;Node13 -->
<g id="edge16" class="edge"><title>Node12&#45;&gt;Node13</title>
<path fill="none" stroke="midnightblue" d="M831.581,-212.97C841.636,-210.38 852.176,-207.63 862,-205 885.509,-198.707 912.528,-191.106 929.911,-186.168"/>
<polygon fill="midnightblue" stroke="midnightblue" points="830.549,-209.622 821.732,-215.496 832.288,-216.402 830.549,-209.622"/>
</g>
<!-- Node14&#45;&gt;Node13 -->
<g id="edge18" class="edge"><title>Node14&#45;&gt;Node13</title>
<path fill="none" stroke="midnightblue" d="M846.256,-181C876.076,-181 909.599,-181 929.744,-181"/>
<polygon fill="midnightblue" stroke="midnightblue" points="845.891,-177.5 835.891,-181 845.891,-184.5 845.891,-177.5"/>
</g>
<!-- Node15&#45;&gt;Node13 -->
<g id="edge20" class="edge"><title>Node15&#45;&gt;Node13</title>
<path fill="none" stroke="midnightblue" d="M831.581,-149.03C841.636,-151.62 852.176,-154.37 862,-157 885.509,-163.293 912.528,-170.894 929.911,-175.832"/>
<polygon fill="midnightblue" stroke="midnightblue" points="832.288,-145.598 821.732,-146.504 830.549,-152.378 832.288,-145.598"/>
</g>
<!-- Node16&#45;&gt;Node2 -->
<g id="edge22" class="edge"><title>Node16&#45;&gt;Node2</title>
<path fill="none" stroke="midnightblue" d="M822.219,-288.472C836.079,-294.469 851.012,-302.834 862,-314 914.432,-367.283 939.001,-458.502 945.898,-488.284"/>
<polygon fill="midnightblue" stroke="midnightblue" points="823.441,-285.19 812.857,-284.693 820.821,-291.681 823.441,-285.19"/>
</g>
<!-- Node17 -->
<g id="node17" class="node"><title>Node17</title>
<g id="a_node17"><a xlink:href="_p_d_a_q_2_core_2_source_2xml_parser_8cpp.xhtml#ad9a5c911a8e21bb89427d29d33e2797e" target="_top" xlink:title="myIsTextWideChar">
<polygon fill="white" stroke="black" points="898.5,-266.5 898.5,-285.5 999.5,-285.5 999.5,-266.5 898.5,-266.5"/>
<text text-anchor="middle" x="949" y="-273.5" font-family="Helvetica,sans-Serif" font-size="10.00">myIsTextWideChar</text>
</a>
</g>
</g>
<!-- Node16&#45;&gt;Node17 -->
<g id="edge23" class="edge"><title>Node16&#45;&gt;Node17</title>
<path fill="none" stroke="midnightblue" d="M822.784,-276C845.346,-276 874.018,-276 898.231,-276"/>
<polygon fill="midnightblue" stroke="midnightblue" points="822.567,-272.5 812.567,-276 822.567,-279.5 822.567,-272.5"/>
</g>
<!-- Node19 -->
<g id="node19" class="node"><title>Node19</title>
<g id="a_node19"><a xlink:href="_z_d_a_q_8cpp.xhtml#a0ddf1224851353fc92bfbff6f499fa97" target="_top" xlink:title="main">
<polygon fill="white" stroke="black" points="930,-83.5 930,-102.5 968,-102.5 968,-83.5 930,-83.5"/>
<text text-anchor="middle" x="949" y="-90.5" font-family="Helvetica,sans-Serif" font-size="10.00">main</text>
</a>
</g>
</g>
<!-- Node18&#45;&gt;Node19 -->
<g id="edge25" class="edge"><title>Node18&#45;&gt;Node19</title>
<path fill="none" stroke="midnightblue" d="M839.216,-93C870.646,-93 907.974,-93 929.724,-93"/>
<polygon fill="midnightblue" stroke="midnightblue" points="838.814,-89.5001 828.814,-93 838.814,-96.5001 838.814,-89.5001"/>
</g>
</g>
</svg>
