<?xml version="1.0" encoding="UTF-8" standalone="no"?>
<!DOCTYPE svg PUBLIC "-//W3C//DTD SVG 1.1//EN"
 "http://www.w3.org/Graphics/SVG/1.1/DTD/svg11.dtd">
<!-- Generated by graphviz version 2.36.0 (20140111.2315)
 -->
<!-- Title: ToXMLStringTool::toXML Pages: 1 -->
<svg width="362pt" height="66pt"
 viewBox="0.00 0.00 362.00 66.00" xmlns="http://www.w3.org/2000/svg" xmlns:xlink="http://www.w3.org/1999/xlink">
<g id="graph0" class="graph" transform="scale(1 1) rotate(0) translate(4 62)">
<title>ToXMLStringTool::toXML</title>
<polygon fill="white" stroke="none" points="-4,4 -4,-62 358,-62 358,4 -4,4"/>
<!-- Node1 -->
<g id="node1" class="node"><title>Node1</title>
<polygon fill="#bfbfbf" stroke="black" points="0.5,-19.5 0.5,-38.5 127.5,-38.5 127.5,-19.5 0.5,-19.5"/>
<text text-anchor="middle" x="64" y="-26.5" font-family="Helvetica,sans-Serif" font-size="10.00">ToXMLStringTool::toXML</text>
</g>
<!-- Node2 -->
<g id="node2" class="node"><title>Node2</title>
<g id="a_node2"><a xlink:href="_c_d_a_q_2_plugins_2_source_2xml_parser_8cpp.xhtml#ae1b2fd77551f439e58967a80d09c59d1" target="_top" xlink:title="lengthXMLString">
<polygon fill="white" stroke="black" points="171.5,-38.5 171.5,-57.5 260.5,-57.5 260.5,-38.5 171.5,-38.5"/>
<text text-anchor="middle" x="216" y="-45.5" font-family="Helvetica,sans-Serif" font-size="10.00">lengthXMLString</text>
</a>
</g>
</g>
<!-- Node1&#45;&gt;Node2 -->
<g id="edge1" class="edge"><title>Node1&#45;&gt;Node2</title>
<path fill="none" stroke="midnightblue" d="M127.744,-36.9476C138.817,-38.3501 150.256,-39.7991 161.06,-41.1676"/>
<polygon fill="midnightblue" stroke="midnightblue" points="160.831,-44.6665 171.192,-42.4509 161.711,-37.722 160.831,-44.6665"/>
</g>
<!-- Node3 -->
<g id="node3" class="node"><title>Node3</title>
<g id="a_node3"><a xlink:href="_c_d_a_q_2_plugins_2_source_2xml_parser_8cpp.xhtml#a454fce17a610e83316f0df2534cd4e08" target="_top" xlink:title="toXMLStringUnSafe">
<polygon fill="white" stroke="black" points="164,-0.5 164,-19.5 268,-19.5 268,-0.5 164,-0.5"/>
<text text-anchor="middle" x="216" y="-7.5" font-family="Helvetica,sans-Serif" font-size="10.00">toXMLStringUnSafe</text>
</a>
</g>
</g>
<!-- Node1&#45;&gt;Node3 -->
<g id="edge2" class="edge"><title>Node1&#45;&gt;Node3</title>
<path fill="none" stroke="midnightblue" d="M127.744,-21.0524C136.4,-19.956 145.279,-18.8314 153.904,-17.7389"/>
<polygon fill="midnightblue" stroke="midnightblue" points="154.402,-21.2038 163.883,-16.4748 153.523,-14.2593 154.402,-21.2038"/>
</g>
<!-- Node4 -->
<g id="node4" class="node"><title>Node4</title>
<g id="a_node4"><a xlink:href="_c_d_a_q_2_plugins_2_source_2xml_parser_8cpp.xhtml#a73c2349b2f386ee50130a3961bd2dbab" target="_top" xlink:title="xstrcpy">
<polygon fill="white" stroke="black" points="304.5,-0.5 304.5,-19.5 353.5,-19.5 353.5,-0.5 304.5,-0.5"/>
<text text-anchor="middle" x="329" y="-7.5" font-family="Helvetica,sans-Serif" font-size="10.00">xstrcpy</text>
</a>
</g>
</g>
<!-- Node3&#45;&gt;Node4 -->
<g id="edge3" class="edge"><title>Node3&#45;&gt;Node4</title>
<path fill="none" stroke="midnightblue" d="M268.276,-10C277.044,-10 285.954,-10 294.123,-10"/>
<polygon fill="midnightblue" stroke="midnightblue" points="294.361,-13.5001 304.361,-10 294.361,-6.5001 294.361,-13.5001"/>
</g>
</g>
</svg>
