<?xml version="1.0" encoding="UTF-8" standalone="no"?>
<!DOCTYPE svg PUBLIC "-//W3C//DTD SVG 1.1//EN"
 "http://www.w3.org/Graphics/SVG/1.1/DTD/svg11.dtd">
<!-- Generated by graphviz version 2.36.0 (20140111.2315)
 -->
<!-- Title: XMLNode::writeToFile Pages: 1 -->
<svg width="298pt" height="142pt"
 viewBox="0.00 0.00 298.00 142.00" xmlns="http://www.w3.org/2000/svg" xmlns:xlink="http://www.w3.org/1999/xlink">
<g id="graph0" class="graph" transform="scale(1 1) rotate(0) translate(4 138)">
<title>XMLNode::writeToFile</title>
<polygon fill="white" stroke="none" points="-4,4 -4,-138 294,-138 294,4 -4,4"/>
<!-- Node1 -->
<g id="node1" class="node"><title>Node1</title>
<polygon fill="#bfbfbf" stroke="black" points="0,-57.5 0,-76.5 114,-76.5 114,-57.5 0,-57.5"/>
<text text-anchor="middle" x="57" y="-64.5" font-family="Helvetica,sans-Serif" font-size="10.00">XMLNode::writeToFile</text>
</g>
<!-- Node2 -->
<g id="node2" class="node"><title>Node2</title>
<g id="a_node2"><a xlink:href="struct_x_m_l_node.xhtml#ac8710ba5e7ff6e62a222445501ef9972" target="_top" xlink:title="XMLNode::createXMLString">
<polygon fill="white" stroke="black" points="150.5,-114.5 150.5,-133.5 289.5,-133.5 289.5,-114.5 150.5,-114.5"/>
<text text-anchor="middle" x="220" y="-121.5" font-family="Helvetica,sans-Serif" font-size="10.00">XMLNode::createXMLString</text>
</a>
</g>
</g>
<!-- Node1&#45;&gt;Node2 -->
<g id="edge1" class="edge"><title>Node1&#45;&gt;Node2</title>
<path fill="none" stroke="midnightblue" d="M78.9113,-76.5021C97.3773,-84.6837 125.152,-96.4833 150,-105 156.869,-107.354 164.197,-109.624 171.417,-111.724"/>
<polygon fill="midnightblue" stroke="midnightblue" points="170.567,-115.121 181.142,-114.477 172.473,-108.386 170.567,-115.121"/>
</g>
<!-- Node3 -->
<g id="node3" class="node"><title>Node3</title>
<g id="a_node3"><a xlink:href="struct_x_m_l_node.xhtml#a77a21438b6d48a52cf8a1270f82f4475" target="_top" xlink:title="XMLNode::getChildNode">
<polygon fill="white" stroke="black" points="157.5,-76.5 157.5,-95.5 282.5,-95.5 282.5,-76.5 157.5,-76.5"/>
<text text-anchor="middle" x="220" y="-83.5" font-family="Helvetica,sans-Serif" font-size="10.00">XMLNode::getChildNode</text>
</a>
</g>
</g>
<!-- Node1&#45;&gt;Node3 -->
<g id="edge2" class="edge"><title>Node1&#45;&gt;Node3</title>
<path fill="none" stroke="midnightblue" d="M114.31,-73.6453C124.932,-74.8988 136.174,-76.2255 147.196,-77.5262"/>
<polygon fill="midnightblue" stroke="midnightblue" points="146.89,-81.0144 157.232,-78.7106 147.711,-74.0626 146.89,-81.0144"/>
</g>
<!-- Node4 -->
<g id="node4" class="node"><title>Node4</title>
<g id="a_node4"><a xlink:href="struct_x_m_l_node.xhtml#a71df27d54a2dc09b0a456406a7e8c6d3" target="_top" xlink:title="XMLNode::isDeclaration">
<polygon fill="white" stroke="black" points="158.5,-38.5 158.5,-57.5 281.5,-57.5 281.5,-38.5 158.5,-38.5"/>
<text text-anchor="middle" x="220" y="-45.5" font-family="Helvetica,sans-Serif" font-size="10.00">XMLNode::isDeclaration</text>
</a>
</g>
</g>
<!-- Node1&#45;&gt;Node4 -->
<g id="edge3" class="edge"><title>Node1&#45;&gt;Node4</title>
<path fill="none" stroke="midnightblue" d="M114.31,-60.3547C125.321,-59.0553 136.998,-57.6773 148.405,-56.331"/>
<polygon fill="midnightblue" stroke="midnightblue" points="148.816,-59.8069 158.337,-55.159 147.996,-52.8552 148.816,-59.8069"/>
</g>
<!-- Node5 -->
<g id="node5" class="node"><title>Node5</title>
<g id="a_node5"><a xlink:href="_c_d_a_q_2_plugins_2_source_2xml_parser_8cpp.xhtml#a8dd6e6cada28ea03e5cacd075b1be7f6" target="_top" xlink:title="xfopen">
<polygon fill="white" stroke="black" points="197,-0.5 197,-19.5 243,-19.5 243,-0.5 197,-0.5"/>
<text text-anchor="middle" x="220" y="-7.5" font-family="Helvetica,sans-Serif" font-size="10.00">xfopen</text>
</a>
</g>
</g>
<!-- Node1&#45;&gt;Node5 -->
<g id="edge4" class="edge"><title>Node1&#45;&gt;Node5</title>
<path fill="none" stroke="midnightblue" d="M78.9113,-57.4979C97.3773,-49.3163 125.152,-37.5167 150,-29 161.909,-24.9182 175.2,-21.0912 186.913,-17.9566"/>
<polygon fill="midnightblue" stroke="midnightblue" points="187.936,-21.3068 196.726,-15.3913 186.166,-14.5344 187.936,-21.3068"/>
</g>
</g>
</svg>
